<?xml version="1.0" encoding="utf-8"?>
<!-- Generator: Adobe Illustrator 17.0.0, SVG Export Plug-In . SVG Version: 6.00 Build 0)  -->
<!DOCTYPE svg PUBLIC "-//W3C//DTD SVG 1.1//EN" "http://www.w3.org/Graphics/SVG/1.1/DTD/svg11.dtd">
<svg version="1.1" id="Layer_1" xmlns="http://www.w3.org/2000/svg" xmlns:xlink="http://www.w3.org/1999/xlink" x="0px" y="0px"
	 width="716.432px" height="321.032px" viewBox="82 16.635 716.432 321.032" enable-background="new 82 16.635 716.432 321.032"
	 xml:space="preserve">
<rect x="268.71" y="251.667" fill="none" stroke="#020202" stroke-width="2" stroke-miterlimit="10" width="338.038" height="85"/>
<rect x="83" y="17.635" fill="none" stroke="#040200" stroke-width="2" stroke-miterlimit="10" width="714.432" height="42.678"/>
<rect x="268.71" y="101.837" fill="none" stroke="#020202" stroke-width="2" stroke-miterlimit="10" width="146.393" height="110.136"/>
<rect x="460.355" y="101.837" fill="none" stroke="#020202" stroke-width="2" stroke-miterlimit="10" width="146.393" height="110.136"/>
<rect x="651.039" y="101.373" fill="none" stroke="#020202" stroke-width="2" stroke-miterlimit="10" width="146.393" height="111.601"/>
<rect x="83" y="102" fill="none" stroke="#020202" stroke-width="2" stroke-miterlimit="10" width="141.333" height="60.667"/>
<rect x="83" y="170.258" fill="none" stroke="#020202" stroke-width="2" stroke-miterlimit="10" width="141.333" height="41.715"/>
<g>
	<path fill="#040200" d="M386.048,44.015V33.44h0.78l4.2,7.965l4.17-7.965h0.78v10.575h-0.855v-8.79l-3.765,7.155h-0.66l-3.811-7.14
		v8.775H386.048z"/>
	<path fill="#040200" d="M401.798,44.135c-1.12,0-2.002-0.333-2.647-0.998c-0.645-0.665-0.968-1.578-0.968-2.738
		c0-0.75,0.146-1.41,0.436-1.98c0.29-0.57,0.692-1.015,1.207-1.335c0.516-0.32,1.107-0.48,1.778-0.48
		c0.97,0,1.725,0.315,2.265,0.945c0.54,0.63,0.81,1.495,0.81,2.595v0.42h-5.595c0.03,0.9,0.277,1.593,0.742,2.078
		c0.466,0.485,1.112,0.728,1.942,0.728c0.45,0,0.873-0.07,1.268-0.21c0.396-0.14,0.783-0.375,1.163-0.705l0.359,0.69
		c-0.319,0.31-0.729,0.553-1.229,0.728S402.319,44.135,401.798,44.135z M401.618,37.34c-0.76,0-1.353,0.237-1.777,0.712
		c-0.426,0.475-0.673,1.087-0.743,1.837h4.756c-0.021-0.8-0.221-1.425-0.601-1.875S402.328,37.34,401.618,37.34z"/>
	<path fill="#040200" d="M408.174,44.015v-6.51h-2.716V36.74h6.346v0.765h-2.715v6.51H408.174z"/>
	<path fill="#040200" d="M415.373,44.135c-0.49,0-0.928-0.095-1.313-0.285s-0.689-0.45-0.915-0.78c-0.225-0.33-0.337-0.7-0.337-1.11
		c0-0.54,0.135-0.962,0.404-1.267c0.271-0.305,0.726-0.522,1.365-0.653c0.64-0.13,1.521-0.195,2.641-0.195h0.465v-0.54
		c0-0.67-0.136-1.157-0.405-1.462c-0.271-0.305-0.7-0.458-1.29-0.458c-0.44,0-0.862,0.065-1.268,0.195
		c-0.405,0.13-0.822,0.335-1.252,0.615l-0.36-0.705c0.38-0.27,0.83-0.485,1.35-0.645c0.521-0.16,1.025-0.24,1.516-0.24
		c0.88,0,1.532,0.225,1.957,0.675c0.425,0.45,0.638,1.14,0.638,2.07v4.665h-0.87V42.71c-0.2,0.45-0.503,0.8-0.907,1.05
		C416.386,44.01,415.913,44.135,415.373,44.135z M415.493,43.4c0.43,0,0.808-0.102,1.133-0.307c0.324-0.205,0.582-0.488,0.772-0.848
		c0.189-0.36,0.285-0.77,0.285-1.23V40.52h-0.45c-0.9,0-1.603,0.04-2.107,0.12s-0.857,0.22-1.058,0.42c-0.2,0.2-0.3,0.475-0.3,0.825
		c0,0.45,0.154,0.815,0.465,1.095C414.543,43.26,414.963,43.4,415.493,43.4z"/>
	<path fill="#040200" d="M421.988,46.715l1.199-2.73l-3.09-7.245h1.021l2.564,6.27l2.596-6.27h0.989l-4.29,9.975H421.988z"/>
	<path fill="#040200" d="M431.723,44.135c-1.04,0-1.862-0.35-2.468-1.05c-0.604-0.7-0.907-1.715-0.907-3.045V38.9
		c0-0.96,0.122-1.762,0.367-2.407s0.613-1.165,1.103-1.56c0.49-0.395,1.11-0.703,1.86-0.922l2.61-0.765l0.33,0.78l-2.881,0.81
		c-0.83,0.24-1.452,0.66-1.867,1.26s-0.622,1.325-0.622,2.175v0.015c0.229-0.51,0.577-0.908,1.042-1.192
		c0.465-0.285,0.998-0.428,1.598-0.428c0.64,0,1.197,0.153,1.673,0.458c0.475,0.305,0.845,0.735,1.109,1.29
		c0.266,0.555,0.397,1.213,0.397,1.973s-0.138,1.422-0.412,1.987c-0.275,0.565-0.66,1-1.155,1.305S432.413,44.135,431.723,44.135z
		 M431.693,43.37c0.771,0,1.37-0.255,1.801-0.765c0.43-0.51,0.645-1.245,0.645-2.205c0-0.93-0.215-1.655-0.645-2.175
		c-0.431-0.52-1.025-0.78-1.785-0.78c-0.75,0-1.343,0.252-1.777,0.757c-0.436,0.505-0.653,1.192-0.653,2.063
		c0,1.02,0.213,1.792,0.638,2.317S430.933,43.37,431.693,43.37z"/>
	<path fill="#040200" d="M440.303,44.135c-1.12,0-2.002-0.333-2.647-0.998c-0.645-0.665-0.968-1.578-0.968-2.738
		c0-0.75,0.146-1.41,0.436-1.98c0.29-0.57,0.692-1.015,1.207-1.335c0.516-0.32,1.107-0.48,1.778-0.48
		c0.97,0,1.725,0.315,2.265,0.945c0.54,0.63,0.81,1.495,0.81,2.595v0.42h-5.595c0.03,0.9,0.277,1.593,0.742,2.078
		c0.466,0.485,1.112,0.728,1.942,0.728c0.45,0,0.873-0.07,1.268-0.21c0.396-0.14,0.783-0.375,1.163-0.705l0.359,0.69
		c-0.319,0.31-0.729,0.553-1.229,0.728S440.823,44.135,440.303,44.135z M440.123,37.34c-0.76,0-1.353,0.237-1.777,0.712
		c-0.426,0.475-0.673,1.087-0.743,1.837h4.756c-0.021-0.8-0.221-1.425-0.601-1.875S440.833,37.34,440.123,37.34z"/>
	<path fill="#040200" d="M443.962,44.015l1.471-2.43c0.31-0.49,0.574-0.85,0.795-1.08c0.22-0.23,0.47-0.39,0.75-0.48l-2.61-3.285
		h1.021l2.52,3.135h1.29V36.74h0.915v3.135h1.29l2.505-3.135h1.021l-2.61,3.285c0.28,0.09,0.532,0.25,0.758,0.48
		c0.225,0.23,0.487,0.59,0.787,1.08l1.47,2.43h-0.989l-1.365-2.235c-0.181-0.3-0.355-0.535-0.525-0.705s-0.357-0.288-0.563-0.353
		s-0.457-0.098-0.757-0.098h-1.021v3.39h-0.915v-3.39h-1.035c-0.3,0-0.553,0.033-0.757,0.098c-0.205,0.065-0.393,0.183-0.563,0.353
		c-0.171,0.17-0.346,0.405-0.525,0.705l-1.365,2.235H443.962z"/>
	<path fill="#040200" d="M455.798,45.965v-2.7h0.734c0.37-0.53,0.638-1.147,0.803-1.853s0.248-1.532,0.248-2.482v-2.19h4.92v6.525
		h1.125v2.7h-0.795v-1.95h-6.24v1.95H455.798z M457.478,43.265h4.14V37.49h-3.194v1.53c0,0.81-0.083,1.588-0.248,2.333
		C458.01,42.098,457.778,42.735,457.478,43.265z"/>
	<path fill="#040200" d="M468.517,44.135c-1.12,0-2.002-0.333-2.647-0.998c-0.645-0.665-0.968-1.578-0.968-2.738
		c0-0.75,0.146-1.41,0.436-1.98c0.29-0.57,0.692-1.015,1.207-1.335c0.516-0.32,1.107-0.48,1.778-0.48
		c0.97,0,1.725,0.315,2.265,0.945c0.54,0.63,0.81,1.495,0.81,2.595v0.42h-5.595c0.03,0.9,0.277,1.593,0.742,2.078
		c0.466,0.485,1.112,0.728,1.942,0.728c0.45,0,0.873-0.07,1.268-0.21c0.396-0.14,0.783-0.375,1.163-0.705l0.359,0.69
		c-0.319,0.31-0.729,0.553-1.229,0.728S469.037,44.135,468.517,44.135z M468.337,37.34c-0.76,0-1.353,0.237-1.777,0.712
		c-0.426,0.475-0.673,1.087-0.743,1.837h4.756c-0.021-0.8-0.221-1.425-0.601-1.875S469.047,37.34,468.337,37.34z"/>
	<path fill="#040200" d="M473.377,44.015V36.74h0.915v3.135h4.306V36.74h0.914v7.275h-0.914V40.64h-4.306v3.375H473.377z"/>
	<path fill="#040200" d="M482.032,44.015V36.74h0.84v5.97l4.455-5.97h0.811v7.275h-0.84v-5.97l-4.471,5.97H482.032z"/>
	<path fill="#040200" d="M490.071,44.015l1.141-1.98c0.31-0.53,0.699-0.88,1.17-1.05c-0.63-0.08-1.12-0.303-1.471-0.667
		c-0.35-0.365-0.524-0.843-0.524-1.433c0-0.64,0.215-1.157,0.645-1.553c0.43-0.395,1.08-0.592,1.95-0.592h3.09v7.275h-0.885V41.12
		h-1.185c-0.45,0-0.825,0.11-1.125,0.33c-0.301,0.22-0.546,0.49-0.735,0.81l-1.005,1.755H490.071z M493.147,40.415h2.04V37.43h-2.04
		c-0.64,0-1.11,0.133-1.41,0.397c-0.3,0.265-0.45,0.627-0.45,1.087c0,0.47,0.15,0.838,0.45,1.103
		C492.036,40.283,492.507,40.415,493.147,40.415z"/>
</g>
<polygon fill="#040200" points="153.966,97.499 165.997,86.22 158.102,86.22 158.102,64.349 150.081,64.349 150.081,86.22 
	142.186,86.22 "/>
<polygon fill="#040200" points="341.379,97.499 353.41,86.22 345.515,86.22 345.515,64.349 337.494,64.349 337.494,86.22 
	329.599,86.22 "/>
<polygon fill="#040200" points="533.716,97.499 545.747,86.22 537.852,86.22 537.852,64.349 529.831,64.349 529.831,86.22 
	521.935,86.22 "/>
<polygon fill="#040200" points="724.284,97.499 736.315,86.22 728.42,86.22 728.42,64.349 720.399,64.349 720.399,86.22 
	712.504,86.22 "/>
<polygon fill="#040200" points="343.16,249.335 355.191,238.056 347.296,238.056 347.296,216.185 339.275,216.185 339.275,238.056 
	331.38,238.056 "/>
<polygon fill="#040200" points="518.63,216.185 506.599,227.464 514.494,227.464 514.494,249.335 522.515,249.335 522.515,227.464 
	530.41,227.464 "/>
<polygon fill="#040200" points="263.472,132.459 252.193,120.428 252.193,128.323 230.322,128.323 230.322,136.344 252.193,136.344 
	252.193,144.239 "/>
<polygon fill="#040200" points="263.472,191.268 252.193,179.237 252.193,187.132 230.322,187.132 230.322,195.153 252.193,195.153 
	252.193,203.048 "/>
<polygon fill="#040200" points="454.047,156.268 442.768,144.237 442.768,152.132 420.897,152.132 420.897,160.153 442.768,160.153 
	442.768,168.048 "/>
<polygon fill="#040200" points="646.805,157.031 635.526,145 635.526,152.895 613.655,152.895 613.655,160.916 635.526,160.916 
	635.526,168.811 "/>
<polygon fill="#040200" points="556.645,249.335 568.676,238.056 560.781,238.056 560.781,216.185 552.76,216.185 552.76,238.056 
	544.865,238.056 "/>
<g>
	<path fill="#040200" d="M114.817,128.316v-10.575h0.78l4.2,7.965l4.17-7.965h0.78v10.575h-0.855v-8.79l-3.765,7.155h-0.66
		l-3.81-7.14v8.775H114.817z"/>
	<path fill="#040200" d="M130.297,128.436c-0.68,0-1.27-0.152-1.77-0.458s-0.887-0.74-1.162-1.305
		c-0.275-0.565-0.413-1.232-0.413-2.002c0-0.76,0.137-1.422,0.413-1.987c0.275-0.565,0.662-1.002,1.162-1.313s1.09-0.465,1.77-0.465
		c0.69,0,1.285,0.155,1.785,0.465s0.887,0.748,1.163,1.313c0.275,0.565,0.413,1.228,0.413,1.987c0,0.77-0.138,1.438-0.413,2.002
		c-0.275,0.565-0.663,1-1.163,1.305S130.987,128.436,130.297,128.436z M130.297,127.671c0.74,0,1.33-0.263,1.77-0.788
		s0.66-1.262,0.66-2.212c0-0.95-0.22-1.685-0.66-2.205c-0.44-0.52-1.03-0.78-1.77-0.78c-0.74,0-1.327,0.26-1.762,0.78
		c-0.435,0.52-0.652,1.255-0.652,2.205c0,0.95,0.217,1.688,0.652,2.212S129.557,127.671,130.297,127.671z"/>
	<path fill="#040200" d="M135.727,128.316v-7.275h0.915v3.135h4.305v-3.135h0.915v7.275h-0.915v-3.375h-4.305v3.375H135.727z"/>
	<path fill="#040200" d="M144.382,128.316v-7.275h0.84v5.97l4.455-5.97h0.81v7.275h-0.84v-5.97l-4.47,5.97H144.382z"/>
	<path fill="#040200" d="M154.522,128.316v-6.51h-2.715v-0.765h6.345v0.765h-2.715v6.51H154.522z"/>
	<path fill="#040200" d="M162.366,128.436c-0.68,0-1.27-0.152-1.77-0.458s-0.887-0.74-1.162-1.305
		c-0.275-0.565-0.413-1.232-0.413-2.002c0-0.76,0.137-1.422,0.413-1.987c0.275-0.565,0.662-1.002,1.162-1.313s1.09-0.465,1.77-0.465
		c0.69,0,1.285,0.155,1.785,0.465s0.888,0.748,1.162,1.313c0.275,0.565,0.413,1.228,0.413,1.987c0,0.77-0.138,1.438-0.413,2.002
		c-0.274,0.565-0.662,1-1.162,1.305S163.057,128.436,162.366,128.436z M162.366,127.671c0.74,0,1.33-0.263,1.77-0.788
		s0.66-1.262,0.66-2.212c0-0.95-0.22-1.685-0.66-2.205c-0.44-0.52-1.03-0.78-1.77-0.78c-0.74,0-1.327,0.26-1.762,0.78
		c-0.435,0.52-0.652,1.255-0.652,2.205c0,0.95,0.217,1.688,0.652,2.212S161.627,127.671,162.366,127.671z"/>
	<path fill="#040200" d="M167.796,131.016v-9.975h0.915v1.365c0.22-0.459,0.553-0.825,0.998-1.095
		c0.444-0.27,0.962-0.405,1.552-0.405c0.65,0,1.218,0.155,1.703,0.465c0.484,0.31,0.859,0.745,1.125,1.305
		c0.265,0.56,0.397,1.225,0.397,1.995s-0.133,1.438-0.397,2.002c-0.266,0.565-0.641,1-1.125,1.305
		c-0.485,0.305-1.053,0.458-1.703,0.458c-0.59,0-1.107-0.13-1.552-0.39c-0.445-0.26-0.778-0.62-0.998-1.08v4.05H167.796z
		 M171.126,127.671c0.74,0,1.33-0.263,1.771-0.788c0.439-0.525,0.659-1.262,0.659-2.212c0-0.95-0.22-1.685-0.659-2.205
		c-0.44-0.52-1.03-0.78-1.771-0.78s-1.33,0.26-1.77,0.78c-0.44,0.52-0.66,1.255-0.66,2.205c0,0.95,0.22,1.688,0.66,2.212
		C169.796,127.409,170.386,127.671,171.126,127.671z"/>
	<path fill="#040200" d="M176.541,128.316v-7.275h0.84v5.97l4.455-5.97h0.811v7.275h-0.84v-5.97l-4.471,5.97H176.541z"/>
	<path fill="#040200" d="M185.166,128.316v-7.275h0.915v3.135h4.306v-3.135h0.914v7.275h-0.914v-3.375h-4.306v3.375H185.166z"/>
	<path fill="#040200" d="M193.821,128.316v-7.275h4.92v0.765h-4.005v6.51H193.821z"/>
	<path fill="#040200" d="M139.109,149.016l1.2-2.73l-3.09-7.245h1.02l2.565,6.27l2.595-6.27h0.99l-4.29,9.975H139.109z"/>
	<path fill="#040200" d="M145.934,146.316v-7.275h4.92v0.765h-4.005v6.51H145.934z"/>
	<path fill="#040200" d="M152.309,149.016v-9.975h0.915v1.365c0.22-0.459,0.553-0.825,0.998-1.095s0.962-0.405,1.553-0.405
		c0.65,0,1.217,0.155,1.703,0.465c0.485,0.31,0.86,0.745,1.125,1.305c0.265,0.56,0.397,1.225,0.397,1.995s-0.133,1.438-0.397,2.002
		c-0.265,0.565-0.64,1-1.125,1.305c-0.485,0.305-1.053,0.458-1.703,0.458c-0.59,0-1.108-0.13-1.553-0.39
		c-0.445-0.26-0.777-0.62-0.998-1.08v4.05H152.309z M155.639,145.671c0.74,0,1.33-0.263,1.77-0.788s0.66-1.262,0.66-2.212
		c0-0.95-0.22-1.685-0.66-2.205c-0.44-0.52-1.03-0.78-1.77-0.78s-1.33,0.26-1.77,0.78c-0.44,0.52-0.66,1.255-0.66,2.205
		c0,0.95,0.22,1.688,0.66,2.212S154.899,145.671,155.639,145.671z"/>
	<path fill="#040200" d="M163.948,146.436c-0.68,0-1.27-0.152-1.77-0.458s-0.887-0.74-1.162-1.305
		c-0.275-0.565-0.413-1.232-0.413-2.002c0-0.76,0.137-1.422,0.413-1.987c0.275-0.565,0.662-1.002,1.162-1.313s1.09-0.465,1.77-0.465
		c0.69,0,1.285,0.155,1.785,0.465s0.888,0.748,1.162,1.313c0.275,0.565,0.413,1.228,0.413,1.987c0,0.77-0.138,1.438-0.413,2.002
		c-0.274,0.565-0.662,1-1.162,1.305S164.639,146.436,163.948,146.436z M163.948,145.671c0.74,0,1.33-0.263,1.771-0.788
		c0.439-0.525,0.66-1.262,0.66-2.212c0-0.95-0.221-1.685-0.66-2.205c-0.44-0.52-1.03-0.78-1.771-0.78c-0.74,0-1.327,0.26-1.762,0.78
		c-0.435,0.52-0.652,1.255-0.652,2.205c0,0.95,0.217,1.688,0.652,2.212S163.209,145.671,163.948,145.671z"/>
	<path fill="#040200" d="M171.658,146.436c-0.62,0-1.197-0.085-1.732-0.255s-0.963-0.405-1.282-0.705l0.345-0.69
		c0.34,0.3,0.74,0.525,1.2,0.675s0.944,0.225,1.455,0.225c0.76,0,1.305-0.12,1.635-0.36c0.33-0.24,0.495-0.58,0.495-1.02
		c0-0.43-0.143-0.758-0.428-0.983c-0.285-0.225-0.692-0.337-1.223-0.337h-1.62v-0.72h1.485c0.47,0,0.845-0.113,1.125-0.338
		c0.279-0.225,0.42-0.532,0.42-0.922c0-0.4-0.147-0.722-0.442-0.967s-0.758-0.368-1.388-0.368c-0.51,0-0.975,0.067-1.395,0.203
		c-0.421,0.135-0.825,0.348-1.216,0.637l-0.345-0.69c0.811-0.61,1.815-0.915,3.015-0.915c0.9,0,1.57,0.183,2.011,0.548
		c0.439,0.365,0.66,0.868,0.66,1.507c0,0.38-0.11,0.712-0.33,0.998c-0.221,0.285-0.516,0.493-0.886,0.623
		c0.44,0.1,0.793,0.305,1.058,0.615c0.265,0.31,0.397,0.685,0.397,1.125c0,0.64-0.25,1.153-0.75,1.538
		C173.423,146.244,172.668,146.436,171.658,146.436z"/>
</g>
<g>
	<path fill="#040200" d="M125.01,195.316v-9.75h-3.945v-0.825h8.82v0.825h-3.945v9.75H125.01z"/>
	<path fill="#040200" d="M130.049,198.016v-9.975h0.915v1.364c0.22-0.459,0.553-0.824,0.998-1.095
		c0.445-0.27,0.962-0.405,1.553-0.405c0.65,0,1.217,0.155,1.703,0.466c0.485,0.31,0.86,0.745,1.125,1.305
		c0.265,0.56,0.397,1.225,0.397,1.995c0,0.77-0.133,1.438-0.397,2.002c-0.265,0.565-0.64,1-1.125,1.306
		c-0.485,0.305-1.053,0.457-1.703,0.457c-0.59,0-1.108-0.13-1.553-0.39s-0.777-0.62-0.998-1.08v4.05H130.049z M133.38,194.672
		c0.74,0,1.33-0.263,1.77-0.788c0.44-0.524,0.66-1.262,0.66-2.212s-0.22-1.686-0.66-2.205s-1.03-0.78-1.77-0.78
		s-1.33,0.261-1.77,0.78s-0.66,1.255-0.66,2.205s0.22,1.688,0.66,2.212C132.049,194.409,132.639,194.672,133.38,194.672z"/>
	<path fill="#040200" d="M138.795,195.316v-7.274h0.84v5.97l4.455-5.97h0.81v7.274h-0.84v-5.97l-4.47,5.97H138.795z"/>
	<path fill="#040200" d="M147.42,195.316v-7.274h4.92v0.765h-4.005v6.51H147.42z"/>
	<path fill="#040200" d="M153.794,195.316v-7.274h4.92v0.765h-4.005v6.51H153.794z"/>
	<path fill="#040200" d="M163.334,195.436c-1.12,0-2.002-0.332-2.647-0.997s-0.967-1.578-0.967-2.738
		c0-0.75,0.145-1.409,0.435-1.979s0.692-1.015,1.208-1.335c0.515-0.32,1.107-0.48,1.778-0.48c0.97,0,1.725,0.315,2.265,0.945
		s0.81,1.495,0.81,2.595v0.42h-5.595c0.03,0.9,0.277,1.593,0.743,2.078c0.465,0.485,1.112,0.728,1.942,0.728
		c0.45,0,0.873-0.07,1.268-0.21c0.396-0.141,0.783-0.375,1.163-0.705l0.359,0.689c-0.319,0.311-0.729,0.553-1.229,0.728
		S163.855,195.436,163.334,195.436z M163.154,188.641c-0.76,0-1.353,0.237-1.778,0.713c-0.425,0.475-0.672,1.087-0.742,1.837h4.755
		c-0.021-0.8-0.221-1.425-0.601-1.875S163.864,188.641,163.154,188.641z"/>
	<path fill="#040200" d="M168.194,198.016v-9.975h0.915v1.364c0.22-0.459,0.553-0.824,0.998-1.095
		c0.444-0.27,0.962-0.405,1.552-0.405c0.65,0,1.218,0.155,1.703,0.466c0.484,0.31,0.859,0.745,1.125,1.305
		c0.265,0.56,0.397,1.225,0.397,1.995c0,0.77-0.133,1.438-0.397,2.002c-0.266,0.565-0.641,1-1.125,1.306
		c-0.485,0.305-1.053,0.457-1.703,0.457c-0.59,0-1.107-0.13-1.552-0.39c-0.445-0.26-0.778-0.62-0.998-1.08v4.05H168.194z
		 M171.524,194.672c0.74,0,1.33-0.263,1.771-0.788c0.439-0.524,0.659-1.262,0.659-2.212s-0.22-1.686-0.659-2.205
		c-0.44-0.52-1.03-0.78-1.771-0.78s-1.33,0.261-1.77,0.78c-0.44,0.52-0.66,1.255-0.66,2.205s0.22,1.688,0.66,2.212
		C170.194,194.409,170.783,194.672,171.524,194.672z"/>
	<path fill="#040200" d="M176.939,195.316v-7.274h0.915v2.685h2.325c0.91,0,1.603,0.197,2.077,0.593
		c0.476,0.395,0.713,0.957,0.713,1.688c0,0.72-0.24,1.285-0.72,1.694c-0.48,0.41-1.17,0.615-2.07,0.615H176.939z M177.854,194.611
		h2.295c0.601,0,1.067-0.13,1.402-0.39s0.503-0.66,0.503-1.2c0-0.55-0.168-0.955-0.503-1.215s-0.802-0.39-1.402-0.39h-2.295V194.611
		z M184.139,195.316v-7.274h0.915v7.274H184.139z"/>
</g>
<g>
	<path fill="#040200" d="M303.705,150.787v-10.575h8.505v10.575h-0.93v-9.75h-6.66v9.75H303.705z"/>
	<path fill="#040200" d="M318.015,150.908c-1.12,0-2.002-0.333-2.647-0.998s-0.967-1.578-0.967-2.738c0-0.75,0.145-1.41,0.435-1.98
		c0.29-0.57,0.692-1.015,1.208-1.335c0.515-0.32,1.107-0.48,1.777-0.48c0.97,0,1.725,0.315,2.265,0.945
		c0.54,0.63,0.81,1.495,0.81,2.595v0.42H315.3c0.03,0.9,0.277,1.593,0.743,2.078c0.465,0.485,1.112,0.728,1.942,0.728
		c0.45,0,0.873-0.07,1.268-0.21s0.782-0.375,1.163-0.705l0.36,0.69c-0.32,0.31-0.73,0.553-1.23,0.728
		S318.535,150.908,318.015,150.908z M317.835,144.113c-0.76,0-1.353,0.237-1.778,0.712c-0.425,0.475-0.672,1.087-0.742,1.837h4.755
		c-0.02-0.8-0.22-1.425-0.6-1.875S318.545,144.113,317.835,144.113z"/>
	<path fill="#040200" d="M322.875,153.488v-9.975h0.915v1.365c0.22-0.459,0.553-0.825,0.998-1.095s0.962-0.405,1.553-0.405
		c0.65,0,1.217,0.155,1.703,0.465c0.485,0.31,0.86,0.745,1.125,1.305c0.265,0.56,0.397,1.225,0.397,1.995s-0.133,1.438-0.397,2.002
		c-0.265,0.565-0.64,1-1.125,1.305c-0.485,0.305-1.053,0.458-1.703,0.458c-0.59,0-1.108-0.13-1.553-0.39
		c-0.445-0.26-0.777-0.62-0.998-1.08v4.05H322.875z M326.205,150.142c0.74,0,1.33-0.263,1.77-0.788s0.66-1.262,0.66-2.212
		c0-0.95-0.22-1.685-0.66-2.205c-0.44-0.52-1.03-0.78-1.77-0.78s-1.33,0.26-1.77,0.78c-0.44,0.52-0.66,1.255-0.66,2.205
		c0,0.95,0.22,1.688,0.66,2.212S325.465,150.142,326.205,150.142z"/>
	<path fill="#040200" d="M331.62,150.787v-7.275h3.375c1.63,0,2.445,0.64,2.445,1.92c0,0.38-0.107,0.712-0.323,0.998
		c-0.215,0.285-0.507,0.493-0.877,0.623c0.44,0.1,0.79,0.305,1.05,0.615c0.26,0.31,0.39,0.685,0.39,1.125
		c0,0.62-0.225,1.108-0.675,1.462c-0.45,0.355-1.08,0.533-1.89,0.533H331.62z M332.505,146.752h2.49c0.49,0,0.873-0.112,1.148-0.337
		c0.275-0.225,0.412-0.542,0.412-0.953c0-0.399-0.137-0.712-0.412-0.938c-0.275-0.225-0.658-0.337-1.148-0.337h-2.49V146.752z
		 M332.505,150.113h2.61c0.54,0,0.953-0.115,1.238-0.345c0.285-0.23,0.427-0.565,0.427-1.005c0-0.43-0.143-0.76-0.427-0.99
		c-0.285-0.23-0.698-0.345-1.238-0.345h-2.61V150.113z"/>
	<path fill="#040200" d="M339.674,150.787v-7.275h0.84v5.97l4.455-5.97h0.81v7.275h-0.84v-5.97l-4.47,5.97H339.674z"/>
	<path fill="#040200" d="M352.994,150.787v-3.09c-0.58,0.38-1.26,0.57-2.04,0.57c-1.01,0-1.757-0.242-2.242-0.728
		c-0.485-0.485-0.728-1.223-0.728-2.212v-1.815h0.915v1.77c0,0.76,0.17,1.315,0.51,1.665c0.34,0.35,0.879,0.525,1.62,0.525
		c0.4,0,0.753-0.045,1.058-0.135c0.305-0.09,0.607-0.24,0.907-0.45v-3.375h0.915v7.275H352.994z"/>
	<path fill="#040200" d="M356.43,150.787v-7.275h0.915v3.135h4.306v-3.135h0.914v7.275h-0.914v-3.375h-4.306v3.375H356.43z"/>
	<path fill="#040200" d="M367.98,150.908c-0.681,0-1.271-0.152-1.771-0.458s-0.888-0.74-1.162-1.305
		c-0.275-0.565-0.413-1.232-0.413-2.002c0-0.76,0.138-1.422,0.413-1.987c0.274-0.565,0.662-1.002,1.162-1.313
		s1.09-0.465,1.771-0.465c0.689,0,1.284,0.155,1.785,0.465c0.499,0.31,0.887,0.748,1.162,1.313c0.274,0.565,0.412,1.228,0.412,1.987
		c0,0.77-0.138,1.438-0.412,2.002c-0.275,0.565-0.663,1-1.162,1.305C369.264,150.755,368.669,150.908,367.98,150.908z
		 M367.98,150.142c0.739,0,1.329-0.263,1.77-0.788s0.66-1.262,0.66-2.212c0-0.95-0.22-1.685-0.66-2.205
		c-0.44-0.52-1.03-0.78-1.77-0.78c-0.74,0-1.328,0.26-1.763,0.78c-0.436,0.52-0.652,1.255-0.652,2.205
		c0,0.95,0.217,1.688,0.652,2.212C366.652,149.88,367.239,150.142,367.98,150.142z"/>
	<path fill="#040200" d="M376.574,150.908c-1.12,0-2.002-0.333-2.647-0.998c-0.645-0.665-0.968-1.578-0.968-2.738
		c0-0.75,0.146-1.41,0.436-1.98c0.29-0.57,0.692-1.015,1.207-1.335c0.516-0.32,1.107-0.48,1.778-0.48
		c0.97,0,1.725,0.315,2.265,0.945c0.54,0.63,0.81,1.495,0.81,2.595v0.42h-5.595c0.03,0.9,0.277,1.593,0.742,2.078
		c0.466,0.485,1.112,0.728,1.942,0.728c0.45,0,0.873-0.07,1.268-0.21c0.396-0.14,0.783-0.375,1.163-0.705l0.359,0.69
		c-0.319,0.31-0.729,0.553-1.229,0.728S377.095,150.908,376.574,150.908z M376.395,144.113c-0.76,0-1.353,0.237-1.777,0.712
		c-0.426,0.475-0.673,1.087-0.743,1.837h4.756c-0.021-0.8-0.221-1.425-0.601-1.875S377.105,144.113,376.395,144.113z"/>
	<path fill="#040200" d="M298.043,168.907c-1.04,0-1.862-0.35-2.467-1.05c-0.605-0.7-0.908-1.715-0.908-3.045v-1.141
		c0-0.96,0.123-1.762,0.368-2.407c0.245-0.645,0.612-1.165,1.103-1.56c0.49-0.395,1.11-0.703,1.86-0.922l2.61-0.765l0.33,0.78
		l-2.88,0.81c-0.83,0.24-1.453,0.66-1.868,1.26c-0.415,0.601-0.623,1.325-0.623,2.175v0.016c0.23-0.511,0.578-0.908,1.042-1.192
		c0.465-0.285,0.998-0.428,1.598-0.428c0.64,0,1.197,0.152,1.672,0.457c0.475,0.306,0.845,0.735,1.11,1.29
		c0.265,0.556,0.397,1.213,0.397,1.973s-0.138,1.423-0.413,1.987c-0.275,0.565-0.66,1-1.155,1.306
		C299.325,168.755,298.733,168.907,298.043,168.907z M298.013,168.142c0.77,0,1.37-0.255,1.8-0.766
		c0.43-0.51,0.645-1.244,0.645-2.205c0-0.93-0.215-1.654-0.645-2.175c-0.43-0.52-1.025-0.779-1.785-0.779
		c-0.75,0-1.342,0.252-1.777,0.757s-0.652,1.192-0.652,2.063c0,1.021,0.212,1.793,0.637,2.317
		C296.66,167.88,297.253,168.142,298.013,168.142z"/>
	<path fill="#040200" d="M306.622,168.907c-1.12,0-2.002-0.332-2.647-0.997s-0.967-1.578-0.967-2.738
		c0-0.75,0.145-1.409,0.435-1.979s0.692-1.015,1.208-1.335c0.515-0.32,1.107-0.48,1.777-0.48c0.97,0,1.725,0.315,2.265,0.945
		s0.81,1.495,0.81,2.595v0.42h-5.595c0.03,0.9,0.277,1.593,0.743,2.078c0.465,0.485,1.112,0.728,1.942,0.728
		c0.45,0,0.873-0.07,1.268-0.21c0.395-0.141,0.782-0.375,1.163-0.705l0.36,0.689c-0.32,0.311-0.73,0.553-1.23,0.728
		S307.142,168.907,306.622,168.907z M306.443,162.112c-0.76,0-1.353,0.237-1.778,0.713c-0.425,0.475-0.672,1.087-0.742,1.837h4.755
		c-0.02-0.8-0.22-1.425-0.6-1.875S307.153,162.112,306.443,162.112z"/>
	<path fill="#040200" d="M314.452,168.907c-0.71,0-1.32-0.157-1.83-0.473c-0.51-0.314-0.902-0.76-1.177-1.335
		c-0.275-0.574-0.413-1.242-0.413-2.002c0-1.15,0.302-2.058,0.907-2.723s1.442-0.998,2.513-0.998c0.44,0,0.875,0.086,1.305,0.256
		c0.43,0.17,0.79,0.404,1.08,0.704l-0.36,0.69c-0.31-0.3-0.64-0.518-0.99-0.652c-0.35-0.135-0.685-0.203-1.005-0.203
		c-0.81,0-1.432,0.256-1.867,0.766s-0.652,1.235-0.652,2.175c0,0.94,0.217,1.678,0.652,2.213s1.058,0.802,1.867,0.802
		c0.32,0,0.655-0.067,1.005-0.202c0.35-0.135,0.68-0.353,0.99-0.652l0.36,0.689c-0.291,0.291-0.653,0.521-1.088,0.69
		S314.882,168.907,314.452,168.907z"/>
	<path fill="#040200" d="M318.487,168.787v-7.274h6.09v7.274h-0.915v-6.524h-4.26v6.524H318.487z"/>
	<path fill="#040200" d="M329.992,168.907c-0.68,0-1.27-0.152-1.77-0.457c-0.5-0.306-0.887-0.74-1.162-1.306
		c-0.275-0.564-0.413-1.232-0.413-2.002c0-0.76,0.137-1.423,0.413-1.987c0.275-0.565,0.662-1.003,1.162-1.313
		c0.5-0.311,1.09-0.466,1.77-0.466c0.69,0,1.285,0.155,1.785,0.466c0.5,0.31,0.887,0.747,1.163,1.313
		c0.275,0.564,0.413,1.228,0.413,1.987c0,0.77-0.138,1.438-0.413,2.002c-0.275,0.565-0.663,1-1.163,1.306
		C331.277,168.755,330.682,168.907,329.992,168.907z M329.992,168.142c0.74,0,1.33-0.263,1.77-0.788
		c0.44-0.524,0.66-1.262,0.66-2.212s-0.22-1.686-0.66-2.205s-1.03-0.78-1.77-0.78c-0.74,0-1.327,0.261-1.762,0.78
		s-0.652,1.255-0.652,2.205s0.217,1.688,0.652,2.212C328.665,167.88,329.252,168.142,329.992,168.142z"/>
	<path fill="#040200" d="M335.422,168.787v-7.274h0.915v3.135h1.5l2.505-3.135h1.035l-2.61,3.284c0.28,0.091,0.53,0.251,0.75,0.48
		c0.22,0.23,0.48,0.59,0.78,1.08l1.47,2.43h-0.99l-1.35-2.234c-0.19-0.301-0.368-0.535-0.533-0.705s-0.35-0.288-0.555-0.353
		c-0.205-0.065-0.463-0.098-0.773-0.098h-1.23v3.39H335.422z"/>
	<path fill="#040200" d="M345.982,168.907c-0.68,0-1.27-0.152-1.77-0.457c-0.5-0.306-0.887-0.74-1.162-1.306
		c-0.275-0.564-0.413-1.232-0.413-2.002c0-0.76,0.137-1.423,0.413-1.987c0.275-0.565,0.662-1.003,1.162-1.313
		c0.5-0.311,1.09-0.466,1.77-0.466c0.69,0,1.285,0.155,1.785,0.466c0.5,0.31,0.887,0.747,1.163,1.313
		c0.275,0.564,0.413,1.228,0.413,1.987c0,0.77-0.138,1.438-0.413,2.002c-0.275,0.565-0.663,1-1.163,1.306
		C347.267,168.755,346.672,168.907,345.982,168.907z M345.982,168.142c0.74,0,1.33-0.263,1.77-0.788
		c0.44-0.524,0.66-1.262,0.66-2.212s-0.22-1.686-0.66-2.205s-1.03-0.78-1.77-0.78c-0.74,0-1.327,0.261-1.762,0.78
		s-0.652,1.255-0.652,2.205s0.217,1.688,0.652,2.212C344.654,167.88,345.242,168.142,345.982,168.142z"/>
	<path fill="#040200" d="M351.411,168.787v-7.274h0.84v5.97l4.455-5.97h0.811v7.274h-0.84v-5.97l-4.471,5.97H351.411z
		 M354.456,160.567c-0.53,0-1.024-0.15-1.484-0.45s-0.795-0.785-1.005-1.455l0.6-0.24c0.18,0.51,0.428,0.888,0.742,1.133
		c0.315,0.245,0.698,0.367,1.147,0.367c0.46,0,0.84-0.11,1.141-0.33c0.3-0.22,0.585-0.605,0.854-1.155l0.57,0.225
		c-0.29,0.72-0.663,1.218-1.117,1.493C355.448,160.43,354.967,160.567,354.456,160.567z"/>
	<path fill="#040200" d="M363.007,168.907c-0.711,0-1.32-0.157-1.83-0.473c-0.511-0.314-0.903-0.76-1.178-1.335
		c-0.275-0.574-0.413-1.242-0.413-2.002c0-1.15,0.303-2.058,0.908-2.723c0.604-0.665,1.442-0.998,2.513-0.998
		c0.439,0,0.874,0.086,1.305,0.256c0.43,0.17,0.79,0.404,1.08,0.704l-0.36,0.69c-0.31-0.3-0.64-0.518-0.99-0.652
		c-0.35-0.135-0.685-0.203-1.005-0.203c-0.81,0-1.433,0.256-1.867,0.766c-0.436,0.51-0.652,1.235-0.652,2.175
		c0,0.94,0.217,1.678,0.652,2.213c0.435,0.535,1.058,0.802,1.867,0.802c0.32,0,0.655-0.067,1.005-0.202
		c0.351-0.135,0.681-0.353,0.99-0.652l0.36,0.689c-0.29,0.291-0.652,0.521-1.088,0.69
		C363.869,168.822,363.437,168.907,363.007,168.907z"/>
	<path fill="#040200" d="M368.557,168.787v-6.51h-2.716v-0.765h6.346v0.765h-2.715v6.51H368.557z"/>
	<path fill="#040200" d="M373.506,168.787v-7.274h3.375c1.63,0,2.445,0.64,2.445,1.92c0,0.38-0.107,0.712-0.322,0.997
		c-0.216,0.285-0.508,0.493-0.878,0.623c0.44,0.1,0.79,0.305,1.05,0.614c0.26,0.311,0.391,0.686,0.391,1.125
		c0,0.62-0.226,1.108-0.676,1.463c-0.449,0.355-1.079,0.532-1.89,0.532H373.506z M374.391,164.752h2.49
		c0.49,0,0.873-0.112,1.147-0.337c0.275-0.226,0.413-0.543,0.413-0.953c0-0.399-0.138-0.712-0.413-0.938
		c-0.274-0.225-0.657-0.337-1.147-0.337h-2.49V164.752z M374.391,168.112h2.61c0.54,0,0.952-0.115,1.237-0.345
		c0.285-0.23,0.428-0.565,0.428-1.005c0-0.431-0.143-0.76-0.428-0.99s-0.697-0.345-1.237-0.345h-2.61V168.112z"/>
	<path fill="#040200" d="M384.457,168.907c-0.681,0-1.271-0.152-1.771-0.457c-0.5-0.306-0.888-0.74-1.162-1.306
		c-0.275-0.564-0.413-1.232-0.413-2.002c0-0.76,0.138-1.423,0.413-1.987c0.274-0.565,0.662-1.003,1.162-1.313
		c0.5-0.311,1.09-0.466,1.771-0.466c0.689,0,1.284,0.155,1.785,0.466c0.499,0.31,0.887,0.747,1.162,1.313
		c0.274,0.564,0.412,1.228,0.412,1.987c0,0.77-0.138,1.438-0.412,2.002c-0.275,0.565-0.663,1-1.162,1.306
		C385.741,168.755,385.147,168.907,384.457,168.907z M384.457,168.142c0.739,0,1.329-0.263,1.77-0.788
		c0.44-0.524,0.66-1.262,0.66-2.212s-0.22-1.686-0.66-2.205s-1.03-0.78-1.77-0.78c-0.74,0-1.328,0.261-1.763,0.78
		c-0.436,0.52-0.652,1.255-0.652,2.205s0.217,1.688,0.652,2.212C383.129,167.88,383.717,168.142,384.457,168.142z"/>
</g>
<g>
	<path fill="#040200" d="M498.541,151.142v-10.575h4.035c1.08,0,1.918,0.24,2.513,0.72s0.893,1.165,0.893,2.055
		c0,0.58-0.155,1.075-0.465,1.485c-0.311,0.41-0.73,0.71-1.26,0.9c0.609,0.15,1.09,0.442,1.439,0.877s0.525,0.988,0.525,1.658
		c0,0.94-0.301,1.655-0.9,2.145s-1.45,0.735-2.55,0.735H498.541z M499.442,145.397h3.03c0.84,0,1.479-0.172,1.92-0.518
		c0.439-0.345,0.66-0.847,0.66-1.507s-0.221-1.163-0.66-1.507c-0.44-0.345-1.08-0.518-1.92-0.518h-3.03V145.397z M499.442,150.363
		h3.255c1.73,0,2.595-0.695,2.595-2.085c0-0.72-0.215-1.25-0.645-1.59c-0.431-0.34-1.08-0.51-1.95-0.51h-3.255V150.363z"/>
	<path fill="#040200" d="M510.001,151.142v-6.51h-2.715v-0.765h6.345v0.765h-2.715v6.51H510.001z"/>
	<path fill="#040200" d="M517.846,151.263c-0.68,0-1.27-0.152-1.77-0.458s-0.888-0.74-1.162-1.305
		c-0.275-0.565-0.413-1.232-0.413-2.002c0-0.76,0.138-1.422,0.413-1.987c0.274-0.565,0.662-1.002,1.162-1.313s1.09-0.465,1.77-0.465
		c0.69,0,1.285,0.155,1.785,0.465s0.888,0.748,1.163,1.313c0.274,0.565,0.412,1.228,0.412,1.987c0,0.77-0.138,1.438-0.412,2.002
		c-0.275,0.565-0.663,1-1.163,1.305S518.536,151.263,517.846,151.263z M517.846,150.497c0.74,0,1.33-0.263,1.771-0.788
		c0.439-0.525,0.66-1.262,0.66-2.212c0-0.95-0.221-1.685-0.66-2.205c-0.44-0.52-1.03-0.78-1.771-0.78
		c-0.739,0-1.327,0.26-1.762,0.78c-0.436,0.52-0.652,1.255-0.652,2.205c0,0.95,0.217,1.688,0.652,2.212
		C516.519,150.235,517.107,150.497,517.846,150.497z"/>
	<path fill="#040200" d="M523.277,153.843v-9.975h0.915v1.365c0.22-0.459,0.553-0.825,0.997-1.095
		c0.445-0.27,0.963-0.405,1.553-0.405c0.65,0,1.218,0.155,1.703,0.465c0.484,0.31,0.859,0.745,1.125,1.305
		c0.265,0.56,0.397,1.225,0.397,1.995s-0.133,1.438-0.397,2.002c-0.266,0.565-0.641,1-1.125,1.305
		c-0.485,0.305-1.053,0.458-1.703,0.458c-0.59,0-1.107-0.13-1.553-0.39c-0.444-0.26-0.777-0.62-0.997-1.08v4.05H523.277z
		 M526.607,150.497c0.74,0,1.33-0.263,1.77-0.788c0.44-0.525,0.66-1.262,0.66-2.212c0-0.95-0.22-1.685-0.66-2.205
		c-0.439-0.52-1.029-0.78-1.77-0.78s-1.33,0.26-1.771,0.78c-0.439,0.52-0.659,1.255-0.659,2.205c0,0.95,0.22,1.688,0.659,2.212
		C525.277,150.235,525.866,150.497,526.607,150.497z"/>
	<path fill="#040200" d="M532.021,151.142v-7.275h0.841v5.97l4.455-5.97h0.81v7.275h-0.84v-5.97l-4.47,5.97H532.021z"/>
	<path fill="#040200" d="M545.341,151.142v-3.09c-0.58,0.38-1.26,0.57-2.04,0.57c-1.01,0-1.758-0.242-2.242-0.728
		c-0.485-0.485-0.728-1.223-0.728-2.212v-1.815h0.915v1.77c0,0.76,0.17,1.315,0.51,1.665s0.88,0.525,1.62,0.525
		c0.4,0,0.753-0.045,1.058-0.135c0.305-0.09,0.607-0.24,0.907-0.45v-3.375h0.915v7.275H545.341z"/>
	<path fill="#040200" d="M548.776,151.142v-7.275h0.915v3.135h4.306v-3.135h0.914v7.275h-0.914v-3.375h-4.306v3.375H548.776z"/>
	<path fill="#040200" d="M560.326,151.263c-0.681,0-1.271-0.152-1.771-0.458s-0.888-0.74-1.162-1.305
		c-0.275-0.565-0.413-1.232-0.413-2.002c0-0.76,0.138-1.422,0.413-1.987c0.274-0.565,0.662-1.002,1.162-1.313
		s1.09-0.465,1.771-0.465c0.689,0,1.284,0.155,1.785,0.465c0.499,0.31,0.887,0.748,1.162,1.313c0.274,0.565,0.412,1.228,0.412,1.987
		c0,0.77-0.138,1.438-0.412,2.002c-0.275,0.565-0.663,1-1.162,1.305C561.611,151.11,561.016,151.263,560.326,151.263z
		 M560.326,150.497c0.739,0,1.329-0.263,1.77-0.788s0.66-1.262,0.66-2.212c0-0.95-0.22-1.685-0.66-2.205
		c-0.44-0.52-1.03-0.78-1.77-0.78c-0.74,0-1.328,0.26-1.763,0.78c-0.436,0.52-0.652,1.255-0.652,2.205
		c0,0.95,0.217,1.688,0.652,2.212C558.998,150.235,559.586,150.497,560.326,150.497z"/>
	<path fill="#040200" d="M568.921,151.263c-1.12,0-2.002-0.333-2.647-0.998c-0.645-0.665-0.968-1.578-0.968-2.738
		c0-0.75,0.146-1.41,0.436-1.98c0.29-0.57,0.692-1.015,1.207-1.335c0.516-0.32,1.107-0.48,1.778-0.48
		c0.97,0,1.725,0.315,2.265,0.945c0.54,0.63,0.81,1.495,0.81,2.595v0.42h-5.595c0.03,0.9,0.277,1.593,0.742,2.078
		c0.466,0.485,1.112,0.728,1.942,0.728c0.45,0,0.873-0.07,1.268-0.21c0.396-0.14,0.783-0.375,1.163-0.705l0.359,0.69
		c-0.319,0.31-0.729,0.553-1.229,0.728S569.442,151.263,568.921,151.263z M568.741,144.468c-0.76,0-1.353,0.237-1.777,0.712
		c-0.426,0.475-0.673,1.087-0.743,1.837h4.756c-0.021-0.8-0.221-1.425-0.601-1.875S569.451,144.468,568.741,144.468z"/>
	<path fill="#040200" d="M491.634,169.263c-1.04,0-1.862-0.351-2.467-1.051c-0.605-0.699-0.908-1.715-0.908-3.045v-1.14
		c0-0.96,0.123-1.763,0.368-2.407c0.244-0.646,0.612-1.165,1.103-1.561c0.489-0.395,1.109-0.702,1.859-0.922l2.61-0.765l0.33,0.78
		l-2.88,0.81c-0.83,0.24-1.453,0.66-1.868,1.26c-0.415,0.6-0.622,1.325-0.622,2.175v0.015c0.229-0.51,0.577-0.907,1.042-1.192
		c0.466-0.285,0.998-0.428,1.598-0.428c0.64,0,1.197,0.153,1.673,0.458c0.475,0.305,0.845,0.734,1.11,1.29
		c0.265,0.555,0.397,1.213,0.397,1.973s-0.138,1.422-0.413,1.987c-0.275,0.564-0.66,1-1.155,1.305
		C492.917,169.11,492.324,169.263,491.634,169.263z M491.605,168.497c0.77,0,1.369-0.255,1.8-0.765
		c0.43-0.51,0.645-1.245,0.645-2.205c0-0.93-0.215-1.655-0.645-2.175c-0.431-0.521-1.025-0.78-1.785-0.78
		c-0.75,0-1.343,0.253-1.777,0.758c-0.436,0.505-0.652,1.192-0.652,2.063c0,1.02,0.212,1.792,0.637,2.317
		C490.252,168.234,490.844,168.497,491.605,168.497z"/>
	<path fill="#040200" d="M500.214,169.263c-1.12,0-2.003-0.333-2.647-0.998c-0.646-0.665-0.968-1.577-0.968-2.737
		c0-0.75,0.146-1.41,0.436-1.98c0.29-0.569,0.692-1.015,1.207-1.335c0.515-0.319,1.107-0.479,1.777-0.479
		c0.97,0,1.726,0.314,2.266,0.945c0.54,0.63,0.81,1.495,0.81,2.595v0.42h-5.595c0.03,0.9,0.277,1.593,0.742,2.077
		c0.465,0.485,1.112,0.728,1.942,0.728c0.45,0,0.873-0.069,1.268-0.21c0.396-0.14,0.782-0.375,1.163-0.705l0.359,0.69
		c-0.32,0.31-0.729,0.553-1.229,0.728S500.734,169.263,500.214,169.263z M500.034,162.468c-0.761,0-1.353,0.237-1.778,0.712
		c-0.425,0.476-0.672,1.088-0.742,1.838h4.755c-0.02-0.8-0.22-1.425-0.6-1.875S500.744,162.468,500.034,162.468z"/>
	<path fill="#040200" d="M508.044,169.263c-0.71,0-1.32-0.158-1.83-0.473c-0.51-0.315-0.902-0.76-1.178-1.335
		s-0.412-1.242-0.412-2.003c0-1.149,0.302-2.058,0.907-2.723c0.604-0.665,1.442-0.997,2.513-0.997c0.439,0,0.875,0.085,1.305,0.255
		s0.79,0.405,1.08,0.705l-0.36,0.69c-0.31-0.301-0.64-0.518-0.989-0.653c-0.351-0.135-0.686-0.202-1.006-0.202
		c-0.81,0-1.432,0.255-1.867,0.765c-0.435,0.511-0.652,1.235-0.652,2.176c0,0.939,0.218,1.677,0.652,2.212
		c0.436,0.535,1.058,0.803,1.867,0.803c0.32,0,0.655-0.067,1.006-0.202c0.35-0.136,0.68-0.353,0.989-0.653l0.36,0.69
		c-0.29,0.29-0.652,0.521-1.088,0.69C508.906,169.178,508.474,169.263,508.044,169.263z"/>
	<path fill="#040200" d="M512.078,169.142v-7.275h6.091v7.275h-0.915v-6.525h-4.261v6.525H512.078z"/>
	<path fill="#040200" d="M523.583,169.263c-0.68,0-1.27-0.152-1.77-0.458c-0.5-0.305-0.888-0.74-1.162-1.305
		c-0.275-0.565-0.413-1.232-0.413-2.003c0-0.76,0.138-1.422,0.413-1.987c0.274-0.564,0.662-1.002,1.162-1.313
		c0.5-0.31,1.09-0.465,1.77-0.465c0.69,0,1.285,0.155,1.785,0.465c0.5,0.311,0.888,0.748,1.163,1.313
		c0.274,0.565,0.412,1.228,0.412,1.987c0,0.771-0.138,1.438-0.412,2.003c-0.275,0.564-0.663,1-1.163,1.305
		C524.868,169.11,524.274,169.263,523.583,169.263z M523.583,168.497c0.74,0,1.33-0.263,1.771-0.787
		c0.439-0.525,0.66-1.263,0.66-2.213c0-0.949-0.221-1.685-0.66-2.205c-0.44-0.52-1.03-0.779-1.771-0.779
		c-0.739,0-1.327,0.26-1.762,0.779c-0.436,0.521-0.652,1.256-0.652,2.205c0,0.95,0.217,1.688,0.652,2.213
		C522.256,168.234,522.844,168.497,523.583,168.497z"/>
	<path fill="#040200" d="M529.014,169.142v-7.275h0.915v3.135h1.5l2.505-3.135h1.035l-2.61,3.285c0.28,0.09,0.53,0.25,0.75,0.48
		c0.22,0.229,0.48,0.59,0.78,1.079l1.47,2.431h-0.989l-1.351-2.235c-0.19-0.3-0.367-0.535-0.532-0.705s-0.351-0.287-0.555-0.353
		c-0.205-0.064-0.463-0.098-0.773-0.098h-1.229v3.391H529.014z"/>
	<path fill="#040200" d="M539.573,169.263c-0.681,0-1.271-0.152-1.771-0.458c-0.5-0.305-0.887-0.74-1.162-1.305
		c-0.275-0.565-0.412-1.232-0.412-2.003c0-0.76,0.137-1.422,0.412-1.987c0.275-0.564,0.662-1.002,1.162-1.313
		c0.5-0.31,1.09-0.465,1.771-0.465c0.69,0,1.285,0.155,1.785,0.465c0.5,0.311,0.887,0.748,1.162,1.313
		c0.275,0.565,0.413,1.228,0.413,1.987c0,0.771-0.138,1.438-0.413,2.003c-0.275,0.564-0.662,1-1.162,1.305
		C540.859,169.11,540.264,169.263,539.573,169.263z M539.573,168.497c0.74,0,1.33-0.263,1.77-0.787
		c0.44-0.525,0.66-1.263,0.66-2.213c0-0.949-0.22-1.685-0.66-2.205c-0.439-0.52-1.029-0.779-1.77-0.779s-1.327,0.26-1.763,0.779
		c-0.435,0.521-0.652,1.256-0.652,2.205c0,0.95,0.218,1.688,0.652,2.213C538.246,168.234,538.833,168.497,539.573,168.497z"/>
	<path fill="#040200" d="M545.003,169.142v-7.275h0.84v5.97l4.455-5.97h0.811v7.275h-0.84v-5.971l-4.471,5.971H545.003z
		 M548.048,160.922c-0.53,0-1.024-0.149-1.484-0.449c-0.46-0.301-0.795-0.785-1.005-1.455l0.6-0.24
		c0.18,0.51,0.428,0.888,0.742,1.133c0.315,0.245,0.698,0.367,1.147,0.367c0.46,0,0.84-0.11,1.141-0.33
		c0.3-0.22,0.585-0.605,0.854-1.155l0.57,0.225c-0.29,0.72-0.663,1.218-1.117,1.492C549.04,160.785,548.559,160.922,548.048,160.922
		z"/>
	<path fill="#040200" d="M556.599,169.263c-0.711,0-1.32-0.158-1.83-0.473c-0.511-0.315-0.903-0.76-1.178-1.335
		c-0.275-0.575-0.413-1.242-0.413-2.003c0-1.149,0.303-2.058,0.908-2.723c0.604-0.665,1.442-0.997,2.513-0.997
		c0.439,0,0.874,0.085,1.305,0.255c0.43,0.17,0.79,0.405,1.08,0.705l-0.36,0.69c-0.31-0.301-0.64-0.518-0.99-0.653
		c-0.35-0.135-0.685-0.202-1.005-0.202c-0.81,0-1.433,0.255-1.867,0.765c-0.436,0.511-0.652,1.235-0.652,2.176
		c0,0.939,0.217,1.677,0.652,2.212c0.435,0.535,1.058,0.803,1.867,0.803c0.32,0,0.655-0.067,1.005-0.202
		c0.351-0.136,0.681-0.353,0.99-0.653l0.36,0.69c-0.29,0.29-0.652,0.521-1.088,0.69
		C557.461,169.178,557.029,169.263,556.599,169.263z"/>
	<path fill="#040200" d="M562.149,169.142v-6.51h-2.716v-0.766h6.346v0.766h-2.715v6.51H562.149z"/>
	<path fill="#040200" d="M567.098,169.142v-7.275h3.375c1.63,0,2.445,0.641,2.445,1.92c0,0.381-0.107,0.713-0.322,0.998
		c-0.216,0.285-0.508,0.492-0.878,0.622c0.44,0.101,0.79,0.306,1.05,0.615s0.391,0.685,0.391,1.125c0,0.62-0.226,1.107-0.676,1.462
		c-0.449,0.355-1.079,0.533-1.89,0.533H567.098z M567.983,165.107h2.49c0.49,0,0.873-0.112,1.147-0.338
		c0.275-0.225,0.413-0.542,0.413-0.952c0-0.399-0.138-0.713-0.413-0.938c-0.274-0.225-0.657-0.338-1.147-0.338h-2.49V165.107z
		 M567.983,168.468h2.61c0.54,0,0.952-0.115,1.237-0.346c0.285-0.229,0.428-0.564,0.428-1.005c0-0.43-0.143-0.76-0.428-0.99
		c-0.285-0.229-0.697-0.345-1.237-0.345h-2.61V168.468z"/>
	<path fill="#040200" d="M578.049,169.263c-0.681,0-1.271-0.152-1.771-0.458c-0.5-0.305-0.888-0.74-1.162-1.305
		c-0.275-0.565-0.413-1.232-0.413-2.003c0-0.76,0.138-1.422,0.413-1.987c0.274-0.564,0.662-1.002,1.162-1.313
		c0.5-0.31,1.09-0.465,1.771-0.465c0.689,0,1.284,0.155,1.785,0.465c0.499,0.311,0.887,0.748,1.162,1.313
		c0.274,0.565,0.412,1.228,0.412,1.987c0,0.771-0.138,1.438-0.412,2.003c-0.275,0.564-0.663,1-1.162,1.305
		C579.333,169.11,578.738,169.263,578.049,169.263z M578.049,168.497c0.739,0,1.329-0.263,1.77-0.787
		c0.44-0.525,0.66-1.263,0.66-2.213c0-0.949-0.22-1.685-0.66-2.205c-0.44-0.52-1.03-0.779-1.77-0.779
		c-0.74,0-1.328,0.26-1.763,0.779c-0.436,0.521-0.652,1.256-0.652,2.205c0,0.95,0.217,1.688,0.652,2.213
		C576.721,168.234,577.309,168.497,578.049,168.497z"/>
</g>
<g>
	<path fill="#040200" d="M694.276,152.262c-0.9,0-1.7-0.125-2.4-0.375s-1.26-0.59-1.68-1.02l0.375-0.75
		c0.5,0.45,1.039,0.78,1.619,0.99s1.261,0.315,2.04,0.315c1.03,0,1.788-0.182,2.272-0.547c0.485-0.365,0.728-0.907,0.728-1.627
		c0-0.7-0.215-1.217-0.645-1.552s-1.08-0.503-1.95-0.503h-2.58v-0.795h2.355c0.84,0,1.479-0.172,1.92-0.518
		c0.439-0.345,0.66-0.842,0.66-1.492s-0.232-1.163-0.698-1.538c-0.465-0.375-1.147-0.563-2.047-0.563
		c-0.65,0-1.263,0.103-1.838,0.308s-1.103,0.522-1.582,0.952l-0.391-0.75c0.471-0.44,1.045-0.774,1.726-1.005
		c0.68-0.23,1.39-0.345,2.13-0.345c1.2,0,2.107,0.26,2.723,0.78c0.614,0.52,0.922,1.225,0.922,2.115c0,0.58-0.155,1.075-0.465,1.485
		s-0.729,0.71-1.26,0.9c0.609,0.15,1.09,0.442,1.44,0.877c0.35,0.435,0.524,0.988,0.524,1.658c0,0.94-0.32,1.675-0.96,2.205
		C696.575,151.997,695.595,152.262,694.276,152.262z"/>
	<path fill="#040200" d="M702.675,152.262c-0.49,0-0.928-0.095-1.313-0.285s-0.69-0.45-0.915-0.78c-0.225-0.33-0.338-0.7-0.338-1.11
		c0-0.54,0.136-0.962,0.405-1.267c0.271-0.305,0.725-0.522,1.365-0.653c0.64-0.13,1.52-0.195,2.64-0.195h0.465v-0.54
		c0-0.67-0.135-1.157-0.404-1.462c-0.271-0.305-0.7-0.458-1.29-0.458c-0.44,0-0.862,0.065-1.268,0.195
		c-0.405,0.13-0.823,0.335-1.253,0.615l-0.359-0.705c0.38-0.27,0.829-0.485,1.35-0.645c0.52-0.16,1.025-0.24,1.515-0.24
		c0.88,0,1.533,0.225,1.958,0.675c0.425,0.45,0.638,1.14,0.638,2.07v4.665H705v-1.305c-0.2,0.45-0.503,0.8-0.907,1.05
		C703.688,152.137,703.215,152.262,702.675,152.262z M702.795,151.527c0.43,0,0.808-0.102,1.133-0.307
		c0.324-0.205,0.582-0.488,0.772-0.848c0.189-0.36,0.284-0.77,0.284-1.23v-0.495h-0.449c-0.9,0-1.603,0.04-2.107,0.12
		c-0.506,0.08-0.858,0.22-1.058,0.42c-0.2,0.2-0.301,0.475-0.301,0.825c0,0.45,0.155,0.815,0.466,1.095
		C701.845,151.387,702.265,151.527,702.795,151.527z"/>
	<path fill="#040200" d="M717.93,154.092v-1.95h-9.57v-7.275h0.9v6.525h3.271v-6.525h0.899v6.525h3.285v-6.525h0.885v6.525h1.125
		v2.7H717.93z"/>
	<path fill="#040200" d="M720.449,152.142v-7.275h0.841v5.97l4.455-5.97h0.81v7.275h-0.84v-5.97l-4.47,5.97H720.449z"/>
	<path fill="#040200" d="M730.59,152.142v-6.51h-2.715v-0.765h6.345v0.765h-2.715v6.51H730.59z"/>
	<path fill="#040200" d="M735.54,152.142v-7.275h0.915v3.135h4.306v-3.135h0.914v7.275h-0.914v-3.375h-4.306v3.375H735.54z"/>
	<path fill="#040200" d="M747.09,152.262c-0.681,0-1.271-0.152-1.771-0.458s-0.888-0.74-1.162-1.305
		c-0.275-0.565-0.413-1.232-0.413-2.002c0-0.76,0.138-1.422,0.413-1.987c0.274-0.565,0.662-1.002,1.162-1.313
		s1.09-0.465,1.771-0.465c0.689,0,1.284,0.155,1.785,0.465c0.499,0.31,0.887,0.748,1.162,1.313c0.274,0.565,0.412,1.228,0.412,1.987
		c0,0.77-0.138,1.438-0.412,2.002c-0.275,0.565-0.663,1-1.162,1.305C748.374,152.11,747.779,152.262,747.09,152.262z
		 M747.09,151.497c0.739,0,1.329-0.263,1.77-0.788s0.66-1.262,0.66-2.212c0-0.95-0.22-1.685-0.66-2.205
		c-0.44-0.52-1.03-0.78-1.77-0.78c-0.74,0-1.328,0.26-1.763,0.78c-0.436,0.52-0.652,1.255-0.652,2.205
		c0,0.95,0.217,1.688,0.652,2.212C745.762,151.234,746.35,151.497,747.09,151.497z"/>
	<path fill="#040200" d="M755.685,152.262c-1.12,0-2.002-0.333-2.647-0.998c-0.645-0.665-0.968-1.578-0.968-2.738
		c0-0.75,0.146-1.41,0.436-1.98c0.29-0.57,0.692-1.015,1.207-1.335c0.516-0.32,1.107-0.48,1.778-0.48
		c0.97,0,1.725,0.315,2.265,0.945c0.54,0.63,0.81,1.495,0.81,2.595v0.42h-5.595c0.03,0.9,0.277,1.593,0.742,2.078
		c0.466,0.485,1.112,0.728,1.942,0.728c0.45,0,0.873-0.07,1.268-0.21c0.396-0.14,0.783-0.375,1.163-0.705l0.359,0.69
		c-0.319,0.31-0.729,0.553-1.229,0.728S756.205,152.262,755.685,152.262z M755.505,145.467c-0.76,0-1.353,0.237-1.777,0.712
		c-0.426,0.475-0.673,1.087-0.743,1.837h4.756c-0.021-0.8-0.221-1.425-0.601-1.875S756.215,145.467,755.505,145.467z"/>
	<path fill="#040200" d="M688.148,170.142v-7.275h6.09v7.275h-0.915v-6.525h-4.26v6.525H688.148z"/>
	<path fill="#040200" d="M699.653,170.263c-0.681,0-1.271-0.152-1.771-0.458c-0.5-0.305-0.887-0.74-1.162-1.305
		c-0.275-0.565-0.412-1.232-0.412-2.003c0-0.76,0.137-1.422,0.412-1.987c0.275-0.564,0.662-1.002,1.162-1.313
		c0.5-0.31,1.09-0.465,1.771-0.465c0.69,0,1.285,0.155,1.785,0.465c0.5,0.311,0.887,0.748,1.162,1.313
		c0.275,0.565,0.413,1.228,0.413,1.987c0,0.771-0.138,1.438-0.413,2.003c-0.275,0.564-0.662,1-1.162,1.305
		C700.938,170.11,700.343,170.263,699.653,170.263z M699.653,169.497c0.74,0,1.33-0.263,1.77-0.787
		c0.44-0.525,0.66-1.263,0.66-2.213c0-0.949-0.22-1.685-0.66-2.205c-0.439-0.52-1.029-0.779-1.77-0.779s-1.327,0.26-1.763,0.779
		c-0.435,0.521-0.652,1.256-0.652,2.205c0,0.95,0.218,1.688,0.652,2.213C698.325,169.234,698.912,169.497,699.653,169.497z"/>
	<path fill="#040200" d="M705.082,170.142v-7.275h3.375c1.63,0,2.445,0.641,2.445,1.92c0,0.381-0.107,0.713-0.323,0.998
		c-0.215,0.285-0.507,0.492-0.877,0.622c0.439,0.101,0.79,0.306,1.05,0.615s0.39,0.685,0.39,1.125c0,0.62-0.225,1.107-0.675,1.462
		c-0.45,0.355-1.08,0.533-1.89,0.533H705.082z M705.967,166.107h2.49c0.49,0,0.872-0.112,1.147-0.338
		c0.275-0.225,0.412-0.542,0.412-0.952c0-0.399-0.137-0.713-0.412-0.938s-0.657-0.338-1.147-0.338h-2.49V166.107z M705.967,169.468
		h2.61c0.54,0,0.952-0.115,1.237-0.346c0.285-0.229,0.428-0.564,0.428-1.005c0-0.43-0.143-0.76-0.428-0.99
		c-0.285-0.229-0.697-0.345-1.237-0.345h-2.61V169.468z"/>
	<path fill="#040200" d="M716.302,170.263c-1.12,0-2.002-0.333-2.647-0.998c-0.645-0.665-0.967-1.577-0.967-2.737
		c0-0.75,0.145-1.41,0.435-1.98c0.29-0.569,0.692-1.015,1.208-1.335c0.515-0.319,1.107-0.479,1.777-0.479
		c0.97,0,1.725,0.314,2.265,0.945c0.54,0.63,0.811,1.495,0.811,2.595v0.42h-5.596c0.03,0.9,0.277,1.593,0.743,2.077
		c0.465,0.485,1.112,0.728,1.942,0.728c0.45,0,0.872-0.069,1.268-0.21c0.395-0.14,0.782-0.375,1.162-0.705l0.36,0.69
		c-0.32,0.31-0.73,0.553-1.23,0.728S716.822,170.263,716.302,170.263z M716.122,163.468c-0.76,0-1.353,0.237-1.777,0.712
		c-0.425,0.476-0.673,1.088-0.742,1.838h4.755c-0.021-0.8-0.221-1.425-0.601-1.875S716.832,163.468,716.122,163.468z"/>
	<path fill="#040200" d="M720.307,172.093v-2.7h0.735c0.369-0.53,0.637-1.147,0.802-1.853s0.248-1.532,0.248-2.482v-2.19h4.92v6.525
		h1.125v2.7h-0.795v-1.95h-6.24v1.95H720.307z M721.987,169.392h4.141v-5.775h-3.195v1.53c0,0.81-0.083,1.588-0.247,2.332
		C722.52,168.224,722.286,168.862,721.987,169.392z"/>
	<path fill="#040200" d="M733.027,170.263c-1.12,0-2.002-0.333-2.647-0.998c-0.645-0.665-0.967-1.577-0.967-2.737
		c0-0.75,0.145-1.41,0.435-1.98c0.29-0.569,0.692-1.015,1.208-1.335c0.515-0.319,1.107-0.479,1.777-0.479
		c0.97,0,1.725,0.314,2.265,0.945c0.54,0.63,0.811,1.495,0.811,2.595v0.42h-5.596c0.03,0.9,0.277,1.593,0.743,2.077
		c0.465,0.485,1.112,0.728,1.942,0.728c0.45,0,0.872-0.069,1.268-0.21c0.395-0.14,0.782-0.375,1.162-0.705l0.36,0.69
		c-0.32,0.31-0.73,0.553-1.23,0.728S733.547,170.263,733.027,170.263z M732.847,163.468c-0.76,0-1.353,0.237-1.777,0.712
		c-0.425,0.476-0.673,1.088-0.742,1.838h4.755c-0.021-0.8-0.22-1.425-0.6-1.875C734.102,163.692,733.557,163.468,732.847,163.468z"
		/>
	<path fill="#040200" d="M737.887,170.142v-7.275h0.915v3.135h4.306v-3.135h0.914v7.275h-0.914v-3.375h-4.306v3.375H737.887z"/>
	<path fill="#040200" d="M746.541,170.142v-7.275h0.84v5.97l4.455-5.97h0.811v7.275h-0.84v-5.971l-4.471,5.971H746.541z"/>
	<path fill="#040200" d="M758.331,170.263c-1.12,0-2.002-0.333-2.647-0.998c-0.645-0.665-0.968-1.577-0.968-2.737
		c0-0.75,0.146-1.41,0.436-1.98c0.29-0.569,0.692-1.015,1.207-1.335c0.516-0.319,1.107-0.479,1.778-0.479
		c0.97,0,1.725,0.314,2.265,0.945c0.54,0.63,0.81,1.495,0.81,2.595v0.42h-5.595c0.03,0.9,0.277,1.593,0.742,2.077
		c0.466,0.485,1.112,0.728,1.942,0.728c0.45,0,0.873-0.069,1.268-0.21c0.396-0.14,0.783-0.375,1.163-0.705l0.359,0.69
		c-0.319,0.31-0.729,0.553-1.229,0.728S758.852,170.263,758.331,170.263z M758.152,163.468c-0.76,0-1.353,0.237-1.777,0.712
		c-0.426,0.476-0.673,1.088-0.743,1.838h4.756c-0.021-0.8-0.221-1.425-0.601-1.875S758.862,163.468,758.152,163.468z"/>
</g>
<g>
	<path fill="#040200" d="M407.496,279.127c-1.011,0-1.875-0.218-2.596-0.652c-0.72-0.435-1.272-1.058-1.657-1.867
		c-0.385-0.811-0.577-1.775-0.577-2.896c0-1.109,0.192-2.07,0.577-2.88s0.938-1.433,1.657-1.867
		c0.721-0.436,1.585-0.652,2.596-0.652c0.729,0,1.402,0.117,2.018,0.353c0.614,0.234,1.137,0.577,1.567,1.027l-0.405,0.765
		c-0.47-0.46-0.958-0.79-1.463-0.99c-0.505-0.199-1.072-0.3-1.702-0.3c-1.24,0-2.192,0.397-2.857,1.192s-0.997,1.913-0.997,3.353
		c0,1.45,0.332,2.572,0.997,3.367c0.665,0.796,1.617,1.193,2.857,1.193c0.63,0,1.197-0.101,1.702-0.301
		c0.505-0.199,0.993-0.529,1.463-0.989l0.405,0.765c-0.431,0.45-0.953,0.793-1.567,1.027
		C408.899,279.01,408.226,279.127,407.496,279.127z"/>
	<path fill="#040200" d="M413.016,279.007v-7.274h0.84v5.97l4.455-5.97h0.811v7.274h-0.841v-5.97l-4.47,5.97H413.016z"/>
	<path fill="#040200" d="M421.641,279.007v-7.274h0.765l2.835,5.13l2.835-5.13h0.75v7.274h-0.81v-5.654l-2.535,4.484h-0.495
		l-2.52-4.484v5.654H421.641z"/>
	<path fill="#040200" d="M431.346,279.007v-7.274h6.09v7.274h-0.915v-6.524h-4.26v6.524H431.346z"/>
	<path fill="#040200" d="M441.471,279.007v-6.51h-2.715v-0.765h6.345v0.765h-2.715v6.51H441.471z"/>
	<path fill="#040200" d="M449.316,279.127c-0.681,0-1.271-0.152-1.771-0.457c-0.5-0.306-0.888-0.74-1.162-1.306
		c-0.275-0.564-0.412-1.232-0.412-2.002c0-0.76,0.137-1.423,0.412-1.987c0.274-0.565,0.662-1.003,1.162-1.313
		c0.5-0.311,1.09-0.466,1.771-0.466c0.689,0,1.284,0.155,1.785,0.466c0.499,0.31,0.887,0.747,1.162,1.313
		c0.274,0.564,0.412,1.228,0.412,1.987c0,0.77-0.138,1.438-0.412,2.002c-0.275,0.565-0.663,1-1.162,1.306
		C450.6,278.974,450.005,279.127,449.316,279.127z M449.316,278.362c0.739,0,1.329-0.263,1.77-0.788
		c0.44-0.524,0.66-1.262,0.66-2.212s-0.22-1.686-0.66-2.205s-1.03-0.78-1.77-0.78c-0.74,0-1.328,0.261-1.763,0.78
		c-0.436,0.52-0.652,1.255-0.652,2.205s0.217,1.688,0.652,2.212C447.987,278.099,448.575,278.362,449.316,278.362z"/>
	<path fill="#040200" d="M454.745,279.007v-7.274h0.766l2.835,5.13l2.835-5.13h0.75v7.274h-0.811v-5.654l-2.535,4.484h-0.494
		l-2.521-4.484v5.654H454.745z"/>
	<path fill="#040200" d="M464.449,279.007v-7.274h0.915v2.685h2.325c0.91,0,1.603,0.197,2.077,0.593
		c0.476,0.395,0.713,0.957,0.713,1.688c0,0.72-0.24,1.285-0.72,1.694c-0.48,0.41-1.17,0.615-2.07,0.615H464.449z M465.364,278.302
		h2.295c0.601,0,1.067-0.13,1.402-0.39s0.503-0.66,0.503-1.2c0-0.55-0.168-0.955-0.503-1.215s-0.802-0.39-1.402-0.39h-2.295V278.302
		z M471.65,279.007v-7.274h0.915v7.274H471.65z"/>
</g>
<g>
	<path fill="#040200" d="M331.041,301.475v-0.811h2.43v-8.609l-1.935,1.26l-0.42-0.705l2.61-1.71h0.66v9.765h2.28v0.811H331.041z"/>
	<path fill="#040200" d="M339.081,301.475v-1.29h1.275v1.29H339.081z"/>
	<path fill="#040200" d="M350.871,301.79v-1.17h-0.105c-0.97,0-1.805-0.182-2.505-0.547s-1.237-0.888-1.612-1.568
		c-0.375-0.68-0.563-1.479-0.563-2.399c0-1.4,0.407-2.503,1.223-3.308c0.814-0.805,1.967-1.207,3.457-1.207h0.105v-1.08h0.93v1.08
		h0.09c1.49,0,2.643,0.402,3.458,1.207c0.814,0.805,1.223,1.907,1.223,3.308c0,0.92-0.188,1.72-0.563,2.399
		c-0.375,0.681-0.913,1.203-1.613,1.568c-0.699,0.365-1.535,0.547-2.505,0.547h-0.09v1.17H350.871z M350.616,299.841h0.255v-7.455
		h-0.255c-1.101,0-1.968,0.324-2.603,0.975c-0.636,0.65-0.953,1.565-0.953,2.745c0,0.771,0.146,1.433,0.436,1.987
		s0.702,0.985,1.237,1.29C349.268,299.688,349.895,299.841,350.616,299.841z M352.055,292.386h-0.27v7.455h0.27
		c0.71,0,1.333-0.152,1.868-0.458c0.534-0.305,0.947-0.735,1.237-1.29s0.435-1.217,0.435-1.987c0-1.18-0.317-2.095-0.952-2.745
		S353.145,292.386,352.055,292.386z"/>
	<path fill="#040200" d="M358.79,301.475V294.2h0.84v5.97l4.455-5.97h0.811v7.275h-0.84v-5.971l-4.471,5.971H358.79z"/>
	<path fill="#040200" d="M369.695,301.596c-0.62,0-1.197-0.085-1.732-0.255s-0.963-0.405-1.282-0.705l0.345-0.69
		c0.34,0.3,0.74,0.525,1.2,0.675c0.46,0.15,0.944,0.226,1.455,0.226c0.76,0,1.305-0.12,1.635-0.36s0.495-0.58,0.495-1.02
		c0-0.431-0.143-0.758-0.428-0.983c-0.285-0.225-0.692-0.337-1.223-0.337h-1.62v-0.72h1.485c0.47,0,0.845-0.113,1.125-0.338
		c0.279-0.225,0.42-0.532,0.42-0.923c0-0.399-0.147-0.722-0.442-0.967s-0.758-0.368-1.388-0.368c-0.51,0-0.975,0.067-1.395,0.203
		c-0.421,0.135-0.825,0.348-1.216,0.637l-0.345-0.689c0.811-0.61,1.815-0.915,3.015-0.915c0.9,0,1.57,0.183,2.011,0.548
		c0.439,0.364,0.66,0.867,0.66,1.507c0,0.381-0.11,0.713-0.33,0.998c-0.221,0.285-0.516,0.492-0.886,0.622
		c0.44,0.101,0.793,0.306,1.058,0.615s0.397,0.685,0.397,1.125c0,0.64-0.25,1.152-0.75,1.537
		C371.46,301.403,370.705,301.596,369.695,301.596z"/>
	<path fill="#040200" d="M374.72,301.475V294.2h0.84v5.97l4.455-5.97h0.811v7.275h-0.84v-5.971l-4.471,5.971H374.72z"/>
	<path fill="#040200" d="M386.24,301.596c-0.681,0-1.271-0.152-1.771-0.458c-0.5-0.305-0.888-0.74-1.162-1.305
		c-0.275-0.565-0.413-1.232-0.413-2.003c0-0.76,0.138-1.422,0.413-1.987c0.274-0.564,0.662-1.002,1.162-1.313
		c0.5-0.31,1.09-0.465,1.771-0.465c0.689,0,1.284,0.155,1.785,0.465c0.499,0.311,0.887,0.748,1.162,1.313
		c0.274,0.565,0.412,1.228,0.412,1.987c0,0.771-0.138,1.438-0.412,2.003c-0.275,0.564-0.663,1-1.162,1.305
		C387.525,301.443,386.93,301.596,386.24,301.596z M386.24,300.83c0.739,0,1.329-0.263,1.77-0.787c0.44-0.525,0.66-1.263,0.66-2.213
		c0-0.949-0.22-1.685-0.66-2.205c-0.44-0.52-1.03-0.779-1.77-0.779c-0.74,0-1.328,0.26-1.763,0.779
		c-0.436,0.521-0.652,1.256-0.652,2.205c0,0.95,0.217,1.688,0.652,2.213C384.912,300.567,385.5,300.83,386.24,300.83z"/>
	<path fill="#040200" d="M391.01,301.625l-0.39-0.72c0.47-0.22,0.837-0.515,1.103-0.885c0.265-0.37,0.449-0.883,0.555-1.538
		c0.104-0.654,0.157-1.522,0.157-2.603v-1.68h5.025v7.275h-0.915v-6.525h-3.24v0.96c0,1.181-0.072,2.147-0.218,2.902
		c-0.145,0.756-0.385,1.353-0.72,1.793S391.58,301.386,391.01,301.625z"/>
	<path fill="#040200" d="M402.875,301.596c-0.681,0-1.271-0.152-1.771-0.458c-0.5-0.305-0.888-0.74-1.162-1.305
		c-0.275-0.565-0.413-1.232-0.413-2.003c0-0.76,0.138-1.422,0.413-1.987c0.274-0.564,0.662-1.002,1.162-1.313
		c0.5-0.31,1.09-0.465,1.771-0.465c0.689,0,1.284,0.155,1.785,0.465c0.499,0.311,0.887,0.748,1.162,1.313
		c0.274,0.565,0.412,1.228,0.412,1.987c0,0.771-0.138,1.438-0.412,2.003c-0.275,0.564-0.663,1-1.162,1.305
		C404.159,301.443,403.565,301.596,402.875,301.596z M402.875,300.83c0.739,0,1.329-0.263,1.77-0.787
		c0.44-0.525,0.66-1.263,0.66-2.213c0-0.949-0.22-1.685-0.66-2.205c-0.44-0.52-1.03-0.779-1.77-0.779
		c-0.74,0-1.328,0.26-1.763,0.779c-0.436,0.521-0.652,1.256-0.652,2.205c0,0.95,0.217,1.688,0.652,2.213
		C401.547,300.567,402.135,300.83,402.875,300.83z"/>
	<path fill="#040200" d="M408.305,301.475V294.2h4.92v0.766h-4.005v6.51H408.305z"/>
	<path fill="#040200" d="M414.68,301.475V294.2h0.84v5.97l4.455-5.97h0.811v7.275h-0.84v-5.971l-4.471,5.971H414.68z"/>
	<path fill="#040200" d="M422.72,301.475l1.141-1.98c0.31-0.529,0.699-0.88,1.17-1.05c-0.63-0.08-1.12-0.303-1.471-0.667
		c-0.35-0.365-0.524-0.843-0.524-1.433c0-0.641,0.215-1.157,0.645-1.553s1.08-0.593,1.95-0.593h3.09v7.275h-0.885v-2.896h-1.185
		c-0.45,0-0.825,0.11-1.125,0.33c-0.301,0.221-0.546,0.49-0.735,0.811l-1.005,1.755H422.72z M425.795,297.875h2.04v-2.984h-2.04
		c-0.64,0-1.11,0.133-1.41,0.397s-0.45,0.627-0.45,1.087c0,0.471,0.15,0.838,0.45,1.103
		C424.685,297.743,425.155,297.875,425.795,297.875z"/>
	<path fill="#040200" d="M436.999,304.341c-0.58-1.11-1.01-2.228-1.29-3.353s-0.42-2.278-0.42-3.458s0.14-2.33,0.42-3.45
		c0.28-1.119,0.71-2.239,1.29-3.359l0.705,0.255c-0.96,2.18-1.44,4.365-1.44,6.555c0,2.19,0.48,4.375,1.44,6.555L436.999,304.341z"
		/>
	<path fill="#040200" d="M439.489,301.475V294.2h6.09v7.275h-0.915v-6.525h-4.26v6.525H439.489z"/>
	<path fill="#040200" d="M451.07,301.596c-0.711,0-1.32-0.158-1.83-0.473c-0.511-0.315-0.903-0.76-1.178-1.335
		c-0.275-0.575-0.413-1.242-0.413-2.003c0-1.149,0.303-2.058,0.908-2.723c0.604-0.665,1.442-0.997,2.513-0.997
		c0.439,0,0.874,0.085,1.305,0.255c0.43,0.17,0.79,0.405,1.08,0.705l-0.36,0.69c-0.31-0.301-0.64-0.518-0.99-0.653
		c-0.35-0.135-0.685-0.202-1.005-0.202c-0.81,0-1.433,0.255-1.867,0.765c-0.436,0.511-0.652,1.235-0.652,2.176
		c0,0.939,0.217,1.677,0.652,2.212c0.435,0.535,1.058,0.803,1.867,0.803c0.32,0,0.655-0.067,1.005-0.202
		c0.351-0.136,0.681-0.353,0.99-0.653l0.36,0.69c-0.29,0.29-0.652,0.521-1.088,0.69C451.932,301.511,451.499,301.596,451.07,301.596
		z"/>
	<path fill="#040200" d="M455.104,301.475V294.2h0.84v5.97l4.455-5.97h0.811v7.275h-0.84v-5.971l-4.471,5.971H455.104z"/>
	<path fill="#040200" d="M462.859,301.475l3-3.766l-2.835-3.51h1.096l2.279,2.88l2.295-2.88h1.08l-2.835,3.525l3.016,3.75h-1.11
		l-2.445-3.075l-2.46,3.075H462.859z"/>
	<path fill="#040200" d="M474.32,301.596c-0.681,0-1.271-0.152-1.771-0.458c-0.5-0.305-0.888-0.74-1.162-1.305
		c-0.275-0.565-0.413-1.232-0.413-2.003c0-0.76,0.138-1.422,0.413-1.987c0.274-0.564,0.662-1.002,1.162-1.313
		c0.5-0.31,1.09-0.465,1.771-0.465c0.689,0,1.284,0.155,1.785,0.465c0.499,0.311,0.887,0.748,1.162,1.313
		c0.274,0.565,0.412,1.228,0.412,1.987c0,0.771-0.138,1.438-0.412,2.003c-0.275,0.564-0.663,1-1.162,1.305
		C475.604,301.443,475.009,301.596,474.32,301.596z M474.32,300.83c0.739,0,1.329-0.263,1.77-0.787
		c0.44-0.525,0.66-1.263,0.66-2.213c0-0.949-0.22-1.685-0.66-2.205c-0.44-0.52-1.03-0.779-1.77-0.779
		c-0.74,0-1.328,0.26-1.763,0.779c-0.436,0.521-0.652,1.256-0.652,2.205c0,0.95,0.217,1.688,0.652,2.213
		C472.991,300.567,473.579,300.83,474.32,300.83z"/>
	<path fill="#040200" d="M482.72,301.596c-0.711,0-1.32-0.158-1.83-0.473c-0.511-0.315-0.903-0.76-1.178-1.335
		c-0.275-0.575-0.413-1.242-0.413-2.003c0-1.149,0.303-2.058,0.908-2.723c0.604-0.665,1.442-0.997,2.513-0.997
		c0.439,0,0.874,0.085,1.305,0.255c0.43,0.17,0.79,0.405,1.08,0.705l-0.36,0.69c-0.31-0.301-0.64-0.518-0.99-0.653
		c-0.35-0.135-0.685-0.202-1.005-0.202c-0.81,0-1.433,0.255-1.867,0.765c-0.436,0.511-0.652,1.235-0.652,2.176
		c0,0.939,0.217,1.677,0.652,2.212c0.435,0.535,1.058,0.803,1.867,0.803c0.32,0,0.655-0.067,1.005-0.202
		c0.351-0.136,0.681-0.353,0.99-0.653l0.36,0.69c-0.29,0.29-0.652,0.521-1.088,0.69C483.582,301.511,483.15,301.596,482.72,301.596z
		"/>
	<path fill="#040200" d="M489.65,301.596c-0.681,0-1.271-0.152-1.771-0.458c-0.5-0.305-0.888-0.74-1.162-1.305
		c-0.275-0.565-0.413-1.232-0.413-2.003c0-0.76,0.138-1.422,0.413-1.987c0.274-0.564,0.662-1.002,1.162-1.313
		c0.5-0.31,1.09-0.465,1.771-0.465c0.689,0,1.284,0.155,1.785,0.465c0.499,0.311,0.887,0.748,1.162,1.313
		c0.274,0.565,0.412,1.228,0.412,1.987c0,0.771-0.138,1.438-0.412,2.003c-0.275,0.564-0.663,1-1.162,1.305
		C490.934,301.443,490.339,301.596,489.65,301.596z M489.65,300.83c0.739,0,1.329-0.263,1.77-0.787
		c0.44-0.525,0.66-1.263,0.66-2.213c0-0.949-0.22-1.685-0.66-2.205c-0.44-0.52-1.03-0.779-1.77-0.779
		c-0.74,0-1.328,0.26-1.763,0.779c-0.436,0.521-0.652,1.256-0.652,2.205c0,0.95,0.217,1.688,0.652,2.213
		C488.321,300.567,488.909,300.83,489.65,300.83z"/>
	<path fill="#040200" d="M495.079,301.475V294.2h0.766l2.835,5.13l2.835-5.13h0.75v7.275h-0.811v-5.655l-2.535,4.485h-0.494
		l-2.521-4.485v5.655H495.079z"/>
	<path fill="#040200" d="M507.033,301.596c-0.49,0-0.928-0.096-1.313-0.285c-0.385-0.19-0.689-0.45-0.915-0.78
		c-0.225-0.33-0.337-0.7-0.337-1.11c0-0.54,0.135-0.962,0.404-1.267c0.271-0.306,0.726-0.522,1.365-0.653
		c0.64-0.13,1.521-0.194,2.641-0.194h0.465v-0.54c0-0.67-0.136-1.157-0.405-1.463c-0.271-0.305-0.7-0.457-1.29-0.457
		c-0.44,0-0.862,0.064-1.268,0.194c-0.405,0.131-0.822,0.336-1.252,0.615l-0.36-0.705c0.38-0.27,0.83-0.484,1.35-0.645
		c0.521-0.16,1.025-0.24,1.516-0.24c0.88,0,1.532,0.225,1.957,0.675s0.638,1.14,0.638,2.07v4.665h-0.87v-1.306
		c-0.2,0.45-0.503,0.801-0.907,1.051C508.046,301.471,507.573,301.596,507.033,301.596z M507.154,300.86
		c0.43,0,0.808-0.103,1.133-0.308c0.324-0.205,0.582-0.487,0.772-0.848c0.189-0.359,0.285-0.77,0.285-1.229v-0.495h-0.45
		c-0.9,0-1.603,0.04-2.107,0.12s-0.857,0.22-1.058,0.42s-0.3,0.475-0.3,0.825c0,0.449,0.154,0.814,0.465,1.095
		C506.203,300.721,506.623,300.86,507.154,300.86z"/>
	<path fill="#040200" d="M514.235,301.475v-6.51h-2.716V294.2h6.346v0.766h-2.715v6.51H514.235z"/>
	<path fill="#040200" d="M519.184,301.475V294.2h0.84v5.97l4.455-5.97h0.811v7.275h-0.84v-5.971l-4.471,5.971H519.184z"/>
	<path fill="#040200" d="M527.809,301.475V294.2h0.915v3.135h1.5l2.505-3.135h1.035l-2.609,3.285c0.279,0.09,0.529,0.25,0.75,0.48
		c0.22,0.229,0.479,0.59,0.779,1.079l1.471,2.431h-0.99l-1.351-2.235c-0.189-0.3-0.367-0.535-0.532-0.705s-0.35-0.287-0.555-0.353
		c-0.205-0.064-0.463-0.098-0.772-0.098h-1.23v3.391H527.809z"/>
	<path fill="#040200" d="M537.723,301.596c-0.49,0-0.928-0.096-1.313-0.285c-0.385-0.19-0.689-0.45-0.915-0.78
		c-0.225-0.33-0.337-0.7-0.337-1.11c0-0.54,0.135-0.962,0.404-1.267c0.271-0.306,0.726-0.522,1.365-0.653
		c0.64-0.13,1.521-0.194,2.641-0.194h0.465v-0.54c0-0.67-0.136-1.157-0.405-1.463c-0.271-0.305-0.7-0.457-1.29-0.457
		c-0.44,0-0.862,0.064-1.268,0.194c-0.405,0.131-0.822,0.336-1.252,0.615l-0.36-0.705c0.38-0.27,0.83-0.484,1.35-0.645
		c0.521-0.16,1.025-0.24,1.516-0.24c0.88,0,1.532,0.225,1.957,0.675s0.638,1.14,0.638,2.07v4.665h-0.87v-1.306
		c-0.2,0.45-0.503,0.801-0.907,1.051C538.736,301.471,538.263,301.596,537.723,301.596z M537.843,300.86
		c0.43,0,0.808-0.103,1.133-0.308c0.324-0.205,0.582-0.487,0.772-0.848c0.189-0.359,0.285-0.77,0.285-1.229v-0.495h-0.45
		c-0.9,0-1.603,0.04-2.107,0.12s-0.857,0.22-1.058,0.42s-0.3,0.475-0.3,0.825c0,0.449,0.154,0.814,0.465,1.095
		C536.893,300.721,537.313,300.86,537.843,300.86z"/>
	<path fill="#040200" d="M543.363,304.341l-0.689-0.256c0.949-2.21,1.425-4.395,1.425-6.555s-0.476-4.345-1.425-6.555l0.689-0.255
		c0.59,1.12,1.025,2.242,1.305,3.367c0.28,1.125,0.421,2.272,0.421,3.442c0,1.18-0.141,2.333-0.421,3.458
		C544.389,302.113,543.953,303.23,543.363,304.341z"/>
	<path fill="#040200" d="M330.487,319.475v-0.69l3.705-4.035c0.53-0.579,0.917-1.117,1.162-1.612s0.368-1.002,0.368-1.522
		c0-0.649-0.195-1.145-0.585-1.485c-0.39-0.34-0.96-0.51-1.71-0.51c-1.12,0-2.09,0.42-2.91,1.26l-0.39-0.75
		c0.38-0.399,0.868-0.725,1.463-0.975c0.595-0.25,1.222-0.375,1.882-0.375c1.02,0,1.808,0.242,2.362,0.728
		c0.555,0.485,0.833,1.173,0.833,2.063c0,0.63-0.157,1.253-0.472,1.867c-0.315,0.615-0.788,1.263-1.417,1.942l-3.09,3.285h5.415
		v0.811H330.487z"/>
	<path fill="#040200" d="M339.081,319.475v-1.29h1.275v1.29H339.081z"/>
	<path fill="#040200" d="M349.371,319.596c-0.72,0-1.388-0.118-2.003-0.353c-0.614-0.235-1.138-0.578-1.567-1.027l0.405-0.766
		c0.46,0.46,0.945,0.79,1.455,0.99s1.08,0.3,1.71,0.3c1.2,0,2.127-0.37,2.782-1.11c0.655-0.739,1.013-1.779,1.072-3.119h-5.534
		V313.7h5.52c-0.07-1.27-0.425-2.265-1.065-2.984c-0.64-0.721-1.515-1.08-2.625-1.08c-0.63,0-1.205,0.1-1.725,0.3
		s-1.05,0.53-1.59,0.99l-0.405-0.766c1.021-0.92,2.26-1.38,3.72-1.38c0.971,0,1.806,0.218,2.506,0.652
		c0.699,0.436,1.239,1.058,1.619,1.868c0.381,0.81,0.57,1.77,0.57,2.88c0,1.12-0.192,2.085-0.577,2.895
		c-0.386,0.811-0.938,1.433-1.657,1.867C351.26,319.378,350.39,319.596,349.371,319.596z"/>
	<path fill="#040200" d="M356.436,319.475V312.2h0.766l2.834,5.13l2.835-5.13h0.75v7.275h-0.811v-5.655l-2.535,4.485h-0.494
		l-2.52-4.485v5.655H356.436z"/>
	<path fill="#040200" d="M369.035,319.596c-0.681,0-1.271-0.152-1.771-0.458c-0.5-0.305-0.888-0.74-1.162-1.305
		c-0.275-0.565-0.413-1.232-0.413-2.003c0-0.76,0.138-1.422,0.413-1.987c0.274-0.564,0.662-1.002,1.162-1.313
		c0.5-0.31,1.09-0.465,1.771-0.465c0.689,0,1.284,0.155,1.785,0.465c0.499,0.311,0.887,0.748,1.162,1.313
		c0.274,0.565,0.412,1.228,0.412,1.987c0,0.771-0.138,1.438-0.412,2.003c-0.275,0.564-0.663,1-1.162,1.305
		C370.32,319.443,369.725,319.596,369.035,319.596z M369.035,318.83c0.739,0,1.329-0.263,1.77-0.787
		c0.44-0.525,0.66-1.263,0.66-2.213c0-0.949-0.22-1.685-0.66-2.205c-0.44-0.52-1.03-0.779-1.77-0.779
		c-0.74,0-1.328,0.26-1.763,0.779c-0.436,0.521-0.652,1.256-0.652,2.205c0,0.95,0.217,1.688,0.652,2.213
		C367.707,318.567,368.295,318.83,369.035,318.83z"/>
	<path fill="#040200" d="M380.72,321.426v-1.95h-6.255V312.2h0.915v6.525h4.11V312.2h0.915v6.525h1.125v2.7H380.72z"/>
	<path fill="#040200" d="M383.255,319.475V312.2h0.84v5.97l4.455-5.97h0.811v7.275h-0.84v-5.971l-4.471,5.971H383.255z"/>
	<path fill="#040200" d="M394.776,319.596c-0.681,0-1.271-0.152-1.771-0.458c-0.5-0.305-0.888-0.74-1.162-1.305
		c-0.275-0.565-0.413-1.232-0.413-2.003c0-0.76,0.138-1.422,0.413-1.987c0.274-0.564,0.662-1.002,1.162-1.313
		c0.5-0.31,1.09-0.465,1.771-0.465c0.689,0,1.284,0.155,1.785,0.465c0.499,0.311,0.887,0.748,1.162,1.313
		c0.274,0.565,0.412,1.228,0.412,1.987c0,0.771-0.138,1.438-0.412,2.003c-0.275,0.564-0.663,1-1.162,1.305
		C396.06,319.443,395.465,319.596,394.776,319.596z M394.776,318.83c0.739,0,1.329-0.263,1.77-0.787
		c0.44-0.525,0.66-1.263,0.66-2.213c0-0.949-0.22-1.685-0.66-2.205c-0.44-0.52-1.03-0.779-1.77-0.779
		c-0.74,0-1.328,0.26-1.763,0.779c-0.436,0.521-0.652,1.256-0.652,2.205c0,0.95,0.217,1.688,0.652,2.213
		C393.447,318.567,394.035,318.83,394.776,318.83z"/>
	<path fill="#040200" d="M400.205,319.475V312.2h0.915v3.135h4.306V312.2h0.914v7.275h-0.914V316.1h-4.306v3.375H400.205z"/>
	<path fill="#040200" d="M411.11,319.596c-0.49,0-0.928-0.096-1.313-0.285c-0.385-0.19-0.689-0.45-0.915-0.78
		c-0.225-0.33-0.337-0.7-0.337-1.11c0-0.54,0.135-0.962,0.404-1.267c0.271-0.306,0.726-0.522,1.365-0.653
		c0.64-0.13,1.521-0.194,2.641-0.194h0.465v-0.54c0-0.67-0.136-1.157-0.405-1.463c-0.271-0.305-0.7-0.457-1.29-0.457
		c-0.44,0-0.862,0.064-1.268,0.194c-0.405,0.131-0.822,0.336-1.252,0.615l-0.36-0.705c0.38-0.27,0.83-0.484,1.35-0.645
		c0.521-0.16,1.025-0.24,1.516-0.24c0.88,0,1.532,0.225,1.957,0.675s0.638,1.14,0.638,2.07v4.665h-0.87v-1.306
		c-0.2,0.45-0.503,0.801-0.907,1.051C412.122,319.471,411.65,319.596,411.11,319.596z M411.23,318.86
		c0.43,0,0.808-0.103,1.133-0.308c0.324-0.205,0.582-0.487,0.772-0.848c0.189-0.359,0.285-0.77,0.285-1.229v-0.495h-0.45
		c-0.9,0-1.603,0.04-2.107,0.12s-0.857,0.22-1.058,0.42s-0.3,0.475-0.3,0.825c0,0.449,0.154,0.814,0.465,1.095
		C410.279,318.721,410.699,318.86,411.23,318.86z"/>
	<path fill="#040200" d="M416.284,319.625l-0.39-0.72c0.47-0.22,0.837-0.515,1.103-0.885c0.265-0.37,0.449-0.883,0.555-1.538
		c0.104-0.654,0.157-1.522,0.157-2.603v-1.68h5.025v7.275h-0.915v-6.525h-3.24v0.96c0,1.181-0.072,2.147-0.218,2.902
		c-0.145,0.756-0.385,1.353-0.72,1.793S416.855,319.386,416.284,319.625z"/>
	<path fill="#040200" d="M425.254,319.475V312.2h0.915v2.686h2.325c0.91,0,1.603,0.197,2.077,0.592
		c0.476,0.396,0.713,0.958,0.713,1.688c0,0.721-0.24,1.285-0.72,1.695c-0.48,0.41-1.17,0.615-2.07,0.615H425.254z M426.169,318.77
		h2.295c0.601,0,1.067-0.13,1.402-0.391c0.335-0.26,0.503-0.659,0.503-1.199c0-0.55-0.168-0.955-0.503-1.215
		c-0.335-0.261-0.802-0.391-1.402-0.391h-2.295V318.77z"/>
	<path fill="#040200" d="M433.204,319.475V312.2h0.915v3.135h4.306V312.2h0.914v7.275h-0.914V316.1h-4.306v3.375H433.204z"/>
	<path fill="#040200" d="M444.755,319.596c-0.681,0-1.271-0.152-1.771-0.458c-0.5-0.305-0.888-0.74-1.162-1.305
		c-0.275-0.565-0.413-1.232-0.413-2.003c0-0.76,0.138-1.422,0.413-1.987c0.274-0.564,0.662-1.002,1.162-1.313
		c0.5-0.31,1.09-0.465,1.771-0.465c0.689,0,1.284,0.155,1.785,0.465c0.499,0.311,0.887,0.748,1.162,1.313
		c0.274,0.565,0.412,1.228,0.412,1.987c0,0.771-0.138,1.438-0.412,2.003c-0.275,0.564-0.663,1-1.162,1.305
		C446.039,319.443,445.445,319.596,444.755,319.596z M444.755,318.83c0.739,0,1.329-0.263,1.77-0.787
		c0.44-0.525,0.66-1.263,0.66-2.213c0-0.949-0.22-1.685-0.66-2.205c-0.44-0.52-1.03-0.779-1.77-0.779
		c-0.74,0-1.328,0.26-1.763,0.779c-0.436,0.521-0.652,1.256-0.652,2.205c0,0.95,0.217,1.688,0.652,2.213
		C443.427,318.567,444.015,318.83,444.755,318.83z"/>
	<path fill="#040200" d="M453.35,319.596c-1.12,0-2.002-0.333-2.647-0.998c-0.645-0.665-0.968-1.577-0.968-2.737
		c0-0.75,0.146-1.41,0.436-1.98c0.29-0.569,0.692-1.015,1.207-1.335c0.516-0.319,1.107-0.479,1.778-0.479
		c0.97,0,1.725,0.314,2.265,0.945c0.54,0.63,0.81,1.495,0.81,2.595v0.42h-5.595c0.03,0.9,0.277,1.593,0.742,2.077
		c0.466,0.485,1.112,0.728,1.942,0.728c0.45,0,0.873-0.069,1.268-0.21c0.396-0.14,0.783-0.375,1.163-0.705l0.359,0.69
		c-0.319,0.31-0.729,0.553-1.229,0.728S453.87,319.596,453.35,319.596z M453.17,312.801c-0.76,0-1.353,0.237-1.777,0.712
		c-0.426,0.476-0.673,1.088-0.743,1.838h4.756c-0.021-0.8-0.221-1.425-0.601-1.875S453.88,312.801,453.17,312.801z"/>
	<path fill="#040200" d="M464.945,319.596c-0.711,0-1.32-0.158-1.83-0.473c-0.511-0.315-0.903-0.76-1.178-1.335
		c-0.275-0.575-0.413-1.242-0.413-2.003c0-1.149,0.303-2.058,0.908-2.723c0.604-0.665,1.442-0.997,2.513-0.997
		c0.439,0,0.874,0.085,1.305,0.255c0.43,0.17,0.79,0.405,1.08,0.705l-0.36,0.69c-0.31-0.301-0.64-0.518-0.99-0.653
		c-0.35-0.135-0.685-0.202-1.005-0.202c-0.81,0-1.433,0.255-1.867,0.765c-0.436,0.511-0.652,1.235-0.652,2.176
		c0,0.939,0.217,1.677,0.652,2.212c0.435,0.535,1.058,0.803,1.867,0.803c0.32,0,0.655-0.067,1.005-0.202
		c0.351-0.136,0.681-0.353,0.99-0.653l0.36,0.69c-0.29,0.29-0.652,0.521-1.088,0.69
		C465.807,319.511,465.374,319.596,464.945,319.596z"/>
	<path fill="#040200" d="M471.874,319.596c-0.681,0-1.271-0.152-1.771-0.458c-0.5-0.305-0.888-0.74-1.162-1.305
		c-0.275-0.565-0.413-1.232-0.413-2.003c0-0.76,0.138-1.422,0.413-1.987c0.274-0.564,0.662-1.002,1.162-1.313
		c0.5-0.31,1.09-0.465,1.771-0.465c0.689,0,1.284,0.155,1.785,0.465c0.499,0.311,0.887,0.748,1.162,1.313
		c0.274,0.565,0.412,1.228,0.412,1.987c0,0.771-0.138,1.438-0.412,2.003c-0.275,0.564-0.663,1-1.162,1.305
		C473.158,319.443,472.564,319.596,471.874,319.596z M471.874,318.83c0.739,0,1.329-0.263,1.77-0.787
		c0.44-0.525,0.66-1.263,0.66-2.213c0-0.949-0.22-1.685-0.66-2.205c-0.44-0.52-1.03-0.779-1.77-0.779
		c-0.74,0-1.328,0.26-1.763,0.779c-0.436,0.521-0.652,1.256-0.652,2.205c0,0.95,0.217,1.688,0.652,2.213
		C470.546,318.567,471.134,318.83,471.874,318.83z"/>
	<path fill="#040200" d="M480.275,319.596c-0.711,0-1.32-0.158-1.83-0.473c-0.511-0.315-0.903-0.76-1.178-1.335
		c-0.275-0.575-0.413-1.242-0.413-2.003c0-1.149,0.303-2.058,0.908-2.723c0.604-0.665,1.442-0.997,2.513-0.997
		c0.439,0,0.874,0.085,1.305,0.255c0.43,0.17,0.79,0.405,1.08,0.705l-0.36,0.69c-0.31-0.301-0.64-0.518-0.99-0.653
		c-0.35-0.135-0.685-0.202-1.005-0.202c-0.81,0-1.433,0.255-1.867,0.765c-0.436,0.511-0.652,1.235-0.652,2.176
		c0,0.939,0.217,1.677,0.652,2.212c0.435,0.535,1.058,0.803,1.867,0.803c0.32,0,0.655-0.067,1.005-0.202
		c0.351-0.136,0.681-0.353,0.99-0.653l0.36,0.69c-0.29,0.29-0.652,0.521-1.088,0.69
		C481.137,319.511,480.704,319.596,480.275,319.596z"/>
	<path fill="#040200" d="M485.824,319.475v-6.51h-2.716V312.2h6.346v0.766h-2.715v6.51H485.824z"/>
	<path fill="#040200" d="M493.669,319.596c-0.681,0-1.271-0.152-1.771-0.458c-0.5-0.305-0.888-0.74-1.162-1.305
		c-0.275-0.565-0.413-1.232-0.413-2.003c0-0.76,0.138-1.422,0.413-1.987c0.274-0.564,0.662-1.002,1.162-1.313
		c0.5-0.31,1.09-0.465,1.771-0.465c0.689,0,1.284,0.155,1.785,0.465c0.499,0.311,0.887,0.748,1.162,1.313
		c0.274,0.565,0.412,1.228,0.412,1.987c0,0.771-0.138,1.438-0.412,2.003c-0.275,0.564-0.663,1-1.162,1.305
		C494.953,319.443,494.359,319.596,493.669,319.596z M493.669,318.83c0.739,0,1.329-0.263,1.77-0.787
		c0.44-0.525,0.66-1.263,0.66-2.213c0-0.949-0.22-1.685-0.66-2.205c-0.44-0.52-1.03-0.779-1.77-0.779
		c-0.74,0-1.328,0.26-1.763,0.779c-0.436,0.521-0.652,1.256-0.652,2.205c0,0.95,0.217,1.688,0.652,2.213
		C492.341,318.567,492.929,318.83,493.669,318.83z"/>
	<path fill="#040200" d="M498.514,319.475l1.141-1.98c0.31-0.529,0.699-0.88,1.17-1.05c-0.63-0.08-1.12-0.303-1.471-0.667
		c-0.35-0.365-0.524-0.843-0.524-1.433c0-0.641,0.215-1.157,0.645-1.553s1.08-0.593,1.95-0.593h3.09v7.275h-0.885v-2.896h-1.185
		c-0.45,0-0.825,0.11-1.125,0.33c-0.301,0.221-0.546,0.49-0.735,0.811l-1.005,1.755H498.514z M501.589,315.875h2.04v-2.984h-2.04
		c-0.64,0-1.11,0.133-1.41,0.397s-0.45,0.627-0.45,1.087c0,0.471,0.15,0.838,0.45,1.103
		C500.479,315.743,500.949,315.875,501.589,315.875z"/>
	<path fill="#040200" d="M507.033,319.475V312.2h0.915v3.135h4.306V312.2h0.914v7.275h-0.914V316.1h-4.306v3.375H507.033z"/>
	<path fill="#040200" d="M515.689,319.475V312.2h0.84v5.97l4.455-5.97h0.811v7.275h-0.84v-5.971l-4.471,5.971H515.689z"/>
	<path fill="#040200" d="M527.479,319.596c-1.12,0-2.002-0.333-2.647-0.998c-0.645-0.665-0.968-1.577-0.968-2.737
		c0-0.75,0.146-1.41,0.436-1.98c0.29-0.569,0.692-1.015,1.207-1.335c0.516-0.319,1.107-0.479,1.778-0.479
		c0.97,0,1.725,0.314,2.265,0.945c0.54,0.63,0.81,1.495,0.81,2.595v0.42h-5.595c0.03,0.9,0.277,1.593,0.742,2.077
		c0.466,0.485,1.112,0.728,1.942,0.728c0.45,0,0.873-0.069,1.268-0.21c0.396-0.14,0.783-0.375,1.163-0.705l0.359,0.69
		c-0.319,0.31-0.729,0.553-1.229,0.728S527.999,319.596,527.479,319.596z M527.299,312.801c-0.76,0-1.353,0.237-1.777,0.712
		c-0.426,0.476-0.673,1.088-0.743,1.838h4.756c-0.021-0.8-0.221-1.425-0.601-1.875S528.009,312.801,527.299,312.801z"/>
</g>
</svg>
