<?xml version="1.0" encoding="utf-8"?>
<!-- Generator: Adobe Illustrator 17.0.0, SVG Export Plug-In . SVG Version: 6.00 Build 0)  -->
<!DOCTYPE svg PUBLIC "-//W3C//DTD SVG 1.1//EN" "http://www.w3.org/Graphics/SVG/1.1/DTD/svg11.dtd">
<svg version="1.1" id="Layer_1" xmlns="http://www.w3.org/2000/svg" xmlns:xlink="http://www.w3.org/1999/xlink" x="0px" y="0px"
	 width="714.432px" height="319.031px" viewBox="83 17.635 714.432 319.031" enable-background="new 83 17.635 714.432 319.031"
	 xml:space="preserve">
<rect x="268.71" y="251.667" fill="#587F6B" width="338.038" height="85"/>
<rect x="83" y="17.635" fill="#587F6B" width="714.432" height="42.678"/>
<line fill="none" stroke="#292724" stroke-width="3" stroke-miterlimit="10" x1="252.052" y1="132.331" x2="230.508" y2="132.331"/>
<polygon fill="#292724" stroke="#292724" stroke-miterlimit="10" points="252.052,125.731 262.654,132.579 252.052,138.935 "/>
<line fill="none" stroke="#292724" stroke-width="3" stroke-miterlimit="10" x1="252.052" y1="179.729" x2="230.508" y2="179.729"/>
<polygon fill="#292724" stroke="#292724" stroke-miterlimit="10" points="252.052,173.129 262.654,179.977 252.052,186.333 "/>
<g>
	<path fill="#FFFDFA" d="M387.219,43.032V32.457h1.306l3.915,7.306l3.899-7.306h1.275v10.575h-1.396v-7.755l-3.314,6.135h-0.945
		l-3.33-6.104v7.725H387.219z"/>
	<path fill="#FFFDFA" d="M403.464,43.167c-1.2,0-2.145-0.337-2.835-1.013c-0.689-0.675-1.035-1.597-1.035-2.767
		c0-0.75,0.152-1.413,0.458-1.988c0.305-0.574,0.728-1.022,1.268-1.342c0.54-0.32,1.159-0.48,1.859-0.48
		c1.01,0,1.806,0.322,2.386,0.968c0.579,0.645,0.869,1.532,0.869,2.662v0.51h-5.369c0.109,1.521,0.915,2.28,2.415,2.28
		c0.42,0,0.832-0.064,1.237-0.195c0.404-0.129,0.787-0.345,1.147-0.645l0.45,1.05c-0.33,0.3-0.756,0.535-1.275,0.705
		C404.519,43.082,403.994,43.167,403.464,43.167z M403.239,36.642c-0.63,0-1.131,0.194-1.5,0.585c-0.37,0.39-0.596,0.91-0.675,1.56
		h4.095c-0.03-0.68-0.21-1.207-0.54-1.582S403.829,36.642,403.239,36.642z"/>
	<path fill="#FFFDFA" d="M409.764,43.032v-6.105h-2.58v-1.215h6.69v1.215h-2.596v6.105H409.764z"/>
	<path fill="#FFFDFA" d="M417.443,43.167c-0.51,0-0.965-0.1-1.365-0.3s-0.718-0.47-0.952-0.81c-0.235-0.34-0.353-0.726-0.353-1.155
		c0-0.54,0.137-0.965,0.412-1.275c0.275-0.31,0.73-0.534,1.365-0.675c0.635-0.14,1.492-0.21,2.572-0.21h0.51v-0.39
		c0-0.57-0.119-0.98-0.359-1.23s-0.636-0.375-1.186-0.375c-0.42,0-0.84,0.063-1.26,0.188s-0.85,0.322-1.29,0.593l-0.465-1.065
		c0.38-0.27,0.855-0.484,1.425-0.645c0.57-0.16,1.115-0.24,1.635-0.24c1,0,1.74,0.237,2.221,0.713
		c0.479,0.475,0.72,1.217,0.72,2.228v4.515h-1.425v-1.215c-0.181,0.42-0.46,0.75-0.84,0.99
		C418.428,43.046,417.974,43.167,417.443,43.167z M417.743,42.086c0.54,0,0.99-0.189,1.35-0.569c0.36-0.38,0.54-0.86,0.54-1.44
		v-0.405h-0.494c-0.73,0-1.303,0.035-1.718,0.105s-0.71,0.188-0.885,0.353c-0.176,0.165-0.263,0.393-0.263,0.683
		c0,0.38,0.13,0.688,0.39,0.922C416.923,41.969,417.283,42.086,417.743,42.086z"/>
	<path fill="#FFFDFA" d="M424.089,45.732l1.305-2.896l-3.06-7.125h1.619l2.25,5.565l2.28-5.565h1.561l-4.365,10.021H424.089z"/>
	<path fill="#FFFDFA" d="M434.528,43.167c-1.13,0-2.022-0.354-2.678-1.064c-0.654-0.71-0.982-1.755-0.982-3.136v-1.109
		c0-1.46,0.311-2.572,0.931-3.338c0.619-0.765,1.545-1.308,2.774-1.627l2.58-0.676l0.48,1.216l-2.955,0.75
		c-0.78,0.2-1.37,0.564-1.771,1.095c-0.399,0.53-0.6,1.185-0.6,1.965v0.06c0.229-0.479,0.567-0.859,1.013-1.14
		c0.444-0.279,0.977-0.42,1.597-0.42s1.168,0.147,1.643,0.442c0.476,0.295,0.848,0.718,1.118,1.268c0.27,0.55,0.404,1.2,0.404,1.95
		c0,0.771-0.147,1.438-0.442,2.002c-0.295,0.565-0.71,1.001-1.245,1.306C435.861,43.014,435.238,43.167,434.528,43.167z
		 M434.469,41.997c0.66,0,1.172-0.218,1.537-0.652s0.548-1.063,0.548-1.883c0-0.81-0.186-1.438-0.556-1.882
		c-0.37-0.445-0.88-0.668-1.529-0.668c-0.641,0-1.146,0.218-1.516,0.652c-0.37,0.436-0.555,1.033-0.555,1.793
		c0,0.87,0.183,1.527,0.548,1.973C433.311,41.774,433.818,41.997,434.469,41.997z"/>
	<path fill="#FFFDFA" d="M443.393,43.167c-1.2,0-2.145-0.337-2.835-1.013c-0.689-0.675-1.035-1.597-1.035-2.767
		c0-0.75,0.152-1.413,0.458-1.988c0.305-0.574,0.728-1.022,1.268-1.342c0.54-0.32,1.159-0.48,1.859-0.48
		c1.01,0,1.806,0.322,2.386,0.968c0.579,0.645,0.869,1.532,0.869,2.662v0.51h-5.369c0.109,1.521,0.915,2.28,2.415,2.28
		c0.42,0,0.832-0.064,1.237-0.195c0.404-0.129,0.787-0.345,1.147-0.645l0.45,1.05c-0.33,0.3-0.756,0.535-1.275,0.705
		C444.447,43.082,443.923,43.167,443.393,43.167z M443.168,36.642c-0.63,0-1.131,0.194-1.5,0.585c-0.37,0.39-0.596,0.91-0.675,1.56
		h4.095c-0.03-0.68-0.21-1.207-0.54-1.582S443.758,36.642,443.168,36.642z"/>
	<path fill="#FFFDFA" d="M446.993,43.032l1.516-2.61c0.229-0.399,0.447-0.712,0.652-0.938c0.205-0.225,0.433-0.387,0.683-0.487
		l-2.505-3.285h1.649l2.266,2.971h1.05v-2.971h1.515v2.971h1.035l2.265-2.971h1.636l-2.49,3.285c0.25,0.101,0.478,0.266,0.683,0.495
		c0.204,0.23,0.422,0.54,0.652,0.93l1.515,2.61h-1.62l-1.274-2.19c-0.23-0.39-0.453-0.649-0.668-0.779s-0.508-0.195-0.877-0.195
		h-0.855v3.165h-1.515v-3.165h-0.856c-0.38,0-0.678,0.065-0.893,0.195s-0.438,0.39-0.667,0.779l-1.275,2.19H446.993z"/>
	<path fill="#FFFDFA" d="M459.459,44.982v-3.15h0.811c0.319-0.479,0.55-1.037,0.689-1.672c0.141-0.636,0.21-1.408,0.21-2.318v-2.13
		h5.415v6.12h1.17v3.15h-1.29v-1.95h-5.699v1.95H459.459z M461.679,41.832h3.465v-4.935h-2.655v1.26c0,0.69-0.07,1.36-0.21,2.01
		C462.139,40.817,461.939,41.372,461.679,41.832z"/>
	<path fill="#FFFDFA" d="M472.718,43.167c-1.2,0-2.145-0.337-2.835-1.013c-0.689-0.675-1.035-1.597-1.035-2.767
		c0-0.75,0.152-1.413,0.458-1.988c0.305-0.574,0.728-1.022,1.268-1.342c0.54-0.32,1.159-0.48,1.859-0.48
		c1.01,0,1.806,0.322,2.386,0.968c0.579,0.645,0.869,1.532,0.869,2.662v0.51h-5.369c0.109,1.521,0.915,2.28,2.415,2.28
		c0.42,0,0.832-0.064,1.237-0.195c0.404-0.129,0.787-0.345,1.147-0.645l0.45,1.05c-0.33,0.3-0.756,0.535-1.275,0.705
		C473.773,43.082,473.249,43.167,472.718,43.167z M472.494,36.642c-0.63,0-1.131,0.194-1.5,0.585c-0.37,0.39-0.596,0.91-0.675,1.56
		h4.095c-0.03-0.68-0.21-1.207-0.54-1.582S473.084,36.642,472.494,36.642z"/>
	<path fill="#FFFDFA" d="M477.488,43.032v-7.32h1.516v2.955h3.645v-2.955h1.516v7.32h-1.516v-3.165h-3.645v3.165H477.488z"/>
	<path fill="#FFFDFA" d="M486.427,43.032v-7.32h1.38v5.311l3.961-5.311h1.274v7.32h-1.38v-5.295l-3.96,5.295H486.427z"/>
	<path fill="#FFFDFA" d="M494.709,43.032l1.109-1.92c0.29-0.52,0.67-0.865,1.141-1.035c-0.62-0.1-1.096-0.332-1.426-0.697
		s-0.494-0.843-0.494-1.433c0-0.68,0.229-1.223,0.689-1.628c0.46-0.404,1.145-0.607,2.055-0.607h3.495v7.32h-1.41v-2.67h-0.944
		c-0.351,0-0.65,0.093-0.9,0.277c-0.25,0.186-0.455,0.412-0.615,0.683l-0.975,1.71H494.709z M498.098,39.327h1.77v-2.58h-1.77
		c-0.55,0-0.955,0.112-1.215,0.338c-0.261,0.225-0.391,0.537-0.391,0.938c0,0.41,0.13,0.729,0.391,0.96
		C497.143,39.211,497.548,39.327,498.098,39.327z"/>
</g>
<g>
	<rect x="268.71" y="101.837" fill="#587F6B" width="146.393" height="110.136"/>
	<g>
		<path fill="#FFFDFA" d="M303.064,152.251v-10.575h8.939v10.575h-1.545v-9.27h-5.835v9.27H303.064z"/>
		<path fill="#FFFDFA" d="M317.838,152.386c-1.2,0-2.145-0.337-2.835-1.013c-0.689-0.675-1.035-1.597-1.035-2.767
			c0-0.75,0.152-1.413,0.458-1.988c0.305-0.574,0.728-1.022,1.268-1.342c0.54-0.32,1.159-0.48,1.859-0.48
			c1.01,0,1.806,0.322,2.386,0.968c0.579,0.645,0.869,1.532,0.869,2.662v0.51h-5.369c0.109,1.521,0.915,2.28,2.415,2.28
			c0.42,0,0.832-0.064,1.237-0.195c0.404-0.129,0.787-0.345,1.147-0.645l0.45,1.05c-0.33,0.3-0.756,0.535-1.275,0.705
			C318.893,152.301,318.369,152.386,317.838,152.386z M317.614,145.861c-0.63,0-1.131,0.194-1.5,0.585
			c-0.37,0.39-0.596,0.91-0.675,1.56h4.095c-0.03-0.68-0.21-1.207-0.54-1.582S318.204,145.861,317.614,145.861z"/>
		<path fill="#FFFDFA" d="M322.624,154.951v-10.021h1.484v1.245c0.21-0.42,0.53-0.755,0.96-1.005
			c0.431-0.25,0.925-0.375,1.485-0.375c0.65,0,1.218,0.155,1.702,0.465c0.485,0.311,0.86,0.748,1.125,1.313
			c0.266,0.565,0.397,1.237,0.397,2.018s-0.132,1.455-0.397,2.025c-0.265,0.569-0.64,1.008-1.125,1.313
			c-0.484,0.305-1.052,0.457-1.702,0.457c-0.54,0-1.022-0.117-1.447-0.353c-0.426-0.234-0.748-0.557-0.968-0.967v3.885H322.624z
			 M326.178,151.216c0.63,0,1.133-0.225,1.508-0.675s0.563-1.1,0.563-1.95c0-0.85-0.188-1.497-0.563-1.942
			c-0.375-0.444-0.878-0.667-1.508-0.667s-1.133,0.223-1.508,0.667c-0.375,0.445-0.563,1.093-0.563,1.942
			c0,0.851,0.188,1.5,0.563,1.95S325.548,151.216,326.178,151.216z"/>
		<path fill="#FFFDFA" d="M331.637,152.251v-7.32h3.735c0.9,0,1.558,0.168,1.973,0.503s0.622,0.808,0.622,1.417
			c0,0.381-0.107,0.713-0.322,0.998s-0.508,0.492-0.878,0.622c0.46,0.11,0.815,0.32,1.065,0.63c0.25,0.311,0.375,0.681,0.375,1.11
			c0,0.63-0.235,1.128-0.705,1.492c-0.47,0.365-1.14,0.548-2.01,0.548H331.637z M333.063,148.036h2.204
			c0.41,0,0.728-0.095,0.953-0.285c0.225-0.189,0.337-0.45,0.337-0.78c0-0.34-0.112-0.6-0.337-0.779
			c-0.226-0.181-0.543-0.271-0.953-0.271h-2.204V148.036z M333.063,151.276h2.34c0.939,0,1.41-0.38,1.41-1.141
			c0-0.75-0.471-1.125-1.41-1.125h-2.34V151.276z"/>
		<path fill="#FFFDFA" d="M339.978,152.251v-7.32h1.38v5.311l3.961-5.311h1.274v7.32h-1.38v-5.295l-3.96,5.295H339.978z"/>
		<path fill="#FFFDFA" d="M353.523,152.251v-2.82c-0.54,0.311-1.15,0.465-1.83,0.465c-1.06,0-1.845-0.255-2.354-0.765
			c-0.511-0.51-0.766-1.285-0.766-2.325v-1.875h1.516v1.755c0,0.69,0.142,1.19,0.427,1.5c0.285,0.311,0.758,0.466,1.418,0.466
			c0.319,0,0.604-0.035,0.854-0.105c0.25-0.069,0.49-0.189,0.721-0.36v-3.255h1.515v7.32H353.523z"/>
		<path fill="#FFFDFA" d="M357.302,152.251v-7.32h1.516v2.955h3.645v-2.955h1.516v7.32h-1.516v-3.165h-3.645v3.165H357.302z"/>
		<path fill="#FFFDFA" d="M369.438,152.386c-0.74,0-1.38-0.154-1.92-0.465c-0.54-0.31-0.958-0.747-1.253-1.313
			c-0.295-0.564-0.442-1.237-0.442-2.018s0.147-1.452,0.442-2.018c0.295-0.564,0.713-1.002,1.253-1.313
			c0.54-0.31,1.18-0.465,1.92-0.465c0.72,0,1.35,0.155,1.89,0.465c0.54,0.311,0.96,0.748,1.261,1.313
			c0.3,0.565,0.449,1.237,0.449,2.018s-0.149,1.453-0.449,2.018c-0.301,0.565-0.721,1.003-1.261,1.313
			C370.788,152.231,370.158,152.386,369.438,152.386z M369.438,151.216c0.62,0,1.12-0.225,1.5-0.675s0.57-1.1,0.57-1.95
			c0-0.85-0.19-1.497-0.57-1.942c-0.38-0.444-0.88-0.667-1.5-0.667c-0.63,0-1.135,0.223-1.515,0.667
			c-0.381,0.445-0.57,1.093-0.57,1.942c0,0.851,0.189,1.5,0.57,1.95C368.303,150.991,368.808,151.216,369.438,151.216z"/>
		<path fill="#FFFDFA" d="M378.347,152.386c-1.2,0-2.145-0.337-2.835-1.013c-0.689-0.675-1.035-1.597-1.035-2.767
			c0-0.75,0.152-1.413,0.458-1.988c0.305-0.574,0.728-1.022,1.268-1.342c0.54-0.32,1.159-0.48,1.859-0.48
			c1.01,0,1.806,0.322,2.386,0.968c0.579,0.645,0.869,1.532,0.869,2.662v0.51h-5.369c0.109,1.521,0.915,2.28,2.415,2.28
			c0.42,0,0.832-0.064,1.237-0.195c0.404-0.129,0.787-0.345,1.147-0.645l0.45,1.05c-0.33,0.3-0.756,0.535-1.275,0.705
			C379.402,152.301,378.877,152.386,378.347,152.386z M378.123,145.861c-0.63,0-1.131,0.194-1.5,0.585
			c-0.37,0.39-0.596,0.91-0.675,1.56h4.095c-0.03-0.68-0.21-1.207-0.54-1.582S378.712,145.861,378.123,145.861z"/>
		<path fill="#FFFDFA" d="M297.131,170.386c-1.13,0-2.022-0.354-2.678-1.064c-0.654-0.71-0.982-1.755-0.982-3.136v-1.109
			c0-1.46,0.311-2.572,0.931-3.338c0.619-0.765,1.545-1.308,2.774-1.627l2.58-0.676l0.48,1.216l-2.955,0.75
			c-0.78,0.2-1.37,0.564-1.771,1.095c-0.399,0.53-0.6,1.185-0.6,1.965v0.06c0.229-0.479,0.567-0.859,1.013-1.14
			c0.444-0.279,0.977-0.42,1.597-0.42s1.168,0.147,1.643,0.442c0.476,0.295,0.848,0.718,1.118,1.268c0.27,0.55,0.404,1.2,0.404,1.95
			c0,0.771-0.147,1.438-0.442,2.002c-0.295,0.565-0.71,1.001-1.245,1.306C298.464,170.233,297.841,170.386,297.131,170.386z
			 M297.072,169.216c0.66,0,1.172-0.218,1.537-0.652s0.548-1.063,0.548-1.883c0-0.81-0.186-1.438-0.556-1.882
			c-0.37-0.445-0.88-0.668-1.529-0.668c-0.641,0-1.146,0.218-1.516,0.652c-0.37,0.436-0.555,1.033-0.555,1.793
			c0,0.87,0.183,1.527,0.548,1.973C295.914,168.993,296.421,169.216,297.072,169.216z"/>
		<path fill="#FFFDFA" d="M305.997,170.386c-1.2,0-2.145-0.337-2.835-1.013c-0.689-0.675-1.035-1.597-1.035-2.767
			c0-0.75,0.152-1.413,0.458-1.988c0.305-0.574,0.728-1.022,1.268-1.342c0.54-0.32,1.159-0.48,1.859-0.48
			c1.01,0,1.806,0.322,2.386,0.968c0.579,0.645,0.869,1.532,0.869,2.662v0.51h-5.369c0.109,1.521,0.915,2.28,2.415,2.28
			c0.42,0,0.832-0.064,1.237-0.195c0.404-0.129,0.787-0.345,1.147-0.645l0.45,1.05c-0.33,0.3-0.756,0.535-1.275,0.705
			C307.051,170.301,306.527,170.386,305.997,170.386z M305.772,163.861c-0.63,0-1.131,0.194-1.5,0.585
			c-0.37,0.39-0.596,0.91-0.675,1.56h4.095c-0.03-0.68-0.21-1.207-0.54-1.582S306.362,163.861,305.772,163.861z"/>
		<path fill="#FFFDFA" d="M314.006,170.386c-0.75,0-1.397-0.157-1.942-0.473c-0.545-0.314-0.968-0.76-1.268-1.335
			c-0.3-0.574-0.45-1.252-0.45-2.032c0-1.16,0.33-2.075,0.99-2.745s1.55-1.005,2.67-1.005c0.46,0,0.915,0.08,1.365,0.24
			s0.819,0.38,1.11,0.66l-0.48,1.064c-0.28-0.26-0.588-0.452-0.923-0.577s-0.652-0.188-0.952-0.188c-0.71,0-1.258,0.223-1.643,0.667
			c-0.385,0.445-0.577,1.078-0.577,1.897c0,0.82,0.192,1.463,0.577,1.928s0.933,0.697,1.643,0.697c0.3,0,0.617-0.062,0.952-0.188
			c0.335-0.124,0.643-0.317,0.923-0.577l0.48,1.08c-0.291,0.27-0.663,0.485-1.118,0.645
			C314.909,170.306,314.457,170.386,314.006,170.386z"/>
		<path fill="#FFFDFA" d="M317.951,170.251v-7.32h6.63v7.32h-1.515v-6.105h-3.6v6.105H317.951z"/>
		<path fill="#FFFDFA" d="M330.041,170.386c-0.74,0-1.38-0.154-1.92-0.465c-0.54-0.31-0.958-0.747-1.253-1.313
			c-0.295-0.564-0.442-1.237-0.442-2.018s0.147-1.452,0.442-2.018c0.295-0.564,0.713-1.002,1.253-1.313
			c0.54-0.31,1.18-0.465,1.92-0.465c0.72,0,1.35,0.155,1.89,0.465c0.54,0.311,0.96,0.748,1.261,1.313
			c0.3,0.565,0.449,1.237,0.449,2.018s-0.149,1.453-0.449,2.018c-0.301,0.565-0.721,1.003-1.261,1.313
			C331.39,170.231,330.76,170.386,330.041,170.386z M330.041,169.216c0.62,0,1.12-0.225,1.5-0.675s0.57-1.1,0.57-1.95
			c0-0.85-0.19-1.497-0.57-1.942c-0.38-0.444-0.88-0.667-1.5-0.667c-0.63,0-1.135,0.223-1.515,0.667
			c-0.381,0.445-0.57,1.093-0.57,1.942c0,0.851,0.189,1.5,0.57,1.95C328.906,168.991,329.411,169.216,330.041,169.216z"/>
		<path fill="#FFFDFA" d="M335.5,170.251v-7.32h1.516v2.971h1.229l2.266-2.971h1.649l-2.475,3.285
			c0.24,0.11,0.462,0.277,0.667,0.503c0.205,0.225,0.418,0.532,0.638,0.922l1.515,2.61h-1.619l-1.275-2.19
			c-0.23-0.39-0.452-0.649-0.668-0.779c-0.215-0.13-0.512-0.195-0.892-0.195h-1.035v3.165H335.5z"/>
		<path fill="#FFFDFA" d="M346.811,170.386c-0.74,0-1.38-0.154-1.92-0.465c-0.54-0.31-0.958-0.747-1.253-1.313
			c-0.295-0.564-0.442-1.237-0.442-2.018s0.147-1.452,0.442-2.018c0.295-0.564,0.713-1.002,1.253-1.313
			c0.54-0.31,1.18-0.465,1.92-0.465c0.72,0,1.35,0.155,1.89,0.465c0.54,0.311,0.96,0.748,1.261,1.313
			c0.3,0.565,0.449,1.237,0.449,2.018s-0.149,1.453-0.449,2.018c-0.301,0.565-0.721,1.003-1.261,1.313
			C348.161,170.231,347.531,170.386,346.811,170.386z M346.811,169.216c0.62,0,1.12-0.225,1.5-0.675s0.57-1.1,0.57-1.95
			c0-0.85-0.19-1.497-0.57-1.942c-0.38-0.444-0.88-0.667-1.5-0.667c-0.63,0-1.135,0.223-1.515,0.667
			c-0.381,0.445-0.57,1.093-0.57,1.942c0,0.851,0.189,1.5,0.57,1.95C345.676,168.991,346.181,169.216,346.811,169.216z"/>
		<path fill="#FFFDFA" d="M352.27,170.251v-7.32h1.38v5.311l3.961-5.311h1.274v7.32h-1.38v-5.295l-3.96,5.295H352.27z
			 M355.571,162.001c-0.65,0-1.208-0.173-1.673-0.518s-0.787-0.848-0.968-1.508l0.825-0.284c0.18,0.489,0.417,0.85,0.713,1.079
			c0.295,0.23,0.667,0.346,1.117,0.346c0.46,0,0.832-0.11,1.117-0.33s0.538-0.58,0.758-1.08l0.795,0.27
			c-0.24,0.711-0.595,1.226-1.065,1.545C356.72,161.841,356.18,162.001,355.571,162.001z"/>
		<path fill="#FFFDFA" d="M364.405,170.386c-0.75,0-1.397-0.157-1.942-0.473c-0.545-0.314-0.968-0.76-1.268-1.335
			c-0.3-0.574-0.45-1.252-0.45-2.032c0-1.16,0.33-2.075,0.99-2.745s1.55-1.005,2.67-1.005c0.46,0,0.915,0.08,1.365,0.24
			s0.819,0.38,1.11,0.66l-0.48,1.064c-0.28-0.26-0.588-0.452-0.923-0.577s-0.652-0.188-0.952-0.188c-0.71,0-1.258,0.223-1.643,0.667
			c-0.385,0.445-0.577,1.078-0.577,1.897c0,0.82,0.192,1.463,0.577,1.928s0.933,0.697,1.643,0.697c0.3,0,0.617-0.062,0.952-0.188
			c0.335-0.124,0.643-0.317,0.923-0.577l0.48,1.08c-0.291,0.27-0.663,0.485-1.118,0.645
			C365.307,170.306,364.855,170.386,364.405,170.386z"/>
		<path fill="#FFFDFA" d="M369.88,170.251v-6.105h-2.58v-1.215h6.69v1.215h-2.596v6.105H369.88z"/>
		<path fill="#FFFDFA" d="M375.205,170.251v-7.32h3.735c0.9,0,1.558,0.168,1.973,0.503s0.622,0.808,0.622,1.417
			c0,0.381-0.107,0.713-0.322,0.998s-0.508,0.492-0.878,0.622c0.46,0.11,0.815,0.32,1.065,0.63c0.25,0.311,0.375,0.681,0.375,1.11
			c0,0.63-0.235,1.128-0.705,1.492c-0.47,0.365-1.14,0.548-2.01,0.548H375.205z M376.63,166.036h2.204
			c0.41,0,0.728-0.095,0.953-0.285c0.225-0.189,0.337-0.45,0.337-0.78c0-0.34-0.112-0.6-0.337-0.779
			c-0.226-0.181-0.543-0.271-0.953-0.271h-2.204V166.036z M376.63,169.276h2.34c0.939,0,1.41-0.38,1.41-1.141
			c0-0.75-0.471-1.125-1.41-1.125h-2.34V169.276z"/>
		<path fill="#FFFDFA" d="M386.74,170.386c-0.74,0-1.38-0.154-1.92-0.465c-0.54-0.31-0.958-0.747-1.253-1.313
			c-0.295-0.564-0.442-1.237-0.442-2.018s0.147-1.452,0.442-2.018c0.295-0.564,0.713-1.002,1.253-1.313
			c0.54-0.31,1.18-0.465,1.92-0.465c0.72,0,1.35,0.155,1.89,0.465c0.54,0.311,0.96,0.748,1.261,1.313
			c0.3,0.565,0.449,1.237,0.449,2.018s-0.149,1.453-0.449,2.018c-0.301,0.565-0.721,1.003-1.261,1.313
			C388.089,170.231,387.459,170.386,386.74,170.386z M386.74,169.216c0.62,0,1.12-0.225,1.5-0.675s0.57-1.1,0.57-1.95
			c0-0.85-0.19-1.497-0.57-1.942c-0.38-0.444-0.88-0.667-1.5-0.667c-0.63,0-1.135,0.223-1.515,0.667
			c-0.381,0.445-0.57,1.093-0.57,1.942c0,0.851,0.189,1.5,0.57,1.95C385.605,168.991,386.11,169.216,386.74,169.216z"/>
	</g>
</g>
<g>
	<rect x="460.355" y="101.837" fill="#587F6B" width="146.393" height="110.136"/>
	<g>
		<path fill="#FFFDFA" d="M495.85,152.251v-10.575h4.409c1.101,0,1.953,0.243,2.558,0.728c0.605,0.485,0.908,1.163,0.908,2.032
			c0,0.57-0.15,1.061-0.45,1.471s-0.71,0.71-1.23,0.899c0.61,0.16,1.085,0.455,1.425,0.886c0.34,0.43,0.511,0.975,0.511,1.635
			c0,0.939-0.313,1.662-0.938,2.167c-0.625,0.506-1.493,0.758-2.603,0.758H495.85z M497.35,146.296h2.67
			c1.46,0,2.189-0.57,2.189-1.71s-0.729-1.71-2.189-1.71h-2.67V146.296z M497.35,151.051h2.909c1.471,0,2.205-0.595,2.205-1.785
			c0-1.18-0.734-1.77-2.205-1.77h-2.909V151.051z"/>
		<path fill="#FFFDFA" d="M507.519,152.251v-6.105h-2.58v-1.215h6.69v1.215h-2.596v6.105H507.519z"/>
		<path fill="#FFFDFA" d="M515.994,152.386c-0.74,0-1.38-0.154-1.92-0.465c-0.54-0.31-0.958-0.747-1.253-1.313
			c-0.295-0.564-0.442-1.237-0.442-2.018s0.147-1.452,0.442-2.018c0.295-0.564,0.713-1.002,1.253-1.313
			c0.54-0.31,1.18-0.465,1.92-0.465c0.72,0,1.35,0.155,1.89,0.465c0.54,0.311,0.96,0.748,1.261,1.313
			c0.3,0.565,0.449,1.237,0.449,2.018s-0.149,1.453-0.449,2.018c-0.301,0.565-0.721,1.003-1.261,1.313
			C517.344,152.231,516.714,152.386,515.994,152.386z M515.994,151.216c0.62,0,1.12-0.225,1.5-0.675s0.57-1.1,0.57-1.95
			c0-0.85-0.19-1.497-0.57-1.942c-0.38-0.444-0.88-0.667-1.5-0.667c-0.63,0-1.135,0.223-1.515,0.667
			c-0.381,0.445-0.57,1.093-0.57,1.942c0,0.851,0.189,1.5,0.57,1.95C514.859,150.991,515.364,151.216,515.994,151.216z"/>
		<path fill="#FFFDFA" d="M521.469,154.951v-10.021h1.484v1.245c0.21-0.42,0.53-0.755,0.96-1.005
			c0.431-0.25,0.925-0.375,1.485-0.375c0.65,0,1.218,0.155,1.702,0.465c0.485,0.311,0.86,0.748,1.125,1.313
			c0.266,0.565,0.397,1.237,0.397,2.018s-0.132,1.455-0.397,2.025c-0.265,0.569-0.64,1.008-1.125,1.313
			c-0.484,0.305-1.052,0.457-1.702,0.457c-0.54,0-1.022-0.117-1.447-0.353c-0.426-0.234-0.748-0.557-0.968-0.967v3.885H521.469z
			 M525.023,151.216c0.63,0,1.133-0.225,1.508-0.675s0.563-1.1,0.563-1.95c0-0.85-0.188-1.497-0.563-1.942
			c-0.375-0.444-0.878-0.667-1.508-0.667s-1.133,0.223-1.508,0.667c-0.375,0.445-0.563,1.093-0.563,1.942
			c0,0.851,0.188,1.5,0.563,1.95S524.394,151.216,525.023,151.216z"/>
		<path fill="#FFFDFA" d="M530.483,152.251v-7.32h1.38v5.311l3.961-5.311h1.274v7.32h-1.38v-5.295l-3.96,5.295H530.483z"/>
		<path fill="#FFFDFA" d="M544.028,152.251v-2.82c-0.54,0.311-1.15,0.465-1.83,0.465c-1.06,0-1.845-0.255-2.354-0.765
			c-0.511-0.51-0.766-1.285-0.766-2.325v-1.875h1.516v1.755c0,0.69,0.142,1.19,0.427,1.5c0.285,0.311,0.758,0.466,1.418,0.466
			c0.319,0,0.604-0.035,0.854-0.105c0.25-0.069,0.49-0.189,0.721-0.36v-3.255h1.515v7.32H544.028z"/>
		<path fill="#FFFDFA" d="M547.809,152.251v-7.32h1.516v2.955h3.645v-2.955h1.516v7.32h-1.516v-3.165h-3.645v3.165H547.809z"/>
		<path fill="#FFFDFA" d="M559.943,152.386c-0.74,0-1.38-0.154-1.92-0.465c-0.54-0.31-0.958-0.747-1.253-1.313
			c-0.295-0.564-0.442-1.237-0.442-2.018s0.147-1.452,0.442-2.018c0.295-0.564,0.713-1.002,1.253-1.313
			c0.54-0.31,1.18-0.465,1.92-0.465c0.72,0,1.35,0.155,1.89,0.465c0.54,0.311,0.96,0.748,1.261,1.313
			c0.3,0.565,0.449,1.237,0.449,2.018s-0.149,1.453-0.449,2.018c-0.301,0.565-0.721,1.003-1.261,1.313
			C561.293,152.231,560.663,152.386,559.943,152.386z M559.943,151.216c0.62,0,1.12-0.225,1.5-0.675s0.57-1.1,0.57-1.95
			c0-0.85-0.19-1.497-0.57-1.942c-0.38-0.444-0.88-0.667-1.5-0.667c-0.63,0-1.135,0.223-1.515,0.667
			c-0.381,0.445-0.57,1.093-0.57,1.942c0,0.851,0.189,1.5,0.57,1.95C558.809,150.991,559.313,151.216,559.943,151.216z"/>
		<path fill="#FFFDFA" d="M568.854,152.386c-1.2,0-2.145-0.337-2.835-1.013c-0.689-0.675-1.035-1.597-1.035-2.767
			c0-0.75,0.152-1.413,0.458-1.988c0.305-0.574,0.728-1.022,1.268-1.342c0.54-0.32,1.159-0.48,1.859-0.48
			c1.01,0,1.806,0.322,2.386,0.968c0.579,0.645,0.869,1.532,0.869,2.662v0.51h-5.369c0.109,1.521,0.915,2.28,2.415,2.28
			c0.42,0,0.832-0.064,1.237-0.195c0.404-0.129,0.787-0.345,1.147-0.645l0.45,1.05c-0.33,0.3-0.756,0.535-1.275,0.705
			C569.908,152.301,569.384,152.386,568.854,152.386z M568.629,145.861c-0.63,0-1.131,0.194-1.5,0.585
			c-0.37,0.39-0.596,0.91-0.675,1.56h4.095c-0.03-0.68-0.21-1.207-0.54-1.582S569.219,145.861,568.629,145.861z"/>
		<path fill="#FFFDFA" d="M488.776,170.386c-1.13,0-2.022-0.354-2.678-1.064c-0.654-0.71-0.982-1.755-0.982-3.136v-1.109
			c0-1.46,0.311-2.572,0.931-3.338c0.619-0.765,1.545-1.308,2.774-1.627l2.58-0.676l0.48,1.216l-2.955,0.75
			c-0.78,0.2-1.37,0.564-1.771,1.095c-0.399,0.53-0.6,1.185-0.6,1.965v0.06c0.229-0.479,0.567-0.859,1.013-1.14
			c0.444-0.279,0.977-0.42,1.597-0.42s1.168,0.147,1.643,0.442c0.476,0.295,0.848,0.718,1.118,1.268c0.27,0.55,0.404,1.2,0.404,1.95
			c0,0.771-0.147,1.438-0.442,2.002c-0.295,0.565-0.71,1.001-1.245,1.306C490.109,170.233,489.486,170.386,488.776,170.386z
			 M488.717,169.216c0.66,0,1.172-0.218,1.537-0.652s0.548-1.063,0.548-1.883c0-0.81-0.186-1.438-0.556-1.882
			c-0.37-0.445-0.88-0.668-1.529-0.668c-0.641,0-1.146,0.218-1.516,0.652c-0.37,0.436-0.555,1.033-0.555,1.793
			c0,0.87,0.183,1.527,0.548,1.973C487.559,168.993,488.066,169.216,488.717,169.216z"/>
		<path fill="#FFFDFA" d="M497.642,170.386c-1.2,0-2.145-0.337-2.835-1.013c-0.689-0.675-1.035-1.597-1.035-2.767
			c0-0.75,0.152-1.413,0.458-1.988c0.305-0.574,0.728-1.022,1.268-1.342c0.54-0.32,1.159-0.48,1.859-0.48
			c1.01,0,1.806,0.322,2.386,0.968c0.579,0.645,0.869,1.532,0.869,2.662v0.51h-5.369c0.109,1.521,0.915,2.28,2.415,2.28
			c0.42,0,0.832-0.064,1.237-0.195c0.404-0.129,0.787-0.345,1.147-0.645l0.45,1.05c-0.33,0.3-0.756,0.535-1.275,0.705
			C498.696,170.301,498.172,170.386,497.642,170.386z M497.417,163.861c-0.63,0-1.131,0.194-1.5,0.585
			c-0.37,0.39-0.596,0.91-0.675,1.56h4.095c-0.03-0.68-0.21-1.207-0.54-1.582S498.007,163.861,497.417,163.861z"/>
		<path fill="#FFFDFA" d="M505.651,170.386c-0.75,0-1.397-0.157-1.942-0.473c-0.545-0.314-0.968-0.76-1.268-1.335
			c-0.3-0.574-0.45-1.252-0.45-2.032c0-1.16,0.33-2.075,0.99-2.745s1.55-1.005,2.67-1.005c0.46,0,0.915,0.08,1.365,0.24
			s0.819,0.38,1.11,0.66l-0.48,1.064c-0.28-0.26-0.588-0.452-0.923-0.577s-0.652-0.188-0.952-0.188c-0.71,0-1.258,0.223-1.643,0.667
			c-0.385,0.445-0.577,1.078-0.577,1.897c0,0.82,0.192,1.463,0.577,1.928s0.933,0.697,1.643,0.697c0.3,0,0.617-0.062,0.952-0.188
			c0.335-0.124,0.643-0.317,0.923-0.577l0.48,1.08c-0.291,0.27-0.663,0.485-1.118,0.645
			C506.554,170.306,506.102,170.386,505.651,170.386z"/>
		<path fill="#FFFDFA" d="M509.596,170.251v-7.32h6.63v7.32h-1.515v-6.105h-3.6v6.105H509.596z"/>
		<path fill="#FFFDFA" d="M521.686,170.386c-0.74,0-1.38-0.154-1.92-0.465c-0.54-0.31-0.958-0.747-1.253-1.313
			c-0.295-0.564-0.442-1.237-0.442-2.018s0.147-1.452,0.442-2.018c0.295-0.564,0.713-1.002,1.253-1.313
			c0.54-0.31,1.18-0.465,1.92-0.465c0.72,0,1.35,0.155,1.89,0.465c0.54,0.311,0.96,0.748,1.261,1.313
			c0.3,0.565,0.449,1.237,0.449,2.018s-0.149,1.453-0.449,2.018c-0.301,0.565-0.721,1.003-1.261,1.313
			C523.035,170.231,522.405,170.386,521.686,170.386z M521.686,169.216c0.62,0,1.12-0.225,1.5-0.675s0.57-1.1,0.57-1.95
			c0-0.85-0.19-1.497-0.57-1.942c-0.38-0.444-0.88-0.667-1.5-0.667c-0.63,0-1.135,0.223-1.515,0.667
			c-0.381,0.445-0.57,1.093-0.57,1.942c0,0.851,0.189,1.5,0.57,1.95C520.551,168.991,521.056,169.216,521.686,169.216z"/>
		<path fill="#FFFDFA" d="M527.146,170.251v-7.32h1.516v2.971h1.229l2.266-2.971h1.649l-2.475,3.285
			c0.24,0.11,0.462,0.277,0.667,0.503c0.205,0.225,0.418,0.532,0.638,0.922l1.515,2.61h-1.619l-1.275-2.19
			c-0.23-0.39-0.452-0.649-0.668-0.779c-0.215-0.13-0.512-0.195-0.892-0.195h-1.035v3.165H527.146z"/>
		<path fill="#FFFDFA" d="M538.456,170.386c-0.74,0-1.38-0.154-1.92-0.465c-0.54-0.31-0.958-0.747-1.253-1.313
			c-0.295-0.564-0.442-1.237-0.442-2.018s0.147-1.452,0.442-2.018c0.295-0.564,0.713-1.002,1.253-1.313
			c0.54-0.31,1.18-0.465,1.92-0.465c0.72,0,1.35,0.155,1.89,0.465c0.54,0.311,0.96,0.748,1.261,1.313
			c0.3,0.565,0.449,1.237,0.449,2.018s-0.149,1.453-0.449,2.018c-0.301,0.565-0.721,1.003-1.261,1.313
			C539.806,170.231,539.176,170.386,538.456,170.386z M538.456,169.216c0.62,0,1.12-0.225,1.5-0.675s0.57-1.1,0.57-1.95
			c0-0.85-0.19-1.497-0.57-1.942c-0.38-0.444-0.88-0.667-1.5-0.667c-0.63,0-1.135,0.223-1.515,0.667
			c-0.381,0.445-0.57,1.093-0.57,1.942c0,0.851,0.189,1.5,0.57,1.95C537.321,168.991,537.826,169.216,538.456,169.216z"/>
		<path fill="#FFFDFA" d="M543.915,170.251v-7.32h1.38v5.311l3.961-5.311h1.274v7.32h-1.38v-5.295l-3.96,5.295H543.915z
			 M547.216,162.001c-0.65,0-1.208-0.173-1.673-0.518s-0.787-0.848-0.968-1.508l0.825-0.284c0.18,0.489,0.417,0.85,0.713,1.079
			c0.295,0.23,0.667,0.346,1.117,0.346c0.46,0,0.832-0.11,1.117-0.33s0.538-0.58,0.758-1.08l0.795,0.27
			c-0.24,0.711-0.595,1.226-1.065,1.545C548.365,161.841,547.825,162.001,547.216,162.001z"/>
		<path fill="#FFFDFA" d="M556.05,170.386c-0.75,0-1.397-0.157-1.942-0.473c-0.545-0.314-0.968-0.76-1.268-1.335
			c-0.3-0.574-0.45-1.252-0.45-2.032c0-1.16,0.33-2.075,0.99-2.745s1.55-1.005,2.67-1.005c0.46,0,0.915,0.08,1.365,0.24
			s0.819,0.38,1.11,0.66l-0.48,1.064c-0.28-0.26-0.588-0.452-0.923-0.577s-0.652-0.188-0.952-0.188c-0.71,0-1.258,0.223-1.643,0.667
			c-0.385,0.445-0.577,1.078-0.577,1.897c0,0.82,0.192,1.463,0.577,1.928s0.933,0.697,1.643,0.697c0.3,0,0.617-0.062,0.952-0.188
			c0.335-0.124,0.643-0.317,0.923-0.577l0.48,1.08c-0.291,0.27-0.663,0.485-1.118,0.645
			C556.952,170.306,556.5,170.386,556.05,170.386z"/>
		<path fill="#FFFDFA" d="M561.525,170.251v-6.105h-2.58v-1.215h6.69v1.215h-2.596v6.105H561.525z"/>
		<path fill="#FFFDFA" d="M566.85,170.251v-7.32h3.735c0.9,0,1.558,0.168,1.973,0.503s0.622,0.808,0.622,1.417
			c0,0.381-0.107,0.713-0.322,0.998s-0.508,0.492-0.878,0.622c0.46,0.11,0.815,0.32,1.065,0.63c0.25,0.311,0.375,0.681,0.375,1.11
			c0,0.63-0.235,1.128-0.705,1.492c-0.47,0.365-1.14,0.548-2.01,0.548H566.85z M568.275,166.036h2.204
			c0.41,0,0.728-0.095,0.953-0.285c0.225-0.189,0.337-0.45,0.337-0.78c0-0.34-0.112-0.6-0.337-0.779
			c-0.226-0.181-0.543-0.271-0.953-0.271h-2.204V166.036z M568.275,169.276h2.34c0.939,0,1.41-0.38,1.41-1.141
			c0-0.75-0.471-1.125-1.41-1.125h-2.34V169.276z"/>
		<path fill="#FFFDFA" d="M578.385,170.386c-0.74,0-1.38-0.154-1.92-0.465c-0.54-0.31-0.958-0.747-1.253-1.313
			c-0.295-0.564-0.442-1.237-0.442-2.018s0.147-1.452,0.442-2.018c0.295-0.564,0.713-1.002,1.253-1.313
			c0.54-0.31,1.18-0.465,1.92-0.465c0.72,0,1.35,0.155,1.89,0.465c0.54,0.311,0.96,0.748,1.261,1.313
			c0.3,0.565,0.449,1.237,0.449,2.018s-0.149,1.453-0.449,2.018c-0.301,0.565-0.721,1.003-1.261,1.313
			C579.734,170.231,579.104,170.386,578.385,170.386z M578.385,169.216c0.62,0,1.12-0.225,1.5-0.675s0.57-1.1,0.57-1.95
			c0-0.85-0.19-1.497-0.57-1.942c-0.38-0.444-0.88-0.667-1.5-0.667c-0.63,0-1.135,0.223-1.515,0.667
			c-0.381,0.445-0.57,1.093-0.57,1.942c0,0.851,0.189,1.5,0.57,1.95C577.25,168.991,577.755,169.216,578.385,169.216z"/>
	</g>
</g>
<g>
	<rect x="651.039" y="100.373" fill="#587F6B" width="146.393" height="111.601"/>
	<g>
		<path fill="#FFFDFA" d="M692.871,150.921c-0.891,0-1.678-0.117-2.362-0.353c-0.686-0.234-1.263-0.557-1.732-0.967l0.524-1.186
			c0.45,0.39,0.958,0.683,1.522,0.878c0.565,0.194,1.213,0.292,1.942,0.292c0.91,0,1.578-0.152,2.003-0.457
			c0.425-0.306,0.638-0.763,0.638-1.373c0-1.14-0.735-1.71-2.205-1.71h-2.58v-1.245h2.34c1.46,0,2.19-0.555,2.19-1.665
			c0-0.529-0.195-0.952-0.585-1.268c-0.391-0.314-0.985-0.472-1.785-0.472c-0.61,0-1.192,0.095-1.748,0.284
			c-0.555,0.19-1.058,0.476-1.507,0.855l-0.511-1.185c0.471-0.41,1.051-0.726,1.74-0.945c0.69-0.22,1.415-0.33,2.175-0.33
			c1.25,0,2.19,0.265,2.82,0.795s0.945,1.23,0.945,2.1c0,0.57-0.15,1.061-0.45,1.471s-0.705,0.71-1.215,0.899
			c0.6,0.16,1.069,0.455,1.41,0.886c0.34,0.43,0.51,0.975,0.51,1.635c0,0.939-0.333,1.685-0.998,2.234
			C695.288,150.647,694.261,150.921,692.871,150.921z"/>
		<path fill="#FFFDFA" d="M701.301,150.921c-0.51,0-0.965-0.1-1.365-0.3s-0.718-0.47-0.952-0.81
			c-0.235-0.34-0.353-0.726-0.353-1.155c0-0.54,0.137-0.965,0.412-1.275c0.275-0.31,0.73-0.534,1.365-0.675
			c0.635-0.14,1.492-0.21,2.572-0.21h0.51v-0.39c0-0.57-0.119-0.98-0.359-1.23s-0.636-0.375-1.186-0.375
			c-0.42,0-0.84,0.063-1.26,0.188s-0.85,0.322-1.29,0.593l-0.465-1.065c0.38-0.27,0.855-0.484,1.425-0.645
			c0.57-0.16,1.115-0.24,1.635-0.24c1,0,1.74,0.237,2.221,0.713c0.479,0.475,0.72,1.217,0.72,2.228v4.515h-1.425v-1.215
			c-0.181,0.42-0.46,0.75-0.84,0.99C702.285,150.801,701.831,150.921,701.301,150.921z M701.601,149.841
			c0.54,0,0.99-0.189,1.35-0.569c0.36-0.38,0.54-0.86,0.54-1.44v-0.405h-0.494c-0.73,0-1.303,0.035-1.718,0.105
			s-0.71,0.188-0.885,0.353c-0.176,0.165-0.263,0.393-0.263,0.683c0,0.38,0.13,0.688,0.39,0.922
			C700.78,149.724,701.141,149.841,701.601,149.841z"/>
		<path fill="#FFFDFA" d="M716.991,152.737v-1.95h-9.811v-7.32h1.44v6.12h2.805v-6.12h1.44v6.12h2.805v-6.12h1.44v6.12h1.17v3.15
			H716.991z"/>
		<path fill="#FFFDFA" d="M719.795,150.787v-7.32h1.38v5.311l3.961-5.311h1.274v7.32h-1.38v-5.295l-3.96,5.295H719.795z"/>
		<path fill="#FFFDFA" d="M730.221,150.787v-6.105h-2.58v-1.215h6.69v1.215h-2.596v6.105H730.221z"/>
		<path fill="#FFFDFA" d="M735.545,150.787v-7.32h1.516v2.955h3.645v-2.955h1.516v7.32h-1.516v-3.165h-3.645v3.165H735.545z"/>
		<path fill="#FFFDFA" d="M747.68,150.921c-0.74,0-1.38-0.154-1.92-0.465c-0.54-0.31-0.958-0.747-1.253-1.313
			c-0.295-0.564-0.442-1.237-0.442-2.018s0.147-1.452,0.442-2.018c0.295-0.564,0.713-1.002,1.253-1.313
			c0.54-0.31,1.18-0.465,1.92-0.465c0.72,0,1.35,0.155,1.89,0.465c0.54,0.311,0.96,0.748,1.261,1.313
			c0.3,0.565,0.449,1.237,0.449,2.018s-0.149,1.453-0.449,2.018c-0.301,0.565-0.721,1.003-1.261,1.313
			C749.029,150.767,748.399,150.921,747.68,150.921z M747.68,149.751c0.62,0,1.12-0.225,1.5-0.675s0.57-1.1,0.57-1.95
			c0-0.85-0.19-1.497-0.57-1.942c-0.38-0.444-0.88-0.667-1.5-0.667c-0.63,0-1.135,0.223-1.515,0.667
			c-0.381,0.445-0.57,1.093-0.57,1.942c0,0.851,0.189,1.5,0.57,1.95C746.545,149.527,747.05,149.751,747.68,149.751z"/>
		<path fill="#FFFDFA" d="M756.59,150.921c-1.2,0-2.145-0.337-2.835-1.013c-0.689-0.675-1.035-1.597-1.035-2.767
			c0-0.75,0.152-1.413,0.458-1.988c0.305-0.574,0.728-1.022,1.268-1.342c0.54-0.32,1.159-0.48,1.859-0.48
			c1.01,0,1.806,0.322,2.386,0.968c0.579,0.645,0.869,1.532,0.869,2.662v0.51h-5.369c0.109,1.521,0.915,2.28,2.415,2.28
			c0.42,0,0.832-0.064,1.237-0.195c0.404-0.129,0.787-0.345,1.147-0.645l0.45,1.05c-0.33,0.3-0.756,0.535-1.275,0.705
			C757.645,150.836,757.12,150.921,756.59,150.921z M756.365,144.397c-0.63,0-1.131,0.194-1.5,0.585
			c-0.37,0.39-0.596,0.91-0.675,1.56h4.095c-0.03-0.68-0.21-1.207-0.54-1.582S756.955,144.397,756.365,144.397z"/>
		<path fill="#FFFDFA" d="M686.653,168.787v-7.32h6.63v7.32h-1.515v-6.105h-3.6v6.105H686.653z"/>
		<path fill="#FFFDFA" d="M698.743,168.921c-0.74,0-1.38-0.154-1.92-0.465c-0.54-0.31-0.958-0.747-1.253-1.313
			c-0.295-0.564-0.442-1.237-0.442-2.018s0.147-1.452,0.442-2.018c0.295-0.564,0.713-1.002,1.253-1.313
			c0.54-0.31,1.18-0.465,1.92-0.465c0.72,0,1.35,0.155,1.89,0.465c0.54,0.311,0.96,0.748,1.261,1.313
			c0.3,0.565,0.449,1.237,0.449,2.018s-0.149,1.453-0.449,2.018c-0.301,0.565-0.721,1.003-1.261,1.313
			C700.093,168.767,699.463,168.921,698.743,168.921z M698.743,167.751c0.62,0,1.12-0.225,1.5-0.675s0.57-1.1,0.57-1.95
			c0-0.85-0.19-1.497-0.57-1.942c-0.38-0.444-0.88-0.667-1.5-0.667c-0.63,0-1.135,0.223-1.515,0.667
			c-0.381,0.445-0.57,1.093-0.57,1.942c0,0.851,0.189,1.5,0.57,1.95C697.608,167.527,698.113,167.751,698.743,167.751z"/>
		<path fill="#FFFDFA" d="M704.203,168.787v-7.32h3.735c0.9,0,1.558,0.168,1.973,0.503s0.622,0.808,0.622,1.417
			c0,0.381-0.107,0.713-0.322,0.998s-0.508,0.492-0.878,0.622c0.46,0.11,0.815,0.32,1.065,0.63c0.25,0.311,0.375,0.681,0.375,1.11
			c0,0.63-0.235,1.128-0.705,1.492c-0.47,0.365-1.14,0.548-2.01,0.548H704.203z M705.629,164.572h2.204
			c0.41,0,0.728-0.095,0.953-0.285c0.225-0.189,0.337-0.45,0.337-0.78c0-0.34-0.112-0.6-0.337-0.779
			c-0.226-0.181-0.543-0.271-0.953-0.271h-2.204V164.572z M705.629,167.812h2.34c0.939,0,1.41-0.38,1.41-1.141
			c0-0.75-0.471-1.125-1.41-1.125h-2.34V167.812z"/>
		<path fill="#FFFDFA" d="M715.993,168.921c-1.2,0-2.145-0.337-2.835-1.013c-0.689-0.675-1.035-1.597-1.035-2.767
			c0-0.75,0.152-1.413,0.458-1.988c0.305-0.574,0.728-1.022,1.268-1.342c0.54-0.32,1.159-0.48,1.859-0.48
			c1.01,0,1.806,0.322,2.386,0.968c0.579,0.645,0.869,1.532,0.869,2.662v0.51h-5.369c0.109,1.521,0.915,2.28,2.415,2.28
			c0.42,0,0.832-0.064,1.237-0.195c0.404-0.129,0.787-0.345,1.147-0.645l0.45,1.05c-0.33,0.3-0.756,0.535-1.275,0.705
			C717.048,168.836,716.523,168.921,715.993,168.921z M715.769,162.397c-0.63,0-1.131,0.194-1.5,0.585
			c-0.37,0.39-0.596,0.91-0.675,1.56h4.095c-0.03-0.68-0.21-1.207-0.54-1.582S716.358,162.397,715.769,162.397z"/>
		<path fill="#FFFDFA" d="M720.013,170.737v-3.15h0.811c0.319-0.479,0.55-1.037,0.689-1.672c0.141-0.636,0.21-1.408,0.21-2.318
			v-2.13h5.415v6.12h1.17v3.15h-1.29v-1.95h-5.699v1.95H720.013z M722.233,167.586h3.465v-4.935h-2.655v1.26
			c0,0.69-0.07,1.36-0.21,2.01C722.693,166.572,722.493,167.126,722.233,167.586z"/>
		<path fill="#FFFDFA" d="M733.272,168.921c-1.2,0-2.145-0.337-2.835-1.013c-0.689-0.675-1.035-1.597-1.035-2.767
			c0-0.75,0.152-1.413,0.458-1.988c0.305-0.574,0.728-1.022,1.268-1.342c0.54-0.32,1.159-0.48,1.859-0.48
			c1.01,0,1.806,0.322,2.386,0.968c0.579,0.645,0.869,1.532,0.869,2.662v0.51h-5.369c0.109,1.521,0.915,2.28,2.415,2.28
			c0.42,0,0.832-0.064,1.237-0.195c0.404-0.129,0.787-0.345,1.147-0.645l0.45,1.05c-0.33,0.3-0.756,0.535-1.275,0.705
			C734.327,168.836,733.803,168.921,733.272,168.921z M733.048,162.397c-0.63,0-1.131,0.194-1.5,0.585
			c-0.37,0.39-0.596,0.91-0.675,1.56h4.095c-0.03-0.68-0.21-1.207-0.54-1.582S733.638,162.397,733.048,162.397z"/>
		<path fill="#FFFDFA" d="M738.043,168.787v-7.32h1.516v2.955h3.645v-2.955h1.516v7.32h-1.516v-3.165h-3.645v3.165H738.043z"/>
		<path fill="#FFFDFA" d="M746.982,168.787v-7.32h1.38v5.311l3.961-5.311h1.274v7.32h-1.38v-5.295l-3.96,5.295H746.982z"/>
		<path fill="#FFFDFA" d="M759.327,168.921c-1.2,0-2.145-0.337-2.835-1.013c-0.689-0.675-1.035-1.597-1.035-2.767
			c0-0.75,0.152-1.413,0.458-1.988c0.305-0.574,0.728-1.022,1.268-1.342c0.54-0.32,1.159-0.48,1.859-0.48
			c1.01,0,1.806,0.322,2.386,0.968c0.579,0.645,0.869,1.532,0.869,2.662v0.51h-5.369c0.109,1.521,0.915,2.28,2.415,2.28
			c0.42,0,0.832-0.064,1.237-0.195c0.404-0.129,0.787-0.345,1.147-0.645l0.45,1.05c-0.33,0.3-0.756,0.535-1.275,0.705
			C760.382,168.836,759.857,168.921,759.327,168.921z M759.103,162.397c-0.63,0-1.131,0.194-1.5,0.585
			c-0.37,0.39-0.596,0.91-0.675,1.56h4.095c-0.03-0.68-0.21-1.207-0.54-1.582S759.692,162.397,759.103,162.397z"/>
	</g>
</g>
<g>
	<rect x="83" y="102" fill="#587F6B" width="141.333" height="60.667"/>
	<g>
		<path fill="#FFFDFA" d="M110.722,127.679v-10.575h1.306l3.915,7.306l3.899-7.306h1.275v10.575h-1.396v-7.755l-3.314,6.135h-0.945
			l-3.33-6.104v7.725H110.722z"/>
		<path fill="#FFFDFA" d="M126.712,127.814c-0.74,0-1.38-0.154-1.92-0.465c-0.54-0.31-0.958-0.747-1.253-1.313
			c-0.295-0.564-0.442-1.237-0.442-2.018s0.147-1.452,0.442-2.018c0.295-0.564,0.713-1.002,1.253-1.313
			c0.54-0.31,1.18-0.465,1.92-0.465c0.72,0,1.35,0.155,1.89,0.465c0.54,0.311,0.96,0.748,1.261,1.313
			c0.3,0.565,0.449,1.237,0.449,2.018s-0.149,1.453-0.449,2.018c-0.301,0.565-0.721,1.003-1.261,1.313
			C128.062,127.66,127.432,127.814,126.712,127.814z M126.712,126.644c0.62,0,1.12-0.225,1.5-0.675s0.57-1.1,0.57-1.95
			c0-0.85-0.19-1.497-0.57-1.942c-0.38-0.444-0.88-0.667-1.5-0.667c-0.63,0-1.135,0.223-1.515,0.667
			c-0.381,0.445-0.57,1.093-0.57,1.942c0,0.851,0.189,1.5,0.57,1.95C125.578,126.419,126.083,126.644,126.712,126.644z"/>
		<path fill="#FFFDFA" d="M132.171,127.679v-7.32h1.516v2.955h3.645v-2.955h1.516v7.32h-1.516v-3.165h-3.645v3.165H132.171z"/>
		<path fill="#FFFDFA" d="M141.112,127.679v-7.32h1.38v5.311l3.961-5.311h1.274v7.32h-1.38v-5.295l-3.96,5.295H141.112z"/>
		<path fill="#FFFDFA" d="M151.537,127.679v-6.105h-2.58v-1.215h6.69v1.215h-2.596v6.105H151.537z"/>
		<path fill="#FFFDFA" d="M160.012,127.814c-0.74,0-1.38-0.154-1.92-0.465c-0.54-0.31-0.958-0.747-1.253-1.313
			c-0.295-0.564-0.442-1.237-0.442-2.018s0.147-1.452,0.442-2.018c0.295-0.564,0.713-1.002,1.253-1.313
			c0.54-0.31,1.18-0.465,1.92-0.465c0.72,0,1.35,0.155,1.89,0.465c0.54,0.311,0.96,0.748,1.261,1.313
			c0.3,0.565,0.449,1.237,0.449,2.018s-0.149,1.453-0.449,2.018c-0.301,0.565-0.721,1.003-1.261,1.313
			C161.362,127.66,160.732,127.814,160.012,127.814z M160.012,126.644c0.62,0,1.12-0.225,1.5-0.675s0.57-1.1,0.57-1.95
			c0-0.85-0.19-1.497-0.57-1.942c-0.38-0.444-0.88-0.667-1.5-0.667c-0.63,0-1.135,0.223-1.515,0.667
			c-0.381,0.445-0.57,1.093-0.57,1.942c0,0.851,0.189,1.5,0.57,1.95C158.877,126.419,159.382,126.644,160.012,126.644z"/>
		<path fill="#FFFDFA" d="M165.487,130.379v-10.021h1.484v1.245c0.21-0.42,0.53-0.755,0.96-1.005
			c0.431-0.25,0.925-0.375,1.485-0.375c0.65,0,1.218,0.155,1.702,0.465c0.485,0.311,0.86,0.748,1.125,1.313
			c0.266,0.565,0.397,1.237,0.397,2.018s-0.132,1.455-0.397,2.025c-0.265,0.569-0.64,1.008-1.125,1.313
			c-0.484,0.305-1.052,0.457-1.702,0.457c-0.54,0-1.022-0.117-1.447-0.353c-0.426-0.234-0.748-0.557-0.968-0.967v3.885H165.487z
			 M169.042,126.644c0.63,0,1.133-0.225,1.508-0.675s0.563-1.1,0.563-1.95c0-0.85-0.188-1.497-0.563-1.942
			c-0.375-0.444-0.878-0.667-1.508-0.667s-1.133,0.223-1.508,0.667c-0.375,0.445-0.563,1.093-0.563,1.942
			c0,0.851,0.188,1.5,0.563,1.95S168.412,126.644,169.042,126.644z"/>
		<path fill="#FFFDFA" d="M174.501,127.679v-7.32h1.38v5.311l3.961-5.311h1.274v7.32h-1.38v-5.295l-3.96,5.295H174.501z"/>
		<path fill="#FFFDFA" d="M183.396,127.679v-7.32h1.516v2.955h3.645v-2.955h1.516v7.32h-1.516v-3.165h-3.645v3.165H183.396z"/>
		<path fill="#FFFDFA" d="M192.336,127.679v-7.32h5.311v1.215h-3.795v6.105H192.336z"/>
		<path fill="#FFFDFA" d="M135.607,148.379l1.305-2.896l-3.06-7.125h1.619l2.25,5.565l2.28-5.565h1.561l-4.365,10.021H135.607z"/>
		<path fill="#FFFDFA" d="M142.806,145.679v-7.32h5.311v1.215h-3.795v6.105H142.806z"/>
		<path fill="#FFFDFA" d="M149.497,148.379v-10.021h1.484v1.245c0.21-0.42,0.53-0.755,0.96-1.005
			c0.431-0.25,0.925-0.375,1.485-0.375c0.65,0,1.218,0.155,1.702,0.465c0.485,0.311,0.86,0.748,1.125,1.313
			c0.266,0.565,0.397,1.237,0.397,2.018s-0.132,1.455-0.397,2.025c-0.265,0.569-0.64,1.008-1.125,1.313
			c-0.484,0.305-1.052,0.457-1.702,0.457c-0.54,0-1.022-0.117-1.447-0.353c-0.426-0.234-0.748-0.557-0.968-0.967v3.885H149.497z
			 M153.051,144.644c0.63,0,1.133-0.225,1.508-0.675s0.563-1.1,0.563-1.95c0-0.85-0.188-1.497-0.563-1.942
			c-0.375-0.444-0.878-0.667-1.508-0.667s-1.133,0.223-1.508,0.667c-0.375,0.445-0.563,1.093-0.563,1.942
			c0,0.851,0.188,1.5,0.563,1.95S152.421,144.644,153.051,144.644z"/>
		<path fill="#FFFDFA" d="M161.707,145.814c-0.74,0-1.38-0.154-1.92-0.465c-0.54-0.31-0.958-0.747-1.253-1.313
			c-0.295-0.564-0.442-1.237-0.442-2.018s0.147-1.452,0.442-2.018c0.295-0.564,0.713-1.002,1.253-1.313
			c0.54-0.31,1.18-0.465,1.92-0.465c0.72,0,1.35,0.155,1.89,0.465c0.54,0.311,0.96,0.748,1.261,1.313
			c0.3,0.565,0.449,1.237,0.449,2.018s-0.149,1.453-0.449,2.018c-0.301,0.565-0.721,1.003-1.261,1.313
			C163.056,145.66,162.426,145.814,161.707,145.814z M161.707,144.644c0.62,0,1.12-0.225,1.5-0.675s0.57-1.1,0.57-1.95
			c0-0.85-0.19-1.497-0.57-1.942c-0.38-0.444-0.88-0.667-1.5-0.667c-0.63,0-1.135,0.223-1.515,0.667
			c-0.381,0.445-0.57,1.093-0.57,1.942c0,0.851,0.189,1.5,0.57,1.95C160.572,144.419,161.077,144.644,161.707,144.644z"/>
		<path fill="#FFFDFA" d="M169.716,145.814c-0.641,0-1.245-0.077-1.815-0.232c-0.57-0.154-1.035-0.383-1.395-0.683l0.435-1.02
			c0.35,0.27,0.768,0.473,1.253,0.607c0.484,0.135,0.982,0.202,1.492,0.202c0.67,0,1.155-0.09,1.455-0.27
			c0.3-0.181,0.45-0.455,0.45-0.825c0-0.71-0.461-1.065-1.381-1.065h-1.829v-1.109h1.664c0.4,0,0.715-0.088,0.945-0.263
			s0.345-0.423,0.345-0.742c0-0.33-0.132-0.59-0.397-0.78c-0.265-0.189-0.702-0.285-1.313-0.285c-0.5,0-0.96,0.063-1.38,0.188
			s-0.819,0.313-1.2,0.563l-0.435-1.005c0.84-0.58,1.92-0.87,3.24-0.87c0.95,0,1.667,0.183,2.152,0.548s0.728,0.867,0.728,1.507
			c0,0.381-0.105,0.713-0.315,0.998s-0.5,0.492-0.87,0.622c0.45,0.101,0.806,0.303,1.065,0.607c0.26,0.306,0.39,0.683,0.39,1.133
			c0,0.67-0.279,1.2-0.84,1.59C171.601,145.62,170.786,145.814,169.716,145.814z"/>
	</g>
</g>
<g>
	<rect x="83" y="170.258" fill="#587F6B" width="141.333" height="41.715"/>
	<g>
		<path fill="#FFFDFA" d="M123.577,195.462v-9.27h-3.75v-1.306h9.046v1.306h-3.75v9.27H123.577z"/>
		<path fill="#FFFDFA" d="M128.932,198.162v-10.021h1.484v1.245c0.21-0.42,0.53-0.755,0.96-1.005
			c0.431-0.25,0.925-0.375,1.485-0.375c0.65,0,1.218,0.155,1.702,0.465c0.485,0.311,0.86,0.748,1.125,1.313
			c0.266,0.565,0.397,1.237,0.397,2.018s-0.132,1.455-0.397,2.025c-0.265,0.569-0.64,1.008-1.125,1.313
			c-0.484,0.305-1.052,0.457-1.702,0.457c-0.54,0-1.022-0.117-1.447-0.353c-0.426-0.234-0.748-0.557-0.968-0.967v3.885H128.932z
			 M132.487,194.427c0.63,0,1.133-0.225,1.508-0.675s0.563-1.1,0.563-1.95c0-0.85-0.188-1.497-0.563-1.942
			c-0.375-0.444-0.878-0.667-1.508-0.667s-1.133,0.223-1.508,0.667c-0.375,0.445-0.563,1.093-0.563,1.942
			c0,0.851,0.188,1.5,0.563,1.95S131.857,194.427,132.487,194.427z"/>
		<path fill="#FFFDFA" d="M137.947,195.462v-7.32h1.38v5.311l3.961-5.311h1.274v7.32h-1.38v-5.295l-3.96,5.295H137.947z"/>
		<path fill="#FFFDFA" d="M146.841,195.462v-7.32h5.311v1.215h-3.795v6.105H146.841z"/>
		<path fill="#FFFDFA" d="M153.516,195.462v-7.32h5.311v1.215h-3.795v6.105H153.516z"/>
		<path fill="#FFFDFA" d="M163.641,195.597c-1.2,0-2.145-0.337-2.835-1.013c-0.689-0.675-1.035-1.597-1.035-2.767
			c0-0.75,0.152-1.413,0.458-1.988c0.305-0.574,0.728-1.022,1.268-1.342c0.54-0.32,1.159-0.48,1.859-0.48
			c1.01,0,1.806,0.322,2.386,0.968c0.579,0.645,0.869,1.532,0.869,2.662v0.51h-5.369c0.109,1.521,0.915,2.28,2.415,2.28
			c0.42,0,0.832-0.064,1.237-0.195c0.404-0.129,0.787-0.345,1.147-0.645l0.45,1.05c-0.33,0.3-0.756,0.535-1.275,0.705
			C164.696,195.512,164.171,195.597,163.641,195.597z M163.417,189.072c-0.63,0-1.131,0.194-1.5,0.585
			c-0.37,0.39-0.596,0.91-0.675,1.56h4.095c-0.03-0.68-0.21-1.207-0.54-1.582S164.006,189.072,163.417,189.072z"/>
		<path fill="#FFFDFA" d="M168.426,198.162v-10.021h1.484v1.245c0.21-0.42,0.53-0.755,0.96-1.005
			c0.431-0.25,0.925-0.375,1.485-0.375c0.65,0,1.218,0.155,1.702,0.465c0.485,0.311,0.86,0.748,1.125,1.313
			c0.266,0.565,0.397,1.237,0.397,2.018s-0.132,1.455-0.397,2.025c-0.265,0.569-0.64,1.008-1.125,1.313
			c-0.484,0.305-1.052,0.457-1.702,0.457c-0.54,0-1.022-0.117-1.447-0.353c-0.426-0.234-0.748-0.557-0.968-0.967v3.885H168.426z
			 M171.981,194.427c0.63,0,1.133-0.225,1.508-0.675s0.563-1.1,0.563-1.95c0-0.85-0.188-1.497-0.563-1.942
			c-0.375-0.444-0.878-0.667-1.508-0.667s-1.133,0.223-1.508,0.667c-0.375,0.445-0.563,1.093-0.563,1.942
			c0,0.851,0.188,1.5,0.563,1.95S171.351,194.427,171.981,194.427z"/>
		<path fill="#FFFDFA" d="M177.441,195.462v-7.32h1.516v2.535h2.085c0.939,0,1.654,0.203,2.145,0.607
			c0.49,0.405,0.735,0.993,0.735,1.763c0,0.74-0.255,1.327-0.765,1.763c-0.511,0.435-1.216,0.652-2.115,0.652H177.441z
			 M178.957,194.427h1.89c0.52,0,0.925-0.112,1.215-0.337c0.29-0.226,0.436-0.573,0.436-1.043c0-0.46-0.146-0.797-0.436-1.013
			c-0.29-0.215-0.695-0.322-1.215-0.322h-1.89V194.427z M184.912,195.462v-7.32h1.515v7.32H184.912z"/>
	</g>
</g>
<g>
	<path fill="#FFFDFA" d="M408.63,276.802c-1.07,0-1.985-0.22-2.745-0.66c-0.76-0.439-1.342-1.067-1.747-1.882
		c-0.405-0.815-0.607-1.777-0.607-2.888s0.202-2.07,0.607-2.88c0.405-0.811,0.987-1.435,1.747-1.875s1.675-0.66,2.745-0.66
		c0.721,0,1.393,0.112,2.018,0.338c0.625,0.225,1.147,0.547,1.567,0.967l-0.54,1.245c-0.46-0.41-0.933-0.707-1.417-0.893
		c-0.485-0.185-1.013-0.277-1.583-0.277c-1.14,0-2.01,0.351-2.609,1.05c-0.601,0.7-0.9,1.695-0.9,2.985s0.3,2.287,0.9,2.992
		c0.6,0.705,1.47,1.058,2.609,1.058c0.57,0,1.098-0.092,1.583-0.277c0.484-0.185,0.957-0.482,1.417-0.893l0.54,1.245
		c-0.42,0.41-0.942,0.73-1.567,0.96S409.351,276.802,408.63,276.802z"/>
	<path fill="#FFFDFA" d="M413.94,276.667v-7.32h1.38v5.311l3.961-5.311h1.274v7.32h-1.38v-5.295l-3.96,5.295H413.94z"/>
	<path fill="#FFFDFA" d="M422.835,276.667v-7.32h1.245l2.655,4.636l2.64-4.636h1.245v7.32h-1.335v-4.965l-2.189,3.78h-0.735
		l-2.19-3.78v4.965H422.835z"/>
	<path fill="#FFFDFA" d="M432.9,276.667v-7.32h6.63v7.32h-1.515v-6.105h-3.6v6.105H432.9z"/>
	<path fill="#FFFDFA" d="M443.325,276.667v-6.105h-2.58v-1.215h6.69v1.215h-2.596v6.105H443.325z"/>
	<path fill="#FFFDFA" d="M451.8,276.802c-0.74,0-1.38-0.154-1.92-0.465c-0.54-0.31-0.958-0.747-1.253-1.313
		c-0.295-0.564-0.442-1.237-0.442-2.018s0.147-1.452,0.442-2.018c0.295-0.564,0.713-1.002,1.253-1.313
		c0.54-0.31,1.18-0.465,1.92-0.465c0.719,0,1.349,0.155,1.889,0.465c0.54,0.311,0.96,0.748,1.261,1.313
		c0.3,0.565,0.449,1.237,0.449,2.018s-0.149,1.453-0.449,2.018c-0.301,0.565-0.721,1.003-1.261,1.313
		C453.149,276.647,452.52,276.802,451.8,276.802z M451.8,275.632c0.62,0,1.12-0.225,1.5-0.675s0.57-1.1,0.57-1.95
		c0-0.85-0.19-1.497-0.57-1.942c-0.38-0.444-0.879-0.667-1.5-0.667c-0.63,0-1.135,0.223-1.515,0.667
		c-0.381,0.445-0.57,1.093-0.57,1.942c0,0.851,0.189,1.5,0.57,1.95C450.666,275.407,451.17,275.632,451.8,275.632z"/>
	<path fill="#FFFDFA" d="M457.259,276.667v-7.32h1.245l2.655,4.636l2.64-4.636h1.245v7.32h-1.335v-4.965l-2.189,3.78h-0.735
		l-2.19-3.78v4.965H457.259z"/>
	<path fill="#FFFDFA" d="M467.324,276.667v-7.32h1.516v2.535h2.085c0.939,0,1.654,0.203,2.145,0.607
		c0.49,0.405,0.735,0.993,0.735,1.763c0,0.74-0.255,1.327-0.765,1.763c-0.511,0.435-1.216,0.652-2.115,0.652H467.324z
		 M468.84,275.632h1.89c0.52,0,0.925-0.112,1.215-0.337c0.29-0.226,0.436-0.573,0.436-1.043c0-0.46-0.146-0.797-0.436-1.013
		c-0.29-0.215-0.695-0.322-1.215-0.322h-1.89V275.632z M474.795,276.667v-7.32h1.515v7.32H474.795z"/>
</g>
<g>
	<path fill="#FFFDFA" d="M330.228,303.667v-1.305h2.4v-7.471l-1.875,1.17l-0.63-1.154l2.955-1.815h1.095v9.271h2.25v1.305H330.228z"
		/>
	<path fill="#FFFDFA" d="M338.357,303.667v-1.785h1.785v1.785H338.357z"/>
	<path fill="#FFFDFA" d="M350.673,304.027v-1.2c-1,0-1.862-0.18-2.588-0.54c-0.725-0.36-1.28-0.88-1.665-1.561
		c-0.385-0.68-0.577-1.489-0.577-2.43c0-1.43,0.422-2.542,1.268-3.337c0.845-0.796,2.032-1.193,3.563-1.193v-1.109h1.56v1.109
		c1.53,0,2.718,0.397,3.563,1.193c0.845,0.795,1.268,1.907,1.268,3.337c0,0.95-0.195,1.763-0.585,2.438s-0.945,1.192-1.665,1.553
		s-1.58,0.54-2.58,0.54v1.2H350.673z M350.508,301.612h0.165v-6.63h-0.165c-0.93,0-1.675,0.279-2.235,0.84
		c-0.56,0.56-0.84,1.385-0.84,2.475c0,1.061,0.287,1.878,0.862,2.452C348.87,301.324,349.607,301.612,350.508,301.612z
		 M352.383,294.982h-0.165v6.63h0.165c0.91,0,1.649-0.288,2.22-0.863c0.57-0.574,0.855-1.392,0.855-2.452
		c0-1.09-0.28-1.915-0.841-2.475C354.058,295.262,353.313,294.982,352.383,294.982z"/>
	<path fill="#FFFDFA" d="M359.057,303.667v-7.32h1.38v5.311l3.961-5.311h1.274v7.32h-1.38v-5.295l-3.96,5.295H359.057z"/>
	<path fill="#FFFDFA" d="M370.502,303.802c-0.641,0-1.245-0.077-1.815-0.232c-0.57-0.154-1.035-0.383-1.395-0.683l0.435-1.02
		c0.35,0.27,0.768,0.473,1.253,0.607c0.484,0.135,0.982,0.202,1.492,0.202c0.67,0,1.155-0.09,1.455-0.27
		c0.3-0.181,0.45-0.455,0.45-0.825c0-0.71-0.461-1.065-1.381-1.065h-1.829v-1.109h1.664c0.4,0,0.715-0.088,0.945-0.263
		s0.345-0.423,0.345-0.742c0-0.33-0.132-0.59-0.397-0.78c-0.265-0.189-0.702-0.285-1.313-0.285c-0.5,0-0.96,0.063-1.38,0.188
		s-0.819,0.313-1.2,0.563l-0.435-1.005c0.84-0.58,1.92-0.87,3.24-0.87c0.95,0,1.667,0.183,2.152,0.548s0.728,0.867,0.728,1.507
		c0,0.381-0.105,0.713-0.315,0.998s-0.5,0.492-0.87,0.622c0.45,0.101,0.806,0.303,1.065,0.607c0.26,0.306,0.39,0.683,0.39,1.133
		c0,0.67-0.279,1.2-0.84,1.59C372.387,303.607,371.571,303.802,370.502,303.802z"/>
	<path fill="#FFFDFA" d="M375.557,303.667v-7.32h1.38v5.311l3.961-5.311h1.274v7.32h-1.38v-5.295l-3.96,5.295H375.557z"/>
	<path fill="#FFFDFA" d="M387.646,303.802c-0.74,0-1.38-0.154-1.92-0.465c-0.54-0.31-0.958-0.747-1.253-1.313
		c-0.295-0.564-0.442-1.237-0.442-2.018s0.147-1.452,0.442-2.018c0.295-0.564,0.713-1.002,1.253-1.313
		c0.54-0.31,1.18-0.465,1.92-0.465c0.72,0,1.35,0.155,1.89,0.465c0.54,0.311,0.96,0.748,1.261,1.313
		c0.3,0.565,0.449,1.237,0.449,2.018s-0.149,1.453-0.449,2.018c-0.301,0.565-0.721,1.003-1.261,1.313
		C388.996,303.647,388.366,303.802,387.646,303.802z M387.646,302.632c0.62,0,1.12-0.225,1.5-0.675s0.57-1.1,0.57-1.95
		c0-0.85-0.19-1.497-0.57-1.942c-0.38-0.444-0.88-0.667-1.5-0.667c-0.63,0-1.135,0.223-1.515,0.667
		c-0.381,0.445-0.57,1.093-0.57,1.942c0,0.851,0.189,1.5,0.57,1.95C386.512,302.407,387.017,302.632,387.646,302.632z"/>
	<path fill="#FFFDFA" d="M392.642,303.862l-0.51-1.2c0.439-0.18,0.784-0.428,1.034-0.742c0.25-0.315,0.431-0.755,0.54-1.32
		c0.11-0.565,0.165-1.298,0.165-2.197v-2.056h5.58v7.32h-1.515v-6.105h-2.655v0.886c0,1.1-0.09,2.015-0.27,2.745
		c-0.181,0.729-0.463,1.308-0.848,1.732S393.271,303.662,392.642,303.862z"/>
	<path fill="#FFFDFA" d="M404.927,303.802c-0.74,0-1.38-0.154-1.92-0.465c-0.54-0.31-0.958-0.747-1.253-1.313
		c-0.295-0.564-0.442-1.237-0.442-2.018s0.147-1.452,0.442-2.018c0.295-0.564,0.713-1.002,1.253-1.313
		c0.54-0.31,1.18-0.465,1.92-0.465c0.72,0,1.35,0.155,1.89,0.465c0.54,0.311,0.96,0.748,1.261,1.313
		c0.3,0.565,0.449,1.237,0.449,2.018s-0.149,1.453-0.449,2.018c-0.301,0.565-0.721,1.003-1.261,1.313
		C406.276,303.647,405.646,303.802,404.927,303.802z M404.927,302.632c0.62,0,1.12-0.225,1.5-0.675s0.57-1.1,0.57-1.95
		c0-0.85-0.19-1.497-0.57-1.942c-0.38-0.444-0.88-0.667-1.5-0.667c-0.63,0-1.135,0.223-1.515,0.667
		c-0.381,0.445-0.57,1.093-0.57,1.942c0,0.851,0.189,1.5,0.57,1.95C403.792,302.407,404.297,302.632,404.927,302.632z"/>
	<path fill="#FFFDFA" d="M410.386,303.667v-7.32h5.311v1.215h-3.795v6.105H410.386z"/>
	<path fill="#FFFDFA" d="M417.061,303.667v-7.32h1.38v5.311l3.961-5.311h1.274v7.32h-1.38v-5.295l-3.96,5.295H417.061z"/>
	<path fill="#FFFDFA" d="M425.342,303.667l1.109-1.92c0.29-0.52,0.67-0.865,1.141-1.035c-0.62-0.1-1.096-0.332-1.426-0.697
		s-0.494-0.843-0.494-1.433c0-0.68,0.229-1.223,0.689-1.628c0.46-0.404,1.145-0.607,2.055-0.607h3.495v7.32h-1.41v-2.67h-0.944
		c-0.351,0-0.65,0.093-0.9,0.277c-0.25,0.186-0.455,0.412-0.615,0.683l-0.975,1.71H425.342z M428.731,299.962h1.77v-2.58h-1.77
		c-0.55,0-0.955,0.112-1.215,0.338c-0.261,0.225-0.391,0.537-0.391,0.938c0,0.41,0.13,0.729,0.391,0.96
		C427.776,299.847,428.182,299.962,428.731,299.962z"/>
	<path fill="#FFFDFA" d="M440.446,306.577c-0.681-1.11-1.173-2.232-1.478-3.367c-0.306-1.136-0.458-2.298-0.458-3.488
		c0-1.189,0.152-2.353,0.458-3.487c0.305-1.135,0.797-2.258,1.478-3.367l1.064,0.42c-0.479,1.13-0.83,2.21-1.05,3.24
		c-0.22,1.029-0.33,2.095-0.33,3.194c0,1.091,0.11,2.152,0.33,3.188s0.57,2.117,1.05,3.248L440.446,306.577z"/>
	<path fill="#FFFDFA" d="M443.176,303.667v-7.32h6.63v7.32h-1.515v-6.105h-3.6v6.105H443.176z"/>
	<path fill="#FFFDFA" d="M455.311,303.802c-0.75,0-1.397-0.157-1.942-0.473c-0.545-0.314-0.968-0.76-1.268-1.335
		c-0.3-0.574-0.45-1.252-0.45-2.032c0-1.16,0.33-2.075,0.99-2.745s1.55-1.005,2.67-1.005c0.46,0,0.915,0.08,1.365,0.24
		s0.819,0.38,1.11,0.66l-0.48,1.064c-0.28-0.26-0.588-0.452-0.923-0.577s-0.652-0.188-0.952-0.188c-0.71,0-1.258,0.223-1.643,0.667
		c-0.385,0.445-0.577,1.078-0.577,1.897c0,0.82,0.192,1.463,0.577,1.928s0.933,0.697,1.643,0.697c0.3,0,0.617-0.062,0.952-0.188
		c0.335-0.124,0.643-0.317,0.923-0.577l0.48,1.08c-0.291,0.27-0.663,0.485-1.118,0.645
		C456.213,303.722,455.761,303.802,455.311,303.802z"/>
	<path fill="#FFFDFA" d="M459.255,303.667v-7.32h1.38v5.311l3.961-5.311h1.274v7.32h-1.38v-5.295l-3.96,5.295H459.255z"/>
	<path fill="#FFFDFA" d="M467.19,303.667l3.045-3.78l-2.85-3.54h1.77l1.966,2.505l1.965-2.505h1.77l-2.864,3.556l3.06,3.765h-1.8
		l-2.146-2.7l-2.13,2.7H467.19z"/>
	<path fill="#FFFDFA" d="M479.385,303.802c-0.74,0-1.38-0.154-1.92-0.465c-0.54-0.31-0.958-0.747-1.253-1.313
		c-0.295-0.564-0.442-1.237-0.442-2.018s0.147-1.452,0.442-2.018c0.295-0.564,0.713-1.002,1.253-1.313
		c0.54-0.31,1.18-0.465,1.92-0.465c0.72,0,1.35,0.155,1.89,0.465c0.54,0.311,0.96,0.748,1.261,1.313
		c0.3,0.565,0.449,1.237,0.449,2.018s-0.149,1.453-0.449,2.018c-0.301,0.565-0.721,1.003-1.261,1.313
		C480.734,303.647,480.104,303.802,479.385,303.802z M479.385,302.632c0.62,0,1.12-0.225,1.5-0.675s0.57-1.1,0.57-1.95
		c0-0.85-0.19-1.497-0.57-1.942c-0.38-0.444-0.88-0.667-1.5-0.667c-0.63,0-1.135,0.223-1.515,0.667
		c-0.381,0.445-0.57,1.093-0.57,1.942c0,0.851,0.189,1.5,0.57,1.95C478.25,302.407,478.755,302.632,479.385,302.632z"/>
	<path fill="#FFFDFA" d="M488.085,303.802c-0.75,0-1.397-0.157-1.942-0.473c-0.545-0.314-0.968-0.76-1.268-1.335
		c-0.3-0.574-0.45-1.252-0.45-2.032c0-1.16,0.33-2.075,0.99-2.745s1.55-1.005,2.67-1.005c0.46,0,0.915,0.08,1.365,0.24
		s0.819,0.38,1.11,0.66l-0.48,1.064c-0.28-0.26-0.588-0.452-0.923-0.577s-0.652-0.188-0.952-0.188c-0.71,0-1.258,0.223-1.643,0.667
		c-0.385,0.445-0.577,1.078-0.577,1.897c0,0.82,0.192,1.463,0.577,1.928s0.933,0.697,1.643,0.697c0.3,0,0.617-0.062,0.952-0.188
		c0.335-0.124,0.643-0.317,0.923-0.577l0.48,1.08c-0.291,0.27-0.663,0.485-1.118,0.645
		C488.987,303.722,488.535,303.802,488.085,303.802z"/>
	<path fill="#FFFDFA" d="M495.225,303.802c-0.74,0-1.38-0.154-1.92-0.465c-0.54-0.31-0.958-0.747-1.253-1.313
		c-0.295-0.564-0.442-1.237-0.442-2.018s0.147-1.452,0.442-2.018c0.295-0.564,0.713-1.002,1.253-1.313
		c0.54-0.31,1.18-0.465,1.92-0.465c0.72,0,1.35,0.155,1.89,0.465c0.54,0.311,0.96,0.748,1.261,1.313
		c0.3,0.565,0.449,1.237,0.449,2.018s-0.149,1.453-0.449,2.018c-0.301,0.565-0.721,1.003-1.261,1.313
		C496.574,303.647,495.944,303.802,495.225,303.802z M495.225,302.632c0.62,0,1.12-0.225,1.5-0.675s0.57-1.1,0.57-1.95
		c0-0.85-0.19-1.497-0.57-1.942c-0.38-0.444-0.88-0.667-1.5-0.667c-0.63,0-1.135,0.223-1.515,0.667
		c-0.381,0.445-0.57,1.093-0.57,1.942c0,0.851,0.189,1.5,0.57,1.95C494.09,302.407,494.595,302.632,495.225,302.632z"/>
	<path fill="#FFFDFA" d="M500.685,303.667v-7.32h1.245l2.655,4.636l2.64-4.636h1.245v7.32h-1.335v-4.965l-2.189,3.78h-0.735
		l-2.19-3.78v4.965H500.685z"/>
	<path fill="#FFFDFA" d="M513.104,303.802c-0.51,0-0.965-0.1-1.365-0.3s-0.718-0.47-0.952-0.81c-0.235-0.34-0.353-0.726-0.353-1.155
		c0-0.54,0.137-0.965,0.412-1.275c0.275-0.31,0.73-0.534,1.365-0.675c0.635-0.14,1.492-0.21,2.572-0.21h0.51v-0.39
		c0-0.57-0.119-0.98-0.359-1.23s-0.636-0.375-1.186-0.375c-0.42,0-0.84,0.063-1.26,0.188s-0.85,0.322-1.29,0.593l-0.465-1.065
		c0.38-0.27,0.855-0.484,1.425-0.645c0.57-0.16,1.115-0.24,1.635-0.24c1,0,1.74,0.237,2.221,0.713
		c0.479,0.475,0.72,1.217,0.72,2.228v4.515h-1.425v-1.215c-0.181,0.42-0.46,0.75-0.84,0.99
		C514.089,303.682,513.635,303.802,513.104,303.802z M513.404,302.722c0.54,0,0.99-0.189,1.35-0.569c0.36-0.38,0.54-0.86,0.54-1.44
		v-0.405H514.8c-0.73,0-1.303,0.035-1.718,0.105s-0.71,0.188-0.885,0.353c-0.176,0.165-0.263,0.393-0.263,0.683
		c0,0.38,0.13,0.688,0.39,0.922C512.584,302.604,512.944,302.722,513.404,302.722z"/>
	<path fill="#FFFDFA" d="M520.515,303.667v-6.105h-2.58v-1.215h6.69v1.215h-2.596v6.105H520.515z"/>
	<path fill="#FFFDFA" d="M525.839,303.667v-7.32h1.38v5.311l3.961-5.311h1.274v7.32h-1.38v-5.295l-3.96,5.295H525.839z"/>
	<path fill="#FFFDFA" d="M534.734,303.667v-7.32h1.516v2.971h1.229l2.266-2.971h1.649l-2.475,3.285
		c0.24,0.11,0.462,0.277,0.667,0.503c0.205,0.225,0.418,0.532,0.638,0.922l1.515,2.61h-1.619l-1.275-2.19
		c-0.23-0.39-0.452-0.649-0.668-0.779c-0.215-0.13-0.512-0.195-0.892-0.195h-1.035v3.165H534.734z"/>
	<path fill="#FFFDFA" d="M545.204,303.802c-0.51,0-0.965-0.1-1.365-0.3s-0.718-0.47-0.952-0.81c-0.235-0.34-0.353-0.726-0.353-1.155
		c0-0.54,0.137-0.965,0.412-1.275c0.275-0.31,0.73-0.534,1.365-0.675c0.635-0.14,1.492-0.21,2.572-0.21h0.51v-0.39
		c0-0.57-0.119-0.98-0.359-1.23s-0.636-0.375-1.186-0.375c-0.42,0-0.84,0.063-1.26,0.188s-0.85,0.322-1.29,0.593l-0.465-1.065
		c0.38-0.27,0.855-0.484,1.425-0.645c0.57-0.16,1.115-0.24,1.635-0.24c1,0,1.74,0.237,2.221,0.713
		c0.479,0.475,0.72,1.217,0.72,2.228v4.515h-1.425v-1.215c-0.181,0.42-0.46,0.75-0.84,0.99
		C546.188,303.682,545.734,303.802,545.204,303.802z M545.504,302.722c0.54,0,0.99-0.189,1.35-0.569c0.36-0.38,0.54-0.86,0.54-1.44
		v-0.405h-0.494c-0.73,0-1.303,0.035-1.718,0.105s-0.71,0.188-0.885,0.353c-0.176,0.165-0.263,0.393-0.263,0.683
		c0,0.38,0.13,0.688,0.39,0.922C544.684,302.604,545.044,302.722,545.504,302.722z"/>
	<path fill="#FFFDFA" d="M551.534,306.577l-1.064-0.42c0.47-1.15,0.814-2.24,1.034-3.271c0.221-1.029,0.33-2.085,0.33-3.165
		s-0.109-2.135-0.33-3.165c-0.22-1.029-0.564-2.119-1.034-3.27l1.064-0.42c0.68,1.12,1.173,2.247,1.478,3.382
		c0.305,1.136,0.458,2.293,0.458,3.473c0,1.19-0.153,2.353-0.458,3.488C552.707,304.345,552.214,305.467,551.534,306.577z"/>
	<path fill="#FFFDFA" d="M329.748,321.667v-1.155l3.524-3.779c0.49-0.53,0.843-1.011,1.058-1.44s0.322-0.865,0.322-1.305
		c0-1.141-0.67-1.71-2.01-1.71c-1.02,0-1.935,0.385-2.745,1.154l-0.555-1.185c0.399-0.39,0.91-0.702,1.53-0.938
		c0.619-0.235,1.265-0.353,1.935-0.353c1.09,0,1.928,0.25,2.513,0.75s0.877,1.215,0.877,2.145c0,0.631-0.152,1.245-0.457,1.846
		c-0.306,0.6-0.782,1.24-1.433,1.92l-2.61,2.745h4.92v1.305H329.748z"/>
	<path fill="#FFFDFA" d="M338.357,321.667v-1.785h1.785v1.785H338.357z"/>
	<path fill="#FFFDFA" d="M349.128,321.802c-0.71,0-1.378-0.115-2.003-0.345s-1.147-0.55-1.567-0.96l0.54-1.245
		c0.46,0.41,0.93,0.708,1.41,0.893c0.479,0.186,1.01,0.277,1.59,0.277c1.03,0,1.848-0.3,2.452-0.899
		c0.605-0.601,0.953-1.471,1.043-2.61h-5.07v-1.245h5.056c-0.11-1.05-0.456-1.867-1.035-2.452c-0.58-0.585-1.346-0.878-2.295-0.878
		c-0.58,0-1.118,0.09-1.613,0.271c-0.494,0.18-1.007,0.479-1.537,0.899l-0.54-1.245c0.49-0.42,1.055-0.742,1.695-0.967
		c0.64-0.226,1.314-0.338,2.024-0.338c1.021,0,1.9,0.22,2.641,0.66c0.739,0.44,1.313,1.064,1.717,1.875
		c0.405,0.81,0.607,1.77,0.607,2.88s-0.202,2.072-0.607,2.888c-0.404,0.814-0.989,1.442-1.755,1.882
		C351.115,321.582,350.197,321.802,349.128,321.802z"/>
	<path fill="#FFFDFA" d="M356.252,321.667v-7.32h1.245l2.655,4.636l2.64-4.636h1.245v7.32h-1.335v-4.965l-2.189,3.78h-0.735
		l-2.19-3.78v4.965H356.252z"/>
	<path fill="#FFFDFA" d="M369.512,321.802c-0.74,0-1.38-0.154-1.92-0.465c-0.54-0.31-0.958-0.747-1.253-1.313
		c-0.295-0.564-0.442-1.237-0.442-2.018s0.147-1.452,0.442-2.018c0.295-0.564,0.713-1.002,1.253-1.313
		c0.54-0.31,1.18-0.465,1.92-0.465c0.72,0,1.35,0.155,1.89,0.465c0.54,0.311,0.96,0.748,1.261,1.313
		c0.3,0.565,0.449,1.237,0.449,2.018s-0.149,1.453-0.449,2.018c-0.301,0.565-0.721,1.003-1.261,1.313
		C370.861,321.647,370.231,321.802,369.512,321.802z M369.512,320.632c0.62,0,1.12-0.225,1.5-0.675s0.57-1.1,0.57-1.95
		c0-0.85-0.19-1.497-0.57-1.942c-0.38-0.444-0.88-0.667-1.5-0.667c-0.63,0-1.135,0.223-1.515,0.667
		c-0.381,0.445-0.57,1.093-0.57,1.942c0,0.851,0.189,1.5,0.57,1.95C368.377,320.407,368.882,320.632,369.512,320.632z"/>
	<path fill="#FFFDFA" d="M381.302,323.617v-1.95h-6.33v-7.32h1.516v6.12h3.42v-6.12h1.515v6.12h1.17v3.15H381.302z"/>
	<path fill="#FFFDFA" d="M384.106,321.667v-7.32h1.38v5.311l3.961-5.311h1.274v7.32h-1.38v-5.295l-3.96,5.295H384.106z"/>
	<path fill="#FFFDFA" d="M396.196,321.802c-0.74,0-1.38-0.154-1.92-0.465c-0.54-0.31-0.958-0.747-1.253-1.313
		c-0.295-0.564-0.442-1.237-0.442-2.018s0.147-1.452,0.442-2.018c0.295-0.564,0.713-1.002,1.253-1.313
		c0.54-0.31,1.18-0.465,1.92-0.465c0.72,0,1.35,0.155,1.89,0.465c0.54,0.311,0.96,0.748,1.261,1.313
		c0.3,0.565,0.449,1.237,0.449,2.018s-0.149,1.453-0.449,2.018c-0.301,0.565-0.721,1.003-1.261,1.313
		C397.546,321.647,396.916,321.802,396.196,321.802z M396.196,320.632c0.62,0,1.12-0.225,1.5-0.675s0.57-1.1,0.57-1.95
		c0-0.85-0.19-1.497-0.57-1.942c-0.38-0.444-0.88-0.667-1.5-0.667c-0.63,0-1.135,0.223-1.515,0.667
		c-0.381,0.445-0.57,1.093-0.57,1.942c0,0.851,0.189,1.5,0.57,1.95C395.062,320.407,395.566,320.632,396.196,320.632z"/>
	<path fill="#FFFDFA" d="M401.656,321.667v-7.32h1.516v2.955h3.645v-2.955h1.516v7.32h-1.516v-3.165h-3.645v3.165H401.656z"/>
	<path fill="#FFFDFA" d="M412.951,321.802c-0.51,0-0.965-0.1-1.365-0.3s-0.718-0.47-0.952-0.81c-0.235-0.34-0.353-0.726-0.353-1.155
		c0-0.54,0.137-0.965,0.412-1.275c0.275-0.31,0.73-0.534,1.365-0.675c0.635-0.14,1.492-0.21,2.572-0.21h0.51v-0.39
		c0-0.57-0.119-0.98-0.359-1.23s-0.636-0.375-1.186-0.375c-0.42,0-0.84,0.063-1.26,0.188s-0.85,0.322-1.29,0.593l-0.465-1.065
		c0.38-0.27,0.855-0.484,1.425-0.645c0.57-0.16,1.115-0.24,1.635-0.24c1,0,1.74,0.237,2.221,0.713
		c0.479,0.475,0.72,1.217,0.72,2.228v4.515h-1.425v-1.215c-0.181,0.42-0.46,0.75-0.84,0.99
		C413.936,321.682,413.481,321.802,412.951,321.802z M413.251,320.722c0.54,0,0.99-0.189,1.35-0.569c0.36-0.38,0.54-0.86,0.54-1.44
		v-0.405h-0.494c-0.73,0-1.303,0.035-1.718,0.105s-0.71,0.188-0.885,0.353c-0.176,0.165-0.263,0.393-0.263,0.683
		c0,0.38,0.13,0.688,0.39,0.922C412.431,320.604,412.791,320.722,413.251,320.722z"/>
	<path fill="#FFFDFA" d="M418.517,321.862l-0.51-1.2c0.439-0.18,0.784-0.428,1.034-0.742c0.25-0.315,0.431-0.755,0.54-1.32
		c0.11-0.565,0.165-1.298,0.165-2.197v-2.056h5.58v7.32h-1.515v-6.105h-2.655v0.886c0,1.1-0.09,2.015-0.27,2.745
		c-0.181,0.729-0.463,1.308-0.848,1.732S419.146,321.662,418.517,321.862z"/>
	<path fill="#FFFDFA" d="M427.606,321.667v-7.32h1.516v2.535h2.085c0.939,0,1.654,0.203,2.145,0.607
		c0.49,0.405,0.735,0.993,0.735,1.763c0,0.74-0.255,1.327-0.765,1.763c-0.511,0.435-1.216,0.652-2.115,0.652H427.606z
		 M429.122,320.632h1.89c0.52,0,0.925-0.112,1.215-0.337c0.29-0.226,0.436-0.573,0.436-1.043c0-0.46-0.146-0.797-0.436-1.013
		c-0.29-0.215-0.695-0.322-1.215-0.322h-1.89V320.632z"/>
	<path fill="#FFFDFA" d="M435.766,321.667v-7.32h1.516v2.955h3.645v-2.955h1.516v7.32h-1.516v-3.165h-3.645v3.165H435.766z"/>
	<path fill="#FFFDFA" d="M447.901,321.802c-0.74,0-1.38-0.154-1.92-0.465c-0.54-0.31-0.958-0.747-1.253-1.313
		c-0.295-0.564-0.442-1.237-0.442-2.018s0.147-1.452,0.442-2.018c0.295-0.564,0.713-1.002,1.253-1.313
		c0.54-0.31,1.18-0.465,1.92-0.465c0.72,0,1.35,0.155,1.89,0.465c0.54,0.311,0.96,0.748,1.261,1.313
		c0.3,0.565,0.449,1.237,0.449,2.018s-0.149,1.453-0.449,2.018c-0.301,0.565-0.721,1.003-1.261,1.313
		C449.251,321.647,448.621,321.802,447.901,321.802z M447.901,320.632c0.62,0,1.12-0.225,1.5-0.675s0.57-1.1,0.57-1.95
		c0-0.85-0.19-1.497-0.57-1.942c-0.38-0.444-0.88-0.667-1.5-0.667c-0.63,0-1.135,0.223-1.515,0.667
		c-0.381,0.445-0.57,1.093-0.57,1.942c0,0.851,0.189,1.5,0.57,1.95C446.767,320.407,447.271,320.632,447.901,320.632z"/>
	<path fill="#FFFDFA" d="M456.811,321.802c-1.2,0-2.145-0.337-2.835-1.013c-0.689-0.675-1.035-1.597-1.035-2.767
		c0-0.75,0.152-1.413,0.458-1.988c0.305-0.574,0.728-1.022,1.268-1.342c0.54-0.32,1.159-0.48,1.859-0.48
		c1.01,0,1.806,0.322,2.386,0.968c0.579,0.645,0.869,1.532,0.869,2.662v0.51h-5.369c0.109,1.521,0.915,2.28,2.415,2.28
		c0.42,0,0.832-0.064,1.237-0.195c0.404-0.129,0.787-0.345,1.147-0.645l0.45,1.05c-0.33,0.3-0.756,0.535-1.275,0.705
		C457.865,321.717,457.341,321.802,456.811,321.802z M456.586,315.277c-0.63,0-1.131,0.194-1.5,0.585
		c-0.37,0.39-0.596,0.91-0.675,1.56h4.095c-0.03-0.68-0.21-1.207-0.54-1.582S457.176,315.277,456.586,315.277z"/>
	<path fill="#FFFDFA" d="M468.766,321.802c-0.75,0-1.397-0.157-1.942-0.473c-0.545-0.314-0.968-0.76-1.268-1.335
		c-0.3-0.574-0.45-1.252-0.45-2.032c0-1.16,0.33-2.075,0.99-2.745s1.55-1.005,2.67-1.005c0.46,0,0.915,0.08,1.365,0.24
		s0.819,0.38,1.11,0.66l-0.48,1.064c-0.28-0.26-0.588-0.452-0.923-0.577s-0.652-0.188-0.952-0.188c-0.71,0-1.258,0.223-1.643,0.667
		c-0.385,0.445-0.577,1.078-0.577,1.897c0,0.82,0.192,1.463,0.577,1.928s0.933,0.697,1.643,0.697c0.3,0,0.617-0.062,0.952-0.188
		c0.335-0.124,0.643-0.317,0.923-0.577l0.48,1.08c-0.291,0.27-0.663,0.485-1.118,0.645
		C469.668,321.722,469.216,321.802,468.766,321.802z"/>
	<path fill="#FFFDFA" d="M475.905,321.802c-0.74,0-1.38-0.154-1.92-0.465c-0.54-0.31-0.958-0.747-1.253-1.313
		c-0.295-0.564-0.442-1.237-0.442-2.018s0.147-1.452,0.442-2.018c0.295-0.564,0.713-1.002,1.253-1.313
		c0.54-0.31,1.18-0.465,1.92-0.465c0.72,0,1.35,0.155,1.89,0.465c0.54,0.311,0.96,0.748,1.261,1.313
		c0.3,0.565,0.449,1.237,0.449,2.018s-0.149,1.453-0.449,2.018c-0.301,0.565-0.721,1.003-1.261,1.313
		C477.255,321.647,476.625,321.802,475.905,321.802z M475.905,320.632c0.62,0,1.12-0.225,1.5-0.675s0.57-1.1,0.57-1.95
		c0-0.85-0.19-1.497-0.57-1.942c-0.38-0.444-0.88-0.667-1.5-0.667c-0.63,0-1.135,0.223-1.515,0.667
		c-0.381,0.445-0.57,1.093-0.57,1.942c0,0.851,0.189,1.5,0.57,1.95C474.771,320.407,475.275,320.632,475.905,320.632z"/>
	<path fill="#FFFDFA" d="M484.605,321.802c-0.75,0-1.397-0.157-1.942-0.473c-0.545-0.314-0.968-0.76-1.268-1.335
		c-0.3-0.574-0.45-1.252-0.45-2.032c0-1.16,0.33-2.075,0.99-2.745s1.55-1.005,2.67-1.005c0.46,0,0.915,0.08,1.365,0.24
		s0.819,0.38,1.11,0.66l-0.48,1.064c-0.28-0.26-0.588-0.452-0.923-0.577s-0.652-0.188-0.952-0.188c-0.71,0-1.258,0.223-1.643,0.667
		c-0.385,0.445-0.577,1.078-0.577,1.897c0,0.82,0.192,1.463,0.577,1.928s0.933,0.697,1.643,0.697c0.3,0,0.617-0.062,0.952-0.188
		c0.335-0.124,0.643-0.317,0.923-0.577l0.48,1.08c-0.291,0.27-0.663,0.485-1.118,0.645
		C485.508,321.722,485.056,321.802,484.605,321.802z"/>
	<path fill="#FFFDFA" d="M490.08,321.667v-6.105h-2.58v-1.215h6.69v1.215h-2.596v6.105H490.08z"/>
	<path fill="#FFFDFA" d="M498.555,321.802c-0.74,0-1.38-0.154-1.92-0.465c-0.54-0.31-0.958-0.747-1.253-1.313
		c-0.295-0.564-0.442-1.237-0.442-2.018s0.147-1.452,0.442-2.018c0.295-0.564,0.713-1.002,1.253-1.313
		c0.54-0.31,1.18-0.465,1.92-0.465c0.72,0,1.35,0.155,1.89,0.465c0.54,0.311,0.96,0.748,1.261,1.313
		c0.3,0.565,0.449,1.237,0.449,2.018s-0.149,1.453-0.449,2.018c-0.301,0.565-0.721,1.003-1.261,1.313
		C499.904,321.647,499.274,321.802,498.555,321.802z M498.555,320.632c0.62,0,1.12-0.225,1.5-0.675s0.57-1.1,0.57-1.95
		c0-0.85-0.19-1.497-0.57-1.942c-0.38-0.444-0.88-0.667-1.5-0.667c-0.63,0-1.135,0.223-1.515,0.667
		c-0.381,0.445-0.57,1.093-0.57,1.942c0,0.851,0.189,1.5,0.57,1.95C497.42,320.407,497.925,320.632,498.555,320.632z"/>
	<path fill="#FFFDFA" d="M503.4,321.667l1.109-1.92c0.29-0.52,0.67-0.865,1.141-1.035c-0.62-0.1-1.096-0.332-1.426-0.697
		s-0.494-0.843-0.494-1.433c0-0.68,0.229-1.223,0.689-1.628c0.46-0.404,1.145-0.607,2.055-0.607h3.495v7.32h-1.41v-2.67h-0.944
		c-0.351,0-0.65,0.093-0.9,0.277c-0.25,0.186-0.455,0.412-0.615,0.683l-0.975,1.71H503.4z M506.79,317.962h1.77v-2.58h-1.77
		c-0.55,0-0.955,0.112-1.215,0.338c-0.261,0.225-0.391,0.537-0.391,0.938c0,0.41,0.13,0.729,0.391,0.96
		C505.835,317.847,506.24,317.962,506.79,317.962z"/>
	<path fill="#FFFDFA" d="M512.25,321.667v-7.32h1.516v2.955h3.645v-2.955h1.516v7.32h-1.516v-3.165h-3.645v3.165H512.25z"/>
	<path fill="#FFFDFA" d="M521.189,321.667v-7.32h1.38v5.311l3.961-5.311h1.274v7.32h-1.38v-5.295l-3.96,5.295H521.189z"/>
	<path fill="#FFFDFA" d="M533.534,321.802c-1.2,0-2.145-0.337-2.835-1.013c-0.689-0.675-1.035-1.597-1.035-2.767
		c0-0.75,0.152-1.413,0.458-1.988c0.305-0.574,0.728-1.022,1.268-1.342c0.54-0.32,1.159-0.48,1.859-0.48
		c1.01,0,1.806,0.322,2.386,0.968c0.579,0.645,0.869,1.532,0.869,2.662v0.51h-5.369c0.109,1.521,0.915,2.28,2.415,2.28
		c0.42,0,0.832-0.064,1.237-0.195c0.404-0.129,0.787-0.345,1.147-0.645l0.45,1.05c-0.33,0.3-0.756,0.535-1.275,0.705
		C534.589,321.717,534.064,321.802,533.534,321.802z M533.31,315.277c-0.63,0-1.131,0.194-1.5,0.585
		c-0.37,0.39-0.596,0.91-0.675,1.56h4.095c-0.03-0.68-0.21-1.207-0.54-1.582S533.899,315.277,533.31,315.277z"/>
</g>
<line fill="none" stroke="#292724" stroke-width="3" stroke-miterlimit="10" x1="443.481" y1="156.903" x2="421.937" y2="156.903"/>
<polygon fill="#292724" stroke="#292724" stroke-miterlimit="10" points="443.481,150.303 454.084,157.151 443.481,163.507 "/>
<line fill="none" stroke="#292724" stroke-width="3" stroke-miterlimit="10" x1="634.291" y1="156.903" x2="612.747" y2="156.903"/>
<polygon fill="#292724" stroke="#292724" stroke-miterlimit="10" points="634.291,150.303 644.894,157.151 634.291,163.507 "/>
<line fill="none" stroke="#292724" stroke-width="3" stroke-miterlimit="10" x1="724.238" y1="85.893" x2="724.238" y2="64.349"/>
<polygon fill="#292724" stroke="#292724" stroke-miterlimit="10" points="730.837,85.893 723.989,96.496 717.633,85.893 "/>
<line fill="none" stroke="#292724" stroke-width="3" stroke-miterlimit="10" x1="534.737" y1="85.893" x2="534.737" y2="64.349"/>
<polygon fill="#292724" stroke="#292724" stroke-miterlimit="10" points="541.336,85.893 534.488,96.496 528.132,85.893 "/>
<line fill="none" stroke="#292724" stroke-width="3" stroke-miterlimit="10" x1="341.908" y1="85.592" x2="341.908" y2="64.048"/>
<polygon fill="#292724" stroke="#292724" stroke-miterlimit="10" points="348.508,85.592 341.66,96.195 335.304,85.592 "/>
<line fill="none" stroke="#292724" stroke-width="3" stroke-miterlimit="10" x1="153.669" y1="85.893" x2="153.669" y2="64.349"/>
<polygon fill="#292724" stroke="#292724" stroke-miterlimit="10" points="160.269,85.893 153.421,96.496 147.065,85.893 "/>
<line fill="none" stroke="#292724" stroke-width="3" stroke-miterlimit="10" x1="341.908" y1="237.258" x2="341.908" y2="215.715"/>
<polygon fill="#292724" stroke="#292724" stroke-miterlimit="10" points="348.508,237.258 341.66,247.861 335.304,237.258 "/>
<line fill="none" stroke="#292724" stroke-width="3" stroke-miterlimit="10" x1="534.732" y1="226.788" x2="534.732" y2="248.332"/>
<polygon fill="#292724" stroke="#292724" stroke-miterlimit="10" points="528.132,226.788 534.98,216.185 541.336,226.788 "/>
</svg>
