<?xml version="1.0" encoding="utf-8"?>
<!-- Generator: Adobe Illustrator 17.0.0, SVG Export Plug-In . SVG Version: 6.00 Build 0)  -->
<!DOCTYPE svg PUBLIC "-//W3C//DTD SVG 1.1//EN" "http://www.w3.org/Graphics/SVG/1.1/DTD/svg11.dtd">
<svg version="1.1" id="f8d7d8f4-b875-4767-a598-99b9608f6632"
	 xmlns="http://www.w3.org/2000/svg" xmlns:xlink="http://www.w3.org/1999/xlink" x="0px" y="0px" width="840.477px" height="600px"
	 viewBox="0 50.975 840.477 600" enable-background="new 0 50.975 840.477 600" xml:space="preserve">
<title>dream_world</title>
<path fill="#F2F2F2" d="M634.536,562.711H219.721C109.782,541.115,20,466.732,20,355.499c-0.016-16.826,2.035-33.603,6.117-50.035
	l334.359-47.773l257.937-36.851c18.53,10.753,36.163,22.675,52.763,35.674L424.28,340.052l-116.471,39.411l130.8-28.837
	l271.482-59.851c16.492,16.35,31.481,33.845,44.823,52.319l-82.099,54.447l92.757-38.943c0.393,0.6,0.783,1.202,1.172,1.804
	C824.941,450.483,751.585,562.711,634.536,562.711z"/>
<path fill="#F2F2F2" d="M568.249,195.556c-62.789,11.503-139.986,26.042-219.359,41.156
	c-114.76,21.858-234.062,44.929-320.918,61.794c1.919-6.66,4.152-13.182,6.7-19.567c68.035-62.481,156.762-104.088,253.284-118.773
	h0.008c25.838-3.907,52.002-5.867,78.213-5.858C436.197,154.22,505.314,168.329,568.249,195.556z"/>
<ellipse fill="#FF6584" cx="130.974" cy="155.542" rx="67.146" ry="59.559"/>
<path fill="#3F3D56" d="M633.748,562.711c-41.321,35.113-179.773,36.603-400.57,2.362c-4.517-0.702-9.003-1.489-13.457-2.362
	C109.782,541.115,20,466.732,20,355.499c-0.016-16.826,2.035-33.603,6.117-50.035c0.576-2.333,1.194-4.652,1.855-6.957
	c1.919-6.66,4.152-13.182,6.7-19.567c31.103-77.879,108.252-133.014,198.506-133.014c22.42,0,40.098,5.27,54.778,14.241h0.008
	c26.761,16.355,43.552,45.021,60.926,76.546c3.798,6.887,7.62,13.915,11.586,20.979c16.351,29.128,35.037,58.886,63.805,82.361
	c4.569,3.74,9.351,7.27,14.328,10.574c2.511,1.674,5.093,3.298,7.748,4.872C618.109,457.434,675.493,527.228,633.748,562.711z"/>
<ellipse opacity="0.1" enable-background="new    " cx="495.276" cy="528.2" rx="71.56" ry="10.715"/>
<ellipse opacity="0.1" enable-background="new    " cx="110.689" cy="409.051" rx="71.56" ry="10.715"/>
<path fill="#D0CDE1" d="M120.226,376.376c-11.819,13.71-10.467,32.24-10.467,32.24s20.513-3.7,32.332-17.41
	c11.819-13.71,10.467-32.24,10.467-32.24S132.045,362.666,120.226,376.376z"/>
<path fill="#FF7F50" d="M127.971,379.456c-2.294,17.139-17.819,29.594-17.819,29.594s-11.807-15.333-9.513-32.471
	c2.293-17.139,17.819-29.594,17.819-29.594S130.265,362.317,127.971,379.456z"/>
<ellipse opacity="0.1" enable-background="new    " cx="311.378" cy="479.091" rx="61.195" ry="9.163"/>
<path fill="#D0CDE1" d="M319.534,451.149c-10.107,11.724-8.951,27.57-8.951,27.57s17.542-3.164,27.649-14.888
	s8.951-27.57,8.951-27.57S329.64,439.424,319.534,451.149z"/>
<path fill="#FF7F50" d="M326.157,453.782c-1.961,14.656-15.238,25.307-15.238,25.307s-10.097-13.112-8.135-27.768
	c1.961-14.656,15.238-25.307,15.238-25.307S328.118,439.126,326.157,453.782z"/>
<path fill="#FF7F50" d="M588.403,447.935c0.033,59.492-39.829,80.279-89.01,80.3c-1.142,0-2.279-0.01-3.411-0.032
	c-2.279-0.043-4.535-0.134-6.767-0.273c-44.389-2.769-78.89-24.59-78.92-79.918c-0.031-57.257,82.429-129.55,88.614-134.896
	c0.005,0,0.005,0,0.011-0.005c0.235-0.204,0.355-0.306,0.355-0.306S588.371,388.448,588.403,447.935z"/>
<path fill="#3F3D56" d="M496.148,519.137l32.548-40.38l-32.628,44.811l-0.085,4.635c-2.279-0.043-4.535-0.134-6.767-0.273
	l3.476-59.518l-0.028-0.461l0.06-0.087l0.33-5.624l-32.759-44.895l32.855,40.682l0.083,1.193l2.626-44.968l-28.048-46.395
	l28.388,38.492l2.709-93.232l0.011-0.31l0,0.305l-0.419,73.523l27.876-29.159l-27.993,35.491l-0.716,40.265l26.034-38.651
	l-26.135,44.571l-0.398,22.389l37.783-53.802l-37.926,61.613L496.148,519.137z"/>
<ellipse opacity="0.1" enable-background="new    " cx="208.591" cy="333.891" rx="93.393" ry="13.984"/>
<path fill="#FF7F50" d="M330.13,229.139c0.043,77.642-51.98,104.771-116.165,104.799c-1.491,0.001-2.975-0.013-4.451-0.042
	c-2.975-0.056-5.918-0.175-8.831-0.357c-57.931-3.613-102.958-32.092-102.998-104.299c-0.041-74.726,107.577-169.074,115.648-176.05
	c0.007,0,0.007,0,0.014-0.006c0.307-0.266,0.464-0.399,0.464-0.399S330.088,151.503,330.13,229.139z"/>
<path fill="#3F3D56" d="M209.729,322.063l42.478-52.7l-42.582,58.483l-0.111,6.049c-2.975-0.056-5.918-0.175-8.831-0.357
	l4.537-77.676l-0.036-0.601l0.078-0.114l0.431-7.34l-42.753-58.591l42.879,53.093l0.108,1.557l3.427-58.687l-36.605-60.549
	l37.049,50.236l3.536-121.676l0.014-0.405l0,0.399l-0.547,95.954l36.38-38.055L212.649,157.4l-0.934,52.549l33.977-50.443
	l-34.108,58.169l-0.519,29.22l49.31-70.216l-49.497,80.41L209.729,322.063z"/>
<ellipse fill="#2F2E41" cx="703.344" cy="235.466" rx="64.316" ry="57.049"/>
<path fill="#2F2E41" d="M822.013,561.53c-19.272,48.012-55.607,89.445-55.607,89.445h-88.974l11.932-21.722l5.976-10.874
	l8.637-15.723l4.246-7.729l11.471-20.896l-17.13,20.265l-7.398,8.743L681.14,619.64l-11.702,13.839
	c-37.548,7.241-75.633,12.085-113.963,14.496c-0.144-4.005,0.576-11.88,6.312-22.83c3.05-5.727,6.707-11.183,10.924-16.294
	c3.945-4.816,8.211-9.417,12.778-13.78c2.536-2.437,5.207-4.926,7.965-7.44c35.893-32.732,87.686-70.16,87.686-70.16l-14.824-51.958
	l106.699-16.072c5.24-0.791,10.21,2.335,11.102,6.983c0.051,0.264,0.087,0.53,0.11,0.798c0.576,6.86,2.613,15.68,8.877,20.129
	C804.22,485.242,841.295,513.526,822.013,561.53z"/>
<path fill="#3F3D56" d="M751.562,605.971c0,0.173-0.03,0.346-0.086,0.511c-1.499,5.071-24.643,14.18-62.112,22.77
	c-6.254,1.423-12.912,2.838-19.926,4.227c-37.548,7.241-75.633,12.085-113.963,14.496c-19.426,1.253-39.707,1.969-60.574,1.969
	c-139.605,0-253.173-32.017-256.565-43.461c-0.057-0.166-0.086-0.338-0.086-0.511c-0.001-0.109,0.011-0.218,0.038-0.324
	c0.009-0.067,0.028-0.133,0.058-0.196c3.718-9.945,117.152,4.781,256.555,4.781c27.122,0,53.273-0.554,77.81-1.38
	c48.738-1.645,91.174-4.338,122.456-5.812c3.046-0.136,5.985-0.273,8.81-0.383c28.697-1.202,46.077-0.997,47.489,2.795
	c0.029,0.063,0.049,0.129,0.058,0.196C751.55,605.754,751.563,605.862,751.562,605.971z"/>
<path opacity="0.1" enable-background="new    " d="M751.562,605.971c0,0.173-0.03,0.346-0.086,0.511
	c-1.499,5.071-24.643,14.18-62.112,22.77c-6.254,1.423-12.912,2.838-19.926,4.227c-37.548,7.241-75.633,12.085-113.963,14.496
	c-19.426,1.253-39.707,1.969-60.574,1.969c-139.605,0-253.173-32.017-256.565-43.461c-0.057-0.166-0.086-0.338-0.086-0.511
	c-0.001-0.109,0.011-0.218,0.038-0.324c0.009-0.067,0.028-0.133,0.058-0.196c3.718-9.945,117.152,4.781,256.555,4.781
	c27.122,0,53.273-0.554,77.81-1.38c48.738-1.645,91.174-4.338,122.456-5.812c3.046-0.136,5.985-0.273,8.81-0.383
	c28.697-1.202,46.077-0.997,47.489,2.795c0.029,0.063,0.049,0.129,0.058,0.196C751.55,605.754,751.563,605.862,751.562,605.971z"/>
<ellipse fill="#3F3D56" cx="494.905" cy="605.973" rx="256.658" ry="19.858"/>
<ellipse opacity="0.1" enable-background="new    " cx="646.861" cy="608.724" rx="43.233" ry="8.522"/>
<ellipse fill="#FF7F50" cx="646.861" cy="605.315" rx="23.058" ry="3.409"/>
<path fill="#FFAEC1" d="M666.718,567.569c0,0-47.49,32.766-30.436,36.055s44.487-32.884,44.487-32.884L666.718,567.569z"/>
<ellipse fill="#FFAEC1" cx="691.891" cy="256.37" rx="42.263" ry="37.488"/>
<path fill="#FFAEC1" d="M691.891,289.912c0,0,14.829,33.542,2.966,39.461c-11.863,5.919-17.795,6.577-17.795,6.577l-12.605,19.073
	l-7.414,19.73l59.316,1.973l41.521-58.533c0,0-20.019-9.207-30.4-48.668L691.891,289.912z"/>
<path fill="#D0CDE1" d="M769.373,319.178c0,0-7.542-4.395-14.522-2.855c-3.412,0.664-6.743,1.62-9.946,2.855
	c0,0-38.556,46.695-59.316,48.01c0,0-27.434,6.577-20.761-3.288c6.673-9.865,21.295-30.629,21.295-30.629
	s-26.485,5.637-26.485,13.53s-5.19,22.361-5.19,22.361s-25.209,22.361,0,48.668c25.209,26.307,15.57,49.983,15.57,49.983
	l111.218-17.757L769.373,319.178z"/>
<path fill="#D0CDE1" d="M652.223,402.046l-6.673,90.76l6.673,84.183c0,0,27.434,5.261,34.107,0
	c6.673-5.261-14.088-141.401-14.088-141.401L652.223,402.046z"/>
<ellipse fill="#2F2E41" cx="729.992" cy="183.589" rx="26.613" ry="23.606"/>
<path fill="#2F2E41" d="M694.508,170.802c0.001-12.085,10.291-22.219,23.841-23.479c-0.921-0.085-1.846-0.127-2.772-0.128
	c-14.698,0-26.613,10.569-26.613,23.606c0,13.037,11.915,23.606,26.613,23.606c0.926,0,1.851-0.043,2.772-0.128
	C704.798,193.021,694.508,182.888,694.508,170.802z"/>
<path fill="#2F2E41" d="M653.425,225.167c3.775-12.6,26.028-18.291,49.703-12.71c23.675,5.581,39.808,20.319,36.033,32.919
	c-3.775,12.6-26.028,18.291-49.703,12.71C665.783,252.506,649.65,237.768,653.425,225.167z"/>
<path fill="#FFAEC1" d="M687.479,572.831c0,0-47.49,32.766-30.436,36.055c17.053,3.288,44.487-32.884,44.487-32.884L687.479,572.831
	z"/>
<path fill="#D0CDE1" d="M750.837,323.124c0,0,20.761-15.784,30.4,5.919s-5.19,128.905-5.19,128.905l-71.179,127.589
	c0,0-34.107,1.315-26.692-20.388s57.463-123.972,60.428-126.603S750.837,323.124,750.837,323.124z"/>
<path opacity="0.1" enable-background="new    " d="M656.678,420.252c0,0,16.362,30.776,15.037,39.004
	C670.389,467.485,656.678,420.252,656.678,420.252z"/>
<ellipse fill="#FFAEC1" cx="737.12" cy="254.397" rx="3.707" ry="6.577"/>
<ellipse opacity="0.1" enable-background="new    " cx="380.737" cy="608.724" rx="43.233" ry="8.522"/>
<ellipse fill="#FF7F50" cx="380.737" cy="588.271" rx="23.058" ry="20.452"/>
<ellipse opacity="0.1" enable-background="new    " cx="503.711" cy="608.724" rx="43.233" ry="8.522"/>
<ellipse fill="#FF7F50" cx="503.711" cy="588.271" rx="23.058" ry="20.452"/>
<rect x="377.623" y="575.152" fill="#D0CDE1" width="5.764" height="25.566"/>
<rect x="495.794" y="575.152" fill="#D0CDE1" width="5.764" height="25.566"/>
<rect x="504.441" y="575.152" fill="#D0CDE1" width="5.764" height="25.566"/>
</svg>
