<?xml version="1.0" encoding="utf-8"?>
<!-- Generator: Adobe Illustrator 17.0.0, SVG Export Plug-In . SVG Version: 6.00 Build 0)  -->
<!DOCTYPE svg PUBLIC "-//W3C//DTD SVG 1.1//EN" "http://www.w3.org/Graphics/SVG/1.1/DTD/svg11.dtd">
<svg version="1.1" id="a2bf0e62-d46b-4c0f-9d8e-4cf60e4b73ff"
	 xmlns="http://www.w3.org/2000/svg" xmlns:xlink="http://www.w3.org/1999/xlink" x="0px" y="0px" width="778px" height="555px"
	 viewBox="0 0 778 555" enable-background="new 0 0 778 555" xml:space="preserve">
<title>art</title>
<path fill="#F2F2F2" d="M454.227,89.978v277.398c0,6.868-5.521,12.436-12.331,12.436l0,0H45.565c-4.801,0-8.692-3.925-8.692-8.766
	V124.238c0-31.169,25.055-56.437,55.962-56.437l0,0h339.403C444.382,67.802,454.227,77.73,454.227,89.978z"/>
<path fill="#393944" d="M307.039,315.847c0.032,22.178-5.003,44.066-14.714,63.965H45.565c-4.801,0-8.692-3.925-8.692-8.766V246.59
	c37.914-70.38,125.223-96.438,195.011-58.202C278.209,213.769,307.049,262.68,307.039,315.847L307.039,315.847z"/>
<path fill="#454554" d="M454.227,292.703v74.673c0,6.868-5.521,12.436-12.331,12.436l0,0H45.018c-4.765,0-8.628-3.895-8.63-8.701
	v-0.089c0-62.197,191.823-115.248,246.365-135.849C346.214,211.282,417.606,235.234,454.227,292.703L454.227,292.703z"/>
<ellipse fill="#D0CDE1" cx="388.864" cy="153.251" rx="35.829" ry="36.133"/>
<path fill="#FF825C" d="M201.813,161.541c0,70.481-41.548,95.091-92.799,95.091s-92.799-24.609-92.799-95.091
	S109.014,1.396,109.014,1.396S201.813,91.059,201.813,161.541z"/>
<polygon fill="#454554" points="105.633,245.85 106.584,186.864 146.137,113.889 106.732,177.61 107.16,151.088 134.42,98.291 
	107.273,144.069 107.273,144.069 108.041,96.366 137.232,54.334 108.162,88.865 108.643,1.396 105.625,117.19 105.873,112.413 
	76.195,66.6 105.397,121.582 102.632,174.858 102.55,173.444 68.336,125.232 102.446,178.44 102.1,185.102 102.038,185.202 
	102.067,185.749 95.051,320.914 104.424,320.914 105.549,251.099 139.575,198.022 "/>
<path fill="#FF825C" d="M353.12,129.239c0,56.695-33.421,76.491-74.647,76.491s-74.647-19.796-74.647-76.491
	s74.647-128.82,74.647-128.82S353.12,72.544,353.12,129.239z"/>
<polygon fill="#454554" points="275.754,197.057 276.518,149.608 308.335,90.908 276.638,142.165 276.982,120.83 298.91,78.361 
	277.073,115.185 277.073,115.185 277.691,76.813 301.172,43.002 277.788,70.779 278.175,0.419 275.747,93.563 275.947,89.72 
	252.074,52.869 275.564,97.097 273.34,139.951 273.274,138.813 245.752,100.032 273.19,142.832 272.912,148.191 272.862,148.272 
	272.885,148.712 267.241,257.437 274.782,257.437 275.686,201.279 303.057,158.584 "/>
<path fill="#FF825C" d="M506.903,209.215c0,38.169-22.5,51.496-50.255,51.496s-50.255-13.327-50.255-51.496
	s50.255-86.726,50.255-86.726S506.903,171.046,506.903,209.215z"/>
<polygon fill="#454554" points="454.817,254.872 455.332,222.929 476.752,183.409 455.413,217.918 455.644,203.554 470.407,174.962 
	455.705,199.753 455.705,199.753 456.121,173.92 471.93,151.157 456.187,169.858 456.447,122.489 454.813,185.196 454.947,182.61 
	438.875,157.8 454.689,187.576 453.192,216.427 453.147,215.661 434.619,189.552 453.091,218.367 452.904,221.974 452.871,222.029 
	452.886,222.325 449.086,295.523 454.163,295.523 454.772,257.715 473.199,228.971 "/>
<path fill="#FF825C" d="M136.423,279.639c-2.224,3.578-5.11,3.494-7.712,1.849c-2.602-1.645-3.934-4.228-1.71-7.805
	c2.224-3.578,9.764-5.151,9.764-5.151S138.647,276.061,136.423,279.639z"/>
<path fill="#FF825C" d="M67.186,289.404c-2.224,3.578-5.11,3.494-7.712,1.849s-3.934-4.228-1.71-7.805
	c2.224-3.578,9.764-5.151,9.764-5.151S69.41,285.826,67.186,289.404z"/>
<path fill="#FF825C" d="M312.633,272.193c0.412,4.202-1.922,5.917-4.978,6.221c-3.056,0.304-5.677-0.916-6.088-5.119
	c-0.412-4.202,4.598-10.1,4.598-10.1S312.221,267.991,312.633,272.193z"/>
<path fill="#FF825C" d="M232.772,220.069c-2.224,3.578-5.11,3.494-7.712,1.849s-3.934-4.228-1.71-7.806s9.764-5.151,9.764-5.151
	S234.997,216.491,232.772,220.069z"/>
<path fill="#FF825C" d="M416.757,275.244c-2.224,3.578-5.11,3.494-7.712,1.849s-3.934-4.228-1.71-7.805s9.764-5.151,9.764-5.151
	S418.981,271.666,416.757,275.244z"/>
<path fill="#F2F2F2" d="M733.161,336.136c0,117.201-52.766,209.659-117.746,212.212c-84.739,3.328-195.49-81.882-117.746-212.212
	c59.907-100.43,52.717-212.212,117.746-212.212S733.161,218.935,733.161,336.136z"/>
<ellipse fill="#454554" cx="582.102" cy="543.691" rx="104.883" ry="11.309"/>
<path fill="#FF825C" d="M672.138,403.245c0.412,4.202-1.922,5.917-4.978,6.221s-5.677-0.916-6.088-5.119
	c-0.412-4.202,4.598-10.1,4.598-10.1S671.727,399.043,672.138,403.245z"/>
<path fill="#FF825C" d="M629.202,391.186c-2.224,3.578-5.11,3.494-7.712,1.849s-3.934-4.228-1.71-7.805
	c2.224-3.578,9.764-5.151,9.764-5.151S631.426,387.608,629.202,391.186z"/>
<path fill="#FECEB8" d="M626.789,487.886c0,0,4.967,21.795,12.703,26.492c7.737,4.697-18.884,13.605-18.884,13.605
	s-11.586,7.244-14.595,9.863c-3.009,2.619-15.906,8.223-13.781,4.061c2.126-4.162,5.861-12.076,11.758-18.652
	c5.897-6.575,13.651-18.346,6.897-27.514S626.789,487.886,626.789,487.886z"/>
<path fill="#D0CDE1" d="M599.894,222.739l-2.603-0.938c0,0-6.694-0.938-12.831,6.939c-6.136,7.876-20.176,31.786-20.176,31.786
	l-5.207,12.377l18.409,0.563l13.853-30.755L599.894,222.739z"/>
<path opacity="0.1" enable-background="new    " d="M599.894,222.739l-2.603-0.938c0,0-6.694-0.938-12.831,6.939
	c-6.136,7.876-20.176,31.786-20.176,31.786l-5.207,12.377l18.409,0.563l13.853-30.755L599.894,222.739z"/>
<path fill="#2F2E41" d="M597.105,413.174c0,0,10.506,2.344,8.74,10.502c-1.766,8.157,10.971,18.753,12.18,20.534
	s2.975,2.532,1.859,5.251c-1.116,2.719,25.94,41.069,20.547,44.538s-49.091,17.065-52.996,14.346
	c-3.905-2.719-7.066-91.701-7.066-91.701L597.105,413.174z"/>
<path fill="#454554" d="M597.105,413.174c0,0,10.506,2.344,8.74,10.502c-1.766,8.157,10.971,18.753,12.18,20.534
	s2.975,2.532,1.859,5.251c-1.116,2.719,25.94,41.069,20.547,44.538s-49.091,17.065-52.996,14.346
	c-3.905-2.719-7.066-91.701-7.066-91.701L597.105,413.174z"/>
<path fill="#FECEB8" d="M573.21,509.939c0,0-6.508,21.378-2.138,29.348s-23.099,2.256-23.099,2.256s-13.625,0.429-17.53,1.179
	s-17.852-0.903-13.947-3.434c3.905-2.532,11.064-7.501,19.432-10.22s20.919-9.001,19.618-20.347
	C554.243,497.374,573.21,509.939,573.21,509.939z"/>
<path fill="#454554" d="M561.03,296.25c3.602-2.595,7.94-3.943,12.366-3.844c7.159,0.281,30.589,5.907,29.938,7.032
	c-0.642,0.99-1.357,1.93-2.138,2.813c0,0,1.488,6.845,0.837,7.501s12.738,16.127,4.928,49.32
	c-7.81,33.192-6.973,56.165-6.973,56.165s3.161,97.327-5.857,99.296c-9.019,1.969-44.535,0.656-46.209-3.188
	s5.114-123.206,5.114-123.206s0.744-60.009,2.51-67.323C557.311,313.503,561.03,296.25,561.03,296.25z"/>
<ellipse fill="#FECEB8" cx="601.986" cy="188.937" rx="22.407" ry="22.597"/>
<path fill="#FECEB8" d="M598.592,203.893c0,0,13.853,13.69-3.254,24.285c-12.046,7.461,29.101-5.813,29.101-5.813
	s-8.554-22.035-7.252-27.098S598.592,203.893,598.592,203.893z"/>
<path fill="#D0CDE1" d="M602.032,225.271c0,0,19.246-8.908,22.407-5.72s16.828,16.315,1.953,39.568
	c-14.876,23.254-17.758,40.694-20.269,42.663c-2.51,1.969-4.091-2.532-4.091-2.532s-7.252-6.657-11.994-6.657
	s-25.01,2.25-25.01,2.25l5.671-22.691c0,0-2.789-17.909,6.694-26.816c9.483-8.908,19.897-23.535,19.897-23.535l5.37-0.989
	l-3.546,4.554C599.115,225.366,598.592,226.771,602.032,225.271z"/>
<path fill="#FF825C" d="M652.794,377.926c-38.856-14.312-43.987-42.604-33.58-71.34s32.41-47.034,71.266-32.723
	s69.444,84.55,69.444,84.55S691.65,392.238,652.794,377.926z"/>
<polygon fill="#3F3D56" points="625.845,306.88 658.171,319.39 690.37,356.385 663.242,321.353 677.777,326.978 701.348,352.983 
	681.623,328.467 681.623,328.467 707.765,338.584 725.01,363.486 711.876,340.174 760,358.205 696.776,333 699.359,334.109 
	730.642,326.772 694.401,331.98 665.592,319.612 666.388,319.853 699.914,310.459 663.655,318.781 660.052,317.234 660.01,317.179 
	659.702,317.084 586.612,285.704 584.708,290.96 622.969,305.767 645.32,335.623 "/>
<path fill="#F7C5B0" d="M557.776,274.778c0,0-8.275,11.252-2.789,15.471s17.014-3,17.014-3s26.591,18.659,26.219,7.689
	s-19.431-18.566-19.431-18.566l-12.831,0.375l1.952-6.47l-5.393-0.563L557.776,274.778z"/>
<path fill="#FECEB8" d="M613.282,253.119c0,0-52.252,40.6-55.599,26.348c-2.175-9.263-0.502-32.07,0.936-46.904
	c1.028-10.8,5.811-20.886,13.502-28.473c3.135-3.08,6.043-5.013,7.504-3.573c4.091,4.032-9.576,20.159-9.576,20.159
	s-2.231,32.724,2.231,36.474c0,0,16.168-15.744,19.52-15.514C595.152,241.867,613.282,253.119,613.282,253.119z"/>
<path fill="#393944" d="M647.893,210.067c-4.28-6.498-7.815-16.949-11.628-26.154c-1.236-2.983-2.365-6.005-3.471-9.04
	c-2.228-6.117-11.93-14.012-24.636-14.012c-14.522,0-26.295,7.37-26.295,13.554c0,5.112,8.05,9.421,19.045,10.762
	c-3.863,8.696-6.19,18.346-6.19,24.89c0,14.808,11.903,8.545,26.587,8.545S656.018,222.402,647.893,210.067z"/>
<path fill="#D0CDE1" d="M624.439,227.803c0,0,9.297,23.91-11.622,29.348c0,0-4.091-5.72-10.785-6.657
	c-6.694-0.938-12.645-7.97-12.645-7.97s13.667-19.409,24.359-19.784S624.439,227.803,624.439,227.803z"/>
</svg>
