<?xml version="1.0" encoding="utf-8"?>
<!-- Generator: Adobe Illustrator 17.0.0, SVG Export Plug-In . SVG Version: 6.00 Build 0)  -->
<!DOCTYPE svg PUBLIC "-//W3C//DTD SVG 1.1//EN" "http://www.w3.org/Graphics/SVG/1.1/DTD/svg11.dtd">
<svg version="1.1" id="_x34_6e57871-9956-42ae-80ad-44debb9ce8bb"
	 xmlns="http://www.w3.org/2000/svg" xmlns:xlink="http://www.w3.org/1999/xlink" x="0px" y="0px" width="778px" height="555px"
	 viewBox="0 0 778 555" enable-background="new 0 0 778 555" xml:space="preserve">
<title>Meditation</title>
<g>
	<path fill="#F4F4F4" d="M682.277,556.509l-639.122-1.902c0,0-90.063-94.613-8.476-216.165
		c68.682-102.327-3.873-190.628,40.224-261.615c51.576-83.02,148.545-90.898,232.072-57.745c0.888,0.351,1.772,0.709,2.66,1.068
		c8.322,3.403,16.507,7.211,24.493,11.394l2.097,1.111c4.075,2.175,8.099,4.452,12.058,6.818c1.148,0.686,2.289,1.38,3.427,2.082
		c16.184,9.983,31.279,21.521,44.725,34.287c67.356,63.943,141.617-37.377,249.851,8.338
		C830.358,161.924,799.507,493.276,682.277,556.509z"/>
	<g>
		<path fill="#E5E5E5" d="M210.605,233.156C204.3,149.855,275.48,77.627,369.591,71.83c94.11-5.797,175.513,57.033,181.818,140.333
			c6.305,83.301-64.876,155.529-158.986,161.326C298.312,379.287,216.909,316.457,210.605,233.156z"/>
		<g>
			<path fill="#EDEDED" d="M367.166,362.146c-0.565,0.035-1.142,0.025-1.725-0.032c-34.476-3.384-67.251-18.632-92.288-42.935
				c-24.209-23.499-38.758-52.764-40.968-82.405c-0.567-7.605-1.059-27.983,6.606-52.894c7.417-24.108,19.875-44.259,37.027-59.892
				c27.483-25.05,65.386-36.972,112.645-35.433c45.053,1.466,79.885,14.477,103.528,38.673
				c15.214,15.569,25.369,35.316,30.183,58.692c4.386,21.299,2.784,38.93,2.187,43.826c-2.203,18.107-15.356,54.915-50.676,78.02
				c-28.123,18.398-63.513,24.099-105.186,16.946c-25.346-4.351-46.426-13.582-62.656-27.436
				c-14.412-12.303-24.677-28.253-29.686-46.125c-5.192-18.529-4.642-39.04,1.549-57.753c6.25-18.892,18.016-35.275,33.131-46.132
				c58.249-41.841,108.601-19.221,118.103-14.262c18.015,9.402,31.979,21.009,41.507,34.499
				c10.213,14.459,14.823,30.369,13.7,47.287c-1.133,17.08-9.325,34.064-23.069,47.824c-13.909,13.926-32.262,23.239-51.676,26.222
				c-19.885,3.057-40.213-0.087-57.232-8.85c-17.638-9.081-30.012-23.392-34.841-40.295c-4.671-16.349-3.517-31.777,3.34-44.616
				c6.387-11.961,17.281-21.192,31.502-26.695c27.178-10.517,50.706-7.67,71.924,8.707c11.712,9.04,18.462,21.509,18.516,34.21
				c0.049,11.332-5.145,21.689-14.625,29.162c-8.26,6.513-23,12.647-37.295,11.668c-9.777-0.669-18.19-4.53-24.328-11.165
				c-7.21-7.793-9.882-16.79-7.525-25.335c2.06-7.465,7.905-13.851,15.256-16.667c11.309-4.331,22.322,1.446,27.047,5.542
				c0,0,7.485,5.875,0.342,12.013c-6.125,5.262-13.72,0.081-13.72,0.081l0.075,0.065c-0.965-0.799-4.363-2.888-6.2-2.188
				c-1.275,0.489-3.46,2.257-4.252,5.126c-0.913,3.31,0.387,6.986,3.76,10.632c2.848,3.078,6.467,4.727,11.064,5.042
				c8.258,0.566,17.873-3.307,23.096-7.425c5.321-4.195,8.236-10.034,8.208-16.443c-0.033-7.849-4.404-15.708-11.99-21.564
				c-15.516-11.976-31.475-13.817-51.744-5.974c-21.817,8.442-30.766,27.746-23.94,51.639c7.288,25.507,38.192,41.614,70.343,36.675
				c31.177-4.79,57.048-30.415,58.901-58.337c1.749-26.382-14.543-49.918-45.875-66.271c-7.595-3.965-47.936-21.977-96.366,12.81
				c-25.294,18.168-37.134,54.614-28.154,86.659c5.253,18.743,22.304,51.602,77.489,61.075c36.205,6.215,66.546,1.526,90.182-13.936
				c30.043-19.653,41.272-51.897,43.014-66.201c0.677-5.568,5.653-55.394-27.842-89.671c-20.047-20.516-50.268-31.571-89.822-32.858
				c-41.625-1.354-74.669,8.841-98.215,30.301c-33.784,30.793-39.946,77.263-38.26,99.867c1.899,25.466,15.034,51.765,36.038,72.154
				c21.92,21.277,50.443,34.61,80.316,37.542c5.24,0.514,9.005,4.692,8.41,9.332C375.476,358.767,371.682,361.868,367.166,362.146z"
				/>
		</g>
	</g>
	<g>
		<g>
			<g>
				<path fill="#C7C7C7" d="M682.103,552.418l-21.919-73.058h17.085l12.314,72.669c0.269,1.586-0.908,3.04-2.46,3.039l-1.552-0.001
					C683.981,555.066,682.576,553.993,682.103,552.418z"/>
			</g>
			<g>
				<path fill="#C7C7C7" d="M436.939,552.418l21.919-73.058h-17.085l-12.314,72.669c-0.269,1.586,0.908,3.04,2.46,3.039l1.552-0.001
					C435.061,555.066,436.466,553.993,436.939,552.418z"/>
			</g>
			<g>
				<path fill="#C7C7C7" d="M570.373,552.418l-21.92-73.058h17.085l12.314,72.669c0.269,1.586-0.908,3.04-2.461,3.039l-1.552-0.001
					C572.25,555.066,570.845,553.993,570.373,552.418z"/>
			</g>
			<path fill="#C7C7C7" d="M696.058,305.616c0,0-45.361-8.936-132.886,0l-10.044,92.047l120.167-5.362L696.058,305.616z"/>
			<path fill="#C7C7C7" d="M425.43,446.373c0,0-8.609-83.571,30.686-83.571c39.294,0,47.138-0.404,43.605-33.563
				c-3.661-34.361,52.48-23.6,52.48-23.6l-13.983,140.734H425.43z"/>
			<path fill="#ADADAD" d="M447.914,444.351c0,0-8.609-82.383,30.686-82.383s51.059-5.588,56.525-38.059
				c3.626-21.548,39.56-18.292,39.56-18.292l-13.983,138.734H447.914z"/>
			<path fill="#C7C7C7" d="M559.506,484.37h121.093c4.963,0,9.023-3.663,9.023-8.14v-31.88H550.233v31.654
				C550.233,480.605,554.406,484.37,559.506,484.37z"/>
			<path fill="#C7C7C7" d="M435.001,484.37h129.491c5.12,0,9.309-3.779,9.309-8.398V444.35H425.434v31.389
				C425.434,480.486,429.739,484.37,435.001,484.37z"/>
			<path fill="#393944" d="M573.016,227.846c0,0,5.331-6.856,17.94,0.149c14.451,8.029,27.69,24.985,24.121,35.833
				c-4.387,13.331,18.232,32.567,1.487,41.613c-21.003,11.346-43.796-14.055-46.401-21.744c-2.604-7.689,1.732-12.557,12.529-16.802
				s-5.999-27.984-5.999-27.984L573.016,227.846z"/>
			<path fill="#393944" d="M502.778,511.501c0,0,2.162,17.252,5.382,24.823c1.981,4.659,0.092,9.26-1.339,11.742
				c-2.602,4.514-3.26,6.998,0.908,7.1c9.467,0.231,11.805-1.812,14.62-9.713c1.284-3.606-0.808-12.73,4.915-19.211
				c4.318-4.891,0.519-10.011-4.117-12.049s-11.097-13.199-11.097-13.199L502.778,511.501z"/>
			<path fill="#ADADAD" d="M447.877,446.372c0,0-1.178-8.523,4.471-12.419c14.208-9.801,37.835-22.095,68.578-23.769
				c52.111-2.839,85.297,36.189,85.297,36.189L447.877,446.372L447.877,446.372z"/>
			<path fill="#393944" d="M570.003,382.595c0,0-115.564-6.417-114.307,22.641c0.483,11.164,14.317,41.477,16.614,47.222
				c15.24,38.117,30.467,64.095,30.467,64.095s14.331-3.825,15.635-13.358c0,0-9.941-52.415-16.802-63.799
				c-4.922-8.167,5.212-15.277,5.212-15.277s48.757,3.044,63.868-0.881C585.801,419.311,570.003,382.595,570.003,382.595z"/>
			<path fill="#393944" d="M477.184,513.668c0,0-3.251,13.736-7.135,17.289s-7.952,12.436-12.341,14.928s-11.831,6.028-9.559,9.182
				c0,0,22.39,1.092,24.495-2.259c1.948-3.102,8.468-11.413,15.245-12.723c6.589-1.273,7.427-7.551,4.733-11.519
				c-2.694-3.967-1.358-19.258-1.358-19.258L477.184,513.668z"/>
			<path fill="#454554" d="M625.998,379.135c0,0-152.983,17.384-151.423,41.632c4.293,66.73-0.409,102.76-0.409,102.76
				s11.309,4.989,20.18,0.124c0,0,6.503-26.62,12.574-42.451c12.339-32.173,6.517-42.347,8.405-42.824
				c1.888-0.477,80.216,5.974,108.863-15.402C636.119,414.072,625.998,379.135,625.998,379.135z"/>
			<path fill="#FECEB8" d="M529.357,300.521c0,0-20.828,44.467-28.966,46.653c-8.137,2.186-47.053,9.51-48.302,10.733
				c-1.25,1.223,3.393,6.964,3.993,5.941c0.6-1.024,47.728-2.136,52.721-2.993c9.576-1.644,33.741-29.068,33.688-33.64
				C542.438,322.641,535.491,297.938,529.357,300.521z"/>
			<path fill="#FF825C" d="M621.21,396.474c-7.817,16.027-55.834,2.207-68.081-5.934c-16.663-11.076,6.307-12.333,1.126-24.604
				c-2.836-6.721-16.891-18.294-19.328-27.83c-1.245-4.868,2.467-35.537,5.772-41.489c3.309-5.952,18.938-11.148,30.72-10.519
				c19.117,1.019,24.932,3.334,27.425,8.922c3.711,8.323,6.112,19.078,7.42,28.816c1.05,7.793,1.397,14.937,1.156,19.673
				c-0.353,7.022,5.68,19.811,10.095,31.426c0.003,0.006,0.007,0.009,0.007,0.009C620.913,383.861,623.35,392.086,621.21,396.474z"
				/>
			<path fill="#F2775A" d="M617.515,374.936c-0.301-0.378-9.979-12.557-16.765-22.527c-6.895-10.129,1.502-36.047,1.502-36.047
				l4.012,7.475c1.05,7.793,1.397,14.937,1.156,19.673C607.067,350.532,613.1,363.321,617.515,374.936z"/>
			<path fill="#E5E5E5" d="M551.054,446.373c0,0-8.843-83.549,31.522-83.549s64.111,3.37,55.722-38.377
				c-4.984-24.799,14.168-24.513,52.384-21.64c4.712,0.354,12.517,6.057,11.407,10.262l-35.175,133.304L551.054,446.373
				L551.054,446.373z"/>
			<path fill="#FF825C" d="M543.149,336.271c-3.002,0.202-5.841-0.209-8.467-1.004c-3.669-1.108-6.918-2.964-9.609-4.936
				c-5.228-3.819-8.348-8.061-8.348-8.061s11.435-22.009,15.355-26.513s19.483-8.49,19.483-8.49S558.505,335.228,543.149,336.271z"
				/>
			<path fill="#FECEB8" d="M563.226,296.62c-9.55,0.702-10.281-2.297-10.938-5.52c-0.271-1.337-0.554-3.65-0.881-6.427
				c-0.134-1.161-0.275-2.408-0.429-3.694c-0.295-2.483-0.695-5.027-1.028-7.01c-0.372-2.165-0.664-3.658-0.664-3.658l19.025-5.293
				l1.135-0.314c1.51,13.618,6.5,19.438,7.164,21.724C578.007,291.239,569.49,296.159,563.226,296.62z"/>
			<path fill="#F2C3B1" d="M568.747,271.217c-1.775,5.151-6.611,12.11-17.341,13.456c-0.134-1.161-0.275-2.408-0.429-3.694
				c-0.295-2.483-0.695-5.027-1.028-7.01L568.747,271.217z"/>
			<path fill="#FECEB8" d="M543.528,279.92c0,0,25.781,1.809,26.783-12.692c1.002-14.501,5.004-24.034-11.414-25.802
				s-20.002,3.585-21.641,8.352C535.617,254.544,536.848,279.075,543.528,279.92z"/>
			<path fill="#393944" d="M553.852,246.135c0,0-10.003,1.164-18.531,4.225c-5.799,2.082-10.972-8.609,0.482-16.736
				c11.609-8.236,28.532-8.737,35.102-7.127c10.848,2.658,17.725,26.111,4.629,37.116c-0.706,0.592-5.293,4.32-5.293,4.32
				s-3.016-3.487-2.133-4.726c2.851-4.004,0.685-9.096-3.753-6.841C560.606,258.272,559.375,244.993,553.852,246.135z"/>
			<g>
				<path fill="#FECEB8" d="M452.012,357.893c0,0-8.295,6.88-9.301,9.425c-1.006,2.545-2.801,11.643-2.801,11.643
					s2.417-0.017,4.125-4.081s9.556-4.855,11.799-7.249c2.243-2.394,4.225-8.754,4.225-8.754L452.012,357.893z"/>
				<path fill="#FECEB8" d="M459.372,360.853c0,0-0.395,6.765-1.948,8.951c-1.553,2.186-3.591,5.751-4.802,5.051
					c-1.212-0.701-0.219-8.156-0.219-8.156L459.372,360.853z"/>
				<path fill="#FECEB8" d="M444.14,367.878c-0.18,0.353-6.958,9.324-6.958,9.324s3.163,0.786,3.778-0.538
					C441.574,375.339,444.14,367.878,444.14,367.878z"/>
			</g>
			<path fill="#F2775A" d="M534.682,335.267c-3.669-1.108-6.918-2.964-9.609-4.936c4.517-2.166,9.292-8.252,10.366-7.814
				C536.647,323.014,534.682,335.267,534.682,335.267z"/>
			<path fill="#C7C7C7" d="M573.816,452.458c0,0-8.735-89.881,31.522-87.073c50.742,3.54,60.885,5.425,51.072-36.447
				c-6.958-29.692,13.958-28.69,40.282-25.435c3.631,0.449,7.599,3.063,6.778,8.137l-13.794,140.818H573.816z"/>
			<g>
				<path fill="#FECEB8" d="M582.062,358.404c0,0-7.968,7.188-8.855,9.769c-0.887,2.581-2.257,11.739-2.257,11.739
					s2.414-0.109,3.932-4.234s9.322-5.213,11.451-7.69c2.129-2.477,3.814-8.906,3.814-8.906L582.062,358.404z"/>
				<path fill="#FECEB8" d="M574.661,368.679c-0.164,0.36-6.518,9.579-6.518,9.579s3.196,0.665,3.749-0.681
					C572.445,376.23,574.661,368.679,574.661,368.679z"/>
				<g>
					<polygon fill="#FECEB8" points="579.486,369.841 580.207,369.638 580.21,369.629 					"/>
					<path fill="#FECEB8" d="M580.207,369.638l-1.741,6.202c0,0,1.89-0.164,2.988-1.531c1.098-1.367,2.862-5.828,2.862-5.828
						L580.207,369.638z"/>
				</g>
			</g>
			<path fill="#FECEB8" d="M604.742,301.736c0,0,31.725,23.212,46.344,47.183c0.827,1.356,2.222,6.841,0.702,7.559
				c-2.116,0.999-4.607,3.455-11.618,4.063c-13.714,1.189-53.673,3.332-53.673,3.332l-4.424-5.605c0,0,48.223-9.44,47.153-10.145
				s-36.642-19.062-38.179-27.262S585.895,300.467,604.742,301.736z"/>
			<path fill="#FF825C" d="M583.587,287.16c0,0,16.298,2.638,22.105,6.66c5.806,4.022,14.557,14.895,14.557,14.895
				s3.044,22.988-22.218,23.435l-23.683-31.776L583.587,287.16z"/>
		</g>
	</g>
	<g>
		<g>
			<path fill="#1A2E53" d="M345.64,302.117c-2.208,0-4.187-0.843-5.18-2.249c-0.786-1.113-1.313-3.064,0.644-6.035
				c5.357-8.133,7.384-30.118,7.404-30.339l0.166-1.851l0.326,1.834c0.213,1.2,5.186,29.444,2.713,35.246
				c-0.8,1.876-2.773,3.132-5.278,3.359C346.167,302.105,345.902,302.117,345.64,302.117z M348.814,265.33
				c-0.614,5.465-2.78,21.893-7.284,28.731c-1.828,2.775-1.363,4.559-0.652,5.566c1.011,1.431,3.173,2.223,5.507,2.008
				c2.315-0.209,4.133-1.359,4.864-3.074C353.323,293.697,349.887,271.772,348.814,265.33z"/>
		</g>
		<path fill="#C7C7C7" d="M63.528,305.689c0,0,45.361-8.936,132.886,0l10.043,92.047L86.29,392.375L63.528,305.689z"/>
		<g>
			<path fill="#C7C7C7" d="M322.646,552.49l-21.919-73.058h17.085l12.314,72.669c0.269,1.586-0.908,3.04-2.46,3.039l-1.552-0.001
				C324.524,555.139,323.119,554.066,322.646,552.49z"/>
		</g>
		<g>
			<path fill="#C7C7C7" d="M189.213,552.49l21.919-73.058h-17.085l-12.314,72.669c-0.269,1.586,0.908,3.04,2.46,3.039l1.552-0.001
				C187.335,555.139,188.74,554.066,189.213,552.49z"/>
			<g>
				<path fill="#C7C7C7" d="M77.482,552.49l21.919-73.058H82.316l-12.314,72.669c-0.269,1.586,0.908,3.04,2.46,3.039l1.552-0.001
					C75.604,555.139,77.009,554.066,77.482,552.49z"/>
			</g>
		</g>
		<path fill="#C7C7C7" d="M334.067,444.424c0,0,9.566-82.384-34.101-82.384s-52.384-0.398-48.458-33.086
			c4.068-33.873-58.319-23.264-58.319-23.264l15.539,138.734H334.067z"/>
		<path fill="#C7C7C7" d="M309.081,444.424c0,0,9.566-82.384-34.101-82.384s-56.741-5.588-62.814-38.059
			c-4.03-21.548-35.419-14.621-35.419-14.621l6.995,135.063L309.081,444.424L309.081,444.424z"/>
		<path fill="#88A6EA" d="M311.708,444.424c0,0,1.178-8.049-4.471-11.729c-14.208-9.255-37.835-20.865-68.578-22.447
			c-52.111-2.681-85.297,34.176-85.297,34.176H311.708z"/>
		<path fill="#8FADEF" d="M318.906,485.891c0,0-13.536-0.367-14.09,7.172l-2.586-8.619h16.431L318.906,485.891z"/>
		<path fill="#393944" d="M298.72,554.854h-36.842c0,0-0.883-5.065,1.041-8.909c1.844-3.687,5.436-6.154,6.492-10.407
			c2.341,2.174,3.705,5.191,9.031,4.545c0.653,0.955,4.213,6.063,6.393,7.476C287.242,549.12,297.978,548.564,298.72,554.854z"/>
		<path fill="#C7C7C7" d="M200.079,484.443H78.987c-4.963,0-9.023-3.663-9.023-8.14v-31.88h139.388v31.654
			C209.352,480.678,205.179,484.443,200.079,484.443z"/>
		<path fill="#C7C7C7" d="M324.584,484.443H195.093c-5.12,0-9.309-3.779-9.309-8.398v-31.622h148.367v31.389
			C334.151,480.559,329.846,484.443,324.584,484.443z"/>
		<path fill="#393944" d="M171.382,398.769c0,0-8.266,23.244,10.18,34.268c24.715,14.772,93.244,2.181,101.065,9.727
			c1.981,1.911-4.009,2.877-7.388,30.193c-4.859,39.285-8.797,61.259-8.797,61.259s0.845,4.492,6.035,6.81
			c3.403,1.52,7.721,0.581,7.721,0.581s50.333-99.696,45.32-113.526c-8.682-23.954-56.754-21.605-112.475-35.759
			C179.017,383.678,171.382,398.769,171.382,398.769z"/>
		<path fill="#454554" d="M197.464,398.264c24.469-2.042,91.239-3.08,105.678,5.87c17.772,11.016,19.927,135.713,19.927,135.713
			c-10.319,3.925-15.604,1.557-17.319-1.347c-16.042-45.502-16.779-44.825-19.36-60.167c-2.387-14.195-2.387-35.111-9.104-35.536
			c-6.717-0.425-98.992,9.17-106.87-13.614c-6.154-17.797,1.221-35.015,1.221-35.015S174.891,400.147,197.464,398.264z"/>
		<path display="none" fill="#1A2E53" d="M176.601,248.484c2.399,25.766,20.385,22.106,20.385,22.106s51.264-34.595,22.196-34.595
			C194.327,210.783,175.417,234.667,176.601,248.484z"/>
		<path fill="#FECEB8" d="M229.394,310.161c-21.023,8.476-36.827-21.442-35.455-21.749c2.102-2.145,4.269-9.787,2.729-20.787
			l1.09,0.068l18.282,1.221c0,0,0.285,5.116,0.915,9.888c0.418,3.138,0.99,6.128,1.731,7.433c0.219,0.385,4.18,0.902,4.19,0.911
			C223.185,287.45,235.002,307.901,229.394,310.161z"/>
		<g>
			<path fill="#FECEB8" d="M341.317,268.979l5.481,4.011c0,0-1.333,1.778-3.465,4.604c-0.647,0.844-1.05,1.313-1.05,1.313
				c-1.732,2.249-3.896,4.9-6.242,7.798l-0.023,0.046c-4.137,4.911-8.887,10.364-13.365,14.774c-0.407,0.393-0.81,0.779-1.208,1.153
				c-2.748,2.567-5.359,4.694-7.594,6.05c-0.254,0.163-0.485,0.279-0.786,0.423c-6.645,3.495-34.567,10.682-64.383,1.765
				c-3.633-0.655-6.865-1.416-9.391-2.312c-0.897-0.305-1.748-0.587-2.503-0.942c-14.079-5.689-11.147-15.276-8.963-15.824
				c2.724-0.699,6.755-0.986,11.495-1.047c8.679-1.291,16.918,0.582,26.2,1.329c7.979-1.953,28.742,1.328,34.229,1.787
				c1.71-0.163,4.592-1.429,8.042-3.259c0.917-0.482,1.877-1.012,2.872-1.57c5.512-3.117,11.998-7.294,17.588-11.073
				c2.758-1.842,5.307-3.609,7.418-5.079C339.09,270.561,341.317,268.979,341.317,268.979z"/>
		</g>
		<path fill="#393944" d="M253.262,318.19c4.945,16.893-22.262,72.56,4.277,77.576c6.711,8.234-95.101,22.815-95.101,22.815
			c-1.533-13.193,4.34-42.538,7.906-68.648c0.875-6.4,1.61-12.6,2.067-18.323c0.399-4.991,1.048-9.422,1.884-13.363
			c5.931-27.905,21.185-30.97,21.185-30.97c7.132,12.495,29.639,15.86,29.639,15.86c0.279-7.033-2.244-15.991-2.244-15.991
			c4.118-0.001,7.257-0.021,13.37,0c17.034,0.058,29.277,4.973,29.277,4.973S266.573,305.514,253.262,318.19z"/>
		<path fill="#EFC1AF" d="M216.042,268.917c0,0,0.281,5.113,0.915,9.889c-10.024,0.848-16.418-6.791-19.199-11.109L216.042,268.917z
			"/>
		<path fill="#FECEB8" d="M219.991,273.07c0,0-23.587,2.958-25.403-10.322s-6.083-21.841,8.9-24.291
			c14.983-2.45,18.607,2.291,20.408,6.59C225.697,249.347,226.08,271.959,219.991,273.07z"/>
		<path display="none" fill="#1A2E53" d="M208.345,232.35c-5.421-1.052,7.867-0.831-7.662,3.156s-15.44,14.987-15.44,14.987
			c4.54,8.581,1.67,17.455,1.67,17.455s4.98-0.614,11.666-8.319c2.042-2.354,3.06-5.512,3.494-8.763
			c0.441,7.248,0.083-11.733-0.492-13.276C203.471,237.677,219.778,227.306,208.345,232.35z"/>
		<path fill="#FECEB8" d="M341.317,268.979c0,0,1.45-1.991,2.11-3.772c0.661-1.781,0.653-3.398,2.377-5.223
			c1.724-1.825,3.036-5.816,3.552-5.295s0.186,4.595,0.419,4.97c0.232,0.375,6.485,0.081,8.54-1.041
			c2.055-1.122,7.143-4.094,7.334-3.062s-4.021,8.108-5.613,9.577c-1.592,1.469-7.366,2.559-9.383,3.809s-3.854,4.048-3.854,4.048
			L341.317,268.979z"/>
		<path fill="#FECEB8" d="M354.401,260.326c0,0,4.524-5.641,7.211-5.724l-3.051,4.705L354.401,260.326z"/>
		<path fill="#FECEB8" d="M360.784,263.512l7.173-7.441c0,0-1.782-0.157-3.399,0.832
			C362.942,257.893,360.784,263.512,360.784,263.512z"/>
		<path fill="#31313A" d="M243.938,400.552c-0.404-0.204-72.622,2.653-76.918-32.456c0.875-6.4,4.933-30.763,5.39-36.486
			c0.399-4.991,1.048-9.422,1.884-13.363c4.316-0.603,10.162,3.414,11.814,9.803C196.594,368.618,243.813,400.019,243.938,400.552z"
			/>
		<g>
			<path fill="#FECEB8" d="M254.53,396.52l-2.654,6.178c0,0-2.378-0.624-6.16-1.626c-1.133-0.309-1.776-0.52-1.776-0.52
				c-3.022-0.83-6.623-1.918-10.553-3.089l-0.058-0.005c-6.712-2.13-14.215-4.634-20.485-7.228
				c-0.562-0.238-1.114-0.475-1.651-0.711c-3.695-1.637-6.864-3.291-9.065-4.855c-0.26-0.175-0.461-0.344-0.716-0.567
				c-5.957-4.823-12.192-17.951-16.62-31.819c-0.616-1.913-1.178-3.825-1.741-5.683c-1.993-6.911-3.448-13.675-4.122-19.463
				c-0.44-3.455-0.636-6.586-0.459-9.129c0.049-0.899,0.087-1.75,0.236-2.537c1.753-14.396,13.215-14.835,14.514-13.059
				c1.637,2.211,3.238,5.721,4.818,9.937c2.405,6.697,4.76,15.303,6.901,23.835c1.193,4.68,2.327,9.355,3.502,13.68
				c0.648,2.62,1.313,5.09,1.942,7.358c1.233,4.334,2.386,7.856,3.517,10.117c0.725,1.475,3.034,3.647,6.145,6.146
				c0.822,0.665,1.71,1.355,2.64,2.065c5.18,3.931,11.836,8.394,17.77,12.182c2.902,1.877,5.656,3.59,7.944,5.007
				C252.083,395.035,254.53,396.52,254.53,396.52z"/>
		</g>
		<g>
			<path fill="#FECEB8" d="M253.904,396.724c0,0,11.954-3.052,14.801-2.338c2.847,0.713,12.603,6.541,11.232,8.123
				c-1.372,1.583-9.966-0.947-13.921-0.468s-7.013,2.239-9.86,1.859c-2.847-0.38-7.804-2.107-7.804-2.107L253.904,396.724z"/>
			<path fill="#FECEB8" d="M253.904,396.724c0,0,5.848-2.711,7.512-4.254c0.21-0.195,0.565-0.154,0.726,0.075
				c0.446,0.634,0.863,1.859-1.188,3.077C258.002,397.375,253.904,396.724,253.904,396.724z"/>
		</g>
		<path fill="#393944" d="M188.269,291.275c0,0-9.867,7.367-13.318,16.011c-5.454,13.659-2.572,34.849,3.451,62.598
			c0,0,17.407-0.596,30.036-20.026C208.438,349.859,200.514,287.263,188.269,291.275z"/>
		<path fill="#31313A" d="M196.357,282.889c0,0-4.065,2.281-4.073,5.665c0,0,4.801,11.836,32.835,14.583
			C225.119,303.137,199.317,291.689,196.357,282.889z"/>
		<path fill="#31313A" d="M218.249,285.705c0,0,7.072,11.722,6.87,17.432c0,0,0.481-12.977-0.521-15.991
			c-1.002-3.013-6.966-4.257-6.966-4.257L218.249,285.705z"/>
		<path fill="#393944" d="M184.598,244.119c0.306,1.638,0.754,3.247,1.339,4.807l4.767,13.944c0.389,1.143,0.797,2.311,1.588,3.222
			s2.06,1.506,3.217,1.146c0.371-0.101,0.69-0.34,0.892-0.667c0.3-0.535,0.111-1.199,0.102-1.816
			c-0.032-2.39,2.585-3.805,3.948-5.767c1.114-1.606,1.717-3.962,3.63-4.37c0.411-0.039,0.818-0.115,1.216-0.225
			c1.045-0.425,1.186-1.808,1.292-2.93c0.284-2.983,1.426-5.82,3.289-8.167c0.672-0.842,1.478-1.645,2.509-1.956
			c1.737-0.524,3.291,0.069,4.666-0.998c0.517,0.222,1.046,0.417,1.583,0.584c1.943,0.558,4.03,0.288,5.768-0.745l-2.751-9.567
			c-0.121-0.42-0.235-0.907-0.016-1.269c0.175-0.291,0.51-0.398,0.759-0.615c0.598-0.521,0.558-1.607,0.122-2.319
			c-1.585-2.579-5.492-1.409-7.875-1.508c-2.929-0.134-6.018-0.445-8.64,1.256c-0.559,0.421-1.149,0.8-1.764,1.134
			c-0.827,0.371-1.747,0.403-2.632,0.476c-1.636,0.134-3.255,0.418-4.839,0.849c-2.148-0.597-4.55,0.288-6.395,1.628
			C186.052,233.463,183.836,238.786,184.598,244.119z"/>
		<path fill="#E5E5E5" d="M208.532,444.424c0,0,8.843-82.384-31.522-82.384s-64.111,3.323-55.722-37.841
			c4.983-24.453-14.168-24.171-52.384-21.338c-4.712,0.349-12.517,5.972-11.407,10.119l35.176,131.444L208.532,444.424
			L208.532,444.424z"/>
		<path fill="#C7C7C7" d="M185.769,446.373c0,0,8.735-86.205-31.522-83.511c-50.742,3.395-60.885,5.204-51.072-34.956
			c6.958-28.478-13.958-27.516-40.282-24.395c-3.63,0.431-7.599,2.938-6.778,7.804L69.91,446.373H185.769z"/>
		<path fill="#393944" d="M341.591,555.141h-36.842c0,0-0.883-5.065,1.041-8.909c1.844-3.688,3.021-4.699,1.018-8.962
			c2.341,2.174,9.179,3.746,14.505,3.1c0.653,0.955,4.213,6.063,6.393,7.476C330.114,549.406,340.85,548.85,341.591,555.141z"/>
		<g>
			<path fill="#1A2E53" d="M365.429,294.298c-0.031,0-0.062-0.005-0.092-0.016c-7.117-2.555-11.182-9.402-11.754-19.8
				c-0.43-7.815,1.267-14.968,1.285-15.04c0.029-0.121,0.161-0.198,0.295-0.171c0.134,0.026,0.219,0.146,0.189,0.266
				c-0.068,0.282-6.609,28.307,10.169,34.329c0.127,0.046,0.189,0.176,0.139,0.29C365.621,294.244,365.528,294.298,365.429,294.298z
				"/>
		</g>
		<g>
			<g>
				<path fill="#EF7559" d="M368.742,312.152c-4.766-4.115-4.932-10.936-0.371-15.236c4.561-4.299,12.122-4.449,16.888-0.334
					s4.932,10.936,0.371,15.235C381.069,316.117,373.508,316.267,368.742,312.152z"/>
				<path fill="#FFE1C5" d="M369.704,311.245c-4.211-3.636-4.357-9.662-0.327-13.461s10.711-3.931,14.922-0.295
					s4.358,9.662,0.328,13.461C380.596,314.749,373.915,314.881,369.704,311.245z"/>
				<path fill="#ED7D2B" d="M369.852,297.228l-1.07,1.008c-0.38,0.358-1.009,0.37-1.406,0.028l0,0
					c-0.397-0.343-0.411-0.91-0.031-1.268l1.07-1.008c0.38-0.358,1.009-0.37,1.406-0.028l0,0
					C370.217,296.302,370.231,296.87,369.852,297.228z"/>
				<polygon fill="#ED7D2B" points="368.469,296.207 367.59,297.035 366.632,296.208 367.511,295.38 				"/>
				<g>
					<path fill="#EF734D" d="M366.236,293.371c-0.515,0.01-0.994,0.201-1.349,0.536c-0.099,0.093-0.184,0.193-0.255,0.299
						c-0.031,0.047-0.059,0.094-0.086,0.143c-0.07,0.129-0.12,0.265-0.153,0.402c-0.131,0.569,0.055,1.184,0.553,1.614
						c0.607,0.524,1.498,0.618,2.207,0.292c0.188-0.085,0.363-0.202,0.517-0.346c0.099-0.093,0.185-0.194,0.257-0.302
						c0.039-0.058,0.074-0.118,0.105-0.179c0.119-0.235,0.179-0.493,0.172-0.759c-0.011-0.464-0.222-0.896-0.594-1.218
						C367.238,293.532,366.75,293.361,366.236,293.371z M367.037,294.393c0.212,0.183,0.332,0.429,0.339,0.694
						c0.002,0.095-0.01,0.187-0.036,0.276c-0.046,0.161-0.137,0.308-0.268,0.431c-0.132,0.125-0.293,0.212-0.465,0.26
						c-0.369,0.105-0.789,0.029-1.088-0.229c-0.349-0.301-0.429-0.762-0.234-1.137c0.049-0.095,0.116-0.184,0.2-0.263
						c0.062-0.059,0.131-0.109,0.204-0.151c0.167-0.097,0.361-0.15,0.565-0.155C366.547,294.112,366.825,294.21,367.037,294.393z"/>
				</g>
				<g>
					<path fill="#1A2E53" d="M377.405,304.577l-0.066,0.062c-0.114,0.108-0.309,0.106-0.432-0.004l-6.46-5.804
						c-0.072-0.065-0.076-0.168-0.009-0.231l0,0c0.068-0.064,0.182-0.065,0.257-0.002l6.687,5.613
						C377.503,304.311,377.513,304.475,377.405,304.577z"/>
				</g>
				<g>
					<path fill="#EF734D" d="M377.14,304.304l0.003,0.011c0.005,0.019-0.125,0.065-0.288,0.102l-8.613,1.944
						c-0.096,0.022-0.176,0.03-0.179,0.019l0,0c-0.003-0.011,0.072-0.038,0.169-0.061l8.62-1.984
						C377.005,304.301,377.135,304.286,377.14,304.304z"/>
				</g>
				<g>
					<path fill="#EF7559" d="M376.811,304.459l-0.004-0.087c-0.007-0.152,0.113-0.279,0.266-0.281l8.057-0.131
						c0.09-0.002,0.166,0.069,0.17,0.158l0,0c0.004,0.09-0.065,0.166-0.156,0.171l-8.061,0.416
						C376.94,304.713,376.817,304.602,376.811,304.459z"/>
				</g>
				<path fill="#1A2E53" d="M376.095,305.359c-0.589-0.509-0.61-1.351-0.046-1.883c0.564-0.531,1.498-0.55,2.087-0.041
					c0.589,0.509,0.609,1.351,0.046,1.883S376.684,305.868,376.095,305.359z"/>
			</g>
		</g>
	</g>
	<g display="none">
		<g display="inline">
			<path fill="#37B079" d="M67.031,487.513c0,0-12.843-13.517-0.792-22.103c0,0,8.803-4.807,15.98-4.417
				c0,0-10.17,15.386-6.88,16.916s9.963-17.881,9.963-17.881s20.032-1.752,26.476,1.043c0,0-17.125,12.642-13.518,13.395
				s22.104-11.656,22.104-11.656s18.644,2.862,17.65,13.122s-7.418,13.429-10.242,13.156c-2.824-0.273-19.34-5.961-19.7-3.874
				s9.582,8.908,16.544,9.227c0,0-13.145,13.077-21.88,9.303c-8.736-3.774-9.482-9.757-14.927-12.001
				c-5.446-2.244-10.094-2.238-7.846,0.05s12.104,4.512,15.218,9.482c3.114,4.969,5.908,8.321-3.13,7.094
				c-9.038-1.227-23.73-7.193-24.375-14.025C67.031,487.513,67.031,487.513,67.031,487.513z"/>
			<g>
				<path fill="#37B079" d="M128.852,476.208c0,0-50.639-1.76-61.822,11.304c0,0-2.473,6.682-10.083,12.767l-1.186,2.916
					c0,0,8.775-8.347,11.915-8.852C67.676,494.345,62.765,478.159,128.852,476.208z"/>
				<path fill="#37B079" d="M56.947,500.28c0,0-10.869,7.252-11.624,20.209l1.973,0.159c0,0,3.471-13.397,9.746-18.637
					C63.316,496.772,56.947,500.28,56.947,500.28z"/>
			</g>
		</g>
		<g display="inline">
			<path fill="#37B079" d="M27.428,476.453c0,0,18.01-9.099,9.605-21.447c0,0-6.723-7.582-13.927-9.532c0,0,3.842,18.413,0,18.847
				s-2.641-20.797-2.641-20.797s-18.97-8.232-26.414-7.582c0,0,11.766,17.98,7.924,17.547s-17.049-18.63-17.049-18.63
				s-19.45-3.249-22.572,7.149c-3.122,10.398,1.921,15.597,4.803,16.247s21.371,0.433,20.891,2.599s-12.967,5.632-19.931,3.683
				c0,0,7.684,17.114,17.77,16.247c10.085-0.866,13.207-6.499,19.45-6.932s10.806,1.083,7.684,2.6s-13.687,0.497-18.73,4.364
				s-9.125,6.25,0.24,7.983s26.174,0.65,29.536-5.849C27.428,476.453,27.428,476.453,27.428,476.453z"/>
			<g>
				<path fill="#37B079" d="M-28.762,445.259c0,0,50.427,14.731,56.19,31.195c0,0-0.24,7.365,4.803,15.814v3.25
					c0,0-5.283-11.048-8.165-12.565C24.066,482.952,35.352,468.654-28.762,445.259z"/>
				<path fill="#37B079" d="M32.231,492.267c0,0,7.777,10.654,3.343,23.622l-2.001-0.485c0,0,1.942-14.284-2.127-21.468
					C27.378,486.752,32.231,492.267,32.231,492.267z"/>
			</g>
		</g>
		<g display="inline">
			<path fill="#5BD7AA" d="M54.63,456.279c0,0-26.931-13.605-14.363-32.07c0,0,10.054-11.338,20.826-14.253
				c0,0-5.745,27.534,0,28.182s3.95-31.098,3.95-31.098s28.367-12.309,39.498-11.338c0,0-17.595,26.887-11.85,26.239
				c5.745-0.648,25.494-27.858,25.494-27.858s29.085-4.859,33.753,10.689c4.668,15.549-2.873,23.323-7.182,24.295
				c-4.309,0.972-31.958,0.648-31.24,3.887c0.718,3.239,19.39,8.422,29.803,5.507c0,0-11.49,25.591-26.572,24.295
				c-15.081-1.296-19.749-9.718-29.085-10.366s-16.159,1.619-11.491,3.887s20.467,0.743,28.008,6.526s13.645,9.346-0.359,11.938
				c-14.004,2.591-39.139,0.972-44.166-8.746C54.63,456.279,54.63,456.279,54.63,456.279z"/>
			<g>
				<path fill="#55C69B" d="M138.653,409.633c0,0-75.406,22.027-84.024,46.646c0,0,0.359,11.014-7.182,23.647v4.859
					c0,0,7.9-16.52,12.209-18.788C59.657,465.997,42.78,444.618,138.653,409.633z"/>
				<path fill="#55C69B" d="M47.448,479.927c0,0-11.629,15.931-4.999,35.323l2.992-0.725c0,0-2.904-21.359,3.18-32.102
					C54.705,471.68,47.448,479.927,47.448,479.927z"/>
			</g>
		</g>
		<path display="inline" fill="#FF7F50" d="M55.28,552.96c25.683,0,46.503-18.783,46.503-41.952H8.777
			C8.777,534.177,29.597,552.96,55.28,552.96z"/>
		<path display="inline" fill="#FFAB6C" d="M66.723,552.639c-1.891,0.213-3.82,0.321-5.778,0.321
			c-25.683,0-46.501-18.783-46.501-41.952h11.553C25.998,532.413,43.767,550.072,66.723,552.639z"/>
		<rect x="7.248" y="511.007" display="inline" fill="#ED7D2B" width="95.593" height="1.287"/>
		<path display="inline" fill="#FF7F50" d="M35.421,552.96h43.54l0,0c0-1.858-1.67-3.364-3.729-3.364H39.15
			C37.09,549.596,35.421,551.102,35.421,552.96L35.421,552.96z"/>
	</g>
	<path display="none" fill="#2E3552" d="M962.536,557.594H-72.432c-0.969,0-1.762-0.715-1.762-1.59v-2.396
		c0-0.874,0.793-1.59,1.762-1.59H962.536c0.969,0,1.762,0.716,1.762,1.59v2.396C964.299,556.878,963.506,557.594,962.536,557.594z"
		/>
</g>
<path display="none" fill="#1A2E53" d="M225.982,237.134c0,0-15.483-17.685-27.732-11.784c-12.25,5.9,2.75,10.288,2.75,10.288
	l24.982,2.149"/>
</svg>
