<?xml version="1.0" encoding="utf-8"?>
<!-- Generator: Adobe Illustrator 17.0.0, SVG Export Plug-In . SVG Version: 6.00 Build 0)  -->
<!DOCTYPE svg PUBLIC "-//W3C//DTD SVG 1.1//EN" "http://www.w3.org/Graphics/SVG/1.1/DTD/svg11.dtd">
<svg version="1.1" id="Layer_1" xmlns="http://www.w3.org/2000/svg" xmlns:xlink="http://www.w3.org/1999/xlink" x="0px" y="0px"
	 width="243.587px" height="242.698px" viewBox="64.593 50.217 243.587 242.698"
	 enable-background="new 64.593 50.217 243.587 242.698" xml:space="preserve">
<g>
	<g>
		<g>
			<rect x="163.833" y="56.759" fill="#292724" width="2.122" height="136.745"/>
		</g>
		<g>
			<polygon fill="#292724" points="164.894,52.515 166.901,56.37 162.888,56.37 			"/>
			<path fill="#292724" d="M168.649,57.43h-7.509l3.754-7.213L168.649,57.43z M164.636,55.309h0.516l-0.258-0.496L164.636,55.309z"
				/>
		</g>
	</g>
	<g>
		<g>
			
				<rect x="116.504" y="171.575" transform="matrix(0.7071 0.7071 -0.7071 0.7071 204.1009 -12.8526)" fill="#292724" width="2.122" height="136.74"/>
		</g>
		<g>
			<polygon fill="#292724" points="66.218,291.29 67.525,287.146 70.363,289.984 			"/>
			<path fill="#292724" d="M67.039,285.16l5.31,5.31l-7.756,2.446L67.039,285.16z M68.376,289.498l-0.366-0.366l-0.168,0.533
				L68.376,289.498z"/>
		</g>
	</g>
	<g>
		<g>
			<rect x="164.894" y="191.554" fill="#292724" width="136.745" height="2.122"/>
		</g>
		<g>
			<polygon fill="#292724" points="305.883,192.615 302.029,194.621 302.029,190.608 			"/>
			<path fill="#292724" d="M300.968,196.369v-7.509l7.213,3.755L300.968,196.369z M303.089,192.357v0.516l0.496-0.258
				L303.089,192.357z"/>
		</g>
	</g>
</g>
<text transform="matrix(1 0 0 1 555.5001 19.2489)" fill="#4C4B4C" font-family="'Montserrat-Bold'" font-size="18">Ты</text>
<text transform="matrix(1 0 0 1 558.5001 174.5821)" fill="#4C4B4C" font-family="'Montserrat-Bold'" font-size="18">Я</text>
<text transform="matrix(1 0 0 1 553.0001 209.2486)" fill="#4C4B4C" font-family="'Montserrat-Bold'" font-size="18">Сейчас</text>
<text transform="matrix(1 0 0 1 679.3331 209.2486)" fill="#4C4B4C" font-family="'Montserrat-Bold'" font-size="18">Тогда</text>
<text transform="matrix(1 0 0 1 470.0856 192.1619)" fill="#4C4B4C" font-family="'Montserrat-Bold'" font-size="18">Здесь</text>
<text transform="matrix(1 0 0 1 387 292.9156)" fill="#4C4B4C" font-family="'Montserrat-Bold'" font-size="18">Там</text>
<g>
	<path d="M182.431,73.067v-8.97h-3.629v-1.605h9.179v1.605h-3.63v8.97H182.431z"/>
	<path d="M187.936,73.067v-7.335h1.875v2.43h1.935c0.97,0,1.702,0.205,2.197,0.615c0.495,0.41,0.743,1.01,0.743,1.8
		c0,0.75-0.263,1.353-0.788,1.808c-0.524,0.455-1.242,0.683-2.152,0.683H187.936z M189.811,71.837h1.649
		c0.47,0,0.835-0.103,1.095-0.308c0.261-0.205,0.391-0.518,0.391-0.938c0-0.41-0.13-0.712-0.391-0.907
		c-0.26-0.195-0.625-0.292-1.095-0.292h-1.649V71.837z M195.57,73.067v-7.335h1.875v7.335H195.57z"/>
</g>
<g>
	<path d="M179.176,180.567l1.77-3.255c0.32-0.59,0.721-0.97,1.2-1.14c-0.79-0.17-1.4-0.516-1.83-1.035s-0.645-1.18-0.645-1.98
		c0-1,0.315-1.777,0.945-2.333c0.63-0.555,1.525-0.833,2.686-0.833h4.604v10.575h-1.92v-4.23h-1.29c-0.37,0-0.678,0.061-0.922,0.181
		c-0.245,0.12-0.458,0.345-0.638,0.675l-1.845,3.375H179.176z M183.632,174.912h2.354v-3.406h-2.354c-1.4,0-2.101,0.565-2.101,1.695
		C181.531,174.342,182.231,174.912,183.632,174.912z"/>
</g>
<g>
	<path d="M111.078,193.825c-0.88,0-1.659-0.112-2.34-0.337c-0.68-0.226-1.27-0.538-1.77-0.938l0.6-1.455
		c0.44,0.359,0.936,0.633,1.485,0.817c0.55,0.186,1.175,0.277,1.875,0.277c0.83,0,1.442-0.135,1.837-0.405
		c0.396-0.27,0.593-0.68,0.593-1.229c0-0.99-0.66-1.485-1.979-1.485h-2.565v-1.515h2.311c1.31,0,1.965-0.485,1.965-1.455
		c0-0.47-0.173-0.843-0.518-1.117c-0.346-0.275-0.888-0.413-1.628-0.413c-0.58,0-1.143,0.09-1.688,0.271
		c-0.545,0.18-1.032,0.444-1.462,0.795l-0.601-1.44c0.47-0.399,1.053-0.707,1.748-0.922c0.694-0.215,1.433-0.323,2.212-0.323
		c1.28,0,2.24,0.268,2.88,0.803c0.641,0.535,0.96,1.232,0.96,2.093c0,0.57-0.147,1.06-0.442,1.47s-0.692,0.71-1.192,0.9
		c0.59,0.17,1.053,0.468,1.388,0.893s0.503,0.962,0.503,1.612c0,0.939-0.341,1.692-1.021,2.258
		C113.549,193.543,112.498,193.825,111.078,193.825z"/>
	<path d="M116.418,195.626v-3.421h0.841c0.289-0.459,0.497-0.984,0.622-1.574s0.188-1.325,0.188-2.205v-2.085h5.715v5.864h1.2v3.421
		h-1.59v-1.95h-5.385v1.95H116.418z M118.953,192.205h3.075v-4.425h-2.355v1.08c0,0.63-0.063,1.24-0.188,1.83
		S119.184,191.785,118.953,192.205z"/>
	<path d="M129.993,193.825c-0.83,0-1.545-0.154-2.146-0.465c-0.6-0.31-1.063-0.75-1.388-1.319c-0.324-0.57-0.487-1.245-0.487-2.025
		c0-0.76,0.157-1.425,0.473-1.995s0.75-1.018,1.305-1.343c0.556-0.324,1.188-0.487,1.897-0.487c1.04,0,1.862,0.33,2.468,0.99
		s0.907,1.56,0.907,2.7v0.555h-5.25c0.141,1.311,0.891,1.965,2.25,1.965c0.41,0,0.82-0.063,1.23-0.188s0.785-0.322,1.125-0.593
		l0.525,1.261c-0.351,0.29-0.791,0.52-1.32,0.689C131.053,193.74,130.522,193.825,129.993,193.825z M129.723,187.466
		c-0.55,0-0.995,0.17-1.335,0.51s-0.545,0.8-0.615,1.38h3.69c-0.04-0.609-0.208-1.077-0.503-1.402S130.253,187.466,129.723,187.466z
		"/>
	<path d="M138.108,193.825c-0.77,0-1.439-0.157-2.01-0.472c-0.57-0.315-1.01-0.763-1.32-1.343c-0.31-0.58-0.465-1.26-0.465-2.04
		s0.155-1.452,0.465-2.018c0.311-0.564,0.75-1,1.32-1.305c0.57-0.306,1.24-0.458,2.01-0.458c0.47,0,0.936,0.075,1.396,0.226
		c0.46,0.149,0.84,0.359,1.14,0.63l-0.555,1.305c-0.261-0.229-0.553-0.405-0.878-0.525s-0.638-0.18-0.938-0.18
		c-0.65,0-1.152,0.202-1.507,0.607c-0.355,0.405-0.533,0.982-0.533,1.732c0,0.74,0.178,1.323,0.533,1.748
		c0.354,0.425,0.856,0.637,1.507,0.637c0.29,0,0.601-0.06,0.931-0.18c0.329-0.12,0.624-0.3,0.885-0.54l0.555,1.32
		c-0.3,0.26-0.683,0.468-1.147,0.622C139.031,193.748,138.568,193.825,138.108,193.825z"/>
	<path d="M141.993,193.676v-7.335h1.875v2.43h1.935c0.97,0,1.702,0.205,2.197,0.615s0.743,1.01,0.743,1.8
		c0,0.75-0.263,1.353-0.788,1.808c-0.524,0.455-1.242,0.683-2.152,0.683H141.993z M143.868,192.445h1.649
		c0.47,0,0.835-0.103,1.095-0.308c0.261-0.204,0.391-0.518,0.391-0.938c0-0.409-0.13-0.712-0.391-0.907
		c-0.26-0.195-0.625-0.292-1.095-0.292h-1.649V192.445z"/>
</g>
<g>
	<path d="M267.234,214.067v-8.971h-3.63v-1.604h9.18v1.604h-3.63v8.971H267.234z"/>
	<path d="M276.099,214.217c-0.76,0-1.42-0.155-1.979-0.465c-0.561-0.311-0.995-0.753-1.306-1.328
		c-0.31-0.574-0.465-1.252-0.465-2.032s0.155-1.455,0.465-2.025c0.311-0.569,0.745-1.01,1.306-1.319
		c0.56-0.311,1.22-0.465,1.979-0.465s1.42,0.154,1.98,0.465c0.56,0.31,0.995,0.75,1.305,1.319c0.31,0.57,0.465,1.245,0.465,2.025
		s-0.155,1.458-0.465,2.032c-0.31,0.575-0.745,1.018-1.305,1.328C277.519,214.062,276.858,214.217,276.099,214.217z
		 M276.099,212.791c0.561,0,1.01-0.202,1.351-0.607c0.34-0.404,0.51-1.002,0.51-1.792c0-0.8-0.17-1.397-0.51-1.792
		c-0.341-0.396-0.79-0.594-1.351-0.594c-0.56,0-1.01,0.198-1.35,0.594c-0.34,0.395-0.51,0.992-0.51,1.792
		c0,0.79,0.17,1.388,0.51,1.792C275.089,212.589,275.539,212.791,276.099,212.791z"/>
	<path d="M281.59,214.067v-7.335h5.55v1.47h-3.675v5.865H281.59z"/>
	<path d="M287.769,216.017v-3.421h0.841c0.289-0.459,0.497-0.984,0.622-1.574s0.188-1.325,0.188-2.205v-2.085h5.715v5.864h1.2v3.421
		h-1.59v-1.95h-5.385v1.95H287.769z M290.304,212.596h3.075v-4.424h-2.355v1.08c0,0.629-0.063,1.24-0.188,1.83
		S290.534,212.176,290.304,212.596z"/>
	<path d="M300.145,214.217c-0.53,0-1.003-0.104-1.418-0.309c-0.415-0.204-0.74-0.481-0.975-0.832
		c-0.235-0.35-0.353-0.744-0.353-1.185c0-0.54,0.14-0.968,0.42-1.282c0.28-0.315,0.735-0.543,1.365-0.684
		c0.63-0.139,1.475-0.209,2.535-0.209h0.524v-0.315c0-0.5-0.11-0.86-0.33-1.08s-0.59-0.33-1.109-0.33
		c-0.41,0-0.83,0.063-1.261,0.188c-0.43,0.126-0.864,0.317-1.305,0.577l-0.54-1.274c0.26-0.181,0.567-0.337,0.923-0.473
		c0.354-0.135,0.729-0.239,1.125-0.315c0.395-0.074,0.768-0.111,1.117-0.111c1.07,0,1.865,0.247,2.385,0.742
		c0.521,0.494,0.78,1.262,0.78,2.303v4.439h-1.755v-1.17c-0.17,0.41-0.44,0.732-0.81,0.967
		C301.095,214.099,300.654,214.217,300.145,214.217z M300.534,212.926c0.49,0,0.897-0.17,1.223-0.51s0.487-0.77,0.487-1.289v-0.33
		h-0.51c-0.94,0-1.593,0.072-1.957,0.217c-0.365,0.146-0.548,0.408-0.548,0.787c0,0.33,0.115,0.601,0.345,0.811
		C299.805,212.821,300.124,212.926,300.534,212.926z"/>
</g>
<g>
	<path d="M172.03,216.717c-1.101,0-2.043-0.223-2.828-0.668s-1.387-1.074-1.807-1.891c-0.421-0.814-0.631-1.777-0.631-2.887
		s0.21-2.07,0.631-2.88c0.42-0.81,1.021-1.438,1.807-1.883c0.785-0.444,1.728-0.667,2.828-0.667c0.71,0,1.382,0.109,2.018,0.33
		c0.635,0.22,1.157,0.535,1.567,0.944l-0.63,1.53c-0.45-0.38-0.91-0.658-1.38-0.832c-0.471-0.176-0.976-0.264-1.516-0.264
		c-1.07,0-1.885,0.323-2.444,0.969c-0.561,0.645-0.841,1.563-0.841,2.752s0.28,2.109,0.841,2.76c0.56,0.65,1.374,0.975,2.444,0.975
		c0.54,0,1.045-0.087,1.516-0.262c0.47-0.176,0.93-0.453,1.38-0.832l0.63,1.529c-0.41,0.4-0.933,0.713-1.567,0.938
		C173.412,216.604,172.74,216.717,172.03,216.717z"/>
	<path d="M180.686,216.717c-0.83,0-1.545-0.155-2.146-0.465c-0.6-0.311-1.063-0.75-1.388-1.32c-0.324-0.57-0.487-1.245-0.487-2.025
		c0-0.76,0.157-1.425,0.473-1.994c0.315-0.57,0.75-1.018,1.305-1.344c0.556-0.324,1.188-0.486,1.897-0.486
		c1.04,0,1.862,0.33,2.468,0.989c0.605,0.66,0.907,1.56,0.907,2.7v0.555h-5.25c0.141,1.311,0.891,1.965,2.25,1.965
		c0.41,0,0.82-0.063,1.23-0.188s0.785-0.322,1.125-0.592l0.525,1.26c-0.351,0.29-0.791,0.52-1.32,0.689
		C181.745,216.631,181.215,216.717,180.686,216.717z M180.415,210.357c-0.55,0-0.995,0.17-1.335,0.51
		c-0.34,0.341-0.545,0.8-0.615,1.38h3.69c-0.04-0.609-0.208-1.077-0.503-1.402C181.357,210.52,180.945,210.357,180.415,210.357z"/>
	<path d="M185.395,216.567v-7.335h1.694v4.89l3.675-4.89h1.561v7.335h-1.695v-4.891l-3.675,4.891H185.395z M188.845,208.301
		c-0.729,0-1.33-0.188-1.8-0.563s-0.78-0.882-0.93-1.521l0.96-0.33c0.17,0.479,0.397,0.83,0.683,1.05s0.652,0.33,1.103,0.33
		c0.46,0,0.83-0.112,1.109-0.338c0.28-0.225,0.516-0.567,0.705-1.027l0.915,0.315c-0.21,0.689-0.553,1.209-1.027,1.56
		S189.515,208.301,188.845,208.301z"/>
	<path d="M199.09,216.567v-2.654c-0.271,0.129-0.548,0.227-0.833,0.292s-0.577,0.097-0.877,0.097c-2.15,0-3.226-1.055-3.226-3.164
		v-1.905h1.875v1.739c0,0.641,0.13,1.104,0.391,1.389c0.26,0.285,0.689,0.428,1.29,0.428c0.27,0,0.515-0.031,0.734-0.091
		s0.425-0.155,0.615-0.284v-3.181h1.875v7.335H199.09z"/>
	<path d="M205.495,216.717c-0.53,0-1.003-0.104-1.418-0.309c-0.415-0.204-0.74-0.481-0.975-0.832
		c-0.235-0.35-0.353-0.744-0.353-1.185c0-0.54,0.14-0.968,0.42-1.282c0.28-0.315,0.735-0.543,1.365-0.684
		c0.63-0.139,1.475-0.209,2.535-0.209h0.524v-0.315c0-0.5-0.11-0.86-0.33-1.08s-0.59-0.33-1.109-0.33
		c-0.41,0-0.83,0.063-1.261,0.188c-0.43,0.126-0.864,0.317-1.305,0.577l-0.54-1.274c0.26-0.181,0.567-0.337,0.923-0.473
		c0.354-0.135,0.729-0.239,1.125-0.315c0.395-0.074,0.768-0.111,1.117-0.111c1.07,0,1.865,0.247,2.385,0.742
		c0.521,0.494,0.78,1.262,0.78,2.303v4.439h-1.755v-1.17c-0.17,0.41-0.44,0.732-0.81,0.967
		C206.445,216.599,206.005,216.717,205.495,216.717z M205.885,215.426c0.49,0,0.897-0.17,1.223-0.51s0.487-0.77,0.487-1.289v-0.33
		h-0.51c-0.94,0-1.593,0.072-1.957,0.217c-0.365,0.146-0.548,0.408-0.548,0.787c0,0.33,0.115,0.601,0.345,0.811
		C205.155,215.321,205.475,215.426,205.885,215.426z"/>
	<path d="M214.884,216.717c-0.77,0-1.439-0.158-2.01-0.473c-0.57-0.315-1.01-0.763-1.32-1.343c-0.31-0.579-0.465-1.26-0.465-2.04
		c0-0.779,0.155-1.452,0.465-2.018c0.311-0.564,0.75-1,1.32-1.305s1.24-0.457,2.01-0.457c0.47,0,0.936,0.074,1.396,0.225
		s0.84,0.359,1.14,0.63l-0.555,1.305c-0.261-0.229-0.553-0.405-0.878-0.524c-0.325-0.121-0.638-0.18-0.938-0.18
		c-0.65,0-1.152,0.201-1.507,0.607c-0.355,0.404-0.533,0.982-0.533,1.732c0,0.74,0.178,1.322,0.533,1.747
		c0.354,0.425,0.856,0.638,1.507,0.638c0.29,0,0.601-0.061,0.931-0.18c0.329-0.121,0.624-0.301,0.885-0.541l0.555,1.32
		c-0.3,0.26-0.683,0.468-1.147,0.623C215.807,216.639,215.344,216.717,214.884,216.717z"/>
</g>
<g>
	<path d="M67.901,258.067v-8.971h-3.63v-1.604h9.18v1.604h-3.63v8.971H67.901z"/>
	<path d="M75.836,258.217c-0.53,0-1.003-0.104-1.418-0.309c-0.415-0.204-0.74-0.481-0.975-0.832
		c-0.235-0.35-0.353-0.744-0.353-1.185c0-0.54,0.14-0.968,0.42-1.282c0.28-0.315,0.735-0.543,1.365-0.684
		c0.63-0.139,1.475-0.209,2.535-0.209h0.524v-0.315c0-0.5-0.11-0.86-0.33-1.08s-0.59-0.33-1.109-0.33
		c-0.41,0-0.83,0.063-1.261,0.188c-0.43,0.126-0.864,0.317-1.305,0.577l-0.54-1.274c0.26-0.181,0.567-0.337,0.923-0.473
		c0.354-0.135,0.729-0.239,1.125-0.315c0.395-0.074,0.768-0.111,1.117-0.111c1.07,0,1.865,0.247,2.385,0.742
		c0.521,0.494,0.78,1.262,0.78,2.303v4.439h-1.755v-1.17c-0.17,0.41-0.44,0.732-0.81,0.967
		C76.786,258.099,76.346,258.217,75.836,258.217z M76.226,256.926c0.49,0,0.897-0.17,1.223-0.51s0.487-0.77,0.487-1.289v-0.33h-0.51
		c-0.94,0-1.593,0.072-1.957,0.217c-0.365,0.146-0.548,0.408-0.548,0.787c0,0.33,0.115,0.601,0.345,0.811
		C75.496,256.821,75.815,256.926,76.226,256.926z"/>
	<path d="M81.821,258.067v-7.335h1.545l2.534,4.335l2.535-4.335h1.53v7.335h-1.65v-4.561l-1.979,3.36h-0.885l-1.98-3.36v4.561
		H81.821z"/>
</g>
</svg>
