<?xml version="1.0" encoding="utf-8"?>
<!-- Generator: Adobe Illustrator 17.0.0, SVG Export Plug-In . SVG Version: 6.00 Build 0)  -->
<!DOCTYPE svg PUBLIC "-//W3C//DTD SVG 1.1//EN" "http://www.w3.org/Graphics/SVG/1.1/DTD/svg11.dtd">
<svg version="1.1" id="Layer_1" xmlns="http://www.w3.org/2000/svg" xmlns:xlink="http://www.w3.org/1999/xlink" x="0px" y="0px"
	 width="500.891px" height="141.901px" viewBox="0 0 500.891 141.901" enable-background="new 0 0 500.891 141.901"
	 xml:space="preserve">
<g>
	<path fill="#2A2724" d="M106.187,8.46V0.852h-3.072V0h7.14v0.852h-3.072V8.46H106.187z"/>
	<path fill="#2A2724" d="M112.979,8.568c-0.92,0-1.648-0.27-2.184-0.81c-0.536-0.54-0.804-1.274-0.804-2.202
		c0-0.6,0.12-1.13,0.36-1.59s0.57-0.816,0.99-1.068s0.906-0.378,1.458-0.378c0.792,0,1.412,0.254,1.86,0.762
		s0.672,1.206,0.672,2.094v0.372h-4.392c0.032,0.664,0.224,1.17,0.576,1.518s0.84,0.522,1.464,0.522
		c0.352,0,0.688-0.054,1.008-0.162s0.624-0.286,0.912-0.534l0.336,0.684c-0.264,0.248-0.6,0.442-1.008,0.582
		C113.819,8.498,113.403,8.568,112.979,8.568z M112.823,3.24c-0.552,0-0.988,0.172-1.308,0.516s-0.508,0.796-0.564,1.356h3.54
		c-0.024-0.592-0.178-1.052-0.462-1.38S113.343,3.24,112.823,3.24z"/>
	<path fill="#2A2724" d="M116.519,8.592l-0.36-0.768c0.36-0.152,0.644-0.366,0.852-0.642c0.208-0.276,0.354-0.658,0.438-1.146
		c0.084-0.488,0.126-1.128,0.126-1.92V2.628h4.236V8.46h-0.972V3.408h-2.352v0.744c0,0.912-0.066,1.664-0.198,2.256
		c-0.132,0.592-0.342,1.06-0.63,1.404C117.371,8.156,116.991,8.416,116.519,8.592z"/>
	<path fill="#2A2724" d="M126.167,8.568c-0.568,0-1.06-0.124-1.476-0.372s-0.738-0.598-0.966-1.05s-0.342-0.986-0.342-1.602
		s0.114-1.15,0.342-1.602c0.228-0.452,0.55-0.802,0.966-1.05s0.908-0.372,1.476-0.372c0.56,0,1.05,0.124,1.47,0.372
		c0.42,0.248,0.744,0.598,0.972,1.05s0.342,0.986,0.342,1.602s-0.114,1.15-0.342,1.602s-0.552,0.802-0.972,1.05
		C127.216,8.444,126.727,8.568,126.167,8.568z M126.167,7.788c0.544,0,0.98-0.194,1.308-0.582s0.492-0.942,0.492-1.662
		c0-0.728-0.164-1.284-0.492-1.668S126.711,3.3,126.167,3.3c-0.552,0-0.99,0.192-1.314,0.576c-0.324,0.384-0.486,0.94-0.486,1.668
		c0,0.72,0.162,1.274,0.486,1.662C125.176,7.594,125.615,7.788,126.167,7.788z"/>
</g>
<g>
	<path fill="#2A2724" d="M3.84,73.635v-0.936H3.816c-0.792,0-1.474-0.146-2.046-0.438s-1.01-0.71-1.314-1.254
		C0.152,70.463,0,69.819,0,69.075c0-1.136,0.332-2.022,0.996-2.658c0.664-0.636,1.604-0.954,2.82-0.954H3.84v-0.876h0.996v0.876
		h0.036c1.208,0,2.144,0.318,2.808,0.954s0.996,1.522,0.996,2.658c0,0.744-0.152,1.388-0.456,1.932
		c-0.304,0.544-0.74,0.962-1.308,1.254c-0.568,0.292-1.248,0.438-2.04,0.438H4.836v0.936H3.84z M3.672,71.895h0.18v-5.64h-0.18
		c-0.808,0-1.452,0.244-1.932,0.732c-0.48,0.488-0.72,1.184-0.72,2.088c0,0.592,0.112,1.098,0.336,1.518s0.534,0.742,0.93,0.966
		S3.144,71.895,3.672,71.895z M5.004,66.254H4.836v5.64h0.168c0.528,0,0.99-0.112,1.386-0.336s0.706-0.546,0.93-0.966
		s0.336-0.926,0.336-1.518c0-0.904-0.24-1.6-0.72-2.088C6.456,66.499,5.812,66.254,5.004,66.254z"/>
	<path fill="#2A2724" d="M12.216,73.479c-0.4,0-0.758-0.078-1.074-0.234c-0.316-0.156-0.566-0.37-0.75-0.642
		s-0.276-0.576-0.276-0.912c0-0.424,0.11-0.76,0.33-1.008s0.584-0.426,1.092-0.534c0.508-0.108,1.202-0.162,2.082-0.162h0.384
		v-0.372c0-0.496-0.102-0.854-0.306-1.074s-0.53-0.33-0.978-0.33c-0.352,0-0.692,0.05-1.02,0.15s-0.664,0.262-1.008,0.486
		l-0.336-0.708c0.304-0.216,0.674-0.388,1.11-0.516s0.854-0.192,1.254-0.192c0.752,0,1.31,0.184,1.674,0.552s0.546,0.94,0.546,1.716
		v3.672h-0.912v-1.008c-0.152,0.344-0.386,0.616-0.702,0.816C13.01,73.378,12.64,73.479,12.216,73.479z M12.372,72.747
		c0.48,0,0.872-0.166,1.176-0.498s0.456-0.754,0.456-1.266v-0.36h-0.372c-0.648,0-1.158,0.03-1.53,0.09s-0.632,0.164-0.78,0.312
		s-0.222,0.35-0.222,0.606c0,0.328,0.114,0.596,0.342,0.804S11.98,72.747,12.372,72.747z"/>
	<path fill="#2A2724" d="M16.836,73.371v-5.832h0.972v2.424h3.18v-2.424h0.972v5.832h-0.972v-2.616h-3.18v2.616H16.836z"/>
	<path fill="#2A2724" d="M25.091,73.371v-5.052h-2.112v-0.78h5.208v0.78h-2.124v5.052H25.091z"/>
	<path fill="#2A2724" d="M31.056,73.479c-0.4,0-0.758-0.078-1.074-0.234c-0.316-0.156-0.566-0.37-0.75-0.642
		s-0.276-0.576-0.276-0.912c0-0.424,0.11-0.76,0.33-1.008s0.584-0.426,1.092-0.534s1.202-0.162,2.082-0.162h0.384v-0.372
		c0-0.496-0.102-0.854-0.306-1.074c-0.204-0.22-0.53-0.33-0.978-0.33c-0.352,0-0.692,0.05-1.02,0.15s-0.664,0.262-1.008,0.486
		l-0.336-0.708c0.304-0.216,0.674-0.388,1.11-0.516s0.854-0.192,1.254-0.192c0.752,0,1.31,0.184,1.674,0.552s0.546,0.94,0.546,1.716
		v3.672h-0.912v-1.008c-0.152,0.344-0.386,0.616-0.702,0.816C31.85,73.378,31.48,73.479,31.056,73.479z M31.212,72.747
		c0.48,0,0.872-0.166,1.176-0.498s0.456-0.754,0.456-1.266v-0.36h-0.372c-0.648,0-1.158,0.03-1.53,0.09
		c-0.372,0.06-0.632,0.164-0.78,0.312s-0.222,0.35-0.222,0.606c0,0.328,0.114,0.596,0.342,0.804S30.819,72.747,31.212,72.747z"/>
	<path fill="#2A2724" d="M37.608,73.479c-0.504,0-0.978-0.066-1.422-0.198s-0.802-0.318-1.074-0.558l0.312-0.684
		c0.28,0.224,0.608,0.394,0.984,0.51s0.768,0.174,1.176,0.174c0.576,0,0.99-0.084,1.242-0.252s0.378-0.416,0.378-0.744
		c0-0.632-0.404-0.948-1.212-0.948h-1.38v-0.732h1.26c0.344,0,0.618-0.08,0.822-0.24C38.898,69.647,39,69.423,39,69.135
		s-0.112-0.518-0.336-0.69s-0.584-0.258-1.08-0.258c-0.776,0-1.464,0.212-2.064,0.636l-0.312-0.684
		c0.656-0.472,1.488-0.708,2.496-0.708c0.744,0,1.3,0.144,1.668,0.432c0.368,0.288,0.552,0.692,0.552,1.212
		c0,0.296-0.086,0.558-0.258,0.786c-0.172,0.228-0.406,0.394-0.702,0.498c0.36,0.088,0.644,0.254,0.852,0.498
		s0.312,0.546,0.312,0.906c0,0.52-0.212,0.936-0.636,1.248C39.068,73.323,38.44,73.479,37.608,73.479z"/>
	<path fill="#2A2724" d="M41.639,73.371v-5.832h0.888v4.512l3.372-4.512h0.828v5.832h-0.888v-4.512l-3.372,4.512H41.639z"/>
	<path fill="#2A2724" d="M48.647,73.371v-5.832h0.888v4.512l3.372-4.512h0.828v5.832h-0.888v-4.512l-3.372,4.512H48.647z"/>
</g>
<g>
	<path fill="#2A2724" d="M182.487,75.254v-2.712h0.828c0.416-0.52,0.724-1.226,0.924-2.118s0.3-2.002,0.3-3.33V64.91h5.616v7.632
		h1.2v2.712h-0.9V73.37h-7.08v1.884H182.487z M184.347,72.543h4.812v-6.804h-3.696v1.428c0,1.288-0.09,2.364-0.27,3.228
		C185.013,71.259,184.731,71.975,184.347,72.543z"/>
	<path fill="#2A2724" d="M195.219,73.479c-0.92,0-1.648-0.27-2.184-0.81c-0.536-0.54-0.804-1.274-0.804-2.202
		c0-0.6,0.12-1.13,0.36-1.59c0.24-0.46,0.57-0.816,0.99-1.068s0.906-0.378,1.458-0.378c0.792,0,1.412,0.254,1.86,0.762
		s0.672,1.206,0.672,2.094v0.372h-4.392c0.032,0.664,0.224,1.17,0.576,1.518s0.84,0.522,1.464,0.522
		c0.352,0,0.688-0.054,1.008-0.162s0.624-0.286,0.912-0.534l0.336,0.684c-0.264,0.248-0.6,0.442-1.008,0.582
		C196.059,73.409,195.643,73.479,195.219,73.479z M195.063,68.15c-0.552,0-0.988,0.172-1.308,0.516
		c-0.32,0.344-0.508,0.796-0.564,1.356h3.54c-0.024-0.592-0.178-1.052-0.462-1.38S195.583,68.15,195.063,68.15z"/>
	<path fill="#2A2724" d="M198.603,73.371l0.9-1.56c0.24-0.424,0.548-0.7,0.924-0.828c-0.496-0.072-0.88-0.254-1.152-0.546
		s-0.408-0.674-0.408-1.146c0-0.536,0.178-0.962,0.534-1.278s0.89-0.474,1.602-0.474h2.628v5.832h-0.924v-2.22h-0.852
		c-0.32,0-0.59,0.08-0.81,0.24s-0.398,0.356-0.534,0.588l-0.792,1.392H198.603z M201.183,70.442h1.524v-2.22h-1.524
		c-0.472,0-0.82,0.098-1.044,0.294s-0.336,0.466-0.336,0.81c0,0.352,0.112,0.626,0.336,0.822
		C200.362,70.345,200.711,70.442,201.183,70.442z"/>
	<path fill="#2A2724" d="M206.762,73.371v-5.052h-2.112v-0.78h5.208v0.78h-2.124v5.052H206.762z"/>
	<path fill="#2A2724" d="M213.495,73.479c-0.92,0-1.648-0.27-2.184-0.81c-0.536-0.54-0.804-1.274-0.804-2.202
		c0-0.6,0.12-1.13,0.36-1.59c0.24-0.46,0.57-0.816,0.99-1.068s0.906-0.378,1.458-0.378c0.792,0,1.412,0.254,1.86,0.762
		s0.672,1.206,0.672,2.094v0.372h-4.392c0.032,0.664,0.224,1.17,0.576,1.518s0.84,0.522,1.464,0.522
		c0.352,0,0.688-0.054,1.008-0.162s0.624-0.286,0.912-0.534l0.336,0.684c-0.264,0.248-0.6,0.442-1.008,0.582
		C214.335,73.409,213.919,73.479,213.495,73.479z M213.338,68.15c-0.552,0-0.988,0.172-1.308,0.516
		c-0.32,0.344-0.508,0.796-0.564,1.356h3.54c-0.024-0.592-0.178-1.052-0.462-1.38S213.859,68.15,213.338,68.15z"/>
	<path fill="#2A2724" d="M217.035,73.502l-0.36-0.768c0.36-0.152,0.644-0.366,0.852-0.642c0.208-0.276,0.354-0.658,0.438-1.146
		c0.084-0.488,0.126-1.128,0.126-1.92v-1.488h4.236v5.832h-0.972v-5.051h-2.352v0.744c0,0.912-0.066,1.664-0.198,2.256
		s-0.342,1.06-0.63,1.404C217.886,73.067,217.506,73.327,217.035,73.502z"/>
	<path fill="#2A2724" d="M224.246,73.371v-5.832h0.972v2.076h1.764c0.744,0,1.308,0.162,1.692,0.486
		c0.384,0.324,0.576,0.782,0.576,1.374c0,0.584-0.198,1.046-0.594,1.386s-0.954,0.51-1.674,0.51L224.246,73.371L224.246,73.371z
		 M225.218,72.675h1.668c0.448,0,0.798-0.096,1.05-0.288s0.378-0.492,0.378-0.9c0-0.4-0.124-0.696-0.372-0.888
		s-0.6-0.288-1.056-0.288h-1.668L225.218,72.675L225.218,72.675z"/>
	<path fill="#2A2724" d="M230.69,73.371v-5.832h0.972v2.424h3.18v-2.424h0.972v5.832h-0.972v-2.616h-3.18v2.616H230.69z"/>
	<path fill="#2A2724" d="M240.17,73.479c-0.568,0-1.06-0.124-1.476-0.372s-0.738-0.598-0.966-1.05s-0.342-0.986-0.342-1.602
		c0-0.616,0.114-1.15,0.342-1.602c0.228-0.452,0.55-0.802,0.966-1.05s0.908-0.372,1.476-0.372c0.56,0,1.05,0.124,1.47,0.372
		s0.744,0.598,0.972,1.05s0.342,0.986,0.342,1.602c0,0.616-0.114,1.15-0.342,1.602s-0.552,0.802-0.972,1.05
		C241.22,73.355,240.73,73.479,240.17,73.479z M240.17,72.699c0.544,0,0.98-0.194,1.308-0.582s0.492-0.942,0.492-1.662
		c0-0.728-0.164-1.284-0.492-1.668s-0.764-0.576-1.308-0.576c-0.552,0-0.99,0.192-1.314,0.576c-0.324,0.384-0.486,0.94-0.486,1.668
		c0,0.72,0.162,1.274,0.486,1.662C239.18,72.505,239.618,72.699,240.17,72.699z"/>
	<path fill="#2A2724" d="M247.01,73.479c-0.584,0-1.088-0.126-1.512-0.378c-0.424-0.252-0.75-0.608-0.978-1.068
		s-0.342-0.998-0.342-1.614c0-0.928,0.252-1.658,0.756-2.19s1.196-0.798,2.076-0.798c0.36,0,0.716,0.064,1.068,0.192
		s0.644,0.308,0.876,0.54l-0.336,0.708c-0.232-0.224-0.486-0.388-0.762-0.492s-0.538-0.156-0.786-0.156
		c-0.608,0-1.076,0.19-1.404,0.57s-0.492,0.926-0.492,1.638c0,0.696,0.164,1.246,0.492,1.65c0.328,0.404,0.796,0.606,1.404,0.606
		c0.248,0,0.51-0.052,0.786-0.156s0.53-0.272,0.762-0.504l0.336,0.708c-0.232,0.232-0.526,0.414-0.882,0.546
		C247.716,73.413,247.362,73.479,247.01,73.479z"/>
	<path fill="#2A2724" d="M251.414,73.371v-5.052h-2.112v-0.78h5.208v0.78h-2.124v5.052H251.414z"/>
	<path fill="#2A2724" d="M255.529,73.371v-5.832h0.972v2.076h1.764c0.744,0,1.308,0.162,1.692,0.486
		c0.384,0.324,0.576,0.782,0.576,1.374c0,0.584-0.198,1.046-0.594,1.386s-0.954,0.51-1.674,0.51L255.529,73.371L255.529,73.371z
		 M256.502,72.675h1.668c0.448,0,0.798-0.096,1.05-0.288s0.378-0.492,0.378-0.9c0-0.4-0.124-0.696-0.372-0.888
		s-0.6-0.288-1.056-0.288h-1.668L256.502,72.675L256.502,72.675z"/>
</g>
<g>
	<path fill="#2A2724" d="M93.2,141.793v-8.46h0.984v3.768h1.488l2.484-3.768h1.116l-2.628,3.912c0.352,0.12,0.662,0.314,0.93,0.582
		s0.506,0.61,0.714,1.026l1.428,2.94h-1.08l-1.164-2.484c-0.232-0.488-0.5-0.836-0.804-1.044c-0.304-0.208-0.676-0.312-1.116-0.312
		h-1.368v3.84H93.2z"/>
	<path fill="#2A2724" d="M103.172,141.901c-0.568,0-1.06-0.124-1.476-0.372s-0.738-0.598-0.966-1.05s-0.342-0.986-0.342-1.602
		c0-0.616,0.114-1.15,0.342-1.602c0.228-0.452,0.55-0.802,0.966-1.05s0.908-0.372,1.476-0.372c0.56,0,1.05,0.124,1.47,0.372
		s0.744,0.598,0.972,1.05s0.342,0.986,0.342,1.602c0,0.616-0.114,1.15-0.342,1.602s-0.552,0.802-0.972,1.05
		C104.222,141.777,103.732,141.901,103.172,141.901z M103.172,141.121c0.544,0,0.98-0.194,1.308-0.582
		c0.328-0.388,0.492-0.942,0.492-1.662c0-0.728-0.164-1.284-0.492-1.668c-0.328-0.384-0.764-0.576-1.308-0.576
		c-0.552,0-0.99,0.192-1.314,0.576c-0.324,0.384-0.486,0.94-0.486,1.668c0,0.72,0.162,1.274,0.486,1.662
		C102.182,140.927,102.62,141.121,103.172,141.121z"/>
	<path fill="#2A2724" d="M107.528,141.793v-5.832h0.972v2.424h3.18v-2.424h0.972v5.832h-0.972v-2.616h-3.18v2.616H107.528z"/>
	<path fill="#2A2724" d="M115.783,141.793v-5.052h-2.112v-0.78h5.208v0.78h-2.124v5.052H115.783z"/>
	<path fill="#2A2724" d="M121.748,141.901c-0.4,0-0.758-0.078-1.074-0.234c-0.316-0.156-0.566-0.37-0.75-0.642
		s-0.276-0.576-0.276-0.912c0-0.424,0.11-0.76,0.33-1.008s0.584-0.426,1.092-0.534s1.202-0.162,2.082-0.162h0.384v-0.372
		c0-0.496-0.102-0.854-0.306-1.074s-0.53-0.33-0.978-0.33c-0.352,0-0.692,0.05-1.02,0.15s-0.664,0.262-1.008,0.486l-0.336-0.708
		c0.304-0.216,0.674-0.388,1.11-0.516s0.854-0.192,1.254-0.192c0.752,0,1.31,0.184,1.674,0.552s0.546,0.94,0.546,1.716v3.672h-0.912
		v-1.008c-0.152,0.344-0.386,0.616-0.702,0.816C122.542,141.801,122.171,141.901,121.748,141.901z M121.903,141.169
		c0.48,0,0.872-0.166,1.176-0.498s0.456-0.754,0.456-1.266v-0.36h-0.372c-0.648,0-1.158,0.03-1.53,0.09s-0.632,0.164-0.78,0.312
		s-0.222,0.35-0.222,0.606c0,0.328,0.114,0.596,0.342,0.804S121.511,141.169,121.903,141.169z"/>
	<path fill="#2A2724" d="M126.367,141.793v-5.832h0.972v2.436h1.092l1.908-2.436h1.068l-2.028,2.628
		c0.208,0.08,0.396,0.212,0.564,0.396c0.168,0.184,0.356,0.448,0.564,0.792l1.2,2.016h-1.044l-1.056-1.764
		c-0.2-0.344-0.392-0.572-0.576-0.684s-0.444-0.168-0.78-0.168h-0.912v2.616H126.367z"/>
	<path fill="#2A2724" d="M133.891,141.793v-5.052h-2.112v-0.78h5.208v0.78h-2.124v5.052H133.891z"/>
	<path fill="#2A2724" d="M138.007,141.793v-5.832h0.972v2.076h1.764c0.744,0,1.308,0.162,1.692,0.486
		c0.384,0.324,0.576,0.782,0.576,1.374c0,0.584-0.198,1.046-0.594,1.386s-0.954,0.51-1.674,0.51L138.007,141.793L138.007,141.793z
		 M138.979,141.097h1.668c0.448,0,0.798-0.096,1.05-0.288s0.378-0.492,0.378-0.9c0-0.4-0.124-0.696-0.372-0.888
		s-0.6-0.288-1.056-0.288h-1.668L138.979,141.097L138.979,141.097z M143.875,141.793v-5.832h0.972v5.832H143.875z"/>
</g>
<g>
	<path fill="#2A2724" d="M421.098,8.46l1.5-2.76c0.256-0.472,0.56-0.776,0.912-0.912c-0.648-0.12-1.15-0.38-1.506-0.78
		c-0.356-0.4-0.534-0.92-0.534-1.56c0-0.784,0.242-1.388,0.726-1.812C422.68,0.212,423.378,0,424.29,0h3.348v8.46h-0.984V4.884
		h-1.416c-0.392,0-0.707,0.06-0.942,0.18s-0.446,0.348-0.63,0.684L422.19,8.46H421.098z M424.434,4.104h2.22V0.816h-2.22
		c-1.328,0-1.992,0.544-1.992,1.632C422.442,3.551,423.106,4.104,424.434,4.104z"/>
</g>
<g>
	<path fill="#2A2724" d="M489.899,73.371v-7.608h-3.072v-0.852h7.14v0.852h-3.072v7.608H489.899z"/>
	<path fill="#2A2724" d="M494.05,73.371v-5.832h0.972v2.076h1.764c0.744,0,1.308,0.162,1.692,0.486
		c0.384,0.324,0.576,0.782,0.576,1.374c0,0.584-0.198,1.046-0.594,1.386s-0.954,0.51-1.674,0.51L494.05,73.371L494.05,73.371z
		 M495.023,72.675h1.668c0.448,0,0.798-0.096,1.05-0.288s0.378-0.492,0.378-0.9c0-0.4-0.124-0.696-0.372-0.888
		s-0.6-0.288-1.056-0.288h-1.668V72.675z M499.919,73.371v-5.832h0.972v5.832H499.919z"/>
</g>
<g>
	<path fill="#2A2724" d="M417.792,141.793v-8.46h0.828l3.252,6.108l3.228-6.108h0.828v8.46h-0.912v-6.612l-2.82,5.304h-0.648
		l-2.856-5.292v6.6H417.792z"/>
	<path fill="#2A2724" d="M427.943,141.793v-5.832h0.972v2.076h1.764c0.744,0,1.308,0.162,1.692,0.486
		c0.384,0.324,0.576,0.782,0.576,1.374c0,0.584-0.198,1.046-0.594,1.386s-0.954,0.51-1.674,0.51L427.943,141.793L427.943,141.793z
		 M428.916,141.097h1.668c0.448,0,0.798-0.096,1.05-0.288s0.378-0.492,0.378-0.9c0-0.4-0.124-0.696-0.372-0.888
		s-0.6-0.288-1.056-0.288h-1.668L428.916,141.097L428.916,141.097z M433.812,141.793v-5.832h0.972v5.832H433.812z"/>
</g>
<g>
	<path fill="#2A2724" d="M317.153,73.371v-8.46h6.984v8.46h-0.996v-7.608h-5.004v7.608H317.153z"/>
	<path fill="#2A2724" d="M326.153,75.531v-7.992h0.948v1.044c0.176-0.36,0.438-0.642,0.786-0.846
		c0.348-0.204,0.754-0.306,1.218-0.306c0.52,0,0.974,0.122,1.362,0.366s0.688,0.592,0.9,1.044c0.212,0.452,0.318,0.99,0.318,1.614
		c0,0.616-0.106,1.15-0.318,1.602s-0.512,0.802-0.9,1.05s-0.842,0.372-1.362,0.372c-0.448,0-0.848-0.1-1.2-0.3
		c-0.352-0.2-0.612-0.476-0.78-0.828v3.18H326.153z M328.901,72.699c0.544,0,0.979-0.194,1.308-0.582s0.492-0.942,0.492-1.662
		c0-0.728-0.164-1.284-0.492-1.668s-0.764-0.576-1.308-0.576s-0.98,0.192-1.308,0.576s-0.492,0.94-0.492,1.668
		c0,0.72,0.164,1.274,0.492,1.662C327.921,72.505,328.357,72.699,328.901,72.699z"/>
	<path fill="#2A2724" d="M335.106,73.479c-0.4,0-0.758-0.078-1.074-0.234c-0.316-0.156-0.566-0.37-0.75-0.642
		s-0.276-0.576-0.276-0.912c0-0.424,0.11-0.76,0.33-1.008s0.584-0.426,1.092-0.534s1.202-0.162,2.082-0.162h0.384v-0.372
		c0-0.496-0.102-0.854-0.306-1.074s-0.53-0.33-0.978-0.33c-0.352,0-0.692,0.05-1.02,0.15s-0.664,0.262-1.008,0.486l-0.336-0.708
		c0.304-0.216,0.674-0.388,1.11-0.516s0.854-0.192,1.254-0.192c0.752,0,1.31,0.184,1.674,0.552s0.546,0.94,0.546,1.716v3.672h-0.912
		v-1.008c-0.152,0.344-0.386,0.616-0.702,0.816C335.9,73.378,335.529,73.479,335.106,73.479z M335.261,72.747
		c0.48,0,0.872-0.166,1.176-0.498s0.456-0.754,0.456-1.266v-0.36h-0.372c-0.648,0-1.158,0.03-1.53,0.09s-0.632,0.164-0.78,0.312
		s-0.222,0.35-0.222,0.606c0,0.328,0.114,0.596,0.342,0.804S334.869,72.747,335.261,72.747z"/>
	<path fill="#2A2724" d="M339.629,70.575v-0.804h3.36v0.804H339.629z"/>
	<path fill="#2A2724" d="M344.813,73.371v-5.832h0.804l2.196,3.9l2.196-3.9h0.792v5.832h-0.864v-4.248l-1.884,3.312h-0.492
		l-1.884-3.312v4.248H344.813z"/>
	<path fill="#2A2724" d="M352.721,73.371v-5.832h0.972v2.076h1.764c0.744,0,1.308,0.162,1.692,0.486
		c0.384,0.324,0.576,0.782,0.576,1.374c0,0.584-0.198,1.046-0.594,1.386s-0.954,0.51-1.674,0.51L352.721,73.371L352.721,73.371z
		 M353.693,72.675h1.668c0.448,0,0.798-0.096,1.05-0.288s0.378-0.492,0.378-0.9c0-0.4-0.124-0.696-0.372-0.888
		s-0.6-0.288-1.056-0.288h-1.668L353.693,72.675L353.693,72.675z M358.589,73.371v-5.832h0.972v5.832H358.589z"/>
</g>
<rect x="386.664" y="33.378" transform="matrix(-0.7071 0.7071 -0.7071 -0.7071 775.4044 -178.4387)" fill="none" stroke="#292724" stroke-miterlimit="10" width="75.988" height="75.988"/>
<rect x="81.004" y="33.376" transform="matrix(-0.7071 0.7071 -0.7071 -0.7071 253.6091 37.692)" fill="none" stroke="#292724" stroke-miterlimit="10" width="75.988" height="75.988"/>
<g>
	<path fill="#292724" d="M99.695,67.91v-7.755h0.759l2.981,5.599l2.959-5.599h0.759v7.755h-0.836v-6.061l-2.585,4.862h-0.594
		l-2.618-4.851v6.05H99.695z"/>
	<path fill="#292724" d="M111.234,68.009c-0.521,0-0.972-0.114-1.353-0.341c-0.381-0.227-0.676-0.548-0.885-0.962
		c-0.209-0.414-0.313-0.904-0.313-1.468c0-0.565,0.104-1.054,0.313-1.469c0.209-0.414,0.504-0.735,0.885-0.962
		c0.381-0.227,0.833-0.341,1.353-0.341c0.513,0,0.963,0.114,1.348,0.341c0.385,0.228,0.682,0.548,0.891,0.962
		c0.209,0.415,0.313,0.904,0.313,1.469c0,0.564-0.104,1.054-0.313,1.468c-0.209,0.415-0.506,0.735-0.891,0.962
		C112.197,67.895,111.747,68.009,111.234,68.009z M111.234,67.294c0.499,0,0.898-0.178,1.199-0.533s0.451-0.864,0.451-1.523
		c0-0.667-0.15-1.177-0.451-1.529s-0.7-0.528-1.199-0.528c-0.506,0-0.907,0.176-1.204,0.528c-0.297,0.352-0.446,0.862-0.446,1.529
		c0,0.66,0.148,1.168,0.446,1.523C110.327,67.116,110.728,67.294,111.234,67.294z"/>
	<path fill="#292724" d="M114.644,69.34v-2.145h0.561c0.257-0.374,0.44-0.805,0.55-1.292c0.11-0.488,0.165-1.076,0.165-1.766v-1.573
		h3.784v4.631h0.847v2.145h-0.77v-1.43h-4.378v1.43H114.644z M116.063,67.195h2.794v-3.927h-2.145v1.023
		c0,0.55-0.055,1.082-0.165,1.595C116.437,66.399,116.276,66.836,116.063,67.195z"/>
	<path fill="#292724" d="M124.159,68.009c-0.843,0-1.511-0.248-2.002-0.743s-0.737-1.167-0.737-2.019c0-0.55,0.11-1.036,0.33-1.458
		c0.22-0.421,0.522-0.748,0.907-0.979c0.385-0.231,0.831-0.346,1.336-0.346c0.726,0,1.294,0.233,1.705,0.698
		c0.411,0.466,0.616,1.105,0.616,1.919v0.341h-4.026c0.029,0.608,0.205,1.072,0.528,1.391c0.323,0.319,0.77,0.479,1.342,0.479
		c0.323,0,0.631-0.049,0.924-0.148c0.293-0.099,0.572-0.262,0.836-0.489l0.308,0.627c-0.242,0.228-0.55,0.405-0.924,0.534
		C124.929,67.944,124.548,68.009,124.159,68.009z M124.016,63.125c-0.506,0-0.906,0.158-1.199,0.473
		c-0.293,0.315-0.466,0.73-0.517,1.243h3.245c-0.022-0.543-0.163-0.964-0.423-1.265C124.861,63.275,124.493,63.125,124.016,63.125z"
		/>
	<path fill="#292724" d="M127.404,68.031l-0.33-0.704c0.33-0.139,0.59-0.335,0.781-0.588c0.19-0.253,0.324-0.603,0.401-1.051
		c0.077-0.447,0.115-1.034,0.115-1.76v-1.364h3.883v5.346h-0.891v-4.631h-2.156v0.682c0,0.836-0.061,1.525-0.182,2.068
		c-0.121,0.542-0.313,0.972-0.578,1.287C128.185,67.631,127.837,67.87,127.404,68.031z"/>
	<path fill="#292724" d="M134.015,67.91v-5.346h0.891v1.903h1.617c0.682,0,1.199,0.148,1.551,0.445s0.528,0.717,0.528,1.26
		c0,0.535-0.181,0.958-0.544,1.271c-0.363,0.312-0.875,0.467-1.534,0.467H134.015z M134.906,67.272h1.529
		c0.411,0,0.732-0.088,0.963-0.264c0.231-0.176,0.346-0.451,0.346-0.825c0-0.367-0.114-0.638-0.341-0.814
		c-0.228-0.176-0.55-0.264-0.968-0.264h-1.529V67.272z"/>
	<path fill="#292724" d="M101.02,81.21c-0.792,0-1.419-0.261-1.881-0.781s-0.693-1.276-0.693-2.267v-0.824
		c0-1.063,0.212-1.872,0.638-2.426c0.425-0.554,1.07-0.947,1.936-1.183l1.903-0.539l0.297,0.737l-2.134,0.572
		c-0.594,0.161-1.04,0.449-1.337,0.863c-0.297,0.414-0.445,0.922-0.445,1.523v0.021c0.168-0.358,0.418-0.644,0.748-0.853
		s0.719-0.313,1.166-0.313c0.462,0,0.869,0.11,1.221,0.33c0.352,0.221,0.625,0.534,0.819,0.94c0.194,0.407,0.292,0.886,0.292,1.436
		c0,0.558-0.104,1.044-0.313,1.458s-0.502,0.735-0.88,0.962C101.979,81.095,101.534,81.21,101.02,81.21z M100.988,80.494
		c0.521,0,0.928-0.174,1.221-0.522c0.293-0.348,0.44-0.849,0.44-1.501c0-0.638-0.147-1.133-0.44-1.485
		c-0.293-0.352-0.697-0.527-1.21-0.527s-0.917,0.172-1.21,0.517s-0.44,0.817-0.44,1.419c0,0.689,0.143,1.212,0.429,1.567
		S100.467,80.494,100.988,80.494z"/>
	<path fill="#292724" d="M106.686,81.21c-0.367,0-0.695-0.072-0.985-0.215s-0.519-0.339-0.688-0.589
		c-0.168-0.249-0.253-0.527-0.253-0.836c0-0.389,0.101-0.696,0.303-0.924c0.202-0.228,0.535-0.391,1.001-0.489
		c0.465-0.1,1.102-0.148,1.908-0.148h0.352v-0.341c0-0.455-0.093-0.783-0.28-0.985c-0.187-0.201-0.486-0.302-0.896-0.302
		c-0.323,0-0.635,0.046-0.935,0.138c-0.301,0.092-0.609,0.24-0.924,0.445l-0.308-0.649c0.278-0.198,0.618-0.355,1.018-0.473
		c0.399-0.117,0.783-0.176,1.149-0.176c0.689,0,1.201,0.168,1.534,0.506c0.334,0.337,0.5,0.861,0.5,1.572v3.366h-0.836v-0.924
		c-0.139,0.315-0.354,0.564-0.644,0.748C107.413,81.118,107.074,81.21,106.686,81.21z M106.828,80.539
		c0.44,0,0.799-0.152,1.078-0.457c0.279-0.304,0.418-0.691,0.418-1.16v-0.33h-0.341c-0.594,0-1.062,0.027-1.402,0.082
		c-0.341,0.056-0.58,0.15-0.715,0.286s-0.204,0.321-0.204,0.556c0,0.301,0.104,0.546,0.313,0.737
		C106.185,80.443,106.469,80.539,106.828,80.539z"/>
	<path fill="#292724" d="M110.623,81.231l-0.33-0.704c0.33-0.139,0.59-0.335,0.781-0.588c0.19-0.253,0.324-0.604,0.401-1.051
		s0.115-1.034,0.115-1.76v-1.364h3.883v5.346h-0.891v-4.631h-2.156v0.682c0,0.837-0.061,1.525-0.182,2.068s-0.313,0.972-0.578,1.287
		S111.056,81.07,110.623,81.231z"/>
	<path fill="#292724" d="M118.929,81.21c-0.367,0-0.695-0.072-0.985-0.215s-0.519-0.339-0.688-0.589
		c-0.168-0.249-0.253-0.527-0.253-0.836c0-0.389,0.101-0.696,0.303-0.924c0.202-0.228,0.535-0.391,1.001-0.489
		c0.465-0.1,1.102-0.148,1.908-0.148h0.352v-0.341c0-0.455-0.093-0.783-0.28-0.985c-0.187-0.201-0.486-0.302-0.896-0.302
		c-0.323,0-0.635,0.046-0.935,0.138c-0.301,0.092-0.609,0.24-0.924,0.445l-0.308-0.649c0.278-0.198,0.618-0.355,1.018-0.473
		c0.399-0.117,0.783-0.176,1.149-0.176c0.689,0,1.201,0.168,1.534,0.506c0.334,0.337,0.5,0.861,0.5,1.572v3.366h-0.836v-0.924
		c-0.139,0.315-0.354,0.564-0.644,0.748C119.656,81.118,119.317,81.21,118.929,81.21z M119.071,80.539
		c0.44,0,0.799-0.152,1.078-0.457c0.279-0.304,0.418-0.691,0.418-1.16v-0.33h-0.341c-0.594,0-1.062,0.027-1.402,0.082
		c-0.341,0.056-0.58,0.15-0.715,0.286s-0.204,0.321-0.204,0.556c0,0.301,0.104,0.546,0.313,0.737
		C118.428,80.443,118.712,80.539,119.071,80.539z"/>
	<path fill="#292724" d="M123.163,81.11v-5.346h0.891v2.222h2.915v-2.222h0.891v5.346h-0.891v-2.397h-2.915v2.397H123.163z"/>
	<path fill="#292724" d="M131.897,81.21c-0.536,0-0.998-0.116-1.386-0.347c-0.389-0.231-0.688-0.558-0.896-0.979
		c-0.209-0.421-0.313-0.914-0.313-1.479c0-0.851,0.231-1.52,0.693-2.007c0.462-0.488,1.096-0.731,1.903-0.731
		c0.33,0,0.656,0.059,0.979,0.176c0.322,0.117,0.59,0.282,0.803,0.495l-0.308,0.648c-0.212-0.205-0.445-0.355-0.698-0.451
		c-0.253-0.095-0.493-0.143-0.721-0.143c-0.557,0-0.986,0.174-1.287,0.522s-0.451,0.849-0.451,1.502c0,0.638,0.15,1.142,0.451,1.512
		c0.301,0.371,0.73,0.556,1.287,0.556c0.228,0,0.468-0.048,0.721-0.143c0.253-0.096,0.486-0.249,0.698-0.462l0.308,0.648
		c-0.213,0.213-0.482,0.38-0.809,0.501S132.22,81.21,131.897,81.21z"/>
	<path fill="#292724" d="M136.517,81.21c-0.367,0-0.695-0.072-0.985-0.215s-0.519-0.339-0.688-0.589
		c-0.168-0.249-0.253-0.527-0.253-0.836c0-0.389,0.101-0.696,0.303-0.924c0.202-0.228,0.535-0.391,1.001-0.489
		c0.465-0.1,1.102-0.148,1.908-0.148h0.352v-0.341c0-0.455-0.093-0.783-0.28-0.985c-0.187-0.201-0.486-0.302-0.896-0.302
		c-0.323,0-0.635,0.046-0.935,0.138c-0.301,0.092-0.609,0.24-0.924,0.445l-0.308-0.649c0.278-0.198,0.618-0.355,1.018-0.473
		c0.399-0.117,0.783-0.176,1.149-0.176c0.689,0,1.201,0.168,1.534,0.506c0.334,0.337,0.5,0.861,0.5,1.572v3.366h-0.836v-0.924
		c-0.139,0.315-0.354,0.564-0.644,0.748C137.244,81.118,136.905,81.21,136.517,81.21z M136.66,80.539
		c0.44,0,0.799-0.152,1.078-0.457c0.279-0.304,0.418-0.691,0.418-1.16v-0.33h-0.341c-0.594,0-1.062,0.027-1.402,0.082
		c-0.341,0.056-0.58,0.15-0.715,0.286s-0.204,0.321-0.204,0.556c0,0.301,0.104,0.546,0.313,0.737
		C136.016,80.443,136.3,80.539,136.66,80.539z"/>
</g>
<g>
	<path fill="#292724" d="M407.454,67.911v-7.755h0.759l2.981,5.599l2.959-5.599h0.759v7.755h-0.836V61.85l-2.585,4.862h-0.594
		l-2.618-4.851v6.05H407.454z"/>
	<path fill="#292724" d="M418.993,68.01c-0.521,0-0.972-0.114-1.354-0.341c-0.381-0.227-0.676-0.548-0.885-0.962
		c-0.209-0.414-0.313-0.904-0.313-1.468c0-0.565,0.104-1.054,0.313-1.469c0.209-0.414,0.504-0.735,0.885-0.962
		c0.382-0.227,0.833-0.341,1.354-0.341c0.513,0,0.963,0.114,1.348,0.341c0.385,0.228,0.682,0.548,0.891,0.962
		c0.209,0.415,0.313,0.904,0.313,1.469c0,0.564-0.104,1.054-0.313,1.468c-0.209,0.415-0.506,0.735-0.891,0.962
		C419.956,67.896,419.506,68.01,418.993,68.01z M418.993,67.295c0.499,0,0.898-0.178,1.199-0.533s0.451-0.864,0.451-1.523
		c0-0.667-0.15-1.177-0.451-1.529s-0.7-0.528-1.199-0.528c-0.506,0-0.907,0.176-1.204,0.528c-0.298,0.352-0.446,0.862-0.446,1.529
		c0,0.66,0.148,1.168,0.446,1.523C418.086,67.117,418.487,67.295,418.993,67.295z"/>
	<path fill="#292724" d="M422.403,69.341v-2.145h0.561c0.257-0.374,0.44-0.805,0.551-1.292c0.109-0.488,0.165-1.076,0.165-1.766
		v-1.573h3.783v4.631h0.848v2.145h-0.771v-1.43h-4.378v1.43H422.403z M423.822,67.196h2.794v-3.927h-2.145v1.023
		c0,0.55-0.056,1.082-0.165,1.595C424.196,66.4,424.035,66.837,423.822,67.196z"/>
	<path fill="#292724" d="M431.918,68.01c-0.843,0-1.511-0.248-2.002-0.743s-0.736-1.167-0.736-2.019c0-0.55,0.109-1.036,0.33-1.458
		c0.22-0.421,0.522-0.748,0.907-0.979s0.83-0.346,1.336-0.346c0.727,0,1.295,0.233,1.705,0.698c0.411,0.466,0.616,1.105,0.616,1.919
		v0.341h-4.025c0.028,0.608,0.205,1.072,0.527,1.391c0.323,0.319,0.771,0.479,1.342,0.479c0.323,0,0.631-0.049,0.925-0.148
		c0.293-0.099,0.571-0.262,0.836-0.489l0.308,0.627c-0.242,0.228-0.55,0.405-0.924,0.534
		C432.688,67.945,432.307,68.01,431.918,68.01z M431.775,63.126c-0.506,0-0.906,0.158-1.199,0.473s-0.466,0.73-0.517,1.243h3.245
		c-0.022-0.543-0.163-0.964-0.424-1.265S432.252,63.126,431.775,63.126z"/>
	<path fill="#292724" d="M435.163,68.032l-0.33-0.704c0.33-0.139,0.591-0.335,0.781-0.588s0.324-0.603,0.401-1.051
		c0.077-0.447,0.115-1.034,0.115-1.76v-1.364h3.884v5.346h-0.892V63.28h-2.155v0.682c0,0.836-0.061,1.525-0.182,2.068
		c-0.121,0.542-0.313,0.972-0.578,1.287C435.944,67.632,435.596,67.871,435.163,68.032z"/>
	<path fill="#292724" d="M441.773,67.911v-5.346h0.892v1.903h1.617c0.682,0,1.198,0.148,1.551,0.445
		c0.352,0.297,0.527,0.717,0.527,1.26c0,0.535-0.181,0.958-0.544,1.271c-0.363,0.312-0.875,0.467-1.534,0.467H441.773z
		 M442.665,67.273h1.528c0.411,0,0.732-0.088,0.963-0.264c0.231-0.176,0.347-0.451,0.347-0.825c0-0.367-0.114-0.638-0.341-0.814
		c-0.228-0.176-0.551-0.264-0.969-0.264h-1.528V67.273z"/>
	<path fill="#292724" d="M395.024,81.111v-5.346h4.664v5.346h-0.892V76.48h-2.882v4.631H395.024z"/>
	<path fill="#292724" d="M403.681,81.211c-0.521,0-0.972-0.114-1.353-0.342c-0.382-0.227-0.677-0.548-0.886-0.962
		s-0.313-0.904-0.313-1.469s0.104-1.054,0.313-1.469c0.209-0.414,0.504-0.734,0.886-0.962c0.381-0.228,0.832-0.341,1.353-0.341
		c0.514,0,0.963,0.113,1.348,0.341c0.386,0.228,0.683,0.548,0.892,0.962c0.209,0.415,0.313,0.904,0.313,1.469
		s-0.104,1.055-0.313,1.469s-0.506,0.735-0.892,0.962C404.643,81.096,404.194,81.211,403.681,81.211z M403.681,80.495
		c0.499,0,0.898-0.178,1.199-0.533s0.451-0.863,0.451-1.523c0-0.667-0.15-1.177-0.451-1.529c-0.301-0.352-0.7-0.527-1.199-0.527
		c-0.506,0-0.907,0.176-1.204,0.527c-0.297,0.353-0.445,0.862-0.445,1.529c0,0.66,0.148,1.168,0.445,1.523
		S403.175,80.495,403.681,80.495z"/>
	<path fill="#292724" d="M407.091,82.542v-2.146h0.562c0.257-0.374,0.439-0.805,0.55-1.292c0.11-0.488,0.165-1.076,0.165-1.766
		v-1.573h3.784v4.631h0.847v2.146h-0.77v-1.431h-4.378v1.431H407.091z M408.51,80.396h2.794v-3.927h-2.145v1.022
		c0,0.551-0.055,1.082-0.165,1.596C408.884,79.6,408.723,80.037,408.51,80.396z"/>
	<path fill="#292724" d="M414.197,83.091v-7.326h0.869v0.957c0.161-0.33,0.401-0.589,0.721-0.775c0.318-0.188,0.69-0.28,1.116-0.28
		c0.477,0,0.893,0.111,1.249,0.335c0.355,0.224,0.63,0.543,0.824,0.957s0.292,0.907,0.292,1.479c0,0.564-0.098,1.055-0.292,1.469
		s-0.469,0.735-0.824,0.962c-0.356,0.228-0.772,0.342-1.249,0.342c-0.411,0-0.777-0.092-1.1-0.275
		c-0.323-0.184-0.562-0.437-0.715-0.759v2.915H414.197z M416.717,80.495c0.498,0,0.897-0.178,1.198-0.533s0.451-0.863,0.451-1.523
		c0-0.667-0.15-1.177-0.451-1.529c-0.301-0.352-0.7-0.527-1.198-0.527c-0.499,0-0.898,0.176-1.199,0.527
		c-0.301,0.353-0.451,0.862-0.451,1.529c0,0.66,0.15,1.168,0.451,1.523S416.218,80.495,416.717,80.495z"/>
	<path fill="#292724" d="M422.403,81.211c-0.367,0-0.695-0.072-0.985-0.215c-0.289-0.143-0.519-0.339-0.688-0.589
		c-0.168-0.249-0.253-0.527-0.253-0.836c0-0.389,0.101-0.696,0.303-0.924s0.535-0.391,1.001-0.489
		c0.466-0.1,1.102-0.148,1.908-0.148h0.353v-0.341c0-0.455-0.094-0.783-0.28-0.985c-0.188-0.201-0.486-0.302-0.896-0.302
		c-0.323,0-0.635,0.046-0.936,0.138s-0.608,0.24-0.924,0.445l-0.308-0.649c0.278-0.198,0.617-0.355,1.018-0.473
		c0.399-0.117,0.782-0.176,1.149-0.176c0.688,0,1.2,0.168,1.534,0.506c0.334,0.337,0.5,0.861,0.5,1.572v3.366h-0.836v-0.924
		c-0.139,0.315-0.354,0.564-0.644,0.748C423.131,81.119,422.791,81.211,422.403,81.211z M422.546,80.54
		c0.44,0,0.799-0.152,1.078-0.457c0.278-0.304,0.418-0.691,0.418-1.16v-0.33h-0.341c-0.595,0-1.062,0.027-1.402,0.082
		c-0.342,0.056-0.58,0.15-0.716,0.286s-0.203,0.321-0.203,0.556c0,0.301,0.104,0.546,0.313,0.737
		C421.902,80.444,422.186,80.54,422.546,80.54z"/>
	<path fill="#292724" d="M425.769,81.111l1.1-1.848c0.19-0.322,0.364-0.568,0.522-0.737c0.157-0.168,0.336-0.289,0.533-0.363
		l-1.881-2.397h0.979l1.76,2.233h0.847v-2.233h0.892v2.233h0.857l1.749-2.233h0.979l-1.882,2.397
		c0.198,0.074,0.376,0.195,0.534,0.363c0.157,0.169,0.331,0.415,0.522,0.737l1.1,1.848h-0.957l-0.968-1.617
		c-0.184-0.314-0.361-0.523-0.533-0.627c-0.173-0.103-0.409-0.153-0.71-0.153h-0.692v2.397h-0.892v-2.397h-0.692
		c-0.301,0-0.536,0.051-0.704,0.153c-0.169,0.104-0.349,0.313-0.539,0.627l-0.969,1.617H425.769z"/>
	<path fill="#292724" d="M436.967,81.211c-0.367,0-0.695-0.072-0.984-0.215c-0.29-0.143-0.519-0.339-0.688-0.589
		c-0.169-0.249-0.253-0.527-0.253-0.836c0-0.389,0.101-0.696,0.303-0.924c0.201-0.228,0.535-0.391,1.001-0.489
		c0.465-0.1,1.102-0.148,1.908-0.148h0.352v-0.341c0-0.455-0.093-0.783-0.28-0.985c-0.187-0.201-0.485-0.302-0.896-0.302
		c-0.322,0-0.635,0.046-0.935,0.138c-0.301,0.092-0.609,0.24-0.925,0.445l-0.308-0.649c0.278-0.198,0.618-0.355,1.018-0.473
		s0.783-0.176,1.149-0.176c0.689,0,1.201,0.168,1.534,0.506c0.334,0.337,0.501,0.861,0.501,1.572v3.366h-0.836v-0.924
		c-0.14,0.315-0.354,0.564-0.644,0.748S437.355,81.211,436.967,81.211z M437.109,80.54c0.44,0,0.8-0.152,1.078-0.457
		c0.279-0.304,0.418-0.691,0.418-1.16v-0.33h-0.341c-0.594,0-1.062,0.027-1.402,0.082c-0.341,0.056-0.579,0.15-0.715,0.286
		s-0.204,0.321-0.204,0.556c0,0.301,0.104,0.546,0.313,0.737C436.467,80.444,436.75,80.54,437.109,80.54z"/>
	<path fill="#292724" d="M441.201,81.111v-5.346h0.892v2.222h2.915v-2.222h0.891v5.346h-0.891v-2.397h-2.915v2.397H441.201z"/>
	<path fill="#292724" d="M447.658,81.111v-5.346h0.814v4.136l3.091-4.136h0.759v5.346h-0.813v-4.136l-3.091,4.136H447.658z"/>
	<path fill="#292724" d="M453.642,81.111l0.825-1.43c0.22-0.389,0.502-0.642,0.847-0.759c-0.455-0.066-0.807-0.233-1.056-0.501
		c-0.25-0.268-0.374-0.617-0.374-1.051c0-0.491,0.163-0.881,0.489-1.171s0.815-0.435,1.469-0.435h2.408v5.346h-0.847v-2.035h-0.781
		c-0.293,0-0.541,0.074-0.742,0.221c-0.202,0.146-0.365,0.326-0.489,0.539l-0.727,1.275H453.642z M456.008,78.427h1.396v-2.035
		h-1.396c-0.434,0-0.752,0.09-0.957,0.27c-0.206,0.18-0.309,0.427-0.309,0.742c0,0.323,0.103,0.574,0.309,0.754
		C455.256,78.338,455.574,78.427,456.008,78.427z"/>
</g>
</svg>
