<?xml version="1.0" encoding="utf-8"?>
<!-- Generator: Adobe Illustrator 17.0.0, SVG Export Plug-In . SVG Version: 6.00 Build 0)  -->
<!DOCTYPE svg PUBLIC "-//W3C//DTD SVG 1.1//EN" "http://www.w3.org/Graphics/SVG/1.1/DTD/svg11.dtd">
<svg version="1.1" id="f8d7d8f4-b875-4767-a598-99b9608f6632"
	 xmlns="http://www.w3.org/2000/svg" xmlns:xlink="http://www.w3.org/1999/xlink" x="0px" y="0px" width="840.477px" height="600px"
	 viewBox="0 0 840.477 600" enable-background="new 0 0 840.477 600" xml:space="preserve">
<title>dream_world</title>
<path fill="#F2F2F2" d="M630.036,512.736H215.221C105.282,491.14,15.5,416.757,15.5,305.524
	c-0.016-16.826,2.035-33.603,6.117-50.035l334.359-47.773l257.937-36.851c18.53,10.753,36.163,22.675,52.763,35.674L419.78,290.077
	l-116.471,39.411l130.8-28.837L705.591,240.8c16.492,16.35,31.481,33.845,44.823,52.319l-82.099,54.447l92.757-38.943
	c0.393,0.6,0.783,1.202,1.172,1.804C820.441,400.508,747.085,512.736,630.036,512.736z"/>
<path fill="#F2F2F2" d="M563.749,145.581c-62.789,11.503-139.986,26.042-219.359,41.156
	c-114.76,21.858-234.062,44.929-320.918,61.794c1.919-6.66,4.152-13.182,6.7-19.567c68.035-62.481,156.762-104.088,253.284-118.773
	h0.008c25.838-3.907,52.002-5.867,78.213-5.858C431.697,104.245,500.814,118.354,563.749,145.581z"/>
<ellipse fill="#D0CDE1" cx="126.474" cy="105.567" rx="67.146" ry="59.559"/>
<path fill="#454554" d="M629.248,512.736c-41.321,35.113-179.773,36.603-400.57,2.362c-4.517-0.702-9.003-1.489-13.457-2.362
	C105.282,491.14,15.5,416.757,15.5,305.524c-0.016-16.826,2.035-33.603,6.117-50.035c0.576-2.333,1.194-4.652,1.855-6.957
	c1.919-6.66,4.152-13.182,6.7-19.567C61.275,151.086,138.424,95.951,228.678,95.951c22.42,0,40.098,5.27,54.778,14.241h0.008
	c26.761,16.355,43.552,45.021,60.926,76.546c3.798,6.887,7.62,13.915,11.586,20.979c16.351,29.128,35.037,58.886,63.805,82.361
	c4.569,3.74,9.351,7.27,14.328,10.574c2.511,1.674,5.093,3.298,7.748,4.872C613.609,407.459,670.993,477.253,629.248,512.736z"/>
<ellipse fill="#393944" cx="490.776" cy="478.225" rx="71.56" ry="10.715"/>
<ellipse fill="#393944" cx="106.189" cy="359.076" rx="71.56" ry="10.715"/>
<path fill="#D0CDE1" d="M115.726,326.401c-11.819,13.71-10.467,32.24-10.467,32.24s20.513-3.7,32.332-17.41
	s10.467-32.24,10.467-32.24S127.545,312.691,115.726,326.401z"/>
<path fill="#FF825C" d="M123.471,329.481c-2.294,17.139-17.819,29.594-17.819,29.594s-11.807-15.333-9.513-32.471
	c2.293-17.139,17.819-29.594,17.819-29.594S125.765,312.342,123.471,329.481z"/>
<ellipse fill="#393944" cx="306.878" cy="429.116" rx="61.195" ry="9.163"/>
<path fill="#D0CDE1" d="M315.034,401.174c-10.107,11.724-8.951,27.57-8.951,27.57s17.542-3.164,27.649-14.888
	s8.951-27.57,8.951-27.57S325.14,389.449,315.034,401.174z"/>
<path fill="#FF825C" d="M321.657,403.807c-1.961,14.656-15.238,25.307-15.238,25.307s-10.097-13.112-8.135-27.768
	c1.961-14.656,15.238-25.307,15.238-25.307S323.618,389.151,321.657,403.807z"/>
<path fill="#FF825C" d="M583.903,397.96c0.033,59.492-39.829,80.279-89.01,80.3c-1.142,0-2.279-0.01-3.411-0.032
	c-2.279-0.043-4.535-0.134-6.767-0.273c-44.389-2.769-78.89-24.59-78.92-79.918c-0.031-57.257,82.429-129.55,88.614-134.896
	c0.005,0,0.005,0,0.011-0.005c0.235-0.204,0.355-0.306,0.355-0.306S583.871,338.473,583.903,397.96z"/>
<path fill="#393944" d="M491.648,469.162l32.548-40.38l-32.628,44.811l-0.085,4.635c-2.279-0.043-4.535-0.134-6.767-0.273
	l3.476-59.518l-0.028-0.461l0.06-0.087l0.33-5.624l-32.759-44.895l32.855,40.682l0.083,1.193l2.626-44.968l-28.048-46.395
	l28.388,38.492l2.709-93.232l0.011-0.31v0.305L494,336.66l27.876-29.159l-27.993,35.491l-0.716,40.265l26.034-38.651l-26.135,44.571
	l-0.398,22.389l37.783-53.802l-37.926,61.613L491.648,469.162z"/>
<ellipse fill="#393944" cx="204.091" cy="283.916" rx="93.393" ry="13.984"/>
<path fill="#FF825C" d="M325.63,179.164c0.043,77.642-51.98,104.771-116.165,104.799c-1.491,0.001-2.975-0.013-4.451-0.042
	c-2.975-0.056-5.918-0.175-8.831-0.357c-57.931-3.613-102.958-32.092-102.998-104.299C93.144,104.539,200.762,10.191,208.833,3.215
	c0.007,0,0.007,0,0.014-0.006c0.307-0.266,0.464-0.399,0.464-0.399S325.588,101.528,325.63,179.164z"/>
<path fill="#393944" d="M205.229,272.088l42.478-52.7l-42.582,58.483l-0.111,6.049c-2.975-0.056-5.918-0.175-8.831-0.357
	l4.537-77.676l-0.036-0.601l0.078-0.114l0.431-7.34l-42.753-58.591l42.879,53.093l0.108,1.557l3.427-58.687l-36.605-60.549
	l37.049,50.236l3.536-121.676l0.014-0.405v0.399l-0.547,95.954l36.38-38.055l-36.532,46.317l-0.934,52.549l33.977-50.443
	L207.084,167.7l-0.519,29.22l49.31-70.216l-49.497,80.41L205.229,272.088z"/>
<ellipse fill="#393944" cx="698.844" cy="185.491" rx="64.316" ry="57.049"/>
<path fill="#3F3F4C" d="M817.513,511.555C798.241,559.567,761.906,601,761.906,601h-88.974l11.932-21.722l5.976-10.874l8.637-15.723
	l4.246-7.729l11.471-20.896l-17.13,20.265l-7.398,8.743l-14.026,16.601l-11.702,13.839c-37.548,7.241-75.633,12.085-113.963,14.496
	c-0.144-4.005,0.576-11.88,6.312-22.83c3.05-5.727,6.707-11.183,10.924-16.294c3.945-4.816,8.211-9.417,12.778-13.78
	c2.536-2.437,5.207-4.926,7.965-7.44c35.893-32.732,87.686-70.16,87.686-70.16l-14.824-51.958l106.699-16.072
	c5.24-0.791,10.21,2.335,11.102,6.983c0.051,0.264,0.087,0.53,0.11,0.798c0.576,6.86,2.613,15.68,8.877,20.129
	C799.72,435.267,836.795,463.551,817.513,511.555z"/>
<path fill="#3F3D56" d="M747.062,555.996c0,0.173-0.03,0.346-0.086,0.511c-1.499,5.071-24.643,14.18-62.112,22.77
	c-6.254,1.423-12.912,2.838-19.926,4.227c-37.548,7.241-75.633,12.085-113.963,14.496c-19.426,1.253-39.707,1.969-60.574,1.969
	c-139.605,0-253.173-32.017-256.565-43.461c-0.057-0.166-0.086-0.338-0.086-0.511c-0.001-0.109,0.011-0.218,0.038-0.324
	c0.009-0.067,0.028-0.133,0.058-0.196c3.718-9.945,117.152,4.781,256.555,4.781c27.122,0,53.273-0.554,77.81-1.38
	c48.738-1.645,91.174-4.338,122.456-5.812c3.046-0.136,5.985-0.273,8.81-0.383c28.697-1.202,46.077-0.997,47.489,2.795
	c0.029,0.063,0.049,0.129,0.058,0.196C747.05,555.779,747.063,555.887,747.062,555.996z"/>
<path fill="#393944" d="M747.062,555.996c0,0.173-0.03,0.346-0.086,0.511c-1.499,5.071-24.643,14.18-62.112,22.77
	c-6.254,1.423-12.912,2.838-19.926,4.227c-37.548,7.241-75.633,12.085-113.963,14.496c-19.426,1.253-39.707,1.969-60.574,1.969
	c-139.605,0-253.173-32.017-256.565-43.461c-0.057-0.166-0.086-0.338-0.086-0.511c-0.001-0.109,0.011-0.218,0.038-0.324
	c0.009-0.067,0.028-0.133,0.058-0.196c3.718-9.945,117.152,4.781,256.555,4.781c27.122,0,53.273-0.554,77.81-1.38
	c48.738-1.645,91.174-4.338,122.456-5.812c3.046-0.136,5.985-0.273,8.81-0.383c28.697-1.202,46.077-0.997,47.489,2.795
	c0.029,0.063,0.049,0.129,0.058,0.196C747.05,555.779,747.063,555.887,747.062,555.996z"/>
<ellipse fill="#454554" cx="490.405" cy="555.998" rx="256.658" ry="19.858"/>
<ellipse fill="#393944" cx="642.361" cy="558.749" rx="43.233" ry="8.522"/>
<ellipse fill="#FF825C" cx="642.361" cy="555.34" rx="23.058" ry="3.409"/>
<path fill="#FFAEC1" d="M662.218,517.594c0,0-47.49,32.766-30.436,36.055s44.487-32.884,44.487-32.884L662.218,517.594z"/>
<ellipse fill="#FECEB8" cx="687.391" cy="206.395" rx="42.263" ry="37.488"/>
<path fill="#FECEB8" d="M687.391,239.937c0,0,14.829,33.542,2.966,39.461s-17.795,6.577-17.795,6.577l-12.605,19.073l-7.414,19.73
	l59.316,1.973l41.521-58.533c0,0-20.019-9.207-30.4-48.668L687.391,239.937z"/>
<path fill="#D0CDE1" d="M764.873,269.203c0,0-7.542-4.395-14.522-2.855c-3.412,0.664-6.743,1.62-9.946,2.855
	c0,0-38.556,46.695-59.316,48.01c0,0-27.434,6.577-20.761-3.288c6.673-9.865,21.295-30.629,21.295-30.629
	s-26.485,5.637-26.485,13.53s-5.19,22.361-5.19,22.361s-25.209,22.361,0,48.668s15.57,49.983,15.57,49.983l111.218-17.757
	L764.873,269.203z"/>
<path fill="#D0CDE1" d="M647.723,352.071l-6.673,90.76l6.673,84.183c0,0,27.434,5.261,34.107,0s-14.088-141.401-14.088-141.401
	L647.723,352.071z"/>
<ellipse fill="#393944" cx="725.492" cy="133.614" rx="26.613" ry="23.606"/>
<path fill="#393944" d="M690.008,120.827c0.001-12.085,10.291-22.219,23.841-23.479c-0.921-0.085-1.846-0.127-2.772-0.128
	c-14.698,0-26.613,10.569-26.613,23.606s11.915,23.606,26.613,23.606c0.926,0,1.851-0.043,2.772-0.128
	C700.298,143.046,690.008,132.913,690.008,120.827z"/>
<path fill="#393944" d="M648.925,175.192c3.775-12.6,26.028-18.291,49.703-12.71s39.808,20.319,36.033,32.919
	c-3.775,12.6-26.028,18.291-49.703,12.71C661.283,202.531,645.15,187.793,648.925,175.192z"/>
<path fill="#FFAEC1" d="M682.979,522.856c0,0-47.49,32.766-30.436,36.055c17.053,3.288,44.487-32.884,44.487-32.884L682.979,522.856
	z"/>
<path fill="#D0CDE1" d="M746.337,273.149c0,0,20.761-15.784,30.4,5.919s-5.19,128.905-5.19,128.905l-71.179,127.589
	c0,0-34.107,1.315-26.692-20.388s57.463-123.972,60.428-126.603S746.337,273.149,746.337,273.149z"/>
<path opacity="0.1" enable-background="new    " d="M652.178,370.277c0,0,16.362,30.776,15.037,39.004
	C665.889,417.51,652.178,370.277,652.178,370.277z"/>
<ellipse fill="#FECEB8" cx="732.62" cy="204.422" rx="3.707" ry="6.577"/>
<ellipse fill="#393944" cx="376.237" cy="558.749" rx="43.233" ry="8.522"/>
<ellipse fill="#FF825C" cx="376.237" cy="538.296" rx="23.058" ry="20.452"/>
<ellipse fill="#393944" cx="499.211" cy="558.749" rx="43.233" ry="8.522"/>
<ellipse fill="#FF825C" cx="499.211" cy="538.296" rx="23.058" ry="20.452"/>
<rect x="373.123" y="525.177" fill="#D0CDE1" width="5.764" height="25.566"/>
<rect x="491.294" y="525.177" fill="#D0CDE1" width="5.764" height="25.566"/>
<rect x="499.941" y="525.177" fill="#D0CDE1" width="5.764" height="25.566"/>
</svg>
