<?xml version="1.0" encoding="utf-8"?>
<!-- Generator: Adobe Illustrator 17.0.0, SVG Export Plug-In . SVG Version: 6.00 Build 0)  -->
<!DOCTYPE svg PUBLIC "-//W3C//DTD SVG 1.1//EN" "http://www.w3.org/Graphics/SVG/1.1/DTD/svg11.dtd">
<svg version="1.1" id="Layer_1" xmlns="http://www.w3.org/2000/svg" xmlns:xlink="http://www.w3.org/1999/xlink" x="0px" y="0px"
	 width="152.75px" height="105.378px" viewBox="0 0 152.75 105.378" enable-background="new 0 0 152.75 105.378"
	 xml:space="preserve">
<rect x="84.685" y="13.196" fill="none" stroke="#587F6B" stroke-width="0.7" stroke-miterlimit="10" width="17.492" height="17.492"/>
<ellipse fill="none" stroke="#587F6B" stroke-miterlimit="10" cx="75.553" cy="30.505" rx="4.786" ry="2.872"/>
<g>
	<path fill="none" stroke="#587F6B" stroke-miterlimit="10" d="M68.54,37.872l2-3.368c0.281-0.473,0.67-0.439,0.864,0.076
		l3.823,10.107c0.195,0.514,0.506,0.512,0.691-0.006l3.617-10.095c0.186-0.518,0.562-0.551,0.836-0.075l1.626,2.826"/>
</g>
<line fill="none" stroke="#292724" stroke-miterlimit="10" x1="53.27" y1="87.079" x2="98.846" y2="87.079"/>
<path fill="none" stroke="#292724" stroke-miterlimit="10" d="M67.77,46.071c4.483,4.483,11.738,4.483,16.222,0"/>
<circle fill="none" stroke="#587F6B" stroke-width="0.7" stroke-miterlimit="10" cx="93.121" cy="18.024" r="1.651"/>
<circle fill="none" stroke="#587F6B" stroke-width="0.7" stroke-miterlimit="10" cx="88.78" cy="26.085" r="1.651"/>
<circle fill="none" stroke="#587F6B" stroke-width="0.7" stroke-miterlimit="10" cx="98.082" cy="26.085" r="1.651"/>
<line fill="none" stroke="#587F6B" stroke-width="0.7" stroke-miterlimit="10" x1="90.43" y1="26.085" x2="96.431" y2="26.085"/>
<line fill="none" stroke="#587F6B" stroke-width="0.7" stroke-miterlimit="10" x1="96.989" y1="24.85" x2="93.859" y2="19.493"/>
<ellipse fill="none" stroke="#587F6B" stroke-miterlimit="10" cx="114.553" cy="79.505" rx="4.786" ry="2.872"/>
<g>
	<path fill="none" stroke="#587F6B" stroke-miterlimit="10" d="M107.54,86.872l2-3.368c0.281-0.473,0.67-0.439,0.864,0.076
		l3.823,10.107c0.195,0.514,0.506,0.512,0.691-0.006l3.617-10.095c0.186-0.518,0.562-0.551,0.836-0.075l1.626,2.826"/>
</g>
<path fill="none" stroke="#292724" stroke-miterlimit="10" d="M106.442,95.071c4.483,4.483,11.738,4.483,16.222,0"/>
<ellipse fill="none" stroke="#587F6B" stroke-miterlimit="10" cx="38.553" cy="79.505" rx="4.786" ry="2.872"/>
<g>
	<path fill="none" stroke="#587F6B" stroke-miterlimit="10" d="M31.54,86.872l2-3.368c0.281-0.473,0.67-0.439,0.864,0.076
		l3.823,10.107c0.195,0.514,0.506,0.512,0.691-0.006l3.617-10.095c0.186-0.518,0.562-0.551,0.836-0.075l1.626,2.826"/>
</g>
<path fill="none" stroke="#292724" stroke-miterlimit="10" d="M30.46,95.071c4.483,4.483,11.738,4.483,16.222,0"/>
<line fill="none" stroke="#587F6B" stroke-width="0.7" stroke-miterlimit="10" x1="92.371" y1="19.493" x2="89.649" y2="24.435"/>
<rect x="116.52" y="55.464" fill="none" stroke="#587F6B" stroke-width="0.7" stroke-miterlimit="10" width="17.492" height="17.492"/>
<circle fill="none" stroke="#587F6B" stroke-width="0.7" stroke-miterlimit="10" cx="124.956" cy="60.293" r="1.651"/>
<circle fill="none" stroke="#587F6B" stroke-width="0.7" stroke-miterlimit="10" cx="120.615" cy="68.354" r="1.651"/>
<circle fill="none" stroke="#587F6B" stroke-width="0.7" stroke-miterlimit="10" cx="129.916" cy="68.354" r="1.651"/>
<line fill="none" stroke="#587F6B" stroke-width="0.7" stroke-miterlimit="10" x1="122.266" y1="68.354" x2="128.266" y2="68.354"/>
<line fill="none" stroke="#587F6B" stroke-width="0.7" stroke-miterlimit="10" x1="128.824" y1="67.119" x2="125.693" y2="61.761"/>
<line fill="none" stroke="#587F6B" stroke-width="0.7" stroke-miterlimit="10" x1="124.206" y1="61.761" x2="121.484" y2="66.703"/>
<rect x="21.079" y="55.442" fill="none" stroke="#587F6B" stroke-width="0.7" stroke-miterlimit="10" width="17.492" height="17.492"/>
<circle fill="none" stroke="#587F6B" stroke-width="0.7" stroke-miterlimit="10" cx="29.515" cy="60.27" r="1.651"/>
<circle fill="none" stroke="#587F6B" stroke-width="0.7" stroke-miterlimit="10" cx="25.174" cy="68.332" r="1.651"/>
<circle fill="none" stroke="#587F6B" stroke-width="0.7" stroke-miterlimit="10" cx="34.476" cy="68.332" r="1.651"/>
<line fill="none" stroke="#587F6B" stroke-width="0.7" stroke-miterlimit="10" x1="26.825" y1="68.332" x2="32.825" y2="68.332"/>
<line fill="none" stroke="#587F6B" stroke-width="0.7" stroke-miterlimit="10" x1="33.383" y1="67.096" x2="30.253" y2="61.739"/>
<line fill="none" stroke="#587F6B" stroke-width="0.7" stroke-miterlimit="10" x1="28.765" y1="61.739" x2="26.043" y2="66.681"/>
<polygon fill="#292724" stroke="#292724" stroke-miterlimit="10" points="53.27,88.464 51.045,87.027 53.27,85.693 "/>
<polygon fill="#292724" stroke="#292724" stroke-miterlimit="10" points="98.846,85.693 101.07,87.13 98.846,88.464 "/>
<line fill="none" stroke="#292724" stroke-miterlimit="10" x1="52.101" y1="77.987" x2="72.395" y2="56.029"/>
<polygon fill="#292724" stroke="#292724" stroke-miterlimit="10" points="53.262,78.772 50.697,79.43 51.227,76.891 "/>
<polygon fill="#292724" stroke="#292724" stroke-miterlimit="10" points="70.622,55.905 73.188,55.247 72.657,57.786 "/>
<line fill="none" stroke="#292724" stroke-miterlimit="10" x1="100.345" y1="77.22" x2="79.442" y2="55.841"/>
<polygon fill="#292724" stroke="#292724" stroke-miterlimit="10" points="101.187,76.1 101.715,78.696 99.205,78.038 "/>
<polygon fill="#292724" stroke="#292724" stroke-miterlimit="10" points="79.229,57.605 78.701,55.009 81.21,55.668 "/>
</svg>
