<?xml version="1.0" encoding="utf-8"?>
<!-- Generator: Adobe Illustrator 17.0.0, SVG Export Plug-In . SVG Version: 6.00 Build 0)  -->
<!DOCTYPE svg PUBLIC "-//W3C//DTD SVG 1.1//EN" "http://www.w3.org/Graphics/SVG/1.1/DTD/svg11.dtd">
<svg version="1.1" id="Layer_1" xmlns="http://www.w3.org/2000/svg" xmlns:xlink="http://www.w3.org/1999/xlink" x="0px" y="0px"
	 width="153.75px" height="105.625px" viewBox="47.375 6.125 153.75 105.625" enable-background="new 47.375 6.125 153.75 105.625"
	 xml:space="preserve">
<rect x="134.183" y="6.625" fill="none" stroke="#FF7F50" stroke-miterlimit="10" width="28.208" height="28.208"/>
<ellipse fill="none" stroke="#FF7F50" stroke-miterlimit="10" cx="122.928" cy="30.883" rx="4.786" ry="2.872"/>
<g>
	<path fill="none" stroke="#FF7F50" stroke-miterlimit="10" d="M115.915,38.25l2-3.368c0.281-0.473,0.67-0.439,0.864,0.076
		l3.823,10.107c0.195,0.514,0.506,0.512,0.691-0.006l3.617-10.095c0.186-0.518,0.562-0.551,0.836-0.075l1.626,2.826"/>
</g>
<path fill="#4A4A4A" stroke="#4B4B4B" stroke-miterlimit="10" d="M116.381,61.148c-0.015-0.328,3.241-1.487,3.61-1.15
	c0.381,0.347-0.51,3.724-0.809,3.701C118.802,63.67,116.401,61.57,116.381,61.148z"/>
<line fill="none" stroke="#4B4B4B" stroke-miterlimit="10" x1="96.229" y1="86.082" x2="118.819" y2="61.285"/>
<path fill="#4A4A4A" stroke="#4B4B4B" stroke-miterlimit="10" d="M99.073,85.751c0.015,0.328-3.241,1.487-3.61,1.15
	c-0.381-0.347,0.51-3.724,0.809-3.701C96.653,83.229,99.054,85.328,99.073,85.751z"/>
<path fill="#4A4A4A" stroke="#4B4B4B" stroke-miterlimit="10" d="M143.649,90.562c0.232-0.232,3.281,1.394,3.281,1.894
	c0,0.516-3.097,2.131-3.281,1.894C143.415,94.05,143.35,90.861,143.649,90.562z"/>
<line fill="none" stroke="#4B4B4B" stroke-miterlimit="10" x1="100.645" y1="92.457" x2="145.333" y2="92.457"/>
<path fill="#4A4A4A" stroke="#4B4B4B" stroke-miterlimit="10" d="M102.805,94.337c-0.232,0.232-3.281-1.394-3.281-1.894
	c0-0.516,3.097-2.131,3.281-1.894C103.04,90.849,103.105,94.038,102.805,94.337z"/>
<path fill="#4A4A4A" stroke="#4B4B4B" stroke-miterlimit="10" d="M130.899,61.148c0.016-0.328-3.306-1.487-3.683-1.15
	c-0.389,0.347,0.52,3.724,0.826,3.701C128.43,63.67,130.879,61.57,130.899,61.148z"/>
<line fill="none" stroke="#4B4B4B" stroke-miterlimit="10" x1="151.457" y1="86.082" x2="128.412" y2="61.285"/>
<path fill="#4A4A4A" stroke="#4B4B4B" stroke-miterlimit="10" d="M148.555,85.751c-0.016,0.328,3.306,1.487,3.683,1.15
	c0.389-0.347-0.52-3.724-0.826-3.701C151.025,83.229,148.575,85.328,148.555,85.751z"/>
<path fill="none" stroke="#4B4B4B" stroke-miterlimit="10" d="M110.856,51.998c6.673,6.673,17.471,6.673,24.144,0"/>
<text transform="matrix(1 0 0 1 116.8438 52.2188)" fill="#4A4A4A" font-family="'Verdana'" font-size="5">Роль</text>
<circle fill="none" stroke="#4A4A4A" stroke-miterlimit="10" cx="147.787" cy="14.412" r="2.662"/>
<circle fill="none" stroke="#4A4A4A" stroke-miterlimit="10" cx="140.787" cy="27.412" r="2.662"/>
<circle fill="none" stroke="#4A4A4A" stroke-miterlimit="10" cx="155.787" cy="27.412" r="2.662"/>
<line fill="none" stroke="#4A4A4A" stroke-miterlimit="10" x1="143.448" y1="27.412" x2="153.125" y2="27.412"/>
<line fill="none" stroke="#4A4A4A" stroke-miterlimit="10" x1="154.025" y1="25.42" x2="148.977" y2="16.78"/>
<ellipse fill="none" stroke="#FF7F50" stroke-miterlimit="10" cx="161.928" cy="84.883" rx="4.786" ry="2.872"/>
<g>
	<path fill="none" stroke="#FF7F50" stroke-miterlimit="10" d="M154.915,92.25l2-3.368c0.281-0.473,0.67-0.439,0.864,0.076
		l3.823,10.107c0.195,0.514,0.506,0.512,0.691-0.006l3.617-10.095c0.186-0.518,0.562-0.551,0.836-0.075l1.626,2.826"/>
</g>
<path fill="none" stroke="#4A4A4A" stroke-miterlimit="10" d="M149.856,105.998c6.673,6.673,17.471,6.673,24.144,0"/>
<text transform="matrix(1 0 0 1 155.8438 106.2188)" fill="#4A4A4A" font-family="'Verdana'" font-size="5">Роль</text>
<ellipse fill="none" stroke="#FF7F50" stroke-miterlimit="10" cx="85.928" cy="84.883" rx="4.786" ry="2.872"/>
<g>
	<path fill="none" stroke="#FF7F50" stroke-miterlimit="10" d="M78.915,92.25l2-3.368c0.281-0.473,0.67-0.439,0.864,0.076
		l3.823,10.107c0.195,0.514,0.506,0.512,0.691-0.006l3.617-10.095c0.186-0.518,0.562-0.551,0.836-0.075l1.626,2.826"/>
</g>
<path fill="none" stroke="#4A4A4A" stroke-miterlimit="10" d="M73.856,105.998c6.673,6.673,17.471,6.673,24.144,0"/>
<text transform="matrix(1 0 0 1 79.8438 106.2188)" fill="#4A4A4A" font-family="'Verdana'" font-size="5">Роль</text>
<line fill="none" stroke="#4A4A4A" stroke-miterlimit="10" x1="146.578" y1="16.78" x2="142.188" y2="24.75"/>
<rect x="171.917" y="60.625" fill="none" stroke="#FF7F50" stroke-miterlimit="10" width="28.208" height="28.208"/>
<circle fill="none" stroke="#4A4A4A" stroke-miterlimit="10" cx="185.521" cy="68.412" r="2.662"/>
<circle fill="none" stroke="#4A4A4A" stroke-miterlimit="10" cx="178.521" cy="81.412" r="2.662"/>
<circle fill="none" stroke="#4A4A4A" stroke-miterlimit="10" cx="193.521" cy="81.412" r="2.662"/>
<line fill="none" stroke="#4A4A4A" stroke-miterlimit="10" x1="181.183" y1="81.412" x2="190.859" y2="81.412"/>
<line fill="none" stroke="#3F3D56" stroke-miterlimit="10" x1="191.759" y1="79.42" x2="186.711" y2="70.78"/>
<line fill="none" stroke="#4A4A4A" stroke-miterlimit="10" x1="184.312" y1="70.78" x2="179.922" y2="78.75"/>
<rect x="48.375" y="60.625" fill="none" stroke="#FF7F50" stroke-miterlimit="10" width="28.208" height="28.208"/>
<circle fill="none" stroke="#4B4B4B" stroke-miterlimit="10" cx="61.979" cy="68.412" r="2.662"/>
<circle fill="none" stroke="#4B4B4B" stroke-miterlimit="10" cx="54.979" cy="81.412" r="2.662"/>
<circle fill="none" stroke="#4B4B4B" stroke-miterlimit="10" cx="69.979" cy="81.412" r="2.662"/>
<line fill="none" stroke="#4B4B4B" stroke-miterlimit="10" x1="57.641" y1="81.412" x2="67.317" y2="81.412"/>
<line fill="none" stroke="#4B4B4B" stroke-miterlimit="10" x1="68.217" y1="79.42" x2="63.169" y2="70.78"/>
<line fill="none" stroke="#4B4B4B" stroke-miterlimit="10" x1="60.77" y1="70.78" x2="56.38" y2="78.75"/>
</svg>
