<?xml version="1.0" encoding="utf-8"?>
<!-- Generator: Adobe Illustrator 17.0.0, SVG Export Plug-In . SVG Version: 6.00 Build 0)  -->
<!DOCTYPE svg PUBLIC "-//W3C//DTD SVG 1.1//EN" "http://www.w3.org/Graphics/SVG/1.1/DTD/svg11.dtd">
<svg version="1.1" id="Layer_1" xmlns="http://www.w3.org/2000/svg" xmlns:xlink="http://www.w3.org/1999/xlink" x="0px" y="0px"
	 width="149.292px" height="105.641px" viewBox="46.125 6.125 149.292 105.641"
	 enable-background="new 46.125 6.125 149.292 105.641" xml:space="preserve">
<rect x="147.183" y="20.625" fill="none" stroke="#4A4A4A" stroke-miterlimit="10" width="47.734" height="28.208"/>
<ellipse fill="none" stroke="#FF7F50" stroke-miterlimit="10" cx="90.928" cy="30.883" rx="4.786" ry="2.872"/>
<g>
	<path fill="none" stroke="#FF7F50" stroke-miterlimit="10" d="M83.915,38.25l2-3.368c0.281-0.473,0.67-0.439,0.864,0.076
		l3.823,10.107c0.195,0.514,0.506,0.512,0.691-0.006l3.617-10.095c0.186-0.518,0.562-0.551,0.836-0.075l1.626,2.826"/>
</g>
<path fill="#4A4A4A" stroke="#4B4B4B" stroke-miterlimit="10" d="M109.128,28.609c-0.24-0.224,1.281-3.327,1.781-3.344
	c0.515-0.018,2.236,3.022,2.006,3.214C112.622,28.724,109.438,28.898,109.128,28.609z"/>
<line fill="none" stroke="#4B4B4B" stroke-miterlimit="10" x1="111.013" y1="74.725" x2="111.079" y2="28.756"/>
<g>
	<g>
		<line fill="none" stroke="#4B4B4B" stroke-width="2" stroke-miterlimit="10" x1="71.667" y1="54" x2="77.667" y2="54"/>
		
			<line fill="none" stroke="#4B4B4B" stroke-width="2" stroke-miterlimit="10" stroke-dasharray="12.8589,3.2147" x1="80.882" y1="54" x2="159.643" y2="54"/>
		<line fill="none" stroke="#4B4B4B" stroke-width="2" stroke-miterlimit="10" x1="161.25" y1="54" x2="167.25" y2="54"/>
	</g>
</g>
<ellipse fill="none" stroke="#FF7F50" stroke-miterlimit="10" cx="140.928" cy="79.883" rx="4.786" ry="2.872"/>
<g>
	<path fill="none" stroke="#FF7F50" stroke-miterlimit="10" d="M133.915,87.25l2-3.368c0.281-0.473,0.67-0.439,0.864,0.076
		l3.823,10.107c0.195,0.514,0.506,0.512,0.691-0.006l3.617-10.095c0.186-0.518,0.562-0.551,0.836-0.075l1.626,2.826"/>
</g>
<ellipse fill="none" stroke="#FF7F50" stroke-miterlimit="10" cx="106.928" cy="79.883" rx="4.786" ry="2.872"/>
<g>
	<path fill="none" stroke="#FF7F50" stroke-miterlimit="10" d="M99.915,87.25l2-3.368c0.281-0.473,0.67-0.439,0.864,0.076
		l3.823,10.107c0.195,0.514,0.506,0.512,0.691-0.006l3.617-10.095c0.186-0.518,0.562-0.551,0.836-0.075l1.626,2.826"/>
</g>
<polygon fill="none" stroke="#FF7F50" stroke-miterlimit="10" points="102.5,23.246 111.5,8.517 126.228,8.517 117.228,23.246 "/>
<g>
	<g>
		<line fill="none" stroke="#D0D2D5" stroke-miterlimit="10" x1="101.241" y1="21.353" x2="102.284" y2="19.647"/>
		
			<line fill="none" stroke="#D0D2D5" stroke-miterlimit="10" stroke-dasharray="3.1201,2.3401" x1="103.504" y1="17.65" x2="108.588" y2="9.33"/>
		<polyline fill="none" stroke="#D0D2D5" stroke-miterlimit="10" points="109.198,8.332 110.241,6.625 112.241,6.625 		"/>
		
			<line fill="none" stroke="#D0D2D5" stroke-miterlimit="10" stroke-dasharray="4.2913,3.2185" x1="115.459" y1="6.625" x2="121.36" y2="6.625"/>
		<line fill="none" stroke="#D0D2D5" stroke-miterlimit="10" x1="122.969" y1="6.625" x2="124.969" y2="6.625"/>
	</g>
</g>
<path fill="#4A4A4A" stroke="#4B4B4B" stroke-miterlimit="10" d="M135.808,30.741c0.583-0.625,8.651,3.331,8.696,4.63
	c0.046,1.34-7.857,5.815-8.358,5.216C135.51,39.826,135.057,31.545,135.808,30.741z"/>
<line fill="none" stroke="#4B4B4B" stroke-width="4" stroke-miterlimit="10" x1="121.5" y1="35.698" x2="135.595" y2="35.718"/>
<path fill="#4A4A4A" stroke="#4B4B4B" stroke-miterlimit="10" d="M126.91,27.38c0.24,0.224-1.281,3.327-1.781,3.344
	c-0.515,0.018-2.236-3.022-2.006-3.214C123.416,27.266,126.601,27.091,126.91,27.38z"/>
<line fill="none" stroke="#4B4B4B" stroke-miterlimit="10" x1="124.976" y1="16.165" x2="124.96" y2="27.233"/>
<ellipse fill="none" stroke="#FF7F50" stroke-miterlimit="10" cx="170.825" cy="34.825" rx="14.875" ry="7.458"/>
<g>
	
		<ellipse fill="none" stroke="#D0D2D5" stroke-miterlimit="10" stroke-dasharray="4.0247,3.0185" cx="170.866" cy="34.845" rx="18.7" ry="9.75"/>
</g>
<g enable-background="new    ">
	<path fill="#4A4A4A" d="M103.211,109.986c-0.09,0.039-0.171,0.076-0.243,0.109c-0.072,0.035-0.167,0.07-0.284,0.107
		c-0.1,0.031-0.207,0.058-0.323,0.08c-0.117,0.021-0.245,0.033-0.385,0.033c-0.264,0-0.504-0.037-0.719-0.111
		c-0.216-0.074-0.403-0.19-0.563-0.348c-0.156-0.155-0.278-0.352-0.366-0.59s-0.132-0.516-0.132-0.832
		c0-0.299,0.043-0.566,0.127-0.803c0.085-0.236,0.207-0.436,0.366-0.598c0.155-0.158,0.342-0.279,0.561-0.361
		c0.219-0.084,0.462-0.125,0.729-0.125c0.195,0,0.391,0.023,0.585,0.07c0.194,0.048,0.41,0.131,0.648,0.25v0.573h-0.037
		c-0.2-0.168-0.398-0.29-0.596-0.366c-0.196-0.076-0.407-0.115-0.632-0.115c-0.185,0-0.35,0.03-0.497,0.09s-0.278,0.151-0.395,0.277
		c-0.112,0.121-0.199,0.275-0.262,0.462c-0.063,0.187-0.095,0.401-0.095,0.646c0,0.256,0.035,0.476,0.104,0.66
		c0.068,0.184,0.158,0.333,0.267,0.449c0.114,0.12,0.247,0.209,0.399,0.267s0.313,0.087,0.482,0.087c0.232,0,0.45-0.04,0.654-0.119
		c0.203-0.08,0.394-0.2,0.571-0.359h0.034V109.986z"/>
	<path fill="#4A4A4A" d="M106.155,110.25h-0.454v-2.049l-1.429,2.049h-0.415v-2.727h0.454v2.019l1.414-2.019h0.43V110.25z"/>
	<path fill="#4A4A4A" d="M109.063,107.926h-0.986v2.324h-0.459v-2.324h-0.986v-0.402h2.432V107.926z"/>
	<path fill="#4A4A4A" d="M111.897,107.523l-1.592,3.732h-0.491l0.508-1.138l-1.086-2.595h0.498l0.837,2.021l0.845-2.021H111.897z"/>
	<path fill="#4A4A4A" d="M114.617,110.25h-0.457v-0.291c-0.04,0.028-0.096,0.066-0.164,0.116c-0.069,0.05-0.137,0.089-0.202,0.118
		c-0.076,0.038-0.164,0.069-0.264,0.095c-0.099,0.025-0.216,0.038-0.349,0.038c-0.246,0-0.454-0.082-0.625-0.244
		c-0.171-0.163-0.257-0.371-0.257-0.623c0-0.207,0.045-0.374,0.134-0.502c0.088-0.128,0.215-0.229,0.379-0.301
		c0.166-0.074,0.365-0.123,0.599-0.149c0.232-0.026,0.482-0.046,0.749-0.059v-0.071c0-0.104-0.018-0.189-0.055-0.258
		c-0.036-0.068-0.089-0.123-0.157-0.162c-0.065-0.037-0.144-0.063-0.234-0.075c-0.092-0.013-0.187-0.02-0.286-0.02
		c-0.12,0-0.255,0.016-0.402,0.048c-0.148,0.031-0.302,0.077-0.459,0.138h-0.024v-0.466c0.089-0.025,0.219-0.052,0.388-0.081
		c0.17-0.029,0.336-0.044,0.501-0.044c0.191,0,0.359,0.016,0.502,0.048c0.142,0.031,0.266,0.086,0.369,0.162
		c0.103,0.075,0.181,0.172,0.234,0.29c0.054,0.119,0.081,0.267,0.081,0.442V110.25z M114.16,109.578v-0.759
		c-0.14,0.008-0.305,0.021-0.494,0.036c-0.189,0.017-0.34,0.04-0.45,0.071c-0.132,0.037-0.238,0.096-0.32,0.175
		c-0.081,0.079-0.122,0.188-0.122,0.326c0,0.156,0.048,0.273,0.142,0.353c0.095,0.079,0.238,0.118,0.433,0.118
		c0.161,0,0.309-0.031,0.441-0.094C113.923,109.742,114.047,109.666,114.16,109.578z"/>
	<path fill="#4A4A4A" d="M117.664,110.25h-2.163v-2.727h0.459v2.331h1.343v-2.331h0.459v2.331h0.329v1.05h-0.427V110.25z"/>
	<path fill="#4A4A4A" d="M121.021,110.25h-0.454v-2.049l-1.428,2.049h-0.415v-2.727h0.454v2.019l1.413-2.019h0.43V110.25z"/>
	<path fill="#4A4A4A" d="M124.019,110.25h-0.459v-1.082h-0.539l-0.845,1.082h-0.54l0.918-1.125c-0.235-0.065-0.408-0.165-0.518-0.3
		c-0.108-0.134-0.163-0.311-0.163-0.528c0-0.145,0.032-0.268,0.098-0.369c0.064-0.101,0.147-0.183,0.246-0.246
		c0.098-0.062,0.21-0.104,0.337-0.126c0.127-0.021,0.266-0.032,0.415-0.032h1.05V110.25z M123.56,108.807v-0.918h-0.578
		c-0.126,0-0.216,0.005-0.271,0.013c-0.055,0.008-0.115,0.03-0.181,0.065c-0.063,0.036-0.11,0.085-0.14,0.146
		c-0.03,0.062-0.046,0.128-0.046,0.199c0,0.09,0.01,0.162,0.028,0.218c0.019,0.055,0.058,0.107,0.116,0.156
		c0.06,0.047,0.133,0.079,0.22,0.096c0.086,0.018,0.182,0.025,0.288,0.025H123.56z"/>
	<path fill="#4A4A4A" d="M129.141,110.25h-0.601l-1.133-1.25h-0.249v1.25h-0.459v-2.727h0.459v1.176
		c0.151,0,0.273-0.026,0.366-0.081s0.172-0.143,0.237-0.263c0.022-0.044,0.045-0.091,0.067-0.141
		c0.021-0.05,0.043-0.097,0.064-0.143c0.084-0.184,0.19-0.321,0.317-0.412c0.127-0.092,0.309-0.137,0.547-0.137h0.21v0.395h-0.203
		c-0.128,0-0.229,0.027-0.301,0.082c-0.073,0.055-0.139,0.15-0.197,0.287c-0.064,0.153-0.134,0.268-0.206,0.343
		c-0.072,0.076-0.149,0.134-0.23,0.173L129.141,110.25z"/>
	<path fill="#4A4A4A" d="M131.839,110.25h-0.459v-2.342h-1.019c-0.005,0.136-0.01,0.266-0.015,0.391
		c-0.005,0.126-0.01,0.239-0.015,0.34c-0.011,0.271-0.03,0.488-0.056,0.65c-0.026,0.162-0.061,0.297-0.103,0.404
		c-0.039,0.101-0.083,0.183-0.131,0.245s-0.1,0.119-0.155,0.17c-0.055,0.049-0.116,0.085-0.184,0.11
		c-0.068,0.023-0.142,0.036-0.222,0.036c-0.027,0-0.067-0.001-0.12-0.003c-0.054-0.001-0.088-0.002-0.104-0.002v-0.4h0.024
		c0.014,0,0.032,0.001,0.057,0.002c0.024,0.002,0.045,0.003,0.061,0.003c0.039,0,0.08-0.006,0.121-0.017
		c0.042-0.012,0.077-0.033,0.106-0.064c0.083-0.081,0.149-0.219,0.2-0.412c0.05-0.193,0.084-0.474,0.1-0.84
		c0.007-0.134,0.013-0.292,0.019-0.475c0.006-0.184,0.011-0.357,0.016-0.523h1.878V110.25z"/>
	<path fill="#4A4A4A" d="M135.039,110.25h-0.454v-2.049l-1.428,2.049h-0.415v-2.727h0.454v2.019l1.413-2.019h0.43V110.25z"/>
	<path fill="#4A4A4A" d="M138.226,108.934h-2.01c0,0.168,0.025,0.314,0.076,0.438c0.05,0.125,0.119,0.227,0.207,0.307
		c0.085,0.078,0.186,0.137,0.302,0.176s0.244,0.059,0.385,0.059c0.186,0,0.372-0.037,0.561-0.111
		c0.188-0.074,0.321-0.146,0.401-0.218h0.024v0.5c-0.155,0.065-0.313,0.119-0.474,0.164c-0.161,0.043-0.331,0.065-0.508,0.065
		c-0.453,0-0.806-0.122-1.06-0.367s-0.381-0.593-0.381-1.044c0-0.446,0.121-0.8,0.365-1.063c0.243-0.262,0.563-0.393,0.96-0.393
		c0.368,0,0.651,0.107,0.852,0.322c0.199,0.215,0.299,0.52,0.299,0.916V108.934z M137.778,108.582
		c-0.001-0.24-0.062-0.427-0.182-0.559c-0.119-0.132-0.302-0.197-0.546-0.197c-0.245,0-0.441,0.072-0.587,0.217
		s-0.229,0.324-0.248,0.539H137.778z"/>
	<path fill="#4A4A4A" d="M141.204,110.25h-0.459v-1.229h-1.365v1.229h-0.459v-2.727h0.459v1.104h1.365v-1.104h0.459V110.25z"/>
	<path fill="#4A4A4A" d="M144.111,107.926h-0.986v2.324h-0.459v-2.324h-0.986v-0.402h2.432V107.926z"/>
	<path fill="#4A4A4A" d="M146.707,110.25h-0.457v-0.291c-0.04,0.028-0.096,0.066-0.164,0.116c-0.069,0.05-0.137,0.089-0.202,0.118
		c-0.076,0.038-0.164,0.069-0.264,0.095c-0.099,0.025-0.216,0.038-0.349,0.038c-0.246,0-0.454-0.082-0.625-0.244
		c-0.171-0.163-0.257-0.371-0.257-0.623c0-0.207,0.045-0.374,0.134-0.502c0.088-0.128,0.215-0.229,0.379-0.301
		c0.166-0.074,0.365-0.123,0.599-0.149c0.232-0.026,0.482-0.046,0.749-0.059v-0.071c0-0.104-0.018-0.189-0.055-0.258
		c-0.036-0.068-0.089-0.123-0.157-0.162c-0.065-0.037-0.144-0.063-0.234-0.075c-0.092-0.013-0.187-0.02-0.286-0.02
		c-0.12,0-0.255,0.016-0.402,0.048c-0.148,0.031-0.302,0.077-0.459,0.138h-0.024v-0.466c0.089-0.025,0.219-0.052,0.388-0.081
		c0.17-0.029,0.336-0.044,0.501-0.044c0.191,0,0.359,0.016,0.502,0.048c0.142,0.031,0.266,0.086,0.369,0.162
		c0.103,0.075,0.181,0.172,0.234,0.29c0.054,0.119,0.081,0.267,0.081,0.442V110.25z M146.25,109.578v-0.759
		c-0.14,0.008-0.305,0.021-0.494,0.036c-0.189,0.017-0.34,0.04-0.45,0.071c-0.132,0.037-0.238,0.096-0.32,0.175
		c-0.081,0.079-0.122,0.188-0.122,0.326c0,0.156,0.048,0.273,0.142,0.353c0.095,0.079,0.238,0.118,0.433,0.118
		c0.161,0,0.309-0.031,0.441-0.094C146.013,109.742,146.137,109.666,146.25,109.578z"/>
</g>
<g enable-background="new    ">
	<path fill="#4A4A4A" d="M49.421,43.932c-0.089,0.039-0.17,0.076-0.243,0.109c-0.072,0.035-0.167,0.07-0.284,0.107
		c-0.099,0.031-0.207,0.058-0.323,0.08c-0.117,0.021-0.245,0.033-0.385,0.033c-0.264,0-0.503-0.037-0.719-0.111
		c-0.216-0.074-0.403-0.19-0.563-0.348c-0.156-0.155-0.278-0.352-0.366-0.59s-0.132-0.516-0.132-0.832
		c0-0.299,0.042-0.566,0.127-0.803s0.207-0.436,0.366-0.598c0.155-0.158,0.341-0.279,0.56-0.361
		c0.219-0.084,0.462-0.125,0.729-0.125c0.195,0,0.39,0.023,0.584,0.07c0.195,0.048,0.411,0.131,0.648,0.25v0.573h-0.037
		c-0.2-0.168-0.399-0.29-0.596-0.366s-0.408-0.115-0.632-0.115c-0.184,0-0.35,0.03-0.497,0.09c-0.147,0.06-0.278,0.151-0.394,0.277
		c-0.112,0.121-0.2,0.275-0.262,0.462c-0.063,0.187-0.094,0.401-0.094,0.646c0,0.256,0.035,0.476,0.104,0.66
		c0.069,0.184,0.158,0.333,0.267,0.449c0.114,0.12,0.247,0.209,0.399,0.267c0.152,0.058,0.313,0.087,0.482,0.087
		c0.233,0,0.451-0.04,0.654-0.119c0.204-0.08,0.394-0.2,0.571-0.359h0.034V43.932z"/>
	<path fill="#4A4A4A" d="M52.429,44.195H51.85l-0.774-1.047l-0.779,1.047h-0.535l1.064-1.359l-1.055-1.367h0.579l0.769,1.029
		l0.771-1.029h0.537l-1.072,1.342L52.429,44.195z"/>
	<path fill="#4A4A4A" d="M55.31,42.879H53.3c0,0.168,0.025,0.314,0.076,0.438c0.05,0.125,0.12,0.227,0.208,0.307
		c0.084,0.078,0.185,0.137,0.301,0.176c0.117,0.039,0.245,0.059,0.385,0.059c0.186,0,0.372-0.037,0.561-0.111
		c0.188-0.074,0.322-0.146,0.401-0.218h0.024v0.5c-0.155,0.065-0.313,0.119-0.474,0.164c-0.161,0.043-0.331,0.065-0.508,0.065
		c-0.453,0-0.806-0.122-1.06-0.367s-0.381-0.593-0.381-1.044c0-0.446,0.122-0.8,0.365-1.063c0.243-0.262,0.563-0.393,0.96-0.393
		c0.368,0,0.651,0.107,0.851,0.322c0.199,0.215,0.299,0.52,0.299,0.916V42.879z M54.863,42.527c-0.001-0.24-0.062-0.427-0.182-0.559
		c-0.119-0.132-0.301-0.197-0.545-0.197c-0.246,0-0.441,0.072-0.587,0.217c-0.146,0.145-0.228,0.324-0.248,0.539H54.863z"/>
	<path fill="#4A4A4A" d="M58.583,44.195h-0.454v-2.153l-0.679,1.401h-0.342l-0.674-1.401v2.153h-0.43v-2.727h0.554l0.742,1.525
		l0.718-1.525h0.564V44.195z"/>
	<path fill="#4A4A4A" d="M61.606,44.195h-0.457v-0.291c-0.041,0.028-0.096,0.066-0.165,0.116c-0.069,0.05-0.136,0.089-0.201,0.118
		c-0.077,0.038-0.165,0.069-0.264,0.095s-0.216,0.038-0.349,0.038c-0.246,0-0.454-0.082-0.625-0.244
		c-0.171-0.163-0.256-0.371-0.256-0.623c0-0.207,0.044-0.374,0.133-0.502c0.089-0.128,0.215-0.229,0.38-0.301
		c0.166-0.074,0.365-0.123,0.598-0.149s0.482-0.046,0.75-0.059v-0.071c0-0.104-0.019-0.189-0.055-0.258
		c-0.037-0.068-0.089-0.123-0.158-0.162c-0.065-0.037-0.143-0.063-0.234-0.075s-0.187-0.02-0.286-0.02
		c-0.121,0-0.255,0.016-0.403,0.048c-0.148,0.031-0.301,0.077-0.459,0.138h-0.024v-0.466c0.089-0.025,0.219-0.052,0.388-0.081
		s0.336-0.044,0.5-0.044c0.192,0,0.359,0.016,0.501,0.048c0.143,0.031,0.266,0.086,0.37,0.162c0.103,0.075,0.181,0.172,0.234,0.29
		c0.054,0.119,0.081,0.267,0.081,0.442V44.195z M61.149,43.523v-0.759c-0.14,0.008-0.305,0.021-0.494,0.036
		c-0.19,0.017-0.34,0.04-0.451,0.071c-0.132,0.037-0.238,0.096-0.32,0.175s-0.122,0.188-0.122,0.326
		c0,0.156,0.047,0.273,0.142,0.353s0.238,0.118,0.432,0.118c0.161,0,0.309-0.031,0.442-0.094S61.036,43.611,61.149,43.523z"/>
	<path fill="#4A4A4A" d="M64.494,41.871h-0.986v2.324h-0.459v-2.324h-0.986v-0.402h2.432V41.871z"/>
	<path fill="#4A4A4A" d="M67.268,44.195h-0.454v-2.049l-1.428,2.049H64.97v-2.727h0.454v2.019l1.414-2.019h0.43V44.195z"/>
	<path fill="#4A4A4A" d="M70.068,43.432c0,0.152-0.036,0.282-0.106,0.388c-0.071,0.105-0.162,0.191-0.272,0.257
		c-0.111,0.063-0.233,0.109-0.366,0.139s-0.267,0.044-0.4,0.044c-0.189,0-0.369-0.018-0.54-0.054s-0.339-0.091-0.505-0.166v-0.503
		h0.032c0.119,0.104,0.27,0.185,0.454,0.241c0.184,0.058,0.362,0.086,0.535,0.086c0.082,0,0.165-0.008,0.251-0.023
		s0.161-0.04,0.225-0.074c0.068-0.039,0.123-0.086,0.164-0.141s0.061-0.129,0.061-0.223c0-0.098-0.02-0.176-0.06-0.234
		c-0.04-0.059-0.094-0.104-0.162-0.133c-0.067-0.029-0.147-0.047-0.242-0.053c-0.094-0.007-0.181-0.01-0.259-0.01h-0.398v-0.396
		h0.276c0.065,0,0.15-0.002,0.255-0.007c0.104-0.005,0.19-0.018,0.255-0.039c0.084-0.027,0.152-0.066,0.201-0.117
		c0.05-0.051,0.075-0.131,0.075-0.241c0-0.077-0.02-0.14-0.059-0.189s-0.088-0.089-0.146-0.116c-0.06-0.027-0.127-0.046-0.202-0.056
		c-0.074-0.01-0.139-0.016-0.196-0.016c-0.166,0-0.329,0.022-0.489,0.067c-0.161,0.045-0.295,0.109-0.404,0.194h-0.032v-0.506
		c0.135-0.043,0.28-0.079,0.435-0.107c0.155-0.027,0.309-0.041,0.464-0.041c0.127,0,0.253,0.012,0.379,0.034
		c0.126,0.022,0.244,0.062,0.353,0.117c0.107,0.056,0.195,0.131,0.264,0.226c0.068,0.096,0.103,0.213,0.103,0.354
		c0,0.143-0.044,0.269-0.133,0.377c-0.088,0.108-0.208,0.186-0.357,0.232v0.018c0.167,0.041,0.301,0.117,0.4,0.229
		S70.068,43.247,70.068,43.432z"/>
	<path fill="#4A4A4A" d="M72.912,44.195h-0.457v-0.291c-0.041,0.028-0.096,0.066-0.165,0.116c-0.069,0.05-0.137,0.089-0.202,0.118
		c-0.077,0.038-0.165,0.069-0.264,0.095s-0.216,0.038-0.349,0.038c-0.246,0-0.454-0.082-0.625-0.244
		c-0.171-0.163-0.256-0.371-0.256-0.623c0-0.207,0.044-0.374,0.133-0.502c0.088-0.128,0.215-0.229,0.379-0.301
		c0.166-0.074,0.365-0.123,0.598-0.149s0.482-0.046,0.75-0.059v-0.071c0-0.104-0.018-0.189-0.055-0.258
		c-0.036-0.068-0.089-0.123-0.157-0.162c-0.065-0.037-0.143-0.063-0.234-0.075s-0.187-0.02-0.286-0.02
		c-0.121,0-0.255,0.016-0.403,0.048c-0.148,0.031-0.301,0.077-0.459,0.138h-0.024v-0.466c0.089-0.025,0.219-0.052,0.388-0.081
		s0.336-0.044,0.5-0.044c0.192,0,0.359,0.016,0.502,0.048c0.142,0.031,0.266,0.086,0.37,0.162c0.103,0.075,0.181,0.172,0.234,0.29
		c0.054,0.119,0.081,0.267,0.081,0.442V44.195z M72.456,43.523v-0.759c-0.14,0.008-0.305,0.021-0.495,0.036
		c-0.189,0.017-0.339,0.04-0.45,0.071c-0.132,0.037-0.238,0.096-0.32,0.175s-0.122,0.188-0.122,0.326
		c0,0.156,0.047,0.273,0.142,0.353s0.238,0.118,0.432,0.118c0.161,0,0.309-0.031,0.442-0.094S72.342,43.611,72.456,43.523z"/>
	<path fill="#4A4A4A" d="M75.801,41.871h-0.987v2.324h-0.459v-2.324h-0.986v-0.402h2.432V41.871z"/>
	<path fill="#4A4A4A" d="M78.601,42.833c0,0.444-0.114,0.795-0.342,1.052c-0.228,0.258-0.533,0.387-0.915,0.387
		c-0.387,0-0.692-0.129-0.92-0.387c-0.227-0.257-0.34-0.607-0.34-1.052s0.113-0.796,0.34-1.054c0.228-0.258,0.533-0.387,0.92-0.387
		c0.382,0,0.688,0.129,0.915,0.387S78.601,42.389,78.601,42.833z M78.127,42.833c0-0.354-0.069-0.615-0.207-0.787
		c-0.139-0.172-0.331-0.258-0.576-0.258c-0.25,0-0.443,0.086-0.58,0.258c-0.138,0.172-0.207,0.434-0.207,0.787
		c0,0.342,0.07,0.601,0.208,0.777s0.331,0.265,0.579,0.265c0.244,0,0.436-0.087,0.574-0.262
		C78.058,43.438,78.127,43.178,78.127,42.833z"/>
	<path fill="#4A4A4A" d="M81.711,42.799c0,0.222-0.031,0.424-0.096,0.606c-0.063,0.184-0.152,0.339-0.268,0.466
		c-0.107,0.12-0.234,0.213-0.38,0.279c-0.146,0.065-0.3,0.099-0.463,0.099c-0.142,0-0.27-0.016-0.385-0.046
		c-0.114-0.031-0.231-0.079-0.351-0.145v1.143h-0.459v-3.732h0.459v0.285c0.123-0.103,0.26-0.188,0.412-0.258
		s0.314-0.104,0.486-0.104c0.329,0,0.585,0.124,0.769,0.372C81.619,42.013,81.711,42.357,81.711,42.799z M81.237,42.811
		c0-0.328-0.056-0.574-0.169-0.736c-0.111-0.163-0.284-0.244-0.518-0.244c-0.131,0-0.264,0.028-0.397,0.085
		s-0.261,0.132-0.384,0.225v1.546c0.131,0.059,0.242,0.098,0.336,0.119s0.2,0.031,0.318,0.031c0.256,0,0.455-0.086,0.599-0.258
		C81.166,43.405,81.237,43.149,81.237,42.811z"/>
</g>
<path fill="none" stroke="#4A4A4A" stroke-miterlimit="10" d="M152.833,90.436c-16.433,16.433-43.028,16.433-59.461,0"/>
</svg>
