<?xml version="1.0" encoding="utf-8"?>
<!-- Generator: Adobe Illustrator 17.0.0, SVG Export Plug-In . SVG Version: 6.00 Build 0)  -->
<!DOCTYPE svg PUBLIC "-//W3C//DTD SVG 1.1//EN" "http://www.w3.org/Graphics/SVG/1.1/DTD/svg11.dtd">
<svg version="1.1" id="Layer_1" xmlns="http://www.w3.org/2000/svg" xmlns:xlink="http://www.w3.org/1999/xlink" x="0px" y="0px"
	 width="124.011px" height="97.136px" viewBox="71.406 6.125 124.011 97.136" enable-background="new 71.406 6.125 124.011 97.136"
	 xml:space="preserve">
<rect x="147.183" y="20.625" fill="none" stroke="#292724" stroke-miterlimit="10" width="47.734" height="28.208"/>
<ellipse fill="none" stroke="#587F6B" stroke-miterlimit="10" cx="90.928" cy="30.883" rx="4.786" ry="2.872"/>
<g>
	<path fill="none" stroke="#587F6B" stroke-miterlimit="10" d="M83.915,38.25l2-3.368c0.281-0.473,0.67-0.439,0.864,0.076
		l3.823,10.107c0.195,0.514,0.506,0.512,0.691-0.006l3.617-10.095c0.186-0.518,0.562-0.551,0.836-0.075l1.626,2.826"/>
</g>
<line fill="none" stroke="#292724" stroke-miterlimit="10" x1="111.013" y1="74.725" x2="111.079" y2="28.756"/>
<g>
	<g>
		<line fill="none" stroke="#292724" stroke-width="1.5" stroke-miterlimit="10" x1="71.406" y1="54" x2="77.406" y2="54"/>
		
			<line fill="none" stroke="#292724" stroke-width="1.5" stroke-miterlimit="10" stroke-dasharray="12.8589,3.2147" x1="80.621" y1="54" x2="159.382" y2="54"/>
		<line fill="none" stroke="#292724" stroke-width="1.5" stroke-miterlimit="10" x1="160.989" y1="54" x2="166.989" y2="54"/>
	</g>
</g>
<ellipse fill="none" stroke="#587F6B" stroke-miterlimit="10" cx="140.928" cy="79.883" rx="4.786" ry="2.872"/>
<g>
	<path fill="none" stroke="#587F6B" stroke-miterlimit="10" d="M133.915,87.25l2-3.368c0.281-0.473,0.67-0.439,0.864,0.076
		l3.823,10.107c0.195,0.514,0.506,0.512,0.691-0.006l3.617-10.095c0.186-0.518,0.562-0.551,0.836-0.075l1.626,2.826"/>
</g>
<ellipse fill="none" stroke="#587F6B" stroke-miterlimit="10" cx="106.928" cy="79.883" rx="4.786" ry="2.872"/>
<g>
	<path fill="none" stroke="#587F6B" stroke-miterlimit="10" d="M99.915,87.25l2-3.368c0.281-0.473,0.67-0.439,0.864,0.076
		l3.823,10.107c0.195,0.514,0.506,0.512,0.691-0.006l3.617-10.095c0.186-0.518,0.562-0.551,0.836-0.075l1.626,2.826"/>
</g>
<polygon fill="none" stroke="#587F6B" stroke-miterlimit="10" points="102.5,23.246 111.5,8.517 126.228,8.517 117.228,23.246 "/>
<g>
	<g>
		<line fill="none" stroke="#C8C8C8" stroke-miterlimit="10" x1="101.041" y1="21.353" x2="102.084" y2="19.647"/>
		
			<line fill="none" stroke="#C8C8C8" stroke-miterlimit="10" stroke-dasharray="3.1201,2.3401" x1="103.304" y1="17.65" x2="108.388" y2="9.33"/>
		<polyline fill="none" stroke="#C8C8C8" stroke-miterlimit="10" points="108.998,8.332 110.041,6.625 112.041,6.625 		"/>
		
			<line fill="none" stroke="#C8C8C8" stroke-miterlimit="10" stroke-dasharray="4.2913,3.2185" x1="115.259" y1="6.625" x2="121.16" y2="6.625"/>
		<line fill="none" stroke="#C8C8C8" stroke-miterlimit="10" x1="122.769" y1="6.625" x2="124.769" y2="6.625"/>
	</g>
</g>
<line fill="none" stroke="#292724" stroke-width="4" stroke-miterlimit="10" x1="121.813" y1="35.198" x2="137.16" y2="35.209"/>
<line fill="none" stroke="#292724" stroke-miterlimit="10" x1="124.976" y1="16.165" x2="124.96" y2="27.233"/>
<ellipse fill="none" stroke="#587F6B" stroke-miterlimit="10" cx="170.825" cy="34.825" rx="14.875" ry="7.458"/>
<g>
	
		<ellipse fill="none" stroke="#C8C8C8" stroke-miterlimit="10" stroke-dasharray="4.0247,3.0185" cx="170.866" cy="34.845" rx="18.7" ry="9.75"/>
</g>
<path fill="none" stroke="#292724" stroke-miterlimit="10" d="M152.833,90.436c-16.433,16.433-43.028,16.433-59.461,0"/>
<polygon fill="#292724" stroke="#292724" stroke-miterlimit="10" points="137.161,31.401 143.256,35.339 137.161,38.993 "/>
<polygon fill="#292724" stroke="#292724" stroke-miterlimit="10" points="109.66,29.271 111.097,27.046 112.431,29.271 "/>
<polygon fill="#292724" stroke="#292724" stroke-miterlimit="10" points="126.362,27.046 124.924,29.271 123.59,27.046 "/>
</svg>
