<?xml version="1.0" encoding="utf-8"?>
<!-- Generator: Adobe Illustrator 17.0.0, SVG Export Plug-In . SVG Version: 6.00 Build 0)  -->
<!DOCTYPE svg PUBLIC "-//W3C//DTD SVG 1.1//EN" "http://www.w3.org/Graphics/SVG/1.1/DTD/svg11.dtd">
<svg version="1.1" id="Layer_1" xmlns="http://www.w3.org/2000/svg" xmlns:xlink="http://www.w3.org/1999/xlink" x="0px" y="0px"
	 width="282px" height="201px" viewBox="0 0 282 201" enable-background="new 0 0 282 201" xml:space="preserve">
<g>
	<g>
		<g>
			<g>
				<defs>
					<rect id="SVGID_1_" x="-0.002" width="282" height="201"/>
				</defs>
				<clipPath id="SVGID_2_">
					<use xlink:href="#SVGID_1_"  overflow="visible"/>
				</clipPath>
				<g clip-path="url(#SVGID_2_)">
					<path opacity="0.1" fill="#C7C7C7" enable-background="new    " d="M215.471,201c27.091,0,49.053-5.467,49.053-12.211
						s-21.962-12.211-49.053-12.211s-49.053,5.467-49.053,12.211S188.38,201,215.471,201z"/>
					<g opacity="0.1">
						<path opacity="0.1" fill="#C7C7C7" enable-background="new    " d="M159.681,7.608c0,44.329,25.019,80.198,55.95,80.198
							L159.681,7.608z"/>
					</g>
					<path opacity="0.1" fill="#C7C7C7" enable-background="new    " d="M278.73,138.118c-9.292-12.009-33.979-14.108-40.621-27.128
						c-3.656-7.168-0.402-15.44,4.343-22.411c10.204-14.949,27.681-28.398,28.103-45.045c0.281-11.43-8.687-22.514-22.145-27.384
						c-14.116-5.112-33.415-3.632-43.394,6.137c-10.278,10.059-28.76,14.506-44.723,14.639c-18.075,0.153-35.443-4.387-52.049-9.448
						c-16.607-5.061-33.078-10.752-50.788-13.075c-11.4-1.497-24.373-1.261-33.333,4.544C15.5,24.53,12.948,33.683,11.689,42.128
						c-0.948,6.356-1.41,13.023,1.926,18.805c2.305,4.013,6.285,7.307,9.095,11.129c9.775,13.299,3.712,30.414-5.981,44.162
						c-4.545,6.449-9.862,12.637-13.311,19.447s-4.9,14.511-1.479,21.185c3.393,6.611,11.124,11.358,19.44,14.61
						c16.895,6.561,36.588,7.867,55.762,8.281c42.446,0.923,85.002-1.882,127.443-4.685c15.705-1.039,31.481-2.084,46.876-4.871
						c8.549-1.547,17.353-3.817,23.438-8.692C282.627,155.307,284.269,145.28,278.73,138.118z M153.831,105.333
						c-0.037,5.227-0.464,10.44-0.5,15.667c-0.044,6.446-10.044,6.451-10,0c0.025-3.642,0.236-7.278,0.377-10.916
						c-0.008-0.031-0.024-0.057-0.032-0.088c-1.036-4.4-1.205-9.276,1.004-13.353c3.072-5.671,11.707-0.623,8.635,5.047
						c-0.039,0.073-0.061,0.114-0.089,0.168c-0.072,0.231-0.128,0.467-0.18,0.703C153.539,103.292,153.839,104.213,153.831,105.333z
						 M154.729,87.466c-0.744,5.337-6.765,7.973-10.434,3.403c-2.066-2.574-1.181-5.719,0.712-7.463
						c0.016-1.357,0.049-2.721-0.01-4.072c-0.007-0.159-0.012-0.317-0.019-0.475c-0.122-0.149-0.237-0.305-0.339-0.467
						c-0.582-0.822-0.94-1.818-0.975-2.891c-0.098-2.969,0.611-5.871,0.667-8.833c0.051-2.725,2.236-5,5-5
						c2.465,0,4.634,1.92,4.941,4.34c0.244,0.578,0.389,1.239,0.393,1.993C154.698,74.429,155.621,81.072,154.729,87.466z"/>
					<path fill="#FFFFFF" d="M233.399,0.486L53.71,0c-4.691,0-8.49,4.47-8.49,8.857v147.218c0,4.39,3.799,7.951,8.49,7.951h179.712
						c4.691,0,8.493-3.572,8.493-7.951V8.857C241.915,4.47,238.082,0.486,233.399,0.486z M153.831,105.333
						c-0.037,5.227-0.464,10.44-0.5,15.667c-0.044,6.446-10.044,6.451-10,0c0.025-3.642,0.236-7.278,0.377-10.916
						c-0.008-0.031-0.024-0.057-0.032-0.088c-1.036-4.4-1.205-9.276,1.004-13.353c3.072-5.671,11.707-0.623,8.635,5.047
						c-0.039,0.073-0.061,0.114-0.089,0.168c-0.072,0.231-0.128,0.467-0.18,0.703C153.539,103.292,153.839,104.213,153.831,105.333z
						 M154.729,87.466c-0.744,5.337-6.765,7.973-10.434,3.403c-2.066-2.574-1.181-5.719,0.712-7.463
						c0.016-1.357,0.049-2.721-0.01-4.072c-0.007-0.159-0.012-0.317-0.019-0.475c-0.122-0.149-0.237-0.305-0.339-0.467
						c-0.582-0.822-0.94-1.818-0.975-2.891c-0.098-2.969,0.611-5.871,0.667-8.833c0.051-2.725,2.236-5,5-5
						c2.465,0,4.634,1.92,4.941,4.34c0.244,0.578,0.389,1.239,0.393,1.993C154.698,74.429,155.621,81.072,154.729,87.466z"/>
					<path fill="#393944" d="M241.915,8.903v6.815H45.221V8.903c0-2.361,0.844-4.625,2.345-6.294
						c1.501-1.67,3.538-2.608,5.662-2.609h180.666c1.052-0.001,2.095,0.228,3.068,0.674c0.973,0.447,1.858,1.102,2.603,1.929
						s1.336,1.809,1.739,2.89C241.707,6.574,241.914,7.733,241.915,8.903z"/>
					<path opacity="0.8" fill="#FA5959" enable-background="new    " d="M54.748,11.004c1.563,0,2.831-1.409,2.831-3.146
						c0-1.738-1.267-3.146-2.831-3.146s-2.831,1.409-2.831,3.146S53.184,11.004,54.748,11.004z"/>
					<path opacity="0.8" fill="#FED253" enable-background="new    " d="M62.982,11.004c1.563,0,2.831-1.409,2.831-3.146
						c0-1.738-1.267-3.146-2.831-3.146c-1.563,0-2.831,1.409-2.831,3.146C60.151,9.595,61.419,11.004,62.982,11.004z"/>
					<path opacity="0.8" fill="#8CCF4D" enable-background="new    " d="M71.216,11.004c1.563,0,2.831-1.409,2.831-3.146
						c0-1.738-1.267-3.146-2.831-3.146c-1.563,0-2.831,1.409-2.831,3.146C68.386,9.595,69.653,11.004,71.216,11.004z"/>
					<path fill="#393944" d="M27.596,142.529c0,14.267,8.053,25.814,18.004,25.814L27.596,142.529z"/>
					<path fill="#C7C7C7" d="M45.6,168.339c0-14.429,8.988-26.103,20.094-26.103L45.6,168.339z"/>
					<path fill="#C7C7C7" d="M34.121,143.822c0,13.551,5.135,24.519,11.479,24.519L34.121,143.822z"/>
					<path fill="#393944" d="M45.6,168.339c0-18.435,10.388-33.353,23.223-33.353L45.6,168.339z"/>
					<path opacity="0.1" fill="#C7C7C7" enable-background="new    " d="M44.818,173.27c2.472,0,4.476-0.376,4.476-0.841
						c0-0.464-2.004-0.841-4.476-0.841c-2.472,0-4.476,0.376-4.476,0.841C40.342,172.893,42.346,173.27,44.818,173.27z"/>
					<path fill="#A8A8A8" d="M41.812,168.521c0,0,2.555-0.088,3.321-0.696c0.766-0.607,3.927-1.337,4.118-0.36
						c0.192,0.976,3.832,4.858,0.953,4.884s-6.699-0.5-7.465-1.019C41.973,170.81,41.812,168.521,41.812,168.521z"/>
					<path opacity="0.2" enable-background="new    " d="M50.259,172.009c-2.882,0.026-6.696-0.497-7.465-1.019
						c-0.585-0.395-0.818-1.815-0.897-2.471h-0.084c0,0,0.161,2.289,0.93,2.808s4.583,1.045,7.465,1.019
						c0.833,0,1.119-0.338,1.104-0.824C51.196,171.822,50.88,172.004,50.259,172.009z"/>
					
						<linearGradient id="SVGID_3_" gradientUnits="userSpaceOnUse" x1="182.0661" y1="1497.1099" x2="182.0661" y2="1421.0236" gradientTransform="matrix(1 0 0 1 33.48 -1299.8398)">
						<stop  offset="0" style="stop-color:#808080;stop-opacity:0.25"/>
						<stop  offset="0.54" style="stop-color:#808080;stop-opacity:0.12"/>
						<stop  offset="1" style="stop-color:#808080;stop-opacity:0.1"/>
					</linearGradient>
					<path fill="url(#SVGID_3_)" d="M244.296,184.241l-7.069-11.393c0,0-0.133-2.82-0.595-3.481c-0.463-0.662-0.1-2.124-0.1-2.124
						s0.496-0.806,0.066-0.877c-0.429-0.071-0.066-1.869-0.066-1.869l-0.033-2.86c0,0,0.396-2.746,0.066-3.408
						c-0.096-0.178-0.144-0.383-0.138-0.592c0.006-0.208,0.065-0.409,0.171-0.581c0,0,0.396-1.576,0-1.988s-0.299-2.856-0.199-4.796
						c0.1-1.94-0.692-3.042-0.692-3.334c0-0.293-2.611-3.153-2.611-3.408s-1.651-1.317-2.642-1.612s-1.487-0.512-1.454-0.66
						c0.033-0.148-1.553-0.732-1.553-0.732s-1.387-0.109-1.916-0.878c-0.529-0.77-2.146-0.994-2.19-0.999
						c0-0.051-0.023-0.102-0.03-0.153l-0.031-0.164c0.125-0.233,0.24-0.472,0.345-0.718l0.092-0.224
						c0.581,0.002,1.149-0.197,1.625-0.569c0.233-0.217,0.424-0.484,0.56-0.787c0.136-0.302,0.215-0.632,0.232-0.969
						c0.027-0.677-0.106-1.35-0.386-1.951c-0.291-0.662-0.715-1.344-0.57-2.059c0.064-0.31,0.23-0.569,0.317-0.884
						c0.128-0.59,0.042-1.213-0.238-1.735c-0.255-0.531-0.597-0.999-0.876-1.517c-0.356-0.656-0.592-1.384-0.697-2.141
						c-0.022-0.403-0.109-0.798-0.256-1.167c-0.149-0.26-0.347-0.482-0.58-0.65c-1.033-0.822-2.281-1.242-3.551-1.196
						c-0.899,0.034-1.788,0.304-2.688,0.182c-0.534-0.104-1.059-0.258-1.571-0.458c-1.106-0.363-2.386-0.514-3.349,0.19
						c-0.963,0.705-1.349,2.09-2.003,3.175c-0.58,0.961-1.426,1.763-1.865,2.781c0-0.02,0-0.04,0.012-0.06
						c-0.11,0.235-0.195,0.484-0.255,0.742c-0.169,0.797-0.028,1.632,0.146,2.428c0.092,0.412,0.214,0.852,0.534,1.085
						c0.319,0.233,0.766,0.179,1.154,0.252c-0.015,0.071-0.03,0.14-0.043,0.211c-0.396,2.063-0.077,4.218,0.894,6.032
						c0.971,1.813,2.522,3.153,4.343,3.75c0,0.074,0,0.151,0,0.222c0,0.219-0.015,0.429-0.035,0.63c0,0-3.322-0.757-4.213-0.247
						c-0.892,0.511-2.645,0.917-2.908,1.209c-0.263,0.293-0.925,0.074-1.52,1.796c-0.595,1.72-0.659,3.481-1.42,4.284
						c-0.762,0.804-1.155,1.358-1.188,1.943c-0.034,0.584,0.097,0.732-0.2,0.916c-0.296,0.185-0.725,0.952-0.595,1.245
						c0,0,0.166,0.732-0.363,1.098c-0.156,0.123-0.281,0.289-0.362,0.482c-0.081,0.192-0.116,0.405-0.1,0.617
						c0,0-0.199,0.806-0.662,0.988c-0.462,0.181-0.766,1.394-0.766,1.394l-1.497,1.914l-2.972-3.652
						c-0.222-0.272-0.533-0.436-0.864-0.455c-0.331-0.018-0.655,0.11-0.901,0.356l-1.433,1.477
						c-0.563,0.151-1.072,0.488-1.459,0.965c-0.321,0.362-0.58,0.785-0.767,1.249l-0.797,0.801
						c-0.124,0.123-0.225,0.273-0.296,0.442c-0.071,0.168-0.11,0.35-0.115,0.535c-0.104,0.247-0.139,0.522-0.102,0.791
						c0.036,0.269,0.144,0.519,0.309,0.72l1.901,2.341v0.02c-0.675,0.062-1.317,0.352-1.84,0.832
						c-2.841,2.783-2.874,5.347-2.445,6.531c0.429,1.185,4.029,5.68,4.029,5.68s2.093,3.024,5.11,4.632l-0.021,0.026
						c-0.061,0.071-0.12,0.148-0.178,0.23l-0.049,0.071l-0.046,0.071l-0.054,0.088l-0.04,0.071l-0.059,0.104
						c-0.011,0.026-0.023,0.049-0.036,0.071c-0.023,0.046-0.046,0.094-0.066,0.142l-0.023,0.049
						c-0.028,0.062-0.054,0.13-0.082,0.199c-0.028,0.068-0.018,0.051-0.026,0.073c-0.007,0.023-0.035,0.097-0.051,0.148l-0.03,0.094
						c-0.016,0.046-0.029,0.093-0.044,0.141c-0.015,0.049-0.018,0.069-0.028,0.105l-0.038,0.159l-0.023,0.1
						c-0.021,0.086-0.036,0.173-0.054,0.264l-0.015,0.104c0,0.06-0.021,0.122-0.028,0.188c-0.008,0.066-0.013,0.088-0.018,0.133
						c-0.005,0.046,0,0.12-0.021,0.182c-0.02,0.062,0,0.093-0.012,0.139c-0.013,0.046,0,0.139,0,0.21s0,0.083,0,0.128
						c0,0.114,0,0.233-0.013,0.355c-0.067,4.285,0.158,4.907,0.158,4.907s0.468,1.366,1.755,1.463
						c0.189,0.014,0.379,0.003,0.565-0.034c1.717-0.329,5.748-1.098,7.169-0.803c0.853,0.175,2.435-0.086,3.559-0.321l0.299-0.066
						l0.204,0.73l0.654-0.199l0.554,0.355l0.35,0.224c0.652,2.456,3.299,1.618,3.299,1.618l0.628,0.403l6.387,0.182
						c0.716,0.483,1.473,0.887,2.259,1.207c0.104,0.034,0.211,0.06,0.319,0.077c0.591,0.052,1.184,0.064,1.776,0.037
						c0.49,0,0.868-0.037,0.868-0.037s-0.066-1.922-0.158-4.078c2.435-0.114,4.599-0.284,5.904-0.537
						c3.388-0.664,4.806-4.118,5.33-5.958c0.156,0.748,0.267,1.508,0.332,2.272c0.139,0.674,0.315,1.338,0.529,1.988
						c0.186,0.521,0.431,1.013,0.728,1.466c2.511-0.952,0.991-2.38,0.462-3.002c-0.529-0.622,0.363-1.136,0.363-1.136
						s0.695-0.514,0.628-0.992c-0.066-0.476-0.099-0.987,2.146-0.951C244.393,186.329,244.296,184.241,244.296,184.241z
						 M209.412,160.851c0.028,0.21,0.343,2.464,0.626,3.058c0.079,0.395,0.104,0.803,0.074,1.207
						c-1.331-0.117-2.718-0.182-2.718-0.182c0.04,0.054,0.065,0.12,0.072,0.19l-0.21-0.053c-0.097-0.026-0.199-0.051-0.304-0.082
						l2.453-4.143L209.412,160.851z M204.558,169.441l2.3,0.406l0.194,0.034c-0.066,0.399-0.106,0.803-0.12,1.209
						c0,0.037,0.051,0.082,0.125,0.137c-0.031,0.2-0.046,0.402-0.044,0.604c0.036,0.205,1.114,0.642,2.351,1.006
						c-0.018,0.073-0.036,0.142-0.051,0.21c-1.091-0.639-2.811-0.937-3.01-1.42c-0.199-0.482-6.032-2.734-6.032-2.734
						s-0.214-0.128-0.582-0.324l1.533,0.324l0.424-0.049c0.956,0.269,1.927,0.467,2.907,0.596L204.558,169.441L204.558,169.441z"/>
					<path fill="#65617D" d="M236.777,185.836c0,0-0.917,6.148-5.567,7.059c-4.65,0.912-20.168,0.726-20.168,0.726
						s-8.873-1.419-12.082-9.751c-3.208-8.332-5.27-11.644-2.521-11.793c2.749-0.151,17.582,5.568,18.433,5.642
						C215.723,177.793,237.595,165.054,236.777,185.836z"/>
					<path fill="#A8A8A8" d="M236.777,185.836c0,0-0.917,6.148-5.567,7.059c-4.65,0.912-20.168,0.726-20.168,0.726
						s-8.873-1.419-12.082-9.751c-3.208-8.332-5.27-11.644-2.521-11.793c2.749-0.151,17.582,5.568,18.433,5.642
						C215.723,177.793,237.595,165.054,236.777,185.836z"/>
					<path fill="#454554" d="M195.161,192.677c0,0,0.463,1.355,1.738,1.454c0.187,0.014,0.375,0.003,0.559-0.034
						c1.704-0.329,5.698-1.093,7.105-0.801c0.848,0.173,2.415-0.084,3.531-0.318c0.741-0.157,1.277-0.301,1.277-0.301
						s-1.308-4.827-1.474-4.987c-0.166-0.159-5.891-3.976-5.891-3.976l-4.545-0.352c-0.608,0.104-1.157,0.464-1.533,1.005
						c-0.478,0.645-0.889,1.705-0.917,3.437C194.931,192.057,195.161,192.677,195.161,192.677z"/>
					<path fill="#393944" d="M195.161,192.676c0,0,0.463,1.355,1.738,1.455c-0.445-0.636-0.856-1.3-1.232-1.988l0.023-3.53
						c-0.092-0.968,0.022-1.947,0.333-2.856c0.311-0.911,0.809-1.727,1.456-2.383h-0.018c0,0-2.389,0.182-2.455,4.441
						C194.939,192.074,195.161,192.676,195.161,192.676z"/>
					<path opacity="0.1" enable-background="new    " d="M214.834,184.96l4.223-3.675l6.642-7.278c0,0-0.717-0.04-1.801-0.091
						c-0.255,0.191-1.022,0.79-1.052,1.519c-0.031,0.892-1.789,0.063-2.713,0.569c-0.925,0.505-5.391,6.895-6.178,6.85
						s-1.408-0.443-1.735,0.175l-0.023,0.04L214.834,184.96z"/>
					<path opacity="0.1" enable-background="new    " d="M195.928,184.365c0.15,0.079,0.304,0.159,0.457,0.233
						c3.209,1.527,7.171,4.731,7.465,5.313c0.182,0.355,2.478,1.906,4.251,3.067c0.741-0.157,1.278-0.301,1.278-0.301
						s-1.308-4.827-1.474-4.987c-0.166-0.159-5.892-3.976-5.892-3.976l-4.552-0.352
						C196.853,183.465,196.304,183.825,195.928,184.365z"/>
					<path fill="#A8A8A8" d="M187.009,173.934c0.427,1.165,3.996,5.64,3.996,5.64s2.258,3.277,5.467,4.805s7.169,4.731,7.466,5.313
						c0.189,0.375,2.746,2.088,4.547,3.264l0.404,0.261l0.894,0.567l0.473,0.304c0,0,1.096-0.979,2.189-1.966
						c1.094-0.985,2.149-1.948,2.167-1.988c0.03-0.108,0.457-1.346,0.357-1.419c-0.051-0.038-0.276-0.543-0.687-1.136
						c-0.44-0.65-1.012-1.175-1.668-1.534c-1.508-0.764-2.162-2.505-2.162-2.505s-0.143-0.113-0.36-0.267
						c-0.446-0.343-0.946-0.591-1.474-0.73c-0.72-0.1-2.062-1.738-2.062-1.738s-0.917-0.656-1.277-1.491s-5.422-4.674-5.892-5.035
						l12.31,8.79l2.945,2.104l4.226-3.675l6.643-7.278c0,0-0.895-0.049-2.192-0.111c-3.232-0.157-8.968-0.401-9.694-0.219
						c-0.585,0.152-1.189,0.197-1.788,0.131c0,0-1.635,0.082-2.716-0.552c-1.08-0.633-2.784-0.931-2.981-1.399
						c-0.197-0.469-5.991-2.73-5.991-2.73s-7.89-4.657-10.708-1.891C186.623,170.217,186.585,172.77,187.009,173.934z"/>
					<path fill="#FECEB8" d="M212.45,147.223l1.022,3.746l1.311,8.445l4.81,0.363l1.395-2.555l1.39-2.556
						c0,0,0.866-3.408,1.49-6.713c0.549-2.919,0.909-5.753,0.311-6.06c-0.531-0.284-0.881-1.258-1.108-2.314
						c-0.029-0.131-0.057-0.264-0.08-0.395c-0.159-0.896-0.266-1.803-0.319-2.715c0,0-10.084-0.582-8.686,4.041
						c0.252,0.788,0.38,1.62,0.38,2.456c-0.002,0.209-0.014,0.418-0.035,0.625c-0.072,0.716-0.276,1.409-0.6,2.034
						C213.408,146.249,212.972,146.793,212.45,147.223z"/>
					<path fill="#BABABA" d="M210.352,146.603l0.363,6.368l0.818,5.424l0.917,2.51l0.818,13.739c0,0,7.894,1.014,9.815-0.017
						c0.138-0.066,0.258-0.17,0.348-0.304c2.317-3.89,1.558-15.164,1.558-15.164l0.884-7.278l-0.59-3.778l-1.423-0.17l-1.096-0.128
						c0,0-0.256,0.338-0.606,0.852c-0.97,1.42-2.756,4.225-2.636,5.396c0.163,1.601-0.197,3.237-0.767,3.493
						c-0.569,0.255-1.022,0.693-1.111,0.255c-0.089-0.436-0.197-0.545-0.1-1.164c0.097-0.62-0.426-2.513-0.426-2.513
						s-0.884-2.218-0.818-3.167c0.067-0.948-0.097-2.036-0.36-2.291s-0.621-0.509-0.327-1.672c0.294-1.165-1.29-3.423-1.29-3.423
						L210.352,146.603z"/>
					<path opacity="0.1" enable-background="new    " d="M220.781,162.51l0.33,10.882l1.891,1.165
						c0.137-0.066,0.256-0.17,0.347-0.302c2.317-3.893,1.558-15.167,1.558-15.167l0.884-7.278l-0.59-3.777l-1.423-0.17
						c0.549-2.919,0.91-5.753,0.312-6.06c-0.532-0.284-0.882-1.258-1.109-2.315l-1.022,7.699c0,0,0.084,0.696,0.115,1.42
						c0.042,0.453,0.014,0.911-0.082,1.354c-0.23,0.656-0.066,1.821-0.066,1.821c-0.59,1.155-0.887,3.297-1.022,5.364
						C220.71,159.888,220.781,162.51,220.781,162.51z"/>
					<path fill="#454554" d="M223.009,139.314c0,0,1.651,0.228,2.175,0.994c0.523,0.767,1.898,0.872,1.898,0.872
						s1.571,0.569,1.533,0.727c-0.039,0.159,0.457,0.366,1.438,0.656c0.981,0.289,2.621,1.346,2.621,1.601s2.599,3.093,2.599,3.385
						c0,0.292,0.787,1.383,0.687,3.312c-0.1,1.928-0.197,4.368,0.197,4.767c0.393,0.401,0,1.966,0,1.966
						c-0.106,0.17-0.166,0.37-0.171,0.576c-0.006,0.207,0.042,0.411,0.137,0.587c0.327,0.656-0.063,3.386-0.063,3.386l0.03,2.84
						c0,0-0.36,1.783,0.067,1.857c0.426,0.074-0.067,0.875-0.067,0.875s-0.36,1.454,0.1,2.11s0.59,3.456,0.59,3.456l7.005,11.319
						c0,0,0.1,2.073-2.128,2.039c-2.228-0.033-2.194,0.472-2.128,0.946s-0.621,0.983-0.621,0.983s-0.884,0.507-0.36,1.135
						c0.524,0.629,2.029,2.04-0.46,2.985c-0.293-0.451-0.535-0.939-0.72-1.457c-0.211-0.642-0.386-1.298-0.524-1.964
						c0,0-0.23-2.766-0.687-3.124c-0.458-0.359-0.394-2.11-0.394-2.11s0.657-1.42-0.255-2.002s-14.21-8.772-14.21-8.772
						l-0.332-10.896c0,0-0.23-8.042,1.144-10.737c0,0-0.163-1.165,0.067-1.82c0.23-0.656-0.034-2.766-0.034-2.766L223.009,139.314z"
						/>
					<path opacity="0.1" enable-background="new    " d="M214.433,143.682c0,0-3.293-0.756-4.177-0.244
						c-0.884,0.511-2.619,0.908-2.882,1.2c-0.263,0.293-0.915,0.071-1.505,1.783s-0.654,3.457-1.408,4.26
						c-0.753,0.804-1.147,1.346-1.18,1.929c-0.033,0.582,0.1,0.726-0.194,0.911s-0.721,0.946-0.59,1.236
						c0.13,0.29,6.808,6.696,6.808,6.696s0.33,2.439,0.624,3.058c0.294,0.619-0.327,9.133-0.981,9.718
						c-0.654,0.584,4.42,0.527,4.42,0.527s0.227-5.588,0.424-5.878c0.196-0.29-0.131-6.248-0.131-6.248s-0.033-5.095,0.394-6.441
						c0.426-1.346,0.378-5.821,0.378-5.821s0.375-2.686,0.833-3.314C215.723,146.427,214.433,143.682,214.433,143.682z"/>
					<path fill="#454554" d="M214.323,143.571c0,0-3.291-0.753-4.175-0.244s-2.611,0.906-2.871,1.189
						c-0.261,0.284-0.917,0.074-1.508,1.783c-0.59,1.71-0.654,3.459-1.407,4.26c-0.754,0.801-1.145,1.346-1.178,1.929
						c-0.033,0.582,0.097,0.726-0.197,0.908s-0.72,0.945-0.59,1.238c0.13,0.292,6.816,6.707,6.816,6.707s0.327,2.436,0.624,3.056
						c0.296,0.619-0.33,9.135-0.984,9.717c-0.654,0.583,4.42,0.529,4.42,0.529s0.23-5.586,0.427-5.878
						c0.196-0.293-0.133-6.248-0.133-6.248s-0.031-5.095,0.393-6.441c0.424-1.346,0.363-5.836,0.363-5.836s0.376-2.686,0.833-3.312
						C215.613,146.306,214.323,143.571,214.323,143.571z"/>
					<path opacity="0.1" enable-background="new    " d="M213.988,140.49c0.252,0.788,0.381,1.619,0.381,2.456
						c1.61,0.532,3.333,0.449,4.895-0.237c1.562-0.686,2.872-1.934,3.72-3.546c-0.16-0.897-0.266-1.803-0.32-2.715
						C222.664,136.449,212.581,135.867,213.988,140.49z"/>
					<path fill="#FECEB8" d="M209.012,134.74c0,2.134,0.737,4.189,2.06,5.737c1.322,1.548,3.129,2.474,5.047,2.585
						c1.918,0.111,3.802-0.6,5.262-1.987c1.46-1.387,2.386-3.344,2.587-5.467c0.2-2.123-0.34-4.251-1.51-5.946
						c-1.169-1.694-2.879-2.823-4.776-3.157c-1.898-0.333-3.838,0.155-5.42,1.365c-1.583,1.209-2.688,3.048-3.087,5.137
						C209.066,133.577,209.012,134.157,209.012,134.74z"/>
					<path fill="#454554" d="M204.198,154.027l-1.788,0.62c0,0,0.166,0.726-0.36,1.09c-0.155,0.122-0.279,0.288-0.359,0.479
						c-0.08,0.192-0.114,0.403-0.099,0.614c0,0-0.196,0.801-0.654,0.983c-0.457,0.182-0.753,1.383-0.753,1.383l-1.508,1.929
						c0,0-0.554,0.508-0.457,0.764c0.097,0.255-0.59,0.326-0.59,0.326l0.342,6.48l3.112,0.653l1.931-0.219l1.572-0.653l1.374-0.912
						l0.624-1.782l2.749-4.657L204.198,154.027z"/>
					<path fill="#EE8E9E" d="M198.077,162.726c0,0-3.996-6.406-6.975-2.947c-2.979,3.458,1.211,9.062,2.195,8.88
						c0.983-0.181,5.664-0.474,5.664-0.474L198.077,162.726z"/>
					<path fill="#393944" d="M207.619,160.04l-17.92-10.167c-0.194-0.11-0.43-0.024-0.529,0.191l-7.022,15.293
						c-0.099,0.215-0.022,0.479,0.171,0.589l17.92,10.167c0.194,0.11,0.431,0.024,0.529-0.191l7.023-15.293
						C207.889,160.414,207.813,160.15,207.619,160.04z"/>
					<path fill="#C7C7C7" d="M205.831,160.853l-15.651-8.88l-6.02,13.109l15.651,8.88L205.831,160.853z"/>
					<path fill="#E6E8EC" d="M186.578,158.497c0.159,0,0.288-0.143,0.288-0.321c0-0.177-0.129-0.321-0.288-0.321
						c-0.16,0-0.289,0.144-0.289,0.321C186.289,158.354,186.418,158.497,186.578,158.497z"/>
					<path fill="#E6E8EC" d="M203.518,168.351c0.263,0,0.475-0.237,0.475-0.529s-0.212-0.529-0.475-0.529
						c-0.262,0-0.475,0.237-0.475,0.529C203.043,168.115,203.256,168.351,203.518,168.351z"/>
					<path fill="#FECEB8" d="M195.488,164.072c-0.03,4.805,8.906,5.821,8.906,5.821l2.284,0.403l1.022,0.182l0.427-4.697
						c0,0-0.467-0.077-1.053-0.227c-0.866-0.224-1.987-0.614-2.222-1.156C204.461,163.49,195.522,159.266,195.488,164.072z"/>
					<path opacity="0.1" enable-background="new    " d="M209.175,133.006c0.208,0.019,0.402,0.12,0.549,0.284
						c0.256,0.299,0.256,0.826,0.595,1.008c0.123,0.061,0.259,0.079,0.391,0.051c0.871-0.137,1.375-1.229,2.21-1.53
						c0.488-0.14,1.005-0.09,1.464,0.141c0.187,0.063,0.355,0.182,0.485,0.344c0.282,0.403,0.085,0.996,0.215,1.483
						c0.179,0.675,0.905,0.945,1.533,1.034c0.628,0.088,1.336,0.135,1.758,0.664c0.139,0.199,0.239,0.428,0.293,0.673
						c0.053,0.244,0.06,0.5,0.018,0.747c-0.037,0.17-0.037,0.349,0,0.52c0.174,0.547,1.022,0.465,1.245,0.033
						c0.163-0.312,0.115-0.567,0.495-0.659c0.275-0.026,0.551,0.027,0.802,0.153c0.667,0.254,1.368,0.373,2.072,0.352
						c0.451-1.064,0.693-2.221,0.713-3.396c0.019-1.176-0.186-2.342-0.601-3.424s-1.031-2.052-1.808-2.851
						c-0.777-0.797-1.697-1.404-2.699-1.778c-1.003-0.374-2.065-0.51-3.118-0.395c-1.052,0.114-2.071,0.475-2.99,1.057
						c-0.918,0.583-1.715,1.376-2.339,2.325c-0.623,0.949-1.059,2.034-1.278,3.185L209.175,133.006z"/>
					<path fill="#454554" d="M218.682,138.187c-0.037-0.172-0.037-0.351,0-0.523c0.041-0.248,0.035-0.502-0.019-0.747
						c-0.054-0.244-0.154-0.473-0.293-0.672c-0.422-0.529-1.129-0.569-1.758-0.665c-0.628-0.097-1.354-0.358-1.533-1.034
						c-0.13-0.485,0.067-1.078-0.214-1.479c-0.13-0.163-0.298-0.283-0.486-0.346c-0.459-0.231-0.975-0.281-1.464-0.142
						c-0.835,0.301-1.338,1.395-2.21,1.531c-0.132,0.027-0.268,0.009-0.391-0.051c-0.329-0.182-0.342-0.711-0.595-1.008
						c-0.398-0.469-1.152-0.165-1.64-0.514c-0.317-0.228-0.439-0.671-0.529-1.076c-0.171-0.793-0.312-1.621-0.143-2.414
						c0.284-1.355,1.372-2.272,2.067-3.439c0.649-1.076,1.022-2.439,1.985-3.155c0.963-0.715,2.223-0.551,3.321-0.188
						c0.507,0.199,1.027,0.35,1.556,0.452c0.884,0.122,1.773-0.144,2.665-0.179c1.258-0.044,2.494,0.373,3.518,1.187
						c0.231,0.168,0.426,0.389,0.575,0.647c0.148,0.365,0.235,0.758,0.255,1.158c0.105,0.753,0.34,1.476,0.693,2.13
						c0.273,0.511,0.62,0.974,0.868,1.505c0.277,0.52,0.361,1.137,0.235,1.725c-0.084,0.298-0.255,0.567-0.314,0.877
						c-0.146,0.71,0.276,1.388,0.565,2.044c0.278,0.599,0.41,1.267,0.383,1.94c-0.017,0.334-0.095,0.663-0.23,0.963
						c-0.136,0.3-0.325,0.565-0.557,0.781c-0.485,0.379-1.065,0.577-1.658,0.567c-0.718,0.024-1.434-0.098-2.113-0.361
						c-0.251-0.125-0.527-0.179-0.802-0.153c-0.381,0.086-0.332,0.346-0.496,0.66C219.703,138.65,218.855,138.732,218.682,138.187z"
						/>
					<path opacity="0.1" enable-background="new    " d="M214.642,185.18l4.226-3.675l6.643-7.278c0,0-0.895-0.049-2.192-0.111
						c-0.258,0.258-0.423,0.611-0.465,0.994c-0.031,0.888-1.789,0.062-2.714,0.567c-0.924,0.506-5.398,6.893-6.185,6.853
						s-1.408-0.443-1.735,0.177l-0.023,0.039c-0.134,0.169-0.313,0.284-0.511,0.33L214.642,185.18z"/>
					<path fill="#A8A8A8" d="M206.13,184.923l2.123,7.531l0.332,1.182l1.022-0.306l2.228-0.682l9.923-3.031
						c1.247-0.06,2.468-0.421,3.577-1.059c1.877-1.166,4.023-1.686,6.167-1.494c1.311,0.137,2.769-0.491,3.98-2.978
						c0,0,2.749-9.025-4.192-11.609c-6.942-2.584-7.271,1.375-7.271,1.375l-0.095,0.064c-0.255,0.191-1.022,0.79-1.052,1.519
						c-0.031,0.892-1.789,0.063-2.714,0.569c-0.924,0.505-5.416,6.895-6.203,6.85s-1.407-0.443-1.734,0.177l-0.023,0.039
						c-0.243,0.372-0.974,0.458-1.454,0.474c-0.256,0-0.455,0-0.455,0l-0.061,0.02l-0.511,0.168L206.13,184.923z"/>
					<path opacity="0.1" enable-background="new    " d="M206.679,170.297l1.022,0.181l0.426-4.696c0,0-0.467-0.077-1.052-0.228
						C207.228,166.207,206.878,168.74,206.679,170.297z"/>
					<path opacity="0.1" enable-background="new    " d="M233.451,148.359c0,0,3.045-0.983,2.299,8.627
						c-0.746,9.609-6.387,15.684-6.387,15.684s-6.481,3.167-9.396,2.659c-1.67-0.3-3.353-0.506-5.041-0.62
						c-0.918-0.515-1.922-0.813-2.948-0.874c-1.635-0.071-5.074-1.202-5.141-1.565c-0.066-0.364,0.854-5.714,0.46-6.114
						c0,0,4.584,0.21,5.041,0.567c0.457,0.359,1.114,0.105,1.604,0c0.491-0.104,1.998-1.558,4.977-0.283
						c0,0,1.022,0.108,1.408-0.182s1.022-0.073,1.022-0.073c0.253-0.098,0.493-0.232,0.713-0.401c0.097-0.144,0.884,0,0.884,0
						c0.046,0.026,0.098,0.039,0.149,0.039c0.052,0.001,0.104-0.011,0.151-0.036c0.047-0.024,0.089-0.061,0.121-0.105
						c0.033-0.044,0.057-0.098,0.069-0.153c0.102-0.299,0.258-0.571,0.457-0.801c0,0,0.884-5.533,2.555-7.606
						c0,0,0.491-0.474,0.361-1.056C226.678,155.484,229.522,147.194,233.451,148.359z"/>
					<path fill="#454554" d="M233.371,147.621c0,0,3.046-0.983,2.3,8.627c-0.746,9.609-6.387,15.684-6.387,15.684
						s-6.484,3.167-9.397,2.659c-2.912-0.509-5.053-0.62-5.053-0.62c-0.917-0.515-1.92-0.813-2.946-0.874
						c-1.638-0.071-5.074-1.202-5.14-1.565c-0.067-0.364,0.85-5.714,0.457-6.114c0,0,4.583,0.21,5.043,0.567
						c0.46,0.359,1.114,0.102,1.605,0c0.49-0.102,1.997-1.561,4.976-0.283c0,0,1.022,0.108,1.408-0.182s1.022-0.073,1.022-0.073
						c0.252-0.097,0.491-0.232,0.71-0.401c0.097-0.144,0.884,0,0.884,0c0.047,0.026,0.098,0.039,0.15,0.039
						c0.052,0.001,0.104-0.011,0.151-0.036c0.047-0.026,0.088-0.061,0.121-0.105c0.033-0.044,0.056-0.098,0.069-0.153
						c0.104-0.298,0.261-0.57,0.46-0.801c0,0,0.884-5.533,2.554-7.606c0,0,0.494-0.474,0.361-1.056
						C226.586,154.746,229.442,146.456,233.371,147.621z"/>
					<path opacity="0.1" enable-background="new    " d="M209.725,183.728l4.322,5.817c0.018-0.018,0.028-0.029,0.028-0.034
						c0.034-0.108,0.458-1.346,0.361-1.42c-0.097-0.073-0.851-1.893-2.358-2.657c-0.765-0.416-1.407-1.067-1.85-1.875
						L209.725,183.728z"/>
					<path opacity="0.1" enable-background="new    " d="M209.783,193.793l0.472,0.303c0,0,1.096-0.979,2.19-1.964
						c1.093-0.986,2.149-1.949,2.166-1.988c0.031-0.109,0.458-1.347,0.358-1.42c-0.051-0.037-0.276-0.542-0.687-1.136
						c-2.933-0.914-1.065,1.349-0.818,1.451c0,0-3.576-0.908-3.766,3.408C209.673,192.897,209.701,193.35,209.783,193.793z"/>
					<path fill="#454554" d="M213.398,195.633l0.624,0.401l6.318,0.181c0.709,0.479,1.459,0.88,2.238,1.196
						c0.103,0.037,0.209,0.063,0.317,0.08c0.585,0.05,1.173,0.062,1.76,0.037c0.485,0,0.858-0.037,0.858-0.037
						s-0.299-8.861-0.511-9.792c-0.107-0.445-0.638-0.346-1.16-0.124c-0.392,0.177-0.771,0.39-1.131,0.636
						c0,0-2.685,0.283-3.112,0.547c-0.427,0.264-1.635-0.148-2.389,0s-2.095-0.985-2.095-0.985
						c-3.669-1.346-1.604,1.164-1.344,1.271c0,0-3.577-0.908-3.763,3.408C209.821,196.769,213.398,195.633,213.398,195.633z"/>
					<path fill="#565387" d="M222.534,192.203c0.069,1.835,1.354,4.111,2.121,5.316c0.485,0,0.858-0.038,0.858-0.038
						s-0.299-8.86-0.511-9.791c-0.107-0.445-0.638-0.346-1.16-0.124C223.196,188.886,222.478,190.726,222.534,192.203z"/>
					<path opacity="0.1" enable-background="new    " d="M222.534,192.203c0.069,1.835,1.354,4.111,2.121,5.316
						c0.485,0,0.858-0.038,0.858-0.038s-0.299-8.86-0.511-9.791c-0.107-0.445-0.638-0.346-1.16-0.124
						C223.196,188.886,222.478,190.726,222.534,192.203z"/>
					<path fill="#393944" d="M221.453,192.446c0.434,1.77,0.429,3.755,1.124,4.956c0.103,0.036,0.209,0.062,0.317,0.079
						c0.585,0.051,1.173,0.063,1.76,0.038c0.486,0,0.859-0.038,0.859-0.038s-0.299-8.86-0.511-9.791
						c-0.108-0.445-0.639-0.346-1.16-0.124c-0.393,0.177-0.771,0.39-1.132,0.635C222.71,188.2,220.896,190.18,221.453,192.446z"/>
					<path opacity="0.1" enable-background="new    " d="M199.653,174.49c0,0,3.14,1.136,5.8,5.157L199.653,174.49z"/>
					<g opacity="0.1">
						<path opacity="0.1" enable-background="new    " d="M225.157,130.82c0,0.028,0,0.053-0.018,0.079
							c-0.032,0.103-0.068,0.205-0.11,0.304C225.062,131.071,225.104,130.943,225.157,130.82z"/>
						<path opacity="0.1" enable-background="new    " d="M207.399,129.056c0.059-0.255,0.145-0.502,0.255-0.735
							c-0.017,0.062-0.033,0.124-0.048,0.19c-0.166,0.793-0.028,1.621,0.145,2.411c0.09,0.409,0.213,0.852,0.529,1.079
							c0.488,0.346,1.242,0.046,1.641,0.514c0.255,0.283,0.255,0.826,0.595,1.008c0.122,0.06,0.259,0.078,0.391,0.051
							c0.868-0.137,1.374-1.23,2.21-1.531c0.488-0.139,1.004-0.089,1.464,0.142c0.187,0.063,0.355,0.183,0.485,0.346
							c0.278,0.401,0.084,0.994,0.212,1.479c0.181,0.676,0.907,0.943,1.533,1.034s1.336,0.137,1.758,0.665
							c0.139,0.199,0.239,0.428,0.293,0.672c0.053,0.245,0.06,0.5,0.018,0.747c-0.038,0.171-0.038,0.35,0,0.52
							c0.174,0.545,1.022,0.466,1.245,0.034c0.163-0.312,0.112-0.569,0.495-0.662c0.275-0.023,0.551,0.03,0.802,0.157
							c0.681,0.259,1.397,0.378,2.116,0.352c0.593,0.01,1.173-0.189,1.658-0.569c0.212-0.187,0.386-0.421,0.511-0.687
							c-0.111,0.485-0.359,0.917-0.708,1.233c-0.485,0.38-1.065,0.579-1.658,0.569c-0.721,0.021-1.44-0.107-2.12-0.375
							c-0.252-0.127-0.528-0.179-0.803-0.153c-0.38,0.086-0.332,0.346-0.495,0.659c-0.223,0.432-1.071,0.514-1.244-0.031
							c-0.037-0.171-0.037-0.351,0-0.522c0.041-0.248,0.035-0.503-0.019-0.747c-0.054-0.244-0.154-0.474-0.293-0.673
							c-0.422-0.529-1.129-0.567-1.758-0.664c-0.628-0.097-1.354-0.358-1.533-1.034c-0.13-0.485,0.067-1.079-0.214-1.479
							c-0.131-0.163-0.299-0.283-0.486-0.346c-0.459-0.231-0.975-0.282-1.464-0.142c-0.835,0.301-1.341,1.394-2.21,1.53
							c-0.132,0.028-0.268,0.01-0.391-0.051c-0.329-0.182-0.342-0.71-0.595-1.008c-0.398-0.469-1.152-0.164-1.64-0.514
							c-0.317-0.227-0.439-0.67-0.529-1.076C207.371,130.678,207.233,129.849,207.399,129.056z"/>
					</g>
					<path opacity="0.1" enable-background="new    " d="M225.667,158.184c-0.601,0.901-1.278,1.732-1.817,2.684
						c-0.539,0.952-0.904,2.064-0.794,3.178c0.549-0.625,0.799-1.491,1.147-2.272c0.585-1.329,1.461-2.456,2.202-3.692
						c0.141-0.232,1.045-1.581,0.588-1.647C226.615,156.387,225.871,157.877,225.667,158.184z"/>
				</g>
			</g>
		</g>
	</g>
</g>
<rect x="133.125" y="61" fill="#FFFFFF" width="24.373" height="66.375"/>
<line fill="none" stroke="#3F3D56" stroke-miterlimit="10" x1="73.873" y1="125.156" x2="73.873" y2="28.516"/>
<line fill="none" stroke="#393944" stroke-miterlimit="10" x1="203.206" y1="125.172" x2="203.206" y2="28.5"/>
<line fill="none" stroke="#393944" stroke-miterlimit="10" x1="203.206" y1="29" x2="73.873" y2="29"/>
<line fill="none" stroke="#3F3D56" stroke-miterlimit="10" x1="100.04" y1="29" x2="100.04" y2="125"/>
<path fill="none" stroke="#393944" stroke-miterlimit="10" d="M150.873,29c0,11.889,0,23.778,0,35.667"/>
<line fill="none" stroke="#393944" stroke-miterlimit="10" x1="73.873" y1="64.667" x2="203.206" y2="64.667"/>
<line fill="none" stroke="#3F3D56" stroke-miterlimit="10" x1="73.873" y1="95.167" x2="203.206" y2="95.167"/>
<text transform="matrix(1 0 0 1 82.5396 50.4997)" fill="none" stroke="#393944" stroke-miterlimit="10" font-family="'Verdana'" font-size="10">М</text>
<text transform="matrix(1 0 0 1 78.8731 82.4826)" fill="none" stroke="#393944" stroke-miterlimit="10" font-family="'Verdana'" font-size="10">МК</text>
<text transform="matrix(1 0 0 1 78.5396 113.3337)" fill="none" stroke="#393944" stroke-miterlimit="10" font-family="'Verdana'" font-size="10">МД</text>
<rect x="133.873" y="36" fill="none" stroke="#393944" stroke-miterlimit="10" width="11.833" height="11.833"/>
<ellipse fill="none" stroke="#393944" stroke-miterlimit="10" cx="122.928" cy="73.883" rx="4.786" ry="2.872"/>
<rect x="155.873" y="36" fill="none" stroke="#393944" stroke-miterlimit="10" width="11.833" height="11.833"/>
<g>
	<path fill="none" stroke="#393944" stroke-miterlimit="10" d="M115.915,81.25l2-3.368c0.281-0.473,0.67-0.439,0.864,0.076
		l3.823,10.107c0.195,0.514,0.506,0.512,0.691-0.006l3.617-10.095c0.186-0.518,0.562-0.551,0.836-0.075l1.626,2.826"/>
</g>
<line fill="none" stroke="#393944" stroke-miterlimit="10" x1="135.873" y1="78.384" x2="144.873" y2="78.384"/>
<line fill="none" stroke="#393944" stroke-miterlimit="10" x1="136.081" y1="81.483" x2="144.873" y2="81.483"/>
<polyline fill="none" stroke="#393944" stroke-miterlimit="10" points="142.54,74.208 148.29,79.959 142.54,85.333 "/>
<ellipse fill="none" stroke="#393944" stroke-miterlimit="10" cx="122.928" cy="43.883" rx="4.786" ry="2.872"/>
<g>
	<path fill="none" stroke="#393944" stroke-miterlimit="10" d="M115.915,51.25l2-3.368c0.281-0.473,0.67-0.439,0.864,0.076
		l3.823,10.107c0.195,0.514,0.506,0.512,0.691-0.006l3.617-10.095c0.186-0.518,0.562-0.551,0.836-0.075l1.626,2.826"/>
</g>
<line fill="none" stroke="#393944" stroke-miterlimit="10" x1="73.873" y1="124.667" x2="203.206" y2="124.667"/>
<ellipse fill="none" stroke="#393944" stroke-miterlimit="10" cx="179.928" cy="73.883" rx="4.786" ry="2.872"/>
<g>
	<path fill="none" stroke="#393944" stroke-miterlimit="10" d="M172.915,81.25l2-3.368c0.281-0.473,0.67-0.439,0.864,0.076
		l3.823,10.107c0.195,0.514,0.506,0.512,0.691-0.006l3.617-10.095c0.186-0.518,0.562-0.551,0.836-0.075l1.626,2.826"/>
</g>
<ellipse fill="none" stroke="#393944" stroke-miterlimit="10" cx="138.928" cy="102.883" rx="4.786" ry="2.872"/>
<g>
	<path fill="none" stroke="#393944" stroke-miterlimit="10" d="M131.915,110.25l2-3.368c0.281-0.473,0.67-0.439,0.864,0.076
		l3.823,10.107c0.195,0.514,0.506,0.512,0.691-0.006l3.617-10.095c0.186-0.518,0.562-0.551,0.836-0.075l1.626,2.826"/>
</g>
<ellipse fill="none" stroke="#393944" stroke-miterlimit="10" cx="179.928" cy="42.883" rx="4.786" ry="2.872"/>
<g>
	<path fill="none" stroke="#393944" stroke-miterlimit="10" d="M172.915,50.25l2-3.368c0.281-0.473,0.67-0.439,0.864,0.076
		l3.823,10.107c0.195,0.514,0.506,0.512,0.691-0.006l3.617-10.095c0.186-0.518,0.562-0.551,0.836-0.075l1.626,2.826"/>
</g>
<line fill="none" stroke="#393944" stroke-miterlimit="10" x1="166.498" y1="81.544" x2="157.498" y2="81.544"/>
<line fill="none" stroke="#393944" stroke-miterlimit="10" x1="166.29" y1="78.446" x2="157.498" y2="78.446"/>
<polyline fill="none" stroke="#393944" stroke-miterlimit="10" points="159.831,85.72 154.081,79.97 159.831,74.595 "/>
<path fill="none" d="M121.188,107.438"/>
<g>
	<path fill="none" stroke="#393944" stroke-miterlimit="10" d="M124.68,116.536l4.482,2.832c0.465,0.294,0.926,0.091,1.026-0.45
		l0.86-4.698"/>
</g>
<line fill="none" stroke="#393944" stroke-miterlimit="10" x1="129.898" y1="119.664" x2="125.246" y2="109.363"/>
<ellipse fill="none" stroke="#393944" stroke-miterlimit="10" cx="162.831" cy="102.883" rx="4.796" ry="2.872"/>
<g>
	<path fill="none" stroke="#393944" stroke-miterlimit="10" d="M169.86,110.25l-2.005-3.368c-0.281-0.473-0.671-0.439-0.866,0.076
		l-3.832,10.108c-0.195,0.514-0.507,0.512-0.692-0.006l-3.625-10.095c-0.186-0.518-0.563-0.551-0.838-0.075l-1.63,2.826"/>
</g>
<g>
	<path fill="none" stroke="#393944" stroke-miterlimit="10" d="M177.11,116.536l-4.493,2.833c-0.465,0.293-0.927,0.091-1.026-0.45
		l-0.862-4.698"/>
</g>
<line fill="none" stroke="#393944" stroke-miterlimit="10" x1="171.881" y1="119.664" x2="176.543" y2="109.363"/>
</svg>
