<?xml version="1.0" encoding="utf-8"?>
<!-- Generator: Adobe Illustrator 17.0.0, SVG Export Plug-In . SVG Version: 6.00 Build 0)  -->
<!DOCTYPE svg PUBLIC "-//W3C//DTD SVG 1.1//EN" "http://www.w3.org/Graphics/SVG/1.1/DTD/svg11.dtd">
<svg version="1.1" id="ea878d0f-c60d-4637-874b-f3bcf7dfa137"
	 xmlns="http://www.w3.org/2000/svg" xmlns:xlink="http://www.w3.org/1999/xlink" x="0px" y="0px" width="778px" height="555px"
	 viewBox="0 0 778 555" enable-background="new 0 0 778 555" xml:space="preserve">
<title>annotation</title>
<path fill="#D0CDE1" d="M634.322,522.744c0.883,20.196-581.731,22.046-592.828,0.001C40.611,502.551,623.224,500.7,634.322,522.744z
	"/>
<rect x="171.066" y="39.05" fill="#393944" width="91.158" height="84.172"/>
<rect x="309.718" y="62.749" fill="#454554" width="261.218" height="231.269"/>
<rect x="388.237" y="101.158" fill="#FFFFFF" width="104.181" height="13.893"/>
<rect x="462.925" y="133.846" fill="#FFFFFF" width="72.39" height="8.172"/>
<rect x="404.707" y="187.782" fill="#FFFFFF" width="72.39" height="8.172"/>
<rect x="346.488" y="133.846" fill="#FF825C" width="72.39" height="8.172"/>
<rect x="184.088" y="86.448" fill="#FF825C" width="65.879" height="3.783"/>
<rect x="184.854" y="94.772" fill="#FF825C" width="65.879" height="3.783"/>
<rect x="184.088" y="103.095" fill="#FF825C" width="65.879" height="3.783"/>
<rect x="184.088" y="58.663" fill="#FF825C" width="65.879" height="3.783"/>
<rect x="184.854" y="66.987" fill="#FF825C" width="65.879" height="3.783"/>
<rect x="184.088" y="75.31" fill="#FF825C" width="65.879" height="3.783"/>
<rect x="145.02" y="66.835" fill="#454554" width="91.158" height="84.172"/>
<rect x="158.043" y="114.233" fill="#FF825C" width="65.879" height="3.783"/>
<rect x="158.809" y="122.557" fill="#FF825C" width="65.879" height="3.783"/>
<rect x="158.043" y="130.88" fill="#FF825C" width="65.879" height="3.783"/>
<rect x="158.043" y="86.448" fill="#FF825C" width="65.879" height="3.783"/>
<rect x="158.809" y="94.772" fill="#FF825C" width="65.879" height="3.783"/>
<rect x="158.043" y="103.095" fill="#FF825C" width="65.879" height="3.783"/>
<rect x="685.842" y="99.524" fill="#454554" width="91.158" height="84.172"/>
<rect x="698.864" y="146.922" fill="#FF825C" width="65.879" height="3.783"/>
<rect x="699.63" y="155.245" fill="#FF825C" width="65.879" height="3.783"/>
<rect x="698.864" y="163.568" fill="#FF825C" width="65.879" height="3.783"/>
<rect x="698.864" y="119.137" fill="#FF825C" width="65.879" height="3.783"/>
<rect x="699.63" y="127.46" fill="#FF825C" width="65.879" height="3.783"/>
<rect x="698.864" y="135.783" fill="#FF825C" width="65.879" height="3.783"/>
<rect x="345.339" y="160.814" fill="#FF825C" width="189.977" height="8.172"/>
<rect x="492.801" y="187.782" fill="#FF825C" width="42.515" height="8.172"/>
<rect x="492.801" y="241.718" fill="#FFFFFF" width="42.515" height="8.172"/>
<rect x="346.488" y="187.782" fill="#FFFFFF" width="42.515" height="8.172"/>
<rect x="345.339" y="214.75" fill="#FFFFFF" width="189.977" height="8.172"/>
<rect x="345.339" y="241.718" fill="#FFFFFF" width="111.458" height="8.172"/>
<polygon fill="#393944" points="280.996,23.524 199.409,23.524 199.409,21.889 281.754,21.889 364.715,137.436 363.498,138.429 "/>
<polygon fill="#393944" points="529.839,191.247 651.853,79.911 734.102,79.911 734.102,81.545 652.419,81.545 530.835,192.489 "/>
<ellipse fill="#FF825C" cx="199.409" cy="21.889" rx="12.257" ry="13.075"/>
<ellipse fill="#FF825C" cx="734.102" cy="80.728" rx="12.257" ry="13.075"/>
<path fill="#D0CDE1" d="M152.503,399.901C79.584,439.085,98.759,507.91,98.759,507.91L152.503,399.901z"/>
<path fill="#D0CDE1" d="M3.845,436.093c84.923,4.258,92.524,72.184,92.524,72.184L3.845,436.093z"/>
<polygon fill="#FECEB8" points="412.923,517.846 435.386,527.714 441.992,495.998 422.172,497.407 "/>
<polygon fill="#393944" points="212.077,481.196 253.039,503.046 295.982,443.137 359.408,488.949 365.354,479.082 313.16,412.125 
	286.733,390.276 240.486,438.202 "/>
<path fill="#FECEB8" d="M255.681,445.956l25.767-2.114l21.802-5.639c21.142-0.705,21.142,19.03,21.142,19.03l-22.463-4.934
	l-11.232,4.934l-48.23,17.62l-5.946-4.934L255.681,445.956z"/>
<polygon fill="#393944" points="224.629,479.082 318.446,445.956 425.476,495.998 422.172,522.78 305.232,500.226 225.29,531.943 
	208.112,531.943 193.577,522.075 "/>
<path fill="#FECEB8" d="M276.162,386.047l1.321-11.982l-13.874-23.259c0,0-23.124-12.687-10.571-20.44
	c12.553-7.753,20.481,11.277,20.481,11.277l27.749,38.765l0,0c2.402,5.125,1.691,11.287-1.804,15.637l-2.16,2.688l-9.91-2.114
	L276.162,386.047z"/>
<ellipse fill="#FECEB8" cx="224.629" cy="323.318" rx="25.766" ry="27.488"/>
<path fill="#FECEB8" d="M205.139,336.357c0,0.705-9.25,24.668-9.25,24.668l28.409,12.687l11.892-30.307
	C236.191,343.405,205.139,335.652,205.139,336.357z"/>
<path fill="#454554" d="M167.15,378.294l23.784-21.144l6.911-1.205l16.874,9.663l11.734,2.622l19.318-1.917l3.303-1.41l10.571,6.343
	l2.643-1.41l3.303,2.819l11.232,1.41l11.232,16.211l2.643,7.753l-12.553,2.114l-37.659,22.554l-9.91,52.861l-2.828,5.032
	l-9.065,16.112l-10.571,18.325l-14.535,11.277l-7.267,9.867l-9.91-2.819l-9.249-45.108l-1.929-6.329
	c-4.81-15.776-7.261-32.261-7.261-48.851C157.958,414.371,161.07,395.826,167.15,378.294z"/>
<path fill="#393944" d="M427.204,523.232c0,0,8.517,18.674,17.029,24.174s23.537-28.996,23.537-28.996s16.847-7.444,16.354-38.413
	c-0.493-30.969-22.954,4.643-22.954,4.643l-15.566,5.503c0,0-10.615,4.98-13.114,6.229s3.418,11.948,3.418,11.948
	C442.553,514.429,427.204,523.232,427.204,523.232z"/>
<polygon opacity="0.1" enable-background="new    " points="216.04,393.095 236.521,433.269 238.503,433.269 230.575,475.558 
	227.747,480.59 190.273,444.546 165.168,426.926 "/>
<polygon fill="#454554" points="165.168,422.697 190.273,440.317 230.575,479.082 258.984,445.956 248.413,443.137 243.789,429.04 
	236.521,429.04 216.04,388.866 "/>
<path fill="#393944" d="M244.984,305.354c-2.346-0.961-4.516-2.5-6.841-3.535c2.573,5.676-0.412,5.957-5.134,7.205
	c-6.87,1.815-11.562,7.809-16.719,12.665l-4.435,4.176c-0.82,0.772-1.641,1.546-2.391,2.395c-4.413,4.996-5.951,12.06-7.32,18.767
	c-4.713-11.263-16.353-30.535-15.043-30.411c-0.995-1.827-1.15-4.561-0.232-4.101c-0.65-1.276-0.271-3.566,0.568-3.435
	c-1.324-2.475,0.187-5.054,0.58-3.457c0.849-4.799,3.25-11.587,3.601-10.183c1.045-1.703,3.606-3.382,3.841-2.519
	c1.141-1.171,2.348-2.266,3.614-3.28c17.205-13.781,41.625-10.074,54.544,8.281l-5.159,0.258c0.015,0.023,0.031,0.047,0.046,0.071
	c1.207,1.901,0.74,4.486-1.042,5.774l-2.792-1.146C244.624,303.673,244.952,304.561,244.984,305.354z"/>
<ellipse fill="#FFB9B9" cx="211.746" cy="326.49" rx="4.625" ry="4.934"/>
</svg>
