<?xml version="1.0" encoding="utf-8"?>
<!-- Generator: Adobe Illustrator 17.0.0, SVG Export Plug-In . SVG Version: 6.00 Build 0)  -->
<!DOCTYPE svg PUBLIC "-//W3C//DTD SVG 1.1//EN" "http://www.w3.org/Graphics/SVG/1.1/DTD/svg11.dtd">
<svg version="1.1" id="_x34_6e57871-9956-42ae-80ad-44debb9ce8bb"
	 xmlns="http://www.w3.org/2000/svg" xmlns:xlink="http://www.w3.org/1999/xlink" x="0px" y="0px" width="778px" height="555px"
	 viewBox="0 0 778 555" enable-background="new 0 0 778 555" xml:space="preserve">
<title>Meditation</title>
<path opacity="0.4" fill="#43D29D" d="M761.48,428.5h-745c-9.12,0-16.51,4.59-16.51,10.25v106c0,5.66,7.39,10.25,16.51,10.25h745
	c9.12,0,16.52-4.59,16.52-10.25v-106C778,433.09,770.6,428.5,761.48,428.5z"/>
<path opacity="0.4" fill="#43D29D" enable-background="new    " d="M761.48,428.5h-745c-9.12,0-16.51,4.59-16.51,10.25v106
	c0,5.66,7.39,10.25,16.51,10.25h745c9.12,0,16.52-4.59,16.52-10.25v-106C778,433.09,770.6,428.5,761.48,428.5z"/>
<path opacity="0.4" fill="#43D29D" d="M14.09,428.5h749.82c7.782,0,14.09,6.308,14.09,14.09v90.94c0,7.782-6.308,14.09-14.09,14.09
	H14.09C6.308,547.62,0,541.312,0,533.53v-90.94C0,434.808,6.308,428.5,14.09,428.5z"/>
<rect y="444.93" opacity="0.4" fill="#43D29D" enable-background="new    " width="778" height="10.27"/>
<rect y="468.89" opacity="0.4" fill="#43D29D" enable-background="new    " width="778" height="10.27"/>
<rect y="492.85" opacity="0.4" fill="#43D29D" enable-background="new    " width="778" height="10.27"/>
<rect y="516.81" opacity="0.4" fill="#43D29D" enable-background="new    " width="778" height="10.27"/>
<g opacity="0.5">
	<path fill="#F55F44" d="M676.14,213.077c-4.406-3.153-10.46-2.591-14.21,1.32c-4.075,4.437-3.88,11.311,0.44,15.51l13.58,13.5
		c0.886,0.886,2.324,0.886,3.21,0l13.5-13.58c4.297-4.221,4.457-11.094,0.36-15.51c-3.763-3.891-9.815-4.424-14.2-1.25
		C678.021,213.644,676.943,213.648,676.14,213.077z"/>
	<path fill="none" stroke="#F55F44" stroke-miterlimit="10" d="M677.65,242.877c-0.316,0.59-0.316,1.3,0,1.89
		c0.192,0.284,0.369,0.578,0.53,0.88c0.35,0.87-0.26,1.82-0.88,2.53c-0.39,0.45-0.82,1.05-0.57,1.6
		c0.123,0.198,0.279,0.374,0.46,0.52c1.33,1.279,1.371,3.393,0.093,4.723c-0.378,0.393-0.845,0.687-1.363,0.857"/>
</g>
<g opacity="0.5">
	<path fill="#F55F44" d="M96.14,287.077c-4.406-3.153-10.46-2.591-14.21,1.32c-4.075,4.437-3.88,11.311,0.44,15.51l13.58,13.5
		c0.886,0.886,2.324,0.886,3.21,0l13.5-13.58c4.297-4.221,4.457-11.094,0.36-15.51c-3.763-3.891-9.815-4.424-14.2-1.25
		C98.021,287.644,96.943,287.648,96.14,287.077z"/>
	<path fill="none" stroke="#F55F44" stroke-miterlimit="10" d="M97.65,316.877c-0.316,0.59-0.316,1.3,0,1.89
		c0.192,0.284,0.369,0.578,0.53,0.88c0.35,0.87-0.26,1.82-0.88,2.53c-0.39,0.45-0.82,1.05-0.57,1.6
		c0.123,0.198,0.278,0.374,0.46,0.52c1.33,1.279,1.371,3.393,0.093,4.723c-0.378,0.393-0.845,0.687-1.363,0.857"/>
</g>
<g opacity="0.5">
	<path fill="#F55F44" d="M476.14,6.077c-4.406-3.153-10.46-2.591-14.21,1.32c-4.075,4.437-3.88,11.311,0.44,15.51l13.58,13.5
		c0.886,0.886,2.324,0.886,3.21,0l13.5-13.58c4.297-4.221,4.457-11.094,0.36-15.51c-3.763-3.891-9.815-4.424-14.2-1.25
		C478.021,6.644,476.943,6.648,476.14,6.077z"/>
	<path fill="none" stroke="#F55F44" stroke-miterlimit="10" d="M477.65,35.877c-0.316,0.59-0.316,1.3,0,1.89
		c0.192,0.284,0.369,0.578,0.53,0.88c0.35,0.87-0.26,1.82-0.88,2.53c-0.39,0.45-0.82,1-0.57,1.6c0.123,0.198,0.279,0.374,0.46,0.52
		c1.33,1.278,1.371,3.393,0.093,4.723c-0.378,0.393-0.845,0.687-1.363,0.857"/>
</g>
<g opacity="0.5">
	<rect x="628.581" y="115.328" fill="#47E6B1" width="3" height="17"/>
	<rect x="621.581" y="122.328" fill="#47E6B1" width="17" height="3"/>
</g>
<g opacity="0.5">
	<rect x="223.5" y="350" fill="#47E6B1" width="3" height="17"/>
	<rect x="216.5" y="357" fill="#47E6B1" width="17" height="3"/>
</g>
<g opacity="0.5">
	<rect x="144" y="124.177" fill="#47E6B1" width="3" height="17"/>
	<rect x="137" y="131.177" fill="#47E6B1" width="17" height="3"/>
</g>
<g opacity="0.5">
	<rect x="676.783" y="358.5" fill="#47E6B1" width="3" height="17"/>
	<rect x="669.782" y="365.5" fill="#47E6B1" width="17" height="3"/>
</g>
<path opacity="0.5" fill="#4D8AF0" enable-background="new    " d="M564.09,177.432c-1.691-0.764-2.548-2.667-2-4.44
	c0.051-0.131,0.078-0.27,0.08-0.41l0,0c0.094-1.012-0.65-1.908-1.662-2.002c-0.665-0.062-1.311,0.241-1.688,0.792l0,0
	c-0.078,0.113-0.145,0.234-0.2,0.36c-0.764,1.691-2.667,2.548-4.44,2c-0.133-0.042-0.271-0.069-0.41-0.08l0,0
	c-1.014-0.065-1.889,0.704-1.955,1.718c-0.04,0.621,0.236,1.22,0.735,1.592l0,0c0.112,0.08,0.233,0.147,0.36,0.2
	c1.694,0.761,2.553,2.667,2,4.44c-0.041,0.134-0.068,0.271-0.08,0.41l0,0c-0.065,1.014,0.704,1.889,1.718,1.955
	c0.621,0.04,1.22-0.236,1.592-0.735l0,0c0.082-0.111,0.149-0.232,0.2-0.36c0.75-1.712,2.662-2.592,4.45-2.05
	c0.13,0.042,0.264,0.069,0.4,0.08l0,0c1.014,0.065,1.889-0.704,1.955-1.718c0.04-0.621-0.236-1.22-0.735-1.592l0,0
	C564.31,177.526,564.202,177.473,564.09,177.432z"/>
<path opacity="0.5" fill="#4D8AF0" enable-background="new    " d="M199.09,227.787c-1.691-0.764-2.548-2.667-2-4.44
	c0.051-0.131,0.078-0.27,0.08-0.41l0,0c0.094-1.012-0.65-1.908-1.662-2.002c-0.665-0.062-1.31,0.241-1.688,0.792l0,0
	c-0.078,0.113-0.145,0.234-0.2,0.36c-0.764,1.691-2.667,2.548-4.44,2c-0.133-0.042-0.271-0.069-0.41-0.08l0,0
	c-1.014-0.065-1.889,0.704-1.955,1.718c-0.04,0.621,0.236,1.22,0.735,1.592l0,0c0.112,0.08,0.233,0.147,0.36,0.2
	c1.714,0.743,2.596,2.654,2.05,4.44c-0.041,0.134-0.068,0.271-0.08,0.41l0,0c-0.065,1.014,0.704,1.889,1.718,1.955
	c0.621,0.04,1.22-0.236,1.592-0.735l0,0c0.082-0.111,0.149-0.232,0.2-0.36c0.75-1.712,2.662-2.592,4.45-2.05
	c0.13,0.042,0.264,0.069,0.4,0.08l0,0c1.014,0.065,1.889-0.704,1.955-1.718c0.04-0.621-0.236-1.22-0.735-1.592l0,0
	C199.344,227.878,199.22,227.824,199.09,227.787z"/>
<path opacity="0.5" fill="#4D8AF0" enable-background="new    " d="M343.09,32.787c-1.691-0.764-2.548-2.667-2-4.44
	c0.051-0.131,0.078-0.27,0.08-0.41l0,0c0.094-1.012-0.65-1.908-1.662-2.002c-0.665-0.062-1.311,0.241-1.688,0.792l0,0
	c-0.078,0.113-0.145,0.234-0.2,0.36c-0.746,1.71-2.654,2.591-4.44,2.05c-0.133-0.042-0.271-0.069-0.41-0.08l0,0
	c-1.014-0.065-1.889,0.704-1.955,1.718c-0.04,0.621,0.236,1.22,0.735,1.592l0,0c0.112,0.08,0.233,0.147,0.36,0.2
	c1.714,0.743,2.596,2.654,2.05,4.44c-0.041,0.133-0.068,0.271-0.08,0.41l0,0c-0.065,1.014,0.704,1.889,1.718,1.955
	c0.621,0.04,1.22-0.236,1.592-0.735l0,0c0.082-0.111,0.149-0.232,0.2-0.36c0.75-1.712,2.662-2.592,4.45-2.05
	c0.13,0.042,0.264,0.069,0.4,0.08l0,0c1.014,0.065,1.889-0.704,1.955-1.718c0.04-0.621-0.236-1.22-0.735-1.592l0,0
	C343.347,32.91,343.222,32.84,343.09,32.787z"/>
<linearGradient id="SVGID_1_" gradientUnits="userSpaceOnUse" x1="576.3221" y1="650.3299" x2="576.3221" y2="217.2205" gradientTransform="matrix(1 0 0 1 -177.5 -148.3799)">
	<stop  offset="0" style="stop-color:#808080;stop-opacity:0.25"/>
	<stop  offset="0.54" style="stop-color:#808080;stop-opacity:0.12"/>
	<stop  offset="1" style="stop-color:#808080;stop-opacity:0.1"/>
</linearGradient>
<path fill="url(#SVGID_1_)" d="M565.48,406.05l-48.66-37.37c0,0-3.92-15.56-5.49-26.46s-3.93-57.6-3.93-57.6
	c1.118-4.043,1.858-8.18,2.21-12.36c0.48-0.1,1-0.22,1.45-0.35c7.378-1.876,13.448-7.108,16.39-14.13c5-12.44-1.46-27.14-9.64-37
	s-18.48-17.78-23.86-30c-6.64-15.05-4.37-33.26-7.76-49.74c-0.324-2.308-1.18-4.509-2.5-6.43c-2.11-2.61-5.4-3.17-8.33-4.21
	c-9.28-3.3-16.24-12.31-21.67-21.72c-8.79-15.25-17.89-38.45-36-39.77c-6.73-0.49-13.75,1.78-20.56,1.76
	c-10.55,0-21,0.13-31.46,1.58c-3.74,0.51-7.61,1.21-10.73,3.67c-10.71,8.48-5.86,30.87-16.18,40c-3.07,2.7-7,3.68-10.47,5.54
	c-13.08,7-18.89,25.67-18.12,42.46c0.37,7.88,2,16.07,6.65,21.82c3.69,4.6,8.93,7.24,12.37,12.1c5.53,7.82,4.78,18.21,4.18,28.77
	c-7.4,3.1-13.34,6.66-15.21,10.49c-6.34,12.87-5.52,56.87-5.52,56.87s2.35,72-15.71,81l-67.52,46.7c0,0-47.9-41.64-59.68-17.12
	c-8.05,16.77,21.35,26.26,40.75,30.58c-12.23,8.68-19,24.72-13.27,35.58c9,17.13,34.16,28.8,34.16,28.8s95.95,4.63,140.3-5.31h0.73
	c18.83,3.41,45.85,7,67.52,4.84c0.42,1,0.71,1.64,0.71,1.64s139,11.68,164.11-35.8c12.88-24.36-0.56-35.6-16.72-40.78
	c18.09-1.44,38.69-6.5,41.06-21.89C633.4,374.13,565.48,406.05,565.48,406.05z M551.48,420.94c-25.44,9.26-46.08,9.78-57.08,9.09
	c-5.4-11.78-27.92-62.79-28.51-96.94c0.15-7.62,1.5-14.28,4.55-19.28c6.54-10.77,8.48-19.22,8.26-25.63c0-0.47,0-0.94,0-1.4
	c0.032-1.958-0.156-3.914-0.56-5.83c1.076,2.641,1.394,5.529,0.92,8.34c-2.35,12.06,3.93,90.29,3.93,90.29s5.1,17.52,15.7,22.57
	L551.48,420.94z M302.4,415.39l24.42-15.57c0,0,11.39-5.45,12.57-18.68l8.05-63.23c0.544,2.71,1.263,5.382,2.15,8
	c1.42,4.15,2,10.23,2.12,17.47c-0.31,35.29-12.32,93.84-12.32,93.84h0.14c0,0.17-0.06,0.31-0.08,0.42l-0.85,0.05
	c-19.75-0.6-65.78-2.32-91.54-5.89L302.4,415.39z M259.82,452.24v0.12h-6L259.82,452.24z"/>
<path fill="#965D7B" d="M451.82,115.03c5.24,9.18,12,18,21,21.17c2.83,1,6,1.57,8,4.12c1.282,1.875,2.114,4.021,2.43,6.27
	c3.27,16.06,1.08,33.81,7.5,48.5c5.2,11.89,15.15,19.63,23.06,29.22c7.91,9.59,14.11,23.93,9.32,36.05
	c-2.827,6.827-8.696,11.93-15.85,13.78c-6.62,1.8-13.53,1.05-20.25-0.14c-8.86-1.57-17.88-4-25.26-10
	c-12.77-10.38-18.17-29-24.85-45.57c-3.14-7.76-7.31-15.89-14.21-18.66c-7.9-3.18-16.79,2.13-21.92,9.92s-7.4,17.58-9.89,27
	c-2.8,10.64-6.34,21.68-13.71,28.64c-6.521,6.361-16.176,8.289-24.64,4.92c-8.2-3.41-14.68-12.06-16.57-22.09
	c-2.9-15.45,4.06-34-4.49-46.22c-3.32-4.73-8.39-7.31-11.95-11.79c-4.45-5.61-6.07-13.6-6.42-21.27
	c-0.75-16.38,4.86-34.63,17.51-41.41c3.38-1.81,7.15-2.76,10.12-5.4c10-8.89,5.28-30.72,15.63-39c3-2.41,6.76-3.08,10.38-3.59
	c10.14-1.4,20.21-1.56,30.4-1.53c6.59,0,13.38-2.2,19.88-1.72C434.54,77.54,443.33,100.16,451.82,115.03z"/>
<polygon fill="#1A2E53" points="264.1,446.09 267.93,491.46 535.82,489.86 530.71,440.33 440.14,429.79 281.32,439.38 "/>
<polygon opacity="0.05" fill="#1A2E53" enable-background="new    " points="264.1,446.09 267.93,491.46 535.82,489.86 
	530.71,440.33 440.14,429.79 281.32,439.38 "/>
<path fill="#F7C4A7" d="M440.37,477.79l-89.18,8.35c0,0,61.1,15.56,96.77,8L440.37,477.79z"/>
<path opacity="0.1" enable-background="new    " d="M440.37,477.79l-89.18,8.35c0,0,61.1,15.56,96.77,8L440.37,477.79z"/>
<path fill="#F7C4A7" d="M372.44,158.26c0,0,17.46,45.92-8.35,66.41s-4.55,77.8-4.55,77.8l99.43-4.56c0,0,9.86-64.51,4.55-78.17
	c0,0-23.53,6.83-28.84-7.59s-9.11-53.89-9.11-53.89L372.44,158.26z"/>
<path fill="#114471" d="M350.67,436.05c0,0-83.87-1.9-108.53-8s-45.92,23.18-37.19,39.92s33,28.08,33,28.08s124.86,6.07,151.8-11
	c0,0,10.25-29.22,0-34.91H274.59l81-1.9L350.67,436.05z"/>
<path fill="#114471" d="M482.87,427.32c0,0,28.09,6.07,66.79-9.11c0,0,72.49-2.27,48.2,44s-158.63,34.92-158.63,34.92
	s-8-17.08,0-21.63s77.42-33.78,99.05-32.26l-60,11.76L482.87,427.32z"/>
<path opacity="0.1" enable-background="new    " d="M429.01,180.35c-1.45-10.81-2.3-19.62-2.3-19.62h-53.13
	c2.454,6.958,4.157,14.159,5.08,21.48C393.968,192.928,414.534,192.169,429.01,180.35L429.01,180.35z"/>
<circle fill="#F7C4A7" cx="401.47" cy="145.55" r="41.74"/>
<path fill="#F7C4A7" d="M376.99,218.22c0,0-50.09,9.49-56.16,22s-5.31,55.41-5.31,55.41s2.27,70.2-15.18,78.93l-65.28,45.54
	c0,0-46.29-40.6-57.68-16.7c-11.39,23.9,54.65,32.64,54.65,32.64l73.62-22l23.53-15.18c0,0,11-5.31,12.14-18.22l9.87-78.17
	l39.47-11.39h63.75l8.54-24.38c0,0,15.75,12.62,13.47,24.38s3.8,88,3.8,88s4.93,17.07,15.18,22l59.2,21.25
	c0,0,62.61,6.07,66.79-21.25s-61.48,3.89-61.48,3.89l-47.09-36.47c0,0-3.79-15.18-5.31-25.81s-3.79-56.16-3.79-56.16
	s14.42-47.82-27.33-56.16l-53.89-16.7L376.99,218.22z"/>
<path opacity="0.1" enable-background="new    " d="M343.41,227.9l7.78,51.42c0,0-8,23.91,0,47.44s-9.87,111.21-9.87,111.21
	s93.74,30,151-4.56c0,0-42.12-88.8-24.29-118.4s0.3-41.18,0.3-41.18l2.74-54.45l-12.9-3.8l-7.59,53.89c0,0-52.37,36.43-91.08,4.56
	l-8.35-58.45L343.41,227.9z"/>
<path opacity="0.07" fill="#FFFFFF" enable-background="new    " d="M397.55,288.97c-8.406-13.423-25.631-18.266-39.8-11.19
	C370.46,287.33,384.48,289.88,397.55,288.97z"/>
<path opacity="0.07" fill="#FFFFFF" enable-background="new    " d="M419.06,283.32c8.388-13.421,25.604-18.266,39.76-11.19
	C446.14,281.64,432.13,284.18,419.06,283.32z"/>
<path opacity="0.1" enable-background="new    " d="M343.41,227.9l7.78,48.76c0,0-8,23.91,0,47.44s-9.87,111.19-9.87,111.19
	s93.74,30,151-4.55c0,0-42.12-88.8-24.29-118.4s0.3-41.18,0.3-41.18l2.74-54.46l-12.9-3.79l-7.59,53.89c0,0-52.37,36.43-91.08,4.55
	l-8.35-58.44L343.41,227.9z"/>
<path fill="#FF7F50" d="M343.03,227.52l8.16,49.9c0,0-8,23.91,0,47.44s-9.87,111.19-9.87,111.19s93.74,30,151-4.55
	c0,0-42.12-88.81-24.29-118.41s0.3-41.17,0.3-41.17l2.74-54.46l-12.9-3.79l-7.59,53.89c0,0-52.37,36.43-91.08,4.55l-8.35-58.44
	L343.03,227.52z"/>
<path fill="#F7C4A7" d="M381.55,454.64l19.73-2.67c0,0,22.77-29.22,39.09-6.83c0,0,6.83,14.42,15.18,17.07
	c5.71,1.729,11.548,3,17.46,3.8l-33.78,9.49c0,0-14.8,8.73-30.36,6.45c-9.159-1.401-18.52-0.619-27.32,2.28V454.64z"/>
<path opacity="0.1" enable-background="new    " d="M359.73,330.74c0,0,35.67,5.31,41.74-4.17"/>
<path opacity="0.1" enable-background="new    " d="M427.28,324.67c0,0,6.83,6.83,34.15,1.9"/>
<path opacity="0.1" enable-background="new    " d="M357.82,218.79c0,0,26.19,3.8,31.12,1.52"/>
<path opacity="0.1" enable-background="new    " d="M415.51,218.79c0,0,26.19,3.8,31.12,1.52"/>
<path opacity="0.1" enable-background="new    " d="M384.39,451.8c0,0,7.22,34,0,35.2s-17.45-5.6-17.45-6.36s4.55-22.39,4.55-22.39
	L384.39,451.8z"/>
<path fill="#1A2E53" d="M383.64,451.8c0,0,7.21,34,0,35.2s-17.46-5.6-17.46-6.36s4.55-22.39,4.55-22.39L383.64,451.8z"/>
<path opacity="0.1" enable-background="new    " d="M348.41,213.81c-3.19,7.39-4.32,16.11-0.94,23.41
	c2.58,5.57,7.63,10.08,8.6,16.14c1.22,7.61-4.42,15.33-2.31,22.74c0.8,2.83,2.67,5.23,4.57,7.48c5.78,6.83,13.46,13.45,22.38,12.92
	c1.42-13.78-10.5-27.15-6.6-40.44c1.4-4.76,4.68-8.72,6.66-13.26c3.29-7.53,2.82-16.13,1.63-24.26
	c-1.73-11.8-6.11-26.26-17.81-31.78c-5.37-2.54-13-2.73-14.91,4.17c-1.05,3.68,1.4,7.14,1.73,10.74
	C351.82,206.24,350.18,209.71,348.41,213.81z"/>
<path fill="#965D7B" d="M348.41,212.68c-3.19,7.39-4.32,16.1-0.94,23.41c2.58,5.56,7.63,10.08,8.6,16.13
	c1.22,7.61-4.42,15.33-2.31,22.74c0.8,2.83,2.67,5.24,4.57,7.49c5.78,6.82,13.46,13.44,22.38,12.91c1.42-13.78-10.5-27.15-6.6-40.44
	c1.4-4.76,4.68-8.72,6.66-13.26c3.29-7.53,2.82-16.13,1.63-24.26c-1.73-11.8-6.11-26.26-17.81-31.78c-5.37-2.54-13-2.72-14.91,4.17
	c-1.05,3.68,1.4,7.14,1.73,10.74C351.82,205.1,350.18,208.57,348.41,212.68z"/>
<path opacity="0.1" enable-background="new    " d="M351.38,125.06c0,0,55.4-7.59,56.92,3.79s50.48,30,50.48,30l-12.15-30
	l-22.39-37.19c0,0-41-3-42.88,0s-23.54,12.9-23.54,12.9L351.38,125.06z"/>
<path fill="#965D7B" d="M351.38,124.3c0,0,55.4-7.59,56.92,3.79s50.48,30,50.48,30l-12.15-30L424.24,90.9c0,0-41-3-42.88,0
	s-23.54,12.9-23.54,12.9L351.38,124.3z"/>
<path opacity="0.1" enable-background="new    " d="M447.82,205.39c2.695,3.227,4.598,7.038,5.56,11.13c0.92,3.92,1,8,1.83,11.92
	c1.86,8.35,7.39,15.37,13.15,21.69c1.87,2.29,4.153,4.21,6.73,5.66c2.64,1.3,6,1.57,8.44,0c-2.32-1.91-3.58-4.82-4.41-7.7
	c-1.17-4.029-1.69-8.218-1.54-12.41c0.25-7,2.3-14.39-0.61-20.77c-1.68-3.69-4.81-6.49-8-9c-2.219-1.796-4.611-3.367-7.14-4.69
	c-4.72-2.35-10.12-3.38-15.33-3.9C439.72,196.63,445.65,202.83,447.82,205.39z"/>
<path fill="#965D7B" d="M447.82,204.26c2.698,3.221,4.602,7.029,5.56,11.12c0.92,3.92,1,8,1.83,11.92
	c1.86,8.35,7.39,15.37,13.15,21.69c1.87,2.29,4.153,4.21,6.73,5.66c2.64,1.3,6,1.57,8.44,0c-2.32-1.91-3.58-4.81-4.41-7.7
	c-1.17-4.029-1.69-8.218-1.54-12.41c0.25-7,2.3-14.39-0.61-20.77c-1.68-3.68-4.81-6.48-8-9c-2.216-1.803-4.608-3.377-7.14-4.7
	c-4.72-2.35-10.12-3.38-15.33-3.9C439.72,195.49,445.65,201.69,447.82,204.26z"/>
</svg>
