<?xml version="1.0" encoding="utf-8"?>
<!-- Generator: Adobe Illustrator 17.0.0, SVG Export Plug-In . SVG Version: 6.00 Build 0)  -->
<!DOCTYPE svg PUBLIC "-//W3C//DTD SVG 1.1//EN" "http://www.w3.org/Graphics/SVG/1.1/DTD/svg11.dtd">
<svg version="1.1" id="c363684d-d76f-42c9-8b69-a6e1aed634c4"
	 xmlns="http://www.w3.org/2000/svg" xmlns:xlink="http://www.w3.org/1999/xlink" x="0px" y="0px" width="778px" height="555px"
	 viewBox="0 0 778 555" enable-background="new 0 0 778 555" xml:space="preserve">
<title>selfie_time</title>
<ellipse fill="#F2F2F2" cx="390.609" cy="467.697" rx="387.731" ry="87.303"/>
<path fill="#D0CDE1" d="M228.696,265.695c0,0,29.876,27.539,13.008,68.407s28.917,108.828,28.917,108.828s-0.492-0.069-1.401-0.215
	c-61.361-9.992-91.855-74.678-57.734-122.74C224.168,302.111,234.583,281.128,228.696,265.695z"/>
<path fill="none" stroke="#454554" stroke-width="2" stroke-miterlimit="10" d="M228.696,265.695c0,0,16.868,33.757,0,61.297
	c-16.868,27.539-2.893,104.831,41.925,115.938"/>
<path fill="#FF7F50" d="M175.481,377.09c0,0,34.095-5.004,37.197,23.158s65.556,32.066,65.556,32.066l-1.167,0.715
	c-51.564,31.198-100.893,19.876-93.389-21.521C186.404,396.074,186.179,380.602,175.481,377.09z"/>
<path fill="#D0CDE1" d="M175.481,377.09c0,0,34.095-5.004,37.197,23.158s65.556,32.066,65.556,32.066l-1.167,0.715
	c-51.564,31.198-100.893,19.876-93.389-21.521C186.404,396.074,186.179,380.602,175.481,377.09z"/>
<path fill="none" stroke="#454554" stroke-width="2" stroke-miterlimit="10" d="M175.481,377.09c0,0,26.466,5.38,24.289,27.532
	c-2.176,22.151,39.298,48.768,78.463,27.67"/>
<linearGradient id="SVGID_1_" gradientUnits="userSpaceOnUse" x1="476.706" y1="574.8851" x2="476.706" y2="122.7099" gradientTransform="matrix(1 0 0 1 -118.2 -120.35)">
	<stop  offset="0" style="stop-color:#808080;stop-opacity:0.25"/>
	<stop  offset="0.54" style="stop-color:#808080;stop-opacity:0.12"/>
	<stop  offset="1" style="stop-color:#808080;stop-opacity:0.1"/>
</linearGradient>
<path fill="url(#SVGID_1_)" d="M461.251,2.36H255.762c-11.223-0.021-20.339,8.348-20.362,18.693c0,0.003,0,0.005,0,0.008v414.774
	c0.018,10.345,9.131,18.717,20.354,18.7c0.003,0,0.006,0,0.008,0h205.489c11.223,0.021,20.339-8.348,20.362-18.693
	c0-0.003,0-0.005,0-0.008V21.061c-0.018-10.345-9.131-18.717-20.354-18.7C461.256,2.36,461.254,2.36,461.251,2.36z"/>
<path fill="#454554" d="M259.681,5.827h197.643c12.374,0,22.405,9.246,22.405,20.653v405.674c0,11.406-10.031,20.653-22.405,20.653
	H259.681c-12.374,0-22.405-9.247-22.405-20.653V26.479C237.276,15.073,247.307,5.827,259.681,5.827z"/>
<rect x="255.136" y="47.401" fill="#FFFFFF" width="206.74" height="363.815"/>
<ellipse fill="#FFFFFF" cx="334.075" cy="26.618" rx="1.876" ry="1.729"/>
<path fill="#FFFFFF" d="M344.306,24.881h39.682c0.46,0,0.834,0.344,0.834,0.769v1.929c0,0.424-0.373,0.769-0.834,0.769h-39.682
	c-0.461,0-0.834-0.344-0.834-0.769V25.65C343.472,25.225,343.846,24.881,344.306,24.881z"/>
<ellipse fill="#FFFFFF" cx="357.564" cy="428.548" rx="13.158" ry="12.129"/>
<rect x="99.185" y="38.869" fill="#F2F2F2" width="43.359" height="20.753"/>
<rect x="130.037" y="62.696" fill="#F2F2F2" width="43.359" height="20.753"/>
<rect x="46.654" y="40.407" fill="#F2F2F2" width="43.359" height="20.753"/>
<rect x="366.845" y="-28" opacity="0.2" fill="#FF7F50" enable-background="new    " width="43.359" height="20.753"/>
<rect x="314.313" y="-26.463" opacity="0.2" fill="#FF7F50" enable-background="new    " width="43.359" height="20.753"/>
<rect x="185.904" y="86.523" fill="#F2F2F2" width="43.359" height="20.753"/>
<rect x="133.372" y="88.061" fill="#F2F2F2" width="43.359" height="20.753"/>
<rect x="77.506" y="64.234" fill="#F2F2F2" width="43.359" height="20.753"/>
<rect x="592.812" y="121.879" fill="#F2F2F2" width="43.359" height="20.753"/>
<rect x="623.664" y="145.706" fill="#F2F2F2" width="43.359" height="20.753"/>
<rect x="540.281" y="123.417" fill="#F2F2F2" width="43.359" height="20.753"/>
<rect x="626.998" y="171.071" fill="#F2F2F2" width="43.359" height="20.753"/>
<rect x="560.292" y="310.19" fill="#F2F2F2" width="43.359" height="20.753"/>
<rect x="563.628" y="335.554" fill="#F2F2F2" width="43.359" height="20.753"/>
<rect x="131.705" y="301.735" fill="#F2F2F2" width="43.359" height="20.753"/>
<rect x="135.04" y="327.099" fill="#F2F2F2" width="43.359" height="20.753"/>
<rect x="571.133" y="147.244" fill="#F2F2F2" width="43.359" height="20.753"/>
<rect x="99.185" y="151.087" fill="#F2F2F2" width="43.359" height="20.753"/>
<rect x="130.037" y="174.914" fill="#F2F2F2" width="43.359" height="20.753"/>
<rect x="46.654" y="152.624" fill="#F2F2F2" width="43.359" height="20.753"/>
<rect x="185.904" y="198.741" fill="#F2F2F2" width="43.359" height="20.753"/>
<rect x="133.372" y="200.278" fill="#F2F2F2" width="43.359" height="20.753"/>
<rect x="77.506" y="176.451" fill="#F2F2F2" width="43.359" height="20.753"/>
<rect x="130.871" y="360.149" fill="#F2F2F2" width="43.359" height="20.753"/>
<rect x="546.118" y="27.34" fill="#F2F2F2" width="43.359" height="20.753"/>
<rect x="493.587" y="28.877" fill="#F2F2F2" width="43.359" height="20.753"/>
<rect x="524.438" y="52.704" fill="#F2F2F2" width="43.359" height="20.753"/>
<path fill="none" stroke="#454554" stroke-width="2" stroke-miterlimit="10" d="M577.995,528.091c0,0-11.057-34.588,2.076-60.059
	c5.58-10.647,7.262-22.676,4.794-34.28c-1.217-5.499-2.978-10.884-5.261-16.087"/>
<path fill="#D0CDE1" d="M587.768,401.562c0,4.243-8.338,16.533-8.338,16.533s-8.338-12.298-8.338-16.533
	c0-4.245,3.733-7.686,8.338-7.686C584.035,393.876,587.768,397.317,587.768,401.562z"/>
<path fill="#D0CDE1" d="M601.568,425.051c-2.502,3.559-16.743,9.708-16.743,9.708s0.258-14.496,2.76-18.055
	c2.325-3.664,7.432-4.898,11.407-2.755s5.313,6.851,2.988,10.515C601.852,424.666,601.714,424.861,601.568,425.051z"/>
<path fill="#D0CDE1" d="M600.933,465.188c-4.111,1.906-19.77,0.592-19.77,0.592s8.163-12.39,12.266-14.296
	c4.019-2.073,9.1-0.749,11.348,2.955c2.248,3.705,0.813,8.388-3.206,10.46c-0.208,0.107-0.421,0.206-0.638,0.297V465.188z"/>
<path fill="#D0CDE1" d="M593.063,495.456c-3.702,2.521-19.378,3.659-19.378,3.659s5.77-13.481,9.472-16.003
	c3.565-2.687,8.818-2.201,11.733,1.085c2.915,3.286,2.388,8.128-1.177,10.816C593.504,495.17,593.286,495.318,593.063,495.456z"/>
<path fill="#D0CDE1" d="M567.305,435.581c3.335,2.951,18.669,6.018,18.669,6.018s-3.761-14.073-7.063-17.025
	c-3.149-3.098-8.425-3.256-11.786-0.354c-3.36,2.902-3.532,7.766-0.384,10.864c0.179,0.176,0.367,0.344,0.563,0.504L567.305,435.581
	z"/>
<path fill="#D0CDE1" d="M558.583,471.091c4.111,1.906,19.77,0.592,19.77,0.592s-8.163-12.39-12.266-14.296
	c-4.019-2.073-9.1-0.749-11.348,2.955c-2.248,3.705-0.813,8.388,3.206,10.46c0.208,0.107,0.421,0.206,0.638,0.296V471.091z"/>
<path fill="#D0CDE1" d="M555.248,506.678c3.702,2.521,19.378,3.659,19.378,3.659s-5.77-13.481-9.472-16.003
	c-3.831-2.356-9.008-1.403-11.564,2.128C551.208,499.753,551.926,504.173,555.248,506.678z"/>
<path fill="none" stroke="#454554" stroke-width="2" stroke-miterlimit="10" d="M307.226,371.963c0,0-7.363-23.058,1.384-40.022
	c3.718-7.095,4.839-15.111,3.194-22.843c-0.812-3.665-1.987-7.254-3.51-10.722"/>
<path fill="#D0CDE1" d="M313.746,287.654c0,2.828-5.553,11.014-5.553,11.014s-5.553-8.193-5.553-11.014
	c-0.119-2.825,2.269-5.204,5.334-5.313s5.645,2.092,5.764,4.917c0.006,0.132,0.006,0.264,0,0.397h0.008V287.654z"/>
<path fill="#D0CDE1" d="M322.918,303.303c-1.668,2.375-11.157,6.472-11.157,6.472s0.175-9.654,1.834-12.029
	c1.784-2.3,5.253-2.831,7.747-1.186c2.333,1.538,3.012,4.46,1.566,6.743L322.918,303.303z"/>
<path fill="#D0CDE1" d="M322.518,330.043c-2.735,1.268-13.174,0.392-13.174,0.392s5.437-8.255,8.172-9.531
	c2.791-1.172,6.084-0.036,7.356,2.537c1.199,2.427,0.176,5.297-2.353,6.594L322.518,330.043L322.518,330.043z"/>
<path fill="#D0CDE1" d="M317.232,350.219c-2.501,1.683-12.908,2.436-12.908,2.436s3.844-8.985,6.312-10.661
	c2.402-1.758,5.895-1.389,7.802,0.825c1.908,2.214,1.507,5.434-0.895,7.192c-0.099,0.072-0.2,0.141-0.304,0.207h-0.007V350.219z"/>
<path fill="#D0CDE1" d="M300.113,310.336c2.201,1.968,12.441,4.004,12.441,4.004s-2.501-9.377-4.703-11.345
	c-2.285-1.886-5.796-1.707-7.842,0.399c-1.93,1.987-1.882,5.008,0.112,6.941L300.113,310.336z"/>
<path fill="#D0CDE1" d="M294.301,333.978c2.735,1.268,13.174,0.392,13.174,0.392s-5.437-8.255-8.172-9.531
	c-2.68-1.375-6.061-0.487-7.553,1.983s-0.529,5.587,2.151,6.962c0.13,0.067,0.264,0.129,0.399,0.186v0.008H294.301z"/>
<path fill="#D0CDE1" d="M292.075,357.69c2.501,1.683,12.908,2.436,12.908,2.436s-3.844-8.985-6.312-10.661
	c-2.402-1.758-5.895-1.389-7.802,0.825c-1.908,2.214-1.507,5.434,0.895,7.192c0.099,0.072,0.2,0.141,0.304,0.207h0.007V357.69z"/>
<linearGradient id="SVGID_2_" gradientUnits="userSpaceOnUse" x1="479.4275" y1="497.6407" x2="479.4275" y2="200.177" gradientTransform="matrix(1 0 0 1 -118.2 -120.35)">
	<stop  offset="0" style="stop-color:#808080;stop-opacity:0.25"/>
	<stop  offset="0.54" style="stop-color:#808080;stop-opacity:0.12"/>
	<stop  offset="1" style="stop-color:#808080;stop-opacity:0.1"/>
</linearGradient>
<path fill="url(#SVGID_2_)" d="M409.245,226.557l-2.376-26.279c0.864-0.258,1.669-0.659,2.376-1.184l-0.267-0.876
	c0.092-0.061,0.183-0.115,0.267-0.177l-4.011-13.205c0,0-2.093-16.087-2.193-24.158c0-1.714,0.158-2.921,0.475-3.313
	c0.509-0.63,0.667-2.306,0.634-4.427c0-1.253,0-2.706-0.158-4.189c0.609-3.789,0.992-11.329-4.644-15.08
	c4.234-6.258,6.438-13.501,6.354-20.876c0-18.208-12.583-32.966-28.1-32.966s-28.1,14.757-28.1,32.966
	c-0.03,5.641,1.237,11.223,3.719,16.379c-3.677,0.438-10.523,1.806-12.174,6.003c-2.293,5.811-28.075,38.561-28.075,38.561v14.265
	c3.333,0.598,6.74,0.763,10.123,0.492l22.513,19.577c0,0,1.151-0.154,2.91-0.484c-1.233,6.343-1.866,12.772-1.893,19.215
	c-0.078,4.35,0.353,8.694,1.284,12.959c0,0,8.23,19.077,8.513,30.353c-0.004,1.153-0.16,2.302-0.467,3.42l0.242,0.046
	c-0.067,0.354-0.142,0.692-0.242,1.015c0,0,1.718,0.315,4.494,0.661l1.809,12.021c0,0,1.142,22.712,4.586,25.879l2.435,8.07
	l-0.475,1.898l0,0c0,0-6.245,17.763-8.08,20.345c-1.109,1.138-1.826,5.465-0.359,8.101c0.598,1.242,1.919,2.056,3.394,2.091
	c5.428,0.269,7.98,0.061,11.765-8.785l0.525-1.237l0.909,3.013l-0.35,0.315c0,0,2.01,18.224,0.575,21.66
	c-0.917,2.206,1.718,10.038,6.879,8.455s7.379-2.659,7.379-12.175s-3.152-20.338-4.87-22.974c-0.115-0.178-0.283-0.322-0.484-0.415
	c-1.526-7.586-3.836-19.623-3.952-23.827l8.814-29.976c0.704-2.397,1.219-4.837,1.543-7.302l0.934-7.094
	c1.724-0.626,3.363-1.433,4.886-2.406c0,0,0-0.377,0-1.03l0,0c0,0-0.067-1.284-0.083-3.359c0-5.642,0.525-15.549,3.335-22.835
	c0.584,2.852,1.668,4.896,3.627,4.535C410.962,247.125,409.245,226.557,409.245,226.557z M402.182,200.878h0.467l-0.1,1.991
	c-0.122-0.692-0.247-1.366-0.375-2.021L402.182,200.878z M352.153,192.6c-0.959,4.081-6.487,4.904-6.487,4.904l-12.182-12.528
	c0.686-0.518,1.312-1.1,1.868-1.737c0,0-0.325-0.061-0.834-0.2c0.292-0.269,0.567-0.553,0.834-0.861c0,0-6.27-1.099-6.737-5.488
	c0.15-1.537,0.934-3.359,2.727-5.603l14.901-15.318c0,0,8.997,5.941,9.172,21.56c-0.033,2.331-0.237,4.658-0.609,6.964
	c0,0-1.201,3.213-2.677,8.301L352.153,192.6z"/>
<path fill="#FECEB8" d="M405.443,195.528l2.81,31.029c0,0,1.668,20.176-3.927,21.206s-3.927-18.109-3.927-18.109l1.668-34.142
	L405.443,195.528z"/>
<path opacity="0.1" enable-background="new    " d="M408.253,199.655l-3.928-12.935c0,0-3.335-25.864-1.668-27.931
	c1.668-2.068-0.559-16.033-0.559-16.033l-7.012,8.793l-1.976,18.132l5.603,31.513C398.714,201.193,404.884,202.253,408.253,199.655z
	"/>
<ellipse fill="#454554" cx="377.267" cy="115.154" rx="27.516" ry="32.282"/>
<path fill="#FF825C" d="M408.253,198.633l-3.927-12.936c0,0-3.335-25.864-1.668-27.931c1.668-2.068-0.559-16.033-0.559-16.033
	l-7.012,8.793l-1.976,18.101l5.612,31.552C398.722,200.178,404.884,201.193,408.253,198.633z"/>
<path fill="#FF825C" d="M368.629,321.165c0,0-6.245,18.201-7.913,19.922c-1.668,1.722-2.343,9.715,2.968,9.992
	c5.311,0.277,7.813,0.061,11.524-8.601c3.711-8.662,7.504-18.962,6.971-21.936C381.645,317.568,368.629,321.165,368.629,321.165z"/>
<path opacity="0.05" fill="#FF825C" enable-background="new    " d="M368.419,322.675c0,0-6.112,17.394-7.913,19.922
	c-1.376,1.937-2.343,9.715,2.968,9.992s7.813,0.061,11.524-8.601c3.711-8.662,7.504-18.962,6.971-21.936
	C381.435,319.078,368.419,322.675,368.419,322.675z"/>
<rect x="359.432" y="100.866" fill="#632652" width="31.427" height="33.104"/>
<rect x="359.432" y="100.866" fill="#454554" width="31.427" height="33.104"/>
<path fill="#FECEB8" d="M367.262,112.241c0,0,3.335,12.936,0,16.033c0,0-6.737,3.62-8.422,2.59s-8.422,2.068-8.422,2.068
	l10.665,21.729l22.447,1.537l11.782-3.074v-11.883l-0.559-7.24c0,0-13.466,0-12.908-4.658c0.559-4.658,1.668-17.071,1.668-17.071
	L367.262,112.241z"/>
<path fill="#FECEB8" d="M393.661,265.879l-1.768,13.443c-0.316,2.413-0.821,4.802-1.509,7.148l-13.558,46.117l-8.98-8.247
	l10.098-40.352l2.81-23.281L393.661,265.879z"/>
<path opacity="0.05" enable-background="new    " d="M392.661,267.608l-1.768,13.443c-0.316,2.413-0.821,4.802-1.509,7.148
	l-13.558,46.117l-8.98-8.247l10.098-40.352l2.81-23.281L392.661,267.608z"/>
<path fill="#FECEB8" d="M359.432,267.432l2.827,18.624c0,0,1.126,22.244,4.486,25.364l11.223,37.247l8.98-3.074
	c0,0-6.17-28.969-5.053-31.037s-1.126-19.661-1.126-19.661V282.95c0,0,0-11.898-0.559-15.518
	C379.652,263.812,359.432,267.432,359.432,267.432z"/>
<path fill="#FF825C" d="M376.267,344.508c0,0,1.968,17.847,0.559,21.206c-0.901,2.16,1.668,9.831,6.737,8.278
	c5.07-1.553,7.296-2.59,7.296-11.898s-3.085-19.915-4.769-22.505S376.267,344.508,376.267,344.508z"/>
<path opacity="0.1" enable-background="new    " d="M364.335,148.558c-2.285,0.092-6.204-2.114-8.622-16.518
	c0,0-11.999,0.384-14.242,6.072s-27.516,37.762-27.516,37.762v12.936c0,0,15.151,3.074,21.888-4.658c0,0-11.782-2.068-3.927-11.898
	l14.592-15.003c0,0,11.782,7.763,8.422,28.969c0,0-11.782,31.552-6.737,53.28c0,0,10.665,24.834,7.855,34.142
	c0,0,28.058,5.173,41.525-3.62c0,0-1.126-20.691,5.053-30.522c6.179-9.831-5.053-54.318-5.053-54.318s-6.887-12.528-2.393-17.186
	s0.834-15.372,0.834-15.372s11.098-14.519-1.242-17.617c0,0,1.668,16.556-6.17,14.481l-14.033-0.968
	C371.158,148.348,367.741,148.361,364.335,148.558z"/>
<path fill="#FF825C" d="M364.335,147.52c-2.285,0.092-6.204-2.114-8.622-16.517c0,0-11.999,0.384-14.242,6.072
	s-27.516,37.762-27.516,37.762v12.936c0,0,15.151,3.074,21.888-4.658c0,0-11.782-2.068-3.927-11.898l14.592-15.003
	c0,0,11.782,7.763,8.422,28.969c0,0-11.782,31.552-6.737,53.28c0,0,10.665,24.834,7.855,34.142c0,0,28.058,5.173,41.525-3.62
	c0,0-1.126-20.691,5.053-30.522s-5.053-54.318-5.053-54.318s-5.053-11.898-0.559-16.556c4.494-4.658,0.559-16.033,0.559-16.033
	l5.053,1.038c0,0,4.486-15.518-7.855-18.623c0,0,1.668,16.556-6.17,14.481l-14.033-0.968
	C371.158,147.311,367.741,147.323,364.335,147.52z"/>
<path fill="#FECEB8" d="M331.407,183.115l14.55,15.003c0,0,5.42-0.769,6.354-4.804c0,0,17.21,1.699,13.283,7.386
	c-3.927,5.688-19.645,7.763-19.645,7.763l-29.184-25.364L331.407,183.115z"/>
<path opacity="0.1" enable-background="new    " d="M382.404,125.215c0.55-5.38,1.159-12.19,1.159-12.19h-16.301
	c0.826,3.282,1.326,6.626,1.493,9.992c3.992,2.494,8.951,3.294,13.625,2.198H382.404z"/>
<ellipse fill="#FECEB8" cx="378.226" cy="109.397" rx="16.835" ry="15.518"/>
<path opacity="0.1" enable-background="new    " d="M317.624,186.474c0,0,8.78,5.496,17.294-1.422l-6.671-4.812h-11.19
	L317.624,186.474z"/>
<path fill="#FF825C" d="M317.057,185.959c0,0,8.789,5.488,17.302-1.391l-6.671-4.812h-11.19L317.057,185.959z"/>
<path opacity="0.1" enable-background="new    " d="M397.871,158.542c0.641,4.992,0.441,10.045-0.592,14.98
	c-1.668,8.793-1.509,20.176,0.926,22.244"/>
<path opacity="0.1" enable-background="new    " d="M356.422,102.687c0,0,5.003,5.38,18.344,3.343
	c8.033-1.204,16.241-0.977,24.181,0.669l-3.335-8.685l-9.172-6.687h-13.341l-11.674,6.687L356.422,102.687z"/>
<path fill="#454554" d="M356.422,101.919c0,0,5.003,5.38,18.344,3.343c8.033-1.204,16.241-0.977,24.181,0.669l-3.335-8.685
	l-9.172-6.687h-13.341l-11.674,6.686L356.422,101.919z"/>
<linearGradient id="SVGID_3_" gradientUnits="userSpaceOnUse" x1="564.5962" y1="422.6634" x2="729.2524" y2="422.6634" gradientTransform="matrix(1 0 0 1 -118.2 -120.35)">
	<stop  offset="0" style="stop-color:#808080;stop-opacity:0.25"/>
	<stop  offset="0.54" style="stop-color:#808080;stop-opacity:0.12"/>
	<stop  offset="1" style="stop-color:#808080;stop-opacity:0.1"/>
</linearGradient>
<path fill="url(#SVGID_3_)" d="M608.755,227.195c-5.17-10.176-38.756-47.762-38.756-47.762l-17.227-18.009l-4.378-1.245
	c2.442-7.985,3.666-16.245,3.635-24.542c0-0.261,0-0.523,0-0.769s0-0.523,0-0.769c0-33.373-18.895-60.428-42.208-60.428
	c-14.567,0-27.416,10.568-35.021,26.64c-4.114,8.783-6.179,18.265-6.062,27.831c-0.098,7.375,1.027,14.72,3.335,21.782
	c1.309,4.028,2.627,7.886,3.994,11.529l-0.4,0.223l-17.644,6.018c0,0-6.429,6.31-6.162,18.916
	c-0.051,5.282,0.868,10.534,2.718,15.534c1.507,4.741,2.237,9.663,2.168,14.604c-0.208,22.728-9.914,51.159-9.914,51.159
	l0.434,0.261c-0.275,0.845-0.434,1.307-0.434,1.307c1.74,1.046,3.547,1.993,5.412,2.836l-2.835,34.741c0,0-9.472,23.489,5.17,32.097
	l5.17-30.537l6.387-32.505c0.741,0.04,1.485,0.04,2.226,0c0.208,0,0.417-0.046,0.625-0.061c-2.61,3.19-6.887,11.206-6.671,29.392
	c0,1.276,0,2.59,0.05,3.974c0,0,17.227,72.811,16.368,75.947c0,0,0.642,0.054,1.726,0.115v15.557c0,0-2.585,24.273,6.029,43.042
	c0.934,2.044,1.776,4.112,2.501,6.149c0,0.523,0,1.068,0.05,1.653c0.467,5.934-0.584,7.971-1.668,8.585
	c-1.081,0.552-1.727,1.622-1.668,2.759c0.275,2.905,1.059,7.21,3.335,8.232c1.492,0.676,3.635,1.214,5.787,2.167
	c0.934,6.226,1.101,10.353,1.101,10.353l1.726,11.744h0.058c-0.128,1.044-0.147,2.096-0.058,3.144
	c0.467,5.934-0.584,7.971-1.668,8.585c-1.081,0.552-1.727,1.622-1.668,2.759c0.275,2.905,1.059,7.21,3.335,8.232
	c3.444,1.537,10.339,2.352,12.916,9.392c2.576,7.04,6.029,0,6.029,0c-0.527-2.752-0.662-5.555-0.4-8.339
	c0.455-3.446,0.528-6.925,0.217-10.384c-0.076-2.409,0.276-4.813,1.042-7.117c0.834-3.174-0.067-8.163-3.118-11.291
	c-1.301-6.556-4.453-23.166-3.769-26.294c0.183-0.845,0.133-4.266-0.067-9.108c8.413-19.907,22.572-55.163,20.737-62.926
	c-0.834-3.551-0.675-8.662-0.083-13.943l12.999-5.626c0,0,1.059-34.841,6.887-44.626c1.976-3.32,2.735-10.922,2.685-19.984
	c-0.064-11.948-1.053-23.876-2.96-35.694c2.868-0.223,6.295-1.022,10.606-3.843l36.388-25.649c3.052,1.322,6.737,1.445,10.99-0.968
	c0,0,2.593-1.576,2.268-6.149C611.19,233.897,610.74,231.053,608.755,227.195z M555.39,260.422
	c-3.444-0.769-8.613-9.531-8.613-11.906s-3.861-0.046-3.877,0c-1.679-6.119-2.544-12.404-2.577-18.716
	c0.125-11.983,3.21-24.649,12.507-30.475l34.454,30.967c0,0,0.125,0.3,0.367,0.815c-8.138,8.278-29.509,29.961-32.294,29.315H555.39
	z"/>
<path fill="#FF825C" d="M498.64,438.548c0,0-9.172,0-8.338,10.761c0.45,5.826-0.567,7.824-1.593,8.455
	c-1.045,0.554-1.664,1.603-1.601,2.713c0.267,2.852,1.026,7.079,3.194,8.078c3.335,1.537,10.006,2.306,12.507,9.223
	c2.502,6.918,5.837,0,5.837,0c-0.512-2.702-0.643-5.453-0.392-8.186c0.443-3.382,0.516-6.796,0.217-10.192
	c-0.073-2.364,0.267-4.723,1.009-6.987C510.73,447.387,507.812,437.779,498.64,438.548z"/>
<path opacity="0.05" enable-background="new    " d="M496.779,440.033c0,0-9.172,0-8.338,10.761c0.45,5.826-0.567,7.824-1.593,8.455
	c-1.045,0.554-1.664,1.603-1.601,2.713c0.267,2.852,1.026,7.079,3.194,8.078c3.335,1.537,10.006,2.306,12.507,9.223
	c2.502,6.918,5.837,0,5.837,0c-0.512-2.702-0.643-5.453-0.392-8.186c0.443-3.382,0.516-6.796,0.217-10.192
	c-0.073-2.364,0.267-4.723,1.009-6.987C508.869,448.872,505.951,439.264,496.779,440.033z"/>
<path fill="#FECEB8" d="M588.693,230.254c0,0-30.852,32.282-34.187,31.513c-3.335-0.769-8.338-9.223-8.338-11.529s-3.752,0-3.752,0
	s1.251,23.058,4.586,23.058c3.335,0,7.504,0,13.341-3.843l40.858-29.207L588.693,230.254z"/>
<path fill="#FECEB8" d="M455.281,265.61l-3.335,41.505c0,0-9.172,23.058,5.003,31.513l5.003-29.976l8.338-43.042H455.281z"/>
<path fill="#FECEB8" d="M535.328,354.769c0,0-6.671,25.364-4.169,36.125c2.501,10.761-25.849,75.324-25.849,75.324l-10.006-9.223
	l6.671-71.481l8.338-59.952L535.328,354.769z"/>
<path opacity="0.05" enable-background="new    " d="M536.592,354.769c0,0-6.671,25.364-4.169,36.125
	c2.501,10.761-25.849,75.324-25.849,75.324l-10.006-9.223l6.671-71.481l8.338-59.952L536.592,354.769z"/>
<path fill="#FECEB8" d="M481.963,375.522v23.827c0,0-2.502,23.827,5.837,42.274c8.338,18.447,9.172,39.199,9.172,39.199
	l1.668,11.529l16.677-2.306c0,0-5.003-24.596-4.169-28.439s-3.335-62.258-3.335-62.258s3.335-20.753,1.668-29.207
	s-8.338-18.447-8.338-18.447L481.963,375.522z"/>
<path fill="#FF825C" d="M506.978,484.665c0,0-9.172,0-8.338,10.761c0.45,5.826-0.567,7.824-1.593,8.455
	c-1.045,0.554-1.664,1.603-1.601,2.713c0.267,2.852,1.026,7.079,3.194,8.078c3.335,1.537,10.006,2.306,12.507,9.223
	c2.501,6.918,5.837,0,5.837,0c-0.512-2.702-0.643-5.453-0.392-8.186c0.443-3.382,0.516-6.796,0.217-10.192
	c-0.073-2.364,0.267-4.723,1.009-6.987C519.068,493.504,516.15,483.896,506.978,484.665z"/>
<ellipse fill="#FFB296" cx="511.147" cy="121.111" rx="25.015" ry="23.058"/>
<path fill="#FFB296" d="M523.655,124.954c0,0-7.504,32.282,20.846,39.968s-31.685,16.909-31.685,16.909l-42.525-13.835
	c0,0,47.528-21.521,35.855-43.042L523.655,124.954L523.655,124.954z"/>
<path opacity="0.1" enable-background="new    " d="M511.147,167.996l-33.82-2.068l-17.077,5.911c0,0-10.84,10.761-3.335,32.282
	c7.504,21.521-7.504,66.101-7.504,66.101s11.257,7.133,20.846,6.51c0.844-0.053,1.681-0.174,2.502-0.361c0,0-9.172,5.38-8.338,33.05
	c0,0,16.677,71.481,15.843,74.555c0,0,18.344,1.537,25.015-2.306c0,0,5.003-40.736,10.006-40.736c0,0,11.674,33.05,10.84,38.431
	l17.51-7.686c0,0,1.026-34.203,6.671-43.811c6.204-10.568,0-65.332-5.003-69.944c-5.003-4.612-11.674-43.811,6.671-55.34
	l33.351,29.976c0,0,7.504,18.447,20.846,10.761c0,0,5.003-3.074,0-13.066c-5.003-9.992-37.522-46.885-37.522-46.885l-16.677-17.678
	l-13.341-3.843C538.63,161.847,520.318,174.914,511.147,167.996z"/>
<path fill="#FF825C" d="M511.147,166.459l-33.82-2.068l-17.077,5.911c0,0-10.84,10.761-3.335,32.282s-7.504,66.101-7.504,66.101
	s11.257,7.133,20.846,6.51c0.844-0.053,1.681-0.174,2.502-0.361c0,0-9.172,5.38-8.338,33.05c0,0,16.677,71.481,15.843,74.555
	c0,0,18.344,1.537,25.015-2.306c0,0,5.003-40.736,10.006-40.736c0,0,11.674,33.05,10.84,38.431l17.51-7.686
	c0,0,1.026-34.203,6.671-43.811c6.204-10.568,0-65.332-5.003-69.944c-5.003-4.612-11.674-43.811,6.671-55.34l33.353,29.976
	c0,0,7.504,18.447,20.846,10.761c0,0,5.003-3.074,0-13.066c-5.003-9.992-37.522-46.885-37.522-46.885l-16.677-17.678l-13.344-3.845
	C538.63,160.31,520.318,173.377,511.147,166.459z"/>
<path opacity="0.1" enable-background="new    " d="M476.543,194.513c0,0,2.502,28.439,5.003,35.356
	c2.501,6.918-5.003,42.274-5.003,42.274"/>
<path opacity="0.1" enable-background="new    " d="M476.543,105.677c-6.818,14.958-7.758,31.641-2.66,47.17
	c8.413,26.248,17.269,45.348,36.547,45.348c22.563,0,40.858-26.563,40.858-59.322s-18.294-59.322-40.858-59.322
	C496.322,79.521,483.889,89.898,476.543,105.677z"/>
<path fill="#454554" d="M476.543,104.14c-6.818,14.958-7.758,31.641-2.66,47.17c8.413,26.248,17.269,45.348,36.547,45.348
	c22.563,0,40.858-26.563,40.858-59.322s-18.294-59.322-40.858-59.322C496.322,77.984,483.889,88.36,476.543,104.14z"/>
</svg>
