<?xml version="1.0" encoding="utf-8"?>
<!-- Generator: Adobe Illustrator 17.0.0, SVG Export Plug-In . SVG Version: 6.00 Build 0)  -->
<!DOCTYPE svg PUBLIC "-//W3C//DTD SVG 1.1//EN" "http://www.w3.org/Graphics/SVG/1.1/DTD/svg11.dtd">
<svg version="1.1" id="Layer_1" xmlns="http://www.w3.org/2000/svg" xmlns:xlink="http://www.w3.org/1999/xlink" x="0px" y="0px"
	 width="904px" height="375px" viewBox="0 0 904 375" enable-background="new 0 0 904 375" xml:space="preserve">
<path fill="#FF825C" d="M316,80h51c41.421,0,75,33.579,75,75l0,0c0,41.421-33.579,75-75,75h-51c-41.421,0-75-33.579-75-75l0,0
	C241,113.579,274.579,80,316,80z"/>
<path fill="#FFFFFF" d="M309.149,141.2v9.8h-1.792v-8.26h-5.082V151h-1.792v-9.8H309.149z M318.716,147.304
	c0,0.121-0.009,0.294-0.028,0.518h-5.866c0.103,0.551,0.369,0.989,0.798,1.316c0.439,0.317,0.98,0.476,1.624,0.476
	c0.821,0,1.498-0.271,2.03-0.812l0.938,1.078c-0.336,0.401-0.761,0.705-1.274,0.91s-1.092,0.308-1.736,0.308
	c-0.821,0-1.545-0.163-2.17-0.49s-1.111-0.779-1.456-1.358c-0.336-0.588-0.504-1.251-0.504-1.988c0-0.728,0.163-1.381,0.49-1.96
	c0.336-0.588,0.798-1.045,1.386-1.372c0.588-0.327,1.251-0.49,1.988-0.49c0.728,0,1.377,0.163,1.946,0.49
	c0.579,0.317,1.027,0.77,1.344,1.358C318.553,145.867,318.716,146.539,318.716,147.304z M314.936,144.84
	c-0.56,0-1.036,0.168-1.428,0.504c-0.383,0.327-0.616,0.765-0.7,1.316h4.242c-0.075-0.541-0.303-0.98-0.686-1.316
	S315.505,144.84,314.936,144.84z M324.774,143.44c0.728,0,1.377,0.159,1.946,0.476c0.579,0.317,1.031,0.765,1.358,1.344
	s0.49,1.246,0.49,2.002s-0.163,1.428-0.49,2.016c-0.327,0.579-0.779,1.027-1.358,1.344c-0.569,0.317-1.218,0.476-1.946,0.476
	c-1.008,0-1.806-0.336-2.394-1.008v3.626h-1.75v-10.192h1.666v0.98c0.289-0.355,0.644-0.621,1.064-0.798
	C323.789,143.529,324.261,143.44,324.774,143.44z M324.578,149.6c0.644,0,1.171-0.215,1.582-0.644c0.42-0.429,0.63-0.994,0.63-1.694
	s-0.21-1.265-0.63-1.694c-0.411-0.429-0.938-0.644-1.582-0.644c-0.42,0-0.798,0.098-1.134,0.294
	c-0.336,0.187-0.602,0.457-0.798,0.812s-0.294,0.765-0.294,1.232s0.098,0.877,0.294,1.232s0.462,0.63,0.798,0.826
	C323.78,149.507,324.158,149.6,324.578,149.6z M335.728,147.108c0.924,0.28,1.386,0.877,1.386,1.792c0,0.672-0.252,1.19-0.756,1.554
	s-1.251,0.546-2.24,0.546h-3.808v-7.476h3.654c0.914,0,1.628,0.168,2.142,0.504c0.513,0.336,0.77,0.812,0.77,1.428
	c0,0.383-0.103,0.714-0.308,0.994C336.372,146.73,336.092,146.949,335.728,147.108z M331.976,146.646h1.834
	c0.905,0,1.358-0.313,1.358-0.938c0-0.607-0.453-0.91-1.358-0.91h-1.834V146.646z M333.978,149.726c0.961,0,1.442-0.313,1.442-0.938
	c0-0.327-0.112-0.569-0.336-0.728c-0.224-0.168-0.574-0.252-1.05-0.252h-2.058v1.918H333.978z M338.978,143.524h1.75v4.928
	l4.13-4.928h1.596V151h-1.75v-4.928L340.588,151h-1.61L338.978,143.524L338.978,143.524z M355.15,143.524V151h-1.75v-2.898
	c-0.719,0.345-1.47,0.518-2.254,0.518c-0.961,0-1.699-0.219-2.212-0.658c-0.513-0.448-0.77-1.129-0.77-2.044v-2.394h1.75v2.282
	c0,0.476,0.14,0.831,0.42,1.064s0.677,0.35,1.19,0.35c0.653,0,1.279-0.14,1.876-0.42v-3.276H355.15z M357.503,143.524h1.75v3.038
	h3.766v-3.038h1.75V151h-1.75v-2.954h-3.766V151h-1.75V143.524z M370.446,151.098c-0.756,0-1.437-0.163-2.044-0.49
	c-0.606-0.327-1.082-0.779-1.428-1.358c-0.336-0.588-0.504-1.251-0.504-1.988s0.168-1.395,0.504-1.974
	c0.346-0.579,0.822-1.031,1.428-1.358c0.607-0.327,1.288-0.49,2.044-0.49c0.766,0,1.452,0.163,2.058,0.49
	c0.607,0.327,1.078,0.779,1.414,1.358c0.346,0.579,0.518,1.237,0.518,1.974s-0.172,1.4-0.518,1.988
	c-0.336,0.579-0.807,1.031-1.414,1.358C371.898,150.935,371.212,151.098,370.446,151.098z M370.446,149.6
	c0.644,0,1.176-0.215,1.596-0.644s0.63-0.994,0.63-1.694s-0.21-1.265-0.63-1.694s-0.952-0.644-1.596-0.644s-1.176,0.215-1.596,0.644
	c-0.41,0.429-0.616,0.994-0.616,1.694s0.206,1.265,0.616,1.694C369.27,149.385,369.802,149.6,370.446,149.6z M383.165,147.304
	c0,0.121-0.009,0.294-0.028,0.518h-5.866c0.103,0.551,0.369,0.989,0.798,1.316c0.439,0.317,0.98,0.476,1.624,0.476
	c0.822,0,1.498-0.271,2.03-0.812l0.938,1.078c-0.336,0.401-0.76,0.705-1.274,0.91c-0.513,0.205-1.092,0.308-1.736,0.308
	c-0.821,0-1.544-0.163-2.17-0.49c-0.625-0.327-1.11-0.779-1.456-1.358c-0.336-0.588-0.504-1.251-0.504-1.988
	c0-0.728,0.164-1.381,0.49-1.96c0.336-0.588,0.798-1.045,1.386-1.372c0.588-0.327,1.251-0.49,1.988-0.49
	c0.728,0,1.377,0.163,1.946,0.49c0.579,0.317,1.027,0.77,1.344,1.358C383.002,145.867,383.165,146.539,383.165,147.304z
	 M379.385,144.84c-0.56,0-1.036,0.168-1.428,0.504c-0.382,0.327-0.616,0.765-0.7,1.316h4.242c-0.074-0.541-0.303-0.98-0.686-1.316
	C380.431,145.008,379.955,144.84,379.385,144.84z M294.106,160.888c0.709,0,1.334,0.154,1.876,0.462
	c0.541,0.299,0.961,0.719,1.26,1.26c0.308,0.541,0.462,1.162,0.462,1.862c0,0.719-0.168,1.358-0.504,1.918
	c-0.336,0.551-0.808,0.98-1.414,1.288c-0.607,0.308-1.298,0.462-2.072,0.462c-1.298,0-2.301-0.429-3.01-1.288
	c-0.71-0.859-1.064-2.095-1.064-3.71c0-1.503,0.322-2.693,0.966-3.57c0.644-0.877,1.628-1.456,2.954-1.736l3.472-0.742l0.252,1.568
	l-3.15,0.644c-0.906,0.187-1.582,0.504-2.03,0.952s-0.71,1.078-0.784,1.89c0.336-0.401,0.742-0.709,1.218-0.924
	C293.014,161,293.536,160.888,294.106,160.888z M293.756,166.726c0.644,0,1.162-0.205,1.554-0.616
	c0.401-0.42,0.602-0.952,0.602-1.596s-0.201-1.162-0.602-1.554c-0.392-0.392-0.91-0.588-1.554-0.588
	c-0.654,0-1.181,0.196-1.582,0.588c-0.402,0.392-0.602,0.91-0.602,1.554c0,0.653,0.2,1.185,0.602,1.596
	C292.584,166.521,293.112,166.726,293.756,166.726z M306.398,164.304c0,0.121-0.01,0.294-0.028,0.518h-5.866
	c0.102,0.551,0.368,0.989,0.798,1.316c0.438,0.317,0.98,0.476,1.624,0.476c0.821,0,1.498-0.271,2.03-0.812l0.938,1.078
	c-0.336,0.401-0.761,0.705-1.274,0.91c-0.514,0.205-1.092,0.308-1.736,0.308c-0.822,0-1.545-0.163-2.17-0.49
	c-0.626-0.327-1.111-0.779-1.456-1.358c-0.336-0.588-0.504-1.251-0.504-1.988c0-0.728,0.163-1.381,0.49-1.96
	c0.336-0.588,0.798-1.045,1.386-1.372c0.588-0.327,1.25-0.49,1.988-0.49c0.728,0,1.376,0.163,1.946,0.49
	c0.578,0.317,1.026,0.77,1.344,1.358C306.234,162.867,306.398,163.539,306.398,164.304z M302.618,161.84
	c-0.56,0-1.036,0.168-1.428,0.504c-0.383,0.327-0.616,0.765-0.7,1.316h4.242c-0.075-0.541-0.304-0.98-0.686-1.316
	C303.663,162.008,303.187,161.84,302.618,161.84z M311.714,168.098c-0.775,0-1.47-0.163-2.086-0.49s-1.097-0.779-1.442-1.358
	c-0.346-0.588-0.518-1.251-0.518-1.988s0.172-1.395,0.518-1.974c0.345-0.579,0.821-1.031,1.428-1.358
	c0.616-0.327,1.316-0.49,2.1-0.49c0.737,0,1.381,0.149,1.932,0.448c0.56,0.299,0.98,0.728,1.26,1.288l-1.344,0.784
	c-0.215-0.345-0.486-0.602-0.812-0.77c-0.318-0.177-0.668-0.266-1.05-0.266c-0.654,0-1.195,0.215-1.624,0.644
	c-0.43,0.42-0.644,0.985-0.644,1.694s0.21,1.279,0.63,1.708c0.429,0.42,0.975,0.63,1.638,0.63c0.382,0,0.732-0.084,1.05-0.252
	c0.326-0.177,0.597-0.439,0.812-0.784l1.344,0.784c-0.29,0.56-0.714,0.994-1.274,1.302
	C313.081,167.949,312.442,168.098,311.714,168.098z M323.615,160.524V168h-1.736v-5.992h-3.682V168h-1.75v-7.476H323.615z
	 M329.308,168.098c-0.756,0-1.438-0.163-2.044-0.49c-0.607-0.327-1.083-0.779-1.428-1.358c-0.336-0.588-0.504-1.251-0.504-1.988
	s0.168-1.395,0.504-1.974c0.345-0.579,0.821-1.031,1.428-1.358c0.606-0.327,1.288-0.49,2.044-0.49c0.765,0,1.451,0.163,2.058,0.49
	c0.606,0.327,1.078,0.779,1.414,1.358c0.345,0.579,0.518,1.237,0.518,1.974s-0.173,1.4-0.518,1.988
	c-0.336,0.579-0.808,1.031-1.414,1.358C330.759,167.935,330.073,168.098,329.308,168.098z M329.308,166.6
	c0.644,0,1.176-0.215,1.596-0.644s0.63-0.994,0.63-1.694s-0.21-1.265-0.63-1.694s-0.952-0.644-1.596-0.644s-1.176,0.215-1.596,0.644
	c-0.411,0.429-0.616,0.994-0.616,1.694s0.205,1.265,0.616,1.694C328.132,166.385,328.664,166.6,329.308,166.6z M338.135,165.004
	h-1.358V168h-1.75v-7.476h1.75v3.024h1.4l2.212-3.024h1.876l-2.716,3.598l2.898,3.878h-2.058L338.135,165.004z M346.767,168.098
	c-0.756,0-1.438-0.163-2.044-0.49c-0.607-0.327-1.083-0.779-1.428-1.358c-0.336-0.588-0.504-1.251-0.504-1.988
	s0.168-1.395,0.504-1.974c0.345-0.579,0.821-1.031,1.428-1.358c0.606-0.327,1.288-0.49,2.044-0.49c0.765,0,1.451,0.163,2.058,0.49
	c0.606,0.327,1.078,0.779,1.414,1.358c0.345,0.579,0.518,1.237,0.518,1.974s-0.173,1.4-0.518,1.988
	c-0.336,0.579-0.808,1.031-1.414,1.358C348.218,167.935,347.532,168.098,346.767,168.098z M346.767,166.6
	c0.644,0,1.176-0.215,1.596-0.644s0.63-0.994,0.63-1.694s-0.21-1.265-0.63-1.694s-0.952-0.644-1.596-0.644s-1.176,0.215-1.596,0.644
	c-0.411,0.429-0.616,0.994-0.616,1.694s0.205,1.265,0.616,1.694C345.591,166.385,346.123,166.6,346.767,166.6z M352.486,160.524
	h1.75v4.928l4.13-4.928h1.596V168h-1.75v-4.928L354.096,168h-1.61L352.486,160.524L352.486,160.524z M356.112,159.642
	c-0.756,0-1.335-0.173-1.736-0.518c-0.392-0.355-0.593-0.868-0.602-1.54h1.162c0.009,0.336,0.112,0.602,0.308,0.798
	c0.205,0.196,0.49,0.294,0.854,0.294c0.354,0,0.634-0.098,0.84-0.294c0.214-0.196,0.326-0.462,0.336-0.798h1.19
	c-0.01,0.672-0.215,1.185-0.616,1.54C357.446,159.469,356.868,159.642,356.112,159.642z M365.718,168.098
	c-0.775,0-1.47-0.163-2.086-0.49s-1.097-0.779-1.442-1.358c-0.346-0.588-0.518-1.251-0.518-1.988s0.172-1.395,0.518-1.974
	c0.345-0.579,0.821-1.031,1.428-1.358c0.616-0.327,1.316-0.49,2.1-0.49c0.737,0,1.381,0.149,1.932,0.448
	c0.56,0.299,0.98,0.728,1.26,1.288l-1.344,0.784c-0.215-0.345-0.486-0.602-0.812-0.77c-0.318-0.177-0.668-0.266-1.05-0.266
	c-0.654,0-1.195,0.215-1.624,0.644c-0.43,0.42-0.644,0.985-0.644,1.694s0.21,1.279,0.63,1.708c0.429,0.42,0.975,0.63,1.638,0.63
	c0.382,0,0.732-0.084,1.05-0.252c0.326-0.177,0.597-0.439,0.812-0.784l1.344,0.784c-0.29,0.56-0.714,0.994-1.274,1.302
	C367.085,167.949,366.446,168.098,365.718,168.098z M376.304,162.008h-2.618V168h-1.75v-5.992h-2.632v-1.484h7V162.008z
	 M382.991,164.108c0.924,0.28,1.386,0.877,1.386,1.792c0,0.672-0.252,1.19-0.756,1.554s-1.25,0.546-2.24,0.546h-3.808v-7.476h3.654
	c0.915,0,1.629,0.168,2.142,0.504c0.514,0.336,0.77,0.812,0.77,1.428c0,0.383-0.102,0.714-0.308,0.994
	C383.635,163.73,383.355,163.949,382.991,164.108z M379.239,163.646h1.834c0.906,0,1.358-0.313,1.358-0.938
	c0-0.607-0.452-0.91-1.358-0.91h-1.834V163.646z M381.241,166.726c0.962,0,1.442-0.313,1.442-0.938c0-0.327-0.112-0.569-0.336-0.728
	c-0.224-0.168-0.574-0.252-1.05-0.252h-2.058v1.918H381.241z M389.573,168.098c-0.756,0-1.437-0.163-2.044-0.49
	c-0.606-0.327-1.082-0.779-1.428-1.358c-0.336-0.588-0.504-1.251-0.504-1.988s0.168-1.395,0.504-1.974
	c0.346-0.579,0.822-1.031,1.428-1.358c0.607-0.327,1.288-0.49,2.044-0.49c0.766,0,1.452,0.163,2.058,0.49
	c0.607,0.327,1.078,0.779,1.414,1.358c0.346,0.579,0.518,1.237,0.518,1.974s-0.172,1.4-0.518,1.988
	c-0.336,0.579-0.807,1.031-1.414,1.358C391.025,167.935,390.339,168.098,389.573,168.098z M389.573,166.6
	c0.644,0,1.176-0.215,1.596-0.644s0.63-0.994,0.63-1.694s-0.21-1.265-0.63-1.694s-0.952-0.644-1.596-0.644s-1.176,0.215-1.596,0.644
	c-0.41,0.429-0.616,0.994-0.616,1.694s0.206,1.265,0.616,1.694C388.397,166.385,388.929,166.6,389.573,166.6z"/>
<path fill="#FF825C" d="M324.5,260h279c31.756,0,57.5,25.744,57.5,57.5l0,0c0,31.756-25.744,57.5-57.5,57.5h-279
	c-31.756,0-57.5-25.744-57.5-57.5l0,0C267,285.744,292.744,260,324.5,260z"/>
<path fill="#FFFFFF" d="M420.886,298.14c-0.989,0-1.885-0.215-2.688-0.644c-0.793-0.439-1.419-1.041-1.876-1.806
	c-0.448-0.765-0.672-1.629-0.672-2.59s0.229-1.825,0.686-2.59c0.457-0.765,1.083-1.363,1.876-1.792
	c0.803-0.439,1.699-0.658,2.688-0.658c0.803,0,1.535,0.14,2.198,0.42s1.223,0.686,1.68,1.218l-1.176,1.106
	c-0.709-0.765-1.582-1.148-2.618-1.148c-0.672,0-1.274,0.149-1.806,0.448c-0.532,0.289-0.947,0.695-1.246,1.218
	c-0.299,0.523-0.448,1.115-0.448,1.778s0.149,1.255,0.448,1.778s0.714,0.933,1.246,1.232c0.532,0.289,1.134,0.434,1.806,0.434
	c1.036,0,1.909-0.387,2.618-1.162l1.176,1.12c-0.457,0.532-1.022,0.938-1.694,1.218C422.421,298,421.689,298.14,420.886,298.14z
	 M426.272,290.524h1.75v4.928l4.13-4.928h1.596V298h-1.75v-4.928L427.882,298h-1.61V290.524z M443.452,298v-4.956l-2.52,4.172
	h-0.756l-2.478-4.186V298h-1.596v-7.476h1.834l2.66,4.676l2.786-4.676h1.638l0.014,7.476H443.452z M454.549,290.524V298h-1.736
	v-5.992h-3.682V298h-1.75v-7.476H454.549z M462.832,292.008h-2.618V298h-1.75v-5.992h-2.632v-1.484h7V292.008z M467.106,298.098
	c-0.756,0-1.438-0.163-2.044-0.49c-0.607-0.327-1.083-0.779-1.428-1.358c-0.336-0.588-0.504-1.251-0.504-1.988
	s0.168-1.395,0.504-1.974c0.345-0.579,0.821-1.031,1.428-1.358c0.606-0.327,1.288-0.49,2.044-0.49c0.765,0,1.451,0.163,2.058,0.49
	c0.606,0.327,1.078,0.779,1.414,1.358c0.345,0.579,0.518,1.237,0.518,1.974s-0.173,1.4-0.518,1.988
	c-0.336,0.579-0.808,1.031-1.414,1.358C468.557,297.935,467.871,298.098,467.106,298.098z M467.106,296.6
	c0.644,0,1.176-0.215,1.596-0.644c0.42-0.429,0.63-0.994,0.63-1.694s-0.21-1.265-0.63-1.694s-0.952-0.644-1.596-0.644
	s-1.176,0.215-1.596,0.644c-0.411,0.429-0.616,0.994-0.616,1.694s0.205,1.265,0.616,1.694
	C465.93,296.385,466.462,296.6,467.106,296.6z M480.174,298v-4.956l-2.52,4.172h-0.756l-2.478-4.186V298h-1.596v-7.476h1.834
	l2.66,4.676l2.786-4.676h1.638l0.014,7.476H480.174z M487.744,292.988c0.952,0,1.68,0.215,2.184,0.644
	c0.504,0.429,0.756,1.036,0.756,1.82c0,0.821-0.28,1.456-0.84,1.904c-0.551,0.448-1.335,0.667-2.352,0.658L484.104,298v-7.476h1.75
	v2.45L487.744,292.988z M491.65,290.524h1.75V298h-1.75V290.524z M487.338,296.726c0.513,0.009,0.905-0.098,1.176-0.322
	c0.27-0.224,0.406-0.551,0.406-0.98c0-0.42-0.131-0.728-0.392-0.924c-0.262-0.196-0.658-0.299-1.19-0.308l-1.484-0.014v2.534
	L487.338,296.726z M496.284,292.764c-0.317,0-0.588-0.107-0.812-0.322c-0.224-0.224-0.336-0.504-0.336-0.84
	c0-0.345,0.108-0.625,0.322-0.84c0.224-0.215,0.5-0.322,0.826-0.322c0.327,0,0.598,0.107,0.812,0.322
	c0.224,0.215,0.336,0.495,0.336,0.84c0,0.336-0.112,0.616-0.336,0.84C496.872,292.657,496.602,292.764,496.284,292.764z
	 M496.284,298.098c-0.317,0-0.588-0.107-0.812-0.322c-0.224-0.224-0.336-0.504-0.336-0.84c0-0.345,0.108-0.625,0.322-0.84
	c0.224-0.215,0.5-0.322,0.826-0.322c0.327,0,0.598,0.107,0.812,0.322c0.224,0.215,0.336,0.495,0.336,0.84
	c0,0.336-0.112,0.616-0.336,0.84C496.872,297.991,496.602,298.098,496.284,298.098z M342.495,322.2v9.8h-1.82v-8.274h-2.072V322.2
	H342.495z M345.531,332.098c-0.317,0-0.588-0.107-0.812-0.322c-0.224-0.224-0.336-0.504-0.336-0.84c0-0.345,0.108-0.625,0.322-0.84
	c0.224-0.215,0.5-0.322,0.826-0.322c0.327,0,0.598,0.107,0.812,0.322c0.224,0.215,0.336,0.495,0.336,0.84
	c0,0.336-0.112,0.616-0.336,0.84C346.119,331.991,345.849,332.098,345.531,332.098z M363.682,327.086
	c0,1.288-0.448,2.305-1.344,3.052s-2.17,1.153-3.822,1.218v1.036h-1.68v-1.036c-1.652-0.084-2.93-0.495-3.836-1.232
	c-0.896-0.737-1.344-1.75-1.344-3.038s0.448-2.301,1.344-3.038c0.906-0.747,2.184-1.162,3.836-1.246v-0.994h1.68v0.994
	c1.652,0.084,2.926,0.499,3.822,1.246C363.234,324.785,363.682,325.798,363.682,327.086z M358.516,329.928
	c1.12-0.084,1.97-0.364,2.548-0.84c0.579-0.485,0.868-1.157,0.868-2.016c0-0.859-0.294-1.526-0.882-2.002
	c-0.578-0.476-1.423-0.751-2.534-0.826L358.516,329.928L358.516,329.928z M353.434,327.086c0,0.849,0.29,1.512,0.868,1.988
	c0.588,0.476,1.433,0.761,2.534,0.854v-5.684C354.568,324.412,353.434,325.359,353.434,327.086z M365.398,324.524h1.75v4.928
	l4.13-4.928h1.596V332h-1.75v-4.928L367.008,332h-1.61V324.524z M379.598,328.108c0.467,0.131,0.826,0.345,1.078,0.644
	c0.261,0.289,0.392,0.639,0.392,1.05c0,0.457-0.154,0.863-0.462,1.218c-0.308,0.345-0.733,0.616-1.274,0.812
	s-1.157,0.294-1.848,0.294c-0.579,0-1.143-0.065-1.694-0.196c-0.551-0.14-1.05-0.336-1.498-0.588l0.504-1.302
	c0.364,0.205,0.775,0.364,1.232,0.476s0.915,0.168,1.372,0.168c0.588,0,1.045-0.089,1.372-0.266
	c0.336-0.187,0.504-0.439,0.504-0.756c0-0.289-0.131-0.513-0.392-0.672c-0.252-0.159-0.611-0.238-1.078-0.238h-1.456v-1.176h1.316
	c0.439,0,0.779-0.075,1.022-0.224c0.252-0.149,0.378-0.359,0.378-0.63s-0.149-0.485-0.448-0.644
	c-0.299-0.159-0.709-0.238-1.232-0.238c-0.747,0-1.535,0.182-2.366,0.546l-0.448-1.288c0.98-0.457,1.969-0.686,2.968-0.686
	c0.635,0,1.204,0.089,1.708,0.266c0.504,0.168,0.896,0.411,1.176,0.728c0.289,0.308,0.434,0.663,0.434,1.064
	c0,0.364-0.112,0.691-0.336,0.98C380.298,327.73,379.99,327.949,379.598,328.108z M382.884,324.524h1.75v4.928l4.13-4.928h1.596V332
	h-1.75v-4.928L384.494,332h-1.61V324.524z M396.046,332.098c-0.756,0-1.437-0.163-2.044-0.49s-1.083-0.779-1.428-1.358
	c-0.336-0.588-0.504-1.251-0.504-1.988s0.168-1.395,0.504-1.974c0.345-0.579,0.821-1.031,1.428-1.358s1.288-0.49,2.044-0.49
	c0.765,0,1.451,0.163,2.058,0.49s1.078,0.779,1.414,1.358c0.345,0.579,0.518,1.237,0.518,1.974s-0.173,1.4-0.518,1.988
	c-0.336,0.579-0.807,1.031-1.414,1.358S396.811,332.098,396.046,332.098z M396.046,330.6c0.644,0,1.176-0.215,1.596-0.644
	c0.42-0.429,0.63-0.994,0.63-1.694s-0.21-1.265-0.63-1.694s-0.952-0.644-1.596-0.644s-1.176,0.215-1.596,0.644
	c-0.411,0.429-0.616,0.994-0.616,1.694s0.205,1.265,0.616,1.694C394.87,330.385,395.402,330.6,396.046,330.6z M408.459,324.524V332
	h-1.75v-5.992h-2.8l-0.07,1.484c-0.047,0.989-0.14,1.82-0.28,2.492c-0.131,0.663-0.359,1.19-0.686,1.582
	c-0.317,0.383-0.756,0.574-1.316,0.574c-0.261,0-0.583-0.051-0.966-0.154l0.084-1.47c0.131,0.028,0.243,0.042,0.336,0.042
	c0.355,0,0.621-0.14,0.798-0.42c0.177-0.289,0.289-0.63,0.336-1.022c0.056-0.401,0.103-0.971,0.14-1.708l0.126-2.884H408.459z
	 M414.148,332.098c-0.756,0-1.438-0.163-2.044-0.49c-0.607-0.327-1.083-0.779-1.428-1.358c-0.336-0.588-0.504-1.251-0.504-1.988
	s0.168-1.395,0.504-1.974c0.345-0.579,0.821-1.031,1.428-1.358c0.606-0.327,1.288-0.49,2.044-0.49c0.765,0,1.451,0.163,2.058,0.49
	c0.606,0.327,1.078,0.779,1.414,1.358c0.345,0.579,0.518,1.237,0.518,1.974s-0.173,1.4-0.518,1.988
	c-0.336,0.579-0.808,1.031-1.414,1.358C415.599,331.935,414.913,332.098,414.148,332.098z M414.148,330.6
	c0.644,0,1.176-0.215,1.596-0.644c0.42-0.429,0.63-0.994,0.63-1.694s-0.21-1.265-0.63-1.694s-0.952-0.644-1.596-0.644
	s-1.176,0.215-1.596,0.644c-0.411,0.429-0.616,0.994-0.616,1.694s0.205,1.265,0.616,1.694
	C412.972,330.385,413.504,330.6,414.148,330.6z M425.606,326.008h-3.99V332h-1.75v-7.476h5.74V326.008z M426.88,324.524h1.75v4.928
	l4.13-4.928h1.596V332h-1.75v-4.928L428.49,332h-1.61V324.524z M443.024,324.524V332h-1.568v-2.254h-1.974L437.956,332h-1.876
	l1.764-2.492c-0.541-0.187-0.956-0.471-1.246-0.854c-0.28-0.392-0.42-0.873-0.42-1.442c0-0.859,0.304-1.521,0.91-1.988
	c0.607-0.467,1.442-0.7,2.506-0.7H443.024z M439.65,325.994c-1.129,0-1.694,0.425-1.694,1.274c0,0.84,0.546,1.26,1.638,1.26h1.862
	v-2.534H439.65z M450.955,334.716c-0.55-0.849-0.975-1.834-1.274-2.954c-0.289-1.12-0.434-2.319-0.434-3.598
	s0.145-2.478,0.434-3.598c0.299-1.129,0.724-2.114,1.274-2.954h1.666c-0.569,1.008-0.989,2.049-1.26,3.122
	c-0.261,1.064-0.392,2.207-0.392,3.43s0.131,2.371,0.392,3.444c0.271,1.064,0.691,2.1,1.26,3.108H450.955z M462.977,322.2v9.8
	h-1.792v-8.26h-5.082V332h-1.792v-9.8H462.977z M468.946,332.098c-0.775,0-1.47-0.163-2.086-0.49s-1.097-0.779-1.442-1.358
	c-0.345-0.588-0.518-1.251-0.518-1.988s0.173-1.395,0.518-1.974s0.821-1.031,1.428-1.358c0.616-0.327,1.316-0.49,2.1-0.49
	c0.737,0,1.381,0.149,1.932,0.448c0.56,0.299,0.98,0.728,1.26,1.288l-1.344,0.784c-0.215-0.345-0.485-0.602-0.812-0.77
	c-0.317-0.177-0.667-0.266-1.05-0.266c-0.653,0-1.195,0.215-1.624,0.644c-0.429,0.42-0.644,0.985-0.644,1.694s0.21,1.279,0.63,1.708
	c0.429,0.42,0.975,0.63,1.638,0.63c0.383,0,0.733-0.084,1.05-0.252c0.327-0.177,0.597-0.439,0.812-0.784l1.344,0.784
	c-0.289,0.56-0.714,0.994-1.274,1.302C470.313,331.949,469.674,332.098,468.946,332.098z M473.679,324.524h1.75v4.928l4.13-4.928
	h1.596V332h-1.75v-4.928L475.289,332h-1.61L473.679,324.524L473.679,324.524z M488.185,332l-1.918-2.59l-1.932,2.59h-1.932
	l2.912-3.794l-2.786-3.682h1.946l1.834,2.45l1.834-2.45h1.89l-2.8,3.654l2.926,3.822L488.185,332L488.185,332z M494.497,332.098
	c-0.756,0-1.437-0.163-2.044-0.49c-0.606-0.327-1.082-0.779-1.428-1.358c-0.336-0.588-0.504-1.251-0.504-1.988
	s0.168-1.395,0.504-1.974c0.346-0.579,0.822-1.031,1.428-1.358c0.607-0.327,1.288-0.49,2.044-0.49c0.766,0,1.452,0.163,2.058,0.49
	c0.607,0.327,1.078,0.779,1.414,1.358c0.346,0.579,0.518,1.237,0.518,1.974s-0.172,1.4-0.518,1.988
	c-0.336,0.579-0.807,1.031-1.414,1.358C495.949,331.935,495.263,332.098,494.497,332.098z M494.497,330.6
	c0.644,0,1.176-0.215,1.596-0.644c0.42-0.429,0.63-0.994,0.63-1.694s-0.21-1.265-0.63-1.694s-0.952-0.644-1.596-0.644
	s-1.176,0.215-1.596,0.644c-0.41,0.429-0.616,0.994-0.616,1.694s0.206,1.265,0.616,1.694
	C493.321,330.385,493.853,330.6,494.497,330.6z M503.618,332.098c-0.775,0-1.47-0.163-2.086-0.49s-1.097-0.779-1.442-1.358
	c-0.345-0.588-0.518-1.251-0.518-1.988s0.173-1.395,0.518-1.974s0.821-1.031,1.428-1.358c0.616-0.327,1.316-0.49,2.1-0.49
	c0.737,0,1.381,0.149,1.932,0.448c0.56,0.299,0.98,0.728,1.26,1.288l-1.344,0.784c-0.215-0.345-0.485-0.602-0.812-0.77
	c-0.317-0.177-0.667-0.266-1.05-0.266c-0.653,0-1.195,0.215-1.624,0.644c-0.429,0.42-0.644,0.985-0.644,1.694s0.21,1.279,0.63,1.708
	c0.429,0.42,0.975,0.63,1.638,0.63c0.383,0,0.733-0.084,1.05-0.252c0.327-0.177,0.597-0.439,0.812-0.784l1.344,0.784
	c-0.289,0.56-0.714,0.994-1.274,1.302C504.985,331.949,504.346,332.098,503.618,332.098z M511.573,332.098
	c-0.756,0-1.437-0.163-2.044-0.49c-0.606-0.327-1.082-0.779-1.428-1.358c-0.336-0.588-0.504-1.251-0.504-1.988
	s0.168-1.395,0.504-1.974c0.346-0.579,0.822-1.031,1.428-1.358c0.607-0.327,1.288-0.49,2.044-0.49c0.766,0,1.452,0.163,2.058,0.49
	c0.607,0.327,1.078,0.779,1.414,1.358c0.346,0.579,0.518,1.237,0.518,1.974s-0.172,1.4-0.518,1.988
	c-0.336,0.579-0.807,1.031-1.414,1.358C513.025,331.935,512.339,332.098,511.573,332.098z M511.573,330.6
	c0.644,0,1.176-0.215,1.596-0.644c0.42-0.429,0.63-0.994,0.63-1.694s-0.21-1.265-0.63-1.694s-0.952-0.644-1.596-0.644
	c-0.644,0-1.176,0.215-1.596,0.644c-0.41,0.429-0.616,0.994-0.616,1.694s0.206,1.265,0.616,1.694
	C510.397,330.385,510.929,330.6,511.573,330.6z M524.642,332v-4.956l-2.52,4.172h-0.756l-2.478-4.186V332h-1.596v-7.476h1.834
	l2.66,4.676l2.786-4.676h1.638l0.014,7.476H524.642z M531.358,324.44c1.101,0,1.941,0.266,2.52,0.798
	c0.588,0.523,0.882,1.316,0.882,2.38V332h-1.652v-0.91c-0.215,0.327-0.523,0.579-0.924,0.756c-0.392,0.168-0.868,0.252-1.428,0.252
	s-1.05-0.093-1.47-0.28c-0.42-0.196-0.747-0.462-0.98-0.798c-0.224-0.345-0.336-0.733-0.336-1.162c0-0.672,0.247-1.209,0.742-1.61
	c0.504-0.411,1.292-0.616,2.366-0.616h1.932v-0.112c0-0.523-0.159-0.924-0.476-1.204c-0.308-0.28-0.77-0.42-1.386-0.42
	c-0.42,0-0.836,0.065-1.246,0.196c-0.402,0.131-0.742,0.313-1.022,0.546l-0.686-1.274c0.392-0.299,0.863-0.527,1.414-0.686
	C530.158,324.519,530.742,324.44,531.358,324.44z M531.12,330.824c0.438,0,0.826-0.098,1.162-0.294
	c0.345-0.205,0.588-0.495,0.728-0.868v-0.868h-1.806c-1.008,0-1.512,0.331-1.512,0.994c0,0.317,0.126,0.569,0.378,0.756
	C530.322,330.731,530.672,330.824,531.12,330.824z M542.847,326.008h-2.618V332h-1.75v-5.992h-2.632v-1.484h7V326.008z
	 M544.116,324.524h1.75v4.928l4.13-4.928h1.596V332h-1.75v-4.928L545.726,332h-1.61V324.524z M557.055,329.004h-1.358V332h-1.75
	v-7.476h1.75v3.024h1.4l2.212-3.024h1.876l-2.716,3.598l2.898,3.878h-2.058L557.055,329.004z M565.25,324.44
	c1.101,0,1.941,0.266,2.52,0.798c0.588,0.523,0.882,1.316,0.882,2.38V332H567v-0.91c-0.215,0.327-0.523,0.579-0.924,0.756
	c-0.392,0.168-0.868,0.252-1.428,0.252s-1.05-0.093-1.47-0.28c-0.42-0.196-0.747-0.462-0.98-0.798
	c-0.224-0.345-0.336-0.733-0.336-1.162c0-0.672,0.247-1.209,0.742-1.61c0.504-0.411,1.293-0.616,2.366-0.616h1.932v-0.112
	c0-0.523-0.159-0.924-0.476-1.204c-0.308-0.28-0.77-0.42-1.386-0.42c-0.42,0-0.835,0.065-1.246,0.196
	c-0.401,0.131-0.742,0.313-1.022,0.546l-0.686-1.274c0.392-0.299,0.863-0.527,1.414-0.686S564.634,324.44,565.25,324.44z
	 M565.012,330.824c0.439,0,0.826-0.098,1.162-0.294c0.345-0.205,0.588-0.495,0.728-0.868v-0.868h-1.806
	c-1.008,0-1.512,0.331-1.512,0.994c0,0.317,0.126,0.569,0.378,0.756S564.564,330.824,565.012,330.824z M569.95,334.716
	c0.569-1.008,0.989-2.049,1.26-3.122c0.27-1.073,0.406-2.217,0.406-3.43s-0.136-2.357-0.406-3.43
	c-0.271-1.073-0.691-2.114-1.26-3.122h1.666c0.55,0.831,0.97,1.811,1.26,2.94c0.298,1.12,0.448,2.324,0.448,3.612
	s-0.15,2.492-0.448,3.612c-0.29,1.111-0.71,2.091-1.26,2.94H569.95z M354.661,347.46V349h-7.224v-1.218l3.892-3.696
	c0.439-0.42,0.733-0.784,0.882-1.092c0.159-0.317,0.238-0.63,0.238-0.938c0-0.457-0.154-0.807-0.462-1.05
	c-0.308-0.243-0.76-0.364-1.358-0.364c-0.998,0-1.764,0.341-2.296,1.022l-1.274-0.98c0.383-0.513,0.896-0.91,1.54-1.19
	c0.654-0.289,1.382-0.434,2.184-0.434c1.064,0,1.914,0.252,2.548,0.756c0.635,0.504,0.952,1.19,0.952,2.058
	c0,0.532-0.112,1.031-0.336,1.498c-0.224,0.467-0.653,0.999-1.288,1.596l-2.618,2.492L354.661,347.46L354.661,347.46z
	 M356.94,349.098c-0.317,0-0.588-0.107-0.812-0.322c-0.224-0.224-0.336-0.504-0.336-0.84c0-0.345,0.108-0.625,0.322-0.84
	c0.224-0.215,0.5-0.322,0.826-0.322c0.327,0,0.598,0.107,0.812,0.322c0.224,0.215,0.336,0.495,0.336,0.84
	c0,0.336-0.112,0.616-0.336,0.84C357.528,348.991,357.258,349.098,356.94,349.098z M366.804,339.06c0.952,0,1.806,0.219,2.562,0.658
	c0.765,0.429,1.362,1.027,1.792,1.792c0.429,0.765,0.644,1.629,0.644,2.59s-0.215,1.825-0.644,2.59
	c-0.43,0.765-1.027,1.367-1.792,1.806c-0.756,0.429-1.61,0.644-2.562,0.644c-0.831,0-1.587-0.14-2.268-0.42
	c-0.672-0.28-1.232-0.686-1.68-1.218l1.148-1.12c0.718,0.775,1.619,1.162,2.702,1.162c0.84,0,1.549-0.257,2.128-0.77
	c0.588-0.513,0.947-1.19,1.078-2.03h-4.382v-1.442h4.354c-0.159-0.793-0.528-1.433-1.106-1.918c-0.57-0.485-1.26-0.728-2.072-0.728
	c-1.083,0-1.984,0.387-2.702,1.162l-1.148-1.12c0.448-0.532,1.008-0.938,1.68-1.218C365.217,339.2,365.973,339.06,366.804,339.06z
	 M380.985,349v-4.956l-2.52,4.172h-0.756l-2.478-4.186V349h-1.596v-7.476h1.834l2.66,4.676l2.786-4.676h1.638l0.014,7.476H380.985z
	 M388.246,349.098c-0.756,0-1.437-0.163-2.044-0.49c-0.606-0.327-1.082-0.779-1.428-1.358c-0.336-0.588-0.504-1.251-0.504-1.988
	s0.168-1.395,0.504-1.974c0.346-0.579,0.822-1.031,1.428-1.358c0.607-0.327,1.288-0.49,2.044-0.49c0.766,0,1.452,0.163,2.058,0.49
	c0.607,0.327,1.078,0.779,1.414,1.358c0.346,0.579,0.518,1.237,0.518,1.974s-0.172,1.4-0.518,1.988
	c-0.336,0.579-0.807,1.031-1.414,1.358C389.698,348.935,389.012,349.098,388.246,349.098z M388.246,347.6
	c0.644,0,1.176-0.215,1.596-0.644c0.42-0.429,0.63-0.994,0.63-1.694s-0.21-1.265-0.63-1.694s-0.952-0.644-1.596-0.644
	s-1.176,0.215-1.596,0.644c-0.41,0.429-0.616,0.994-0.616,1.694s0.206,1.265,0.616,1.694
	C387.07,347.385,387.602,347.6,388.246,347.6z M402.169,347.516v3.206h-1.638V349h-6.566v-7.476h1.75v5.992h3.57v-5.992h1.75v5.992
	H402.169z M403.727,341.524h1.75v4.928l4.13-4.928h1.596V349h-1.75v-4.928L405.337,349h-1.61L403.727,341.524L403.727,341.524z
	 M416.889,349.098c-0.756,0-1.437-0.163-2.044-0.49s-1.083-0.779-1.428-1.358c-0.336-0.588-0.504-1.251-0.504-1.988
	s0.168-1.395,0.504-1.974c0.345-0.579,0.821-1.031,1.428-1.358s1.288-0.49,2.044-0.49c0.765,0,1.451,0.163,2.058,0.49
	s1.078,0.779,1.414,1.358c0.345,0.579,0.518,1.237,0.518,1.974s-0.173,1.4-0.518,1.988c-0.336,0.579-0.807,1.031-1.414,1.358
	S417.654,349.098,416.889,349.098z M416.889,347.6c0.644,0,1.176-0.215,1.596-0.644c0.42-0.429,0.63-0.994,0.63-1.694
	s-0.21-1.265-0.63-1.694s-0.952-0.644-1.596-0.644s-1.176,0.215-1.596,0.644c-0.411,0.429-0.616,0.994-0.616,1.694
	s0.205,1.265,0.616,1.694C415.713,347.385,416.245,347.6,416.889,347.6z M422.608,341.524h1.75v3.038h3.766v-3.038h1.75V349h-1.75
	v-2.954h-3.766V349h-1.75V341.524z M435.005,341.44c1.101,0,1.941,0.266,2.52,0.798c0.588,0.523,0.882,1.316,0.882,2.38V349h-1.652
	v-0.91c-0.215,0.327-0.523,0.579-0.924,0.756c-0.392,0.168-0.868,0.252-1.428,0.252s-1.05-0.093-1.47-0.28
	c-0.42-0.196-0.747-0.462-0.98-0.798c-0.224-0.345-0.336-0.733-0.336-1.162c0-0.672,0.247-1.209,0.742-1.61
	c0.504-0.411,1.293-0.616,2.366-0.616h1.932v-0.112c0-0.523-0.159-0.924-0.476-1.204c-0.308-0.28-0.77-0.42-1.386-0.42
	c-0.42,0-0.835,0.065-1.246,0.196c-0.401,0.131-0.742,0.313-1.022,0.546l-0.686-1.274c0.392-0.299,0.863-0.527,1.414-0.686
	S434.389,341.44,435.005,341.44z M434.767,347.824c0.439,0,0.826-0.098,1.162-0.294c0.345-0.205,0.588-0.495,0.728-0.868v-0.868
	h-1.806c-1.008,0-1.512,0.331-1.512,0.994c0,0.317,0.126,0.569,0.378,0.756C433.969,347.731,434.319,347.824,434.767,347.824z
	 M447.348,341.524V349h-1.75v-5.992h-2.8l-0.07,1.484c-0.046,0.989-0.14,1.82-0.28,2.492c-0.13,0.663-0.359,1.19-0.686,1.582
	c-0.317,0.383-0.756,0.574-1.316,0.574c-0.261,0-0.583-0.051-0.966-0.154l0.084-1.47c0.131,0.028,0.243,0.042,0.336,0.042
	c0.355,0,0.621-0.14,0.798-0.42c0.178-0.289,0.29-0.63,0.336-1.022c0.056-0.401,0.103-0.971,0.14-1.708l0.126-2.884H447.348z
	 M453.457,343.988c0.952,0,1.68,0.215,2.184,0.644c0.514,0.429,0.77,1.036,0.77,1.82c0,0.821-0.28,1.456-0.84,1.904
	s-1.348,0.667-2.366,0.658l-3.5-0.014v-7.476h1.75v2.45L453.457,343.988z M453.051,347.726c0.514,0.009,0.906-0.098,1.176-0.322
	c0.271-0.224,0.406-0.551,0.406-0.98c0-0.42-0.13-0.728-0.392-0.924c-0.261-0.196-0.658-0.299-1.19-0.308l-1.596-0.014v2.534
	L453.051,347.726z M457.949,341.524h1.75v3.038h3.766v-3.038h1.75V349h-1.75v-2.954h-3.766V349h-1.75V341.524z M470.893,349.098
	c-0.756,0-1.438-0.163-2.044-0.49c-0.607-0.327-1.083-0.779-1.428-1.358c-0.336-0.588-0.504-1.251-0.504-1.988
	s0.168-1.395,0.504-1.974c0.345-0.579,0.821-1.031,1.428-1.358c0.606-0.327,1.288-0.49,2.044-0.49c0.765,0,1.451,0.163,2.058,0.49
	c0.606,0.327,1.078,0.779,1.414,1.358c0.345,0.579,0.518,1.237,0.518,1.974s-0.173,1.4-0.518,1.988
	c-0.336,0.579-0.808,1.031-1.414,1.358C472.344,348.935,471.658,349.098,470.893,349.098z M470.893,347.6
	c0.644,0,1.176-0.215,1.596-0.644c0.42-0.429,0.63-0.994,0.63-1.694s-0.21-1.265-0.63-1.694s-0.952-0.644-1.596-0.644
	s-1.176,0.215-1.596,0.644c-0.411,0.429-0.616,0.994-0.616,1.694s0.205,1.265,0.616,1.694
	C469.717,347.385,470.249,347.6,470.893,347.6z M483.612,345.304c0,0.121-0.01,0.294-0.028,0.518h-5.866
	c0.102,0.551,0.368,0.989,0.798,1.316c0.438,0.317,0.98,0.476,1.624,0.476c0.821,0,1.498-0.271,2.03-0.812l0.938,1.078
	c-0.336,0.401-0.761,0.705-1.274,0.91c-0.514,0.205-1.092,0.308-1.736,0.308c-0.822,0-1.545-0.163-2.17-0.49
	c-0.626-0.327-1.111-0.779-1.456-1.358c-0.336-0.588-0.504-1.251-0.504-1.988c0-0.728,0.163-1.381,0.49-1.96
	c0.336-0.588,0.798-1.045,1.386-1.372c0.588-0.327,1.25-0.49,1.988-0.49c0.728,0,1.376,0.163,1.946,0.49
	c0.578,0.317,1.026,0.77,1.344,1.358C483.448,343.867,483.612,344.539,483.612,345.304z M479.832,342.84
	c-0.56,0-1.036,0.168-1.428,0.504c-0.383,0.327-0.616,0.765-0.7,1.316h4.242c-0.075-0.541-0.304-0.98-0.686-1.316
	C480.877,343.008,480.401,342.84,479.832,342.84z M492.797,349.098c-0.775,0-1.47-0.163-2.086-0.49s-1.097-0.779-1.442-1.358
	c-0.346-0.588-0.518-1.251-0.518-1.988s0.172-1.395,0.518-1.974c0.345-0.579,0.821-1.031,1.428-1.358
	c0.616-0.327,1.316-0.49,2.1-0.49c0.737,0,1.381,0.149,1.932,0.448c0.56,0.299,0.98,0.728,1.26,1.288l-1.344,0.784
	c-0.215-0.345-0.486-0.602-0.812-0.77c-0.318-0.177-0.668-0.266-1.05-0.266c-0.654,0-1.195,0.215-1.624,0.644
	c-0.43,0.42-0.644,0.985-0.644,1.694s0.21,1.279,0.63,1.708c0.429,0.42,0.975,0.63,1.638,0.63c0.382,0,0.732-0.084,1.05-0.252
	c0.326-0.177,0.597-0.439,0.812-0.784l1.344,0.784c-0.29,0.56-0.714,0.994-1.274,1.302
	C494.164,348.949,493.525,349.098,492.797,349.098z M500.752,349.098c-0.756,0-1.437-0.163-2.044-0.49s-1.083-0.779-1.428-1.358
	c-0.336-0.588-0.504-1.251-0.504-1.988s0.168-1.395,0.504-1.974c0.345-0.579,0.821-1.031,1.428-1.358s1.288-0.49,2.044-0.49
	c0.765,0,1.451,0.163,2.058,0.49s1.078,0.779,1.414,1.358c0.345,0.579,0.518,1.237,0.518,1.974s-0.173,1.4-0.518,1.988
	c-0.336,0.579-0.807,1.031-1.414,1.358S501.517,349.098,500.752,349.098z M500.752,347.6c0.644,0,1.176-0.215,1.596-0.644
	c0.42-0.429,0.63-0.994,0.63-1.694s-0.21-1.265-0.63-1.694s-0.952-0.644-1.596-0.644s-1.176,0.215-1.596,0.644
	c-0.411,0.429-0.616,0.994-0.616,1.694s0.205,1.265,0.616,1.694C499.576,347.385,500.108,347.6,500.752,347.6z M509.873,349.098
	c-0.775,0-1.47-0.163-2.086-0.49s-1.097-0.779-1.442-1.358c-0.345-0.588-0.518-1.251-0.518-1.988s0.173-1.395,0.518-1.974
	s0.821-1.031,1.428-1.358c0.616-0.327,1.316-0.49,2.1-0.49c0.737,0,1.381,0.149,1.932,0.448c0.56,0.299,0.98,0.728,1.26,1.288
	l-1.344,0.784c-0.215-0.345-0.485-0.602-0.812-0.77c-0.317-0.177-0.667-0.266-1.05-0.266c-0.653,0-1.195,0.215-1.624,0.644
	c-0.429,0.42-0.644,0.985-0.644,1.694s0.21,1.279,0.63,1.708c0.429,0.42,0.975,0.63,1.638,0.63c0.383,0,0.733-0.084,1.05-0.252
	c0.327-0.177,0.597-0.439,0.812-0.784l1.344,0.784c-0.289,0.56-0.714,0.994-1.274,1.302
	C511.24,348.949,510.601,349.098,509.873,349.098z M520.459,343.008h-2.618V349h-1.75v-5.992h-2.632v-1.484h7V343.008z
	 M524.733,349.098c-0.756,0-1.438-0.163-2.044-0.49c-0.607-0.327-1.083-0.779-1.428-1.358c-0.336-0.588-0.504-1.251-0.504-1.988
	s0.168-1.395,0.504-1.974c0.345-0.579,0.821-1.031,1.428-1.358c0.606-0.327,1.288-0.49,2.044-0.49c0.765,0,1.451,0.163,2.058,0.49
	c0.606,0.327,1.078,0.779,1.414,1.358c0.345,0.579,0.518,1.237,0.518,1.974s-0.173,1.4-0.518,1.988
	c-0.336,0.579-0.808,1.031-1.414,1.358C526.184,348.935,525.498,349.098,524.733,349.098z M524.733,347.6
	c0.644,0,1.176-0.215,1.596-0.644c0.42-0.429,0.63-0.994,0.63-1.694s-0.21-1.265-0.63-1.694s-0.952-0.644-1.596-0.644
	s-1.176,0.215-1.596,0.644c-0.411,0.429-0.616,0.994-0.616,1.694s0.205,1.265,0.616,1.694
	C523.557,347.385,524.089,347.6,524.733,347.6z M536.519,341.524V349h-1.568v-2.254h-1.974L531.451,349h-1.876l1.764-2.492
	c-0.541-0.187-0.956-0.471-1.246-0.854c-0.28-0.392-0.42-0.873-0.42-1.442c0-0.859,0.304-1.521,0.91-1.988
	c0.607-0.467,1.442-0.7,2.506-0.7H536.519z M533.145,342.994c-1.129,0-1.694,0.425-1.694,1.274c0,0.84,0.546,1.26,1.638,1.26h1.862
	v-2.534H533.145z M538.873,341.524h1.75v3.038h3.766v-3.038h1.75V349h-1.75v-2.954h-3.766V349h-1.75V341.524z M548.485,341.524h1.75
	v4.928l4.13-4.928h1.596V349h-1.75v-4.928L550.095,349h-1.61V341.524z M565.315,345.304c0,0.121-0.01,0.294-0.028,0.518h-5.866
	c0.102,0.551,0.368,0.989,0.798,1.316c0.438,0.317,0.98,0.476,1.624,0.476c0.821,0,1.498-0.271,2.03-0.812l0.938,1.078
	c-0.336,0.401-0.761,0.705-1.274,0.91c-0.514,0.205-1.092,0.308-1.736,0.308c-0.822,0-1.545-0.163-2.17-0.49
	c-0.626-0.327-1.111-0.779-1.456-1.358c-0.336-0.588-0.504-1.251-0.504-1.988c0-0.728,0.163-1.381,0.49-1.96
	c0.336-0.588,0.798-1.045,1.386-1.372s1.25-0.49,1.988-0.49c0.728,0,1.376,0.163,1.946,0.49c0.578,0.317,1.026,0.77,1.344,1.358
	C565.151,343.867,565.315,344.539,565.315,345.304z M561.535,342.84c-0.56,0-1.036,0.168-1.428,0.504
	c-0.383,0.327-0.616,0.765-0.7,1.316h4.242c-0.075-0.541-0.304-0.98-0.686-1.316C562.58,343.008,562.104,342.84,561.535,342.84z"/>
<path fill="#FF825C" d="M778,80h51c41.421,0,75,33.579,75,75l0,0c0,41.421-33.579,75-75,75h-51c-41.421,0-75-33.579-75-75l0,0
	C703,113.579,736.579,80,778,80z"/>
<path fill="#FFFFFF" d="M772.317,145.89c0.588,0.187,1.045,0.49,1.372,0.91c0.336,0.411,0.504,0.896,0.504,1.456
	c0,0.588-0.191,1.101-0.574,1.54c-0.383,0.429-0.896,0.761-1.54,0.994c-0.635,0.233-1.33,0.35-2.086,0.35
	c-0.653,0-1.311-0.089-1.974-0.266c-0.653-0.187-1.26-0.462-1.82-0.826l0.588-1.33c0.429,0.289,0.905,0.513,1.428,0.672
	c0.523,0.149,1.041,0.224,1.554,0.224c0.737,0,1.349-0.145,1.834-0.434c0.495-0.289,0.742-0.686,0.742-1.19
	c0-0.429-0.177-0.756-0.532-0.98s-0.845-0.336-1.47-0.336h-2.282v-1.428h2.142c0.541,0,0.966-0.112,1.274-0.336
	s0.462-0.527,0.462-0.91c0-0.457-0.21-0.812-0.63-1.064c-0.411-0.252-0.938-0.378-1.582-0.378c-0.439,0-0.891,0.065-1.358,0.196
	c-0.467,0.121-0.905,0.303-1.316,0.546l-0.574-1.47c0.504-0.271,1.036-0.471,1.596-0.602c0.569-0.14,1.134-0.21,1.694-0.21
	c0.728,0,1.395,0.112,2.002,0.336c0.616,0.224,1.106,0.546,1.47,0.966c0.364,0.411,0.546,0.896,0.546,1.456
	c0,0.485-0.131,0.91-0.392,1.274C773.134,145.414,772.774,145.694,772.317,145.89z M778.847,143.44c1.101,0,1.941,0.266,2.52,0.798
	c0.588,0.523,0.882,1.316,0.882,2.38V151h-1.652v-0.91c-0.215,0.327-0.523,0.579-0.924,0.756c-0.392,0.168-0.868,0.252-1.428,0.252
	s-1.05-0.093-1.47-0.28c-0.42-0.196-0.747-0.462-0.98-0.798c-0.224-0.345-0.336-0.733-0.336-1.162c0-0.672,0.247-1.209,0.742-1.61
	c0.504-0.411,1.292-0.616,2.366-0.616h1.932v-0.112c0-0.523-0.159-0.924-0.476-1.204c-0.308-0.28-0.77-0.42-1.386-0.42
	c-0.42,0-0.836,0.065-1.246,0.196c-0.402,0.131-0.742,0.313-1.022,0.546l-0.686-1.274c0.392-0.299,0.863-0.527,1.414-0.686
	C777.647,143.519,778.231,143.44,778.847,143.44z M778.609,149.824c0.438,0,0.826-0.098,1.162-0.294
	c0.345-0.205,0.588-0.495,0.728-0.868v-0.868h-1.806c-1.008,0-1.512,0.331-1.512,0.994c0,0.317,0.126,0.569,0.378,0.756
	S778.161,149.824,778.609,149.824z M795.432,143.524V151h-11.018v-7.476h1.75v5.992h2.898v-5.992h1.75v5.992h2.87v-5.992H795.432z
	 M796.51,149.516v3.024h-1.638V151h-1.246v-1.484H796.51z M797.785,143.524h1.75v4.928l4.13-4.928h1.596V151h-1.75v-4.928
	L799.395,151h-1.61L797.785,143.524L797.785,143.524z M813.537,145.008h-2.618V151h-1.75v-5.992h-2.632v-1.484h7V145.008z
	 M814.807,143.524h1.75v3.038h3.766v-3.038h1.75V151h-1.75v-2.954h-3.766V151h-1.75V143.524z M827.75,151.098
	c-0.756,0-1.437-0.163-2.044-0.49c-0.606-0.327-1.082-0.779-1.428-1.358c-0.336-0.588-0.504-1.251-0.504-1.988
	s0.168-1.395,0.504-1.974c0.346-0.579,0.822-1.031,1.428-1.358c0.607-0.327,1.288-0.49,2.044-0.49c0.766,0,1.452,0.163,2.058,0.49
	c0.607,0.327,1.078,0.779,1.414,1.358c0.346,0.579,0.518,1.237,0.518,1.974s-0.172,1.4-0.518,1.988
	c-0.336,0.579-0.807,1.031-1.414,1.358C829.202,150.935,828.516,151.098,827.75,151.098z M827.75,149.6
	c0.644,0,1.176-0.215,1.596-0.644s0.63-0.994,0.63-1.694s-0.21-1.265-0.63-1.694s-0.952-0.644-1.596-0.644s-1.176,0.215-1.596,0.644
	c-0.41,0.429-0.616,0.994-0.616,1.694s0.206,1.265,0.616,1.694C826.574,149.385,827.106,149.6,827.75,149.6z M840.469,147.304
	c0,0.121-0.009,0.294-0.028,0.518h-5.866c0.103,0.551,0.369,0.989,0.798,1.316c0.439,0.317,0.98,0.476,1.624,0.476
	c0.821,0,1.498-0.271,2.03-0.812l0.938,1.078c-0.336,0.401-0.761,0.705-1.274,0.91s-1.092,0.308-1.736,0.308
	c-0.821,0-1.545-0.163-2.17-0.49s-1.111-0.779-1.456-1.358c-0.336-0.588-0.504-1.251-0.504-1.988c0-0.728,0.163-1.381,0.49-1.96
	c0.336-0.588,0.798-1.045,1.386-1.372s1.251-0.49,1.988-0.49c0.728,0,1.377,0.163,1.946,0.49c0.579,0.317,1.027,0.77,1.344,1.358
	C840.306,145.867,840.469,146.539,840.469,147.304z M836.689,144.84c-0.56,0-1.036,0.168-1.428,0.504
	c-0.383,0.327-0.616,0.765-0.7,1.316h4.242c-0.075-0.541-0.303-0.98-0.686-1.316S837.258,144.84,836.689,144.84z M770.405,160.524
	V168h-1.736v-5.992h-3.682V168h-1.75v-7.476H770.405z M776.098,168.098c-0.756,0-1.437-0.163-2.044-0.49s-1.083-0.779-1.428-1.358
	c-0.336-0.588-0.504-1.251-0.504-1.988s0.168-1.395,0.504-1.974c0.345-0.579,0.821-1.031,1.428-1.358s1.288-0.49,2.044-0.49
	c0.765,0,1.451,0.163,2.058,0.49c0.607,0.327,1.078,0.779,1.414,1.358c0.345,0.579,0.518,1.237,0.518,1.974s-0.173,1.4-0.518,1.988
	c-0.336,0.579-0.807,1.031-1.414,1.358S776.863,168.098,776.098,168.098z M776.098,166.6c0.644,0,1.176-0.215,1.596-0.644
	s0.63-0.994,0.63-1.694s-0.21-1.265-0.63-1.694s-0.952-0.644-1.596-0.644s-1.176,0.215-1.596,0.644
	c-0.411,0.429-0.616,0.994-0.616,1.694s0.205,1.265,0.616,1.694C774.922,166.385,775.454,166.6,776.098,166.6z M787.235,164.108
	c0.924,0.28,1.386,0.877,1.386,1.792c0,0.672-0.252,1.19-0.756,1.554c-0.504,0.364-1.251,0.546-2.24,0.546h-3.808v-7.476h3.654
	c0.914,0,1.628,0.168,2.142,0.504c0.513,0.336,0.77,0.812,0.77,1.428c0,0.383-0.103,0.714-0.308,0.994
	C787.879,163.73,787.599,163.949,787.235,164.108z M783.483,163.646h1.834c0.905,0,1.358-0.313,1.358-0.938
	c0-0.607-0.453-0.91-1.358-0.91h-1.834V163.646z M785.485,166.726c0.961,0,1.442-0.313,1.442-0.938c0-0.327-0.112-0.569-0.336-0.728
	c-0.224-0.168-0.574-0.252-1.05-0.252h-2.058v1.918H785.485z M797.485,164.304c0,0.121-0.01,0.294-0.028,0.518h-5.866
	c0.102,0.551,0.368,0.989,0.798,1.316c0.438,0.317,0.98,0.476,1.624,0.476c0.821,0,1.498-0.271,2.03-0.812l0.938,1.078
	c-0.336,0.401-0.761,0.705-1.274,0.91c-0.514,0.205-1.092,0.308-1.736,0.308c-0.822,0-1.545-0.163-2.17-0.49
	c-0.626-0.327-1.111-0.779-1.456-1.358c-0.336-0.588-0.504-1.251-0.504-1.988c0-0.728,0.163-1.381,0.49-1.96
	c0.336-0.588,0.798-1.045,1.386-1.372s1.25-0.49,1.988-0.49c0.728,0,1.376,0.163,1.946,0.49c0.578,0.317,1.026,0.77,1.344,1.358
	C797.321,162.867,797.485,163.539,797.485,164.304z M793.705,161.84c-0.56,0-1.036,0.168-1.428,0.504
	c-0.383,0.327-0.616,0.765-0.7,1.316h4.242c-0.075-0.541-0.304-0.98-0.686-1.316C794.75,162.008,794.274,161.84,793.705,161.84z
	 M807.283,166.516v3.15h-1.638V168h-5.768v1.666h-1.624v-3.15h0.35c0.476-0.019,0.798-0.322,0.966-0.91
	c0.177-0.597,0.294-1.437,0.35-2.52l0.098-2.562h6.16v5.992H807.283z M801.515,163.212c-0.037,0.859-0.107,1.559-0.21,2.1
	s-0.289,0.943-0.56,1.204h3.682v-4.508h-2.87L801.515,163.212z M815.846,164.304c0,0.121-0.009,0.294-0.028,0.518h-5.866
	c0.103,0.551,0.369,0.989,0.798,1.316c0.439,0.317,0.98,0.476,1.624,0.476c0.821,0,1.498-0.271,2.03-0.812l0.938,1.078
	c-0.336,0.401-0.761,0.705-1.274,0.91s-1.092,0.308-1.736,0.308c-0.821,0-1.545-0.163-2.17-0.49s-1.111-0.779-1.456-1.358
	c-0.336-0.588-0.504-1.251-0.504-1.988c0-0.728,0.163-1.381,0.49-1.96c0.336-0.588,0.798-1.045,1.386-1.372s1.251-0.49,1.988-0.49
	c0.728,0,1.377,0.163,1.946,0.49c0.579,0.317,1.027,0.77,1.344,1.358C815.683,162.867,815.846,163.539,815.846,164.304z
	 M812.066,161.84c-0.56,0-1.036,0.168-1.428,0.504c-0.383,0.327-0.616,0.765-0.7,1.316h4.242c-0.075-0.541-0.303-0.98-0.686-1.316
	S812.635,161.84,812.066,161.84z M817.76,160.524h1.75v3.038h3.766v-3.038h1.75V168h-1.75v-2.954h-3.766V168h-1.75V160.524z
	 M827.371,160.524h1.75v4.928l4.13-4.928h1.596V168h-1.75v-4.928L828.981,168h-1.61L827.371,160.524L827.371,160.524z
	 M844.201,164.304c0,0.121-0.009,0.294-0.028,0.518h-5.866c0.103,0.551,0.369,0.989,0.798,1.316c0.439,0.317,0.98,0.476,1.624,0.476
	c0.822,0,1.498-0.271,2.03-0.812l0.938,1.078c-0.336,0.401-0.76,0.705-1.274,0.91c-0.513,0.205-1.092,0.308-1.736,0.308
	c-0.821,0-1.544-0.163-2.17-0.49c-0.625-0.327-1.11-0.779-1.456-1.358c-0.336-0.588-0.504-1.251-0.504-1.988
	c0-0.728,0.164-1.381,0.49-1.96c0.336-0.588,0.798-1.045,1.386-1.372s1.251-0.49,1.988-0.49c0.728,0,1.377,0.163,1.946,0.49
	c0.579,0.317,1.027,0.77,1.344,1.358C844.038,162.867,844.201,163.539,844.201,164.304z M840.421,161.84
	c-0.56,0-1.036,0.168-1.428,0.504c-0.382,0.327-0.616,0.765-0.7,1.316h4.242c-0.074-0.541-0.303-0.98-0.686-1.316
	C841.467,162.008,840.991,161.84,840.421,161.84z"/>
<path fill="#FF825C" d="M53,80h105c29.271,0,53,23.729,53,53l0,0c0,29.271-23.729,53-53,53H53c-29.271,0-53-23.729-53-53l0,0
	C0,103.729,23.729,80,53,80z"/>
<path fill="#FFFFFF" d="M68.863,129l-0.014-6.496l-3.22,5.376h-0.812l-3.22-5.292V129h-1.722v-9.8h1.498l3.878,6.482l3.836-6.482
	h1.484l0.028,9.8H68.863z M76.478,129.098c-0.756,0-1.437-0.163-2.044-0.49c-0.607-0.327-1.083-0.779-1.428-1.358
	c-0.336-0.588-0.504-1.251-0.504-1.988s0.168-1.395,0.504-1.974c0.345-0.579,0.821-1.031,1.428-1.358s1.288-0.49,2.044-0.49
	c0.765,0,1.451,0.163,2.058,0.49c0.607,0.327,1.078,0.779,1.414,1.358c0.345,0.579,0.518,1.237,0.518,1.974s-0.173,1.4-0.518,1.988
	c-0.336,0.579-0.807,1.031-1.414,1.358C77.929,128.935,77.243,129.098,76.478,129.098z M76.478,127.6
	c0.644,0,1.176-0.215,1.596-0.644s0.63-0.994,0.63-1.694s-0.21-1.265-0.63-1.694s-0.952-0.644-1.596-0.644s-1.176,0.215-1.596,0.644
	c-0.411,0.429-0.616,0.994-0.616,1.694s0.205,1.265,0.616,1.694C75.302,127.385,75.834,127.6,76.478,127.6z M82.197,121.524h1.75
	v3.038h3.766v-3.038h1.75V129h-1.75v-2.954h-3.766V129h-1.75V121.524z M91.808,121.524h1.75v4.928l4.13-4.928h1.596V129h-1.75
	v-4.928L93.418,129h-1.61V121.524z M107.56,123.008h-2.618V129h-1.75v-5.992h-2.632v-1.484h7V123.008z M111.833,129.098
	c-0.756,0-1.437-0.163-2.044-0.49c-0.606-0.327-1.082-0.779-1.428-1.358c-0.336-0.588-0.504-1.251-0.504-1.988
	s0.168-1.395,0.504-1.974c0.346-0.579,0.822-1.031,1.428-1.358c0.607-0.327,1.288-0.49,2.044-0.49c0.766,0,1.452,0.163,2.058,0.49
	c0.607,0.327,1.078,0.779,1.414,1.358c0.346,0.579,0.518,1.237,0.518,1.974s-0.172,1.4-0.518,1.988
	c-0.336,0.579-0.807,1.031-1.414,1.358C113.285,128.935,112.599,129.098,111.833,129.098z M111.833,127.6
	c0.644,0,1.176-0.215,1.596-0.644s0.63-0.994,0.63-1.694s-0.21-1.265-0.63-1.694s-0.952-0.644-1.596-0.644s-1.176,0.215-1.596,0.644
	c-0.41,0.429-0.616,0.994-0.616,1.694s0.206,1.265,0.616,1.694C110.657,127.385,111.189,127.6,111.833,127.6z M121.696,121.44
	c0.728,0,1.377,0.159,1.946,0.476c0.579,0.317,1.031,0.765,1.358,1.344s0.49,1.246,0.49,2.002s-0.163,1.428-0.49,2.016
	c-0.327,0.579-0.779,1.027-1.358,1.344c-0.569,0.317-1.218,0.476-1.946,0.476c-1.008,0-1.806-0.336-2.394-1.008v3.626h-1.75v-10.192
	h1.666v0.98c0.289-0.355,0.644-0.621,1.064-0.798C120.711,121.529,121.183,121.44,121.696,121.44z M121.5,127.6
	c0.644,0,1.171-0.215,1.582-0.644c0.42-0.429,0.63-0.994,0.63-1.694s-0.21-1.265-0.63-1.694c-0.411-0.429-0.938-0.644-1.582-0.644
	c-0.42,0-0.798,0.098-1.134,0.294c-0.336,0.187-0.602,0.457-0.798,0.812c-0.196,0.355-0.294,0.765-0.294,1.232
	s0.098,0.877,0.294,1.232s0.462,0.63,0.798,0.826C120.702,127.507,121.08,127.6,121.5,127.6z M127.232,121.524h1.75v4.928
	l4.13-4.928h1.596V129h-1.75v-4.928L128.842,129h-1.61C127.232,129,127.232,121.524,127.232,121.524z M137.062,121.524h1.75v3.038
	h3.766v-3.038h1.75V129h-1.75v-2.954h-3.766V129h-1.75V121.524z M152.413,123.008h-3.99V129h-1.75v-7.476h5.74V123.008z
	 M92.903,138.524l-3.5,8.078c-0.327,0.812-0.723,1.381-1.19,1.708c-0.467,0.336-1.031,0.504-1.694,0.504
	c-0.373,0-0.742-0.061-1.106-0.182c-0.364-0.121-0.663-0.289-0.896-0.504l0.7-1.288c0.168,0.159,0.364,0.285,0.588,0.378
	c0.233,0.093,0.467,0.14,0.7,0.14c0.308,0,0.56-0.079,0.756-0.238c0.205-0.159,0.392-0.425,0.56-0.798l0.126-0.294l-3.262-7.504
	h1.82l2.352,5.53l2.366-5.53L92.903,138.524L92.903,138.524z M99.858,140.008h-3.99V146h-1.75v-7.476h5.74V140.008z M105.276,138.44
	c0.728,0,1.377,0.159,1.946,0.476c0.579,0.317,1.031,0.765,1.358,1.344s0.49,1.246,0.49,2.002s-0.163,1.428-0.49,2.016
	c-0.327,0.579-0.779,1.027-1.358,1.344c-0.569,0.317-1.218,0.476-1.946,0.476c-1.008,0-1.806-0.336-2.394-1.008v3.626h-1.75v-10.192
	h1.666v0.98c0.289-0.355,0.644-0.621,1.064-0.798C104.291,138.529,104.763,138.44,105.276,138.44z M105.08,144.6
	c0.644,0,1.171-0.215,1.582-0.644c0.42-0.429,0.63-0.994,0.63-1.694s-0.21-1.265-0.63-1.694c-0.411-0.429-0.938-0.644-1.582-0.644
	c-0.42,0-0.798,0.098-1.134,0.294c-0.336,0.187-0.602,0.457-0.798,0.812s-0.294,0.765-0.294,1.232s0.098,0.877,0.294,1.232
	s0.462,0.63,0.798,0.826C104.282,144.507,104.66,144.6,105.08,144.6z M114.144,146.098c-0.756,0-1.438-0.163-2.044-0.49
	c-0.607-0.327-1.083-0.779-1.428-1.358c-0.336-0.588-0.504-1.251-0.504-1.988s0.168-1.395,0.504-1.974
	c0.345-0.579,0.821-1.031,1.428-1.358c0.606-0.327,1.288-0.49,2.044-0.49c0.765,0,1.451,0.163,2.058,0.49
	c0.606,0.327,1.078,0.779,1.414,1.358c0.345,0.579,0.518,1.237,0.518,1.974s-0.173,1.4-0.518,1.988
	c-0.336,0.579-0.808,1.031-1.414,1.358C115.595,145.935,114.909,146.098,114.144,146.098z M114.144,144.6
	c0.644,0,1.176-0.215,1.596-0.644s0.63-0.994,0.63-1.694s-0.21-1.265-0.63-1.694s-0.952-0.644-1.596-0.644s-1.176,0.215-1.596,0.644
	c-0.411,0.429-0.616,0.994-0.616,1.694s0.205,1.265,0.616,1.694C112.968,144.385,113.5,144.6,114.144,144.6z M124.219,142.108
	c0.467,0.131,0.826,0.345,1.078,0.644c0.261,0.289,0.392,0.639,0.392,1.05c0,0.457-0.154,0.863-0.462,1.218
	c-0.308,0.345-0.733,0.616-1.274,0.812s-1.157,0.294-1.848,0.294c-0.579,0-1.143-0.065-1.694-0.196
	c-0.551-0.14-1.05-0.336-1.498-0.588l0.504-1.302c0.364,0.205,0.775,0.364,1.232,0.476s0.915,0.168,1.372,0.168
	c0.588,0,1.045-0.089,1.372-0.266c0.336-0.187,0.504-0.439,0.504-0.756c0-0.289-0.131-0.513-0.392-0.672
	c-0.252-0.159-0.611-0.238-1.078-0.238h-1.456v-1.176h1.316c0.439,0,0.779-0.075,1.022-0.224c0.252-0.149,0.378-0.359,0.378-0.63
	s-0.149-0.485-0.448-0.644c-0.299-0.159-0.709-0.238-1.232-0.238c-0.747,0-1.535,0.182-2.366,0.546l-0.448-1.288
	c0.98-0.457,1.969-0.686,2.968-0.686c0.635,0,1.204,0.089,1.708,0.266c0.504,0.168,0.896,0.411,1.176,0.728
	c0.289,0.308,0.434,0.663,0.434,1.064c0,0.364-0.112,0.691-0.336,0.98C124.919,141.73,124.611,141.949,124.219,142.108z"/>
<path fill="#FF825C" d="M72,200h69c13.255,0,24,10.745,24,24l0,0c0,13.255-10.745,24-24,24H72c-13.255,0-24-10.745-24-24l0,0
	C48,210.745,58.745,200,72,200z"/>
<path fill="#FFFFFF" d="M78.507,220.74h-3.248V229h-1.806v-8.26h-3.234v-1.54h8.288V220.74z M83.846,221.44
	c0.728,0,1.377,0.159,1.946,0.476c0.579,0.317,1.031,0.765,1.358,1.344s0.49,1.246,0.49,2.002s-0.163,1.428-0.49,2.016
	c-0.327,0.579-0.779,1.027-1.358,1.344c-0.569,0.317-1.218,0.476-1.946,0.476c-1.008,0-1.806-0.336-2.394-1.008v3.626h-1.75v-10.192
	h1.666v0.98c0.289-0.355,0.644-0.621,1.064-0.798C82.862,221.529,83.333,221.44,83.846,221.44z M83.65,227.6
	c0.644,0,1.171-0.215,1.582-0.644c0.42-0.429,0.63-0.994,0.63-1.694s-0.21-1.265-0.63-1.694c-0.411-0.429-0.938-0.644-1.582-0.644
	c-0.42,0-0.798,0.098-1.134,0.294c-0.336,0.187-0.602,0.457-0.798,0.812s-0.294,0.765-0.294,1.232s0.098,0.877,0.294,1.232
	s0.462,0.63,0.798,0.826C82.852,227.507,83.23,227.6,83.65,227.6z M89.382,221.524h1.75v4.928l4.13-4.928h1.596V229h-1.75v-4.928
	L90.992,229h-1.61C89.382,229,89.382,221.524,89.382,221.524z M104.952,223.008h-3.99V229h-1.75v-7.476h5.74V223.008z
	 M111.966,223.008h-3.99V229h-1.75v-7.476h5.74V223.008z M119.911,225.304c0,0.121-0.009,0.294-0.028,0.518h-5.866
	c0.103,0.551,0.369,0.989,0.798,1.316c0.439,0.317,0.98,0.476,1.624,0.476c0.822,0,1.498-0.271,2.03-0.812l0.938,1.078
	c-0.336,0.401-0.76,0.705-1.274,0.91c-0.513,0.205-1.092,0.308-1.736,0.308c-0.821,0-1.544-0.163-2.17-0.49
	c-0.625-0.327-1.11-0.779-1.456-1.358c-0.336-0.588-0.504-1.251-0.504-1.988c0-0.728,0.164-1.381,0.49-1.96
	c0.336-0.588,0.798-1.045,1.386-1.372c0.588-0.327,1.251-0.49,1.988-0.49c0.728,0,1.377,0.163,1.946,0.49
	c0.579,0.317,1.027,0.77,1.344,1.358C119.748,223.867,119.911,224.539,119.911,225.304z M116.131,222.84
	c-0.56,0-1.036,0.168-1.428,0.504c-0.382,0.327-0.616,0.765-0.7,1.316h4.242c-0.074-0.541-0.303-0.98-0.686-1.316
	C117.177,223.008,116.701,222.84,116.131,222.84z M125.969,221.44c0.728,0,1.377,0.159,1.946,0.476
	c0.579,0.317,1.032,0.765,1.358,1.344c0.327,0.579,0.49,1.246,0.49,2.002s-0.163,1.428-0.49,2.016
	c-0.326,0.579-0.779,1.027-1.358,1.344c-0.569,0.317-1.218,0.476-1.946,0.476c-1.008,0-1.806-0.336-2.394-1.008v3.626h-1.75v-10.192
	h1.666v0.98c0.29-0.355,0.644-0.621,1.064-0.798C124.985,221.529,125.456,221.44,125.969,221.44z M125.773,227.6
	c0.644,0,1.172-0.215,1.582-0.644c0.42-0.429,0.63-0.994,0.63-1.694s-0.21-1.265-0.63-1.694c-0.41-0.429-0.938-0.644-1.582-0.644
	c-0.42,0-0.798,0.098-1.134,0.294c-0.336,0.187-0.602,0.457-0.798,0.812s-0.294,0.765-0.294,1.232s0.098,0.877,0.294,1.232
	s0.462,0.63,0.798,0.826C124.975,227.507,125.353,227.6,125.773,227.6z M135.145,223.988c0.952,0,1.68,0.215,2.184,0.644
	s0.756,1.036,0.756,1.82c0,0.821-0.28,1.456-0.84,1.904c-0.551,0.448-1.335,0.667-2.352,0.658L131.505,229v-7.476h1.75v2.45
	L135.145,223.988z M139.051,221.524h1.75V229h-1.75V221.524z M134.739,227.726c0.513,0.009,0.905-0.098,1.176-0.322
	s0.406-0.551,0.406-0.98c0-0.42-0.131-0.728-0.392-0.924s-0.658-0.299-1.19-0.308l-1.484-0.014v2.534L134.739,227.726z"/>
<path fill="#FF825C" d="M547,80h51c41.421,0,75,33.579,75,75l0,0c0,41.421-33.579,75-75,75h-51c-41.421,0-75-33.579-75-75l0,0
	C472,113.579,505.579,80,547,80z"/>
<path fill="#FFFFFF" d="M539.256,145.904c0.625,0.168,1.101,0.457,1.428,0.868c0.326,0.401,0.49,0.905,0.49,1.512
	c0,0.859-0.318,1.526-0.952,2.002c-0.635,0.476-1.554,0.714-2.758,0.714h-4.648v-9.8h4.382c1.101,0,1.96,0.219,2.576,0.658
	c0.616,0.439,0.924,1.059,0.924,1.862c0,0.513-0.126,0.957-0.378,1.33C540.077,145.423,539.722,145.708,539.256,145.904z
	 M534.608,145.386h2.436c0.588,0,1.036-0.117,1.344-0.35s0.462-0.579,0.462-1.036s-0.154-0.803-0.462-1.036
	c-0.308-0.243-0.756-0.364-1.344-0.364h-2.436V145.386z M537.408,149.6c1.288,0,1.932-0.485,1.932-1.456
	c0-0.952-0.644-1.428-1.932-1.428h-2.8v2.884L537.408,149.6L537.408,149.6z M548.973,145.008h-2.618V151h-1.75v-5.992h-2.632v-1.484
	h7V145.008z M553.246,151.098c-0.756,0-1.437-0.163-2.044-0.49c-0.606-0.327-1.082-0.779-1.428-1.358
	c-0.336-0.588-0.504-1.251-0.504-1.988s0.168-1.395,0.504-1.974c0.346-0.579,0.822-1.031,1.428-1.358
	c0.607-0.327,1.288-0.49,2.044-0.49c0.766,0,1.452,0.163,2.058,0.49c0.607,0.327,1.078,0.779,1.414,1.358
	c0.346,0.579,0.518,1.237,0.518,1.974s-0.172,1.4-0.518,1.988c-0.336,0.579-0.807,1.031-1.414,1.358
	C554.698,150.935,554.012,151.098,553.246,151.098z M553.246,149.6c0.644,0,1.176-0.215,1.596-0.644s0.63-0.994,0.63-1.694
	s-0.21-1.265-0.63-1.694s-0.952-0.644-1.596-0.644s-1.176,0.215-1.596,0.644c-0.41,0.429-0.616,0.994-0.616,1.694
	s0.206,1.265,0.616,1.694C552.07,149.385,552.602,149.6,553.246,149.6z M563.109,143.44c0.728,0,1.377,0.159,1.946,0.476
	c0.579,0.317,1.031,0.765,1.358,1.344c0.327,0.579,0.49,1.246,0.49,2.002s-0.163,1.428-0.49,2.016
	c-0.327,0.579-0.779,1.027-1.358,1.344c-0.569,0.317-1.218,0.476-1.946,0.476c-1.008,0-1.806-0.336-2.394-1.008v3.626h-1.75v-10.192
	h1.666v0.98c0.289-0.355,0.644-0.621,1.064-0.798C562.124,143.529,562.596,143.44,563.109,143.44z M562.913,149.6
	c0.644,0,1.171-0.215,1.582-0.644c0.42-0.429,0.63-0.994,0.63-1.694s-0.21-1.265-0.63-1.694c-0.411-0.429-0.938-0.644-1.582-0.644
	c-0.42,0-0.798,0.098-1.134,0.294c-0.336,0.187-0.602,0.457-0.798,0.812s-0.294,0.765-0.294,1.232s0.098,0.877,0.294,1.232
	s0.462,0.63,0.798,0.826C562.115,149.507,562.493,149.6,562.913,149.6z M568.645,143.524h1.75v4.928l4.13-4.928h1.596V151h-1.75
	v-4.928L570.255,151h-1.61V143.524z M584.817,143.524V151h-1.75v-2.898c-0.719,0.345-1.47,0.518-2.254,0.518
	c-0.962,0-1.699-0.219-2.212-0.658c-0.514-0.448-0.77-1.129-0.77-2.044v-2.394h1.75v2.282c0,0.476,0.14,0.831,0.42,1.064
	c0.28,0.233,0.676,0.35,1.19,0.35c0.653,0,1.278-0.14,1.876-0.42v-3.276H584.817z M587.17,143.524h1.75v3.038h3.766v-3.038h1.75V151
	h-1.75v-2.954h-3.766V151h-1.75V143.524z M600.113,151.098c-0.756,0-1.437-0.163-2.044-0.49c-0.606-0.327-1.082-0.779-1.428-1.358
	c-0.336-0.588-0.504-1.251-0.504-1.988s0.168-1.395,0.504-1.974c0.346-0.579,0.822-1.031,1.428-1.358
	c0.607-0.327,1.288-0.49,2.044-0.49c0.766,0,1.452,0.163,2.058,0.49c0.607,0.327,1.078,0.779,1.414,1.358
	c0.346,0.579,0.518,1.237,0.518,1.974s-0.172,1.4-0.518,1.988c-0.336,0.579-0.807,1.031-1.414,1.358
	C601.565,150.935,600.879,151.098,600.113,151.098z M600.113,149.6c0.644,0,1.176-0.215,1.596-0.644s0.63-0.994,0.63-1.694
	s-0.21-1.265-0.63-1.694s-0.952-0.644-1.596-0.644s-1.176,0.215-1.596,0.644c-0.41,0.429-0.616,0.994-0.616,1.694
	s0.206,1.265,0.616,1.694C598.937,149.385,599.469,149.6,600.113,149.6z M612.832,147.304c0,0.121-0.009,0.294-0.028,0.518h-5.866
	c0.103,0.551,0.369,0.989,0.798,1.316c0.439,0.317,0.98,0.476,1.624,0.476c0.822,0,1.498-0.271,2.03-0.812l0.938,1.078
	c-0.336,0.401-0.76,0.705-1.274,0.91c-0.513,0.205-1.092,0.308-1.736,0.308c-0.821,0-1.544-0.163-2.17-0.49
	c-0.625-0.327-1.11-0.779-1.456-1.358c-0.336-0.588-0.504-1.251-0.504-1.988c0-0.728,0.164-1.381,0.49-1.96
	c0.336-0.588,0.798-1.045,1.386-1.372s1.251-0.49,1.988-0.49c0.728,0,1.377,0.163,1.946,0.49c0.579,0.317,1.027,0.77,1.344,1.358
	C612.669,145.867,612.832,146.539,612.832,147.304z M609.052,144.84c-0.56,0-1.036,0.168-1.428,0.504
	c-0.382,0.327-0.616,0.765-0.7,1.316h4.242c-0.074-0.541-0.303-0.98-0.686-1.316C610.098,145.008,609.622,144.84,609.052,144.84z
	 M525.106,160.888c0.709,0,1.334,0.154,1.876,0.462c0.541,0.299,0.961,0.719,1.26,1.26c0.308,0.541,0.462,1.162,0.462,1.862
	c0,0.719-0.168,1.358-0.504,1.918c-0.336,0.551-0.808,0.98-1.414,1.288c-0.607,0.308-1.298,0.462-2.072,0.462
	c-1.298,0-2.301-0.429-3.01-1.288c-0.71-0.859-1.064-2.095-1.064-3.71c0-1.503,0.322-2.693,0.966-3.57
	c0.644-0.877,1.628-1.456,2.954-1.736l3.472-0.742l0.252,1.568l-3.15,0.644c-0.906,0.187-1.582,0.504-2.03,0.952
	s-0.71,1.078-0.784,1.89c0.336-0.401,0.742-0.709,1.218-0.924C524.014,161,524.536,160.888,525.106,160.888z M524.756,166.726
	c0.644,0,1.162-0.205,1.554-0.616c0.401-0.42,0.602-0.952,0.602-1.596s-0.201-1.162-0.602-1.554
	c-0.392-0.392-0.91-0.588-1.554-0.588c-0.654,0-1.181,0.196-1.582,0.588c-0.402,0.392-0.602,0.91-0.602,1.554
	c0,0.653,0.2,1.185,0.602,1.596C523.584,166.521,524.112,166.726,524.756,166.726z M537.398,164.304c0,0.121-0.01,0.294-0.028,0.518
	h-5.866c0.102,0.551,0.368,0.989,0.798,1.316c0.438,0.317,0.98,0.476,1.624,0.476c0.821,0,1.498-0.271,2.03-0.812l0.938,1.078
	c-0.336,0.401-0.761,0.705-1.274,0.91c-0.514,0.205-1.092,0.308-1.736,0.308c-0.822,0-1.545-0.163-2.17-0.49
	c-0.626-0.327-1.111-0.779-1.456-1.358c-0.336-0.588-0.504-1.251-0.504-1.988c0-0.728,0.163-1.381,0.49-1.96
	c0.336-0.588,0.798-1.045,1.386-1.372s1.25-0.49,1.988-0.49c0.728,0,1.376,0.163,1.946,0.49c0.578,0.317,1.026,0.77,1.344,1.358
	C537.234,162.867,537.398,163.539,537.398,164.304z M533.618,161.84c-0.56,0-1.036,0.168-1.428,0.504
	c-0.383,0.327-0.616,0.765-0.7,1.316h4.242c-0.075-0.541-0.304-0.98-0.686-1.316C534.663,162.008,534.187,161.84,533.618,161.84z
	 M542.714,168.098c-0.775,0-1.47-0.163-2.086-0.49c-0.616-0.327-1.097-0.779-1.442-1.358c-0.346-0.588-0.518-1.251-0.518-1.988
	s0.172-1.395,0.518-1.974c0.345-0.579,0.821-1.031,1.428-1.358c0.616-0.327,1.316-0.49,2.1-0.49c0.737,0,1.381,0.149,1.932,0.448
	c0.56,0.299,0.98,0.728,1.26,1.288l-1.344,0.784c-0.215-0.345-0.486-0.602-0.812-0.77c-0.318-0.177-0.668-0.266-1.05-0.266
	c-0.654,0-1.195,0.215-1.624,0.644c-0.43,0.42-0.644,0.985-0.644,1.694s0.21,1.279,0.63,1.708c0.429,0.42,0.975,0.63,1.638,0.63
	c0.382,0,0.732-0.084,1.05-0.252c0.326-0.177,0.597-0.439,0.812-0.784l1.344,0.784c-0.29,0.56-0.714,0.994-1.274,1.302
	C544.081,167.949,543.442,168.098,542.714,168.098z M554.615,160.524V168h-1.736v-5.992h-3.682V168h-1.75v-7.476H554.615z
	 M560.308,168.098c-0.756,0-1.438-0.163-2.044-0.49c-0.607-0.327-1.083-0.779-1.428-1.358c-0.336-0.588-0.504-1.251-0.504-1.988
	s0.168-1.395,0.504-1.974c0.345-0.579,0.821-1.031,1.428-1.358c0.606-0.327,1.288-0.49,2.044-0.49c0.765,0,1.451,0.163,2.058,0.49
	c0.606,0.327,1.078,0.779,1.414,1.358c0.345,0.579,0.518,1.237,0.518,1.974s-0.173,1.4-0.518,1.988
	c-0.336,0.579-0.808,1.031-1.414,1.358C561.759,167.935,561.073,168.098,560.308,168.098z M560.308,166.6
	c0.644,0,1.176-0.215,1.596-0.644s0.63-0.994,0.63-1.694s-0.21-1.265-0.63-1.694s-0.952-0.644-1.596-0.644s-1.176,0.215-1.596,0.644
	c-0.411,0.429-0.616,0.994-0.616,1.694s0.205,1.265,0.616,1.694C559.132,166.385,559.664,166.6,560.308,166.6z M569.135,165.004
	h-1.358V168h-1.75v-7.476h1.75v3.024h1.4l2.212-3.024h1.876l-2.716,3.598l2.898,3.878h-2.058L569.135,165.004z M577.767,168.098
	c-0.756,0-1.438-0.163-2.044-0.49c-0.607-0.327-1.083-0.779-1.428-1.358c-0.336-0.588-0.504-1.251-0.504-1.988
	s0.168-1.395,0.504-1.974c0.345-0.579,0.821-1.031,1.428-1.358c0.606-0.327,1.288-0.49,2.044-0.49c0.765,0,1.451,0.163,2.058,0.49
	c0.606,0.327,1.078,0.779,1.414,1.358c0.345,0.579,0.518,1.237,0.518,1.974s-0.173,1.4-0.518,1.988
	c-0.336,0.579-0.808,1.031-1.414,1.358C579.218,167.935,578.532,168.098,577.767,168.098z M577.767,166.6
	c0.644,0,1.176-0.215,1.596-0.644s0.63-0.994,0.63-1.694s-0.21-1.265-0.63-1.694s-0.952-0.644-1.596-0.644s-1.176,0.215-1.596,0.644
	c-0.411,0.429-0.616,0.994-0.616,1.694s0.205,1.265,0.616,1.694C576.591,166.385,577.123,166.6,577.767,166.6z M583.486,160.524
	h1.75v4.928l4.13-4.928h1.596V168h-1.75v-4.928L585.096,168h-1.61V160.524z M587.112,159.642c-0.756,0-1.335-0.173-1.736-0.518
	c-0.392-0.355-0.593-0.868-0.602-1.54h1.162c0.009,0.336,0.112,0.602,0.308,0.798c0.205,0.196,0.49,0.294,0.854,0.294
	c0.354,0,0.634-0.098,0.84-0.294c0.214-0.196,0.326-0.462,0.336-0.798h1.19c-0.01,0.672-0.215,1.185-0.616,1.54
	C588.446,159.469,587.868,159.642,587.112,159.642z M596.718,168.098c-0.775,0-1.47-0.163-2.086-0.49
	c-0.616-0.327-1.097-0.779-1.442-1.358c-0.346-0.588-0.518-1.251-0.518-1.988s0.172-1.395,0.518-1.974
	c0.345-0.579,0.821-1.031,1.428-1.358c0.616-0.327,1.316-0.49,2.1-0.49c0.737,0,1.381,0.149,1.932,0.448
	c0.56,0.299,0.98,0.728,1.26,1.288l-1.344,0.784c-0.215-0.345-0.486-0.602-0.812-0.77c-0.318-0.177-0.668-0.266-1.05-0.266
	c-0.654,0-1.195,0.215-1.624,0.644c-0.43,0.42-0.644,0.985-0.644,1.694s0.21,1.279,0.63,1.708c0.429,0.42,0.975,0.63,1.638,0.63
	c0.382,0,0.732-0.084,1.05-0.252c0.326-0.177,0.597-0.439,0.812-0.784l1.344,0.784c-0.29,0.56-0.714,0.994-1.274,1.302
	C598.085,167.949,597.446,168.098,596.718,168.098z M607.304,162.008h-2.618V168h-1.75v-5.992h-2.632v-1.484h7V162.008z
	 M613.991,164.108c0.924,0.28,1.386,0.877,1.386,1.792c0,0.672-0.252,1.19-0.756,1.554c-0.504,0.364-1.25,0.546-2.24,0.546h-3.808
	v-7.476h3.654c0.915,0,1.629,0.168,2.142,0.504c0.514,0.336,0.77,0.812,0.77,1.428c0,0.383-0.102,0.714-0.308,0.994
	C614.635,163.73,614.355,163.949,613.991,164.108z M610.239,163.646h1.834c0.906,0,1.358-0.313,1.358-0.938
	c0-0.607-0.452-0.91-1.358-0.91h-1.834V163.646z M612.241,166.726c0.962,0,1.442-0.313,1.442-0.938c0-0.327-0.112-0.569-0.336-0.728
	c-0.224-0.168-0.574-0.252-1.05-0.252h-2.058v1.918H612.241z M620.573,168.098c-0.756,0-1.437-0.163-2.044-0.49
	c-0.606-0.327-1.082-0.779-1.428-1.358c-0.336-0.588-0.504-1.251-0.504-1.988s0.168-1.395,0.504-1.974
	c0.346-0.579,0.822-1.031,1.428-1.358c0.607-0.327,1.288-0.49,2.044-0.49c0.766,0,1.452,0.163,2.058,0.49
	c0.607,0.327,1.078,0.779,1.414,1.358c0.346,0.579,0.518,1.237,0.518,1.974s-0.172,1.4-0.518,1.988
	c-0.336,0.579-0.807,1.031-1.414,1.358C622.025,167.935,621.339,168.098,620.573,168.098z M620.573,166.6
	c0.644,0,1.176-0.215,1.596-0.644s0.63-0.994,0.63-1.694s-0.21-1.265-0.63-1.694s-0.952-0.644-1.596-0.644s-1.176,0.215-1.596,0.644
	c-0.41,0.429-0.616,0.994-0.616,1.694s0.206,1.265,0.616,1.694C619.397,166.385,619.929,166.6,620.573,166.6z"/>
<path fill="#FF825C" d="M102,0h706c13.807,0,25,11.193,25,25l0,0c0,13.807-11.193,25-25,25H102c-13.807,0-25-11.193-25-25l0,0
	C77,11.193,88.193,0,102,0z"/>
<path fill="#FFFFFF" d="M395.48,31l-0.014-6.496l-3.22,5.376h-0.812l-3.22-5.292V31h-1.722v-9.8h1.498l3.878,6.482l3.836-6.482
	h1.484l0.028,9.8H395.48z M406.763,27.304c0,0.121-0.009,0.294-0.028,0.518h-5.866c0.103,0.551,0.369,0.989,0.798,1.316
	c0.439,0.317,0.98,0.476,1.624,0.476c0.821,0,1.498-0.271,2.03-0.812l0.938,1.078c-0.336,0.401-0.761,0.705-1.274,0.91
	s-1.092,0.308-1.736,0.308c-0.821,0-1.545-0.163-2.17-0.49s-1.111-0.779-1.456-1.358c-0.336-0.588-0.504-1.251-0.504-1.988
	c0-0.728,0.163-1.381,0.49-1.96c0.336-0.588,0.798-1.045,1.386-1.372c0.588-0.327,1.251-0.49,1.988-0.49
	c0.728,0,1.377,0.163,1.946,0.49c0.579,0.317,1.027,0.77,1.344,1.358C406.6,25.867,406.763,26.539,406.763,27.304z M402.983,24.84
	c-0.56,0-1.036,0.168-1.428,0.504c-0.383,0.327-0.616,0.765-0.7,1.316h4.242c-0.075-0.541-0.303-0.98-0.686-1.316
	S403.552,24.84,402.983,24.84z M414.326,25.008h-2.618V31h-1.75v-5.992h-2.632v-1.484h7V25.008z M418.381,23.44
	c1.101,0,1.941,0.266,2.52,0.798c0.588,0.523,0.882,1.316,0.882,2.38V31h-1.652v-0.91c-0.215,0.327-0.523,0.579-0.924,0.756
	c-0.392,0.168-0.868,0.252-1.428,0.252s-1.05-0.093-1.47-0.28c-0.42-0.196-0.747-0.462-0.98-0.798
	c-0.224-0.345-0.336-0.733-0.336-1.162c0-0.672,0.247-1.209,0.742-1.61c0.504-0.411,1.293-0.616,2.366-0.616h1.932V26.52
	c0-0.523-0.159-0.924-0.476-1.204c-0.308-0.28-0.77-0.42-1.386-0.42c-0.42,0-0.835,0.065-1.246,0.196
	c-0.401,0.131-0.742,0.313-1.022,0.546l-0.686-1.274c0.392-0.299,0.863-0.527,1.414-0.686
	C417.182,23.519,417.765,23.44,418.381,23.44z M418.143,29.824c0.439,0,0.826-0.098,1.162-0.294
	c0.345-0.205,0.588-0.495,0.728-0.868v-0.868h-1.806c-1.008,0-1.512,0.331-1.512,0.994c0,0.317,0.126,0.569,0.378,0.756
	C417.345,29.731,417.695,29.824,418.143,29.824z M431.004,23.524l-3.5,8.078c-0.326,0.812-0.723,1.381-1.19,1.708
	c-0.466,0.336-1.031,0.504-1.694,0.504c-0.373,0-0.742-0.061-1.106-0.182c-0.364-0.121-0.662-0.289-0.896-0.504l0.7-1.288
	c0.168,0.159,0.364,0.285,0.588,0.378c0.234,0.093,0.467,0.14,0.7,0.14c0.308,0,0.56-0.079,0.756-0.238
	c0.206-0.159,0.392-0.425,0.56-0.798l0.126-0.294l-3.262-7.504h1.82l2.352,5.53l2.366-5.53
	C429.324,23.524,431.004,23.524,431.004,23.524z M436.198,23.888c0.709,0,1.334,0.154,1.876,0.462
	c0.541,0.299,0.961,0.719,1.26,1.26c0.308,0.541,0.462,1.162,0.462,1.862c0,0.719-0.168,1.358-0.504,1.918
	c-0.336,0.551-0.808,0.98-1.414,1.288c-0.607,0.308-1.298,0.462-2.072,0.462c-1.298,0-2.301-0.429-3.01-1.288
	c-0.71-0.859-1.064-2.095-1.064-3.71c0-1.503,0.322-2.693,0.966-3.57s1.628-1.456,2.954-1.736l3.472-0.742l0.252,1.568l-3.15,0.644
	c-0.906,0.187-1.582,0.504-2.03,0.952s-0.71,1.078-0.784,1.89c0.336-0.401,0.742-0.709,1.218-0.924
	C435.106,24,435.628,23.888,436.198,23.888z M435.848,29.726c0.644,0,1.162-0.205,1.554-0.616c0.401-0.42,0.602-0.952,0.602-1.596
	c0-0.644-0.201-1.162-0.602-1.554c-0.392-0.392-0.91-0.588-1.554-0.588c-0.654,0-1.181,0.196-1.582,0.588
	c-0.402,0.392-0.602,0.91-0.602,1.554c0,0.653,0.2,1.185,0.602,1.596C434.676,29.521,435.204,29.726,435.848,29.726z
	 M448.489,27.304c0,0.121-0.009,0.294-0.028,0.518h-5.866c0.103,0.551,0.369,0.989,0.798,1.316c0.439,0.317,0.98,0.476,1.624,0.476
	c0.822,0,1.498-0.271,2.03-0.812l0.938,1.078c-0.336,0.401-0.76,0.705-1.274,0.91c-0.513,0.205-1.092,0.308-1.736,0.308
	c-0.821,0-1.544-0.163-2.17-0.49c-0.625-0.327-1.11-0.779-1.456-1.358c-0.336-0.588-0.504-1.251-0.504-1.988
	c0-0.728,0.164-1.381,0.49-1.96c0.336-0.588,0.798-1.045,1.386-1.372c0.588-0.327,1.251-0.49,1.988-0.49
	c0.728,0,1.377,0.163,1.946,0.49c0.579,0.317,1.027,0.77,1.344,1.358C448.326,25.867,448.489,26.539,448.489,27.304z M444.709,24.84
	c-0.56,0-1.036,0.168-1.428,0.504c-0.382,0.327-0.616,0.765-0.7,1.316h4.242c-0.074-0.541-0.303-0.98-0.686-1.316
	C445.755,25.008,445.279,24.84,444.709,24.84z M457.296,28.004h-1.26V31H454.3v-2.996h-1.26L451.22,31h-2.072l2.45-3.864
	l-2.268-3.612h1.862l1.82,3.024h1.288v-3.024h1.736v3.024h1.274l1.834-3.024h1.862l-2.268,3.612L461.202,31h-2.086L457.296,28.004z
	 M470.483,29.516v3.15h-1.638V31h-5.768v1.666h-1.624v-3.15h0.35c0.476-0.019,0.798-0.322,0.966-0.91
	c0.177-0.597,0.294-1.437,0.35-2.52l0.098-2.562h6.16v5.992H470.483z M464.715,26.212c-0.037,0.859-0.107,1.559-0.21,2.1
	s-0.289,0.943-0.56,1.204h3.682v-4.508h-2.87L464.715,26.212z M479.046,27.304c0,0.121-0.009,0.294-0.028,0.518h-5.866
	c0.103,0.551,0.369,0.989,0.798,1.316c0.439,0.317,0.98,0.476,1.624,0.476c0.821,0,1.498-0.271,2.03-0.812l0.938,1.078
	c-0.336,0.401-0.761,0.705-1.274,0.91s-1.092,0.308-1.736,0.308c-0.821,0-1.545-0.163-2.17-0.49s-1.111-0.779-1.456-1.358
	c-0.336-0.588-0.504-1.251-0.504-1.988c0-0.728,0.163-1.381,0.49-1.96c0.336-0.588,0.798-1.045,1.386-1.372
	c0.588-0.327,1.251-0.49,1.988-0.49c0.728,0,1.377,0.163,1.946,0.49c0.579,0.317,1.027,0.77,1.344,1.358
	C478.883,25.867,479.046,26.539,479.046,27.304z M475.266,24.84c-0.56,0-1.036,0.168-1.428,0.504
	c-0.383,0.327-0.616,0.765-0.7,1.316h4.242c-0.075-0.541-0.303-0.98-0.686-1.316S475.835,24.84,475.266,24.84z M480.96,23.524h1.75
	v3.038h3.766v-3.038h1.75V31h-1.75v-2.954h-3.766V31h-1.75V23.524z M490.572,23.524h1.75v4.928l4.13-4.928h1.596V31h-1.75v-4.928
	L492.182,31h-1.61L490.572,23.524L490.572,23.524z M506.716,23.524V31h-1.568v-2.254h-1.974L501.648,31h-1.876l1.764-2.492
	c-0.542-0.187-0.957-0.471-1.246-0.854c-0.28-0.392-0.42-0.873-0.42-1.442c0-0.859,0.303-1.521,0.91-1.988
	c0.606-0.467,1.442-0.7,2.506-0.7C503.286,23.524,506.716,23.524,506.716,23.524z M503.342,24.994c-1.13,0-1.694,0.425-1.694,1.274
	c0,0.84,0.546,1.26,1.638,1.26h1.862v-2.534H503.342z"/>
<path fill="#7B7B7B" stroke="#454554" stroke-width="3" stroke-miterlimit="10" d="M338.669,78.295c0.183,0.201,0.478,0.201,0.662,0
	l2.974-3.272c0.181-0.201,0.181-0.526,0-0.727c-0.183-0.201-0.478-0.201-0.662,0L339,77.205l-2.643-2.909
	c-0.183-0.201-0.479-0.201-0.662,0c-0.181,0.201-0.181,0.526,0,0.727L338.669,78.295z M338.75,51.471v25.597h0.5V51.471H338.75z"/>
<path fill="#7B7B7B" stroke="#454554" stroke-width="3" stroke-miterlimit="10" d="M107.669,78.295c0.183,0.201,0.478,0.201,0.662,0
	l2.974-3.272c0.181-0.201,0.181-0.526,0-0.727c-0.183-0.201-0.478-0.201-0.662,0L108,77.205l-2.643-2.909
	c-0.183-0.201-0.479-0.201-0.662,0c-0.181,0.201-0.181,0.526,0,0.727L107.669,78.295z M107.75,51.471v25.597h0.5V51.471H107.75z"/>
<path fill="#7B7B7B" stroke="#454554" stroke-width="3" stroke-miterlimit="10" d="M572.271,78.462c0.183,0.201,0.478,0.201,0.662,0
	l2.974-3.272c0.181-0.201,0.181-0.526,0-0.727c-0.183-0.201-0.478-0.201-0.662,0l-2.643,2.909l-2.643-2.909
	c-0.183-0.201-0.479-0.201-0.662,0c-0.181,0.201-0.181,0.526,0,0.727L572.271,78.462z M572.352,51.638v25.597h0.5V51.638H572.352z"
	/>
<path fill="#7B7B7B" stroke="#454554" stroke-width="3" stroke-miterlimit="10" d="M803.388,78.462c0.183,0.201,0.478,0.201,0.662,0
	l2.974-3.272c0.181-0.201,0.181-0.526,0-0.727c-0.183-0.201-0.478-0.201-0.662,0l-2.643,2.909l-2.643-2.909
	c-0.183-0.201-0.479-0.201-0.662,0c-0.181,0.201-0.181,0.526,0,0.727L803.388,78.462z M803.469,51.638v25.597h0.5V51.638H803.469z"
	/>
<path fill="#7B7B7B" stroke="#454554" stroke-width="3" stroke-miterlimit="10" d="M700.824,155.331
	c0.201-0.183,0.201-0.478,0-0.662l-3.272-2.974c-0.201-0.181-0.526-0.181-0.727,0c-0.201,0.183-0.201,0.478,0,0.662l2.909,2.643
	l-2.909,2.643c-0.201,0.183-0.201,0.479,0,0.662c0.201,0.181,0.526,0.181,0.727,0L700.824,155.331z M674,155.25h25.597v-0.5H674
	V155.25z"/>
<path fill="#7B7B7B" stroke="#454554" stroke-width="3" stroke-miterlimit="10" d="M470.337,155.673
	c0.201-0.183,0.201-0.478,0-0.662l-3.272-2.974c-0.201-0.181-0.526-0.181-0.727,0c-0.201,0.183-0.201,0.478,0,0.662l2.909,2.643
	l-2.909,2.643c-0.201,0.183-0.201,0.479,0,0.662c0.201,0.181,0.526,0.181,0.727,0L470.337,155.673z M443.513,155.592h25.597v-0.5
	h-25.597V155.592z"/>
<path fill="#7B7B7B" stroke="#454554" stroke-width="3" stroke-miterlimit="10" d="M545.419,258.461
	c0.183,0.201,0.478,0.201,0.662,0l2.974-3.272c0.181-0.201,0.181-0.526,0-0.727c-0.183-0.201-0.478-0.201-0.662,0l-2.643,2.909
	l-2.643-2.909c-0.183-0.201-0.479-0.201-0.662,0c-0.181,0.201-0.181,0.526,0,0.727L545.419,258.461z M545.5,231.637v25.597h0.5
	v-25.597L545.5,231.637L545.5,231.637z"/>
<path fill="#7B7B7B" stroke="#454554" stroke-width="3" stroke-miterlimit="10" d="M600.581,231.788
	c-0.183-0.201-0.478-0.201-0.662,0l-2.974,3.272c-0.181,0.201-0.181,0.526,0,0.727c0.183,0.201,0.478,0.201,0.662,0l2.643-2.909
	l2.643,2.909c0.183,0.201,0.479,0.201,0.662,0c0.181-0.201,0.181-0.526,0-0.727L600.581,231.788z M600.5,258.612v-25.597H600v25.597
	H600.5z"/>
<path fill="#7B7B7B" stroke="#454554" stroke-width="3" stroke-miterlimit="10" d="M338.669,258.461
	c0.183,0.201,0.478,0.201,0.662,0l2.974-3.272c0.181-0.201,0.181-0.526,0-0.727c-0.183-0.201-0.478-0.201-0.662,0L339,257.371
	l-2.643-2.909c-0.183-0.201-0.479-0.201-0.662,0c-0.181,0.201-0.181,0.526,0,0.727L338.669,258.461z M338.75,231.637v25.597h0.5
	v-25.597L338.75,231.637L338.75,231.637z"/>
<path fill="#7B7B7B" stroke="#454554" stroke-width="3" stroke-miterlimit="10" d="M238.268,145.928
	c0.256-0.091,0.371-0.362,0.257-0.61l-1.86-4.011c-0.115-0.245-0.414-0.371-0.67-0.282c-0.256,0.091-0.371,0.362-0.257,0.61
	l1.654,3.565l-3.707,1.306c-0.256,0.091-0.371,0.363-0.257,0.61c0.115,0.245,0.414,0.371,0.67,0.282L238.268,145.928z
	 M213.581,135.435l23.588,9.941l0.194-0.461l-23.588-9.941L213.581,135.435z"/>
<path fill="#7B7B7B" stroke="#454554" stroke-width="3" stroke-miterlimit="10" d="M246.369,190.19
	c0.113-0.247-0.003-0.519-0.261-0.609l-4.179-1.446c-0.256-0.087-0.555,0.041-0.668,0.286c-0.113,0.247,0.003,0.519,0.261,0.609
	l3.715,1.284l-1.633,3.575c-0.113,0.247,0.004,0.519,0.261,0.609c0.256,0.087,0.555-0.041,0.668-0.286L246.369,190.19z
	 M168.408,223.493l76.801-32.895l-0.197-0.46l-76.801,32.895L168.408,223.493z"/>
</svg>
