<?xml version="1.0" encoding="utf-8"?>
<!-- Generator: Adobe Illustrator 17.0.0, SVG Export Plug-In . SVG Version: 6.00 Build 0)  -->
<!DOCTYPE svg PUBLIC "-//W3C//DTD SVG 1.1//EN" "http://www.w3.org/Graphics/SVG/1.1/DTD/svg11.dtd">
<svg version="1.1" id="Layer_1" xmlns="http://www.w3.org/2000/svg" xmlns:xlink="http://www.w3.org/1999/xlink" x="0px" y="0px"
	 width="317px" height="226px" viewBox="0 0 317 226" enable-background="new 0 0 317 226" xml:space="preserve">
<g>
	<g>
		<g>
			<g>
				<g>
					<defs>
						<rect id="SVGID_1_" x="1.39" y="1" width="314.219" height="226"/>
					</defs>
					<clipPath id="SVGID_2_">
						<use xlink:href="#SVGID_1_"  overflow="visible"/>
					</clipPath>
					<g clip-path="url(#SVGID_2_)">
						<path fill="#F2F2F2" d="M183.991,36.581c-20.137-0.718-39.316-7.395-57.632-14.697C108.045,14.581,89.904,6.489,70.246,2.62
							C57.606,0.129,43.147-0.222,32.96,6.737c-9.803,6.697-12.969,18.257-14.673,28.986c-1.281,8.072-2.033,16.565,1.476,24.122
							c2.437,5.244,6.764,9.654,9.747,14.677c10.412,17.485,3.063,39.042-8.232,56.117c-5.291,8.006-11.434,15.647-15.517,24.17
							c-4.083,8.524-5.965,18.292-2.375,27.002c3.542,8.618,11.975,15.092,21.128,19.647c18.558,9.233,40.444,11.881,61.784,13.379
							c47.241,3.318,94.737,1.881,142.104,0.443c17.528-0.535,35.136-1.071,52.379-3.857c9.577-1.544,19.463-4.003,26.416-9.919
							c8.826-7.517,11.015-20.248,5.1-29.675c-9.92-15.812-37.347-19.73-44.279-36.709c-3.818-9.339,0.103-19.744,5.651-28.405
							c11.897-18.586,31.838-34.884,32.888-56.128c0.725-14.583-8.864-29.201-23.687-36.103
							c-15.539-7.235-37.083-6.325-48.547,5.653C222.516,32.469,201.773,37.212,183.991,36.581z"/>
						<path fill="#FF7F50" d="M252.759,195.88c-1.13-0.377-2.323-0.508-3.506-0.385c-1.439,0.161-1.236,2.422,0.209,2.316
							c0.723-0.057,1.437-0.193,2.133-0.405L252.759,195.88z"/>
						<path fill="#FF825C" d="M253.197,195.9c0.52,1.102,0.812,2.305,0.857,3.53c0.048,1.494-2.152,1.601-2.253,0.109
							c-0.043-0.745-0.011-1.495,0.095-2.234L253.197,195.9z"/>
						<path fill="#FF825C" d="M256.471,191.063c0,0-0.705-2.281-5.013-1.397c-1.949,0.399-1.896,3.284,0.056,3.588h0.084
							C254.441,193.662,255.43,192.499,256.471,191.063z"/>
						<path fill="#FF825C" d="M256.92,190.927c0,0,2.314,0.186,2.459,4.711c0.066,2.036-2.665,2.655-3.398,0.764
							c0-0.029-0.02-0.055-0.031-0.083C254.929,193.559,255.8,192.3,256.92,190.927z"/>
						<path fill="#FF825C" d="M260.011,185.096c-0.163-0.828-0.536-1.596-1.082-2.224c-0.546-0.629-1.245-1.097-2.025-1.354
							c-2.916-0.949-4.456,3.55-1.607,4.693c1.179,0.444,2.434,0.631,3.687,0.551L260.011,185.096z"/>
						<path fill="#FF825C" d="M263.567,177.585c0,0-1.178-2.874-4.233-3.447c-3.239-0.612-4.22,4.406-1.02,5.208
							c1.436,0.322,2.92,0.334,4.361,0.038L263.567,177.585z"/>
						<path fill="#FF825C" d="M265.714,170.188c-0.499-0.809-1.15-1.506-1.916-2.048c-0.765-0.543-1.63-0.921-2.54-1.112
							c-2.785-0.54-3.723,3.761-0.989,4.495c1.718,0.433,3.514,0.407,5.219-0.074L265.714,170.188z"/>
						<path fill="#FF825C" d="M267.738,162.978c-0.889-1.512-2.272-2.645-3.899-3.198c-2.784-0.881-4.16,3.473-1.392,4.421
							c1.64,0.562,3.415,0.555,5.051-0.02L267.738,162.978z"/>
						<path fill="#FF825C" d="M268.592,156.408c0,0-1.114-2.694-3.384-4.12c-2.529-1.588-4.937,2.299-2.506,4.048
							c1.498,1.082,3.417,1.83,5.658,1.329L268.592,156.408z"/>
						<path fill="#FF825C" d="M269.011,148.615c0,0-1.228-2.721-3.584-4.022c-2.635-1.436-4.926,2.534-2.444,4.246
							c1.623,1.117,3.651,1.841,5.803,0.967L269.011,148.615z"/>
						<path fill="#FF825C" d="M268.749,141.508c-0.919-1.471-2.046-2.792-3.342-3.921c-1.843-1.554-4.177,1.244-2.43,2.904
							c1.612,1.525,3.62,2.806,5.695,2.703L268.749,141.508z"/>
						<path fill="#FF825C" d="M268.051,134.688c-1.053-1.832-2.321-3.522-3.777-5.032c-1.442-1.436-3.575,0.752-2.227,2.267
							c1.556,1.723,3.657,3.51,6.179,4.291L268.051,134.688z"/>
						<path fill="#FF825C" d="M266.699,126.668c-0.867-1.393-1.878-2.684-3.015-3.852c-1.454-1.468-3.646,0.74-2.25,2.266
							c1.481,1.623,3.397,3.143,5.645,3.66L266.699,126.668z"/>
						<path fill="#FF825C" d="M265.519,119.185c-0.892-1.246-1.861-2.433-2.898-3.554c-1.165-1.238-3.024,0.503-1.927,1.807
							c1.289,1.533,2.943,2.892,4.845,3.11L265.519,119.185z"/>
						<path fill="#FF825C" d="M264.294,112.245c-0.814-1.643-1.745-3.223-2.784-4.725c-0.872-1.229-2.688,0.086-1.866,1.35
							c1.075,1.657,2.568,3.298,4.528,4.088L264.294,112.245z"/>
						<path fill="#FF825C" d="M263.283,103.021c0,0-0.688-1.203-1.671-2.603c-0.908-1.29-2.824,0.044-1.982,1.379
							c0.947,1.497,2.133,2.772,3.514,3.025L263.283,103.021z"/>
						<path fill="#FF825C" d="M262.801,96.908l-0.871-4.496c-0.231-1.189-1.95-0.905-1.81,0.287c0.311,2.401,1.114,4.817,2.86,6.403
							L262.801,96.908z"/>
						<path fill="#FF825C" d="M263.318,84.131c-0.081-0.199-0.23-0.36-0.418-0.453c-0.189-0.093-0.404-0.112-0.605-0.052
							c-0.201,0.059-0.374,0.193-0.487,0.375c-0.112,0.182-0.156,0.4-0.122,0.613c0.193,1.249,0.488,2.479,0.88,3.677
							L263.318,84.131z"/>
						<path fill="#FF825C" d="M260.206,185.008c0.778-0.266,1.61-0.311,2.411-0.134c0.801,0.178,1.541,0.573,2.145,1.145
							c2.228,2.146-0.785,5.745-3.161,3.766c-0.957-0.838-1.738-1.868-2.292-3.03L260.206,185.008z"/>
						<path fill="#FF825C" d="M263.764,177.311c0,0,2.93-0.73,5.197,1.46c2.403,2.32-0.919,6.121-3.45,3.946
							c-1.106-0.998-2-2.221-2.626-3.593L263.764,177.311z"/>
						<path fill="#FF825C" d="M265.906,170.693c0.757-0.559,1.617-0.955,2.526-1.164c0.909-0.208,1.85-0.225,2.766-0.049
							c2.784,0.575,2.091,4.92-0.713,4.55c-1.75-0.262-3.406-0.978-4.812-2.083L265.906,170.693z"/>
						<path fill="#FF825C" d="M267.878,163.017c1.369-1.06,3.059-1.581,4.768-1.468c2.912,0.262,2.601,4.826-0.315,4.636
							c-1.726-0.11-3.369-0.802-4.679-1.968L267.878,163.017z"/>
						<path fill="#FF825C" d="M268.554,156.594c0,0,1.546-2.458,4.013-3.464c2.737-1.117,4.494,3.114,1.835,4.416
							c-1.67,0.813-3.684,1.223-5.822,0.33L268.554,156.594z"/>
						<path fill="#FF825C" d="M268.652,148.497c0,0,1.562-2.529,4.06-3.493c2.785-1.077,4.565,3.174,1.888,4.539
							c-1.751,0.89-3.854,1.332-5.876,0.177L268.652,148.497z"/>
						<path fill="#FF825C" d="M268.129,141.432c0.592-1.639,1.418-3.179,2.45-4.568c1.476-1.927,4.348,0.287,2.977,2.299
							c-1.259,1.847-2.941,3.539-5.013,3.897L268.129,141.432z"/>
						<path fill="#FF825C" d="M267.915,134.677c0.512-2.068,1.272-4.061,2.261-5.935c1-1.786,3.637-0.307,2.741,1.537
							c-1.025,2.111-2.562,4.424-4.774,5.903L267.915,134.677z"/>
						<path fill="#FF825C" d="M266.299,126.294c0.602-1.593,1.373-3.112,2.301-4.53c1.147-1.724,3.689-0.035,2.64,1.747
							c-1.142,1.942-2.752,3.896-4.91,4.884L266.299,126.294z"/>
						<path fill="#FF825C" d="M265.012,119.145c0.31-1.516,0.714-3.009,1.206-4.472c0.556-1.629,2.954-0.842,2.481,0.816
							c-0.557,1.948-1.513,3.893-3.152,4.907L265.012,119.145z"/>
						<path fill="#FF825C" d="M264.119,112.11c0.429-1.794,0.988-3.552,1.67-5.26c0.58-1.402,2.641-0.548,2.117,0.876
							c-0.68,1.867-1.771,3.815-3.504,5.044L264.119,112.11z"/>
						<path fill="#FF825C" d="M262.778,103.653c0,0,0.262-1.37,0.738-3.027c0.44-1.529,2.678-0.928,2.314,0.621
							c-0.406,1.723-1.113,3.346-2.339,4.059L262.778,103.653z"/>
						<path fill="#FF825C" d="M263.091,96.603l1.515-4.309c0.401-1.149,2.072-0.592,1.747,0.575
							c-0.655,2.327-1.791,4.596-3.754,5.889L263.091,96.603z"/>
						<path fill="#FF825C" d="M264.979,84.582c0,0,0.237-0.195,0.599-0.503c0.738-0.632,1.701,0.471,1.005,1.149
							c-1.212,1.136-2.606,2.048-4.119,2.694L264.979,84.582z"/>
						<path fill="#FF825C" d="M264.879,82.086c0.905-1.907,1.914-3.76,3.021-5.55c0.063-0.123,0.081-0.267,0.05-0.402
							c-0.031-0.136-0.109-0.255-0.22-0.336s-0.246-0.117-0.381-0.102s-0.26,0.08-0.351,0.183c-0.891,1.258-1.766,3.099-2.429,5.805
							L264.879,82.086z"/>
						<path fill="#393944" d="M263.152,104.894l0.323-0.035c-1.393-13.389-0.805-21.645,1.629-23.245l-0.175-0.287
							C262.35,83.03,261.737,91.177,263.152,104.894z"/>
						<path fill="#393944" d="M267.941,136.55l0.482-0.074c-0.18-1.238-0.39-2.497-0.623-3.735
							c-2.027-10.867-3.604-20.912-4.392-28.541l-0.354-0.287c0.791,7.644,2.228,18.036,4.269,28.918
							C267.552,134.059,267.76,135.314,267.941,136.55z"/>
						<path fill="#393944" d="M245.385,204.222c0.072-0.06,7.491-5.915,14.005-17.144c3.817-6.571,6.6-13.726,8.243-21.196
							c2.058-9.338,2.116-20.214,0.631-30.4l-0.434,0.359c3.342,22.86-3.032,40.61-8.981,50.87
							c-6.45,11.126-13.782,16.92-13.857,16.978L245.385,204.222z"/>
						<path fill="#C7C7C7" d="M55.422,204.17c10.235,0,18.533-1.645,18.533-3.676c0-2.031-8.297-3.677-18.533-3.677
							s-18.533,1.646-18.533,3.677S45.186,204.17,55.422,204.17z"/>
						<path fill="#393944" d="M55.109,201.844c1.192,0,2.158-1.304,2.158-2.913s-0.966-2.912-2.158-2.912s-2.158,1.303-2.158,2.912
							C52.951,200.539,53.917,201.844,55.109,201.844z"/>
						<path fill="#393944" d="M55.109,198.281c1.192,0,2.158-1.303,2.158-2.912s-0.966-2.913-2.158-2.913s-2.158,1.304-2.158,2.913
							S53.917,198.281,55.109,198.281z"/>
						<path fill="#393944" d="M55.109,194.722c1.192,0,2.158-1.303,2.158-2.912s-0.966-2.913-2.158-2.913s-2.158,1.304-2.158,2.913
							S53.917,194.722,55.109,194.722z"/>
						<path fill="#393944" d="M55.109,191.16c1.192,0,2.158-1.304,2.158-2.913s-0.966-2.912-2.158-2.912s-2.158,1.303-2.158,2.912
							C52.951,189.856,53.917,191.16,55.109,191.16z"/>
						<path fill="#393944" d="M55.109,187.599c1.192,0,2.158-1.304,2.158-2.913s-0.966-2.912-2.158-2.912s-2.158,1.303-2.158,2.912
							S53.917,187.599,55.109,187.599z"/>
						<path fill="#37374C" d="M55.109,184.039c1.192,0,2.158-1.304,2.158-2.913c0-1.608-0.966-2.912-2.158-2.912
							s-2.158,1.304-2.158,2.912C52.951,182.735,53.917,184.039,55.109,184.039z"/>
						<path fill="#37374C" d="M55.109,180.477c1.192,0,2.158-1.303,2.158-2.912c0-1.609-0.966-2.913-2.158-2.913
							s-2.158,1.304-2.158,2.913C52.951,179.173,53.917,180.477,55.109,180.477z"/>
						<path opacity="0.8" fill="#FF7F50" enable-background="new    " d="M63.186,153.193c0.296-0.388,0.565-0.795,0.805-1.221
							l-5.67-0.96l6.127,0.046c0.589-1.319,0.91-2.749,0.944-4.201c0.034-1.452-0.22-2.896-0.746-4.244l-8.226,4.401l7.586-5.745
							c-0.709-1.27-1.665-2.375-2.807-3.247s-2.446-1.492-3.831-1.821c-1.385-0.329-2.82-0.36-4.217-0.091
							c-1.397,0.27-2.725,0.833-3.901,1.654c-1.176,0.822-2.176,1.885-2.936,3.123c-0.76,1.239-1.265,2.626-1.482,4.074
							s-0.143,2.927,0.219,4.345c0.362,1.417,1.003,2.743,1.883,3.893c-0.459,0.604-0.854,1.256-1.178,1.945l7.36,3.944
							l-7.842-2.717c-0.55,1.68-0.686,3.475-0.394,5.224c0.292,1.748,1.001,3.393,2.065,4.787c-1.2,1.573-1.946,3.462-2.154,5.452
							c-0.208,1.99,0.131,4.001,0.979,5.801s2.169,3.318,3.813,4.38c1.644,1.062,3.545,1.626,5.486,1.626
							c1.94,0,3.841-0.564,5.486-1.626c1.644-1.063,2.966-2.58,3.813-4.38s1.187-3.81,0.979-5.801
							c-0.208-1.989-0.954-3.879-2.154-5.452c1.434-1.878,2.214-4.2,2.214-6.591s-0.78-4.712-2.214-6.592L63.186,153.193z"/>
						<path fill="#FF825C" d="M44.727,159.786c-0.002,2.39,0.777,4.712,2.211,6.59c-1.2,1.572-1.946,3.461-2.154,5.452
							c-0.208,1.989,0.131,4,0.979,5.8c0.847,1.8,2.169,3.319,3.813,4.38c1.644,1.063,3.546,1.626,5.486,1.626
							s3.841-0.563,5.486-1.626c1.644-1.062,2.966-2.58,3.813-4.38s1.187-3.81,0.979-5.8s-0.955-3.88-2.154-5.452
							C64.572,164.563,44.727,158.588,44.727,159.786z"/>
						<path fill="#FFFFFF" d="M65.99,75.039v126.885c0,0.581,0.111,1.157,0.327,1.695c0.216,0.537,0.532,1.025,0.931,1.436
							s0.872,0.737,1.393,0.961c0.521,0.223,1.079,0.337,1.643,0.337h176.521c1.139,0,2.231-0.467,3.037-1.298
							c0.805-0.831,1.258-1.957,1.258-3.131V75.039H65.99z"/>
						<path opacity="0.1" enable-background="new    " d="M122.479,86.397H83.046c-1.33,0-2.409,1.112-2.409,2.485v21.823
							c0,1.372,1.079,2.485,2.409,2.485h39.433c1.331,0,2.41-1.113,2.41-2.485V88.882C124.888,87.51,123.81,86.397,122.479,86.397z"
							/>
						<path opacity="0.1" enable-background="new    " d="M178.263,86.397H138.83c-1.33,0-2.409,1.112-2.409,2.485v21.823
							c0,1.372,1.078,2.485,2.409,2.485h39.433c1.33,0,2.409-1.113,2.409-2.485V88.882C180.672,87.51,179.593,86.397,178.263,86.397
							z"/>
						<path fill="#C7C7C7" d="M121.856,86.774H83.668c-1.33,0-2.409,1.112-2.409,2.485v21.068c0,1.372,1.078,2.484,2.409,2.484
							h38.189c1.33,0,2.409-1.112,2.409-2.484V89.259C124.265,87.886,123.187,86.774,121.856,86.774z"/>
						<path fill="#F2F2F2" d="M195.233,112.811h38.188c1.331,0,2.41-1.112,2.41-2.484V89.259c0-1.372-1.078-2.485-2.41-2.485
							h-38.188c-1.33,0-2.409,1.112-2.409,2.485v21.068C192.824,111.698,193.903,112.811,195.233,112.811z"/>
						<path fill="#C7C7C7" d="M139.451,112.811h38.188c1.33,0,2.409-1.112,2.409-2.484V89.259c0-1.372-1.078-2.485-2.409-2.485
							h-38.188c-1.33,0-2.409,1.112-2.409,2.485v21.068C137.042,111.698,138.12,112.811,139.451,112.811z"/>
						<path fill="#F2F2F2" d="M121.856,124.384H83.668c-1.33,0-2.409,1.113-2.409,2.485v21.068c0,1.372,1.078,2.485,2.409,2.485
							h38.189c1.33,0,2.409-1.113,2.409-2.485v-21.068C124.265,125.497,123.187,124.384,121.856,124.384z"/>
						<path fill="#F2F2F2" d="M195.233,150.422h38.188c1.331,0,2.41-1.112,2.41-2.485v-21.068c0-1.372-1.078-2.485-2.41-2.485
							h-38.188c-1.33,0-2.409,1.113-2.409,2.485v21.068C192.824,149.31,193.903,150.422,195.233,150.422z"/>
						<path fill="#F2F2F2" d="M139.451,150.422h38.188c1.33,0,2.409-1.112,2.409-2.485v-21.068c0-1.372-1.078-2.485-2.409-2.485
							h-38.188c-1.33,0-2.409,1.113-2.409,2.485v21.068C137.042,149.31,138.12,150.422,139.451,150.422z"/>
						<path fill="#F2F2F2" d="M121.856,161.995H83.668c-1.33,0-2.409,1.112-2.409,2.484v21.068c0,1.373,1.078,2.485,2.409,2.485
							h38.189c1.33,0,2.409-1.112,2.409-2.485v-21.068C124.265,163.108,123.187,161.995,121.856,161.995z"/>
						<path fill="#F2F2F2" d="M195.233,188.035h38.188c1.331,0,2.41-1.112,2.41-2.485v-21.068c0-1.372-1.078-2.484-2.41-2.484
							h-38.188c-1.33,0-2.409,1.112-2.409,2.484v21.068C192.824,186.923,193.903,188.035,195.233,188.035z"/>
						<path fill="#F2F2F2" d="M139.451,188.035h38.188c1.33,0,2.409-1.112,2.409-2.485v-21.068c0-1.372-1.078-2.484-2.409-2.484
							h-38.188c-1.33,0-2.409,1.112-2.409,2.484v21.068C137.042,186.923,138.12,188.035,139.451,188.035z"/>
						<path fill="#FF825C" d="M65.99,52.63v23.052H251.1V52.63c0-0.582-0.111-1.158-0.326-1.696
							c-0.216-0.538-0.532-1.026-0.931-1.438s-0.872-0.738-1.394-0.961c-0.521-0.223-1.079-0.338-1.644-0.338H70.284
							c-0.564,0-1.123,0.115-1.644,0.338c-0.521,0.223-0.995,0.549-1.393,0.961c-0.399,0.412-0.715,0.9-0.931,1.438
							C66.1,51.472,65.989,52.048,65.99,52.63z M111.8,59.449c-0.678,0-1.341-0.207-1.905-0.596
							c-0.564-0.389-1.003-0.941-1.263-1.587c-0.259-0.646-0.327-1.357-0.194-2.043c0.132-0.686,0.458-1.316,0.938-1.811
							s1.09-0.831,1.755-0.968c0.665-0.136,1.354-0.066,1.98,0.201c0.626,0.268,1.162,0.721,1.538,1.302s0.578,1.265,0.578,1.965
							c0,0.938-0.361,1.837-1.004,2.5C113.581,59.077,112.709,59.449,111.8,59.449z M205.289,59.449
							c-0.678,0-1.341-0.207-1.904-0.596c-0.564-0.389-1.003-0.941-1.263-1.587c-0.26-0.646-0.327-1.357-0.195-2.043
							c0.132-0.686,0.459-1.316,0.939-1.811c0.479-0.495,1.089-0.831,1.754-0.968c0.665-0.136,1.355-0.066,1.981,0.201
							c0.625,0.268,1.162,0.721,1.538,1.302s0.577,1.265,0.577,1.965c0,0.465-0.088,0.925-0.261,1.355
							c-0.172,0.429-0.426,0.819-0.744,1.148c-0.319,0.328-0.698,0.589-1.114,0.766c-0.417,0.177-0.863,0.268-1.314,0.268
							C205.283,59.449,205.289,59.449,205.289,59.449z"/>
						<path fill="#F2F2F2" d="M111.799,51.734c-0.801-0.001-1.585,0.244-2.251,0.703c-0.667,0.459-1.187,1.111-1.494,1.875
							c-0.307,0.764-0.388,1.604-0.232,2.415c0.157,0.811,0.542,1.556,1.108,2.141c0.567,0.585,1.289,0.983,2.075,1.145
							c0.786,0.162,1.601,0.079,2.341-0.237c0.74-0.316,1.374-0.852,1.819-1.539c0.446-0.687,0.683-1.496,0.683-2.322
							c0.001-0.549-0.104-1.092-0.307-1.599s-0.502-0.968-0.877-1.356c-0.376-0.388-0.823-0.696-1.314-0.906
							C112.859,51.843,112.332,51.734,111.799,51.734z M111.799,59.45c-0.678,0-1.34-0.207-1.904-0.596s-1.003-0.941-1.263-1.587
							c-0.259-0.646-0.327-1.357-0.195-2.043c0.133-0.686,0.459-1.316,0.939-1.811s1.09-0.831,1.755-0.968
							c0.665-0.136,1.354-0.066,1.98,0.201c0.626,0.268,1.162,0.721,1.538,1.302c0.377,0.582,0.578,1.265,0.578,1.965
							c0,0.938-0.361,1.837-1.004,2.5C113.581,59.078,112.709,59.45,111.799,59.45z"/>
						<path fill="#F2F2F2" d="M205.283,51.734c-0.801,0-1.585,0.245-2.251,0.704s-1.186,1.112-1.492,1.876
							c-0.307,0.764-0.388,1.604-0.231,2.415s0.542,1.556,1.109,2.14c0.566,0.585,1.289,0.983,2.075,1.144s1.601,0.078,2.34-0.238
							c0.74-0.316,1.374-0.852,1.819-1.539s0.683-1.495,0.683-2.322c0-1.108-0.427-2.172-1.186-2.955
							C207.388,52.175,206.357,51.734,205.283,51.734z M205.283,59.45c-0.678,0-1.341-0.207-1.904-0.596
							c-0.564-0.389-1.003-0.941-1.263-1.587c-0.26-0.646-0.327-1.357-0.195-2.043c0.133-0.686,0.459-1.316,0.939-1.811
							c0.479-0.495,1.09-0.831,1.754-0.968c0.665-0.136,1.355-0.066,1.981,0.201c0.626,0.268,1.162,0.721,1.538,1.302
							c0.377,0.582,0.578,1.265,0.578,1.965c0,0.938-0.362,1.837-1.004,2.5C207.064,59.078,206.192,59.45,205.283,59.45z"/>
						<path fill="#F2F2F2" d="M289.089,125.014c2.348,0,4.252-1.964,4.252-4.386s-1.904-4.387-4.252-4.387
							c-2.348,0-4.252,1.965-4.252,4.387S286.741,125.014,289.089,125.014z"/>
						<path fill="#F2F2F2" d="M304.304,108.419c3.937,0,7.129-3.293,7.129-7.354c0-4.062-3.192-7.354-7.129-7.354
							c-3.938,0-7.13,3.292-7.13,7.354C297.174,105.126,300.366,108.419,304.304,108.419z"/>
						<path fill="#F2F2F2" d="M294.865,144.102c3.937,0,7.129-3.293,7.129-7.354s-3.192-7.354-7.129-7.354s-7.129,3.293-7.129,7.354
							S290.928,144.102,294.865,144.102z"/>
						<path fill="#F2F2F2" d="M11.485,109.673c5.575,0,10.095-4.662,10.095-10.413s-4.52-10.413-10.095-10.413
							S1.39,93.509,1.39,99.26C1.39,105.012,5.91,109.673,11.485,109.673z"/>
						
							<linearGradient id="SVGID_3_" gradientUnits="userSpaceOnUse" x1="-30.2081" y1="-1251.7998" x2="-30.2081" y2="-1124.1218" gradientTransform="matrix(-1 0 0 -1 150.6632 -1025.7998)">
							<stop  offset="0" style="stop-color:#808080;stop-opacity:0.25"/>
							<stop  offset="0.54" style="stop-color:#808080;stop-opacity:0.12"/>
							<stop  offset="1" style="stop-color:#808080;stop-opacity:0.1"/>
						</linearGradient>
						<path fill="url(#SVGID_3_)" d="M155.528,216.291c0.546,1.123,1.942,1.396,2.565,2.456c0.376,0.615,0.418,1.433,0.933,1.919
							c0.273,0.204,0.559,0.389,0.855,0.557c0.554,0.403,0.857,1.084,1.414,1.497c0.27,0.186,0.562,0.337,0.868,0.451
							c1.11,0.459,2.407,0.91,3.44,0.287c0.139-0.07,0.26-0.171,0.356-0.295c0.096-0.124,0.165-0.268,0.201-0.423
							c0.018-0.257-0.042-0.513-0.172-0.733c-0.237-0.45-0.565-0.842-0.961-1.149c-0.223-0.184-0.632-0.305-0.78-0.037
							c-0.034,0.069-0.052,0.146-0.054,0.224c-0.076-0.244-0.132-0.494-0.17-0.747c-0.093-0.592-0.172-1.186-0.237-1.784
							c-0.168-1.124-0.142-2.271,0.075-3.386c0.197-0.729,0.471-1.434,0.819-2.1c0.445-0.906,0.915-1.793,1.413-2.662
							c0.318,0.309,0.631,0.619,0.941,0.931c2.359-2.155,3.532-5.286,5.456-7.871c1.216-1.596,2.685-2.967,4.345-4.056
							c-0.911,1.402-1.159,3.321-1.067,5.016c0.078,0.85,0.198,1.695,0.365,2.531c0.418,2.649,0.393,5.542-0.975,7.82
							c0.463,0.254,0.94,0.476,1.431,0.666c-0.062,1.711-0.249,3.414-0.556,5.096c-0.166-0.04-0.339-0.024-0.495,0.046
							s-0.285,0.192-0.367,0.345c-0.476,0.842-0.557,2.215-0.61,3.16c-0.03,0.245-0.005,0.494,0.072,0.727
							c0.039,0.115,0.112,0.214,0.207,0.286c0.095,0.071,0.21,0.112,0.328,0.116c-0.037,0.035-0.067,0.077-0.087,0.124
							c-0.021,0.048-0.031,0.099-0.031,0.151s0.01,0.102,0.031,0.15c0.02,0.048,0.049,0.089,0.087,0.124
							c0.16,0.129,0.354,0.201,0.556,0.207c0.807,0.098,1.623,0.085,2.427-0.038c0.26-0.017,0.511-0.111,0.721-0.27
							c0.102-0.084,0.171-0.203,0.195-0.336c0.024-0.132,0-0.27-0.067-0.385l1.967-0.118c1.072-0.022,2.138-0.175,3.175-0.457
							c1.049-0.292,1.962-0.961,2.575-1.887c0.211-0.297,0.303-0.666,0.257-1.031c-0.059-0.191-0.154-0.368-0.28-0.521
							s-0.28-0.279-0.453-0.37c-1.102-0.716-2.433-0.957-3.706-0.672l0.222,0.195c-0.2-0.048-0.398-0.103-0.593-0.172
							c-0.621-0.224-1.22-0.641-1.456-1.278c-0.099-0.32-0.15-0.653-0.151-0.988c-0.02-0.405,0.055-1.201,0-1.896
							c0.761-0.255,1.432-0.738,1.927-1.388c0.462-5.658,1.662-11.053,3.007-16.557c0.304-1.09,0.522-2.203,0.652-3.33
							c0.194-2.34-0.399-4.92,0.22-7.068c0.313-1.046,0.5-2.129,0.557-3.223c0-0.115,0-0.23,0-0.345
							c0.018-0.795,0.106-1.587,0.262-2.367c0.396-1.835,0.792-3.67,1.188-5.509c0.519-2.404,1.031-4.915,0.474-7.311
							c0.268-0.108,0.523-0.248,0.76-0.419c0.454-0.27,0.381-0.979,0.175-1.479c-0.206-0.499-0.485-1.068-0.251-1.557
							c0.124-0.197,0.264-0.383,0.42-0.554c0.307-0.426,0.354-0.989,0.391-1.52c0.05-0.702,0.098-1.402,0.145-2.1l-0.103,0.047
							l0.593-4.257c0.082-0.361,0.066-0.738-0.045-1.091c-0.188-0.352-0.481-0.63-0.836-0.793c-0.657-0.377-1.339-0.701-2.027-1.014
							c-0.011-0.038-0.028-0.075-0.028-0.109c-0.095-0.327-0.163-0.661-0.203-1c-0.031-0.353-0.006-0.712-0.031-1.066
							c-0.056-0.824-0.382-1.637-0.24-2.45c0.046-0.533-0.089-1.065-0.382-1.505c-0.29-0.42-0.284-1.046-0.153-1.569
							c0.155-0.628,0.445-1.244,0.4-1.893c-0.044-0.27-0.071-0.542-0.077-0.816c0.045-0.603,0.534-1.04,0.916-1.494
							c0.634-0.789,1.017-1.761,1.096-2.782c0.079-1.022-0.149-2.045-0.653-2.928c-0.499-0.796-1.195-1.453-1.613-2.298
							c0.024-0.049,0.053-0.095,0.078-0.147c0.245-0.639,0.355-1.324,0.323-2.011c0-0.18,0-0.359,0-0.539v-0.035
							c0.035-0.489-0.013-0.98-0.145-1.451c-0.114-0.34-0.305-0.647-0.557-0.896c0.002-0.436-0.039-0.87-0.123-1.296
							c-0.146-0.68-0.441-1.317-0.86-1.862l0.265-0.33c0.493-0.582,0.986-1.215,1.05-1.979c0-0.062,0-0.126,0-0.186v-0.057v-0.138
							c0-0.018,0.02,0,0-0.055s-0.02-0.15-0.02-0.159c0-0.008,0-0.029,0-0.029l-0.033-0.195c-0.028-0.152-0.058-0.301-0.084-0.454
							c-0.044-0.248-0.074-0.499-0.091-0.752l1.887-0.347c0.409-0.075,0.869-0.184,1.092-0.549c0.148-0.312,0.189-0.666,0.12-1.005
							c-0.014-0.047-0.014-0.092-0.014-0.138c0.267-0.139,0.531-0.287,0.79-0.448c2.496-1.541,4.454-3.858,6.367-6.137
							c1.264-1.505,2.578-2.947,3.843-4.453c0.815-0.218,1.671-0.468,2.208-1.134c0.295-0.365,0.49-0.854,0.902-1.063
							c0.227-0.09,0.464-0.15,0.705-0.178c0.359-0.076,0.694-0.245,0.971-0.494s0.487-0.568,0.608-0.926
							c0.11-0.363,0.101-0.753-0.027-1.11c-0.128-0.356-0.366-0.66-0.678-0.863c-0.183-0.069-0.343-0.187-0.468-0.342
							c-0.078-0.187-0.084-0.398-0.017-0.589c0.138-0.587,0.351-1.153,0.632-1.683c0.265-0.505,0.602-1.106,0.34-1.614l-3.417,3.815
							c-0.509,0.536-0.975,1.111-1.393,1.724c-0.365,0.569-0.649,1.189-1.017,1.763c-1.147,1.769-3.01,2.866-4.851,3.8
							c-1.114,0.557-2.227,1.077-3.341,1.577v-0.092c0.001-0.015,0.001-0.03,0-0.046c0-0.055,0-0.106,0-0.161v-0.023
							c0.027-0.468-0.069-0.935-0.279-1.35c-0.359-0.69-1.053-1.218-1.15-1.997c-0.059-0.47,0.122-0.941,0.108-1.415
							c-0.022-0.815-0.618-1.513-1.322-1.87c-0.705-0.356-1.502-0.432-2.281-0.503l0.748,0.356l-2.681-1.019
							c-1.033-0.394-2.086-0.79-3.183-0.834c-2.044-0.08-4.015,1.132-5.291,2.821c-0.585,0.79-1.059,1.66-1.41,2.585
							c-0.053,0.132-0.1,0.267-0.151,0.402c-0.047,0.131-0.091,0.266-0.133,0.399c-0.043,0.129-0.081,0.259-0.12,0.391v0.026
							c-0.037,0.126-0.072,0.253-0.106,0.379c0.001,0.015,0.001,0.029,0,0.044c-0.031,0.121-0.061,0.241-0.089,0.362l-0.017,0.06
							c-0.027,0.115-0.052,0.23-0.077,0.345l-0.017,0.077c-0.025,0.109-0.047,0.221-0.069,0.33l-0.017,0.089
							c-0.027,0.127-0.053,0.275-0.078,0.413c-0.039,0.224-0.072,0.448-0.111,0.675c-0.04,0.227-0.075,0.457-0.117,0.687
							c-0.131,1.011-0.449,1.987-0.939,2.873c-0.839,1.367-2.362,2.313-3.278,3.554c-0.141,0.189-0.265,0.388-0.373,0.598
							c-0.031,0.059-0.061,0.12-0.089,0.183l-0.02,0.052c-0.021,0.05-0.052,0.13-0.061,0.153c-0.008,0.022-0.005,0.016-0.022,0.066
							c-0.017,0.049-0.04,0.127-0.048,0.149s-0.011,0.02-0.022,0.072c-0.012,0.052-0.037,0.103-0.037,0.155
							c0.001,0.022,0.001,0.046,0,0.069c-0.014,0.074-0.017,0.129-0.036,0.23c-0.02,0.1-0.02,0.195-0.02,0.286
							c0.003,0.483,0.055,0.964,0.156,1.436c0.034,0.172,0.064,0.344,0.092,0.514c0.031,0.191,0.056,0.383,0.075,0.575
							c0.019,0.06,0.019,0.123,0.019,0.186c0.012,0.129,0.031,0.262,0.031,0.394c0,0.069,0,0.141,0,0.213c0,0.131,0,0.266,0,0.398
							c0,0.063,0,0.124,0,0.187c-0.003,0.175-0.019,0.35-0.019,0.525c-0.006,0.103-0.02,0.195-0.02,0.287l-0.025,0.287
							c-0.012,0.1-0.026,0.215-0.037,0.301c-0.011,0.087-0.02,0.158-0.036,0.259c-0.017,0.1-0.031,0.204-0.051,0.304
							c-0.073,0.397-0.165,0.789-0.279,1.175c-0.431,1.451-1.139,2.795-1.671,4.206l-0.022,0.06
							c-0.039,0.103-0.075,0.204-0.111,0.307l-0.034,0.097c-0.034,0.095-0.064,0.19-0.095,0.287l-0.033,0.104
							c-0.04,0.126-0.078,0.255-0.115,0.385c-0.056,0.207-0.105,0.422-0.145,0.634c-0.06,0.322-0.088,0.649-0.083,0.977
							c0.004,0.324,0.056,0.644,0.154,0.951c0.247,0.606,0.584,1.169,0.999,1.669c0.112,0.155,0.223,0.307,0.323,0.465
							c0.138,0.204,0.258,0.42,0.357,0.646c0.032,0.074,0.061,0.15,0.086,0.227c0.052,0.157,0.089,0.318,0.108,0.483
							c0.014,0.068,0.014,0.138,0.014,0.207v0.115c-0.047,0.604-0.197,1.195-0.445,1.744c-0.476,1.241-0.955,2.48-1.434,3.717
							c0.331-0.024,0.665-0.06,0.994-0.11c0.746-0.106,1.484-0.27,2.208-0.488l0.445-0.141c0.48-0.161,0.948-0.348,1.41-0.557
							c-0.069,1.369-0.114,2.737-0.137,4.105c-0.042,2.743-0.214,5.627-1.807,7.805c0.242,0.071,0.488,0.135,0.733,0.195
							c-1.348,1.754-1.922,4.142-1.844,6.44c0.097,2.861,1.06,5.602,2.016,8.285c1.363,3.843,2.727,7.68,4.091,11.51
							c-0.155,0.419-0.248,0.859-0.279,1.307c-0.044,0.223-0.042,0.453,0.006,0.675c0.049,0.222,0.141,0.433,0.273,0.615
							c0.126,0.154,0.289,0.272,0.418,0.425c0.401,0.465,0.428,1.161,0.362,1.784c-0.068,0.622-0.201,1.26-0.048,1.866
							c0.064,0.259,0.181,0.502,0.226,0.767c0.032,0.13,0.03,0.266-0.006,0.395c-0.035,0.129-0.104,0.245-0.197,0.338
							c-0.288,0.236-0.825,0.157-0.917,0.522c-3.755,3.38-6.899,7.42-9.285,11.933c-0.902,1.697-1.829,3.579-3.5,4.4
							c0.273,0.222,0.529,0.446,0.808,0.675c-1.309,1.389-2.735,2.656-4.261,3.786c-0.062,0.002-0.124,0.019-0.18,0.049
							c-0.738,0.303-1.433,0.705-2.067,1.198C155.623,213.483,154.886,215.048,155.528,216.291z"/>
						<path fill="#FECEB8" d="M180.107,214.656c-0.301-0.201-3.531-0.112-3.531,0.026c-0.021,2.097-0.232,4.186-0.627,6.243
							c-0.047,0.187-0.062,0.382-0.044,0.574c0.091,0.607,0.768,0.882,1.347,1.023c1.605,0.378,3.237,0.617,4.88,0.715
							c0.774,0.055,1.604,0.069,2.255-0.359c0.652-0.428,0.986-1.462,0.429-2.036c-0.211-0.195-0.466-0.332-0.743-0.396
							c-0.629-0.194-1.286-0.259-1.905-0.48c-0.618-0.221-1.22-0.633-1.453-1.262c-0.1-0.315-0.152-0.644-0.154-0.976
							C180.525,217.021,180.781,215.114,180.107,214.656z"/>
						<path fill="#FECEB8" d="M166.777,209.798c-0.382-1.077-1.913-1.752-2.83-2.226c-0.097-0.061-0.208-0.094-0.322-0.095
							c-0.146,0.032-0.275,0.116-0.363,0.239c-1.501,1.593-3.156,3.026-4.937,4.277c-0.162,0.099-0.305,0.229-0.417,0.385
							c-0.111,0.223-0.157,0.475-0.131,0.725c0.089,3.191,1.879,6.142,4.266,8.172c0.367,0.339,0.791,0.607,1.25,0.79
							c0.231,0.09,0.479,0.125,0.725,0.102c0.246-0.022,0.484-0.101,0.696-0.231c-0.476-0.33-0.624-0.982-0.716-1.557
							c-0.095-0.585-0.175-1.172-0.24-1.76c-0.166-1.11-0.14-2.241,0.075-3.341c0.197-0.72,0.471-1.415,0.819-2.071
							c0.47-0.949,0.973-1.881,1.507-2.795C166.302,210.149,166.517,209.936,166.777,209.798z"/>
						<path fill="#454554" d="M175.158,220.953c-0.477,0.812-0.557,2.18-0.611,3.111c-0.027,0.241-0.002,0.485,0.072,0.715
							c0.04,0.113,0.113,0.213,0.208,0.284s0.209,0.111,0.327,0.115c-0.036,0.034-0.066,0.075-0.086,0.122
							c-0.021,0.047-0.031,0.097-0.031,0.148c0,0.052,0.01,0.102,0.031,0.149c0.02,0.047,0.049,0.088,0.086,0.122
							c0.159,0.129,0.355,0.2,0.557,0.204c0.805,0.097,1.62,0.086,2.423-0.035c0.262-0.019,0.513-0.114,0.724-0.273
							c0.103-0.081,0.173-0.199,0.198-0.331c0.024-0.131,0-0.268-0.066-0.382l1.949-0.115c1.071-0.023,2.135-0.173,3.172-0.451
							c1.045-0.286,1.956-0.946,2.573-1.862c0.211-0.292,0.303-0.658,0.257-1.02c-0.124-0.374-0.387-0.685-0.731-0.861
							c-1.094-0.692-2.404-0.924-3.659-0.649l1.439,1.244c0.189,0.14,0.347,0.321,0.465,0.528c0.058,0.104,0.085,0.224,0.076,0.344
							s-0.053,0.234-0.126,0.328c-0.183,0.201-0.481,0.179-0.76,0.144c-2.17-0.296-4.342-0.606-6.347-1.468
							C176.624,220.776,175.633,220.139,175.158,220.953z"/>
						<path fill="#454554" d="M155.526,216.433c0.546,1.109,1.941,1.379,2.565,2.422c0.373,0.608,0.418,1.416,0.93,1.895
							c0.273,0.202,0.559,0.386,0.854,0.552c0.554,0.394,0.858,1.069,1.415,1.474c0.269,0.184,0.56,0.334,0.865,0.445
							c1.107,0.458,2.404,0.905,3.437,0.287c0.136-0.07,0.254-0.169,0.348-0.291c0.094-0.122,0.16-0.263,0.195-0.415
							c0.022-0.254-0.039-0.508-0.172-0.722c-0.233-0.451-0.561-0.844-0.959-1.149c-0.236-0.182-0.631-0.302-0.776-0.038
							c-0.117,0.21,0.011,0.558-0.198,0.667c-0.144,0.078-0.317-0.057-0.423-0.19c-0.808-1-1.123-2.315-1.521-3.55
							c-0.702-2.169-1.729-4.211-3.044-6.053c-0.014-0.034-0.037-0.065-0.065-0.09c-0.029-0.025-0.061-0.043-0.098-0.052
							c-0.036-0.01-0.073-0.01-0.109-0.003c-0.037,0.008-0.07,0.024-0.1,0.048c-0.737,0.298-1.432,0.695-2.067,1.181
							C155.651,213.65,154.916,215.196,155.526,216.433z"/>
						<path fill="#454554" d="M185.688,155.398c0.588,0.018,1.154,0.23,1.615,0.607c0.461,0.376,0.791,0.896,0.942,1.482
							c0.81,1.913,1.35,4.413,0.254,6.164c0.441-0.814,1.141-1.445,1.982-1.789l-0.145,2.074c-0.037,0.524-0.084,1.078-0.391,1.497
							c-0.155,0.169-0.296,0.353-0.42,0.549c-0.231,0.482,0.045,1.042,0.251,1.536c0.207,0.495,0.279,1.192-0.175,1.459
							c-0.236,0.166-0.49,0.304-0.757,0.411c0.56,2.364,0.041,4.84-0.476,7.215l-1.186,5.435c-0.156,0.768-0.243,1.549-0.262,2.333
							c0,0.115,0,0.227,0,0.341c-0.057,1.08-0.245,2.146-0.557,3.178c-0.621,2.119-0.028,4.676-0.223,6.974
							c-0.126,1.119-0.343,2.226-0.649,3.307c-1.333,5.42-2.542,10.751-3.004,16.336c-0.645,0.831-1.573,1.377-2.595,1.527
							c-1.63,0.233-3.306-0.347-4.765-1.129c1.367-2.257,1.405-5.102,0.974-7.716c-0.166-0.825-0.288-1.657-0.365-2.496
							c-0.092-1.669,0.156-3.564,1.067-4.946c-1.656,1.071-3.123,2.424-4.339,4.002c-1.922,2.535-3.095,5.63-5.448,7.755
							c-1.498-1.507-3.073-2.936-4.714-4.277c1.685-0.81,2.595-2.666,3.498-4.341c2.389-4.463,5.529-8.45,9.273-11.778
							c0.081-0.361,0.638-0.286,0.916-0.516c0.093-0.092,0.16-0.207,0.196-0.334s0.039-0.262,0.008-0.391
							c-0.045-0.257-0.162-0.499-0.226-0.755c-0.153-0.598-0.016-1.229,0.048-1.841c0.063-0.612,0.038-1.301-0.362-1.761
							c-0.139-0.149-0.29-0.266-0.418-0.419c-0.131-0.18-0.223-0.386-0.271-0.604c-0.049-0.219-0.051-0.446-0.008-0.666
							c0.033-0.443,0.127-0.878,0.279-1.293c-1.361-3.785-2.724-7.57-4.088-11.356c-0.952-2.646-1.913-5.352-2.011-8.173
							c-0.097-2.82,0.821-5.833,3.01-7.528C175.772,152.659,181.225,154.609,185.688,155.398z"/>
						<path opacity="0.1" enable-background="new    " d="M175.82,170.851l0.557,15.471v6.803c0,0,0.556,6.414,0.556,5.848
							s0.366-4.906,0-5.848c-0.365-0.942,0-4.717,0-4.717v-7.181c0,0-0.556-10.186-0.556-11.318s-2.195-2.643-2.195-2.643
							L175.82,170.851z"/>
						<path fill="#B7707C" d="M187.882,121.536c1.014-0.227,1.985-0.63,2.871-1.188c2.496-1.522,4.451-3.809,6.361-6.055
							c1.265-1.486,2.576-2.907,3.84-4.392c0.813-0.213,1.668-0.463,2.206-1.121c0.294-0.359,0.49-0.839,0.902-1.048
							c0.227-0.088,0.464-0.146,0.705-0.175c0.357-0.073,0.69-0.24,0.967-0.486s0.486-0.562,0.609-0.916
							c0.109-0.359,0.1-0.745-0.028-1.098c-0.128-0.352-0.366-0.651-0.677-0.847c-0.182-0.068-0.342-0.185-0.465-0.339
							c-0.078-0.182-0.085-0.388-0.02-0.575c0.139-0.58,0.352-1.139,0.632-1.663c0.268-0.497,0.602-1.088,0.34-1.591l-3.415,3.763
							c-0.508,0.528-0.974,1.098-1.393,1.704c-0.365,0.565-0.648,1.169-1.016,1.744c-1.145,1.738-3.007,2.826-4.845,3.749
							c-2.528,1.267-5.144,2.35-7.756,3.43l-1.278,0.513C187.057,117.105,187.545,119.307,187.882,121.536z"/>
						<path fill="#FECEB8" d="M187.882,121.536c1.014-0.227,1.985-0.63,2.871-1.188c2.496-1.522,4.451-3.809,6.361-6.055
							c1.265-1.486,2.576-2.907,3.84-4.392c0.813-0.213,1.668-0.463,2.206-1.121c0.294-0.359,0.49-0.839,0.902-1.048
							c0.227-0.088,0.464-0.146,0.705-0.175c0.357-0.073,0.69-0.24,0.967-0.486s0.486-0.562,0.609-0.916
							c0.109-0.359,0.1-0.745-0.028-1.098c-0.128-0.352-0.366-0.651-0.677-0.847c-0.182-0.068-0.342-0.185-0.465-0.339
							c-0.078-0.182-0.085-0.388-0.02-0.575c0.139-0.58,0.352-1.139,0.632-1.663c0.268-0.497,0.602-1.088,0.34-1.591l-3.415,3.763
							c-0.508,0.528-0.974,1.098-1.393,1.704c-0.365,0.565-0.648,1.169-1.016,1.744c-1.145,1.738-3.007,2.826-4.845,3.749
							c-2.528,1.267-5.144,2.35-7.756,3.43l-1.278,0.513C187.057,117.105,187.545,119.307,187.882,121.536z"/>
						<path fill="#C7C7C7" d="M185.891,122.963c-0.539,0.094-1.708,0.569-2.192,0.218c-0.385-0.269-1.066-4.687-1.345-4.596
							c1.112-0.417,2.19-0.924,3.224-1.517c1.158-0.624,2.381-1.315,3.002-2.502c0.703,2.053,1.171,4.183,1.392,6.349
							c0.07,0.334,0.028,0.684-0.12,0.99c-0.222,0.362-0.682,0.466-1.091,0.54L185.891,122.963z"/>
						<path fill="#FECEB8" d="M191.648,115.103c0-3.336-2.621-6.039-5.854-6.039c-3.232,0-5.853,2.704-5.853,6.039
							s2.621,6.038,5.853,6.038C189.027,121.141,191.648,118.438,191.648,115.103z"/>
						<path fill="#FBBEBE" d="M181.316,116.896c1.097,3.395-5.67,9.054-5.67,9.054s7.316,3.964,9.511,3.775
							c2.193-0.189,1.277-1.701-0.368-3.964c-1.646-2.264,2.195-5.659,2.195-5.659S180.218,113.501,181.316,116.896z"/>
						<path fill="#C7C7C7" d="M184.584,126.935c0.066,0.081,0.109,0.18,0.124,0.285c0.015,0.106,0.001,0.213-0.041,0.311
							c-0.04,0.097-0.107,0.182-0.192,0.243c-0.084,0.06-0.183,0.096-0.286,0.102c-1.052,0.077-2.11-0.025-3.13-0.301
							c-1.368-0.406-2.652-1.437-2.977-2.873c-0.248-1.109,0.038-2.408-0.928-3.16c-0.273-0.2-0.591-0.325-0.924-0.363
							c-0.333-0.037-0.67,0.013-0.978,0.148c-1.278,0.514-1.899,1.767-2.473,2.956c-0.626,1.302-1.267,2.666-1.345,4.102
							c-0.024,0.688,0.035,1.376,0.178,2.048c0.317,1.669,0.66,3.344,1.431,4.846c-0.581,4.468-0.908,8.966-0.977,13.473
							c-0.045,2.703-0.214,5.55-1.807,7.698c0.755,0.216,1.521,0.382,2.286,0.549c2.518,0.549,5.056,1.097,7.628,1.149
							c2.875,0.055,5.699-0.367,8.355-1.539l-0.491-1.865c-0.092-0.322-0.159-0.651-0.2-0.985c-0.031-0.35-0.006-0.701-0.031-1.052
							c-0.056-0.813-0.382-1.614-0.242-2.419c0.047-0.525-0.088-1.052-0.379-1.485c-0.29-0.413-0.285-1.031-0.154-1.545
							c0.156-0.62,0.446-1.229,0.401-1.87c-0.045-0.266-0.071-0.534-0.078-0.804c0.045-0.592,0.534-1.026,0.916-1.474
							c0.63-0.776,1.012-1.735,1.09-2.744c0.08-1.009-0.147-2.019-0.65-2.889c-0.509-0.836-1.264-1.502-1.67-2.393
							c-0.864-1.872,0.052-4.148-0.379-6.181c-0.192-0.845-0.608-1.619-1.202-2.235c-0.593-0.616-1.341-1.05-2.16-1.252
							C183.684,125.904,184.135,126.424,184.584,126.935z"/>
						<path fill="#FECEB8" d="M174.468,150.293c-0.091,0.022-0.174,0.073-0.237,0.144c-0.031,0.051-0.053,0.109-0.062,0.17
							c-0.01,0.06-0.007,0.123,0.007,0.182c0.152,0.92,0.635,1.749,1.354,2.318c0.714,0.558,1.498,1.017,2.33,1.364
							c3.144,1.465,6.495,2.649,9.605,4.191c0.098,0.071,0.176,0.166,0.228,0.277c0.051,0.11,0.075,0.233,0.067,0.356
							c0.036,0.742-0.148,1.453-0.243,2.178c-0.094,0.723-0.081,1.513,0.309,2.122c0.077,0.106,0.149,0.216,0.215,0.331
							c0.189,0.364,0.108,0.683,0.058,1.094c0.913-0.782,2.052-1.569,2.227-2.792l0.635-4.516c0.084-0.355,0.069-0.729-0.045-1.077
							c-0.19-0.347-0.483-0.62-0.836-0.781c-1.429-0.816-2.989-1.376-4.456-2.134c-2.501-1.293-4.692-3.137-6.859-4.964
							C177.362,149.279,175.875,149.764,174.468,150.293z"/>
						<path opacity="0.1" enable-background="new    " d="M183.098,130.406c-1.097,0.83-1.949,1.979-2.768,3.128
							c-0.551,0.761-1.462,1.385-1.793,2.273c-0.31,0.694-0.702,1.345-1.167,1.939c-1.292,1.875-2.228,3.984-3.156,6.078
							l-1.088,2.453c-0.441,0.883-0.756,1.828-0.933,2.803c-0.171,1.279,0.253,2.698,0.557,3.953
							c1.618,0.163,3.228-0.432,4.681-1.187c0.875-0.454,1.796-1.014,2.097-1.974c-0.182,0.015-0.299-0.221-0.251-0.401
							c0.066-0.175,0.169-0.331,0.303-0.457c0.069-0.062,0.121-0.141,0.153-0.228c0.032-0.088,0.043-0.183,0.032-0.275
							c-0.035-0.098-0.074-0.194-0.12-0.287c-0.125-0.359,0.282-0.756,0.504-1.061c2.507-3.456,3.8-7.727,6.372-11.128
							c0.251-0.301,0.469-0.628,0.652-0.977c0.248-0.63,0.359-1.31,0.326-1.99c0.034-0.483-0.014-0.97-0.146-1.436
							c-0.365-1.063-1.495-1.638-2.57-1.824C184.246,129.716,183.539,130.055,183.098,130.406z"/>
						<path fill="#C7C7C7" d="M183.098,129.837c-1.097,0.83-1.949,1.979-2.768,3.128c-0.551,0.761-1.462,1.385-1.793,2.27
							c-0.31,0.695-0.701,1.347-1.167,1.942c-1.292,1.875-2.228,3.984-3.155,6.078l-1.089,2.453
							c-0.441,0.883-0.756,1.827-0.933,2.803c-0.17,1.279,0.254,2.697,0.557,3.953c1.618,0.163,3.228-0.432,4.682-1.187
							c0.874-0.454,1.796-1.014,2.096-1.974c-0.181,0.015-0.298-0.221-0.251-0.402c0.066-0.173,0.17-0.33,0.304-0.456
							c0.068-0.062,0.12-0.141,0.152-0.228c0.033-0.089,0.043-0.183,0.032-0.276c-0.035-0.098-0.074-0.193-0.12-0.286
							c-0.124-0.36,0.282-0.757,0.505-1.061c2.506-3.456,3.799-7.727,6.372-11.129c0.25-0.3,0.468-0.627,0.651-0.976
							c0.248-0.631,0.36-1.31,0.326-1.99c0.034-0.483-0.014-0.97-0.145-1.436c-0.365-1.061-1.496-1.635-2.57-1.822
							C184.246,129.15,183.539,129.489,183.098,129.837z"/>
						<path fill="#393944" d="M187.982,105.528l-2.684-1.008c-1.034-0.386-2.084-0.779-3.181-0.822
							c-2.049-0.09-4.015,1.117-5.291,2.783c-1.275,1.666-1.935,3.751-2.306,5.84c-0.256,1.43-0.404,2.938-1.167,4.162
							c-1.181,1.904-3.735,2.979-3.999,5.225c-0.089,0.738,0.105,1.477,0.225,2.212c0.274,1.669,0.167,3.381-0.312,5.001
							c-0.545,1.847-1.559,3.518-2.066,5.377c-0.229,0.825-0.354,1.718-0.075,2.529c0.42,1.258,1.712,2.126,1.871,3.447
							c0.083,0.698-0.178,1.385-0.432,2.037l-1.433,3.669c2.487-0.184,4.895-0.985,7.017-2.335c0.842-0.5,1.585-1.158,2.192-1.94
							c0.657-0.91,1.02-2.007,1.493-3.036c0.479-0.995,1.022-1.954,1.627-2.873c2.016-3.162,4.222-6.19,6.606-9.066
							c0.491-0.574,0.984-1.198,1.047-1.951c0.006-0.423-0.045-0.846-0.147-1.255c-0.181-1.055-0.14-2.137,0.12-3.174
							c0.261-1.037,0.735-2.004,1.389-2.836c0.831-1.039,1.925-1.843,2.732-2.889c0.808-1.046,1.292-2.55,0.669-3.734
							c-0.357-0.681-1.051-1.202-1.148-1.971c-0.059-0.463,0.109-0.929,0.109-1.397c-0.023-0.804-0.621-1.494-1.323-1.844
							c-0.702-0.351-1.501-0.426-2.278-0.495"/>
						<g opacity="0.1">
							<path opacity="0.1" enable-background="new    " d="M175.417,109.036c-0.407,1.063-0.708,2.166-0.897,3.292
								c-0.08,0.442-0.148,0.893-0.228,1.341c0.585-1.151,0.73-2.504,0.961-3.794C175.301,109.593,175.348,109.315,175.417,109.036z
								"/>
							<path opacity="0.1" enable-background="new    " d="M170.08,119.993c-0.392,0.494-0.643,1.091-0.725,1.723
								c-0.089,0.738,0.106,1.477,0.226,2.212c0.208,1.273,0.195,2.574-0.037,3.843c0.178-0.431,0.326-0.853,0.457-1.293
								c0.477-1.621,0.584-3.334,0.312-5.004C170.232,120.982,170.121,120.492,170.08,119.993z"/>
							<path opacity="0.1" enable-background="new    " d="M167.155,136.833c0.421,1.258,1.712,2.126,1.871,3.447
								c0.007,0.106,0.007,0.213,0,0.319c0.09-0.245,0.185-0.492,0.279-0.736c0.257-0.652,0.515-1.339,0.432-2.037
								c-0.156-1.321-1.451-2.191-1.871-3.447c-0.163-0.536-0.2-1.105-0.106-1.66c-0.217,0.516-0.402,1.047-0.557,1.586
								C166.975,135.13,166.855,136.023,167.155,136.833z"/>
							<path opacity="0.1" enable-background="new    " d="M168.106,143.509l-0.974,2.471c2.487-0.184,4.895-0.985,7.018-2.335
								c0.842-0.5,1.585-1.158,2.192-1.939c0.657-0.911,1.019-2.008,1.493-3.037c0.478-0.995,1.021-1.954,1.626-2.873
								c2.016-3.162,4.222-6.189,6.606-9.066c0.491-0.574,0.984-1.198,1.048-1.95c0.015-0.273-0.007-0.545-0.064-0.811
								c-0.083,0.104-0.167,0.207-0.254,0.307c-2.383,2.878-4.589,5.907-6.603,9.069c-0.605,0.918-1.149,1.879-1.627,2.873
								c-0.473,1.026-0.835,2.126-1.495,3.037c-0.607,0.782-1.35,1.44-2.192,1.942C172.827,142.501,170.508,143.293,168.106,143.509
								z"/>
							<path opacity="0.1" enable-background="new    " d="M187.64,118.835c0.231-0.466,0.512-0.906,0.835-1.309
								c0.831-1.039,1.925-1.829,2.732-2.89c0.627-0.772,0.962-1.75,0.945-2.755c-0.069,0.106-0.14,0.207-0.212,0.304
								c-0.807,1.057-1.896,1.847-2.732,2.887C188.355,116.15,187.813,117.454,187.64,118.835z"/>
						</g>
						<path fill="#FF825C" d="M117.806,85.584l-2.019-2.094c-0.099-0.104-0.218-0.186-0.349-0.242s-0.271-0.085-0.412-0.085
							s-0.282,0.029-0.412,0.085c-0.131,0.056-0.25,0.139-0.349,0.242l-12.68,12.958l-5.363-5.573
							c-0.201-0.207-0.473-0.323-0.756-0.323c-0.284,0-0.556,0.116-0.756,0.323l-2.041,2.083c-0.201,0.209-0.313,0.491-0.313,0.786
							c0,0.294,0.113,0.576,0.313,0.786l8.146,8.465c0.202,0.207,0.476,0.323,0.76,0.323s0.558-0.116,0.76-0.323l15.472-15.839
							c0.101-0.103,0.18-0.225,0.235-0.36s0.083-0.279,0.083-0.426c0-0.146-0.029-0.291-0.083-0.426
							C117.987,85.809,117.907,85.687,117.806,85.584z"/>
						<path fill="#FF825C" d="M173.782,85.584l-2.019-2.094c-0.099-0.104-0.218-0.186-0.349-0.242s-0.271-0.085-0.412-0.085
							c-0.142,0-0.283,0.029-0.413,0.085c-0.13,0.056-0.249,0.139-0.349,0.242l-12.68,12.958l-5.364-5.573
							c-0.2-0.207-0.473-0.323-0.756-0.323s-0.555,0.116-0.756,0.323l-2.041,2.083c-0.2,0.209-0.313,0.491-0.313,0.786
							c0,0.294,0.113,0.576,0.313,0.786l8.146,8.465c0.202,0.207,0.475,0.323,0.76,0.323c0.284,0,0.557-0.116,0.76-0.323
							l15.472-15.839c0.1-0.103,0.18-0.225,0.235-0.36c0.055-0.135,0.082-0.279,0.082-0.426c0-0.146-0.028-0.291-0.082-0.426
							C173.962,85.809,173.882,85.687,173.782,85.584z"/>
					</g>
				</g>
			</g>
		</g>
	</g>
</g>
</svg>
