<?xml version="1.0" encoding="utf-8"?>
<!-- Generator: Adobe Illustrator 17.0.0, SVG Export Plug-In . SVG Version: 6.00 Build 0)  -->
<!DOCTYPE svg PUBLIC "-//W3C//DTD SVG 1.1//EN" "http://www.w3.org/Graphics/SVG/1.1/DTD/svg11.dtd">
<svg version="1.1" id="Layer_1" xmlns="http://www.w3.org/2000/svg" xmlns:xlink="http://www.w3.org/1999/xlink" x="0px" y="0px"
	 width="317px" height="226px" viewBox="0 0 317 226" enable-background="new 0 0 317 226" xml:space="preserve">
<g>
	<g>
		<defs>
			<rect id="SVGID_1_" x="1.39" y="1" width="314.219" height="226"/>
		</defs>
		<clipPath id="SVGID_2_">
			<use xlink:href="#SVGID_1_"  overflow="visible"/>
		</clipPath>
		<g clip-path="url(#SVGID_2_)">
			<path opacity="0.1" fill="#C7C7C7" enable-background="new    " d="M183.991,36.755c-20.137-0.721-39.316-7.429-57.632-14.765
				C108.045,14.653,89.904,6.524,70.246,2.637C57.606,0.135,43.147-0.218,32.96,6.773c-9.803,6.728-12.969,18.341-14.673,29.119
				c-1.281,8.109-2.033,16.641,1.476,24.233c2.437,5.268,6.764,9.698,9.747,14.745c10.412,17.566,3.063,39.222-8.232,56.375
				c-5.291,8.043-11.434,15.719-15.517,24.281c-4.083,8.563-5.965,18.376-2.375,27.126c3.542,8.658,11.975,15.162,21.128,19.737
				c18.558,9.276,40.444,11.936,61.784,13.441c47.241,3.333,94.737,1.89,142.104,0.445c17.528-0.537,35.136-1.076,52.379-3.875
				c9.577-1.551,19.463-4.021,26.416-9.965c8.826-7.552,11.015-20.341,5.1-29.812c-9.92-15.885-37.347-19.821-44.279-36.878
				c-3.818-9.382,0.103-19.835,5.651-28.536c11.897-18.672,31.838-35.045,32.888-56.386c0.725-14.65-8.864-29.335-23.687-36.269
				c-15.539-7.268-37.083-6.354-48.547,5.679C222.516,32.624,201.773,37.389,183.991,36.755z"/>
			<path fill="#C7C7C7" d="M252.759,196.884c-1.13-0.377-2.323-0.508-3.506-0.385c-1.439,0.161-1.236,2.422,0.209,2.316
				c0.723-0.057,1.437-0.193,2.133-0.405L252.759,196.884z"/>
			<path fill="#C7C7C7" d="M253.197,196.904c0.52,1.102,0.812,2.305,0.857,3.53c0.048,1.494-2.152,1.601-2.253,0.109
				c-0.043-0.745-0.011-1.495,0.095-2.234L253.197,196.904z"/>
			<path fill="#C7C7C7" d="M256.471,192.067c0,0-0.705-2.281-5.013-1.397c-1.949,0.399-1.896,3.284,0.056,3.588h0.084
				C254.441,194.666,255.43,193.503,256.471,192.067z"/>
			<path fill="#C7C7C7" d="M256.92,191.931c0,0,2.314,0.186,2.459,4.711c0.066,2.036-2.665,2.655-3.398,0.764
				c0-0.029-0.02-0.055-0.031-0.083C254.929,194.563,255.8,193.304,256.92,191.931z"/>
			<path fill="#C7C7C7" d="M260.011,186.1c-0.163-0.828-0.536-1.596-1.082-2.224c-0.546-0.629-1.245-1.097-2.025-1.354
				c-2.916-0.949-4.456,3.55-1.607,4.693c1.179,0.444,2.434,0.631,3.687,0.551L260.011,186.1z"/>
			<path fill="#C7C7C7" d="M263.567,178.589c0,0-1.178-2.874-4.233-3.447c-3.239-0.612-4.22,4.406-1.02,5.208
				c1.436,0.322,2.92,0.334,4.361,0.038L263.567,178.589z"/>
			<path fill="#C7C7C7" d="M265.714,171.192c-0.499-0.809-1.15-1.506-1.916-2.048c-0.765-0.543-1.63-0.921-2.54-1.112
				c-2.785-0.54-3.723,3.761-0.989,4.495c1.718,0.433,3.514,0.407,5.219-0.074L265.714,171.192z"/>
			<path fill="#C7C7C7" d="M267.738,163.982c-0.889-1.512-2.272-2.645-3.899-3.198c-2.784-0.881-4.16,3.473-1.392,4.421
				c1.64,0.562,3.415,0.555,5.051-0.02L267.738,163.982z"/>
			<path fill="#C7C7C7" d="M268.592,157.412c0,0-1.114-2.694-3.384-4.12c-2.529-1.588-4.937,2.299-2.506,4.048
				c1.498,1.082,3.417,1.83,5.658,1.329L268.592,157.412z"/>
			<path fill="#C7C7C7" d="M269.011,149.619c0,0-1.228-2.721-3.584-4.022c-2.635-1.436-4.926,2.534-2.444,4.246
				c1.623,1.117,3.651,1.841,5.803,0.967L269.011,149.619z"/>
			<path fill="#C7C7C7" d="M268.749,142.512c-0.919-1.471-2.046-2.792-3.342-3.921c-1.843-1.554-4.177,1.244-2.43,2.904
				c1.612,1.525,3.62,2.806,5.695,2.703L268.749,142.512z"/>
			<path fill="#C7C7C7" d="M268.051,135.692c-1.053-1.832-2.321-3.522-3.777-5.032c-1.442-1.436-3.575,0.752-2.227,2.267
				c1.556,1.723,3.657,3.51,6.179,4.291L268.051,135.692z"/>
			<path fill="#C7C7C7" d="M266.699,127.672c-0.867-1.393-1.878-2.684-3.015-3.852c-1.454-1.468-3.646,0.74-2.25,2.266
				c1.481,1.623,3.397,3.143,5.645,3.66L266.699,127.672z"/>
			<path fill="#C7C7C7" d="M265.519,120.189c-0.892-1.246-1.861-2.433-2.898-3.554c-1.165-1.238-3.024,0.503-1.927,1.807
				c1.289,1.533,2.943,2.892,4.845,3.11L265.519,120.189z"/>
			<path fill="#C7C7C7" d="M264.294,113.249c-0.814-1.643-1.745-3.223-2.784-4.725c-0.872-1.229-2.688,0.086-1.866,1.35
				c1.075,1.657,2.568,3.298,4.528,4.088L264.294,113.249z"/>
			<path fill="#C7C7C7" d="M263.283,104.025c0,0-0.688-1.203-1.671-2.603c-0.908-1.29-2.824,0.044-1.982,1.379
				c0.947,1.497,2.133,2.772,3.514,3.025L263.283,104.025z"/>
			<path fill="#C7C7C7" d="M262.801,97.912l-0.871-4.496c-0.231-1.189-1.95-0.905-1.81,0.287c0.311,2.401,1.114,4.817,2.86,6.403
				L262.801,97.912z"/>
			<path fill="#C7C7C7" d="M263.318,85.135c-0.081-0.199-0.23-0.36-0.418-0.453c-0.189-0.093-0.404-0.112-0.605-0.052
				c-0.201,0.059-0.374,0.193-0.487,0.375c-0.112,0.182-0.156,0.4-0.122,0.613c0.193,1.249,0.488,2.479,0.88,3.677L263.318,85.135z"
				/>
			<path fill="#C7C7C7" d="M260.206,186.012c0.778-0.266,1.61-0.311,2.411-0.134c0.801,0.178,1.541,0.573,2.145,1.145
				c2.228,2.146-0.785,5.745-3.161,3.766c-0.957-0.838-1.738-1.868-2.292-3.03L260.206,186.012z"/>
			<path fill="#C7C7C7" d="M263.764,178.315c0,0,2.93-0.73,5.197,1.46c2.403,2.32-0.919,6.121-3.45,3.946
				c-1.106-0.998-2-2.221-2.626-3.593L263.764,178.315z"/>
			<path fill="#C7C7C7" d="M265.906,171.697c0.757-0.559,1.617-0.955,2.526-1.164c0.909-0.208,1.85-0.225,2.766-0.049
				c2.784,0.575,2.091,4.92-0.713,4.55c-1.75-0.262-3.406-0.978-4.812-2.083L265.906,171.697z"/>
			<path fill="#C7C7C7" d="M267.878,164.021c1.369-1.06,3.059-1.581,4.768-1.468c2.912,0.262,2.601,4.826-0.315,4.636
				c-1.726-0.11-3.369-0.802-4.679-1.968L267.878,164.021z"/>
			<path fill="#C7C7C7" d="M268.554,157.598c0,0,1.546-2.458,4.013-3.464c2.737-1.117,4.494,3.114,1.835,4.416
				c-1.67,0.813-3.684,1.223-5.822,0.33L268.554,157.598z"/>
			<path fill="#C7C7C7" d="M268.652,149.501c0,0,1.562-2.529,4.06-3.493c2.785-1.077,4.565,3.174,1.888,4.539
				c-1.751,0.89-3.854,1.332-5.876,0.177L268.652,149.501z"/>
			<path fill="#C7C7C7" d="M268.129,142.436c0.592-1.639,1.418-3.179,2.45-4.568c1.476-1.927,4.348,0.287,2.977,2.299
				c-1.259,1.847-2.941,3.539-5.013,3.897L268.129,142.436z"/>
			<path fill="#C7C7C7" d="M267.915,135.681c0.512-2.068,1.272-4.061,2.261-5.935c1-1.786,3.637-0.307,2.741,1.537
				c-1.025,2.111-2.562,4.424-4.774,5.903L267.915,135.681z"/>
			<path fill="#C7C7C7" d="M266.299,127.298c0.602-1.593,1.373-3.112,2.301-4.53c1.147-1.724,3.689-0.035,2.64,1.747
				c-1.142,1.942-2.752,3.896-4.91,4.884L266.299,127.298z"/>
			<path fill="#C7C7C7" d="M265.012,120.149c0.31-1.516,0.714-3.009,1.206-4.472c0.556-1.629,2.954-0.842,2.481,0.816
				c-0.557,1.948-1.513,3.893-3.152,4.907L265.012,120.149z"/>
			<path fill="#C7C7C7" d="M264.119,113.114c0.429-1.794,0.988-3.552,1.67-5.26c0.58-1.402,2.641-0.548,2.117,0.876
				c-0.68,1.867-1.771,3.815-3.504,5.044L264.119,113.114z"/>
			<path fill="#C7C7C7" d="M262.778,104.657c0,0,0.262-1.37,0.738-3.027c0.44-1.529,2.678-0.928,2.314,0.621
				c-0.406,1.723-1.113,3.346-2.339,4.059L262.778,104.657z"/>
			<path fill="#C7C7C7" d="M263.091,97.607l1.515-4.309c0.401-1.149,2.072-0.592,1.747,0.575c-0.655,2.327-1.791,4.596-3.754,5.889
				L263.091,97.607z"/>
			<path display="none" fill="#C7C7C7" d="M264.979,85.586c0,0,0.237-0.195,0.599-0.503c0.738-0.632,1.701,0.471,1.005,1.149
				c-1.212,1.136-2.606,2.048-4.119,2.694L264.979,85.586z"/>
			<path fill="#C7C7C7" d="M264.879,83.09c0.905-1.907,1.914-3.76,3.021-5.55c0.063-0.123,0.081-0.267,0.05-0.402
				c-0.031-0.136-0.109-0.255-0.22-0.336s-0.246-0.117-0.381-0.102s-0.26,0.08-0.351,0.183c-0.891,1.258-1.766,3.099-2.429,5.805
				L264.879,83.09z"/>
			<path fill="#444053" d="M263.152,105.898l0.323-0.035c-1.393-13.389-0.805-21.645,1.629-23.245l-0.175-0.287
				C262.35,84.034,261.737,92.181,263.152,105.898z"/>
			<path fill="#444053" d="M267.941,137.554l0.482-0.074c-0.18-1.238-0.39-2.497-0.623-3.735
				c-2.027-10.867-3.604-20.912-4.392-28.541l-0.354-0.287c0.791,7.644,2.228,18.036,4.269,28.918
				C267.552,135.063,267.76,136.318,267.941,137.554z"/>
			<path fill="#444053" d="M245.385,205.226c0.072-0.06,7.491-5.915,14.005-17.144c3.817-6.571,6.6-13.726,8.243-21.196
				c2.058-9.338,2.116-20.214,0.631-30.4l-0.434,0.359c3.342,22.86-3.032,40.61-8.981,50.87
				c-6.45,11.126-13.782,16.92-13.857,16.978L245.385,205.226z"/>
			<path fill="#C7C7C7" d="M55.422,205.174c10.235,0,18.533-1.645,18.533-3.676c0-2.031-8.297-3.677-18.533-3.677
				s-18.533,1.646-18.533,3.677S45.186,205.174,55.422,205.174z"/>
			<path fill="#3F3D56" d="M55.109,202.848c1.192,0,2.158-1.304,2.158-2.913s-0.966-2.912-2.158-2.912s-2.158,1.303-2.158,2.912
				C52.951,201.543,53.917,202.848,55.109,202.848z"/>
			<path fill="#3F3D56" d="M55.109,199.285c1.192,0,2.158-1.303,2.158-2.912s-0.966-2.913-2.158-2.913s-2.158,1.304-2.158,2.913
				S53.917,199.285,55.109,199.285z"/>
			<path fill="#3F3D56" d="M55.109,195.726c1.192,0,2.158-1.303,2.158-2.912s-0.966-2.913-2.158-2.913s-2.158,1.304-2.158,2.913
				S53.917,195.726,55.109,195.726z"/>
			<path fill="#3F3D56" d="M55.109,192.164c1.192,0,2.158-1.304,2.158-2.913s-0.966-2.912-2.158-2.912s-2.158,1.303-2.158,2.912
				C52.951,190.86,53.917,192.164,55.109,192.164z"/>
			<path fill="#3F3D56" d="M55.109,188.603c1.192,0,2.158-1.304,2.158-2.913s-0.966-2.912-2.158-2.912s-2.158,1.303-2.158,2.912
				S53.917,188.603,55.109,188.603z"/>
			<path fill="#3F3D56" d="M55.109,185.043c1.192,0,2.158-1.304,2.158-2.913c0-1.608-0.966-2.912-2.158-2.912
				s-2.158,1.304-2.158,2.912C52.951,183.739,53.917,185.043,55.109,185.043z"/>
			<path fill="#3F3D56" d="M55.109,181.481c1.192,0,2.158-1.303,2.158-2.912c0-1.609-0.966-2.913-2.158-2.913
				s-2.158,1.304-2.158,2.913C52.951,180.177,53.917,181.481,55.109,181.481z"/>
			<path fill="#C7C7C7" d="M63.186,154.197c0.296-0.388,0.565-0.795,0.805-1.221l-5.67-0.96l6.127,0.046
				c0.589-1.319,0.91-2.749,0.944-4.201c0.034-1.452-0.22-2.896-0.746-4.244l-8.226,4.401l7.586-5.745
				c-0.709-1.27-1.665-2.375-2.807-3.247s-2.446-1.492-3.831-1.821c-1.385-0.329-2.82-0.36-4.217-0.091
				c-1.397,0.27-2.725,0.833-3.901,1.654c-1.176,0.822-2.176,1.885-2.936,3.123c-0.76,1.239-1.265,2.626-1.482,4.074
				s-0.143,2.927,0.219,4.345c0.362,1.417,1.003,2.743,1.883,3.893c-0.459,0.604-0.854,1.256-1.178,1.945l7.36,3.944l-7.842-2.717
				c-0.55,1.68-0.686,3.475-0.394,5.224c0.292,1.748,1.001,3.393,2.065,4.787c-1.2,1.573-1.946,3.462-2.154,5.452
				c-0.208,1.99,0.131,4.001,0.979,5.801s2.169,3.318,3.813,4.38c1.644,1.062,3.545,1.626,5.486,1.626
				c1.94,0,3.841-0.564,5.486-1.626c1.644-1.063,2.966-2.58,3.813-4.38s1.187-3.81,0.979-5.801
				c-0.208-1.989-0.954-3.879-2.154-5.452c1.434-1.878,2.214-4.2,2.214-6.591s-0.78-4.712-2.214-6.592L63.186,154.197z"/>
			<path opacity="0.1" enable-background="new    " d="M44.727,160.79c-0.002,2.39,0.777,4.712,2.211,6.59
				c-1.2,1.572-1.946,3.461-2.154,5.452c-0.208,1.989,0.131,4,0.979,5.8c0.847,1.8,2.169,3.319,3.813,4.38
				c1.644,1.063,3.546,1.626,5.486,1.626s3.841-0.563,5.486-1.626c1.644-1.062,2.966-2.58,3.813-4.38s1.187-3.81,0.979-5.8
				s-0.955-3.88-2.154-5.452C64.572,165.567,44.727,159.592,44.727,160.79z"/>
			<path fill="#FFFFFF" d="M65.99,76.043v126.885c0,0.581,0.111,1.157,0.327,1.695c0.216,0.537,0.532,1.025,0.931,1.436
				s0.872,0.737,1.393,0.961c0.521,0.223,1.079,0.337,1.643,0.337h176.521c1.139,0,2.231-0.467,3.037-1.298
				c0.805-0.831,1.258-1.957,1.258-3.131V76.043H65.99z"/>
			<path opacity="0.1" enable-background="new    " d="M122.479,87.401H83.046c-1.33,0-2.409,1.112-2.409,2.485v21.823
				c0,1.372,1.079,2.485,2.409,2.485h39.433c1.331,0,2.41-1.113,2.41-2.485V89.886C124.888,88.514,123.81,87.401,122.479,87.401z"/>
			<path opacity="0.1" enable-background="new    " d="M178.263,87.401H138.83c-1.33,0-2.409,1.112-2.409,2.485v21.823
				c0,1.372,1.078,2.485,2.409,2.485h39.433c1.33,0,2.409-1.113,2.409-2.485V89.886C180.672,88.514,179.593,87.401,178.263,87.401z"
				/>
			<path fill="#C7C7C7" d="M121.856,87.778H83.668c-1.33,0-2.409,1.112-2.409,2.485v21.068c0,1.372,1.078,2.484,2.409,2.484h38.189
				c1.33,0,2.409-1.112,2.409-2.484V90.263C124.265,88.89,123.187,87.778,121.856,87.778z"/>
			<path opacity="0.1" fill="#444053" enable-background="new    " d="M195.233,113.815h38.188c1.331,0,2.41-1.112,2.41-2.484
				V90.263c0-1.372-1.078-2.485-2.41-2.485h-38.188c-1.33,0-2.409,1.112-2.409,2.485v21.068
				C192.824,112.702,193.903,113.815,195.233,113.815z"/>
			<path fill="#C7C7C7" d="M139.451,113.815h38.188c1.33,0,2.409-1.112,2.409-2.484V90.263c0-1.372-1.078-2.485-2.409-2.485h-38.188
				c-1.33,0-2.409,1.112-2.409,2.485v21.068C137.042,112.702,138.12,113.815,139.451,113.815z"/>
			<path opacity="0.1" fill="#444053" enable-background="new    " d="M121.856,125.388H83.668c-1.33,0-2.409,1.113-2.409,2.485
				v21.068c0,1.372,1.078,2.485,2.409,2.485h38.189c1.33,0,2.409-1.113,2.409-2.485v-21.068
				C124.265,126.501,123.187,125.388,121.856,125.388z"/>
			<path opacity="0.1" fill="#444053" enable-background="new    " d="M195.233,151.426h38.188c1.331,0,2.41-1.112,2.41-2.485
				v-21.068c0-1.372-1.078-2.485-2.41-2.485h-38.188c-1.33,0-2.409,1.113-2.409,2.485v21.068
				C192.824,150.314,193.903,151.426,195.233,151.426z"/>
			<path opacity="0.1" fill="#444053" enable-background="new    " d="M139.451,151.426h38.188c1.33,0,2.409-1.112,2.409-2.485
				v-21.068c0-1.372-1.078-2.485-2.409-2.485h-38.188c-1.33,0-2.409,1.113-2.409,2.485v21.068
				C137.042,150.314,138.12,151.426,139.451,151.426z"/>
			<path opacity="0.1" fill="#444053" enable-background="new    " d="M121.856,162.999H83.668c-1.33,0-2.409,1.112-2.409,2.484
				v21.068c0,1.373,1.078,2.485,2.409,2.485h38.189c1.33,0,2.409-1.112,2.409-2.485v-21.068
				C124.265,164.112,123.187,162.999,121.856,162.999z"/>
			<path opacity="0.1" fill="#444053" enable-background="new    " d="M195.233,189.039h38.188c1.331,0,2.41-1.112,2.41-2.485
				v-21.068c0-1.372-1.078-2.484-2.41-2.484h-38.188c-1.33,0-2.409,1.112-2.409,2.484v21.068
				C192.824,187.927,193.903,189.039,195.233,189.039z"/>
			<path opacity="0.1" fill="#444053" enable-background="new    " d="M139.451,189.039h38.188c1.33,0,2.409-1.112,2.409-2.485
				v-21.068c0-1.372-1.078-2.484-2.409-2.484h-38.188c-1.33,0-2.409,1.112-2.409,2.484v21.068
				C137.042,187.927,138.12,189.039,139.451,189.039z"/>
			<path fill="#FFAD72" d="M65.99,53.634v23.052H251.1V53.634c0-0.582-0.111-1.158-0.326-1.696
				c-0.216-0.538-0.532-1.026-0.931-1.438s-0.872-0.738-1.394-0.961c-0.521-0.223-1.079-0.338-1.644-0.338H70.284
				c-0.564,0-1.123,0.115-1.644,0.338c-0.521,0.223-0.995,0.549-1.393,0.961c-0.399,0.412-0.715,0.9-0.931,1.438
				C66.1,52.476,65.989,53.052,65.99,53.634z M111.8,60.453c-0.678,0-1.341-0.207-1.905-0.596c-0.564-0.389-1.003-0.941-1.263-1.587
				c-0.259-0.646-0.327-1.357-0.194-2.043c0.132-0.686,0.458-1.316,0.938-1.811s1.09-0.831,1.755-0.968
				c0.665-0.136,1.354-0.066,1.98,0.201c0.626,0.268,1.162,0.721,1.538,1.302s0.578,1.265,0.578,1.965
				c0,0.938-0.361,1.837-1.004,2.5C113.581,60.081,112.709,60.453,111.8,60.453z M205.289,60.453c-0.678,0-1.341-0.207-1.904-0.596
				c-0.564-0.389-1.003-0.941-1.263-1.587c-0.26-0.646-0.327-1.357-0.195-2.043c0.132-0.686,0.459-1.316,0.939-1.811
				c0.479-0.495,1.089-0.831,1.754-0.968c0.665-0.136,1.355-0.066,1.981,0.201c0.625,0.268,1.162,0.721,1.538,1.302
				s0.577,1.265,0.577,1.965c0,0.465-0.088,0.925-0.261,1.355c-0.172,0.429-0.426,0.819-0.744,1.148
				c-0.319,0.328-0.698,0.589-1.114,0.766c-0.417,0.177-0.863,0.268-1.314,0.268C205.283,60.453,205.289,60.453,205.289,60.453z"/>
			<path opacity="0.1" enable-background="new    " d="M111.799,52.738c-0.801-0.001-1.585,0.244-2.251,0.703
				c-0.667,0.459-1.187,1.111-1.494,1.875c-0.307,0.764-0.388,1.604-0.232,2.415c0.157,0.811,0.542,1.556,1.108,2.141
				c0.567,0.585,1.289,0.983,2.075,1.145c0.786,0.162,1.601,0.079,2.341-0.237c0.74-0.316,1.374-0.852,1.819-1.539
				c0.446-0.687,0.683-1.496,0.683-2.322c0.001-0.549-0.104-1.092-0.307-1.599s-0.502-0.968-0.877-1.356
				c-0.376-0.388-0.823-0.696-1.314-0.906C112.859,52.847,112.332,52.738,111.799,52.738z M111.799,60.454
				c-0.678,0-1.34-0.207-1.904-0.596s-1.003-0.941-1.263-1.587c-0.259-0.646-0.327-1.357-0.195-2.043
				c0.133-0.686,0.459-1.316,0.939-1.811s1.09-0.831,1.755-0.968c0.665-0.136,1.354-0.066,1.98,0.201
				c0.626,0.268,1.162,0.721,1.538,1.302c0.377,0.582,0.578,1.265,0.578,1.965c0,0.938-0.361,1.837-1.004,2.5
				C113.581,60.082,112.709,60.454,111.799,60.454z"/>
			<path opacity="0.1" enable-background="new    " d="M205.283,52.738c-0.801,0-1.585,0.245-2.251,0.704s-1.186,1.112-1.492,1.876
				c-0.307,0.764-0.388,1.604-0.231,2.415s0.542,1.556,1.109,2.14c0.566,0.585,1.289,0.983,2.075,1.144s1.601,0.078,2.34-0.238
				c0.74-0.316,1.374-0.852,1.819-1.539s0.683-1.495,0.683-2.322c0-1.108-0.427-2.172-1.186-2.955
				C207.388,53.179,206.357,52.738,205.283,52.738z M205.283,60.454c-0.678,0-1.341-0.207-1.904-0.596
				c-0.564-0.389-1.003-0.941-1.263-1.587c-0.26-0.646-0.327-1.357-0.195-2.043c0.133-0.686,0.459-1.316,0.939-1.811
				c0.479-0.495,1.09-0.831,1.754-0.968c0.665-0.136,1.355-0.066,1.981,0.201c0.626,0.268,1.162,0.721,1.538,1.302
				c0.377,0.582,0.578,1.265,0.578,1.965c0,0.938-0.362,1.837-1.004,2.5C207.064,60.082,206.192,60.454,205.283,60.454z"/>
			<path opacity="0.1" fill="#C7C7C7" enable-background="new    " d="M289.089,126.018c2.348,0,4.252-1.964,4.252-4.386
				s-1.904-4.387-4.252-4.387c-2.348,0-4.252,1.965-4.252,4.387S286.741,126.018,289.089,126.018z"/>
			<path opacity="0.1" fill="#C7C7C7" enable-background="new    " d="M304.304,109.423c3.937,0,7.129-3.293,7.129-7.354
				c0-4.062-3.192-7.354-7.129-7.354c-3.938,0-7.13,3.292-7.13,7.354C297.174,106.13,300.366,109.423,304.304,109.423z"/>
			<path opacity="0.1" fill="#C7C7C7" enable-background="new    " d="M294.865,145.106c3.937,0,7.129-3.293,7.129-7.354
				s-3.192-7.354-7.129-7.354s-7.129,3.293-7.129,7.354S290.928,145.106,294.865,145.106z"/>
			<path opacity="0.1" fill="#C7C7C7" enable-background="new    " d="M11.485,110.677c5.575,0,10.095-4.662,10.095-10.413
				s-4.52-10.413-10.095-10.413S1.39,94.513,1.39,100.264C1.39,106.016,5.91,110.677,11.485,110.677z"/>
			
				<linearGradient id="SVGID_3_" gradientUnits="userSpaceOnUse" x1="218.1916" y1="839.924" x2="218.1916" y2="712.246" gradientTransform="matrix(1 0 0 1 16.68 -612.92)">
				<stop  offset="0" style="stop-color:#808080;stop-opacity:0.25"/>
				<stop  offset="0.54" style="stop-color:#808080;stop-opacity:0.12"/>
				<stop  offset="1" style="stop-color:#808080;stop-opacity:0.1"/>
			</linearGradient>
			<path fill="url(#SVGID_3_)" d="M259.167,213.677c-0.634-0.493-1.329-0.895-2.067-1.198c-0.056-0.03-0.118-0.047-0.18-0.049
				c-1.526-1.13-2.952-2.397-4.261-3.786c0.279-0.229,0.535-0.453,0.808-0.675c-1.671-0.821-2.598-2.703-3.5-4.4
				c-2.386-4.513-5.53-8.553-9.285-11.933c-0.092-0.365-0.629-0.286-0.917-0.522c-0.093-0.093-0.162-0.209-0.197-0.338
				c-0.036-0.129-0.038-0.265-0.006-0.395c0.045-0.265,0.162-0.508,0.226-0.767c0.153-0.606,0.02-1.244-0.048-1.866
				c-0.066-0.623-0.039-1.319,0.362-1.784c0.129-0.153,0.292-0.271,0.418-0.425c0.132-0.182,0.224-0.393,0.273-0.615
				c0.048-0.222,0.05-0.452,0.006-0.675c-0.031-0.448-0.124-0.888-0.279-1.307c1.364-3.83,2.728-7.667,4.091-11.51
				c0.956-2.683,1.919-5.424,2.016-8.285c0.078-2.298-0.496-4.686-1.844-6.44c0.245-0.06,0.491-0.124,0.733-0.195
				c-1.593-2.178-1.765-5.062-1.807-7.805c-0.023-1.368-0.068-2.736-0.137-4.105c0.462,0.209,0.93,0.396,1.41,0.557l0.445,0.141
				c0.724,0.218,1.462,0.382,2.208,0.488c0.329,0.05,0.663,0.086,0.994,0.11c-0.479-1.237-0.958-2.476-1.434-3.717
				c-0.248-0.549-0.398-1.14-0.445-1.744v-0.115c0-0.069,0-0.139,0.014-0.207c0.019-0.165,0.056-0.326,0.108-0.483
				c0.025-0.077,0.054-0.153,0.086-0.227c0.099-0.226,0.219-0.442,0.357-0.646c0.1-0.158,0.211-0.31,0.323-0.465
				c0.415-0.5,0.752-1.063,0.999-1.669c0.098-0.307,0.15-0.627,0.154-0.951c0.005-0.328-0.023-0.655-0.083-0.977
				c-0.04-0.212-0.089-0.427-0.145-0.634c-0.037-0.13-0.075-0.259-0.115-0.385l-0.033-0.104c-0.031-0.097-0.061-0.192-0.095-0.287
				l-0.034-0.097c-0.036-0.103-0.072-0.204-0.111-0.307l-0.022-0.06c-0.532-1.411-1.24-2.755-1.671-4.206
				c-0.114-0.386-0.206-0.778-0.279-1.175c-0.02-0.1-0.034-0.204-0.051-0.304c-0.016-0.101-0.025-0.172-0.036-0.259
				c-0.011-0.086-0.025-0.201-0.037-0.301l-0.025-0.287c0-0.092-0.014-0.184-0.02-0.287c0-0.175-0.016-0.35-0.019-0.525
				c0-0.063,0-0.124,0-0.187c0-0.132,0-0.267,0-0.398c0-0.072,0-0.144,0-0.213c0-0.132,0.019-0.265,0.031-0.394
				c0-0.063,0-0.126,0.019-0.186c0.019-0.192,0.044-0.384,0.075-0.575c0.028-0.17,0.058-0.342,0.092-0.514
				c0.101-0.472,0.153-0.953,0.156-1.436c0-0.091,0-0.186-0.02-0.286c-0.019-0.101-0.022-0.156-0.036-0.23
				c-0.001-0.023-0.001-0.047,0-0.069c0-0.052-0.025-0.103-0.037-0.155c-0.011-0.052-0.014-0.05-0.022-0.072s-0.031-0.1-0.048-0.149
				c-0.017-0.05-0.014-0.044-0.022-0.066c-0.009-0.023-0.04-0.103-0.061-0.153l-0.02-0.052c-0.028-0.063-0.058-0.124-0.089-0.183
				c-0.108-0.21-0.232-0.409-0.373-0.598c-0.916-1.241-2.439-2.187-3.278-3.554c-0.49-0.886-0.808-1.862-0.939-2.873
				c-0.042-0.23-0.077-0.46-0.117-0.687c-0.039-0.227-0.072-0.451-0.111-0.675c-0.025-0.138-0.051-0.286-0.078-0.413l-0.017-0.089
				c-0.022-0.109-0.044-0.221-0.069-0.33l-0.017-0.077c-0.025-0.115-0.05-0.23-0.077-0.345l-0.017-0.06
				c-0.028-0.121-0.058-0.241-0.089-0.362c-0.001-0.015-0.001-0.029,0-0.044c-0.034-0.126-0.069-0.253-0.106-0.379v-0.026
				c-0.039-0.132-0.077-0.262-0.12-0.391c-0.042-0.133-0.086-0.268-0.133-0.399c-0.051-0.135-0.098-0.27-0.151-0.402
				c-0.351-0.925-0.825-1.795-1.41-2.585c-1.276-1.689-3.247-2.901-5.291-2.821c-1.097,0.044-2.15,0.44-3.183,0.834l-2.681,1.019
				l0.748-0.356c-0.779,0.071-1.576,0.147-2.281,0.503c-0.704,0.357-1.3,1.055-1.322,1.87c-0.014,0.474,0.167,0.945,0.108,1.415
				c-0.097,0.779-0.791,1.307-1.15,1.997c-0.21,0.415-0.306,0.882-0.279,1.35v0.023c0,0.055,0,0.106,0,0.161
				c-0.001,0.016-0.001,0.031,0,0.046v0.092c-1.114-0.5-2.227-1.02-3.341-1.577c-1.841-0.934-3.704-2.031-4.851-3.8
				c-0.368-0.574-0.652-1.194-1.017-1.763c-0.418-0.613-0.884-1.188-1.393-1.724l-3.417-3.815c-0.262,0.508,0.075,1.109,0.34,1.614
				c0.281,0.53,0.494,1.096,0.632,1.683c0.067,0.191,0.061,0.402-0.017,0.589c-0.125,0.155-0.285,0.273-0.468,0.342
				c-0.312,0.203-0.55,0.507-0.678,0.863c-0.128,0.357-0.137,0.747-0.027,1.11c0.121,0.358,0.331,0.677,0.608,0.926
				c0.277,0.249,0.612,0.418,0.971,0.494c0.241,0.028,0.478,0.088,0.705,0.178c0.412,0.209,0.607,0.698,0.902,1.063
				c0.537,0.666,1.393,0.916,2.208,1.134c1.265,1.506,2.579,2.948,3.843,4.453c1.913,2.279,3.871,4.596,6.367,6.137
				c0.259,0.161,0.523,0.309,0.79,0.448c0,0.046,0,0.091-0.014,0.138c-0.069,0.339-0.028,0.693,0.12,1.005
				c0.223,0.365,0.683,0.474,1.092,0.549l1.887,0.347c-0.017,0.253-0.047,0.504-0.091,0.752c-0.026,0.153-0.056,0.302-0.084,0.454
				l-0.033,0.195c0,0,0,0.021,0,0.029c0,0.009,0,0.104-0.02,0.159s0,0.037,0,0.055v0.138v0.057c0,0.06,0,0.124,0,0.186
				c0.064,0.764,0.557,1.397,1.05,1.979l0.265,0.33c-0.419,0.545-0.714,1.182-0.86,1.862c-0.084,0.426-0.125,0.86-0.123,1.296
				c-0.252,0.249-0.443,0.556-0.557,0.896c-0.132,0.471-0.18,0.962-0.145,1.451v0.035c0,0.18,0,0.359,0,0.539
				c-0.032,0.687,0.078,1.372,0.323,2.011c0.025,0.052,0.054,0.098,0.078,0.147c-0.418,0.845-1.114,1.502-1.613,2.298
				c-0.504,0.883-0.732,1.906-0.653,2.928c0.079,1.021,0.462,1.993,1.096,2.782c0.382,0.454,0.871,0.891,0.916,1.494
				c-0.006,0.274-0.033,0.546-0.077,0.816c-0.045,0.649,0.245,1.265,0.4,1.893c0.131,0.523,0.137,1.149-0.153,1.569
				c-0.293,0.44-0.428,0.972-0.382,1.505c0.142,0.813-0.184,1.626-0.24,2.45c-0.025,0.354,0,0.713-0.031,1.066
				c-0.04,0.339-0.108,0.673-0.203,1c0,0.034-0.017,0.071-0.028,0.109c-0.688,0.313-1.37,0.637-2.027,1.014
				c-0.355,0.163-0.648,0.441-0.836,0.793c-0.111,0.353-0.127,0.73-0.045,1.091l0.593,4.257l-0.103-0.047
				c0.047,0.698,0.095,1.398,0.145,2.1c0.037,0.531,0.084,1.094,0.391,1.52c0.156,0.171,0.296,0.357,0.42,0.554
				c0.234,0.489-0.045,1.058-0.251,1.557c-0.206,0.5-0.279,1.209,0.175,1.479c0.237,0.171,0.492,0.311,0.76,0.419
				c-0.557,2.396-0.045,4.907,0.474,7.311c0.396,1.839,0.792,3.674,1.188,5.509c0.156,0.78,0.244,1.572,0.262,2.367
				c0,0.115,0,0.23,0,0.345c0.057,1.094,0.244,2.177,0.557,3.223c0.619,2.148,0.026,4.728,0.22,7.068
				c0.13,1.127,0.348,2.24,0.652,3.33c1.345,5.504,2.545,10.899,3.007,16.557c0.495,0.65,1.166,1.133,1.927,1.388
				c-0.055,0.695,0.02,1.491,0,1.896c-0.001,0.335-0.052,0.668-0.151,0.988c-0.236,0.637-0.835,1.054-1.456,1.278
				c-0.195,0.069-0.393,0.124-0.593,0.172l0.222-0.195c-1.273-0.285-2.604-0.044-3.706,0.672c-0.173,0.091-0.327,0.217-0.453,0.37
				s-0.221,0.33-0.28,0.521c-0.046,0.365,0.046,0.734,0.257,1.031c0.613,0.926,1.526,1.595,2.575,1.887
				c1.037,0.282,2.103,0.435,3.175,0.457l1.967,0.118c-0.067,0.115-0.091,0.253-0.067,0.385c0.024,0.133,0.093,0.252,0.195,0.336
				c0.21,0.159,0.461,0.253,0.721,0.27c0.804,0.123,1.62,0.136,2.427,0.038c0.202-0.006,0.396-0.078,0.556-0.207
				c0.038-0.035,0.067-0.076,0.087-0.124c0.021-0.048,0.031-0.098,0.031-0.15s-0.01-0.103-0.031-0.151
				c-0.02-0.047-0.05-0.089-0.087-0.124c0.118-0.004,0.233-0.045,0.328-0.116c0.095-0.072,0.168-0.171,0.207-0.286
				c0.077-0.233,0.102-0.482,0.072-0.727c-0.053-0.945-0.134-2.318-0.61-3.16c-0.082-0.153-0.211-0.275-0.367-0.345
				s-0.329-0.086-0.495-0.046c-0.307-1.682-0.494-3.385-0.556-5.096c0.491-0.19,0.968-0.412,1.431-0.666
				c-1.368-2.278-1.393-5.171-0.975-7.82c0.167-0.836,0.287-1.681,0.365-2.531c0.092-1.695-0.156-3.614-1.067-5.016
				c1.66,1.089,3.129,2.46,4.345,4.056c1.924,2.585,3.097,5.716,5.456,7.871c0.31-0.312,0.623-0.622,0.941-0.931
				c0.498,0.869,0.968,1.756,1.413,2.662c0.348,0.666,0.622,1.371,0.819,2.1c0.217,1.115,0.243,2.262,0.075,3.386
				c-0.065,0.598-0.144,1.192-0.237,1.784c-0.038,0.253-0.094,0.503-0.17,0.747c-0.002-0.078-0.02-0.155-0.054-0.224
				c-0.148-0.268-0.557-0.147-0.78,0.037c-0.396,0.307-0.724,0.699-0.961,1.149c-0.13,0.22-0.19,0.476-0.172,0.733
				c0.036,0.155,0.105,0.299,0.201,0.423c0.096,0.124,0.217,0.225,0.356,0.295c1.033,0.623,2.33,0.172,3.44-0.287
				c0.306-0.114,0.598-0.265,0.868-0.451c0.557-0.413,0.86-1.094,1.414-1.497c0.296-0.168,0.582-0.353,0.855-0.557
				c0.515-0.486,0.557-1.304,0.933-1.919c0.623-1.06,2.019-1.333,2.565-2.456C260.857,216.052,260.12,214.487,259.167,213.677z"/>
			<path fill="#A1616A" d="M235.16,218.732c-0.002,0.332-0.054,0.661-0.154,0.976c-0.233,0.629-0.835,1.041-1.453,1.262
				c-0.619,0.221-1.276,0.286-1.905,0.48c-0.277,0.064-0.532,0.201-0.743,0.396c-0.557,0.574-0.223,1.608,0.429,2.036
				c0.651,0.428,1.481,0.414,2.255,0.359c1.643-0.098,3.275-0.337,4.88-0.715c0.579-0.141,1.256-0.416,1.347-1.023
				c0.018-0.192,0.003-0.387-0.044-0.574c-0.395-2.057-0.606-4.146-0.627-6.243c0-0.138-3.23-0.227-3.531-0.026
				C234.94,216.118,235.196,218.025,235.16,218.732z"/>
			<path fill="#A1616A" d="M249.562,211.416c0.534,0.914,1.037,1.846,1.507,2.795c0.348,0.656,0.622,1.351,0.819,2.071
				c0.215,1.1,0.241,2.231,0.075,3.341c-0.065,0.588-0.145,1.175-0.24,1.76c-0.092,0.575-0.24,1.227-0.716,1.557
				c0.212,0.13,0.45,0.209,0.696,0.231c0.246,0.023,0.494-0.012,0.725-0.102c0.459-0.183,0.883-0.451,1.25-0.79
				c2.387-2.03,4.177-4.981,4.266-8.172c0.026-0.25-0.02-0.502-0.131-0.725c-0.112-0.156-0.255-0.286-0.417-0.385
				c-1.781-1.251-3.436-2.684-4.937-4.277c-0.088-0.123-0.217-0.207-0.363-0.239c-0.114,0.001-0.225,0.034-0.322,0.095
				c-0.917,0.474-2.448,1.149-2.83,2.226C249.204,210.94,249.419,211.153,249.562,211.416z"/>
			<path fill="#3F3D56" d="M238.423,222.068c-2.005,0.862-4.177,1.172-6.347,1.468c-0.279,0.035-0.577,0.057-0.76-0.144
				c-0.073-0.094-0.117-0.208-0.126-0.328c-0.009-0.12,0.018-0.24,0.076-0.344c0.118-0.207,0.276-0.388,0.465-0.528l1.439-1.244
				c-1.255-0.275-2.565-0.043-3.659,0.649c-0.344,0.176-0.607,0.487-0.731,0.861c-0.046,0.362,0.046,0.728,0.257,1.02
				c0.617,0.916,1.528,1.576,2.573,1.862c1.037,0.278,2.101,0.428,3.172,0.451l1.949,0.115c-0.066,0.114-0.09,0.251-0.066,0.382
				c0.025,0.132,0.095,0.25,0.198,0.331c0.211,0.159,0.462,0.254,0.724,0.273c0.803,0.121,1.618,0.132,2.423,0.035
				c0.202-0.004,0.398-0.075,0.557-0.204c0.037-0.034,0.066-0.075,0.086-0.122c0.021-0.047,0.031-0.097,0.031-0.149
				c0-0.051-0.01-0.101-0.031-0.148c-0.02-0.047-0.05-0.088-0.086-0.122c0.118-0.004,0.232-0.044,0.327-0.115
				s0.168-0.171,0.208-0.284c0.074-0.23,0.099-0.474,0.072-0.715c-0.054-0.931-0.134-2.299-0.611-3.111
				C240.088,221.143,239.097,221.78,238.423,222.068z"/>
			<path fill="#3F3D56" d="M259.118,213.855c-0.635-0.486-1.33-0.883-2.067-1.181c-0.03-0.024-0.063-0.04-0.1-0.048
				c-0.036-0.007-0.073-0.007-0.109,0.003c-0.037,0.009-0.069,0.027-0.098,0.052c-0.028,0.025-0.051,0.056-0.065,0.09
				c-1.315,1.842-2.342,3.884-3.044,6.053c-0.398,1.235-0.713,2.55-1.521,3.55c-0.106,0.133-0.279,0.268-0.423,0.19
				c-0.209-0.109-0.081-0.457-0.198-0.667c-0.145-0.264-0.54-0.144-0.776,0.038c-0.398,0.305-0.726,0.698-0.959,1.149
				c-0.133,0.214-0.194,0.468-0.172,0.722c0.035,0.152,0.101,0.293,0.195,0.415c0.094,0.122,0.212,0.221,0.348,0.291
				c1.033,0.618,2.33,0.171,3.437-0.287c0.305-0.111,0.596-0.261,0.865-0.445c0.557-0.405,0.861-1.08,1.415-1.474
				c0.295-0.166,0.581-0.35,0.854-0.552c0.512-0.479,0.557-1.287,0.93-1.895c0.624-1.043,2.019-1.313,2.565-2.422
				C260.805,216.2,260.07,214.654,259.118,213.855z"/>
			<path fill="#3F3D56" d="M243.575,156.475c2.189,1.695,3.107,4.708,3.01,7.528c-0.098,2.821-1.059,5.527-2.011,8.173
				c-1.364,3.786-2.727,7.571-4.088,11.356c0.152,0.415,0.246,0.85,0.279,1.293c0.043,0.22,0.041,0.447-0.008,0.666
				c-0.048,0.218-0.14,0.424-0.271,0.604c-0.128,0.153-0.279,0.27-0.418,0.419c-0.4,0.46-0.425,1.149-0.362,1.761
				c0.064,0.612,0.201,1.243,0.048,1.841c-0.064,0.256-0.181,0.498-0.226,0.755c-0.031,0.129-0.028,0.264,0.008,0.391
				s0.103,0.242,0.196,0.334c0.278,0.23,0.835,0.155,0.916,0.516c3.744,3.328,6.884,7.315,9.273,11.778
				c0.903,1.675,1.813,3.531,3.498,4.341c-1.641,1.341-3.216,2.77-4.714,4.277c-2.353-2.125-3.526-5.22-5.448-7.755
				c-1.216-1.578-2.683-2.931-4.339-4.002c0.911,1.382,1.159,3.277,1.067,4.946c-0.077,0.839-0.199,1.671-0.365,2.496
				c-0.431,2.614-0.393,5.459,0.974,7.716c-1.459,0.782-3.135,1.362-4.765,1.129c-1.022-0.15-1.95-0.696-2.595-1.527
				c-0.462-5.585-1.671-10.916-3.004-16.336c-0.306-1.081-0.523-2.188-0.649-3.307c-0.195-2.298,0.398-4.855-0.223-6.974
				c-0.312-1.032-0.5-2.098-0.557-3.178c0-0.114,0-0.226,0-0.341c-0.019-0.784-0.106-1.565-0.262-2.333l-1.186-5.435
				c-0.517-2.375-1.036-4.851-0.476-7.215c-0.267-0.107-0.521-0.245-0.757-0.411c-0.454-0.267-0.382-0.964-0.175-1.459
				c0.206-0.494,0.482-1.054,0.251-1.536c-0.124-0.196-0.265-0.38-0.42-0.549c-0.307-0.419-0.354-0.973-0.391-1.497l-0.145-2.074
				c0.841,0.344,1.541,0.975,1.982,1.789c-1.096-1.751-0.556-4.251,0.254-6.164c0.151-0.586,0.481-1.106,0.942-1.482
				c0.461-0.377,1.027-0.589,1.615-0.607C234.496,155.613,239.949,153.663,243.575,156.475z"/>
			<path opacity="0.1" enable-background="new    " d="M241.539,168.27c0,0-2.195,1.511-2.195,2.643s-0.556,11.318-0.556,11.318
				v7.181c0,0,0.365,3.775,0,4.717c-0.366,0.942,0,5.282,0,5.848c0,0.566,0.556-5.848,0.556-5.848v-6.803l0.557-15.471
				L241.539,168.27z"/>
			<path fill="#A1616A" d="M229.299,115.949l-1.278-0.513c-2.612-1.08-5.228-2.163-7.756-3.43c-1.838-0.923-3.7-2.011-4.845-3.749
				c-0.368-0.575-0.651-1.179-1.016-1.744c-0.419-0.606-0.885-1.176-1.393-1.704l-3.415-3.763c-0.262,0.503,0.072,1.094,0.34,1.591
				c0.28,0.524,0.493,1.083,0.632,1.663c0.065,0.187,0.058,0.393-0.02,0.575c-0.123,0.154-0.283,0.271-0.465,0.339
				c-0.311,0.196-0.549,0.495-0.677,0.847c-0.128,0.353-0.137,0.739-0.028,1.098c0.123,0.354,0.332,0.67,0.609,0.916
				s0.61,0.413,0.967,0.486c0.241,0.029,0.478,0.087,0.705,0.175c0.412,0.209,0.608,0.689,0.902,1.048
				c0.538,0.658,1.393,0.908,2.206,1.121c1.264,1.485,2.575,2.906,3.84,4.392c1.91,2.246,3.865,4.533,6.361,6.055
				c0.886,0.558,1.857,0.961,2.871,1.188C228.176,120.311,228.664,118.109,229.299,115.949z"/>
			<path opacity="0.15" enable-background="new    " d="M229.299,115.949l-1.278-0.513c-2.612-1.08-5.228-2.163-7.756-3.43
				c-1.838-0.923-3.7-2.011-4.845-3.749c-0.368-0.575-0.651-1.179-1.016-1.744c-0.419-0.606-0.885-1.176-1.393-1.704l-3.415-3.763
				c-0.262,0.503,0.072,1.094,0.34,1.591c0.28,0.524,0.493,1.083,0.632,1.663c0.065,0.187,0.058,0.393-0.02,0.575
				c-0.123,0.154-0.283,0.271-0.465,0.339c-0.311,0.196-0.549,0.495-0.677,0.847c-0.128,0.353-0.137,0.739-0.028,1.098
				c0.123,0.354,0.332,0.67,0.609,0.916s0.61,0.413,0.967,0.486c0.241,0.029,0.478,0.087,0.705,0.175
				c0.412,0.209,0.608,0.689,0.902,1.048c0.538,0.658,1.393,0.908,2.206,1.121c1.264,1.485,2.575,2.906,3.84,4.392
				c1.91,2.246,3.865,4.533,6.361,6.055c0.886,0.558,1.857,0.961,2.871,1.188C228.176,120.311,228.664,118.109,229.299,115.949z"/>
			<path fill="#C7C7C7" d="M226.96,123.449c-0.409-0.074-0.869-0.178-1.091-0.54c-0.148-0.306-0.19-0.656-0.12-0.99
				c0.221-2.166,0.689-4.296,1.392-6.349c0.621,1.187,1.844,1.878,3.002,2.502c1.034,0.593,2.112,1.1,3.224,1.517
				c-0.279-0.091-0.96,4.327-1.345,4.596c-0.484,0.351-1.653-0.124-2.192-0.218L226.96,123.449z"/>
			<path fill="#A1616A" d="M229.927,122.145c3.232,0,5.853-2.703,5.853-6.038s-2.621-6.039-5.853-6.039
				c-3.233,0-5.854,2.703-5.854,6.039C224.073,119.442,226.694,122.145,229.927,122.145z"/>
			<path fill="#FBBEBE" d="M228.737,121.106c0,0,3.841,3.395,2.195,5.659c-1.645,2.263-2.561,3.775-0.368,3.964
				c2.195,0.189,9.511-3.775,9.511-3.775s-6.767-5.659-5.67-9.054C235.503,114.505,228.737,121.106,228.737,121.106z"/>
			<path fill="#C7C7C7" d="M232.422,126.42c-0.819,0.202-1.567,0.636-2.16,1.252c-0.594,0.616-1.01,1.39-1.202,2.235
				c-0.431,2.033,0.485,4.309-0.379,6.181c-0.406,0.891-1.161,1.557-1.67,2.393c-0.503,0.87-0.73,1.88-0.65,2.889
				c0.078,1.009,0.46,1.968,1.09,2.744c0.382,0.448,0.871,0.882,0.916,1.474c-0.007,0.27-0.033,0.538-0.078,0.804
				c-0.045,0.641,0.245,1.25,0.401,1.87c0.131,0.514,0.136,1.132-0.154,1.545c-0.291,0.433-0.426,0.96-0.379,1.485
				c0.14,0.805-0.186,1.606-0.242,2.419c-0.025,0.351,0,0.702-0.031,1.052c-0.041,0.334-0.108,0.663-0.2,0.985l-0.491,1.865
				c2.656,1.172,5.48,1.594,8.355,1.539c2.572-0.052,5.11-0.6,7.628-1.149c0.765-0.167,1.531-0.333,2.286-0.549
				c-1.593-2.148-1.762-4.995-1.807-7.698c-0.069-4.507-0.396-9.005-0.977-13.473c0.771-1.502,1.114-3.177,1.431-4.846
				c0.143-0.672,0.202-1.36,0.178-2.048c-0.078-1.436-0.719-2.8-1.345-4.102c-0.574-1.189-1.195-2.442-2.473-2.956
				c-0.308-0.135-0.645-0.185-0.978-0.148c-0.333,0.038-0.651,0.163-0.924,0.363c-0.966,0.752-0.68,2.051-0.928,3.16
				c-0.325,1.436-1.609,2.467-2.977,2.873c-1.02,0.276-2.078,0.378-3.13,0.301c-0.103-0.006-0.202-0.042-0.286-0.102
				c-0.085-0.061-0.152-0.146-0.192-0.243c-0.042-0.098-0.056-0.205-0.041-0.311c0.015-0.105,0.058-0.204,0.124-0.285
				C231.586,127.428,232.037,126.908,232.422,126.42z"/>
			<path fill="#A1616A" d="M236.956,149.76c-2.167,1.827-4.358,3.671-6.859,4.964c-1.467,0.758-3.027,1.318-4.456,2.134
				c-0.353,0.161-0.646,0.434-0.836,0.781c-0.114,0.348-0.129,0.722-0.045,1.077l0.635,4.516c0.175,1.223,1.314,2.01,2.227,2.792
				c-0.05-0.411-0.131-0.73,0.058-1.094c0.066-0.115,0.138-0.225,0.215-0.331c0.39-0.609,0.403-1.399,0.309-2.122
				c-0.095-0.725-0.279-1.436-0.243-2.178c-0.008-0.123,0.016-0.246,0.067-0.356c0.052-0.111,0.13-0.206,0.228-0.277
				c3.11-1.542,6.461-2.726,9.605-4.191c0.832-0.347,1.616-0.806,2.33-1.364c0.719-0.569,1.202-1.398,1.354-2.318
				c0.014-0.059,0.017-0.122,0.007-0.182c-0.009-0.061-0.031-0.119-0.062-0.17c-0.063-0.071-0.146-0.122-0.237-0.144
				C239.846,150.768,238.359,150.283,236.956,149.76z"/>
			<path opacity="0.1" enable-background="new    " d="M230.938,130.812c-1.075,0.186-2.205,0.761-2.57,1.824
				c-0.132,0.466-0.18,0.953-0.146,1.436c-0.033,0.68,0.078,1.36,0.326,1.99c0.183,0.349,0.401,0.676,0.652,0.977
				c2.572,3.401,3.865,7.672,6.372,11.128c0.222,0.305,0.629,0.702,0.504,1.061c-0.046,0.093-0.085,0.189-0.12,0.287
				c-0.011,0.092,0,0.187,0.032,0.275c0.032,0.087,0.084,0.166,0.153,0.228c0.134,0.126,0.237,0.282,0.303,0.457
				c0.048,0.18-0.069,0.416-0.251,0.401c0.301,0.96,1.222,1.52,2.097,1.974c1.453,0.755,3.063,1.35,4.681,1.187
				c0.304-1.255,0.728-2.674,0.557-3.953c-0.177-0.975-0.492-1.92-0.933-2.803l-1.088-2.453c-0.928-2.094-1.864-4.203-3.156-6.078
				c-0.465-0.594-0.857-1.245-1.167-1.939c-0.331-0.888-1.242-1.512-1.793-2.273c-0.819-1.149-1.671-2.298-2.768-3.128
				C232.182,131.059,231.475,130.72,230.938,130.812z"/>
			<path fill="#C7C7C7" d="M230.937,130.245c-1.074,0.187-2.205,0.761-2.57,1.822c-0.131,0.466-0.179,0.953-0.145,1.436
				c-0.034,0.68,0.078,1.359,0.326,1.99c0.183,0.349,0.401,0.676,0.651,0.976c2.573,3.402,3.866,7.673,6.372,11.129
				c0.223,0.304,0.629,0.701,0.505,1.061c-0.046,0.093-0.085,0.188-0.12,0.286c-0.011,0.093-0.001,0.187,0.032,0.276
				c0.032,0.087,0.084,0.166,0.152,0.228c0.134,0.126,0.238,0.283,0.304,0.456c0.047,0.181-0.07,0.417-0.251,0.402
				c0.3,0.96,1.222,1.52,2.096,1.974c1.454,0.755,3.064,1.35,4.682,1.187c0.303-1.256,0.727-2.674,0.557-3.953
				c-0.177-0.976-0.492-1.92-0.933-2.803l-1.089-2.453c-0.927-2.094-1.863-4.203-3.155-6.078c-0.466-0.595-0.857-1.247-1.167-1.942
				c-0.331-0.885-1.242-1.509-1.793-2.27c-0.819-1.149-1.671-2.298-2.768-3.128C232.182,130.493,231.475,130.154,230.937,130.245z"
				/>
			<path fill="#3F3D56" d="M228.484,106.188c-0.777,0.069-1.576,0.144-2.278,0.495c-0.702,0.35-1.3,1.04-1.323,1.844
				c0,0.468,0.168,0.934,0.109,1.397c-0.097,0.769-0.791,1.29-1.148,1.971c-0.623,1.184-0.139,2.688,0.669,3.734
				c0.807,1.046,1.901,1.85,2.732,2.889c0.654,0.832,1.128,1.799,1.389,2.836c0.26,1.037,0.301,2.119,0.12,3.174
				c-0.102,0.409-0.153,0.832-0.147,1.255c0.063,0.753,0.556,1.377,1.047,1.951c2.384,2.876,4.59,5.904,6.606,9.066
				c0.605,0.919,1.148,1.878,1.627,2.873c0.473,1.029,0.836,2.126,1.493,3.036c0.607,0.782,1.35,1.44,2.192,1.94
				c2.122,1.35,4.53,2.151,7.017,2.335l-1.433-3.669c-0.254-0.652-0.515-1.339-0.432-2.037c0.159-1.321,1.451-2.189,1.871-3.447
				c0.279-0.811,0.154-1.704-0.075-2.529c-0.507-1.859-1.521-3.53-2.066-5.377c-0.479-1.62-0.586-3.332-0.312-5.001
				c0.12-0.735,0.314-1.474,0.225-2.212c-0.264-2.246-2.818-3.321-3.999-5.225c-0.763-1.224-0.911-2.732-1.167-4.162
				c-0.371-2.089-1.031-4.174-2.306-5.84c-1.276-1.666-3.242-2.873-5.291-2.783c-1.097,0.043-2.147,0.436-3.181,0.822l-2.684,1.008"
				/>
			<g opacity="0.1">
				<path opacity="0.1" enable-background="new    " d="M240.468,110.879c0.231,1.29,0.376,2.643,0.961,3.794
					c-0.08-0.448-0.148-0.899-0.228-1.341c-0.189-1.126-0.49-2.229-0.897-3.292C240.373,110.319,240.42,110.597,240.468,110.879z"/>
				<path opacity="0.1" enable-background="new    " d="M245.408,122.478c-0.272,1.67-0.165,3.383,0.312,5.004
					c0.131,0.44,0.279,0.862,0.457,1.293c-0.232-1.269-0.245-2.57-0.037-3.843c0.12-0.735,0.315-1.474,0.226-2.212
					c-0.082-0.632-0.333-1.229-0.725-1.723C245.6,121.496,245.489,121.986,245.408,122.478z"/>
				<path opacity="0.1" enable-background="new    " d="M248.518,135.309c-0.155-0.539-0.34-1.07-0.557-1.586
					c0.094,0.555,0.057,1.124-0.106,1.66c-0.42,1.256-1.715,2.126-1.871,3.447c-0.083,0.698,0.175,1.385,0.432,2.037
					c0.094,0.244,0.189,0.491,0.279,0.736c-0.007-0.106-0.007-0.213,0-0.319c0.159-1.321,1.45-2.189,1.871-3.447
					C248.866,137.027,248.746,136.134,248.518,135.309z"/>
				<path opacity="0.1" enable-background="new    " d="M240.841,142.201c-0.842-0.502-1.585-1.16-2.192-1.942
					c-0.66-0.911-1.022-2.011-1.495-3.037c-0.478-0.994-1.022-1.955-1.627-2.873c-2.014-3.162-4.22-6.191-6.603-9.069
					c-0.087-0.1-0.171-0.203-0.254-0.307c-0.057,0.266-0.079,0.538-0.064,0.811c0.064,0.752,0.557,1.376,1.048,1.95
					c2.384,2.877,4.59,5.904,6.606,9.066c0.605,0.919,1.148,1.878,1.626,2.873c0.474,1.029,0.836,2.126,1.493,3.037
					c0.607,0.781,1.35,1.439,2.192,1.939c2.123,1.35,4.531,2.151,7.018,2.335l-0.974-2.471
					C245.213,144.297,242.894,143.505,240.841,142.201z"/>
				<path opacity="0.1" enable-background="new    " d="M226.513,116.076c-0.836-1.04-1.925-1.83-2.732-2.887
					c-0.072-0.097-0.143-0.198-0.212-0.304c-0.017,1.005,0.318,1.983,0.945,2.755c0.807,1.061,1.901,1.851,2.732,2.89
					c0.323,0.403,0.604,0.843,0.835,1.309C227.908,118.458,227.366,117.154,226.513,116.076z"/>
			</g>
			<path fill="#FFAD72" d="M117.806,86.588l-2.019-2.094c-0.099-0.104-0.218-0.186-0.349-0.242s-0.271-0.085-0.412-0.085
				s-0.282,0.029-0.412,0.085c-0.131,0.056-0.25,0.139-0.349,0.242l-12.68,12.958l-5.363-5.573
				c-0.201-0.207-0.473-0.323-0.756-0.323c-0.284,0-0.556,0.116-0.756,0.323l-2.041,2.083c-0.201,0.209-0.313,0.491-0.313,0.786
				c0,0.294,0.113,0.576,0.313,0.786l8.146,8.465c0.202,0.207,0.476,0.323,0.76,0.323s0.558-0.116,0.76-0.323l15.472-15.839
				c0.101-0.103,0.18-0.225,0.235-0.36s0.083-0.279,0.083-0.426c0-0.146-0.029-0.291-0.083-0.426
				C117.987,86.813,117.907,86.691,117.806,86.588z"/>
			<path fill="#FFAD72" d="M173.782,86.588l-2.019-2.094c-0.099-0.104-0.218-0.186-0.349-0.242s-0.271-0.085-0.412-0.085
				c-0.142,0-0.283,0.029-0.413,0.085c-0.13,0.056-0.249,0.139-0.349,0.242l-12.68,12.958l-5.364-5.573
				c-0.2-0.207-0.473-0.323-0.756-0.323s-0.555,0.116-0.756,0.323l-2.041,2.083c-0.2,0.209-0.313,0.491-0.313,0.786
				c0,0.294,0.113,0.576,0.313,0.786l8.146,8.465c0.202,0.207,0.475,0.323,0.76,0.323c0.284,0,0.557-0.116,0.76-0.323l15.472-15.839
				c0.1-0.103,0.18-0.225,0.235-0.36c0.055-0.135,0.082-0.279,0.082-0.426c0-0.146-0.028-0.291-0.082-0.426
				C173.962,86.813,173.882,86.691,173.782,86.588z"/>
		</g>
	</g>
</g>
</svg>
