<?xml version="1.0" encoding="utf-8"?>
<!-- Generator: Adobe Illustrator 17.0.0, SVG Export Plug-In . SVG Version: 6.00 Build 0)  -->
<!DOCTYPE svg PUBLIC "-//W3C//DTD SVG 1.1//EN" "http://www.w3.org/Graphics/SVG/1.1/DTD/svg11.dtd">
<svg version="1.1" id="Layer_1" xmlns="http://www.w3.org/2000/svg" xmlns:xlink="http://www.w3.org/1999/xlink" x="0px" y="0px"
	 width="572.833px" height="421.667px" viewBox="0 0 572.833 421.667" enable-background="new 0 0 572.833 421.667"
	 xml:space="preserve">
<g>
	<path fill="#FF825C" d="M52.643,27.676c-0.817-0.438-1.456-1.043-1.918-1.813s-0.693-1.635-0.693-2.597s0.231-1.827,0.693-2.597
		s1.101-1.374,1.918-1.813c0.816-0.438,1.733-0.658,2.751-0.658c1.017,0,1.932,0.219,2.744,0.658
		c0.812,0.439,1.451,1.043,1.918,1.813c0.466,0.77,0.7,1.636,0.7,2.597s-0.233,1.827-0.7,2.597s-1.106,1.375-1.918,1.813
		c-0.812,0.439-1.727,0.658-2.744,0.658C54.377,28.334,53.46,28.115,52.643,27.676z M56.962,26.003
		c0.467-0.266,0.833-0.637,1.099-1.113s0.399-1.017,0.399-1.624s-0.133-1.148-0.399-1.624s-0.632-0.847-1.099-1.113
		s-0.989-0.399-1.568-0.399s-1.102,0.133-1.568,0.399c-0.467,0.266-0.833,0.637-1.099,1.113s-0.399,1.017-0.399,1.624
		s0.133,1.148,0.399,1.624s0.632,0.847,1.099,1.113c0.466,0.266,0.989,0.399,1.568,0.399S56.495,26.27,56.962,26.003z"/>
	<path fill="#FF825C" d="M68.568,22.426H66.02v5.74h-2.17v-5.74h-2.548v-1.792h7.266V22.426z"/>
	<path fill="#FF825C" d="M73.049,25.311h-1.134v2.856H69.73v-7.532h2.184v2.926h1.176l2.044-2.926h2.324l-2.632,3.612l2.814,3.92
		h-2.576L73.049,25.311z"/>
	<path fill="#FF825C" d="M85.067,21.005c0.574,0.322,1.024,0.775,1.351,1.358c0.327,0.583,0.49,1.263,0.49,2.037
		c0,0.775-0.164,1.454-0.49,2.037c-0.327,0.583-0.777,1.036-1.351,1.358s-1.211,0.483-1.911,0.483c-0.961,0-1.717-0.303-2.268-0.91
		v3.514h-2.184V20.634h2.086v0.868c0.541-0.653,1.33-0.98,2.366-0.98C83.856,20.522,84.493,20.684,85.067,21.005z M84.157,25.919
		c0.359-0.378,0.539-0.884,0.539-1.519c0-0.634-0.18-1.141-0.539-1.519s-0.819-0.567-1.379-0.567s-1.02,0.189-1.379,0.567
		S80.86,23.766,80.86,24.4c0,0.635,0.18,1.141,0.539,1.519s0.819,0.567,1.379,0.567S83.798,26.297,84.157,25.919z"/>
	<path fill="#FF825C" d="M94.622,23.701c0.504,0.429,0.756,1.045,0.756,1.848c0,0.84-0.285,1.489-0.854,1.946
		c-0.569,0.458-1.377,0.686-2.422,0.686l-3.668-0.014v-7.532h2.17v2.408h1.792C93.376,23.052,94.118,23.271,94.622,23.701z
		 M92.872,26.36c0.224-0.187,0.336-0.466,0.336-0.84c0-0.364-0.11-0.63-0.329-0.798c-0.22-0.168-0.544-0.257-0.973-0.266
		l-1.302-0.014v2.184h1.302C92.326,26.636,92.648,26.547,92.872,26.36z M96.19,20.634h2.17v7.532h-2.17V20.634z"/>
	<path fill="#FF825C" d="M106.788,22.426h-2.548v5.74h-2.17v-5.74h-2.548v-1.792h7.266
		C106.788,20.634,106.788,22.426,106.788,22.426z"/>
	<path fill="#FF825C" d="M109.035,27.782c-0.63-0.332-1.122-0.791-1.477-1.379c-0.354-0.588-0.532-1.255-0.532-2.002
		c0-0.747,0.177-1.414,0.532-2.002c0.355-0.588,0.847-1.047,1.477-1.379c0.63-0.331,1.342-0.497,2.135-0.497
		s1.502,0.166,2.128,0.497c0.625,0.332,1.115,0.791,1.47,1.379s0.532,1.255,0.532,2.002c0,0.747-0.177,1.414-0.532,2.002
		c-0.354,0.588-0.845,1.048-1.47,1.379s-1.335,0.497-2.128,0.497C110.377,28.278,109.665,28.113,109.035,27.782z M112.549,25.919
		c0.359-0.378,0.539-0.884,0.539-1.519c0-0.634-0.18-1.141-0.539-1.519s-0.819-0.567-1.379-0.567s-1.022,0.189-1.386,0.567
		s-0.546,0.885-0.546,1.519c0,0.635,0.182,1.141,0.546,1.519s0.826,0.567,1.386,0.567S112.19,26.297,112.549,25.919z"/>
	<path fill="#FF825C" d="M118.219,27.782c-0.64-0.332-1.139-0.791-1.498-1.379s-0.539-1.255-0.539-2.002
		c0-0.747,0.18-1.414,0.539-2.002c0.359-0.588,0.858-1.047,1.498-1.379c0.639-0.331,1.36-0.497,2.163-0.497
		c0.793,0,1.486,0.166,2.079,0.497c0.593,0.332,1.024,0.805,1.295,1.421l-1.694,0.91c-0.392-0.691-0.957-1.036-1.694-1.036
		c-0.569,0-1.041,0.187-1.414,0.56c-0.374,0.374-0.56,0.882-0.56,1.526s0.187,1.153,0.56,1.526c0.373,0.374,0.845,0.56,1.414,0.56
		c0.747,0,1.311-0.345,1.694-1.036l1.694,0.924c-0.271,0.597-0.702,1.064-1.295,1.4s-1.286,0.504-2.079,0.504
		C119.579,28.278,118.858,28.113,118.219,27.782z"/>
	<path fill="#FF825C" d="M131.385,22.426h-2.548v5.74h-2.17v-5.74h-2.548v-1.792h7.266V22.426z"/>
	<path fill="#FF825C" d="M138.875,23.708c0.522,0.434,0.784,1.048,0.784,1.841c0,0.831-0.292,1.477-0.875,1.939
		s-1.402,0.693-2.457,0.693l-3.78-0.014v-7.532h2.17v2.408h1.904C137.601,23.052,138.352,23.273,138.875,23.708z M137.097,26.36
		c0.224-0.187,0.336-0.466,0.336-0.84c0-0.364-0.11-0.63-0.329-0.798s-0.544-0.257-0.973-0.266l-1.414-0.014v2.184h1.414
		C136.551,26.636,136.873,26.547,137.097,26.36z"/>
</g>
<g>
	<path fill="#4C4C4C" d="M215.82,92.5h-1.456v3.666h-2.093v-9.1h2.093v3.679h1.508l2.392-3.679h2.223l-2.977,4.394l3.068,4.706
		h-2.392L215.82,92.5z"/>
	<path fill="#4C4C4C" d="M222.6,95.809c-0.585-0.308-1.042-0.734-1.372-1.281c-0.33-0.546-0.494-1.166-0.494-1.859
		s0.165-1.313,0.494-1.859c0.329-0.546,0.787-0.973,1.372-1.281c0.585-0.307,1.246-0.461,1.982-0.461s1.396,0.154,1.976,0.461
		c0.581,0.308,1.036,0.735,1.365,1.281c0.33,0.546,0.494,1.166,0.494,1.859s-0.165,1.313-0.494,1.859
		c-0.329,0.546-0.784,0.973-1.365,1.281s-1.24,0.461-1.976,0.461C223.846,96.271,223.185,96.117,222.6,95.809z M225.863,94.08
		c0.333-0.351,0.5-0.821,0.5-1.411s-0.167-1.06-0.5-1.411c-0.334-0.351-0.761-0.526-1.281-0.526s-0.949,0.176-1.287,0.526
		c-0.338,0.351-0.507,0.821-0.507,1.411s0.169,1.06,0.507,1.411s0.767,0.526,1.287,0.526S225.529,94.431,225.863,94.08z"/>
	<path fill="#4C4C4C" d="M229.808,89.172h2.015v2.73h3.042v-2.73h2.028v6.994h-2.028v-2.613h-3.042v2.613h-2.015V89.172z"/>
	<path fill="#4C4C4C" d="M244.706,90.836h-2.366v5.33h-2.015v-5.33h-2.366v-1.664h6.747V90.836z"/>
	<path fill="#4C4C4C" d="M250.998,89.842c0.581,0.516,0.871,1.294,0.871,2.333v3.991h-1.898v-0.871
		c-0.382,0.65-1.092,0.975-2.132,0.975c-0.537,0-1.003-0.091-1.397-0.273s-0.695-0.433-0.903-0.754s-0.312-0.685-0.312-1.092
		c0-0.65,0.245-1.161,0.734-1.534s1.246-0.559,2.269-0.559h1.612c0-0.442-0.134-0.782-0.403-1.021s-0.672-0.357-1.209-0.357
		c-0.373,0-0.739,0.058-1.099,0.175c-0.359,0.117-0.665,0.275-0.917,0.475l-0.728-1.417c0.381-0.269,0.839-0.477,1.372-0.624
		c0.533-0.147,1.081-0.221,1.645-0.221C249.586,89.068,250.418,89.327,250.998,89.842z M249.269,94.665
		c0.269-0.16,0.459-0.396,0.572-0.708v-0.715h-1.391c-0.832,0-1.248,0.273-1.248,0.819c0,0.26,0.102,0.466,0.305,0.618
		c0.204,0.151,0.483,0.227,0.839,0.227C248.693,94.905,249.001,94.826,249.269,94.665z"/>
	<path fill="#4C4C4C" d="M256.718,93.515h-1.053v2.652h-2.028v-6.994h2.028v2.717h1.092l1.898-2.717h2.158l-2.444,3.354l2.613,3.64
		h-2.392L256.718,93.515z"/>
	<path fill="#4C4C4C" d="M267.794,90.836h-2.366v5.33h-2.015v-5.33h-2.366v-1.664h6.747V90.836z"/>
	<path fill="#4C4C4C" d="M273.871,95.809c-0.594-0.308-1.058-0.734-1.391-1.281c-0.333-0.546-0.5-1.166-0.5-1.859
		s0.167-1.313,0.5-1.859s0.797-0.973,1.391-1.281c0.594-0.307,1.263-0.461,2.009-0.461c0.736,0,1.38,0.154,1.93,0.461
		c0.55,0.308,0.951,0.748,1.203,1.32l-1.573,0.845c-0.364-0.641-0.888-0.962-1.573-0.962c-0.529,0-0.966,0.173-1.313,0.52
		s-0.52,0.819-0.52,1.417s0.173,1.07,0.52,1.417s0.784,0.52,1.313,0.52c0.693,0,1.217-0.32,1.573-0.962l1.573,0.858
		c-0.251,0.555-0.652,0.988-1.203,1.3s-1.194,0.468-1.93,0.468C275.134,96.271,274.465,96.117,273.871,95.809z"/>
	<path fill="#4C4C4C" d="M283.926,89.172h2.015v2.73h3.042v-2.73h2.027v6.994h-2.027v-2.613h-3.042v2.613h-2.015V89.172z"/>
	<path fill="#4C4C4C" d="M298.162,89.842c0.58,0.516,0.871,1.294,0.871,2.333v3.991h-1.898v-0.871
		c-0.382,0.65-1.092,0.975-2.132,0.975c-0.537,0-1.003-0.091-1.397-0.273s-0.695-0.433-0.903-0.754s-0.313-0.685-0.313-1.092
		c0-0.65,0.245-1.161,0.734-1.534c0.49-0.373,1.246-0.559,2.269-0.559h1.612c0-0.442-0.135-0.782-0.403-1.021
		s-0.672-0.357-1.209-0.357c-0.372,0-0.738,0.058-1.099,0.175c-0.359,0.117-0.665,0.275-0.916,0.475l-0.729-1.417
		c0.382-0.269,0.839-0.477,1.372-0.624s1.081-0.221,1.645-0.221C296.749,89.068,297.581,89.327,298.162,89.842z M296.432,94.665
		c0.269-0.16,0.46-0.396,0.572-0.708v-0.715h-1.391c-0.832,0-1.248,0.273-1.248,0.819c0,0.26,0.102,0.466,0.305,0.618
		c0.204,0.151,0.483,0.227,0.839,0.227C295.856,94.905,296.164,94.826,296.432,94.665z"/>
	<path fill="#4C4C4C" d="M302.12,95.809c-0.594-0.308-1.058-0.734-1.391-1.281c-0.334-0.546-0.501-1.166-0.501-1.859
		s0.167-1.313,0.501-1.859c0.333-0.546,0.797-0.973,1.391-1.281c0.594-0.307,1.264-0.461,2.009-0.461
		c0.736,0,1.38,0.154,1.931,0.461c0.55,0.308,0.951,0.748,1.202,1.32l-1.573,0.845c-0.363-0.641-0.888-0.962-1.572-0.962
		c-0.529,0-0.967,0.173-1.313,0.52s-0.52,0.819-0.52,1.417s0.173,1.07,0.52,1.417s0.784,0.52,1.313,0.52
		c0.693,0,1.217-0.32,1.572-0.962l1.573,0.858c-0.251,0.555-0.652,0.988-1.202,1.3c-0.551,0.312-1.194,0.468-1.931,0.468
		C303.383,96.271,302.714,96.117,302.12,95.809z"/>
	<path fill="#4C4C4C" d="M314.346,90.836h-2.366v5.33h-2.015v-5.33h-2.366v-1.664h6.747V90.836z"/>
	<path fill="#4C4C4C" d="M316.433,95.809c-0.585-0.308-1.043-0.734-1.372-1.281c-0.329-0.546-0.494-1.166-0.494-1.859
		s0.165-1.313,0.494-1.859s0.787-0.973,1.372-1.281c0.585-0.307,1.245-0.461,1.982-0.461c0.736,0,1.396,0.154,1.976,0.461
		c0.581,0.308,1.036,0.735,1.365,1.281s0.494,1.166,0.494,1.859s-0.165,1.313-0.494,1.859c-0.329,0.546-0.784,0.973-1.365,1.281
		c-0.58,0.308-1.239,0.461-1.976,0.461C317.678,96.271,317.018,96.117,316.433,95.809z M319.696,94.08
		c0.334-0.351,0.501-0.821,0.501-1.411s-0.167-1.06-0.501-1.411c-0.334-0.351-0.761-0.526-1.28-0.526
		c-0.521,0-0.949,0.176-1.287,0.526c-0.338,0.351-0.507,0.821-0.507,1.411s0.169,1.06,0.507,1.411s0.767,0.526,1.287,0.526
		C318.935,94.606,319.362,94.431,319.696,94.08z"/>
	<path fill="#4C4C4C" d="M329.634,89.172v6.994h-1.808v-2.002h-1.494l-1.326,2.002h-2.158l1.599-2.288
		c-0.485-0.19-0.855-0.466-1.111-0.825c-0.256-0.36-0.384-0.795-0.384-1.307c0-0.823,0.297-1.458,0.891-1.905
		c0.594-0.446,1.411-0.669,2.451-0.669C326.294,89.172,329.634,89.172,329.634,89.172z M325.35,91.058
		c-0.221,0.156-0.331,0.407-0.331,0.754s0.106,0.6,0.318,0.76c0.213,0.161,0.535,0.241,0.969,0.241h1.521v-1.989h-1.494
		C325.899,90.824,325.572,90.901,325.35,91.058z"/>
	<path fill="#4C4C4C" d="M342.257,89.172v6.994h-10.673v-6.994h2.015v5.33h2.327v-5.33h2.015v5.33h2.301v-5.33H342.257z
		 M343.232,94.502v3.055h-1.885v-1.391h-1.157v-1.664H343.232z"/>
	<path fill="#4C4C4C" d="M344.207,89.172h2.016v4.16l3.405-4.16h1.859v6.994h-2.015v-4.16l-3.394,4.16h-1.872v-6.994H344.207z"/>
	<path fill="#4C4C4C" d="M360.262,96.167V91.98l-2.093,3.51h-0.858l-2.041-3.523v4.199h-1.833v-6.994h2.119l2.236,4.043l2.379-4.043
		h1.898l0.025,6.994L360.262,96.167L360.262,96.167z"/>
</g>
<g>
	<path fill="#4C4C4C" d="M52.258,137.4v9.1h-2.093v-7.384h-4.108v7.384h-2.093v-9.1H52.258z"/>
	<path fill="#4C4C4C" d="M60.26,139.851c0.533,0.299,0.951,0.719,1.254,1.261s0.455,1.172,0.455,1.892s-0.152,1.35-0.455,1.892
		c-0.304,0.542-0.722,0.962-1.254,1.261c-0.533,0.299-1.125,0.449-1.774,0.449c-0.893,0-1.595-0.282-2.106-0.845v3.263h-2.028
		v-9.516h1.937v0.806c0.502-0.606,1.235-0.91,2.197-0.91C59.136,139.402,59.727,139.551,60.26,139.851z M59.415,144.414
		c0.333-0.351,0.5-0.821,0.5-1.411s-0.167-1.06-0.5-1.411s-0.76-0.526-1.28-0.526s-0.947,0.176-1.281,0.526
		c-0.333,0.351-0.5,0.821-0.5,1.411s0.167,1.06,0.5,1.411s0.761,0.526,1.281,0.526S59.082,144.765,59.415,144.414z"/>
	<path fill="#4C4C4C" d="M63.386,139.506h2.015v4.16l3.406-4.16h1.859v6.994h-2.015v-4.16l-3.393,4.16h-1.872V139.506z"/>
	<path fill="#4C4C4C" d="M72.616,139.506h2.015v2.73h3.042v-2.73h2.028v6.994h-2.028v-2.613h-3.042v2.613h-2.015V139.506z"/>
	<path fill="#4C4C4C" d="M87.852,139.506v6.994h-1.807v-2.002H84.55l-1.326,2.002h-2.158l1.599-2.288
		c-0.485-0.19-0.856-0.466-1.111-0.825c-0.256-0.36-0.384-0.795-0.384-1.307c0-0.823,0.297-1.458,0.891-1.905
		c0.594-0.446,1.411-0.669,2.451-0.669H87.852z M83.569,141.391c-0.221,0.156-0.331,0.407-0.331,0.754s0.106,0.6,0.318,0.76
		c0.212,0.161,0.535,0.241,0.968,0.241h1.521v-1.989H84.55C84.117,141.157,83.79,141.235,83.569,141.391z"/>
	<path fill="#4C4C4C" d="M95.678,141.17h-2.366v5.33h-2.015v-5.33h-2.366v-1.664h6.747C95.678,139.506,95.678,141.17,95.678,141.17z
		"/>
	<path fill="#4C4C4C" d="M96.757,139.506h2.015v4.16l3.406-4.16h1.859v6.994h-2.015v-4.16l-3.393,4.16h-1.872V139.506z"/>
	<path fill="#4C4C4C" d="M112.747,143.575h-5.291c0.095,0.433,0.321,0.775,0.676,1.027c0.355,0.251,0.797,0.377,1.326,0.377
		c0.364,0,0.687-0.054,0.969-0.163c0.281-0.108,0.544-0.279,0.787-0.513l1.079,1.17c-0.659,0.754-1.621,1.131-2.886,1.131
		c-0.789,0-1.486-0.154-2.093-0.461c-0.606-0.308-1.075-0.734-1.404-1.281c-0.33-0.546-0.494-1.166-0.494-1.859
		c0-0.685,0.163-1.302,0.488-1.853c0.325-0.55,0.771-0.979,1.339-1.287c0.567-0.307,1.203-0.461,1.904-0.461
		c0.685,0,1.305,0.147,1.859,0.442c0.554,0.294,0.99,0.717,1.306,1.267c0.316,0.551,0.475,1.189,0.475,1.917
		C112.786,143.055,112.773,143.237,112.747,143.575z M108.002,141.326c-0.312,0.26-0.503,0.615-0.572,1.066h3.445
		c-0.069-0.442-0.26-0.795-0.572-1.06c-0.312-0.264-0.693-0.396-1.144-0.396C108.699,140.936,108.314,141.066,108.002,141.326z"/>
	<path fill="#4C4C4C" d="M119.318,146.143c-0.585-0.308-1.042-0.734-1.372-1.281c-0.33-0.546-0.494-1.166-0.494-1.859
		s0.165-1.313,0.494-1.859c0.329-0.546,0.787-0.973,1.372-1.281c0.585-0.307,1.246-0.461,1.982-0.461s1.396,0.154,1.976,0.461
		c0.581,0.308,1.036,0.735,1.365,1.281c0.33,0.546,0.494,1.166,0.494,1.859s-0.165,1.313-0.494,1.859
		c-0.329,0.546-0.784,0.973-1.365,1.281s-1.24,0.461-1.976,0.461S119.903,146.45,119.318,146.143z M122.581,144.414
		c0.333-0.351,0.5-0.821,0.5-1.411s-0.167-1.06-0.5-1.411c-0.334-0.351-0.761-0.526-1.281-0.526s-0.949,0.176-1.287,0.526
		c-0.338,0.351-0.507,0.821-0.507,1.411s0.169,1.06,0.507,1.411s0.767,0.526,1.287,0.526S122.247,144.765,122.581,144.414z"/>
	<path fill="#4C4C4C" d="M133.482,139.506v6.994h-2.028v-5.33h-2.912v5.33h-2.015v-6.994H133.482z"/>
	<path fill="#4C4C4C" d="M141.177,142.353c0.468,0.399,0.702,0.971,0.702,1.716c0,0.78-0.264,1.383-0.793,1.807
		c-0.529,0.425-1.278,0.637-2.249,0.637l-3.406-0.013v-6.994h2.015v2.236h1.664C140.02,141.751,140.709,141.955,141.177,142.353z
		 M139.552,144.823c0.208-0.173,0.312-0.434,0.312-0.78c0-0.338-0.102-0.585-0.306-0.741c-0.204-0.156-0.505-0.238-0.903-0.247
		l-1.209-0.013v2.028h1.209C139.045,145.079,139.344,144.997,139.552,144.823z M142.633,139.506h2.015v6.994h-2.015V139.506z"/>
	<path fill="#4C4C4C" d="M152.474,141.17h-2.366v5.33h-2.015v-5.33h-2.366v-1.664h6.747V141.17z"/>
	<path fill="#4C4C4C" d="M158.766,140.175c0.581,0.516,0.871,1.294,0.871,2.333v3.991h-1.898v-0.871
		c-0.382,0.65-1.092,0.975-2.132,0.975c-0.537,0-1.003-0.091-1.397-0.273s-0.695-0.433-0.903-0.754s-0.312-0.685-0.312-1.092
		c0-0.65,0.245-1.161,0.734-1.534s1.246-0.559,2.269-0.559h1.612c0-0.442-0.134-0.782-0.403-1.021s-0.672-0.357-1.209-0.357
		c-0.373,0-0.739,0.058-1.099,0.175c-0.359,0.117-0.665,0.275-0.917,0.475l-0.728-1.417c0.381-0.269,0.839-0.477,1.372-0.624
		c0.533-0.147,1.081-0.221,1.645-0.221C157.354,139.402,158.186,139.66,158.766,140.175z M157.037,144.999
		c0.269-0.16,0.459-0.396,0.572-0.708v-0.715h-1.391c-0.832,0-1.248,0.273-1.248,0.819c0,0.26,0.102,0.466,0.305,0.618
		c0.204,0.151,0.483,0.227,0.839,0.227C156.461,145.239,156.769,145.159,157.037,144.999z"/>
</g>
<g>
	<path fill="#4C4C4C" d="M58.003,271.137c0.594,0.269,1.051,0.65,1.372,1.144c0.32,0.494,0.481,1.079,0.481,1.756
		c0,0.667-0.161,1.25-0.481,1.748c-0.321,0.498-0.778,0.88-1.372,1.145c-0.594,0.264-1.293,0.396-2.1,0.396H54.07v2.509h-2.106
		v-9.101h3.939C56.71,270.733,57.409,270.868,58.003,271.137z M57.23,275.199c0.329-0.273,0.494-0.661,0.494-1.163
		c0-0.512-0.165-0.904-0.494-1.177c-0.33-0.273-0.811-0.409-1.443-0.409H54.07v3.158h1.716
		C56.419,275.608,56.9,275.473,57.23,275.199z"/>
	<path fill="#4C4C4C" d="M66.238,273.509c0.581,0.517,0.871,1.294,0.871,2.334v3.991h-1.898v-0.871
		c-0.382,0.649-1.092,0.975-2.132,0.975c-0.537,0-1.003-0.091-1.397-0.272c-0.395-0.183-0.695-0.434-0.903-0.754
		c-0.208-0.321-0.312-0.685-0.312-1.093c0-0.649,0.245-1.161,0.734-1.533c0.49-0.373,1.246-0.56,2.269-0.56h1.612
		c0-0.441-0.134-0.782-0.403-1.021s-0.672-0.357-1.209-0.357c-0.373,0-0.739,0.059-1.099,0.176
		c-0.359,0.117-0.665,0.275-0.917,0.475l-0.728-1.417c0.381-0.269,0.839-0.477,1.372-0.624s1.081-0.222,1.645-0.222
		C64.826,272.735,65.658,272.994,66.238,273.509z M64.509,278.332c0.269-0.16,0.459-0.396,0.572-0.708v-0.715H63.69
		c-0.832,0-1.248,0.272-1.248,0.818c0,0.26,0.102,0.466,0.305,0.618c0.204,0.151,0.483,0.227,0.839,0.227
		C63.933,278.572,64.241,278.493,64.509,278.332z"/>
	<path fill="#4C4C4C" d="M70.197,279.477c-0.594-0.308-1.058-0.734-1.391-1.281c-0.333-0.546-0.5-1.165-0.5-1.858
		s0.167-1.313,0.5-1.859s0.797-0.973,1.391-1.28s1.263-0.462,2.009-0.462c0.736,0,1.38,0.154,1.93,0.462s0.951,0.747,1.203,1.319
		l-1.573,0.845c-0.364-0.641-0.888-0.962-1.573-0.962c-0.529,0-0.966,0.174-1.313,0.521s-0.52,0.818-0.52,1.417
		c0,0.598,0.173,1.07,0.52,1.417s0.784,0.52,1.313,0.52c0.693,0,1.217-0.32,1.573-0.962l1.573,0.858
		c-0.251,0.555-0.652,0.988-1.203,1.3c-0.55,0.313-1.194,0.468-1.93,0.468C71.46,279.938,70.791,279.784,70.197,279.477z"/>
	<path fill="#4C4C4C" d="M84.451,278.17v3.198h-1.885v-1.534h-5.993v-6.994h2.015v5.33h2.821v-5.33h2.028v5.33H84.451z"/>
	<path fill="#4C4C4C" d="M92.485,276.909h-5.291c0.095,0.433,0.321,0.775,0.676,1.026c0.355,0.252,0.797,0.377,1.326,0.377
		c0.364,0,0.687-0.054,0.969-0.162c0.281-0.108,0.544-0.279,0.787-0.514l1.079,1.17c-0.659,0.754-1.621,1.131-2.886,1.131
		c-0.789,0-1.486-0.153-2.093-0.461c-0.606-0.308-1.075-0.734-1.404-1.281c-0.33-0.546-0.494-1.165-0.494-1.858
		c0-0.685,0.163-1.302,0.488-1.853s0.771-0.979,1.339-1.287c0.567-0.308,1.203-0.462,1.904-0.462c0.685,0,1.305,0.147,1.859,0.442
		c0.554,0.295,0.99,0.717,1.306,1.268s0.475,1.189,0.475,1.917C92.524,276.389,92.511,276.57,92.485,276.909z M87.74,274.66
		c-0.312,0.26-0.503,0.615-0.572,1.065h3.445c-0.069-0.441-0.26-0.795-0.572-1.06c-0.312-0.264-0.693-0.396-1.144-0.396
		C88.438,274.27,88.052,274.399,87.74,274.66z"/>
	<path fill="#4C4C4C" d="M101.039,272.84v6.994h-2.028v-5.33h-2.912v5.33h-2.015v-6.994H101.039z"/>
	<path fill="#4C4C4C" d="M109.697,272.84v6.994h-2.028v-5.33h-2.21l-0.065,1.234c-0.035,0.919-0.122,1.682-0.26,2.288
		c-0.139,0.607-0.364,1.084-0.676,1.431s-0.745,0.52-1.3,0.52c-0.295,0-0.646-0.052-1.053-0.156l0.104-1.663
		c0.139,0.017,0.238,0.025,0.299,0.025c0.303,0,0.531-0.11,0.682-0.331c0.152-0.222,0.254-0.503,0.306-0.846
		c0.052-0.342,0.091-0.795,0.117-1.358l0.104-2.808L109.697,272.84L109.697,272.84z"/>
	<path fill="#4C4C4C" d="M118.407,276.909h-5.291c0.095,0.433,0.321,0.775,0.676,1.026c0.355,0.252,0.797,0.377,1.326,0.377
		c0.364,0,0.687-0.054,0.969-0.162c0.281-0.108,0.544-0.279,0.787-0.514l1.079,1.17c-0.659,0.754-1.621,1.131-2.886,1.131
		c-0.789,0-1.486-0.153-2.093-0.461c-0.606-0.308-1.075-0.734-1.404-1.281c-0.33-0.546-0.494-1.165-0.494-1.858
		c0-0.685,0.163-1.302,0.488-1.853s0.771-0.979,1.339-1.287c0.567-0.308,1.203-0.462,1.904-0.462c0.685,0,1.305,0.147,1.859,0.442
		c0.554,0.295,0.99,0.717,1.306,1.268s0.475,1.189,0.475,1.917C118.446,276.389,118.433,276.57,118.407,276.909z M113.662,274.66
		c-0.312,0.26-0.503,0.615-0.572,1.065h3.445c-0.069-0.441-0.26-0.795-0.572-1.06c-0.312-0.264-0.693-0.396-1.144-0.396
		C114.36,274.27,113.974,274.399,113.662,274.66z"/>
	<path fill="#4C4C4C" d="M120.006,272.84h2.015v2.729h3.042v-2.729h2.028v6.994h-2.028v-2.613h-3.042v2.613h-2.015V272.84z"/>
	<path fill="#4C4C4C" d="M129.028,272.84h2.015V277l3.406-4.16h1.859v6.994h-2.015v-4.16l-3.393,4.16h-1.872V272.84z"/>
	<path fill="#4C4C4C" d="M145.017,276.909h-5.291c0.095,0.433,0.321,0.775,0.676,1.026c0.355,0.252,0.797,0.377,1.326,0.377
		c0.364,0,0.687-0.054,0.969-0.162c0.281-0.108,0.544-0.279,0.787-0.514l1.079,1.17c-0.659,0.754-1.621,1.131-2.886,1.131
		c-0.789,0-1.486-0.153-2.093-0.461c-0.606-0.308-1.075-0.734-1.404-1.281c-0.33-0.546-0.494-1.165-0.494-1.858
		c0-0.685,0.163-1.302,0.488-1.853c0.325-0.551,0.771-0.979,1.339-1.287c0.567-0.308,1.203-0.462,1.904-0.462
		c0.685,0,1.305,0.147,1.859,0.442c0.554,0.295,0.99,0.717,1.306,1.268s0.475,1.189,0.475,1.917
		C145.056,276.389,145.044,276.57,145.017,276.909z M140.273,274.66c-0.312,0.26-0.503,0.615-0.572,1.065h3.445
		c-0.069-0.441-0.26-0.795-0.572-1.06c-0.312-0.264-0.693-0.396-1.144-0.396C140.97,274.27,140.584,274.399,140.273,274.66z"/>
</g>
<g>
	<path fill="#4C4C4C" d="M237.977,318.733v9.1h-2.106v-3.73h-4.134v3.73h-2.106v-9.1h2.106v3.588h4.134v-3.588H237.977z"/>
	<path fill="#4C4C4C" d="M245.309,321.509c0.581,0.516,0.871,1.294,0.871,2.333v3.991h-1.898v-0.871
		c-0.382,0.65-1.092,0.976-2.132,0.976c-0.537,0-1.003-0.091-1.397-0.273c-0.395-0.182-0.695-0.433-0.903-0.754
		c-0.208-0.32-0.312-0.685-0.312-1.092c0-0.65,0.245-1.161,0.734-1.534c0.49-0.372,1.246-0.559,2.269-0.559h1.612
		c0-0.442-0.134-0.782-0.403-1.021s-0.672-0.357-1.209-0.357c-0.373,0-0.739,0.058-1.099,0.175
		c-0.359,0.117-0.665,0.275-0.917,0.475l-0.728-1.417c0.381-0.269,0.839-0.477,1.372-0.624c0.533-0.147,1.081-0.221,1.645-0.221
		C243.896,320.735,244.728,320.993,245.309,321.509z M243.58,326.332c0.269-0.16,0.459-0.396,0.572-0.709v-0.715h-1.391
		c-0.832,0-1.248,0.273-1.248,0.819c0,0.26,0.102,0.466,0.305,0.617s0.483,0.228,0.839,0.228
		C243.003,326.572,243.311,326.492,243.58,326.332z"/>
	<path fill="#4C4C4C" d="M253.746,321.729c0.502,0.273,0.891,0.657,1.164,1.15c0.273,0.494,0.41,1.066,0.41,1.717
		c0,0.667-0.163,1.259-0.488,1.774c-0.325,0.516-0.778,0.914-1.358,1.195c-0.581,0.282-1.239,0.423-1.976,0.423
		c-1.222,0-2.182-0.392-2.879-1.177c-0.698-0.784-1.046-1.935-1.046-3.451c0-1.404,0.305-2.524,0.917-3.36
		c0.611-0.837,1.549-1.385,2.814-1.645l3.328-0.663l0.273,1.742l-2.938,0.585c-0.798,0.155-1.389,0.416-1.775,0.779
		c-0.386,0.364-0.613,0.88-0.682,1.548c0.303-0.33,0.667-0.583,1.092-0.761s0.888-0.267,1.391-0.267
		C252.658,321.32,253.243,321.457,253.746,321.729z M252.764,325.909c0.316-0.338,0.475-0.767,0.475-1.287
		c0-0.528-0.158-0.949-0.475-1.261c-0.316-0.313-0.734-0.468-1.254-0.468c-0.529,0-0.954,0.155-1.274,0.468
		c-0.321,0.312-0.481,0.732-0.481,1.261s0.164,0.96,0.494,1.294c0.33,0.333,0.75,0.5,1.261,0.5
		C252.03,326.416,252.448,326.247,252.764,325.909z"/>
	<path fill="#4C4C4C" d="M263.301,320.839v6.994h-2.028v-5.33h-2.21l-0.065,1.235c-0.035,0.919-0.122,1.682-0.26,2.288
		c-0.139,0.606-0.364,1.083-0.676,1.43s-0.745,0.521-1.3,0.521c-0.295,0-0.646-0.053-1.053-0.156l0.104-1.664
		c0.139,0.018,0.238,0.026,0.299,0.026c0.303,0,0.531-0.111,0.682-0.332c0.152-0.221,0.254-0.502,0.306-0.845
		s0.091-0.795,0.117-1.358l0.104-2.809L263.301,320.839L263.301,320.839z"/>
	<path fill="#4C4C4C" d="M273.778,321.196c0.563,0.309,1.005,0.735,1.326,1.281c0.32,0.546,0.481,1.165,0.481,1.858
		s-0.161,1.313-0.481,1.859c-0.321,0.546-0.763,0.973-1.326,1.28s-1.2,0.462-1.911,0.462c-0.615,0-1.179-0.115-1.69-0.345
		s-0.936-0.555-1.274-0.975c-0.338-0.421-0.563-0.904-0.676-1.45h-0.962v2.665h-2.015v-6.994h2.015v2.574h0.975
		c0.199-0.814,0.624-1.465,1.274-1.95c0.65-0.485,1.435-0.728,2.353-0.728C272.578,320.735,273.215,320.89,273.778,321.196z
		 M273.096,325.747c0.325-0.352,0.488-0.821,0.488-1.411c0-0.598-0.163-1.07-0.488-1.417s-0.734-0.52-1.229-0.52
		c-0.502,0-0.917,0.173-1.241,0.52c-0.325,0.347-0.488,0.819-0.488,1.417c0,0.59,0.163,1.06,0.488,1.411s0.739,0.526,1.241,0.526
		C272.361,326.273,272.771,326.098,273.096,325.747z"/>
	<path fill="#4C4C4C" d="M284.725,326.169v3.172h-1.885v-1.508h-4.914v1.508h-1.885v-3.172h0.286
		c0.433-0.008,0.732-0.264,0.897-0.767s0.269-1.218,0.312-2.146l0.091-2.418h6.097v5.33h1.001V326.169z M279.206,325.143
		c-0.083,0.45-0.236,0.793-0.461,1.026h2.951v-3.666h-2.288l-0.039,0.897C279.343,324.111,279.289,324.691,279.206,325.143z"/>
	<path fill="#4C4C4C" d="M291.212,321.509c0.58,0.516,0.871,1.294,0.871,2.333v3.991h-1.898v-0.871
		c-0.382,0.65-1.092,0.976-2.132,0.976c-0.537,0-1.003-0.091-1.397-0.273c-0.395-0.182-0.695-0.433-0.903-0.754
		c-0.208-0.32-0.312-0.685-0.312-1.092c0-0.65,0.245-1.161,0.734-1.534c0.49-0.372,1.246-0.559,2.268-0.559h1.612
		c0-0.442-0.135-0.782-0.403-1.021s-0.672-0.357-1.209-0.357c-0.372,0-0.738,0.058-1.098,0.175
		c-0.359,0.117-0.665,0.275-0.917,0.475l-0.728-1.417c0.381-0.269,0.839-0.477,1.372-0.624c0.533-0.147,1.081-0.221,1.645-0.221
		C289.798,320.735,290.631,320.993,291.212,321.509z M289.482,326.332c0.269-0.16,0.46-0.396,0.572-0.709v-0.715h-1.391
		c-0.832,0-1.248,0.273-1.248,0.819c0,0.26,0.102,0.466,0.305,0.617c0.204,0.151,0.483,0.228,0.839,0.228
		C288.906,326.572,289.214,326.492,289.482,326.332z"/>
	<path fill="#4C4C4C" d="M302.378,321.196c0.563,0.309,1.006,0.735,1.326,1.281s0.481,1.165,0.481,1.858s-0.161,1.313-0.481,1.859
		s-0.763,0.973-1.326,1.28s-1.2,0.462-1.911,0.462c-0.615,0-1.179-0.115-1.689-0.345c-0.512-0.229-0.937-0.555-1.274-0.975
		c-0.338-0.421-0.563-0.904-0.676-1.45h-0.962v2.665h-2.015v-6.994h2.015v2.574h0.975c0.199-0.814,0.624-1.465,1.274-1.95
		s1.435-0.728,2.353-0.728C301.177,320.735,301.814,320.89,302.378,321.196z M301.695,325.747c0.325-0.352,0.488-0.821,0.488-1.411
		c0-0.598-0.163-1.07-0.488-1.417c-0.324-0.347-0.734-0.52-1.229-0.52c-0.502,0-0.916,0.173-1.241,0.52s-0.487,0.819-0.487,1.417
		c0,0.59,0.162,1.06,0.487,1.411s0.739,0.526,1.241,0.526C300.961,326.273,301.371,326.098,301.695,325.747z"/>
	<path fill="#4C4C4C" d="M316.262,320.839v6.994H305.59v-6.994h2.015v5.33h2.327v-5.33h2.015v5.33h2.301v-5.33H316.262z
		 M317.237,326.169v3.056h-1.885v-1.392h-1.157v-1.664H317.237z"/>
	<path fill="#4C4C4C" d="M324.971,324.908h-5.291c0.096,0.434,0.321,0.775,0.677,1.027c0.354,0.251,0.797,0.377,1.325,0.377
		c0.364,0,0.688-0.055,0.969-0.163s0.544-0.279,0.787-0.513l1.078,1.17c-0.658,0.754-1.62,1.131-2.886,1.131
		c-0.788,0-1.486-0.154-2.093-0.462s-1.075-0.734-1.404-1.28s-0.494-1.166-0.494-1.859c0-0.685,0.163-1.302,0.488-1.853
		c0.324-0.55,0.771-0.979,1.339-1.287c0.567-0.307,1.202-0.461,1.904-0.461c0.685,0,1.305,0.147,1.859,0.442
		c0.554,0.294,0.989,0.717,1.306,1.267c0.316,0.551,0.475,1.189,0.475,1.918C325.01,324.389,324.998,324.57,324.971,324.908z
		 M320.227,322.659c-0.313,0.26-0.503,0.615-0.572,1.066h3.444c-0.069-0.442-0.26-0.795-0.571-1.06
		c-0.313-0.265-0.693-0.396-1.145-0.396C320.924,322.27,320.539,322.399,320.227,322.659z"/>
	<path fill="#4C4C4C" d="M333.331,324.908h-5.291c0.095,0.434,0.32,0.775,0.676,1.027c0.355,0.251,0.798,0.377,1.326,0.377
		c0.364,0,0.687-0.055,0.969-0.163c0.281-0.108,0.544-0.279,0.786-0.513l1.079,1.17c-0.659,0.754-1.621,1.131-2.886,1.131
		c-0.789,0-1.486-0.154-2.094-0.462c-0.606-0.308-1.074-0.734-1.403-1.28c-0.33-0.546-0.494-1.166-0.494-1.859
		c0-0.685,0.162-1.302,0.487-1.853c0.325-0.55,0.771-0.979,1.339-1.287c0.567-0.307,1.203-0.461,1.904-0.461
		c0.685,0,1.305,0.147,1.859,0.442c0.555,0.294,0.99,0.717,1.307,1.267c0.316,0.551,0.475,1.189,0.475,1.918
		C333.37,324.389,333.357,324.57,333.331,324.908z M328.586,322.659c-0.312,0.26-0.503,0.615-0.572,1.066h3.445
		c-0.069-0.442-0.26-0.795-0.572-1.06c-0.312-0.265-0.693-0.396-1.144-0.396C329.283,322.27,328.897,322.399,328.586,322.659z"/>
	<path fill="#4C4C4C" d="M346.032,318.733v9.1h-2.08v-2.418h-1.924l-1.612,2.418h-2.223l1.897-2.743
		c-0.615-0.251-1.088-0.63-1.417-1.137c-0.329-0.508-0.494-1.116-0.494-1.827c0-0.702,0.16-1.307,0.481-1.813
		c0.32-0.507,0.775-0.896,1.365-1.17c0.589-0.272,1.282-0.409,2.08-0.409h3.927V318.733z M340.786,320.865
		c-0.316,0.277-0.474,0.689-0.474,1.235c0,0.528,0.151,0.936,0.454,1.222c0.304,0.286,0.75,0.429,1.34,0.429h1.846v-3.302h-1.794
		C341.559,320.449,341.102,320.588,340.786,320.865z"/>
</g>
<g>
	<path fill="#4C4C4C" d="M453.35,144.784v3.601h-1.95V146.5h-6.422v1.885h-1.95l0.014-3.601h0.363
		c0.547-0.018,0.932-0.416,1.157-1.196c0.226-0.78,0.364-1.894,0.416-3.341l0.104-2.847h6.994v7.384H453.35z M446.564,143.166
		c-0.139,0.732-0.351,1.272-0.637,1.619h4.069v-5.668h-3.12l-0.039,1.326C446.794,141.525,446.703,142.433,446.564,143.166z"/>
	<path fill="#4C4C4C" d="M461.28,143.575h-5.291c0.096,0.433,0.321,0.775,0.677,1.027c0.354,0.251,0.797,0.377,1.325,0.377
		c0.364,0,0.688-0.054,0.969-0.163s0.544-0.279,0.787-0.513l1.078,1.17c-0.658,0.754-1.62,1.131-2.886,1.131
		c-0.788,0-1.486-0.154-2.093-0.461s-1.075-0.734-1.404-1.281c-0.329-0.546-0.494-1.166-0.494-1.859
		c0-0.685,0.163-1.302,0.488-1.853c0.324-0.55,0.771-0.979,1.339-1.287c0.567-0.307,1.202-0.461,1.904-0.461
		c0.685,0,1.305,0.147,1.859,0.442c0.554,0.294,0.989,0.717,1.306,1.267c0.316,0.551,0.475,1.189,0.475,1.917
		C461.319,143.055,461.306,143.237,461.28,143.575z M456.536,141.326c-0.313,0.26-0.503,0.615-0.572,1.066h3.444
		c-0.069-0.442-0.26-0.795-0.571-1.06c-0.313-0.264-0.693-0.396-1.145-0.396C457.233,140.936,456.847,141.066,456.536,141.326z"/>
	<path fill="#4C4C4C" d="M462.88,139.506h2.015v4.16l3.406-4.16h1.858v6.994h-2.015v-4.16l-3.393,4.16h-1.872v-6.994H462.88z
		 M464.089,136.737h1.325c0.009,0.304,0.094,0.54,0.254,0.708s0.396,0.254,0.709,0.254c0.312,0,0.552-0.085,0.721-0.254
		s0.254-0.405,0.254-0.708h1.352c-0.009,1.344-0.779,2.015-2.313,2.015C464.864,138.752,464.096,138.081,464.089,136.737z"/>
	<path fill="#4C4C4C" d="M473.428,146.143c-0.594-0.308-1.058-0.734-1.391-1.281c-0.334-0.546-0.501-1.166-0.501-1.859
		s0.167-1.313,0.501-1.859c0.333-0.546,0.797-0.973,1.391-1.281c0.594-0.307,1.264-0.461,2.009-0.461
		c0.736,0,1.38,0.154,1.931,0.461c0.55,0.308,0.951,0.748,1.202,1.32l-1.573,0.845c-0.363-0.641-0.888-0.962-1.572-0.962
		c-0.529,0-0.967,0.173-1.313,0.52s-0.52,0.819-0.52,1.417s0.173,1.07,0.52,1.417s0.784,0.52,1.313,0.52
		c0.693,0,1.217-0.32,1.572-0.962l1.573,0.858c-0.251,0.555-0.652,0.988-1.202,1.3c-0.551,0.312-1.194,0.468-1.931,0.468
		C474.692,146.604,474.022,146.45,473.428,146.143z"/>
	<path fill="#4C4C4C" d="M485.655,141.17h-2.366v5.33h-2.015v-5.33h-2.366v-1.664h6.747V141.17z"/>
	<path fill="#4C4C4C" d="M493.312,144.511c0,0.632-0.238,1.122-0.715,1.469s-1.188,0.52-2.132,0.52h-3.731v-6.994h3.575
		c0.875,0,1.56,0.158,2.054,0.475s0.741,0.761,0.741,1.333c0,0.347-0.089,0.652-0.267,0.917c-0.178,0.265-0.431,0.47-0.761,0.618
		C492.9,143.125,493.312,143.679,493.312,144.511z M488.593,142.379h1.534c0.71,0,1.065-0.251,1.065-0.754
		c0-0.494-0.355-0.741-1.065-0.741h-1.534V142.379z M491.414,144.355c0-0.269-0.086-0.466-0.26-0.591
		c-0.173-0.125-0.446-0.188-0.818-0.188h-1.742v1.547h1.703C491.042,145.122,491.414,144.867,491.414,144.355z"/>
	<path fill="#4C4C4C" d="M494.82,139.506h2.016v4.16l3.405-4.16h1.859v6.994h-2.015v-4.16l-3.394,4.16h-1.872v-6.994H494.82z"/>
	<path fill="#4C4C4C" d="M510.263,139.506v6.994h-1.807v-2.002h-1.495l-1.326,2.002h-2.158l1.6-2.288
		c-0.485-0.19-0.856-0.466-1.111-0.825c-0.256-0.36-0.384-0.795-0.384-1.307c0-0.823,0.297-1.458,0.891-1.905
		c0.594-0.446,1.41-0.669,2.45-0.669H510.263z M505.98,141.391c-0.221,0.156-0.331,0.407-0.331,0.754s0.105,0.6,0.318,0.76
		c0.212,0.161,0.535,0.241,0.968,0.241h1.521v-1.989h-1.495C506.528,141.157,506.201,141.235,505.98,141.391z"/>
</g>
<g>
	<path fill="#4C4C4C" d="M453.007,278.117v3.64h-1.938v-1.924h-7.604v-9.1h2.093v7.384h4.057v-7.384h2.093v7.384H453.007z"/>
	<path fill="#4C4C4C" d="M460.911,276.908h-5.291c0.095,0.434,0.32,0.775,0.676,1.027c0.355,0.251,0.797,0.377,1.326,0.377
		c0.363,0,0.687-0.055,0.969-0.163c0.281-0.108,0.543-0.279,0.786-0.513l1.079,1.17c-0.659,0.754-1.621,1.131-2.887,1.131
		c-0.788,0-1.486-0.154-2.093-0.462s-1.075-0.734-1.403-1.28c-0.33-0.546-0.494-1.166-0.494-1.859c0-0.685,0.162-1.302,0.487-1.853
		c0.325-0.55,0.771-0.979,1.339-1.287c0.567-0.307,1.203-0.461,1.904-0.461c0.685,0,1.305,0.147,1.859,0.442
		c0.555,0.294,0.99,0.717,1.307,1.267c0.316,0.551,0.475,1.189,0.475,1.918C460.95,276.389,460.936,276.57,460.911,276.908z
		 M456.166,274.659c-0.312,0.26-0.503,0.615-0.572,1.066h3.444c-0.068-0.442-0.26-0.795-0.571-1.06s-0.693-0.396-1.144-0.396
		C456.863,274.27,456.477,274.399,456.166,274.659z"/>
	<path fill="#4C4C4C" d="M462.509,272.839h2.015v2.73h3.043v-2.73h2.027v6.994h-2.027v-2.612h-3.043v2.612h-2.015V272.839z"/>
	<path fill="#4C4C4C" d="M471.532,272.839h2.015v2.73h3.042v-2.73h2.027v6.994h-2.027v-2.612h-3.042v2.612h-2.015V272.839z"/>
	<path fill="#4C4C4C" d="M481.846,279.476c-0.584-0.308-1.042-0.734-1.371-1.28c-0.33-0.546-0.494-1.166-0.494-1.859
		s0.164-1.313,0.494-1.858c0.329-0.546,0.787-0.973,1.371-1.281c0.586-0.307,1.246-0.461,1.982-0.461s1.396,0.154,1.977,0.461
		c0.58,0.309,1.035,0.735,1.365,1.281c0.329,0.546,0.494,1.165,0.494,1.858s-0.165,1.313-0.494,1.859
		c-0.33,0.546-0.785,0.973-1.365,1.28s-1.24,0.462-1.977,0.462S482.432,279.783,481.846,279.476z M485.11,277.747
		c0.334-0.352,0.5-0.821,0.5-1.411c0-0.589-0.166-1.06-0.5-1.41s-0.761-0.526-1.281-0.526c-0.52,0-0.949,0.176-1.287,0.526
		s-0.506,0.821-0.506,1.41c0,0.59,0.168,1.06,0.506,1.411s0.768,0.526,1.287,0.526C484.349,278.273,484.776,278.098,485.11,277.747z
		"/>
	<path fill="#4C4C4C" d="M490.375,279.476c-0.594-0.308-1.058-0.734-1.392-1.28c-0.333-0.546-0.5-1.166-0.5-1.859
		s0.167-1.313,0.5-1.858c0.334-0.546,0.798-0.973,1.392-1.281c0.594-0.307,1.263-0.461,2.009-0.461c0.736,0,1.38,0.154,1.93,0.461
		c0.551,0.309,0.951,0.748,1.203,1.32l-1.573,0.845c-0.364-0.642-0.888-0.962-1.573-0.962c-0.528,0-0.966,0.173-1.313,0.52
		s-0.52,0.819-0.52,1.417c0,0.599,0.173,1.07,0.52,1.417s0.784,0.521,1.313,0.521c0.693,0,1.218-0.32,1.573-0.962l1.573,0.857
		c-0.252,0.555-0.652,0.988-1.203,1.301c-0.55,0.312-1.193,0.468-1.93,0.468C491.637,279.938,490.968,279.783,490.375,279.476z"/>
	<path fill="#4C4C4C" d="M502.601,274.503h-2.366v5.33h-2.015v-5.33h-2.366v-1.664h6.747V274.503z"/>
	<path fill="#4C4C4C" d="M503.68,272.839h2.015v4.16l3.405-4.16h1.859v6.994h-2.015v-4.16l-3.394,4.16h-1.871v-6.994H503.68z"/>
</g>
<g>
	<path fill="#FF825C" d="M225.327,26.318v3.92h-2.086v-2.072h-8.19v-9.8h2.254v7.952h4.368v-7.952h2.254v7.952H225.327z"/>
	<path fill="#FF825C" d="M233.839,25.017h-5.698c0.103,0.467,0.345,0.835,0.728,1.106c0.383,0.271,0.859,0.406,1.428,0.406
		c0.392,0,0.74-0.058,1.043-0.175s0.585-0.301,0.847-0.553l1.162,1.26c-0.709,0.812-1.745,1.218-3.108,1.218
		c-0.849,0-1.601-0.166-2.254-0.497c-0.653-0.332-1.157-0.791-1.512-1.379c-0.354-0.588-0.532-1.255-0.532-2.002
		c0-0.737,0.175-1.402,0.525-1.995c0.35-0.592,0.831-1.054,1.442-1.386c0.611-0.331,1.295-0.497,2.051-0.497
		c0.737,0,1.404,0.159,2.002,0.476c0.597,0.317,1.066,0.772,1.407,1.365s0.511,1.281,0.511,2.065
		C233.881,24.457,233.867,24.652,233.839,25.017z M228.729,22.595c-0.336,0.28-0.542,0.663-0.616,1.148h3.71
		c-0.075-0.476-0.28-0.856-0.616-1.141s-0.747-0.427-1.232-0.427C229.48,22.174,229.065,22.314,228.729,22.595z"/>
	<path fill="#FF825C" d="M235.561,20.634h2.17v2.94h3.276v-2.94h2.184v7.532h-2.184v-2.814h-3.276v2.814h-2.17V20.634z"/>
	<path fill="#FF825C" d="M251.605,22.426h-2.548v5.74h-2.17v-5.74h-2.548v-1.792h7.266V22.426z"/>
	<path fill="#FF825C" d="M259.115,21.005c0.574,0.322,1.024,0.775,1.351,1.358c0.327,0.583,0.49,1.263,0.49,2.037
		c0,0.775-0.164,1.454-0.49,2.037c-0.327,0.583-0.777,1.036-1.351,1.358s-1.211,0.483-1.911,0.483c-0.961,0-1.717-0.303-2.268-0.91
		v3.514h-2.184V20.634h2.086v0.868c0.541-0.653,1.33-0.98,2.366-0.98C257.904,20.522,258.542,20.684,259.115,21.005z
		 M258.205,25.919c0.359-0.378,0.539-0.884,0.539-1.519c0-0.634-0.18-1.141-0.539-1.519s-0.819-0.567-1.379-0.567
		s-1.02,0.189-1.379,0.567s-0.539,0.885-0.539,1.519c0,0.635,0.18,1.141,0.539,1.519s0.819,0.567,1.379,0.567
		S257.846,26.297,258.205,25.919z"/>
	<path fill="#FF825C" d="M262.482,20.634h2.17v4.48l3.668-4.48h2.002v7.532h-2.17v-4.48l-3.654,4.48h-2.016L262.482,20.634
		L262.482,20.634z"/>
	<path fill="#FF825C" d="M278.771,21.005c0.574,0.322,1.024,0.775,1.351,1.358c0.327,0.583,0.49,1.263,0.49,2.037
		c0,0.775-0.164,1.454-0.49,2.037c-0.327,0.583-0.777,1.036-1.351,1.358s-1.211,0.483-1.911,0.483c-0.961,0-1.717-0.303-2.268-0.91
		v3.514h-2.184V20.634h2.086v0.868c0.541-0.653,1.33-0.98,2.366-0.98C277.56,20.522,278.197,20.684,278.771,21.005z M277.861,25.919
		c0.359-0.378,0.539-0.884,0.539-1.519c0-0.634-0.18-1.141-0.539-1.519s-0.819-0.567-1.379-0.567s-1.02,0.189-1.379,0.567
		s-0.539,0.885-0.539,1.519c0,0.635,0.18,1.141,0.539,1.519s0.819,0.567,1.379,0.567S277.502,26.297,277.861,25.919z"/>
	<path fill="#FF825C" d="M283.531,27.782c-0.63-0.332-1.122-0.791-1.477-1.379c-0.354-0.588-0.532-1.255-0.532-2.002
		c0-0.747,0.177-1.414,0.532-2.002c0.355-0.588,0.847-1.047,1.477-1.379c0.63-0.331,1.342-0.497,2.135-0.497
		s1.502,0.166,2.128,0.497c0.625,0.332,1.115,0.791,1.47,1.379s0.532,1.255,0.532,2.002c0,0.747-0.178,1.414-0.532,2.002
		c-0.354,0.588-0.845,1.048-1.47,1.379c-0.626,0.331-1.335,0.497-2.128,0.497C284.873,28.278,284.161,28.113,283.531,27.782z
		 M287.045,25.919c0.359-0.378,0.54-0.884,0.54-1.519c0-0.634-0.18-1.141-0.54-1.519s-0.819-0.567-1.379-0.567
		s-1.022,0.189-1.386,0.567c-0.364,0.378-0.546,0.885-0.546,1.519c0,0.635,0.182,1.141,0.546,1.519
		c0.364,0.378,0.826,0.567,1.386,0.567S286.686,26.297,287.045,25.919z"/>
	<path fill="#FF825C" d="M298.378,26.024c0,0.682-0.257,1.209-0.77,1.582c-0.514,0.374-1.279,0.56-2.296,0.56h-4.019v-7.532h3.851
		c0.942,0,1.68,0.17,2.212,0.511s0.798,0.819,0.798,1.435c0,0.374-0.096,0.702-0.287,0.987c-0.191,0.285-0.464,0.506-0.818,0.665
		C297.934,24.531,298.378,25.128,298.378,26.024z M293.296,23.729h1.652c0.766,0,1.148-0.271,1.148-0.812
		c0-0.532-0.383-0.798-1.148-0.798h-1.652V23.729z M296.334,25.856c0-0.289-0.093-0.501-0.279-0.637
		c-0.188-0.135-0.481-0.203-0.882-0.203h-1.877v1.666h1.835C295.932,26.683,296.334,26.407,296.334,25.856z"/>
	<path fill="#FF825C" d="M305.616,21.355c0.625,0.556,0.938,1.393,0.938,2.513v4.298h-2.044v-0.938
		c-0.411,0.7-1.177,1.05-2.296,1.05c-0.579,0-1.081-0.098-1.506-0.294c-0.425-0.196-0.749-0.466-0.973-0.812
		c-0.224-0.345-0.336-0.737-0.336-1.176c0-0.7,0.264-1.25,0.791-1.652s1.342-0.602,2.443-0.602h1.735
		c0-0.476-0.145-0.842-0.434-1.099s-0.724-0.385-1.302-0.385c-0.401,0-0.796,0.063-1.184,0.189
		c-0.387,0.126-0.716,0.297-0.986,0.511l-0.784-1.526c0.41-0.289,0.902-0.513,1.477-0.672s1.164-0.238,1.771-0.238
		C304.094,20.522,304.991,20.8,305.616,21.355z M303.754,26.549c0.29-0.172,0.495-0.427,0.616-0.763v-0.77h-1.498
		c-0.896,0-1.344,0.294-1.344,0.882c0,0.28,0.109,0.502,0.329,0.665c0.219,0.164,0.521,0.245,0.903,0.245
		C303.133,26.809,303.465,26.722,303.754,26.549z"/>
	<path fill="#FF825C" d="M308.458,20.634h2.171v2.94h3.275v-2.94h2.185v7.532h-2.185v-2.814h-3.275v2.814h-2.171V20.634z"/>
	<path fill="#FF825C" d="M318.173,20.634h2.171v2.94h3.275v-2.94h2.185v7.532h-2.185v-2.814h-3.275v2.814h-2.171V20.634z"/>
	<path fill="#FF825C" d="M329.283,27.782c-0.63-0.332-1.122-0.791-1.478-1.379c-0.354-0.588-0.531-1.255-0.531-2.002
		c0-0.747,0.177-1.414,0.531-2.002c0.355-0.588,0.848-1.047,1.478-1.379c0.63-0.331,1.342-0.497,2.135-0.497
		s1.503,0.166,2.128,0.497c0.625,0.332,1.115,0.791,1.47,1.379s0.532,1.255,0.532,2.002c0,0.747-0.177,1.414-0.532,2.002
		c-0.354,0.588-0.845,1.048-1.47,1.379s-1.335,0.497-2.128,0.497S329.913,28.113,329.283,27.782z M332.797,25.919
		c0.359-0.378,0.539-0.884,0.539-1.519c0-0.634-0.18-1.141-0.539-1.519s-0.818-0.567-1.379-0.567c-0.56,0-1.021,0.189-1.386,0.567
		s-0.546,0.885-0.546,1.519c0,0.635,0.182,1.141,0.546,1.519s0.826,0.567,1.386,0.567C331.978,26.486,332.437,26.297,332.797,25.919
		z"/>
	<path fill="#FF825C" d="M338.466,27.782c-0.64-0.332-1.139-0.791-1.498-1.379c-0.359-0.588-0.539-1.255-0.539-2.002
		c0-0.747,0.18-1.414,0.539-2.002s0.858-1.047,1.498-1.379c0.64-0.331,1.36-0.497,2.163-0.497c0.793,0,1.486,0.166,2.079,0.497
		c0.593,0.332,1.024,0.805,1.295,1.421l-1.694,0.91c-0.392-0.691-0.956-1.036-1.693-1.036c-0.569,0-1.041,0.187-1.414,0.56
		c-0.374,0.374-0.561,0.882-0.561,1.526s0.187,1.153,0.561,1.526c0.373,0.374,0.845,0.56,1.414,0.56
		c0.746,0,1.311-0.345,1.693-1.036l1.694,0.924c-0.271,0.597-0.702,1.064-1.295,1.4s-1.286,0.504-2.079,0.504
		C339.827,28.278,339.106,28.113,338.466,27.782z"/>
	<path fill="#FF825C" d="M351.633,22.426h-2.548v5.74h-2.17v-5.74h-2.549v-1.792h7.267L351.633,22.426L351.633,22.426z"/>
	<path fill="#FF825C" d="M359.123,23.708c0.522,0.434,0.784,1.048,0.784,1.841c0,0.831-0.292,1.477-0.875,1.939
		c-0.584,0.462-1.402,0.693-2.457,0.693l-3.78-0.014v-7.532h2.17v2.408h1.904C357.848,23.052,358.6,23.273,359.123,23.708z
		 M357.344,26.36c0.225-0.187,0.336-0.466,0.336-0.84c0-0.364-0.109-0.63-0.328-0.798c-0.22-0.168-0.544-0.257-0.974-0.266
		l-1.414-0.014v2.184h1.414C356.798,26.636,357.121,26.547,357.344,26.36z"/>
</g>
<g>
	<path fill="#FF825C" d="M430.88,23.925c0.318,0.401,0.477,0.896,0.477,1.484c0,0.868-0.329,1.544-0.986,2.03
		c-0.658,0.485-1.6,0.728-2.822,0.728h-4.83v-9.8h4.564c1.139,0,2.025,0.219,2.66,0.658c0.635,0.439,0.952,1.064,0.952,1.876
		c0,0.485-0.122,0.913-0.364,1.281s-0.583,0.66-1.021,0.875C430.105,23.234,430.563,23.524,430.88,23.925z M424.972,22.427h2.114
		c0.494,0,0.867-0.1,1.119-0.301s0.379-0.497,0.379-0.889c0-0.382-0.129-0.676-0.385-0.882c-0.258-0.205-0.629-0.308-1.113-0.308
		h-2.114L424.972,22.427L424.972,22.427z M429.06,25.227c0-0.812-0.532-1.218-1.597-1.218h-2.491v2.478h2.491
		C428.528,26.487,429.06,26.067,429.06,25.227z"/>
	<path fill="#FF825C" d="M434.374,27.782c-0.631-0.332-1.123-0.791-1.478-1.379c-0.354-0.588-0.532-1.255-0.532-2.002
		c0-0.747,0.178-1.414,0.532-2.002s0.847-1.047,1.478-1.379c0.63-0.331,1.342-0.497,2.135-0.497s1.502,0.166,2.128,0.497
		c0.625,0.332,1.115,0.791,1.47,1.379s0.532,1.255,0.532,2.002c0,0.747-0.177,1.414-0.532,2.002
		c-0.354,0.588-0.845,1.048-1.47,1.379c-0.626,0.331-1.335,0.497-2.128,0.497S435.004,28.113,434.374,27.782z M437.887,25.92
		c0.359-0.378,0.539-0.884,0.539-1.519c0-0.634-0.18-1.141-0.539-1.519s-0.818-0.567-1.379-0.567s-1.021,0.189-1.387,0.567
		c-0.363,0.378-0.545,0.885-0.545,1.519c0,0.635,0.182,1.141,0.545,1.519c0.365,0.378,0.826,0.567,1.387,0.567
		S437.528,26.298,437.887,25.92z"/>
	<path fill="#FF825C" d="M449.219,26.025c0,0.682-0.256,1.209-0.77,1.582c-0.514,0.374-1.279,0.56-2.296,0.56h-4.019v-7.532h3.851
		c0.942,0,1.681,0.17,2.212,0.511c0.532,0.341,0.799,0.819,0.799,1.435c0,0.374-0.097,0.702-0.287,0.987
		c-0.191,0.285-0.465,0.506-0.819,0.665C448.776,24.532,449.219,25.129,449.219,26.025z M444.137,23.729h1.652
		c0.766,0,1.148-0.271,1.148-0.812c0-0.532-0.383-0.798-1.148-0.798h-1.652V23.729z M447.176,25.857c0-0.289-0.094-0.501-0.28-0.637
		s-0.481-0.203-0.882-0.203h-1.877v1.666h1.835C446.774,26.683,447.176,26.408,447.176,25.857z"/>
	<path fill="#FF825C" d="M458.068,20.635v7.532h-2.185v-5.74h-2.379l-0.07,1.33c-0.037,0.99-0.131,1.811-0.28,2.464
		s-0.392,1.167-0.728,1.54c-0.336,0.373-0.803,0.56-1.4,0.56c-0.317,0-0.695-0.056-1.134-0.168l0.112-1.792
		c0.148,0.019,0.256,0.028,0.322,0.028c0.326,0,0.57-0.119,0.734-0.357c0.163-0.238,0.273-0.542,0.329-0.91s0.098-0.856,0.126-1.463
		l0.111-3.024C451.626,20.635,458.068,20.635,458.068,20.635z"/>
	<path fill="#FF825C" d="M467.448,25.017h-5.698c0.103,0.467,0.345,0.835,0.728,1.106c0.383,0.271,0.859,0.406,1.429,0.406
		c0.392,0,0.739-0.058,1.043-0.175s0.585-0.301,0.847-0.553l1.162,1.26c-0.709,0.812-1.745,1.218-3.107,1.218
		c-0.85,0-1.602-0.166-2.254-0.497c-0.654-0.332-1.158-0.791-1.513-1.379c-0.354-0.588-0.532-1.255-0.532-2.002
		c0-0.737,0.176-1.402,0.525-1.995c0.35-0.592,0.83-1.054,1.441-1.386c0.611-0.331,1.295-0.497,2.052-0.497
		c0.737,0,1.404,0.159,2.002,0.476c0.597,0.317,1.065,0.772,1.407,1.365c0.34,0.593,0.511,1.281,0.511,2.065
		C467.49,24.457,467.475,24.653,467.448,25.017z M462.339,22.595c-0.337,0.28-0.542,0.663-0.617,1.148h3.711
		c-0.075-0.476-0.28-0.856-0.616-1.141c-0.337-0.285-0.747-0.427-1.232-0.427C463.089,22.175,462.674,22.315,462.339,22.595z"/>
	<path fill="#FF825C" d="M475.946,20.635v7.532h-2.184v-2.8c-0.635,0.317-1.336,0.476-2.101,0.476c-1.018,0-1.785-0.231-2.304-0.693
		c-0.518-0.462-0.776-1.178-0.776-2.149v-2.366h2.185v2.226c0,0.458,0.119,0.789,0.356,0.994c0.238,0.206,0.581,0.308,1.029,0.308
		c0.569,0,1.106-0.121,1.61-0.364v-3.164H475.946z"/>
	<path fill="#FF825C" d="M485.325,25.017h-5.697c0.102,0.467,0.345,0.835,0.728,1.106c0.383,0.271,0.858,0.406,1.429,0.406
		c0.392,0,0.739-0.058,1.043-0.175c0.303-0.117,0.585-0.301,0.847-0.553l1.161,1.26c-0.709,0.812-1.744,1.218-3.107,1.218
		c-0.85,0-1.601-0.166-2.254-0.497c-0.653-0.332-1.157-0.791-1.512-1.379c-0.355-0.588-0.532-1.255-0.532-2.002
		c0-0.737,0.175-1.402,0.524-1.995c0.351-0.592,0.831-1.054,1.442-1.386c0.611-0.331,1.295-0.497,2.052-0.497
		c0.736,0,1.404,0.159,2.002,0.476c0.597,0.317,1.065,0.772,1.406,1.365s0.512,1.281,0.512,2.065
		C485.368,24.457,485.353,24.653,485.325,25.017z M480.215,22.595c-0.336,0.28-0.541,0.663-0.616,1.148h3.71
		c-0.074-0.476-0.279-0.856-0.615-1.141c-0.337-0.285-0.748-0.427-1.232-0.427C480.966,22.175,480.551,22.315,480.215,22.595z"/>
	<path fill="#FF825C" d="M487.048,20.635h2.17v2.94h3.275v-2.94h2.185v7.532h-2.185v-2.814h-3.275v2.814h-2.17V20.635z"/>
	<path fill="#FF825C" d="M496.762,20.635h2.171v2.94h3.276v-2.94h2.184v7.532h-2.184v-2.814h-3.276v2.814h-2.171V20.635z"/>
	<path fill="#FF825C" d="M507.872,27.782c-0.63-0.332-1.122-0.791-1.477-1.379c-0.355-0.588-0.532-1.255-0.532-2.002
		c0-0.747,0.177-1.414,0.532-2.002c0.354-0.588,0.847-1.047,1.477-1.379c0.631-0.331,1.342-0.497,2.135-0.497
		s1.503,0.166,2.129,0.497c0.625,0.332,1.115,0.791,1.469,1.379c0.355,0.588,0.533,1.255,0.533,2.002
		c0,0.747-0.178,1.414-0.533,2.002c-0.354,0.588-0.844,1.048-1.469,1.379c-0.626,0.331-1.336,0.497-2.129,0.497
		S508.503,28.113,507.872,27.782z M511.385,25.92c0.359-0.378,0.539-0.884,0.539-1.519c0-0.634-0.18-1.141-0.539-1.519
		s-0.818-0.567-1.379-0.567c-0.56,0-1.021,0.189-1.386,0.567s-0.546,0.885-0.546,1.519c0,0.635,0.182,1.141,0.546,1.519
		s0.826,0.567,1.386,0.567C510.567,26.487,511.026,26.298,511.385,25.92z"/>
	<path fill="#FF825C" d="M517.055,27.782c-0.639-0.332-1.139-0.791-1.498-1.379s-0.539-1.255-0.539-2.002
		c0-0.747,0.18-1.414,0.539-2.002s0.859-1.047,1.498-1.379c0.64-0.331,1.36-0.497,2.163-0.497c0.794,0,1.486,0.166,2.079,0.497
		c0.593,0.332,1.024,0.805,1.295,1.421l-1.693,0.91c-0.393-0.691-0.957-1.036-1.694-1.036c-0.569,0-1.041,0.187-1.414,0.56
		c-0.374,0.374-0.56,0.882-0.56,1.526s0.186,1.153,0.56,1.526c0.373,0.374,0.845,0.56,1.414,0.56c0.747,0,1.312-0.345,1.694-1.036
		l1.693,0.924c-0.271,0.597-0.702,1.064-1.295,1.4s-1.285,0.504-2.079,0.504C518.416,28.279,517.695,28.113,517.055,27.782z"/>
	<path fill="#FF825C" d="M530.222,22.427h-2.548v5.74h-2.17v-5.74h-2.549v-1.792h7.267L530.222,22.427L530.222,22.427z"/>
	<path fill="#FF825C" d="M537.713,23.708c0.522,0.434,0.784,1.048,0.784,1.841c0,0.831-0.292,1.477-0.875,1.939
		c-0.584,0.462-1.402,0.693-2.457,0.693l-3.78-0.014v-7.532h2.171v2.408h1.903C536.438,23.052,537.19,23.274,537.713,23.708z
		 M535.934,26.361c0.225-0.187,0.336-0.466,0.336-0.84c0-0.364-0.109-0.63-0.328-0.798c-0.22-0.168-0.545-0.257-0.974-0.266
		l-1.413-0.014v2.184h1.413C535.389,26.636,535.711,26.548,535.934,26.361z"/>
</g>
<g>
	<path fill="#FF825C" d="M173.5,421.667h-160c-7.444,0-13.5-6.056-13.5-13.5V13.5C0,6.056,6.056,0,13.5,0h160
		c7.444,0,13.5,6.056,13.5,13.5v394.667C187,415.611,180.944,421.667,173.5,421.667z M13.5,3C7.711,3,3,7.71,3,13.5v394.667
		c0,5.79,4.71,10.5,10.5,10.5h160c5.79,0,10.5-4.71,10.5-10.5V13.5C184,7.71,179.29,3,173.5,3H13.5z"/>
</g>
<g>
	<path fill="#FF825C" d="M367.334,421.667h-160c-7.444,0-13.5-6.056-13.5-13.5V13.5c0-7.444,6.056-13.5,13.5-13.5h160
		c7.444,0,13.5,6.056,13.5,13.5v394.667C380.834,415.611,374.778,421.667,367.334,421.667z M207.333,3c-5.79,0-10.5,4.71-10.5,10.5
		v394.667c0,5.79,4.71,10.5,10.5,10.5h160c5.79,0,10.5-4.71,10.5-10.5V13.5c0-5.79-4.71-10.5-10.5-10.5H207.333z"/>
</g>
<g>
	<path fill="#FF825C" d="M559.334,421.667h-160c-7.444,0-13.5-6.056-13.5-13.5V13.5c0-7.444,6.056-13.5,13.5-13.5h160
		c7.444,0,13.5,6.056,13.5,13.5v394.667C572.834,415.611,566.778,421.667,559.334,421.667z M399.334,3c-5.79,0-10.5,4.71-10.5,10.5
		v394.667c0,5.79,4.71,10.5,10.5,10.5h160c5.79,0,10.5-4.71,10.5-10.5V13.5c0-5.79-4.71-10.5-10.5-10.5H399.334z"/>
</g>
<g>
	<polygon fill="#FAFBFB" points="174.4,158.59 287.283,109.496 400.165,158.59 400.165,256.779 287.283,305.874 174.4,256.779 	"/>
	<path fill="#4C4C4C" d="M287.282,307.51l-0.598-0.26L172.9,257.763V157.607l114.383-49.747l114.383,49.747v100.156l-0.901,0.393
		L287.282,307.51z M175.9,255.796l111.383,48.442l111.383-48.442v-96.222l-111.383-48.442L175.9,159.574V255.796z"/>
</g>
<g>
	<path fill="#FF825C" d="M255.193,215.75h-21.125l-4.03,9.75h-10.79l20.28-45.5h10.4l20.345,45.5h-11.05L255.193,215.75z
		 M251.878,207.755l-7.215-17.42l-7.215,17.42H251.878z"/>
	<path fill="#FF825C" d="M283.565,223.257c-3.749-2.015-6.695-4.81-8.84-8.385s-3.217-7.615-3.217-12.122s1.072-8.547,3.217-12.123
		c2.145-3.575,5.091-6.37,8.84-8.385c3.748-2.015,7.963-3.022,12.643-3.022c3.943,0,7.508,0.693,10.693,2.08
		c3.185,1.388,5.859,3.38,8.027,5.98l-6.761,6.24c-3.077-3.553-6.89-5.33-11.439-5.33c-2.817,0-5.33,0.618-7.54,1.853
		c-2.21,1.235-3.933,2.958-5.168,5.167c-1.235,2.21-1.853,4.724-1.853,7.54c0,2.817,0.618,5.33,1.853,7.54
		c1.235,2.21,2.958,3.933,5.168,5.167c2.21,1.235,4.723,1.853,7.54,1.853c4.55,0,8.362-1.798,11.439-5.395l6.761,6.239
		c-2.168,2.645-4.854,4.659-8.061,6.046c-3.207,1.386-6.782,2.079-10.725,2.079C291.506,226.279,287.313,225.272,283.565,223.257z"
		/>
	<path fill="#FF825C" d="M330.983,188.58h-14.561V180h39.65v8.58h-14.56v36.92h-10.53v-36.92H330.983z"/>
</g>
<text transform="matrix(1 0 0 1 643.1669 25.0178)" fill="#F47E53" font-family="'Montserrat-Bold'" font-size="14">Открытость</text>
<text transform="matrix(1 0 0 1 804.8335 93.0179)" fill="#4C4C4C" font-family="'Montserrat-Bold'" font-size="13">Контакт с настоящим</text>
<text transform="matrix(1 0 0 1 636.5001 143.3513)" fill="#4C4C4C" font-family="'Montserrat-Bold'" font-size="13">Принятие опыта</text>
<text transform="matrix(1 0 0 1 644.5001 276.6849)" fill="#4C4C4C" font-family="'Montserrat-Bold'" font-size="13">Расцепление</text>
<text transform="matrix(1 0 0 1 822.1669 324.6846)" fill="#4C4C4C" font-family="'Montserrat-Bold'" font-size="13">Наблюдающее Я</text>
<text transform="matrix(1 0 0 1 1036.5001 143.3513)" fill="#4C4C4C" font-family="'Montserrat-Bold'" font-size="13">Действия</text>
<text transform="matrix(1 0 0 1 1036.0004 276.6846)" fill="#4C4C4C" font-family="'Montserrat-Bold'" font-size="13">Ценности</text>
<text transform="matrix(1 0 0 1 807.5 25.018)" fill="#F47E53" font-family="'Montserrat-Bold'" font-size="14">Центрированность</text>
<text transform="matrix(1 0 0 1 1015.1669 25.0181)" fill="#F47E53" font-family="'Montserrat-Bold'" font-size="14">Вовлеченность</text>
<path fill="none" stroke="#F47E53" stroke-width="3" stroke-miterlimit="10" d="M779.167,405.018c0,6.627-5.373,12-12,12h-160
	c-6.627,0-12-5.373-12-12V10.351c0-6.627,5.373-12,12-12h160c6.627,0,12,5.373,12,12V405.018z"/>
<path fill="none" stroke="#F47E53" stroke-width="3" stroke-miterlimit="10" d="M973,405.018c0,6.627-5.373,12-12,12H801
	c-6.627,0-12-5.373-12-12V10.351c0-6.627,5.373-12,12-12h160c6.627,0,12,5.373,12,12V405.018z"/>
<path fill="none" stroke="#F47E53" stroke-width="3" stroke-miterlimit="10" d="M1165,405.018c0,6.627-5.373,12-12,12H993
	c-6.627,0-12-5.373-12-12V10.351c0-6.627,5.373-12,12-12h160c6.627,0,12,5.373,12,12V405.018z"/>
<polygon fill="#FAFBFB" stroke="#4C4C4C" stroke-width="3" stroke-miterlimit="10" points="768.066,155.441 880.949,106.347 
	993.832,155.441 993.832,253.63 880.949,302.725 768.066,253.63 "/>
<text transform="matrix(1 0 0 1 813.5 222.3511)" fill="#F47E53" font-family="'Montserrat-Bold'" font-size="65">ACT</text>
</svg>
