<?xml version="1.0" encoding="utf-8"?>
<!-- Generator: Adobe Illustrator 17.0.0, SVG Export Plug-In . SVG Version: 6.00 Build 0)  -->
<!DOCTYPE svg PUBLIC "-//W3C//DTD SVG 1.1//EN" "http://www.w3.org/Graphics/SVG/1.1/DTD/svg11.dtd">
<svg version="1.1" id="Layer_1" xmlns="http://www.w3.org/2000/svg" xmlns:xlink="http://www.w3.org/1999/xlink" x="0px" y="0px"
	 width="276px" height="197px" viewBox="0 0 276 197" enable-background="new 0 0 276 197" xml:space="preserve">
<path fill="#3F3D56" d="M135.875,197.251c75.042,0,135.876-5.717,135.876-12.77c0-7.054-60.834-12.771-135.876-12.771
	S0,177.427,0,184.481C0,191.534,60.833,197.251,135.875,197.251z"/>
<path opacity="0.1" enable-background="new    " d="M95.488,191.976c35.37,0,64.044-4.165,64.044-9.301s-28.673-9.3-64.044-9.3
	c-35.37,0-64.043,4.164-64.043,9.3C31.444,187.811,60.117,191.976,95.488,191.976z"/>
<path fill="#C7C7C7" d="M63.573,71.639c-30.077,0-54.457,23.465-54.457,52.407c0,28.943,24.391,52.408,54.457,52.408
	c3.706,0.002,7.402-0.359,11.032-1.077c-5.182-8.199-7.915-17.612-7.899-27.208c0-25.303,18.636-46.419,43.422-51.327
	c-4.854-7.698-11.688-14.062-19.843-18.476C82.13,73.951,72.93,71.634,63.573,71.639z"/>
<path opacity="0.1" enable-background="new    " d="M14.612,125.555c0-28.943,24.383-52.405,54.457-52.405
	c2.928,0,5.851,0.226,8.741,0.675c-4.642-1.203-9.429-1.811-14.237-1.807c-30.077,0-54.457,23.465-54.457,52.407
	c0,26.097,19.816,47.727,45.756,51.736c-11.556-3.006-21.762-9.591-29.039-18.739S14.612,137.074,14.612,125.555z"/>
<path fill="#C7C7C7" d="M109.868,95.711c7.999-4.599,14.612-11.075,19.2-18.802s6.996-16.444,6.991-25.31
	C136.059,23.103,111.68,0,81.602,0C51.525,0,27.148,23.103,27.148,51.599c-0.001,3.512,0.374,7.015,1.119,10.455
	c8.517-4.913,18.3-7.503,28.271-7.487C82.826,54.56,104.768,72.229,109.868,95.711z"/>
<path opacity="0.1" enable-background="new    " d="M131.367,51.6c0.006,8.081-1.994,16.05-5.838,23.263
	c-3.844,7.213-9.425,13.469-16.292,18.261c0.234,0.855,0.45,1.717,0.64,2.588c8-4.599,14.613-11.075,19.201-18.802
	c4.587-7.727,6.995-16.444,6.991-25.31c0-28.496-24.38-51.599-54.457-51.599c-0.787,0-1.569,0.019-2.348,0.052
	C108.239,1.22,131.367,23.85,131.367,51.6z"/>
<path fill="#FFBFC5" d="M107.492,120.029c-0.892,0.438-1.74,0.955-2.533,1.544c-0.797,0.594-1.407,1.389-1.763,2.296
	c-0.493-0.986-0.761-2.058-1.09-3.104c-0.63-1.899-1.373-3.762-2.227-5.578c1.405-0.517,2.624-1.417,3.505-2.59
	c1.731,1.651,3.493,3.373,4.35,5.553c0.147,0.377,0.577,0.78,0.678,1.11C108.548,119.751,107.867,119.829,107.492,120.029z"/>
<path fill="#3F3D56" d="M59.822,173.522c0,12.388,9.286,13.701,20.745,13.701c11.458,0,20.742-1.313,20.742-13.701
	c0-12.387-9.286-17.093-20.742-17.093C69.111,156.428,59.822,161.137,59.822,173.522z"/>
<path fill="#F1F1F1" d="M123.701,160.265c1.882,0.571,3.638,1.475,5.176,2.665c0.115,0.069,0.199,0.179,0.233,0.306
	c0.041,0.277-0.357,0.402-0.646,0.483c-0.865,0.236-1.393,1.005-2.019,1.605s-1.63,1.075-2.36,0.594
	c-0.192-0.141-0.359-0.311-0.496-0.503l-3.081-3.865c1.044-0.562,2.143-1.027,3.28-1.388"/>
<path fill="#575A89" d="M129.243,161.071c0.41,0.4,0.577,0.978,0.987,1.388c0.268,0.248,0.576,0.453,0.911,0.608l2.36,1.25
	c0.366,0.209,0.753,0.383,1.154,0.519c0.444,0.121,0.896,0.214,1.353,0.278c0.655,0.121,1.295,0.308,1.91,0.555
	c0.461,0.184,0.978,0.497,0.975,0.978c-0.02,0.236-0.122,0.458-0.289,0.633c-0.929,1.126-2.576,1.388-4.064,1.529
	c-3.22,0.328-6.514,0.572-9.662-0.159c-0.614-0.109-1.196-0.351-1.699-0.707c-0.949-0.758-1.154-2.138-0.784-3.274
	c0.1-0.436,0.368-0.82,0.75-1.074c0.499-0.278,1.119-0.148,1.693-0.189c0.605-0.082,1.19-0.263,1.731-0.535
	c0.36-0.156,0.773-0.359,0.865-0.769c0.093-0.411-0.395-0.767-0.288-1.111C127.348,160.215,128.868,160.702,129.243,161.071z"/>
<path opacity="0.1" enable-background="new    " d="M129.243,161.071c0.41,0.4,0.577,0.978,0.987,1.388
	c0.268,0.248,0.576,0.453,0.911,0.608l2.36,1.25c0.366,0.209,0.753,0.383,1.154,0.519c0.444,0.121,0.896,0.214,1.353,0.278
	c0.655,0.121,1.295,0.308,1.91,0.555c0.461,0.184,0.978,0.497,0.975,0.978c-0.02,0.236-0.122,0.458-0.289,0.633
	c-0.929,1.126-2.576,1.388-4.064,1.529c-3.22,0.328-6.514,0.572-9.662-0.159c-0.614-0.109-1.196-0.351-1.699-0.707
	c-0.949-0.758-1.154-2.138-0.784-3.274c0.1-0.436,0.368-0.82,0.75-1.074c0.499-0.278,1.119-0.148,1.693-0.189
	c0.605-0.082,1.19-0.263,1.731-0.535c0.36-0.156,0.773-0.359,0.865-0.769c0.093-0.411-0.395-0.767-0.288-1.111
	C127.348,160.215,128.868,160.702,129.243,161.071z"/>
<path fill="#F1F1F1" d="M134.715,173.469l0.993,0.631c0.303,0.156,0.552,0.393,0.718,0.682c0.216,0.486-0.075,1.036-0.398,1.464
	c-0.97,1.275-2.294,2.264-3.82,2.848c-0.529,0.212-1.088,0.346-1.658,0.397c-0.13,0.021-0.263,0.006-0.384-0.044
	c-0.303-0.156-0.26-0.569-0.263-0.9c0-0.952-0.758-1.726-1.442-2.429c-0.684-0.703-1.359-1.563-1.203-2.499
	c0.143-0.556,0.442-1.063,0.865-1.466c0.372-0.451,0.809-0.849,1.299-1.179c0.701-0.442,0.946-0.203,1.604,0.2
	C132.262,171.93,133.492,172.695,134.715,173.469z"/>
<path fill="#575A89" d="M131.497,178.117c0.269,0.066,0.551,0.069,0.822,0.011c0.271-0.059,0.524-0.179,0.739-0.349
	c0.426-0.344,0.771-0.772,1.012-1.255c0.242-0.427,0.453-0.871,0.629-1.326c0.208-0.536,0.398-1.127,0.889-1.452
	c0.576-0.394,1.425-0.238,2.019,0.141c0.594,0.381,1.044,0.944,1.555,1.433c1.203,1.154,2.787,1.885,4.414,2.363
	c1.627,0.478,3.314,0.716,4.985,1.025c0.335,0.043,0.659,0.143,0.957,0.297c0.675,0.397,0.903,1.282,0.713,2.021
	c-0.19,0.738-0.69,1.349-1.235,1.904c-0.454,0.518-1.018,0.937-1.653,1.23c-0.536,0.187-1.1,0.29-1.67,0.305
	c-2.767,0.18-5.547-0.03-8.251-0.622c-0.992-0.26-2.002-0.455-3.023-0.58c-0.62-0.053-1.249-0.037-1.869-0.078
	c-1.24-0.083-2.451-0.389-3.572-0.905c-0.272-0.097-0.501-0.281-0.649-0.522c-0.081-0.221-0.098-0.458-0.049-0.688l0.413-3.481
	c0.037-0.303,0.141-0.681,0.455-0.728c0.315-0.047,0.514,0.25,0.701,0.478c0.364,0.418,0.862,0.708,1.416,0.826
	c0.554,0.116,1.133,0.052,1.645-0.182"/>
<path fill="#575A89" d="M107.541,134.213c1.814-0.197,3.92-0.23,5.149,1.072c0.753,0.8,0.981,1.918,1.24,2.965
	c0.408,1.761,1.07,3.458,1.968,5.041c0.577,0.983,1.278,1.902,1.731,2.946s0.623,2.221,0.888,3.356
	c1.063,4.453,3.66,8.429,7.368,11.283c-0.655,1.713-2.55,2.693-4.393,3.131c-0.445,0.141-0.923,0.156-1.377,0.041
	c-0.343-0.143-0.648-0.359-0.891-0.632c-0.861-0.897-1.664-1.843-2.403-2.834c-2.657-3.415-5.351-6.899-6.8-10.927
	c-0.507-1.416-1.015-3.055-2.443-3.656c-0.814-0.339-1.745-0.234-2.619-0.089c-1.954,0.318-3.876,0.793-5.747,1.419
	c-1.996,0.669-4.281,1.491-6.107,0.469c-1.093-0.613-1.731-1.788-1.982-2.982s-0.124-2.426,0-3.637
	c0.012-0.545,0.148-1.081,0.398-1.572c0.253-0.366,0.577-0.681,0.955-0.929c1.631-1.189,3.446-2.126,5.377-2.777
	c1.843-0.627,3.828-0.832,5.753-1.146C104.911,134.536,106.223,134.356,107.541,134.213z"/>
<path opacity="0.1" enable-background="new    " d="M107.541,134.213c1.814-0.197,3.92-0.23,5.149,1.072
	c0.753,0.8,0.981,1.918,1.24,2.965c0.408,1.761,1.07,3.458,1.968,5.041c0.577,0.983,1.278,1.902,1.731,2.946
	s0.623,2.221,0.888,3.356c1.063,4.453,3.66,8.429,7.368,11.283c-0.655,1.713-2.55,2.693-4.393,3.131
	c-0.445,0.141-0.923,0.156-1.377,0.041c-0.343-0.143-0.648-0.359-0.891-0.632c-0.861-0.897-1.664-1.843-2.403-2.834
	c-2.657-3.415-5.351-6.899-6.8-10.927c-0.507-1.416-1.015-3.055-2.443-3.656c-0.814-0.339-1.745-0.234-2.619-0.089
	c-1.954,0.318-3.876,0.793-5.747,1.419c-1.996,0.669-4.281,1.491-6.107,0.469c-1.093-0.613-1.731-1.788-1.982-2.982
	s-0.124-2.426,0-3.637c0.012-0.545,0.148-1.081,0.398-1.572c0.253-0.366,0.577-0.681,0.955-0.929
	c1.631-1.189,3.446-2.126,5.377-2.777c1.843-0.627,3.828-0.832,5.753-1.146C104.911,134.536,106.223,134.356,107.541,134.213z"/>
<path fill="#FFBFC5" d="M117.932,146.812c0.847,0.408,1.625,0.936,2.307,1.569c0.736,0.755,1.183,1.729,1.564,2.701
	c0.149,0.332,0.241,0.684,0.271,1.044c0.014,0.18-0.015,0.36-0.084,0.528c-0.07,0.168-0.178,0.318-0.317,0.439
	c-0.335,0.211-0.734,0.309-1.134,0.277c-0.525,0-1.053,0-1.578-0.038c-0.319-0.002-0.636-0.061-0.934-0.172
	c-0.273-0.135-0.519-0.313-0.727-0.531c-0.925-0.827-1.684-1.811-2.236-2.904c-0.381-0.808-1.01-2.674-0.41-3.515
	S117.28,146.453,117.932,146.812z"/>
<path fill="#575A89" d="M92.479,146.524c2.686,0.832,5.545,0.922,8.351,1.174c4.722,0.426,9.386,1.313,13.92,2.649
	c0.929,0.278,1.878,0.578,2.625,1.175c0.607,0.54,1.121,1.17,1.523,1.866c0.738,1.081,1.405,2.205,1.999,3.365
	c0.511,1.049,0.9,2.148,1.373,3.212c1.594,3.561,4.115,6.668,7.319,9.02c0.577,0.431,1.238,0.897,1.388,1.588
	c0.068,0.446-0.007,0.902-0.217,1.305c-0.692,1.551-2.129,2.682-3.637,3.545c-0.647,0.372-1.362,0.747-1.679,1.408
	c-2.291-0.911-3.996-2.855-5.412-4.809c-1.417-1.954-2.677-4.062-4.495-5.683c-0.799-0.716-1.708-1.338-2.339-2.198
	c-0.961-1.311-1.221-3.105-2.513-4.115s-3.173-0.88-4.844-0.722c-8.558,0.804-17.181,0.71-25.718-0.278
	c-1.774-0.203-3.597-0.463-5.135-1.344c-1.538-0.879-2.735-2.523-2.518-4.231c0.205-1.598,1.587-2.865,3.13-3.489
	c1.543-0.625,3.245-0.739,4.904-0.92C84.632,148.603,88.573,147.881,92.479,146.524z"/>
<path fill="#3F3D56" d="M67.932,149.841c0.211-1.355,0.756-2.637,1.099-3.968c0.171-0.837,0.389-1.665,0.652-2.479
	c0-0.025,0.02-0.047,0.029-0.069c0.087-0.007,0.172-0.033,0.247-0.074c0.076-0.041,0.141-0.099,0.191-0.168
	c0.047-0.118,0.06-0.247,0.037-0.372c-0.01-0.132-0.01-0.264,0-0.397c0.562-0.906,1.177-1.782,1.84-2.623
	c1.154-1.586,2.169-3.271,3.173-4.953c0.825-1.388,1.65-2.76,2.331-4.209c0.513-1.085,0.943-2.221,1.509-3.271
	c2.019-3.775,5.631-6.56,9.52-8.559c3.733-1.918,7.769-3.209,11.692-4.736c0.1,0.096,0.192,0.2,0.275,0.31
	c2.12,2.79,2.348,6.455,3.222,9.809c0.352,1.355,0.822,2.704,0.822,4.097c0,2.061-1.024,3.976-2.042,5.789
	c-0.955,1.707-1.939,3.414-3.205,4.922c-0.6,0.716-1.261,1.388-1.864,2.096c-2.475,2.917-3.903,6.507-5.294,10.031
	c-0.802,2.041-2.118,3.848-3,5.857c-0.34,0.772-0.537,1.602-0.964,2.335c-0.427,0.733-1.168,1.372-2.04,1.388
	c-0.255-0.007-0.508-0.045-0.753-0.113c-3.153-0.78-5.793-2.776-8.412-4.647c-0.47-0.334-0.94-0.661-1.442-0.961
	s-1.01-0.574-1.523-0.832l-1.171-0.619c-1.275-0.672-2.556-1.347-3.886-1.916c-0.401-0.151-0.788-0.337-1.154-0.556
	C67.826,150.581,67.863,150.208,67.932,149.841z"/>
<path fill="#FFBFC5" d="M109.151,119.796c4.012,0,7.264-3.13,7.264-6.991s-3.252-6.991-7.264-6.991s-7.264,3.13-7.264,6.991
	S105.139,119.796,109.151,119.796z"/>
<path fill="#3F3D56" d="M114.039,109.535c0.177,0.294,0.444,0.529,0.763,0.674c0.32,0.144,0.678,0.191,1.026,0.134
	c0.347-0.066,0.675-0.204,0.963-0.401c0.288-0.198,0.529-0.452,0.707-0.746c0.354-0.589,0.565-1.248,0.618-1.926
	c0.06-0.531,0.052-1.111-0.303-1.524c-0.27-0.254-0.581-0.464-0.92-0.622c-0.471-0.278-0.866-0.658-1.154-1.11
	c-0.202-0.325-0.349-0.678-0.531-1.011c-0.661-1.207-1.947-2.19-3.364-2.146c-0.681,0.023-1.33,0.278-2.002,0.384
	c-2.253,0.381-4.699-0.766-6.791,0.128c-0.513,0.24-0.991,0.547-1.419,0.91c-0.589,0.469-1.154,0.961-1.696,1.477
	c-0.471,0.386-0.827,0.885-1.033,1.447c-0.288,1.027,0.389,2.174-0.04,3.151c-0.146,0.281-0.321,0.545-0.522,0.791
	c-0.473,0.67,0.04,3.282,0,4.09c-0.059,0.392,0.045,0.791,0.288,1.11c0.343,0.37,0.917,0.4,1.442,0.406h0.943
	c0.141,0.011,0.283-0.004,0.419-0.041c0.185-0.079,0.348-0.198,0.476-0.35c0.784-0.797,0.952-3.399,2.091-3.387
	c0.174-0.012,0.347,0.032,0.494,0.122c0.204,0.144,0.265,0.414,0.412,0.613c0.167,0.19,0.393,0.324,0.645,0.382
	c0.252,0.057,0.517,0.034,0.754-0.064c0.471-0.21,0.88-0.529,1.192-0.928c0.31-0.398,0.686-0.744,1.113-1.025
	c0.609-0.341,1.296-0.488,1.887-0.875c0.493-0.322,0.773-0.788,1.217-1.144c0.445-0.355,0.82-0.305,1.293-0.069
	C113.69,108.346,113.719,108.924,114.039,109.535z"/>
<path opacity="0.1" enable-background="new    " d="M97.256,121.851c1.696-0.234,3.424-0.101,5.06,0.388
	c0.546,0.121,1.039,0.404,1.411,0.807c0.212,0.306,0.35,0.653,0.403,1.017c0.334,1.672,0.119,3.403-0.614,4.953
	c-0.052,0.077-0.086,0.163-0.1,0.255c-0.015,0.091-0.009,0.184,0.016,0.272c0.075,0.111,0.173,0.207,0.289,0.278
	c0.101,0.095,0.181,0.21,0.234,0.335c0.052,0.127,0.077,0.262,0.071,0.398c-0.006,0.137-0.041,0.27-0.104,0.391
	c-0.063,0.122-0.152,0.23-0.262,0.316c-0.135,0.095-0.314,0.178-0.34,0.336c-0.026,0.158,0.141,0.31,0.274,0.433
	c0.193,0.183,0.336,0.409,0.415,0.658c0.078,0.25,0.09,0.514,0.035,0.769c-0.072,0.205-0.121,0.416-0.147,0.631
	c0.029,0.263,0.11,0.518,0.239,0.752c0.221,0.529,0.295,1.102,0.217,1.667c-0.07,0.266-0.077,0.544-0.021,0.813
	c0.081,0.178,0.19,0.342,0.323,0.488c0.523,0.678,0.635,1.81-0.121,2.221c0.324,0.161,0.588,0.414,0.755,0.726
	c0.167,0.311,0.229,0.665,0.177,1.012c0.453-0.231,1.001,0.066,1.379,0.4s0.762,0.744,1.272,0.769
	c0.358,0.016,0.736-0.161,1.059-0.019c0.496,0.213,0.479,0.988,0.966,1.219c0.427,0.206,1.025-0.128,1.388,0.169
	c0.127,0.103,0.19,0.261,0.314,0.369c0.275,0.244,0.707,0.142,1.082,0.125c0.886-0.033,1.702,0.556,2.161,1.272
	s0.623,1.591,0.741,2.435c0.098,0.464,0.088,0.943-0.028,1.402c-0.062,0.229-0.191,0.434-0.374,0.592
	c-0.182,0.159-0.408,0.261-0.651,0.296c-4.457,0.278-8.856-0.752-13.198-1.769c-1.275-0.3-2.57-0.65-3.635-1.388
	c-0.966-0.675-1.676-1.624-2.368-2.557c-1.278-1.724-2.565-3.459-3.479-5.383c-1.177-2.473-1.702-5.183-2.215-7.862
	c-0.177-0.718-0.24-1.457-0.188-2.193c0.155-0.86,0.497-1.679,1.004-2.404c0.611-0.96,1.285-1.881,2.019-2.757
	C93.832,123.159,95.502,122.093,97.256,121.851z"/>
<path fill="#3F3D56" d="M97.548,121.573c1.697-0.233,3.427-0.099,5.063,0.392c0.547,0.118,1.04,0.4,1.411,0.805
	c0.211,0.306,0.349,0.653,0.404,1.016c0.332,1.672,0.117,3.403-0.615,4.953c-0.051,0.078-0.086,0.164-0.1,0.256
	c-0.014,0.09-0.009,0.184,0.016,0.272c0.075,0.111,0.173,0.206,0.289,0.278c0.102,0.094,0.181,0.209,0.234,0.335
	s0.077,0.262,0.071,0.398c-0.006,0.136-0.041,0.269-0.104,0.391c-0.063,0.122-0.152,0.23-0.262,0.316
	c-0.135,0.094-0.314,0.178-0.34,0.336c-0.026,0.158,0.141,0.31,0.288,0.433c0.194,0.183,0.337,0.409,0.415,0.658
	c0.079,0.249,0.091,0.513,0.035,0.769c-0.071,0.205-0.12,0.415-0.147,0.63c0.028,0.263,0.108,0.519,0.237,0.753
	c0.223,0.528,0.298,1.101,0.219,1.666c-0.089,0.222-0.108,0.464-0.054,0.696s0.178,0.443,0.357,0.607
	c0.522,0.678,0.635,1.81-0.121,2.238c0.324,0.16,0.588,0.412,0.755,0.724c0.167,0.311,0.229,0.665,0.177,1.011
	c0.453-0.23,1.001,0.067,1.379,0.4c0.378,0.334,0.761,0.744,1.272,0.769c0.358,0.017,0.733-0.161,1.059-0.019
	c0.496,0.216,0.478,0.988,0.966,1.222c0.427,0.203,1.024-0.131,1.388,0.166c0.127,0.103,0.19,0.261,0.314,0.37
	c0.274,0.244,0.707,0.141,1.082,0.125c0.886-0.034,1.702,0.555,2.161,1.271c0.417,0.755,0.67,1.583,0.741,2.436
	c0.092,0.459,0.083,0.932-0.029,1.388c-0.061,0.228-0.191,0.434-0.373,0.592c-0.182,0.159-0.409,0.261-0.651,0.296
	c-4.457,0.278-8.856-0.753-13.198-1.769c-1.275-0.3-2.573-0.65-3.635-1.388c-0.966-0.672-1.676-1.624-2.368-2.557
	c-1.278-1.721-2.565-3.456-3.479-5.381c-1.177-2.477-1.702-5.186-2.215-7.862c-0.177-0.719-0.24-1.459-0.188-2.196
	c0.147-0.859,0.48-1.679,0.978-2.407c0.609-0.96,1.284-1.88,2.019-2.754C94.127,122.875,95.797,121.812,97.548,121.573z"/>
<path opacity="0.95" fill="#FF7F50" d="M145.671,89.645c-5.213-24.931,10.771-49.367,35.702-54.58s49.367,10.771,54.58,35.702
	s-10.771,49.367-35.702,54.58c-14.835,3.102-30.246-1.283-41.226-11.729c-5.046,6.512-14.417,7.701-20.929,2.655
	s-7.701-14.417-2.655-20.929C137.932,92.129,141.627,90.071,145.671,89.645z"/>
<rect x="161.983" y="70.694" fill="#FFFFFF" width="54.859" height="4.331"/>
<rect x="161.983" y="77.912" fill="#FFFFFF" width="54.859" height="4.331"/>
<rect x="161.983" y="85.131" fill="#FFFFFF" width="54.859" height="4.331"/>
</svg>
