<?xml version="1.0" encoding="utf-8"?>
<!-- Generator: Adobe Illustrator 17.0.0, SVG Export Plug-In . SVG Version: 6.00 Build 0)  -->
<!DOCTYPE svg PUBLIC "-//W3C//DTD SVG 1.1//EN" "http://www.w3.org/Graphics/SVG/1.1/DTD/svg11.dtd">
<svg version="1.1" id="Layer_1" xmlns="http://www.w3.org/2000/svg" xmlns:xlink="http://www.w3.org/1999/xlink" x="0px" y="0px"
	 width="358.582px" height="343.133px" viewBox="0 0 358.582 343.133" enable-background="new 0 0 358.582 343.133"
	 xml:space="preserve">
<g>
	<g>
		<g>
			<rect x="154.5" y="9.249" fill="#FF825C" width="3" height="193.333"/>
		</g>
		<g>
			<polygon fill="#FF825C" points="156,3.249 158.837,8.698 153.163,8.698 			"/>
			<path fill="#FF825C" d="M161.309,10.198h-10.617L156,0L161.309,10.198z M155.635,7.198h0.73L156,6.497L155.635,7.198z"/>
		</g>
	</g>
	<g>
		<g>
			
				<rect x="87.584" y="171.576" transform="matrix(0.7071 0.7071 -0.7071 0.7071 215.7677 15.5746)" fill="#FF825C" width="3" height="193.331"/>
		</g>
		<g>
			<polygon fill="#FF825C" points="16.489,340.835 18.337,334.976 22.349,338.988 			"/>
			<path fill="#FF825C" d="M17.65,332.168l7.507,7.507l-10.965,3.458L17.65,332.168z M19.54,338.301l-0.517-0.517l-0.238,0.754
				L19.54,338.301z"/>
		</g>
	</g>
	<g>
		<g>
			<rect x="156" y="199.825" fill="#FF825C" width="193.333" height="3"/>
		</g>
		<g>
			<polygon fill="#FF825C" points="355.333,201.325 349.884,204.162 349.884,198.488 			"/>
			<path fill="#FF825C" d="M348.384,206.633v-10.617l10.198,5.309L348.384,206.633z M351.384,200.96v0.73l0.701-0.365
				L351.384,200.96z"/>
		</g>
	</g>
</g>
<g>
	<path fill="#4C4B4C" d="M179.696,23.025h-4.032v10.224h-2.88V23.025h-4.014v-2.376h10.926L179.696,23.025L179.696,23.025z"/>
	<path fill="#4C4B4C" d="M189.056,27.507c0.648,0.552,0.972,1.344,0.972,2.376c0,1.08-0.366,1.915-1.098,2.502
		c-0.732,0.588-1.771,0.882-3.114,0.882l-4.716-0.018v-9.684h2.79v3.096h2.304C187.454,26.673,188.408,26.955,189.056,27.507z
		 M186.806,30.927c0.288-0.24,0.432-0.6,0.432-1.08c0-0.468-0.141-0.81-0.423-1.026c-0.282-0.216-0.699-0.33-1.251-0.342
		l-1.674-0.018v2.808h1.674C186.104,31.281,186.518,31.167,186.806,30.927z M191.072,23.565h2.79v9.684h-2.79V23.565z"/>
</g>
<g>
	<path fill="#4C4B4C" d="M183.128,175.982v12.6h-2.88v-3.348h-2.664l-2.232,3.348h-3.077l2.628-3.798
		c-0.853-0.348-1.507-0.873-1.962-1.575c-0.457-0.702-0.685-1.545-0.685-2.529c0-0.972,0.222-1.809,0.666-2.511
		s1.074-1.242,1.89-1.62c0.816-0.378,1.776-0.567,2.881-0.567H183.128z M175.865,178.934c-0.438,0.384-0.657,0.954-0.657,1.71
		c0,0.732,0.21,1.296,0.63,1.692s1.038,0.594,1.854,0.594h2.556v-4.572h-2.484C176.936,178.358,176.303,178.55,175.865,178.934z"/>
</g>
<g>
	<path fill="#4C4B4C" d="M170.041,222.627c-1.038-0.558-1.854-1.332-2.448-2.322s-0.891-2.109-0.891-3.357s0.297-2.367,0.891-3.357
		c0.594-0.99,1.41-1.764,2.448-2.322s2.205-0.837,3.501-0.837c1.092,0,2.079,0.192,2.961,0.576s1.623,0.936,2.223,1.656
		l-1.872,1.728c-0.852-0.984-1.908-1.476-3.168-1.476c-0.78,0-1.476,0.171-2.088,0.513s-1.089,0.819-1.431,1.431
		s-0.513,1.308-0.513,2.088s0.171,1.476,0.513,2.088s0.819,1.089,1.431,1.431s1.308,0.513,2.088,0.513
		c1.26,0,2.316-0.498,3.168-1.494l1.872,1.728c-0.6,0.732-1.344,1.29-2.232,1.674s-1.878,0.576-2.97,0.576
		C172.24,223.464,171.079,223.186,170.041,222.627z"/>
	<path fill="#4C4B4C" d="M189.436,219.199h-7.326c0.132,0.6,0.444,1.074,0.936,1.422s1.104,0.522,1.836,0.522
		c0.504,0,0.951-0.075,1.341-0.225c0.39-0.15,0.753-0.387,1.089-0.711l1.494,1.62c-0.912,1.044-2.244,1.566-3.996,1.566
		c-1.092,0-2.058-0.213-2.898-0.639c-0.84-0.426-1.488-1.017-1.944-1.773c-0.457-0.756-0.684-1.614-0.684-2.574
		c0-0.948,0.225-1.803,0.675-2.565c0.45-0.762,1.068-1.355,1.854-1.782c0.786-0.426,1.665-0.639,2.637-0.639
		c0.948,0,1.806,0.204,2.574,0.612s1.371,0.993,1.809,1.755s0.657,1.647,0.657,2.655C189.49,218.479,189.472,218.73,189.436,219.199
		z M182.866,216.084c-0.432,0.36-0.696,0.852-0.792,1.476h4.77c-0.096-0.612-0.36-1.101-0.792-1.467s-0.96-0.549-1.584-0.549
		C183.832,215.544,183.298,215.725,182.866,216.084z"/>
	<path fill="#4C4B4C" d="M191.65,213.564h2.79v5.76l4.716-5.76h2.574v9.684h-2.79v-5.76l-4.698,5.76h-2.592L191.65,213.564
		L191.65,213.564z M193.324,209.73h1.836c0.012,0.42,0.129,0.747,0.351,0.981s0.549,0.351,0.981,0.351s0.765-0.117,0.999-0.351
		s0.351-0.561,0.351-0.981h1.872c-0.012,1.86-1.08,2.79-3.204,2.79C194.397,212.521,193.335,211.591,193.324,209.73z"/>
	<path fill="#4C4B4C" d="M213.142,213.564v9.684h-2.808v-3.6c-0.816,0.408-1.716,0.612-2.7,0.612c-1.308,0-2.295-0.297-2.961-0.891
		c-0.666-0.594-0.999-1.515-0.999-2.763v-3.042h2.809v2.862c0,0.588,0.152,1.014,0.459,1.278c0.306,0.264,0.747,0.396,1.322,0.396
		c0.732,0,1.423-0.156,2.07-0.468v-4.068L213.142,213.564L213.142,213.564z"/>
	<path fill="#4C4B4C" d="M223.06,214.492c0.804,0.714,1.206,1.791,1.206,3.231v5.526h-2.628v-1.206
		c-0.528,0.9-1.513,1.35-2.952,1.35c-0.744,0-1.39-0.126-1.936-0.378s-0.963-0.6-1.251-1.044s-0.432-0.948-0.432-1.512
		c0-0.9,0.339-1.608,1.017-2.124c0.678-0.516,1.726-0.774,3.142-0.774h2.231c0-0.612-0.186-1.083-0.558-1.413
		s-0.931-0.495-1.674-0.495c-0.517,0-1.023,0.081-1.521,0.243s-0.921,0.381-1.269,0.657l-1.009-1.962
		c0.528-0.372,1.161-0.66,1.899-0.864s1.497-0.306,2.277-0.306C221.104,213.42,222.255,213.778,223.06,214.492z M220.665,221.169
		c0.372-0.222,0.636-0.549,0.792-0.981v-0.99h-1.926c-1.152,0-1.729,0.378-1.729,1.134c0,0.36,0.142,0.645,0.424,0.855
		c0.281,0.21,0.669,0.315,1.161,0.315C219.867,221.502,220.293,221.392,220.665,221.169z"/>
	<path fill="#4C4B4C" d="M228.54,222.753c-0.822-0.426-1.464-1.017-1.926-1.773s-0.693-1.614-0.693-2.574s0.231-1.818,0.693-2.574
		s1.104-1.347,1.926-1.773c0.822-0.426,1.749-0.639,2.781-0.639c1.02,0,1.911,0.213,2.673,0.639
		c0.762,0.426,1.317,1.035,1.665,1.827l-2.178,1.17c-0.504-0.888-1.23-1.332-2.178-1.332c-0.732,0-1.339,0.24-1.818,0.72
		c-0.48,0.48-0.72,1.134-0.72,1.962s0.239,1.482,0.72,1.962c0.479,0.48,1.086,0.72,1.818,0.72c0.96,0,1.686-0.444,2.178-1.332
		l2.178,1.188c-0.348,0.768-0.903,1.368-1.665,1.8s-1.653,0.648-2.673,0.648C230.289,223.393,229.362,223.18,228.54,222.753z"/>
</g>
<g>
	<path fill="#4C4B4C" d="M303.529,213.024h-4.032v10.224h-2.88v-10.224h-4.015v-2.376h10.927L303.529,213.024L303.529,213.024z"/>
	<path fill="#4C4B4C" d="M305.949,222.753c-0.81-0.426-1.442-1.017-1.898-1.773s-0.685-1.614-0.685-2.574s0.229-1.818,0.685-2.574
		s1.089-1.347,1.898-1.773c0.811-0.426,1.726-0.639,2.745-0.639c1.021,0,1.933,0.213,2.736,0.639
		c0.804,0.426,1.434,1.017,1.89,1.773s0.685,1.614,0.685,2.574s-0.229,1.818-0.685,2.574s-1.086,1.347-1.89,1.773
		c-0.804,0.426-1.716,0.639-2.736,0.639C307.675,223.393,306.76,223.18,305.949,222.753z M310.468,220.359
		c0.462-0.486,0.692-1.137,0.692-1.953s-0.23-1.467-0.692-1.953s-1.053-0.729-1.773-0.729s-1.313,0.243-1.782,0.729
		c-0.468,0.486-0.701,1.137-0.701,1.953s0.233,1.467,0.701,1.953c0.469,0.486,1.063,0.729,1.782,0.729
		C309.415,221.088,310.006,220.846,310.468,220.359z"/>
	<path fill="#4C4B4C" d="M323.689,215.869h-4.969v7.38h-2.79v-9.684h7.759V215.869z"/>
	<path fill="#4C4B4C" d="M335.335,220.944v4.392h-2.61v-2.088h-6.804v2.088h-2.61v-4.392h0.396c0.6-0.012,1.014-0.366,1.242-1.062
		s0.371-1.686,0.432-2.97l0.126-3.348h8.442v7.38H335.335z M327.694,219.522c-0.114,0.624-0.327,1.098-0.64,1.422h4.086v-5.076
		h-3.168l-0.054,1.242C327.883,218.095,327.808,218.899,327.694,219.522z"/>
	<path fill="#4C4B4C" d="M344.317,214.492c0.804,0.714,1.206,1.791,1.206,3.231v5.526h-2.628v-1.206
		c-0.528,0.9-1.513,1.35-2.952,1.35c-0.744,0-1.39-0.126-1.936-0.378s-0.963-0.6-1.251-1.044s-0.432-0.948-0.432-1.512
		c0-0.9,0.339-1.608,1.017-2.124c0.678-0.516,1.726-0.774,3.142-0.774h2.231c0-0.612-0.186-1.083-0.558-1.413
		s-0.931-0.495-1.674-0.495c-0.517,0-1.023,0.081-1.521,0.243s-0.921,0.381-1.269,0.657l-1.009-1.962
		c0.528-0.372,1.161-0.66,1.899-0.864s1.497-0.306,2.277-0.306C342.361,213.42,343.513,213.778,344.317,214.492z M341.923,221.169
		c0.372-0.222,0.636-0.549,0.792-0.981v-0.99h-1.926c-1.152,0-1.729,0.378-1.729,1.134c0,0.36,0.142,0.645,0.424,0.855
		c0.281,0.21,0.669,0.315,1.161,0.315C341.125,221.502,341.551,221.392,341.923,221.169z"/>
</g>
<g>
	<path fill="#4C4B4C" d="M93.535,200.771c0.414,0.534,0.621,1.155,0.621,1.863c0,0.768-0.252,1.434-0.756,1.998
		s-1.185,0.996-2.043,1.296s-1.797,0.45-2.817,0.45c-0.864,0-1.725-0.108-2.583-0.324s-1.671-0.546-2.439-0.99l0.9-2.088
		c0.552,0.336,1.161,0.591,1.827,0.765s1.316,0.261,1.953,0.261c0.864,0,1.581-0.156,2.151-0.468s0.855-0.75,0.855-1.314
		c0-0.468-0.195-0.822-0.585-1.062c-0.39-0.24-0.921-0.36-1.593-0.36h-3.078v-2.196h2.862c0.588,0,1.047-0.12,1.377-0.36
		s0.495-0.57,0.495-0.99c0-0.492-0.237-0.875-0.711-1.152c-0.474-0.276-1.083-0.414-1.827-0.414c-0.552,0-1.122,0.075-1.71,0.225
		c-0.588,0.15-1.146,0.375-1.674,0.675l-0.882-2.268c1.332-0.684,2.772-1.026,4.32-1.026c0.984,0,1.89,0.144,2.718,0.432
		s1.488,0.708,1.98,1.26c0.492,0.552,0.738,1.194,0.738,1.926c0,0.6-0.162,1.134-0.486,1.602s-0.768,0.828-1.332,1.08
		C92.547,199.844,93.121,200.237,93.535,200.771z"/>
	<path fill="#4C4B4C" d="M107.097,203.858v4.392h-2.61v-2.088h-6.804v2.088h-2.61v-4.392h0.396c0.6-0.012,1.014-0.366,1.242-1.062
		s0.372-1.686,0.432-2.97l0.126-3.348h8.442v7.38H107.097z M99.456,202.436c-0.114,0.624-0.327,1.098-0.639,1.422h4.086v-5.076
		h-3.168l-0.054,1.242C99.645,201.008,99.57,201.813,99.456,202.436z"/>
	<path fill="#4C4B4C" d="M118.221,202.112h-7.326c0.132,0.6,0.444,1.074,0.936,1.422s1.104,0.522,1.836,0.522
		c0.504,0,0.951-0.075,1.341-0.225c0.39-0.15,0.753-0.387,1.089-0.711l1.494,1.62c-0.912,1.044-2.244,1.566-3.996,1.566
		c-1.092,0-2.058-0.213-2.898-0.639c-0.84-0.426-1.488-1.017-1.944-1.773c-0.457-0.756-0.684-1.614-0.684-2.574
		c0-0.948,0.225-1.803,0.675-2.565c0.45-0.762,1.068-1.355,1.854-1.782c0.786-0.426,1.665-0.639,2.637-0.639
		c0.948,0,1.806,0.204,2.574,0.612s1.371,0.993,1.809,1.755s0.657,1.647,0.657,2.655
		C118.275,201.392,118.257,201.644,118.221,202.112z M111.651,198.998c-0.432,0.36-0.696,0.852-0.792,1.476h4.77
		c-0.096-0.612-0.36-1.101-0.792-1.467s-0.96-0.549-1.584-0.549C112.617,198.458,112.083,198.638,111.651,198.998z"/>
	<path fill="#4C4B4C" d="M122.262,205.667c-0.822-0.426-1.464-1.017-1.926-1.773s-0.693-1.614-0.693-2.574s0.231-1.818,0.693-2.574
		s1.104-1.347,1.926-1.773c0.822-0.426,1.749-0.639,2.781-0.639c1.02,0,1.911,0.213,2.673,0.639
		c0.762,0.426,1.317,1.035,1.665,1.827l-2.178,1.17c-0.504-0.888-1.23-1.332-2.178-1.332c-0.732,0-1.338,0.24-1.818,0.72
		s-0.72,1.134-0.72,1.962s0.24,1.482,0.72,1.962s1.086,0.72,1.818,0.72c0.96,0,1.686-0.444,2.178-1.332l2.178,1.188
		c-0.348,0.768-0.903,1.368-1.665,1.8s-1.653,0.648-2.673,0.648C124.011,206.306,123.084,206.093,122.262,205.667z"/>
	<path fill="#4C4B4C" d="M139.227,200.429c0.672,0.558,1.008,1.347,1.008,2.367c0,1.068-0.375,1.899-1.125,2.493
		s-1.803,0.891-3.159,0.891l-4.86-0.018v-9.684h2.79v3.096h2.448C137.589,199.586,138.555,199.871,139.227,200.429z M136.941,203.84
		c0.288-0.24,0.432-0.6,0.432-1.08c0-0.468-0.141-0.81-0.423-1.026s-0.699-0.33-1.251-0.342l-1.818-0.018v2.808h1.818
		C136.239,204.194,136.653,204.08,136.941,203.84z"/>
</g>
<g>
	<path fill="#4C4B4C" d="M11.196,296.691H7.164v10.224h-2.88v-10.224H0.27v-2.376h10.926V296.691z"/>
	<path fill="#4C4B4C" d="M19.548,298.159c0.804,0.714,1.206,1.791,1.206,3.231v5.526h-2.628v-1.206
		c-0.528,0.9-1.512,1.35-2.952,1.35c-0.744,0-1.389-0.126-1.935-0.378s-0.963-0.6-1.251-1.044s-0.432-0.948-0.432-1.512
		c0-0.9,0.339-1.608,1.017-2.124c0.678-0.516,1.725-0.774,3.141-0.774h2.232c0-0.612-0.186-1.083-0.558-1.413
		s-0.93-0.495-1.674-0.495c-0.516,0-1.023,0.081-1.521,0.243s-0.921,0.381-1.269,0.657l-1.008-1.962
		c0.528-0.372,1.161-0.66,1.899-0.864s1.497-0.306,2.277-0.306C17.592,297.087,18.744,297.445,19.548,298.159z M17.154,304.836
		c0.372-0.222,0.636-0.549,0.792-0.981v-0.99H16.02c-1.152,0-1.728,0.378-1.728,1.134c0,0.36,0.141,0.645,0.423,0.855
		s0.669,0.315,1.161,0.315C16.356,305.169,16.782,305.059,17.154,304.836z"/>
	<path fill="#4C4B4C" d="M32.651,306.916v-5.796l-2.898,4.86h-1.188l-2.826-4.878v5.814h-2.538v-9.684h2.934l3.096,5.598
		l3.294-5.598h2.628l0.036,9.684H32.651z"/>
</g>
<text transform="matrix(1 0 0 1 555.5001 19.2489)" fill="#4C4B4C" font-family="'Montserrat-Bold'" font-size="18">Ты</text>
<text transform="matrix(1 0 0 1 558.5001 174.5821)" fill="#4C4B4C" font-family="'Montserrat-Bold'" font-size="18">Я</text>
<text transform="matrix(1 0 0 1 553.0001 209.2486)" fill="#4C4B4C" font-family="'Montserrat-Bold'" font-size="18">Сейчас</text>
<text transform="matrix(1 0 0 1 679.3331 209.2486)" fill="#4C4B4C" font-family="'Montserrat-Bold'" font-size="18">Тогда</text>
<text transform="matrix(1 0 0 1 470.0856 192.1619)" fill="#4C4B4C" font-family="'Montserrat-Bold'" font-size="18">Здесь</text>
<text transform="matrix(1 0 0 1 387 292.9156)" fill="#4C4B4C" font-family="'Montserrat-Bold'" font-size="18">Там</text>
</svg>
