<?xml version="1.0" encoding="utf-8"?>
<!-- Generator: Adobe Illustrator 17.0.0, SVG Export Plug-In . SVG Version: 6.00 Build 0)  -->
<!DOCTYPE svg PUBLIC "-//W3C//DTD SVG 1.1//EN" "http://www.w3.org/Graphics/SVG/1.1/DTD/svg11.dtd">
<svg version="1.1" id="Layer_1" xmlns="http://www.w3.org/2000/svg" xmlns:xlink="http://www.w3.org/1999/xlink" x="0px" y="0px"
	 width="152.75px" height="105.378px" viewBox="0.5 0.747 152.75 105.378" enable-background="new 0.5 0.747 152.75 105.378"
	 xml:space="preserve">
<rect x="86.808" y="1.247" fill="none" stroke="#FF825C" stroke-miterlimit="10" width="28.208" height="28.208"/>
<ellipse fill="none" stroke="#FF825C" stroke-miterlimit="10" cx="75.553" cy="25.505" rx="4.786" ry="2.872"/>
<g>
	<path fill="none" stroke="#FF825C" stroke-miterlimit="10" d="M68.54,32.872l2-3.368c0.281-0.473,0.67-0.439,0.864,0.076
		l3.823,10.107c0.195,0.514,0.506,0.512,0.691-0.006l3.617-10.095c0.186-0.518,0.562-0.551,0.836-0.075l1.626,2.826"/>
</g>
<path fill="#4A4A4A" stroke="#4A4A4A" stroke-miterlimit="10" d="M69.006,55.77c-0.015-0.328,3.241-1.487,3.61-1.15
	c0.381,0.347-0.51,3.724-0.809,3.701C71.427,58.292,69.026,56.192,69.006,55.77z"/>
<line fill="none" stroke="#4A4A4A" stroke-miterlimit="10" x1="48.854" y1="80.704" x2="71.444" y2="55.907"/>
<path fill="#4A4A4A" stroke="#4A4A4A" stroke-miterlimit="10" d="M51.698,80.373c0.015,0.328-3.241,1.487-3.61,1.15
	c-0.381-0.347,0.51-3.724,0.809-3.701C49.278,77.851,51.679,79.95,51.698,80.373z"/>
<path fill="#4A4A4A" stroke="#4A4A4A" stroke-miterlimit="10" d="M96.274,85.184c0.232-0.232,3.281,1.394,3.281,1.894
	c0,0.516-3.097,2.131-3.281,1.894C96.04,88.672,95.975,85.483,96.274,85.184z"/>
<line fill="none" stroke="#4A4A4A" stroke-miterlimit="10" x1="53.27" y1="87.079" x2="97.958" y2="87.079"/>
<path fill="#4A4A4A" stroke="#4A4A4A" stroke-miterlimit="10" d="M55.43,88.959c-0.232,0.232-3.281-1.394-3.281-1.894
	c0-0.516,3.097-2.131,3.281-1.894C55.665,85.471,55.73,88.66,55.43,88.959z"/>
<path fill="#4A4A4A" stroke="#4A4A4A" stroke-miterlimit="10" d="M83.524,55.77c0.016-0.328-3.306-1.487-3.683-1.15
	c-0.389,0.347,0.52,3.724,0.826,3.701C81.055,58.292,83.504,56.192,83.524,55.77z"/>
<line fill="none" stroke="#4A4A4A" stroke-miterlimit="10" x1="104.082" y1="80.704" x2="81.037" y2="55.907"/>
<path fill="#4A4A4A" stroke="#4A4A4A" stroke-miterlimit="10" d="M101.18,80.373c-0.016,0.328,3.306,1.487,3.683,1.15
	c0.389-0.347-0.52-3.724-0.826-3.701C103.65,77.851,101.2,79.95,101.18,80.373z"/>
<path fill="none" stroke="#4A4A4A" stroke-miterlimit="10" d="M63.481,46.62c6.673,6.673,17.471,6.673,24.144,0"/>
<g enable-background="new    ">
	<path fill="#4B4B4B" d="M72.335,44.304c0,0.162-0.028,0.311-0.084,0.448c-0.057,0.138-0.135,0.257-0.236,0.358
		c-0.125,0.125-0.273,0.219-0.444,0.281s-0.387,0.094-0.647,0.094H70.44v1.355h-0.483v-3.635h0.986c0.218,0,0.403,0.018,0.554,0.055
		c0.151,0.036,0.286,0.094,0.403,0.172c0.138,0.093,0.245,0.208,0.321,0.347C72.297,43.918,72.335,44.093,72.335,44.304z
		 M71.832,44.317c0-0.125-0.022-0.234-0.066-0.327s-0.111-0.168-0.2-0.227c-0.078-0.051-0.167-0.087-0.267-0.109
		c-0.101-0.021-0.227-0.033-0.38-0.033H70.44v1.453h0.408c0.195,0,0.354-0.018,0.476-0.053s0.221-0.091,0.298-0.167
		c0.077-0.078,0.131-0.16,0.162-0.247C71.816,44.521,71.832,44.424,71.832,44.317z"/>
	<path fill="#4B4B4B" d="M75.26,45.479c0,0.444-0.114,0.795-0.342,1.052c-0.228,0.258-0.533,0.387-0.916,0.387
		c-0.386,0-0.692-0.129-0.919-0.387c-0.227-0.257-0.34-0.607-0.34-1.052s0.114-0.796,0.34-1.054
		c0.228-0.258,0.534-0.387,0.919-0.387c0.382,0,0.688,0.129,0.916,0.387S75.26,45.035,75.26,45.479z M74.786,45.479
		c0-0.354-0.069-0.615-0.208-0.787s-0.331-0.258-0.576-0.258c-0.249,0-0.442,0.086-0.58,0.258c-0.138,0.172-0.207,0.434-0.207,0.787
		c0,0.342,0.069,0.601,0.208,0.777s0.331,0.265,0.579,0.265c0.244,0,0.436-0.087,0.575-0.262
		C74.717,46.085,74.786,45.824,74.786,45.479z"/>
	<path fill="#4B4B4B" d="M78.17,46.841h-0.459V44.5h-1.018c-0.005,0.136-0.01,0.266-0.015,0.391c-0.005,0.126-0.01,0.239-0.015,0.34
		c-0.011,0.271-0.03,0.488-0.056,0.65s-0.06,0.297-0.103,0.404c-0.039,0.101-0.083,0.183-0.131,0.245
		c-0.048,0.063-0.1,0.119-0.155,0.17c-0.055,0.049-0.117,0.085-0.184,0.11c-0.068,0.023-0.142,0.036-0.221,0.036
		c-0.028,0-0.068-0.001-0.121-0.003c-0.053-0.001-0.088-0.002-0.104-0.002v-0.4h0.024c0.013,0,0.032,0.001,0.056,0.002
		c0.024,0.002,0.045,0.003,0.061,0.003c0.039,0,0.08-0.006,0.121-0.017c0.042-0.012,0.077-0.033,0.106-0.064
		c0.083-0.081,0.15-0.219,0.2-0.412s0.084-0.474,0.1-0.84c0.006-0.134,0.013-0.292,0.018-0.475c0.006-0.184,0.011-0.357,0.016-0.523
		h1.877V46.841z"/>
	<path fill="#4B4B4B" d="M81.251,45.997c0,0.132-0.026,0.251-0.079,0.358s-0.125,0.195-0.216,0.262
		c-0.107,0.081-0.223,0.139-0.345,0.174c-0.122,0.033-0.279,0.051-0.471,0.051h-1.067v-2.727h0.459v1.062h0.62
		c0.205,0,0.364,0.011,0.478,0.032c0.113,0.021,0.226,0.072,0.338,0.156c0.095,0.069,0.165,0.159,0.213,0.268
		C81.228,45.742,81.251,45.863,81.251,45.997z M80.777,46.003c0-0.082-0.014-0.155-0.043-0.218c-0.028-0.063-0.075-0.114-0.14-0.153
		c-0.068-0.04-0.146-0.064-0.233-0.072c-0.087-0.009-0.212-0.013-0.375-0.013h-0.454v0.928h0.444c0.163,0,0.289-0.007,0.379-0.021
		c0.089-0.014,0.167-0.041,0.231-0.08c0.067-0.042,0.115-0.092,0.146-0.149S80.777,46.093,80.777,46.003z"/>
</g>
<circle fill="none" stroke="#4A4A4A" stroke-miterlimit="10" cx="100.412" cy="9.034" r="2.662"/>
<circle fill="none" stroke="#4A4A4A" stroke-miterlimit="10" cx="93.412" cy="22.034" r="2.662"/>
<circle fill="none" stroke="#4A4A4A" stroke-miterlimit="10" cx="108.412" cy="22.034" r="2.662"/>
<line fill="none" stroke="#4A4A4A" stroke-miterlimit="10" x1="96.073" y1="22.034" x2="105.75" y2="22.034"/>
<line fill="none" stroke="#4A4A4A" stroke-miterlimit="10" x1="106.65" y1="20.042" x2="101.602" y2="11.402"/>
<ellipse fill="none" stroke="#FF825C" stroke-miterlimit="10" cx="114.553" cy="79.505" rx="4.786" ry="2.872"/>
<g>
	<path fill="none" stroke="#FF825C" stroke-miterlimit="10" d="M107.54,86.872l2-3.368c0.281-0.473,0.67-0.439,0.864,0.076
		l3.823,10.107c0.195,0.514,0.506,0.512,0.691-0.006l3.617-10.095c0.186-0.518,0.562-0.551,0.836-0.075l1.626,2.826"/>
</g>
<path fill="none" stroke="#4A4A4A" stroke-miterlimit="10" d="M102.481,100.62c6.673,6.673,17.471,6.673,24.144,0"/>
<g enable-background="new    ">
	<path fill="#4B4B4B" d="M111.335,98.304c0,0.162-0.028,0.311-0.084,0.448c-0.057,0.138-0.135,0.257-0.235,0.358
		c-0.126,0.125-0.273,0.219-0.444,0.281s-0.387,0.094-0.647,0.094h-0.483v1.355h-0.483v-3.635h0.986
		c0.219,0,0.403,0.018,0.555,0.055c0.151,0.036,0.285,0.094,0.402,0.172c0.139,0.093,0.245,0.208,0.321,0.347
		C111.297,97.918,111.335,98.093,111.335,98.304z M110.832,98.317c0-0.125-0.021-0.234-0.065-0.327s-0.111-0.168-0.2-0.227
		c-0.078-0.051-0.168-0.087-0.268-0.109c-0.101-0.021-0.227-0.033-0.38-0.033h-0.479v1.453h0.408c0.195,0,0.354-0.018,0.476-0.053
		s0.222-0.091,0.298-0.167c0.077-0.078,0.131-0.16,0.162-0.247C110.816,98.521,110.832,98.424,110.832,98.317z"/>
	<path fill="#4B4B4B" d="M114.26,99.479c0,0.444-0.113,0.795-0.342,1.052c-0.228,0.258-0.533,0.387-0.915,0.387
		c-0.386,0-0.692-0.129-0.92-0.387c-0.227-0.257-0.34-0.607-0.34-1.052s0.113-0.796,0.34-1.054c0.228-0.258,0.534-0.387,0.92-0.387
		c0.382,0,0.688,0.129,0.915,0.387C114.146,98.683,114.26,99.035,114.26,99.479z M113.786,99.479c0-0.354-0.069-0.615-0.207-0.787
		c-0.139-0.172-0.331-0.258-0.576-0.258c-0.249,0-0.442,0.086-0.58,0.258s-0.206,0.434-0.206,0.787c0,0.342,0.069,0.601,0.207,0.777
		c0.139,0.177,0.331,0.265,0.579,0.265c0.244,0,0.436-0.087,0.574-0.262C113.717,100.085,113.786,99.824,113.786,99.479z"/>
	<path fill="#4B4B4B" d="M117.17,100.841h-0.459V98.5h-1.018c-0.005,0.136-0.01,0.266-0.015,0.391
		c-0.005,0.126-0.01,0.239-0.015,0.34c-0.012,0.271-0.03,0.488-0.057,0.65c-0.025,0.162-0.06,0.297-0.103,0.404
		c-0.039,0.101-0.082,0.183-0.131,0.245c-0.048,0.063-0.1,0.119-0.154,0.17c-0.056,0.049-0.117,0.085-0.185,0.11
		c-0.067,0.023-0.142,0.036-0.221,0.036c-0.028,0-0.068-0.001-0.121-0.003c-0.053-0.001-0.088-0.002-0.104-0.002v-0.4h0.024
		c0.013,0,0.031,0.001,0.056,0.002c0.024,0.002,0.045,0.003,0.062,0.003c0.039,0,0.079-0.006,0.12-0.017
		c0.042-0.012,0.077-0.033,0.106-0.064c0.083-0.081,0.15-0.219,0.2-0.412c0.051-0.193,0.084-0.474,0.101-0.84
		c0.006-0.134,0.013-0.292,0.018-0.475c0.006-0.184,0.012-0.357,0.017-0.523h1.877V100.841z"/>
	<path fill="#4B4B4B" d="M120.251,99.997c0,0.132-0.026,0.251-0.079,0.358s-0.125,0.195-0.216,0.262
		c-0.107,0.081-0.223,0.139-0.345,0.174c-0.122,0.033-0.279,0.051-0.471,0.051h-1.067v-2.727h0.459v1.062h0.62
		c0.205,0,0.364,0.011,0.478,0.032c0.113,0.021,0.226,0.072,0.338,0.156c0.095,0.069,0.165,0.159,0.213,0.268
		C120.228,99.742,120.251,99.863,120.251,99.997z M119.777,100.003c0-0.082-0.014-0.155-0.043-0.218
		c-0.028-0.063-0.075-0.114-0.14-0.153c-0.068-0.04-0.146-0.064-0.233-0.072c-0.087-0.009-0.212-0.013-0.375-0.013h-0.454v0.928
		h0.444c0.163,0,0.289-0.007,0.379-0.021c0.089-0.014,0.167-0.041,0.231-0.08c0.067-0.042,0.115-0.092,0.146-0.149
		S119.777,100.093,119.777,100.003z"/>
</g>
<ellipse fill="none" stroke="#FF825C" stroke-miterlimit="10" cx="38.553" cy="79.505" rx="4.786" ry="2.872"/>
<g>
	<path fill="none" stroke="#FF825C" stroke-miterlimit="10" d="M31.54,86.872l2-3.368c0.281-0.473,0.67-0.439,0.864,0.076
		l3.823,10.107c0.195,0.514,0.506,0.512,0.691-0.006l3.617-10.095c0.186-0.518,0.562-0.551,0.836-0.075l1.626,2.826"/>
</g>
<path fill="none" stroke="#4A4A4A" stroke-miterlimit="10" d="M26.481,100.62c6.673,6.673,17.471,6.673,24.144,0"/>
<g enable-background="new    ">
	<path fill="#4B4B4B" d="M35.335,98.304c0,0.162-0.028,0.311-0.084,0.448c-0.057,0.138-0.135,0.257-0.236,0.358
		c-0.125,0.125-0.273,0.219-0.444,0.281s-0.387,0.094-0.647,0.094H33.44v1.355h-0.483v-3.635h0.986c0.218,0,0.403,0.018,0.554,0.055
		c0.151,0.036,0.286,0.094,0.403,0.172c0.138,0.093,0.245,0.208,0.321,0.347C35.297,97.918,35.335,98.093,35.335,98.304z
		 M34.832,98.317c0-0.125-0.022-0.234-0.066-0.327s-0.111-0.168-0.2-0.227c-0.078-0.051-0.167-0.087-0.267-0.109
		c-0.101-0.021-0.227-0.033-0.38-0.033H33.44v1.453h0.408c0.195,0,0.354-0.018,0.476-0.053s0.221-0.091,0.298-0.167
		c0.077-0.078,0.131-0.16,0.162-0.247C34.816,98.521,34.832,98.424,34.832,98.317z"/>
	<path fill="#4B4B4B" d="M38.26,99.479c0,0.444-0.114,0.795-0.342,1.052c-0.228,0.258-0.533,0.387-0.916,0.387
		c-0.386,0-0.692-0.129-0.919-0.387c-0.227-0.257-0.34-0.607-0.34-1.052s0.114-0.796,0.34-1.054
		c0.228-0.258,0.534-0.387,0.919-0.387c0.382,0,0.688,0.129,0.916,0.387S38.26,99.035,38.26,99.479z M37.786,99.479
		c0-0.354-0.069-0.615-0.208-0.787s-0.331-0.258-0.576-0.258c-0.249,0-0.442,0.086-0.58,0.258c-0.138,0.172-0.207,0.434-0.207,0.787
		c0,0.342,0.069,0.601,0.208,0.777s0.331,0.265,0.579,0.265c0.244,0,0.436-0.087,0.575-0.262
		C37.717,100.085,37.786,99.824,37.786,99.479z"/>
	<path fill="#4B4B4B" d="M41.17,100.841h-0.459V98.5h-1.018c-0.005,0.136-0.01,0.266-0.015,0.391
		c-0.005,0.126-0.01,0.239-0.015,0.34c-0.011,0.271-0.03,0.488-0.056,0.65s-0.06,0.297-0.103,0.404
		c-0.039,0.101-0.083,0.183-0.131,0.245c-0.048,0.063-0.1,0.119-0.155,0.17c-0.055,0.049-0.117,0.085-0.184,0.11
		c-0.068,0.023-0.142,0.036-0.221,0.036c-0.028,0-0.068-0.001-0.121-0.003c-0.053-0.001-0.088-0.002-0.104-0.002v-0.4h0.024
		c0.013,0,0.032,0.001,0.056,0.002c0.024,0.002,0.045,0.003,0.061,0.003c0.039,0,0.08-0.006,0.121-0.017
		c0.042-0.012,0.077-0.033,0.106-0.064c0.083-0.081,0.15-0.219,0.2-0.412s0.084-0.474,0.1-0.84c0.006-0.134,0.013-0.292,0.018-0.475
		c0.006-0.184,0.011-0.357,0.016-0.523h1.877V100.841z"/>
	<path fill="#4B4B4B" d="M44.251,99.997c0,0.132-0.026,0.251-0.079,0.358c-0.053,0.107-0.125,0.195-0.216,0.262
		c-0.107,0.081-0.222,0.139-0.344,0.174c-0.122,0.033-0.279,0.051-0.471,0.051h-1.067v-2.727h0.459v1.062h0.62
		c0.205,0,0.364,0.011,0.478,0.032c0.113,0.021,0.226,0.072,0.338,0.156c0.094,0.069,0.165,0.159,0.212,0.268
		C44.228,99.742,44.251,99.863,44.251,99.997z M43.777,100.003c0-0.082-0.014-0.155-0.043-0.218
		c-0.028-0.063-0.075-0.114-0.14-0.153c-0.068-0.04-0.146-0.064-0.233-0.072c-0.087-0.009-0.212-0.013-0.375-0.013h-0.454v0.928
		h0.444c0.163,0,0.289-0.007,0.378-0.021s0.167-0.041,0.232-0.08c0.067-0.042,0.115-0.092,0.146-0.149
		C43.762,100.168,43.777,100.093,43.777,100.003z"/>
</g>
<line fill="none" stroke="#4A4A4A" stroke-miterlimit="10" x1="99.203" y1="11.402" x2="94.813" y2="19.372"/>
<rect x="124.542" y="55.247" fill="none" stroke="#FF825C" stroke-miterlimit="10" width="28.208" height="28.208"/>
<circle fill="none" stroke="#4A4A4A" stroke-miterlimit="10" cx="138.146" cy="63.034" r="2.662"/>
<circle fill="none" stroke="#4A4A4A" stroke-miterlimit="10" cx="131.146" cy="76.034" r="2.662"/>
<circle fill="none" stroke="#4A4A4A" stroke-miterlimit="10" cx="146.146" cy="76.034" r="2.662"/>
<line fill="none" stroke="#4A4A4A" stroke-miterlimit="10" x1="133.808" y1="76.034" x2="143.484" y2="76.034"/>
<line fill="none" stroke="#4A4A4A" stroke-miterlimit="10" x1="144.384" y1="74.042" x2="139.336" y2="65.402"/>
<line fill="none" stroke="#4A4A4A" stroke-miterlimit="10" x1="136.937" y1="65.402" x2="132.547" y2="73.372"/>
<rect x="1" y="55.247" fill="none" stroke="#FF825C" stroke-miterlimit="10" width="28.208" height="28.208"/>
<circle fill="none" stroke="#4A4A4A" stroke-miterlimit="10" cx="14.604" cy="63.034" r="2.662"/>
<circle fill="none" stroke="#4A4A4A" stroke-miterlimit="10" cx="7.604" cy="76.034" r="2.662"/>
<circle fill="none" stroke="#4A4A4A" stroke-miterlimit="10" cx="22.604" cy="76.034" r="2.662"/>
<line fill="none" stroke="#4A4A4A" stroke-miterlimit="10" x1="10.266" y1="76.034" x2="19.942" y2="76.034"/>
<line fill="none" stroke="#4A4A4A" stroke-miterlimit="10" x1="20.842" y1="74.042" x2="15.794" y2="65.402"/>
<line fill="none" stroke="#4A4A4A" stroke-miterlimit="10" x1="13.395" y1="65.402" x2="9.005" y2="73.372"/>
</svg>
