<?xml version="1.0" encoding="utf-8"?>
<!-- Generator: Adobe Illustrator 17.0.0, SVG Export Plug-In . SVG Version: 6.00 Build 0)  -->
<!DOCTYPE svg PUBLIC "-//W3C//DTD SVG 1.1//EN" "http://www.w3.org/Graphics/SVG/1.1/DTD/svg11.dtd">
<svg version="1.1" id="Layer_1" xmlns="http://www.w3.org/2000/svg" xmlns:xlink="http://www.w3.org/1999/xlink" x="0px" y="0px"
	 width="152.75px" height="105.378px" viewBox="0.5 0.747 152.75 105.378" enable-background="new 0.5 0.747 152.75 105.378"
	 xml:space="preserve">
<rect x="86.808" y="1.247" fill="none" stroke="#FF825C" stroke-miterlimit="10" width="28.208" height="28.208"/>
<ellipse fill="none" stroke="#FF825C" stroke-miterlimit="10" cx="75.553" cy="25.505" rx="4.786" ry="2.872"/>
<g>
	<path fill="none" stroke="#FF825C" stroke-miterlimit="10" d="M68.54,32.872l2-3.368c0.281-0.473,0.67-0.439,0.864,0.076
		l3.823,10.107c0.195,0.514,0.506,0.512,0.691-0.006l3.617-10.095c0.186-0.518,0.562-0.551,0.836-0.075l1.626,2.826"/>
</g>
<path fill="#4A4A4A" stroke="#4A4A4A" stroke-miterlimit="10" d="M69.006,55.77c-0.015-0.328,3.241-1.487,3.61-1.15
	c0.381,0.347-0.51,3.724-0.809,3.701C71.427,58.292,69.026,56.192,69.006,55.77z"/>
<line fill="none" stroke="#4A4A4A" stroke-miterlimit="10" x1="48.854" y1="80.704" x2="71.444" y2="55.907"/>
<path fill="#4A4A4A" stroke="#4A4A4A" stroke-miterlimit="10" d="M51.698,80.373c0.015,0.328-3.241,1.487-3.61,1.15
	c-0.381-0.347,0.51-3.724,0.809-3.701C49.278,77.851,51.679,79.95,51.698,80.373z"/>
<path fill="#4A4A4A" stroke="#4A4A4A" stroke-miterlimit="10" d="M96.274,85.184c0.232-0.232,3.281,1.394,3.281,1.894
	c0,0.516-3.097,2.131-3.281,1.894C96.04,88.672,95.975,85.483,96.274,85.184z"/>
<line fill="none" stroke="#4A4A4A" stroke-miterlimit="10" x1="53.27" y1="87.079" x2="97.958" y2="87.079"/>
<path fill="#4A4A4A" stroke="#4A4A4A" stroke-miterlimit="10" d="M55.43,88.959c-0.232,0.232-3.281-1.394-3.281-1.894
	c0-0.516,3.097-2.131,3.281-1.894C55.665,85.471,55.73,88.66,55.43,88.959z"/>
<path fill="#4A4A4A" stroke="#4A4A4A" stroke-miterlimit="10" d="M83.524,55.77c0.016-0.328-3.306-1.487-3.683-1.15
	c-0.389,0.347,0.52,3.724,0.826,3.701C81.055,58.292,83.504,56.192,83.524,55.77z"/>
<line fill="none" stroke="#4A4A4A" stroke-miterlimit="10" x1="104.082" y1="80.704" x2="81.037" y2="55.907"/>
<path fill="#4A4A4A" stroke="#4A4A4A" stroke-miterlimit="10" d="M101.18,80.373c-0.016,0.328,3.306,1.487,3.683,1.15
	c0.389-0.347-0.52-3.724-0.826-3.701C103.65,77.851,101.2,79.95,101.18,80.373z"/>
<path fill="none" stroke="#4A4A4A" stroke-miterlimit="10" d="M63.481,46.62c6.673,6.673,17.471,6.673,24.144,0"/>
<text transform="matrix(1 0 0 1 69.4688 46.8411)" fill="#4B4B4B" font-family="'Verdana'" font-size="5">Роль</text>
<circle fill="none" stroke="#4A4A4A" stroke-miterlimit="10" cx="100.412" cy="9.034" r="2.662"/>
<circle fill="none" stroke="#4A4A4A" stroke-miterlimit="10" cx="93.412" cy="22.034" r="2.662"/>
<circle fill="none" stroke="#4A4A4A" stroke-miterlimit="10" cx="108.412" cy="22.034" r="2.662"/>
<line fill="none" stroke="#4A4A4A" stroke-miterlimit="10" x1="96.073" y1="22.034" x2="105.75" y2="22.034"/>
<line fill="none" stroke="#4A4A4A" stroke-miterlimit="10" x1="106.65" y1="20.042" x2="101.602" y2="11.402"/>
<ellipse fill="none" stroke="#FF825C" stroke-miterlimit="10" cx="114.553" cy="79.505" rx="4.786" ry="2.872"/>
<g>
	<path fill="none" stroke="#FF825C" stroke-miterlimit="10" d="M107.54,86.872l2-3.368c0.281-0.473,0.67-0.439,0.864,0.076
		l3.823,10.107c0.195,0.514,0.506,0.512,0.691-0.006l3.617-10.095c0.186-0.518,0.562-0.551,0.836-0.075l1.626,2.826"/>
</g>
<path fill="none" stroke="#4A4A4A" stroke-miterlimit="10" d="M102.481,100.62c6.673,6.673,17.471,6.673,24.144,0"/>
<text transform="matrix(1 0 0 1 108.4688 100.8411)" fill="#4B4B4B" font-family="'Verdana'" font-size="5">Роль</text>
<ellipse fill="none" stroke="#FF825C" stroke-miterlimit="10" cx="38.553" cy="79.505" rx="4.786" ry="2.872"/>
<g>
	<path fill="none" stroke="#FF825C" stroke-miterlimit="10" d="M31.54,86.872l2-3.368c0.281-0.473,0.67-0.439,0.864,0.076
		l3.823,10.107c0.195,0.514,0.506,0.512,0.691-0.006l3.617-10.095c0.186-0.518,0.562-0.551,0.836-0.075l1.626,2.826"/>
</g>
<path fill="none" stroke="#4A4A4A" stroke-miterlimit="10" d="M26.481,100.62c6.673,6.673,17.471,6.673,24.144,0"/>
<text transform="matrix(1 0 0 1 32.4688 100.8411)" fill="#4B4B4B" font-family="'Verdana'" font-size="5">Роль</text>
<line fill="none" stroke="#4A4A4A" stroke-miterlimit="10" x1="99.203" y1="11.402" x2="94.813" y2="19.372"/>
<rect x="124.542" y="55.247" fill="none" stroke="#FF825C" stroke-miterlimit="10" width="28.208" height="28.208"/>
<circle fill="none" stroke="#4A4A4A" stroke-miterlimit="10" cx="138.146" cy="63.034" r="2.662"/>
<circle fill="none" stroke="#4A4A4A" stroke-miterlimit="10" cx="131.146" cy="76.034" r="2.662"/>
<circle fill="none" stroke="#4A4A4A" stroke-miterlimit="10" cx="146.146" cy="76.034" r="2.662"/>
<line fill="none" stroke="#4A4A4A" stroke-miterlimit="10" x1="133.808" y1="76.034" x2="143.484" y2="76.034"/>
<line fill="none" stroke="#4A4A4A" stroke-miterlimit="10" x1="144.384" y1="74.042" x2="139.336" y2="65.402"/>
<line fill="none" stroke="#4A4A4A" stroke-miterlimit="10" x1="136.937" y1="65.402" x2="132.547" y2="73.372"/>
<rect x="1" y="55.247" fill="none" stroke="#FF825C" stroke-miterlimit="10" width="28.208" height="28.208"/>
<circle fill="none" stroke="#4A4A4A" stroke-miterlimit="10" cx="14.604" cy="63.034" r="2.662"/>
<circle fill="none" stroke="#4A4A4A" stroke-miterlimit="10" cx="7.604" cy="76.034" r="2.662"/>
<circle fill="none" stroke="#4A4A4A" stroke-miterlimit="10" cx="22.604" cy="76.034" r="2.662"/>
<line fill="none" stroke="#4A4A4A" stroke-miterlimit="10" x1="10.266" y1="76.034" x2="19.942" y2="76.034"/>
<line fill="none" stroke="#4A4A4A" stroke-miterlimit="10" x1="20.842" y1="74.042" x2="15.794" y2="65.402"/>
<line fill="none" stroke="#4A4A4A" stroke-miterlimit="10" x1="13.395" y1="65.402" x2="9.005" y2="73.372"/>
</svg>
