<?xml version="1.0" encoding="utf-8"?>
<!-- Generator: Adobe Illustrator 17.0.0, SVG Export Plug-In . SVG Version: 6.00 Build 0)  -->
<!DOCTYPE svg PUBLIC "-//W3C//DTD SVG 1.1//EN" "http://www.w3.org/Graphics/SVG/1.1/DTD/svg11.dtd">
<svg version="1.1" id="Layer_1" xmlns="http://www.w3.org/2000/svg" xmlns:xlink="http://www.w3.org/1999/xlink" x="0px" y="0px"
	 width="150.375px" height="108.5px" viewBox="45.375 6.125 150.375 108.5" enable-background="new 45.375 6.125 150.375 108.5"
	 xml:space="preserve">
<rect x="147.183" y="20.625" fill="none" stroke="#4A4A4A" stroke-miterlimit="10" width="47.734" height="28.208"/>
<ellipse fill="none" stroke="#FF7F50" stroke-miterlimit="10" cx="90.928" cy="30.883" rx="4.786" ry="2.872"/>
<g>
	<path fill="none" stroke="#FF7F50" stroke-miterlimit="10" d="M83.915,38.25l2-3.368c0.281-0.473,0.67-0.439,0.864,0.076
		l3.823,10.107c0.195,0.514,0.506,0.512,0.691-0.006l3.617-10.095c0.186-0.518,0.562-0.551,0.836-0.075l1.626,2.826"/>
</g>
<path fill="#4A4A4A" stroke="#4B4B4B" stroke-miterlimit="10" d="M109.128,28.609c-0.24-0.224,1.281-3.327,1.781-3.344
	c0.515-0.018,2.236,3.022,2.006,3.214C112.622,28.724,109.438,28.898,109.128,28.609z"/>
<line fill="none" stroke="#4B4B4B" stroke-miterlimit="10" x1="111.013" y1="74.725" x2="111.079" y2="28.756"/>
<g>
	<g>
		<line fill="none" stroke="#4B4B4B" stroke-width="2" stroke-miterlimit="10" x1="71.667" y1="54" x2="77.667" y2="54"/>
		
			<line fill="none" stroke="#4B4B4B" stroke-width="2" stroke-miterlimit="10" stroke-dasharray="12.8589,3.2147" x1="80.882" y1="54" x2="159.643" y2="54"/>
		<line fill="none" stroke="#4B4B4B" stroke-width="2" stroke-miterlimit="10" x1="161.25" y1="54" x2="167.25" y2="54"/>
	</g>
</g>
<ellipse fill="none" stroke="#FF7F50" stroke-miterlimit="10" cx="140.928" cy="79.883" rx="4.786" ry="2.872"/>
<g>
	<path fill="none" stroke="#FF7F50" stroke-miterlimit="10" d="M133.915,87.25l2-3.368c0.281-0.473,0.67-0.439,0.864,0.076
		l3.823,10.107c0.195,0.514,0.506,0.512,0.691-0.006l3.617-10.095c0.186-0.518,0.562-0.551,0.836-0.075l1.626,2.826"/>
</g>
<ellipse fill="none" stroke="#FF7F50" stroke-miterlimit="10" cx="106.928" cy="79.883" rx="4.786" ry="2.872"/>
<g>
	<path fill="none" stroke="#FF7F50" stroke-miterlimit="10" d="M99.915,87.25l2-3.368c0.281-0.473,0.67-0.439,0.864,0.076
		l3.823,10.107c0.195,0.514,0.506,0.512,0.691-0.006l3.617-10.095c0.186-0.518,0.562-0.551,0.836-0.075l1.626,2.826"/>
</g>
<polygon fill="none" stroke="#FF7F50" stroke-miterlimit="10" points="102.5,23.246 111.5,8.517 126.228,8.517 117.228,23.246 "/>
<g>
	<g>
		<line fill="none" stroke="#43D29D" stroke-miterlimit="10" x1="101.241" y1="21.353" x2="102.284" y2="19.647"/>
		
			<line fill="none" stroke="#43D29D" stroke-miterlimit="10" stroke-dasharray="3.1201,2.3401" x1="103.504" y1="17.65" x2="108.588" y2="9.33"/>
		<polyline fill="none" stroke="#43D29D" stroke-miterlimit="10" points="109.198,8.332 110.241,6.625 112.241,6.625 		"/>
		
			<line fill="none" stroke="#43D29D" stroke-miterlimit="10" stroke-dasharray="4.2913,3.2185" x1="115.459" y1="6.625" x2="121.36" y2="6.625"/>
		<line fill="none" stroke="#43D29D" stroke-miterlimit="10" x1="122.969" y1="6.625" x2="124.969" y2="6.625"/>
	</g>
</g>
<path fill="#4A4A4A" stroke="#4B4B4B" stroke-miterlimit="10" d="M135.808,30.741c0.583-0.625,8.651,3.331,8.696,4.63
	c0.046,1.34-7.857,5.815-8.358,5.216C135.51,39.826,135.057,31.545,135.808,30.741z"/>
<line fill="none" stroke="#4B4B4B" stroke-width="4" stroke-miterlimit="10" x1="121.5" y1="35.698" x2="135.595" y2="35.718"/>
<path fill="#4A4A4A" stroke="#4B4B4B" stroke-miterlimit="10" d="M126.91,27.38c0.24,0.224-1.281,3.327-1.781,3.344
	c-0.515,0.018-2.236-3.022-2.006-3.214C123.416,27.266,126.601,27.091,126.91,27.38z"/>
<line fill="none" stroke="#4B4B4B" stroke-miterlimit="10" x1="124.976" y1="16.165" x2="124.96" y2="27.233"/>
<ellipse fill="none" stroke="#FF7F50" stroke-miterlimit="10" cx="170.825" cy="34.825" rx="14.875" ry="7.458"/>
<g>
	
		<ellipse fill="none" stroke="#43D29D" stroke-miterlimit="10" stroke-dasharray="4.0247,3.0185" cx="170.866" cy="34.845" rx="18.7" ry="9.75"/>
</g>
<text transform="matrix(1 0 0 1 99.915 110.25)" fill="#4A4A4A" font-family="'Verdana'" font-size="5">Ситуация клиента</text>
<text transform="matrix(1 0 0 1 46.125 44.1951)" fill="#4A4A4A" font-family="'Verdana'" font-size="5">Схематизатор</text>
<path fill="none" stroke="#4A4A4A" stroke-miterlimit="10" d="M152.833,90.436c-16.433,16.433-43.028,16.433-59.461,0"/>
</svg>
