<?xml version="1.0" encoding="utf-8"?>
<!-- Generator: Adobe Illustrator 17.0.0, SVG Export Plug-In . SVG Version: 6.00 Build 0)  -->
<!DOCTYPE svg PUBLIC "-//W3C//DTD SVG 1.1//EN" "http://www.w3.org/Graphics/SVG/1.1/DTD/svg11.dtd">
<svg version="1.1" id="Layer_1" xmlns="http://www.w3.org/2000/svg" xmlns:xlink="http://www.w3.org/1999/xlink" x="0px" y="0px"
	 width="251px" height="179px" viewBox="0 0 251 179" enable-background="new 0 0 251 179" xml:space="preserve">
<g>
	<g>
		<defs>
			<rect id="SVGID_1_" width="242" height="179"/>
		</defs>
		<clipPath id="SVGID_2_">
			<use xlink:href="#SVGID_1_"  overflow="visible"/>
		</clipPath>
		<g clip-path="url(#SVGID_2_)">
			<g>
				<path opacity="0.3" fill="#F2F2F2" enable-background="new    " d="M166.998,99.412h-25.631c-0.908,0-1.644,0.734-1.644,1.639
					v5.441c0,0.905,0.736,1.639,1.644,1.639h25.631c0.908,0,1.643-0.734,1.643-1.639v-5.441
					C168.641,100.146,167.906,99.412,166.998,99.412z"/>
				<path opacity="0.3" fill="#F2F2F2" enable-background="new    " d="M197.261,108.13H171.63c-0.908,0-1.644,0.734-1.644,1.639
					v5.44c0,0.906,0.736,1.639,1.644,1.639h25.631c0.908,0,1.644-0.733,1.644-1.639v-5.44
					C198.905,108.864,198.169,108.13,197.261,108.13z"/>
				<path opacity="0.3" fill="#F2F2F2" enable-background="new    " d="M227.527,116.852h-25.631c-0.908,0-1.644,0.733-1.644,1.639
					v5.44c0,0.905,0.736,1.639,1.644,1.639h25.631c0.907,0,1.643-0.734,1.643-1.639v-5.44
					C229.17,117.585,228.434,116.852,227.527,116.852z"/>
				<path opacity="0.3" fill="#F2F2F2" enable-background="new    " d="M166.998,86.332h-25.631c-0.908,0-1.644,0.734-1.644,1.639
					v5.44c0,0.905,0.736,1.639,1.644,1.639h25.631c0.908,0,1.643-0.734,1.643-1.639v-5.44
					C168.641,87.066,167.906,86.332,166.998,86.332z"/>
				<path opacity="0.3" fill="#F2F2F2" enable-background="new    " d="M197.261,95.053H171.63c-0.908,0-1.644,0.734-1.644,1.639
					v5.44c0,0.905,0.736,1.639,1.644,1.639h25.631c0.908,0,1.644-0.734,1.644-1.639v-5.44
					C198.905,95.787,198.169,95.053,197.261,95.053z"/>
				<path opacity="0.3" fill="#F2F2F2" enable-background="new    " d="M227.527,103.771h-25.631c-0.908,0-1.644,0.734-1.644,1.64
					v5.44c0,0.905,0.736,1.639,1.644,1.639h25.631c0.907,0,1.643-0.734,1.643-1.639v-5.44
					C229.17,104.505,228.434,103.771,227.527,103.771z"/>
				<path opacity="0.3" fill="#F2F2F2" enable-background="new    " d="M166.998,68.895h-25.631c-0.908,0-1.644,0.734-1.644,1.639
					v5.44c0,0.905,0.736,1.639,1.644,1.639h25.631c0.908,0,1.643-0.734,1.643-1.639v-5.44
					C168.641,69.628,167.906,68.895,166.998,68.895z"/>
				<path opacity="0.3" fill="#F2F2F2" enable-background="new    " d="M197.261,77.613H171.63c-0.908,0-1.644,0.734-1.644,1.639
					v5.44c0,0.905,0.736,1.639,1.644,1.639h25.631c0.908,0,1.644-0.734,1.644-1.639v-5.44
					C198.905,78.347,198.169,77.613,197.261,77.613z"/>
				<path opacity="0.3" fill="#F2F2F2" enable-background="new    " d="M227.527,86.332h-25.631c-0.908,0-1.644,0.734-1.644,1.639
					v5.44c0,0.905,0.736,1.639,1.644,1.639h25.631c0.907,0,1.643-0.734,1.643-1.639v-5.44
					C229.17,87.066,228.434,86.332,227.527,86.332z"/>
				<path opacity="0.3" fill="#F2F2F2" enable-background="new    " d="M166.998,55.814h-25.631c-0.908,0-1.644,0.734-1.644,1.639
					v5.44c0,0.905,0.736,1.639,1.644,1.639h25.631c0.908,0,1.643-0.734,1.643-1.639v-5.44
					C168.641,56.548,167.906,55.814,166.998,55.814z"/>
				<path opacity="0.3" fill="#F2F2F2" enable-background="new    " d="M197.261,64.533H171.63c-0.908,0-1.644,0.734-1.644,1.639
					v5.44c0,0.905,0.736,1.639,1.644,1.639h25.631c0.908,0,1.644-0.734,1.644-1.639v-5.44
					C198.905,65.267,198.169,64.533,197.261,64.533z"/>
				<path opacity="0.3" fill="#F2F2F2" enable-background="new    " d="M227.527,73.254h-25.631c-0.908,0-1.644,0.734-1.644,1.639
					v5.44c0,0.905,0.736,1.639,1.644,1.639h25.631c0.907,0,1.643-0.734,1.643-1.639v-5.44
					C229.17,73.988,228.434,73.254,227.527,73.254z"/>
				<path opacity="0.1" fill="#F2F2F2" enable-background="new    " d="M166.998,99.412h-25.631c-0.908,0-1.644,0.734-1.644,1.639
					v5.441c0,0.905,0.736,1.639,1.644,1.639h25.631c0.908,0,1.643-0.734,1.643-1.639v-5.441
					C168.641,100.146,167.906,99.412,166.998,99.412z"/>
				<path opacity="0.1" fill="#F2F2F2" enable-background="new    " d="M197.261,108.13H171.63c-0.908,0-1.644,0.734-1.644,1.639
					v5.44c0,0.906,0.736,1.639,1.644,1.639h25.631c0.908,0,1.644-0.733,1.644-1.639v-5.44
					C198.905,108.864,198.169,108.13,197.261,108.13z"/>
				<path opacity="0.1" fill="#F2F2F2" enable-background="new    " d="M227.527,116.852h-25.631c-0.908,0-1.644,0.733-1.644,1.639
					v5.44c0,0.905,0.736,1.639,1.644,1.639h25.631c0.907,0,1.643-0.734,1.643-1.639v-5.44
					C229.17,117.585,228.434,116.852,227.527,116.852z"/>
				<path opacity="0.1" fill="#F2F2F2" enable-background="new    " d="M166.998,86.332h-25.631c-0.908,0-1.644,0.734-1.644,1.639
					v5.44c0,0.905,0.736,1.639,1.644,1.639h25.631c0.908,0,1.643-0.734,1.643-1.639v-5.44
					C168.641,87.066,167.906,86.332,166.998,86.332z"/>
				<path opacity="0.1" fill="#F2F2F2" enable-background="new    " d="M197.261,95.053H171.63c-0.908,0-1.644,0.734-1.644,1.639
					v5.44c0,0.905,0.736,1.639,1.644,1.639h25.631c0.908,0,1.644-0.734,1.644-1.639v-5.44
					C198.905,95.787,198.169,95.053,197.261,95.053z"/>
				<path opacity="0.1" fill="#F2F2F2" enable-background="new    " d="M227.527,103.771h-25.631c-0.908,0-1.644,0.734-1.644,1.64
					v5.44c0,0.905,0.736,1.639,1.644,1.639h25.631c0.907,0,1.643-0.734,1.643-1.639v-5.44
					C229.17,104.505,228.434,103.771,227.527,103.771z"/>
				<path opacity="0.1" fill="#F2F2F2" enable-background="new    " d="M166.998,68.895h-25.631c-0.908,0-1.644,0.734-1.644,1.639
					v5.44c0,0.905,0.736,1.639,1.644,1.639h25.631c0.908,0,1.643-0.734,1.643-1.639v-5.44
					C168.641,69.628,167.906,68.895,166.998,68.895z"/>
				<path opacity="0.1" fill="#F2F2F2" enable-background="new    " d="M197.261,77.613H171.63c-0.908,0-1.644,0.734-1.644,1.639
					v5.44c0,0.905,0.736,1.639,1.644,1.639h25.631c0.908,0,1.644-0.734,1.644-1.639v-5.44
					C198.905,78.347,198.169,77.613,197.261,77.613z"/>
				<path opacity="0.1" fill="#F2F2F2" enable-background="new    " d="M227.527,86.332h-25.631c-0.908,0-1.644,0.734-1.644,1.639
					v5.44c0,0.905,0.736,1.639,1.644,1.639h25.631c0.907,0,1.643-0.734,1.643-1.639v-5.44
					C229.17,87.066,228.434,86.332,227.527,86.332z"/>
				<path opacity="0.1" fill="#F2F2F2" enable-background="new    " d="M166.998,55.814h-25.631c-0.908,0-1.644,0.734-1.644,1.639
					v5.44c0,0.905,0.736,1.639,1.644,1.639h25.631c0.908,0,1.643-0.734,1.643-1.639v-5.44
					C168.641,56.548,167.906,55.814,166.998,55.814z"/>
				<path opacity="0.1" fill="#F2F2F2" enable-background="new    " d="M197.261,64.533H171.63c-0.908,0-1.644,0.734-1.644,1.639
					v5.44c0,0.905,0.736,1.639,1.644,1.639h25.631c0.908,0,1.644-0.734,1.644-1.639v-5.44
					C198.905,65.267,198.169,64.533,197.261,64.533z"/>
				<path opacity="0.1" fill="#F2F2F2" enable-background="new    " d="M227.527,73.254h-25.631c-0.908,0-1.644,0.734-1.644,1.639
					v5.44c0,0.905,0.736,1.639,1.644,1.639h25.631c0.907,0,1.643-0.734,1.643-1.639v-5.44
					C229.17,73.988,228.434,73.254,227.527,73.254z"/>
			</g>
			<g>
				<path opacity="0.3" fill="#F2F2F2" enable-background="new    " d="M53.74,43.598H28.109c-0.908,0-1.644,0.734-1.644,1.639v5.44
					c0,0.905,0.736,1.639,1.644,1.639H53.74c0.908,0,1.644-0.734,1.644-1.639v-5.44C55.384,44.332,54.648,43.598,53.74,43.598z"/>
				<path opacity="0.3" fill="#F2F2F2" enable-background="new    " d="M84.003,52.316H58.372c-0.908,0-1.644,0.734-1.644,1.639
					v5.44c0,0.905,0.736,1.639,1.644,1.639h25.631c0.908,0,1.644-0.734,1.644-1.639v-5.44C85.647,53.05,84.911,52.316,84.003,52.316
					z"/>
				<path opacity="0.3" fill="#F2F2F2" enable-background="new    " d="M114.269,61.037H88.638c-0.908,0-1.644,0.734-1.644,1.639
					v5.44c0,0.905,0.736,1.639,1.644,1.639h25.631c0.908,0,1.643-0.734,1.643-1.639v-5.44
					C115.912,61.771,115.177,61.037,114.269,61.037z"/>
				<path opacity="0.3" fill="#F2F2F2" enable-background="new    " d="M53.74,30.518H28.109c-0.908,0-1.644,0.734-1.644,1.639v5.44
					c0,0.905,0.736,1.639,1.644,1.639H53.74c0.908,0,1.644-0.734,1.644-1.639v-5.44C55.384,31.251,54.648,30.518,53.74,30.518z"/>
				<path opacity="0.3" fill="#F2F2F2" enable-background="new    " d="M84.003,39.238H58.372c-0.908,0-1.644,0.734-1.644,1.639
					v5.44c0,0.905,0.736,1.639,1.644,1.639h25.631c0.908,0,1.644-0.734,1.644-1.639v-5.44
					C85.647,39.972,84.911,39.238,84.003,39.238z"/>
				<path opacity="0.3" fill="#F2F2F2" enable-background="new    " d="M114.269,47.957H88.638c-0.908,0-1.644,0.734-1.644,1.639
					v5.44c0,0.905,0.736,1.639,1.644,1.639h25.631c0.908,0,1.643-0.734,1.643-1.639v-5.44
					C115.912,48.691,115.177,47.957,114.269,47.957z"/>
				<path opacity="0.3" fill="#F2F2F2" enable-background="new    " d="M53.74,13.08H28.109c-0.908,0-1.644,0.734-1.644,1.639v5.44
					c0,0.905,0.736,1.639,1.644,1.639H53.74c0.908,0,1.644-0.734,1.644-1.639v-5.44C55.384,13.814,54.648,13.08,53.74,13.08z"/>
				<path opacity="0.3" fill="#F2F2F2" enable-background="new    " d="M84.003,21.799H58.372c-0.908,0-1.644,0.734-1.644,1.639
					v5.44c0,0.905,0.736,1.639,1.644,1.639h25.631c0.908,0,1.644-0.734,1.644-1.639v-5.44
					C85.647,22.533,84.911,21.799,84.003,21.799z"/>
				<path opacity="0.3" fill="#F2F2F2" enable-background="new    " d="M114.269,30.518H88.638c-0.908,0-1.644,0.734-1.644,1.639
					v5.44c0,0.905,0.736,1.639,1.644,1.639h25.631c0.908,0,1.643-0.734,1.643-1.639v-5.44
					C115.912,31.251,115.177,30.518,114.269,30.518z"/>
				<path opacity="0.3" fill="#F2F2F2" enable-background="new    " d="M53.74,0H28.109c-0.908,0-1.644,0.734-1.644,1.639v5.44
					c0,0.905,0.736,1.639,1.644,1.639H53.74c0.908,0,1.644-0.734,1.644-1.639v-5.44C55.384,0.734,54.648,0,53.74,0z"/>
				<path opacity="0.3" fill="#F2F2F2" enable-background="new    " d="M84.003,8.719H58.372c-0.908,0-1.644,0.734-1.644,1.639v5.44
					c0,0.905,0.736,1.639,1.644,1.639h25.631c0.908,0,1.644-0.734,1.644-1.639v-5.44C85.647,9.453,84.911,8.719,84.003,8.719z"/>
				<path opacity="0.3" fill="#F2F2F2" enable-background="new    " d="M114.269,17.44H88.638c-0.908,0-1.644,0.734-1.644,1.639
					v5.44c0,0.905,0.736,1.639,1.644,1.639h25.631c0.908,0,1.643-0.734,1.643-1.639v-5.44
					C115.912,18.173,115.177,17.44,114.269,17.44z"/>
				<path opacity="0.1" fill="#F2F2F2" enable-background="new    " d="M53.74,43.598H28.109c-0.908,0-1.644,0.734-1.644,1.639v5.44
					c0,0.905,0.736,1.639,1.644,1.639H53.74c0.908,0,1.644-0.734,1.644-1.639v-5.44C55.384,44.332,54.648,43.598,53.74,43.598z"/>
				<path opacity="0.1" fill="#F2F2F2" enable-background="new    " d="M84.003,52.316H58.372c-0.908,0-1.644,0.734-1.644,1.639
					v5.44c0,0.905,0.736,1.639,1.644,1.639h25.631c0.908,0,1.644-0.734,1.644-1.639v-5.44C85.647,53.05,84.911,52.316,84.003,52.316
					z"/>
				<path opacity="0.1" fill="#F2F2F2" enable-background="new    " d="M114.269,61.037H88.638c-0.908,0-1.644,0.734-1.644,1.639
					v5.44c0,0.905,0.736,1.639,1.644,1.639h25.631c0.908,0,1.643-0.734,1.643-1.639v-5.44
					C115.912,61.771,115.177,61.037,114.269,61.037z"/>
				<path opacity="0.1" fill="#F2F2F2" enable-background="new    " d="M53.74,30.518H28.109c-0.908,0-1.644,0.734-1.644,1.639v5.44
					c0,0.905,0.736,1.639,1.644,1.639H53.74c0.908,0,1.644-0.734,1.644-1.639v-5.44C55.384,31.251,54.648,30.518,53.74,30.518z"/>
				<path opacity="0.1" fill="#F2F2F2" enable-background="new    " d="M84.003,39.238H58.372c-0.908,0-1.644,0.734-1.644,1.639
					v5.44c0,0.905,0.736,1.639,1.644,1.639h25.631c0.908,0,1.644-0.734,1.644-1.639v-5.44
					C85.647,39.972,84.911,39.238,84.003,39.238z"/>
				<path opacity="0.1" fill="#F2F2F2" enable-background="new    " d="M114.269,47.957H88.638c-0.908,0-1.644,0.734-1.644,1.639
					v5.44c0,0.905,0.736,1.639,1.644,1.639h25.631c0.908,0,1.643-0.734,1.643-1.639v-5.44
					C115.912,48.691,115.177,47.957,114.269,47.957z"/>
				<path opacity="0.1" fill="#F2F2F2" enable-background="new    " d="M53.74,13.08H28.109c-0.908,0-1.644,0.734-1.644,1.639v5.44
					c0,0.905,0.736,1.639,1.644,1.639H53.74c0.908,0,1.644-0.734,1.644-1.639v-5.44C55.384,13.814,54.648,13.08,53.74,13.08z"/>
				<path opacity="0.1" fill="#F2F2F2" enable-background="new    " d="M84.003,21.799H58.372c-0.908,0-1.644,0.734-1.644,1.639
					v5.44c0,0.905,0.736,1.639,1.644,1.639h25.631c0.908,0,1.644-0.734,1.644-1.639v-5.44
					C85.647,22.533,84.911,21.799,84.003,21.799z"/>
				<path opacity="0.1" fill="#F2F2F2" enable-background="new    " d="M114.269,30.518H88.638c-0.908,0-1.644,0.734-1.644,1.639
					v5.44c0,0.905,0.736,1.639,1.644,1.639h25.631c0.908,0,1.643-0.734,1.643-1.639v-5.44
					C115.912,31.251,115.177,30.518,114.269,30.518z"/>
				<path opacity="0.1" fill="#F2F2F2" enable-background="new    " d="M53.74,0H28.109c-0.908,0-1.644,0.734-1.644,1.639v5.44
					c0,0.905,0.736,1.639,1.644,1.639H53.74c0.908,0,1.644-0.734,1.644-1.639v-5.44C55.384,0.734,54.648,0,53.74,0z"/>
				<path opacity="0.1" fill="#F2F2F2" enable-background="new    " d="M84.003,8.719H58.372c-0.908,0-1.644,0.734-1.644,1.639v5.44
					c0,0.905,0.736,1.639,1.644,1.639h25.631c0.908,0,1.644-0.734,1.644-1.639v-5.44C85.647,9.453,84.911,8.719,84.003,8.719z"/>
				<path opacity="0.1" fill="#F2F2F2" enable-background="new    " d="M114.269,17.44H88.638c-0.908,0-1.644,0.734-1.644,1.639
					v5.44c0,0.905,0.736,1.639,1.644,1.639h25.631c0.908,0,1.643-0.734,1.643-1.639v-5.44
					C115.912,18.173,115.177,17.44,114.269,17.44z"/>
			</g>
			<g opacity="0.1">
				<path opacity="0.1" fill="#3F3D56" enable-background="new    " d="M65.391,121.822c0.003,1.251-0.126,2.498-0.385,3.722
					c-0.049,0.221-0.102,0.457-0.155,0.677c-1.365,5.465-5.221,9.462-9.819,9.707c-0.153,0-0.307,0.013-0.467,0.013
					c-4.867,0-8.977-4.191-10.333-9.945c-0.04-0.154-0.073-0.306-0.106-0.461c-0.259-1.223-0.388-2.471-0.385-3.722
					c0-7.807,4.844-14.119,10.824-14.119S65.391,114.015,65.391,121.822z"/>
				<path opacity="0.1" enable-background="new    " d="M65.391,121.822c0.003,1.251-0.126,2.498-0.385,3.722
					c-0.049,0.221-0.102,0.457-0.155,0.677c-0.164,0-0.323,0-0.485-0.02c-1.191-0.065-2.375-0.226-3.539-0.483
					c-1.033,0.318-2.088,0.558-3.157,0.72c-0.82,0.119-1.645,0.193-2.473,0.22c-0.279,0-0.557,0.016-0.836,0.016
					c-0.991-0.001-1.982-0.067-2.964-0.197c-1.586-0.213-3.144-0.599-4.645-1.151c-0.823,0.27-1.661,0.491-2.511,0.661
					c-0.04-0.154-0.073-0.306-0.106-0.461c-0.259-1.223-0.388-2.471-0.385-3.721c0-7.808,4.844-14.119,10.824-14.119
					S65.391,114.015,65.391,121.822z"/>
				<path opacity="0.1" fill="#C7C7C7" enable-background="new    " d="M88.483,95.496c0.005-3.435-0.802-6.822-2.356-9.888
					l-12.73,3.947l11.173-6.552c-1.873-2.701-4.331-4.947-7.192-6.574c-2.861-1.626-6.051-2.591-9.336-2.822
					c-0.522-0.791-1.095-1.548-1.714-2.266l-18.3,5.676l14.996-8.794c-2.868-2.191-6.233-3.645-9.798-4.232s-7.22-0.29-10.642,0.866
					c-3.422,1.156-6.506,3.134-8.98,5.76s-4.261,5.82-5.204,9.298l15.664,17.982L27.047,85.65
					c-4.303,3.044-7.366,7.528-8.632,12.635c-1.266,5.107-0.65,10.498,1.736,15.19c2.386,4.693,6.382,8.374,11.262,10.374
					c4.879,2,10.316,2.185,15.321,0.522c4.531,1.659,9.482,1.795,14.097,0.386c3.216,0.709,6.55,0.69,9.757-0.057
					c3.207-0.747,6.206-2.202,8.774-4.258s4.642-4.661,6.067-7.622s2.166-6.204,2.168-9.488c0-0.488-0.018-0.971-0.049-1.452
					C88.174,99.81,88.489,97.659,88.483,95.496z"/>
				<path opacity="0.1" enable-background="new    " d="M88.105,99.567c-6.723-1.271-13.618-1.359-20.371-0.258
					c-7.643,1.262-15.456,4.035-22.933,2.008c-4.387-1.191-8.185-3.945-12.465-5.471c-4.135-1.443-8.591-1.711-12.87-0.774
					c-1.632,3.89-2.106,8.166-1.366,12.318s2.664,8.003,5.54,11.093c2.877,3.091,6.585,5.29,10.682,6.334
					c4.097,1.045,8.408,0.891,12.419-0.444c4.529,1.658,9.477,1.793,14.091,0.386c3.216,0.709,6.55,0.689,9.757-0.057
					c3.207-0.747,6.205-2.202,8.774-4.258c2.568-2.057,4.642-4.661,6.067-7.622c1.425-2.962,2.166-6.204,2.168-9.489
					c0-0.487-0.018-0.97-0.049-1.451C87.777,101.12,87.962,100.348,88.105,99.567z"/>
			</g>
			<path fill="#F2F2F2" enable-background="new    " d="M121,176.29c66.826,0,121-9.827,121-21.95
				c0-12.124-54.174-21.951-121-21.951S0,142.216,0,154.34C0,166.463,54.174,176.29,121,176.29z"/>
			<path fill="#393944" d="M160.747,156.87c0.162-0.664,0.485-1.277,0.94-1.788s1.029-0.903,1.67-1.142
				c0.642-0.239,1.332-0.318,2.011-0.231c0.68,0.088,1.327,0.34,1.887,0.734l0.172,0.126c3.701,2.766,1.504,7.84,0,7.955
				s-4.398,0.238-4.398,0.238S159.621,161.359,160.747,156.87z"/>
			<path fill="#FF825C" d="M194.135,153.423v0.922c0,0-15.042,1.037-16.648,1.037h-3.006c0,0-0.044,0.046-0.117,0.13
				c-0.124,0.139-0.334,0.384-0.566,0.688c-0.474,0.613-1.038,1.469-1.168,2.18c-0.222,1.268-1.04,1.729-1.04,1.729l-3.006-0.805
				l-2.9-3.459l-0.423-0.406l-1.203-1.145l-1.029-0.982l0.051-0.551v-0.084c0.246-1.185,0.561-2.355,0.943-3.503
				c0-0.031,0.019-0.064,0.03-0.095c0.834-2.498,2.226-5.531,4.23-6.433c0.153-0.069,0.312-0.135,0.482-0.194l0.204-0.071
				c3.844-1.284,11.109-0.774,11.109-0.774s5.548,1.615,6.012,2.307c0.465,0.693,5.723,6.398,5.723,6.398
				c0.461,0.347,0.887,0.74,1.269,1.171C193.576,152.028,194.034,152.714,194.135,153.423z"/>
			<path fill="#454554" d="M162.571,161.033c0.895,0,1.62-1.136,1.62-2.537s-0.725-2.537-1.62-2.537
				c-0.894,0-1.619,1.136-1.619,2.537S161.677,161.033,162.571,161.033z"/>
			<path opacity="0.1" enable-background="new    " d="M169.278,143.505c0,0-1.327,2.03-2.73,4.633c0,0.007,0,0.014,0,0.02
				c-0.373,0.693-0.754,1.423-1.117,2.171l-0.015,0.035c0,0-0.768-0.606-1.372-1.198c0-0.031,0.02-0.064,0.031-0.094
				c0.834-2.498,2.226-5.531,4.23-6.434c0.152-0.068,0.312-0.134,0.482-0.194L169.278,143.505z"/>
			<path opacity="0.1" fill="#FFFFFF" enable-background="new    " d="M165.348,150.309c0,0,8.209,2.427,9.826,1.383
				c0,0,0.579-7.379-3.237-7.84c0,0-2.196-0.578-2.654-0.221C168.825,143.989,165.348,150.309,165.348,150.309z"/>
			<path opacity="0.1" fill="#FFFFFF" enable-background="new    " d="M175.983,144.889c0,0,1.619,6.111,2.776,6.228
				s12.83-0.117,12.37-0.925c-0.46-0.807-5.55-5.994-5.55-5.994L175.983,144.889z"/>
			<path fill="#393944" d="M173.997,155.946c0,0,2.101-2.755,5.802,0.014c3.701,2.768,1.502,7.84,0,7.955s-4.382,0.231-4.382,0.231
				S170.853,162.276,173.997,155.946z"/>
			<path fill="#393944" d="M195.823,156.648c-0.154-0.435-0.397-0.834-0.713-1.171c-0.316-0.338-0.699-0.606-1.125-0.788
				c-0.425-0.182-0.884-0.274-1.347-0.27s-0.92,0.103-1.343,0.292c-0.413,0.194-0.805,0.432-1.168,0.708
				c-3.294,2.462-1.327,6.978,0,7.082c0.48,0.035,1.119,0.073,1.741,0.106c0.636,0.033,1.272-0.081,1.857-0.333
				c0.584-0.253,1.102-0.638,1.513-1.124c0.41-0.486,0.702-1.061,0.852-1.679c0.15-0.617,0.154-1.261,0.012-1.881
				C196.027,157.271,195.934,156.957,195.823,156.648z"/>
			<path fill="#454554" d="M174.943,162.417c0.895,0,1.62-1.136,1.62-2.537s-0.725-2.537-1.62-2.537
				c-0.894,0-1.619,1.136-1.619,2.537S174.049,162.417,174.943,162.417z"/>
			<path opacity="0.1" fill="#FFFFFF" enable-background="new    " d="M179.451,155.037c0,0-0.221-3.345,3.354-1.962
				c3.575,1.384,1.272,2.884,1.272,2.884L179.451,155.037z"/>
			<path opacity="0.1" fill="#FFFFFF" enable-background="new    " d="M194.135,153.423v0.461l-0.577,0.22l-1.179-0.22
				c0,0-0.252-1.889,0.714-2.427C193.575,152.028,194.033,152.715,194.135,153.423z"/>
			<path opacity="0.1" enable-background="new    " d="M194.135,153.445v0.9c0,0-15.042,1.037-16.648,1.037h-0.013
				c-0.832-0.442-1.663-0.638-2.362-0.345c-0.213,0.088-0.413,0.204-0.595,0.345c-0.054,0.042-0.104,0.086-0.153,0.13
				c-0.221,0.201-0.411,0.433-0.566,0.688c-1.036,1.67-0.814,4.256-0.814,4.256c-3.007,0.922-6.128-1.498-6.128-1.498
				c-0.566-1.695-1.095-2.8-1.579-3.53c-0.443-0.662-0.845-0.986-1.204-1.145l-1.044-0.971l0.051-0.551l8.391,6.084
				c0,0,0.809-5.189,2.654-4.842c1.845,0.346,5.55,0.346,5.55,0.346L194.135,153.445z"/>
			<path fill="#FF825C" d="M162.571,152.729c0,0-0.694,1.73,0,1.847c0.695,0.117,2.255-1.324,4.279,4.728
				c0,0,3.121,2.426,6.127,1.498c0,0-0.358-4.382,2.135-5.421s6.651,4.152,6.651,4.152v1.154l9.828-1.039
				c0,0,3.007-2.306,2.892-5.879l-14.799,0.922c0,0-3.701,0-5.55-0.347c-1.849-0.346-2.655,4.854-2.655,4.854L162.571,152.729z"/>
			<path fill="#192534" d="M120.951,121.193h-0.002c-3.416,0-6.185,2.762-6.185,6.169v0.002c0,3.407,2.769,6.168,6.185,6.168h0.002
				c3.416,0,6.185-2.761,6.185-6.168v-0.002C127.136,123.955,124.367,121.193,120.951,121.193z"/>
			<path fill="#3F3D56" d="M117.711,143.239c0.829-0.726,1.672-1.465,2.269-2.389c0.549-0.847,0.872-1.816,1.175-2.778
				c0.866-2.749,1.611-5.532,2.236-8.35c-3.404-0.518-5.946-3.517-9.275-4.397c-0.079-0.022-2.625,15.236-2.811,16.63
				c-0.153,1.152-1.471,6.651,0.031,6.682c0.803,0.018,2.479-1.985,3.072-2.513L117.711,143.239z"/>
			<path fill="#393944" d="M117.711,143.239c0.829-0.726,1.672-1.465,2.269-2.389c0.549-0.847,0.872-1.816,1.175-2.778
				c0.866-2.749,1.611-5.532,2.236-8.35c-3.404-0.518-5.946-3.517-9.275-4.397c-0.079-0.022-2.625,15.236-2.811,16.63
				c-0.153,1.152-1.471,6.651,0.031,6.682c0.803,0.018,2.479-1.985,3.072-2.513L117.711,143.239z"/>
			<path fill="#393944" d="M75.64,104.742c-0.376,0.057-0.774,0.086-1.084,0.304c-0.442,0.309-0.555,0.883-0.765,1.382
				c-0.276,0.639-0.743,1.179-1.338,1.544c-0.507,0.309-1.124,0.516-1.427,1.023c-0.171,0.342-0.253,0.722-0.237,1.103
				c-0.04,1.131,0.011,2.263,0.153,3.385c0.071,0.562,0.164,1.136,0.047,1.69c-0.135,0.646-0.542,1.195-0.929,1.731
				c-0.929,1.282-1.838,2.69-1.913,4.269c-0.038,0.794,0.139,1.608-0.062,2.378c-0.356,1.366-1.807,2.257-2.09,3.638
				c-0.084,0.408-0.062,0.841-0.221,1.222c-0.279,0.662-1.046,1.024-1.243,1.706c-0.148,0.512,0.069,1.052,0.084,1.584
				c0.022,0.779-0.387,1.498-0.781,2.168l-2.303,3.905c-0.748,1.267-1.513,2.59-1.639,4.055c-0.113,1.299,0.292,2.586,0.737,3.812
				c0.989,2.725,2.458,5.61,5.167,6.658c1.595,0.618,3.371,0.486,5.077,0.344c2.336-0.191,4.687-0.388,6.941-1.025
				c1.117-0.316,2.212-0.737,3.34-0.962c0.752-0.148,1.524-0.221,2.25-0.461c0.784-0.281,1.478-0.768,2.009-1.408
				c0.531-0.641,0.879-1.412,1.009-2.232c0.965,0.379,1.858-0.883,1.721-1.907c-0.137-1.023-0.827-1.89-1.106-2.883
				c-0.398-1.37,0-2.857,0.664-4.119c0.664-1.262,1.579-2.378,2.303-3.607c0.806-1.375,1.366-2.88,1.655-4.447
				c0.387-2.116,0.27-4.289,0.15-6.435l-0.456-8.205c-0.084-1.502-0.179-3.053-0.843-4.412c-0.728-1.481-2.055-2.566-3.38-3.552
				c-1.955-1.484-4.006-2.838-6.138-4.055c-1.376-0.768-1.279-0.47-2.374,0.441C77.767,104.092,76.738,104.565,75.64,104.742z"/>
			<path fill="#393944" d="M94.234,127.569c-1.564,1.231-3.148,2.479-4.351,4.063c-1.453,1.926-2.278,4.252-2.363,6.661
				c-0.014,1.127,0.065,2.254,0.237,3.368c0.237,1.821,0.664,3.848,2.201,4.854c0.969,0.633,2.301,0.792,2.962,1.741
				c0.208,0.297,0.33,0.661,0.573,0.924c0.442,0.476,1.133,0.58,1.77,0.615c0.952,0.054,1.907,0.024,2.854-0.088
				c1.082-0.13,2.182-0.366,3.252-0.163c2.084,0.39,3.639,2.352,5.752,2.614c1.754,0.221,3.397-0.796,4.866-1.765
				c1.515-0.999,3.097-2.069,3.918-3.686c0.798-1.571,0.754-3.42,0.692-5.182c-0.069-1.957-0.139-3.938-0.664-5.827
				c-0.163-0.494-0.288-1-0.373-1.513c-0.158-1.324,0.442-2.625,0.884-3.892c0.688-1.926,0.989-4.299-0.378-5.822
				c-0.577-0.644-1.38-1.041-2.194-1.323c-3.595-1.289-7.563-0.799-11.251-0.221C99.101,123.459,96.995,125.4,94.234,127.569z"/>
			<path fill="#FECEB8" d="M124.716,119.945c-1.424,2.133-2.853,4.282-3.882,6.618c-0.702,1.696-1.293,3.435-1.77,5.207
				c-1.42,4.895-2.829,9.896-5.665,14.134c-0.407,0.609-0.858,1.242-0.9,1.972c-0.04,0.684,0.287,1.324,0.604,1.933
				c0.663,1.288,1.358,2.59,2.305,3.697c0.947,1.108,2.079,1.946,3.221,2.802c2.369,1.765,5.001,3.636,7.963,3.503
				c0.613-0.028,1.267-0.169,1.677-0.626c0.409-0.457,0.466-1.088,0.393-1.674c-0.221-1.816-1.592-3.243-2.835-4.589
				c-1.244-1.346-2.493-2.919-2.394-4.754c0.078-1.516,1.073-2.809,2.026-3.991c1.091-1.355,2.184-2.707,3.212-4.108
				c4.449-6.056,7.661-12.941,10.207-20.007c1.073-2.983,2.048-6.116,1.714-9.266c-2.433-0.596-7.3-2.586-9.355-0.532
				c-1.245,1.245-2.125,3.089-3.097,4.556L124.716,119.945z"/>
			<path fill="#AFADBC" d="M145.262,99.231c-1.542,2.681-2.748,5.541-3.592,8.515c-0.206,0.72-0.39,1.479-0.233,2.207
				c0.171,0.78,0.704,1.422,1.106,2.111c0.403,0.688,0.686,1.56,0.321,2.27c-1.725,0.134-3.435-0.335-5.103-0.801l-5.229-1.456
				c-0.434-0.083-0.84-0.271-1.184-0.547c-0.606-0.571-0.56-1.531-0.442-2.352c1.024-6.72,4.313-12.914,5.545-19.597
				c0.179-0.964,0.368-2.032,1.137-2.647c2.212-1.743,7.22-0.267,8.366,2.257C147.235,91.993,146.711,96.714,145.262,99.231z"/>
			<path fill="#FECEB8" d="M117.268,76.266c-0.197,0.101-0.418,0.221-0.478,0.428c-0.013,0.113-0.001,0.227,0.035,0.335
				s0.095,0.206,0.173,0.289l2.232,3.133c2.201,3.089,4.407,6.197,6.953,9.014c1.922,2.125,4.027,4.079,6.291,5.837
				c0.637,0.494,1.316,1.008,1.628,1.752c-1.391-4.108-1.144-8.593,0.69-12.524c0.73-1.544,1.695-2.976,2.453-4.511
				c0.072-0.084,0.121-0.186,0.141-0.294c0.021-0.108,0.013-0.221-0.022-0.325c-0.035-0.105-0.097-0.198-0.18-0.272
				c-0.082-0.074-0.182-0.125-0.29-0.149c-1.934-0.993-4.048-1.593-5.973-2.603c-1.511-0.794-2.876-1.827-4.232-2.844
				c-1.21-0.907-2.82-2.508-4.313-2.89c-1.613-0.415-1.549,1.052-2.068,2.277C119.71,74.348,118.637,75.53,117.268,76.266z"/>
			<path opacity="0.1" enable-background="new    " d="M117.268,76.266c-0.197,0.101-0.418,0.221-0.478,0.428
				c-0.013,0.113-0.001,0.227,0.035,0.335s0.095,0.206,0.173,0.289l2.232,3.133c2.201,3.089,4.407,6.197,6.953,9.014
				c1.922,2.125,4.027,4.079,6.291,5.837c0.637,0.494,1.316,1.008,1.628,1.752c-1.391-4.108-1.144-8.593,0.69-12.524
				c0.73-1.544,1.695-2.976,2.453-4.511c0.072-0.084,0.121-0.186,0.141-0.294c0.021-0.108,0.013-0.221-0.022-0.325
				c-0.035-0.105-0.097-0.198-0.18-0.272c-0.082-0.074-0.182-0.125-0.29-0.149c-1.934-0.993-4.048-1.593-5.973-2.603
				c-1.511-0.794-2.876-1.827-4.232-2.844c-1.21-0.907-2.82-2.508-4.313-2.89c-1.613-0.415-1.549,1.052-2.068,2.277
				C119.71,74.348,118.637,75.53,117.268,76.266z"/>
			<path fill="#AFADBC" d="M130.954,88.75c-1.011-1.138-2.375-1.891-3.572-2.835c-1.721-1.359-3.082-3.111-4.395-4.865
				c-2.412-3.228-4.843-7.181-3.642-11.031c-1.276-0.123-2.378,0.922-2.979,2.049c-0.602,1.127-0.912,2.411-1.661,3.446
				c-1.14,1.573-3.077,2.305-4.882,3.025c-3.968,1.583-7.802,3.483-11.463,5.681c-1.471,0.882-2.935,1.829-4.059,3.122
				c-1.203,1.379-1.958,3.089-2.98,4.6c-1.991,2.972-5.017,5.202-8.375,6.464c-1.106,0.419-2.292,0.746-3.281,1.412
				c-2.119,1.427-3.002,4.273-2.5,6.775c0.502,2.501,2.212,4.633,4.267,6.146s4.395,2.407,6.767,3.289
				c1.988,0.728,3.988,1.423,6.001,2.083c1.481,0.511,2.996,0.921,4.533,1.226c2.83,0.519,5.739,0.391,8.599,0.706
				c2.614,0.287,5.183,0.947,7.808,1.13c2.626,0.183,5.407-0.166,7.546-1.69c1.701-1.211,2.833-3.04,3.88-4.853
				c2.716-4.676,5.142-9.514,7.264-14.486c0.626-1.471,6.435-9.806,4.988-10.882c-7.284-5.42-4.866,3.192-5.561,2.53
				C132.328,90.905,131.795,89.696,130.954,88.75z"/>
			<path fill="#454554" d="M121.931,83.764c-1.564-3.137-2.621-6.495-3.672-9.835c-0.29-0.927-0.582-1.928-0.27-2.846
				c0.376-1.103,1.58-2.045,1.226-3.15c-2.814,0.882-6.081,2.266-6.636,5.158c-0.122,0.631-0.1,1.304-0.394,1.873
				c-0.573,1.116-2.033,1.355-3.274,1.544c-3.61,0.576-7.198,2.027-9.671,4.712c-0.416,0.441-0.807,0.942-1.327,1.273
				c-0.376,0.221-0.776,0.399-1.192,0.53c-2.42,0.867-4.909,1.948-6.466,3.989c-0.803,1.05-1.316,2.31-2.212,3.285
				c-1.212,1.324-2.997,1.986-4.309,3.219c-0.885,0.821-1.515,1.862-2.099,2.914c-2.248,4.05-3.896,8.8-2.703,13.276
				c0.622,2.341,1.991,4.426,2.728,6.734c1.015,3.143,0.916,6.728,2.82,9.431c1.201,1.698,3.059,2.821,4.962,3.668
				c4.233,1.879,8.883,2.625,13.493,2.167c1.71-0.198,3.408-0.484,5.088-0.856c4.01-0.825,8.063-1.723,11.706-3.589
				c6.214-3.184,10.684-8.873,14.954-14.389c0.811-1.05,1.63-2.109,2.212-3.309c0.568-1.145,0.911-2.385,1.294-3.603
				c1.294-4.105,3.114-8.193,2.944-12.491c0.007-0.515-0.095-1.025-0.299-1.498c-0.172-0.353-0.442-0.662-0.595-1.017
				c-0.27-0.635-0.148-1.37-0.338-2.034c-0.529-1.853-2.971-2.206-4.904-2.191l-0.62,10.874c-0.095,1.632-0.27,3.443-1.488,4.538
				c-0.522,0.447-1.173,0.717-1.858,0.771c-0.686,0.053-1.371-0.113-1.956-0.473c-1.301-0.841-1.484-2.308-1.475-3.713
				c0.013-1.765-0.131-3.382-0.695-5.074C125.736,90.142,123.573,87.062,121.931,83.764z"/>
			<path fill="#FECEB8" d="M122.701,114.751c7.702,3.894,15.449,7.816,22.342,13.001c1.592,1.196,3.141,2.462,4.824,3.53
				c4.825,3.057,10.811,4.546,14.533,8.87c0.784,0.907,1.447,1.926,2.35,2.712c0.783,0.641,1.658,1.162,2.597,1.544
				c2.991,1.316,6.229,1.979,9.498,1.944c0.856-0.011,1.737-0.075,2.507-0.442c2.072-1.001,2.543-3.684,2.754-5.972
				c0.07-0.774,0.086-1.687-0.525-2.168c-0.329-0.258-0.765-0.324-1.179-0.388c-6.727-1.059-12.934-4.289-18.555-8.126
				c-5.62-3.836-10.772-8.314-16.316-12.261c-1.949-1.388-3.944-2.709-5.939-4.031l-6.457-4.275
				c-3.416-2.261-7.012-4.591-11.091-5.017c-0.232-0.04-0.471-0.024-0.695,0.046c-0.358,0.139-0.557,0.51-0.732,0.85
				c-1.197,2.325-2.655,4.436-4.121,6.589c-0.786,1.152-0.874,1.45,0.48,2.065C120.195,113.778,121.486,114.138,122.701,114.751z"/>
			<path d="M137.836,179c0.088,0,0.173-0.035,0.235-0.097s0.097-0.146,0.097-0.234s-0.035-0.172-0.097-0.234
				s-0.147-0.097-0.235-0.097s-0.172,0.035-0.234,0.097c-0.063,0.062-0.098,0.146-0.098,0.234s0.035,0.172,0.098,0.234
				C137.664,178.965,137.748,179,137.836,179z"/>
			<path fill="#FECEB8" d="M140.256,91.157c11.686,0,21.158-9.448,21.158-21.102s-9.472-21.102-21.158-21.102
				c-11.685,0-21.158,9.447-21.158,21.102C119.098,81.71,128.571,91.157,140.256,91.157z"/>
			<path fill="#393944" d="M123.626,78.284c0.376-1.895,2.557-2.853,4.488-2.98c1.954-0.105,3.901,0.306,5.646,1.19
				c1.744,0.885,3.224,2.212,4.29,3.848c0.448-1.183,0.749-2.416,0.898-3.671l3.54,0.262c0.395,0.061,0.799,0.025,1.177-0.106
				c0.455-0.203,0.736-0.662,0.973-1.103c1.548-2.883,2.584-6.422,5.49-7.942v3.971c0.796-0.155,1.546-0.489,2.191-0.979
				c0.646-0.489,1.17-1.12,1.532-1.843c0.2,1.099,0.517,2.174,0.947,3.205c0.071,0.172,0.17,0.362,0.349,0.406
				c0.088,0.006,0.176-0.006,0.258-0.036s0.158-0.077,0.22-0.138c1.356-1.026,2.582-2.211,3.652-3.53l4.203,7.267
				c2.429-6.115,2.561-12.9,0.374-19.105c-2.187-6.205-6.548-11.414-12.279-14.669c-0.972-0.558-1.986-1.04-3.033-1.441
				c-2.736-1.028-5.685-1.357-8.603-1.555c-4.147-0.282-8.525-0.271-12.166,1.712c-1.958,1.066-3.583,2.636-5.154,4.216
				c-2.124,2.131-4.247,4.384-5.378,7.17c-0.78,1.924-1.048,4.009-1.285,6.069c-0.144,1.247-0.276,2.535,0.08,3.737
				c0.248,0.832,0.714,1.58,1.029,2.389c0.522,1.346,0.603,2.815,0.805,4.245c0.446,3.159,1.481,6.207,3.05,8.988
				c0.332,0.589,0.757,1.216,1.418,1.366c0.661,0.15,1.456-0.578,1.106-1.152"/>
			<path fill="none" stroke="#393944" stroke-miterlimit="10" d="M123.626,78.284c0.376-1.895,2.557-2.853,4.488-2.98
				c1.954-0.105,3.901,0.306,5.646,1.19c1.744,0.885,3.224,2.212,4.29,3.848c0.448-1.183,0.749-2.416,0.898-3.671l3.54,0.262
				c0.395,0.061,0.799,0.025,1.177-0.106c0.455-0.203,0.736-0.662,0.973-1.103c1.548-2.883,2.584-6.422,5.49-7.942v3.971
				c0.796-0.155,1.546-0.489,2.191-0.979c0.646-0.489,1.17-1.12,1.532-1.843c0.2,1.099,0.517,2.174,0.947,3.205
				c0.071,0.172,0.17,0.362,0.349,0.406c0.088,0.006,0.176-0.006,0.258-0.036s0.158-0.077,0.22-0.138
				c1.356-1.026,2.582-2.211,3.652-3.53l4.203,7.267c2.429-6.115,2.561-12.9,0.374-19.105c-2.187-6.205-6.548-11.414-12.279-14.669
				c-0.972-0.558-1.986-1.04-3.033-1.441c-2.736-1.028-5.685-1.357-8.603-1.555c-4.147-0.282-8.525-0.271-12.166,1.712
				c-1.958,1.066-3.583,2.636-5.154,4.216c-2.124,2.131-4.247,4.384-5.378,7.17c-0.78,1.924-1.048,4.009-1.285,6.069
				c-0.144,1.247-0.276,2.535,0.08,3.737c0.248,0.832,0.714,1.58,1.029,2.389c0.522,1.346,0.603,2.815,0.805,4.245
				c0.446,3.159,1.481,6.207,3.05,8.988c0.332,0.589,0.757,1.216,1.418,1.366c0.661,0.15,1.456-0.578,1.106-1.152"/>
			<path fill="#AFADBC" d="M99.342,98.536c0.854,2.341,2.999,3.929,5.035,5.377l5.309,3.777c1.411,1.003,2.86,2.045,3.778,3.509
				c-1.343,0.508-1.956,2.229-1.516,3.592c0.441,1.363,1.704,2.341,3.08,2.782c1.376,0.441,2.836,0.426,4.271,0.344
				c1.648-0.09,3.374-0.289,4.734-1.222l-2.989-1.836c-0.787-0.487-1.692-1.264-1.404-2.14l3.152-0.03
				c0.332,0,0.692-0.016,0.956-0.221c0.263-0.205,0.354-0.521,0.464-0.821c0.469-1.213,1.269-2.271,2.31-3.054
				c1.04-0.783,2.28-1.259,3.579-1.376c0.778-0.057,1.674-0.024,2.212-0.602c0.349-0.384,0.424-0.935,0.486-1.449
				c0.118-0.98,0.233-1.986,0.038-2.945c-0.195-0.96-0.757-1.913-1.659-2.317c-0.664-0.3-1.431-0.271-2.157-0.368
				c-3.338-0.441-5.652-3.459-7.443-6.303c-1.792-2.844-3.714-5.99-6.909-7.049c-0.997-0.298-2.031-0.456-3.072-0.47
				c-2.303-0.095-4.674,0.093-6.771,1.046C100.917,88.536,97.82,94.371,99.342,98.536z"/>
			<path fill="#393944" d="M163.501,72.18l-4.203-7.267c-1.07,1.319-2.297,2.505-3.653,3.53c-0.062,0.062-0.137,0.11-0.219,0.14
				c-0.083,0.03-0.171,0.043-0.258,0.036c-0.179-0.044-0.279-0.234-0.35-0.406c-0.43-1.032-0.747-2.108-0.947-3.208
				c-0.362,0.724-0.885,1.355-1.531,1.845c-0.646,0.49-1.395,0.825-2.191,0.979v-3.971c-2.907,1.525-3.934,5.063-5.491,7.942
				c-0.237,0.441-0.517,0.893-0.973,1.103c-0.378,0.131-0.782,0.167-1.177,0.106l-3.539-0.262c-0.149,1.255-0.451,2.488-0.898,3.671
				c-1.067-1.636-2.547-2.964-4.291-3.848c-1.745-0.885-3.692-1.295-5.646-1.19c-1.931,0.128-4.112,1.085-4.488,2.98l-0.188-0.207
				c0.356,0.576-0.443,1.304-1.106,1.154c-0.664-0.15-1.086-0.777-1.418-1.366c-1.565-2.783-2.595-5.834-3.037-8.994
				c-0.202-1.429-0.284-2.899-0.806-4.244c-0.314-0.81-0.78-1.557-1.028-2.389c0-0.029-0.016-0.055-0.022-0.084
				c-0.02,0.166-0.04,0.331-0.058,0.496c-0.144,1.249-0.276,2.535,0.08,3.75c0.248,0.832,0.714,1.58,1.028,2.387
				c0.522,1.348,0.604,2.815,0.806,4.247c0.441,3.16,1.471,6.21,3.037,8.992c0.332,0.589,0.756,1.218,1.418,1.368
				c0.661,0.15,1.455-0.578,1.106-1.154l0.188,0.205c0.376-1.893,2.557-2.853,4.488-2.978c1.954-0.106,3.901,0.304,5.646,1.188
				c1.744,0.884,3.224,2.212,4.291,3.848c0.447-1.182,0.749-2.414,0.898-3.669l3.539,0.26c0.395,0.062,0.799,0.025,1.177-0.106
				c0.456-0.203,0.736-0.662,0.973-1.103c1.549-2.886,2.584-6.422,5.491-7.942v3.971c0.796-0.155,1.545-0.49,2.191-0.979
				c0.646-0.49,1.169-1.121,1.531-1.845c0.2,1.1,0.518,2.175,0.947,3.208c0.071,0.17,0.171,0.362,0.35,0.404
				c0.087,0.007,0.175-0.004,0.258-0.035c0.082-0.03,0.157-0.078,0.219-0.14c1.356-1.025,2.583-2.211,3.653-3.53l4.203,7.267
				c1.515-3.856,2.139-8.004,1.825-12.134C165.122,66.941,164.507,69.629,163.501,72.18z"/>
		</g>
	</g>
</g>
</svg>
