<svg width="305" height="258" viewBox="0 0 305 258" fill="none" xmlns="http://www.w3.org/2000/svg">
<g clip-path="url(#clip0)">
<path d="M33.7013 245.832C33.7013 253.956 28.8862 256.792 22.9459 256.792C22.8083 256.792 22.6709 256.791 22.5337 256.788C22.2585 256.782 21.9859 256.769 21.7165 256.75C16.3555 256.37 12.1904 253.387 12.1904 245.832C12.1904 238.012 22.153 228.146 22.9013 227.415L22.9026 227.414C22.9315 227.386 22.9459 227.372 22.9459 227.372C22.9459 227.372 33.7013 237.707 33.7013 245.832Z" fill="#FFAD72" fill-opacity="0.79"/>
<path d="M22.5545 255.55L26.4882 250.037L22.5446 256.155L22.5342 256.788C22.2589 256.782 21.9863 256.769 21.717 256.75L22.141 248.622L22.1377 248.559L22.1449 248.547L22.1849 247.78L18.2314 241.646L22.1973 247.204L22.2065 247.367L22.5269 241.226L19.1423 234.888L22.5682 240.148L22.9018 227.415L22.9031 227.372V227.414L22.8474 237.454L26.2169 233.474L22.8336 238.319L22.7445 243.818L25.8906 238.541L22.7314 244.627L22.6816 247.684L27.249 240.339L22.6646 248.75L22.5545 255.55Z" fill="#80A6DC" fill-opacity="0.35"/>
<path d="M264.288 142.604C264.288 206.307 235.45 256.561 199.937 257.949C153.625 259.758 93.0968 213.443 135.585 142.604C168.326 88.0165 164.397 27.2588 199.937 27.2588C235.477 27.2588 264.288 78.9005 264.288 142.604Z" fill="#F2F2F2"/>
<path d="M226.928 176.47H135.173V256.389H226.928V176.47Z" fill="#CCCED0"/>
<path d="M0 256.389H305" stroke="#80A6DC" stroke-opacity="0.35" stroke-width="2" stroke-miterlimit="10"/>
<path d="M201.424 2.75866e-06C199.407 0.000177752 197.451 0.696525 195.886 1.97208C194.32 3.24764 193.24 5.02471 192.826 7.00482C192.413 8.98492 192.691 11.0474 193.615 12.8459C194.538 14.6444 196.051 16.0694 197.899 16.8814C197.862 16.2037 197.913 15.5241 198.051 14.8598C198.22 14.1439 199.181 10.0573 199.181 10.0573C198.989 9.61862 198.893 9.14391 198.898 8.66492C198.898 7.35908 199.651 6.38364 200.593 6.38364C201.393 6.38364 201.777 6.98543 201.777 7.70521C201.777 8.51154 201.263 9.71509 201 10.8321C200.948 11.0391 200.945 11.2554 200.991 11.4638C201.038 11.6722 201.132 11.8667 201.267 12.0317C201.402 12.1966 201.574 12.3275 201.769 12.4136C201.964 12.4997 202.176 12.5386 202.389 12.5273C204.051 12.5273 205.173 10.3837 205.173 7.84287C205.173 5.91166 203.875 4.46816 201.518 4.46816C200.954 4.44593 200.391 4.539 199.864 4.7417C199.337 4.94441 198.857 5.25251 198.452 5.64728C198.048 6.04205 197.727 6.51523 197.511 7.03805C197.294 7.56088 197.186 8.12241 197.193 8.68852C197.166 9.31627 197.373 9.93147 197.773 10.4152C197.843 10.4733 197.893 10.5522 197.916 10.6405C197.938 10.7289 197.932 10.8221 197.899 10.9069C197.855 11.0681 197.761 11.4575 197.718 11.6148C197.711 11.6624 197.692 11.7075 197.664 11.7464C197.635 11.7852 197.598 11.8167 197.555 11.8383C197.512 11.8598 197.465 11.8708 197.417 11.8702C197.369 11.8697 197.321 11.8576 197.279 11.8351C196.051 11.3316 195.479 9.98648 195.479 8.46825C195.479 5.96671 197.585 2.96566 201.757 2.96566C205.11 2.96566 207.318 5.40033 207.318 8.012C207.318 11.4693 205.401 14.0495 202.577 14.0495C201.628 14.0495 200.738 13.5343 200.432 12.9521C200.432 12.9521 199.922 14.9817 199.812 15.375C199.609 16.0433 199.312 16.6791 198.93 17.263C200.138 17.6209 201.409 17.714 202.656 17.536C203.903 17.358 205.098 16.9131 206.159 16.2314C207.219 15.5498 208.121 14.6473 208.804 13.5851C209.486 12.523 209.933 11.3261 210.114 10.0757C210.294 8.82518 210.205 7.55035 209.851 6.33765C209.497 5.12494 208.888 4.00271 208.063 3.04708C207.239 2.09145 206.22 1.32476 205.074 0.79902C203.929 0.273278 202.684 0.000778565 201.424 0L201.424 2.75866e-06Z" fill="#80A6DC" fill-opacity="0.35"/>
<path d="M288.148 63.7193C287.455 64.0268 286.721 64.2296 285.968 64.3211C286.762 63.845 287.355 63.0957 287.639 62.2129C286.894 62.6577 286.078 62.9704 285.227 63.1372C284.707 62.5788 284.031 62.1905 283.287 62.0226C282.544 61.8548 281.767 61.9153 281.059 62.1962C280.35 62.4771 279.742 62.9654 279.314 63.5977C278.886 64.2299 278.657 64.9767 278.658 65.741C278.657 66.0336 278.69 66.3253 278.756 66.6102C277.246 66.5352 275.768 66.1416 274.419 65.455C273.07 64.7685 271.881 63.8045 270.929 62.6259C270.443 63.4656 270.295 64.4595 270.514 65.4051C270.733 66.3508 271.304 67.177 272.109 67.7155C271.504 67.7005 270.912 67.5371 270.384 67.2395V67.2867C270.384 68.1666 270.687 69.0195 271.242 69.7005C271.798 70.3816 272.571 70.849 273.431 71.0233C273.105 71.112 272.769 71.157 272.431 71.157C272.191 71.1575 271.952 71.1337 271.717 71.0862C271.96 71.8435 272.432 72.5058 273.068 72.9805C273.705 73.4551 274.473 73.7183 275.266 73.7333C273.921 74.7936 272.259 75.3687 270.548 75.3656C270.246 75.3651 269.943 75.3468 269.643 75.3105C271.372 76.4392 273.391 77.0378 275.454 77.0333C282.447 77.0333 286.266 71.2239 286.266 66.1855C286.266 66.0203 286.262 65.8551 286.254 65.6938C286.998 65.1537 287.639 64.4851 288.148 63.7193Z" fill="#80A6DC" fill-opacity="0.35"/>
<path d="M142.014 11.2148H128.618C128.397 11.215 128.186 11.3028 128.03 11.4592C127.874 11.6155 127.786 11.8276 127.786 12.0487V25.4846C127.786 25.7057 127.874 25.9178 128.03 26.0741C128.186 26.2305 128.397 26.3183 128.618 26.3185H135.316V20.3399H133.516V18.1373H135.316V16.509C135.316 14.5581 136.665 13.4961 138.402 13.4961C139.233 13.4961 140.127 13.559 140.335 13.5866V15.624H138.951C138.006 15.624 137.825 16.0724 137.825 16.7332V18.1373H140.076L139.782 20.3399H137.825V26.3185H142.014C142.234 26.3183 142.446 26.2305 142.601 26.0741C142.757 25.9178 142.845 25.7057 142.845 25.4846V12.0487C142.845 11.8276 142.757 11.6155 142.601 11.4592C142.446 11.3028 142.234 11.2149 142.014 11.2148Z" fill="#80A6DC" fill-opacity="0.35"/>
<path d="M143.703 67.1434C144.534 67.1458 145.331 67.4781 145.919 68.0677C146.506 68.6573 146.838 69.4562 146.84 70.29V76.5832C146.838 77.4169 146.506 78.2159 145.919 78.8054C145.331 79.395 144.534 79.7273 143.703 79.7297H137.428C136.597 79.7273 135.8 79.395 135.213 78.8054C134.625 78.2159 134.293 77.4169 134.291 76.5832V70.29C134.293 69.4562 134.625 68.6573 135.213 68.0677C135.8 67.4781 136.597 67.1458 137.428 67.1434H143.703ZM143.703 65.8848H137.428C136.264 65.8882 135.149 66.3534 134.326 67.1788C133.503 68.0042 133.04 69.1227 133.036 70.29V76.5832C133.04 77.7505 133.503 78.8689 134.326 79.6943C135.149 80.5197 136.264 80.985 137.428 80.9884H143.703C144.867 80.985 145.982 80.5197 146.805 79.6943C147.628 78.8689 148.092 77.7505 148.095 76.5832V70.29C148.092 69.1227 147.628 68.0042 146.805 67.1788C145.982 66.3534 144.867 65.8882 143.703 65.8848Z" fill="#80A6DC" fill-opacity="0.35"/>
<path d="M144.644 70.2893C144.458 70.2893 144.276 70.234 144.121 70.1302C143.966 70.0265 143.846 69.8791 143.774 69.7066C143.703 69.5341 143.685 69.3443 143.721 69.1612C143.757 68.9781 143.847 68.8099 143.978 68.6778C144.11 68.5458 144.278 68.4559 144.46 68.4195C144.643 68.3831 144.832 68.4018 145.004 68.4732C145.176 68.5447 145.323 68.6657 145.427 68.8209C145.53 68.9761 145.585 69.1586 145.585 69.3453C145.585 69.4694 145.561 69.5923 145.514 69.7069C145.467 69.8216 145.398 69.9258 145.31 70.0135C145.223 70.1012 145.119 70.1707 145.004 70.2181C144.89 70.2654 144.768 70.2896 144.644 70.2893ZM140.566 70.9186C141.062 70.9186 141.547 71.0663 141.96 71.3429C142.373 71.6195 142.694 72.0126 142.884 72.4726C143.074 72.9326 143.124 73.4387 143.027 73.927C142.93 74.4153 142.691 74.8639 142.34 75.2159C141.989 75.5679 141.542 75.8077 141.055 75.9048C140.568 76.002 140.064 75.9521 139.605 75.7616C139.146 75.571 138.754 75.2484 138.479 74.8344C138.203 74.4205 138.056 73.9338 138.056 73.4359C138.056 72.7685 138.321 72.1286 138.792 71.6566C139.262 71.1847 139.9 70.9193 140.566 70.9186ZM140.566 69.66C139.821 69.66 139.093 69.8814 138.474 70.2963C137.855 70.7112 137.372 71.301 137.087 71.9909C136.802 72.6809 136.728 73.4401 136.873 74.1726C137.018 74.905 137.377 75.5778 137.903 76.1059C138.43 76.634 139.101 76.9936 139.831 77.1393C140.561 77.285 141.318 77.2102 142.006 76.9244C142.694 76.6386 143.282 76.1546 143.696 75.5337C144.109 74.9128 144.33 74.1827 144.33 73.4359C144.33 72.4346 143.933 71.4743 143.227 70.7662C142.521 70.0582 141.564 69.6603 140.566 69.66Z" fill="#80A6DC" fill-opacity="0.35"/>
<path d="M253.289 3.80124H240.725C240.563 3.79341 240.402 3.81765 240.25 3.87257C240.097 3.92749 239.958 4.01202 239.838 4.12128C239.719 4.23055 239.622 4.36242 239.553 4.50931C239.485 4.65621 239.446 4.81524 239.438 4.97728V17.6069C239.447 17.9467 239.585 18.2702 239.825 18.5109C240.064 18.7516 240.386 18.8912 240.725 18.9009H253.286C253.616 18.8879 253.928 18.7448 254.154 18.5026C254.38 18.2604 254.502 17.9386 254.493 17.6069V4.97728C254.496 4.81943 254.466 4.66271 254.406 4.51676C254.346 4.3708 254.257 4.23869 254.145 4.12854C254.032 4.0184 253.898 3.93254 253.751 3.87625C253.604 3.81997 253.447 3.79444 253.289 3.80124ZM244.105 16.3876H241.948V9.66176H244.105V16.3876ZM243.101 8.63911H243.086C242.775 8.63702 242.478 8.51166 242.26 8.29047C242.042 8.06928 241.92 7.77031 241.921 7.45906C241.922 7.14781 242.046 6.84966 242.266 6.62994C242.485 6.41022 242.783 6.28685 243.093 6.28685C243.404 6.28685 243.701 6.41022 243.921 6.62994C244.141 6.84966 244.265 7.14781 244.266 7.45906C244.267 7.77031 244.145 8.06928 243.927 8.29047C243.708 8.51166 243.412 8.63702 243.101 8.63911ZM251.987 16.3876H249.831V12.71C249.831 11.829 249.517 11.2272 248.737 11.2272C248.493 11.2292 248.255 11.3071 248.057 11.4501C247.859 11.5931 247.71 11.7942 247.631 12.0256C247.573 12.1965 247.548 12.3765 247.556 12.5566V16.3876H245.399V9.66176H247.556V10.5979C247.752 10.2571 248.037 9.97574 248.379 9.78332C248.721 9.59091 249.109 9.49457 249.501 9.50444C250.917 9.50444 251.987 10.4406 251.987 12.4583V16.3876Z" fill="#80A6DC" fill-opacity="0.35"/>
<path d="M193.756 96.9473C193.756 96.9473 209.022 97.3636 211.543 98.2836C214.065 99.2036 215.192 105.783 215.192 105.783L203.339 109.519L194.473 109.016L187.801 109.489L191.526 99.7022L193.756 96.9473Z" fill="#2F2E41"/>
<path d="M194.414 91.9229C194.414 91.9229 195.418 95.8137 193.189 98.5687C190.96 101.324 202.772 111.141 202.772 111.141L209.004 110.067C209.004 110.067 207.63 98.1112 209.475 95.0838C211.32 92.0564 194.414 91.9229 194.414 91.9229Z" fill="#9F616A"/>
<path opacity="0.1" d="M194.414 91.9229C194.414 91.9229 195.418 95.8137 193.189 98.5687C190.96 101.324 202.772 111.141 202.772 111.141L209.004 110.067C209.004 110.067 207.63 98.1112 209.475 95.0838C211.32 92.0564 194.414 91.9229 194.414 91.9229Z" fill="black"/>
<path d="M235.858 205.684L222.108 223.971L231.491 229.466L244.406 208.274L235.858 205.684Z" fill="#9F616A"/>
<path d="M226.213 224.28C226.213 224.28 221.15 218.379 221.376 219.695C221.601 221.011 217.773 232.17 221.335 233.249C224.896 234.329 255.439 237.191 255.859 233.732C256.28 230.273 246.748 227.852 246.748 227.852C246.748 227.852 241.085 222.394 239.829 222.949C238.574 223.504 226.213 224.28 226.213 224.28Z" fill="#2F2E41"/>
<path d="M232.772 223.149L243.755 241.915L252.046 237.099L240.972 221.735L232.772 223.149Z" fill="#9F616A"/>
<path d="M250.109 178.504L246.849 183.129C246.849 183.129 231.311 204.774 232.962 206.521C234.612 208.269 241.484 214.873 244.979 213.594C248.474 212.314 260.891 190.192 260.891 190.192L257.652 177.203L250.109 178.504Z" fill="#2F2E41"/>
<path d="M183.176 174.125C183.176 174.125 186.655 180.637 195.475 182.842C204.294 185.047 213.508 189.554 213.836 189.498C214.164 189.441 215.092 188.943 215.317 190.259C215.543 191.574 217.962 193.867 217.962 193.867C217.962 193.867 227.704 227.07 231.424 227.106C235.145 227.142 242.791 224.47 242.95 223.426C243.109 222.383 231.558 188.475 231.445 187.817L230.092 179.922C230.092 179.922 245.368 182.369 246.793 182.801C248.218 183.232 260.891 190.192 260.891 190.192C260.891 190.192 273.81 180.852 261.726 171.421C249.642 161.989 228.872 155.071 228.872 155.071L221.421 152.969L214.927 152.58L213.971 148.902L198.59 149.792L182.54 156.623L183.176 174.125Z" fill="#2F2E41"/>
<path d="M203.474 99.6676C210.091 99.6676 215.455 94.2879 215.455 87.6517C215.455 81.0155 210.091 75.6357 203.474 75.6357C196.858 75.6357 191.494 81.0155 191.494 87.6517C191.494 94.2879 196.858 99.6676 203.474 99.6676Z" fill="#9F616A"/>
<path d="M192.636 97.3089L194.077 97.0605C194.077 97.0605 196.68 107.111 204.731 108.771C204.731 108.771 208.703 103.998 208.534 103.192C208.364 102.387 211.68 98.0902 213.443 100.496C215.205 102.901 213.012 145.274 214.493 146.035C215.974 146.796 219.152 147.603 216.594 150.414C214.037 153.226 203.88 157.009 201.63 155.703C199.381 154.398 194.784 143.337 192.795 139.615C190.807 135.894 187.625 123.235 187.625 123.235C187.625 123.235 183.561 109.372 186.061 106.232C188.562 103.091 192.636 97.3089 192.636 97.3089Z" fill="#D0CDE1"/>
<path d="M204.102 149.475C203.834 152.426 203.376 155.358 202.73 158.25C202.142 160.603 201.458 162.024 200.677 161.963C198.685 161.814 197.78 164.744 197.313 168.123C196.814 171.707 196.814 175.796 196.54 177.241C196.178 179.15 193.86 180.607 189.228 180.179C186.47 179.864 183.762 179.198 181.171 178.197C174.918 175.917 175.103 157.422 176.149 143.699C176.789 135.287 177.751 128.664 177.751 128.664C177.751 128.664 175.851 122.981 175.244 119.086C175.123 118.375 175.062 117.655 175.063 116.934C175.155 113.532 181.349 104.337 185.091 98.6094C188.838 92.8818 193.949 97.0836 193.949 97.0836L192.17 102.468C192.17 102.468 194.927 106.734 194.947 110.795C194.967 114.855 201.547 117.786 203.909 119.752C205.394 120.987 205.358 137.475 204.102 149.475Z" fill="#2F2E41"/>
<path d="M209.304 99.0078C209.304 99.0078 209.735 99.5196 211.712 99.2699C214.083 98.9705 217.343 99.7932 218.1 102.063C219.489 106.227 223.404 123.163 223.404 123.163C223.404 123.163 225.034 142.525 225.767 146.801C226.5 151.077 226.136 154.865 226.858 157.112C227.581 159.358 219.725 152.923 216.829 153.76C213.934 154.598 212.074 143.743 212.438 139.955C212.801 136.167 213.109 132.05 212.104 128.159C211.1 124.268 212.881 113.97 212.814 111.611C212.748 109.252 206.43 103.306 209.304 99.0078Z" fill="#2F2E41"/>
<path d="M217.781 159.185C217.781 159.185 230.465 166.125 231.679 176.005C232.893 185.884 214.713 166.439 214.713 166.439L217.781 159.185Z" fill="#9F616A"/>
<path d="M225.021 152.179C225.021 152.179 228.908 171.829 234.963 170.785C241.018 169.741 231.581 151.048 231.581 151.048L225.021 152.179Z" fill="#9F616A"/>
<path d="M245.759 237.844C245.759 237.844 242.658 241.426 241.889 240.881C241.121 240.337 239.353 247.753 240.947 249.172C242.54 250.591 248.68 252.919 248.746 255.278C248.813 257.637 265.278 257.17 265.868 254.697C266.457 252.225 263.803 246.587 261.937 245.554C260.072 244.52 253.174 235.012 253.174 235.012C253.174 235.012 247.773 235.803 245.759 237.844Z" fill="#2F2E41"/>
<path opacity="0.1" d="M215.76 171.203C212.818 169.12 204.605 168.603 197.313 168.123C194.113 167.917 191.091 167.715 188.769 167.388C186.531 167.078 184.519 165.027 182.732 161.972C180.024 157.342 177.835 150.4 176.149 143.699C176.789 135.288 177.75 128.664 177.75 128.664C177.75 128.664 175.851 122.981 175.243 119.086C175.672 118.488 176.223 117.99 176.861 117.625C184.596 114.295 191.98 147.066 192.918 152.208C192.934 152.293 192.946 152.373 192.958 152.442C193.413 155.09 198.327 157.354 202.729 158.25C205.442 158.803 207.965 158.839 209.128 158.121C212.183 156.24 221.575 163.768 222.288 163.982C223 164.2 219.986 174.202 215.76 171.203Z" fill="black"/>
<path d="M176.862 115.607C176.862 115.607 171.24 118.27 173.71 130.714C176.18 143.157 181.157 164.313 188.767 165.372C196.377 166.431 211.53 166.189 215.758 169.185C219.986 172.182 222.999 162.18 222.287 161.964C221.575 161.748 212.181 154.223 209.127 156.104C206.073 157.986 193.691 154.701 192.959 150.425C192.226 146.149 184.723 112.22 176.862 115.607Z" fill="#2F2E41"/>
<path d="M217.373 109.64L223.551 124.019C223.551 124.019 224.174 123.707 224.896 125.954C225.619 128.2 225.957 130.173 227.223 131.649C228.488 133.124 234.121 154.166 234.29 155.153C234.459 156.14 226.511 159.542 224.735 156.8C222.959 154.059 217.373 109.64 217.373 109.64Z" fill="#2F2E41"/>
<path d="M196.658 87.4838C197.118 87.3609 197.185 86.7494 197.2 86.2731C197.283 83.722 198.814 81.1043 201.249 80.3616C202.183 80.1046 203.162 80.0506 204.118 80.2032C205.484 80.3857 206.803 80.8269 208.004 81.5034C208.638 81.861 209.26 82.2916 209.979 82.4008C210.455 82.473 212.511 83.0728 212.984 83.1572C214.024 83.3428 214.991 84.276 215.989 83.9287C216.944 83.5965 217.155 82.3566 217.178 81.3433C217.231 79.0348 215.483 75.8397 213.944 74.1223C212.776 72.819 211.018 72.2174 209.299 71.9046C207.291 71.581 205.256 71.4568 203.223 71.5339C200.472 71.5831 197.645 71.7961 195.164 72.99C192.683 74.1839 190.599 76.5601 190.48 79.3172C190.456 79.8916 190.515 80.4683 190.467 81.0411C190.349 82.4386 189.609 83.7008 189.262 85.0593C189.014 86.0561 188.977 87.094 189.153 88.1061C189.33 89.1181 189.716 90.0819 190.286 90.9352C191.207 92.2941 192.654 93.5232 192.6 95.1653L194.597 93.0909C194.895 92.8626 195.106 92.5386 195.195 92.173C195.283 91.8074 195.245 91.4223 195.084 91.0821L194.378 88.3177C194.196 87.8242 194.175 87.2858 194.317 86.7793C195.074 84.902 195.893 87.6888 196.658 87.4838Z" fill="#2F2E41"/>
<path d="M105.479 169.558C105.479 207.868 82.7722 221.244 54.7619 221.244C26.7517 221.244 4.04492 207.868 4.04492 169.558C4.04492 131.249 54.7619 82.5137 54.7619 82.5137C54.7619 82.5137 105.479 131.249 105.479 169.558Z" fill="#F2F2F2"/>
<path d="M52.9153 215.383L53.4348 183.322L75.0514 143.658L53.5163 178.293L53.7495 163.876L68.648 135.18L53.8115 160.062L54.2315 134.134L70.1849 111.287L54.2975 130.056L54.5599 82.5137L52.911 145.451L53.0462 142.855L36.8264 117.954L52.7862 147.839L51.275 176.797L51.2299 176.028L32.5312 149.823L51.1733 178.743L50.9844 182.365L50.9505 182.419L50.966 182.716L47.1316 256.183H52.2545L52.8691 218.236L71.4654 189.387L52.9153 215.383Z" fill="#80A6DC" fill-opacity="0.35"/>
</g>
<defs>
<clipPath id="clip0">
<rect width="305" height="258" fill="white"/>
</clipPath>
</defs>
</svg>
