<svg width="487" height="484" viewBox="0 0 487 484" fill="none" xmlns="http://www.w3.org/2000/svg">
<g clip-path="url(#clip0)">
<path d="M279.302 266.191H229.893V484H279.302V266.191Z" fill="url(#paint0_linear)"/>
<path d="M276.05 266.191H234.441V480.103H276.05V266.191Z" fill="#ECEFF1"/>
<path d="M394.248 96.4922H171.725C164.076 96.6874 156.538 98.3673 149.53 101.439C126.91 111.464 113.744 127.2 110.026 162.097V242.721L51.0624 242.097C39.2046 242.097 34.8691 260.74 34.8691 273.342H433.168V137.85C433.168 115.01 415.766 96.4922 394.248 96.4922Z" fill="url(#paint1_linear)"/>
<path d="M179.826 104.944H400.304C407.467 104.944 414.337 107.79 419.402 112.855C424.468 117.921 427.313 124.79 427.313 131.954V266.191H179.826V104.944Z" fill="#CCCED0"/>
<path d="M174.614 104.944C190.478 104.944 205.692 111.246 216.909 122.464C228.126 133.681 234.428 148.896 234.428 164.76V236.918C234.428 244.682 231.344 252.128 225.854 257.617C220.364 263.107 212.919 266.191 205.155 266.191H144.073C136.31 266.191 128.864 263.107 123.375 257.617C117.885 252.128 114.801 244.682 114.801 236.918V164.76C114.801 148.896 121.103 133.681 132.32 122.464C143.537 111.246 158.751 104.944 174.614 104.944Z" fill="#CCCED0"/>
<path opacity="0.2" d="M174.614 104.944C190.478 104.944 205.692 111.246 216.909 122.464C228.126 133.681 234.428 148.896 234.428 164.76V236.918C234.428 244.682 231.344 252.128 225.854 257.617C220.364 263.107 212.919 266.191 205.155 266.191H144.073C136.31 266.191 128.864 263.107 123.375 257.617C117.885 252.128 114.801 244.682 114.801 236.918V164.76C114.801 148.896 121.103 133.681 132.32 122.464C143.537 111.246 158.751 104.944 174.614 104.944Z" fill="black"/>
<path d="M333.918 83.4922H303.038H284.508V120.215V165.41H306.935V120.215H333.918V83.4922Z" fill="url(#paint2_linear)"/>
<path d="M330.013 83.4922H304.007H288.404V117.301V158.91H304.007V117.301H330.013V83.4922Z" fill="#FFCC80"/>
<path d="M115.284 135.727L109.133 186.266L191.365 196.275L197.516 145.737L115.284 135.727Z" fill="url(#paint3_linear)"/>
<path d="M116.141 137.105L110.4 184.27L189.844 193.94L195.585 146.776L116.141 137.105Z" fill="#FAF8E4"/>
<g opacity="0.6">
<path opacity="0.6" d="M118.225 148.61L128.335 149.841L129.245 142.36L119.135 141.13L118.225 148.61Z" fill="#CCCED0"/>
<path opacity="0.6" d="M124.745 164.17L163.558 168.895L163.853 166.469L125.04 161.745L124.745 164.17Z" fill="#CCCED0"/>
<path opacity="0.6" d="M134.62 170.707L162.92 174.152L163.116 172.538L134.816 169.093L134.62 170.707Z" fill="#CCCED0"/>
</g>
<path d="M148.79 146.844L142.639 197.383L224.87 207.392L231.022 156.854L148.79 146.844Z" fill="url(#paint4_linear)"/>
<path d="M149.647 148.229L143.906 195.394L223.35 205.064L229.091 157.9L149.647 148.229Z" fill="#FAF8E4"/>
<g opacity="0.6">
<path opacity="0.6" d="M151.737 159.735L161.847 160.966L162.757 153.485L152.647 152.255L151.737 159.735Z" fill="#CCCED0"/>
<path opacity="0.6" d="M158.257 175.295L197.069 180.02L197.365 177.594L158.552 172.87L158.257 175.295Z" fill="#CCCED0"/>
<path opacity="0.6" d="M168.118 181.832L196.418 185.276L196.615 183.662L168.314 180.217L168.118 181.832Z" fill="#CCCED0"/>
</g>
<path d="M77.5991 151.595L69.2607 220.101L180.722 233.668L189.06 165.163L77.5991 151.595Z" fill="url(#paint5_linear)"/>
<path d="M78.7658 153.454L70.9834 217.392L178.668 230.5L186.451 166.562L78.7658 153.454Z" fill="white"/>
<g opacity="0.6">
<path opacity="0.6" d="M81.591 169.055L95.293 170.723L96.5268 160.586L82.8248 158.918L81.591 169.055Z" fill="#CCCED0"/>
<path opacity="0.6" d="M90.418 190.152L143.031 196.557L143.432 193.268L90.8183 186.863L90.418 190.152Z" fill="#CCCED0"/>
<path opacity="0.6" d="M103.806 199.01L142.17 203.68L142.437 201.485L104.073 196.815L103.806 199.01Z" fill="#CCCED0"/>
</g>
<path d="M123.018 166.664L114.68 235.169L226.141 248.737L234.479 180.231L123.018 166.664Z" fill="url(#paint6_linear)"/>
<path d="M124.177 168.535L116.395 232.473L224.079 245.581L231.862 181.643L124.177 168.535Z" fill="white"/>
<g opacity="0.6">
<path opacity="0.6" d="M127.007 184.133L140.709 185.801L141.943 175.664L128.241 173.996L127.007 184.133Z" fill="#CCCED0"/>
<path opacity="0.6" d="M135.834 205.23L188.447 211.635L188.848 208.346L136.234 201.942L135.834 205.23Z" fill="#CCCED0"/>
<path opacity="0.6" d="M149.221 214.088L187.585 218.758L187.852 216.563L149.488 211.893L149.221 214.088Z" fill="#CCCED0"/>
</g>
<path opacity="0.2" d="M173.976 105.595C166.151 105.589 158.402 107.123 151.17 110.11C153.987 109.705 156.829 109.501 159.675 109.499C167.53 109.499 175.308 111.046 182.565 114.052C189.821 117.058 196.415 121.464 201.969 127.018C207.524 132.573 211.929 139.167 214.935 146.424C217.941 153.681 219.488 161.459 219.488 169.314V264.259H233.789V165.41C233.789 149.546 227.488 134.332 216.271 123.114C205.053 111.897 189.839 105.595 173.976 105.595Z" fill="black"/>
<path d="M62.8017 245.383H234.441V266.191H41.9941C41.9941 260.672 44.1864 255.38 48.0885 251.477C51.9907 247.575 57.2832 245.383 62.8017 245.383Z" fill="#CCCED0"/>
<path opacity="0.2" d="M62.8017 245.383H234.441V266.191H41.9941C41.9941 260.672 44.1864 255.38 48.0885 251.477C51.9907 247.575 57.2832 245.383 62.8017 245.383Z" fill="white"/>
<path d="M436.448 46.8616L434.477 47.8244L434.702 47.4193L434.53 47.4725L434.775 47.2932L461.346 0L474.93 11.5859L486.588 22.3751L483.242 24.0085L487 30.6413L436.448 46.8616Z" fill="url(#paint7_linear)"/>
<path d="M473.589 12.8213L484.238 22.7009L435.957 46.7027L461.651 13.7707L473.589 12.8213Z" fill="#CCCED0"/>
<path opacity="0.2" d="M473.589 12.8213L484.238 22.7009L435.957 46.7027L461.651 13.7707L473.589 12.8213Z" fill="black"/>
<path d="M461.16 2.22461L435.957 46.7027L473.589 12.8213L461.16 2.22461Z" fill="#CCCED0"/>
<path d="M484.55 30.3429L436.01 46.3773L476.583 16.0879L484.55 30.3429Z" fill="#CCCED0"/>
<path d="M80.7805 57.7437L83.9541 58.235L83.4628 57.7702H83.735L83.3101 57.6242L25.641 2.93457L11.6454 25.0242L0 45.1751L5.39112 46.0117L3.00097 56.927L80.7805 57.7437Z" fill="url(#paint8_linear)"/>
<path d="M14.062 26.1726L3.42578 44.6105L81.3978 57.3052L31.1781 22.335L14.062 26.1726Z" fill="#CCCED0"/>
<path opacity="0.2" d="M14.062 26.1726L3.42578 44.6105L81.3978 57.3052L31.1781 22.335L14.062 26.1726Z" fill="black"/>
<path d="M26.8697 5.96875L81.3984 57.3054L14.0625 26.1728L26.8697 5.96875Z" fill="#CCCED0"/>
<path d="M6.30078 55.4464L81.1855 56.8806L11.2803 32.0488L6.30078 55.4464Z" fill="#CCCED0"/>
</g>
<defs>
<linearGradient id="paint0_linear" x1="254.597" y1="484" x2="254.597" y2="266.191" gradientUnits="userSpaceOnUse">
<stop stop-color="#808080" stop-opacity="0.25"/>
<stop offset="0.54" stop-color="#808080" stop-opacity="0.12"/>
<stop offset="1" stop-color="#808080" stop-opacity="0.1"/>
</linearGradient>
<linearGradient id="paint1_linear" x1="94933.6" y1="64084.3" x2="333893" y2="64084.3" gradientUnits="userSpaceOnUse">
<stop stop-color="#808080" stop-opacity="0.25"/>
<stop offset="0.54" stop-color="#808080" stop-opacity="0.12"/>
<stop offset="1" stop-color="#808080" stop-opacity="0.1"/>
</linearGradient>
<linearGradient id="paint2_linear" x1="23296.1" y1="20491.8" x2="23296.1" y2="10384.7" gradientUnits="userSpaceOnUse">
<stop stop-color="#808080" stop-opacity="0.25"/>
<stop offset="0.54" stop-color="#808080" stop-opacity="0.12"/>
<stop offset="1" stop-color="#808080" stop-opacity="0.1"/>
</linearGradient>
<linearGradient id="paint3_linear" x1="-17102.4" y1="29931.4" x2="-16334.8" y2="23625.7" gradientUnits="userSpaceOnUse">
<stop stop-color="#808080" stop-opacity="0.25"/>
<stop offset="0.54" stop-color="#808080" stop-opacity="0.12"/>
<stop offset="1" stop-color="#808080" stop-opacity="0.1"/>
</linearGradient>
<linearGradient id="paint4_linear" x1="-14608.4" y1="31124.9" x2="-13840.8" y2="24819.2" gradientUnits="userSpaceOnUse">
<stop stop-color="#808080" stop-opacity="0.25"/>
<stop offset="0.54" stop-color="#808080" stop-opacity="0.12"/>
<stop offset="1" stop-color="#808080" stop-opacity="0.1"/>
</linearGradient>
<linearGradient id="paint5_linear" x1="-26107.3" y1="46734.1" x2="-24697" y2="35148.5" gradientUnits="userSpaceOnUse">
<stop stop-color="#808080" stop-opacity="0.25"/>
<stop offset="0.54" stop-color="#808080" stop-opacity="0.12"/>
<stop offset="1" stop-color="#808080" stop-opacity="0.1"/>
</linearGradient>
<linearGradient id="paint6_linear" x1="-21508.1" y1="48923.3" x2="-20097.8" y2="37337.7" gradientUnits="userSpaceOnUse">
<stop stop-color="#808080" stop-opacity="0.25"/>
<stop offset="0.54" stop-color="#808080" stop-opacity="0.12"/>
<stop offset="1" stop-color="#808080" stop-opacity="0.1"/>
</linearGradient>
<linearGradient id="paint7_linear" x1="-7611.39" y1="36519.5" x2="-9768.55" y2="34674.6" gradientUnits="userSpaceOnUse">
<stop stop-color="#808080" stop-opacity="0.25"/>
<stop offset="0.54" stop-color="#808080" stop-opacity="0.12"/>
<stop offset="1" stop-color="#808080" stop-opacity="0.1"/>
</linearGradient>
<linearGradient id="paint8_linear" x1="3263.69" y1="42121.7" x2="5837.63" y2="38059.6" gradientUnits="userSpaceOnUse">
<stop stop-color="#808080" stop-opacity="0.25"/>
<stop offset="0.54" stop-color="#808080" stop-opacity="0.12"/>
<stop offset="1" stop-color="#808080" stop-opacity="0.1"/>
</linearGradient>
<clipPath id="clip0">
<rect width="487" height="484" fill="white"/>
</clipPath>
</defs>
</svg>
