<?xml version="1.0" encoding="utf-8"?>
<!-- Generator: Adobe Illustrator 17.0.0, SVG Export Plug-In . SVG Version: 6.00 Build 0)  -->
<!DOCTYPE svg PUBLIC "-//W3C//DTD SVG 1.1//EN" "http://www.w3.org/Graphics/SVG/1.1/DTD/svg11.dtd">
<svg version="1.1" id="Layer_1" xmlns="http://www.w3.org/2000/svg" xmlns:xlink="http://www.w3.org/1999/xlink" x="0px" y="0px"
	 width="174px" height="124px" viewBox="0 0 174 124" enable-background="new 0 0 174 124" xml:space="preserve">
<g>
	<g>
		<defs>
			<rect id="SVGID_1_" x="0.5" y="-26.766" width="169.38" height="150.766"/>
		</defs>
		<clipPath id="SVGID_2_">
			<use xlink:href="#SVGID_1_"  overflow="visible"/>
		</clipPath>
		<path clip-path="url(#SVGID_2_)" fill="#F2F2F2" d="M31.982,30.696l13.3,66.968l63.873,23.87
			c4.441-11.875,5.475-24.758,2.986-37.191C104.795,47.357,68.907,23.339,31.982,30.696z"/>
	</g>
	<g>
		<defs>
			<rect id="SVGID_3_" x="0.5" y="-26.766" width="169.38" height="150.766"/>
		</defs>
		<clipPath id="SVGID_4_">
			<use xlink:href="#SVGID_3_"  overflow="visible"/>
		</clipPath>
		<path clip-path="url(#SVGID_4_)" fill="#41404F" d="M26.377,118.325c2.09,3.882,6.526,5.549,6.526,5.549s1.047-4.628-1.043-8.51
			c-2.09-3.882-6.526-5.549-6.526-5.549S24.287,114.442,26.377,118.325z"/>
	</g>
	<g>
		<defs>
			<rect id="SVGID_5_" x="0.5" y="-26.766" width="169.38" height="150.766"/>
		</defs>
		<clipPath id="SVGID_6_">
			<use xlink:href="#SVGID_5_"  overflow="visible"/>
		</clipPath>
		<path clip-path="url(#SVGID_6_)" fill="#CCCED0" d="M27.814,117.048c3.773,2.274,5.226,6.79,5.226,6.79s-4.664,0.829-8.438-1.444
			c-3.773-2.274-5.226-6.79-5.226-6.79S24.041,114.773,27.814,117.048z"/>
	</g>
	<g>
		<defs>
			<rect id="SVGID_7_" x="0.5" y="-26.766" width="169.38" height="150.766"/>
		</defs>
		<clipPath id="SVGID_8_">
			<use xlink:href="#SVGID_7_"  overflow="visible"/>
		</clipPath>
		<path clip-path="url(#SVGID_8_)" fill="#454554" d="M31.626,124c5.912-15.574,6.766-35.726,5.524-57.778
			c-0.018-0.348-0.038-0.697-0.06-1.048c-0.186-3.179-0.413-6.394-0.68-9.644h12.903c-0.176,3.375-0.3,6.717-0.375,10.026
			c-0.005,0.219-0.009,0.437-0.014,0.652C48.512,87.4,50.406,107.09,56.577,124H31.626z"/>
	</g>
	<g>
		<defs>
			<rect id="SVGID_9_" x="0.5" y="-26.766" width="169.38" height="150.766"/>
		</defs>
		<clipPath id="SVGID_10_">
			<use xlink:href="#SVGID_9_"  overflow="visible"/>
		</clipPath>
		<path clip-path="url(#SVGID_10_)" fill="#41404F" d="M128.423,123.877c-4.032-0.684-7.909-1.272-11.631-1.763l1.471-2.858
			c-0.496-0.173-2.677,1.464-2.677,1.464l1.931-8.296c-2.495,0.302-3.765,8.772-3.765,8.772l-2.788-2.865l1.349,3.22
			c-11.394-1.344-21.234-1.842-29.51-1.86l1.26-2.446c-0.496-0.173-2.677,1.464-2.677,1.464l1.931-8.296
			c-2.496,0.301-3.765,8.772-3.765,8.772l-2.789-2.865l1.43,3.411c-5.671,0.094-11.333,0.478-16.964,1.154
			c1.274-3.811,5.602-7.435,5.602-7.435c-3.305,0.985-5.039,2.635-5.945,4.173c-0.081-7.863-2.976-8.196-2.104,1.8l0.104,1.775
			c-5.792,0.831-8.071,2.783-8.071,2.783L128.423,123.877z"/>
	</g>
	<g>
		<defs>
			<rect id="SVGID_11_" x="0.5" y="-26.766" width="169.38" height="150.766"/>
		</defs>
		<clipPath id="SVGID_12_">
			<use xlink:href="#SVGID_11_"  overflow="visible"/>
		</clipPath>
		<path clip-path="url(#SVGID_12_)" fill="#FF825C" d="M85.186,40.946c-0.451,18.48-19.565,24.7-42.948,24.414
			c-0.543-0.007-1.084-0.017-1.621-0.03c-1.083-0.027-2.155-0.068-3.215-0.125C16.32,64.079,0.089,57.095,0.508,39.909
			C0.942,22.123,41.862,1.847,44.844,0.223C44.846,0.223,85.637,22.467,85.186,40.946z"/>
	</g>
	<g>
		<defs>
			<rect id="SVGID_13_" x="0.5" y="-26.766" width="169.38" height="150.766"/>
		</defs>
		<clipPath id="SVGID_14_">
			<use xlink:href="#SVGID_13_"  overflow="visible"/>
		</clipPath>
		<path clip-path="url(#SVGID_14_)" fill="#393944" d="M70.376,91.655c2.862,0,5.182-2.323,5.182-5.189s-2.32-5.19-5.182-5.19
			s-5.182,2.324-5.182,5.19S67.514,91.655,70.376,91.655z"/>
	</g>
	<g>
		<defs>
			<rect id="SVGID_15_" x="0.5" y="-26.766" width="169.38" height="150.766"/>
		</defs>
		<clipPath id="SVGID_16_">
			<use xlink:href="#SVGID_15_"  overflow="visible"/>
		</clipPath>
		<path clip-path="url(#SVGID_16_)" fill="#393944" d="M64.762,84.822c2.862,0,5.182-2.324,5.182-5.19s-2.32-5.19-5.182-5.19
			s-5.182,2.324-5.182,5.19S61.9,84.822,64.762,84.822z"/>
	</g>
	<g>
		<defs>
			<rect id="SVGID_17_" x="0.5" y="-26.766" width="169.38" height="150.766"/>
		</defs>
		<clipPath id="SVGID_18_">
			<use xlink:href="#SVGID_17_"  overflow="visible"/>
		</clipPath>
		<path clip-path="url(#SVGID_18_)" fill="#393944" d="M60.292,83.93c0.671,0.486,1.448,0.803,2.266,0.926s1.654,0.048,2.438-0.219
			c0.783-0.267,1.492-0.718,2.066-1.315s0.996-1.323,1.233-2.117c-0.089,0.711-0.325,1.397-0.692,2.013
			c-0.367,0.616-0.858,1.149-1.441,1.565c-0.583,0.417-1.247,0.707-1.948,0.854c-0.701,0.147-1.425,0.146-2.126-0.001
			c-0.701-0.148-1.364-0.439-1.947-0.857c-0.583-0.417-1.073-0.95-1.44-1.567c-0.366-0.616-0.601-1.302-0.69-2.014
			c-0.089-0.712-0.029-1.435,0.176-2.122c-0.116,0.923,0.018,1.861,0.389,2.716S59.539,83.384,60.292,83.93z"/>
	</g>
	<g>
		<defs>
			<rect id="SVGID_19_" x="0.5" y="-26.766" width="169.38" height="150.766"/>
		</defs>
		<clipPath id="SVGID_20_">
			<use xlink:href="#SVGID_19_"  overflow="visible"/>
		</clipPath>
		<path clip-path="url(#SVGID_20_)" fill="#FECEB8" d="M71.714,92.736c2.337,0,4.232-1.898,4.232-4.239
			c0-2.341-1.895-4.238-4.232-4.238c-2.337,0-4.232,1.898-4.232,4.238C67.482,90.839,69.377,92.736,71.714,92.736z"/>
	</g>
	<g>
		<defs>
			<rect id="SVGID_21_" x="0.5" y="-26.766" width="169.38" height="150.766"/>
		</defs>
		<clipPath id="SVGID_22_">
			<use xlink:href="#SVGID_21_"  overflow="visible"/>
		</clipPath>
		<path clip-path="url(#SVGID_22_)" fill="#FECEB8" d="M73.182,91.957c0,0-1.727,2.596-1.468,3.72c0,0,1.123,0.519,1.123,0.692
			c0,0.173,1.036,1.817,1.036,1.817l1.209,1.644l0.518,2.162h-2.504l-2.764-2.162l-2.677-2.942c0,0-1.814-0.865-2.764-0.172
			l-0.518,0.432c0,0,1.814-2.422,2.677-2.941c0,0,1.554-1.903,1.382-3.806L73.182,91.957z"/>
	</g>
	<g>
		<defs>
			<rect id="SVGID_23_" x="0.5" y="-26.766" width="169.38" height="150.766"/>
		</defs>
		<clipPath id="SVGID_24_">
			<use xlink:href="#SVGID_23_"  overflow="visible"/>
		</clipPath>
		<path clip-path="url(#SVGID_24_)" fill="#FECEB8" d="M72.492,95.592c0,0,1.727,0.951,2.418,2.768s3.8,7.871,3.8,7.871
			s0.259,3.893,0.086,4.066c-0.173,0.172-2.159-1.73-2.504-2.249s-1.727-6.747-1.727-6.747l-2.245-3.633l-0.432-2.075L72.492,95.592
			L72.492,95.592z"/>
	</g>
	<g>
		<defs>
			<rect id="SVGID_25_" x="0.5" y="-26.766" width="169.38" height="150.766"/>
		</defs>
		<clipPath id="SVGID_26_">
			<use xlink:href="#SVGID_25_"  overflow="visible"/>
		</clipPath>
		<path clip-path="url(#SVGID_26_)" fill="#FECEB8" d="M77.932,106.491l0.777-0.26c0,0,4.75-2.941,5.009-4.238
			c0.259-1.298,4.059-5.623,4.145-3.287c0.086,2.335-2.764,4.931-2.764,4.931s-6.218,8.736-6.563,6.228L77.932,106.491z"/>
	</g>
	<g>
		<defs>
			<rect id="SVGID_27_" x="0.5" y="-26.766" width="169.38" height="150.766"/>
		</defs>
		<clipPath id="SVGID_28_">
			<use xlink:href="#SVGID_27_"  overflow="visible"/>
		</clipPath>
		<path clip-path="url(#SVGID_28_)" fill="#FECEB8" d="M70.073,100.521c0,0-0.086,2.423-3.454,3.287c0,0-3.455,4.671-3.8,6.747
			s-9.413,12.716-9.413,12.716s-8.377,1.038-8.377,0s6.995-1.903,6.995-1.903s7.341-10.899,7.686-12.369s3.627-12.37,5.182-12.284
			c0,0,1.468-0.691,2.332-0.173C68.087,97.061,70.073,100.521,70.073,100.521z"/>
	</g>
	<g>
		<defs>
			<rect id="SVGID_29_" x="0.5" y="-26.766" width="169.38" height="150.766"/>
		</defs>
		<clipPath id="SVGID_30_">
			<use xlink:href="#SVGID_29_"  overflow="visible"/>
		</clipPath>
		<path clip-path="url(#SVGID_30_)" fill="#FECEB8" d="M80.177,110.297c0,0,6.045-8.131,7.341-8.65
			c1.295-0.519,2.936-0.866,3.886,0.346c0.95,1.211,12.177,15.397,12.177,15.397s3.972,4.066,5.959,3.287
			c0,0,1.036,0.866-1.382,1.039c-1.573,0.083-3.147-0.092-4.664-0.519c0,0-1.469,0.26-2.504,0.519
			c-1.037,0.259-2.332,0.345-2.246-0.346l0.345-2.768c0,0-8.895-7.353-9.154-10.467c0,0,0.173-1.47,0-1.297
			c-0.173,0.173-3.8,4.065-5.441,4.931c-1.641,0.865-5.7,2.075-5.7,2.075L80.177,110.297z"/>
	</g>
	<g>
		<defs>
			<rect id="SVGID_31_" x="0.5" y="-26.766" width="169.38" height="150.766"/>
		</defs>
		<clipPath id="SVGID_32_">
			<use xlink:href="#SVGID_31_"  overflow="visible"/>
		</clipPath>
		<path opacity="0.1" clip-path="url(#SVGID_32_)" enable-background="new    " d="M80.26,110.297c0,0,6.045-8.131,7.341-8.65
			c1.295-0.519,2.936-0.866,3.886,0.346c0.95,1.211,12.177,15.397,12.177,15.397s3.972,4.066,5.959,3.287
			c0,0,1.036,0.866-1.382,1.039c-1.573,0.083-3.147-0.092-4.664-0.519c0,0-1.469,0.26-2.504,0.519
			c-1.037,0.259-2.332,0.345-2.246-0.346l0.345-2.768c0,0-8.895-7.353-9.154-10.467c0,0,0.173-1.47,0-1.297
			c-0.173,0.173-3.8,4.065-5.441,4.931c-1.641,0.865-5.7,2.075-5.7,2.075L80.26,110.297z"/>
	</g>
	<g>
		<defs>
			<rect id="SVGID_33_" x="0.5" y="-26.766" width="169.38" height="150.766"/>
		</defs>
		<clipPath id="SVGID_34_">
			<use xlink:href="#SVGID_33_"  overflow="visible"/>
		</clipPath>
		<path clip-path="url(#SVGID_34_)" fill="#FECEB8" d="M79.228,111.421c0,0,7.945-3.027,8.982-3.72
			c1.036-0.692,4.75-2.076,6.65-0.519c1.899,1.557,11.14,8.737,14.249,9.428c3.109,0.692,8.463,2.336,8.463,2.336
			s3.455,0.26-0.259,1.73c0,0-4.578,0.433-5.355,1.124c-0.777,0.692-3.368,1.557-3.54,0.433c-0.173-1.124-0.691-2.595-1.642-2.768
			c-0.949-0.173-12.349-3.287-14.076-6.661c0,0-3.886,2.162-6.304,4.671c-2.418,2.508-8.118,3.893-8.118,3.893L79.228,111.421z"/>
	</g>
	<g>
		<defs>
			<rect id="SVGID_35_" x="0.5" y="-26.766" width="169.38" height="150.766"/>
		</defs>
		<clipPath id="SVGID_36_">
			<use xlink:href="#SVGID_35_"  overflow="visible"/>
		</clipPath>
		<path clip-path="url(#SVGID_36_)" fill="#393944" d="M76.378,108.653c0,0,3.786,1.008,4.095,0.634
			c0.309-0.374,1.95,1.701,0.396,5.854c-1.555,4.152-1.209,6.055-2.073,6.661c-0.864,0.605-4.923-0.346-6.132,0.087
			c-1.209,0.432-2.764,0.778-3.282-1.73c-0.518-2.509-1.814-6.92-1.554-7.526c0.259-0.605,1.641-1.989,1.641-1.989l2.85-1.471
			L76.378,108.653z"/>
	</g>
	<g>
		<defs>
			<rect id="SVGID_37_" x="0.5" y="-26.766" width="169.38" height="150.766"/>
		</defs>
		<clipPath id="SVGID_38_">
			<use xlink:href="#SVGID_37_"  overflow="visible"/>
		</clipPath>
		<path clip-path="url(#SVGID_38_)" fill="#393944" d="M63.294,98.922c0,0,0.601-1.687,1.717-2.004
			c0.094-0.025,0.187-0.056,0.279-0.091c0.419-0.167,1.698-0.53,2.624,0.754c1.123,1.557,2.159,3.374,1.295,4.411
			c-0.864,1.039-2.591,1.644-2.591,1.644l-1.295,1.644c0,0,2.591,4.671,2.591,6.834c0,0,0.086,0.866,1.554-0.692
			c1.468-1.557,7.476-2.633,7.476-2.633s-1.258-1.692-0.308-2.47c0.95-0.779,1.82-3.88-0.429-5.097l-3.846-5.672l-0.691,0.087
			c0,0,0.907,0.822,0.993,1.254c0.086,0.433,3.541,3.46,2.159,3.979c-1.382,0.519-3.627-0.606-4.577-1.903
			c-0.523-0.714-1.254-1.689-2.18-2.307c-0.476-0.311-1.025-0.49-1.592-0.521c-0.567-0.031-1.132,0.089-1.638,0.348l-0.29,0.145
			c-0.564,0.396-1.007,0.941-1.279,1.576l-0.103,0.24L63.294,98.922z"/>
	</g>
	<g>
		<defs>
			<rect id="SVGID_39_" x="0.5" y="-26.766" width="169.38" height="150.766"/>
		</defs>
		<clipPath id="SVGID_40_">
			<use xlink:href="#SVGID_39_"  overflow="visible"/>
		</clipPath>
		<path clip-path="url(#SVGID_40_)" fill="#393944" d="M68.994,91.137c2.099,0,3.8-1.704,3.8-3.806c0-2.101-1.701-3.805-3.8-3.805
			c-2.099,0-3.8,1.704-3.8,3.805C65.194,89.433,66.895,91.137,68.994,91.137z"/>
	</g>
	<g>
		<defs>
			<rect id="SVGID_41_" x="0.5" y="-26.766" width="169.38" height="150.766"/>
		</defs>
		<clipPath id="SVGID_42_">
			<use xlink:href="#SVGID_41_"  overflow="visible"/>
		</clipPath>
		<path clip-path="url(#SVGID_42_)" fill="#393944" d="M72.189,88.541c1.86,0,3.368-1.181,3.368-2.638
			c0-1.456-1.508-2.638-3.368-2.638c-1.86,0-3.368,1.182-3.368,2.638C68.821,87.36,70.329,88.541,72.189,88.541z"/>
	</g>
	<g>
		<defs>
			<rect id="SVGID_43_" x="0.5" y="-26.766" width="169.38" height="150.766"/>
		</defs>
		<clipPath id="SVGID_44_">
			<use xlink:href="#SVGID_43_"  overflow="visible"/>
		</clipPath>
		<path clip-path="url(#SVGID_44_)" fill="#A0616A" d="M70.937,91.05c0.31,0,0.561-0.446,0.561-0.995s-0.251-0.995-0.561-0.995
			s-0.561,0.446-0.561,0.995C70.376,90.604,70.627,91.05,70.937,91.05z"/>
	</g>
	<g>
		<defs>
			<rect id="SVGID_45_" x="0.5" y="-26.766" width="169.38" height="150.766"/>
		</defs>
		<clipPath id="SVGID_46_">
			<use xlink:href="#SVGID_45_"  overflow="visible"/>
		</clipPath>
		<path clip-path="url(#SVGID_46_)" fill="#CCCED0" d="M69.987,81.306v6.889h1.986v-6.889c0-0.123-0.049-0.241-0.136-0.328
			c-0.087-0.087-0.205-0.136-0.327-0.136h-1.06c-0.123,0-0.24,0.048-0.327,0.136C70.035,81.065,69.987,81.183,69.987,81.306z"/>
	</g>
	<g>
		<defs>
			<rect id="SVGID_47_" x="0.5" y="-26.766" width="169.38" height="150.766"/>
		</defs>
		<clipPath id="SVGID_48_">
			<use xlink:href="#SVGID_47_"  overflow="visible"/>
		</clipPath>
		<path clip-path="url(#SVGID_48_)" fill="#CCCED0" d="M70.98,91.742c1.192,0,2.159-0.969,2.159-2.163s-0.967-2.163-2.159-2.163
			c-1.192,0-2.159,0.969-2.159,2.163S69.788,91.742,70.98,91.742z"/>
	</g>
	<g>
		<defs>
			<rect id="SVGID_49_" x="0.5" y="-26.766" width="169.38" height="150.766"/>
		</defs>
		<clipPath id="SVGID_50_">
			<use xlink:href="#SVGID_49_"  overflow="visible"/>
		</clipPath>
		<path clip-path="url(#SVGID_50_)" fill="#F2F2F2" d="M70.98,90.531c0.525,0,0.95-0.426,0.95-0.951c0-0.526-0.425-0.952-0.95-0.952
			c-0.525,0-0.95,0.426-0.95,0.952C70.03,90.105,70.456,90.531,70.98,90.531z"/>
	</g>
	<g>
		<defs>
			<rect id="SVGID_51_" x="0.5" y="-26.766" width="169.38" height="150.766"/>
		</defs>
		<clipPath id="SVGID_52_">
			<use xlink:href="#SVGID_51_"  overflow="visible"/>
		</clipPath>
		<path clip-path="url(#SVGID_52_)" fill="#CCCED0" d="M70.98,89.838c0.143,0,0.259-0.116,0.259-0.26c0-0.143-0.116-0.26-0.259-0.26
			c-0.143,0-0.259,0.116-0.259,0.26S70.837,89.838,70.98,89.838z"/>
	</g>
	<g>
		<defs>
			<rect id="SVGID_53_" x="0.5" y="-26.766" width="169.38" height="150.766"/>
		</defs>
		<clipPath id="SVGID_54_">
			<use xlink:href="#SVGID_53_"  overflow="visible"/>
		</clipPath>
		<path opacity="0.1" clip-path="url(#SVGID_54_)" enable-background="new    " d="M69.987,81.306v0.315h1.986v-0.315
			c0-0.123-0.049-0.241-0.136-0.328c-0.087-0.087-0.205-0.136-0.327-0.136h-1.06c-0.123,0-0.24,0.048-0.327,0.136
			C70.035,81.065,69.987,81.183,69.987,81.306z"/>
	</g>
	<g>
		<defs>
			<rect id="SVGID_55_" x="0.5" y="-26.766" width="169.38" height="150.766"/>
		</defs>
		<clipPath id="SVGID_56_">
			<use xlink:href="#SVGID_55_"  overflow="visible"/>
		</clipPath>
		<path clip-path="url(#SVGID_56_)" fill="#393944" d="M93.058,98.372l-5.085-5.093C87.795,93.1,87.554,93,87.302,93
			s-0.493,0.101-0.671,0.278l-4.574,4.583c-0.178,0.178-0.278,0.42-0.278,0.671c0,0.252,0.1,0.494,0.278,0.672l4.751,4.759
			c0.169,0.169,0.397,0.269,0.636,0.277s0.473-0.074,0.655-0.231l4.908-4.248c0.099-0.085,0.179-0.19,0.235-0.307
			c0.056-0.118,0.088-0.247,0.093-0.377c0.005-0.13-0.017-0.261-0.065-0.382C93.222,98.574,93.15,98.464,93.058,98.372z"/>
	</g>
	<g>
		<defs>
			<rect id="SVGID_57_" x="0.5" y="-26.766" width="169.38" height="150.766"/>
		</defs>
		<clipPath id="SVGID_58_">
			<use xlink:href="#SVGID_57_"  overflow="visible"/>
		</clipPath>
		<path clip-path="url(#SVGID_58_)" fill="#F2F2F2" d="M91.621,99.181l-4.448-4.455l-3.67,3.676l4.275,4.282L91.621,99.181z"/>
	</g>
	<g>
		<defs>
			<rect id="SVGID_59_" x="0.5" y="-26.766" width="169.38" height="150.766"/>
		</defs>
		<clipPath id="SVGID_60_">
			<use xlink:href="#SVGID_59_"  overflow="visible"/>
		</clipPath>
		<path clip-path="url(#SVGID_60_)" fill="#CCCED0" d="M87.475,100.79c1.174,0,2.125-0.953,2.125-2.128
			c0-1.176-0.952-2.129-2.125-2.129c-1.174,0-2.125,0.953-2.125,2.129C85.35,99.837,86.301,100.79,87.475,100.79z"/>
	</g>
	<g>
		<defs>
			<rect id="SVGID_61_" x="0.5" y="-26.766" width="169.38" height="150.766"/>
		</defs>
		<clipPath id="SVGID_62_">
			<use xlink:href="#SVGID_61_"  overflow="visible"/>
		</clipPath>
		<path opacity="0.1" clip-path="url(#SVGID_62_)" enable-background="new    " d="M88.421,100.476
			c0.356-0.334,0.585-0.781,0.651-1.266c0.065-0.484-0.037-0.976-0.291-1.393c-0.254-0.418-0.643-0.734-1.103-0.898
			s-0.962-0.164-1.421-0.001c0.248-0.174,0.531-0.293,0.829-0.349c0.298-0.056,0.605-0.047,0.899,0.026s0.57,0.208,0.808,0.396
			s0.433,0.425,0.572,0.695s0.219,0.567,0.233,0.87c0.015,0.303-0.035,0.607-0.147,0.889c-0.112,0.283-0.283,0.538-0.501,0.749
			c-0.218,0.21-0.479,0.372-0.765,0.474C88.268,100.61,88.347,100.546,88.421,100.476z"/>
	</g>
	<g>
		<defs>
			<rect id="SVGID_63_" x="0.5" y="-26.766" width="169.38" height="150.766"/>
		</defs>
		<clipPath id="SVGID_64_">
			<use xlink:href="#SVGID_63_"  overflow="visible"/>
		</clipPath>
		<path clip-path="url(#SVGID_64_)" fill="#F2F2F2" d="M86.43,98.238c-0.253,0.238-0.267,1.097,0.12,1.51s1.028,0.223,1.281-0.016
			c0.253-0.238,0.024-0.436-0.364-0.848C87.081,98.472,86.683,98,86.43,98.238z"/>
	</g>
	<g>
		<defs>
			<rect id="SVGID_65_" x="0.5" y="-26.766" width="169.38" height="150.766"/>
		</defs>
		<clipPath id="SVGID_66_">
			<use xlink:href="#SVGID_65_"  overflow="visible"/>
		</clipPath>
		<path clip-path="url(#SVGID_66_)" fill="#2F2E41" d="M88.588,99.327c0.348,0,0.63-0.282,0.63-0.63c0-0.349-0.282-0.631-0.63-0.631
			s-0.63,0.282-0.63,0.631C87.958,99.045,88.24,99.327,88.588,99.327z"/>
	</g>
	<g>
		<defs>
			<rect id="SVGID_67_" x="0.5" y="-26.766" width="169.38" height="150.766"/>
		</defs>
		<clipPath id="SVGID_68_">
			<use xlink:href="#SVGID_67_"  overflow="visible"/>
		</clipPath>
		<path clip-path="url(#SVGID_68_)" fill="#2F2E41" d="M87.456,98.12c0.348,0,0.63-0.282,0.63-0.63c0-0.349-0.282-0.631-0.63-0.631
			s-0.63,0.282-0.63,0.631C86.826,97.838,87.108,98.12,87.456,98.12z"/>
	</g>
	<g>
		<defs>
			<rect id="SVGID_69_" x="0.5" y="-26.766" width="169.38" height="150.766"/>
		</defs>
		<clipPath id="SVGID_70_">
			<use xlink:href="#SVGID_69_"  overflow="visible"/>
		</clipPath>
		<path clip-path="url(#SVGID_70_)" fill="#F2F2F2" d="M88.588,98.854c0.087,0,0.157-0.07,0.157-0.157s-0.07-0.157-0.157-0.157
			s-0.157,0.07-0.157,0.157C88.43,98.784,88.501,98.854,88.588,98.854z"/>
	</g>
	<g>
		<defs>
			<rect id="SVGID_71_" x="0.5" y="-26.766" width="169.38" height="150.766"/>
		</defs>
		<clipPath id="SVGID_72_">
			<use xlink:href="#SVGID_71_"  overflow="visible"/>
		</clipPath>
		<path clip-path="url(#SVGID_72_)" fill="#F2F2F2" d="M88.655,98.387c0.044,0,0.079-0.035,0.079-0.079
			c0-0.043-0.035-0.078-0.079-0.078c-0.043,0-0.079,0.035-0.079,0.078C88.577,98.352,88.612,98.387,88.655,98.387z"/>
	</g>
	<g>
		<defs>
			<rect id="SVGID_73_" x="0.5" y="-26.766" width="169.38" height="150.766"/>
		</defs>
		<clipPath id="SVGID_74_">
			<use xlink:href="#SVGID_73_"  overflow="visible"/>
		</clipPath>
		<path clip-path="url(#SVGID_74_)" fill="#F2F2F2" d="M87.523,97.18c0.044,0,0.079-0.035,0.079-0.079
			c0-0.043-0.035-0.078-0.079-0.078c-0.043,0-0.079,0.035-0.079,0.078C87.445,97.145,87.48,97.18,87.523,97.18z"/>
	</g>
	<g>
		<defs>
			<rect id="SVGID_75_" x="0.5" y="-26.766" width="169.38" height="150.766"/>
		</defs>
		<clipPath id="SVGID_76_">
			<use xlink:href="#SVGID_75_"  overflow="visible"/>
		</clipPath>
		<path clip-path="url(#SVGID_76_)" fill="#F2F2F2" d="M87.456,97.648c0.087,0,0.157-0.071,0.157-0.158s-0.071-0.157-0.157-0.157
			s-0.157,0.071-0.157,0.157C87.298,97.578,87.369,97.648,87.456,97.648z"/>
	</g>
	<g>
		<defs>
			<rect id="SVGID_77_" x="0.5" y="-26.766" width="169.38" height="150.766"/>
		</defs>
		<clipPath id="SVGID_78_">
			<use xlink:href="#SVGID_77_"  overflow="visible"/>
		</clipPath>
		<path clip-path="url(#SVGID_78_)" fill="#454554" d="M48.959,65.878l-0.296-1.955l-1.454-4.265l-3.203-9.401L58.2,33.865
			L44.06,48.178l0.153-5.956l9.783-11.86l-9.742,10.282L44.53,29.93l10.475-9.441l-10.43,7.757l0.171-19.564V8.599l-0.005,0.084
			L43.71,33.491L33.101,23.245l10.48,12.349l-0.992,11.967l-0.03-0.317l-12.277-10.83l12.24,11.952l-0.123,1.496l-0.023,0.024
			l0.011,0.123l-3.142,9.65l-1.949,5.983c0.021,0.217,0.041,0.434,0.059,0.65c1.787,0.025,10.423-0.016,11.591-0.008L48.959,65.878z
			"/>
	</g>
</g>
<g>
	<path fill="#454554" d="M154.391,67.508c10.83,0,19.609-8.794,19.609-19.641s-8.779-19.641-19.609-19.641
		c-10.83,0-19.609,8.793-19.609,19.641S143.561,67.508,154.391,67.508z"/>
	<path fill="#F2F2F2" d="M149.251,39.816v17.913c-0.005,0.083,0.013,0.166,0.052,0.239c0.038,0.074,0.096,0.135,0.166,0.179
		c0.071,0.044,0.152,0.067,0.235,0.068c0.083,0.001,0.165-0.02,0.236-0.062l14.176-8.956c0.07-0.046,0.126-0.109,0.166-0.183
		c0.039-0.074,0.06-0.156,0.06-0.239c0-0.084-0.021-0.166-0.06-0.239c-0.04-0.074-0.096-0.136-0.166-0.183l-14.176-8.956
		c-0.071-0.043-0.153-0.065-0.235-0.065c-0.083,0-0.165,0.023-0.235,0.066c-0.071,0.043-0.129,0.105-0.168,0.178
		C149.264,39.65,149.246,39.733,149.251,39.816z"/>
</g>
<path fill="#454554" d="M116.845,1.131c-2.485,0.602-7.116,1.694-10.241,2.447l-5.761,1.355v10.656
	c0,10.204-0.038,10.656-0.715,10.467c-1.092-0.264-3.652,0.565-4.932,1.619c-1.544,1.318-2.259,2.786-2.259,4.707
	c0,3.05,3.351,5.045,6.853,4.066c2.184-0.565,4.631-3.087,4.932-5.083c0.151-0.791,0.264-5.648,0.264-10.731v-9.262l6.326-1.431
	c3.464-0.791,6.514-1.506,6.777-1.619c0.339-0.113,0.452,1.355,0.452,6.627v6.74l-1.506,0.226c-3.652,0.489-6.815,3.916-6.25,6.777
	c0.753,3.803,5.911,5.083,9.451,2.334c2.485-1.845,2.447-1.694,2.447-17.132c0-13.028-0.038-13.931-0.64-13.894
	C121.664,0.039,119.33,0.528,116.845,1.131z"/>
<path fill="#454554" d="M156.463,77.894c-1.05,2.134-5.017,10.321-6.557,13.505c-2.309,4.724-2.834,6.123-2.904,7.698
	c-0.07,1.05-0.175,2.519-0.28,3.219c-0.14,0.7-0.07,1.365,0.105,1.505c0.28,0.14,2.766-1.646,3.676-2.626
	c0.105-0.105,0.208-0.243,0.873-0.698c0.805-0.56,1.54-1.61,2.309-3.289c0.63-1.365,2.449-5.179,4.059-8.433
	c1.645-3.289,3.219-6.543,3.534-7.243l0.595-1.295l-1.994-0.921C158.973,79.002,157.006,78.091,156.463,77.894z"/>
<path fill="#454554" d="M128.142,90.279c-1.435,0.49-1.749,0.735-1.749,1.4c0,0.525-0.385,1.05-0.98,1.4l-0.945,0.595v9.692v9.692
	l7.453,0.14c4.059,0.105,7.978,0.28,8.678,0.42c0.805,0.14,1.365,0.105,1.505-0.14c0.175-0.245,2.589-0.385,7.418-0.385h7.138
	v-9.727l-0.035-9.692l-1.19,2.274l-1.19,2.274l-0.035,5.878v5.878l-0.77-0.42c-1.365-0.735-6.438-0.455-9.377,0.49l-2.624,0.84
	l-0.175-3.184c-0.105-1.959-0.035-3.254,0.175-3.359s0.35-2.344,0.35-5.598v-5.388l1.365-0.77c0.77-0.455,2.379-0.98,3.534-1.225
	c1.47-0.28,2.309-0.665,2.589-1.12c0.42-0.665,0.385-0.665-1.54-0.42c-2.309,0.28-4.094,0.945-5.703,2.169
	c-1.05,0.77-1.225,0.805-1.749,0.35c-0.315-0.28-1.47-0.945-2.519-1.505C135.35,89.614,130.941,89.369,128.142,90.279z
	 M137.939,92.238l1.924,0.945v5.773c0,3.779,0.105,5.703,0.35,5.563c0.21-0.14,0.35,1.015,0.35,3.149
	c0,3.114-0.07,3.394-0.595,3.149c-2.554-1.015-5.808-1.54-8.922-1.47l-3.429,0.105v-9.062c0-4.969,0.105-8.957,0.28-8.887
	c0.14,0.105,0.56,0.035,0.945-0.105c0.385-0.175,2.134-0.245,3.919-0.21C135.42,91.294,136.33,91.468,137.939,92.238z"/>
<polygon fill="#FAFAFA" points="147.398,102.886 147.747,98.019 148.649,98.96 149.793,98.019 149.96,99.346 151.499,99.425 "/>
<polygon fill="#FAFAFA" points="156.836,78.587 156.211,79.794 160.522,81.645 161.155,80.434 "/>
<path fill="none" stroke="#454554" stroke-width="0.6" stroke-miterlimit="10" d="M129.012,93.749
	c2.788-1.314,8.217,0.23,9.38,1.207"/>
<path fill="none" stroke="#454554" stroke-width="0.6" stroke-miterlimit="10" d="M129.012,95.61c2.788-1.314,8.217,0.23,9.38,1.207
	"/>
<path fill="none" stroke="#454554" stroke-width="0.6" stroke-miterlimit="10" d="M129.012,97.472
	c2.788-1.314,8.217,0.23,9.38,1.207"/>
<path fill="none" stroke="#454554" stroke-width="0.6" stroke-miterlimit="10" d="M129.012,99.333
	c2.788-1.314,8.217,0.23,9.38,1.207"/>
<path fill="none" stroke="#454554" stroke-width="0.6" stroke-miterlimit="10" d="M129.012,101.194
	c2.788-1.314,8.217,0.23,9.38,1.207"/>
<path fill="none" stroke="#454554" stroke-width="0.6" stroke-miterlimit="10" d="M129.012,103.055
	c2.788-1.314,8.217,0.23,9.38,1.207"/>
<path fill="none" stroke="#454554" stroke-width="0.6" stroke-miterlimit="10" d="M129.012,104.917
	c2.788-1.314,8.217,0.23,9.38,1.207"/>
<path fill="none" stroke="#454554" stroke-width="0.6" stroke-miterlimit="10" d="M129.012,106.778
	c2.788-1.314,8.217,0.23,9.38,1.207"/>
</svg>
