<?xml version="1.0" encoding="utf-8"?>
<!-- Generator: Adobe Illustrator 17.0.0, SVG Export Plug-In . SVG Version: 6.00 Build 0)  -->
<!DOCTYPE svg PUBLIC "-//W3C//DTD SVG 1.1//EN" "http://www.w3.org/Graphics/SVG/1.1/DTD/svg11.dtd">
<svg version="1.1" id="Layer_1" xmlns="http://www.w3.org/2000/svg" xmlns:xlink="http://www.w3.org/1999/xlink" x="0px" y="0px"
	 width="408px" height="308px" viewBox="0 0 408 308" enable-background="new 0 0 408 308" xml:space="preserve">
<g>
	<defs>
		<rect id="SVGID_1_" width="408" height="308"/>
	</defs>
	<clipPath id="SVGID_2_">
		<use xlink:href="#SVGID_1_"  overflow="visible"/>
	</clipPath>
	<g clip-path="url(#SVGID_2_)">
		<path fill="#D8D8D8" d="M349.552,166.849c0,47.374-27.767,89.284-70.331,114.796c-27.291,16.361-60.668,25.981-96.708,25.981
			c-48.011,0-84.635-18.151-112.184-45.955c-25.393-25.621-43.074-59.446-54.855-94.822C-37.119,8.903,50.739-34.186,182.513,26.073
			C266.414,64.444,349.552,89.103,349.552,166.849z"/>
		<path fill="#F2F2F2" d="M279.221,84.163v197.856C251.93,298.38,218.552,308,182.513,308c-48.011,0-84.635-18.151-112.184-45.955
			V84.163H279.221z"/>
		<path fill="#393944" d="M90.421,180.571c10.937-3.48,22.285-5.504,33.751-6.019c5.745-0.245,11.501-0.019,17.209,0.673
			c5.654,0.748,11.239,1.944,16.703,3.577c5.398,1.564,10.722,3.37,16.102,4.993c5.466,1.67,11.022,3.026,16.642,4.062
			c5.591,1.012,11.238,1.686,16.91,2.016c5.617,0.327,11.288,0.391,16.889-0.208c5.231-0.504,10.355-1.803,15.195-3.853
			c4.514-1.97,8.685-4.647,12.358-7.929c0.916-0.818,1.798-1.672,2.645-2.563c0.5-0.522-0.293-1.318-0.794-0.794
			c-7.159,7.486-16.57,12.128-26.777,13.678c-5.56,0.845-11.227,0.894-16.836,0.676c-5.735-0.222-11.45-0.799-17.113-1.73
			c-5.595-0.928-11.13-2.188-16.575-3.774c-5.349-1.55-10.625-3.337-15.955-4.948c-5.377-1.689-10.866-2.997-16.426-3.915
			c-5.577-0.849-11.213-1.241-16.853-1.17c-11.271,0.18-22.469,1.839-33.308,4.934c-1.361,0.382-2.716,0.786-4.065,1.21
			C89.435,179.703,89.729,180.788,90.421,180.571L90.421,180.571z"/>
		<path fill="#393944" d="M90.421,209.03c10.937-3.48,22.285-5.504,33.751-6.019c5.745-0.245,11.501-0.019,17.209,0.673
			c5.654,0.748,11.239,1.944,16.703,3.577c5.398,1.564,10.722,3.37,16.102,4.993c5.466,1.67,11.022,3.026,16.642,4.062
			c5.591,1.012,11.238,1.686,16.91,2.016c5.617,0.327,11.288,0.391,16.889-0.208c5.231-0.504,10.355-1.803,15.195-3.853
			c4.514-1.97,8.685-4.647,12.358-7.929c0.916-0.818,1.798-1.672,2.645-2.563c0.5-0.522-0.293-1.318-0.794-0.794
			c-7.159,7.486-16.57,12.128-26.777,13.678c-5.56,0.845-11.227,0.894-16.836,0.676c-5.735-0.222-11.45-0.799-17.113-1.73
			c-5.595-0.928-11.13-2.188-16.575-3.774c-5.349-1.55-10.625-3.337-15.955-4.948c-5.377-1.689-10.866-2.997-16.426-3.915
			c-5.577-0.849-11.213-1.241-16.853-1.17c-11.271,0.18-22.469,1.839-33.308,4.934c-1.361,0.382-2.716,0.786-4.065,1.21
			C89.435,208.162,89.729,209.247,90.421,209.03L90.421,209.03z"/>
		<path fill="#393944" d="M90.421,154.732c10.937-3.48,22.285-5.504,33.751-6.019c5.745-0.245,11.501-0.019,17.209,0.673
			c5.654,0.748,11.239,1.944,16.703,3.577c5.398,1.564,10.722,3.37,16.102,4.993c5.466,1.67,11.022,3.026,16.642,4.063
			c5.591,1.011,11.238,1.685,16.91,2.016c5.617,0.326,11.288,0.39,16.889-0.209c5.231-0.504,10.355-1.803,15.195-3.853
			c4.514-1.97,8.685-4.646,12.358-7.928c0.916-0.819,1.798-1.673,2.645-2.564c0.5-0.522-0.293-1.318-0.794-0.794
			c-7.159,7.486-16.57,12.128-26.777,13.678c-5.56,0.845-11.227,0.894-16.836,0.676c-5.735-0.221-11.45-0.799-17.113-1.73
			c-5.595-0.928-11.13-2.188-16.575-3.773c-5.349-1.551-10.625-3.338-15.955-4.949c-5.377-1.689-10.866-2.997-16.426-3.915
			c-5.577-0.849-11.213-1.241-16.853-1.17c-11.271,0.181-22.469,1.839-33.308,4.934c-1.361,0.382-2.716,0.786-4.065,1.211
			C89.435,153.864,89.729,154.949,90.421,154.732L90.421,154.732z"/>
		<path fill="#393944" d="M89.083,105.88c2.717-1.204,5.83-0.994,8.65-0.296c3.041,0.753,5.904,2.062,8.897,2.967
			c5.358,1.597,11.049,1.705,16.464,0.312c3.048-0.777,5.957-2.024,8.622-3.696c0.61-0.384,0.047-1.357-0.567-0.97
			c-4.75,2.967-10.242,4.533-15.842,4.518c-2.809-0.005-5.603-0.416-8.294-1.222c-2.971-0.891-5.812-2.185-8.822-2.952
			c-3.189-0.813-6.609-0.99-9.675,0.369C87.857,105.202,88.428,106.17,89.083,105.88z"/>
		<path fill="#FF825C" d="M172.529,278.136c9.511,0,17.221-7.712,17.221-17.225c0-9.513-7.71-17.225-17.221-17.225
			c-9.511,0-17.22,7.712-17.22,17.225C155.309,270.424,163.018,278.136,172.529,278.136z"/>
		<path fill="#F2F2F2" d="M79.688,48.964c5.169,0,9.359-4.191,9.359-9.362c0-5.17-4.19-9.362-9.359-9.362s-9.359,4.191-9.359,9.362
			C70.33,44.772,74.52,48.964,79.688,48.964z"/>
		<path fill="#F2F2F2" d="M161.673,72.555c3.514,0,6.364-2.85,6.364-6.366c0-3.516-2.85-6.366-6.364-6.366
			c-3.515,0-6.364,2.85-6.364,6.366C155.309,69.705,158.158,72.555,161.673,72.555z"/>
		<path fill="#F2F2F2" d="M58.35,133.593c3.515,0,6.364-2.85,6.364-6.366s-2.849-6.366-6.364-6.366s-6.364,2.85-6.364,6.366
			S54.835,133.593,58.35,133.593z"/>
		<path fill="#393944" d="M32.727,79.935h-0.702v125.537h0.702V79.935z"/>
		<path fill="#FF825C" d="M32.512,194.713c7.558,0,13.685-13.986,13.685-31.239s-6.127-31.24-13.685-31.24
			c-7.558,0-13.685,13.987-13.685,31.24S24.953,194.713,32.512,194.713z"/>
		<path fill="#FF825C" d="M32.512,123.459c7.558,0,13.685-13.986,13.685-31.239c0-17.253-6.127-31.24-13.685-31.24
			c-7.558,0-13.685,13.986-13.685,31.24C18.826,109.473,24.953,123.459,32.512,123.459z"/>
		<path fill="#393944" d="M32.848,66.698l-0.672-0.202c0.042-0.142,4.168-14.285-2.606-23.389
			c-3.826-5.142-10.392-7.749-19.515-7.749v-0.702c9.359,0,16.115,2.703,20.08,8.035C37.118,52.08,32.891,66.553,32.848,66.698z"/>
		<path fill="#FF825C" d="M10.053,43.782c4.845,0,8.773-3.929,8.773-8.775s-3.928-8.775-8.773-8.775s-8.773,3.929-8.773,8.775
			S5.208,43.782,10.053,43.782z"/>
		<path fill="#393944" d="M288.532,233.92l-6.563,60.401h45.287l1.969-4.596l2.626,4.596h42.662c0,0-3.282-62.37-9.189-64.34
			C359.417,228.011,288.532,233.92,288.532,233.92z"/>
		<path fill="#FECEB8" d="M327.257,101.301c12.687,0,22.972-10.288,22.972-22.979c0-12.691-10.285-22.979-22.972-22.979
			c-12.687,0-22.972,10.288-22.972,22.979C304.285,91.013,314.57,101.301,327.257,101.301z"/>
		<path fill="#FECEB8" d="M314.13,92.766c0,0,1.969,21.009,0,22.322c-1.969,1.313,31.504,0.657,31.504,0.657s-4.594-19.04,0-28.231
			L314.13,92.766z"/>
		<path fill="#AFADBC" d="M325.944,110.492c0,0,16.889,2.631,18.29-2.624l8.62,11.815l0.657,118.176c0,0-70.229,8.535-72.855-5.252
			c-2.625-13.788,26.911-122.772,26.911-122.772l7.435-0.481C315.002,109.354,324.631,110.492,325.944,110.492z"/>
		<path fill="#454554" d="M314.89,103.962l-11.262,3.903l-32.161,7.879l1.313,78.784c0,0-27.566,78.783-15.096,84.692
			c12.471,5.909,30.192-7.878,35.443-17.726c5.251-9.848,23.628-146.407,23.628-149.033S314.89,103.962,314.89,103.962z"/>
		<path fill="#454554" d="M343.811,103.962l4.449,3.903l31.504,14.444l-15.752,79.44c0,0,21.003,72.219,13.127,76.158
			c-7.876,3.939-19.691,15.1-22.316,8.535C352.198,279.877,336.738,111.219,343.811,103.962z"/>
		<path fill="#FECEB8" d="M362.043,208.971c0,0-29.536-12.474-30.192-1.313c-0.656,11.161,33.474,19.04,33.474,15.757
			C365.325,220.132,362.043,208.971,362.043,208.971z"/>
		<path fill="#FECEB8" d="M289.845,204.376c0,0,34.13,25.605,21.003,32.17c-13.127,6.565-30.192-22.979-30.192-22.979
			L289.845,204.376z"/>
		<path fill="#393944" d="M337.455,44.662c0.108-0.228,0.282-0.419,0.499-0.548c0.217-0.129,0.468-0.19,0.721-0.175
			c-10.517-0.629-21.595,0.597-30.394,6.394c-2.464,1.624-4.765,3.609-7.57,4.524l2.277,1.786l-2.721,0.83l4.004,2.589
			c-0.404,0.46-0.923,0.804-1.503,0.999c-0.581,0.194-1.202,0.232-1.802,0.109c1.74,0.509,3.021,2.057,3.672,3.75
			c0.651,1.692,0.768,3.536,0.877,5.346c0.673-2.612,3.522-4.149,6.214-4.305c2.692-0.156,5.317,0.732,7.936,1.371
			c5.705,1.387,11.631,1.615,17.426,0.671c-1.968,3.95-0.308,8.662,1.362,12.747l3.335,8.156c1.852,0.186,3.161-1.656,4.556-2.888
			c1.271-1.123-3.791,8.754-3.007,8.392c1.018-0.47,11.763-12.336,12.266-13.339c2.296-4.574,3.673-9.675,3.466-14.789
			c-0.207-5.114-2.078-10.23-5.602-13.94c-2.392-2.519-5.702-2.96-8.14-5.054c-0.96-0.824-0.964-1.468-2.283-1.948
			C342.606,45.177,337.528,44.501,337.455,44.662z"/>
		<path fill="#454554" d="M276.062,117.714l-4.595-1.97l-36.755,60.401c0,0-6.563,15.757,5.251,22.979
			c11.814,7.221,39.381,28.887,39.381,28.887l15.752-24.292c0,0-32.161-15.1-30.192-21.009c1.969-5.908,12.47-21.665,12.47-21.665
			L276.062,117.714z"/>
		<path fill="#454554" d="M371.232,120.996l8.532,1.313c0,0,35.443,69.593,26.91,82.723c-8.532,13.131-43.319,31.514-43.319,31.514
			s-0.656-21.666-6.563-29.544l20.347-7.879l-11.158-43.331L371.232,120.996z"/>
	</g>
</g>
</svg>
