<?xml version="1.0" encoding="utf-8"?>
<!-- Generator: Adobe Illustrator 17.0.0, SVG Export Plug-In . SVG Version: 6.00 Build 0)  -->
<!DOCTYPE svg PUBLIC "-//W3C//DTD SVG 1.1//EN" "http://www.w3.org/Graphics/SVG/1.1/DTD/svg11.dtd">
<svg version="1.1" id="b3347a10-18dd-4c71-91c3-38a98340ba03"
	 xmlns="http://www.w3.org/2000/svg" xmlns:xlink="http://www.w3.org/1999/xlink" x="0px" y="0px" width="1086px"
	 height="774.364px" viewBox="0 0 1086 774.364" enable-background="new 0 0 1086 774.364" xml:space="preserve">
<title>project_completed</title>
<rect y="719.526" fill="#3F3D56" width="963.51" height="2.241"/>
<path fill="#FFB8B8" d="M604.525,335.81c0,0-43.217,33.956-21.609,41.674s35.5-27.783,35.5-27.783L604.525,335.81z"/>
<path fill="#CFCCE0" d="M606.068,323.463l-9.261,15.435c0,0,15.435,0,18.522,23.152l12.348-15.435L606.068,323.463z"/>
<polygon fill="#FFB8B8" points="811.35,675.375 812.894,721.679 794.372,732.483 786.655,727.853 788.198,675.375 "/>
<path fill="#FFB8B8" d="M701.763,663.027l3.087,49.391l-43.217,18.522l3.087-26.239c0,0,12.348-20.065,9.261-41.674L701.763,663.027
	z"/>
<path fill="#2F2E41" d="M768.133,291.05c0,0,24.696,64.826,29.326,104.956s12.348,146.63,12.348,146.63l15.435,137.369
	l-43.217,6.174l-18.522-138.913l-41.674-137.369l-9.261,137.369l-7.717,125.021l-40.13,1.543l-3.087-129.652l-16.978-165.152
	l9.261-78.717L768.133,291.05z"/>
<path fill="#2F2E41" d="M791.285,724.766c0,0,2.532-25.923,21.331-11.418l3.365-2.473l15.435,33.956
	c0,0,18.522,26.239-13.891,29.326s-29.326-29.326-29.326-29.326l-3.087-13.891l1.543-9.097L791.285,724.766z"/>
<path fill="#2F2E41" d="M701.763,693.896c7.737,4.424,12.465,12.697,12.348,21.609c0,15.435-1.543,16.978-1.543,16.978
	l-23.152,6.174c0,0-15.435-1.543-24.696,7.717s-55.565,15.435-55.565,3.087s38.587-32.413,38.587-32.413
	s11.459-19.352,19.621-17.393s11.249,5.046,11.249,6.589s-4.63,12.348-4.63,12.348S700.22,712.418,701.763,693.896z"/>
<circle fill="#FFB8B8" cx="698.677" cy="62.616" r="38.587"/>
<path fill="#FFB8B8" d="M727.231,72.648l16.978,38.587l-46.304,66.369c0,0-3.087-72.543-12.348-84.891
	S727.231,72.648,727.231,72.648z"/>
<polygon fill="#CFCCE0" points="705.622,152.909 713.34,132.844 719.513,134.387 727.231,128.213 738.035,94.257 753.47,105.061 
	773.535,307.256 648.514,310.343 665.492,169.887 680.927,129.757 692.068,115.028 699.448,137.474 "/>
<path fill="#575A89" d="M741.122,239.343l4.723-139.62c0,0,9.168,0.707,12.255,5.337s54.022,13.891,54.022,13.891l-9.261,143.543
	c0,0,38.587,114.217,24.696,120.391s-38.587,4.63-38.587,4.63L741.122,239.343z"/>
<path fill="#575A89" d="M666.264,221.593l16.374-94.098l-36.439,24.642l9.261,67.913l-7.717,46.304
	c0,0-29.326,128.108-20.065,132.739s20.065,0,20.065,0l18.522-129.652L666.264,221.593L666.264,221.593z"/>
<path fill="#575A89" d="M657.003,149.05l-10.804,3.087l-4.63,61.739l-7.717,54.022l-37.043,66.369c0,0,18.522-12.348,26.239,23.152
	l40.796-71.026L657.003,149.05z"/>
<path fill="#FFB8B8" d="M777.394,323.463c0,0-43.217,33.956-21.609,41.674s35.5-27.783,35.5-27.783L777.394,323.463z"/>
<polygon fill="#CFCCE0" points="803.633,340.441 789.742,357.419 771.22,325.006 778.937,311.115 "/>
<path fill="#575A89" d="M800.546,124.355l12.348-6.174c0,0,9.261,12.348,10.804,23.152s9.261,24.696,9.261,32.413
	s21.609,80.261,21.609,80.261l-49.391,100.326c0,0-10.804-37.043-33.956-40.13l38.587-54.022l-21.609-38.587L800.546,124.355z"/>
<path fill="#2F2E41" d="M730.98,25.851l7.276-2.913c0,0-15.214-16.75-36.382-15.294l5.954-6.554c0,0-14.553-5.826-27.783,9.467
	c-6.955,8.039-15.001,17.489-20.018,28.135h-7.793l3.252,7.161l-11.383,7.161l11.684-1.286c-0.696,3.922-0.803,7.925-0.317,11.878
	c0.501,3.954,2.519,7.559,5.628,10.054l0,0c0,0,9.024-18.679,9.024-21.592v7.283c0,0,7.276-6.554,7.276-10.924l3.969,5.098
	l1.984-8.011l24.475,8.011l-3.969-6.554l15.214,2.185l-5.954-8.011c0,0,17.199,9.467,17.86,17.478s5.696,15.602,5.696,15.602
	S750.163,36.775,730.98,25.851z"/>
<ellipse fill="#FFB8B8" cx="730.318" cy="56.442" rx="4.322" ry="5.402"/>
<polygon fill="#37B079" points="178.601,318.118 45.361,318.118 45.361,280.782 114.91,280.782 "/>
<path fill="#3F3D56" d="M44.995,312.994v109.081H477.66V312.994H44.995z M213.742,403.773H73.181v-15.374h140.561V403.773z
	 M449.475,375.221H73.181v-15.374h376.294V375.221z M449.475,346.67H73.181v-15.374h376.294V346.67z"/>
<polygon fill="#37B079" points="178.601,141.685 45.361,141.685 45.361,104.348 114.91,104.348 "/>
<path fill="#3F3D56" d="M44.995,138.756v109.081H477.66V138.756H44.995z M213.742,229.535H73.181v-15.374h140.561V229.535z
	 M295.004,200.984H73.181V185.61h221.823V200.984z M449.475,172.432H73.181v-15.374h376.294V172.432z"/>
<polygon fill="#37B079" points="178.601,490.891 45.361,490.891 45.361,453.555 114.91,453.555 "/>
<path fill="#3F3D56" d="M44.995,483.57v109.081H477.66V483.57H44.995z M295.004,574.35H73.181v-15.374h221.823V574.35z
	 M295.004,545.798H73.181v-15.374h221.823V545.798z M449.475,517.247H73.181v-15.374h376.294V517.247z"/>
<polygon fill="#3F3D56" points="600.285,223.679 538.789,223.679 538.789,162.183 580.519,162.183 580.519,163.647 540.254,163.647 
	540.254,222.215 598.821,222.215 598.821,192.931 600.285,192.931 "/>
<path fill="#37B079" d="M569.22,207.639c-1.421-4.196-19.242-18.46-8.322-20.857l8.955,11.941l41.172-41.171l4.141,4.141
	L569.22,207.639z"/>
<polygon fill="#3F3D56" points="600.285,397.916 538.789,397.916 538.789,336.42 580.519,336.42 580.519,337.885 540.254,337.885 
	540.254,396.452 598.821,396.452 598.821,367.168 600.285,367.168 "/>
<path fill="#37B079" d="M569.22,381.876c-1.421-4.196-19.242-18.46-8.322-20.857l8.955,11.941l41.172-41.171l4.141,4.141
	L569.22,381.876z"/>
<polygon fill="#3F3D56" points="600.285,571.421 538.789,571.421 538.789,509.926 580.519,509.926 580.519,511.39 540.254,511.39 
	540.254,569.957 598.821,569.957 598.821,540.673 600.285,540.673 "/>
<path fill="#37B079" d="M569.22,555.381c-1.421-4.196-19.242-18.46-8.322-20.857l8.955,11.941l41.172-41.171l4.141,4.141
	L569.22,555.381z"/>
</svg>
