<svg width="567" height="473" viewBox="0 0 567 473" fill="none" xmlns="http://www.w3.org/2000/svg">
<path opacity="0.1" d="M402.975 472.994C434.966 472.994 460.9 470.435 460.9 467.279C460.9 464.123 434.966 461.564 402.975 461.564C370.984 461.564 345.051 464.123 345.051 467.279C345.051 470.435 370.984 472.994 402.975 472.994Z" fill="#CCCED0"/>
<path opacity="0.1" d="M248.24 6.9188C273.751 -2.57195 304.809 5.59043 331.331 17.4949C414.632 54.8926 475.318 125.884 523.534 198.209C540.991 224.398 557.573 251.739 564.136 280.975C577.499 340.48 542.646 402.082 483.372 423.67C463.214 431.018 441.069 434.031 418.89 435.71C379.451 438.7 338.617 437.513 299.494 426.439C271.594 418.526 245.201 405.796 219.888 391.732C149.193 352.435 84.6327 301.403 38.1451 239.066C17.7564 211.725 0.507784 180.901 0.0107721 149.354C-0.48624 117.806 20.055 86.1064 53.8518 80.742C67.8246 78.5262 82.6051 80.8325 97.0241 83.2066C118.254 86.7055 139.773 90.3854 160.76 88.8592C182.442 87.2708 210.642 78.7919 214.596 58.075C218.781 35.832 222.762 16.3982 248.24 6.9188Z" fill="#FDA57D"/>
<path d="M137.819 434.579C137.819 434.579 165.076 432.935 161.862 452.052C161.862 452.052 162.501 455.443 159.439 456.964C159.439 456.964 159.394 455.545 156.644 456.025C155.667 456.193 154.673 456.243 153.684 456.172C152.347 456.08 151.076 455.554 150.064 454.674C150.064 454.674 142.4 451.509 139.423 438.971C139.423 438.971 137.215 436.241 137.305 435.535L141.903 437.502C141.903 437.502 140.333 440.826 141.57 443.584C141.57 443.584 141.716 437.626 142.603 437.762C142.778 437.79 144.992 438.892 144.992 438.892C144.992 438.892 142.287 444.675 144.326 448.881C144.326 448.881 143.552 441.753 145.834 439.311L149.076 441.204C149.076 441.204 145.913 447.179 148.059 452.052C148.059 452.052 147.494 444.573 149.753 441.662L152.69 443.923C152.69 443.923 149.719 449.813 151.532 453.86C151.532 453.86 151.764 445.15 153.323 444.494C153.323 444.494 155.893 446.755 156.282 447.693C156.282 447.693 154.249 451.967 155.508 454.222C155.508 454.222 156.282 448.423 156.92 448.394C156.92 448.394 159.473 452.238 159.744 454.872C159.744 454.872 159.631 450.955 157.536 448.027C157.536 448.027 160.01 448.451 161.456 450.056C161.456 450.056 161.055 447.337 156.909 447.1C156.909 447.1 154.797 444.189 154.226 444.008C154.226 444.008 158.355 443.663 160.857 444.777C160.857 444.777 158.654 442.21 153.47 443.375L150.572 441.012C150.572 441.012 156.011 440.266 158.31 441.091C158.31 441.091 155.661 438.83 149.793 440.475L146.641 438.587C146.641 438.587 151.273 437.587 154.034 437.948C154.034 437.948 151.12 436.377 145.715 438.078L143.456 437.067C143.456 437.067 146.845 436.4 147.844 436.292C148.844 436.185 148.889 435.913 148.889 435.913C146.739 435.553 144.532 435.798 142.513 436.62C142.513 436.62 137.735 434.907 137.819 434.579Z" fill="white"/>
<path opacity="0.1" d="M156.592 461.892C167.247 461.892 175.885 460.432 175.885 458.631C175.885 456.829 167.247 455.369 156.592 455.369C145.937 455.369 137.299 456.829 137.299 458.631C137.299 460.432 145.937 461.892 156.592 461.892Z" fill="#CCCED0"/>
<path d="M101.306 421.719C101.306 421.719 116.674 420.792 114.861 431.572C114.957 432.118 114.877 432.681 114.632 433.179C114.387 433.677 113.991 434.084 113.5 434.341C113.5 434.341 113.472 433.544 111.924 433.816C111.374 433.91 110.815 433.937 110.258 433.895C109.502 433.848 108.783 433.552 108.214 433.053C108.214 433.053 103.899 431.261 102.204 424.195C102.204 424.195 100.962 422.652 101.007 422.256L103.605 423.387C103.605 423.387 102.718 425.263 103.413 426.818C103.413 426.818 103.498 423.455 103.978 423.534C104.08 423.534 105.328 424.184 105.328 424.184C105.328 424.184 103.803 427.445 104.955 429.836C104.955 429.836 104.514 425.817 105.802 424.438L107.626 425.506C107.626 425.506 105.847 428.898 107.062 431.623C107.062 431.623 106.751 427.406 108.016 425.766L109.671 427.055C109.671 427.055 107.977 430.373 109.021 432.657C109.021 432.657 109.151 427.745 110.032 427.377C110.032 427.377 111.478 428.655 111.698 429.181C111.698 429.181 110.569 431.589 111.264 432.86C111.264 432.86 111.698 429.593 112.06 429.576C112.06 429.576 113.5 431.741 113.647 433.228C113.575 431.855 113.147 430.524 112.404 429.367C113.235 429.519 114.003 429.912 114.613 430.498C114.613 430.498 114.392 428.966 112.049 428.83C112.049 428.83 110.857 427.185 110.541 427.089C110.541 427.089 112.868 426.891 114.28 427.519C114.28 427.519 113.037 426.072 110.111 426.727L108.479 425.393C108.479 425.393 111.546 424.975 112.845 425.439C112.845 425.439 111.348 424.161 108.039 425.094L106.265 424.025C107.631 423.727 109.031 423.607 110.428 423.669C110.428 423.669 108.79 422.782 105.74 423.743L104.469 423.178C104.469 423.178 106.384 422.799 106.943 422.742C107.502 422.686 107.536 422.528 107.536 422.528C106.323 422.326 105.077 422.465 103.938 422.929C103.938 422.929 101.261 421.906 101.306 421.719Z" fill="#CCCED0"/>
<path opacity="0.1" d="M111.889 437.117C117.897 437.117 122.767 436.292 122.767 435.274C122.767 434.257 117.897 433.432 111.889 433.432C105.882 433.432 101.012 434.257 101.012 435.274C101.012 436.292 105.882 437.117 111.889 437.117Z" fill="#CCCED0"/>
<path d="M479.38 432.08C479.38 432.08 497.933 430.95 495.759 443.951C495.87 444.611 495.77 445.29 495.474 445.891C495.178 446.492 494.701 446.984 494.109 447.297C494.109 447.297 494.076 446.331 492.206 446.659C491.54 446.772 490.863 446.804 490.19 446.755C489.28 446.695 488.414 446.338 487.727 445.737C487.727 445.737 482.509 443.584 480.481 435.048C480.481 435.048 478.979 433.188 479.041 432.714L482.17 434.048C482.17 434.048 481.102 436.309 481.944 438.191C481.944 438.191 482.046 434.132 482.644 434.234C482.769 434.234 484.271 435.014 484.271 435.014C484.271 435.014 482.43 438.971 483.819 441.797C483.819 441.797 483.294 436.947 484.847 435.285L487.05 436.569C487.05 436.569 484.898 440.639 486.361 443.957C486.361 443.957 485.982 438.869 487.49 436.885L489.489 438.445C489.489 438.445 487.468 442.453 488.699 445.228C488.699 445.228 488.863 439.305 489.924 438.852C489.924 438.852 491.67 440.395 491.935 441.029C491.935 441.029 490.551 443.94 491.41 445.477C491.41 445.477 491.935 441.52 492.37 441.52C492.37 441.52 494.109 444.138 494.29 445.929C494.206 444.273 493.69 442.667 492.794 441.272C493.797 441.462 494.724 441.941 495.459 442.651C495.459 442.651 495.188 440.802 492.359 440.639C492.359 440.639 490.924 438.654 490.54 438.536C490.54 438.536 493.364 438.298 495.058 439.056C495.058 439.056 493.556 437.315 490.026 438.106L488.055 436.495C488.055 436.495 491.754 435.986 493.324 436.546C493.324 436.546 491.517 435.003 487.524 436.128L485.378 434.845C485.378 434.845 488.529 434.166 490.41 434.409C490.41 434.409 488.428 433.341 484.762 434.5L483.226 433.81C483.226 433.81 485.536 433.352 486.214 433.284C486.891 433.217 486.925 433.024 486.925 433.024C485.463 432.78 483.961 432.947 482.588 433.505C482.588 433.505 479.323 432.295 479.38 432.08Z" fill="#CCCED0"/>
<path opacity="0.1" d="M492.155 450.677C499.407 450.677 505.286 449.683 505.286 448.456C505.286 447.229 499.407 446.234 492.155 446.234C484.903 446.234 479.023 447.229 479.023 448.456C479.023 449.683 484.903 450.677 492.155 450.677Z" fill="#CCCED0"/>
<path d="M460.893 294.852C460.537 292.862 460.331 290.848 460.277 288.826C460.277 286.401 456.985 284.253 456.985 284.253C456.985 284.253 454.952 279.545 453.596 278.85C452.241 278.154 448.055 271.993 448.055 271.993C448.007 270.778 447.565 269.611 446.796 268.669C445.542 267.019 444.397 265.29 443.368 263.491C442.803 262.802 443.085 262.316 442.238 258.297C442.193 258.087 442.142 257.884 442.08 257.692C442.08 257.601 442.024 257.522 441.99 257.432C442.889 256.529 443.515 255.391 443.798 254.149C444.081 252.906 444.008 251.609 443.588 250.406C443.436 249.927 443.159 249.498 442.786 249.162C441.832 248.382 440.307 248.704 439.324 247.964L440.369 243.34C440.617 242.209 440.747 240.779 439.759 240.169C439.388 239.993 438.997 239.862 438.595 239.779C436.901 239.213 435.918 237.421 435.478 235.697C435.054 234.037 434.939 232.312 435.139 230.61C435.331 228.971 435.811 227.377 435.986 225.732C436.305 222.689 435.573 219.629 433.913 217.061C433.268 215.952 432.317 215.053 431.174 214.472C430.129 214.003 428.915 213.907 427.938 213.341C425.837 212.002 425.944 208.819 424.267 206.993C422.589 205.168 419.618 205.173 417.173 205.801C414.727 206.428 412.293 207.497 409.786 207.231C408.17 207.05 406.657 206.315 405.036 206.146C404.572 206.101 404.104 206.122 403.646 206.208V206.157C402.449 206.372 401.348 207.039 401.065 208.175C401.002 208.445 400.975 208.723 400.986 209C400.986 209.661 401.144 210.351 401.156 210.984C401.177 211.236 401.147 211.489 401.068 211.729C400.99 211.968 400.864 212.19 400.698 212.38C400.376 212.725 399.902 212.906 399.569 213.262C399.433 213.398 399.326 213.561 399.255 213.74C399.184 213.918 399.151 214.11 399.156 214.302C399.156 215.308 400.41 216.196 401.252 216.603H401.286C401.06 216.829 400.834 217.066 400.625 217.309C398.212 220.036 396.882 223.554 396.886 227.196C396.906 230.138 397.785 233.009 399.415 235.458C401.045 237.906 403.354 239.825 406.058 240.977L405.939 241.344C405.702 242.071 405.424 242.784 405.109 243.481C404.525 243.284 403.905 243.218 403.292 243.286C402.679 243.355 402.089 243.556 401.562 243.877C399.947 245.007 396.79 244.917 395.948 244.708C395.107 244.499 386.347 243.391 385.641 243.668C384.935 243.945 383.54 242.701 382.631 244.363C381.721 246.025 381.298 246.924 380.372 247.342C379.445 247.76 377.847 249.072 378.062 249.349C378.276 249.625 375.746 251.287 375.746 251.287C375.746 251.287 373.571 253.548 372.312 253.848C371.053 254.148 368.387 255.86 368.387 255.86L365.297 258.28C365.297 258.28 362.987 258.63 363.688 257.036C364.388 255.442 362.423 253.435 362.423 253.435C362.423 253.435 358.497 245.471 358.497 243.826C358.497 242.181 355.272 235.166 355.272 235.166L354.877 235.127L354.696 234.612C354.103 232.945 353.335 230.898 352.748 229.7C351.618 227.411 350.924 227.173 350.924 227.173C350.924 227.173 337.324 216.953 328.49 220.068C319.657 223.183 344.615 232.464 346.857 233.436C347.642 233.776 348.207 234.872 348.602 236.155C346.613 237.116 344.938 238.623 343.773 240.502C343.773 240.502 349.173 252.48 349.314 255.459C349.455 258.438 353.03 266.764 353.03 266.764C353.03 266.764 354.363 272.931 361.581 272.581C361.581 272.581 371.538 274.412 373.713 272.581C375.887 270.749 377.847 269.314 378.903 269.104C379.68 268.849 380.362 268.367 380.863 267.72C380.863 267.72 377.57 288.493 375.955 290.296C374.34 292.099 360.067 315.422 365.19 319.594C369.247 322.738 373.535 325.572 378.016 328.073C378.451 328.287 379.756 326.111 381.62 324.568C381.62 324.958 381.62 325.354 381.62 325.772C381.654 334.07 382.749 346.687 384.263 349.513C386.522 353.668 385.596 361.7 385.596 361.7C386.784 362.259 388.073 362.569 389.385 362.61C389.453 362.881 389.532 363.175 389.606 363.458C390.843 368.133 392.848 375.362 393.87 377.284C395.412 380.195 396.53 389.409 396.53 389.409C396.53 389.409 397.445 398.453 397.095 399.725C396.959 400.206 397.552 403.97 398.484 408.769C397.919 415.264 396.846 427.785 396.666 432.313C396.666 432.397 396.666 432.482 396.666 432.561V432.64C396.668 432.691 396.668 432.742 396.666 432.793C396.666 432.895 396.666 432.985 396.666 433.07C396.648 433.355 396.659 433.641 396.699 433.924C396.769 434.355 396.737 434.796 396.603 435.212C396.204 436.464 395.695 437.678 395.084 438.841C394.827 439.413 394.6 439.998 394.406 440.594C393.842 440.842 393.153 441.447 392.769 442.923C392.068 445.624 391.018 453.097 391.018 453.097C391.018 453.097 390.594 457.67 389.758 458.71C388.922 459.75 388.064 466.257 394.034 467.087C400.003 467.918 402.585 463.922 402.585 463.922L402.376 445.788V445.754C402.496 445.602 402.6 445.437 402.686 445.263V445.217C402.726 445.133 402.771 445.042 402.81 444.94L402.861 444.805L402.952 444.584C402.948 444.558 402.948 444.532 402.952 444.505C403.531 442.768 403.705 440.922 403.46 439.107V439.017V438.875C403.46 438.83 403.46 438.779 403.46 438.734V438.451C403.46 438.417 403.46 438.378 403.46 438.344C403.46 438.223 403.471 438.099 403.494 437.971C403.494 437.971 403.494 437.926 403.494 437.903L403.528 437.683V437.586C403.528 437.513 403.528 437.439 403.573 437.36C403.571 437.342 403.571 437.323 403.573 437.304C403.629 437.044 403.697 436.739 403.771 436.49V436.428L403.855 436.156C403.94 435.868 404.036 435.591 404.138 435.286V435.229C404.138 435.139 404.2 435.048 404.234 434.964V434.93C404.335 434.653 404.443 434.364 404.544 434.127L404.573 434.054L404.663 433.827L404.691 433.76L404.906 433.257L406.561 438.372C406.561 438.372 407.476 442.182 406.984 443.081C406.493 443.98 407.549 447.722 408.244 447.789L407.594 452.498C407.243 455.094 407.034 457.708 406.967 460.327C406.922 460.626 406.877 460.892 406.843 461.073C406.391 463.487 407.476 467.229 407.476 467.229C413.011 473.78 419.607 467.738 419.607 467.738C419.607 467.738 420.375 464.272 419.607 463.583C418.839 462.893 419.184 460.395 419.184 460.395C419.184 460.395 419.534 454.228 419.602 449.728C419.669 445.229 415.925 441.249 415.925 441.249L415.716 441.436C415.032 439.672 414.253 437.615 414.417 436.693C414.699 435.099 413.643 418.271 413.643 418.271C414.033 413.76 414.116 409.228 413.892 404.705C413.982 403.942 414.067 403.19 414.151 402.444C414.575 398.826 414.919 395.734 415.055 394.112V393.92C415.089 393.485 415.106 393.174 415.1 393.027C415.1 392.462 415.1 391.817 415.157 391.111C415.287 389.166 415.592 387.001 415.592 387.001L417.06 378.064C417.06 378.064 418.19 373.701 419.799 371.281L419.991 370.976C420.053 370.869 420.116 370.75 420.183 370.626L420.212 370.575C420.274 370.456 420.341 370.332 420.404 370.202L420.432 370.151C420.658 369.704 420.901 369.19 421.155 368.624C421.155 368.579 421.194 368.54 421.211 368.494L421.403 368.065C421.403 368.008 421.448 367.952 421.477 367.895C421.505 367.839 421.595 367.607 421.657 367.466C421.685 367.409 421.71 367.35 421.731 367.29C421.804 367.121 421.883 366.946 421.957 366.765L422.064 366.505C422.115 366.375 422.171 366.245 422.228 366.115L422.363 365.77C422.403 365.685 422.437 365.6 422.471 365.516L422.623 365.125C422.623 365.069 422.674 365.007 422.697 364.95C423.098 363.95 423.482 362.961 423.826 362.062C423.933 361.779 424.041 361.497 424.137 361.248C427.729 361.468 430.169 361.666 430.169 361.666C430.169 361.666 431.298 353.566 430.937 348.235C430.7 344.595 431.377 340.017 431.824 337.495C431.874 337.218 431.92 336.97 431.965 336.744L432.061 336.823C433.817 338.208 435.077 333.635 435.077 333.635C435.077 333.635 434.602 329.367 433.947 324.195L433.879 323.68C434.892 323.897 435.916 324.053 436.946 324.15C436.946 324.15 437.511 324.099 438.285 324.003C440.425 325.243 442.684 326.265 445.028 327.055L448.761 320.159C449.463 318.729 450.285 317.362 451.218 316.072C452.348 314.687 456.335 310.256 456.267 309.425C456.2 308.594 457.6 303.812 459.001 301.664C460.402 299.516 460.961 295.197 460.893 294.852ZM445.328 300.115C443.853 300.736 442.453 304.202 442.385 305.242C442.317 306.282 440.77 310.849 439.16 311.403C437.675 311.912 434.839 314.523 434.388 314.942C433.925 314.981 433.399 315.043 432.851 315.134C432.236 310.764 431.626 307.147 431.236 306.417C430.107 304.337 432.473 297.69 432.473 297.69C432.473 297.69 432.705 290.974 434.167 289.38C435.63 287.786 435.297 283.767 435.297 283.767C435.297 283.767 435.647 282.105 435.788 281.348C435.93 280.591 437.872 281.348 437.889 281.348C437.889 281.348 441.673 283.423 442.238 286.537C442.803 289.652 446.937 295.056 446.937 295.056C446.937 295.056 446.305 296.927 446.937 297.882C447.57 298.837 446.802 299.493 445.328 300.115Z" fill="url(#paint0_linear)"/>
<path d="M343.932 240.926C345.083 239.026 346.769 237.507 348.778 236.56C350.787 235.613 353.03 235.28 355.227 235.602V243.691H350.319L346.479 242.718L343.932 240.926Z" fill="#4C4981"/>
<path opacity="0.1" d="M343.932 240.926C345.083 239.026 346.769 237.507 348.778 236.56C350.787 235.613 353.03 235.28 355.227 235.602V243.691H350.319L346.479 242.718L343.932 240.926Z" fill="black"/>
<path d="M355.594 237.744L349.579 241.961C349.579 241.961 349.528 241.118 349.376 239.965C349.076 237.783 348.404 234.51 346.953 233.877C344.744 232.905 320.159 223.646 328.88 220.532C337.6 217.417 350.98 227.626 350.98 227.626C350.98 227.626 351.669 227.863 352.77 230.141C353.335 231.339 354.109 233.38 354.69 235.047C355.227 236.551 355.594 237.744 355.594 237.744Z" fill="#AE6E79"/>
<path d="M403.647 244.238L404.331 243.916L406.251 246.109L404.681 249.461L402.004 248.387L402.625 245.708L403.647 244.238Z" fill="#4C4981"/>
<path d="M394.549 440.56C394.549 440.56 392.821 440.357 392.132 443.053C391.443 445.749 390.404 453.228 390.404 453.228C390.404 453.228 389.991 457.789 389.161 458.829C388.331 459.869 387.506 466.364 393.374 467.19C399.242 468.015 401.801 464.03 401.801 464.03L401.592 445.902L394.549 440.56Z" fill="#444053"/>
<path d="M415.028 441.373C415.028 441.373 418.722 445.33 418.654 449.818C418.586 454.306 418.236 460.462 418.236 460.462C418.236 460.462 417.897 462.955 418.654 463.644C419.411 464.334 418.654 467.793 418.654 467.793C418.654 467.793 412.159 473.825 406.703 467.285C406.703 467.285 405.641 463.548 406.082 461.14C406.522 458.732 407.753 447.907 407.753 447.907L415.028 441.373Z" fill="#444053"/>
<path d="M424.177 358.715C424.177 358.715 420.449 369.15 418.857 371.569C417.264 373.989 416.168 378.353 416.168 378.353L414.717 387.267C414.433 389.26 414.271 391.268 414.231 393.281C414.299 395.288 410.639 424.523 410.639 424.523L404.839 431.922C404.839 431.922 402.286 437.106 402.698 439.271C403.11 441.436 402.421 444.873 401.569 445.907C401.569 445.907 401.433 452.69 401.224 454.199C401.015 455.709 401.987 460.01 401.224 460.768C400.462 461.525 390.312 461.186 390.036 459.937C389.759 458.688 391.278 452.679 391.278 452.679L392.176 446.874C392.176 446.874 393.972 443.697 393.56 442.657C393.148 441.617 394.317 439.203 394.384 438.994C394.452 438.785 396.322 435.399 395.977 434.087C395.633 432.776 398.152 404.886 398.152 404.886L405.262 354.911L424.177 358.715Z" fill="#AE6E79"/>
<path opacity="0.1" d="M424.177 358.715C424.177 358.715 423.612 360.286 422.838 362.349C421.607 365.605 419.834 370.088 418.857 371.569C417.27 373.988 416.163 378.352 416.163 378.352L414.711 387.272C414.431 389.265 414.27 391.274 414.231 393.286C414.231 394.078 413.7 399.125 413.022 404.942C411.978 413.834 410.639 424.528 410.639 424.528L404.839 431.928C404.839 431.928 404.545 432.493 404.178 433.386C403.449 435.082 402.421 437.835 402.698 439.253C403.11 441.396 402.421 444.849 401.569 445.89C401.569 445.89 401.427 452.673 401.224 454.182C401.021 455.691 401.987 459.987 401.224 460.75C400.462 461.513 390.312 461.169 390.036 459.925C389.759 458.681 391.278 452.667 391.278 452.667L392.176 446.856C392.176 446.856 393.972 443.679 393.554 442.639C393.136 441.599 394.317 439.186 394.384 438.976C394.452 438.767 396.322 435.381 395.977 434.07C395.712 433.069 397.107 416.694 397.756 408.927C397.977 406.485 398.118 404.897 398.118 404.897L404.234 361.903L404.731 358.438L405.228 354.922L424.177 358.715Z" fill="black"/>
<path d="M417.965 462.672C418.027 463.435 408.222 464.543 406.822 463.712C405.421 462.881 406.822 452.582 406.822 452.582L407.46 447.885C406.776 447.811 405.737 444.081 406.217 443.182C406.697 442.283 405.805 438.485 405.805 438.485L404.178 433.397L403.184 430.283C401.569 426.716 399.231 416.541 397.779 408.944C396.864 404.173 396.283 400.414 396.413 399.934C396.757 398.69 395.848 389.635 395.848 389.635C395.848 389.635 394.718 380.438 393.227 377.538C392.216 375.616 390.245 368.398 389.025 363.74C388.404 361.349 387.975 359.631 387.975 359.631C387.975 359.631 398.412 358.754 404.743 358.449C407.652 358.308 409.696 358.291 409.459 358.528C409.222 358.766 409.16 360.032 409.171 361.863C409.199 366.606 409.86 374.949 410.56 377.193C411.526 380.302 412.492 389.629 412.08 390.533C411.667 391.438 411.803 397.447 411.803 397.447C412.515 399.888 412.924 402.407 413.023 404.948C413.244 409.449 413.165 413.961 412.786 418.452C412.786 418.452 413.819 435.251 413.543 436.84C413.266 438.428 415.751 443.408 415.751 444.375C415.751 445.341 416.44 451.91 416.44 451.91C416.44 451.91 417.92 461.915 417.965 462.672Z" fill="#AE6E79"/>
<path d="M423.415 260.762L422.229 262.045L421.455 262.881L416.937 267.743L405.263 269.06L399.05 267.398L397.514 266.985C397.514 266.985 397.514 263.865 397.79 260.123C398.186 255.324 399.129 249.496 401.382 247.907C402.511 247.023 403.411 245.882 404.009 244.578C404.459 243.679 404.837 242.745 405.138 241.786C405.183 241.661 405.217 241.543 405.257 241.418C405.765 239.743 406.132 238.028 406.353 236.291C406.353 236.291 407.844 235.466 409.916 234.505C415.321 231.978 424.657 228.491 421.41 236.291C420.932 237.434 420.525 238.604 420.19 239.796C420.139 239.971 420.094 240.146 420.054 240.316C418.97 244.657 419.687 247.291 420.495 248.744C420.631 248.996 420.788 249.236 420.964 249.462C421.184 249.765 421.449 250.034 421.749 250.259L423.093 258.8L423.206 259.507L423.415 260.762Z" fill="#AE6E79"/>
<path opacity="0.1" d="M421.416 236.709C420.8 238.19 421.715 235.5 421.416 236.709C418.954 238.462 413.153 243.453 409.894 243.453C407.692 243.453 407.031 243.052 405.145 242.198C405.715 240.409 406.122 238.572 406.359 236.709C406.359 236.709 425.906 225.924 421.416 236.709Z" fill="black"/>
<path d="M426.39 227.626C426.387 231.348 425.008 234.938 422.519 237.705C420.03 240.471 416.607 242.219 412.908 242.611C412.389 242.662 411.863 242.695 411.333 242.695C408.355 242.695 405.443 241.812 402.967 240.156C400.491 238.5 398.561 236.146 397.422 233.393C396.282 230.639 395.984 227.609 396.565 224.686C397.146 221.762 398.58 219.077 400.686 216.97C402.791 214.862 405.474 213.427 408.395 212.845C411.316 212.264 414.343 212.562 417.095 213.703C419.846 214.843 422.198 216.775 423.852 219.253C425.507 221.731 426.39 224.645 426.39 227.626Z" fill="#AE6E79"/>
<path opacity="0.1" d="M428.532 294.428L426.386 300.029C426.386 300.029 424.641 300.103 421.918 300.188C412.729 300.482 392.482 300.855 391.578 298.492C391.376 297.893 391.269 297.265 391.262 296.632C391.143 293.031 392.821 287.503 392.821 287.503C392.821 287.503 393.786 276.441 393.786 275.961C393.786 275.48 392.956 267.73 392.956 267.73L394.617 261.512L399.242 258.262C399.242 258.262 401.315 261.445 402.558 261.716C403.8 261.987 405.461 263.519 405.461 263.519C405.461 263.519 409.533 266.006 410.849 264.621C412.165 263.237 422.382 257.154 422.382 257.154L427.77 263.101L428.532 294.428Z" fill="black"/>
<path d="M428.531 295.287L426.385 300.883C426.385 300.883 424.639 300.962 421.917 301.047H421.652C420.477 301.087 419.133 301.126 417.698 301.155C410.396 301.324 400.337 301.369 395.078 300.589C393.102 300.307 391.808 299.9 391.594 299.346C391.475 299.013 391.391 298.668 391.345 298.317C391.311 298.057 391.289 297.752 391.277 297.486C391.159 293.885 392.836 288.357 392.836 288.357C392.836 288.357 393.802 277.295 393.802 276.814C393.802 276.334 392.972 268.584 392.972 268.584L394.632 262.366L397.812 260.139L399.258 259.122C399.744 259.85 400.274 260.549 400.845 261.213C401.291 261.812 401.887 262.282 402.573 262.575C403.821 262.852 405.476 264.379 405.476 264.379C405.476 264.379 409.548 266.866 410.864 265.481C411.864 264.424 418.077 260.62 420.946 258.884C421.827 258.347 422.397 258.014 422.397 258.014L423.12 258.816L427.785 263.96L428.531 295.287Z" fill="white"/>
<path opacity="0.1" d="M355.595 237.743L349.58 241.96C349.58 241.96 349.529 241.118 349.377 239.965C352.348 238.71 354.155 235.934 354.675 235.047C355.228 236.55 355.595 237.743 355.595 237.743Z" fill="black"/>
<path d="M376.729 252.056L375.419 251.706C375.419 251.706 373.273 253.967 372.03 254.267C370.788 254.566 368.167 256.268 368.167 256.268L365.123 258.687C365.123 258.687 362.864 259.037 363.536 257.443C364.208 255.849 362.294 253.848 362.294 253.848C362.294 253.848 358.425 245.901 358.425 244.239C358.425 242.577 355.228 235.602 355.228 235.602C355.228 235.602 351.218 243.413 343.898 240.926C343.898 240.926 349.219 252.882 349.354 255.855C349.49 258.828 353.014 267.121 353.014 267.121C353.014 267.121 354.33 273.276 361.441 272.931C361.441 272.931 371.251 274.757 373.392 272.931C375.532 271.106 377.464 269.67 378.475 269.461C379.486 269.252 380.406 268.082 380.406 268.082V259.863L376.729 252.056Z" fill="#4C4981"/>
<path opacity="0.1" d="M364.434 259.862C364.434 259.862 366.162 266.295 365.055 266.985L364.434 259.862Z" fill="black"/>
<path opacity="0.1" d="M421.918 301.019C412.729 301.313 392.482 301.681 391.578 299.324C391.375 298.724 391.269 298.097 391.262 297.464L421.28 299.047L421.918 301.019Z" fill="black"/>
<path opacity="0.1" d="M424.176 358.715C424.176 358.715 423.611 360.287 422.837 362.35C419.025 362.118 413.976 361.875 409.181 361.841C407.486 361.841 405.826 361.841 404.256 361.898C400.924 362 398.043 362.271 396.208 362.791C393.887 363.506 391.461 363.82 389.035 363.718C388.414 361.327 387.984 359.608 387.984 359.608C387.984 359.608 398.422 358.732 404.753 358.427L405.25 354.911L424.176 358.715Z" fill="black"/>
<path d="M432.259 333.414L431.084 335.901C431.084 335.901 430.92 336.641 430.711 337.817C430.27 340.349 429.581 344.917 429.841 348.557C430.186 353.882 429.079 361.965 429.079 361.965C429.079 361.965 403.663 359.823 396.208 361.965C388.753 364.107 385.082 361.965 385.082 361.965C385.082 361.965 385.986 353.95 383.772 349.801C382.264 346.974 381.202 334.358 381.168 326.06C381.168 322.233 381.36 319.333 381.84 318.745C383.359 316.88 389.849 298.215 389.849 298.215L391.328 298.294L395.282 298.503L417.76 299.69L421.29 299.877L421.663 301.007L432.259 333.414Z" fill="#444053"/>
<path d="M443.447 325.116L443.656 327.332C443.656 327.332 432.524 323.703 433.089 319.243C433.654 314.783 433.089 315.287 433.089 315.287L442.035 316.044L443.447 325.116Z" fill="#4C4981"/>
<path opacity="0.1" d="M443.447 325.116L443.656 327.332C443.656 327.332 432.524 323.703 433.089 319.243C433.654 314.783 433.089 315.287 433.089 315.287L442.035 316.044L443.447 325.116Z" fill="black"/>
<path opacity="0.1" d="M371.861 261.648C372.997 262.615 374.337 263.312 375.78 263.689C375.362 263.598 374.974 263.404 374.651 263.123C373.854 262.558 373.097 261.942 372.329 261.343C371.708 260.857 370.934 260.048 370.172 259.851C370.671 260.507 371.237 261.109 371.861 261.648Z" fill="black"/>
<path opacity="0.1" d="M372.03 264.56C372.388 264.964 372.678 265.424 372.888 265.922C373.245 267.329 373.223 268.805 372.826 270.201L371.041 265.894C370.731 265.159 370.42 264.424 370.047 263.723C369.884 263.424 368.856 262.174 368.974 261.914C369.291 261.179 371.697 264.147 372.03 264.56Z" fill="black"/>
<path opacity="0.1" d="M421.828 288.414C423.045 288.267 424.183 287.734 425.075 286.894C423.24 287.125 421.5 287.849 419.693 288.228C418.015 288.618 416.256 288.455 414.678 287.764C416.756 288.782 419.614 288.815 421.828 288.414Z" fill="black"/>
<path opacity="0.1" d="M416.637 275.757C416.308 275.806 415.973 275.723 415.706 275.525C414.327 274.734 412.968 273.909 411.628 273.049C410.323 272.207 408.747 271.354 407.635 270.291C410.374 272.767 412.927 274.858 416.637 275.757Z" fill="black"/>
<path opacity="0.1" d="M420.467 290.42C421.19 290.453 421.915 290.394 422.624 290.245C423.341 290.096 423.975 289.68 424.398 289.081C424.141 289.022 423.872 289.064 423.647 289.199C421.458 290.121 419.055 290.409 416.711 290.03C417.835 290.511 419.275 290.415 420.467 290.42Z" fill="black"/>
<path opacity="0.1" d="M407.386 322.516C405.948 322.95 404.47 323.24 402.975 323.381C401.811 323.435 400.645 323.412 399.485 323.313L393.837 322.957L391.013 322.776C390.68 322.776 389.318 322.776 389.991 322.104C390.329 321.776 392.216 321.985 392.702 321.968C393.639 321.938 394.58 321.921 395.525 321.917C397.395 321.917 399.27 321.917 401.139 322.03C403.235 322.132 405.296 322.29 407.386 322.516Z" fill="black"/>
<path opacity="0.1" d="M400.84 325.314C399.88 325.274 398.643 325.845 397.654 325.969C396.549 326.1 395.434 326.144 394.322 326.099C392.121 326.047 389.946 325.603 387.9 324.788C392.21 325.009 396.53 325.139 400.84 325.314Z" fill="black"/>
<path opacity="0.1" d="M388.742 328.276C389.16 328.36 389.571 328.473 389.973 328.615C392.357 329.293 394.893 328.694 397.315 328.095C396.711 329.005 395.621 329.395 394.531 329.644C392.758 330.093 390.91 330.161 389.109 329.841C388.544 329.728 387.127 329.525 386.85 328.937C386.387 328.072 388.211 328.191 388.742 328.276Z" fill="black"/>
<path opacity="0.1" d="M402.105 332.736C402.82 332.882 403.525 333.071 404.218 333.301C406.9 333.968 409.685 333.052 412.379 332.436C415.617 331.7 418.938 331.392 422.257 331.52C421.664 331.52 420.721 332.041 420.139 332.216C419.376 332.448 418.603 332.662 417.829 332.855C416.31 333.228 414.768 333.533 413.215 333.753C410.079 334.207 406.906 334.345 403.743 334.166C402.297 334.087 399.79 334.234 398.553 333.505C399.622 332.869 400.869 332.599 402.105 332.736Z" fill="black"/>
<path opacity="0.1" d="M403.116 247.483C403.116 247.483 403.251 253.848 402.218 256.753C401.89 257.658 401.382 259.325 400.828 261.196C400.224 263.271 399.563 265.594 399.055 267.414C398.546 269.234 398.208 270.455 398.208 270.455C398.208 270.455 395.875 289.471 395.271 298.532C395.271 298.69 395.271 298.854 395.237 299.007C395.203 299.515 395.146 300.047 395.062 300.595C393.718 309.594 385.963 323.471 383.359 324.579C382.547 324.952 381.806 325.463 381.168 326.088C381.168 322.261 381.36 319.362 381.84 318.774C383.359 316.908 389.849 298.243 389.849 298.243L391.328 298.323C391.295 298.063 391.272 297.757 391.261 297.492C391.142 293.891 392.819 288.363 392.819 288.363C392.819 288.363 393.785 277.301 393.785 276.82C393.785 276.34 392.955 268.59 392.955 268.59L394.616 262.372L397.795 260.145C398.191 255.346 399.134 249.518 401.387 247.93C402.516 247.045 403.416 245.904 404.014 244.6C404.46 244.662 403.646 244.267 403.646 244.267L403.116 247.483Z" fill="black"/>
<path d="M404.331 243.917C403.755 243.72 403.143 243.653 402.539 243.721C401.934 243.79 401.352 243.992 400.835 244.312C399.242 245.443 396.136 245.347 395.306 245.143C394.475 244.94 385.846 243.826 385.14 244.103C384.434 244.38 383.067 243.137 382.169 244.798C381.271 246.46 380.858 247.353 379.96 247.766C379.062 248.179 377.47 249.496 377.701 249.773C377.933 250.05 375.442 251.706 375.442 251.706L380.48 268.099C380.48 268.099 377.233 288.832 375.645 290.63C374.058 292.427 359.967 315.722 365.011 319.871C369.003 323.013 373.229 325.848 377.65 328.35C378.215 328.627 380.203 324.896 382.965 323.72C385.727 322.545 394.295 306.989 394.826 298.142C395.356 289.296 397.796 269.597 397.796 269.597C397.796 269.597 400.767 258.811 401.801 255.906C402.834 253 402.699 246.636 402.699 246.636L404.331 243.917Z" fill="#4C4981"/>
<path opacity="0.1" d="M432.26 333.414L431.085 335.901C431.085 335.901 430.922 336.642 430.713 337.817C430.503 337.791 430.306 337.702 430.148 337.563C428.42 336.178 418.287 325.743 417.785 316.479C417.429 309.645 417.598 303.755 417.711 301.132C417.745 300.307 417.779 299.809 417.779 299.702C417.779 299.702 425.652 290.16 424.754 286.78C423.856 283.4 421.783 265.3 421.783 265.3L421.478 262.926L420.953 258.912L419.699 249.201L420.998 249.506C421.219 249.81 421.483 250.078 421.783 250.303L423.127 258.845L427.793 263.988L428.555 295.304L426.409 300.9C426.409 300.9 424.664 300.979 421.941 301.064H421.676L432.26 333.414Z" fill="black"/>
<path d="M436.607 281.721C436.607 281.721 434.675 280.958 434.54 281.721C434.404 282.484 434.054 284.135 434.054 284.135C434.054 284.135 434.398 288.148 432.924 289.737C431.45 291.325 431.23 298.029 431.23 298.029C431.23 298.029 428.903 304.665 430.004 306.74C430.405 307.492 431.027 311.262 431.648 315.784C432.043 318.61 432.433 321.714 432.778 324.551C433.404 329.706 433.873 333.974 433.873 333.974C433.873 333.974 432.625 338.536 430.897 337.151C429.169 335.766 419.036 325.331 418.539 316.067C418.2 309.56 418.336 303.908 418.449 301.121C418.494 299.94 418.539 299.273 418.539 299.273C418.539 299.273 426.412 289.731 425.514 286.345C424.616 282.959 422.544 264.865 422.544 264.865L422.182 262.067L421.792 259.06L421.702 258.399L420.454 248.789C420.674 248.84 428.423 250.592 429.445 251.615C430.468 252.638 436.788 254.103 436.788 254.103C437.741 254.361 438.607 254.871 439.296 255.579C439.986 256.287 440.473 257.167 440.707 258.127C440.769 258.319 440.814 258.523 440.86 258.732C441.69 262.745 441.424 263.226 441.989 263.921C442.554 264.616 436.607 281.721 436.607 281.721Z" fill="#4C4981"/>
<path opacity="0.1" d="M432.825 324.546C430.001 323.98 425.81 322.675 425.906 319.792C425.991 317.095 429.233 316.123 431.689 315.778C432.085 318.593 432.474 321.708 432.825 324.546Z" fill="black"/>
<path d="M441.584 323.11C441.471 323.353 441.019 323.562 440.375 323.748C438.865 324.108 437.33 324.359 435.784 324.5C435.784 324.5 426.182 323.737 426.318 319.379C426.419 316.253 430.757 315.422 433.191 315.236C433.73 315.185 434.271 315.163 434.812 315.168C434.812 315.168 441.996 322.217 441.584 323.11Z" fill="#AE6E79"/>
<path opacity="0.1" d="M441.584 323.11C441.471 323.353 441.019 323.562 440.376 323.748C437.874 320.396 434.383 316.095 432.672 315.716L433.191 315.236C433.73 315.185 434.271 315.163 434.812 315.168C434.812 315.168 441.997 322.217 441.584 323.11Z" fill="black"/>
<path d="M439.167 263.457L441.991 263.875C443.01 265.673 444.142 267.404 445.38 269.059C446.138 270.003 446.574 271.166 446.622 272.377C446.622 272.377 450.768 278.527 452.078 279.217C453.388 279.906 455.393 284.609 455.393 284.609C455.393 284.609 458.641 286.751 458.641 289.171C458.698 291.188 458.906 293.199 459.262 295.185C459.335 295.53 458.782 299.82 457.398 301.968C456.015 304.116 454.631 308.853 454.704 309.701C454.778 310.549 450.835 314.958 449.734 316.337C448.815 317.627 448.006 318.992 447.317 320.418L443.657 327.332C443.657 327.332 435.919 315.925 433.09 315.303C433.09 315.303 436.264 312.262 437.851 311.708C439.438 311.154 440.963 306.62 441.031 305.558C441.099 304.495 442.482 301.064 443.928 300.47C445.374 299.877 446.142 299.227 445.521 298.255C444.9 297.282 445.521 295.428 445.521 295.428C445.521 295.428 441.443 290.036 440.89 286.949C440.336 283.863 436.608 281.766 436.608 281.766L434.468 276.509L439.167 263.457Z" fill="#4C4981"/>
<path opacity="0.1" d="M449.44 289.262C451.003 287.941 452.97 287.195 455.014 287.147C453.704 287.374 452.326 287.662 451.366 288.578C450.989 288.974 450.65 289.406 450.355 289.866C450.027 290.336 447.362 293.727 446.966 293.19C446.305 292.404 448.903 289.719 449.44 289.262Z" fill="black"/>
<path opacity="0.1" d="M443.182 285.988C443.604 285.952 444.01 285.803 444.356 285.558C444.703 285.312 444.978 284.979 445.153 284.592C445.489 283.813 445.697 282.985 445.768 282.139C445.97 280.723 446.255 279.321 446.621 277.939C446.731 277.666 446.777 277.371 446.757 277.077C446.736 276.784 446.649 276.498 446.503 276.243C446.351 275.802 446.146 275.38 445.893 274.988C445.384 275.554 445.237 276.871 445.028 277.628C444.769 278.566 444.531 279.51 444.306 280.454C444.187 280.907 443.249 285.988 443.182 285.988Z" fill="black"/>
<path opacity="0.1" d="M440.736 258.082C440.458 258.446 440.138 258.776 439.782 259.065C438.652 259.964 437.156 260.721 437.014 262.14C437.054 262.601 436.996 263.065 436.845 263.502C436.484 264.124 435.597 264.068 434.891 263.949C434.295 263.895 433.724 263.685 433.236 263.339C432.496 262.705 432.428 261.575 431.864 260.778C431.52 260.367 431.087 260.04 430.597 259.823C430.108 259.607 429.575 259.506 429.04 259.529C427.984 259.495 426.933 259.732 425.877 259.777C425.198 259.812 424.518 259.766 423.849 259.642C423.629 259.608 423.41 259.563 423.194 259.506C422.722 259.39 422.261 259.233 421.816 259.037C421.586 258.945 421.361 258.84 421.144 258.72C420.437 258.357 419.782 257.901 419.195 257.364C418.162 256.414 417.303 255.103 417.388 253.695C417.439 252.83 417.829 252.033 417.953 251.18C418.377 248.738 416.756 246.432 414.999 244.685C414.299 243.99 413.553 243.317 412.853 242.61C411.762 241.604 410.901 240.374 410.328 239.004C409.857 237.546 409.703 236.004 409.876 234.482C410.035 232.939 410.079 231.385 410.006 229.835C409.487 224.341 404.799 220.13 400.111 217.841L399.902 217.733C401.293 216.136 403.005 214.85 404.926 213.96C406.847 213.07 408.934 212.595 411.05 212.567C413.167 212.539 415.266 212.958 417.21 213.796C419.154 214.635 420.899 215.875 422.331 217.435C423.764 218.995 424.852 220.839 425.524 222.849C426.195 224.858 426.436 226.986 426.23 229.095C426.025 231.203 425.377 233.245 424.329 235.086C423.281 236.927 421.857 238.526 420.15 239.778C420.099 239.954 420.054 240.129 420.014 240.298C418.93 244.64 419.647 247.274 420.455 248.727C420.675 248.777 428.424 250.53 429.446 251.553C430.469 252.576 436.789 254.04 436.789 254.04C437.749 254.296 438.623 254.806 439.318 255.518C440.012 256.229 440.503 257.115 440.736 258.082Z" fill="black"/>
<path d="M398.909 213.748C399.219 213.392 399.688 213.211 400.004 212.866C400.981 211.804 400.004 210.068 400.36 208.666C400.744 207.112 402.653 206.434 404.246 206.598C405.838 206.761 407.33 207.496 408.922 207.677C411.396 207.954 413.791 206.88 416.202 206.253C418.614 205.625 421.528 205.591 423.189 207.44C424.849 209.288 424.736 212.437 426.803 213.776C427.758 214.393 428.961 214.46 429.994 214.907C431.125 215.488 432.063 216.385 432.694 217.49C434.33 220.062 435.051 223.111 434.739 226.144C434.564 227.784 434.089 229.378 433.897 231.017C433.702 232.719 433.817 234.443 434.236 236.104C434.671 237.8 435.614 239.631 437.303 240.174C437.693 240.26 438.072 240.391 438.432 240.564C439.409 241.175 439.279 242.61 439.031 243.73L438.026 248.37C438.991 249.105 440.494 248.789 441.414 249.563C441.783 249.9 442.056 250.33 442.205 250.807C442.659 252.105 442.708 253.51 442.346 254.836C441.984 256.163 441.228 257.348 440.177 258.234C439.048 259.133 437.551 259.891 437.41 261.304C437.453 261.765 437.395 262.23 437.241 262.666C436.885 263.288 435.992 263.231 435.286 263.112C434.693 263.058 434.124 262.847 433.637 262.502C432.892 261.869 432.83 260.738 432.265 259.941C431.921 259.531 431.488 259.204 430.998 258.988C430.509 258.771 429.976 258.67 429.441 258.692C428.379 258.658 427.334 258.896 426.272 258.947C423.824 259.047 421.433 258.182 419.614 256.539C418.574 255.583 417.722 254.277 417.801 252.864C417.851 252.005 418.241 251.202 418.365 250.349C418.783 247.913 417.168 245.601 415.412 243.854C413.655 242.107 411.594 240.496 410.735 238.173C409.662 235.296 410.701 232.085 410.413 229.033C409.894 223.533 405.212 219.327 400.518 217.032C399.473 216.495 397.694 215.133 398.909 213.748Z" fill="#444053"/>
<path opacity="0.1" d="M435.845 261.219C435.1 260.58 435.038 259.456 434.473 258.659C434.129 258.247 433.696 257.921 433.206 257.703C432.717 257.486 432.184 257.383 431.649 257.404C430.587 257.37 429.537 257.607 428.48 257.658C426.022 257.766 423.621 256.899 421.799 255.244C420.76 254.295 419.913 252.983 419.992 251.576C420.042 250.711 420.432 249.908 420.556 249.06C420.98 246.618 419.359 244.307 417.603 242.56C415.846 240.813 413.79 239.202 412.926 236.879C411.859 234.007 412.926 230.797 412.61 227.739C412.085 222.239 407.403 218.033 402.715 215.738C401.619 215.201 399.84 213.839 401.054 212.454C401.359 212.098 401.828 211.917 402.144 211.572C403.121 210.515 402.144 208.774 402.506 207.378C402.575 207.1 402.696 206.837 402.862 206.604C401.681 206.824 400.603 207.491 400.314 208.622C399.97 210.023 400.936 211.759 399.959 212.821C399.642 213.166 399.174 213.347 398.863 213.698C397.649 215.082 399.428 216.45 400.523 216.982C405.217 219.277 409.899 223.488 410.418 228.982C410.707 232.04 409.667 235.251 410.74 238.128C411.599 240.446 413.66 242.085 415.417 243.809C417.173 245.533 418.806 247.862 418.371 250.304C418.133 251.13 417.944 251.97 417.806 252.819C417.727 254.227 418.58 255.538 419.619 256.488C421.439 258.143 423.838 259.011 426.295 258.902C427.356 258.851 428.401 258.619 429.463 258.647C429.998 258.627 430.531 258.73 431.02 258.947C431.51 259.165 431.943 259.491 432.287 259.902C432.852 260.699 432.914 261.83 433.659 262.463C434.146 262.806 434.715 263.015 435.309 263.068C436.015 263.198 436.907 263.243 437.263 262.627C437.39 262.375 437.444 262.093 437.421 261.813C436.853 261.757 436.309 261.552 435.845 261.219Z" fill="black"/>
<path d="M292.359 229.625H253.292V191.097H292.387L292.359 229.625ZM291.794 171.533H253.857C253.857 111.661 310.72 115.16 310.72 77.2817C310.72 56.4179 293.658 39.7031 272.811 39.7031C251.965 39.7031 234.909 57.7236 234.909 77.8752H197C196.983 67.9064 198.932 58.0322 202.736 48.8188C206.54 39.6055 212.123 31.2343 219.167 24.1852C226.21 17.1362 234.574 11.5479 243.779 7.74088C252.985 3.93387 262.851 1.98299 272.811 2.00011C314.685 2.00011 348.623 35.4354 348.623 77.2817C348.623 124.645 291.766 130.038 291.766 171.533H291.794Z" fill="white" fill-opacity="0.7"/>
<path opacity="0.1" d="M158.783 216.15H148.708V206.19H158.783V216.15ZM158.631 201.171H148.86C148.86 185.739 163.516 186.638 163.516 176.865C163.511 175.586 163.254 174.321 162.76 173.141C162.266 171.962 161.545 170.892 160.638 169.991C159.73 169.091 158.655 168.378 157.472 167.894C156.29 167.41 155.023 167.164 153.746 167.17C151.165 167.23 148.708 168.288 146.891 170.122C145.073 171.956 144.036 174.423 143.997 177.006H134.227C134.291 171.874 136.369 166.973 140.011 163.359C143.653 159.746 148.568 157.71 153.696 157.69C158.824 157.67 163.755 159.667 167.425 163.252C171.095 166.837 173.211 171.722 173.315 176.853C173.287 189.063 158.631 190.453 158.631 201.148V201.171Z" fill="white"/>
<path opacity="0.1" d="M235.075 285.344H224.999V275.413H235.075V285.344ZM234.928 270.371H225.157C225.157 254.933 239.813 255.838 239.813 246.064C239.808 244.786 239.551 243.521 239.057 242.342C238.563 241.163 237.842 240.093 236.934 239.193C236.027 238.293 234.951 237.581 233.769 237.098C232.586 236.614 231.32 236.369 230.042 236.376C227.451 236.422 224.98 237.476 223.151 239.314C221.322 241.152 220.28 243.629 220.243 246.223H210.473C210.537 241.09 212.615 236.189 216.257 232.576C219.899 228.963 224.814 226.926 229.942 226.906C235.07 226.886 240.001 228.884 243.671 232.469C247.341 236.054 249.457 240.939 249.561 246.07C249.578 258.28 234.928 259.676 234.928 270.371Z" fill="#CCCED0"/>
<path opacity="0.1" d="M281.466 162.852H274.163V155.667H281.466V162.852ZM281.359 151.993H274.276C274.276 140.812 284.9 141.462 284.9 134.385C284.895 133.459 284.709 132.542 284.35 131.688C283.992 130.834 283.469 130.059 282.811 129.407C282.154 128.755 281.374 128.239 280.517 127.888C279.66 127.538 278.743 127.36 277.817 127.364C275.943 127.402 274.157 128.168 272.835 129.498C271.514 130.829 270.761 132.622 270.735 134.498H263.652C263.637 130.738 265.115 127.126 267.761 124.457C270.407 121.788 274.004 120.28 277.761 120.265C281.518 120.25 285.126 121.729 287.793 124.377C290.46 127.025 291.967 130.625 291.982 134.385C291.971 143.231 281.359 144.243 281.359 151.993Z" fill="#CCCED0"/>
<path opacity="0.1" d="M406.194 172.992H402.066V168.923H406.194V172.992ZM406.132 166.859H402.105C402.105 160.54 408.109 160.907 408.109 156.905C408.109 156.382 408.005 155.863 407.804 155.38C407.602 154.897 407.307 154.459 406.935 154.091C406.563 153.723 406.122 153.433 405.637 153.236C405.152 153.04 404.633 152.942 404.11 152.948C403.051 152.97 402.042 153.402 401.295 154.154C400.548 154.906 400.122 155.918 400.106 156.979H396.102C396.148 154.89 397.008 152.902 398.498 151.438C399.988 149.974 401.99 149.151 404.077 149.143C406.165 149.135 408.173 149.943 409.674 151.395C411.175 152.847 412.05 154.828 412.113 156.916C412.136 161.885 406.132 162.479 406.132 166.859Z" fill="white"/>
<path opacity="0.1" d="M469.314 358.099H465.186V354.029H469.314V358.099ZM469.252 351.966H465.248C465.248 345.64 471.257 346.013 471.257 342.011C471.25 340.956 470.824 339.946 470.073 339.204C469.322 338.462 468.308 338.049 467.253 338.055C466.193 338.075 465.183 338.507 464.436 339.259C463.689 340.011 463.263 341.024 463.248 342.085H459.244C459.291 339.996 460.151 338.008 461.64 336.544C463.13 335.081 465.132 334.257 467.22 334.249C469.307 334.241 471.316 335.049 472.817 336.501C474.318 337.953 475.193 339.934 475.256 342.023C475.278 347.014 469.275 347.585 469.275 351.966H469.252Z" fill="white"/>
<defs>
<linearGradient id="paint0_linear" x1="393.768" y1="470.326" x2="393.768" y2="205.36" gradientUnits="userSpaceOnUse">
<stop stop-color="#808080" stop-opacity="0.25"/>
<stop offset="0.54" stop-color="#808080" stop-opacity="0.12"/>
<stop offset="1" stop-color="#808080" stop-opacity="0.1"/>
</linearGradient>
</defs>
</svg>
