<?xml version="1.0" encoding="utf-8"?>
<!-- Generator: Adobe Illustrator 17.0.0, SVG Export Plug-In . SVG Version: 6.00 Build 0)  -->
<!DOCTYPE svg PUBLIC "-//W3C//DTD SVG 1.1//EN" "http://www.w3.org/Graphics/SVG/1.1/DTD/svg11.dtd">
<svg version="1.1" id="Layer_1" xmlns="http://www.w3.org/2000/svg" xmlns:xlink="http://www.w3.org/1999/xlink" x="0px" y="0px"
	 width="328px" height="328px" viewBox="0 -13.333 328 328" enable-background="new 0 -13.333 328 328" xml:space="preserve">
<rect x="-0.184" y="-13.478" fill="#FFFFFF" stroke="#000000" stroke-miterlimit="10" width="328.369" height="328.289"/>
<g>
	<rect y="-13.333" width="328" height="16.475"/>
	<path d="M113.292,130.45c-4.193,13.437-7.601,24.807-7.601,25.221c0,0.827,26.704,1.24,26.704,0.413
		c0-0.62-10.978-49.511-11.24-49.822C121.067,106.057,117.485,117.013,113.292,130.45z"/>
	<path d="M0,149.751v149.772h164h164V149.751V-0.02H164H0V149.751z M251.76,9.465c3.36,2.796,4.96,5.092,7.6,11.083
		c1.92,4.194,5.2,10.085,7.28,13.08c4.8,6.79,13.36,21.168,13.36,22.366c0,0.499,0.56,0.899,1.28,0.899c1.12,0,1.2-0.699,0.8-3.794
		c-1.68-11.582-1.44-36.544,0.32-40.139c1.12-2.197,3.12,0.499,5.92,7.988c2.32,6.191,2.48,7.189,2.48,18.971
		c0,12.181-0.08,12.581-2.72,19.271l-2.72,6.79l4.08,10.184c2.16,5.591,5.04,13.879,6.32,18.472c1.2,4.493,2.48,8.188,2.72,8.188
		c0.72,0,1.36-5.492,2-16.774c0.8-13.18,2.64-15.177,7.04-7.788c1.28,2.097,1.76,4.593,2,10.584c0.32,10.184-1.84,19.77-5.84,25.661
		l-2.88,4.094l0.88,8.787c0.88,8.387,0.64,22.166-0.56,32.55c-0.64,5.392,0.8,6.59,2.8,2.596c4.08-8.188,12-16.774,15.52-16.774
		c1.76,0,1.76,4.393,0.08,9.585c-3.12,9.486-10.8,18.472-19.04,22.566c-2.96,1.398-3.36,2.097-5.04,8.387
		c-1.04,3.794-4,12.381-6.64,19.271c-2.64,6.79-4.64,12.681-4.4,12.98c0.24,0.3,1.28-0.1,2.24-0.899
		c9.84-7.788,18.16-10.384,18.16-5.791c0,1.298-0.8,3.894-1.68,5.791c-4.72,9.785-10.88,14.278-20.24,14.678l-6.32,0.2l-4.4,7.289
		c-6.24,10.384-7.68,12.481-13.12,19.47c-2.72,3.495-4.72,6.59-4.4,6.889c0.32,0.399,2.24,0.1,4.32-0.699
		c4.96-1.697,18-1.897,18.4-0.2c0.48,1.697-6.08,7.289-11.6,9.985c-5.12,2.496-11.84,2.896-17.2,1.198
		c-3.28-1.198-3.52-1.098-9.12,3.395c-3.12,2.496-7.04,5.392-8.72,6.49c-3.52,2.197-14.48,6.69-18.72,7.688
		c-3.92,0.998-2.16-0.799,2.4-2.396c7.44-2.596,11.2-5.192,11.68-7.988c1.68-9.685,4.4-16.175,9.76-23.265
		c3.68-4.992,5.76-6.091,5.76-3.095c0,2.696-2.08,10.484-3.92,15.077c-1.76,4.393-2.08,6.191-1.04,6.191c1.2,0,7.76-5.791,14-12.481
		l6.16-6.59v-5.192c0.08-14.278,7.36-35.146,11.28-32.051c1.12,0.799,0.4,10.284-1.28,17.074c-2.16,8.787-0.16,6.989,6.96-6.49
		c6.64-12.381,12.64-25.461,12.64-27.358c0-0.899-0.96-4.194-2.16-7.389c-2.08-5.492-2.24-6.79-2.24-18.372
		c0-12.781,1.28-21.467,3.04-20.669c2.72,1.098,6.16,13.579,6.16,22.366c0,10.184,2.72,4.893,6-11.682
		c1.04-5.192,2.08-11.982,2.4-15.077c0.48-5.292,0.4-5.691-1.76-7.389c-5.36-4.293-10.24-13.479-13.04-24.463
		c-1.6-6.39-2.08-12.98-0.96-12.98c1.92,0,10.72,14.378,13.6,22.166c0.96,2.696,2,4.793,2.32,4.793c0.88,0-0.56-17.174-2.16-24.862
		c-1.76-8.487-5.04-20.668-5.84-21.767c-0.32-0.399-3.04-1.398-6-2.396c-6.48-1.997-10.96-5.591-17.04-13.579
		c-6.24-8.088-7.36-11.283-4.16-11.283c1.44,0,15.36,8.687,17.12,10.584c1.68,1.897,3.12,1.797,3.12-0.3
		c0-1.997-10.88-22.566-16.4-30.853c-3.28-4.992-5.28-6.889-11.04-10.484c-8.4-5.192-12.56-10.085-15.84-18.472
		c-3.2-8.487-3.12-8.787,1.84-8.088C246.16,5.771,248.8,7.069,251.76,9.465z M83.52,8.167c-1.36,5.691-5.28,13.679-8.24,17.074
		c-1.76,1.997-6.4,5.691-10.24,8.088c-7.92,4.992-10.24,8.088-20.8,27.858C36.08,76.363,35.6,79.359,42,73.867
		c4.24-3.694,14.88-9.985,16.72-9.985c2.72,0,1.04,4.194-5.04,12.381c-4.32,5.791-11.6,11.283-16.72,12.681
		c-2.48,0.699-4.96,1.697-5.52,2.297c-3.28,3.894-10.96,45.531-8.32,45.531c0.4,0,2.08-3.095,3.68-6.79
		c1.52-3.694,4.96-9.685,7.52-13.18c4-5.492,4.8-6.191,5.28-4.693c1.92,5.791-4.64,24.163-11.68,32.95l-4.88,6.091l0.48,5.492
		c1.04,10.584,6.24,33.05,7.68,33.05c0.32,0,0.8-4.194,1.04-9.386c0.32-7.389,0.88-10.484,2.64-14.977
		c1.2-3.095,2.64-5.591,3.12-5.591c2.56,0,4.48,22.066,2.8,31.053c-0.56,2.995-1.92,7.588-2.96,10.184l-1.92,4.793l3.76,8.687
		c2.08,4.793,6,12.98,8.8,18.272c7.36,13.979,9.2,15.377,7.12,5.292c-1.52-7.389-1.6-15.377-0.16-15.377c1.2,0,3.52,2.995,5.6,7.189
		c1.92,3.794,4.4,15.576,5.04,24.063c0.64,7.988,0.08,7.089,10.48,17.673c5.6,5.691,8.64,7.788,9.6,6.59
		c0.24-0.3-0.56-3.395-1.76-6.79c-2.72-7.588-3.6-14.777-1.76-14.777c1.68,0,7.92,9.386,10.88,16.275
		c1.28,3.095,2.64,7.688,2.88,10.085l0.56,4.493l6.16,2.896c3.36,1.598,7.2,3.195,8.48,3.694c1.36,0.399,1.92,0.998,1.36,1.198
		c-1.68,0.799-14.96-4.393-21.04-8.287c-3.2-1.897-7.6-5.092-9.92-7.089c-4-3.295-4.4-3.395-7.44-2.296
		c-5.52,2.097-14.32,0.899-20.24-2.696c-5.76-3.595-9.2-7.489-8.32-9.386c0.8-1.598,13.68-0.599,19.04,1.398
		c2.08,0.799,3.76,1.198,3.76,0.799s-1.12-1.997-2.48-3.694c-2.88-3.295-14.72-21.168-17.52-26.36c-1.04-1.897-2-3.694-2.16-3.894
		c-0.16-0.2-2.4-0.3-5.12-0.2c-6.56,0.3-11.84-2.097-16.64-7.489c-4-4.493-7.84-12.481-6.88-14.378
		c1.52-2.995,10.64,0.599,18.24,7.189c1.28,1.098,2.48,1.797,2.72,1.498c0.24-0.3-1.76-6.091-4.4-12.88
		c-2.64-6.79-5.84-15.776-7.04-20.069c-1.28-4.693-2.56-7.688-3.28-7.688c-2.16,0-9.28-5.192-13.04-9.585
		c-4.64-5.392-8.8-14.777-8.8-19.77c0-4.293,1.12-4.593,5.44-1.198c2.88,2.297,7.2,7.788,11.44,14.678
		c1.2,1.897,2.4,3.095,2.72,2.696c0.24-0.3,0.16-4.094-0.32-8.287c-1.04-8.787-1.04-25.461-0.08-33.449
		c0.56-5.192,0.48-5.691-1.6-8.487c-4.8-6.49-7.84-19.271-6.8-28.457c0.64-5.092,3.28-11.582,5.04-12.481
		c2.72-1.298,3.68,2.097,4.48,15.976c0.4,7.489,1.04,13.38,1.44,13.28c0.4-0.2,1.6-3.694,2.72-7.788
		c1.12-4.094,4-12.581,6.32-18.771l4.4-11.283l-2.4-5.891c-4.96-12.181-5.04-27.358-0.24-39.54c4.96-12.581,6.88-10.184,6.96,8.587
		c0.08,6.889-0.24,15.976-0.56,20.169c-0.4,4.893-0.32,7.788,0.16,7.788c0.4,0,2.72-3.495,5.12-7.788
		c2.4-4.194,6.08-10.184,8.32-13.18c2.16-2.995,5.6-9.086,7.68-13.579c2.08-4.393,4.56-8.986,5.52-10.085
		c3.2-3.694,9.52-7.289,12.8-7.289C83.84,5.971,84.08,6.17,83.52,8.167z M125.406,79.004c0,0.436,30.141,108.712,32.063,114.818
		c1.398,4.798,1.31,4.689,9.261,6.324c2.009,0.436,3.232,1.199,3.232,2.181c0,1.418-2.796,1.636-17.91,1.636
		c-14.677,0-17.91-0.327-17.91-1.527c0-1.636,2.621-2.835,6.29-2.835c1.31,0,2.534-0.436,2.796-0.981
		c0.262-0.545-1.747-8.832-4.543-18.537l-4.98-17.555h-16.337h-13.25l-4.368,13.848c-2.359,7.742-4.543,14.938-4.892,16.247
		c-0.437,1.963-0.957,2.857,1.718,5.125c3.232,1.745,5.242,3.489,5.242,4.471c0,1.527-1.747,1.745-13.105,1.745
		c-15.463,0-16.774-1.199-6.902-6.106l6.203-3.162l16.949-55.61c19.133-63.024,18.346-60.517,19.57-60.517
		C124.969,78.568,125.406,78.786,125.406,79.004z M241.6,98.74c0,16.792,0,16.901-1.922,16.901c-1.747,0-2.534-1.854-6.465-15.047
		l-4.543-14.938l-10.134-0.327l-10.134-0.327v56.7v56.591l2.446,0.654c1.31,0.218,3.844,0.763,5.679,1.199
		c2.009,0.436,3.232,1.199,3.232,2.181c0,1.418-2.796,1.636-17.91,1.636c-14.852,0-17.91-0.218-17.91-1.527
		c0-1.527,0.961-1.963,8.125-3.489l3.232-0.654l-0.175-56.373l-0.262-56.264h-10.047h-9.96l-4.718,14.938
		c-3.757,11.994-5.067,15.047-6.378,15.047c-1.573,0-1.66-0.981-1.66-16.901V81.839h39.751H241.6V98.74z"/>
	<rect y="298.192" width="328" height="16.475"/>
</g>
</svg>
