<?xml version="1.0" encoding="utf-8"?>
<!-- Generator: Adobe Illustrator 17.0.0, SVG Export Plug-In . SVG Version: 6.00 Build 0)  -->
<!DOCTYPE svg PUBLIC "-//W3C//DTD SVG 1.1//EN" "http://www.w3.org/Graphics/SVG/1.1/DTD/svg11.dtd">
<svg version="1.1" id="Слой_1" xmlns="http://www.w3.org/2000/svg" xmlns:xlink="http://www.w3.org/1999/xlink" x="0px" y="0px"
	 width="607.333px" height="430.092px" viewBox="0 0 607.333 430.092" enable-background="new 0 0 607.333 430.092"
	 xml:space="preserve">
<g>
	<g>
		<g>
			<path fill="#3F3D56" d="M475.107,173.208c1.999-4.156,1.428-8.95-1.346-10.708c-2.734-1.758-6.569,0.16-8.568,4.315
				c-1.999,4.156-1.428,8.95,1.306,10.708S473.067,177.364,475.107,173.208z"/>
			<path fill="#3F3D56" d="M479.514,164.018c1.999-4.156,1.428-8.95-1.306-10.708c-2.734-1.758-6.569,0.16-8.609,4.315
				c-1.999,4.156-1.428,8.95,1.346,10.708C473.679,170.092,477.514,168.174,479.514,164.018z"/>
			<path fill="#3F3D56" d="M483.961,154.828c1.999-4.156,1.428-8.95-1.346-10.708c-2.734-1.758-6.569,0.16-8.609,4.315
				c-1.999,4.156-1.428,8.95,1.346,10.708C478.126,160.902,481.962,158.984,483.961,154.828z"/>
			<path fill="#3F3D56" d="M488.408,145.638c1.999-4.156,1.428-8.95-1.346-10.708c-2.734-1.758-6.569,0.16-8.609,4.315
				c-1.999,4.156-1.428,8.95,1.346,10.708C482.533,151.711,486.409,149.794,488.408,145.638z"/>
			<path fill="#3F3D56" d="M492.814,136.448c1.999-4.156,1.428-8.95-1.346-10.708c-2.734-1.758-6.569,0.16-8.609,4.315
				c-1.999,4.156-1.428,8.95,1.306,10.708C486.98,142.561,490.815,140.603,492.814,136.448z"/>
			<path fill="#3F3D56" d="M497.262,127.258c1.999-4.156,1.428-8.95-1.306-10.708s-6.569,0.16-8.609,4.315
				c-1.999,4.156-1.428,8.95,1.346,10.708C491.427,133.371,495.262,131.413,497.262,127.258z"/>
			<path fill="#D0D2D5" d="M354.829,430.051l-103.265-1.518l0.286-3.077l4.978-50.546h90.698l6.691,50.546l0.49,3.836
				L354.829,430.051z"/>
			<path opacity="0.1" enable-background="new    " d="M354.747,429.292h-51.53l-51.653-0.759l0.286-3.077h102.367L354.747,429.292z
				"/>
			<path fill="#D0D2D5" d="M371.394,426.256H234.346v3.836h137.047v-3.836H371.394z"/>
			<path fill="#454554" d="M502.117,71.238c0-2.637-0.898-5.194-2.489-7.072c-1.591-1.878-3.794-2.957-6.079-2.957H110.845
				c-1.142,0-2.244,0.28-3.305,0.759c-1.061,0.519-1.999,1.239-2.774,2.198c-0.816,0.919-1.428,2.038-1.836,3.237
				c-0.408,1.199-0.653,2.517-0.653,3.836V339.67h399.84V71.238L502.117,71.238z"/>
			<path fill="#D0D2D5" d="M102.277,336.992v31.446c0,1.319,0.204,2.597,0.653,3.796c0.449,1.199,1.061,2.318,1.877,3.237
				s1.754,1.678,2.774,2.158c1.02,0.479,2.162,0.759,3.305,0.759H493.59c2.285,0,4.447-1.039,6.079-2.917
				c1.591-1.878,2.53-4.395,2.53-7.032v-31.486H102.277V336.992z"/>
			<path opacity="0.1" fill="#C7C7C7" enable-background="new    " d="M487.551,78.071h-368.71v241.3h368.75v-241.3L487.551,78.071
				L487.551,78.071z"/>
			<path fill="#C7C7C7" d="M304.196,366.44c1.346,0,2.693-0.36,3.917-1.039s2.285-1.678,3.142-2.917
				c0.245-0.36,0.49-0.759,0.694-1.199l-4.896-0.919l5.304,0.04c0.53-1.279,0.775-2.677,0.816-4.076
				c0.041-1.398-0.204-2.797-0.653-4.116l-7.099,4.275l6.569-5.594c-0.612-1.239-1.428-2.357-2.407-3.197
				c-0.979-0.879-2.122-1.478-3.305-1.798c-1.183-0.32-2.448-0.36-3.672-0.12s-2.366,0.799-3.386,1.598s-1.877,1.838-2.57,3.037
				c-0.653,1.199-1.102,2.557-1.265,3.996c-0.204,1.398-0.122,2.877,0.204,4.235c0.326,1.398,0.898,2.677,1.673,3.796
				c0.816,1.239,1.918,2.238,3.101,2.917C301.503,366.08,302.85,366.44,304.196,366.44z"/>
			<path opacity="0.1" enable-background="new    " d="M313.131,378.347l41.208,47.868l-6.324-47.868H313.131z"/>
			<path fill="#FFFFFF" d="M413.744,110.915H129.123v174.931h284.662V110.915H413.744z"/>
			<path opacity="0.1" fill="#C7C7C7" enable-background="new    " d="M224.391,156.506h-79.397v4.755h79.397V156.506z"/>
			<path opacity="0.1" fill="#C7C7C7" enable-background="new    " d="M159.682,131.333h-7.63v25.173h7.63V131.333z"/>
			<path opacity="0.1" fill="#C7C7C7" enable-background="new    " d="M170.862,131.333h-7.63v25.173h7.63V131.333z"/>
			<path opacity="0.1" fill="#C7C7C7" enable-background="new    " d="M182.041,131.333h-7.63v25.173h7.63V131.333z"/>
			<path opacity="0.1" fill="#C7C7C7" enable-background="new    " d="M193.22,131.333h-7.63v25.173h7.63V131.333z"/>
			<path opacity="0.1" fill="#C7C7C7" enable-background="new    " d="M204.399,131.333h-7.63v25.173h7.63V131.333z"/>
			<path opacity="0.1" fill="#C7C7C7" enable-background="new    " d="M215.578,131.333h-7.63v25.173h7.63V131.333z"/>
			<path opacity="0.1" fill="#C7C7C7" enable-background="new    " d="M159.682,136.088h-7.63v2.717h7.63V136.088z"/>
			<path opacity="0.1" fill="#C7C7C7" enable-background="new    " d="M170.862,136.088h-7.63v2.717h7.63V136.088z"/>
			<path opacity="0.1" fill="#C7C7C7" enable-background="new    " d="M182.041,136.088h-7.63v2.717h7.63V136.088z"/>
			<path opacity="0.1" fill="#C7C7C7" enable-background="new    " d="M193.22,136.088h-7.63v2.717h7.63V136.088z"/>
			<path opacity="0.1" fill="#C7C7C7" enable-background="new    " d="M204.399,136.088h-7.63v2.717h7.63V136.088z"/>
			<path opacity="0.1" fill="#C7C7C7" enable-background="new    " d="M215.578,136.088h-7.63v2.717h7.63V136.088z"/>
			<path opacity="0.1" fill="#C7C7C7" enable-background="new    " d="M159.682,148.355h-7.63v2.717h7.63V148.355z"/>
			<path opacity="0.1" fill="#C7C7C7" enable-background="new    " d="M170.862,148.355h-7.63v2.717h7.63V148.355z"/>
			<path opacity="0.1" fill="#C7C7C7" enable-background="new    " d="M182.041,148.355h-7.63v2.717h7.63V148.355z"/>
			<path opacity="0.1" fill="#C7C7C7" enable-background="new    " d="M193.22,148.355h-7.63v2.717h7.63V148.355z"/>
			<path opacity="0.1" fill="#C7C7C7" enable-background="new    " d="M204.399,148.355h-7.63v2.717h7.63V148.355z"/>
			<path opacity="0.1" fill="#C7C7C7" enable-background="new    " d="M215.578,148.355h-7.63v2.717h7.63V148.355z"/>
			<path opacity="0.1" fill="#C7C7C7" enable-background="new    " d="M398.485,168.773h-79.397v4.755h79.397V168.773z"/>
			<path opacity="0.1" fill="#C7C7C7" enable-background="new    " d="M333.776,143.6h-7.63v25.173h7.63V143.6z"/>
			<path opacity="0.1" fill="#C7C7C7" enable-background="new    " d="M344.955,143.6h-7.63v25.173h7.63V143.6z"/>
			<path opacity="0.1" fill="#C7C7C7" enable-background="new    " d="M356.134,143.6h-7.67v25.173h7.63V143.6H356.134z"/>
			<path opacity="0.1" fill="#C7C7C7" enable-background="new    " d="M367.314,143.6h-7.63v25.173h7.63V143.6z"/>
			<path opacity="0.1" fill="#C7C7C7" enable-background="new    " d="M378.493,143.6h-7.63v25.173h7.63V143.6z"/>
			<path opacity="0.1" fill="#C7C7C7" enable-background="new    " d="M389.631,143.6h-7.63v25.173h7.63V143.6z"/>
			<path opacity="0.1" fill="#C7C7C7" enable-background="new    " d="M333.776,148.355h-7.63v2.717h7.63V148.355z"/>
			<path opacity="0.1" fill="#C7C7C7" enable-background="new    " d="M344.955,148.355h-7.63v2.717h7.63V148.355z"/>
			<path opacity="0.1" fill="#C7C7C7" enable-background="new    " d="M356.134,148.355h-7.67v2.717h7.63v-2.717H356.134z"/>
			<path opacity="0.1" fill="#C7C7C7" enable-background="new    " d="M367.314,148.355h-7.63v2.717h7.63V148.355z"/>
			<path opacity="0.1" fill="#C7C7C7" enable-background="new    " d="M378.493,148.355h-7.63v2.717h7.63V148.355z"/>
			<path opacity="0.1" fill="#C7C7C7" enable-background="new    " d="M389.631,148.355h-7.63v2.717h7.63V148.355z"/>
			<path opacity="0.1" fill="#C7C7C7" enable-background="new    " d="M333.776,160.582h-7.63v2.717h7.63V160.582z"/>
			<path opacity="0.1" fill="#C7C7C7" enable-background="new    " d="M344.955,160.582h-7.63v2.717h7.63V160.582z"/>
			<path opacity="0.1" fill="#C7C7C7" enable-background="new    " d="M356.134,160.582h-7.67v2.717h7.63v-2.717H356.134z"/>
			<path opacity="0.1" fill="#C7C7C7" enable-background="new    " d="M367.314,160.582h-7.63v2.717h7.63V160.582z"/>
			<path opacity="0.1" fill="#C7C7C7" enable-background="new    " d="M378.493,160.582h-7.63v2.717h7.63V160.582z"/>
			<path opacity="0.1" fill="#C7C7C7" enable-background="new    " d="M389.631,160.582h-7.63v2.717h7.63V160.582z"/>
			<path opacity="0.1" fill="#C7C7C7" enable-background="new    " d="M398.485,203.496h-79.397v4.755h79.397V203.496z"/>
			<path opacity="0.1" fill="#C7C7C7" enable-background="new    " d="M333.776,178.283h-7.63v25.173h7.63V178.283z"/>
			<path opacity="0.1" fill="#C7C7C7" enable-background="new    " d="M344.955,178.283h-7.63v25.173h7.63V178.283z"/>
			<path opacity="0.1" fill="#C7C7C7" enable-background="new    " d="M356.134,178.283h-7.67v25.173h7.63v-25.173H356.134z"/>
			<path opacity="0.1" fill="#C7C7C7" enable-background="new    " d="M367.314,178.283h-7.63v25.173h7.63V178.283z"/>
			<path opacity="0.1" fill="#C7C7C7" enable-background="new    " d="M378.493,178.283h-7.63v25.173h7.63V178.283z"/>
			<path opacity="0.1" fill="#C7C7C7" enable-background="new    " d="M389.631,178.283h-7.63v25.173h7.63V178.283z"/>
			<path opacity="0.1" fill="#C7C7C7" enable-background="new    " d="M333.776,183.038h-7.63v2.717h7.63V183.038z"/>
			<path opacity="0.1" fill="#C7C7C7" enable-background="new    " d="M344.955,183.038h-7.63v2.717h7.63V183.038z"/>
			<path opacity="0.1" fill="#C7C7C7" enable-background="new    " d="M356.134,183.038h-7.67v2.717h7.63v-2.717H356.134z"/>
			<path opacity="0.1" fill="#C7C7C7" enable-background="new    " d="M367.314,183.038h-7.63v2.717h7.63V183.038z"/>
			<path opacity="0.1" fill="#C7C7C7" enable-background="new    " d="M378.493,183.038h-7.63v2.717h7.63V183.038z"/>
			<path opacity="0.1" fill="#C7C7C7" enable-background="new    " d="M389.631,183.038h-7.63v2.717h7.63V183.038z"/>
			<path opacity="0.1" fill="#C7C7C7" enable-background="new    " d="M333.776,195.304h-7.63v2.717h7.63V195.304z"/>
			<path opacity="0.1" fill="#C7C7C7" enable-background="new    " d="M344.955,195.304h-7.63v2.717h7.63V195.304z"/>
			<path opacity="0.1" fill="#C7C7C7" enable-background="new    " d="M356.134,195.304h-7.67v2.717h7.63v-2.717H356.134z"/>
			<path opacity="0.1" fill="#C7C7C7" enable-background="new    " d="M367.314,195.304h-7.63v2.717h7.63V195.304z"/>
			<path opacity="0.1" fill="#C7C7C7" enable-background="new    " d="M378.493,195.304h-7.63v2.717h7.63V195.304z"/>
			<path opacity="0.1" fill="#C7C7C7" enable-background="new    " d="M389.631,195.304h-7.63v2.717h7.63V195.304z"/>
			<path opacity="0.1" fill="#C7C7C7" enable-background="new    " d="M193.669,210.368c-0.612-0.879-1.142-1.798-1.632-2.757
				l11.424-2.158l-12.403,0.12c-1.183-2.997-1.836-6.233-1.918-9.51c-0.082-3.276,0.449-6.553,1.51-9.59l16.606,9.949l-15.3-13.026
				c1.428-2.877,3.346-5.354,5.671-7.352c2.285-1.958,4.937-3.356,7.711-4.116c2.774-0.759,5.671-0.799,8.486-0.2
				s5.508,1.878,7.874,3.756c2.366,1.878,4.406,4.275,5.916,7.072c1.55,2.797,2.57,5.954,2.978,9.23
				c0.449,3.276,0.286,6.633-0.449,9.829s-1.999,6.193-3.794,8.791c0.938,1.359,1.714,2.837,2.407,4.395l-14.81,8.91l15.83-6.113
				c1.102,3.796,1.387,7.872,0.816,11.827s-1.999,7.672-4.162,10.828c2.407,3.556,3.917,7.832,4.325,12.347
				s-0.245,9.03-1.958,13.106s-4.366,7.512-7.67,9.909c-3.305,2.397-7.14,3.676-11.057,3.676s-7.752-1.279-11.057-3.676
				c-3.305-2.397-5.998-5.834-7.67-9.909c-1.714-4.076-2.407-8.631-1.958-13.106c0.408-4.515,1.918-8.791,4.325-12.347
				c-2.897-4.235-4.447-9.51-4.447-14.904C189.222,219.878,190.813,214.604,193.669,210.368L193.669,210.368z"/>
			<path opacity="0.1" fill="#C7C7C7" enable-background="new    " d="M230.878,225.272c0,5.394-1.55,10.668-4.447,14.904
				c2.407,3.556,3.917,7.832,4.325,12.347s-0.245,9.03-1.958,13.106c-1.714,4.076-4.366,7.512-7.67,9.909
				c-3.305,2.397-7.14,3.676-11.057,3.676s-7.752-1.279-11.057-3.676c-3.305-2.397-5.998-5.834-7.67-9.909
				c-1.714-4.076-2.407-8.631-1.958-13.106c0.408-4.515,1.918-8.791,4.325-12.347C190.894,236.101,230.878,222.555,230.878,225.272z
				"/>
			<path opacity="0.1" fill="#C7C7C7" enable-background="new    " d="M213.416,285.647c0.041,0.08,0.082,0.12,0.082,0.2h-7.058
				c0.041-0.08,0.082-0.12,0.082-0.2c-0.612-1.239-0.938-2.637-0.898-4.036c0-0.959,0.163-1.918,0.449-2.837
				c0.408,0.08,0.898,0.16,1.428,0.24c1.632,0.2,3.305,0.2,4.937,0c0.449-0.04,0.979-0.12,1.469-0.24v0.04
				c0.286,0.879,0.408,1.838,0.408,2.797C214.314,283.01,213.987,284.408,213.416,285.647z"/>
			<path opacity="0.1" fill="#C7C7C7" enable-background="new    " d="M187.957,285.847h-39.331
				c-0.082-0.28-0.163-0.559-0.245-0.799c-1.387-5.154-1.224-10.708,0.449-15.743c-3.835-3.077-6.691-7.552-8.078-12.706
				c-1.387-5.154-1.224-10.708,0.449-15.783c-0.775-0.639-1.55-1.319-2.244-2.078l10.363-5.994l-11.791,4.315
				c-1.877-2.437-3.346-5.314-4.243-8.431c-0.898-3.117-1.265-6.433-1.02-9.71l18.401,3.836l-17.952-7.192
				c0.653-3.237,1.836-6.273,3.55-8.95s3.835-4.915,6.324-6.553c2.489-1.678,5.222-2.717,8.078-3.117
				c2.856-0.4,5.712-0.08,8.486,0.879c2.734,0.959,5.263,2.557,7.466,4.715c2.162,2.158,3.958,4.795,5.222,7.792
				c1.265,2.997,1.958,6.233,2.081,9.55c0.122,3.316-0.367,6.633-1.387,9.71c1.224,0.999,2.366,2.118,3.386,3.396l-11.914,13.585
				l13.546-11.268c2.04,3.237,3.346,7.032,3.794,11.028c0.448,3.996,0.041,8.031-1.224,11.787c3.754,2.997,6.569,7.352,7.956,12.347
				C189.507,275.458,189.466,280.852,187.957,285.847z"/>
			<path opacity="0.1" fill="#C7C7C7" enable-background="new    " d="M187.957,285.847h-39.331
				c-0.082-0.28-0.163-0.519-0.245-0.799c-1.387-5.154-1.224-10.708,0.449-15.743c-3.713-2.957,31.049-29.528,31.783-26.971
				c1.387,5.154,1.224,10.708-0.449,15.783c3.754,2.997,6.528,7.352,7.956,12.347C189.507,275.458,189.466,280.852,187.957,285.847z
				"/>
			<path opacity="0.1" fill="#C7C7C7" enable-background="new    " d="M366.171,253.162c-2.407,4.635-6.079,8.231-10.445,10.149
				c0.204,1.718,0.204,3.476,0.082,5.194l-16.687-1.159l16.32,4.116c-1.061,5.754-3.958,10.868-8.038,14.384h-22.725v0.679h-23.134
				c0.041-0.24,0.082-0.44,0.163-0.679c0.857-3.716,2.448-7.112,4.651-9.949c2.203-2.837,4.978-5.035,8.038-6.433
				c-0.571-5.354,0.408-10.788,2.774-15.463c2.407-4.635,6.079-8.231,10.445-10.149c-0.122-1.119-0.163-2.198-0.163-3.316
				l10.771,4.915l-10.649-7.232c0.286-3.276,1.183-6.433,2.57-9.27c1.387-2.877,3.264-5.354,5.549-7.352l9.833,18.38l-7.344-20.218
				c3.998-2.597,8.65-3.556,13.178-2.797c4.529,0.759,8.731,3.276,11.914,7.072c3.182,3.796,5.222,8.751,5.753,14.025
				C369.476,243.293,368.497,248.647,366.171,253.162L366.171,253.162z"/>
			<path opacity="0.1" fill="#C7C7C7" enable-background="new    " d="M352.911,278.775c-1.428,2.757-3.305,5.194-5.549,7.072
				h-22.726v0.679h-23.093c0.041-0.24,0.082-0.48,0.163-0.679c0.857-3.716,2.448-7.112,4.651-9.949
				c2.203-2.837,4.978-5.035,8.038-6.433c-0.204-1.758,4.284-1.518,10.282-0.36C336.346,271.382,353.727,277.216,352.911,278.775z"
				/>
			<path fill="#F4C4B5" d="M253.42,213.167c0,0,1.667,14.667-2.622,24.027c-6.365,5.834,5.386,40.796,24.847,36.72
				c19.462-4.076,27.377-33.444,27.377-33.444s-16.491-4.675-9.269-28.369L253.42,213.167z"/>
			<path fill="#FECEB8" d="M271.678,226.55c17.789,0,32.232-16.702,32.232-37.32s-14.443-37.32-32.232-37.32
				s-32.232,16.702-32.232,37.32S253.89,226.55,271.678,226.55z"/>
			<path fill="#C7C7C7" d="M328.087,260.154c3,6.753,3,25.373,3,25.373h-118c0,0-0.5-15.401,2-24.214
				c2.5-8.813,4.167-11.146,11.345-14.385l3.06-1.518c7.711-3.796,17.095-8.551,20.155-10.509c0.326-0.2,0.653-0.44,0.938-0.719
				c1.673-1.958,1.346,0.599,1.346,0.599s-0.041,0.479-0.082,1.319c-0.163,5.714,0.53,28.13,23.256,26.292
				c22.154-1.838,23.134-19.139,22.93-24.254c0-0.479-0.041-0.959-0.122-1.398c0-0.12,1.918,0.599,4.488,1.678
				c4.651,1.998,9.249,4.264,13.301,6.673S325.492,254.313,328.087,260.154z"/>
			<path opacity="0.1" enable-background="new    " d="M302.442,238.417c-1.877,10.069-7.752,28.929-29.009,29.408
				c-22.603,0.519-23.909-25.532-23.786-32.924c0.326-0.2,0.653-0.44,0.938-0.719c1.673-1.958,1.346,0.599,1.346,0.599
				s-2.856,29.728,23.174,27.57c26.03-2.158,22.848-25.652,22.848-25.652C297.954,236.619,299.871,237.338,302.442,238.417z"/>
			<path fill="#454554" d="M233.53,191.068c2.122-0.799,4.651,0.559,5.834,2.437c1.183,1.918,1.346,4.195,1.469,6.393
				c1.387,0.36,2.203-1.478,2.326-2.877c0.53-5.634,0.571-11.388,2.203-16.822c1.632-5.434,5.222-10.708,10.69-12.826
				c1.877-0.759,3.876-0.959,5.834-0.639c1.142,0.24,2.244,0.679,3.427,0.919c3.998,0.759,8.364-1.438,12.158,0.08
				c2.366,0.959,3.876,3.197,4.937,5.434c0.49,1.199,1.142,2.278,1.918,3.237c1.591,1.638,4.121,2.078,6.406,2.597
				c2.285,0.519,4.814,1.398,5.794,3.476c0.898,1.838,0.245,3.996-0.082,5.994c-0.449,3.157,0,6.433,1.306,9.27
				c0.408,0.919,1.265,1.998,2.285,1.678c0.449-0.16,0.857-0.559,1.102-1.039c2.652-4.275,2.57-9.869,5.875-13.705
				c1.102-1.279,2.53-2.278,3.59-3.596c0.816-0.959,1.428-2.118,1.754-3.396c0.326-1.279,0.367-2.637,0.122-3.956
				c-0.612-2.957-2.652-5.394-4.284-7.951c-2.122-3.276-3.713-7.032-4.57-10.988c-0.163-0.479-0.163-0.959,0-1.438
				c0.326-0.479,0.694-0.839,1.183-1.119c0.898-0.679,1.55-1.718,1.836-2.957c0.286-1.199,0.163-2.477-0.326-3.596
				c-0.938-2.238-2.978-3.876-5.263-4.875s-4.774-1.398-7.222-1.838c-1.632,0.28-3.509-0.799-4.039-2.318
				c-0.204-0.679-0.204-1.398-0.449-2.078c-0.449-1.279-1.714-2.198-3.06-2.517c-1.387-0.28-2.815-0.16-4.121,0.32
				c-1.51,0.479-3.305,1.239-4.61,0.4c-0.694-0.479-1.102-1.279-1.836-1.678c-1.51-0.759-3.142,0.759-4.243,2.038
				c-1.061,1.319-2.366,2.318-3.835,2.957c-1.55,0.599-3.427,0.599-4.733-0.36c-1.061-0.759-1.591-2.038-2.448-3.037
				c-1.387-1.638-3.55-2.517-5.753-2.717c-2.203-0.12-4.366,0.16-6.487,0.839c-4.039,1.119-7.874,2.997-11.424,5.514
				c-1.754,1.279-3.468,2.757-4.366,4.715c-0.653,1.518-0.979,3.157-0.979,4.835c-0.163,5.274,1.346,10.828,5.304,14.544
				c-2.407,1.159-3.223,3.996-3.794,6.553c-0.898,4.036-1.795,8.151-1.469,12.267c0.163,2.118,0.653,4.235,0.408,6.353
				c-0.122,1.039-0.449,2.038-0.367,3.077c0.082,0.559,0.326,1.119,0.694,1.518C232.551,190.708,233.041,190.988,233.53,191.068z"/>
			<g opacity="0.1">
				<path opacity="0.1" enable-background="new    " d="M311.989,173.168c-0.367,0.879-0.816,1.678-1.387,2.357
					c-1.061,1.319-2.489,2.318-3.59,3.596c-3.305,3.836-3.223,9.39-5.875,13.705c-0.245,0.479-0.653,0.839-1.102,1.039
					c-1.02,0.32-1.877-0.759-2.285-1.678c-0.53-1.119-0.898-2.357-1.142-3.596c-0.041,0.32-0.122,0.639-0.163,0.919
					c-0.449,3.157,0,6.433,1.306,9.27c0.408,0.919,1.265,1.998,2.285,1.678c0.449-0.2,0.857-0.559,1.102-1.039
					c2.652-4.275,2.57-9.869,5.875-13.665c1.102-1.279,2.53-2.278,3.59-3.596c0.816-0.959,1.428-2.118,1.754-3.396
					s0.367-2.637,0.122-3.956C312.356,174.247,312.193,173.728,311.989,173.168z"/>
				<path opacity="0.1" enable-background="new    " d="M304.808,146.717c-0.449,0.24-0.857,0.639-1.183,1.119
					c-0.163,0.479-0.163,0.959,0,1.438c0.286,1.398,0.694,2.757,1.183,4.076c0.898-0.679,1.55-1.758,1.836-2.957
					c0.286-1.239,0.163-2.517-0.326-3.636c-0.163-0.36-0.326-0.719-0.53-1.039C305.502,146.078,305.175,146.437,304.808,146.717z"/>
				<path opacity="0.1" enable-background="new    " d="M236.713,154.988c-2.734-2.597-4.529-6.313-5.059-10.349
					c-0.122,0.799-0.204,1.638-0.245,2.437c-0.163,3.876,0.734,7.752,2.53,11.028C234.51,156.706,235.489,155.587,236.713,154.988z"
					/>
				<path opacity="0.1" enable-background="new    " d="M296.444,182.918c0.286-1.998,0.938-4.156,0.082-5.994
					c-0.979-2.038-3.468-2.957-5.794-3.476c-2.285-0.519-4.814-0.959-6.406-2.597c-0.775-0.959-1.428-2.038-1.918-3.237
					c-1.061-2.238-2.611-4.475-4.978-5.434c-3.754-1.518-8.119,0.679-12.158-0.08c-1.142-0.24-2.244-0.679-3.427-0.919
					c-1.958-0.32-3.958-0.12-5.834,0.599c-5.508,2.078-9.058,7.352-10.69,12.826s-1.673,11.188-2.203,16.822
					c-0.122,1.398-0.898,3.237-2.326,2.877c-0.163-2.198-0.326-4.515-1.469-6.393c-1.183-1.918-3.672-3.237-5.834-2.437
					c-0.653-0.16-1.224-0.599-1.632-1.239c0.082,0.799,0.082,1.638-0.041,2.437c-0.122,1.039-0.449,2.038-0.367,3.077
					c0.082,0.559,0.326,1.119,0.694,1.518c0.367,0.4,0.816,0.679,1.306,0.799c2.122-0.799,4.651,0.559,5.834,2.437
					c1.183,1.918,1.346,4.195,1.469,6.393c1.387,0.36,2.203-1.478,2.326-2.877c0.53-5.634,0.571-11.388,2.203-16.822
					c1.632-5.434,5.222-10.708,10.69-12.826c1.877-0.759,3.876-0.959,5.834-0.639c1.142,0.24,2.244,0.679,3.427,0.919
					c3.998,0.759,8.364-1.438,12.158,0.08c2.366,0.959,3.876,3.197,4.978,5.434c0.49,1.199,1.142,2.278,1.918,3.237
					c1.591,1.638,4.121,2.078,6.406,2.597c2.285,0.519,4.61,1.359,5.671,3.237C296.403,183.198,296.444,183.078,296.444,182.918z"/>
				<path opacity="0.1" enable-background="new    " d="M231.898,180.121c0.122-1.678,0.041-3.356-0.245-4.995
					c-0.245,1.718-0.286,3.476-0.163,5.234c0.041,0.44,0.082,0.879,0.122,1.319C231.694,181.2,231.776,180.68,231.898,180.121z"/>
			</g>
			<path fill="#FFFFFF" d="M476.005,247.768h-47.654v38.279h47.654V247.768z"/>
			<path opacity="0.1" fill="#C7C7C7" enable-background="new    " d="M471.721,276.657c-0.694,1.319-1.714,2.357-2.978,2.877
				c0.041,0.479,0.082,0.999,0.041,1.478l-4.774-0.32l4.651,1.159c-0.326,1.638-1.142,3.077-2.285,4.076h-6.446v0.2h-6.569
				c0-0.08,0-0.12,0.041-0.2c0.163-0.639,0.367-1.239,0.653-1.758c0.694-1.319,1.714-2.357,2.978-2.877
				c-0.163-1.518,0.122-3.077,0.775-4.395c0.694-1.319,1.714-2.318,2.978-2.877c-0.041-0.32-0.041-0.639-0.041-0.959l3.06,1.398
				l-3.019-2.078c0.082-0.919,0.326-1.838,0.734-2.637c0.408-0.799,0.938-1.518,1.591-2.078l2.774,5.234l-2.122-5.754
				c1.142-0.719,2.448-0.999,3.754-0.759s2.489,0.919,3.386,1.998c0.897,1.079,1.469,2.477,1.632,3.956
				C472.659,273.86,472.374,275.378,471.721,276.657L471.721,276.657z"/>
			<path opacity="0.1" fill="#C7C7C7" enable-background="new    " d="M467.967,283.969c-0.408,0.799-0.938,1.478-1.591,1.998
				h-6.446v0.2h-6.569c0-0.08,0-0.12,0.041-0.2c0.163-0.639,0.367-1.239,0.653-1.758c0.694-1.319,1.714-2.357,2.978-2.877
				c-0.041-0.479,1.224-0.44,2.938-0.08C463.234,281.851,468.212,283.529,467.967,283.969z"/>
			<path opacity="0.1" fill="#C7C7C7" enable-background="new    " d="M430.146,276.657c0.694,1.319,1.714,2.357,2.978,2.877
				c-0.041,0.479-0.082,0.999-0.041,1.478l4.774-0.32l-4.651,1.159c0.326,1.638,1.142,3.077,2.285,4.076h6.446v0.2h6.569
				c0-0.08-0.041-0.12-0.041-0.2c-0.163-0.639-0.367-1.199-0.653-1.758c-0.694-1.319-1.714-2.318-2.978-2.877
				c0.163-1.518-0.122-3.077-0.775-4.395c-0.694-1.319-1.714-2.318-2.978-2.877c0.041-0.32,0.041-0.639,0.041-0.959l-3.06,1.398
				l3.019-2.078c-0.082-0.919-0.326-1.838-0.734-2.637c-0.408-0.799-0.938-1.518-1.591-2.078l-2.774,5.234l2.081-5.754
				c-1.142-0.719-2.448-0.999-3.754-0.759c-1.265,0.24-2.448,0.919-3.386,1.998c-0.938,1.079-1.469,2.477-1.632,3.956
				c-0.163,1.479,0.122,2.997,0.775,4.275h0.082v0.041L430.146,276.657L430.146,276.657z"/>
			<path opacity="0.1" fill="#C7C7C7" enable-background="new    " d="M433.899,283.969c0.408,0.799,0.938,1.478,1.591,1.998h6.446
				v0.2h6.569c0-0.08-0.041-0.12-0.041-0.2c-0.163-0.639-0.367-1.199-0.653-1.758c-0.694-1.319-1.714-2.318-2.978-2.877
				c0.041-0.479-1.224-0.44-2.938-0.08C438.632,281.851,433.654,283.529,433.899,283.969z"/>
			<path fill="#464353" d="M456.87,256.199h-10.649v13.745h10.649V256.199z"/>
			<path opacity="0.1" enable-background="new    " d="M456.87,256.199h-10.649v13.745h10.649V256.199z"/>
			<path fill="#FECEB8" d="M441.692,282.49l-0.204,3.556h3.06l0.204-4.715L441.692,282.49z"/>
			<path fill="#FECEB8" d="M457.686,282.49l-0.449,3.556h2.774l0.163-4.715L457.686,282.49z"/>
			<path fill="#A1616A" d="M448.873,263.071c0,0-0.122,1.798-0.49,2.238c-0.367,0.479,3.305,4.595,6.202,0.519
				c0,0-1.265-1.239-0.938-2.597C453.932,261.873,448.873,263.071,448.873,263.071z"/>
			<path fill="#F9C9B7" d="M448.873,263.071c0,0-0.122,1.798-0.49,2.238c-0.367,0.479,3.305,4.595,6.202,0.519
				c0,0-1.265-1.239-0.938-2.597C453.932,261.873,448.873,263.071,448.873,263.071z"/>
			<path fill="#FECEB8" d="M451.525,264.67c2.938,0,5.345-2.757,5.345-6.153c0-3.396-2.366-6.153-5.345-6.153
				c-2.938,0-5.345,2.757-5.345,6.153C446.221,261.913,448.587,264.67,451.525,264.67z"/>
			<path fill="#C7C7C7" d="M451.239,266.907c0,0-2.244-0.04-2.57-2.397c-0.449,0.44-0.898,0.839-1.387,1.239
				c-0.204,0.08-2.366,1.478-2.734,1.558c-0.408,0.08-0.775,0.32-1.061,0.599c-0.53,0.479-0.938,1.079-1.265,1.758
				c-0.326,0.679-0.49,1.438-0.49,2.238c-0.082,2.757-0.367,8.151-0.367,8.151l0.122,1.958v1.279c0,0,1.958,0.599,3.182-0.599
				c0,0,0-0.479,0.245-0.599c0.204-0.16,0.245-0.759,0.204-1.039c0-0.4,0-0.759,0-1.159c0.041,0.2,0.163,0.4,0.286,0.519
				c0.082,0.36,0.122,0.719,0.082,1.079c-0.122,0.24-0.245,0.839-0.122,0.959c0.041,0.12,0.082,0.24,0.082,0.36
				s-0.041,0.24-0.122,0.36c-0.204,0.32-0.367,0.679-0.49,1.079c0,0-0.122,0.759-0.245,0.839c-0.122,0.32-0.204,0.639-0.245,0.999
				h13.219c-0.245-0.759-0.408-1.558-0.53-2.397c0.041-0.4-0.326-1.958-0.082-2.397c0.367-0.559,0.571-1.239,0.571-1.958
				l0.163,1.638l-0.408,3.676c0,0,2.448,0.879,2.734,0.32c0.286-0.959,0.49-1.958,0.612-2.957c0,0,0.571-3.077,0.734-3.476
				c0.163-0.44,0.49-8.91-1.51-10.149c-1.999-1.239-5.712-3.356-5.834-3.236c-0.204,0.599-0.612,1.119-1.102,1.438
				C452.422,266.907,451.81,267.027,451.239,266.907z"/>
			<path opacity="0.1" fill="none" stroke="#000000" stroke-miterlimit="10" enable-background="new    " d="M444.874,275.218
				c-0.367,0.639-0.53,1.398-0.449,2.158c0.082,0.759,0.286,1.478,0.612,2.118"/>
			<path opacity="0.1" fill="none" stroke="#000000" stroke-miterlimit="10" enable-background="new    " d="M457.726,275.778
				c0.082,0.32,0.163,0.639,0.204,0.959c0.082,0.4,0.122,0.839,0.041,1.239c-0.041,0.4-0.204,0.799-0.408,1.159"/>
			<path fill="#464353" d="M449.158,254.281c0.408-0.12,0.857-0.08,1.265,0.16c0.367,0.24,0.775,0.4,1.183,0.559
				c0.286,0.08,0.53,0.08,0.857,0.12c0.53,0.12,0.979,0.4,1.346,0.799c0.367,0.44,0.612,0.959,0.734,1.558
				c0.245,1.518-0.53,2.997-0.53,4.515c0,0.879,0.286,1.718,0.775,2.397c0.408,0.44,0.775,0.919,1.061,1.478
				c0.163,0.4,0.204,0.839,0.326,1.239c0.326,0.679,0.857,1.239,1.51,1.478c0.653,0.24,1.265,0.559,1.836,0.959
				c1.061,0.799,1.673,2.397,2.897,2.717c0.041,0.04,0.122,0.04,0.204,0.04s0.122,0,0.204-0.04c0.041-0.04,0.082-0.12,0.122-0.2
				c0.041-0.08,0.041-0.16,0.041-0.24c0.041-0.32,0-0.599-0.082-0.879s-0.245-0.559-0.408-0.759
				c-0.286-0.36-0.734-0.599-0.857-1.079c-0.082-0.479,0.163-0.879,0.286-1.319c0.449-1.398-0.286-2.917-1.142-4.036
				c-0.816-1.119-1.836-2.238-2.04-3.676c-0.041-0.479-0.082-0.959-0.041-1.478c0-0.999-0.163-1.998-0.449-2.957
				c-0.122-0.519-0.367-0.999-0.653-1.398c-0.286-0.36-0.612-0.639-0.898-0.999c-0.367-0.599-0.694-1.199-0.979-1.838
				c-0.408-0.759-0.979-1.398-1.673-1.838s-1.428-0.679-2.203-0.719c-1.469,0-2.897,0.759-4.162,1.678
				c-0.449,0.28-0.857,0.719-1.183,1.199c-0.53,0.959-0.367,2.278-0.694,3.356c-0.286,1.119-1.02,1.918-1.306,2.997
				c-0.082,0.32-0.082,0.639-0.041,0.959c0.082,0.36,0.204,0.679,0.367,0.999c0.286,0.799,0.449,1.638,0.449,2.477
				c0.082,1.039,0.122,2.158-0.367,2.997c-0.367,0.519-0.816,0.959-1.306,1.319c0.53,0.479,1.183,0.719,1.836,0.639
				c1.02,0.04,2.162,0,2.774-0.919c0.367-0.679,0.53-1.438,0.408-2.238c-0.041-0.839-0.204-1.678-0.449-2.517
				c-0.326-1.119-0.857-2.198-1.02-3.396c-0.041-0.44-0.041-0.879,0.041-1.279c0.082-0.44,0.245-0.799,0.49-1.159
				c0.204-0.28,0.53-0.4,0.694-0.719C448.75,254.88,448.669,254.481,449.158,254.281z"/>
			<g opacity="0.1">
				<path opacity="0.1" enable-background="new    " d="M444.915,259.955c0.286,0.799,0.449,1.638,0.449,2.477
					c0,0.28,0.041,0.559,0.041,0.839c0.041-0.599,0.041-1.199,0-1.798c-0.041-0.839-0.204-1.678-0.49-2.437
					c-0.163-0.32-0.286-0.639-0.367-0.959c-0.082,0.32-0.082,0.639-0.041,0.959C444.63,259.355,444.752,259.675,444.915,259.955z"/>
				<path opacity="0.1" enable-background="new    " d="M448.424,265.629c-0.612,0.919-1.795,0.959-2.815,0.919
					c-0.408,0-0.857-0.08-1.265-0.24c-0.204,0.2-0.408,0.36-0.612,0.519c0.53,0.479,1.183,0.719,1.836,0.639
					c1.02,0.04,2.162,0,2.815-0.919c0.367-0.599,0.53-1.359,0.449-2.078C448.75,264.909,448.628,265.309,448.424,265.629z"/>
				<path opacity="0.1" enable-background="new    " d="M461.643,268.066c0,0.08,0.041,0.12,0.082,0.2
					c0.041-0.16,0.122-0.36,0.204-0.519c0.122-0.4,0.163-0.839,0.122-1.279c0,0.08-0.041,0.2-0.082,0.28
					C461.806,267.187,461.562,267.627,461.643,268.066z"/>
				<path opacity="0.1" enable-background="new    " d="M454.544,257.757c0.041-0.44,0.041-0.839,0-1.279
					c-0.122-0.599-0.367-1.119-0.734-1.558c-0.367-0.44-0.857-0.719-1.346-0.799c-0.286-0.04-0.571-0.04-0.816-0.12
					c-0.408-0.12-0.816-0.32-1.183-0.559c-0.367-0.24-0.816-0.28-1.265-0.16c-0.49,0.2-0.408,0.599-0.612,0.999
					c-0.163,0.28-0.49,0.44-0.694,0.719c-0.408,0.639-0.612,1.438-0.53,2.278c0.082-0.479,0.245-0.919,0.49-1.279
					c0.204-0.28,0.53-0.4,0.694-0.719c0.204-0.4,0.163-0.839,0.612-0.999c0.408-0.12,0.857-0.08,1.265,0.16
					c0.367,0.24,0.775,0.4,1.183,0.559c0.286,0.08,0.53,0.08,0.857,0.12c0.53,0.12,0.979,0.4,1.346,0.799
					c0.367,0.44,0.612,0.959,0.734,1.558C454.503,257.557,454.544,257.637,454.544,257.757z"/>
				<path opacity="0.1" enable-background="new    " d="M462.786,271.223c-0.122,0.04-0.245,0.04-0.367,0
					c-1.224-0.32-1.877-1.918-2.897-2.717c-0.571-0.4-1.224-0.719-1.836-0.959c-0.653-0.24-1.183-0.799-1.51-1.478
					c-0.163-0.4-0.163-0.839-0.326-1.239c-0.286-0.559-0.653-1.039-1.061-1.478c-0.449-0.599-0.694-1.359-0.775-2.158
					c-0.041,0.24-0.041,0.479-0.041,0.719c0,0.879,0.286,1.758,0.775,2.437c0.408,0.44,0.775,0.919,1.061,1.478
					c0.163,0.4,0.204,0.839,0.326,1.239c0.326,0.679,0.857,1.239,1.51,1.478c0.653,0.24,1.265,0.559,1.836,0.959
					c1.061,0.799,1.673,2.397,2.897,2.717c0.041,0.04,0.122,0.04,0.204,0.04s0.122,0,0.204-0.04c0.041-0.04,0.082-0.12,0.122-0.2
					c0.041-0.08,0.041-0.16,0.041-0.24c0.041-0.24,0-0.479-0.041-0.679C462.867,271.183,462.826,271.223,462.786,271.223z"/>
			</g>
			<path opacity="0.1" fill="#C7C7C7" enable-background="new    " d="M439.978,250.605h-6.814v11.268h6.814V250.605z"/>
			<path opacity="0.1" fill="#C7C7C7" enable-background="new    " d="M438.999,252.203h-4.855v8.031h4.855V252.203z"/>
			<path opacity="0.1" fill="#C7C7C7" enable-background="new    " d="M473.557,252.283h-11.179v6.753h11.179V252.283
				L473.557,252.283z"/>
			<path opacity="0.1" fill="#C7C7C7" enable-background="new    " d="M472.088,253.162h-8.282v4.995h8.282V253.162z"/>
		</g>
	</g>
</g>
<path fill="#3F3D56" d="M474.048,173.208c1.999-4.156,1.428-8.95-1.346-10.708c-2.734-1.758-6.569,0.16-8.568,4.315
	c-1.999,4.156-1.428,8.95,1.306,10.708S472.008,177.364,474.048,173.208z"/>
<path fill="#3F3D56" d="M478.455,164.018c1.999-4.156,1.428-8.95-1.306-10.708c-2.734-1.758-6.569,0.16-8.609,4.315
	c-1.999,4.156-1.428,8.95,1.346,10.708C472.62,170.092,476.455,168.174,478.455,164.018z"/>
<path fill="#3F3D56" d="M482.902,154.828c1.999-4.156,1.428-8.95-1.346-10.708c-2.734-1.758-6.569,0.16-8.609,4.315
	c-1.999,4.156-1.428,8.95,1.346,10.708C477.067,160.902,480.903,158.984,482.902,154.828z"/>
<path fill="#3F3D56" d="M487.349,145.638c1.999-4.156,1.428-8.95-1.346-10.708c-2.734-1.758-6.569,0.16-8.609,4.315
	c-1.999,4.156-1.428,8.95,1.346,10.708C481.474,151.711,485.35,149.794,487.349,145.638z"/>
<path fill="#3F3D56" d="M491.755,136.448c1.999-4.156,1.428-8.95-1.346-10.708c-2.734-1.758-6.569,0.16-8.609,4.315
	c-1.999,4.156-1.428,8.95,1.306,10.708C485.921,142.561,489.756,140.603,491.755,136.448z"/>
<path fill="#3F3D56" d="M496.203,127.258c1.999-4.156,1.428-8.95-1.306-10.708s-6.569,0.16-8.609,4.315
	c-1.999,4.156-1.428,8.95,1.346,10.708C490.368,133.371,494.203,131.413,496.203,127.258z"/>
<path fill="#D0D2D5" d="M353.77,430.051l-103.265-1.518l0.286-3.077l4.978-50.546h90.698l6.691,50.546l0.49,3.836L353.77,430.051z"
	/>
<path opacity="0.1" enable-background="new    " d="M353.688,429.292h-51.53l-51.653-0.759l0.286-3.077h102.367L353.688,429.292z"/>
<path fill="#D0D2D5" d="M370.335,426.256H233.287v3.836h137.047v-3.836H370.335z"/>
<path fill="#454554" d="M501.058,71.238c0-2.637-0.898-5.194-2.489-7.072c-1.591-1.878-3.794-2.957-6.079-2.957H109.786
	c-1.142,0-2.244,0.28-3.305,0.759c-1.061,0.519-1.999,1.239-2.774,2.198c-0.816,0.919-1.428,2.038-1.836,3.237
	c-0.408,1.199-0.653,2.517-0.653,3.836V339.67h399.84V71.238L501.058,71.238z"/>
<path fill="#D0D2D5" d="M101.218,336.992v31.446c0,1.319,0.204,2.597,0.653,3.796c0.449,1.199,1.061,2.318,1.877,3.237
	c0.816,0.919,1.754,1.678,2.774,2.158c1.02,0.479,2.162,0.759,3.305,0.759h382.704c2.285,0,4.447-1.039,6.079-2.917
	c1.591-1.878,2.53-4.395,2.53-7.032v-31.486H101.218V336.992z"/>
<path opacity="0.1" fill="#C7C7C7" enable-background="new    " d="M486.492,78.071h-368.71v241.3h368.75v-241.3L486.492,78.071
	L486.492,78.071z"/>
<path fill="#C7C7C7" d="M303.137,366.44c1.346,0,2.693-0.36,3.917-1.039s2.285-1.678,3.142-2.917c0.245-0.36,0.49-0.759,0.694-1.199
	l-4.896-0.919l5.304,0.04c0.53-1.279,0.775-2.677,0.816-4.076c0.041-1.398-0.204-2.797-0.653-4.116l-7.099,4.275l6.569-5.594
	c-0.612-1.239-1.428-2.357-2.407-3.197c-0.979-0.879-2.122-1.478-3.305-1.798c-1.183-0.32-2.448-0.36-3.672-0.12
	s-2.366,0.799-3.386,1.598s-1.877,1.838-2.57,3.037c-0.653,1.199-1.102,2.557-1.265,3.996c-0.204,1.398-0.122,2.877,0.204,4.235
	c0.326,1.398,0.898,2.677,1.673,3.796c0.816,1.239,1.918,2.238,3.101,2.917C300.444,366.08,301.791,366.44,303.137,366.44z"/>
<path opacity="0.1" enable-background="new    " d="M312.072,378.347l41.208,47.868l-6.324-47.868H312.072z"/>
<g>
	<path fill="#FFFFFF" d="M289.533,97.595H134.555v97.621h155V97.595H289.533z"/>
	<path opacity="0.1" fill="#C7C7C7" enable-background="new    " d="M186.429,123.037h-43.232v2.654h43.232V123.037z"/>
	<path opacity="0.1" fill="#C7C7C7" enable-background="new    " d="M151.195,108.989h-4.155v14.048h4.155V108.989z"/>
	<path opacity="0.1" fill="#C7C7C7" enable-background="new    " d="M157.282,108.989h-4.154v14.048h4.155L157.282,108.989
		L157.282,108.989z"/>
	<path opacity="0.1" fill="#C7C7C7" enable-background="new    " d="M163.369,108.989h-4.155v14.048h4.155V108.989z"/>
	<path opacity="0.1" fill="#C7C7C7" enable-background="new    " d="M169.456,108.989h-4.155v14.048h4.155V108.989z"/>
	<path opacity="0.1" fill="#C7C7C7" enable-background="new    " d="M175.543,108.989h-4.155v14.048h4.155V108.989z"/>
	<path opacity="0.1" fill="#C7C7C7" enable-background="new    " d="M181.63,108.989h-4.155v14.048h4.155V108.989z"/>
	<path opacity="0.1" fill="#C7C7C7" enable-background="new    " d="M151.195,111.643h-4.155v1.516h4.155V111.643z"/>
	<path opacity="0.1" fill="#C7C7C7" enable-background="new    " d="M157.282,111.643h-4.154v1.516h4.155L157.282,111.643
		L157.282,111.643z"/>
	<path opacity="0.1" fill="#C7C7C7" enable-background="new    " d="M163.369,111.643h-4.155v1.516h4.155V111.643z"/>
	<path opacity="0.1" fill="#C7C7C7" enable-background="new    " d="M169.456,111.643h-4.155v1.516h4.155V111.643z"/>
	<path opacity="0.1" fill="#C7C7C7" enable-background="new    " d="M175.543,111.643h-4.155v1.516h4.155V111.643z"/>
	<path opacity="0.1" fill="#C7C7C7" enable-background="new    " d="M181.63,111.643h-4.155v1.516h4.155V111.643z"/>
	<path opacity="0.1" fill="#C7C7C7" enable-background="new    " d="M151.195,118.488h-4.155v1.516h4.155V118.488z"/>
	<path opacity="0.1" fill="#C7C7C7" enable-background="new    " d="M157.282,118.488h-4.154v1.516h4.155L157.282,118.488
		L157.282,118.488z"/>
	<path opacity="0.1" fill="#C7C7C7" enable-background="new    " d="M163.369,118.488h-4.155v1.516h4.155V118.488z"/>
	<path opacity="0.1" fill="#C7C7C7" enable-background="new    " d="M169.456,118.488h-4.155v1.516h4.155V118.488z"/>
	<path opacity="0.1" fill="#C7C7C7" enable-background="new    " d="M175.543,118.488h-4.155v1.516h4.155V118.488z"/>
	<path opacity="0.1" fill="#C7C7C7" enable-background="new    " d="M181.63,118.488h-4.155v1.516h4.155V118.488z"/>
	<path opacity="0.1" fill="#C7C7C7" enable-background="new    " d="M281.224,129.883h-43.232v2.654h43.232V129.883z"/>
	<path opacity="0.1" fill="#C7C7C7" enable-background="new    " d="M245.99,115.835h-4.155v14.048h4.155V115.835z"/>
	<path opacity="0.1" fill="#C7C7C7" enable-background="new    " d="M252.077,115.835h-4.155v14.048h4.155V115.835z"/>
	<path opacity="0.1" fill="#C7C7C7" enable-background="new    " d="M258.164,115.835h-4.176v14.048h4.155v-14.048H258.164z"/>
	<path opacity="0.1" fill="#C7C7C7" enable-background="new    " d="M264.251,115.835h-4.155v14.048h4.155V115.835z"/>
	<path opacity="0.1" fill="#C7C7C7" enable-background="new    " d="M270.338,115.835h-4.155v14.048h4.155V115.835z"/>
	<path opacity="0.1" fill="#C7C7C7" enable-background="new    " d="M276.403,115.835h-4.155v14.048h4.155V115.835z"/>
	<path opacity="0.1" fill="#C7C7C7" enable-background="new    " d="M245.99,118.488h-4.155v1.516h4.155V118.488z"/>
	<path opacity="0.1" fill="#C7C7C7" enable-background="new    " d="M252.077,118.488h-4.155v1.516h4.155V118.488z"/>
	<path opacity="0.1" fill="#C7C7C7" enable-background="new    " d="M258.164,118.488h-4.176v1.516h4.155v-1.516H258.164z"/>
	<path opacity="0.1" fill="#C7C7C7" enable-background="new    " d="M264.251,118.488h-4.155v1.516h4.155V118.488z"/>
	<path opacity="0.1" fill="#C7C7C7" enable-background="new    " d="M270.338,118.488h-4.155v1.516h4.155V118.488z"/>
	<path opacity="0.1" fill="#C7C7C7" enable-background="new    " d="M276.403,118.488h-4.155v1.516h4.155V118.488z"/>
	<path opacity="0.1" fill="#C7C7C7" enable-background="new    " d="M245.99,125.312h-4.155v1.516h4.155V125.312z"/>
	<path opacity="0.1" fill="#C7C7C7" enable-background="new    " d="M252.077,125.312h-4.155v1.516h4.155V125.312z"/>
	<path opacity="0.1" fill="#C7C7C7" enable-background="new    " d="M258.164,125.312h-4.176v1.516h4.155v-1.516H258.164z"/>
	<path opacity="0.1" fill="#C7C7C7" enable-background="new    " d="M264.251,125.312h-4.155v1.516h4.155V125.312z"/>
	<path opacity="0.1" fill="#C7C7C7" enable-background="new    " d="M270.338,125.312h-4.155v1.516h4.155V125.312z"/>
	<path opacity="0.1" fill="#C7C7C7" enable-background="new    " d="M276.403,125.312h-4.155v1.516h4.155V125.312z"/>
	<path opacity="0.1" fill="#C7C7C7" enable-background="new    " d="M281.224,149.26h-43.232v2.654h43.232V149.26z"/>
	<path opacity="0.1" fill="#C7C7C7" enable-background="new    " d="M245.99,135.19h-4.155v14.048h4.155V135.19z"/>
	<path opacity="0.1" fill="#C7C7C7" enable-background="new    " d="M252.077,135.19h-4.155v14.048h4.155V135.19z"/>
	<path opacity="0.1" fill="#C7C7C7" enable-background="new    " d="M258.164,135.19h-4.176v14.048h4.155V135.19H258.164z"/>
	<path opacity="0.1" fill="#C7C7C7" enable-background="new    " d="M264.251,135.19h-4.155v14.048h4.155V135.19z"/>
	<path opacity="0.1" fill="#C7C7C7" enable-background="new    " d="M270.338,135.19h-4.155v14.048h4.155V135.19z"/>
	<path opacity="0.1" fill="#C7C7C7" enable-background="new    " d="M276.403,135.19h-4.155v14.048h4.155V135.19z"/>
	<path opacity="0.1" fill="#C7C7C7" enable-background="new    " d="M245.99,137.843h-4.155v1.516h4.155V137.843z"/>
	<path opacity="0.1" fill="#C7C7C7" enable-background="new    " d="M252.077,137.843h-4.155v1.516h4.155V137.843z"/>
	<path opacity="0.1" fill="#C7C7C7" enable-background="new    " d="M258.164,137.843h-4.176v1.516h4.155v-1.516H258.164z"/>
	<path opacity="0.1" fill="#C7C7C7" enable-background="new    " d="M264.251,137.843h-4.155v1.516h4.155V137.843z"/>
	<path opacity="0.1" fill="#C7C7C7" enable-background="new    " d="M270.338,137.843h-4.155v1.516h4.155V137.843z"/>
	<path opacity="0.1" fill="#C7C7C7" enable-background="new    " d="M276.403,137.843h-4.155v1.516h4.155V137.843z"/>
	<path opacity="0.1" fill="#C7C7C7" enable-background="new    " d="M245.99,144.688h-4.155v1.516h4.155V144.688z"/>
	<path opacity="0.1" fill="#C7C7C7" enable-background="new    " d="M252.077,144.688h-4.155v1.516h4.155V144.688z"/>
	<path opacity="0.1" fill="#C7C7C7" enable-background="new    " d="M258.164,144.688h-4.176v1.516h4.155v-1.516H258.164z"/>
	<path opacity="0.1" fill="#C7C7C7" enable-background="new    " d="M264.251,144.688h-4.155v1.516h4.155V144.688z"/>
	<path opacity="0.1" fill="#C7C7C7" enable-background="new    " d="M270.338,144.688h-4.155v1.516h4.155V144.688z"/>
	<path opacity="0.1" fill="#C7C7C7" enable-background="new    " d="M276.403,144.688h-4.155v1.516h4.155V144.688z"/>
	<path opacity="0.1" fill="#C7C7C7" enable-background="new    " d="M169.701,153.095c-0.333-0.491-0.622-1.003-0.889-1.539
		l6.22-1.204l-6.753,0.067c-0.644-1.672-1-3.478-1.044-5.307c-0.045-1.828,0.244-3.657,0.822-5.352l9.042,5.552l-8.331-7.269
		c0.778-1.606,1.822-2.988,3.088-4.103c1.244-1.093,2.688-1.873,4.199-2.297c1.51-0.424,3.088-0.446,4.621-0.112
		c1.533,0.334,2.999,1.048,4.287,2.096s2.399,2.386,3.221,3.947c0.844,1.561,1.399,3.323,1.622,5.151
		c0.244,1.828,0.156,3.702-0.244,5.485c-0.4,1.784-1.088,3.456-2.066,4.906c0.511,0.758,0.933,1.583,1.311,2.453l-8.064,4.972
		l8.62-3.411c0.6,2.118,0.755,4.393,0.444,6.6s-1.088,4.281-2.266,6.043c1.311,1.984,2.133,4.371,2.355,6.89
		c0.222,2.52-0.133,5.039-1.066,7.314s-2.377,4.192-4.176,5.53c-1.8,1.338-3.888,2.051-6.021,2.051s-4.221-0.714-6.021-2.051
		c-1.8-1.338-3.266-3.256-4.176-5.53c-0.933-2.275-1.311-4.817-1.066-7.314c0.222-2.52,1.044-4.906,2.355-6.89
		c-1.577-2.363-2.421-5.307-2.421-8.317C167.279,158.402,168.146,155.459,169.701,153.095L169.701,153.095z"/>
	<path opacity="0.1" fill="#C7C7C7" enable-background="new    " d="M189.961,161.412c0,3.01-0.844,5.953-2.421,8.317
		c1.311,1.984,2.133,4.371,2.355,6.89c0.222,2.52-0.133,5.039-1.066,7.314s-2.377,4.192-4.176,5.53
		c-1.8,1.338-3.888,2.051-6.021,2.051s-4.221-0.714-6.021-2.051c-1.8-1.338-3.266-3.256-4.176-5.53
		c-0.933-2.275-1.311-4.817-1.066-7.314c0.222-2.52,1.044-4.906,2.355-6.89C168.19,167.455,189.961,159.896,189.961,161.412z"/>
	<path opacity="0.1" fill="#C7C7C7" enable-background="new    " d="M180.453,195.104c0.022,0.045,0.045,0.067,0.045,0.112h-3.843
		c0.022-0.045,0.045-0.067,0.045-0.112c-0.333-0.691-0.511-1.472-0.489-2.252c0-0.535,0.089-1.07,0.244-1.583
		c0.222,0.045,0.489,0.089,0.778,0.134c0.889,0.112,1.8,0.112,2.688,0c0.244-0.022,0.533-0.067,0.8-0.134v0.022
		c0.156,0.491,0.222,1.026,0.222,1.561C180.942,193.633,180.764,194.413,180.453,195.104z"/>
	<path opacity="0.1" fill="#C7C7C7" enable-background="new    " d="M166.59,195.216h-21.416c-0.045-0.156-0.089-0.312-0.133-0.446
		c-0.755-2.876-0.666-5.976,0.244-8.785c-2.088-1.717-3.643-4.214-4.399-7.091c-0.755-2.876-0.666-5.976,0.244-8.808
		c-0.422-0.357-0.844-0.736-1.222-1.16l5.643-3.345l-6.42,2.408c-1.022-1.36-1.822-2.965-2.31-4.705
		c-0.489-1.739-0.689-3.59-0.555-5.419l10.019,2.141l-9.775-4.014c0.356-1.806,1-3.501,1.933-4.995
		c0.933-1.494,2.088-2.743,3.443-3.657c1.355-0.936,2.843-1.516,4.399-1.739c1.555-0.223,3.11-0.045,4.621,0.491
		c1.489,0.535,2.866,1.427,4.065,2.631c1.177,1.204,2.155,2.676,2.843,4.348c0.689,1.672,1.066,3.478,1.133,5.329
		c0.066,1.85-0.2,3.702-0.755,5.419c0.666,0.557,1.288,1.182,1.844,1.895l-6.487,7.581l7.376-6.288
		c1.111,1.806,1.822,3.924,2.066,6.154s0.022,4.482-0.666,6.578c2.044,1.672,3.577,4.103,4.332,6.89
		C167.434,189.418,167.412,192.429,166.59,195.216z"/>
	<path opacity="0.1" fill="#C7C7C7" enable-background="new    " d="M166.59,195.216h-21.416c-0.045-0.156-0.089-0.29-0.133-0.446
		c-0.755-2.876-0.666-5.976,0.244-8.785c-2.022-1.65,16.906-16.478,17.306-15.051c0.755,2.876,0.666,5.976-0.244,8.808
		c2.044,1.672,3.555,4.103,4.332,6.89C167.434,189.418,167.412,192.429,166.59,195.216z"/>
	<path opacity="0.1" fill="#C7C7C7" enable-background="new    " d="M263.629,176.976c-1.311,2.587-3.31,4.593-5.687,5.664
		c0.111,0.959,0.111,1.94,0.045,2.899l-9.086-0.647l8.886,2.297c-0.578,3.211-2.155,6.065-4.377,8.027h-12.374v0.379h-12.597
		c0.022-0.134,0.045-0.246,0.089-0.379c0.467-2.074,1.333-3.969,2.533-5.552c1.2-1.583,2.711-2.81,4.377-3.59
		c-0.311-2.988,0.222-6.02,1.51-8.629c1.311-2.587,3.31-4.593,5.687-5.664c-0.066-0.624-0.089-1.227-0.089-1.851l5.865,2.743
		l-5.798-4.036c0.156-1.828,0.644-3.59,1.399-5.173c0.755-1.606,1.777-2.988,3.021-4.103l5.354,10.257l-3.999-11.283
		c2.177-1.449,4.71-1.984,7.176-1.561c2.466,0.424,4.754,1.828,6.487,3.947c1.733,2.118,2.843,4.884,3.133,7.827
		C265.429,171.469,264.896,174.456,263.629,176.976L263.629,176.976z"/>
	<path opacity="0.1" fill="#C7C7C7" enable-background="new    " d="M256.409,191.269c-0.778,1.539-1.8,2.899-3.021,3.947h-12.374
		v0.379H228.44c0.022-0.134,0.045-0.268,0.089-0.379c0.467-2.074,1.333-3.969,2.533-5.552c1.2-1.583,2.711-2.81,4.377-3.59
		c-0.111-0.981,2.333-0.847,5.599-0.201C247.389,187.144,256.853,190.399,256.409,191.269z"/>
	<path fill="#F4C4B5" d="M202.802,155.347c0,0,1.533,9.967-1.911,13.222c-3.466,3.256,2.933,22.766,13.529,20.492
		c10.597-2.275,14.907-18.663,14.907-18.663s-10.597-2.609-6.665-15.831L202.802,155.347z"/>
	<path fill="#FECEB8" d="M212.177,162.125c9.686,0,17.551-9.321,17.551-20.826s-7.864-20.826-17.551-20.826
		c-9.686,0-17.55,9.321-17.55,20.826S202.491,162.125,212.177,162.125z"/>
	<path fill="#5F5F72" d="M242.431,180.242l3.597,15.653h-67l1.915-14.961c0-1.768,0.952-3.05,1.752-4.52
		c0.8-1.469,3.513-2.005,4.846-2.694l1.666-0.872c4.199-2.18,9.308-4.913,10.975-6.038c0.178-0.115,0.356-0.253,0.511-0.413
		c0.911-1.125,0.733,0.344,0.733,0.344s-0.022,0.275-0.045,0.758c-0.089,3.283,0.289,16.161,12.663,15.105
		c12.063-1.056,12.597-10.996,12.486-13.934c0-0.275-0.022-0.551-0.066-0.803c0-0.069,1.044,0.344,2.444,0.964
		c2.533,1.148,6.243,2.961,7.242,3.834c0.311,0.253,0.689,0.551,1.088,0.826c1.133,0.78,3.125,1.545,3.791,2.924
		c0.689,1.376,0.829,0.849,0.807,2.434L242.431,180.242z"/>
	<path opacity="0.1" enable-background="new    " d="M228.928,169.306c-1.022,5.619-4.221,16.144-15.796,16.411
		c-12.307,0.29-13.019-14.248-12.952-18.373c0.178-0.112,0.356-0.246,0.511-0.401c0.911-1.093,0.733,0.334,0.733,0.334
		s-1.555,16.59,12.618,15.385c14.173-1.204,12.441-14.315,12.441-14.315C226.484,168.302,227.528,168.704,228.928,169.306z"/>
	<path fill="#454554" d="M191.405,142.324c1.155-0.446,2.532,0.312,3.177,1.36c0.644,1.07,0.733,2.341,0.8,3.568
		c0.755,0.201,1.2-0.825,1.267-1.606c0.289-3.144,0.311-6.355,1.2-9.388c0.889-3.032,2.843-5.976,5.821-7.158
		c1.022-0.424,2.111-0.535,3.177-0.357c0.622,0.134,1.222,0.379,1.866,0.513c2.177,0.424,4.554-0.802,6.62,0.045
		c1.288,0.535,2.111,1.784,2.688,3.032c0.267,0.669,0.622,1.271,1.044,1.806c0.866,0.914,2.244,1.16,3.488,1.449
		c1.244,0.29,2.621,0.78,3.155,1.94c0.489,1.026,0.133,2.23-0.045,3.345c-0.244,1.762,0,3.59,0.711,5.173
		c0.222,0.513,0.689,1.115,1.244,0.936c0.244-0.089,0.467-0.312,0.6-0.58c1.444-2.386,1.399-5.507,3.199-7.648
		c0.6-0.714,1.378-1.271,1.955-2.007c0.444-0.535,0.778-1.182,0.955-1.895c0.178-0.714,0.2-1.472,0.066-2.208
		c-0.333-1.65-1.444-3.01-2.333-4.437c-1.155-1.828-2.022-3.924-2.488-6.132c-0.089-0.267-0.089-0.535,0-0.802
		c0.177-0.267,0.378-0.468,0.644-0.624c0.489-0.379,0.844-0.959,1-1.65c0.156-0.669,0.089-1.382-0.178-2.007
		c-0.511-1.249-1.622-2.163-2.866-2.721c-1.244-0.557-2.599-0.78-3.932-1.026c-0.889,0.156-1.911-0.446-2.199-1.294
		c-0.111-0.379-0.111-0.78-0.244-1.16c-0.244-0.714-0.933-1.227-1.666-1.405c-0.755-0.156-1.533-0.089-2.244,0.179
		c-0.822,0.267-1.8,0.691-2.51,0.223c-0.378-0.267-0.6-0.714-1-0.936c-0.822-0.424-1.711,0.424-2.31,1.137
		c-0.578,0.736-1.288,1.294-2.088,1.65c-0.844,0.334-1.866,0.334-2.577-0.201c-0.578-0.424-0.866-1.137-1.333-1.695
		c-0.755-0.914-1.933-1.405-3.133-1.516c-1.2-0.067-2.377,0.089-3.532,0.468c-2.199,0.624-4.287,1.672-6.22,3.077
		c-0.955,0.714-1.888,1.539-2.377,2.631c-0.356,0.847-0.533,1.762-0.533,2.698c-0.089,2.943,0.733,6.043,2.888,8.116
		c-1.311,0.647-1.755,2.23-2.066,3.657c-0.489,2.252-0.977,4.549-0.8,6.846c0.089,1.182,0.356,2.363,0.222,3.545
		c-0.066,0.58-0.244,1.137-0.2,1.717c0.045,0.312,0.178,0.624,0.378,0.847C190.872,142.124,191.139,142.28,191.405,142.324z"/>
	<g opacity="0.1">
		<path opacity="0.1" enable-background="new    " d="M234.127,132.335c-0.2,0.491-0.444,0.936-0.755,1.315
			c-0.578,0.736-1.355,1.294-1.955,2.007c-1.8,2.141-1.755,5.24-3.199,7.648c-0.133,0.267-0.356,0.468-0.6,0.58
			c-0.555,0.179-1.022-0.424-1.244-0.936c-0.289-0.624-0.489-1.315-0.622-2.007c-0.022,0.179-0.066,0.357-0.089,0.513
			c-0.244,1.762,0,3.59,0.711,5.173c0.222,0.513,0.689,1.115,1.244,0.936c0.244-0.112,0.467-0.312,0.6-0.58
			c1.444-2.386,1.399-5.507,3.199-7.626c0.6-0.714,1.378-1.271,1.955-2.007c0.444-0.535,0.778-1.182,0.955-1.895
			c0.177-0.713,0.2-1.472,0.066-2.208C234.326,132.937,234.238,132.648,234.127,132.335z"/>
		<path opacity="0.1" enable-background="new    " d="M230.217,117.574c-0.244,0.134-0.467,0.357-0.644,0.624
			c-0.089,0.267-0.089,0.535,0,0.802c0.156,0.78,0.378,1.539,0.644,2.275c0.489-0.379,0.844-0.981,1-1.65
			c0.156-0.691,0.089-1.405-0.178-2.029c-0.089-0.201-0.178-0.401-0.289-0.58C230.594,117.218,230.416,117.418,230.217,117.574z"/>
		<path opacity="0.1" enable-background="new    " d="M193.138,122.19c-1.489-1.449-2.466-3.523-2.755-5.775
			c-0.066,0.446-0.111,0.914-0.133,1.36c-0.089,2.163,0.4,4.326,1.378,6.154C191.939,123.149,192.472,122.524,193.138,122.19z"/>
		<path opacity="0.1" enable-background="new    " d="M225.662,137.776c0.156-1.115,0.511-2.319,0.045-3.345
			c-0.533-1.137-1.888-1.65-3.155-1.94c-1.244-0.29-2.621-0.535-3.488-1.449c-0.422-0.535-0.778-1.137-1.044-1.806
			c-0.578-1.249-1.422-2.497-2.711-3.032c-2.044-0.847-4.421,0.379-6.62-0.045c-0.622-0.134-1.222-0.379-1.866-0.513
			c-1.066-0.179-2.155-0.067-3.177,0.334c-2.999,1.16-4.932,4.103-5.821,7.158c-0.889,3.055-0.911,6.243-1.2,9.388
			c-0.066,0.78-0.489,1.806-1.267,1.606c-0.089-1.227-0.178-2.52-0.8-3.568c-0.644-1.07-1.999-1.806-3.177-1.36
			c-0.356-0.089-0.666-0.334-0.889-0.691c0.045,0.446,0.045,0.914-0.022,1.36c-0.066,0.58-0.244,1.137-0.2,1.717
			c0.045,0.312,0.178,0.624,0.378,0.847c0.2,0.223,0.444,0.379,0.711,0.446c1.155-0.446,2.533,0.312,3.177,1.36
			c0.644,1.07,0.733,2.341,0.8,3.568c0.755,0.201,1.2-0.825,1.267-1.606c0.289-3.144,0.311-6.355,1.2-9.388
			c0.889-3.032,2.843-5.976,5.821-7.158c1.022-0.424,2.111-0.535,3.177-0.357c0.622,0.134,1.222,0.379,1.866,0.513
			c2.177,0.424,4.554-0.802,6.62,0.045c1.288,0.535,2.111,1.784,2.711,3.032c0.267,0.669,0.622,1.271,1.044,1.806
			c0.866,0.914,2.244,1.16,3.488,1.449c1.244,0.29,2.51,0.758,3.088,1.806C225.64,137.933,225.662,137.866,225.662,137.776z"/>
		<path opacity="0.1" enable-background="new    " d="M190.517,136.215c0.066-0.936,0.022-1.873-0.133-2.787
			c-0.133,0.959-0.156,1.94-0.089,2.921c0.022,0.246,0.045,0.491,0.066,0.736C190.406,136.818,190.45,136.527,190.517,136.215z"/>
	</g>
</g>
<g>
	<path fill="#FFFFFF" d="M289.868,207.971h-155v97.694h155V207.971z"/>
	<path opacity="0.1" fill="#C7C7C7" enable-background="new    " d="M275.934,281.7c-2.257,3.366-5.575,6.015-9.686,7.343
		c0.133,1.223,0.267,2.55,0.133,3.772l-15.528-0.817l15.128,2.958c-1.06,4.18-3.714,7.853-7.432,10.403h-20.966v0.51h-21.366
		c0-0.204,0-0.306,0.133-0.51c0.53-1.631,1.194-3.162,2.124-4.487c2.257-3.366,5.575-6.015,9.686-7.343
		c-0.53-3.874,0.397-7.853,2.521-11.217c2.257-3.366,5.575-5.916,9.686-7.343c-0.133-0.817-0.133-1.631-0.133-2.448l9.953,3.568
		l-9.82-5.303c0.267-2.345,1.06-4.691,2.387-6.73s3.051-3.874,5.175-5.303l9.023,13.358l-6.902-14.685
		c3.714-1.835,7.962-2.55,12.21-1.937c4.248,0.612,8.096,2.345,11.013,5.099c2.918,2.754,4.778,6.322,5.308,10.096
		C278.985,274.562,278.058,278.436,275.934,281.7L275.934,281.7z"/>
	<path opacity="0.1" fill="#C7C7C7" enable-background="new    " d="M263.723,300.362c-1.327,2.039-3.051,3.772-5.175,5.099h-20.966
		v0.51h-21.366c0-0.204,0-0.306,0.133-0.51c0.53-1.631,1.194-3.162,2.124-4.487c2.257-3.366,5.575-6.015,9.686-7.343
		c-0.133-1.222,3.981-1.123,9.556-0.204C248.329,294.956,264.52,299.239,263.723,300.362z"/>
	<path opacity="0.1" fill="#C7C7C7" enable-background="new    " d="M140.706,281.7c2.257,3.366,5.575,6.015,9.686,7.343
		c-0.133,1.223-0.267,2.55-0.133,3.772l15.528-0.817l-15.128,2.958c1.06,4.18,3.714,7.853,7.432,10.403h20.966v0.51h21.366
		c0-0.204-0.133-0.306-0.133-0.51c-0.53-1.631-1.194-3.06-2.124-4.487c-2.257-3.366-5.575-5.916-9.686-7.343
		c0.53-3.874-0.397-7.853-2.521-11.217c-2.257-3.366-5.575-5.916-9.686-7.343c0.133-0.817,0.133-1.631,0.133-2.448l-9.953,3.568
		l9.82-5.303c-0.267-2.345-1.06-4.691-2.387-6.73s-3.051-3.874-5.175-5.303l-9.023,13.358l6.769-14.685
		c-3.714-1.835-7.962-2.55-12.21-1.937c-4.115,0.613-7.962,2.345-11.013,5.099c-3.051,2.754-4.778,6.322-5.308,10.096
		s0.397,7.649,2.521,10.91h0.267v0.105L140.706,281.7L140.706,281.7z"/>
	<path opacity="0.1" fill="#C7C7C7" enable-background="new    " d="M152.913,300.362c1.327,2.039,3.051,3.772,5.175,5.099h20.966
		v0.51h21.366c0-0.204-0.133-0.306-0.133-0.51c-0.53-1.631-1.194-3.06-2.124-4.487c-2.257-3.366-5.575-5.916-9.686-7.343
		c0.133-1.222-3.981-1.123-9.556-0.204C168.308,294.956,152.116,299.239,152.913,300.362z"/>
	<path fill="#464353" d="M227.629,229.489h-34.637v35.079h34.637L227.629,229.489L227.629,229.489z"/>
	<path fill="#464353" d="M227.629,229.489h-34.637v35.079h34.637L227.629,229.489L227.629,229.489z"/>
	<path fill="#FECEB8" d="M178.261,296.587l-0.664,9.075h9.953l0.664-12.033L178.261,296.587z"/>
	<path fill="#FECEB8" d="M230.283,296.587l-1.46,9.075h9.023l0.53-12.033L230.283,296.587z"/>
	<path fill="#A1616A" d="M201.618,247.027c0,0-0.397,4.589-1.594,5.712c-1.194,1.222,10.75,11.727,20.173,1.325
		c0,0-4.115-3.162-3.051-6.628C218.073,243.969,201.618,247.027,201.618,247.027z"/>
	<path fill="#FECEB8" d="M201.618,247.027c0,0-0.397,4.589-1.594,5.712c-1.194,1.222,10.75,11.727,20.173,1.325
		c0,0-4.115-3.162-3.051-6.628C218.073,243.969,201.618,247.027,201.618,247.027z"/>
	<path fill="#FECEB8" d="M210.244,251.108c9.556,0,17.385-7.036,17.385-15.703c0-8.667-7.696-15.703-17.385-15.703
		c-9.556,0-17.385,7.036-17.385,15.703C192.992,244.072,200.688,251.108,210.244,251.108z"/>
	<path fill="#C7C7C7" d="M209.314,256.817c0,0-7.299-0.102-8.359-6.118c-1.46,1.123-2.921,2.141-4.511,3.162
		c-0.664,0.204-7.696,3.772-8.893,3.976c-1.327,0.204-2.521,0.817-3.451,1.529c-1.724,1.222-3.051,2.754-4.115,4.487
		c-1.06,1.733-1.594,3.67-1.594,5.712c-0.267,7.036-1.194,20.803-1.194,20.803l0.397,4.997v3.264c0,0,6.369,1.529,10.35-1.529
		c0,0,0-1.222,0.797-1.529c0.664-0.408,0.797-1.937,0.664-2.652c0-1.021,0-1.937,0-2.958c0.133,0.51,0.53,1.021,0.93,1.325
		c0.267,0.919,0.397,1.835,0.267,2.754c-0.397,0.613-0.797,2.141-0.397,2.448c0.133,0.306,0.267,0.613,0.267,0.919
		s-0.133,0.613-0.397,0.919c-0.664,0.817-1.194,1.733-1.594,2.754c0,0-0.397,1.937-0.797,2.141c-0.397,0.817-0.664,1.631-0.797,2.55
		h42.996c-0.797-1.937-1.327-3.976-1.724-6.118c0.133-1.021-1.06-4.997-0.267-6.118c1.194-1.427,1.857-3.162,1.857-4.997l0.53,4.18
		l-1.327,9.382c0,0,7.962,2.243,8.893,0.817c0.93-2.448,1.594-4.997,1.991-7.547c0,0,1.857-7.853,2.387-8.871
		c0.53-1.123,1.594-22.74-4.911-25.902c-6.502-3.162-18.579-8.565-18.976-8.259c-0.664,1.529-1.991,2.856-3.584,3.67
		C213.162,256.817,211.171,257.123,209.314,256.817z"/>
	<path opacity="0.1" fill="none" stroke="#000000" stroke-miterlimit="10" enable-background="new    " d="M188.611,278.028
		c-1.194,1.631-1.724,3.568-1.46,5.508c0.267,1.937,0.93,3.772,1.991,5.405"/>
	<path opacity="0.1" fill="none" stroke="#000000" stroke-miterlimit="10" enable-background="new    " d="M230.413,279.457
		c0.267,0.817,0.53,1.631,0.664,2.448c0.267,1.021,0.397,2.141,0.133,3.162c-0.133,1.021-0.664,2.039-1.327,2.958"/>
	<path fill="#464353" d="M203.545,224.594c1.327-0.306,2.787-0.204,4.115,0.408c1.194,0.613,2.521,1.021,3.848,1.427
		c0.93,0.204,1.724,0.204,2.787,0.306c1.724,0.306,3.184,1.021,4.378,2.039c1.194,1.123,1.991,2.448,2.387,3.976
		c0.797,3.874,0.083,8.096-1.724,11.523c-1.13,2.144-3.506,4.589-1.916,6.322c1.327,1.123,6.957,2.141,7.887,3.568
		c0.53,1.021,0.664,2.141,1.06,3.162c1.06,1.733,2.787,3.162,4.911,3.772c2.124,0.613,4.115,1.427,5.972,2.448
		c3.451,2.039,5.442,6.118,9.423,6.934c0.133,0.102,0.397,0.102,0.664,0.102s0.397,0,0.664-0.102
		c0.133-0.102,0.267-0.306,0.397-0.51c0.133-0.204,0.133-0.408,0.133-0.613c0.133-0.817,0-1.529-0.267-2.243
		c-0.267-0.715-0.797-1.427-1.327-1.937c-0.93-0.919-2.387-1.529-2.787-2.754c-0.267-1.222,0.53-2.243,0.93-3.366
		c1.46-3.568-0.93-7.445-3.714-10.3c-2.654-2.856-5.972-5.712-6.635-9.382c-0.133-1.222-0.267-2.448-0.133-3.772
		c0-2.55-0.53-5.099-1.46-7.547c-0.397-1.325-1.194-2.55-2.124-3.568c-0.93-0.919-1.991-1.631-2.921-2.55
		c-1.194-1.529-2.257-3.06-3.184-4.691c-1.327-1.937-3.184-3.568-5.442-4.691s-4.645-1.733-7.166-1.835
		c-4.778,0-9.423,1.937-13.537,4.283c-1.46,0.715-2.787,1.835-3.848,3.06c-1.724,2.448-1.194,5.814-2.257,8.565
		c-0.93,2.856-3.318,4.895-4.248,7.649c-0.267,0.817-0.267,1.631-0.133,2.448c0.267,0.919,0.664,1.733,1.194,2.55
		c0.93,2.039,1.46,4.18,1.46,6.322c0.267,2.652,0.397,5.508-1.194,7.649c-1.194,1.325-2.654,2.448-4.248,3.366
		c1.724,1.222,3.848,1.835,5.972,1.631c3.318,0.102,7.032,0,9.023-2.345c1.194-1.733,1.724-3.67,1.327-5.712
		c-0.133-2.141-0.664-4.282-1.46-6.424c-1.06-2.856-2.787-5.61-3.318-8.667c-0.133-1.123-0.133-2.243,0.133-3.264
		c0.267-1.123,0.797-2.039,1.594-2.958c0.664-0.715,1.724-1.021,2.257-1.835C202.218,226.122,201.954,225.104,203.545,224.594z"/>
	<g opacity="0.1">
		<path opacity="0.1" enable-background="new    " d="M188.744,239.074c0.93,2.039,1.46,4.18,1.46,6.322
			c0,0.715,0.133,1.427,0.133,2.141c0.133-1.529,0.133-3.06,0-4.589c-0.133-2.141-0.664-4.282-1.594-6.22
			c-0.53-0.817-0.93-1.631-1.194-2.448c-0.267,0.817-0.267,1.631-0.133,2.448C187.817,237.543,188.214,238.36,188.744,239.074z"/>
		<path opacity="0.1" enable-background="new    " d="M200.158,253.555c-1.991,2.345-5.838,2.448-9.156,2.345
			c-1.327,0-2.787-0.204-4.115-0.613c-0.664,0.51-1.327,0.919-1.991,1.325c1.724,1.222,3.848,1.835,5.972,1.631
			c3.318,0.102,7.032,0,9.156-2.345c1.194-1.529,1.724-3.468,1.46-5.303C201.218,251.718,200.821,252.739,200.158,253.555z"/>
		<path opacity="0.1" enable-background="new    " d="M243.154,259.775c0,0.204,0.133,0.306,0.267,0.51
			c0.133-0.408,0.397-0.919,0.664-1.325c0.397-1.021,0.53-2.141,0.397-3.264c0,0.204-0.133,0.51-0.267,0.715
			C243.684,257.532,242.89,258.654,243.154,259.775z"/>
		<path opacity="0.1" enable-background="new    " d="M220.064,233.465c0.133-1.123,0.133-2.141,0-3.264
			c-0.397-1.529-1.194-2.856-2.387-3.976c-1.194-1.123-2.787-1.835-4.378-2.039c-0.93-0.102-1.857-0.102-2.654-0.306
			c-1.327-0.306-2.654-0.817-3.848-1.427c-1.194-0.613-2.654-0.715-4.115-0.408c-1.594,0.51-1.327,1.529-1.991,2.55
			c-0.53,0.715-1.594,1.123-2.257,1.835c-1.327,1.631-1.991,3.67-1.724,5.814c0.267-1.223,0.797-2.345,1.594-3.264
			c0.664-0.715,1.724-1.021,2.257-1.835c0.664-1.021,0.53-2.141,1.991-2.55c1.327-0.306,2.787-0.204,4.115,0.408
			c1.194,0.613,2.521,1.021,3.848,1.427c0.93,0.204,1.724,0.204,2.787,0.306c1.724,0.306,3.184,1.021,4.378,2.039
			c1.194,1.123,1.991,2.448,2.387,3.976C219.93,232.954,220.064,233.159,220.064,233.465z"/>
		<path opacity="0.1" enable-background="new    " d="M246.872,267.832c-0.397,0.102-0.797,0.102-1.194,0
			c-3.981-0.817-6.105-4.895-9.423-6.934c-1.857-1.021-3.981-1.835-5.972-2.448c-2.124-0.613-3.848-2.039-4.911-3.772
			c-0.53-1.021-0.53-2.141-1.06-3.162c-0.93-1.427-2.124-2.652-3.451-3.772c-1.46-1.529-2.257-3.468-2.521-5.508
			c-0.133,0.613-0.133,1.222-0.133,1.835c0,2.243,0.93,4.487,2.521,6.22c1.327,1.123,2.521,2.345,3.451,3.772
			c0.53,1.021,0.664,2.141,1.06,3.162c1.06,1.733,2.787,3.162,4.911,3.772c2.124,0.613,4.115,1.427,5.972,2.448
			c3.451,2.039,5.442,6.118,9.423,6.934c0.133,0.102,0.397,0.102,0.664,0.102s0.397,0,0.664-0.102
			c0.133-0.102,0.267-0.306,0.397-0.51c0.133-0.204,0.133-0.408,0.133-0.613c0.133-0.613,0-1.222-0.133-1.733
			C247.135,267.73,247.002,267.832,246.872,267.832z"/>
	</g>
	<path opacity="0.1" fill="#C7C7C7" enable-background="new    " d="M172.686,215.212h-22.163v28.758h22.163V215.212z"/>
	<path opacity="0.1" fill="#C7C7C7" enable-background="new    " d="M169.502,219.29h-15.791v20.496h15.791V219.29z"/>
	<path opacity="0.1" fill="#C7C7C7" enable-background="new    " d="M281.906,219.494h-36.361v17.235h36.361V219.494
		L281.906,219.494z"/>
	<path opacity="0.1" fill="#C7C7C7" enable-background="new    " d="M277.127,221.738h-26.938v12.748h26.938V221.738z"/>
</g>
<g>
	<path fill="#FFFFFF" d="M461.653,207.971H306.675v97.621h155v-97.621H461.653z"/>
	<path opacity="0.1" fill="#C7C7C7" enable-background="new    " d="M358.549,233.413h-43.232v2.654h43.232V233.413z"/>
	<path opacity="0.1" fill="#C7C7C7" enable-background="new    " d="M323.315,219.366h-4.155v14.048h4.155V219.366z"/>
	<path opacity="0.1" fill="#C7C7C7" enable-background="new    " d="M329.402,219.366h-4.155v14.048h4.155V219.366z"/>
	<path opacity="0.1" fill="#C7C7C7" enable-background="new    " d="M335.489,219.366h-4.155v14.048h4.155V219.366z"/>
	<path opacity="0.1" fill="#C7C7C7" enable-background="new    " d="M341.576,219.366h-4.155v14.048h4.155V219.366z"/>
	<path opacity="0.1" fill="#C7C7C7" enable-background="new    " d="M347.663,219.366h-4.155v14.048h4.155V219.366z"/>
	<path opacity="0.1" fill="#C7C7C7" enable-background="new    " d="M353.75,219.366h-4.155v14.048h4.155V219.366z"/>
	<path opacity="0.1" fill="#C7C7C7" enable-background="new    " d="M323.315,222.019h-4.155v1.516h4.155V222.019z"/>
	<path opacity="0.1" fill="#C7C7C7" enable-background="new    " d="M329.402,222.019h-4.155v1.516h4.155V222.019z"/>
	<path opacity="0.1" fill="#C7C7C7" enable-background="new    " d="M335.489,222.019h-4.155v1.516h4.155V222.019z"/>
	<path opacity="0.1" fill="#C7C7C7" enable-background="new    " d="M341.576,222.019h-4.155v1.516h4.155V222.019z"/>
	<path opacity="0.1" fill="#C7C7C7" enable-background="new    " d="M347.663,222.019h-4.155v1.516h4.155V222.019z"/>
	<path opacity="0.1" fill="#C7C7C7" enable-background="new    " d="M353.75,222.019h-4.155v1.516h4.155V222.019z"/>
	<path opacity="0.1" fill="#C7C7C7" enable-background="new    " d="M323.315,228.865h-4.155v1.516h4.155V228.865z"/>
	<path opacity="0.1" fill="#C7C7C7" enable-background="new    " d="M329.402,228.865h-4.155v1.516h4.155V228.865z"/>
	<path opacity="0.1" fill="#C7C7C7" enable-background="new    " d="M335.489,228.865h-4.155v1.516h4.155V228.865z"/>
	<path opacity="0.1" fill="#C7C7C7" enable-background="new    " d="M341.576,228.865h-4.155v1.516h4.155V228.865z"/>
	<path opacity="0.1" fill="#C7C7C7" enable-background="new    " d="M347.663,228.865h-4.155v1.516h4.155V228.865z"/>
	<path opacity="0.1" fill="#C7C7C7" enable-background="new    " d="M353.75,228.865h-4.155v1.516h4.155V228.865z"/>
	<path opacity="0.1" fill="#C7C7C7" enable-background="new    " d="M453.344,240.259h-43.232v2.654h43.232V240.259z"/>
	<path opacity="0.1" fill="#C7C7C7" enable-background="new    " d="M418.11,226.211h-4.155v14.048h4.155V226.211z"/>
	<path opacity="0.1" fill="#C7C7C7" enable-background="new    " d="M424.197,226.211h-4.155v14.048h4.155V226.211z"/>
	<path opacity="0.1" fill="#C7C7C7" enable-background="new    " d="M430.284,226.211h-4.176v14.048h4.155v-14.048H430.284z"/>
	<path opacity="0.1" fill="#C7C7C7" enable-background="new    " d="M436.371,226.211h-4.155v14.048h4.155V226.211z"/>
	<path opacity="0.1" fill="#C7C7C7" enable-background="new    " d="M442.458,226.211h-4.155v14.048h4.155V226.211z"/>
	<path opacity="0.1" fill="#C7C7C7" enable-background="new    " d="M448.523,226.211h-4.155v14.048h4.155V226.211z"/>
	<path opacity="0.1" fill="#C7C7C7" enable-background="new    " d="M418.11,228.865h-4.155v1.516h4.155V228.865z"/>
	<path opacity="0.1" fill="#C7C7C7" enable-background="new    " d="M424.197,228.865h-4.155v1.516h4.155V228.865z"/>
	<path opacity="0.1" fill="#C7C7C7" enable-background="new    " d="M430.284,228.865h-4.176v1.516h4.155v-1.516H430.284z"/>
	<path opacity="0.1" fill="#C7C7C7" enable-background="new    " d="M436.371,228.865h-4.155v1.516h4.155V228.865z"/>
	<path opacity="0.1" fill="#C7C7C7" enable-background="new    " d="M442.458,228.865h-4.155v1.516h4.155V228.865z"/>
	<path opacity="0.1" fill="#C7C7C7" enable-background="new    " d="M448.523,228.865h-4.155v1.516h4.155V228.865z"/>
	<path opacity="0.1" fill="#C7C7C7" enable-background="new    " d="M418.11,235.688h-4.155v1.516h4.155V235.688z"/>
	<path opacity="0.1" fill="#C7C7C7" enable-background="new    " d="M424.197,235.688h-4.155v1.516h4.155V235.688z"/>
	<path opacity="0.1" fill="#C7C7C7" enable-background="new    " d="M430.284,235.688h-4.176v1.516h4.155v-1.516H430.284z"/>
	<path opacity="0.1" fill="#C7C7C7" enable-background="new    " d="M436.371,235.688h-4.155v1.516h4.155V235.688z"/>
	<path opacity="0.1" fill="#C7C7C7" enable-background="new    " d="M442.458,235.688h-4.155v1.516h4.155V235.688z"/>
	<path opacity="0.1" fill="#C7C7C7" enable-background="new    " d="M448.523,235.688h-4.155v1.516h4.155V235.688z"/>
	<path opacity="0.1" fill="#C7C7C7" enable-background="new    " d="M453.344,259.636h-43.232v2.654h43.232V259.636z"/>
	<path opacity="0.1" fill="#C7C7C7" enable-background="new    " d="M418.11,245.566h-4.155v14.048h4.155V245.566z"/>
	<path opacity="0.1" fill="#C7C7C7" enable-background="new    " d="M424.197,245.566h-4.155v14.048h4.155V245.566z"/>
	<path opacity="0.1" fill="#C7C7C7" enable-background="new    " d="M430.284,245.566h-4.176v14.048h4.155v-14.048H430.284z"/>
	<path opacity="0.1" fill="#C7C7C7" enable-background="new    " d="M436.371,245.566h-4.155v14.048h4.155V245.566z"/>
	<path opacity="0.1" fill="#C7C7C7" enable-background="new    " d="M442.458,245.566h-4.155v14.048h4.155V245.566z"/>
	<path opacity="0.1" fill="#C7C7C7" enable-background="new    " d="M448.523,245.566h-4.155v14.048h4.155V245.566z"/>
	<path opacity="0.1" fill="#C7C7C7" enable-background="new    " d="M418.11,248.22h-4.155v1.516h4.155V248.22z"/>
	<path opacity="0.1" fill="#C7C7C7" enable-background="new    " d="M424.197,248.22h-4.155v1.516h4.155V248.22z"/>
	<path opacity="0.1" fill="#C7C7C7" enable-background="new    " d="M430.284,248.22h-4.176v1.516h4.155v-1.516H430.284z"/>
	<path opacity="0.1" fill="#C7C7C7" enable-background="new    " d="M436.371,248.22h-4.155v1.516h4.155V248.22z"/>
	<path opacity="0.1" fill="#C7C7C7" enable-background="new    " d="M442.458,248.22h-4.155v1.516h4.155V248.22z"/>
	<path opacity="0.1" fill="#C7C7C7" enable-background="new    " d="M448.523,248.22h-4.155v1.516h4.155V248.22z"/>
	<path opacity="0.1" fill="#C7C7C7" enable-background="new    " d="M418.11,255.065h-4.155v1.516h4.155V255.065z"/>
	<path opacity="0.1" fill="#C7C7C7" enable-background="new    " d="M424.197,255.065h-4.155v1.516h4.155V255.065z"/>
	<path opacity="0.1" fill="#C7C7C7" enable-background="new    " d="M430.284,255.065h-4.176v1.516h4.155v-1.516H430.284z"/>
	<path opacity="0.1" fill="#C7C7C7" enable-background="new    " d="M436.371,255.065h-4.155v1.516h4.155V255.065z"/>
	<path opacity="0.1" fill="#C7C7C7" enable-background="new    " d="M442.458,255.065h-4.155v1.516h4.155V255.065z"/>
	<path opacity="0.1" fill="#C7C7C7" enable-background="new    " d="M448.523,255.065h-4.155v1.516h4.155V255.065z"/>
	<path opacity="0.1" fill="#C7C7C7" enable-background="new    " d="M341.821,263.471c-0.333-0.491-0.622-1.003-0.889-1.539
		l6.22-1.204l-6.754,0.067c-0.644-1.672-1-3.478-1.044-5.307c-0.045-1.828,0.245-3.657,0.822-5.352l9.042,5.552l-8.331-7.269
		c0.778-1.606,1.822-2.988,3.088-4.103c1.244-1.093,2.688-1.873,4.199-2.297c1.51-0.424,3.088-0.446,4.621-0.112
		s2.999,1.048,4.287,2.096s2.399,2.386,3.221,3.947c0.844,1.561,1.399,3.323,1.622,5.151c0.244,1.828,0.156,3.702-0.245,5.485
		c-0.4,1.784-1.088,3.456-2.066,4.906c0.511,0.758,0.933,1.583,1.311,2.453l-8.064,4.972l8.62-3.411
		c0.6,2.118,0.755,4.393,0.444,6.6s-1.088,4.281-2.266,6.043c1.311,1.984,2.133,4.371,2.355,6.89
		c0.222,2.52-0.133,5.039-1.066,7.314c-0.933,2.275-2.377,4.192-4.176,5.53c-1.8,1.338-3.888,2.051-6.021,2.051
		s-4.221-0.714-6.021-2.051c-1.8-1.337-3.266-3.256-4.176-5.53c-0.933-2.275-1.311-4.817-1.066-7.314
		c0.222-2.52,1.044-4.906,2.355-6.89c-1.577-2.363-2.421-5.307-2.421-8.317C339.399,268.778,340.266,265.835,341.821,263.471
		L341.821,263.471z"/>
	<path opacity="0.1" fill="#C7C7C7" enable-background="new    " d="M362.081,271.788c0,3.01-0.844,5.953-2.421,8.317
		c1.311,1.984,2.133,4.371,2.355,6.89c0.222,2.52-0.133,5.039-1.066,7.314s-2.377,4.192-4.176,5.53
		c-1.8,1.338-3.888,2.051-6.021,2.051s-4.221-0.714-6.021-2.051s-3.266-3.256-4.176-5.53c-0.933-2.275-1.311-4.817-1.066-7.314
		c0.222-2.52,1.044-4.906,2.355-6.89C340.31,277.832,362.081,270.272,362.081,271.788z"/>
	<path opacity="0.2" fill="#3F3D56" enable-background="new    " d="M352.573,305.481c0.022,0.045,0.045,0.067,0.045,0.112h-3.843
		c0.022-0.045,0.045-0.067,0.045-0.112c-0.333-0.691-0.511-1.472-0.489-2.252c0-0.535,0.089-1.07,0.244-1.583
		c0.222,0.045,0.489,0.089,0.778,0.134c0.889,0.112,1.8,0.112,2.688,0c0.244-0.022,0.533-0.067,0.8-0.134v0.022
		c0.156,0.491,0.222,1.026,0.222,1.561C353.062,304.009,352.884,304.789,352.573,305.481z"/>
	<path opacity="0.1" fill="#C7C7C7" enable-background="new    " d="M338.711,305.592h-21.416c-0.045-0.156-0.089-0.312-0.133-0.446
		c-0.755-2.876-0.666-5.976,0.244-8.785c-2.088-1.717-3.643-4.214-4.398-7.091c-0.755-2.876-0.666-5.976,0.244-8.808
		c-0.422-0.357-0.844-0.736-1.222-1.16l5.643-3.345l-6.42,2.408c-1.022-1.36-1.822-2.965-2.31-4.705
		c-0.489-1.739-0.689-3.59-0.555-5.419l10.019,2.141l-9.775-4.014c0.356-1.806,1-3.501,1.933-4.995
		c0.933-1.494,2.088-2.743,3.443-3.657c1.355-0.936,2.843-1.516,4.398-1.739c1.555-0.223,3.11-0.045,4.621,0.491
		c1.489,0.535,2.866,1.427,4.065,2.631c1.177,1.204,2.155,2.676,2.843,4.348c0.689,1.672,1.066,3.478,1.133,5.329
		c0.066,1.85-0.2,3.702-0.755,5.419c0.666,0.557,1.288,1.182,1.844,1.895l-6.487,7.581l7.376-6.288
		c1.111,1.806,1.822,3.924,2.066,6.154c0.244,2.23,0.022,4.482-0.666,6.578c2.044,1.672,3.577,4.103,4.332,6.89
		C339.555,299.795,339.532,302.805,338.711,305.592z"/>
	<path opacity="0.1" fill="#C7C7C7" enable-background="new    " d="M338.711,305.592h-21.416c-0.045-0.156-0.089-0.29-0.133-0.446
		c-0.755-2.876-0.666-5.976,0.244-8.785c-2.022-1.65,16.906-16.478,17.306-15.051c0.755,2.876,0.666,5.976-0.245,8.808
		c2.044,1.672,3.555,4.103,4.332,6.89C339.555,299.795,339.532,302.805,338.711,305.592z"/>
	<path opacity="0.1" fill="#C7C7C7" enable-background="new    " d="M435.749,287.353c-1.311,2.587-3.31,4.593-5.687,5.664
		c0.111,0.959,0.111,1.94,0.045,2.899l-9.086-0.647l8.886,2.297c-0.578,3.211-2.155,6.065-4.377,8.027h-12.374v0.379h-12.597
		c0.022-0.134,0.045-0.246,0.089-0.379c0.467-2.074,1.333-3.969,2.533-5.552c1.2-1.583,2.711-2.81,4.377-3.59
		c-0.311-2.988,0.222-6.02,1.51-8.629c1.311-2.587,3.31-4.593,5.687-5.664c-0.066-0.624-0.089-1.227-0.089-1.85l5.865,2.743
		l-5.798-4.036c0.156-1.828,0.644-3.59,1.399-5.173c0.755-1.606,1.777-2.988,3.021-4.103l5.354,10.257l-3.999-11.283
		c2.177-1.449,4.71-1.984,7.176-1.561c2.466,0.424,4.754,1.828,6.487,3.947c1.733,2.118,2.843,4.884,3.133,7.827
		C437.549,281.845,437.016,284.833,435.749,287.353L435.749,287.353z"/>
	<path opacity="0.1" fill="#C7C7C7" enable-background="new    " d="M428.529,301.646c-0.778,1.539-1.8,2.899-3.021,3.947h-12.374
		v0.379H400.56c0.022-0.134,0.045-0.268,0.089-0.379c0.467-2.074,1.333-3.969,2.533-5.552c1.2-1.583,2.711-2.81,4.377-3.59
		c-0.111-0.981,2.333-0.847,5.599-0.201C419.509,297.52,428.973,300.776,428.529,301.646z"/>
	<path fill="#F4C4B5" d="M375.445,265.875c0,0,1.01,9.816-2.433,13.071c-3.466,3.256,2.933,22.766,13.529,20.492
		c10.597-2.275,14.907-18.663,14.907-18.663s-10.604-2.599-6.672-15.822L375.445,265.875z"/>
	<path fill="#FECEB8" d="M384.297,272.502c9.686,0,17.55-9.321,17.55-20.826c0-11.505-7.864-20.826-17.55-20.826
		s-17.551,9.321-17.551,20.826C366.746,263.181,374.611,272.502,384.297,272.502z"/>
	<path fill="#C7C7C7" d="M413.134,291.254v14.159h-57.961V291.9c0-1.717,0.422-3.389,1.222-4.817c0.8-1.427,1.933-2.542,3.266-3.211
		l1.666-0.847c4.199-2.118,9.308-4.772,10.975-5.865c0.178-0.112,0.356-0.246,0.511-0.401c0.911-1.093,0.733,0.334,0.733,0.334
		s-0.022,0.267-0.045,0.736c-0.089,3.189,0.289,15.698,12.663,14.672c12.063-1.026,12.597-10.681,12.486-13.535
		c0-0.267-0.022-0.535-0.066-0.78c0-0.067,1.044,0.334,2.444,0.936c2.533,1.115,6.243,2.876,7.242,3.724
		c0.311,0.246,0.689,0.535,1.088,0.802c1.133,0.758,2.088,1.85,2.755,3.189C412.8,288.177,413.156,289.715,413.134,291.254
		L413.134,291.254z"/>
	<path opacity="0.1" enable-background="new    " d="M401.048,279.682c-1.022,5.619-4.221,16.144-15.796,16.411
		c-12.307,0.29-13.019-14.248-12.952-18.373c0.178-0.112,0.356-0.246,0.511-0.401c0.911-1.093,0.733,0.334,0.733,0.334
		s-1.555,16.59,12.618,15.385c14.173-1.204,12.441-14.315,12.441-14.315C398.605,278.679,399.648,279.08,401.048,279.682z"/>
	<g opacity="0.1">
		<path opacity="0.1" enable-background="new    " d="M406.247,242.712c-0.2,0.491-0.444,0.936-0.755,1.315
			c-0.578,0.736-1.355,1.294-1.955,2.007c-1.8,2.141-1.755,5.24-3.199,7.648c-0.133,0.267-0.356,0.468-0.6,0.58
			c-0.555,0.179-1.022-0.424-1.244-0.936c-0.289-0.624-0.489-1.315-0.622-2.007c-0.022,0.179-0.066,0.357-0.089,0.513
			c-0.244,1.762,0,3.59,0.711,5.173c0.222,0.513,0.689,1.115,1.244,0.936c0.244-0.112,0.467-0.312,0.6-0.58
			c1.444-2.386,1.399-5.507,3.199-7.626c0.6-0.714,1.378-1.271,1.955-2.007c0.444-0.535,0.778-1.182,0.955-1.895
			c0.178-0.713,0.2-1.472,0.066-2.208C406.447,243.314,406.358,243.024,406.247,242.712z"/>
		<path opacity="0.1" enable-background="new    " d="M402.337,227.951c-0.244,0.134-0.467,0.357-0.644,0.624
			c-0.089,0.267-0.089,0.535,0,0.802c0.156,0.78,0.378,1.539,0.644,2.275c0.489-0.379,0.844-0.981,1-1.65
			c0.156-0.691,0.089-1.405-0.178-2.029c-0.089-0.201-0.177-0.401-0.289-0.58C402.714,227.594,402.536,227.794,402.337,227.951z"/>
		<path opacity="0.1" enable-background="new    " d="M365.258,232.566c-1.489-1.449-2.466-3.523-2.755-5.775
			c-0.066,0.446-0.111,0.914-0.133,1.36c-0.089,2.163,0.4,4.326,1.378,6.154C364.059,233.525,364.592,232.901,365.258,232.566z"/>
		<path opacity="0.1" enable-background="new    " d="M397.782,248.153c0.156-1.115,0.511-2.319,0.045-3.345
			c-0.533-1.137-1.888-1.65-3.155-1.94c-1.244-0.29-2.621-0.535-3.488-1.449c-0.422-0.535-0.778-1.137-1.044-1.806
			c-0.578-1.249-1.422-2.497-2.711-3.032c-2.044-0.847-4.421,0.379-6.62-0.045c-0.622-0.134-1.222-0.379-1.866-0.513
			c-1.066-0.179-2.155-0.067-3.177,0.334c-2.999,1.16-4.932,4.103-5.821,7.158c-0.889,3.055-0.911,6.243-1.2,9.388
			c-0.066,0.78-0.489,1.806-1.267,1.606c-0.089-1.227-0.177-2.52-0.8-3.568c-0.644-1.07-1.999-1.806-3.177-1.36
			c-0.356-0.089-0.666-0.334-0.889-0.691c0.045,0.446,0.045,0.914-0.022,1.36c-0.066,0.58-0.244,1.137-0.2,1.717
			c0.045,0.312,0.178,0.624,0.378,0.847c0.2,0.223,0.444,0.379,0.711,0.446c1.155-0.446,2.533,0.312,3.177,1.36
			c0.644,1.07,0.733,2.341,0.8,3.568c0.755,0.201,1.2-0.825,1.267-1.606c0.289-3.144,0.311-6.355,1.2-9.388
			c0.889-3.032,2.843-5.976,5.821-7.158c1.022-0.424,2.111-0.535,3.177-0.357c0.622,0.134,1.222,0.379,1.866,0.513
			c2.177,0.424,4.554-0.802,6.62,0.045c1.288,0.535,2.111,1.784,2.711,3.032c0.267,0.669,0.622,1.271,1.044,1.806
			c0.866,0.914,2.244,1.16,3.488,1.449s2.51,0.758,3.088,1.806C397.76,248.309,397.782,248.242,397.782,248.153z"/>
		<path opacity="0.1" enable-background="new    " d="M362.637,246.592c0.066-0.936,0.022-1.873-0.133-2.787
			c-0.133,0.959-0.156,1.94-0.089,2.921c0.022,0.246,0.045,0.491,0.066,0.736C362.526,247.194,362.57,246.904,362.637,246.592z"/>
	</g>
</g>
<path fill="#FFFFFF" d="M383.482,289.702l-1.368-0.821l-7.113-7.25c0,0-0.684-0.273-0.821,2.189l-0.137,2.462l-4.651,3.557
	l5.636,15.495l15.501-0.212l11.968-13.779l-7.25-5.335l-1.368-3.146l-8.071,6.429L383.482,289.702z"/>
<path fill="#404054" d="M413.508,283.131c5.722,1.11,9.297,14.869,8.52,23.089c-8.389,0.085-78,0.251-78,0.251
	c-0.431-9.874,3.072-20.24,8.817-21.608c1.915-0.684,14.774-5.198,14.774-5.198s3.83-2.736,5.062-5.062
	c0.684-1.505,1.641-2.736,2.736-3.967l0,0l0,0c0,0,0,0,0.137-0.137l0,0l0.137-0.137l0,0l-0.273,10.533l8.878,24.965
	c0,0,4.254-9.37,7.127-16.62c1.641-4.104,2.462-9.165,3.01-12.859c0.056-2.701-0.652-4.701-0.652-4.701l1.062-0.087l0,0l0,0l0,0l0,0
	l0,0c0,0,0.137,0.137,0.273,0.273l0,0c0.821,1.231,3.557,4.788,5.472,4.924C403.296,279.181,408.825,281.072,413.508,283.131z"/>
<path fill="#454554" d="M371.869,227.897l-3.199-1.44c0,0,6.879-6.879,15.998-5.759l-2.4-3.039c0,0,6.399-2.24,11.838,4.799
	c2.88,3.68,6.079,7.999,8.159,12.798l3.36,0.16l-1.6,3.039l4.799,3.36l-5.119-0.96c0.32,2.72,0,5.439-0.8,7.999l-1.28,3.52
	c0,0-4.159-10.399-3.999-11.678l-0.16,3.2c0,0-3.039-3.039-2.88-4.959l-1.76,2.08l-0.8-3.52l-10.718,2.88l1.76-2.72l-6.559,0.64
	l2.72-3.36c0,0-7.519,3.68-7.999,7.199c-0.48,3.52-4.319,7.679-4.319,7.679l-1.6-3.199
	C365.31,246.614,363.391,232.216,371.869,227.897z"/>
<g>
	<path fill="#FFFFFF" d="M461.653,97.508h-155v97.694h155V97.508z"/>
	<path opacity="0.1" fill="#C7C7C7" enable-background="new    " d="M447.719,171.237c-2.257,3.366-5.575,6.015-9.686,7.343
		c0.133,1.222,0.267,2.55,0.133,3.772l-15.528-0.817l15.128,2.958c-1.06,4.18-3.714,7.853-7.432,10.403h-20.966v0.51h-21.366
		c0-0.204,0-0.306,0.133-0.51c0.53-1.631,1.194-3.162,2.124-4.487c2.257-3.366,5.575-6.015,9.686-7.343
		c-0.53-3.874,0.397-7.853,2.521-11.217c2.257-3.366,5.575-5.916,9.686-7.343c-0.133-0.817-0.133-1.631-0.133-2.448l9.953,3.568
		l-9.82-5.303c0.267-2.345,1.06-4.691,2.387-6.73s3.051-3.874,5.175-5.303l9.023,13.358l-6.902-14.685
		c3.714-1.835,7.962-2.55,12.21-1.937c4.248,0.612,8.096,2.345,11.013,5.099c2.918,2.754,4.778,6.322,5.308,10.096
		C450.77,164.099,449.843,167.973,447.719,171.237L447.719,171.237z"/>
	<path opacity="0.1" fill="#C7C7C7" enable-background="new    " d="M435.509,189.899c-1.327,2.039-3.051,3.772-5.175,5.099h-20.966
		v0.51h-21.366c0-0.204,0-0.306,0.133-0.51c0.53-1.631,1.194-3.162,2.124-4.487c2.257-3.366,5.575-6.015,9.686-7.343
		c-0.133-1.222,3.981-1.123,9.556-0.204C420.114,184.493,436.306,188.776,435.509,189.899z"/>
	<path opacity="0.1" fill="#C7C7C7" enable-background="new    " d="M312.492,171.237c2.257,3.366,5.575,6.015,9.686,7.343
		c-0.133,1.222-0.267,2.55-0.133,3.772l15.528-0.817l-15.128,2.958c1.06,4.18,3.714,7.853,7.432,10.403h20.966v0.51h21.366
		c0-0.204-0.133-0.306-0.133-0.51c-0.53-1.631-1.194-3.06-2.124-4.487c-2.257-3.366-5.575-5.916-9.686-7.343
		c0.53-3.874-0.397-7.853-2.521-11.217c-2.257-3.366-5.575-5.916-9.686-7.343c0.133-0.817,0.133-1.631,0.133-2.448l-9.953,3.568
		l9.82-5.303c-0.267-2.345-1.06-4.691-2.387-6.73s-3.051-3.874-5.175-5.303l-9.023,13.358l6.769-14.685
		c-3.714-1.835-7.962-2.55-12.21-1.937c-4.115,0.613-7.962,2.345-11.013,5.099s-4.778,6.322-5.308,10.096
		c-0.53,3.775,0.397,7.649,2.521,10.91h0.267v0.105L312.492,171.237L312.492,171.237z"/>
	<path opacity="0.1" fill="#C7C7C7" enable-background="new    " d="M324.699,189.899c1.327,2.039,3.051,3.772,5.175,5.099h20.966
		v0.51h21.366c0-0.204-0.133-0.306-0.133-0.51c-0.53-1.631-1.194-3.06-2.124-4.487c-2.257-3.366-5.575-5.916-9.686-7.343
		c0.133-1.222-3.981-1.123-9.556-0.204C340.093,184.493,323.902,188.776,324.699,189.899z"/>
	<path fill="#464353" d="M399.414,119.026h-34.637v35.079h34.637V119.026z"/>
	<path opacity="0.1" enable-background="new    " d="M399.414,119.026h-34.637v35.079h34.637V119.026z"/>
	<path fill="#FECEB8" d="M350.046,186.124l-0.664,9.075h9.953l0.664-12.033L350.046,186.124z"/>
	<path fill="#FECEB8" d="M402.069,186.124l-1.46,9.075h9.023l0.53-12.033L402.069,186.124z"/>
	<path fill="#A1616A" d="M373.403,136.564c0,0-0.397,4.589-1.594,5.712c-1.194,1.222,10.75,11.727,20.173,1.325
		c0,0-4.115-3.162-3.051-6.628C389.858,133.506,373.403,136.564,373.403,136.564z"/>
	<path fill="#FECEB8" d="M373.403,136.564c0,0-0.397,4.589-1.594,5.712c-1.194,1.222,10.75,11.727,20.173,1.325
		c0,0-4.115-3.162-3.051-6.628C389.858,133.506,373.403,136.564,373.403,136.564z"/>
	<path fill="#FECEB8" d="M382.512,140.645c9.822,0,17.868-7.238,17.868-16.154s-7.91-16.154-17.868-16.154
		c-9.822,0-17.868,7.238-17.868,16.154C364.781,133.407,372.691,140.645,382.512,140.645z"/>
	<path fill="#AAAAAA" d="M381.099,146.354c0,0-7.299-0.102-8.359-6.118c-1.46,1.123-2.921,2.141-4.511,3.162
		c-0.664,0.204-7.696,3.772-8.893,3.976c-1.327,0.204-2.521,0.817-3.451,1.529c-1.724,1.222-3.051,2.754-4.115,4.487
		c-1.06,1.733-1.594,3.67-1.594,5.712c-0.267,7.036-1.194,20.803-1.194,20.803l0.397,4.997v3.264c0,0,6.369,1.529,10.35-1.529
		c0,0,0-1.222,0.797-1.529c0.664-0.408,0.797-1.937,0.664-2.652c0-1.021,0-1.937,0-2.958c0.133,0.51,0.53,1.021,0.93,1.325
		c0.267,0.919,0.397,1.835,0.267,2.754c-0.397,0.613-0.797,2.141-0.397,2.448c0.133,0.306,0.267,0.613,0.267,0.919
		s-0.133,0.613-0.397,0.919c-0.664,0.817-1.194,1.733-1.594,2.754c0,0-0.397,1.937-0.797,2.141c-0.397,0.817-0.664,1.631-0.797,2.55
		h42.996c-0.797-1.937-1.327-3.976-1.724-6.118c0.133-1.021-1.06-4.997-0.267-6.118c1.194-1.427,1.857-3.162,1.857-4.997l0.53,4.18
		l-1.327,9.382c0,0,7.962,2.243,8.893,0.817c0.93-2.448,1.594-4.997,1.991-7.547c0,0,1.857-7.853,2.387-8.871
		c0.53-1.123,1.594-22.74-4.911-25.902c-6.502-3.162-18.579-8.565-18.976-8.259c-0.664,1.529-1.991,2.856-3.584,3.67
		C384.947,146.354,382.956,146.66,381.099,146.354z"/>
	<path opacity="0.1" fill="none" stroke="#000000" stroke-miterlimit="10" enable-background="new    " d="M360.396,167.565
		c-1.194,1.631-1.724,3.568-1.46,5.508c0.267,1.937,0.93,3.772,1.991,5.405"/>
	<path opacity="0.1" fill="none" stroke="#000000" stroke-miterlimit="10" enable-background="new    " d="M402.199,168.994
		c0.267,0.817,0.53,1.631,0.664,2.448c0.267,1.021,0.397,2.141,0.133,3.162c-0.133,1.021-0.664,2.039-1.327,2.958"/>
	<path fill="#464353" d="M392.201,111.644c-1.35-0.312-2.837-0.208-4.187,0.416c-1.215,0.624-2.565,1.039-3.916,1.453
		c-0.947,0.208-1.754,0.208-2.837,0.312c-1.754,0.312-3.241,1.039-4.455,2.076c-1.215,1.143-2.026,2.492-2.43,4.048
		c-0.811,3.944,1.754,7.787,1.754,11.732c0,2.284-0.947,4.464-2.565,6.228c-1.35,1.143-2.565,2.388-3.512,3.84
		c-0.54,1.039-0.675,2.18-1.079,3.219c-1.079,1.764-2.837,3.219-4.998,3.84c-2.162,0.624-4.187,1.453-6.077,2.492
		c-3.512,2.076-7.56-3.427-7.968-4.571c-1.486-3.633,0.947-7.58,3.78-10.487c2.701-2.908,6.077-5.815,6.753-9.552
		c0.136-1.245,0.271-2.492,0.136-3.84c0-2.596,0.54-5.192,1.486-7.683c0.404-1.349,1.215-2.596,2.162-3.633
		c0.947-0.935,2.026-1.66,2.973-2.596c1.215-1.556,2.297-3.115,3.241-4.776c1.35-1.972,3.241-3.633,5.538-4.776
		c2.297-1.143,4.727-1.764,7.292-1.868c4.862,0,9.589,1.972,13.777,4.36c1.486,0.728,2.837,1.868,3.916,3.116
		c1.754,2.492,1.215,5.919,2.297,8.72c0.947,2.908,3.376,4.984,4.323,7.787c0.271,0.832,0.271,1.66,0.136,2.492
		c-0.271,0.935-0.675,1.764-1.215,2.596c-0.947,2.076-1.486,4.256-1.486,6.436c-0.271,2.7-0.404,5.607,1.215,7.787
		c1.859,3.162-0.951,6.719-3.113,6.512c-3.376,0.104-5.798-1.424-7.824-3.812c-1.215-1.764-6.608-2.518-6.204-4.597
		c0.136-2.18,5.833-3.25,7.25-7.143c1.66-2.741,1.927-6.327,2.466-9.44c0.136-1.143,0.136-2.284-0.136-3.323
		c-0.271-1.143-0.811-2.076-1.622-3.012c-0.675-0.728-1.754-1.039-2.297-1.868C393.552,113.201,393.82,112.164,392.201,111.644z"/>
	<g opacity="0.1">
		<path opacity="0.1" enable-background="new    " d="M360.529,128.611c0.93,2.039,1.46,4.18,1.46,6.322
			c0,0.715,0.133,1.427,0.133,2.141c0.133-1.529,0.133-3.06,0-4.589c-0.133-2.141-0.664-4.282-1.594-6.22
			c-0.53-0.817-0.93-1.631-1.194-2.448c-0.267,0.817-0.267,1.631-0.133,2.448C359.602,127.08,359.999,127.897,360.529,128.611z"/>
		<path opacity="0.1" enable-background="new    " d="M371.943,143.092c-1.991,2.345-5.838,2.448-9.156,2.345
			c-1.327,0-2.787-0.204-4.115-0.613c-0.664,0.51-1.327,0.919-1.991,1.325c1.724,1.222,3.848,1.835,5.972,1.631
			c3.318,0.102,7.032,0,9.156-2.345c1.194-1.529,1.724-3.468,1.46-5.303C373.003,141.255,372.606,142.276,371.943,143.092z"/>
		<path opacity="0.1" enable-background="new    " d="M414.939,149.312c0,0.204,0.133,0.306,0.267,0.51
			c0.133-0.408,0.397-0.919,0.664-1.325c0.397-1.021,0.53-2.141,0.397-3.264c0,0.204-0.133,0.51-0.267,0.715
			C415.469,147.069,414.676,148.192,414.939,149.312z"/>
		<path opacity="0.1" enable-background="new    " d="M391.849,123.002c0.133-1.123,0.133-2.141,0-3.264
			c-0.397-1.529-1.194-2.856-2.387-3.976c-1.194-1.123-2.787-1.835-4.378-2.039c-0.93-0.102-1.857-0.102-2.654-0.306
			c-1.327-0.306-2.654-0.817-3.848-1.427c-1.194-0.613-2.654-0.715-4.115-0.408c-1.594,0.51-1.327,1.529-1.991,2.55
			c-0.53,0.715-1.594,1.123-2.257,1.835c-1.327,1.631-1.991,3.67-1.724,5.814c0.267-1.222,0.797-2.345,1.594-3.264
			c0.664-0.715,1.724-1.021,2.257-1.835c0.664-1.021,0.53-2.141,1.991-2.55c1.327-0.306,2.787-0.204,4.115,0.408
			c1.194,0.613,2.521,1.021,3.848,1.427c0.93,0.204,1.724,0.204,2.787,0.306c1.724,0.306,3.184,1.021,4.378,2.039
			c1.194,1.123,1.991,2.448,2.387,3.976C391.715,122.491,391.849,122.696,391.849,123.002z"/>
		<path opacity="0.1" enable-background="new    " d="M418.657,157.369c-0.397,0.102-0.797,0.102-1.194,0
			c-3.981-0.817-6.105-4.895-9.423-6.934c-1.857-1.021-3.981-1.835-5.972-2.448c-2.124-0.613-3.848-2.039-4.911-3.772
			c-0.53-1.021-0.53-2.141-1.06-3.162c-0.93-1.427-2.124-2.652-3.451-3.772c-1.46-1.529-2.257-3.468-2.521-5.508
			c-0.133,0.613-0.133,1.222-0.133,1.835c0,2.243,0.93,4.487,2.521,6.22c1.327,1.123,2.521,2.345,3.451,3.772
			c0.53,1.021,0.664,2.141,1.06,3.162c1.06,1.733,2.787,3.162,4.911,3.772c2.124,0.613,4.115,1.427,5.972,2.448
			c3.451,2.039,5.442,6.118,9.423,6.934c0.133,0.102,0.397,0.102,0.664,0.102s0.397,0,0.664-0.102
			c0.133-0.102,0.267-0.306,0.397-0.51c0.133-0.204,0.133-0.408,0.133-0.613c0.133-0.613,0-1.222-0.133-1.733
			C418.92,157.267,418.787,157.369,418.657,157.369z"/>
	</g>
	<path opacity="0.1" fill="#C7C7C7" enable-background="new    " d="M344.471,104.749h-22.163v28.758h22.163V104.749z"/>
	<path opacity="0.1" fill="#C7C7C7" enable-background="new    " d="M341.287,108.827h-15.791v20.496h15.791L341.287,108.827
		L341.287,108.827z"/>
	<path opacity="0.1" fill="#C7C7C7" enable-background="new    " d="M453.691,109.031H417.33v17.235h36.361V109.031L453.691,109.031
		z"/>
	<path opacity="0.1" fill="#C7C7C7" enable-background="new    " d="M448.913,111.275h-26.938v12.748h26.938V111.275z"/>
</g>
<path fill="#3F3D56" d="M420.042,305.72c-9.389,0-73.201,0.251-73.201,0.251"/>
<path fill="#3F3D56" d="M420.042,305.72c-9.514,0.197-73.201,0.251-73.201,0.251"/>
</svg>
