<?xml version="1.0" encoding="utf-8"?>
<!-- Generator: Adobe Illustrator 17.0.0, SVG Export Plug-In . SVG Version: 6.00 Build 0)  -->
<!DOCTYPE svg PUBLIC "-//W3C//DTD SVG 1.1//EN" "http://www.w3.org/Graphics/SVG/1.1/DTD/svg11.dtd">
<svg version="1.1" id="Layer_1" xmlns="http://www.w3.org/2000/svg" xmlns:xlink="http://www.w3.org/1999/xlink" x="0px" y="0px"
	 width="440px" height="367px" viewBox="0 0 440 367" enable-background="new 0 0 440 367" xml:space="preserve">
<g>
	<defs>
		<rect id="SVGID_1_" width="440" height="367"/>
	</defs>
	<clipPath id="SVGID_2_">
		<use xlink:href="#SVGID_1_"  overflow="visible"/>
	</clipPath>
	
		<linearGradient id="SVGID_3_" gradientUnits="userSpaceOnUse" x1="237.4912" y1="840.9441" x2="237.4912" y2="483.3312" gradientTransform="matrix(1 0 0 1 16.8 -473.92)">
		<stop  offset="0" style="stop-color:#818181;stop-opacity:0.25"/>
		<stop  offset="0.54" style="stop-color:#818181;stop-opacity:0.12"/>
		<stop  offset="1" style="stop-color:#818181;stop-opacity:0.1"/>
	</linearGradient>
	<path clip-path="url(#SVGID_2_)" fill="url(#SVGID_3_)" d="M428.132,110.867c-1.293-1.052-2.501-2.205-3.612-3.447
		c0,0.296,0,0.593,0,0.889c-8.82-9-8.509-19.904-4.898-29.851l1.194-0.442c5.67-14.991,18.665-27.564,18.665-27.564l-1.942,0.816
		c0.602-0.621,0.947-0.971,0.947-0.971c-80.581,34.375-136.648,36.38-142.9,36.496c-3.854-1.456-35.611-13.02-66.333-17.331
		c-9.665-1.403-19.262-2.107-27.883-1.563l-9.68-41.559l-0.184,0.112c-0.452-3.563-2.126-11.321-8.252-16.132
		c-8.18-6.389-2.088,23.005-2.088,23.005l0.67-0.316l3.427,37.011l-1.67,1.398c-9.683,2.886-19.675,4.609-29.766,5.131
		c1.861-1.721,3.394-3.766,4.524-6.034c0.65,0.134,1.323,0.105,1.959-0.084s1.215-0.532,1.687-0.999
		c0.318-0.335,0.587-0.712,0.801-1.121c0.445-0.72,0.804-1.491,1.068-2.296c2.009-5.398,4.203-10.811,4.854-16.53
		c0.65-5.719-0.418-11.923-4.267-16.209s-10.869-5.918-15.582-2.607c-1.219,0.854-2.253,1.99-3.592,2.641
		c-4.083,1.976-8.612-1.228-12.413-3.704c-4.417-2.879-10.252-4.942-14.829-2.33c-1.429,0.831-2.604,2.036-3.398,3.486
		c-1.256,1.99-1.846,4.328-1.685,6.675c0.262,3.772,2.296,7.282,5.019,9.884c0.915,0.96,2.04,1.694,3.287,2.146
		c0.317,0.097,0.642,0.169,0.971,0.214c-1.519,2.297-2.569,4.872-3.09,7.576c-0.522,2.704-0.504,5.484,0.051,8.182l-1.694,10.253
		c-1.505,0.704-2.345,2.243-2.816,3.748c-7.082,0.209-14.33,5.063-14.33,5.063l-27.834,27.836c-7.218,4.898-2.32,13.918-2.32,13.918
		l16.238,48.715l0.898-0.67c3.33,6.068,13.107,22.816,14.985,14.466c2.297-10.117-4.854-19.301-4.854-19.301h-0.087l-1.849-2.379
		l-6.796-36.215l8.597-8.539l11.553-1.684l0.515,74.987c-21.136,55.676-18.558,81.192-18.558,81.192l18.558,69.594l2.369-0.393
		l0.573,2.291l0.208-0.073l1.03,5.136h-1.855l-2.32,6.962c0,0-11.854-0.258-11.597,2.32s6.704,6.961,23.199,2.32l4.64-4.64
		c0,0,2.321-2.321-2.32-6.962h-0.33l-1.287-9.01l1.617-0.272l-13.927-69.608c11.597-9.539,32.475-46.395,32.475-46.395
		s20.873,36.861,32.475,46.395l-13.917,69.589l1.616,0.272l-1.267,9.01h-0.33c-4.64,4.641-2.32,6.961-2.32,6.961l4.641,4.641
		c16.504,4.641,22.941,0.257,23.198-2.32c0.257-2.578-11.597-2.321-11.597-2.321l-2.32-6.961h-1.854l1.335-6.68l0.237-0.714
		l2.602,0.432l18.558-69.594c0,0-0.345-40.209-18.364-90.473l37.019,51.914l29.291,46.186c1.549-3.735,3.456-7.312,5.694-10.68
		l21.193-19.802c24.636-14.655,57.523-15.534,77.834-14.325l18.727,2.024l8.806-46.39c5.131-6.606,12.747-12.306,23.82-16.568
		c22.97-8.835,42.232-27.593,42.077-45.831c0.335,0.374,0.66,0.747,0.97,1.126C440.233,125.921,436.733,117.911,428.132,110.867z
		 M173.885,179.68l-0.024-0.855l1.068,1.68L173.885,179.68z"/>
</g>
<g>
	<defs>
		<rect id="SVGID_4_" width="440" height="367"/>
	</defs>
	<clipPath id="SVGID_5_">
		<use xlink:href="#SVGID_4_"  overflow="visible"/>
	</clipPath>
	<path clip-path="url(#SVGID_5_)" fill="#FCCEB9" d="M101.395,169.907h-0.087l-4.121-5.315l-6.67,6.67l0.738,1.107l-0.84,0.204
		c0,0,13.461,26,15.704,16.131C108.361,178.835,101.395,169.907,101.395,169.907z"/>
</g>
<g>
	<defs>
		<rect id="SVGID_6_" width="440" height="367"/>
	</defs>
	<clipPath id="SVGID_7_">
		<use xlink:href="#SVGID_6_"  overflow="visible"/>
	</clipPath>
	<path clip-path="url(#SVGID_7_)" fill="#D1D2D1" d="M129.497,77.007c0,0,24.548,7.364,58.921-3.685s105.566,15.957,105.566,15.957
		s56.464,0,139.938-35.598c0,0-38.052,36.826-11.048,58.924c27.004,22.097,2.456,54.011-29.46,66.288
		c-31.917,12.277-34.369,36.826-31.917,60.152c2.451,23.326,0,1.228,0,1.228s-95.746-17.185-120.299,41.749L119.677,90.512
		C119.677,90.512,112.313,75.783,129.497,77.007z"/>
</g>
<g>
	<defs>
		<rect id="SVGID_8_" width="440" height="367"/>
	</defs>
	<clipPath id="SVGID_9_">
		<use xlink:href="#SVGID_8_"  overflow="visible"/>
	</clipPath>
	<path opacity="0.1" clip-path="url(#SVGID_9_)" fill="#010101" enable-background="new    " d="M68.668,40.865l305.649,219.734
		l18.412-54.011L68.668,40.865z"/>
</g>
<g>
	<defs>
		<rect id="SVGID_10_" width="440" height="367"/>
	</defs>
	<clipPath id="SVGID_11_">
		<use xlink:href="#SVGID_10_"  overflow="visible"/>
	</clipPath>
	<path opacity="0.1" clip-path="url(#SVGID_11_)" fill="#010101" enable-background="new    " d="M87.08,109.609l169.394,171.859
		l24.553-18.413L87.08,109.609z"/>
</g>
<g>
	<defs>
		<rect id="SVGID_12_" width="440" height="367"/>
	</defs>
	<clipPath id="SVGID_13_">
		<use xlink:href="#SVGID_12_"  overflow="visible"/>
	</clipPath>
	<g opacity="0.1" clip-path="url(#SVGID_13_)">
		<path opacity="0.1" fill="#010101" enable-background="new    " d="M136.589,94.333c0,0,24.548,7.364,58.921-3.685
			C229.883,79.6,301.066,106.61,301.066,106.61s45.678,0,115.599-25.904c5.529-14.622,18.199-26.884,18.199-26.884
			C351.371,89.42,294.925,89.42,294.925,89.42s-71.197-27.006-105.566-15.957c-34.368,11.049-58.921,3.685-58.921,3.685
			c-17.184-1.228-9.82,13.505-9.82,13.505l5.054,7.966C126.725,95.935,129.662,93.838,136.589,94.333z"/>
		<path opacity="0.1" fill="#010101" enable-background="new    " d="M423.83,112.746c-1.261-1.027-2.439-2.152-3.524-3.364
			c-0.281,7.248,2.219,14.457,9.66,20.549c1.984,1.604,3.802,3.403,5.427,5.369C435.631,127.426,432.219,119.61,423.83,112.746z"/>
	</g>
</g>
<g>
	<defs>
		<rect id="SVGID_14_" width="440" height="367"/>
	</defs>
	<clipPath id="SVGID_15_">
		<use xlink:href="#SVGID_14_"  overflow="visible"/>
	</clipPath>
	<path clip-path="url(#SVGID_15_)" fill="#FCCEB9" d="M174.064,340.188l-2.262,11.316h-9.053l2.267-15.84L174.064,340.188z"/>
</g>
<g>
	<defs>
		<rect id="SVGID_16_" width="440" height="367"/>
	</defs>
	<clipPath id="SVGID_17_">
		<use xlink:href="#SVGID_16_"  overflow="visible"/>
	</clipPath>
	<path opacity="0.1" clip-path="url(#SVGID_17_)" fill="#010101" enable-background="new    " d="M173.879,341.752l-0.636,1.912
		l-8.927-2.548l0.636-1.277L173.879,341.752z"/>
</g>
<g>
	<defs>
		<rect id="SVGID_18_" width="440" height="367"/>
	</defs>
	<clipPath id="SVGID_19_">
		<use xlink:href="#SVGID_18_"  overflow="visible"/>
	</clipPath>
	<path clip-path="url(#SVGID_19_)" fill="#FCCEB9" d="M115.245,340.188l2.262,11.316h9.049l-2.263-15.84L115.245,340.188z"/>
</g>
<g>
	<defs>
		<rect id="SVGID_20_" width="440" height="367"/>
	</defs>
	<clipPath id="SVGID_21_">
		<use xlink:href="#SVGID_20_"  overflow="visible"/>
	</clipPath>
	<path opacity="0.1" clip-path="url(#SVGID_21_)" fill="#010101" enable-background="new    " d="M115.211,341.752l0.636,2.548
		l8.932-3.184v-1.277L115.211,341.752z"/>
</g>
<g>
	<defs>
		<rect id="SVGID_22_" width="440" height="367"/>
	</defs>
	<clipPath id="SVGID_23_">
		<use xlink:href="#SVGID_22_"  overflow="visible"/>
	</clipPath>
	<path clip-path="url(#SVGID_23_)" fill="#FCCEB9" d="M193.214,32.277c0,0-0.253-11.34-8.218-17.583
		c-7.966-6.243-2.005,22.423-2.005,22.423L193.214,32.277z"/>
</g>
<g>
	<defs>
		<rect id="SVGID_24_" width="440" height="367"/>
	</defs>
	<clipPath id="SVGID_25_">
		<use xlink:href="#SVGID_24_"  overflow="visible"/>
	</clipPath>
	<path clip-path="url(#SVGID_25_)" fill="#464655" d="M126.555,349.242h-11.31l-2.263,6.796c0,0-11.562-0.252-11.31,2.263
		c0.252,2.514,6.534,6.796,22.621,2.262l4.524-4.525C128.817,356.038,131.079,353.767,126.555,349.242z"/>
</g>
<g>
	<defs>
		<rect id="SVGID_26_" width="440" height="367"/>
	</defs>
	<clipPath id="SVGID_27_">
		<use xlink:href="#SVGID_26_"  overflow="visible"/>
	</clipPath>
	<path clip-path="url(#SVGID_27_)" fill="#464655" d="M162.749,349.242h11.31l2.262,6.796c0,0,11.563-0.252,11.31,2.263
		c-0.252,2.514-6.533,6.796-22.62,2.262l-4.525-4.525C160.486,356.038,158.224,353.767,162.749,349.242z"/>
</g>
<g>
	<defs>
		<rect id="SVGID_28_" width="440" height="367"/>
	</defs>
	<clipPath id="SVGID_29_">
		<use xlink:href="#SVGID_28_"  overflow="visible"/>
	</clipPath>
	<path clip-path="url(#SVGID_29_)" fill="#464655" d="M176.311,195.398h-63.329c-20.611,54.298-18.096,79.187-18.096,79.187
		l18.096,67.871l13.592-2.262l-13.592-67.857c11.311-9.301,31.675-45.248,31.675-45.248s20.353,35.928,31.654,45.248l-13.592,67.871
		l13.592,2.262l18.097-67.87C194.408,274.6,196.937,249.696,176.311,195.398z"/>
</g>
<g>
	<defs>
		<rect id="SVGID_30_" width="440" height="367"/>
	</defs>
	<clipPath id="SVGID_31_">
		<use xlink:href="#SVGID_30_"  overflow="visible"/>
	</clipPath>
	<path opacity="0.1" clip-path="url(#SVGID_31_)" fill="#010101" enable-background="new    " d="M112.983,196.277
		c0,0,35.922,13.593,63.344,0H112.983z"/>
</g>
<g>
	<defs>
		<rect id="SVGID_32_" width="440" height="367"/>
	</defs>
	<clipPath id="SVGID_33_">
		<use xlink:href="#SVGID_32_"  overflow="visible"/>
	</clipPath>
	<path clip-path="url(#SVGID_33_)" fill="#F4815F" d="M110.983,114.173L92.886,132.27l6.796,36.2l-9.048,6.797l-15.835-47.511
		c0,0-4.777-8.797,2.262-13.593l27.15-27.151c0,0,11.651-7.806,19.66-3.806c8.01,4-13.043,30.68-13.043,30.68"/>
</g>
<g>
	<defs>
		<rect id="SVGID_34_" width="440" height="367"/>
	</defs>
	<clipPath id="SVGID_35_">
		<use xlink:href="#SVGID_34_"  overflow="visible"/>
	</clipPath>
	<path clip-path="url(#SVGID_35_)" fill="#F4815F" d="M110.716,113.95l2.262,81.448c0,0,35.921,13.593,63.343,0l-2.262-76.671
		l-0.578-2.535l0.418-1.247l27.184-22.544c7.451-4.102,3.514-13.306,3.514-13.306l-11.359-48.773l-9.645,5.913l3.398,36.671
		l-19.359,16.059l-0.485-0.024v0.121l-49.625-2.257"/>
</g>
<g>
	<defs>
		<rect id="SVGID_36_" width="440" height="367"/>
	</defs>
	<clipPath id="SVGID_37_">
		<use xlink:href="#SVGID_36_"  overflow="visible"/>
	</clipPath>
	<path clip-path="url(#SVGID_37_)" fill="#FCCEB9" d="M146.143,75.613h-2.728c-4.244,0-7.685,3.441-7.685,7.685v4.99
		c0,4.244,3.441,7.685,7.685,7.685h2.728c4.244,0,7.684-3.44,7.684-7.685v-4.99C153.827,79.054,150.387,75.613,146.143,75.613z"/>
</g>
<g>
	<defs>
		<rect id="SVGID_38_" width="440" height="367"/>
	</defs>
	<clipPath id="SVGID_39_">
		<use xlink:href="#SVGID_38_"  overflow="visible"/>
	</clipPath>
	<path opacity="0.1" clip-path="url(#SVGID_39_)" fill="#010101" enable-background="new    " d="M136.308,84.308
		c2.872,1.003,5.934,1.35,8.958,1.014c3.024-0.336,5.934-1.346,8.517-2.955c-0.637-1.745-1.794-3.252-3.315-4.319
		s-3.332-1.642-5.19-1.647c-2.199,0.007-4.321,0.813-5.971,2.268C137.657,80.123,136.591,82.127,136.308,84.308z"/>
</g>
<g>
	<defs>
		<rect id="SVGID_40_" width="440" height="367"/>
	</defs>
	<clipPath id="SVGID_41_">
		<use xlink:href="#SVGID_40_"  overflow="visible"/>
	</clipPath>
	<path clip-path="url(#SVGID_41_)" fill="#FCCEB9" d="M142.516,84.663c11.244,0,20.359-9.115,20.359-20.36
		s-9.115-20.36-20.359-20.36c-11.244,0-20.359,9.115-20.359,20.36S131.272,84.663,142.516,84.663z"/>
</g>
<g>
	<defs>
		<rect id="SVGID_42_" width="440" height="367"/>
	</defs>
	<clipPath id="SVGID_43_">
		<use xlink:href="#SVGID_42_"  overflow="visible"/>
	</clipPath>
	<path opacity="0.1" clip-path="url(#SVGID_43_)" fill="#010101" enable-background="new    " d="M128.376,53.074
		c-1.264,0.16-2.547,0.087-3.786-0.214c-1.216-0.442-2.313-1.16-3.204-2.097c-2.66-2.554-4.641-5.961-4.898-9.641
		s1.456-7.578,4.646-9.403c4.466-2.544,10.16-0.534,14.465,2.272c3.704,2.427,8.126,5.539,12.107,3.612
		c1.306-0.631,2.315-1.743,3.505-2.573c4.597-3.228,11.441-1.636,15.194,2.544c3.752,4.18,4.805,10.228,4.16,15.811
		c-0.646,5.583-2.782,10.86-4.743,16.122c-0.305,1.038-0.822,2.002-1.519,2.83c-2.389,2.452-6.859,0.549-8.432-2.49
		c-2.733-5.287,0-14.452-6.456-17.535C144.274,49.865,133.896,52.715,128.376,53.074z"/>
</g>
<g>
	<defs>
		<rect id="SVGID_44_" width="440" height="367"/>
	</defs>
	<clipPath id="SVGID_45_">
		<use xlink:href="#SVGID_44_"  overflow="visible"/>
	</clipPath>
	<path clip-path="url(#SVGID_45_)" fill="#3A3A45" d="M128.682,52.569c-1.265,0.16-2.548,0.087-3.786-0.214
		c-1.216-0.442-2.313-1.16-3.204-2.097c-2.66-2.554-4.641-5.961-4.898-9.641s1.456-7.578,4.645-9.403
		c4.466-2.544,10.16-0.534,14.466,2.272c3.704,2.427,8.126,5.539,12.107,3.612c1.305-0.631,2.315-1.743,3.504-2.573
		c4.597-3.228,11.442-1.636,15.194,2.544c3.753,4.18,4.806,10.228,4.16,15.811c-0.645,5.583-2.81,10.86-4.752,16.122
		c-0.305,1.038-0.823,2.002-1.519,2.83c-2.389,2.451-6.859,0.549-8.432-2.49c-2.733-5.286,0-14.452-6.456-17.534
		C144.594,49.36,134.196,52.215,128.682,52.569z"/>
</g>
<g>
	<defs>
		<rect id="SVGID_46_" width="440" height="367"/>
	</defs>
	<clipPath id="SVGID_47_">
		<use xlink:href="#SVGID_46_"  overflow="visible"/>
	</clipPath>
	<path clip-path="url(#SVGID_47_)" fill="#FCCEB9" d="M153.827,68.827c1.249,0,2.262-2.026,2.262-4.524
		c0-2.499-1.013-4.524-2.262-4.524c-1.25,0-2.263,2.026-2.263,4.524S152.577,68.827,153.827,68.827z"/>
</g>
<g>
	<defs>
		<rect id="SVGID_48_" width="440" height="367"/>
	</defs>
	<clipPath id="SVGID_49_">
		<use xlink:href="#SVGID_48_"  overflow="visible"/>
	</clipPath>
	<path opacity="0.1" clip-path="url(#SVGID_49_)" fill="#010101" enable-background="new    " d="M110.745,113.939l5.743,2.69
		l-5.743,7.019C110.745,123.648,110.745,113.939,110.745,113.939z"/>
</g>
<g>
	<defs>
		<rect id="SVGID_50_" width="440" height="367"/>
	</defs>
	<clipPath id="SVGID_51_">
		<use xlink:href="#SVGID_50_"  overflow="visible"/>
	</clipPath>
	<path opacity="0.1" clip-path="url(#SVGID_51_)" fill="#010101" enable-background="new    " d="M173.88,114.931l-3.825,4.252
		l2.548,3.826l1.49-4.253L173.88,114.931z"/>
</g>
<g>
	<defs>
		<rect id="SVGID_52_" width="440" height="367"/>
	</defs>
	<clipPath id="SVGID_53_">
		<use xlink:href="#SVGID_52_"  overflow="visible"/>
	</clipPath>
	<path clip-path="url(#SVGID_53_)" fill="#C8C7C7" d="M145.045,94.177v3.685c0,0-26.868-4.908-27.553-12.277l17.733,1.228
		L145.045,94.177z"/>
</g>
<g>
	<defs>
		<rect id="SVGID_54_" width="440" height="367"/>
	</defs>
	<clipPath id="SVGID_55_">
		<use xlink:href="#SVGID_54_"  overflow="visible"/>
	</clipPath>
	<path clip-path="url(#SVGID_55_)" fill="#C8C7C7" d="M145.045,94.177v3.685c0,0,26.868-4.908,27.553-12.277l-17.733,1.228
		L145.045,94.177z"/>
</g>
<g>
	<defs>
		<rect id="SVGID_56_" width="440" height="367"/>
	</defs>
	<clipPath id="SVGID_57_">
		<use xlink:href="#SVGID_56_"  overflow="visible"/>
	</clipPath>
	<path opacity="0.1" clip-path="url(#SVGID_57_)" fill="#010101" enable-background="new    " d="M309.26,134.159l88.381,20.87
		l-31.917,13.505L309.26,134.159z"/>
</g>
<g>
	<defs>
		<rect id="SVGID_58_" width="440" height="367"/>
	</defs>
	<clipPath id="SVGID_59_">
		<use xlink:href="#SVGID_58_"  overflow="visible"/>
	</clipPath>
	<path clip-path="url(#SVGID_59_)" fill="#C8C7C7" d="M117.575,85.765c0,0,0-7.714,5.146-7.714c5.145,0,10.286,15.432,10.286,15.432
		L117.575,85.765z"/>
</g>
<g>
	<defs>
		<rect id="SVGID_60_" width="440" height="367"/>
	</defs>
	<clipPath id="SVGID_61_">
		<use xlink:href="#SVGID_60_"  overflow="visible"/>
	</clipPath>
	<path clip-path="url(#SVGID_61_)" fill="#C8C7C7" d="M5.611,145.927c1.861,0,3.369-1.509,3.369-3.37
		c0-1.86-1.508-3.369-3.369-3.369s-3.369,1.509-3.369,3.369C2.242,144.418,3.75,145.927,5.611,145.927z"/>
</g>
<g>
	<defs>
		<rect id="SVGID_62_" width="440" height="367"/>
	</defs>
	<clipPath id="SVGID_63_">
		<use xlink:href="#SVGID_62_"  overflow="visible"/>
	</clipPath>
	<path clip-path="url(#SVGID_63_)" fill="#C8C7C7" d="M47.703,225.064c1.861,0,3.369-1.508,3.369-3.369
		c0-1.86-1.508-3.369-3.369-3.369s-3.369,1.509-3.369,3.369C44.334,223.556,45.842,225.064,47.703,225.064z"/>
</g>
<g>
	<defs>
		<rect id="SVGID_64_" width="440" height="367"/>
	</defs>
	<clipPath id="SVGID_65_">
		<use xlink:href="#SVGID_64_"  overflow="visible"/>
	</clipPath>
	<path clip-path="url(#SVGID_65_)" fill="#C8C7C7" d="M406.326,12.908c1.86,0,3.369-1.508,3.369-3.369s-1.509-3.369-3.369-3.369
		c-1.861,0-3.369,1.508-3.369,3.369S404.465,12.908,406.326,12.908z"/>
</g>
<g>
	<defs>
		<rect id="SVGID_66_" width="440" height="367"/>
	</defs>
	<clipPath id="SVGID_67_">
		<use xlink:href="#SVGID_66_"  overflow="visible"/>
	</clipPath>
	<path clip-path="url(#SVGID_67_)" fill="#C8C7C7" d="M244.073,11.762c-0.464-0.202-0.837-0.567-1.049-1.026
		c-0.212-0.459-0.248-0.98-0.102-1.464c0.024-0.074,0.039-0.151,0.044-0.228c0.014-0.222-0.044-0.443-0.166-0.629
		c-0.121-0.186-0.3-0.329-0.509-0.405s-0.437-0.084-0.65-0.021c-0.213,0.063-0.401,0.193-0.534,0.371
		c-0.047,0.063-0.086,0.131-0.117,0.204c-0.202,0.462-0.567,0.833-1.025,1.044c-0.458,0.211-0.977,0.247-1.46,0.101
		c-0.074-0.024-0.151-0.038-0.228-0.044c-0.222-0.014-0.443,0.044-0.629,0.166c-0.187,0.122-0.329,0.3-0.406,0.509
		c-0.076,0.209-0.084,0.437-0.021,0.65c0.063,0.213,0.193,0.401,0.371,0.534c0.063,0.047,0.132,0.086,0.204,0.116
		c0.46,0.205,0.829,0.57,1.039,1.028c0.209,0.458,0.244,0.976,0.097,1.458c-0.024,0.074-0.038,0.151-0.044,0.228
		c-0.013,0.222,0.045,0.443,0.166,0.629c0.122,0.186,0.3,0.329,0.509,0.405c0.209,0.077,0.437,0.084,0.65,0.021
		c0.214-0.063,0.401-0.193,0.535-0.371c0.047-0.063,0.086-0.132,0.116-0.204c0.202-0.464,0.567-0.837,1.026-1.049
		s0.98-0.248,1.464-0.101c0.074,0.024,0.151,0.038,0.229,0.044c0.221,0.013,0.44-0.045,0.626-0.166s0.328-0.298,0.405-0.506
		s0.086-0.435,0.024-0.648c-0.061-0.213-0.19-0.4-0.366-0.535C244.21,11.829,244.143,11.791,244.073,11.762z"/>
</g>
<g>
	<defs>
		<rect id="SVGID_68_" width="440" height="367"/>
	</defs>
	<clipPath id="SVGID_69_">
		<use xlink:href="#SVGID_68_"  overflow="visible"/>
	</clipPath>
	<path clip-path="url(#SVGID_69_)" fill="#C8C7C7" d="M409.631,216.617c-0.463-0.201-0.837-0.567-1.049-1.026
		s-0.248-0.98-0.101-1.464c0.024-0.074,0.038-0.151,0.044-0.228c0.013-0.222-0.045-0.443-0.166-0.629
		c-0.122-0.186-0.3-0.329-0.509-0.406c-0.209-0.076-0.437-0.084-0.65-0.021c-0.214,0.063-0.401,0.193-0.535,0.371
		c-0.047,0.063-0.086,0.132-0.116,0.204c-0.202,0.464-0.567,0.837-1.026,1.049c-0.459,0.213-0.98,0.249-1.464,0.102
		c-0.074-0.024-0.151-0.038-0.228-0.044c-0.223-0.014-0.443,0.045-0.63,0.166c-0.186,0.122-0.328,0.3-0.405,0.509
		s-0.084,0.437-0.021,0.65c0.063,0.214,0.193,0.401,0.371,0.534c0.063,0.047,0.132,0.087,0.204,0.117
		c0.464,0.202,0.837,0.567,1.049,1.026s0.248,0.98,0.101,1.464c-0.023,0.074-0.038,0.151-0.043,0.228
		c-0.014,0.223,0.044,0.443,0.166,0.63c0.121,0.186,0.3,0.328,0.508,0.405c0.209,0.077,0.437,0.084,0.651,0.021
		c0.213-0.063,0.4-0.193,0.534-0.371c0.047-0.063,0.086-0.131,0.116-0.204c0.202-0.464,0.568-0.837,1.027-1.049
		c0.459-0.212,0.98-0.248,1.464-0.101c0.074,0.023,0.15,0.038,0.228,0.043c0.222,0.014,0.442-0.044,0.629-0.166
		c0.186-0.121,0.328-0.3,0.405-0.509c0.077-0.208,0.085-0.436,0.022-0.65c-0.064-0.213-0.194-0.401-0.372-0.534
		C409.772,216.687,409.704,216.648,409.631,216.617z"/>
</g>
<g>
	<defs>
		<rect id="SVGID_70_" width="440" height="367"/>
	</defs>
	<clipPath id="SVGID_71_">
		<use xlink:href="#SVGID_70_"  overflow="visible"/>
	</clipPath>
	<path clip-path="url(#SVGID_71_)" fill="#C8C7C7" d="M285.1,315.984c1.861,0,3.369-1.508,3.369-3.369s-1.508-3.369-3.369-3.369
		c-1.86,0-3.369,1.508-3.369,3.369C281.731,314.476,283.24,315.984,285.1,315.984z"/>
</g>
<g>
	<defs>
		<rect id="SVGID_72_" width="440" height="367"/>
	</defs>
	<clipPath id="SVGID_73_">
		<use xlink:href="#SVGID_72_"  overflow="visible"/>
	</clipPath>
	<path clip-path="url(#SVGID_73_)" fill="#C8C7C7" d="M5.611,292.416c1.861,0,3.369-1.509,3.369-3.369
		c0-1.861-1.508-3.369-3.369-3.369s-3.369,1.508-3.369,3.369C2.242,290.907,3.75,292.416,5.611,292.416z"/>
</g>
<g>
	<defs>
		<rect id="SVGID_74_" width="440" height="367"/>
	</defs>
	<clipPath id="SVGID_75_">
		<use xlink:href="#SVGID_74_"  overflow="visible"/>
	</clipPath>
	<path clip-path="url(#SVGID_75_)" fill="#C8C7C7" d="M274.999,48.268c1.86,0,3.369-1.508,3.369-3.369s-1.509-3.369-3.369-3.369
		c-1.861,0-3.369,1.508-3.369,3.369C271.63,46.76,273.138,48.268,274.999,48.268z"/>
</g>
<g>
	<defs>
		<rect id="SVGID_76_" width="440" height="367"/>
	</defs>
	<clipPath id="SVGID_77_">
		<use xlink:href="#SVGID_76_"  overflow="visible"/>
	</clipPath>
	<g clip-path="url(#SVGID_77_)">
		<path opacity="0.5" fill="#C8C7C7" enable-background="new    " d="M5.611,0H3.927v9.539h1.684V0z"/>
		<path opacity="0.5" fill="#C8C7C7" enable-background="new    " d="M9.539,5.612V3.928H0v1.685L9.539,5.612L9.539,5.612z"/>
	</g>
</g>
<g>
	<defs>
		<rect id="SVGID_78_" width="440" height="367"/>
	</defs>
	<clipPath id="SVGID_79_">
		<use xlink:href="#SVGID_78_"  overflow="visible"/>
	</clipPath>
	<g clip-path="url(#SVGID_79_)">
		<path opacity="0.5" fill="#C8C7C7" enable-background="new    " d="M36.479,91.483h-1.684v9.539h1.684
			C36.479,101.022,36.479,91.483,36.479,91.483z"/>
		<path opacity="0.5" fill="#C8C7C7" enable-background="new    " d="M40.407,97.096v-1.684h-9.539v1.684H40.407z"/>
	</g>
</g>
<g>
	<defs>
		<rect id="SVGID_80_" width="440" height="367"/>
	</defs>
	<clipPath id="SVGID_81_">
		<use xlink:href="#SVGID_80_"  overflow="visible"/>
	</clipPath>
	<g clip-path="url(#SVGID_81_)">
		<path opacity="0.5" fill="#C8C7C7" enable-background="new    " d="M345.152,50.511h-1.684v9.539h1.684V50.511z"/>
		<path opacity="0.5" fill="#C8C7C7" enable-background="new    " d="M349.085,56.123v-1.685h-9.539v1.685H349.085z"/>
	</g>
</g>
</svg>
