<?xml version="1.0" encoding="utf-8"?>
<!-- Generator: Adobe Illustrator 17.0.0, SVG Export Plug-In . SVG Version: 6.00 Build 0)  -->
<!DOCTYPE svg PUBLIC "-//W3C//DTD SVG 1.1//EN" "http://www.w3.org/Graphics/SVG/1.1/DTD/svg11.dtd">
<svg version="1.1" id="Layer_1" xmlns="http://www.w3.org/2000/svg" xmlns:xlink="http://www.w3.org/1999/xlink" x="0px" y="0px"
	 width="435px" height="345px" viewBox="0 0 435 345" enable-background="new 0 0 435 345" xml:space="preserve">
<g>
	<g>
		<g>
			<defs>
				<rect id="SVGID_1_" width="435" height="345"/>
			</defs>
			<clipPath id="SVGID_2_">
				<use xlink:href="#SVGID_1_"  overflow="visible"/>
			</clipPath>
			<g clip-path="url(#SVGID_2_)">
				<path fill="#FF825C" d="M232.439,73.086c15.77,0,28.555-12.773,28.555-28.529s-12.785-28.529-28.555-28.529
					s-28.555,12.773-28.555,28.529S216.669,73.086,232.439,73.086z"/>
				<path fill="#F2F2F2" d="M146.461,181.858c0,55.101-32.787,74.34-73.231,74.34S0,236.959,0,181.858
					c0-55.1,73.23-125.197,73.23-125.197S146.461,126.758,146.461,181.858z"/>
				<path fill="#393944" d="M70.563,247.768l0.75-46.114l31.213-57.05L71.43,194.42l0.337-20.735l21.512-41.275l-21.423,35.788
					l0.607-37.292l23.035-32.861l-22.94,26.996l0.379-68.382l-2.381,90.524l0.195-3.734l-23.42-35.815l23.045,42.984l-2.182,41.649
					l-0.065-1.105l-26.999-37.69l26.917,41.596l-0.273,5.209l-0.049,0.078l0.022,0.428L62.211,306.45h7.397l0.887-54.579
					l26.851-41.494L70.563,247.768z"/>
				<path fill="#F2F2F2" d="M363.47,152.95c0,67.315-40.054,90.819-89.464,90.819c-49.409,0-89.464-23.504-89.464-90.819
					C184.542,85.635,274.006,0,274.006,0S363.47,85.635,363.47,152.95z"/>
				<path fill="#393944" d="M270.747,233.472l0.916-56.337l38.132-69.696l-37.988,60.859l0.412-25.331l26.28-50.425l-26.171,43.721
					l0.741-45.559L301.21,50.56l-28.025,32.98L273.648,0l-2.909,110.591l0.239-4.562l-28.611-43.754l28.153,52.513l-2.667,50.882
					l-0.079-1.35l-32.984-46.046l32.884,50.817l-0.333,6.363l-0.06,0.096l0.028,0.522l-6.764,129.092h9.036l1.085-66.679
					l32.803-50.692L270.747,233.472z"/>
				<path fill="#393944" d="M178.453,310.231c75.895,0,137.42-2.196,137.42-4.904s-61.525-4.903-137.42-4.903
					s-137.42,2.195-137.42,4.903S102.558,310.231,178.453,310.231z"/>
				<path fill="#454554" d="M371.644,345c34.991,0,63.356-2.694,63.356-6.017c0-3.324-28.365-6.018-63.356-6.018
					c-34.99,0-63.356,2.694-63.356,6.018C308.288,342.306,336.654,345,371.644,345z"/>
				<path fill="#393944" d="M186.484,154.66h-16.062v150.667h16.062V154.66z"/>
				<path fill="#454554" d="M252.071,188.984h-98.604v-27.637h98.604l28.554,13.818L252.071,188.984z"/>
				<path opacity="0.1" enable-background="new    " d="M252.071,186.755h-98.604v2.229h98.604l28.554-13.819l-2.302-1.114
					L252.071,186.755z"/>
				<path fill="#454554" d="M105.281,225.537h98.604v-27.638h-98.604l-28.554,13.819L105.281,225.537z"/>
				<path opacity="0.1" enable-background="new    " d="M79.029,210.604l-2.303,1.114l28.554,13.819h98.604v-2.229H105.28
					L79.029,210.604z"/>
				<path fill="#C7C7C7" d="M225.747,166.695h-16.955v16.939h16.955V166.695z"/>
				<path fill="#C7C7C7" d="M140.528,220.187c4.682,0,8.478-3.792,8.478-8.469c0-4.678-3.796-8.47-8.478-8.47
					c-4.681,0-8.477,3.792-8.477,8.47C132.051,216.395,135.847,220.187,140.528,220.187z"/>
				<path fill="#393944" d="M178.453,179.177c2.71,0,4.908-2.195,4.908-4.904c0-2.708-2.198-4.903-4.908-4.903
					c-2.711,0-4.908,2.195-4.908,4.903C173.545,176.982,175.742,179.177,178.453,179.177z"/>
				<path fill="#393944" d="M178.453,215.73c2.71,0,4.908-2.196,4.908-4.904c0-2.708-2.198-4.903-4.908-4.903
					c-2.711,0-4.908,2.195-4.908,4.903C173.545,213.534,175.742,215.73,178.453,215.73z"/>
				<path fill="#AFADBC" d="M145.436,288.538c0,10.016-5.959,13.513-13.311,13.513c-0.17,0-0.34-0.002-0.51-0.006
					c-0.34-0.007-0.678-0.023-1.011-0.046c-6.635-0.469-11.79-4.146-11.79-13.461c0-9.639,12.33-21.803,13.256-22.703l0.002-0.002
					c0.036-0.035,0.053-0.052,0.053-0.052S145.436,278.523,145.436,288.538z"/>
				<path fill="#393944" d="M131.64,300.519l4.869-6.797l-4.881,7.543l-0.013,0.78c-0.341-0.007-0.678-0.023-1.011-0.046
					l0.524-10.02l-0.004-0.078l0.009-0.015l0.05-0.946l-4.893-7.562l4.908,6.852l0.012,0.201l0.396-7.571l-4.189-7.813l4.24,6.484
					l0.413-15.696l0.002-0.054v0.052l-0.069,12.378l4.17-4.907l-4.187,5.973l-0.111,6.779l3.894-6.506l-3.91,7.503l-0.061,3.769
					l5.652-9.055l-5.674,10.37L131.64,300.519z"/>
				<path fill="#393944" d="M351.138,328.022c0,0-6.318,5.315-9.642,4.983c-3.325-0.332-9.643-0.332-6.983,3.322
					s13.632,5.647,18.287,5.98c4.655,0.332,14.962,0.664,14.297-1.329s-1.33-11.295-3.99-11.959
					C360.448,328.355,351.138,328.022,351.138,328.022z"/>
				<path fill="#393944" d="M387.397,322.804c0,0-4.656,6.816-7.948,7.389s-9.376,2.269-5.831,5.074
					c3.545,2.806,14.649,1.779,19.222,0.849c4.573-0.929,14.591-3.377,13.414-5.118c-1.177-1.742-4.319-10.522-7.06-10.448
					C396.453,320.625,387.397,322.804,387.397,322.804z"/>
				<path fill="#454554" d="M347.437,225.33c0,0-4.279,29.28-3.281,34.594c0.997,5.315,1.662,13.62,1.662,13.62
					s-0.665,6.976,0,10.298s4.655,34.88,4.655,35.544s-0.665,2.657,0,4.318c0.665,1.661,1.995,0.333,0,2.99
					c-1.995,2.658-0.665,3.322-0.333,3.322c0.333,0,13.3,1.329,13.965,0s-0.332-1.661,0-3.322c0.333-1.661,0.665-1.993,1.33-2.325
					s1.995,0.332,0.998-1.329c-0.998-1.661-3.325-3.654-2.66-4.651c0.665-0.996-0.333-8.304-0.333-8.304s-0.665-16.277-0.997-26.243
					c-0.333-9.966,2.992-20.263,2.992-20.263c0.414,8.153,3.445,15.957,8.645,22.256c8.645,10.298,12.967,29.565,12.967,29.565
					s1.995,2.989,0.997,5.647c-0.997,2.657-3.989,0.996-0.997,2.657s13.3-0.664,14.297-1.661c0.998-0.996-1.33-2.325-0.665-4.982
					c0.665-2.658,3.325-1.993,0.998-3.322c-2.328-1.329-2.993-0.997-2.993-2.326c0-1.328-5.985-30.229-15.294-38.533l-0.665-30.229
					c0,0,8.312-21.26-0.333-23.253C373.747,217.405,347.437,225.33,347.437,225.33z"/>
				<path fill="#FECEB8" d="M353.466,146.649c0,0,5.652,13.951,4.322,15.944c-1.33,1.994,16.292-6.643,16.292-6.643
					s-5.652-13.952-5.652-15.613C368.428,138.676,353.466,146.649,353.466,146.649z"/>
				<path fill="#FECEB8" d="M357.622,150.137c6.794,0,12.302-5.503,12.302-12.291s-5.508-12.291-12.302-12.291
					c-6.795,0-12.303,5.503-12.303,12.291C345.319,144.634,350.827,150.137,357.622,150.137z"/>
				<path fill="#AFADBC" d="M374.08,150.303c0,0-8.645-0.997-12.967,4.318c-4.322,5.315-4.987,6.644-4.987,6.644
					s-10.308,16.609-8.313,24.914c0.487,0.75,0.931,1.526,1.33,2.325c0.665,1.329,0.665,19.931,0,22.921s-1.33,3.986-0.665,8.305
					c0.665,4.318-5.32,11.294,1.663,12.623c6.982,1.329,12.302,0.332,14.629-2.658c2.328-2.989,0.333-4.982,7.648-4.982
					s11.969-4.983,11.969-4.983s-3.657-3.987-2.327-4.651c1.33-0.664,0-2.325-0.665-3.986s-0.665-2.99,0.332-2.99
					c0.998,0,0.333-0.664-0.332-2.325s11.637-30.229,4.322-38.534c-7.314-8.304-10.972-12.955-10.972-12.955
					S376.075,149.306,374.08,150.303z"/>
				<path fill="#FECEB8" d="M355.128,181.86v14.617l-10.64,35.211c0,0-6.982,18.271,0,18.271s6.608-17.439,6.608-17.439
					l15.004-26.41c0,0,5.985-20.928,5.32-22.589C370.755,181.86,355.128,181.86,355.128,181.86z"/>
				<path fill="#AFADBC" d="M360.78,160.268c0,0-9.974,3.986-7.314,14.616s0,10.298,0,10.298s13.632-1.328,17.954,1.661l0.998-3.986
					C372.418,182.857,376.408,159.936,360.78,160.268z"/>
				<path fill="#393944" d="M353.421,128.618c-0.767,0.273-1.591,0.349-2.396,0.224s-1.566-0.448-2.214-0.94
					c-1.254-1.032-1.785-2.936-1.048-4.381c0.637-1.249,1.998-1.933,3.304-2.444c2.88-1.126,5.915-1.81,9-2.03
					c1.47-0.105,3.015-0.088,4.328,0.583c0.649,0.332,1.213,0.812,1.857,1.156c1.182,0.632,2.558,0.773,3.837,1.18
					c1.307,0.426,2.508,1.128,3.521,2.058c1.012,0.93,1.813,2.066,2.348,3.332c0.348,0.86,0.59,1.759,0.723,2.676
					c0.382,2.513,0.115,5.081-0.776,7.461c-1.417,3.77-4.39,7.066-4.557,11.09c-1.82-1.318-2.495-3.699-3.953-5.408
					c-1.084-1.264-2.566-2.122-4.202-2.435c-0.453-0.028-0.888-0.187-1.253-0.457c-0.254-0.303-0.413-0.674-0.457-1.066
					l-1.245-5.873c-0.254-1.195-0.574-2.498-1.557-3.224c-0.612-0.391-1.307-0.636-2.029-0.714c-1.717-0.3-3.455-0.458-5.198-0.474"
					/>
			</g>
		</g>
	</g>
</g>
</svg>
