<svg width="441" height="380" viewBox="0 0 441 380" fill="none" xmlns="http://www.w3.org/2000/svg">
<g clip-path="url(#clip0)">
<path d="M189.255 86.4414H187.169V31.6892C187.169 27.5277 186.314 23.407 184.652 19.5623C182.991 15.7175 180.555 12.2242 177.485 9.28155C174.414 6.33894 170.769 4.00473 166.757 2.4122C162.746 0.819671 158.446 3.93828e-06 154.104 0H33.0655C28.7233 -9.8454e-06 24.4236 0.819646 20.4119 2.41216C16.4002 4.00468 12.7551 6.33888 9.68469 9.28148C6.61428 12.2241 4.17868 15.7175 2.51698 19.5622C0.855274 23.4069 8.90334e-06 27.5276 0 31.6891V332.064C-8.29896e-06 340.469 3.48365 348.529 9.68461 354.472C15.8856 360.415 24.2959 363.754 33.0654 363.754H154.104C162.873 363.754 171.283 360.415 177.484 354.472C183.685 348.529 187.169 340.469 187.169 332.065V125.415H189.255L189.255 86.4414Z" fill="#3F3D56"/>
<path d="M155.438 8.24414H139.639C140.365 9.95133 140.643 11.8036 140.446 13.6377C140.25 15.4718 139.586 17.2315 138.513 18.7618C137.44 20.292 135.991 21.5459 134.293 22.4129C132.595 23.28 130.701 23.7335 128.777 23.7337H59.4355C57.5117 23.7335 55.6175 23.28 53.9196 22.413C52.2218 21.5459 50.7725 20.2921 49.6994 18.7618C48.6263 17.2315 47.9624 15.4718 47.7661 13.6377C47.5698 11.8036 47.8471 9.95134 48.5737 8.24415H33.817C27.268 8.24415 20.9873 10.7374 16.3564 15.1755C11.7256 19.6135 9.12403 25.6328 9.12402 31.9092V331.844C9.12402 334.951 9.76272 338.029 11.0037 340.9C12.2446 343.771 14.0635 346.38 16.3564 348.577C18.6494 350.775 21.3715 352.518 24.3674 353.707C27.3632 354.897 30.5742 355.509 33.8169 355.509H155.438C158.681 355.509 161.892 354.897 164.888 353.707C167.884 352.518 170.606 350.775 172.899 348.578C175.192 346.38 177.01 343.771 178.251 340.9C179.492 338.029 180.131 334.952 180.131 331.844V31.9092C180.131 28.8015 179.492 25.7241 178.251 22.853C177.01 19.9818 175.192 17.373 172.899 15.1755C170.606 12.978 167.884 11.2348 164.888 10.0455C161.892 8.85625 158.681 8.24414 155.438 8.24414Z" fill="white"/>
<path d="M164.659 67.2188H24.5957V296.534H164.659V67.2188Z" fill="#E6E6E6"/>
<path d="M393.874 266.506L394.93 301.918L406.191 343.401C406.191 343.401 403.727 350.484 405.487 352.17C407.247 353.857 415.34 356.892 415.34 356.892L408.654 268.529L393.874 266.506Z" fill="#E6E6E6"/>
<path d="M418.323 351.997C418.323 351.997 422.339 360.465 416.717 361.234C411.095 362.004 385.125 364.057 386.732 359.695C388.338 355.333 407.882 351.228 407.882 351.228L418.323 351.997Z" fill="#2F2E41"/>
<path d="M433.289 235.14C433.289 235.14 429.066 257.062 426.25 260.772C423.435 264.482 427.658 291.463 427.658 291.463C427.658 291.463 433.992 330.248 431.177 336.318C428.362 342.389 429.066 340.366 429.418 343.738C429.77 347.111 430.473 349.809 429.418 352.844C428.362 355.88 428.362 355.542 428.01 357.229C427.658 358.915 428.01 368.021 428.01 368.021C428.01 368.021 412.878 373.08 410.415 365.66C410.415 365.66 413.934 360.938 412.878 357.229C411.777 353.495 411.186 349.641 411.118 345.762V338.679L394.931 280.67L391.06 259.76C391.06 259.76 392.115 238.513 395.986 236.489C399.857 234.466 433.289 235.14 433.289 235.14Z" fill="#E6E6E6"/>
<path d="M426.954 366.335C426.954 366.335 432.233 377.465 424.843 378.476C417.453 379.488 383.317 382.186 385.429 376.453C387.54 370.719 413.23 365.323 413.23 365.323L426.954 366.335Z" fill="#2F2E41"/>
<path d="M420.264 138.023C428.038 138.023 434.34 131.983 434.34 124.532C434.34 117.082 428.038 111.042 420.264 111.042C412.49 111.042 406.188 117.082 406.188 124.532C406.188 131.983 412.49 138.023 420.264 138.023Z" fill="#FFB9B9"/>
<path d="M430.156 130.494L429.894 147.722L412.636 147.778C412.636 147.778 417.016 134.291 415.054 131.471C413.092 128.651 430.156 130.494 430.156 130.494Z" fill="#FFB9B9"/>
<path d="M404.431 157.233C404.431 157.233 416.748 142.056 426.25 148.464C435.751 154.872 439.27 170.049 439.27 170.049L437.159 212.543C437.159 212.543 432.232 234.128 433.288 235.14C434.344 236.152 432.232 236.826 432.232 236.826L394.93 237.838C394.93 237.838 395.986 236.489 392.818 232.442C389.651 228.395 393.522 222.999 392.818 220.975C392.115 218.951 404.431 157.233 404.431 157.233Z" fill="#3F3D56"/>
<path d="M407.951 244.247C407.951 244.247 407.247 252.678 401.969 254.027C399.989 254.533 398.505 253.569 397.422 252.166C396.411 250.821 395.845 249.217 395.796 247.56C395.746 245.904 396.217 244.271 397.146 242.873L398.45 240.874L407.951 244.247Z" fill="#FFB9B9"/>
<path d="M440.502 140.201C440.502 140.201 440.854 146.947 440.502 147.958C440.151 148.97 439.799 149.982 440.502 150.994C441.206 152.005 440.854 155.378 440.151 155.715C439.447 156.053 441.558 159.088 440.854 161.111C440.151 163.135 439.447 163.81 439.095 164.484C438.743 165.159 438.176 166.367 438.176 166.367C438.176 166.367 427.834 145.26 419.388 150.319C410.942 155.378 404.256 157.064 404.256 157.064C404.256 157.064 408.831 133.456 440.502 140.201Z" fill="#3F3D56"/>
<path d="M425.194 155.884C425.194 155.884 436.455 156.896 435.751 171.061C435.047 185.226 436.807 207.485 436.807 207.485C436.807 207.485 417.452 235.815 414.285 237.838C411.118 239.862 410.766 239.525 411.118 241.211C411.469 242.897 411.821 244.246 410.414 245.595C409.583 246.397 408.634 247.079 407.598 247.619C407.598 247.619 396.337 243.909 397.393 240.536C398.449 237.164 403.376 231.768 403.376 231.768C403.376 231.768 411.821 218.614 412.173 216.591C412.525 214.567 412.525 214.905 413.581 213.893C414.637 212.881 417.452 208.834 417.452 206.81V200.402L414.502 166.158C414.368 164.763 414.543 163.357 415.017 162.032C415.49 160.707 416.251 159.493 417.249 158.47C418.924 156.791 421.455 155.454 425.194 155.884Z" fill="#3F3D56"/>
<path d="M411.186 114.13C410.269 114.373 409.302 114.394 408.374 114.19C407.447 113.987 406.586 113.565 405.871 112.963C404.495 111.711 404.033 109.54 405.012 107.982C405.857 106.637 407.501 105.979 409.065 105.511C412.515 104.48 416.109 103.955 419.723 103.953C421.446 103.953 423.245 104.093 424.719 104.948C425.449 105.371 426.067 105.951 426.788 106.387C428.114 107.188 429.707 107.454 431.163 108.01C432.652 108.59 433.994 109.47 435.097 110.59C436.201 111.71 437.04 113.044 437.559 114.502C437.893 115.491 438.102 116.514 438.181 117.551C438.419 120.39 437.895 123.241 436.66 125.832C434.696 129.935 430.959 133.385 430.431 137.871C428.419 136.253 427.83 133.538 426.271 131.511C425.111 130.013 423.456 128.935 421.574 128.456C421.048 128.389 420.554 128.177 420.152 127.846C419.881 127.487 419.726 127.06 419.707 126.618L418.741 119.953C418.544 118.597 418.279 117.114 417.193 116.225C416.511 115.739 415.722 115.411 414.887 115.266C412.91 114.795 410.897 114.48 408.867 114.325" fill="#2F2E41"/>
<path opacity="0.1" d="M435.096 212.303L415.341 236.872C415.341 236.872 433.531 222.299 435.096 212.303Z" fill="black"/>
<path opacity="0.1" d="M416.134 185.1L416.321 208.303L404.848 224.797L414.235 206.304L416.134 185.1Z" fill="black"/>
<path d="M261.839 62.5754C266.993 87.4658 268.46 112.928 266.198 138.211C265.603 144.794 264.753 151.35 263.648 157.877C263.145 160.845 262.571 163.798 261.981 166.751C261.643 168.443 260.934 170.55 262.044 172.142C264.207 175.244 271.616 174.435 274.881 174.536C281.674 174.746 288.476 174.782 295.271 174.896L315.714 175.238L325.557 175.402C328.91 175.458 332.584 175.956 335.911 175.545C340.289 175.004 339.223 170.609 339.157 167.344C339.025 160.889 338.846 154.435 338.618 147.982C337.715 122.41 336.051 96.8768 333.629 71.3819C333.32 68.1294 333.513 64.2381 332.598 61.0932C332.229 59.8218 331.861 59.4541 330.42 59.2258C327.12 58.7026 323.187 59.2535 319.848 59.2758L308.683 59.3502L263.277 59.6531C262.981 59.6629 262.702 59.7822 262.496 59.986C262.291 60.1898 262.176 60.462 262.176 60.7453C262.176 61.0287 262.291 61.3009 262.496 61.5047C262.702 61.7085 262.981 61.8278 263.277 61.8376L300.495 61.5894L316.871 61.4802L325.803 61.4206C327.639 61.4084 329.355 60.8756 330.506 62.8115C331.234 64.0364 330.936 67.0994 331.075 68.5246C333.298 91.3815 334.912 114.283 335.914 137.229C336.164 142.963 336.376 148.698 336.55 154.435C336.623 156.825 336.689 159.216 336.748 161.606C336.783 163.041 336.816 164.475 336.847 165.91C336.879 167.389 337.518 170.289 336.957 171.648C335.762 174.546 330.434 173.299 327.828 173.256L318.743 173.104L300.571 172.8L282.4 172.496C279.396 172.446 276.388 172.424 273.385 172.301C272.389 172.26 271.392 172.214 270.397 172.146C267.435 171.944 264.247 172.615 263.895 168.692C263.677 166.271 265.059 162.933 265.49 160.511C265.978 157.776 266.42 155.034 266.818 152.286C267.563 147.151 268.156 141.998 268.598 136.829C270.685 111.802 269.15 86.6186 264.037 61.9947C263.752 60.6168 261.555 61.2 261.839 62.5754L261.839 62.5754Z" fill="#C7C7C7"/>
<path d="M272.32 68.1982H287.396C287.692 68.1884 287.972 68.0691 288.177 67.8653C288.382 67.6615 288.497 67.3893 288.497 67.106C288.497 66.8226 288.382 66.5504 288.177 66.3466C287.972 66.1429 287.692 66.0235 287.396 66.0137H272.32C272.024 66.0235 271.744 66.1429 271.539 66.3466C271.334 66.5504 271.219 66.8226 271.219 67.106C271.219 67.3893 271.334 67.6615 271.539 67.8653C271.744 68.0691 272.024 68.1884 272.32 68.1982Z" fill="#C7C7C7"/>
<path d="M272.318 73.1271L286.529 72.6123C287.991 72.5593 287.999 70.3745 286.529 70.4277L272.318 70.9425C270.856 70.9955 270.849 73.1803 272.318 73.1271Z" fill="#C7C7C7"/>
<path d="M272.32 77.2812H286.104C286.4 77.2714 286.679 77.1521 286.885 76.9483C287.09 76.7445 287.205 76.4723 287.205 76.189C287.205 75.9056 287.09 75.6334 286.885 75.4296C286.679 75.2259 286.4 75.1065 286.104 75.0967H272.32C272.024 75.1065 271.744 75.2259 271.539 75.4296C271.334 75.6334 271.219 75.9056 271.219 76.189C271.219 76.4723 271.334 76.7445 271.539 76.9483C271.744 77.1521 272.024 77.2714 272.32 77.2812Z" fill="#C7C7C7"/>
<path d="M317.999 67.1731C314.905 65.6259 312.097 68.1701 311.661 71.0768C311.448 72.4981 311.402 74.4407 312.347 75.648C313.312 76.881 315.168 77.398 316.709 77.4892C319.651 77.6632 322.782 76.0902 323.506 73.2025C323.847 71.9205 323.681 70.5628 323.039 69.3914C322.397 68.22 321.325 67.318 320.03 66.8592C318.641 66.398 318.045 68.5075 319.424 68.9658C320.064 69.2206 320.6 69.6676 320.952 70.2396C321.304 70.8115 321.452 71.4775 321.375 72.1372C321.284 72.896 320.938 73.6057 320.388 74.1585C319.838 74.7112 319.115 75.0768 318.328 75.1997C316.447 75.6144 314.242 75.1693 313.878 73.1353C313.606 71.6137 314.469 67.8691 316.849 69.0594C318.148 69.709 319.302 67.8243 317.999 67.1731H317.999Z" fill="#C7C7C7"/>
<path d="M275.334 89.2612C291.918 89.4283 308.484 88.9376 325.033 87.7891L323.934 86.4065C321.226 92.9849 321.3 99.9185 321.659 106.878C321.749 108.621 322.32 110.972 321.951 112.699C321.487 114.871 319.452 114.352 317.429 114.415C312.973 114.553 308.516 114.652 304.058 114.712C299.847 114.769 295.637 114.792 291.426 114.78C289.444 114.774 287.463 114.76 285.481 114.739C283.155 114.714 280.51 115.362 279.909 112.779C279.524 111.124 279.912 108.948 279.913 107.247L279.917 101.023L279.926 88.5756C279.916 88.2925 279.791 88.0242 279.579 87.8274C279.366 87.6306 279.082 87.5205 278.786 87.5205C278.491 87.5205 278.207 87.6306 277.994 87.8274C277.781 88.0242 277.657 88.2925 277.646 88.5756L277.636 103.789L277.631 110.704C277.63 112.078 277.332 113.737 277.867 115.041C279.098 118.041 284.418 116.916 286.968 116.938C292.169 116.984 297.37 116.977 302.572 116.916C307.773 116.855 312.973 116.742 318.172 116.576C320.411 116.505 323.511 116.993 324.19 114.346C324.666 112.49 324.111 110.07 324.01 108.176C323.894 106.014 323.769 103.853 323.739 101.688C323.668 96.634 324.185 91.717 326.132 86.9872C326.178 86.8251 326.184 86.6551 326.15 86.4903C326.117 86.3255 326.044 86.1704 325.938 86.0368C325.832 85.9033 325.695 85.7948 325.538 85.7199C325.381 85.6449 325.209 85.6054 325.034 85.6045C308.492 86.7528 291.926 87.2435 275.334 87.0766C275.039 87.0864 274.759 87.2058 274.554 87.4096C274.348 87.6133 274.233 87.8856 274.233 88.1689C274.233 88.4522 274.348 88.7244 274.554 88.9282C274.759 89.132 275.039 89.2514 275.334 89.2612L275.334 89.2612Z" fill="#C7C7C7"/>
<path d="M280.061 90.4475C287.159 92.8551 294.08 95.7193 300.776 99.0207C306.783 101.996 314.647 105.246 318.782 110.564C319.648 111.679 321.628 110.591 320.75 109.462C316.528 104.031 309.26 100.836 303.155 97.7494C295.903 94.102 288.388 90.9578 280.666 88.341C279.282 87.8685 278.686 89.9785 280.06 90.4475L280.061 90.4475Z" fill="#C7C7C7"/>
<path d="M324.646 86.5577C317.114 89.6447 310.732 95.5923 304 99.9993C296.714 104.77 289.211 109.209 281.491 113.317C280.21 114.003 281.358 115.891 282.641 115.204C290.345 111.081 297.848 106.642 305.151 101.886C311.881 97.4795 318.266 91.5302 325.797 88.4439C327.141 87.8929 325.981 86.0104 324.646 86.5576V86.5577Z" fill="#C7C7C7"/>
<path d="M275.334 132.953C291.918 133.12 308.484 132.629 325.034 131.48L323.935 130.098C321.226 136.676 321.3 143.61 321.659 150.569C321.749 152.312 322.32 154.664 321.951 156.391C321.487 158.562 319.452 158.043 317.429 158.106C312.973 158.244 308.516 158.343 304.058 158.404C299.847 158.461 295.637 158.483 291.426 158.471C289.444 158.465 287.463 158.452 285.482 158.431C283.155 158.406 280.51 159.053 279.909 156.47C279.524 154.816 279.912 152.64 279.913 150.938L279.917 144.714L279.926 132.267C279.916 131.984 279.791 131.716 279.579 131.519C279.366 131.322 279.082 131.212 278.786 131.212C278.491 131.212 278.207 131.322 277.994 131.519C277.781 131.716 277.657 131.984 277.647 132.267L277.636 147.48L277.631 154.396C277.63 155.769 277.332 157.429 277.867 158.733C279.098 161.732 284.418 160.607 286.968 160.63C292.169 160.675 297.37 160.668 302.572 160.607C307.773 160.546 312.973 160.433 318.172 160.267C320.412 160.196 323.511 160.684 324.19 158.037C324.666 156.181 324.111 153.761 324.01 151.867C323.894 149.706 323.769 147.544 323.739 145.38C323.668 140.325 324.185 135.408 326.133 130.679C326.178 130.516 326.184 130.346 326.151 130.182C326.117 130.017 326.044 129.862 325.938 129.728C325.832 129.595 325.695 129.486 325.538 129.411C325.381 129.336 325.209 129.297 325.034 129.296C308.493 130.444 291.926 130.935 275.334 130.768C275.039 130.778 274.759 130.897 274.554 131.101C274.348 131.305 274.233 131.577 274.233 131.86C274.233 132.144 274.348 132.416 274.554 132.62C274.759 132.823 275.039 132.943 275.334 132.953L275.334 132.953Z" fill="#C7C7C7"/>
<path d="M280.061 134.139C287.159 136.546 294.08 139.411 300.776 142.712C306.783 145.688 314.647 148.938 318.782 154.256C319.648 155.37 321.628 154.282 320.75 153.153C316.528 147.723 309.26 144.527 303.155 141.441C295.903 137.793 288.388 134.649 280.666 132.032C279.282 131.56 278.686 133.67 280.061 134.139Z" fill="#C7C7C7"/>
<path d="M324.646 130.249C317.114 133.336 310.732 139.284 304 143.691C296.714 148.461 289.211 152.9 281.491 157.009C280.21 157.694 281.358 159.582 282.641 158.895C290.345 154.772 297.848 150.333 305.151 145.577C311.881 141.171 318.266 135.222 325.797 132.135C327.141 131.584 325.981 129.702 324.646 130.249Z" fill="#C7C7C7"/>
<path d="M200.83 119.273H243.476C243.771 119.264 244.051 119.144 244.257 118.94C244.462 118.737 244.577 118.464 244.577 118.181C244.577 117.898 244.462 117.626 244.257 117.422C244.051 117.218 243.771 117.099 243.476 117.089H200.83C200.535 117.099 200.255 117.218 200.05 117.422C199.844 117.626 199.729 117.898 199.729 118.181C199.729 118.464 199.844 118.737 200.05 118.94C200.255 119.144 200.535 119.264 200.83 119.273Z" fill="#C7C7C7"/>
<path d="M240.089 108.552L246.752 114.38C247.514 115.047 249.61 116.423 250.083 117.295C251.062 119.096 250.01 118.685 248.333 119.31C244.211 120.882 240.413 123.142 237.115 125.985C236.012 126.917 237.629 128.457 238.727 127.53C241.735 124.939 245.19 122.871 248.939 121.416C250.283 120.907 252.833 120.608 253.471 119.074C254.253 117.196 251.764 115.81 250.584 114.778L241.701 107.007C240.619 106.061 239.002 107.602 240.089 108.552L240.089 108.552Z" fill="#C7C7C7"/>
<path d="M78.9596 195.274C92.4677 195.274 103.418 192.618 103.418 189.343C103.418 186.067 92.4677 183.412 78.9596 183.412C65.4515 183.412 54.501 186.067 54.501 189.343C54.501 192.618 65.4515 195.274 78.9596 195.274Z" fill="#2F2E41"/>
<path d="M74.0982 110.408C75.5716 114.644 71.1514 119.728 71.1514 119.728L77.3397 127.071L87.0642 128.765C87.0642 128.765 93.5472 124.529 91.1897 123.117C88.8323 121.705 88.5376 110.408 88.5376 110.408L74.0982 110.408Z" fill="#A0616A"/>
<path d="M64.0812 192.553L53.4727 268.382L54.0568 268.457L64.6654 192.628L64.0812 192.553Z" fill="#2F2E41"/>
<path d="M73.804 193.696L67.0264 268.536L67.6135 268.585L74.3911 193.745L73.804 193.696Z" fill="#2F2E41"/>
<path d="M92.3879 182.114L91.8008 182.165L100.009 268.447L100.596 268.396L92.3879 182.114Z" fill="#2F2E41"/>
<path d="M84.7656 180.701L81.4648 268.692L82.0536 268.713L85.3544 180.721L84.7656 180.701Z" fill="#2F2E41"/>
<path d="M99.4404 166.326L81.4648 181.012L112.112 188.355C112.112 188.355 101.209 197.392 97.3777 198.239C93.5468 199.086 85.2957 203.888 85.2957 203.888C85.2957 203.888 98.8511 212.642 99.7351 212.36C100.619 212.078 105.629 210.948 105.629 210.948C105.629 210.948 132.74 192.873 138.338 182.141C143.937 171.41 110.049 169.15 110.049 169.15L99.4404 166.326Z" fill="#2F2E41"/>
<path d="M61.4266 183.554C60.2478 187.225 69.0883 191.179 69.0883 191.179C69.0883 191.179 77.3394 201.628 79.6969 202.758C82.0543 203.888 82.9384 210.666 82.9384 210.666C78.8128 221.398 82.9384 253.311 82.9384 257.829C82.9384 262.348 97.3778 257.829 97.3778 257.829C97.3778 257.829 94.7257 223.374 98.5565 212.976C102.387 202.578 82.9384 176.211 82.9384 176.211C82.9384 176.211 62.6053 179.882 61.4266 183.554Z" fill="#2F2E41"/>
<path d="M69.3828 104.468C69.3842 101.471 70.6276 98.5969 72.8395 96.4784C75.0514 94.36 78.0507 93.1702 81.1778 93.1709C84.3049 93.1716 87.3037 94.3625 89.5147 96.4819C91.7256 98.6013 92.9677 101.476 92.9677 104.472C92.9677 107.469 91.7256 110.344 89.5147 112.463C87.3037 114.582 84.3049 115.773 81.1778 115.774C78.0507 115.775 75.0514 114.585 72.8395 112.467C70.6276 110.348 69.3842 107.474 69.3828 104.477V104.468Z" fill="#A0616A"/>
<path d="M114.763 169.433L102.572 165.379C102.105 161.306 101.411 156.296 100.731 151.651L104.45 132.719L104.772 123.977C102.686 120.478 88.9246 115.774 88.9246 115.774C88.9246 115.774 89.1984 116.696 89.5812 118.162C89.4715 118.164 89.3653 118.199 89.277 118.261C89.277 118.261 90.8942 127.353 82.3484 125.093C79.9224 124.52 77.7344 123.257 76.0722 121.469C74.4506 118.817 73.569 116.479 73.9658 114.773C73.9658 114.773 57.4494 127.151 56.2707 129.975C55.0919 132.799 59.3998 156.965 59.3998 156.965C59.3998 156.965 54.6483 181.859 60.542 188.355C60.542 188.355 58.4792 184.966 69.3824 184.966C80.2857 184.966 85.5899 182.989 85.8847 182.706C86.1794 182.424 91.7783 182.706 91.7783 182.706C91.7783 182.706 91.8829 180.652 91.9676 177.392C97.6419 176.055 102.39 174.512 102.976 173.669C103.101 173.36 103.155 173.03 103.134 172.699L114.763 169.433Z" fill="white"/>
<path d="M97.4463 173.181L98.5565 180.729C98.5565 180.729 107.692 193.72 112.407 190.896C117.121 188.072 105.334 177.623 105.334 177.623V174.234L97.4463 173.181Z" fill="#A0616A"/>
<path d="M87.6535 203.888C87.6535 203.888 77.3396 210.666 77.045 212.36C76.7503 214.055 98.5567 234.389 103.566 232.694C108.576 231 97.378 214.62 97.378 214.62L100.62 210.101L87.6535 203.888Z" fill="#2F2E41"/>
<path d="M84.4112 255.569C84.4112 255.569 79.991 263.477 82.3485 266.866C84.7059 270.255 86.474 274.491 87.9474 277.598C89.4208 280.704 100.029 282.116 104.744 280.987C109.459 279.857 99.1453 266.866 99.1453 266.866L96.4932 255.569H84.4112Z" fill="#2F2E41"/>
<path d="M107.102 130.177C106.807 123.399 101.797 121.422 101.797 121.422L98.5559 156.159L98.9015 156.182L98.556 156.724L96.4932 176.211C98.8506 173.386 106.218 176.211 106.218 176.211L107.102 156.724C107.102 156.724 107.396 136.955 107.102 130.177Z" fill="white"/>
<path d="M92.6631 183.554L96.4939 186.378C96.4939 186.378 102.093 194.286 111.817 189.484C121.542 184.683 99.7355 177.905 99.7355 177.905L94.1365 176.211L92.6631 183.554Z" fill="#A0616A"/>
<path d="M54.3537 132.154C51.4069 135.543 58.1846 158.418 59.9527 165.196C61.7208 171.974 77.6336 177.905 81.4644 178.188C85.2953 178.47 89.1262 185.248 91.7783 186.378C94.4305 187.507 94.7251 179.882 96.227 176.301C97.7289 172.721 87.6528 173.104 87.6528 173.104L72.9187 163.784C72.9187 163.784 71.4453 150.793 70.2666 140.909C69.0878 131.024 61.1314 127.353 61.1314 127.353C58.774 125.941 57.3005 128.765 54.3537 132.154Z" fill="white"/>
<path d="M89.4814 98.3641C89.4814 98.3641 95.9728 102.029 97.3668 101.998C98.7609 101.966 99.0986 100.7 98.0705 98.9539C97.0424 97.2081 92.3261 97.2767 92.3261 97.2767L89.4814 98.3641Z" fill="#3F3D56"/>
<path opacity="0.1" d="M89.4814 98.3641C89.4814 98.3641 95.9728 102.029 97.3668 101.998C98.7609 101.966 99.0986 100.7 98.0705 98.9539C97.0424 97.2081 92.3261 97.2767 92.3261 97.2767L89.4814 98.3641Z" fill="black"/>
<path d="M75.4789 97.8581L82.7088 94.9404L89.072 95.1094L95.6198 97.7512C93.0512 96.7483 86.8162 100.076 82.4077 104.266C77.9993 108.456 74.9366 105.734 74.9366 105.734L71.7109 103.056L75.4789 97.8581Z" fill="#C7C7C7"/>
<path d="M68.3532 100.833C67.8717 97.4681 70.0929 94.4375 71.5051 92.8913C72.1361 92.2028 73.0029 91.7527 73.9494 91.6223C73.9863 91.5856 74.0263 91.5482 74.0701 91.5114C75.6216 90.1906 81.1061 89.0602 81.1061 89.0602C82.7364 88.6297 85.8556 90.3276 85.8556 90.3276L91.6266 96.3685C88.6421 95.1393 84.4482 96.4148 84.4482 96.4148C80.2678 97.3404 76.3374 99.9836 73.557 102.271C72.116 103.446 70.7634 104.717 69.5094 106.075C69.5094 106.075 69.0486 105.692 68.3532 100.833Z" fill="#C7C7C7"/>
<path opacity="0.1" d="M72.0957 103.317C84.2698 93.4859 91.086 95.635 91.37 95.731L91.1747 96.2639C91.1079 96.2416 84.3555 94.1553 72.4756 103.749L72.0957 103.317Z" fill="black"/>
<path d="M74.8349 92.3232C75.6806 91.8553 76.1023 91.038 75.7768 90.4977C75.4513 89.9574 74.5019 89.8987 73.6562 90.3666C72.8106 90.8345 72.3889 91.6519 72.7144 92.1922C73.0399 92.7325 73.9893 92.7912 74.8349 92.3232Z" fill="#C7C7C7"/>
<path d="M72.1734 104.741C72.2911 103.97 71.9948 103.289 71.5117 103.222C71.0285 103.154 70.5415 103.725 70.4239 104.496C70.3063 105.268 70.6026 105.948 71.0857 106.016C71.5688 106.084 72.0558 105.513 72.1734 104.741Z" fill="#A0616A"/>
<path opacity="0.2" d="M72.4385 147.969L73.3308 164.045L87.5626 172.46L75.0461 163.463L72.4385 147.969Z" fill="black"/>
<path opacity="0.2" d="M96.4288 150.468L95.3858 172.46L94.8643 150.468H96.4288Z" fill="black"/>
</g>
<defs>
<clipPath id="clip0">
<rect width="441" height="380" fill="white"/>
</clipPath>
</defs>
</svg>
