<?xml version="1.0" encoding="utf-8"?>
<!-- Generator: Adobe Illustrator 17.0.0, SVG Export Plug-In . SVG Version: 6.00 Build 0)  -->
<!DOCTYPE svg PUBLIC "-//W3C//DTD SVG 1.1//EN" "http://www.w3.org/Graphics/SVG/1.1/DTD/svg11.dtd">
<svg version="1.1" id="Слой_1" xmlns="http://www.w3.org/2000/svg" xmlns:xlink="http://www.w3.org/1999/xlink" x="0px" y="0px"
	 width="612px" height="500px" viewBox="0 0 612 500" enable-background="new 0 0 612 500" xml:space="preserve">
<g>
	<g>
		<g>
			<g>
				<g>
					<path opacity="0.1" fill="#C7C7C7" enable-background="new    " d="M572.274,310.93
						c-19.971,29.312-13.421,71.185-1.825,104.469c3.865,11.166,8.267,22.977,6.227,35.109
						c-2.469,14.817-13.958,25.983-25.983,31.996c-21.796,11.059-47.672,9.234-67.213-4.617
						c-16.857-12.025-28.775-31.888-45.954-43.377c-28.775-19.112-66.139-10.522-98.135,3.973
						c-22.655,10.307-47.457,23.621-69.575,14.065c-15.568-6.657-25.983-23.728-31.459-41.981
						c-2.684-8.804-4.509-18.36-9.771-25.232c-3.114-4.08-7.301-6.979-11.596-9.341c-38.975-21.796-89.223-8.16-127.017-32.533
						c-25.554-16.427-41.444-48.316-47.994-81.815c-6.657-33.499-4.939-68.931-2.362-103.718
						c1.825-24.695,4.832-51.107,18.789-70.541C73.115,66.88,97.81,58.72,119.928,61.941s41.874,16.32,59.16,31.888
						c21.688,19.541,41.552,43.914,68.501,51.322c18.36,5.046,37.794,1.503,56.905-0.107c31.888-2.577,63.669,0.429,95.236,3.865
						c30.171,3.221,60.663,6.979,89.331,17.608c20.293,7.623,36.291,21.903,55.402,31.781c12.455,6.442,26.091,7.838,37.794,16.105
						c14.387,10.2,27.486,28.238,23.299,49.819C601.478,284.625,582.903,295.469,572.274,310.93z"/>
					<path fill="#494450" d="M345.512,102.957H234.385c-3.114,0-5.691,2.684-5.691,6.013v74.621c0,3.328,2.577,6.013,5.691,6.013
						h111.126c3.114,0,5.691-2.684,5.691-6.013V108.97C351.309,105.641,348.733,102.957,345.512,102.957z"/>
					<path fill="#FFFFFF" d="M348.411,113.05H231.272v70.863h117.139V113.05z"/>
					<path fill="#FFFFFF" d="M289.895,110.58c0.537,0,1.074-0.537,1.074-1.181s-0.429-1.181-1.074-1.181
						c-0.644,0-1.074,0.537-1.074,1.181S289.251,110.58,289.895,110.58z"/>
					<path fill="#494450" d="M300.417,186.597h-21.474v23.836h21.474V186.597z"/>
					<path fill="#494450" d="M277.118,208.608h26.198c0.966,0,1.825,0.429,2.577,1.074c0.644,0.752,1.074,1.718,1.074,2.684h-33.392
						c0-0.966,0.429-1.933,1.074-2.684C275.293,208.93,276.152,208.608,277.118,208.608z"/>
					<path fill="#504D57" d="M228.802,226.808h-88.257v32.103h88.257V226.808z"/>
					<path fill="#504D57" d="M519.985,213.01h-19.112v174.688h19.112V213.01z"/>
					<path opacity="0.1" enable-background="new    " d="M228.802,228.686h-88.257v1.933h88.257V228.686z"/>
					<path opacity="0.1" enable-background="new    " d="M519.985,213.01h-19.112v17.608h19.112V213.01z"/>
					<path fill="#504D57" d="M228.802,257.622h-88.257v32.103h88.257V257.622z"/>
					<path fill="#C7C7C7" d="M184.674,280.867c3.006,0,5.368-2.577,5.368-5.691s-2.362-5.691-5.368-5.691s-5.368,2.577-5.368,5.691
						S181.667,280.867,184.674,280.867z"/>
					<path fill="#C7C7C7" d="M184.674,250.052c3.006,0,5.368-2.577,5.368-5.691s-2.362-5.691-5.368-5.691s-5.368,2.577-5.368,5.691
						C179.305,247.475,181.667,250.052,184.674,250.052z"/>
					<path fill="#504D57" d="M228.802,289.617h-88.257v32.103h88.257V289.617z"/>
					<path fill="#C7C7C7" d="M184.674,312.326c3.006,0,5.368-2.577,5.368-5.691s-2.362-5.69-5.368-5.69s-5.368,2.577-5.368,5.69
						S181.667,312.326,184.674,312.326z"/>
					<path fill="#504D57" d="M228.802,321.721h-88.257v32.103h88.257V321.721z"/>
					<path fill="#C7C7C7" d="M184.674,344.321c3.006,0,5.368-2.577,5.368-5.691s-2.362-5.691-5.368-5.691s-5.368,2.577-5.368,5.691
						S181.667,344.321,184.674,344.321z"/>
					<path fill="#504D57" d="M228.802,353.716h-88.257v32.103h88.257V353.716z"/>
					<path fill="#C7C7C7" d="M184.674,376.425c3.006,0,5.368-2.577,5.368-5.69s-2.362-5.691-5.368-5.691s-5.368,2.577-5.368,5.691
						S181.667,376.425,184.674,376.425z"/>
					<path opacity="0.1" enable-background="new    " d="M228.802,289.671h-88.257v2.469h88.257V289.671z"/>
					<path opacity="0.1" enable-background="new    " d="M228.802,258.212h-88.257v2.469h88.257V258.212z"/>
					<path opacity="0.1" enable-background="new    " d="M228.802,321.667h-88.257v2.469h88.257V321.667z"/>
					<path opacity="0.1" enable-background="new    " d="M228.802,353.77h-88.257v2.469h88.257V353.77z"/>
					<path fill="none" stroke="#535461" stroke-width="2" stroke-miterlimit="10" d="M92.015,364.614
						c0,0-1.933-61.415-33.499-96.202c-13.206-14.602-21.903-33.069-24.265-53.04c-1.074-9.556-1.288-19.112-0.752-28.667"/>
					<path fill="#37B079" d="M13.743,164.801c2.147,6.872,20.185,22.655,20.185,22.655s5.583-24.051,3.328-30.922
						c-1.074-3.328-3.221-6.013-6.227-7.623s-6.335-1.825-9.448-0.752c-3.114,1.074-5.691,3.436-7.194,6.549
						C12.992,157.823,12.777,161.473,13.743,164.801L13.743,164.801z"/>
					<path fill="#37B079" d="M6.227,209.574c5.368,4.509,28.667,7.408,28.667,7.408s-7.731-23.299-13.099-27.808
						c-2.577-2.147-5.905-3.221-9.126-2.792c-3.328,0.429-6.227,2.147-8.375,4.832c-2.04,2.684-3.006,6.12-2.684,9.663
						C2.04,204.206,3.651,207.427,6.227,209.574L6.227,209.574z"/>
					<path fill="#37B079" d="M27.594,274.21c6.764,1.074,28.238-8.804,28.238-8.804s-17.823-15.998-24.695-17.072
						c-3.221-0.537-6.549,0.322-9.234,2.469c-2.684,2.04-4.402,5.154-4.832,8.589c-0.429,3.436,0.322,6.979,2.362,9.663
						C21.366,271.848,24.265,273.673,27.594,274.21z"/>
					<path fill="#37B079" d="M54.114,319.305c6.549,2.255,29.312-3.651,29.312-3.651s-15.032-19.004-21.581-21.259
						c-3.114-1.074-6.549-0.859-9.448,0.752c-2.899,1.611-5.154,4.295-6.227,7.623c-1.074,3.328-0.752,6.872,0.752,9.985
						C48.316,315.869,51,318.231,54.114,319.305L54.114,319.305z"/>
					<path fill="#37B079" d="M60.126,209.681c-3.221,6.442-23.406,19.004-23.406,19.004s-1.825-24.587,1.288-31.029
						c0.752-1.503,1.825-2.899,3.006-3.973c1.288-1.074,2.684-1.933,4.295-2.469c1.503-0.537,3.221-0.752,4.832-0.537
						c1.611,0.107,3.221,0.644,4.617,1.396c1.396,0.752,2.684,1.933,3.758,3.221s1.825,2.792,2.362,4.509
						c0.537,1.611,0.644,3.328,0.537,5.046C61.307,206.46,60.878,208.178,60.126,209.681z"/>
					<path fill="#37B079" d="M90.512,262.829c-4.832,5.154-27.701,10.737-27.701,10.737s5.261-24.051,10.093-29.204
						c2.362-2.469,5.476-3.865,8.804-3.865s6.442,1.396,8.804,3.865s3.651,5.798,3.651,9.234S92.874,260.359,90.512,262.829
						L90.512,262.829z"/>
					<path fill="#37B079" d="M113.381,318.768c-3.973,5.905-25.554,15.461-25.554,15.461s1.288-24.695,5.261-30.6
						c0.966-1.503,2.147-2.684,3.436-3.651c1.396-0.966,2.899-1.611,4.617-1.933c1.611-0.322,3.328-0.322,4.939,0.107
						c1.611,0.322,3.114,1.074,4.509,2.147c1.396,0.966,2.469,2.255,3.436,3.758c0.859,1.503,1.503,3.114,1.718,4.939
						c0.215,1.718,0.215,3.543-0.215,5.154C115.099,315.761,114.347,317.372,113.381,318.768L113.381,318.768z"/>
					<path fill="none" stroke="#535461" stroke-width="2" stroke-miterlimit="10" d="M85.143,339.168
						c0,0,17.931-27.379,14.709-53.255c-1.396-10.844,0.644-21.796,5.691-31.352c2.469-4.509,5.261-8.804,8.375-12.777"/>
					<path fill="#C7C7C7" d="M112.093,225.679c-1.181,3.758,1.933,16.749,1.933,16.749s9.771-8.589,10.844-12.347
						c0.322-0.859,0.429-1.825,0.322-2.792c-0.107-0.966-0.322-1.825-0.752-2.684c-0.429-0.859-0.966-1.611-1.611-2.147
						c-0.644-0.644-1.396-1.074-2.255-1.396c-1.718-0.537-3.543-0.429-5.154,0.429C113.811,222.351,112.629,223.854,112.093,225.679
						L112.093,225.679z"/>
					<path fill="#C7C7C7" d="M95.128,242.536c0.966,3.758,10.2,12.992,10.2,12.992s3.758-12.777,2.792-16.535
						c-0.215-0.859-0.644-1.718-1.181-2.469s-1.181-1.396-1.933-1.825c-0.752-0.429-1.611-0.752-2.469-0.859
						c-0.859-0.107-1.718-0.107-2.577,0.215c-0.859,0.215-1.611,0.644-2.362,1.181c-0.752,0.537-1.288,1.288-1.718,2.04
						c-0.429,0.752-0.752,1.718-0.859,2.577C94.806,240.711,94.914,241.677,95.128,242.536z"/>
					<path fill="#C7C7C7" d="M84.606,277.968c2.684,2.792,15.032,5.691,15.032,5.691s-2.899-12.992-5.476-15.783
						c-1.288-1.288-3.006-2.04-4.724-2.04c-1.825,0-3.543,0.752-4.724,2.04c-1.288,1.288-1.933,3.114-1.933,5.046
						C82.674,274.854,83.425,276.679,84.606,277.968L84.606,277.968z"/>
					<path fill="#C7C7C7" d="M82.459,306.635c2.147,3.221,13.851,8.375,13.851,8.375s-0.752-13.421-2.899-16.642
						c-1.074-1.503-2.577-2.577-4.402-2.899c-1.718-0.322-3.543,0.107-5.046,1.181s-2.469,2.792-2.684,4.617
						C80.956,303.199,81.385,305.132,82.459,306.635z"/>
					<path fill="#C7C7C7" d="M118.535,260.896c-3.328,1.718-15.998,0.322-15.998,0.322s6.764-11.381,10.093-13.099
						c0.752-0.429,1.611-0.644,2.577-0.752c0.859-0.107,1.718,0.107,2.577,0.322c0.859,0.322,1.611,0.752,2.255,1.396
						c0.644,0.644,1.181,1.396,1.611,2.147c0.429,0.859,0.644,1.718,0.644,2.684c0.107,0.966-0.107,1.825-0.322,2.792
						c-0.322,0.859-0.752,1.718-1.288,2.362C120.038,259.93,119.286,260.467,118.535,260.896L118.535,260.896z"/>
					<path fill="#C7C7C7" d="M115.528,294.288c-3.651,0.537-15.354-4.724-15.354-4.724s9.663-8.697,13.314-9.341
						c1.718-0.322,3.543,0.215,5.046,1.288c1.396,1.074,2.362,2.792,2.684,4.617s-0.215,3.758-1.181,5.261
						C118.964,293.107,117.354,294.073,115.528,294.288L115.528,294.288z"/>
					<path fill="#C7C7C7" d="M108.442,326.391c-3.543,1.288-15.891-1.933-15.891-1.933s8.053-10.307,11.596-11.488
						c1.718-0.644,3.543-0.429,5.154,0.429c1.611,0.859,2.792,2.362,3.328,4.08c0.537,1.825,0.429,3.758-0.322,5.368
						C111.556,324.566,110.16,325.854,108.442,326.391L108.442,326.391z"/>
					<path opacity="0.5" fill="#7EB086" enable-background="new    " d="M112.093,225.679c-1.181,3.758,1.933,16.749,1.933,16.749
						s9.771-8.589,10.844-12.347c0.322-0.859,0.429-1.825,0.322-2.792c-0.107-0.966-0.322-1.825-0.752-2.684
						c-0.429-0.859-0.966-1.611-1.611-2.147c-0.644-0.644-1.396-1.074-2.255-1.396c-1.718-0.537-3.543-0.429-5.154,0.429
						C113.811,222.351,112.629,223.854,112.093,225.679L112.093,225.679z"/>
					<path opacity="0.5" fill="#7EB086" enable-background="new    " d="M95.128,242.536c0.966,3.758,10.2,12.992,10.2,12.992
						s3.758-12.777,2.792-16.535c-0.215-0.859-0.644-1.718-1.181-2.469s-1.181-1.396-1.933-1.825
						c-0.752-0.429-1.611-0.752-2.469-0.859c-0.859-0.107-1.718-0.107-2.577,0.215c-0.859,0.215-1.611,0.644-2.362,1.181
						c-0.752,0.537-1.288,1.288-1.718,2.04c-0.429,0.752-0.752,1.718-0.859,2.577C94.806,240.711,94.914,241.677,95.128,242.536z"/>
					<path opacity="0.5" fill="#7EB086" enable-background="new    " d="M84.606,277.968c2.684,2.792,15.032,5.691,15.032,5.691
						s-2.899-12.992-5.476-15.783c-1.288-1.288-3.006-2.04-4.724-2.04c-1.825,0-3.543,0.752-4.724,2.04
						c-1.288,1.288-1.933,3.114-1.933,5.046C82.674,274.854,83.425,276.679,84.606,277.968L84.606,277.968z"/>
					<path opacity="0.5" fill="#7EB086" enable-background="new    " d="M82.459,306.635c2.147,3.221,13.851,8.375,13.851,8.375
						s-0.752-13.421-2.899-16.642c-1.074-1.503-2.577-2.577-4.402-2.899c-1.718-0.322-3.543,0.107-5.046,1.181
						s-2.469,2.792-2.684,4.617C80.956,303.199,81.385,305.132,82.459,306.635z"/>
					<path opacity="0.5" fill="#7EB086" enable-background="new    " d="M118.535,260.896c-3.328,1.718-15.998,0.322-15.998,0.322
						s6.764-11.381,10.093-13.099c0.752-0.429,1.611-0.644,2.577-0.752c0.859-0.107,1.718,0.107,2.577,0.322
						c0.859,0.322,1.611,0.752,2.255,1.396c0.644,0.644,1.181,1.396,1.611,2.147c0.429,0.859,0.644,1.718,0.644,2.684
						c0.107,0.966-0.107,1.825-0.322,2.792c-0.322,0.859-0.752,1.718-1.288,2.362C120.038,259.93,119.286,260.467,118.535,260.896
						L118.535,260.896z"/>
					<path opacity="0.5" fill="#7EB086" enable-background="new    " d="M115.528,294.288c-3.651,0.537-15.354-4.724-15.354-4.724
						s9.663-8.697,13.314-9.341c1.718-0.322,3.543,0.215,5.046,1.288c1.396,1.074,2.362,2.792,2.684,4.617s-0.215,3.758-1.181,5.261
						C118.964,293.107,117.354,294.073,115.528,294.288L115.528,294.288z"/>
					<path opacity="0.5" fill="#7EB086" enable-background="new    " d="M108.442,326.391c-3.543,1.288-15.891-1.933-15.891-1.933
						s8.053-10.307,11.596-11.488c1.718-0.644,3.543-0.429,5.154,0.429c1.611,0.859,2.792,2.362,3.328,4.08
						c0.537,1.825,0.429,3.758-0.322,5.368C111.556,324.566,110.16,325.854,108.442,326.391L108.442,326.391z"/>
					<path fill="#504D57" d="M118.213,413.574H67.32l-12.777-81.815h76.339L118.213,413.574z"/>
					<path opacity="0.1" enable-background="new    " d="M121.219,331.759l-11.918,76.446h-42.84l0.859,5.368h50.893l12.777-81.815
						L121.219,331.759L121.219,331.759z"/>
					<path fill="#504D57" d="M522.347,210.433H138.72v18.897h383.627L522.347,210.433L522.347,210.433z"/>
					<path fill="#E8EAF1" d="M289.036,117.989h-54.865v61.093h54.865V117.989z"/>
					<path fill="#FFFFFF" d="M287.855,119.385h-52.503v58.408h52.503V119.385z"/>
					
						<linearGradient id="SVGID_1_" gradientUnits="userSpaceOnUse" x1="226.8778" y1="680.9107" x2="226.8778" y2="627.0665" gradientTransform="matrix(1.0737 0 0 1.0737 16.6063 -552.6564)">
						<stop  offset="0" style="stop-color:#808080;stop-opacity:0.25"/>
						<stop  offset="0.54" style="stop-color:#808080;stop-opacity:0.12"/>
						<stop  offset="1" style="stop-color:#808080;stop-opacity:0.1"/>
					</linearGradient>
					<path fill="url(#SVGID_1_)" d="M282.164,161.903c0.752-6.12-0.752-6.549-0.752-6.549l-2.147-1.074c0-0.322,0-0.752,0-1.074
						s0-0.644,0-0.859c-0.215-2.362-1.611-4.509-2.577-6.764c-0.859-2.04-1.396-4.187-1.611-6.442c-0.215-2.792,0-5.583-0.859-8.16
						c-0.859-2.04-2.147-3.865-3.758-5.368c-1.718-1.825-3.758-3.221-6.013-4.295c-2.255-0.966-4.832-1.074-7.086-0.215
						c-2.04,0.859-3.543,2.469-5.154,4.187c-1.074,1.074-2.04,2.362-2.899,3.758c-0.859,1.718-1.396,3.651-1.611,5.583
						c-0.537,3.114-0.859,6.227-0.966,9.341c-0.215,2.577-0.429,5.583-2.362,7.194c-0.966,0.752-2.362,1.181-2.792,2.362
						c-0.107,0.322-0.215,0.752-0.107,1.074c0,0.322,0,0.644,0.107,0.966c0,0.215,0.107,0.322,0.107,0.537
						c-0.537,1.611-1.074,3.221-1.396,4.939c-1.396,5.691-2.362,11.381-2.899,17.179h35.432c0.322,0,0.644,0,0.966,0h9.234
						L282.164,161.903z"/>
					<path fill="#B96B6B" d="M271.857,136.564h-20.293v16.105h20.293V136.564z"/>
					<path opacity="0.1" enable-background="new    " d="M271.857,136.564h-20.293v16.105h20.293V136.564z"/>
					<path fill="#FFB9B9" d="M272.608,153.42l-7.838,11.596l-8.267-0.752c0,0-10.737,0.752-3.543-7.838
						c3.436-4.187,4.509-7.623,4.724-10.093c0.215-1.396,0-2.899-0.537-4.187l8.912-1.074c-0.429,1.288-0.429,2.577-0.107,3.865
						C267.133,149.877,272.608,153.42,272.608,153.42z"/>
					<path opacity="0.1" enable-background="new    " d="M266.059,144.938c-1.181,0.966-2.577,1.503-3.973,1.825
						c-1.396,0.215-2.899,0.107-4.295-0.429c0.215-1.396,0-2.899-0.537-4.187l8.912-1.074
						C265.737,142.361,265.737,143.65,266.059,144.938z"/>
					<path fill="#FFB9B9" d="M260.691,146.549c4.939,0,8.912-4.187,8.912-9.341s-3.973-9.341-8.912-9.341s-8.912,4.187-8.912,9.341
						C251.779,142.254,255.752,146.549,260.691,146.549z"/>
					<path opacity="0.1" enable-background="new    " d="M261.227,162.117c0,0,3.221-4.08,3.221-7.516
						c0.429-0.859,1.074-1.718,1.825-2.362c0.752-0.644,1.611-1.181,2.469-1.396c3.221-1.074,2.899,0,2.899,0l2.147,9.019
						l-0.752,16.105l0.322,1.933h-26.413l1.825-7.516l-0.322-6.335l1.396-9.771l4.295-2.577l3.221,4.509L261.227,162.117z"/>
					<path fill="#FEC5D9" d="M261.227,162.439c0,0,3.221-4.08,3.221-7.516c0.429-0.859,1.074-1.718,1.825-2.362
						s1.611-1.181,2.469-1.396c3.221-1.074,2.899,0,2.899,0l2.147,9.019l-0.752,16.105l0.322,1.933h-26.413l1.825-7.516
						l-0.322-6.335l1.396-9.771l4.295-2.577l3.221,4.509L261.227,162.439z"/>
					<path opacity="0.1" enable-background="new    " d="M256.181,150.844l-11.059,1.933c0,0-1.825-0.429-3.973,8.589
						c-1.288,5.583-2.255,11.166-2.899,16.857h13.743c0,0,0.859-15.032,3.006-16.105l3.006-4.832c0,0-4.724-0.429-4.08-3.006
						C254.785,151.595,256.181,150.844,256.181,150.844z"/>
					<path fill="#ACACAC" d="M255.859,150.844l-11.059,1.933c0,0-1.825-0.429-3.865,8.589c-1.288,5.583-2.255,11.166-2.792,16.857
						h13.636c0,0,0.859-15.032,3.006-16.105l3.006-4.832c0,0-4.724-0.429-4.08-3.006
						C254.463,151.595,255.859,150.844,255.859,150.844z"/>
					<path opacity="0.1" enable-background="new    " d="M268.636,149.663l11.811,6.013c0,0,1.396,0.429,0.752,6.335l0.752,16.105
						H269.28c0.966-5.046,1.181-10.307,0.537-15.354C269.173,158.467,268.743,154.065,268.636,149.663z"/>
					<path fill="#ACACAC" d="M269.065,149.663l11.811,6.013c0,0,1.396,0.429,0.752,6.335l0.752,16.105h-12.67
						c0.966-5.046,1.181-10.307,0.537-15.354C269.495,158.467,269.173,154.065,269.065,149.663z"/>
					<path opacity="0.1" enable-background="new    " d="M257.684,133.02c-0.107,1.503-1.181,2.792-1.933,4.08
						c-0.859,1.288-1.503,2.792-1.074,4.295c0.215,0.537,0.537,1.074,0.644,1.611c0.215,0.966-0.322,2.04-0.215,3.114
						c0.107,1.396,1.288,2.469,1.825,3.651c1.288,2.684,0.322,5.905-1.074,8.482s-3.328,5.046-3.758,7.945
						c-0.429,2.684,0.429,5.476,1.288,8.053c0.215,0.537,0.322,1.074,0.215,1.611c-0.322,0.859-1.288,1.074-2.147,1.181
						c-0.966,0.107-1.933,0.107-2.899,0c-0.322,0-0.752-0.107-1.074-0.215c-0.644-0.429-0.859-1.288-1.074-1.933
						c-0.215-0.752-0.752-1.611-1.503-1.503c-0.537,0.107-0.859,0.537-1.396,0.537c-0.215,0-0.429,0-0.644-0.107
						s-0.429-0.215-0.537-0.429c-0.859-0.966-0.644-2.684-0.107-3.865s1.503-2.255,1.825-3.651c0.966-3.221-1.396-6.549-1.933-9.878
						c-0.107-0.537-0.107-1.074,0.107-1.611c0.429-1.181,1.718-1.611,2.684-2.362c1.933-1.611,2.147-4.509,2.362-7.086
						c0.215-3.114,0.429-6.12,0.966-9.234c0.215-1.933,0.752-3.758,1.611-5.476c0.752-1.288,1.718-2.577,2.792-3.651
						c1.503-1.611,3.006-3.221,4.939-4.08c2.255-0.859,4.724-0.752,6.872,0.215c2.147,0.966,4.187,2.469,5.798,4.187
						c1.611,1.396,2.792,3.221,3.543,5.261c0.859,2.577,0.644,5.368,0.859,8.053c0.215,2.147,0.752,4.295,1.611,6.335
						c0.966,2.147,2.255,4.187,2.469,6.549c0.107,1.933-0.429,3.758-0.752,5.583c-0.537,3.221-0.215,6.549,0.107,9.878
						c0,0.752,0.215,1.611,0.429,2.362c0.537,1.074,1.288,1.933,2.147,2.684c0.107,0.107,0.215,0.215,0.215,0.322
						c0.107,0.107,0.107,0.215,0.107,0.322s0,0.215-0.107,0.322c0,0.107-0.107,0.215-0.215,0.215
						c-1.074,0.966-2.899,0.215-4.08,1.181c-0.322,0.322-0.644,0.644-0.859,0.966c-0.537,0.537-1.181,0.966-1.825,1.181
						c-0.752,0.215-1.503,0.215-2.147,0c-0.752-0.215-1.396-0.644-1.825-1.181c-0.537-0.537-0.859-1.288-0.966-2.04
						c-0.322-1.503,0.107-3.006,0.322-4.509c0.537-4.724-1.718-9.234-3.543-13.528c-0.859-2.04-1.611-4.187-1.288-6.442
						c0.215-1.718,1.181-3.328,1.933-4.939c1.396-3.221,1.825-7.086,0.644-10.415c-0.859-2.577-2.684-4.617-5.046-5.798
						c-0.859-0.429-2.04-0.966-2.899-0.429C257.362,129.799,257.899,131.625,257.684,133.02z"/>
					<path fill="#B96B6B" d="M257.684,132.591c-0.107,1.503-1.181,2.792-1.933,4.08c-0.859,1.288-1.503,2.792-1.074,4.295
						c0.215,0.537,0.537,1.074,0.644,1.611c0.215,0.966-0.322,2.04-0.215,3.114c0.107,1.396,1.288,2.469,1.825,3.651
						c1.288,2.684,0.322,5.905-1.074,8.482s-3.328,5.046-3.758,7.945c-0.429,2.684,0.429,5.476,1.288,8.053
						c0.215,0.537,0.322,1.074,0.215,1.611c-0.322,0.859-1.288,1.074-2.147,1.181c-0.966,0.107-1.933,0.107-2.899,0
						c-0.322,0-0.752-0.107-1.074-0.215c-0.644-0.429-0.859-1.288-1.074-1.933c-0.215-0.752-0.752-1.611-1.503-1.503
						c-0.537,0.107-0.859,0.537-1.396,0.537c-0.215,0-0.429,0-0.644-0.107s-0.429-0.215-0.537-0.429
						c-0.859-0.966-0.644-2.684-0.107-3.865s1.503-2.255,1.825-3.651c0.966-3.221-1.396-6.549-1.933-9.878
						c-0.107-0.537-0.107-1.074,0.107-1.611c0.429-1.181,1.718-1.611,2.684-2.362c1.933-1.611,2.147-4.509,2.362-7.086
						c0.215-3.114,0.537-6.12,0.966-9.234c0.215-1.933,0.752-3.758,1.611-5.476c0.752-1.288,1.718-2.577,2.792-3.651
						c1.503-1.611,3.006-3.221,4.939-4.08c2.255-0.859,4.724-0.752,6.872,0.215c2.147,0.966,4.08,2.362,5.798,4.187
						c1.611,1.396,2.792,3.221,3.543,5.261c0.859,2.577,0.644,5.368,0.859,8.053c0.215,2.147,0.752,4.295,1.611,6.335
						c0.966,2.147,2.255,4.187,2.469,6.549c0.107,1.933-0.429,3.758-0.752,5.583c-0.537,3.221-0.215,6.549,0.107,9.878
						c0,0.752,0.215,1.611,0.429,2.362c0.537,1.074,1.288,1.933,2.147,2.684c0.107,0.107,0.215,0.215,0.215,0.322
						c0.107,0.107,0.107,0.215,0.107,0.322s0,0.215-0.107,0.322c0,0.107-0.107,0.215-0.215,0.215
						c-1.074,0.966-2.899,0.215-4.08,1.181c-0.322,0.322-0.644,0.644-0.859,0.966c-0.537,0.537-1.181,0.966-1.825,1.181
						c-0.752,0.215-1.503,0.215-2.147,0c-0.752-0.215-1.396-0.644-1.825-1.181c-0.537-0.537-0.859-1.288-0.966-2.04
						c-0.322-1.503,0.107-3.006,0.322-4.509c0.537-4.724-1.718-9.234-3.543-13.528c-0.859-2.04-1.611-4.187-1.288-6.442
						c0.215-1.718,1.181-3.328,1.933-4.939c1.396-3.221,1.825-7.086,0.644-10.415c-0.859-2.577-2.684-4.617-5.046-5.798
						c-0.859-0.429-2.04-0.966-2.899-0.429C257.362,129.37,257.899,131.195,257.684,132.591z"/>
					<path fill="#E8EAF1" d="M343.364,121.854h-42.947v1.933h42.947V121.854z"/>
					<path fill="#E8EAF1" d="M343.364,126.9h-42.947v1.933h42.947V126.9z"/>
					<path fill="#E8EAF1" d="M343.364,131.947h-42.947v1.933h42.947V131.947z"/>
					<path fill="#E8EAF1" d="M343.364,136.886h-42.947v1.933h42.947V136.886z"/>
					<path fill="#E8EAF1" d="M343.364,141.932h-42.947v1.933h42.947V141.932z"/>
					<path fill="#E8EAF1" d="M343.364,146.978h-42.947v1.933h42.947V146.978z"/>
					<path fill="#E8EAF1" d="M343.364,152.025h-42.947v1.933h42.947V152.025z"/>
					<path fill="#E8EAF1" d="M343.364,157.071h-42.947v1.933h42.947V157.071z"/>
					<path fill="#E8EAF1" d="M343.364,162.117h-42.947v1.933h42.947V162.117z"/>
					<path fill="#E8EAF1" d="M343.364,167.056h-42.947v1.933h42.947V167.056z"/>
					<path fill="#E8EAF1" d="M343.364,172.103h-42.947v1.933h42.947V172.103z"/>
					
						<linearGradient id="SVGID_2_" gradientUnits="userSpaceOnUse" x1="329.4213" y1="236724.9063" x2="329.4213" y2="56452.9844" gradientTransform="matrix(1.0737 0 0 1.0737 16.6063 -552.6564)">
						<stop  offset="0" style="stop-color:#808080;stop-opacity:0.25"/>
						<stop  offset="0.54" style="stop-color:#808080;stop-opacity:0.12"/>
						<stop  offset="1" style="stop-color:#808080;stop-opacity:0.1"/>
					</linearGradient>
					<path fill="url(#SVGID_2_)" d="M452.773,270.667c3.543-8.697,4.402-18.253,2.577-27.594
						c-2.147-11.059-3.651-22.225-4.295-33.499c-0.644-10.737-2.147-17.716-3.758-22.333c0,0,0.644-14.709-8.804-22.333
						c-9.448-7.623-31.459-19.756-31.459-19.756l2.255-9.448h-0.107c0.644-0.215,1.288-0.537,1.933-0.859
						c0.644-0.429,1.181-0.966,1.718-1.503c3.758-3.436,3.758-9.771,5.583-14.709c1.396-3.865,3.865-7.194,5.69-10.844
						c3.328-6.657,4.08-14.817,0.966-21.581c-3.114-6.764-10.415-11.596-17.716-10.737c-2.362,0.429-4.724,1.074-6.872,1.933
						c-5.261,1.933-9.448-3.543-14.71-1.611c-2.684,0.966-12.562,2.04-14.709,4.939c-0.537,0.322-0.859,0.859-0.966,1.396
						c-0.537,2.792,4.295,8.375,7.838,12.884c-2.899,3.651-4.402,8.267-4.402,12.992c0,0.107,0,0.215,0,0.322
						c0,0.107,0,0.215,0,0.322c0,2.792,0.537,5.476,1.503,7.945c1.074,2.577,2.469,4.832,4.402,6.764
						c-0.322,2.792-0.752,5.905-1.396,9.234H377.4c0,0-2.469,11.488-10.737,11.488c-2.147,0-5.154-0.107-8.375-0.322
						c-9.663-0.537-19.219,0.644-28.56,3.436c-3.221,0.966-6.657,0.966-9.663-1.181c-6.979-5.368-14.602-18.897-15.568-20.829
						c0.752-5.476,0.644-15.568-10.2-17.394c-12.777-2.147-12.025,13.421-4.724,23.299c-0.215,0.537-0.322,0.966-0.322,1.503
						c-0.644,8.267,6.872,23.621,8.804,25.554c1.933,1.933,1.933,14.065,15.139,17.286s22.655,4.509,23.299,20.4
						c0.644,15.998,13.206,32.533,6.872,51c-3.758,11.059-2.792,16.964-1.396,19.756c-0.107,0.429-0.215,0.752-0.322,1.181
						c-1.396,4.617-3.221,9.234-5.154,11.918c-0.429,0.644-0.859,1.288-1.288,2.04c-5.154,3.543-10.415,7.408-12.562,9.771
						c-4.402,5.154-2.469,25.554,0,33.821c2.469,8.267,18.253,58.623,18.253,58.623h0.644l0.215,1.288l0.644,4.187
						c-0.215-0.107-0.429-0.215-0.644-0.43c-0.107-0.107-0.215-0.107-0.429-0.215c-0.107,0-0.322,0-0.429,0
						s-0.322,0.107-0.429,0.215c-0.107,0.107-0.215,0.215-0.322,0.322l-3.114,7.194c0,0-12.562-5.691-13.206,7.623
						c0,0.537,0,1.074,0,1.503c0,7.086,3.651,9.771,6.872,10.737c2.899,0.859,5.691,2.147,8.16,3.973
						c3.006,2.255,7.623,4.617,12.884,3.328c1.074-0.215,2.147-0.322,3.221-0.322c2.255,0.107,6.12-0.644,6.013-5.905
						c0-0.43,0-0.859,0-1.288c0,0-2.684-10.737-2.792-15.676c0-0.537,0.107-0.966,0.215-1.503c0.429-0.859,0.644-2.577,0.537-4.402
						c0-1.611-0.107-3.221-0.215-4.832c0-0.107-0.107-0.322-0.215-0.429c-0.107-0.107-0.215-0.215-0.322-0.215s-0.322,0-0.429,0
						s-0.215,0.107-0.322,0.322l-0.107,0.107c-0.429-1.396-0.859-3.114-1.288-4.617l-0.322-1.288h0.859
						c0,0-5.046-31.352-3.114-33.821c1.181-1.718-0.752-21.581-2.255-35.217c15.354,1.074,39.726-1.825,56.476-2.684
						c3.221-0.215,6.335-1.074,9.126-2.684c-1.503,12.884-4.295,38.653-2.899,40.585c1.933,2.577-3.114,33.821-3.114,33.821h0.752
						l-0.322,0.966h0.107c-0.429,1.611-0.966,3.436-1.396,4.939l-0.107-0.107c-0.107-0.107-0.215-0.215-0.322-0.322
						s-0.322-0.107-0.429,0c-0.107,0-0.215,0.107-0.322,0.215c-0.107,0.107-0.107,0.215-0.215,0.429
						c-0.107,1.611-0.215,3.221-0.215,4.832c0,1.825,0.107,3.543,0.537,4.402c0.215,0.429,0.215,0.966,0.215,1.503
						c-0.107,4.939-2.792,15.676-2.792,15.676c0,0.429,0,0.859,0,1.288c-0.107,5.368,3.651,6.013,6.013,5.905
						c1.074,0,2.147,0.107,3.221,0.322c5.261,1.288,9.878-1.074,12.884-3.328c2.469-1.825,5.261-3.221,8.16-3.973
						c3.221-0.966,6.872-3.651,6.872-10.737c0-0.537,0-0.966,0-1.503c-0.644-13.421-13.206-7.623-13.206-7.623l-3.114-7.301
						c-0.107-0.107-0.107-0.322-0.322-0.322s-0.215-0.215-0.429-0.215c-0.107,0-0.322,0-0.429,0s-0.322,0.107-0.429,0.215
						c-0.215,0.107-0.429,0.322-0.644,0.43l0.859-5.476h0.644c0,0,15.676-50.356,18.253-58.623c2.469-8.267,4.402-28.667,0-33.821
						c-2.04-2.362-7.516-6.335-12.669-9.878c4.402,2.792,8.697,5.905,12.669,9.234L452.773,270.667z M425.608,277.109l-2.04-1.288
						c-0.429-0.752-0.966-1.503-1.503-2.04s-1.074-1.181-1.503-1.825c-1.181-3.865-5.798-20.078,0.322-28.453
						c4.402-6.12,4.724-17.823,4.402-25.554c3.006,15.354,7.194,37.042,7.516,41.552
						C433.232,264.976,427.863,273.673,425.608,277.109z"/>
					<path fill="#D1D1D1" d="M423.568,379.216l-2.362,16.32l-14.28-3.114c0,0,3.006-10.737,3.543-13.206
						c0.644-2.469,0.644,0,0.644,0H423.568L423.568,379.216z"/>
					<path fill="#D1D1D1" d="M359.147,392.423l-14.28,3.114l-1.611-11.274l-0.752-5.046h12.562c0,0,0-2.469,0.644,0
						c0.215,0.859,0.752,2.899,1.288,5.046C357.966,388.02,359.147,392.423,359.147,392.423z"/>
					<path opacity="0.1" enable-background="new    " d="M356.893,384.263H343.15l-0.752-5.046h12.562c0,0,0-2.469,0.644,0
						C355.819,380.075,356.356,382.115,356.893,384.263z"/>
					<path opacity="0.1" enable-background="new    " d="M409.181,383.94h13.743l0.752-5.046h-12.562c0,0,0-2.469-0.644,0
						C410.255,379.753,409.718,381.793,409.181,383.94z"/>
					<path fill="#D1D1D1" d="M437.312,181.229c0,0,7.731,0.644,9.556,30.171c0.644,11.059,2.04,22.118,4.08,32.962
						c1.825,9.126,0.966,18.575-2.362,27.164l-7.623,19.648c0,0-14.28-12.562-19.112-11.918c0,0,8.375-11.918,7.731-18.897
						c-0.644-6.872-10.093-56.583-10.093-56.583L437.312,181.229z"/>
					<path fill="#5F546F" d="M347.766,274.854c0,0-18.467,11.918-22.655,16.964c-4.187,5.046-2.362,25.124,0,33.284
						s17.286,57.872,17.286,57.872h14.924c0,0-4.724-30.815-3.006-33.284c1.825-2.469-3.543-47.135-3.543-47.135L347.766,274.854z"
						/>
					<path fill="#5F546F" d="M418.2,274.854c0,0,18.467,11.918,22.655,16.964c4.187,5.046,2.362,25.124,0,33.284
						s-17.286,57.872-17.286,57.872h-14.924c0,0,4.724-30.815,3.006-33.284c-1.825-2.469,3.543-47.135,3.543-47.135L418.2,274.854z"
						/>
					<path opacity="0.1" fill="#727483" enable-background="new    " d="M347.766,274.854c0,0-18.467,11.918-22.655,16.964
						c-4.187,5.046-2.362,25.124,0,33.284s17.286,57.872,17.286,57.872h14.924c0,0-4.724-30.815-3.006-33.284
						c1.825-2.469-3.543-47.135-3.543-47.135L347.766,274.854z"/>
					<path opacity="0.1" fill="#727483" enable-background="new    " d="M418.2,274.854c0,0,18.467,11.918,22.655,16.964
						c4.187,5.046,2.362,25.124,0,33.284s-17.286,57.872-17.286,57.872h-14.924c0,0,4.724-30.815,3.006-33.284
						c-1.825-2.469,3.543-47.135,3.543-47.135L418.2,274.854z"/>
					<path fill="#FFCED8" d="M379.44,115.841c0,0,0,24.48-8.375,37.042s38.223,1.933,38.223,1.933
						c-2.147-1.611-3.651-3.973-4.509-6.549c-2.469-9.234-3.436-25.446,0.322-32.318C410.469,105.856,379.44,115.841,379.44,115.841
						z"/>
					<path opacity="0.1" enable-background="new    " d="M392.861,132.484c10.844,0,19.648-9.234,19.648-20.722
						s-8.804-20.722-19.648-20.722c-10.844,0-19.648,9.234-19.648,20.722S382.017,132.484,392.861,132.484z"/>
					<path fill="#FFCED8" d="M392.861,131.947c10.844,0,19.648-9.234,19.648-20.722s-8.804-20.722-19.648-20.722
						c-10.844,0-19.648,9.234-19.648,20.722C373.213,122.606,382.017,131.947,392.861,131.947z"/>
					<path fill="#5F546F" d="M406.926,325.103c-21.366,0.966-56.798,5.154-62.166-1.074c-8.697-9.985-5.583-19.004-1.074-24.48
						c1.718-2.147,3.328-5.798,4.617-9.341c0.429-1.181,0.859-2.469,1.181-3.543c1.396-4.509,6.013-7.623,11.166-7.623h43.055
						c5.261,0,9.771,3.114,11.166,7.623c0.644,2.147,1.503,4.08,2.792,5.905c0.644,0.966,1.396,1.825,2.147,2.469
						c2.147,1.933,3.543,6.12,4.509,10.737C426.145,315.439,417.985,324.566,406.926,325.103z"/>
					<path opacity="0.1" fill="#727483" enable-background="new    " d="M406.926,325.103c-21.366,0.966-56.798,5.154-62.166-1.074
						c-8.697-9.985-5.583-19.004-1.074-24.48c1.718-2.147,3.328-5.798,4.617-9.341c0.429-1.181,0.859-2.469,1.181-3.543
						c1.396-4.509,6.013-7.623,11.166-7.623h43.055c5.261,0,9.771,3.114,11.166,7.623c0.644,2.147,1.503,4.08,2.792,5.905
						c0.644,0.966,1.396,1.825,2.147,2.469c2.147,1.933,3.543,6.12,4.509,10.737C426.145,315.439,417.985,324.566,406.926,325.103z"
						/>
					<path opacity="0.1" enable-background="new    " d="M351.846,391.027c-1.825-0.43-6.764-1.503-8.589-3.006
						c-0.107-0.107-0.215-0.107-0.429-0.215c-0.107,0-0.322,0-0.429,0s-0.215,0.107-0.322,0.215
						c-0.107,0.107-0.215,0.215-0.215,0.322l-2.899,7.194c0,0-11.918-5.69-12.562,7.516c-0.322,7.731,3.328,10.522,6.549,11.488
						c2.792,0.859,5.476,2.147,7.838,3.973c2.899,2.255,7.194,4.51,12.24,3.328c0.966-0.215,2.04-0.322,3.114-0.322
						c2.255,0.107,6.013-0.644,5.691-6.442c0,0-3.543-15.032-2.362-17.608c0.752-1.61,0.537-5.69,0.322-8.482
						c0-0.107-0.107-0.322-0.107-0.322c-0.107-0.107-0.215-0.215-0.322-0.215s-0.215,0-0.429,0c-0.107,0-0.215,0.107-0.322,0.215
						c-0.537,0.752-1.181,1.503-1.933,1.933c-0.859,0.429-1.718,0.644-2.577,0.644C353.027,391.134,352.491,391.134,351.846,391.027
						z"/>
					<path fill="#494450" d="M351.846,391.671c-1.825-0.43-6.764-1.503-8.589-3.006c-0.107-0.107-0.215-0.107-0.429-0.215
						c-0.107,0-0.322,0-0.429,0s-0.215,0.107-0.322,0.215c-0.107,0.107-0.215,0.215-0.215,0.322l-2.899,7.194
						c0,0-11.918-5.69-12.562,7.516c-0.322,7.731,3.328,10.522,6.549,11.488c2.792,0.859,5.476,2.147,7.838,3.973
						c2.899,2.255,7.194,4.51,12.24,3.328c0.966-0.215,2.04-0.322,3.114-0.322c2.255,0.107,6.013-0.644,5.691-6.442
						c0,0-3.543-15.032-2.362-17.608c0.752-1.611,0.537-5.69,0.322-8.482c0-0.107-0.107-0.322-0.107-0.322
						c-0.107-0.107-0.215-0.215-0.322-0.215s-0.215,0-0.429,0c-0.107,0-0.215,0.107-0.322,0.215
						c-0.537,0.752-1.181,1.503-1.933,1.933c-0.859,0.43-1.718,0.644-2.577,0.644C353.027,391.778,352.491,391.778,351.846,391.671z
						"/>
					<path opacity="0.1" enable-background="new    " d="M414.227,391.027c1.825-0.43,6.764-1.503,8.589-3.006
						c0.107-0.107,0.215-0.107,0.429-0.215c0.107,0,0.322,0,0.429,0s0.215,0.107,0.322,0.215c0.107,0.107,0.215,0.215,0.215,0.322
						l2.899,7.194c0,0,11.918-5.69,12.562,7.516c0.322,7.731-3.328,10.522-6.549,11.488c-2.792,0.859-5.368,2.147-7.731,3.973
						c-2.899,2.255-7.194,4.51-12.24,3.328c-0.966-0.215-2.04-0.322-3.114-0.322c-2.255,0.107-6.013-0.644-5.691-6.442
						c0,0,3.543-15.032,2.362-17.608c-0.752-1.61-0.537-5.69-0.322-8.482c0-0.107,0.107-0.322,0.107-0.322
						c0.107-0.107,0.215-0.215,0.322-0.215s0.215,0,0.429,0c0.107,0,0.215,0.107,0.322,0.215c0.537,0.752,1.181,1.503,1.933,1.933
						c0.859,0.429,1.718,0.644,2.577,0.644C412.939,391.134,413.583,391.134,414.227,391.027z"/>
					<path fill="#494450" d="M414.227,391.671c1.825-0.43,6.764-1.503,8.589-3.006c0.107-0.107,0.215-0.107,0.429-0.215
						c0.107,0,0.322,0,0.429,0s0.215,0.107,0.322,0.215c0.107,0.107,0.215,0.215,0.215,0.322l2.899,7.194
						c0,0,11.918-5.69,12.562,7.516c0.322,7.731-3.328,10.522-6.549,11.488c-2.792,0.859-5.368,2.147-7.731,3.973
						c-2.899,2.255-7.194,4.51-12.24,3.328c-0.966-0.215-2.04-0.322-3.114-0.322c-2.255,0.107-6.013-0.644-5.691-6.442
						c0,0,3.543-15.032,2.362-17.608c-0.752-1.611-0.537-5.69-0.322-8.482c0-0.107,0.107-0.322,0.107-0.322
						c0.107-0.107,0.215-0.215,0.322-0.215s0.215,0,0.429,0c0.107,0,0.215,0.107,0.322,0.215c0.537,0.752,1.181,1.503,1.933,1.933
						c0.859,0.43,1.718,0.644,2.577,0.644C412.939,391.778,413.583,391.778,414.227,391.671z"/>
					<path fill="#FFCED8" d="M307.288,131.625c0,0,5.368-18.253-8.912-20.722s-10.737,19.434,0,27.701
						C309.006,146.656,307.288,131.625,307.288,131.625z"/>
					<path opacity="0.1" enable-background="new    " d="M418.2,275.498c-16.749,28.882-72.796-3.758-72.796-3.758
						s-1.288-0.752-2.255-3.221c0.429-1.503,0.859-3.006,1.288-4.509c0.752-2.792,2.255-5.154,4.402-6.872
						c2.147-1.718,4.724-2.684,7.516-2.684h45.954c2.684,0,5.368,0.966,7.516,2.684c2.147,1.718,3.651,4.187,4.402,6.872
						c0.644,2.577,1.611,5.046,2.899,7.408C417.663,273.888,418.2,275.498,418.2,275.498z"/>
					<path fill="#D1D1D1" d="M380.621,135.383h-3.543c0,0-2.362,11.274-10.093,11.274c-2.04,0-4.939-0.107-7.945-0.322
						c-9.126-0.537-18.253,0.644-27.057,3.436c-3.006,0.966-6.335,0.966-9.126-1.181c-7.194-5.691-14.924-20.722-14.924-20.722
						s-13.743-0.644-14.28,7.516s6.549,23.299,8.375,25.124c1.825,1.933,1.825,13.851,14.28,16.964
						c12.562,3.114,21.474,4.402,22.118,20.078s12.562,32.103,6.549,50.248c-6.013,18.253,0.644,22.011,0.644,22.011
						s56.046,32.64,72.796,3.758c0,0-6.549-19.434,0-28.882s3.543-32.64,3.543-32.64l21.474-22.655c0,0,0.644-14.495-8.375-22.011
						c-8.912-7.516-29.848-19.434-29.848-19.434l2.04-9.341L380.621,135.383z"/>
					<path opacity="0.1" enable-background="new    " d="M381.265,117.559c-0.429,5.905-0.322,12.669,3.865,16.642
						c2.04,1.933,4.724,3.006,7.408,3.651c2.792,0.752,5.69,1.181,8.589,1.288c2.684,0.107,5.476,0,7.731-1.503
						c4.509-3.114,4.402-9.985,6.227-15.354c1.288-3.758,3.758-7.086,5.476-10.737c3.114-6.549,3.865-14.602,0.966-21.259
						s-9.878-11.488-16.857-10.629c-2.255,0.322-4.402,0.966-6.549,1.933c-5.046,1.933-9.019-3.543-13.958-1.611
						c-2.792,1.074-13.636,2.255-14.28,5.691c-0.752,4.08,9.771,14.28,10.952,17.823
						C382.232,108.218,381.265,112.835,381.265,117.559z"/>
					<path fill="#AE767A" d="M381.909,116.915c-0.429,5.905-0.322,12.669,3.865,16.642c2.04,1.933,4.724,3.006,7.408,3.651
						c2.792,0.752,5.691,1.181,8.589,1.288c2.684,0.107,5.476,0,7.731-1.503c4.509-3.114,4.402-9.985,6.227-15.354
						c1.288-3.758,3.758-7.086,5.476-10.737c3.114-6.549,3.865-14.602,0.966-21.259s-9.878-11.488-16.857-10.629
						c-2.255,0.322-4.402,0.966-6.549,1.933c-5.046,1.933-9.019-3.543-13.958-1.611c-2.792,1.074-13.636,2.255-14.28,5.691
						c-0.752,4.08,9.771,14.28,10.952,17.823C382.876,107.574,381.909,112.191,381.909,116.915z"/>
					<path opacity="0.1" enable-background="new    " d="M373.213,143.543c0,0,3.543,1.611,13.743,4.724
						c10.093,3.114,17.931,0,17.931,0"/>
					<path opacity="0.1" enable-background="new    " d="M346.371,233.303c0,0,16.749,0.966,22.118,8.589
						c5.368,7.516,7.194,10.093,13.743,10.093s27.486,1.288,30.385,2.469"/>
					<path fill="#7B7B7B" d="M391.251,423.774h-9.985v12.025h9.985V423.774z"/>
					<path fill="#7B7B7B" d="M452.128,271.526h-8.375v65.173h8.375V271.526z"/>
					<path fill="#7B7B7B" d="M448.263,335.947h-17.072v2.255h17.072V335.947z"/>
					<path fill="#7B7B7B" d="M329.299,275.928h-7.838v60.771h7.838V275.928z"/>
					<path fill="#7B7B7B" d="M340.036,335.947h-17.072v2.255h17.072V335.947z"/>
					<path fill="#7B7B7B" d="M395.545,339.705h-16.427v73.547h16.427V339.705z"/>
					<path fill="#C7C7C7" d="M387.707,313.399c44.128,1.611,45.632-16.213,45.632-16.213l-2.899-49.389
						c-0.752-76.983-42.733-65.602-42.733-65.602s-42.088-11.274-42.733,65.602l-2.899,49.389
						C342.076,297.187,343.579,315.01,387.707,313.399z"/>
					<path opacity="0.1" fill="#BBBBBF" enable-background="new    " d="M387.707,313.399c44.128,1.611,45.632-16.213,45.632-16.213
						l-2.899-49.389c-0.752-76.983-42.733-65.602-42.733-65.602s-42.088-11.274-42.733,65.602l-2.899,49.389
						C342.076,297.187,343.579,315.01,387.707,313.399z"/>
					<path fill="#7B7B7B" d="M386.526,310.286c42.088,1.503,43.484-15.461,43.484-15.461l-2.684-47.135
						c-0.644-73.333-40.8-62.488-40.8-62.488s-40.048-10.844-40.693,62.488l-2.684,47.135
						C343.042,294.825,344.438,311.789,386.526,310.286z"/>
					<path fill="#7B7B7B" d="M388.137,290.208h-2.899c-4.08,0-7.408,3.543-7.408,7.838v16.535c0,4.295,3.328,7.838,7.408,7.838
						h2.899c4.08,0,7.408-3.543,7.408-7.838v-16.535C395.545,293.751,392.217,290.208,388.137,290.208z"/>
					<path opacity="0.1" enable-background="new    " d="M395.545,410.675v2.577h-16.32v-2.577l1.396-0.429h13.528L395.545,410.675z
						"/>
					<path fill="#7B7B7B" d="M320.71,435.799c0,0-7.086-6.013,59.912-24.802h13.528c0,0,57.657,15.032,58.408,24.802h-8.589
						c0,0-31.352-9.771-45.632-9.771s-57.013,1.503-69.789,9.771H320.71z"/>
					<path fill="#7B7B7B" d="M323.501,266.909h3.006c2.04,0,4.08,0.859,5.476,2.362c1.503,1.503,2.255,3.651,2.255,5.798v3.865
						h-18.575v-3.865c0-2.147,0.859-4.295,2.255-5.798C319.528,267.768,321.461,266.909,323.501,266.909z"/>
					<path fill="#7B7B7B" d="M446.008,266.909h3.006c2.04,0,4.08,0.859,5.476,2.362c1.503,1.503,2.255,3.651,2.255,5.798v3.865
						H438.17v-3.865c0-2.147,0.859-4.295,2.255-5.798C442.036,267.768,443.968,266.909,446.008,266.909z"/>
					<path fill="#5A5773" d="M324.36,446.321c2.792,0,4.939-2.362,4.939-5.261s-2.255-5.261-4.939-5.261
						c-2.792,0-4.939,2.362-4.939,5.261C319.314,443.959,321.568,446.321,324.36,446.321z"/>
					<path fill="#5A5773" d="M386.312,446.321c2.792,0,4.939-2.362,4.939-5.261s-2.255-5.261-4.939-5.261
						c-2.792,0-4.939,2.362-4.939,5.261C381.265,443.959,383.52,446.321,386.312,446.321z"/>
					<path fill="#5A5773" d="M449.015,446.321c2.792,0,4.939-2.362,4.939-5.261s-2.255-5.261-4.939-5.261
						c-2.792,0-4.939,2.362-4.939,5.261C443.968,443.959,446.223,446.321,449.015,446.321z"/>
					<path opacity="0.1" enable-background="new    " d="M395.545,339.705h-16.427v3.006h16.427V339.705z"/>
					<path fill="#C7C7C7" d="M387.707,341.208h47.779l3.543-7.516c2.147-12.777-5.691-13.528-5.691-13.528h-91.263
						c0,0-7.838,0.752-5.691,13.528l3.543,7.516H387.707z"/>
					<path opacity="0.1" fill="#BBBBBF" enable-background="new    " d="M387.707,341.208h47.779l3.543-7.516
						c2.147-12.777-5.691-13.528-5.691-13.528h-91.263c0,0-7.838,0.752-5.691,13.528l3.543,7.516H387.707z"/>
					<path fill="#7B7B7B" d="M387.707,341.208h47.779l3.543-6.442c2.147-10.952-5.691-11.596-5.691-11.596h-91.263
						c0,0-7.838,0.644-5.691,11.596l3.543,6.442H387.707z"/>
					<path fill="#37B079" d="M483.802,191.858c0,0-5.476-1.933-8.053,3.114c-0.644,1.396-1.074,2.899-1.074,4.402
						c0,1.503,0.429,3.114,1.181,4.402c1.718,3.328,5.261,7.516,12.025,7.194c5.69-0.322,7.623-4.939,8.16-9.126
						c0.215-1.611,0-3.221-0.537-4.724s-1.503-2.792-2.684-3.758s-2.577-1.718-4.08-1.933c-1.503-0.322-3.006-0.107-4.509,0.429
						H483.802z"/>
					<path opacity="0.1" fill="#FFFFFF" enable-background="new    " d="M477.038,204.313c-0.752-1.396-1.074-2.899-1.181-4.402
						c0-1.503,0.322-3.114,1.074-4.402c2.577-5.046,8.053-3.114,8.053-3.114l0.322-0.107c2.04-0.752,4.402-0.752,6.442,0.107
						c-1.074-0.752-2.362-1.181-3.651-1.288c-1.288-0.107-2.577,0-3.865,0.537l-0.322,0.107c0,0-5.476-1.933-8.053,3.114
						c-0.644,1.396-1.074,2.899-1.074,4.402s0.429,3.114,1.181,4.402c1.396,2.684,3.543,4.832,6.12,6.12
						C479.937,208.608,478.219,206.675,477.038,204.313z"/>
					<path opacity="0.2" enable-background="new    " d="M481.011,194.328c0,0,2.04,1.718,6.979,0H481.011z"/>
					<path fill="#C7C7C7" d="M480.581,182.195c0,0,3.436,9.878,3.221,12.455l2.684-0.322c0,0-4.617-8.697-3.436-12.133H480.581z"/>
					<path opacity="0.2" enable-background="new    " d="M480.581,182.195c0,0,3.436,9.878,3.221,12.455l2.684-0.322
						c0,0-4.617-8.697-3.436-12.133H480.581z"/>
					<path fill="#C7C7C7" d="M494.754,183.054c0,0-5.476-2.899-7.838-0.537c-2.469,2.469-2.792,8.589-2.792,8.589
						S492.928,192.395,494.754,183.054z"/>
					<path opacity="0.1" fill="#FFFFFF" enable-background="new    " d="M494.754,183.054c0,0-5.476-2.899-7.838-0.537
						c-2.469,2.469-2.792,8.589-2.792,8.589S492.928,192.395,494.754,183.054z"/>
					<path fill="none" stroke="#C7C7C7" stroke-miterlimit="10" d="M484.017,191.107c0,0,1.396-7.194,10.737-8.16"/>
				</g>
			</g>
		</g>
	</g>
</g>
</svg>
