<?xml version="1.0" encoding="utf-8"?>
<!-- Generator: Adobe Illustrator 17.0.0, SVG Export Plug-In . SVG Version: 6.00 Build 0)  -->
<!DOCTYPE svg PUBLIC "-//W3C//DTD SVG 1.1//EN" "http://www.w3.org/Graphics/SVG/1.1/DTD/svg11.dtd">
<svg version="1.1" id="Слой_1" xmlns="http://www.w3.org/2000/svg" xmlns:xlink="http://www.w3.org/1999/xlink" x="0px" y="0px"
	 width="671.167px" height="430.092px" viewBox="0 0 671.167 430.092" enable-background="new 0 0 671.167 430.092"
	 xml:space="preserve">
<g>
	<g>
		<g>
			<path fill="#3F3D56" d="M507.555,173.208c1.999-4.156,1.428-8.95-1.346-10.708c-2.734-1.758-6.569,0.16-8.568,4.315
				c-1.999,4.156-1.428,8.95,1.306,10.708C501.681,179.281,505.515,177.364,507.555,173.208z"/>
			<path fill="#3F3D56" d="M511.962,164.018c1.999-4.156,1.428-8.95-1.306-10.708c-2.734-1.758-6.569,0.16-8.609,4.315
				c-1.999,4.156-1.428,8.95,1.346,10.708C506.127,170.092,509.962,168.174,511.962,164.018z"/>
			<path fill="#3F3D56" d="M516.409,154.828c1.999-4.156,1.428-8.95-1.346-10.708c-2.734-1.758-6.569,0.16-8.609,4.315
				c-1.999,4.156-1.428,8.95,1.346,10.708C510.574,160.902,514.41,158.984,516.409,154.828z"/>
			<path fill="#3F3D56" d="M520.856,145.638c1.999-4.156,1.428-8.95-1.346-10.708c-2.734-1.758-6.569,0.16-8.609,4.315
				c-1.999,4.156-1.428,8.95,1.346,10.708C514.981,151.711,518.857,149.794,520.856,145.638z"/>
			<path fill="#3F3D56" d="M525.262,136.448c1.999-4.156,1.428-8.95-1.346-10.708c-2.734-1.758-6.569,0.16-8.609,4.315
				c-1.999,4.156-1.428,8.95,1.306,10.708C519.428,142.561,523.263,140.603,525.262,136.448z"/>
			<path fill="#3F3D56" d="M529.71,127.258c1.999-4.156,1.428-8.95-1.306-10.708s-6.569,0.16-8.609,4.315
				c-1.999,4.156-1.428,8.95,1.346,10.708C523.875,133.371,527.71,131.413,529.71,127.258z"/>
			<path fill="#D0D2D5" d="M387.277,430.051l-103.265-1.518l0.286-3.077l4.978-50.546h90.698l6.691,50.546l0.49,3.836
				L387.277,430.051z"/>
			<path opacity="0.1" enable-background="new    " d="M387.195,429.292h-51.53l-51.653-0.759l0.286-3.077h102.367L387.195,429.292z
				"/>
			<path fill="#D0D2D5" d="M403.842,426.256H266.794v3.836h137.047v-3.836H403.842z"/>
			<path fill="#454554" d="M534.565,71.238c0-2.637-0.898-5.194-2.489-7.072s-3.794-2.957-6.079-2.957H143.293
				c-1.142,0-2.244,0.28-3.305,0.759c-1.061,0.519-1.999,1.239-2.774,2.198c-0.816,0.919-1.428,2.038-1.836,3.237
				c-0.408,1.199-0.653,2.517-0.653,3.836V339.67h399.84V71.238L534.565,71.238z"/>
			<path fill="#D0D2D5" d="M134.725,336.992v31.446c0,1.319,0.204,2.597,0.653,3.796c0.449,1.199,1.061,2.318,1.877,3.237
				s1.754,1.678,2.774,2.158c1.02,0.479,2.162,0.759,3.305,0.759h382.704c2.285,0,4.447-1.039,6.079-2.917
				c1.591-1.878,2.53-4.395,2.53-7.032v-31.486H134.725V336.992z"/>
			<path opacity="0.1" fill="#C7C7C7" enable-background="new    " d="M519.999,78.071h-368.71v241.3h368.75v-241.3H519.999
				L519.999,78.071z"/>
			<path fill="#C7C7C7" d="M336.644,366.44c1.346,0,2.693-0.36,3.917-1.039s2.285-1.678,3.142-2.917
				c0.245-0.36,0.49-0.759,0.694-1.199l-4.896-0.919l5.304,0.04c0.53-1.279,0.775-2.677,0.816-4.076
				c0.041-1.398-0.204-2.797-0.653-4.116l-7.099,4.275l6.569-5.594c-0.612-1.239-1.428-2.357-2.407-3.197
				c-0.979-0.879-2.122-1.478-3.305-1.798c-1.183-0.32-2.448-0.36-3.672-0.12s-2.366,0.799-3.386,1.598s-1.877,1.838-2.57,3.037
				c-0.653,1.199-1.102,2.557-1.265,3.996c-0.204,1.398-0.122,2.877,0.204,4.235c0.326,1.398,0.898,2.677,1.673,3.796
				c0.816,1.239,1.918,2.238,3.101,2.917C333.951,366.08,335.298,366.44,336.644,366.44z"/>
			<path opacity="0.1" enable-background="new    " d="M345.579,378.347l41.208,47.868l-6.324-47.868H345.579z"/>
			<path fill="#FFFFFF" d="M446.192,110.915H161.571v174.931h284.662V110.915H446.192z"/>
			<path opacity="0.1" fill="#C7C7C7" enable-background="new    " d="M256.839,156.506h-79.397v4.755h79.397V156.506z"/>
			<path opacity="0.1" fill="#C7C7C7" enable-background="new    " d="M192.13,131.333h-7.63v25.173h7.63V131.333z"/>
			<path opacity="0.1" fill="#C7C7C7" enable-background="new    " d="M203.31,131.333h-7.63v25.173h7.63V131.333z"/>
			<path opacity="0.1" fill="#C7C7C7" enable-background="new    " d="M214.489,131.333h-7.63v25.173h7.63V131.333z"/>
			<path opacity="0.1" fill="#C7C7C7" enable-background="new    " d="M225.668,131.333h-7.63v25.173h7.63V131.333z"/>
			<path opacity="0.1" fill="#C7C7C7" enable-background="new    " d="M236.847,131.333h-7.63v25.173h7.63V131.333z"/>
			<path opacity="0.1" fill="#C7C7C7" enable-background="new    " d="M248.026,131.333h-7.63v25.173h7.63V131.333z"/>
			<path opacity="0.1" fill="#C7C7C7" enable-background="new    " d="M192.13,136.088h-7.63v2.717h7.63V136.088z"/>
			<path opacity="0.1" fill="#C7C7C7" enable-background="new    " d="M203.31,136.088h-7.63v2.717h7.63V136.088z"/>
			<path opacity="0.1" fill="#C7C7C7" enable-background="new    " d="M214.489,136.088h-7.63v2.717h7.63V136.088z"/>
			<path opacity="0.1" fill="#C7C7C7" enable-background="new    " d="M225.668,136.088h-7.63v2.717h7.63V136.088z"/>
			<path opacity="0.1" fill="#C7C7C7" enable-background="new    " d="M236.847,136.088h-7.63v2.717h7.63V136.088z"/>
			<path opacity="0.1" fill="#C7C7C7" enable-background="new    " d="M248.026,136.088h-7.63v2.717h7.63V136.088z"/>
			<path opacity="0.1" fill="#C7C7C7" enable-background="new    " d="M192.13,148.355h-7.63v2.717h7.63V148.355z"/>
			<path opacity="0.1" fill="#C7C7C7" enable-background="new    " d="M203.31,148.355h-7.63v2.717h7.63V148.355z"/>
			<path opacity="0.1" fill="#C7C7C7" enable-background="new    " d="M214.489,148.355h-7.63v2.717h7.63V148.355z"/>
			<path opacity="0.1" fill="#C7C7C7" enable-background="new    " d="M225.668,148.355h-7.63v2.717h7.63V148.355z"/>
			<path opacity="0.1" fill="#C7C7C7" enable-background="new    " d="M236.847,148.355h-7.63v2.717h7.63V148.355z"/>
			<path opacity="0.1" fill="#C7C7C7" enable-background="new    " d="M248.026,148.355h-7.63v2.717h7.63V148.355z"/>
			<path opacity="0.1" fill="#C7C7C7" enable-background="new    " d="M430.933,168.773h-79.397v4.755h79.397V168.773z"/>
			<path opacity="0.1" fill="#C7C7C7" enable-background="new    " d="M366.224,143.6h-7.63v25.173h7.63V143.6z"/>
			<path opacity="0.1" fill="#C7C7C7" enable-background="new    " d="M377.403,143.6h-7.63v25.173h7.63V143.6z"/>
			<path opacity="0.1" fill="#C7C7C7" enable-background="new    " d="M388.582,143.6h-7.67v25.173h7.63V143.6H388.582z"/>
			<path opacity="0.1" fill="#C7C7C7" enable-background="new    " d="M399.762,143.6h-7.63v25.173h7.63V143.6z"/>
			<path opacity="0.1" fill="#C7C7C7" enable-background="new    " d="M410.941,143.6h-7.63v25.173h7.63V143.6z"/>
			<path opacity="0.1" fill="#C7C7C7" enable-background="new    " d="M422.079,143.6h-7.63v25.173h7.63V143.6z"/>
			<path opacity="0.1" fill="#C7C7C7" enable-background="new    " d="M366.224,148.355h-7.63v2.717h7.63V148.355z"/>
			<path opacity="0.1" fill="#C7C7C7" enable-background="new    " d="M377.403,148.355h-7.63v2.717h7.63V148.355z"/>
			<path opacity="0.1" fill="#C7C7C7" enable-background="new    " d="M388.582,148.355h-7.67v2.717h7.63v-2.717H388.582z"/>
			<path opacity="0.1" fill="#C7C7C7" enable-background="new    " d="M399.762,148.355h-7.63v2.717h7.63V148.355z"/>
			<path opacity="0.1" fill="#C7C7C7" enable-background="new    " d="M410.941,148.355h-7.63v2.717h7.63V148.355z"/>
			<path opacity="0.1" fill="#C7C7C7" enable-background="new    " d="M422.079,148.355h-7.63v2.717h7.63V148.355z"/>
			<path opacity="0.1" fill="#C7C7C7" enable-background="new    " d="M366.224,160.582h-7.63v2.717h7.63V160.582z"/>
			<path opacity="0.1" fill="#C7C7C7" enable-background="new    " d="M377.403,160.582h-7.63v2.717h7.63V160.582z"/>
			<path opacity="0.1" fill="#C7C7C7" enable-background="new    " d="M388.582,160.582h-7.67v2.717h7.63v-2.717H388.582z"/>
			<path opacity="0.1" fill="#C7C7C7" enable-background="new    " d="M399.762,160.582h-7.63v2.717h7.63V160.582z"/>
			<path opacity="0.1" fill="#C7C7C7" enable-background="new    " d="M410.941,160.582h-7.63v2.717h7.63V160.582z"/>
			<path opacity="0.1" fill="#C7C7C7" enable-background="new    " d="M422.079,160.582h-7.63v2.717h7.63V160.582z"/>
			<path opacity="0.1" fill="#C7C7C7" enable-background="new    " d="M430.933,203.496h-79.397v4.755h79.397V203.496z"/>
			<path opacity="0.1" fill="#C7C7C7" enable-background="new    " d="M366.224,178.283h-7.63v25.173h7.63V178.283z"/>
			<path opacity="0.1" fill="#C7C7C7" enable-background="new    " d="M377.403,178.283h-7.63v25.173h7.63V178.283z"/>
			<path opacity="0.1" fill="#C7C7C7" enable-background="new    " d="M388.582,178.283h-7.67v25.173h7.63v-25.173H388.582z"/>
			<path opacity="0.1" fill="#C7C7C7" enable-background="new    " d="M399.762,178.283h-7.63v25.173h7.63V178.283z"/>
			<path opacity="0.1" fill="#C7C7C7" enable-background="new    " d="M410.941,178.283h-7.63v25.173h7.63V178.283z"/>
			<path opacity="0.1" fill="#C7C7C7" enable-background="new    " d="M422.079,178.283h-7.63v25.173h7.63V178.283z"/>
			<path opacity="0.1" fill="#C7C7C7" enable-background="new    " d="M366.224,183.038h-7.63v2.717h7.63V183.038z"/>
			<path opacity="0.1" fill="#C7C7C7" enable-background="new    " d="M377.403,183.038h-7.63v2.717h7.63V183.038z"/>
			<path opacity="0.1" fill="#C7C7C7" enable-background="new    " d="M388.582,183.038h-7.67v2.717h7.63v-2.717H388.582z"/>
			<path opacity="0.1" fill="#C7C7C7" enable-background="new    " d="M399.762,183.038h-7.63v2.717h7.63V183.038z"/>
			<path opacity="0.1" fill="#C7C7C7" enable-background="new    " d="M410.941,183.038h-7.63v2.717h7.63V183.038z"/>
			<path opacity="0.1" fill="#C7C7C7" enable-background="new    " d="M422.079,183.038h-7.63v2.717h7.63V183.038z"/>
			<path opacity="0.1" fill="#C7C7C7" enable-background="new    " d="M366.224,195.304h-7.63v2.717h7.63V195.304z"/>
			<path opacity="0.1" fill="#C7C7C7" enable-background="new    " d="M377.403,195.304h-7.63v2.717h7.63V195.304z"/>
			<path opacity="0.1" fill="#C7C7C7" enable-background="new    " d="M388.582,195.304h-7.67v2.717h7.63v-2.717H388.582z"/>
			<path opacity="0.1" fill="#C7C7C7" enable-background="new    " d="M399.762,195.304h-7.63v2.717h7.63V195.304z"/>
			<path opacity="0.1" fill="#C7C7C7" enable-background="new    " d="M410.941,195.304h-7.63v2.717h7.63V195.304z"/>
			<path opacity="0.1" fill="#C7C7C7" enable-background="new    " d="M422.079,195.304h-7.63v2.717h7.63V195.304z"/>
			<path opacity="0.1" fill="#C7C7C7" enable-background="new    " d="M226.117,210.368c-0.612-0.879-1.142-1.798-1.632-2.757
				l11.424-2.158l-12.403,0.12c-1.183-2.997-1.836-6.233-1.918-9.51c-0.082-3.276,0.449-6.553,1.51-9.59l16.606,9.949l-15.3-13.026
				c1.428-2.877,3.346-5.354,5.671-7.352c2.285-1.958,4.937-3.356,7.711-4.116c2.774-0.759,5.671-0.799,8.486-0.2
				c2.815,0.599,5.508,1.878,7.874,3.756c2.366,1.878,4.406,4.275,5.916,7.072c1.55,2.797,2.57,5.954,2.978,9.23
				c0.449,3.276,0.286,6.633-0.449,9.829c-0.735,3.196-1.999,6.193-3.794,8.791c0.938,1.359,1.714,2.837,2.407,4.395l-14.81,8.91
				l15.83-6.113c1.102,3.796,1.387,7.872,0.816,11.827s-1.999,7.672-4.162,10.828c2.407,3.556,3.917,7.832,4.325,12.347
				c0.408,4.515-0.245,9.03-1.958,13.106c-1.713,4.076-4.366,7.512-7.67,9.909c-3.305,2.397-7.14,3.676-11.057,3.676
				s-7.752-1.279-11.057-3.676c-3.305-2.397-5.998-5.834-7.67-9.909c-1.714-4.076-2.407-8.631-1.958-13.106
				c0.408-4.515,1.918-8.791,4.325-12.347c-2.897-4.235-4.447-9.51-4.447-14.904C221.67,219.878,223.261,214.604,226.117,210.368
				L226.117,210.368z"/>
			<path opacity="0.1" fill="#C7C7C7" enable-background="new    " d="M263.326,225.272c0,5.394-1.55,10.668-4.447,14.904
				c2.407,3.556,3.917,7.832,4.325,12.347s-0.245,9.03-1.958,13.106c-1.714,4.076-4.366,7.512-7.67,9.909
				c-3.305,2.397-7.14,3.676-11.057,3.676s-7.752-1.279-11.057-3.676c-3.305-2.397-5.998-5.834-7.67-9.909
				c-1.714-4.076-2.407-8.631-1.958-13.106c0.408-4.515,1.918-8.791,4.325-12.347C223.342,236.101,263.326,222.555,263.326,225.272z
				"/>
			<path opacity="0.1" fill="#C7C7C7" enable-background="new    " d="M245.864,285.647c0.041,0.08,0.082,0.12,0.082,0.2h-7.058
				c0.041-0.08,0.082-0.12,0.082-0.2c-0.612-1.239-0.938-2.637-0.898-4.036c0-0.959,0.163-1.918,0.449-2.837
				c0.408,0.08,0.898,0.16,1.428,0.24c1.632,0.2,3.305,0.2,4.937,0c0.449-0.04,0.979-0.12,1.469-0.24v0.04
				c0.286,0.879,0.408,1.838,0.408,2.797C246.762,283.01,246.435,284.408,245.864,285.647z"/>
			<path opacity="0.1" fill="#C7C7C7" enable-background="new    " d="M220.405,285.847h-39.331
				c-0.082-0.28-0.163-0.559-0.245-0.799c-1.387-5.154-1.224-10.708,0.449-15.743c-3.835-3.077-6.691-7.552-8.078-12.706
				c-1.387-5.154-1.224-10.708,0.449-15.783c-0.775-0.639-1.55-1.319-2.244-2.078l10.363-5.994l-11.791,4.315
				c-1.877-2.437-3.346-5.314-4.243-8.431c-0.898-3.117-1.265-6.433-1.02-9.71l18.401,3.836l-17.952-7.192
				c0.653-3.237,1.836-6.273,3.55-8.95s3.835-4.915,6.324-6.553c2.489-1.678,5.222-2.717,8.078-3.117
				c2.856-0.4,5.712-0.08,8.486,0.879c2.734,0.959,5.263,2.557,7.466,4.715c2.162,2.158,3.958,4.795,5.222,7.792
				c1.265,2.997,1.958,6.233,2.081,9.55c0.122,3.316-0.367,6.633-1.387,9.71c1.224,0.999,2.366,2.118,3.386,3.396l-11.914,13.585
				l13.546-11.268c2.04,3.237,3.346,7.032,3.794,11.028c0.448,3.996,0.041,8.031-1.224,11.787c3.754,2.997,6.569,7.352,7.956,12.347
				C221.955,275.458,221.914,280.852,220.405,285.847z"/>
			<path opacity="0.1" fill="#C7C7C7" enable-background="new    " d="M220.405,285.847h-39.331
				c-0.082-0.28-0.163-0.519-0.245-0.799c-1.387-5.154-1.224-10.708,0.449-15.743c-3.713-2.957,31.049-29.528,31.783-26.971
				c1.387,5.154,1.224,10.708-0.449,15.783c3.754,2.997,6.528,7.352,7.956,12.347C221.955,275.458,221.914,280.852,220.405,285.847z
				"/>
			<path opacity="0.1" fill="#C7C7C7" enable-background="new    " d="M398.619,253.162c-2.407,4.635-6.079,8.231-10.445,10.149
				c0.204,1.718,0.204,3.476,0.082,5.194l-16.687-1.159l16.32,4.116c-1.061,5.754-3.958,10.868-8.038,14.384h-22.725v0.679h-23.134
				c0.041-0.24,0.082-0.44,0.163-0.679c0.857-3.716,2.448-7.112,4.651-9.949c2.203-2.837,4.978-5.035,8.038-6.433
				c-0.571-5.354,0.408-10.788,2.774-15.463c2.407-4.635,6.079-8.231,10.445-10.149c-0.122-1.119-0.163-2.198-0.163-3.316
				l10.771,4.915l-10.649-7.232c0.286-3.276,1.183-6.433,2.57-9.27c1.387-2.877,3.264-5.354,5.549-7.352l9.833,18.38l-7.344-20.218
				c3.998-2.597,8.65-3.556,13.178-2.797c4.529,0.759,8.731,3.276,11.914,7.072c3.182,3.796,5.222,8.751,5.753,14.025
				C401.924,243.293,400.945,248.647,398.619,253.162L398.619,253.162z"/>
			<path opacity="0.1" fill="#C7C7C7" enable-background="new    " d="M385.359,278.775c-1.428,2.757-3.305,5.194-5.549,7.072
				h-22.726v0.679h-23.093c0.041-0.24,0.082-0.48,0.163-0.679c0.857-3.716,2.448-7.112,4.651-9.949
				c2.203-2.837,4.978-5.035,8.038-6.433c-0.204-1.758,4.284-1.518,10.282-0.36C368.794,271.382,386.175,277.216,385.359,278.775z"
				/>
			<path fill="#F4C4B5" d="M285.868,213.167c0,0,1.667,14.667-2.622,24.027c-6.365,5.834,5.386,40.796,24.847,36.72
				c19.462-4.076,27.377-33.444,27.377-33.444s-16.491-4.675-9.269-28.369L285.868,213.167z"/>
			<path fill="#FECEB8" d="M304.126,226.55c17.789,0,32.232-16.702,32.232-37.32s-14.443-37.32-32.232-37.32
				s-32.232,16.702-32.232,37.32S286.338,226.55,304.126,226.55z"/>
			<path fill="#C7C7C7" d="M360.535,260.154c3,6.753,3,25.373,3,25.373h-118c0,0-0.5-15.401,2-24.214s4.167-11.146,11.345-14.385
				l3.06-1.518c7.711-3.796,17.095-8.551,20.155-10.509c0.326-0.2,0.653-0.44,0.938-0.719c1.673-1.958,1.346,0.599,1.346,0.599
				s-0.041,0.479-0.082,1.319c-0.163,5.714,0.53,28.13,23.256,26.292c22.154-1.838,23.134-19.139,22.93-24.254
				c0-0.479-0.041-0.959-0.122-1.398c0-0.12,1.918,0.599,4.488,1.678c4.651,1.998,9.249,4.264,13.301,6.673
				S357.94,254.313,360.535,260.154z"/>
			<path opacity="0.1" enable-background="new    " d="M334.89,238.417c-1.877,10.069-7.752,28.929-29.009,29.408
				c-22.603,0.519-23.909-25.532-23.786-32.924c0.326-0.2,0.653-0.44,0.938-0.719c1.673-1.958,1.346,0.599,1.346,0.599
				s-2.856,29.728,23.174,27.57c26.03-2.158,22.848-25.652,22.848-25.652C330.402,236.619,332.319,237.338,334.89,238.417z"/>
			<path fill="#454554" d="M265.978,191.068c2.122-0.799,4.651,0.559,5.834,2.437c1.183,1.918,1.346,4.195,1.469,6.393
				c1.387,0.36,2.203-1.478,2.326-2.877c0.53-5.634,0.571-11.388,2.203-16.822c1.632-5.434,5.222-10.708,10.69-12.826
				c1.877-0.759,3.876-0.959,5.834-0.639c1.142,0.24,2.244,0.679,3.427,0.919c3.998,0.759,8.364-1.438,12.158,0.08
				c2.366,0.959,3.876,3.197,4.937,5.434c0.49,1.199,1.142,2.278,1.918,3.237c1.591,1.638,4.121,2.078,6.406,2.597
				s4.814,1.398,5.794,3.476c0.898,1.838,0.245,3.996-0.082,5.994c-0.449,3.157,0,6.433,1.306,9.27
				c0.408,0.919,1.265,1.998,2.285,1.678c0.449-0.16,0.857-0.559,1.102-1.039c2.652-4.275,2.57-9.869,5.875-13.705
				c1.102-1.279,2.53-2.278,3.59-3.596c0.816-0.959,1.428-2.118,1.754-3.396c0.326-1.279,0.367-2.637,0.122-3.956
				c-0.612-2.957-2.652-5.394-4.284-7.951c-2.122-3.276-3.713-7.032-4.57-10.988c-0.163-0.479-0.163-0.959,0-1.438
				c0.326-0.479,0.694-0.839,1.183-1.119c0.898-0.679,1.55-1.718,1.836-2.957c0.286-1.199,0.163-2.477-0.326-3.596
				c-0.938-2.238-2.978-3.876-5.263-4.875s-4.774-1.398-7.222-1.838c-1.632,0.28-3.509-0.799-4.039-2.318
				c-0.204-0.679-0.204-1.398-0.449-2.078c-0.449-1.279-1.714-2.198-3.06-2.517c-1.387-0.28-2.815-0.16-4.121,0.32
				c-1.51,0.479-3.305,1.239-4.61,0.4c-0.694-0.479-1.102-1.279-1.836-1.678c-1.51-0.759-3.142,0.759-4.243,2.038
				c-1.061,1.319-2.366,2.318-3.835,2.957c-1.55,0.599-3.427,0.599-4.733-0.36c-1.061-0.759-1.591-2.038-2.448-3.037
				c-1.387-1.638-3.55-2.517-5.753-2.717c-2.203-0.12-4.366,0.16-6.487,0.839c-4.039,1.119-7.874,2.997-11.424,5.514
				c-1.754,1.279-3.468,2.757-4.366,4.715c-0.653,1.518-0.979,3.157-0.979,4.835c-0.163,5.274,1.346,10.828,5.304,14.544
				c-2.407,1.159-3.223,3.996-3.794,6.553c-0.898,4.036-1.795,8.151-1.469,12.267c0.163,2.118,0.653,4.235,0.408,6.353
				c-0.122,1.039-0.449,2.038-0.367,3.077c0.082,0.559,0.326,1.119,0.694,1.518C264.999,190.708,265.489,190.988,265.978,191.068z"
				/>
			<g opacity="0.1">
				<path opacity="0.1" enable-background="new    " d="M344.437,173.168c-0.367,0.879-0.816,1.678-1.387,2.357
					c-1.061,1.319-2.489,2.318-3.59,3.596c-3.305,3.836-3.223,9.39-5.875,13.705c-0.245,0.479-0.653,0.839-1.102,1.039
					c-1.02,0.32-1.877-0.759-2.285-1.678c-0.53-1.119-0.898-2.357-1.142-3.596c-0.041,0.32-0.122,0.639-0.163,0.919
					c-0.449,3.157,0,6.433,1.306,9.27c0.408,0.919,1.265,1.998,2.285,1.678c0.449-0.2,0.857-0.559,1.102-1.039
					c2.652-4.275,2.57-9.869,5.875-13.665c1.102-1.279,2.53-2.278,3.59-3.596c0.816-0.959,1.428-2.118,1.754-3.396
					s0.367-2.637,0.122-3.956C344.804,174.247,344.641,173.728,344.437,173.168z"/>
				<path opacity="0.1" enable-background="new    " d="M337.256,146.717c-0.449,0.24-0.857,0.639-1.183,1.119
					c-0.163,0.479-0.163,0.959,0,1.438c0.286,1.398,0.694,2.757,1.183,4.076c0.898-0.679,1.55-1.758,1.836-2.957
					c0.286-1.239,0.163-2.517-0.326-3.636c-0.163-0.36-0.326-0.719-0.53-1.039C337.95,146.078,337.623,146.437,337.256,146.717z"/>
				<path opacity="0.1" enable-background="new    " d="M269.161,154.988c-2.734-2.597-4.529-6.313-5.059-10.349
					c-0.122,0.799-0.204,1.638-0.245,2.437c-0.163,3.876,0.734,7.752,2.53,11.028C266.958,156.706,267.937,155.587,269.161,154.988z
					"/>
				<path opacity="0.1" enable-background="new    " d="M328.892,182.918c0.286-1.998,0.938-4.156,0.082-5.994
					c-0.979-2.038-3.468-2.957-5.794-3.476c-2.285-0.519-4.814-0.959-6.406-2.597c-0.775-0.959-1.428-2.038-1.918-3.237
					c-1.061-2.238-2.611-4.475-4.978-5.434c-3.754-1.518-8.119,0.679-12.158-0.08c-1.142-0.24-2.244-0.679-3.427-0.919
					c-1.958-0.32-3.958-0.12-5.834,0.599c-5.508,2.078-9.058,7.352-10.69,12.826s-1.673,11.188-2.203,16.822
					c-0.122,1.398-0.898,3.237-2.326,2.877c-0.163-2.198-0.326-4.515-1.469-6.393c-1.183-1.918-3.672-3.237-5.834-2.437
					c-0.653-0.16-1.224-0.599-1.632-1.239c0.082,0.799,0.082,1.638-0.041,2.437c-0.122,1.039-0.449,2.038-0.367,3.077
					c0.082,0.559,0.326,1.119,0.694,1.518c0.367,0.4,0.816,0.679,1.306,0.799c2.122-0.799,4.651,0.559,5.834,2.437
					c1.183,1.918,1.346,4.195,1.469,6.393c1.387,0.36,2.203-1.478,2.326-2.877c0.53-5.634,0.571-11.388,2.203-16.822
					s5.222-10.708,10.69-12.826c1.877-0.759,3.876-0.959,5.834-0.639c1.142,0.24,2.244,0.679,3.427,0.919
					c3.998,0.759,8.364-1.438,12.158,0.08c2.366,0.959,3.876,3.197,4.978,5.434c0.49,1.199,1.142,2.278,1.918,3.237
					c1.591,1.638,4.121,2.078,6.406,2.597s4.61,1.359,5.671,3.237C328.851,183.198,328.892,183.078,328.892,182.918z"/>
				<path opacity="0.1" enable-background="new    " d="M264.346,180.121c0.122-1.678,0.041-3.356-0.245-4.995
					c-0.245,1.718-0.286,3.476-0.163,5.234c0.041,0.44,0.082,0.879,0.122,1.319C264.142,181.2,264.224,180.68,264.346,180.121z"/>
			</g>
			<path fill="#FFFFFF" d="M508.453,247.768h-47.654v38.279h47.654V247.768z"/>
			<path opacity="0.1" fill="#C7C7C7" enable-background="new    " d="M504.169,276.657c-0.694,1.319-1.714,2.357-2.978,2.877
				c0.041,0.479,0.082,0.999,0.041,1.478l-4.774-0.32l4.651,1.159c-0.326,1.638-1.142,3.077-2.285,4.076h-6.446v0.2h-6.569
				c0-0.08,0-0.12,0.041-0.2c0.163-0.639,0.367-1.239,0.653-1.758c0.694-1.319,1.714-2.357,2.978-2.877
				c-0.163-1.518,0.122-3.077,0.775-4.395c0.694-1.319,1.714-2.318,2.978-2.877c-0.041-0.32-0.041-0.639-0.041-0.959l3.06,1.398
				l-3.019-2.078c0.082-0.919,0.326-1.838,0.734-2.637c0.408-0.799,0.938-1.518,1.591-2.078l2.774,5.234l-2.122-5.754
				c1.142-0.719,2.448-0.999,3.754-0.759s2.489,0.919,3.386,1.998c0.897,1.079,1.469,2.477,1.632,3.956
				C505.107,273.86,504.822,275.378,504.169,276.657L504.169,276.657z"/>
			<path opacity="0.1" fill="#C7C7C7" enable-background="new    " d="M500.415,283.969c-0.408,0.799-0.938,1.478-1.591,1.998
				h-6.446v0.2h-6.569c0-0.08,0-0.12,0.041-0.2c0.163-0.639,0.367-1.239,0.653-1.758c0.694-1.319,1.714-2.357,2.978-2.877
				c-0.041-0.479,1.224-0.44,2.938-0.08C495.682,281.851,500.66,283.529,500.415,283.969z"/>
			<path opacity="0.1" fill="#C7C7C7" enable-background="new    " d="M462.594,276.657c0.694,1.319,1.714,2.357,2.978,2.877
				c-0.041,0.479-0.082,0.999-0.041,1.478l4.774-0.32l-4.651,1.159c0.326,1.638,1.142,3.077,2.285,4.076h6.446v0.2h6.569
				c0-0.08-0.041-0.12-0.041-0.2c-0.163-0.639-0.367-1.199-0.653-1.758c-0.694-1.319-1.714-2.318-2.978-2.877
				c0.163-1.518-0.122-3.077-0.775-4.395c-0.694-1.319-1.714-2.318-2.978-2.877c0.041-0.32,0.041-0.639,0.041-0.959l-3.06,1.398
				l3.019-2.078c-0.082-0.919-0.326-1.838-0.734-2.637c-0.408-0.799-0.938-1.518-1.591-2.078l-2.774,5.234l2.081-5.754
				c-1.142-0.719-2.448-0.999-3.754-0.759c-1.265,0.24-2.448,0.919-3.386,1.998s-1.469,2.477-1.632,3.956s0.122,2.997,0.775,4.275
				h0.082v0.041L462.594,276.657L462.594,276.657z"/>
			<path opacity="0.1" fill="#C7C7C7" enable-background="new    " d="M466.347,283.969c0.408,0.799,0.938,1.478,1.591,1.998h6.446
				v0.2h6.569c0-0.08-0.041-0.12-0.041-0.2c-0.163-0.639-0.367-1.199-0.653-1.758c-0.694-1.319-1.714-2.318-2.978-2.877
				c0.041-0.479-1.224-0.44-2.938-0.08C471.08,281.851,466.102,283.529,466.347,283.969z"/>
			<path fill="#464353" d="M489.318,256.199h-10.649v13.745h10.649V256.199z"/>
			<path opacity="0.1" enable-background="new    " d="M489.318,256.199h-10.649v13.745h10.649V256.199z"/>
			<path fill="#FECEB8" d="M474.14,282.49l-0.204,3.556h3.06l0.204-4.715L474.14,282.49z"/>
			<path fill="#FECEB8" d="M490.134,282.49l-0.449,3.556h2.774l0.163-4.715L490.134,282.49z"/>
			<path fill="#A1616A" d="M481.321,263.071c0,0-0.122,1.798-0.49,2.238c-0.367,0.479,3.305,4.595,6.202,0.519
				c0,0-1.265-1.239-0.938-2.597C486.38,261.873,481.321,263.071,481.321,263.071z"/>
			<path fill="#F9C9B7" d="M481.321,263.071c0,0-0.122,1.798-0.49,2.238c-0.367,0.479,3.305,4.595,6.202,0.519
				c0,0-1.265-1.239-0.938-2.597C486.38,261.873,481.321,263.071,481.321,263.071z"/>
			<path fill="#FECEB8" d="M483.973,264.67c2.938,0,5.345-2.757,5.345-6.153c0-3.396-2.366-6.153-5.345-6.153
				c-2.938,0-5.345,2.757-5.345,6.153C478.669,261.913,481.035,264.67,483.973,264.67z"/>
			<path fill="#C7C7C7" d="M483.687,266.907c0,0-2.244-0.04-2.57-2.397c-0.449,0.44-0.898,0.839-1.387,1.239
				c-0.204,0.08-2.366,1.478-2.734,1.558c-0.408,0.08-0.775,0.32-1.061,0.599c-0.53,0.479-0.938,1.079-1.265,1.758
				c-0.326,0.679-0.49,1.438-0.49,2.238c-0.082,2.757-0.367,8.151-0.367,8.151l0.122,1.958v1.279c0,0,1.958,0.599,3.182-0.599
				c0,0,0-0.479,0.245-0.599c0.204-0.16,0.245-0.759,0.204-1.039c0-0.4,0-0.759,0-1.159c0.041,0.2,0.163,0.4,0.286,0.519
				c0.082,0.36,0.122,0.719,0.082,1.079c-0.122,0.24-0.245,0.839-0.122,0.959c0.041,0.12,0.082,0.24,0.082,0.36
				s-0.041,0.24-0.122,0.36c-0.204,0.32-0.367,0.679-0.49,1.079c0,0-0.122,0.759-0.245,0.839c-0.122,0.32-0.204,0.639-0.245,0.999
				h13.219c-0.245-0.759-0.408-1.558-0.53-2.397c0.041-0.4-0.326-1.958-0.082-2.397c0.367-0.559,0.571-1.239,0.571-1.958
				l0.163,1.638l-0.408,3.676c0,0,2.448,0.879,2.734,0.32c0.286-0.959,0.49-1.958,0.612-2.957c0,0,0.571-3.077,0.734-3.476
				c0.163-0.44,0.49-8.91-1.51-10.149c-1.999-1.239-5.712-3.356-5.834-3.236c-0.204,0.599-0.612,1.119-1.102,1.438
				C484.87,266.907,484.258,267.027,483.687,266.907z"/>
			<path opacity="0.1" fill="none" stroke="#000000" stroke-miterlimit="10" enable-background="new    " d="M477.322,275.218
				c-0.367,0.639-0.53,1.398-0.449,2.158c0.082,0.759,0.286,1.478,0.612,2.118"/>
			<path opacity="0.1" fill="none" stroke="#000000" stroke-miterlimit="10" enable-background="new    " d="M490.174,275.778
				c0.082,0.32,0.163,0.639,0.204,0.959c0.082,0.4,0.122,0.839,0.041,1.239c-0.041,0.4-0.204,0.799-0.408,1.159"/>
			<path fill="#464353" d="M481.606,254.281c0.408-0.12,0.857-0.08,1.265,0.16c0.367,0.24,0.775,0.4,1.183,0.559
				c0.286,0.08,0.53,0.08,0.857,0.12c0.53,0.12,0.979,0.4,1.346,0.799c0.367,0.44,0.612,0.959,0.734,1.558
				c0.245,1.518-0.53,2.997-0.53,4.515c0,0.879,0.286,1.718,0.775,2.397c0.408,0.44,0.775,0.919,1.061,1.478
				c0.163,0.4,0.204,0.839,0.326,1.239c0.326,0.679,0.857,1.239,1.51,1.478c0.653,0.24,1.265,0.559,1.836,0.959
				c1.061,0.799,1.673,2.397,2.897,2.717c0.041,0.04,0.122,0.04,0.204,0.04s0.122,0,0.204-0.04c0.041-0.04,0.082-0.12,0.122-0.2
				c0.041-0.08,0.041-0.16,0.041-0.24c0.041-0.32,0-0.599-0.082-0.879c-0.082-0.28-0.245-0.559-0.408-0.759
				c-0.286-0.36-0.734-0.599-0.857-1.079c-0.082-0.479,0.163-0.879,0.286-1.319c0.449-1.398-0.286-2.917-1.142-4.036
				c-0.816-1.119-1.836-2.238-2.04-3.676c-0.041-0.479-0.082-0.959-0.041-1.478c0-0.999-0.163-1.998-0.449-2.957
				c-0.122-0.519-0.367-0.999-0.653-1.398c-0.286-0.36-0.612-0.639-0.898-0.999c-0.367-0.599-0.694-1.199-0.979-1.838
				c-0.408-0.759-0.979-1.398-1.673-1.838s-1.428-0.679-2.203-0.719c-1.469,0-2.897,0.759-4.162,1.678
				c-0.449,0.28-0.857,0.719-1.183,1.199c-0.53,0.959-0.367,2.278-0.694,3.356c-0.286,1.119-1.02,1.918-1.306,2.997
				c-0.082,0.32-0.082,0.639-0.041,0.959c0.082,0.36,0.204,0.679,0.367,0.999c0.286,0.799,0.449,1.638,0.449,2.477
				c0.082,1.039,0.122,2.158-0.367,2.997c-0.367,0.519-0.816,0.959-1.306,1.319c0.53,0.479,1.183,0.719,1.836,0.639
				c1.02,0.04,2.162,0,2.774-0.919c0.367-0.679,0.53-1.438,0.408-2.238c-0.041-0.839-0.204-1.678-0.449-2.517
				c-0.326-1.119-0.857-2.198-1.02-3.396c-0.041-0.44-0.041-0.879,0.041-1.279c0.082-0.44,0.245-0.799,0.49-1.159
				c0.204-0.28,0.53-0.4,0.694-0.719C481.198,254.88,481.117,254.481,481.606,254.281z"/>
			<g opacity="0.1">
				<path opacity="0.1" enable-background="new    " d="M477.363,259.955c0.286,0.799,0.449,1.638,0.449,2.477
					c0,0.28,0.041,0.559,0.041,0.839c0.041-0.599,0.041-1.199,0-1.798c-0.041-0.839-0.204-1.678-0.49-2.437
					c-0.163-0.32-0.286-0.639-0.367-0.959c-0.082,0.32-0.082,0.639-0.041,0.959C477.078,259.355,477.2,259.675,477.363,259.955z"/>
				<path opacity="0.1" enable-background="new    " d="M480.872,265.629c-0.612,0.919-1.795,0.959-2.815,0.919
					c-0.408,0-0.857-0.08-1.265-0.24c-0.204,0.2-0.408,0.36-0.612,0.519c0.53,0.479,1.183,0.719,1.836,0.639
					c1.02,0.04,2.162,0,2.815-0.919c0.367-0.599,0.53-1.359,0.449-2.078C481.198,264.909,481.076,265.309,480.872,265.629z"/>
				<path opacity="0.1" enable-background="new    " d="M494.091,268.066c0,0.08,0.041,0.12,0.082,0.2
					c0.041-0.16,0.122-0.36,0.204-0.519c0.122-0.4,0.163-0.839,0.122-1.279c0,0.08-0.041,0.2-0.082,0.28
					C494.254,267.187,494.01,267.627,494.091,268.066z"/>
				<path opacity="0.1" enable-background="new    " d="M486.992,257.757c0.041-0.44,0.041-0.839,0-1.279
					c-0.122-0.599-0.367-1.119-0.734-1.558c-0.367-0.44-0.857-0.719-1.346-0.799c-0.286-0.04-0.571-0.04-0.816-0.12
					c-0.408-0.12-0.816-0.32-1.183-0.559c-0.367-0.24-0.816-0.28-1.265-0.16c-0.49,0.2-0.408,0.599-0.612,0.999
					c-0.163,0.28-0.49,0.44-0.694,0.719c-0.408,0.639-0.612,1.438-0.53,2.278c0.082-0.479,0.245-0.919,0.49-1.279
					c0.204-0.28,0.53-0.4,0.694-0.719c0.204-0.4,0.163-0.839,0.612-0.999c0.408-0.12,0.857-0.08,1.265,0.16
					c0.367,0.24,0.775,0.4,1.183,0.559c0.286,0.08,0.53,0.08,0.857,0.12c0.53,0.12,0.979,0.4,1.346,0.799
					c0.367,0.44,0.612,0.959,0.734,1.558C486.951,257.557,486.992,257.637,486.992,257.757z"/>
				<path opacity="0.1" enable-background="new    " d="M495.234,271.223c-0.122,0.04-0.245,0.04-0.367,0
					c-1.224-0.32-1.877-1.918-2.897-2.717c-0.571-0.4-1.224-0.719-1.836-0.959c-0.653-0.24-1.183-0.799-1.51-1.478
					c-0.163-0.4-0.163-0.839-0.326-1.239c-0.286-0.559-0.653-1.039-1.061-1.478c-0.449-0.599-0.694-1.359-0.775-2.158
					c-0.041,0.24-0.041,0.479-0.041,0.719c0,0.879,0.286,1.758,0.775,2.437c0.408,0.44,0.775,0.919,1.061,1.478
					c0.163,0.4,0.204,0.839,0.326,1.239c0.326,0.679,0.857,1.239,1.51,1.478c0.653,0.24,1.265,0.559,1.836,0.959
					c1.061,0.799,1.673,2.397,2.897,2.717c0.041,0.04,0.122,0.04,0.204,0.04s0.122,0,0.204-0.04c0.041-0.04,0.082-0.12,0.122-0.2
					c0.041-0.08,0.041-0.16,0.041-0.24c0.041-0.24,0-0.479-0.041-0.679C495.315,271.183,495.274,271.223,495.234,271.223z"/>
			</g>
			<path opacity="0.1" fill="#C7C7C7" enable-background="new    " d="M472.426,250.605h-6.814v11.268h6.814V250.605z"/>
			<path opacity="0.1" fill="#C7C7C7" enable-background="new    " d="M471.447,252.203h-4.855v8.031h4.855V252.203z"/>
			<path opacity="0.1" fill="#C7C7C7" enable-background="new    " d="M506.005,252.283h-11.179v6.753h11.179V252.283
				L506.005,252.283z"/>
			<path opacity="0.1" fill="#C7C7C7" enable-background="new    " d="M504.536,253.162h-8.282v4.995h8.282V253.162z"/>
		</g>
	</g>
</g>
<g>
	<path fill="#FF825C" d="M540.191,56.112L517.616,87.73l22.442,33.658h-24.312l-9.885-17.593c-0.801-1.403-1.759-3.379-2.872-5.928
		h-0.267c-0.668,1.785-1.581,3.697-2.738,5.737l-9.951,17.785h-24.246l23.11-32.51L467.19,56.113h24.445l9.752,18.295
		c1.291,2.423,2.204,4.463,2.739,6.12h0.267c0.712-1.997,1.67-4.079,2.872-6.247l9.952-18.167
		C517.216,56.112,540.191,56.112,540.191,56.112z"/>
	<path display="none" fill="#FF825C" d="M550.276,119.029v-17.211c6.545,3.825,13.514,5.737,20.905,5.737
		c5.566,0,9.919-1.264,13.058-3.793c3.139-2.528,4.709-5.96,4.709-10.295c0-9.052-6.702-13.578-20.104-13.578
		c-4.942,0-10.643,0.362-17.098,1.084l3.607-50.997h50.694v16.446h-34.598l-1.336,18.295c3.429-0.255,6.39-0.382,8.884-0.382
		c9.84,0,17.544,2.465,23.109,7.394c5.566,4.931,8.349,11.56,8.349,19.889c0,9.222-3.318,16.755-9.952,22.598
		c-6.635,5.843-15.629,8.765-26.984,8.765C564.303,122.982,556.555,121.663,550.276,119.029z"/>
	<text transform="matrix(1 0 0 1 546.7324 156.5602)" fill="#FF825C" font-family="'MyriadPro-Regular'" font-size="9.1948">8</text>
	<g display="none" enable-background="new    ">
		<path display="inline" fill="none" stroke="#000000" stroke-width="80" stroke-miterlimit="10" d="M547.073,155.042
			c0-0.754,0.451-1.288,1.187-1.601l-0.009-0.027c-0.663-0.313-0.948-0.828-0.948-1.344c0-0.947,0.801-1.592,1.85-1.592
			c1.159,0,1.739,0.727,1.739,1.473c0,0.506-0.248,1.049-0.984,1.398v0.027c0.745,0.295,1.205,0.819,1.205,1.546
			c0,1.04-0.893,1.739-2.033,1.739C547.827,156.662,547.073,155.916,547.073,155.042z M550.294,155.005
			c0-0.728-0.507-1.077-1.316-1.307c-0.699,0.202-1.076,0.662-1.076,1.232c-0.027,0.607,0.433,1.142,1.196,1.142
			C549.824,156.073,550.294,155.622,550.294,155.005z M548.066,152.015c0,0.598,0.451,0.92,1.142,1.104
			c0.515-0.175,0.91-0.543,0.91-1.086c0-0.479-0.285-0.975-1.012-0.975C548.435,151.058,548.066,151.5,548.066,152.015z"/>
	</g>
</g>
<g enable-background="new    ">
	<path fill="#FF825C" d="M575.127,122.01h-16.89V20.009l-17.139,10.515v-17.47l17.139-11.425h16.89V122.01z"/>
	<path fill="#FF825C" d="M611.184,114.228c-5.824-6.016-8.735-14.406-8.735-25.17V34.332c0-10.817,2.926-19.222,8.776-25.211
		c5.851-5.988,14.378-8.983,25.583-8.983c11.26,0,19.801,2.981,25.625,8.942c5.822,5.961,8.734,14.379,8.734,25.252v54.726
		c0,10.819-2.926,19.223-8.775,25.211c-5.852,5.989-14.379,8.983-25.584,8.983C625.548,123.252,617.007,120.244,611.184,114.228z
		 M650.014,102.512c2.842-3.117,4.264-7.603,4.264-13.454V34.332c0-5.851-1.407-10.335-4.223-13.454
		c-2.815-3.118-7.231-4.678-13.247-4.678c-6.017,0-10.432,1.56-13.246,4.678c-2.815,3.119-4.223,7.604-4.223,13.454v54.726
		c0,5.852,1.42,10.337,4.264,13.454c2.842,3.119,7.244,4.678,13.205,4.678S647.17,105.631,650.014,102.512z"/>
</g>
<text transform="matrix(1 0 0 1 962.6061 13.8978)" fill="#FF825C" font-family="'Arial-BoldMT'" font-size="130">х</text>
</svg>
