<svg width="440" height="367" viewBox="0 0 440 367" fill="none" xmlns="http://www.w3.org/2000/svg">
<g clip-path="url(#clip0)">
<path d="M428.132 110.867C426.839 109.815 425.631 108.662 424.52 107.42C424.52 107.716 424.52 108.013 424.52 108.309C415.7 99.3085 416.011 88.4053 419.622 78.4584L420.816 78.0167C426.486 63.026 439.481 50.4528 439.481 50.4528L437.539 51.2684C438.141 50.647 438.486 50.2975 438.486 50.2975C357.905 84.6722 301.838 86.6771 295.586 86.7936C291.732 85.3372 259.975 73.7738 229.253 69.463C219.588 68.0601 209.991 67.3562 201.37 67.8999L191.69 26.3406L191.506 26.4522C191.054 22.889 189.38 15.1315 183.254 10.3207C175.074 3.93219 181.166 33.3262 181.166 33.3262L181.836 33.0106L185.263 70.0213L183.593 71.4194C173.91 74.3059 163.918 76.0285 153.827 76.5506C155.688 74.8295 157.221 72.785 158.351 70.5165C159.001 70.6506 159.674 70.6219 160.31 70.433C160.946 70.2441 161.525 69.9009 161.997 69.4339C162.315 69.0993 162.584 68.7219 162.798 68.3125C163.243 67.5922 163.602 66.8214 163.866 66.0164C165.875 60.6182 168.069 55.2054 168.72 49.4868C169.37 43.7682 168.302 37.5641 164.453 33.2776C160.604 28.9911 153.584 27.36 148.871 30.6708C147.652 31.5252 146.618 32.6611 145.279 33.3116C141.196 35.2874 136.667 32.0834 132.866 29.6076C128.449 26.7289 122.614 24.6658 118.037 27.2775C116.608 28.1083 115.433 29.3135 114.639 30.763C113.383 32.7529 112.793 35.0906 112.954 37.4379C113.216 41.2099 115.25 44.7197 117.973 47.3217C118.888 48.2816 120.013 49.0161 121.26 49.4674C121.577 49.5649 121.902 49.6363 122.231 49.681C120.712 51.9784 119.662 54.5529 119.141 57.257C118.619 59.961 118.637 62.7414 119.192 65.4387L117.498 75.6914C115.993 76.3953 115.153 77.9341 114.682 79.439C107.6 79.6478 100.352 84.5023 100.352 84.5023L72.5182 112.338C65.2999 117.236 70.1978 126.256 70.1978 126.256L86.4353 174.971L87.3334 174.301C90.6634 180.369 100.44 197.117 102.318 188.767C104.615 178.65 97.4642 169.466 97.4642 169.466H97.3768L95.5274 167.087L88.7314 130.872L97.3283 122.333L108.881 120.649L109.396 195.636C88.2605 251.312 90.8382 276.828 90.8382 276.828L109.396 346.422L111.765 346.029L112.338 348.32L112.546 348.247L113.576 353.383H111.721L109.401 360.345C109.401 360.345 97.5467 360.087 97.804 362.665C98.0613 365.243 104.508 369.626 121.003 364.985L125.643 360.345C125.643 360.345 127.964 358.024 123.323 353.383H122.993L121.706 344.373L123.323 344.101L109.396 274.493C120.993 264.954 141.871 228.098 141.871 228.098C141.871 228.098 162.744 264.959 174.346 274.493L160.429 344.082L162.045 344.354L160.778 353.364H160.448C155.808 358.005 158.128 360.325 158.128 360.325L162.769 364.966C179.273 369.607 185.71 365.223 185.967 362.646C186.224 360.068 174.37 360.325 174.37 360.325L172.05 353.364H170.196L171.531 346.684L171.768 345.97L174.37 346.402L192.928 276.808C192.928 276.808 192.583 236.599 174.564 186.335L211.583 238.249L240.874 284.435C242.423 280.7 244.33 277.123 246.568 273.755L267.761 253.953C292.397 239.298 325.284 238.419 345.595 239.628L364.322 241.652L373.128 195.262C378.259 188.656 385.875 182.956 396.948 178.694C419.918 169.859 439.18 151.101 439.025 132.863C439.36 133.237 439.685 133.61 439.995 133.989C440.233 125.921 436.733 117.911 428.132 110.867ZM173.885 179.68L173.861 178.825L174.929 180.505L173.885 179.68Z" fill="url(#paint0_linear)"/>
<path d="M101.395 169.907H101.308L97.1867 164.592L90.517 171.262L91.2548 172.369L90.415 172.573C90.415 172.573 103.876 198.573 106.119 188.704C108.361 178.835 101.395 169.907 101.395 169.907Z" fill="#FDB797"/>
<path d="M129.497 77.0065C129.497 77.0065 154.045 84.3708 188.418 73.322C222.791 62.2731 293.984 89.2787 293.984 89.2787C293.984 89.2787 350.448 89.2787 433.922 53.6807C433.922 53.6807 395.87 90.5069 422.874 112.605C449.878 134.702 425.33 166.616 393.414 178.893C361.497 191.17 359.045 215.719 361.497 239.045C363.948 262.371 361.497 240.273 361.497 240.273C361.497 240.273 265.751 223.088 241.198 282.022L119.677 90.5117C119.677 90.5117 112.313 75.7832 129.497 77.0065Z" fill="#C7C7C7"/>
<path opacity="0.1" d="M68.668 40.8652L374.317 260.599L392.729 206.588L68.668 40.8652Z" fill="black"/>
<path opacity="0.1" d="M87.0801 109.609L256.474 281.468L281.027 263.055L87.0801 109.609Z" fill="black"/>
<g opacity="0.1">
<path opacity="0.1" d="M136.589 94.333C136.589 94.333 161.137 101.697 195.51 90.6485C229.883 79.5997 301.066 106.61 301.066 106.61C301.066 106.61 346.744 106.61 416.665 80.7065C422.194 66.0847 434.864 53.8223 434.864 53.8223C351.371 89.4203 294.925 89.4203 294.925 89.4203C294.925 89.4203 223.728 62.4147 189.359 73.4636C154.991 84.5124 130.438 77.1481 130.438 77.1481C113.254 75.9199 120.618 90.6533 120.618 90.6533L125.672 98.6196C126.725 95.935 129.662 93.8379 136.589 94.333Z" fill="black"/>
<path opacity="0.1" d="M423.83 112.746C422.569 111.719 421.391 110.594 420.306 109.382C420.025 116.63 422.525 123.839 429.966 129.931C431.95 131.535 433.768 133.334 435.393 135.3C435.631 127.426 432.219 119.61 423.83 112.746Z" fill="black"/>
</g>
<path d="M174.064 340.188L171.802 351.504H162.749L165.016 335.664L174.064 340.188Z" fill="#FDB797"/>
<path opacity="0.1" d="M173.879 341.752L173.243 343.664L164.316 341.116L164.952 339.839L173.879 341.752Z" fill="black"/>
<path d="M115.245 340.188L117.507 351.504H126.556L124.293 335.664L115.245 340.188Z" fill="#FDB797"/>
<path opacity="0.1" d="M115.211 341.752L115.847 344.3L124.779 341.116V339.839L115.211 341.752Z" fill="black"/>
<path d="M193.214 32.2771C193.214 32.2771 192.961 20.937 184.996 14.6941C177.03 8.45126 182.991 37.1171 182.991 37.1171L193.214 32.2771Z" fill="#FDB797"/>
<path d="M126.555 349.242H115.245L112.982 356.038C112.982 356.038 101.42 355.786 101.672 358.301C101.924 360.815 108.206 365.097 124.293 360.563L128.817 356.038C128.817 356.038 131.079 353.767 126.555 349.242Z" fill="#333333"/>
<path d="M162.749 349.242H174.059L176.321 356.038C176.321 356.038 187.884 355.786 187.631 358.301C187.379 360.815 181.098 365.097 165.011 360.563L160.486 356.038C160.486 356.038 158.224 353.767 162.749 349.242Z" fill="#333333"/>
<path d="M176.311 195.398H112.982C92.3713 249.696 94.8858 274.585 94.8858 274.585L112.982 342.456L126.574 340.194L112.982 272.337C124.293 263.036 144.657 227.089 144.657 227.089C144.657 227.089 165.01 263.017 176.311 272.337L162.719 340.208L176.311 342.47L194.408 274.6C194.408 274.6 196.937 249.696 176.311 195.398Z" fill="#333333"/>
<path opacity="0.1" d="M112.983 196.277C112.983 196.277 148.905 209.87 176.327 196.277H112.983Z" fill="black"/>
<path d="M110.983 114.173L92.8863 132.27L99.6823 168.47L90.6339 175.267L74.7993 127.756C74.7993 127.756 70.0227 118.959 77.0614 114.163L104.211 87.012C104.211 87.012 115.862 79.2059 123.871 83.206C131.881 87.2061 110.828 113.886 110.828 113.886" fill="#FBCEAE"/>
<path d="M110.716 113.95L112.978 195.398C112.978 195.398 148.899 208.991 176.321 195.398L174.059 118.727L173.481 116.192L173.899 114.945L201.083 92.4006C208.534 88.2985 204.597 79.0944 204.597 79.0944L193.238 30.3213L183.593 36.2341L186.991 72.9049L167.632 88.9636L167.147 88.9393V89.0607L117.522 86.8034" fill="#F8D4BA"/>
<path d="M146.143 75.6133H143.415C139.171 75.6133 135.73 79.0538 135.73 83.298V88.2884C135.73 92.5325 139.171 95.973 143.415 95.973H146.143C150.387 95.973 153.827 92.5325 153.827 88.2884V83.298C153.827 79.0538 150.387 75.6133 146.143 75.6133Z" fill="#FDB797"/>
<path opacity="0.1" d="M136.308 84.3083C139.18 85.3116 142.242 85.6579 145.266 85.3219C148.29 84.9859 151.2 83.976 153.783 82.3666C153.146 80.6217 151.989 79.1142 150.468 78.0474C148.947 76.9806 147.136 76.4058 145.278 76.4004C143.079 76.4079 140.957 77.2139 139.307 78.6684C137.657 80.1229 136.591 82.1271 136.308 84.3083Z" fill="black"/>
<path d="M142.516 84.6629C153.76 84.6629 162.875 75.5475 162.875 64.3031C162.875 53.0587 153.76 43.9434 142.516 43.9434C131.272 43.9434 122.157 53.0587 122.157 64.3031C122.157 75.5475 131.272 84.6629 142.516 84.6629Z" fill="#FDB797"/>
<path opacity="0.1" d="M128.376 53.074C127.112 53.2335 125.829 53.1612 124.59 52.8604C123.374 52.4187 122.277 51.7008 121.386 50.7633C118.726 48.2098 116.745 44.8019 116.488 41.1222C116.231 37.4425 117.944 33.5444 121.134 31.7191C125.6 29.1753 131.294 31.1851 135.599 33.991C139.303 36.4182 143.725 39.53 147.706 37.6027C149.012 36.9716 150.021 35.86 151.211 35.0298C155.808 31.8016 162.652 33.3939 166.405 37.5736C170.157 41.7533 171.21 47.802 170.565 53.3847C169.919 58.9674 167.783 64.2442 165.822 69.5065C165.517 70.5448 165 71.5086 164.303 72.3366C161.914 74.7882 157.444 72.8852 155.871 69.8463C153.138 64.5597 155.871 55.3944 149.415 52.3118C144.274 49.8652 133.896 52.7148 128.376 53.074Z" fill="black"/>
<path d="M128.682 52.5691C127.417 52.7287 126.134 52.6563 124.896 52.3555C123.68 51.9138 122.583 51.1959 121.692 50.2584C119.032 47.7049 117.051 44.2971 116.794 40.6173C116.537 36.9376 118.25 33.0395 121.439 31.2142C125.905 28.6704 131.599 30.6802 135.905 33.4861C139.609 35.9133 144.031 39.0251 148.012 37.0978C149.317 36.4667 150.327 35.3551 151.516 34.5249C156.113 31.2967 162.958 32.889 166.71 37.0687C170.463 41.2484 171.516 47.2971 170.87 52.8798C170.225 58.4625 168.06 63.7393 166.118 69.0016C165.813 70.04 165.295 71.0037 164.599 71.8318C162.21 74.2833 157.74 72.3803 156.167 69.3414C153.434 64.0549 156.167 54.8896 149.711 51.807C144.594 49.3603 134.196 52.2147 128.682 52.5691Z" fill="#333333"/>
<path d="M153.827 68.8271C155.076 68.8271 156.089 66.8015 156.089 64.3027C156.089 61.804 155.076 59.7783 153.827 59.7783C152.577 59.7783 151.564 61.804 151.564 64.3027C151.564 66.8015 152.577 68.8271 153.827 68.8271Z" fill="#FDB797"/>
<path opacity="0.1" d="M110.745 113.939L116.488 116.629L110.745 123.648V113.939Z" fill="black"/>
<path opacity="0.1" d="M173.88 114.931L170.055 119.183L172.603 123.009L174.093 118.756L173.88 114.931Z" fill="black"/>
<path d="M145.045 94.1774V97.862C145.045 97.862 118.177 92.9541 117.492 85.585L135.225 86.8131L145.045 94.1774Z" fill="#C7C7C7"/>
<path d="M145.045 94.1774V97.862C145.045 97.862 171.913 92.9541 172.598 85.585L154.865 86.8131L145.045 94.1774Z" fill="#C7C7C7"/>
<path opacity="0.1" d="M309.26 134.159L397.641 155.029L365.724 168.534L309.26 134.159Z" fill="black"/>
<path d="M117.575 85.7646C117.575 85.7646 117.575 78.0508 122.721 78.0508C127.866 78.0508 133.007 93.4832 133.007 93.4832L117.575 85.7646Z" fill="#C7C7C7"/>
<path opacity="0.5" d="M5.61105 145.927C7.47161 145.927 8.9799 144.418 8.9799 142.557C8.9799 140.697 7.47161 139.188 5.61105 139.188C3.75048 139.188 2.24219 140.697 2.24219 142.557C2.24219 144.418 3.75048 145.927 5.61105 145.927Z" fill="#F55F44"/>
<path opacity="0.5" d="M47.7028 225.064C49.5634 225.064 51.0717 223.556 51.0717 221.695C51.0717 219.835 49.5634 218.326 47.7028 218.326C45.8423 218.326 44.334 219.835 44.334 221.695C44.334 223.556 45.8423 225.064 47.7028 225.064Z" fill="#F55F44"/>
<path opacity="0.5" d="M406.326 12.908C408.186 12.908 409.695 11.3996 409.695 9.53894C409.695 7.67828 408.186 6.16992 406.326 6.16992C404.465 6.16992 402.957 7.67828 402.957 9.53894C402.957 11.3996 404.465 12.908 406.326 12.908Z" fill="#F55F44"/>
<path opacity="0.5" d="M244.073 11.762C243.609 11.56 243.236 11.1948 243.024 10.7357C242.812 10.2766 242.776 9.75559 242.922 9.27163C242.946 9.19759 242.961 9.12099 242.966 9.04346C242.98 8.82138 242.922 8.60077 242.8 8.4144C242.679 8.22803 242.5 8.08585 242.291 8.00898C242.082 7.93211 241.854 7.92464 241.641 7.9877C241.428 8.05075 241.24 8.18096 241.107 8.35898C241.06 8.42198 241.021 8.49044 240.99 8.56287C240.788 9.02458 240.423 9.39606 239.965 9.60715C239.507 9.81823 238.988 9.8543 238.505 9.70853C238.431 9.68489 238.354 9.67022 238.277 9.66484C238.055 9.65104 237.834 9.70924 237.648 9.83081C237.461 9.95238 237.319 10.1308 237.242 10.3396C237.166 10.5484 237.158 10.7765 237.221 10.9899C237.284 11.2033 237.414 11.3906 237.592 11.5241C237.655 11.5711 237.724 11.6102 237.796 11.6406C238.256 11.8451 238.625 12.2106 238.835 12.6683C239.044 13.1261 239.079 13.6446 238.932 14.1261C238.908 14.2002 238.894 14.2768 238.888 14.3543C238.875 14.5764 238.933 14.797 239.054 14.9833C239.176 15.1697 239.354 15.3119 239.563 15.3888C239.772 15.4656 240 15.4731 240.213 15.4101C240.427 15.347 240.614 15.2168 240.748 15.0388C240.795 14.9758 240.834 14.9073 240.864 14.8349C241.066 14.3712 241.431 13.9979 241.89 13.7858C242.349 13.5737 242.87 13.5376 243.354 13.6844C243.428 13.708 243.505 13.7227 243.583 13.7281C243.804 13.7414 244.023 13.6834 244.209 13.5624C244.395 13.4414 244.537 13.264 244.614 13.0562C244.691 12.8484 244.7 12.6214 244.638 12.4084C244.577 12.1955 244.448 12.008 244.272 11.8736C244.21 11.8287 244.143 11.7912 244.073 11.762Z" fill="#4D8AF0"/>
<path opacity="0.5" d="M409.631 216.617C409.168 216.416 408.794 216.05 408.582 215.591C408.37 215.132 408.334 214.611 408.481 214.127C408.505 214.053 408.519 213.976 408.525 213.899C408.538 213.677 408.48 213.456 408.359 213.27C408.237 213.084 408.059 212.941 407.85 212.864C407.641 212.788 407.413 212.78 407.2 212.843C406.986 212.906 406.799 213.036 406.665 213.214C406.618 213.277 406.579 213.346 406.549 213.418C406.347 213.882 405.982 214.255 405.523 214.467C405.064 214.68 404.543 214.716 404.059 214.569C403.985 214.545 403.908 214.531 403.831 214.525C403.608 214.511 403.388 214.57 403.201 214.691C403.015 214.813 402.873 214.991 402.796 215.2C402.719 215.409 402.712 215.637 402.775 215.85C402.838 216.064 402.968 216.251 403.146 216.384C403.209 216.431 403.278 216.471 403.35 216.501C403.814 216.703 404.187 217.068 404.399 217.527C404.611 217.986 404.647 218.507 404.5 218.991C404.477 219.065 404.462 219.142 404.457 219.219C404.443 219.442 404.501 219.662 404.623 219.849C404.744 220.035 404.923 220.177 405.131 220.254C405.34 220.331 405.568 220.338 405.782 220.275C405.995 220.212 406.182 220.082 406.316 219.904C406.363 219.841 406.402 219.773 406.432 219.7C406.634 219.236 407 218.863 407.459 218.651C407.918 218.439 408.439 218.403 408.923 218.55C408.997 218.573 409.073 218.588 409.151 218.593C409.373 218.607 409.593 218.549 409.78 218.427C409.966 218.306 410.108 218.127 410.185 217.918C410.262 217.71 410.27 217.482 410.207 217.268C410.143 217.055 410.013 216.867 409.835 216.734C409.772 216.687 409.704 216.648 409.631 216.617Z" fill="#4D8AF0"/>
<path opacity="0.5" d="M285.1 315.984C286.961 315.984 288.469 314.476 288.469 312.615C288.469 310.754 286.961 309.246 285.1 309.246C283.24 309.246 281.731 310.754 281.731 312.615C281.731 314.476 283.24 315.984 285.1 315.984Z" fill="#47E6B1"/>
<path opacity="0.5" d="M5.61105 292.416C7.47161 292.416 8.9799 290.907 8.9799 289.047C8.9799 287.186 7.47161 285.678 5.61105 285.678C3.75048 285.678 2.24219 287.186 2.24219 289.047C2.24219 290.907 3.75048 292.416 5.61105 292.416Z" fill="#47E6B1"/>
<path opacity="0.5" d="M274.999 48.2683C276.859 48.2683 278.368 46.7599 278.368 44.8993C278.368 43.0386 276.859 41.5303 274.999 41.5303C273.138 41.5303 271.63 43.0386 271.63 44.8993C271.63 46.7599 273.138 48.2683 274.999 48.2683Z" fill="#47E6B1"/>
<g opacity="0.5">
<path opacity="0.5" d="M5.61119 0H3.92676V9.53909H5.61119V0Z" fill="#47E6B1"/>
<path opacity="0.5" d="M9.53906 5.61225V3.92773L0.000437737 3.92773V5.61225L9.53906 5.61225Z" fill="#47E6B1"/>
</g>
<g opacity="0.5">
<path opacity="0.5" d="M36.4793 91.4834H34.7949V101.022H36.4793V91.4834Z" fill="#47E6B1"/>
<path opacity="0.5" d="M40.4072 97.0956V95.4111H30.8686V97.0956H40.4072Z" fill="#47E6B1"/>
</g>
<g opacity="0.5">
<path opacity="0.5" d="M345.152 50.5107H343.468V60.0498H345.152V50.5107Z" fill="#47E6B1"/>
<path opacity="0.5" d="M349.085 56.123V54.4385H339.546V56.123H349.085Z" fill="#47E6B1"/>
</g>
</g>
<defs>
<linearGradient id="paint0_linear" x1="254.305" y1="367" x2="254.305" y2="9.41778" gradientUnits="userSpaceOnUse">
<stop stop-color="#808080" stop-opacity="0.25"/>
<stop offset="0.54" stop-color="#808080" stop-opacity="0.12"/>
<stop offset="1" stop-color="#808080" stop-opacity="0.1"/>
</linearGradient>
<clipPath id="clip0">
<rect width="440" height="367" fill="white"/>
</clipPath>
</defs>
</svg>
