<?xml version="1.0" encoding="utf-8"?>
<!-- Generator: Adobe Illustrator 17.0.0, SVG Export Plug-In . SVG Version: 6.00 Build 0)  -->
<!DOCTYPE svg PUBLIC "-//W3C//DTD SVG 1.1//EN" "http://www.w3.org/Graphics/SVG/1.1/DTD/svg11.dtd">
<svg version="1.1" id="Layer_1" xmlns="http://www.w3.org/2000/svg" xmlns:xlink="http://www.w3.org/1999/xlink" x="0px" y="0px"
	 width="207px" height="136px" viewBox="0 0 207 136" enable-background="new 0 0 207 136" xml:space="preserve">
<g>
	<defs>
		<rect id="SVGID_1_" width="207" height="136"/>
	</defs>
	<clipPath id="SVGID_2_">
		<use xlink:href="#SVGID_1_"  overflow="visible"/>
	</clipPath>
	<g clip-path="url(#SVGID_2_)">
		<path opacity="0.1" fill="#B7B7B7" enable-background="new    " d="M191.958,111.597c-0.646,0.567-1.307,1.119-1.982,1.654
			c-0.113,0.092-0.23,0.18-0.346,0.274c-2.407,1.866-4.934,3.572-7.565,5.107l-0.492,0.286c-0.119,0.072-0.236,0.138-0.361,0.205
			c-2.748,1.586-5.6,3.046-8.486,4.428l-0.03,0.017l-0.218,0.102c-2.328,1.115-4.69,2.182-7.087,3.201l-0.058,0.021
			c-1.081,0.455-2.161,0.898-3.242,1.329c-0.441,0.18-0.885,0.347-1.328,0.518c-0.834,0.319-1.67,0.632-2.513,0.933l-0.104,0.039
			l-0.18,0.063l-0.225,0.083c-2.199,0.785-4.428,1.51-6.685,2.175l-0.04,0.01c-1.574,0.459-3.159,0.883-4.754,1.273l-0.218,0.054
			c-2.342,0.565-4.721,1.051-7.115,1.44l-0.552,0.088c-1.75,0.275-3.513,0.5-5.288,0.674c-9.978,0.963-20.075,0.18-29.991-1.163
			c-20.025-2.715-39.784-7.804-57.805-15.78c-3.459-1.53-6.85-3.168-10.174-4.914c-0.027-0.015-0.05-0.029-0.077-0.042
			c-1.99-1.045-3.953-2.134-5.889-3.267c-0.567-0.327-1.131-0.662-1.691-0.999c-0.689-0.415-1.376-0.835-2.059-1.26
			c-0.901-0.562-1.801-1.138-2.702-1.726l-0.421-0.281l-0.162-0.11c-0.229-0.153-0.454-0.306-0.681-0.461
			C12.969,99.808,5.42,92.827,1.853,84.091c-4.122-10.081-1.484-22.861,8.724-28.82c3.509-2.052,7.587-3.166,11.709-4.086
			l0.421-0.094c0.697-0.153,1.394-0.301,2.088-0.448c2.43-0.515,4.873-1.026,7.292-1.597c1.261-0.297,2.509-0.608,3.75-0.945
			l0.508-0.14c2.993-0.803,5.921-1.833,8.757-3.082h0.018c0.305-0.135,0.605-0.275,0.901-0.419c0.191-0.09,0.382-0.18,0.573-0.279
			c3.062-1.523,6.305-3.634,8.8-6.151c0.2-0.202,0.395-0.407,0.584-0.612c0.146-0.16,0.29-0.322,0.429-0.484
			c1.749-2.038,2.96-4.3,3.19-6.702c0.078-0.807,0.041-1.621-0.108-2.417c-0.283-1.51-0.557-2.988-0.758-4.43
			c-0.376-2.709-0.504-5.299,0.018-7.796c0.531-2.545,1.736-4.995,4.037-7.371c0.347-0.36,0.721-0.72,1.122-1.08
			c1.86-1.631,3.965-2.96,6.238-3.939c0.281-0.12,0.564-0.24,0.848-0.36c6.319-2.556,13.912-3.089,21.006-2.736
			c6.628,0.341,13.213,1.256,19.682,2.736c0.513,0.115,1.027,0.236,1.537,0.36c5.503,1.332,10.917,3.005,16.212,5.01
			c13.759,5.172,26.745,12.352,38.877,20.276c0.119,0.077,0.238,0.155,0.361,0.234c0.506,0.33,1.01,0.661,1.511,0.994
			c0.969,0.642,1.93,1.288,2.882,1.939l0.643,0.437c0.317,0.216,0.633,0.433,0.946,0.65l0.966,0.668
			c0.045,0.027,0.088,0.058,0.129,0.092l0.822,0.569c0.475,0.331,0.947,0.664,1.421,0.999l1.016,0.72
			c0.211,0.151,0.423,0.301,0.634,0.454l1.081,0.788l0.241,0.18c0.051,0.036,0.101,0.072,0.15,0.112l0.03,0.02
			c2.929,2.148,5.788,4.374,8.467,6.734l0.346,0.306l0.036,0.032c0.292,0.259,0.583,0.522,0.87,0.787
			c3.498,3.183,6.633,6.603,9.194,10.383C211.82,73.042,208.327,97.219,191.958,111.597z"/>
		<path fill="#65617D" d="M146.193,63.681c0,0,1.048-5.49,4.417-5.519l2.464,5.065l-1.657,1.125
			C151.417,64.353,147.857,64.466,146.193,63.681z"/>
		<path opacity="0.1" enable-background="new    " d="M153.067,63.221l-1.65,1.132c0,0-2.511,0.079-4.305-0.36
			c-0.316-0.073-0.624-0.178-0.919-0.311c0,0,0-0.031,0.018-0.088c-0.001-0.007-0.001-0.014,0-0.022
			c0.155-0.689,0.368-1.363,0.638-2.016c0.102-0.247,0.221-0.5,0.347-0.754c0.494-0.949,1.187-1.879,2.137-2.34
			c0.35-0.172,0.732-0.272,1.122-0.293h0.101h0.048l0.056,0.112l0.833,1.712L153.067,63.221z"/>
		<path fill="#454554" d="M181.046,86.028c0,0,3.539-0.339,3.851-0.085c0.312,0.254,2.322,1.557,3.513,0.736
			c1.19-0.821,0.396-3.679,0.396-3.793c0-0.113-0.113-4.16-0.113-4.16l-2.124-2.859l-2.663-5.008l-5.436-0.54l0.14,7.953
			l-0.027,4.075L181.046,86.028z"/>
		<path opacity="0.1" enable-background="new    " d="M181.046,86.35c0,0,3.539-0.339,3.851-0.085
			c0.312,0.254,2.322,1.557,3.513,0.736c1.19-0.821,0.396-3.679,0.396-3.793c0-0.113-0.113-4.16-0.113-4.16l-2.124-2.859
			l-2.663-5.008l-5.436-0.54l0.14,7.953l-0.027,4.075L181.046,86.35z"/>
		<path fill="#FECEB8" d="M149.895,58.014c0,0-0.28,3.453-2.441,3.507c0,0-0.609-0.36-1.431-0.981
			c-1.891-1.413-4.89-4.131-4.062-6.66c1.189-3.622,6.966,3.06,6.966,3.06l0.445,0.497L149.895,58.014z"/>
		<path opacity="0.1" enable-background="new    " d="M149.895,58.013c0,0-0.28,3.453-2.441,3.507c0,0-0.609-0.36-1.431-0.981
			l-0.18-0.236c0.365,0.191,0.768,0.3,1.18,0.319c0.541,0.011,1.149-0.18,1.54-0.97c0.226-0.444,0.425-0.902,0.597-1.37
			c0.102-0.275,0.174-0.56,0.216-0.85L149.895,58.013z"/>
		<path fill="#E7EFFD" d="M148.96,64.268l-0.485-0.623l-1.621-2.097l-0.841-1.071c0.364,0.19,0.767,0.299,1.178,0.317
			c0.54,0.013,1.149-0.18,1.54-0.97c0.227-0.444,0.426-0.902,0.596-1.37c0.269-0.763,0.263-1.156,0.168-1.289
			c-0.096-0.133,0.601,0.513,0.936,0.832l0.013,0.011l0.155,0.148l0.059,0.115l0.82,1.64c0,0,0,0.023,0,0.068
			C151.554,60.498,151.829,63.799,148.96,64.268z"/>
		<path fill="#FECEB8" d="M180.253,41.826l-4.191,4.473c0,0-5.379-2.16-4.814-2.88c0.22-0.284,0.18-1.183,0.058-2.174
			c-0.198-1.568-0.623-3.373-0.623-3.373s9.401-1.528,8.607,0.058c-0.289,0.578-0.24,1.26-0.06,1.879
			C179.462,40.531,179.807,41.212,180.253,41.826z"/>
		<path opacity="0.1" enable-background="new    " d="M179.29,37.921c-0.289,0.578-0.427,0.634-0.247,1.26
			c-1.229,1.318-2.792,2.759-4.736,2.759c-1.041,0.002-2.069-0.238-3.001-0.702c-0.198-1.568-0.623-3.373-0.623-3.373
			S180.084,36.335,179.29,37.921z"/>
		<path fill="#FECEB8" d="M181.047,35.034c0,1.786-0.71,3.5-1.974,4.763c-1.264,1.263-2.979,1.973-4.766,1.973
			c-1.788,0-3.503-0.71-4.767-1.973c-1.264-1.263-1.974-2.977-1.974-4.763c0-0.032,0-0.065,0-0.097
			c0.039-1.769,0.772-3.452,2.042-4.684c1.271-1.233,2.975-1.917,4.746-1.904c1.77,0.013,3.465,0.721,4.717,1.972
			S181.032,33.264,181.047,35.034L181.047,35.034z"/>
		<path opacity="0.1" enable-background="new    " d="M182.022,79.468c-0.901,0-3.866,0.032-7.188,0.085h-0.041l-1.097,0.018h-0.034
			c-3.94,0.063-7.822-0.706-9.38-0.56c-3.315,0.311,1.189-3.06,1.189-3.06c2.469,0.599,5.009,0.855,7.548,0.763l0.953-0.05
			c3.01-0.169,6.036-0.452,7.618-0.927C181.7,76.615,181.86,77.887,182.022,79.468z"/>
		<path fill="#393944" d="M182.022,79.298c-0.901,0-3.866,0.031-7.188,0.085h-0.041l-1.097,0.018h-0.034
			c-3.94,0.063-7.822-0.706-9.38-0.56c-3.315,0.31,1.189-3.06,1.189-3.06c2.469,0.599,5.009,0.855,7.548,0.761l0.953-0.049
			c3.01-0.169,6.036-0.454,7.618-0.927C181.7,76.445,181.86,77.721,182.022,79.298z"/>
		<path opacity="0.1" enable-background="new    " d="M172.493,43.7l-5.211,2.434L163.263,77.2c0,0,2.378-1.08,3.738-0.396
			c1.36,0.684,5.55,0.058,5.55,0.058s3.062-0.18,3.511,0.169c0.448,0.349,5.778-1.415,5.778-1.415s0.962-2.151,0.226-2.489
			c-0.737-0.339,0.226-3.685,0.226-3.685l-0.452-22.413l-0.9-2.88l-2.436-1.471l-2.491,1.98l-1.189,0.171L172.493,43.7z"/>
		<path fill="#E7EFFD" d="M172.493,43.353l-5.21,2.434l-4.02,31.073c0,0,2.378-1.08,3.738-0.396c1.36,0.684,5.55,0.056,5.55,0.056
			s3.062-0.169,3.511,0.169c0.448,0.338,5.778-1.415,5.778-1.415s0.962-2.149,0.226-2.489c-0.737-0.34,0.226-3.68,0.226-3.68
			l-0.452-22.413l-0.9-2.88l-2.436-1.472l-2.491,1.98l-1.189,0.169L172.493,43.353z"/>
		<path opacity="0.1" enable-background="new    " d="M172.408,44.797c0,0,1.503,1.782,1.474,2.151
			c-0.029,0.369-0.085,1.244-0.085,1.244l-1.124,2.293c0,0-0.623,2.859-0.623,3.453c0,0.594-0.991,5.744-0.991,5.744l-1.189,7.92
			l-1.502,10.387l1.529,2.632l1.812-1.528l2.405-18.505l0.51-3.651c0,0,0.54-6.565,0.54-7.244c0-0.679-0.311-2.463-0.311-2.463
			s0.369-1.697,1.898-2.093c1.53-0.396-0.113-0.086-0.113-0.086l-0.877-0.707l-0.766,0.311
			C174.995,44.655,172.862,44.005,172.408,44.797z"/>
		<path fill="#B7B7B7" d="M172.239,44.627c0,0,1.5,1.782,1.473,2.149c-0.027,0.367-0.086,1.246-0.086,1.246l-1.133,2.293
			c0,0-0.623,2.857-0.623,3.451c0,0.594-0.991,5.746-0.991,5.746l-1.191,7.92l-1.5,10.385l1.529,2.632l1.812-1.528l2.405-18.503
			l0.51-3.651c0,0,0.54-6.565,0.54-7.245c0-0.68-0.312-2.461-0.312-2.461s0.361-1.699,1.897-2.095
			c1.537-0.396-0.111-0.085-0.111-0.085l-0.879-0.708l-0.764,0.311C174.815,44.485,172.693,43.834,172.239,44.627z"/>
		<path opacity="0.1" enable-background="new    " d="M171.248,41.656c0,0-0.227,0.169-0.283,1.301
			c-0.056,1.132-0.85,3.68-0.85,3.68s2.945-2.038,4.419-1.811L171.248,41.656z"/>
		<path fill="#E7EFFD" d="M171.248,41.316c0,0-0.227,0.171-0.283,1.302s-0.85,3.679-0.85,3.679s2.945-2.038,4.419-1.811
			L171.248,41.316z"/>
		<path opacity="0.1" enable-background="new    " d="M179.291,40.75l-4.637,4.076c0,0,3.909,2.32,4.419,2.88
			c0.51,0.56,1.02-5.546,1.02-5.546L179.291,40.75z"/>
		<path fill="#E7EFFD" d="M179.46,40.41l-4.644,4.075c0,0,3.908,2.32,4.417,2.88c0.51,0.56,1.02-5.548,1.02-5.548L179.46,40.41z"/>
		<path opacity="0.1" enable-background="new    " d="M171.412,41.656c0,0-0.51-0.256-0.991,0.481
			c-0.481,0.736-1.387,1.08-1.387,1.08s-5.155,0.821-5.353,1.5l-2.407,0.14c0,0-0.85,0.103-0.929,1.903
			c-0.08,1.8-0.541,1.951-0.541,1.951s-0.992,1.755-0.901,2.661c0.092,0.906-0.765,1.359-0.765,1.359l3.547,9.188
			c0,0,0.113,3.793-0.541,5.179c-0.654,1.386-1.869,7.528-1.869,7.528s0.509-0.113,0.48,0.227c-0.028,0.34-0.623,4.047-0.623,4.047
			s-0.169,1.471-0.452,1.98c-0.283,0.509-0.312,3.17-0.312,3.17l-0.466,1.924c0,0,1.081,2.405,2.72,2.065
			c1.639-0.34,4.615-6.763,4.615-6.763l1.897-6.932l1.473-6.849l0.426-4.641l0.679-10.273l0.99-6.792
			C170.702,45.787,171.814,42.137,171.412,41.656z"/>
		<path fill="#454554" d="M171.248,41.316c0,0-0.51-0.254-0.991,0.482c-0.481,0.736-1.389,1.08-1.389,1.08s-5.154,0.821-5.352,1.5
			l-2.406,0.142c0,0-0.851,0.113-0.935,1.896c-0.085,1.782-0.541,1.953-0.541,1.953s-0.99,1.755-0.9,2.661
			c0.09,0.906-0.764,1.357-0.764,1.357l3.534,9.191c0,0,0.114,3.793-0.54,5.179c-0.654,1.386-1.868,7.528-1.868,7.528
			s0.509-0.113,0.481,0.227c-0.029,0.34-0.624,4.047-0.624,4.047s-0.169,1.471-0.452,1.98c-0.283,0.509-0.311,3.17-0.311,3.17
			l-0.451,1.933c0,0,1.081,2.405,2.719,2.066c1.637-0.338,4.616-6.765,4.616-6.765l1.897-6.932l1.474-6.84l0.423-4.641l0.681-10.271
			l0.991-6.792C170.54,45.467,171.644,41.798,171.248,41.316z"/>
		<path opacity="0.1" enable-background="new    " d="M153.067,63.219l-1.65,1.132c0,0-2.511,0.079-4.306-0.36l-0.915-0.405
			l-0.18-0.081l0.189,0.059c0.948,0.281,1.688,0.275,2.266,0.081c2.326-0.781,2.068-4.617,1.982-5.485
			c0-0.086-0.015-0.142-0.018-0.164c0-0.004,0-0.007,0-0.011l0.014,0.022c0.031,0.053,0.067,0.103,0.107,0.149
			c0.032,0.039,0.067,0.076,0.104,0.11l0.82,1.64c0,0,0,0.023,0,0.068L153.067,63.219z"/>
		<path fill="#454554" d="M158.759,52.16l-0.792,0.227l-0.114,1.62c0,0-0.935-0.14-1.189,0.963c-0.254,1.104-0.708,1.62-0.708,1.62
			s-1.558,1.302-1.643,2.405l-0.963,0.594c0,0-2.238-0.509-2.747-1.415c0,0,1.019,7.301-4.417,5.519c0,0,6.088,2.66,6.371,3.028
			c0.283,0.367,2.153,1.44,3.851,0.54c1.699-0.9,2.068-2.32,2.068-2.32s1.643-2.292,1.699-2.632c0.056-0.34,1.331-0.736,1.331-0.736
			l2.436-5.884L158.759,52.16z"/>
		<path opacity="0.1" enable-background="new    " d="M178.639,44.145l0.822-3.735c0,0,0.36,1.217,0.736,1.499
			c0.377,0.283,1.218,0.934,1.218,0.934s1.218,0.567,1.641,0.567s2.72,0.594,3.003,0.9c0.283,0.306,1.416,0.085,1.416,0.085
			s0.935,0.311,1.756,0.509c0.822,0.198,1.218,1.557,1.047,2.094c-0.068,0.267-0.068,0.548,0.001,0.815
			c0.07,0.267,0.206,0.513,0.395,0.713c0.341,0.34,0.51,1.44,0.51,1.44c0.417,0.136,0.764,0.431,0.964,0.821
			c0.283,0.623,0.198,1.98,0.198,1.98l-4.219,5.94c0,0,0.056,2.292-0.113,2.801c-0.17,0.509,0.594,9.17,0.594,9.17l0.877,14.885
			c0,0-1.16,0.99-1.416,1.104c-0.255,0.113-0.509-5.264-0.509-5.462s-6.541-9.793-6.541-9.793s-0.879-1.415-0.879-1.726
			c0-0.311-0.822-3.168-0.822-3.168l-1.241-5.506L178.639,44.145z"/>
		<path fill="#454554" d="M192.697,52.454c0,0.194-0.011,0.324-0.011,0.324l-4.217,5.94c0,0,0.058,2.293-0.111,2.803
			c-0.099,0.295,0.117,3.341,0.317,5.841c0.142,1.8,0.277,3.327,0.277,3.327l0.371,6.315l0.505,8.572c0,0-1.16,0.99-1.414,1.104
			c-0.254,0.113-0.51-5.264-0.51-5.463c0-0.2-6.546-9.794-6.546-9.794s-0.878-1.417-0.878-1.728c0-0.312-0.821-3.17-0.821-3.17
			l-1.245-5.517l0.566-16.867l0.481-3.735c0,0,0.708,1.219,1.081,1.5c0.372,0.281,1.215,0.934,1.215,0.934s1.218,0.567,1.643,0.567
			c0.425,0,2.719,0.594,3.003,0.9c0.285,0.306,1.416,0.085,1.416,0.085s0.933,0.311,1.755,0.509
			c0.821,0.198,1.217,1.557,1.048,2.093c-0.069,0.267-0.069,0.548,0.001,0.815c0.069,0.267,0.205,0.513,0.395,0.713
			c0.339,0.338,0.51,1.44,0.51,1.44c0.417,0.136,0.763,0.431,0.964,0.821C192.685,51.228,192.703,52.013,192.697,52.454z"/>
		<path opacity="0.1" enable-background="new    " d="M162.094,128.221c-0.442,0.18-0.885,0.347-1.328,0.518
			c-1.389-0.405-2.686-0.882-2.686-0.882C159.424,127.905,160.763,128.027,162.094,128.221z"/>
		<path opacity="0.1" enable-background="new    " d="M175.496,113.111c0,0,3.37,0.792,3.568,1.331L175.496,113.111z"/>
		<path opacity="0.1" enable-background="new    " d="M162.497,115.545c0,0-1.756,0.509-0.056,1.528
			C164.142,118.092,162.497,115.545,162.497,115.545z"/>
		<path opacity="0.1" enable-background="new    " d="M170.284,88.342c0.198,0,3.286-1.019,4.361-0.565
			c1.076,0.454,2.409,0.452,2.409,0.452L170.284,88.342z"/>
		<path opacity="0.1" enable-background="new    " d="M170.691,91.582l-0.03,0.281l-2.641,6.902c0,0-0.425,2.093-0.794,3.281
			c-0.232,0.808-0.416,1.628-0.552,2.457l2.342-14.483L170.691,91.582z"/>
		<path fill="#3F3D56" d="M174.793,79.384l-1.097,0.018h-0.034l-0.643-2.853c0.315-0.014,0.634-0.031,0.952-0.05L174.793,79.384z"/>
		<path fill="#FECEB8" d="M188.154,75.922l-0.704,0.581l-2.347,1.939c0,0-6.372,3.397-8.126,0.169
			c-1.548-2.842,5.676-4.871,7.416-5.314c0.236-0.059,0.371-0.09,0.371-0.09L188.154,75.922z"/>
		<path opacity="0.1" enable-background="new    " d="M160.94,48.107c0,0,1.245,0.567,1.528,1.359
			C162.751,50.259,160.94,48.107,160.94,48.107z"/>
		<path opacity="0.1" enable-background="new    " d="M157.087,56.6c0,0-1.812,2.207-1.081,3.06
			C156.738,60.513,157.087,56.6,157.087,56.6z"/>
		<path opacity="0.1" enable-background="new    " d="M189.485,49.354c0,0-1.698,0.169-1.756,1.642L189.485,49.354z"/>
		<path opacity="0.1" enable-background="new    " d="M173.739,72.558c0.18-0.169,4.079-5.94,4.985-5.433L173.739,72.558z"/>
		<path opacity="0.1" enable-background="new    " d="M181.047,35.034c0.001,1.109-0.273,2.201-0.798,3.179h-0.05
			c-0.427-0.09-0.649-0.587-0.975-0.9c-0.2-0.191-0.456-0.314-0.73-0.352s-0.553,0.01-0.799,0.138
			c-0.248,0.148-0.45,0.363-0.583,0.619c-0.133,0.257-0.191,0.545-0.168,0.833c-0.216-0.9-0.148-1.87-0.36-2.778
			c-0.213-0.907-0.845-1.827-1.713-1.843c-0.375,0-0.811,0.139-1.081-0.142c-0.164-0.169-0.197-0.436-0.319-0.641
			c-0.622-1.003-2.509-0.495-3.28,0.02c-0.771,0.515-1.667,1.336-2.625,1.777c0.039-1.769,0.772-3.452,2.042-4.684
			c1.271-1.233,2.975-1.917,4.746-1.904c1.77,0.013,3.465,0.721,4.717,1.972c1.252,1.251,1.961,2.944,1.975,4.714L181.047,35.034z"
			/>
		<path fill="#393944" d="M173.473,32.97c0.122,0.205,0.155,0.472,0.319,0.641c0.27,0.279,0.706,0.135,1.081,0.142
			c0.868,0.014,1.502,0.934,1.713,1.841c0.21,0.907,0.142,1.872,0.36,2.778c-0.022-0.288,0.036-0.576,0.169-0.832
			c0.132-0.256,0.334-0.471,0.582-0.619c0.245-0.128,0.524-0.177,0.798-0.138c0.274,0.038,0.529,0.162,0.73,0.352
			c0.326,0.31,0.54,0.806,0.976,0.9c0.436,0.094,0.84-0.321,0.994-0.771c0.155-0.45,0.143-0.943,0.244-1.41
			c0.192-0.884,0.769-1.608,1.08-2.446c0.38-1.021,0.37-2.147-0.028-3.161c-0.213-0.54-0.528-1.01-0.744-1.541
			c-0.325-0.807-0.411-1.715-0.807-2.484c-0.667-1.287-2.238-1.93-3.527-1.44c-0.617,0.232-1.152,0.68-1.777,0.88
			c-0.835,0.268-1.731,0.067-2.597-0.054c-0.867-0.121-1.825-0.131-2.522,0.437c-0.802,0.655-1.022,1.886-1.775,2.607
			c-0.317,0.302-0.709,0.495-1.042,0.774c-0.334,0.279-0.622,0.695-0.584,1.149c0.05,0.587,0.625,1.12,0.412,1.661
			c-0.076,0.158-0.183,0.298-0.315,0.414c-0.63,0.661-1.099,1.459-1.371,2.331c1.517,0.473,3.156-1.197,4.343-1.98
			C170.965,32.475,172.853,31.966,173.473,32.97z"/>
		<path opacity="0.1" enable-background="new    " d="M188.154,75.921l-0.705,0.581c-0.621-1.035-3.174-3.102-3.174-3.102
			l0.11-0.106c0.236-0.059,0.371-0.09,0.371-0.09L188.154,75.921z"/>
		<path fill="#E7EFFD" d="M188.835,74.879c0,0-0.254,0.63-0.515,1.175c-0.262,0.545-0.541,1.039-0.562,0.637
			c-0.029-0.794-3.313-3.454-3.313-3.454l0.445-0.432l0.517-0.502L188.835,74.879z"/>
		<path opacity="0.1" enable-background="new    " d="M188.949,70.691l0.371,6.315c-0.879-1.366-3.295-4.871-4.848-4.758l3.767-4.32
			c0.157-0.174,0.302-0.359,0.432-0.554C188.814,69.17,188.949,70.691,188.949,70.691z"/>
		<path opacity="0.1" enable-background="new    " d="M188.835,74.879c0,0-0.254,0.63-0.515,1.175
			c-0.988-1.354-2.342-2.95-3.423-3.249l0.517-0.502L188.835,74.879z"/>
		<path fill="#454554" d="M191.667,51.98l1.019,0.792c0,0,1.699,0.029,1.868,1.44c0.17,1.411,1.728,2.066,1.728,2.066
			s1.162,1.159,1.162,1.698c0,0.538,0.877,1.5,0.877,1.584c0,0.085,0.85,1.811,0.737,2.122c-0.114,0.311,0.9,1.67,0.594,2.18
			c-0.256,0.457-0.482,0.93-0.679,1.415c0,0-1.331,2.547-2.012,3.028c-0.681,0.481-3.794,4.527-3.794,4.527s-3.341,3.849-3.341,5.04
			c0,0-3.257-5.435-5.183-5.292l3.767-4.329c0,0,0.65-0.708,0.679-1.132c0.029-0.425,1.812-2.378,2.662-2.463
			c0,0,0.141-1.161-0.227-1.188c-0.367-0.027-0.679-0.934-0.679-0.934s-2.493-2.943-2.522-4.812
			C188.294,55.854,191.667,51.98,191.667,51.98z"/>
		<path opacity="0.1" enable-background="new    " d="M193.167,54.68c0,0-2.38,1.753-1.87,2.32
			C191.807,57.567,193.167,54.68,193.167,54.68z"/>
		<path opacity="0.1" enable-background="new    " d="M193.281,61.918c0,0,4.417-1.415,4.864,0H193.281z"/>
		<path opacity="0.1" enable-background="new    " d="M162.115,54.334c0,0,0,6.452-0.553,7.089
			C161.009,62.06,162.115,54.334,162.115,54.334z"/>
		<path opacity="0.1" enable-background="new    " d="M187.644,56.414l0.821,2.306C188.465,58.72,188.791,56.457,187.644,56.414z"/>
		<g opacity="0.1">
			<path opacity="0.1" enable-background="new    " d="M167.629,31.679c0.207-0.531-0.335-1.051-0.407-1.62
				c-0.071,0.161-0.102,0.336-0.09,0.511c0.036,0.43,0.36,0.83,0.438,1.228C167.593,31.76,167.613,31.72,167.629,31.679z"/>
			<path opacity="0.1" enable-background="new    " d="M177.019,37.775c-0.203-0.9-0.144-1.838-0.349-2.729
				c-0.205-0.891-0.845-1.829-1.713-1.843c-0.375,0-0.811,0.137-1.081-0.142c-0.164-0.169-0.196-0.436-0.319-0.641
				c-0.619-1.003-2.507-0.495-3.28,0.02c-1.158,0.769-2.749,2.378-4.235,2.014c-0.07,0.171-0.137,0.344-0.193,0.522
				c1.517,0.473,3.156-1.197,4.343-1.98c0.773-0.513,2.659-1.023,3.281-0.018c0.122,0.205,0.154,0.472,0.318,0.641
				c0.271,0.279,0.707,0.135,1.081,0.142c0.868,0.014,1.503,0.934,1.713,1.841c0.211,0.907,0.143,1.872,0.361,2.778
				C176.93,38.175,176.955,37.969,177.019,37.775z"/>
			<path opacity="0.1" enable-background="new    " d="M181.278,36.712c-0.155,0.45-0.558,0.862-0.994,0.771
				c-0.436-0.092-0.649-0.587-0.975-0.9c-0.201-0.19-0.456-0.313-0.731-0.351c-0.274-0.038-0.553,0.01-0.798,0.138
				c-0.236,0.141-0.431,0.342-0.563,0.583c-0.132,0.241-0.197,0.513-0.188,0.787c0.113-0.346,0.351-0.637,0.666-0.819
				c0.245-0.128,0.524-0.177,0.798-0.138c0.274,0.038,0.529,0.162,0.73,0.352c0.326,0.31,0.54,0.806,0.976,0.9
				c0.436,0.094,0.839-0.32,0.994-0.77c0.08-0.265,0.132-0.538,0.155-0.814C181.33,36.539,181.306,36.626,181.278,36.712z"/>
			<path opacity="0.1" enable-background="new    " d="M182.609,32.857c-0.319,0.839-0.901,1.563-1.081,2.445
				c-0.039,0.18-0.061,0.36-0.083,0.54c0.193-0.878,0.768-1.6,1.081-2.437c0.142-0.377,0.23-0.772,0.261-1.174
				C182.745,32.444,182.685,32.653,182.609,32.857z"/>
		</g>
		<path fill="#E6E8EC" d="M141.684,53.347c0.039,0,0.07-0.031,0.07-0.07c0-0.039-0.031-0.07-0.07-0.07s-0.07,0.031-0.07,0.07
			C141.614,53.316,141.645,53.347,141.684,53.347z"/>
		<path fill="#B7B7B7" d="M85.072,92.775c0,0,1.981-1.42,4.04-0.54c0,0-0.576,1.22-3.134,1.204L85.072,92.775z"/>
		<path fill="#B7B7B7" d="M84.825,92.859c0,0-0.53,2.382,1.081,3.926c0,0,0.901-1.008-0.121-3.354L84.825,92.859z"/>
		<path fill="#B7B7B7" d="M82.199,90.69c0,0,0.074-2.011,4.63-1.519c0,0,0.072,1.294-1.495,1.968
			C83.766,91.812,83.018,91.324,82.199,90.69z"/>
		<path fill="#B7B7B7" d="M81.919,90.682c0,0-1.892,0.688-0.022,4.869c0,0,1.261-0.331,1.412-2.029
			C83.461,91.825,82.773,91.272,81.919,90.682z"/>
		<path fill="#B7B7B7" d="M79.246,87.943c0,0-0.385-3.289,4.258-3.129c0,0,0.443,2.974-3.41,3.89L79.246,87.943z"/>
		<path fill="#B7B7B7" d="M76.044,84.336c0,0,0.492-3.764,5.163-2.826c0,0,0.141,3.24-4.374,3.688L76.044,84.336z"/>
		<path fill="#B7B7B7" d="M73.66,80.569c0,0,0.922-3.69,5.55-2.767c0,0-0.965,3.316-5.224,3.42L73.66,80.569z"/>
		<path fill="#B7B7B7" d="M71.392,76.891c0,0,0.901-3.82,5.363-2.853c0,0-1.34,3.647-5.044,3.487L71.392,76.891z"/>
		<path fill="#B7B7B7" d="M69.884,73.37c0,0,0.621-4.65,4.793-3.789c0,0-1.038,4.252-4.46,4.45L69.884,73.37z"/>
		<path fill="#B7B7B7" d="M68.436,69.102c0,0,0.78-4.696,5.004-3.501c0,0-1.468,4.466-4.684,4.14L68.436,69.102z"/>
		<path fill="#B7B7B7" d="M67.487,65.121c0,0,1.344-4.718,4.579-4.716c0,0-1.369,4.981-4.273,5.64L67.487,65.121z"/>
		<path fill="#B7B7B7" d="M66.833,61.216c0,0,1.441-5.672,4.086-5.341c0,0-0.982,4.331-3.963,6.21L66.833,61.216z"/>
		<path fill="#B7B7B7" d="M66.366,56.544c0,0,1.373-4.734,3.963-5.019c0,0-0.881,4.639-3.857,6.23L66.366,56.544z"/>
		<path fill="#B7B7B7" d="M65.885,52.197c0,0,1.756-4.752,3.468-4.923c0,0-0.665,4.639-3.268,5.685L65.885,52.197z"/>
		<path fill="#B7B7B7" d="M65.514,48.148c0,0,0.996-5.129,2.691-5.615c0,0-0.074,4.166-2.504,5.987L65.514,48.148z"/>
		<path fill="#B7B7B7" d="M64.666,42.86c0,0,1.097-4.099,2.461-4.768c0,0-0.092,4.785-2.1,5.746L64.666,42.86z"/>
		<path fill="#B7B7B7" d="M63.998,39.392l-0.526-7.134c0,0,2.794,5.292,0.758,8.381L63.998,39.392z"/>
		<path fill="#B7B7B7" d="M61.723,32.37c0,0-2.064-5.143-2.522-5.417c0,0,3.783,3.24,3.603,7.609L61.723,32.37z"/>
		<path fill="#B7B7B7" d="M79.118,87.922c0,0-3.3-0.302-3.024,4.331c0,0,2.987,0.36,3.808-3.503L79.118,87.922z"/>
		<path fill="#B7B7B7" d="M75.883,84.217c0,0-3.795,0.133-3.304,4.86c0,0,3.206,0.446,4.087-4L75.883,84.217z"/>
		<path fill="#B7B7B7" d="M73.635,80.88c0,0-3.507-1.483-5.552,2.767c0,0,3.233,1.224,5.882-2.106L73.635,80.88z"/>
		<path fill="#B7B7B7" d="M71.317,76.927c0,0-3.594-1.582-5.509,2.567c0,0,3.724,1.123,5.824-1.933L71.317,76.927z"/>
		<path fill="#B7B7B7" d="M69.933,73.47c0,0-3.518-3.111-6.101,0.27c0,0,3.57,2.533,6.285,0.445L69.933,73.47z"/>
		<path fill="#B7B7B7" d="M68.626,68.985c0,0-3.543-3.184-6.098,0.385c0,0,3.938,2.572,6.245,0.304L68.626,68.985z"/>
		<path fill="#B7B7B7" d="M67.833,64.971c0,0-2.79-4.036-5.851-2.995c0,0,2.897,4.277,5.858,3.96L67.833,64.971z"/>
		<path fill="#B7B7B7" d="M66.909,61.187c0,0-2.852-5.112-5.323-4.111c0,0,2.064,3.933,5.426,4.985L66.909,61.187z"/>
		<path fill="#B7B7B7" d="M66.537,56.272c0,0-2.882-3.998-5.415-3.399c0,0,2.385,4.074,5.725,4.576L66.537,56.272z"/>
		<path fill="#B7B7B7" d="M66.17,52.096c0,0-2.288-4.522-4.008-4.5c0,0,1.191,4.533,3.895,5.276L66.17,52.096z"/>
		<path fill="#B7B7B7" d="M65.596,48.043c0,0-2.522-4.572-4.291-4.513c0,0,1.355,3.94,4.228,4.927L65.596,48.043z"/>
		<path fill="#B7B7B7" d="M65.053,43.132c0,0-1.904-3.791-3.374-4.171c0,0,1.057,4.668,3.221,5.202L65.053,43.132z"/>
		<path fill="#B7B7B7" d="M63.783,39.265l-4.154-5.825c0,0,1.232,5.854,4.77,6.939L63.783,39.265z"/>
		<path fill="#B7B7B7" d="M60.842,32.884c0,0-4.684-2.972-4.864-3.472c0,0,2.497,4.32,6.827,4.931L60.842,32.884z"/>
		<path fill="#B7B7B7" d="M60.514,31.479c0,0-5.429-4.83-6.766-4.774c0,0,4.323,0.032,6.881,4.5L60.514,31.479z"/>
		<path fill="#444053" d="M65.032,43.879l-0.191,0.032c-1.279-7.659-2.882-12.154-4.53-12.655l0.056-0.18
			C62.108,31.602,63.72,36.032,65.032,43.879z"/>
		<path fill="#444053" d="M67.183,62.23l-0.286,0.036c-0.088-0.72-0.162-1.451-0.223-2.182c-0.519-6.362-1.169-12.196-1.897-16.561
			l0.159-0.212c0.721,4.372,1.508,10.379,2.028,16.741C67.02,60.788,67.096,61.521,67.183,62.23z"/>
		<path fill="#444053" d="M90.591,96.235c-0.052-0.022-5.213-2.09-10.688-7.29c-3.205-3.043-5.908-6.574-8.007-10.462
			c-2.625-4.86-4.343-10.894-5.067-16.791l0.306,0.13c1.621,13.234,8.023,22.08,13.022,26.832c5.42,5.154,10.524,7.201,10.574,7.224
			L90.591,96.235z"/>
		<g opacity="0.7">
			<path opacity="0.7" fill="#B7B7B7" enable-background="new    " d="M94.178,90.364c0,0,2.317-0.765,4.017,0.682
				c0,0-0.913,0.995-3.351,0.218L94.178,90.364z"/>
			<path opacity="0.7" fill="#B7B7B7" enable-background="new    " d="M93.917,90.367c0,0-1.214,2.117-0.133,4.072
				c0,0,1.158-0.697,0.883-3.24L93.917,90.367z"/>
			<path opacity="0.7" fill="#B7B7B7" enable-background="new    " d="M92.054,87.521c0,0,0.67-1.899,4.864-0.074
				c0,0-0.317,1.26-2.014,1.44S92.649,88.368,92.054,87.521z"/>
			<path opacity="0.7" fill="#B7B7B7" enable-background="new    " d="M91.791,87.443c0,0-2.012,0.095-1.47,4.642
				c0,0,1.293,0.058,1.951-1.516C92.93,88.997,92.431,88.246,91.791,87.443z"/>
			<path opacity="0.7" fill="#B7B7B7" enable-background="new    " d="M90.053,84.022c0,0,0.613-3.255,4.997-1.721
				c0,0-0.463,2.97-4.413,2.7L90.053,84.022z"/>
			<path opacity="0.7" fill="#B7B7B7" enable-background="new    " d="M88.069,79.621c0,0,1.591-3.447,5.764-1.163
				c0,0-0.827,3.127-5.273,2.219L88.069,79.621z"/>
			<path opacity="0.7" fill="#B7B7B7" enable-background="new    " d="M86.915,75.317c0,0,1.982-3.249,6.125-0.992
				c0,0-1.909,2.88-6.006,1.721L86.915,75.317z"/>
			<path opacity="0.7" fill="#B7B7B7" enable-background="new    " d="M85.847,71.13c0,0,1.992-3.381,5.972-1.131
				c0,0-2.365,3.084-5.858,1.829L85.847,71.13z"/>
			<path opacity="0.7" fill="#B7B7B7" enable-background="new    " d="M85.456,67.32c0,0,1.982-4.257,5.7-2.193
				c0,0-2.257,3.75-5.584,2.922L85.456,67.32z"/>
			<path opacity="0.7" fill="#B7B7B7" enable-background="new    " d="M85.342,62.816c0,0,2.144-4.252,5.82-1.854
				c0,0-2.733,3.827-5.707,2.551L85.342,62.816z"/>
			<path opacity="0.7" fill="#B7B7B7" enable-background="new    " d="M85.623,58.729c0,0,2.688-4.104,5.775-3.141
				c0,0-2.79,4.349-5.764,4.115L85.623,58.729z"/>
			<path opacity="0.7" fill="#B7B7B7" enable-background="new    " d="M86.16,54.81c0,0,3.062-4.988,5.491-3.883
				c0,0-2.228,3.842-5.629,4.75L86.16,54.81z"/>
			<path opacity="0.7" fill="#B7B7B7" enable-background="new    " d="M87.107,50.211c0,0,2.72-4.11,5.274-3.613
				c0,0-2.221,4.167-5.537,4.803L87.107,50.211z"/>
			<path opacity="0.7" fill="#B7B7B7" enable-background="new    " d="M87.939,45.92c0,0,3.093-4.016,4.777-3.67
				c0,0-2.016,4.23-4.812,4.457L87.939,45.92z"/>
			<path opacity="0.7" fill="#B7B7B7" enable-background="new    " d="M88.792,41.941c0,0,2.477-4.599,4.242-4.56
				c0,0-1.311,3.96-4.176,4.972L88.792,41.941z"/>
			<path opacity="0.7" fill="#B7B7B7" enable-background="new    " d="M89.557,36.642c0,0,2.266-3.586,3.769-3.822
				c0,0-1.513,4.542-3.716,4.86L89.557,36.642z"/>
			<path opacity="0.7" fill="#B7B7B7" enable-background="new    " d="M89.95,33.129l1.621-6.965c0,0,1.093,5.881-1.765,8.232
				L89.95,33.129z"/>
			<path opacity="0.7" fill="#B7B7B7" enable-background="new    " d="M89.869,25.75c0,0-0.439-5.525-0.798-5.922
				c0,0,2.653,4.223,1.171,8.334L89.869,25.75z"/>
			<path opacity="0.7" fill="#B7B7B7" enable-background="new    " d="M89.937,83.96c0,0-3.062-1.273-4.176,3.24
				c0,0,2.74,1.24,4.684-2.212L89.937,83.96z"/>
			<path opacity="0.7" fill="#B7B7B7" enable-background="new    " d="M87.952,79.459c0,0-3.662-1.001-4.603,3.665
				c0,0,2.927,1.381,5.094-2.603L87.952,79.459z"/>
			<path opacity="0.7" fill="#B7B7B7" enable-background="new    " d="M86.799,75.605c0,0-2.906-2.459-6.125,0.992
				c0,0,2.722,2.13,6.242-0.263L86.799,75.605z"/>
			<path opacity="0.7" fill="#B7B7B7" enable-background="new    " d="M85.762,71.145c0,0-2.958-2.579-6.022,0.817
				c0,0,3.219,2.178,6.135-0.117L85.762,71.145z"/>
			<path opacity="0.7" fill="#B7B7B7" enable-background="new    " d="M85.472,67.43c0,0-2.434-4.016-5.905-1.557
				c0,0,2.653,3.481,5.867,2.293L85.472,67.43z"/>
			<path opacity="0.7" fill="#B7B7B7" enable-background="new    " d="M85.558,62.76c0,0-2.435-4.092-5.944-1.44
				c0,0,2.994,3.627,5.872,2.148L85.558,62.76z"/>
			<path opacity="0.7" fill="#B7B7B7" enable-background="new    " d="M85.994,58.69c0,0-1.461-4.68-4.694-4.599
				c0,0,1.493,4.947,4.413,5.532L85.994,58.69z"/>
			<path opacity="0.7" fill="#B7B7B7" enable-background="new    " d="M86.241,54.804c0,0-1.201-5.728-3.859-5.507
				c0,0,0.8,4.369,3.696,6.371L86.241,54.804z"/>
			<path opacity="0.7" fill="#B7B7B7" enable-background="new    " d="M87.351,50.001c0,0-1.562-4.68-4.159-4.86
				c0,0,1.066,4.601,4.104,6.072L87.351,50.001z"/>
			<path opacity="0.7" fill="#B7B7B7" enable-background="new    " d="M88.242,45.905c0,0-0.838-4.997-2.488-5.485
				c0,0-0.213,4.68,2.149,6.196L88.242,45.905z"/>
			<path opacity="0.7" fill="#B7B7B7" enable-background="new    " d="M88.909,41.866c0,0-1.05-5.116-2.753-5.58
				c0,0,0.119,4.164,2.571,5.96L88.909,41.866z"/>
			<path opacity="0.7" fill="#B7B7B7" enable-background="new    " d="M89.845,37.015c0,0-0.69-4.185-1.981-4.988
				c0,0-0.38,4.772,1.526,5.926L89.845,37.015z"/>
			<path opacity="0.7" fill="#B7B7B7" enable-background="new    " d="M89.784,32.946l-2.232-6.795c0,0-0.567,5.957,2.488,8.045
				L89.784,32.946z"/>
			<path opacity="0.7" fill="#B7B7B7" enable-background="new    " d="M88.875,25.982c0,0-3.587-4.23-3.603-4.763
				c0,0,1.097,4.86,5.044,6.736L88.875,25.982z"/>
			<path opacity="0.7" fill="#B7B7B7" enable-background="new    " d="M88.979,24.543c0,0-3.745-6.227-5.044-6.57
				c0,0,4.122,1.318,5.224,6.344L88.979,24.543z"/>
			<path opacity="0.7" fill="#444053" enable-background="new    " d="M89.601,37.724l-0.191-0.027
				c1.059-7.692,0.861-12.462-0.558-13.429l0.11-0.158C90.465,25.134,90.687,29.839,89.601,37.724z"/>
			<path opacity="0.7" fill="#444053" enable-background="new    " d="M86.192,55.884l-0.285-0.052
				c0.13-0.711,0.276-1.44,0.438-2.149c1.398-6.227,2.522-11.991,3.118-16.381l0.214-0.155c-0.605,4.39-1.65,10.358-3.051,16.592
				C86.468,54.458,86.32,55.176,86.192,55.884z"/>
			<path opacity="0.7" fill="#444053" enable-background="new    " d="M98.416,95.307c-0.043-0.034-4.356-3.546-8.032-10.136
				c-2.158-3.858-3.689-8.033-4.538-12.37c-1.059-5.422-0.901-11.701,0.16-17.537l0.254,0.214
				c-2.387,13.119,1.081,23.466,4.444,29.489c3.641,6.531,7.903,10.005,7.946,10.039L98.416,95.307z"/>
		</g>
		
			<linearGradient id="SVGID_3_" gradientUnits="userSpaceOnUse" x1="25.8445" y1="-49849.4609" x2="25.8445" y2="-21911.0586" gradientTransform="matrix(1 0 0 -1 8.4 112.04)">
			<stop  offset="0" style="stop-color:#808080;stop-opacity:0.25"/>
			<stop  offset="0.54" style="stop-color:#808080;stop-opacity:0.12"/>
			<stop  offset="1" style="stop-color:#808080;stop-opacity:0.1"/>
		</linearGradient>
		<path fill="url(#SVGID_3_)" d="M55.367,78.725c-0.424,0.174-0.863,0.306-1.313,0.393c-0.786,0.147-1.584,0.222-2.383,0.225
			c0.023,0.211,0.041,0.407,0.059,0.585c0.043,0.49,0.069,0.826,0.069,0.826l-0.845-0.058l-6.968-0.475l-4.075-0.603
			c0.197,0.264,0.41,0.515,0.639,0.751c0.237,0.251,0.512,0.464,0.814,0.632c0,0,3.677,2.976,4.313,3.003
			c0.09,0,0.119,0.09,0.104,0.232c1.547,0,6.359,0.225,5.024,2.902c-0.221,0.477-0.61,0.856-1.093,1.064
			c-1.544,0.653-3.873-0.522-5.073-1.244c-0.117,0.229-0.229,0.441-0.328,0.623c-0.204,0.383-0.346,0.637-0.346,0.637l-0.121-0.086
			l-6.182-4.4l-1.355-1.148c-0.398-0.018-0.792-0.087-1.173-0.203l-0.18-0.058c-0.008,0.016-0.014,0.032-0.02,0.049
			c-0.049,0.14-0.086,0.285-0.11,0.432c0,0.022,0,0.043,0,0.065c-0.025,0.168-0.042,0.337-0.051,0.506
			c0,0.115-0.009,0.238-0.009,0.36c-0.011,2.452,0.973,6.392,0.973,6.392s2.549,6.497,1.645,7.996
			c-0.047,0.076-0.108,0.142-0.18,0.194c-0.319,0.23-0.51,0.641-0.609,1.129c-0.337,1.591,0.254,4.02,0.254,4.02
			s-0.054,0.09-0.146,0.23c-0.199,0.317-0.423,0.618-0.67,0.9c-0.038,0.043-0.077,0.088-0.119,0.13
			c-0.111,0.117-0.232,0.225-0.36,0.324c0.023,0.07,0.049,0.142,0.074,0.219c0.025,0.078,0.058,0.198,0.083,0.306
			c0.201,0.885,0.122,1.81-0.225,2.648c-0.236,0.611-0.389,1.251-0.454,1.903c-0.117,1.193-0.086,2.396,0.092,3.582
			c-0.027-0.014-0.05-0.029-0.077-0.041c-1.992-1.041-3.956-2.127-5.892-3.26c-0.567-0.328-1.131-0.663-1.691-0.999
			c-0.689-0.416-1.376-0.836-2.059-1.26c-0.901-0.562-1.801-1.138-2.702-1.727l-0.421-0.281l-0.162-0.109
			c-0.229-0.153-0.454-0.306-0.681-0.461c-0.931-1.203-1.782-2.466-2.547-3.78c-0.128-0.229-0.243-0.447-0.339-0.647v-0.01
			l-0.061-0.132l-0.254-0.09c-0.477-0.167-0.78-0.284-0.78-0.284c0.22-0.803,0.326-1.634,0.313-2.466
			c-0.014-1.62-0.463-3.78-2.311-5.512c-2.731-2.58-3.107-5.127-3.147-6.104c0-0.068,0-0.13,0-0.18
			c-0.001-0.082,0.003-0.165,0.011-0.247l0.209-0.2c-0.53-0.106-1.027-0.155-1.027-0.155s1.812-6.552,4.864-8.74
			c1.513-1.08,2.772-2.88,3.662-4.425c1.623-2.791,3.446-5.462,5.455-7.991l0.549-0.693l0.16-0.203l0.034-0.041l0.043-0.058
			c-0.074-0.113-0.15-0.224-0.227-0.335l-0.05-0.074c-0.24-0.36-0.445-0.72-0.413-1.15c0,0,0-0.009,0-0.013c0-0.031,0-0.059,0-0.092
			c0.008-0.072,0.021-0.143,0.04-0.212c0.006,0.012,0.013,0.022,0.022,0.032c0.258-0.749,1.25-1.08,1.982-1.494
			c1.724-0.968,2.459-3.087,2.828-5.058c0.286-1.534,0.524-3.253,1.713-4.237c0.767-0.634,1.801-0.842,2.578-1.471
			c0.449-0.397,0.821-0.873,1.095-1.406c0.18-0.306,0.335-0.623,0.503-0.929c0.767-1.386,1.776-2.675,3.111-3.505
			c1.335-0.83,3.028-1.152,4.491-0.594c0.564,0.214,1.081,0.54,1.621,0.779c0.334,0.136,0.678,0.243,1.03,0.32
			c1.101,0.257,2.259,0.324,3.293,0.783c1.681,0.745,2.774,2.394,3.772,3.96c0.517,0.81,1.329,1.995,1.791,3.186
			c0-0.043,0-0.083,0-0.124c0.222,0.525,0.344,1.087,0.36,1.656c0.009,0.243-0.017,0.485-0.077,0.72
			c-0.166,0.612-0.589,0.999-1.12,1.284l-0.085,0.041c-0.114,0.058-0.23,0.111-0.349,0.157c-0.018,0.099-0.038,0.2-0.06,0.297
			c-0.009,0.041-0.02,0.085-0.031,0.126c-0.023,0.101-0.05,0.2-0.079,0.299c-0.385,1.287-1.136,2.434-2.162,3.301
			c-0.71,0.607-1.531,1.072-2.417,1.368c-0.063,0.022-0.13,0.038-0.193,0.058c-0.054,0.151-0.13,0.292-0.227,0.419
			c-0.07,0.09-0.153,0.169-0.245,0.236c-0.057,0.039-0.118,0.074-0.18,0.104c-0.015,0.01-0.032,0.018-0.049,0.023
			c-0.649,0.292-1.537,0.063-2.162-0.373c-0.032-0.022-0.063-0.047-0.094-0.07c0,0.103-0.016,0.211-0.034,0.322
			c-0.018,0.112-0.031,0.18-0.05,0.274c-0.02,0.094-0.027,0.139-0.04,0.205c-0.013,0.067-0.022,0.112-0.032,0.164l-0.022,0.092
			c-0.357,1.737-1.038,3.392-2.007,4.878c-0.141,0.213-0.293,0.418-0.456,0.614l-0.447,0.68v0.092
			c0.085,1.566-0.431,3.026-1.158,4.282c-0.244,0.417-0.511,0.819-0.802,1.204l0.101,0.059c1.009,0.574,2.997,1.595,4.255,1.508
			c0,0,4.756,0.614,5.307,0.306c0.076-0.043,0.15,0.016,0.218,0.144c0.769-0.468,2.538-1.46,3.934-1.591
			c0.976-0.094,1.771,0.232,1.918,1.44C57.114,77.508,56.387,78.287,55.367,78.725z"/>
		<path fill="#FECEB8" d="M29.335,103.477c0.305,0.519,0.486,1.1,0.531,1.7c0.045,0.6-0.048,1.203-0.272,1.761
			c-0.438,1.096-0.486,2.463-0.441,3.465c-0.567-0.327-1.131-0.662-1.691-0.999c-0.689-0.415-1.376-0.835-2.059-1.26
			c-0.901-0.561-1.801-1.137-2.702-1.726l-0.422-0.281l-0.162-0.11c-0.014-0.026-0.032-0.05-0.052-0.072
			c-0.241-0.255-1.648-2.271-2.484-3.802c-0.151-0.28-0.283-0.54-0.387-0.777v-0.013c-0.18-0.399-0.265-0.72-0.211-0.866
			c0.066-0.229,0.177-0.443,0.327-0.629c0.15-0.186,0.336-0.339,0.547-0.451c1.038-0.54,2.702-0.041,4.348,0.753
			c1.417,0.715,2.774,1.542,4.06,2.471l0.146,0.107l0.014,0.01c0.541,0.384,0.854,0.638,0.854,0.638S29.303,103.424,29.335,103.477z
			"/>
		<path opacity="0.05" enable-background="new    " d="M29.331,104.05c0.305,0.52,0.487,1.102,0.532,1.703
			c0.045,0.601-0.048,1.204-0.273,1.763c-0.438,1.096-0.486,2.462-0.441,3.467c-0.567-0.33-1.131-0.664-1.692-1.001
			c-0.69-0.415-1.377-0.835-2.059-1.26c-0.901-0.564-1.801-1.14-2.693-1.728l-0.422-0.281l-0.162-0.11
			c-0.015-0.026-0.032-0.05-0.052-0.072c-0.241-0.254-1.648-2.27-2.484-3.802c-0.151-0.281-0.283-0.54-0.387-0.777v-0.011
			c-0.18-0.402-0.265-0.72-0.211-0.868c0.066-0.229,0.177-0.443,0.327-0.629c0.15-0.186,0.336-0.339,0.547-0.451
			c1.038-0.54,2.702-0.041,4.349,0.752c1.417,0.716,2.774,1.542,4.06,2.472l0.146,0.106l0.014,0.011
			c0.54,0.383,0.854,0.637,0.854,0.637S29.298,103.998,29.331,104.05z"/>
		<path fill="#FECEB8" d="M35.694,107.604c-0.052,0.308-0.138,0.61-0.254,0.9c-0.2,0.522-0.337,1.066-0.409,1.62
			c-0.142,1.176-0.137,2.366,0.014,3.541c-1.992-1.041-3.956-2.127-5.892-3.26c-0.567-0.328-1.131-0.663-1.691-0.999
			c-0.126-0.958-0.306-1.8-0.51-2.007c-0.267-0.281-1.789-2.456-2.735-4.171c-0.122-0.216-0.229-0.425-0.328-0.623v-0.009
			c-0.038-0.079-0.074-0.155-0.108-0.23c-0.243-0.523-0.373-0.929-0.308-1.126c0.126-0.426,0.387-0.801,0.742-1.069
			c1.598-1.166,4.92,0.412,7.47,1.98l0.063,0.038c0.483,0.301,0.94,0.598,1.351,0.875l0.24,0.162c1.056,0.72,1.756,1.28,1.756,1.28
			c0.174,0.268,0.314,0.557,0.416,0.86c0.06,0.171,0.11,0.346,0.15,0.522C35.786,106.452,35.797,107.036,35.694,107.604z"/>
		<path opacity="0.1" enable-background="new    " d="M19.59,102.155c1.31,0.457,3.243,1.064,4.295,1.08
			c0.109,0.003,0.218-0.002,0.326-0.016c0.74-0.101,3.023,0.061,5.118,0.25c0.839,0.074,1.648,0.151,2.316,0.219l1.679,0.18v-0.648
			c-0.467-0.32-1.009-0.676-1.589-1.037c-2.56-1.58-5.923-3.195-7.533-2.019c-2.268-1.095-4.57-1.62-5.224,0.327
			C18.902,100.745,19.177,101.39,19.59,102.155z"/>
		<path fill="#393944" d="M13.298,87.068c0.036,0.97,0.4,3.489,3.006,6.032c3.325,3.24,1.908,7.899,1.908,7.899
			s3.963,1.556,5.673,1.597c0.109,0.003,0.218-0.002,0.326-0.016c1.025-0.142,5.1,0.234,7.442,0.47l1.679,0.18V89.455l-18.363-4.457
			l-1.663,1.656C13.294,86.792,13.292,86.93,13.298,87.068z"/>
		<g opacity="0.1">
			<path opacity="0.1" enable-background="new    " d="M33.03,103.058l0.301,0.03v0.148l-1.679-0.18
				c-1.681-0.169-4.25-0.411-5.945-0.481C26.88,102.471,30.762,102.829,33.03,103.058z"/>
			<path opacity="0.1" enable-background="new    " d="M13.305,86.662l1.663-1.656l1.11,0.268l-1.385,1.388
				c-0.009,0.138-0.009,0.276,0,0.414c0.036,0.97,0.4,3.487,3.007,6.032c3.325,3.24,1.908,7.897,1.908,7.897
				s3.279,1.287,5.157,1.552c-0.181-0.001-0.361,0.009-0.54,0.031c-0.108,0.014-0.217,0.019-0.326,0.016
				c-1.709-0.043-5.673-1.599-5.673-1.599s1.418-4.657-1.908-7.897c-2.619-2.545-2.983-5.062-3.019-6.027
				C13.291,86.942,13.293,86.801,13.305,86.662z"/>
		</g>
		<path fill="#FECEB8" d="M49.999,77.34c0,0,5.554-3.849,5.959-0.385c0.405,3.463-5.959,2.977-5.959,2.977V77.34z"/>
		<path fill="#F7CDDD" d="M40.423,74.787c0,0,3.003,1.98,4.666,1.863c0,0,4.539,0.608,5.067,0.304
			c0.528-0.304,0.852,4.396,0.852,4.396l-7.459-0.527l-4.785-0.729c0,0-2.392-1.458-2.392-2.715
			C36.372,76.123,40.423,74.787,40.423,74.787z"/>
		<path fill="#B7B7B7" d="M40.423,74.787c0,0,3.003,1.98,4.666,1.863c0,0,4.539,0.608,5.067,0.304
			c0.528-0.304,0.852,4.396,0.852,4.396l-7.459-0.527l-4.785-0.729c0,0-2.392-1.458-2.392-2.715
			C36.372,76.123,40.423,74.787,40.423,74.787z"/>
		<path fill="#FECEB8" d="M44.825,84.803c0,0,6.753-0.279,5.24,2.864c-1.513,3.143-6.629-0.673-6.629-0.673L44.825,84.803z"/>
		<path fill="#B7B7B7" d="M38.034,78.109c0,0,5.473-4.092,4.703-9.074c-0.769-4.983-4.703,3.809-4.703,3.809V78.109z"/>
		<path fill="#FECEB8" d="M39.551,55.518c0.001,1.792,0.699,3.514,1.945,4.803c0.673,0.694,1.482,1.24,2.378,1.604
			c0.289,0.121,0.586,0.219,0.89,0.295c0.323,0.083,0.651,0.143,0.982,0.18c0.238,0.023,0.477,0.036,0.721,0.036
			c0.774-0.002,1.542-0.135,2.271-0.394c1.2-0.416,2.262-1.155,3.069-2.134c0.808-0.98,1.33-2.162,1.509-3.419
			c0.179-1.256,0.009-2.538-0.492-3.704c-0.501-1.166-1.314-2.172-2.349-2.907c-1.035-0.735-2.253-1.171-3.52-1.261
			c-1.267-0.089-2.534,0.172-3.662,0.754c-1.128,0.583-2.074,1.464-2.734,2.549C39.899,53.004,39.55,54.249,39.551,55.518z"/>
		<path opacity="0.1" enable-background="new    " d="M13.298,87.068c0.62,0.113,1.385,0.322,1.385,0.643
			c0,0.54,8.647,3.458,8.647,3.458s-0.324,0.754,0.54,2.052c0.865,1.298,7.896,8.75,7.896,8.75l-0.023,0.22l-0.09,0.859
			l-0.429,4.106c0,0,2.702-0.972,3.567-0.864c0.279,0.034,0.584-0.144,0.863-0.404c-0.103-0.49-0.294-0.958-0.564-1.38
			c0,0-0.701-0.551-1.758-1.28V89.455l-18.363-4.457l-1.663,1.656C13.294,86.792,13.292,86.93,13.298,87.068z"/>
		<path fill="#B7B7B7" d="M12.519,86.306c0,0,2.162,0.214,2.162,0.756c0,0.542,8.647,3.458,8.647,3.458s-0.324,0.754,0.54,2.052
			c0.865,1.298,7.896,8.75,7.896,8.75l-0.541,5.184c0,0,2.702-0.972,3.567-0.864c0.387,0.049,0.814-0.31,1.167-0.72
			c0.293-0.346,0.554-0.718,0.78-1.111c0,0-0.975-4.107,0.324-5.079c1.299-0.972-1.405-8.1-1.405-8.1s-1.223-5.069-0.863-7.244
			c0.023-0.145,0.058-0.287,0.104-0.427c0-0.016,0.009-0.032,0.016-0.049c0.771-2.077,9.065-19.504,9.065-19.504
			c-0.005-0.494-0.04-0.988-0.105-1.478c-0.016-0.137-0.038-0.279-0.065-0.421c-0.042-0.259-0.098-0.516-0.168-0.769
			c-0.047-0.166-0.097-0.324-0.157-0.475c-0.256-0.659-0.648-1.165-1.236-1.177c0,0-0.648-0.72-2.162-0.911
			c-1.117-0.146-2.702,0-4.864,0.911c-5.08,2.16-6.269,2.268-6.269,2.268L26.401,64.7l-0.526,0.688
			c-1.922,2.506-3.663,5.146-5.208,7.901c-0.85,1.526-2.054,3.307-3.497,4.376C14.251,79.826,12.519,86.306,12.519,86.306z"/>
		<path opacity="0.1" enable-background="new    " d="M31.466,73.816c0,0-7.216,1.782-10.014,6.279L31.466,73.816z"/>
		<path opacity="0.1" enable-background="new    " d="M29.236,81.715c0,0-1.364,9.155-0.985,9.845
			C28.629,92.249,29.236,81.715,29.236,81.715z"/>
		<path opacity="0.1" enable-background="new    " d="M29.725,86.413c0.526,0.688,2.657,5.996,2.657,5.996l-0.616,8.912l-0.54,5.184
			c0,0,2.702-0.972,3.569-0.864c0.386,0.049,0.814-0.308,1.167-0.72c-0.562-3.037-1.762-9.389-1.982-9.511
			c-0.286-0.162-1.746-5.267-1.823-6.686c-0.077-1.419-2.109-4.616-2.109-4.616S29.197,85.726,29.725,86.413z"/>
		<path opacity="0.1" enable-background="new    " d="M31.765,77.663c0.132,0.405,0.34,2.754,0.34,2.754
			c0.148,2.072,1.715,2.749,2.688,2.965c0.023-0.145,0.058-0.287,0.105-0.427c0.648-1.834,9.081-19.553,9.081-19.553
			c-0.009-0.899-0.122-1.795-0.337-2.668c-1.836-0.54-4.743,0.292-4.743,0.292c-0.839-0.11-3.579,5.335-3.579,5.335
			s-1.826,4.171-2.027,4.738c-0.2,0.567,0,1.501-0.081,1.825c-0.081,0.324-0.935,0.605-1.056,1.053
			c-0.121,0.448-0.041,1.334-0.122,1.496C31.953,75.636,31.625,77.258,31.765,77.663z"/>
		<path fill="#B7B7B7" d="M32.414,77.339c0.133,0.405,0.34,2.754,0.34,2.754c0.123,1.725,1.232,2.482,2.162,2.814
			c0.417,0.149,0.854,0.236,1.297,0.259l1.304,1.131l6.018,4.437c0,0,2.244-4.14,1.636-4.167c-0.609-0.027-4.12-2.97-4.12-2.97
			c-1.081-0.572-2.151-2.488-2.65-3.471c0.029-0.118,0.051-0.239,0.065-0.36c0.218-1.834,4.757-8.857,4.757-8.857
			s1.755-2.065,2.439-5.89c0.02-0.086,0.032-0.18,0.049-0.268c0.019-0.119,0.032-0.239,0.036-0.36
			c0.081-1.471-0.989-2.005-2.261-2.133c-0.661-0.051-1.325-0.031-1.982,0.061c-0.656,0.082-1.307,0.21-1.945,0.382
			c-0.54-0.07-1.884,2.189-2.763,3.789c-0.474,0.868-0.814,1.546-0.814,1.546s-1.836,4.173-2.041,4.74
			c-0.205,0.567,0,1.499-0.081,1.825c-0.081,0.326-0.935,0.605-1.054,1.053c-0.119,0.448-0.043,1.334-0.124,1.496
			C32.602,75.312,32.277,76.934,32.414,77.339z"/>
		<path opacity="0.1" enable-background="new    " d="M25.43,68.001c1.142,1.174,3.005,1.177,4.493,0.581
			c1.488-0.596,2.751-1.683,4.132-2.52c0.901-0.54,1.845-0.995,2.727-1.559c0.13-0.085,0.256-0.169,0.378-0.256
			c1.02-0.72,1.9-1.644,2.954-2.304c0.706-0.467,1.528-0.73,2.374-0.76c0.39-0.004,0.777,0.077,1.133,0.238
			c0.062,0.027,0.122,0.058,0.18,0.094c0.346,0.2,0.667,0.442,0.955,0.72c0.297,0.268,0.584,0.555,0.901,0.803
			c0.02-0.086,0.032-0.18,0.049-0.268c0.019-0.119,0.031-0.239,0.036-0.36c0.238,0.023,0.477,0.036,0.721,0.036
			c0.776-0.004,1.545-0.14,2.275-0.403c0-0.029,0.011-0.059,0.016-0.088c0.259-1.361,0.721-2.803,1.823-3.568
			c0.636-0.445,1.652-0.625,2.531-0.963c0.305-1.061,0.351-2.18,0.134-3.263c-0.217-1.083-0.69-2.098-1.38-2.96
			s-1.576-1.547-2.586-1.997c-1.009-0.45-2.112-0.652-3.215-0.588c-1.103,0.063-2.175,0.39-3.126,0.952
			c-0.951,0.562-1.753,1.344-2.34,2.28c-0.586,0.936-0.94,1.998-1.031,3.099c-0.091,1.1,0.083,2.207,0.508,3.226
			c-1.117-0.146-2.702,0-4.864,0.911c-5.08,2.16-6.269,2.268-6.269,2.268l-2.54,3.348c0.276,0.421,0.587,0.837,0.616,1.328
			C27.075,66.939,26.196,67.567,25.43,68.001z"/>
		<path fill="#393944" d="M50.586,57.741c-1.097,0.767-1.564,2.207-1.823,3.566c-0.081,0.425-0.159,0.873-0.418,1.21
			c-0.582,0.754-1.753,0.54-2.513,0c-0.76-0.54-1.358-1.361-2.207-1.744c-1.128-0.508-2.452-0.137-3.506,0.524
			c-1.054,0.661-1.936,1.584-2.956,2.302c-0.985,0.695-2.084,1.19-3.111,1.814c-1.38,0.841-2.641,1.926-4.131,2.52
			c-1.49,0.594-3.351,0.594-4.491-0.58c0.766-0.425,1.645-1.053,1.585-1.962c-0.059-0.909-1.12-1.591-1.048-2.52
			c0.072-0.929,1.169-1.3,1.956-1.757c1.648-0.958,2.342-3.06,2.702-5.004c0.274-1.518,0.499-3.215,1.636-4.189
			c0.731-0.628,1.724-0.833,2.461-1.454c0.699-0.59,1.081-1.485,1.528-2.308c0.733-1.374,1.695-2.648,2.969-3.469
			c1.274-0.821,2.893-1.138,4.291-0.585c0.54,0.211,1.023,0.54,1.553,0.769c1.315,0.569,2.823,0.493,4.127,1.091
			c1.605,0.738,2.648,2.369,3.603,3.917c0.816,1.323,2.412,3.665,1.965,5.375C54.302,57.001,51.777,56.907,50.586,57.741z"/>
		<g opacity="0.1">
			<path opacity="0.1" enable-background="new    " d="M25.969,62.757c0.006-0.071,0.018-0.142,0.038-0.211
				c0.29,0.457,0.652,0.9,0.686,1.44c0.008,0.124-0.002,0.248-0.031,0.369C26.34,63.838,25.924,63.353,25.969,62.757z"/>
			<path opacity="0.1" enable-background="new    " d="M29.599,66.527c1.49-0.598,2.751-1.683,4.131-2.52
				c1.027-0.625,2.126-1.12,3.111-1.814c1.02-0.72,1.902-1.644,2.956-2.302c1.054-0.659,2.378-1.031,3.506-0.524
				c0.848,0.383,1.441,1.195,2.207,1.744c0.766,0.549,1.931,0.763,2.513,0.009c0.261-0.337,0.337-0.783,0.418-1.208
				c0.259-1.361,0.721-2.801,1.823-3.568c1.193-0.832,3.716-0.738,4.174-2.493c0.076-0.311,0.096-0.634,0.059-0.952
				c0.294,0.779,0.443,1.564,0.267,2.248c-0.459,1.755-2.983,1.661-4.176,2.493c-1.095,0.767-1.564,2.207-1.823,3.568
				c-0.081,0.425-0.157,0.873-0.416,1.208c-0.584,0.754-1.755,0.54-2.522-0.009c-0.767-0.549-1.358-1.361-2.207-1.744
				c-1.128-0.508-2.452-0.135-3.505,0.524c-1.054,0.659-1.936,1.584-2.956,2.302c-0.985,0.697-2.084,1.19-3.111,1.815
				c-1.38,0.842-2.641,1.926-4.131,2.52c-1.49,0.594-3.351,0.592-4.491-0.581c0.295-0.16,0.574-0.345,0.836-0.554
				C27.302,67.067,28.545,66.948,29.599,66.527z"/>
		</g>
		<path fill="#FF825C" d="M146.913,48.855l-7.385-7.422c-0.362-0.37-0.794-0.665-1.271-0.867c-0.477-0.202-0.989-0.308-1.506-0.312
			c-0.518-0.004-1.032,0.095-1.511,0.291c-0.479,0.196-0.915,0.485-1.282,0.85L87.579,87.348L67.97,67.599
			c-0.728-0.738-1.72-1.157-2.757-1.164c-1.037-0.007-2.035,0.397-2.773,1.125l-7.465,7.38c-0.738,0.736-1.155,1.733-1.162,2.775
			c-0.007,1.042,0.397,2.045,1.125,2.791l29.78,29.993c0.736,0.738,1.734,1.155,2.777,1.163c1.043,0.007,2.046-0.396,2.793-1.123
			l56.585-56.12c0.37-0.362,0.665-0.793,0.868-1.269c0.202-0.476,0.308-0.987,0.312-1.505c0.004-0.517-0.094-1.03-0.29-1.509
			C147.567,49.657,147.278,49.222,146.913,48.855z"/>
		<g opacity="0.5">
			<path opacity="0.5" fill="#B7B7B7" enable-background="new    " d="M135.784,108.368c0,0-5.508-0.331-4.863,3.527
				c-0.033,0.195-0.004,0.396,0.084,0.574s0.23,0.323,0.406,0.416c0,0,0-0.286,0.563-0.189c0.199,0.034,0.4,0.043,0.6,0.029
				c0.27-0.018,0.527-0.123,0.732-0.301c0,0,1.547-0.639,2.151-3.17c0,0,0.444-0.551,0.426-0.693l-0.929,0.398
				c0,0,0.319,0.67,0.068,1.226c0,0-0.03-1.203-0.209-1.174c-0.036,0-0.482,0.232-0.482,0.232s0.54,1.167,0.133,2.016
				c0,0,0.157-1.44-0.304-1.931l-0.654,0.382c0,0,0.637,1.206,0.205,2.188c0,0,0.112-1.508-0.344-2.095l-0.593,0.461
				c0,0,0.6,1.188,0.234,2.005c0,0-0.046-1.757-0.36-1.89c0,0-0.519,0.457-0.598,0.646c0,0,0.411,0.863,0.157,1.318
				c0,0-0.157-1.172-0.285-1.175c0,0-0.517,0.774-0.571,1.305c0.025-0.492,0.179-0.968,0.445-1.381
				c-0.298,0.057-0.573,0.2-0.791,0.41c0,0,0.08-0.54,0.919-0.597c0,0,0.427-0.587,0.54-0.623c0,0-0.834-0.07-1.34,0.155
				c0,0,0.445-0.519,1.492-0.283l0.585-0.477c0,0-1.097-0.151-1.563,0.015c0,0,0.54-0.458,1.722-0.125l0.637-0.38
				c0,0-0.936-0.201-1.495-0.129c0,0,0.589-0.317,1.683,0.027l0.456-0.205c0,0-0.687-0.135-0.889-0.155
				c-0.201-0.02-0.21-0.078-0.21-0.078c0.434-0.071,0.88-0.022,1.288,0.144C134.83,108.791,135.801,108.43,135.784,108.368z"/>
		</g>
		<g opacity="0.5">
			<path opacity="0.5" fill="#B7B7B7" enable-background="new    " d="M125.9,81.427c0,0-2.797,4.754,0.939,5.928
				c0.159,0.118,0.352,0.183,0.551,0.186c0.198,0.003,0.392-0.058,0.555-0.172c0,0-0.25-0.139,0.086-0.589
				c0.12-0.161,0.22-0.336,0.299-0.52c0.106-0.249,0.128-0.526,0.063-0.788c0,0,0.132-1.669-1.85-3.354c0,0-0.29-0.648-0.423-0.697
				l-0.068,1.008c0,0,0.74,0.022,1.124,0.497c0,0-1.081-0.519-1.142-0.348c-0.011,0.036-0.013,0.54-0.013,0.54
				s1.29,0.043,1.859,0.796c0,0-1.21-0.792-1.861-0.605l0.043,0.756c0,0,1.366-0.022,2.047,0.81c0,0-1.295-0.785-2.025-0.646
				l0.142,0.738c0,0,1.333,0,1.894,0.7c0,0-1.587-0.754-1.849-0.54c0,0,0.181,0.67,0.303,0.826c0,0,0.957,0.025,1.247,0.459
				c0,0-1.115-0.392-1.178-0.281c0,0,0.457,0.812,0.9,1.102c-0.426-0.246-0.781-0.599-1.028-1.024c-0.089,0.293-0.089,0.607,0,0.9
				c0,0-0.453-0.32-0.114-1.08c0,0-0.331-0.646-0.312-0.765c0,0-0.439,0.711-0.47,1.26c0,0-0.259-0.632,0.425-1.458l-0.158-0.738
				c0,0-0.632,0.911-0.697,1.4c0,0-0.164-0.686,0.672-1.59l-0.051-0.74c0,0-0.605,0.742-0.792,1.271c0,0-0.017-0.668,0.785-1.485
				l0.025-0.499c0,0-0.432,0.551-0.54,0.72c-0.108,0.169-0.164,0.153-0.164,0.153c0.132-0.419,0.379-0.793,0.711-1.08
				C125.835,82.48,125.962,81.44,125.9,81.427z"/>
		</g>
		<g opacity="0.5">
			<path opacity="0.5" fill="#B7B7B7" enable-background="new    " d="M108.403,43.498c0,0-2.795,4.756,0.939,5.928
				c0.159,0.119,0.352,0.184,0.551,0.187c0.198,0.003,0.393-0.058,0.555-0.173c0,0-0.25-0.139,0.088-0.589
				c0.119-0.161,0.219-0.336,0.298-0.52c0.106-0.249,0.128-0.526,0.063-0.788c0,0,0.133-1.669-1.85-3.354
				c0,0-0.29-0.646-0.424-0.695l-0.068,1.006c0,0,0.742,0.022,1.124,0.497c0,0-1.081-0.518-1.14-0.347
				c-0.013,0.036-0.013,0.54-0.013,0.54s1.288,0.043,1.857,0.796c0,0-1.21-0.792-1.861-0.605l0.045,0.756
				c0,0,1.364-0.022,2.045,0.81c0,0-1.295-0.783-2.025-0.646l0.143,0.738c0,0,1.333,0,1.895,0.702c0,0-1.589-0.756-1.85-0.54
				c0,0,0.18,0.668,0.304,0.824c0,0,0.955,0.025,1.245,0.459c0,0-1.115-0.392-1.177-0.281c0,0,0.456,0.814,0.901,1.102
				c-0.427-0.245-0.782-0.598-1.03-1.023c-0.086,0.29-0.086,0.599,0,0.889c0,0-0.452-0.32-0.114-1.089c0,0-0.331-0.646-0.311-0.765
				c0,0-0.44,0.711-0.471,1.26c0,0-0.259-0.632,0.427-1.458l-0.16-0.738c0,0-0.632,0.911-0.695,1.401c0,0-0.166-0.686,0.67-1.59
				l-0.051-0.74c0,0-0.605,0.742-0.792,1.271c0,0-0.016-0.668,0.785-1.483l0.025-0.5c0,0-0.432,0.551-0.54,0.72
				s-0.164,0.153-0.164,0.153c0.135-0.42,0.385-0.794,0.721-1.08C108.348,44.533,108.465,43.519,108.403,43.498z"/>
		</g>
		<g opacity="0.5">
			<path opacity="0.5" fill="#B7B7B7" enable-background="new    " d="M48.173,7.479c0,0-10.412,7.56-3.52,13.549
				c0,0,0.78,1.418,2.353,1.06c0,0-0.407-0.529,0.737-1.177c0.405-0.233,0.782-0.513,1.12-0.835c0.458-0.431,0.764-1,0.87-1.62
				c0,0,1.841-3.445-0.827-8.893c0,0-0.016-1.654-0.259-1.883l-1.081,2.092c0,0,1.565,0.736,1.942,2.11c0,0-1.839-2.122-2.118-1.8
				c-0.056,0.063-0.526,1.134-0.526,1.134s2.718,1.293,3.234,3.431c0,0-1.852-2.822-3.423-3.028l-0.611,1.658
				c0,0,2.938,1.226,3.619,3.638c0,0-2.039-2.88-3.729-3.267l-0.382,1.712c0,0,2.843,1.251,3.396,3.262c0,0-2.702-3.093-3.457-2.864
				c0,0-0.256,1.591-0.121,2.047c0,0,2.021,0.945,2.237,2.142c0,0-2.019-1.876-2.257-1.696c0,0,0.22,2.16,0.911,3.199
				c0,0-1.133-1.456-1.248-3.147c0,0-0.773,0.9-0.816,1.91c0,0-0.67-1.107,0.769-2.436c0,0-0.103-1.692,0.05-1.926
				c0,0-1.607,1.111-2.185,2.263c0,0,0.034-1.591,2.27-2.72l0.346-1.726c0,0-2.2,1.356-2.792,2.34c0,0,0.286-1.62,2.915-2.776
				l0.584-1.629c0,0-1.982,1.024-2.882,1.98c0,0,0.589-1.44,3.062-2.443l0.517-1.044c0,0-1.441,0.774-1.828,1.033
				c-0.387,0.259-0.495,0.18-0.495,0.18c0.675-0.774,1.552-1.346,2.533-1.651C47.079,9.658,48.293,7.563,48.173,7.479z"/>
		</g>
		<g opacity="0.5">
			<path opacity="0.5" fill="#B7B7B7" enable-background="new    " d="M38.058,32.426c0,0-13.469-5.659-15.234,4.545
				c0,0-0.921,1.591,0.36,2.905c0,0,0.276-0.706,1.578,0.023c0.465,0.257,0.958,0.457,1.47,0.598
				c0.691,0.191,1.426,0.151,2.093-0.112c0,0,4.428-0.239,8.155-6.03c0,0,1.596-0.986,1.677-1.357l-2.671,0.18
				c0,0,0.205,1.953-0.901,3.125c0,0,0.982-3.031,0.51-3.116c-0.095-0.018-1.41,0.155-1.41,0.155s0.34,3.397-1.441,5.154
				c0,0,1.654-3.454,0.933-5.092l-1.969,0.38c0,0,0.54,3.573-1.409,5.651c0,0,1.601-3.672,0.983-5.537l-1.888,0.634
				c0,0,0.456,3.494-1.174,5.22c0,0,1.423-4.43,0.753-5.04c0,0-1.697,0.688-2.061,1.08c0,0,0.27,2.52-0.767,3.429
				c0,0,0.638-3.06,0.322-3.186c0,0-1.973,1.483-2.574,2.763c0,0,0.751-1.955,2.326-3.06c0,0-1.322-0.225-2.342,0.329
				c0,0,0.683-1.298,2.819-0.682c0,0,1.583-1.096,1.901-1.08c0,0-2.021-0.9-3.482-0.788c0,0,1.565-0.9,3.976,0.603l1.879-0.68
				c0,0-2.61-1.338-3.92-1.332c0,0,1.74-0.673,4.41,1.199l1.928-0.398c0,0-2.162-1.323-3.621-1.629c0,0,1.749-0.277,4.176,1.539
				l1.319-0.11c0,0-1.596-0.94-2.079-1.168c-0.483-0.229-0.461-0.376-0.461-0.376c1.149,0.199,2.22,0.714,3.093,1.487
				C35.313,32.65,38.045,32.594,38.058,32.426z"/>
		</g>
		<g opacity="0.5">
			<path opacity="0.5" fill="#B7B7B7" enable-background="new    " d="M29.993,18.138c0,0-4.775-11.029-11.64-5.971
				c0,0-1.454,0.421-1.441,1.926c0,0,0.566-0.263,0.922,0.913c0.133,0.416,0.314,0.816,0.54,1.19
				c0.302,0.507,0.761,0.902,1.308,1.125c0,0,2.767,2.38,8.286,1.06c0,0,1.511,0.322,1.771,0.149l-1.688-1.417
				c0,0-0.991,1.278-2.32,1.339c0,0,2.311-1.242,2.079-1.561c-0.047-0.065-0.926-0.709-0.926-0.709s-1.735,2.211-3.783,2.245
				c0,0,2.952-1.112,3.457-2.493l-1.387-0.9c0,0-1.742,2.436-4.082,2.563c0,0,3.044-1.269,3.741-2.731l-1.483-0.689
				c0,0-1.722,2.34-3.669,2.428c0,0,3.37-1.822,3.318-2.565c0,0-1.4-0.558-1.843-0.526c0,0-1.274,1.647-2.41,1.6
				c0,0,2.124-1.456,2.007-1.71c0,0-2.018-0.241-3.104,0.18c0,0,1.56-0.734,3.125-0.493c0,0-0.658-0.887-1.576-1.134
				c0,0,1.147-0.384,2.064,1.197c0,0,1.565,0.252,1.747,0.439c0,0-0.684-1.69-1.621-2.452c0,0,1.441,0.36,2.019,2.623l1.504,0.668
				c0,0-0.787-2.283-1.569-3.022c0,0,1.418,0.59,1.937,3.222l1.367,0.862c0,0-0.53-2.016-1.22-3.03c0,0,1.196,0.832,1.603,3.292
				l0.847,0.684c0,0-0.414-1.465-0.571-1.876c-0.157-0.41-0.058-0.486-0.058-0.486c0.568,0.772,0.911,1.687,0.989,2.643
				C28.235,16.723,29.892,18.234,29.993,18.138z"/>
		</g>
		<g opacity="0.5">
			<path opacity="0.5" fill="#B7B7B7" enable-background="new    " d="M123.066,23.877c0,0-1.125-5.4-4.683-3.76
				c-0.198,0.019-0.385,0.1-0.534,0.232c-0.149,0.132-0.252,0.307-0.295,0.501c0,0,0.279-0.067,0.332,0.495
				c0.019,0.199,0.062,0.396,0.128,0.585c0.09,0.255,0.259,0.475,0.484,0.626c0,0,1.023,1.325,3.623,1.242
				c0,0,0.65,0.284,0.783,0.23l-0.628-0.792c0,0-0.564,0.483-1.166,0.387c0,0,1.153-0.344,1.081-0.51
				c-0.016-0.034-0.351-0.405-0.351-0.405s-0.984,0.833-1.912,0.659c0,0,1.429-0.227,1.786-0.801l-0.541-0.531
				c0,0-0.998,0.932-2.061,0.772c0,0,1.487-0.288,1.935-0.88l-0.602-0.45c0,0-0.99,0.889-1.875,0.751c0,0,1.684-0.508,1.729-0.846
				c0,0-0.576-0.38-0.78-0.407c0,0-0.72,0.623-1.23,0.497c0,0,1.081-0.457,1.061-0.583c0,0-0.884-0.295-1.412-0.207
				c0.481-0.104,0.981-0.081,1.45,0.067c-0.132-0.273-0.342-0.501-0.603-0.655c0,0,0.551-0.067,0.817,0.72
				c0,0,0.679,0.257,0.744,0.36c0,0-0.151-0.823-0.5-1.26c0,0,0.616,0.293,0.664,1.366l0.615,0.439c0,0-0.143-1.098-0.426-1.505
				c0,0,0.582,0.398,0.571,1.62l0.541,0.515c0,0-0.051-0.956-0.267-1.474c0,0,0.46,0.484,0.415,1.62l0.317,0.387
				c0,0-0.049-0.697-0.081-0.9c-0.033-0.203,0.018-0.225,0.018-0.225c0.184,0.4,0.253,0.844,0.2,1.282
				C122.413,23.038,123.012,23.91,123.066,23.877z"/>
		</g>
		<g opacity="0.5">
			<path opacity="0.5" fill="#B7B7B7" enable-background="new    " d="M103.68,123.984c0,0-1.124-5.4-4.684-3.76
				c-0.198,0.019-0.385,0.1-0.534,0.232c-0.149,0.131-0.253,0.307-0.296,0.501c0,0,0.279-0.067,0.331,0.495
				c0.019,0.199,0.063,0.396,0.13,0.585c0.09,0.255,0.259,0.475,0.483,0.626c0,0,1.023,1.325,3.624,1.242
				c0,0,0.651,0.285,0.782,0.231l-0.627-0.792c0,0-0.564,0.482-1.167,0.387c0,0,1.153-0.344,1.081-0.51
				c-0.015-0.034-0.352-0.405-0.352-0.405s-0.983,0.834-1.911,0.659c0,0,1.431-0.227,1.785-0.801l-0.54-0.54
				c0,0-0.987,0.936-2.054,0.77c0,0,1.487-0.288,1.935-0.88l-0.602-0.45c0,0-0.989,0.889-1.873,0.751c0,0,1.684-0.506,1.729-0.846
				c0,0-0.578-0.38-0.78-0.407c0,0-0.72,0.623-1.232,0.497c0,0,1.081-0.457,1.061-0.583c0,0-0.884-0.296-1.412-0.207
				c0.482-0.105,0.982-0.082,1.452,0.066c-0.133-0.272-0.343-0.5-0.604-0.655c0,0,0.549-0.067,0.816,0.72
				c0,0,0.681,0.257,0.746,0.36c0,0-0.151-0.823-0.501-1.26c0,0,0.616,0.293,0.663,1.366l0.616,0.439c0,0-0.144-1.098-0.427-1.505
				c0,0,0.584,0.398,0.573,1.621l0.541,0.514c0,0-0.051-0.955-0.269-1.474c0,0,0.461,0.484,0.416,1.62l0.317,0.387
				c0,0-0.05-0.696-0.082-0.9c-0.033-0.203,0.018-0.223,0.018-0.223c0.184,0.4,0.253,0.843,0.2,1.28
				C103.032,123.135,103.63,124.011,103.68,123.984z"/>
		</g>
	</g>
</g>
</svg>
