<?xml version="1.0" encoding="utf-8"?>
<!-- Generator: Adobe Illustrator 17.0.0, SVG Export Plug-In . SVG Version: 6.00 Build 0)  -->
<!DOCTYPE svg PUBLIC "-//W3C//DTD SVG 1.1//EN" "http://www.w3.org/Graphics/SVG/1.1/DTD/svg11.dtd">
<svg version="1.1" id="Layer_1" xmlns="http://www.w3.org/2000/svg" xmlns:xlink="http://www.w3.org/1999/xlink" x="0px" y="0px"
	 width="10.05px" height="10.05px" viewBox="0.95 -0.022 10.05 10.05" enable-background="new 0.95 -0.022 10.05 10.05"
	 xml:space="preserve">
<path fill="#FFFFFF" d="M5.944,0.001c-2.747,0-4.994,2.251-4.994,5.003s2.247,5.003,4.994,5.003s4.994-2.251,4.994-5.003
	S8.691,0.001,5.944,0.001z M8.241,6.781C8.131,6.96,7.897,7.016,7.718,6.905L6.36,6.068c-0.569-0.351-0.915-0.971-0.915-1.64V2.877
	c0-0.207,0.168-0.375,0.375-0.375c0.207,0,0.375,0.168,0.375,0.375v1.287C6.194,4.747,6.5,5.288,7,5.588l1.113,0.669
	C8.294,6.366,8.351,6.601,8.241,6.781z"/>
</svg>
