<?xml version="1.0" encoding="utf-8"?>
<!-- Generator: Adobe Illustrator 17.0.0, SVG Export Plug-In . SVG Version: 6.00 Build 0)  -->
<!DOCTYPE svg PUBLIC "-//W3C//DTD SVG 1.1//EN" "http://www.w3.org/Graphics/SVG/1.1/DTD/svg11.dtd">
<svg version="1.1" id="Layer_1" xmlns="http://www.w3.org/2000/svg" xmlns:xlink="http://www.w3.org/1999/xlink" x="0px" y="0px"
	 width="20.297px" height="12.21px" viewBox="0 -0.105 20.297 12.21" enable-background="new 0 -0.105 20.297 12.21"
	 xml:space="preserve">
<path fill="#393434" d="M6.104,2.947C4.419,2.947,3.052,4.315,3.052,6s1.367,3.052,3.052,3.052c1.685,0,3.052-1.368,3.052-3.052
	S7.789,2.947,6.104,2.947z M6.104-0.105C2.735-0.105,0,2.63,0,6s2.735,6.105,6.104,6.105S12.208,9.37,12.208,6
	S9.473-0.105,6.104-0.105z M6.104,10.884c-2.698,0-4.883-2.186-4.883-4.884s2.185-4.884,4.883-4.884
	c2.698,0,4.883,2.186,4.883,4.884S8.802,10.884,6.104,10.884z"/>
</svg>
