<?xml version="1.0" encoding="utf-8"?>
<!-- Generator: Adobe Illustrator 17.0.0, SVG Export Plug-In . SVG Version: 6.00 Build 0)  -->
<!DOCTYPE svg PUBLIC "-//W3C//DTD SVG 1.1//EN" "http://www.w3.org/Graphics/SVG/1.1/DTD/svg11.dtd">
<svg version="1.1" id="Layer_1" xmlns="http://www.w3.org/2000/svg" xmlns:xlink="http://www.w3.org/1999/xlink" x="0px" y="0px"
	 width="7.03px" height="7.03px" viewBox="0.478 0.97 7.03 7.03" enable-background="new 0.478 0.97 7.03 7.03"
	 xml:space="preserve">
<path fill="#FFFFFF" d="M3.993,0.97c-0.25,0-0.495,0.018-0.736,0.052c-3.664,0.518-3.664,6.383,0,6.901
	c0.241,0.034,0.486,0.052,0.736,0.052s0.495-0.018,0.736-0.052c3.664-0.518,3.664-6.383,0-6.901C4.488,0.987,4.243,0.97,3.993,0.97z
	 M3.993,6.806c-1.253,0-2.27-1.046-2.27-2.335s1.017-2.335,2.27-2.335s2.27,1.046,2.27,2.335S5.246,6.806,3.993,6.806z M3.993,3.071
	c-0.754,0-1.362,0.626-1.362,1.401s0.608,1.401,1.362,1.401s1.362-0.626,1.362-1.401S4.747,3.071,3.993,3.071z"/>
</svg>
