<?xml version="1.0" encoding="utf-8"?>
<!-- Generator: Adobe Illustrator 17.0.0, SVG Export Plug-In . SVG Version: 6.00 Build 0)  -->
<!DOCTYPE svg PUBLIC "-//W3C//DTD SVG 1.1//EN" "http://www.w3.org/Graphics/SVG/1.1/DTD/svg11.dtd">
<svg version="1.1" id="Layer_1" xmlns="http://www.w3.org/2000/svg" xmlns:xlink="http://www.w3.org/1999/xlink" x="0px" y="0px"
	 width="612px" height="438.578px" viewBox="0 0 612 438.578" enable-background="new 0 0 612 438.578" xml:space="preserve">
<g>
	<path fill="#FFFFFF" d="M234.886,219.402c0,39.29,31.824,71.114,71.114,71.114s71.114-31.824,71.114-71.114l0,0
		c0-39.29-31.824-71.114-71.114-71.114S234.886,180.112,234.886,219.402z"/>
	<path fill="#FFFFFF" d="M306,0C111.384,0,6.12,219.402,6.12,219.402S112.302,438.804,306,438.804
		c194.616,0,299.88-219.402,299.88-219.402S499.698,0,306,0z M306,359.917c-77.602,0-140.515-62.914-140.515-140.515
		S228.398,78.887,306,78.887S446.515,141.8,446.515,219.402S383.602,359.917,306,359.917z"/>
</g>
</svg>
