<?xml version="1.0" encoding="utf-8"?>
<!-- Generator: Adobe Illustrator 17.0.0, SVG Export Plug-In . SVG Version: 6.00 Build 0)  -->
<!DOCTYPE svg PUBLIC "-//W3C//DTD SVG 1.1//EN" "http://www.w3.org/Graphics/SVG/1.1/DTD/svg11.dtd">
<svg version="1.1" id="Слой_1" xmlns="http://www.w3.org/2000/svg" xmlns:xlink="http://www.w3.org/1999/xlink" x="0px" y="0px"
	 width="612px" height="437px" viewBox="0 177.5 612 437" enable-background="new 0 177.5 612 437" xml:space="preserve">
<g>
	<g>
		<defs>
			<rect id="SVGID_1_" x="-36.112" y="177.429" width="684.224" height="437.143"/>
		</defs>
		<clipPath id="SVGID_2_">
			<use xlink:href="#SVGID_1_"  overflow="visible"/>
		</clipPath>
		<g clip-path="url(#SVGID_2_)">
			<path fill="#E6E6E6" d="M612,177.809H0.38v436.763H612V177.809z"/>
			<path fill="#FFFFFF" d="M608.199,218.102H19.386v385.446h588.812V218.102z"/>
			<path fill="#CCCED0" d="M611.62,177.429H0v28.889h611.62V177.429z"/>
			<path fill="#FFFFFF" d="M19.386,197.575c2.661,0,4.942-2.281,4.942-5.322c0-3.041-2.281-5.322-4.942-5.322
				s-4.942,2.281-4.942,5.322S16.725,197.575,19.386,197.575z"/>
			<path fill="#FFFFFF" d="M37.632,197.575c2.661,0,4.942-2.281,4.942-5.322c0-3.041-2.281-5.322-4.942-5.322
				s-4.942,2.281-4.942,5.322C32.691,195.294,34.971,197.575,37.632,197.575z"/>
			<path fill="#FFFFFF" d="M55.878,197.575c2.661,0,4.942-2.281,4.942-5.322c0-3.041-2.281-5.322-4.942-5.322
				s-4.942,2.281-4.942,5.322S53.217,197.575,55.878,197.575z"/>
			<path fill="#F4B3B3" d="M175.998,346.584c0,0,2.661,38.393,1.521,40.293c-1.14,2.281,19.766,42.574,19.766,42.574l33.451-34.971
				c0,0-1.901-48.656,0-50.937C233.016,341.642,175.998,346.584,175.998,346.584z"/>
			<path fill="#F4B3B3" d="M204.507,375.853c21.667,0,39.153-19.766,39.153-43.714c0-24.328-17.486-43.714-39.153-43.714
				s-39.153,19.766-39.153,43.714S182.84,375.853,204.507,375.853z"/>
			<path fill="#FFFFFF" d="M201.466,402.082l-3.801-2.281l-19.766-20.147c0,0-1.901-0.76-2.281,6.082l-0.38,6.842l-12.924,9.883
				l-0.76,156.991l88.949,4.942l3.801-157.752l-20.147-14.825l-3.801-8.743l-22.427,17.866L201.466,402.082z"/>
			<path fill="#3F3D56" d="M290.035,417.287l-9.883,159.652H131.903c-19.006-25.088-33.831-153.19-17.866-156.991
				c5.322-1.901,41.053-14.445,41.053-14.445s10.643-7.603,14.065-14.065c1.901-4.181,4.561-7.602,7.602-11.024l0,0l0,0
				c0,0,0,0,0.38-0.38l0,0l0.38-0.38l0,0l-0.76,29.27l28.509,108.716c0,0,7.983-65.381,15.965-85.528
				c4.561-11.404,6.842-25.468,8.363-35.732c0.76-7.983,1.14-13.304,1.14-13.304l0,0l0,0l0,0l0,0l0,0l0,0c0,0,0.38,0.38,0.76,0.76
				l0,0c2.281,3.421,9.883,13.304,15.205,13.684c6.082,0.38,23.188,14.065,23.188,14.065
				C277.871,410.825,290.035,417.287,290.035,417.287z"/>
			<path fill="#3F3D56" d="M308.661,557.933c-2.661,7.983-4.181,14.445-5.702,19.006H188.161c-0.38-4.562-0.76-10.263-1.14-16.345
				c-0.38-9.503-0.76-19.006,0.76-21.287c0,0,0-0.38,0.38-0.38c0,0,0.38,0,0.38-0.38c2.661-0.76,33.071-1.14,54.358-1.521
				c3.041,0,5.702,0,8.363,0c7.602,0,12.924,0,12.924,0s0.38-15.585,1.521-35.732c2.281-35.352,7.222-84.007,17.106-84.388
				l7.222,0.38c0,0,4.181,0.38,6.082,7.222C297.637,431.732,315.883,535.506,308.661,557.933z"/>
			<path fill="#2F2E41" d="M172.576,291.086l-7.602-3.421c0,0,16.345-16.345,38.012-13.684l-5.702-7.222
				c0,0,15.205-5.322,28.129,11.404c6.842,8.743,14.445,19.006,19.386,30.41l7.983,0.38l-3.801,7.222l11.404,7.983l-12.164-2.281
				c0.76,6.462,0,12.924-1.901,19.006l-3.041,8.363c0,0-9.883-24.708-9.503-27.749l-0.38,7.603c0,0-7.222-7.222-6.842-11.784
				l-4.181,4.942l-1.901-8.363l-25.468,6.842l4.181-6.462l-15.585,1.521l6.462-7.983c0,0-17.866,8.743-19.006,17.106
				s-10.263,18.246-10.263,18.246l-3.801-7.602C156.991,335.56,152.43,301.349,172.576,291.086z"/>
			<path fill="#E6E6E6" d="M529.133,532.465H68.042V242.43h461.091V532.465z M69.563,530.564h458.05V244.33H69.563V530.564z"/>
			<rect x="97.312" y="532.465" fill="#FFFFFF" width="217.431" height="53.217"/>
			<path fill="#FFB8B8" d="M423.839,330.999c0,1.14,0,2.661-0.38,3.801c-1.14,2.281-3.801,2.661-5.322,4.181
				c-1.901,1.901-1.901,4.561-1.901,7.222c-0.38,2.661,0,5.702,0.76,8.363c0.38,1.521,1.14,2.661,1.901,3.801
				c1.14,1.521,1.901,3.041,3.041,4.942c0.38,0.76,1.14,1.901,1.901,2.661c1.901,1.901,4.181,3.421,6.842,4.181
				c1.521,0.76,3.421,0.76,4.942,0.38c1.14-0.38,1.901-1.14,3.041-1.901c1.14-1.14,2.281-2.281,3.421-3.421
				c1.14-2.281,1.901-4.942,1.901-7.603c0.76-7.602,1.14-15.585,1.14-23.568c0-0.76,0-1.521-0.38-2.661
				c-0.76-1.901-3.041-2.281-4.181-3.801c-1.14-1.52-1.14-3.421-1.14-4.942v-4.561c0-0.38,0-0.76-0.38-1.14l-0.38-0.38
				c-0.38,0-0.38,0-0.76,0c-2.281-0.38-4.942-0.76-7.602-0.38c-1.901,0-6.082,0-7.603,1.14c-1.52,1.14,0.38,4.181,0.76,6.082
				C423.458,325.677,423.839,328.338,423.839,330.999z"/>
			<path fill="#FFFFFF" d="M419.277,338.601c-1.901-1.14-4.181-0.38-5.322,1.521c-1.14,1.901-1.901,4.181-1.901,6.462
				c0,2.281,0,4.561-0.38,6.842c-1.14,4.942-4.561,8.743-4.942,13.684c-0.38,4.942,2.661,9.123,4.181,13.684
				c0.76,3.041,1.14,5.702,1.14,8.743c0,0.38,0,1.14,0,1.521s0.38,0.76,0.38,1.14c0.38,0.38,0.76,0.38,1.14,0.76
				c7.222,2.661,14.825,3.041,22.427,3.421l12.544,0.38c0.76,0,1.521,0,2.281-0.38c1.14-0.76,1.14-2.281,1.14-3.801
				c0-12.544-0.38-25.088-0.76-37.632c0-4.561-0.38-9.123-1.14-13.684c0-0.76-0.38-1.14-0.38-1.52c-0.38-0.38-0.76-0.76-1.14-1.14
				c-0.38,0-0.76-0.38-1.14,0c-0.38,0-0.76,0-1.14,0.38c-3.801,1.52-15.965,7.602-17.106,5.702
				C427.26,341.262,418.517,340.502,419.277,338.601z"/>
			<path fill="#2F2E41" d="M460.33,408.544h-57.019c0.38-0.38,0.76-0.76,0.76-1.14l0,0c2.281-2.661,2.661-5.702,3.801-8.743
				c0.76-2.281,1.521-4.942,2.281-7.222c0-0.38,0.38-0.76,0.76-1.14c0.38-0.38,0.38-0.38,0.76-0.76c0.38,0,0.38,0,0.76,0
				c0.38,0,0.76,0,1.14,0c10.263,0.76,20.527,1.14,30.79,2.281c1.14,0,2.661,0.38,3.801,0.38c1.14,0.76,2.281,1.901,3.041,2.661
				c3.421,3.041,6.082,7.222,7.602,11.404c0.38,0.38,0.38,1.14,0.38,1.521C459.95,407.784,460.33,408.164,460.33,408.544z"/>
			<path fill="#FFB8B8" d="M472.494,403.222c0,0.76-0.38,1.14-0.38,1.901l0,0c-0.38,0.76-0.38,1.14-0.76,1.901
				c0,0.38-0.38,0.76-0.38,1.14h-7.222c0.38-0.38,0.38-0.76,0.76-1.14c1.14-1.901,1.901-3.801,3.041-5.702
				c0-0.38,0.38-0.38,0.38-0.76C469.453,399.041,472.494,399.421,472.494,403.222z"/>
			<path fill="#E6E6E6" d="M513.928,364.07H347.814V259.535h165.734V364.07H513.928z M349.334,362.549h162.693V261.056H349.334
				V362.549z"/>
			<path fill="#E6E6E6" d="M306,585.682c9.503,0,17.106-8.363,17.106-19.006S315.503,547.67,306,547.67
				c-9.503,0-17.106,8.363-17.106,19.006C288.894,576.939,296.497,585.682,306,585.682z"/>
			<path fill="#FFFFFF" d="M306,581.12c7.222,0,12.924-6.462,12.924-14.445s-5.702-14.445-12.924-14.445
				c-7.222,0-12.924,6.462-12.924,14.445C292.696,574.658,298.778,581.12,306,581.12z"/>
			<path fill="#CCCED0" d="M312.462,574.658L312.462,574.658c-0.38,0-0.38,0-0.38-0.38l-12.924-14.445v-0.38v-0.38l0.38-0.38h0.38
				l12.924,14.445v0.38v0.38C312.842,574.278,312.842,574.278,312.462,574.658C312.842,574.658,312.462,574.658,312.462,574.658z"/>
			<path fill="#CCCED0" d="M305.62,568.957l-1.901-2.281l0,0l0,0l0,0l0,0c0,0.38,0.38,1.14,0.76,1.521
				C304.479,568.957,304.86,568.957,305.62,568.957C305.62,569.337,305.62,569.337,305.62,568.957
				C305.62,569.337,305.62,569.337,305.62,568.957L305.62,568.957L305.62,568.957z"/>
			<path fill="#CCCED0" d="M306,564.015l1.901,2.281l0,0l0,0l0,0l0,0c0-0.38-0.38-1.14-0.76-1.521
				C307.14,564.395,306.76,564.015,306,564.015C306.38,564.015,306.38,564.015,306,564.015L306,564.015L306,564.015L306,564.015z"/>
			<path fill="#CCCED0" d="M314.743,567.436c0-0.38,0-0.38,0-0.76s0-0.38-0.38-0.76c-1.14-1.521-2.281-3.041-3.801-4.181
				c-1.521-1.14-3.421-1.901-4.942-1.901c-0.76,0-1.901,0-2.661,0.38l0,0l0,0l0,0l0,0l1.901,1.901l0,0l0,0c0.76,0,1.14,0,1.901,0
				c0.76,0,1.14,0.38,1.521,1.14c0.38,0.38,0.76,1.14,0.76,1.901c0,0.76,0,1.52,0,1.901l0,0l0,0l2.661,2.661l0,0l0,0
				C313.222,569.717,313.983,568.576,314.743,567.436z"/>
			<path fill="#CCCED0" d="M306,570.477c-0.38,0-1.14,0-1.521-0.38c-0.38-0.38-0.76-0.76-1.14-1.14c-0.38-0.38-0.38-1.14-0.76-1.521
				c0-0.76,0-1.14,0-1.901l0,0l0,0l-2.661-2.661l0,0l0,0c-1.14,0.76-1.901,1.901-2.661,3.041c0,0.38-0.38,0.38-0.38,0.76
				s0,0.38,0,0.76c0.76,1.521,2.281,3.041,3.801,4.181c1.521,1.14,3.421,1.901,4.942,1.901c0.76,0,1.901,0,2.661-0.38l0,0l0,0l0,0
				l0,0l-1.901-1.901l0,0l0,0C306.38,570.477,306,570.477,306,570.477z"/>
			<path fill="#E6E6E6" d="M240.999,585.682c9.503,0,17.106-8.363,17.106-19.006s-7.602-19.006-17.106-19.006
				c-9.503,0-17.106,8.363-17.106,19.006C224.273,576.939,231.876,585.682,240.999,585.682z"/>
			<path fill="#FFFFFF" d="M240.999,581.12c7.222,0,12.924-6.462,12.924-14.445s-5.702-14.445-12.924-14.445
				s-12.924,6.462-12.924,14.445C228.075,574.658,233.776,581.12,240.999,581.12z"/>
			<path fill="#CCCED0" d="M246.321,575.799c-1.14,0-2.281-0.38-3.421-1.14c-1.901-1.14-3.801-2.661-5.322-4.181
				c-1.521-1.521-3.041-3.421-3.801-5.702c-1.52-2.661-1.14-4.181-0.76-4.942c0.38-0.76,0.76-1.14,1.52-1.521
				c0.38-0.38,0.76-0.38,1.14-0.76l0,0h0.38h0.38c0.38,0,0.38,0.38,0.76,0.76c0.76,1.14,1.521,1.901,1.901,3.041
				c0.38,0.38,0.38,0.76,0.38,1.14c0,0.38-0.38,0.76-0.38,1.14c0,0,0,0,0,0.38c-0.38,0.38-0.38,0.38-0.38,0.76
				c0.38,1.14,1.14,1.901,1.901,2.661c0.76,0.76,1.521,1.521,2.661,1.901c0.38,0,0.38,0,0.76-0.38l0,0
				c0.38-0.38,0.76-0.38,1.14-0.38l0,0c0.38,0,0.76,0.38,1.14,0.38c1.14,0.76,1.901,1.14,3.041,2.281c0.38,0.38,0.38,0.38,0.76,0.76
				v0.38v0.38l0,0c0,0.38-0.38,0.76-0.38,1.14c-0.38,0.76-0.76,1.14-1.521,1.521C247.081,575.799,246.701,575.799,246.321,575.799z"
				/>
			<path fill="#E6E6E6" d="M371.001,585.682c9.503,0,17.106-8.363,17.106-19.006s-7.602-19.006-17.106-19.006
				s-17.106,8.363-17.106,19.006C353.896,576.939,361.878,585.682,371.001,585.682z"/>
			<path fill="#FFFFFF" d="M371.001,581.12c7.222,0,12.924-6.462,12.924-14.445s-5.702-14.445-12.924-14.445
				c-7.222,0-12.924,6.462-12.924,14.445C358.077,574.658,363.779,581.12,371.001,581.12z"/>
			<path fill="#CCCED0" d="M373.662,575.039h-4.942c0,0,0,0-0.38,0c0,0,0,0-0.38,0c0,0,0,0,0-0.38c0,0,0,0,0-0.38c0,0,0,0,0-0.38
				c0,0,0,0,0-0.38c0,0,0,0,0.38,0c0,0,0,0,0.38,0h4.942c0,0,0,0,0.38,0c0,0,0,0,0.38,0c0,0,0,0,0,0.38c0,0,0,0,0,0.38
				c0,0,0,0,0,0.38c0,0,0,0,0,0.38C374.042,575.039,373.662,575.039,373.662,575.039L373.662,575.039z"/>
			<path fill="#CCCED0" d="M371.001,571.997c-1.521,0-2.661-0.76-3.801-1.901s-1.521-2.661-1.521-4.181v-1.14v-0.38l0.38-0.38
				c0,0,0.38,0,0.38,0.38v0.38v1.14c0,0.76,0,1.14,0.38,1.901c0.38,0.38,0.38,1.14,0.76,1.521c0.38,0.38,0.76,0.76,1.52,1.14
				c0.38,0.38,1.14,0.38,1.521,0.38s1.14,0,1.521-0.38s1.14-0.76,1.521-1.14s0.76-0.76,0.76-1.521c0.38-0.38,0.38-1.14,0.38-1.901
				v-1.14v-0.38l0.38-0.38c0,0,0.38,0,0.38,0.38v0.38v1.14c0,1.521-0.38,3.041-1.52,4.181
				C374.042,571.237,372.522,571.997,371.001,571.997z"/>
			<path fill="#CCCED0" d="M371.001,575.039L371.001,575.039c-0.38,0-0.38,0-0.38-0.38c0,0,0,0,0-0.38c0,0,0,0,0-0.38v-3.421
				c0,0,0,0,0-0.38c0,0,0,0,0-0.38c0,0,0,0,0.38,0c0,0,0,0,0.38,0c0.38,0,0,0,0.38,0c0,0,0,0,0.38,0c0,0,0,0,0,0.38c0,0,0,0,0,0.38
				v3.421c0,0,0,0,0,0.38c0,0,0,0,0,0.38C371.381,575.039,371.381,575.039,371.001,575.039
				C371.381,575.039,371.001,575.039,371.001,575.039z"/>
			<path fill="#CCCED0" d="M371.001,569.337c-0.38,0-0.76,0-1.14-0.38c-0.38,0-0.76-0.38-1.14-0.76
				c-0.38-0.76-0.76-1.521-0.76-2.281v-4.561c0-0.76,0.38-1.901,0.76-2.281c0.38-0.38,1.14-1.14,2.281-1.14l0,0
				c0.38,0,0.76,0,1.14,0.38c0.38,0,0.76,0.38,1.14,0.76c0.38,0.38,0.38,0.76,0.76,1.14c0,0.38,0.38,0.76,0.38,1.14v4.561
				c0,0.76-0.38,1.901-0.76,2.281C372.522,568.957,371.762,569.337,371.001,569.337z"/>
			<rect x="362.258" y="364.07" fill="#FFFFFF" width="141.026" height="55.878"/>
			<path fill="#464353" d="M445.125,293.366h-24.708v32.691h24.708V293.366z"/>
			<path opacity="0.1" enable-background="new    " d="M442.845,291.466h-24.708v32.691h24.708V291.466z"/>
			<path fill="#FFB8B8" d="M407.493,353.806l-0.38,8.363h7.222l0.38-11.404L407.493,353.806z"/>
			<path fill="#FFB8B8" d="M444.745,353.806l-1.14,8.363h6.462l0.38-11.404L444.745,353.806z"/>
			<path fill="#FFB8B8" d="M423.078,306.671c0,0-0.38,4.181-1.14,5.322c-0.76,1.14,7.602,11.024,14.445,1.14
				c0,0-3.041-3.041-2.281-6.082C434.862,303.63,423.078,306.671,423.078,306.671z"/>
			<path fill="#FFB8B8" d="M430.301,311.612c6.842,0,12.544-6.462,12.544-14.825c0-7.983-5.702-14.825-12.544-14.825
				s-12.544,6.462-12.544,14.825C418.137,304.77,423.458,311.612,430.301,311.612z"/>
			<path fill="#2F2E41" d="M429.921,316.934c0,0-5.322,0-6.082-5.702c-1.14,1.14-2.281,1.901-3.421,3.041
				c-0.38,0.38-5.322,3.421-6.462,3.801c-0.76,0.38-1.901,0.76-2.661,1.521c-1.14,1.14-2.281,2.661-3.041,4.181
				s-1.14,3.421-1.14,5.322c0,6.462-0.76,19.386-0.76,19.386l0.38,4.561v3.041c0,0,4.561,1.521,7.222-1.521c0,0,0-1.14,0.38-1.521
				c0.38-0.38,0.76-1.901,0.38-2.281c0-0.76,0-1.901,0-2.661c0,0.38,0.38,0.76,0.76,1.14c0.38,0.76,0.38,1.521,0,2.661
				c-0.38,0.76-0.38,1.901-0.38,2.281s0,0.76,0,0.76c0,0.38,0,0.76-0.38,0.76c-0.38,0.76-0.76,1.521-1.14,2.661l-0.38,1.901
				c-0.38,0.76-0.38,1.521-0.76,2.281h30.79c-0.38-1.901-1.14-3.801-1.14-5.702c0-0.76-0.76-4.561,0-5.702
				c0.76-1.521,1.521-3.041,1.521-4.561l0.38,3.801l-0.76,8.743c0,0,5.702,2.281,6.462,0.76c0.76-2.281,1.14-4.561,1.521-7.222
				c0,0,1.521-7.222,1.901-8.363c0.38-1.14,1.14-21.287-3.421-24.328c-4.561-3.041-13.304-7.983-13.684-7.603
				c-0.38,1.521-1.52,2.661-2.661,3.421C432.581,316.934,431.061,316.934,429.921,316.934z"/>
			<path opacity="0.1" fill="none" stroke="#000000" stroke-miterlimit="10" enable-background="new    " d="M414.716,336.701
				c-0.76,1.521-1.14,3.421-1.14,4.942c0.38,1.901,0.76,3.421,1.52,4.942"/>
			<path opacity="0.1" fill="none" stroke="#000000" stroke-miterlimit="10" enable-background="new    " d="M444.745,337.841
				c0.38,0.76,0.38,1.52,0.38,2.281c0.38,1.14,0.38,1.901,0,3.041c0,1.14-0.38,1.901-0.76,2.661"/>
			<path fill="#464353" d="M424.979,286.904c1.14-0.38,1.901,0,3.041,0.38c0.76,0.38,1.901,1.14,2.661,1.14
				c0.76,0,1.14,0,1.901,0.38c1.14,0.38,2.281,0.76,3.041,1.901c0.76,1.14,1.521,2.281,1.521,3.801
				c0.38,3.421-1.14,7.222-1.14,10.643c0,2.281,0.76,4.181,1.901,5.702c1.14,1.14,1.901,2.281,2.281,3.421
				c0.38,0.76,0.38,1.901,0.76,3.041c0.76,1.521,1.901,3.041,3.421,3.421c1.521,0.76,3.041,1.52,4.181,2.281
				c2.661,1.901,3.801,5.702,6.842,6.462h0.38h0.38l0.38-0.38v-0.38c0-0.76,0-1.521-0.38-2.281c-0.38-0.76-0.38-1.14-1.14-1.901
				c-0.76-0.76-1.901-1.521-1.901-2.661c-0.38-1.14,0.38-1.901,0.76-3.041c1.14-3.421-0.76-6.842-2.661-9.503
				c-1.901-2.661-4.181-5.322-4.561-8.743c0-1.14,0-2.281,0-3.421c0-2.281-0.38-4.942-1.14-6.842c-0.38-1.14-0.76-2.281-1.521-3.421
				c-0.76-0.76-1.52-1.52-1.901-2.281c-0.76-1.521-1.521-3.041-2.281-4.561c-1.14-1.901-2.281-3.421-3.801-4.181
				c-1.52-1.14-3.421-1.521-5.322-1.521c-3.421,0-6.842,1.901-9.883,3.801c-1.14,0.76-1.901,1.521-2.661,2.661
				c-1.14,2.281-0.76,5.322-1.521,7.983c-0.76,2.661-2.281,4.561-3.041,7.222c0,0.76-0.38,1.521,0,2.281
				c0.38,0.76,0.38,1.52,0.76,2.281c0.76,1.901,1.14,3.801,1.14,6.082c0.38,2.281,0.38,4.942-0.76,7.222
				c-0.76,1.14-1.901,2.281-3.041,3.041c1.14,1.14,2.661,1.901,4.181,1.521c2.281,0,4.942,0,6.462-2.281
				c0.76-1.52,1.14-3.421,1.14-5.322c0-1.901-0.38-4.181-1.14-6.082c-0.76-2.661-1.901-5.322-2.281-7.983c0-1.14,0-1.901,0-3.041
				c0.38-1.14,0.76-1.901,1.14-2.661c0.38-0.76,1.14-1.14,1.521-1.52C423.839,288.045,423.839,287.284,424.979,286.904z"/>
		</g>
	</g>
</g>
</svg>
