<?xml version="1.0" encoding="utf-8"?>
<!-- Generator: Adobe Illustrator 17.0.0, SVG Export Plug-In . SVG Version: 6.00 Build 0)  -->
<!DOCTYPE svg PUBLIC "-//W3C//DTD SVG 1.1//EN" "http://www.w3.org/Graphics/SVG/1.1/DTD/svg11.dtd">
<svg version="1.1" id="a77d060e-bfde-44e4-9303-3da9960cf22f"
	 xmlns="http://www.w3.org/2000/svg" xmlns:xlink="http://www.w3.org/1999/xlink" x="0px" y="0px" width="847.936px" height="605px"
	 viewBox="0 -18.32 847.936 605" enable-background="new 0 -18.32 847.936 605" xml:space="preserve">
<path fill="#E6E6E6" d="M836.557,568.361H463.905c-6.281-0.007-11.371-5.097-11.378-11.378V293.559
	c0.007-6.281,5.097-11.371,11.378-11.378h372.653c6.281,0.007,11.371,5.097,11.378,11.378v263.424
	C847.929,563.264,842.839,568.354,836.557,568.361z"/>
<path fill="#FFFFFF" d="M821.043,297.693h-341.62c-6.283,0.008-11.375,5.1-11.383,11.383v232.388
	c0.008,6.283,5.1,11.375,11.383,11.383h341.62c6.282-0.009,11.371-5.102,11.375-11.383V309.076
	C832.414,302.794,827.325,297.702,821.043,297.693z"/>
<circle fill="#FFB8B8" cx="638.059" cy="397.968" r="45.875"/>
<path fill="#FFB8B8" d="M691.307,493.814l-81.92,8.192c7.572-34.087,9.408-65.934,0-93.389h57.344
	C663.616,431.495,675.259,461.58,691.307,493.814z"/>
<path fill="#3F3D56" d="M747.842,494.068c-1.022,19.977-2.206,39.627-3.666,58.779H552.634c-2.266-12.645-5.022-25.371-8.267-38.176
	c-2.123-8.274,2.03-16.872,9.829-20.354l6.112-2.721l53.989-23.994l0.635,0.137l22.303,4.773l39.327-9.829l0.687,0.137l55.131,11.28
	c1.63,0.336,3.211,0.879,4.704,1.614C744.008,479.142,748.234,486.353,747.842,494.068z"/>
<path fill="#3F3D56" d="M777.759,552.848h-41.387l-7.383-78.696c19.523,1.944,35.541,16.303,39.601,35.498L777.759,552.848z"/>
<path fill="#3F3D56" d="M565.03,552.848h-39.687l1.425-13.916c0.421-21.388,13.601-40.448,33.463-48.392l0.077,1.056L565.03,552.848
	z"/>
<path fill="#2F2E41" d="M601.637,371.829c20.678-11.83,41.383-4.272,62.125,28.008l4.24,34.385
	c31.13-29.491,29.556-69.737-5.354-86.107c-3.432-1.609-6.758-3.44-10.493-2.793c-16.146-8.646-35.449-2.152-43.538,11.696
	c-6.45,1.117-15.696,13.931-15.363,20.468L601.637,371.829z"/>
<ellipse fill="#FFB8B8" cx="661.816" cy="400.426" rx="5.734" ry="7.373"/>
<path fill="#E6E6E6" d="M488.963,364.376H14.487C6.49,364.367,0.009,357.886,0,349.888V14.487C0.009,6.49,6.49,0.009,14.487,0
	h474.475c7.997,0.009,14.478,6.49,14.487,14.487v335.401C503.441,357.886,496.96,364.367,488.963,364.376z"/>
<path fill="#FFFFFF" d="M469.209,19.751H34.246c-8,0.01-14.483,6.493-14.494,14.494V330.13c0.01,8,6.493,14.483,14.494,14.494
	h434.963c7.998-0.011,14.478-6.495,14.483-14.494V34.245C483.687,26.247,477.208,19.762,469.209,19.751z"/>
<polygon fill="#2F2E41" points="353.705,230.274 219.549,260.975 162.866,154.068 277.58,109.282 "/>
<circle fill="#FFB9B9" cx="240.384" cy="171.692" r="48.594"/>
<path fill="#FFB9B9" d="M234.739,331.819l117.961-17.029c-17.609-31.872-35.764-60.92-60.163-57.672
	c-21.707-15.192-22.958-39.615-17.469-67.079l-59.043,15.783c5.195,16.93,3.186,31.796-10.651,43.273
	C224.707,276.312,237.219,303.784,234.739,331.819z"/>
<path fill="#3F3D56" d="M377.536,344.624H190.878c-2.645-3.552-5.458-6.988-8.438-10.307c-0.197-0.23-0.404-0.47-0.612-0.7
	l5.017-70.927l0.503-7.17c0.258-3.746,2.688-6.992,6.208-8.296h0.011c0.28-0.119,0.569-0.218,0.863-0.295l15.477-4.132l1.541-0.415
	l0.219,0.262l8.69,10.078l5.804,6.744l25.664,29.785c4.655,5.401,11.272,8.722,18.385,9.225l9.499,0.667
	c16.811,1.191,28.714-12.417,28.714-26.856c0.004-5.071-1.482-10.031-4.274-14.264c-0.696-1.083-1.471-2.113-2.317-3.082
	l10.799,1.738l15.477,2.503l17.445,41.011C363.087,314.095,374.159,328.851,377.536,344.624z"/>
<polygon fill="#FFB9B9" points="152.415,283.359 175.882,325.791 162.645,338.109 155.639,344.624 94.822,344.624 131.275,305.843 
	"/>
<path fill="#3F3D56" d="M390.314,344.624h-57.253l-6.066-26.113l-12.931-55.668l-1.432-6.165l-0.033-0.142l13.543,0.82
	c15.407,0.938,29.039,10.3,35.447,24.342L390.314,344.624z"/>
<path fill="#3F3D56" d="M164.227,340.485l56.314-19.066l-19.855-67.551c-1.328-4.517-5.74-7.402-10.411-6.806l0,0
	c-1.912,0.244-3.707,1.059-5.149,2.338l-57.527,51.037C138.604,318.555,150.322,319.01,164.227,340.485z"/>
<path fill="#2F2E41" d="M272.667,92.799c0,0,29.719,5.59,36.591,42.655c1.075,6.251,1.271,12.621,0.582,18.926
	c-0.686,7.135,0.309,22.204,15.801,39.947c10.108,11.508,19.527,23.605,28.207,36.225l0,0l-31.054,8.267l-13.875-51.45
	c-6.727-24.944-17.09-48.762-30.755-70.687l-0.285-0.458c0,0-10.314,27.559-37.958,31.336l8.524-11.222
	c0,0-32.316,18.681-50.625,24.388c-6.342,1.978-9.88,8.723-7.902,15.066c0.721,2.311,2.122,4.351,4.02,5.853
	c0.13,0.102,0.262,0.204,0.397,0.307c13.467,10.228,40.94,34.634,30.086,58.243s1.803,27.914,1.803,27.914l-23.34-8.879
	l-10.682-4.574l1.079,7.898l-52.149,1.093c0,0-14.092-0.086,10.939-37.701c0,0,6.04-14.104,1.081-24.88
	c-3.802-8.263-6.158-17.139-5.78-26.227C148.95,136.914,164.926,59.762,272.667,92.799z"/>
<path fill="#3F3D56" d="M671.784,233.819c-0.474-0.001-0.882-0.333-0.979-0.796c-4.758-22.886-21.223-43.917-46.36-59.221
	c-25.469-15.504-58.169-24.043-92.076-24.043c-0.552,0-1-0.448-1-1s0.448-1,1-1c34.269,0,67.338,8.643,93.116,24.335
	c25.616,15.594,42.406,37.088,47.279,60.522c0.112,0.541-0.236,1.071-0.778,1.183C671.92,233.812,671.852,233.819,671.784,233.819
	L671.784,233.819z"/>
<polygon fill="#3F3D56" points="661.281,231.145 673.255,247.094 681.082,228.751 "/>
<path fill="#3F3D56" d="M415.468,486.812c-34.269,0-67.338-8.643-93.116-24.336c-25.617-15.595-42.407-37.088-47.279-60.522
	c-0.114-0.54,0.232-1.071,0.772-1.185s1.071,0.232,1.185,0.772c0,0.002,0.001,0.004,0.001,0.007
	c4.758,22.886,21.223,43.917,46.361,59.221c25.469,15.505,58.169,24.044,92.076,24.044c0.552,0,1,0.448,1,1
	S416.02,486.812,415.468,486.812z"/>
<polygon fill="#3F3D56" points="286.555,403.424 274.581,387.475 266.754,405.818 "/>
</svg>
