<?xml version="1.0" encoding="utf-8"?>
<!-- Generator: Adobe Illustrator 17.0.0, SVG Export Plug-In . SVG Version: 6.00 Build 0)  -->
<!DOCTYPE svg PUBLIC "-//W3C//DTD SVG 1.1//EN" "http://www.w3.org/Graphics/SVG/1.1/DTD/svg11.dtd">
<svg version="1.1" id="a90b5256-b423-42d1-825d-5fdc0dc55c5f"
	 xmlns="http://www.w3.org/2000/svg" xmlns:xlink="http://www.w3.org/1999/xlink" x="0px" y="0px" width="882.951px"
	 height="612.148px" viewBox="0 0 882.951 612.148" enable-background="new 0 0 882.951 612.148" xml:space="preserve">
<path fill="#E6E6E6" d="M780.055,530.318c0,0,112.306-51.7,72.853-87.552S780.055,530.318,780.055,530.318z"/>
<path fill="#E6E6E6" d="M782.01,542.382c0,0,51.62-169.607-24.392-161.495S782.01,542.382,782.01,542.382z"/>
<path fill="#E6E6E6" d="M819.646,527.34l-2.167,28.372l-0.034,0.49c0.002,4.43-0.222,8.858-0.671,13.266
	c-2.94,28.939-15.579,42.128-30.349,42.128s-26.858-13.189-29.799-42.128c-0.449-4.408-0.673-8.835-0.671-13.266l-0.017-0.396
	l-0.009-0.095l-2.175-28.372L819.646,527.34L819.646,527.34z"/>
<path fill="#FFFFFF" d="M755.931,555.711l0.009,0.095l0.017,0.396c-0.002,4.43,0.222,8.858,0.671,13.266h60.148
	c0.449-4.408,0.673-8.835,0.671-13.266l0.034-0.49L755.931,555.711L755.931,555.711z"/>
<path fill="#E6E6E6" d="M47.567,547.669c0,0,86.949-40.027,56.404-67.784S47.567,547.669,47.567,547.669z"/>
<path fill="#E6E6E6" d="M49.08,557.009c0,0,39.965-131.312-18.885-125.032S49.08,557.009,49.08,557.009z"/>
<path fill="#E6E6E6" d="M78.219,545.363l-1.677,21.966l-0.027,0.379c0.002,3.43-0.172,6.858-0.519,10.271
	c-2.276,22.405-12.061,32.616-23.497,32.616s-20.794-10.211-23.071-32.616c-0.348-3.412-0.521-6.841-0.519-10.271l-0.013-0.306
	l-0.007-0.073l-1.684-21.966H78.219z"/>
<path fill="#FFFFFF" d="M28.89,567.329l0.007,0.073l0.013,0.306c-0.002,3.43,0.172,6.858,0.519,10.271h46.567
	c0.347-3.412,0.521-6.841,0.519-10.271l0.027-0.379H28.89z"/>
<path fill="#E6E6E6" d="M590.235,182.587V144h6v38.587c4.096,1.657,6.073,6.32,4.416,10.416s-6.32,6.073-10.416,4.416
	s-6.073-6.32-4.416-10.416C586.632,184.994,588.225,183.4,590.235,182.587z"/>
<path fill="#E6E6E6" d="M576.235,572h41V74h16v498h41c20.435,0,37,16.565,37,37l0,0l0,0h-172l0,0
	C539.235,588.565,555.8,572,576.235,572L576.235,572z"/>
<path fill="#E6E6E6" d="M711.152,148H539.318l10.508-131.34c0.796-9.387,8.625-16.615,18.046-16.66h114.727
	c9.421,0.045,17.25,7.273,18.046,16.66L711.152,148z"/>
<path fill="#FECEB8" d="M471.896,378.52L471.896,378.52c6.739-1.121,13.111,3.434,14.232,10.173
	c0.009,0.055,0.018,0.111,0.026,0.166l4.838,31.749l-16.46,4.366l-12.061-29.581c-2.579-6.326,0.458-13.545,6.784-16.125
	C470.105,378.921,470.991,378.67,471.896,378.52z"/>
<path fill="#FF825C" d="M472.204,420.548c-9.135,36.302-5.203,69.506,28.812,95.576c40.799-11.247,67.935-38.382,84.491-77.818
	c4.208-10.024-0.507-21.561-10.531-25.769c-0.272-0.114-0.546-0.222-0.822-0.324l0,0c-7.678-2.823-16.302-0.6-21.659,5.582
	L512.464,464l-18.78-46.589L472.204,420.548z"/>
<path fill="#424251" d="M263.163,611.007c37.253-1.979,60.395-14.77,66-41l-6-11l-68.695,31.294
	c-4.829,2.2-6.961,7.898-4.761,12.728c1.065,2.339,3.023,4.153,5.436,5.038L263.163,611.007z"/>
<path fill="#424251" d="M291.948,611.27c19.356-0.586,37.97-0.404,55.608,0.79c6.439,0.44,12.033-4.382,12.547-10.816l1.059-13.237
	l15-24l-13-13c-21.847,21.759-45.807,40.035-74.263,50.899c-2.338,1.602-2.935,4.796-1.333,7.134
	C288.553,610.48,290.204,611.32,291.948,611.27z"/>
<path fill="#424251" d="M397.163,517.007c24.716,44.226,49.025,74.04,81,90c39.339,12.984,68.09-4.218,90.5-39.5l-65-43l-9.5,9.5
	l-86.098-65.518c-4.377-4.144-11.275-3.991-15.464,0.344l-73.438,90.174l9,15L397.163,517.007z"/>
<polygon fill="#424251" points="375.163,569.007 409.163,517.007 401.163,502.007 356.163,549.007 "/>
<circle fill="#FECEB8" cx="571.163" cy="369.007" r="34"/>
<path fill="#FECEB8" d="M562.163,432.007l38-13c-5.623-8.936-8.088-19.499-7-30h-31C563.926,404.265,564.19,418.737,562.163,432.007
	z"/>
<path fill="#FF825C" d="M481.163,523.007c5.697,2.339,6.113,9.923,11.5,12.5c26.039,12.459,53.589,22.568,72.5,40.5
	c44.193-30.01,85.155-123.217,32-164c-18.144,10.617-34.351,18.215-34,0L481.163,523.007z"/>
<path opacity="0.2" enable-background="new    " d="M504.163,483.007l18.5-6.5l36.5,28.5l16.362-58.903
	c1.135-4.085,2.974-2.015,5.614,0.823c7.97-7.377,20.412-6.896,27.789,1.074c3.159,3.413,5.007,7.836,5.214,12.483
	c1.946,42.726-10.938,78.874-42.978,106.523c-41.907-8.973-59.692-37.286-67-74l1.981-1.321
	C505.414,488.849,504.754,485.956,504.163,483.007z"/>
<path fill="#3C3C49" d="M566.588,324.281c-11.215,2.562-23.98,6.193-24.696,9.567c-11.537,2.907-20.245,9.871-22.023,20.487
	c-0.561,3.466,1.794,6.731,5.26,7.292c0.37,0.06,0.744,0.087,1.118,0.081c6.274-0.081,15.693-0.682,21.912-3.279
	c18.067,11.641,21.099,41.918,13.209,62.528l12.416-1.138l12.845-37.602l3.281,36.124l28.333-3.746l-3.649-46.065
	c-1.122-10.857-4.816-21.29-10.778-30.433c-0.619-0.918-1.297-1.796-2.028-2.627C593.007,325.548,579.486,321.25,566.588,324.281z"
	/>
<polygon fill="#3F3D56" points="502.666,438.428 471.549,475.011 424.873,419.925 456.411,381.659 "/>
<path fill="#F2F2F2" d="M432.863,421.187l37.004-30.276c-2.103-5.046-12.195-3.364-12.195-3.364l-28.966,29.366
	c-1.009,1.023-1.874,2.178-2.571,3.433l0,0L432.863,421.187z"/>
<path fill="#424251" d="M431.181,419.084l42.05-32.799l46.676,70.645l-43.943,29.646c-4.205,1.682-8.41-1.262-8.41-1.262
	l-42.891-65.599L431.181,419.084z"/>
<rect x="454.36" y="389.888" transform="matrix(-0.5835 -0.8121 0.8121 -0.5835 389.9315 1012.8968)" fill="#FF825C" width="0.681" height="33.143"/>
<rect x="426.074" y="449.683" transform="matrix(-0.5517 -0.8341 0.8341 -0.5517 335.4637 1080.3679)" fill="#FF825C" width="64.038" height="0.682"/>
<rect x="493.886" y="450.114" transform="matrix(-0.5926 -0.8055 0.8055 -0.5926 410.2445 1143.2123)" fill="#FF825C" width="0.682" height="35.492"/>
<rect x="459.087" y="423.611" transform="matrix(-0.5713 -0.8208 0.8208 -0.5713 423.7077 1069.2284)" fill="#FF825C" width="64.05" height="0.681"/>
<rect x="445.119" y="379.965" transform="matrix(-0.6762 -0.7367 0.7367 -0.6762 449.9058 1002.8286)" fill="#B3B3B3" width="0.42" height="45.161"/>
<rect x="447.083" y="379.712" transform="matrix(-0.6618 -0.7497 0.7497 -0.6618 441.253 1004.8788)" fill="#B3B3B3" width="0.421" height="46.392"/>
<rect x="448.637" y="379.702" transform="matrix(-0.6403 -0.7681 0.7681 -0.6403 426.5465 1006.1383)" fill="#B3B3B3" width="0.421" height="46.994"/>
<path fill="#FECEB8" d="M485.87,449.168L485.87,449.168c5.608-3.901,13.317-2.518,17.219,3.09c0.032,0.046,0.064,0.092,0.095,0.139
	l17.98,26.61l-13,11l-23.576-21.555c-5.042-4.61-5.392-12.434-0.782-17.476C484.423,450.298,485.116,449.692,485.87,449.168z"/>
<path fill="#FF825C" d="M504.163,487.007c7.308,36.714,25.093,65.027,67,74c32.04-27.65,44.925-63.797,42.978-106.523
	c-0.495-10.86-9.7-19.262-20.56-18.767c-0.294,0.013-0.588,0.033-0.882,0.06l0,0c-8.147,0.741-14.985,6.445-17.175,14.327
	l-16.362,58.903l-36.937-34.042L504.163,487.007z"/>
<polygon fill="#3F3D56" points="0.395,612.148 882.951,612.148 882.951,609.966 0,609.966 "/>
<path fill="#E6E6E6" d="M421.663,91.507c1.104,0.001,1.999,0.896,2,2v156c-0.001,1.104-0.896,1.999-2,2h-130
	c-1.104-0.001-1.999-0.896-2-2v-156c0.001-1.104,0.896-1.999,2-2H421.663z"/>
<path fill="#FFFFFF" d="M408.163,236.007h-103v-129h103V236.007z"/>
<path fill="#E6E6E6" d="M205.23,132.507c0.659,0.001,1.193,0.535,1.194,1.194v77.612c-0.001,0.659-0.535,1.193-1.194,1.194h-93.134
	c-0.659-0.001-1.193-0.535-1.194-1.194v-77.612c0.001-0.659,0.535-1.193,1.194-1.194H205.23z"/>
<path fill="#FFFFFF" d="M197.17,141.761v61.493h-77.015v-61.493H197.17z"/>
<path fill="#E6E6E6" d="M338.476,102.507h36.373c2.755,0.011,4.997-2.214,5.008-4.969c0.003-0.889-0.231-1.763-0.678-2.531
	l-18.187-31.5c-0.015-0.026-0.03-0.052-0.045-0.078c-0.806-1.359-2.214-2.25-3.787-2.398l-0.026-0.002
	c-0.155-0.014-0.313-0.021-0.472-0.021c-1.789-0.011-3.445,0.945-4.33,2.5l-18.187,31.5c-1.381,2.392-0.561,5.45,1.831,6.83
	C336.737,102.276,337.599,102.507,338.476,102.507L338.476,102.507z M375.853,97.502c-0.002,0.177-0.049,0.351-0.138,0.505
	c-0.176,0.312-0.508,0.504-0.866,0.5h-36.373c-0.358,0.004-0.69-0.188-0.866-0.5c-0.089-0.153-0.136-0.327-0.138-0.504
	c0.001-0.174,0.049-0.345,0.138-0.495l18.187-31.5c0.276-0.478,0.888-0.642,1.367-0.366c0.152,0.088,0.278,0.214,0.366,0.366
	l18.187,31.5C375.805,97.157,375.852,97.328,375.853,97.502z"/>
<circle fill="#E6E6E6" cx="356.663" cy="67.507" r="3"/>
<path fill="#E6E6E6" d="M148.803,135.007h19.72c1.494,0.006,2.709-1.2,2.715-2.694c0.002-0.482-0.125-0.956-0.368-1.372
	l-9.86-17.078l-0.025-0.042c-0.437-0.737-1.2-1.22-2.053-1.3l-0.014-0.001c-0.084-0.008-0.17-0.012-0.256-0.012
	c-0.97-0.006-1.868,0.512-2.348,1.355l-9.86,17.078c-0.748,1.297-0.304,2.955,0.993,3.703
	C147.86,134.882,148.327,135.007,148.803,135.007L148.803,135.007z M169.068,132.293c-0.001,0.096-0.027,0.19-0.075,0.274
	c-0.095,0.169-0.275,0.273-0.47,0.271h-19.72c-0.194,0.002-0.374-0.102-0.47-0.271c-0.048-0.083-0.074-0.177-0.075-0.273
	c0.001-0.095,0.026-0.187,0.075-0.268l9.86-17.079c0.15-0.259,0.482-0.348,0.741-0.198c0.082,0.048,0.151,0.116,0.198,0.198
	l9.86,17.078C169.041,132.106,169.067,132.199,169.068,132.293L169.068,132.293z"/>
<circle fill="#E6E6E6" cx="158.663" cy="116.031" r="1.627"/>
<path fill="#E6E6E6" d="M406.985,186.888c-2.905-6.669-8.423-11.849-15.262-14.327c-7.121-2.749-15.087-2.253-21.812,1.357
	c-7.804,4.142-14.042,10.653-21.968,14.617c-7.706,3.818-16.186,5.815-24.786,5.839c-9.737,0.076-19.323-2.412-27.793-7.214
	c-0.701-0.443-0.911-1.37-0.468-2.071c0.421-0.668,1.288-0.895,1.982-0.52c15.593,8.738,34.527,9.086,50.43,0.925
	c7.951-4.169,14.251-10.901,22.351-14.807c6.946-3.371,14.951-3.82,22.231-1.248c8.104,2.718,14.653,8.781,17.988,16.651
	C410.606,187.877,407.705,188.655,406.985,186.888L406.985,186.888z"/>
<path fill="#E6E6E6" d="M409.355,214.931c-16.648-3.717-33.918-3.657-50.54,0.175c-14.766,3.424-30.009,9.585-45.234,4.99
	c-6.802-2.053-13.035-6.158-16.53-12.477c-0.935-1.691,1.655-3.206,2.59-1.514c6.579,11.897,21.992,13.904,34.166,11.952
	c8.134-1.304,15.974-3.92,23.98-5.791c17.213-4.036,35.117-4.114,52.364-0.228C412.036,212.458,411.239,215.351,409.355,214.931
	L409.355,214.931z"/>
<path fill="#E6E6E6" d="M410.436,147.872c-15.963-2.715-32.313-2.133-48.042,1.709c-14.695,3.6-29.059,11.826-44.597,10.405
	c-7.194-0.658-14.316-3.303-19.203-8.807c-1.278-1.439,0.836-3.569,2.121-2.121c4.216,4.747,10.288,7.208,16.519,7.873
	c7.182,0.766,14.238-0.722,21.074-2.836c7.566-2.34,14.917-5.305,22.609-7.239c16.457-4.132,33.597-4.772,50.316-1.877
	C413.133,145.303,412.328,148.195,410.436,147.872L410.436,147.872z"/>
<path fill="#E6E6E6" d="M183.759,140.747c-6.897,7.063-11.655,15.934-13.722,25.587c-3.222,15.56,0.897,31.737,11.168,43.861
	c1.243,1.463-0.869,3.596-2.121,2.121c-6.905-8.136-11.315-18.092-12.699-28.673c-2.043-16.546,3.573-33.121,15.253-45.018
	C182.991,137.245,185.112,139.367,183.759,140.747L183.759,140.747z"/>
<path fill="#E6E6E6" d="M138.748,134.346c9.194,6.743,14.341,17.627,15.065,28.885c0.754,11.714-3.714,23.026-10.907,32.12
	c-4.197,5.237-9.211,9.763-14.848,13.404c-1.62,1.06-3.125-1.536-1.514-2.59c9.185-6.01,17.044-14.546,21.217-24.791
	c4.109-9.828,4.14-20.887,0.087-30.738c-2.248-5.434-5.913-10.166-10.614-13.7C135.693,135.806,137.188,133.202,138.748,134.346
	L138.748,134.346z"/>
<circle fill="#E6E6E6" cx="349.663" cy="150.507" r="14"/>
</svg>
