<?xml version="1.0" encoding="utf-8"?>
<!-- Generator: Adobe Illustrator 17.0.0, SVG Export Plug-In . SVG Version: 6.00 Build 0)  -->
<!DOCTYPE svg PUBLIC "-//W3C//DTD SVG 1.1//EN" "http://www.w3.org/Graphics/SVG/1.1/DTD/svg11.dtd">
<svg version="1.1" id="Layer_1" xmlns="http://www.w3.org/2000/svg" xmlns:xlink="http://www.w3.org/1999/xlink" x="0px" y="0px"
	 width="612px" height="792px" viewBox="0 0 612 792" enable-background="new 0 0 612 792" xml:space="preserve">
<path fill="#FFFFFF" stroke="#4B4B4B" stroke-width="4" stroke-miterlimit="10" d="M428.219,134.625H172.125
	c-7.042,0-12.75,5.708-12.75,12.75v497.25c0,7.042,5.708,12.75,12.75,12.75h369.75c7.042,0,12.75-5.708,12.75-12.75V261.031
	c0-3.381-1.343-6.624-3.734-9.016L437.234,138.359C434.843,135.968,431.6,134.625,428.219,134.625z"/>
<path fill="none" stroke="#4B4B4B" stroke-width="4" stroke-miterlimit="10" d="M427.125,134.625v114.75
	c0,7.042,5.708,12.75,12.75,12.75h114.75"/>
<path fill="#4B4B4B" stroke="#4B4B4B" stroke-miterlimit="10" d="M503.625,478.875H306v-12.75h197.625
	c3.521,0,6.375,2.854,6.375,6.375l0,0C510,476.021,507.146,478.875,503.625,478.875z M503.625,440.625H306v-12.75h197.625
	c3.521,0,6.375,2.854,6.375,6.375l0,0C510,437.771,507.146,440.625,503.625,440.625z M503.625,402.375H306v-12.75h197.625
	c3.521,0,6.375,2.854,6.375,6.375l0,0C510,399.521,507.146,402.375,503.625,402.375z M503.625,364.125H306v-12.75h197.625
	c3.521,0,6.375,2.854,6.375,6.375l0,0C510,361.271,507.146,364.125,503.625,364.125z M503.625,517.125H306v-12.75h197.625
	c3.521,0,6.375,2.854,6.375,6.375l0,0C510,514.271,507.146,517.125,503.625,517.125z"/>
<path fill="#FF825C" d="M76.5,561.75h204c14.083,0,25.5-11.417,25.5-25.5v-204c0-14.083-11.417-25.5-25.5-25.5h-204
	c-14.083,0-25.5,11.417-25.5,25.5v204C51,550.333,62.417,561.75,76.5,561.75z"/>
<path fill="#FFFFFF" d="M137.856,476.615c0.421,3.328,0.695,6.228,0.826,8.706h0.486c0.195-2.349,0.567-5.182,1.116-8.51
	c0.55-3.322,1.086-6.126,1.605-8.409l22.529-97.903h29.135l23.308,96.436c1.167,4.761,2.138,10.82,2.913,18.189h0.388
	c0.324-5.087,1.133-10.955,2.428-17.605l18.648-97.02h26.512l-32.629,140.25h-30.983l-22.239-92.912
	c-0.648-2.676-1.376-6.16-2.185-10.466c-0.81-4.3-1.311-7.431-1.504-9.387h-0.388c-0.259,2.282-0.762,5.671-1.507,10.168
	c-0.745,4.502-1.345,7.824-1.797,9.977l-20.88,92.619h-31.465L89.25,370.5h26.997l20.3,98.1
	C136.999,470.617,137.435,473.293,137.856,476.615z"/>
</svg>
