<?xml version="1.0" encoding="utf-8"?>
<!-- Generator: Adobe Illustrator 17.0.0, SVG Export Plug-In . SVG Version: 6.00 Build 0)  -->
<!DOCTYPE svg PUBLIC "-//W3C//DTD SVG 1.1//EN" "http://www.w3.org/Graphics/SVG/1.1/DTD/svg11.dtd">
<svg version="1.1" id="Layer_1" xmlns="http://www.w3.org/2000/svg" xmlns:xlink="http://www.w3.org/1999/xlink" x="0px" y="0px"
	 width="487px" height="484px" viewBox="0 0 487 484" enable-background="new 0 0 487 484" xml:space="preserve">
<g>
	<defs>
		<rect id="SVGID_1_" width="487" height="484"/>
	</defs>
	<clipPath id="SVGID_2_">
		<use xlink:href="#SVGID_1_"  overflow="visible"/>
	</clipPath>
	<g clip-path="url(#SVGID_2_)">
		
			<linearGradient id="SVGID_3_" gradientUnits="userSpaceOnUse" x1="246.1975" y1="-23.96" x2="246.1975" y2="193.849" gradientTransform="matrix(1 0 0 -1 8.4 460.04)">
			<stop  offset="0" style="stop-color:#808080;stop-opacity:0.25"/>
			<stop  offset="0.54" style="stop-color:#808080;stop-opacity:0.12"/>
			<stop  offset="1" style="stop-color:#808080;stop-opacity:0.1"/>
		</linearGradient>
		<path fill="url(#SVGID_3_)" d="M279.302,266.191h-49.409V484h49.409V266.191z"/>
		<path fill="#ECEFF1" d="M276.05,266.191h-41.609v213.912h41.609V266.191z"/>
		
			<linearGradient id="SVGID_4_" gradientUnits="userSpaceOnUse" x1="94925.2031" y1="275.1229" x2="333884.5938" y2="275.1229" gradientTransform="matrix(1 0 0 -1 8.4 460.04)">
			<stop  offset="0" style="stop-color:#808080;stop-opacity:0.25"/>
			<stop  offset="0.54" style="stop-color:#808080;stop-opacity:0.12"/>
			<stop  offset="1" style="stop-color:#808080;stop-opacity:0.1"/>
		</linearGradient>
		<path fill="url(#SVGID_4_)" d="M394.248,96.492H171.725c-7.649,0.195-15.187,1.875-22.195,4.947
			c-22.62,10.025-35.786,25.761-39.504,60.658v80.624l-58.964-0.624c-11.858,0-16.193,18.643-16.193,31.245h398.299V137.85
			C433.168,115.01,415.766,96.492,394.248,96.492z"/>
		<path fill="#CCCED0" d="M179.826,104.944h220.478c7.163,0,14.033,2.846,19.098,7.911c5.066,5.066,7.911,11.935,7.911,19.099
			v134.237H179.826V104.944z"/>
		<path fill="#CCCED0" d="M174.614,104.944c15.864,0,31.078,6.302,42.295,17.52c11.217,11.217,17.519,26.432,17.519,42.296v72.158
			c0,7.764-3.084,15.21-8.574,20.699c-5.49,5.49-12.935,8.574-20.699,8.574h-61.082c-7.763,0-15.209-3.084-20.698-8.574
			c-5.49-5.489-8.574-12.935-8.574-20.699V164.76c0-15.864,6.302-31.079,17.519-42.296
			C143.537,111.246,158.751,104.944,174.614,104.944z"/>
		<path opacity="0.2" enable-background="new    " d="M174.614,104.944c15.864,0,31.078,6.302,42.295,17.52
			c11.217,11.217,17.519,26.432,17.519,42.296v72.158c0,7.764-3.084,15.21-8.574,20.699c-5.49,5.49-12.935,8.574-20.699,8.574
			h-61.082c-7.763,0-15.209-3.084-20.698-8.574c-5.49-5.489-8.574-12.935-8.574-20.699V164.76c0-15.864,6.302-31.079,17.519-42.296
			C143.537,111.246,158.751,104.944,174.614,104.944z"/>
		
			<linearGradient id="SVGID_5_" gradientUnits="userSpaceOnUse" x1="300.813" y1="-20031.7598" x2="300.813" y2="-9924.6602" gradientTransform="matrix(1 0 0 -1 8.4 460.04)">
			<stop  offset="0" style="stop-color:#808080;stop-opacity:0.25"/>
			<stop  offset="0.54" style="stop-color:#808080;stop-opacity:0.12"/>
			<stop  offset="1" style="stop-color:#808080;stop-opacity:0.1"/>
		</linearGradient>
		<path fill="url(#SVGID_5_)" d="M333.918,83.492h-30.88h-18.53v36.723v45.195h22.427v-45.195h26.983V83.492z"/>
		<path fill="#FFCC80" d="M330.013,83.492h-26.006h-15.603v33.809v41.609h15.603v-41.609h26.006V83.492z"/>
		
			<linearGradient id="SVGID_6_" gradientUnits="userSpaceOnUse" x1="-3677.5146" y1="-31106.6113" x2="-2909.9141" y2="-24800.9102" gradientTransform="matrix(1 0 0 -1 8.4 460.04)">
			<stop  offset="0" style="stop-color:#808080;stop-opacity:0.25"/>
			<stop  offset="0.54" style="stop-color:#808080;stop-opacity:0.12"/>
			<stop  offset="1" style="stop-color:#808080;stop-opacity:0.1"/>
		</linearGradient>
		<path fill="url(#SVGID_6_)" d="M115.284,135.727l-6.151,50.539l82.232,10.009l6.151-50.538L115.284,135.727z"/>
		<path fill="#FAF8E4" d="M116.141,137.105L110.4,184.27l79.444,9.67l5.741-47.164L116.141,137.105z"/>
		<g opacity="0.6">
			<path opacity="0.6" fill="#CCCED0" enable-background="new    " d="M118.225,148.61l10.11,1.231l0.91-7.481l-10.11-1.23
				L118.225,148.61z"/>
			<path opacity="0.6" fill="#CCCED0" enable-background="new    " d="M124.745,164.17l38.813,4.725l0.295-2.426l-38.813-4.724
				L124.745,164.17z"/>
			<path opacity="0.6" fill="#CCCED0" enable-background="new    " d="M134.62,170.707l28.3,3.445l0.196-1.614l-28.3-3.445
				L134.62,170.707z"/>
		</g>
		
			<linearGradient id="SVGID_7_" gradientUnits="userSpaceOnUse" x1="-3749.9121" y1="-31987.6992" x2="-2982.3113" y2="-25682" gradientTransform="matrix(1 0 0 -1 8.4 460.04)">
			<stop  offset="0" style="stop-color:#808080;stop-opacity:0.25"/>
			<stop  offset="0.54" style="stop-color:#808080;stop-opacity:0.12"/>
			<stop  offset="1" style="stop-color:#808080;stop-opacity:0.1"/>
		</linearGradient>
		<path fill="url(#SVGID_7_)" d="M148.79,146.844l-6.151,50.539l82.231,10.009l6.152-50.538L148.79,146.844z"/>
		<path fill="#FAF8E4" d="M149.647,148.229l-5.741,47.165l79.444,9.67l5.741-47.164L149.647,148.229z"/>
		<g opacity="0.6">
			<path opacity="0.6" fill="#CCCED0" enable-background="new    " d="M151.737,159.735l10.11,1.231l0.91-7.481l-10.11-1.23
				L151.737,159.735z"/>
			<path opacity="0.6" fill="#CCCED0" enable-background="new    " d="M158.257,175.295l38.812,4.725l0.296-2.426l-38.813-4.724
				L158.257,175.295z"/>
			<path opacity="0.6" fill="#CCCED0" enable-background="new    " d="M168.118,181.832l28.3,3.444l0.197-1.614l-28.301-3.445
				L168.118,181.832z"/>
		</g>
		
			<linearGradient id="SVGID_8_" gradientUnits="userSpaceOnUse" x1="-5845.0444" y1="-48741.582" x2="-4434.7432" y2="-37155.9805" gradientTransform="matrix(1 0 0 -1 8.4 460.04)">
			<stop  offset="0" style="stop-color:#808080;stop-opacity:0.25"/>
			<stop  offset="0.54" style="stop-color:#808080;stop-opacity:0.12"/>
			<stop  offset="1" style="stop-color:#808080;stop-opacity:0.1"/>
		</linearGradient>
		<path fill="url(#SVGID_8_)" d="M77.599,151.595l-8.338,68.506l111.461,13.567l8.338-68.505L77.599,151.595z"/>
		<path fill="#FFFFFF" d="M78.766,153.454l-7.782,63.938L178.668,230.5l7.783-63.938L78.766,153.454z"/>
		<g opacity="0.6">
			<path opacity="0.6" fill="#CCCED0" enable-background="new    " d="M81.591,169.055l13.702,1.668l1.234-10.137l-13.702-1.668
				L81.591,169.055z"/>
			<path opacity="0.6" fill="#CCCED0" enable-background="new    " d="M90.418,190.152l52.613,6.405l0.401-3.289l-52.614-6.405
				L90.418,190.152z"/>
			<path opacity="0.6" fill="#CCCED0" enable-background="new    " d="M103.806,199.01l38.364,4.67l0.267-2.195l-38.364-4.67
				L103.806,199.01z"/>
		</g>
		
			<linearGradient id="SVGID_9_" gradientUnits="userSpaceOnUse" x1="-5993.916" y1="-50352.8047" x2="-4583.6167" y2="-38767.2031" gradientTransform="matrix(1 0 0 -1 8.4 460.04)">
			<stop  offset="0" style="stop-color:#808080;stop-opacity:0.25"/>
			<stop  offset="0.54" style="stop-color:#808080;stop-opacity:0.12"/>
			<stop  offset="1" style="stop-color:#808080;stop-opacity:0.1"/>
		</linearGradient>
		<path fill="url(#SVGID_9_)" d="M123.018,166.664l-8.338,68.505l111.461,13.568l8.338-68.506L123.018,166.664z"/>
		<path fill="#FFFFFF" d="M124.177,168.535l-7.782,63.938l107.684,13.108l7.783-63.938L124.177,168.535z"/>
		<g opacity="0.6">
			<path opacity="0.6" fill="#CCCED0" enable-background="new    " d="M127.007,184.133l13.702,1.668l1.234-10.137l-13.702-1.668
				L127.007,184.133z"/>
			<path opacity="0.6" fill="#CCCED0" enable-background="new    " d="M135.834,205.23l52.613,6.405l0.401-3.289l-52.614-6.404
				L135.834,205.23z"/>
			<path opacity="0.6" fill="#CCCED0" enable-background="new    " d="M149.221,214.088l38.364,4.67l0.267-2.195l-38.364-4.67
				L149.221,214.088z"/>
		</g>
		<path opacity="0.2" enable-background="new    " d="M173.976,105.595c-7.825-0.006-15.574,1.528-22.806,4.515
			c2.817-0.405,5.659-0.609,8.505-0.611c7.855,0,15.633,1.547,22.89,4.553c7.256,3.006,13.85,7.412,19.404,12.966
			c5.555,5.555,9.96,12.149,12.966,19.406c3.006,7.257,4.553,15.035,4.553,22.89v94.945h14.301V165.41
			c0-15.864-6.301-31.078-17.518-42.296C205.053,111.897,189.839,105.595,173.976,105.595z"/>
		<path fill="#CCCED0" d="M62.802,245.383h171.639v20.808H41.994c0-5.519,2.192-10.811,6.094-14.714
			C51.991,247.575,57.283,245.383,62.802,245.383z"/>
		<path opacity="0.2" fill="#FFFFFF" enable-background="new    " d="M62.802,245.383h171.639v20.808H41.994
			c0-5.519,2.192-10.811,6.094-14.714C51.991,247.575,57.283,245.383,62.802,245.383z"/>
		
			<linearGradient id="SVGID_10_" gradientUnits="userSpaceOnUse" x1="13811.8018" y1="-11000.4316" x2="11654.6416" y2="-9155.5332" gradientTransform="matrix(1 0 0 -1 8.4 460.04)">
			<stop  offset="0" style="stop-color:#808080;stop-opacity:0.25"/>
			<stop  offset="0.54" style="stop-color:#808080;stop-opacity:0.12"/>
			<stop  offset="1" style="stop-color:#808080;stop-opacity:0.1"/>
		</linearGradient>
		<path fill="url(#SVGID_10_)" d="M436.448,46.862l-1.971,0.963l0.225-0.405l-0.172,0.053l0.245-0.179L461.346,0l13.584,11.586
			l11.658,10.789l-3.346,1.633L487,30.641L436.448,46.862z"/>
		<path fill="#CCCED0" d="M473.589,12.821l10.649,9.88l-48.281,24.002l25.694-32.932L473.589,12.821z"/>
		<path opacity="0.2" enable-background="new    " d="M473.589,12.821l10.649,9.88l-48.281,24.002l25.694-32.932L473.589,12.821z"/>
		<path fill="#CCCED0" d="M461.16,2.225l-25.203,44.478l37.632-33.881L461.16,2.225z"/>
		<path fill="#CCCED0" d="M484.55,30.343l-48.54,16.034l40.573-30.289L484.55,30.343z"/>
		
			<linearGradient id="SVGID_11_" gradientUnits="userSpaceOnUse" x1="-18064.4629" y1="-28152.4395" x2="-15490.5234" y2="-24090.3418" gradientTransform="matrix(1 0 0 -1 8.4 460.04)">
			<stop  offset="0" style="stop-color:#808080;stop-opacity:0.25"/>
			<stop  offset="0.54" style="stop-color:#808080;stop-opacity:0.12"/>
			<stop  offset="1" style="stop-color:#808080;stop-opacity:0.1"/>
		</linearGradient>
		<path fill="url(#SVGID_11_)" d="M80.781,57.744l3.174,0.491l-0.491-0.465h0.272l-0.425-0.146L25.641,2.935l-13.996,22.09L0,45.175
			l5.391,0.837l-2.39,10.915L80.781,57.744z"/>
		<path fill="#CCCED0" d="M14.062,26.173L3.426,44.611l77.972,12.695l-50.22-34.97L14.062,26.173z"/>
		<path opacity="0.2" enable-background="new    " d="M14.062,26.173L3.426,44.611l77.972,12.695l-50.22-34.97L14.062,26.173z"/>
		<path fill="#CCCED0" d="M26.87,5.969l54.529,51.337L14.063,26.173L26.87,5.969z"/>
		<path fill="#CCCED0" d="M6.301,55.446l74.885,1.434L11.28,32.049L6.301,55.446z"/>
	</g>
</g>
</svg>
