<?xml version="1.0" encoding="utf-8"?>
<!-- Generator: Adobe Illustrator 17.0.0, SVG Export Plug-In . SVG Version: 6.00 Build 0)  -->
<!DOCTYPE svg PUBLIC "-//W3C//DTD SVG 1.1//EN" "http://www.w3.org/Graphics/SVG/1.1/DTD/svg11.dtd">
<svg version="1.1" id="Layer_1" xmlns="http://www.w3.org/2000/svg" xmlns:xlink="http://www.w3.org/1999/xlink" x="0px" y="0px"
	 width="305px" height="258px" viewBox="0 0 305 258" enable-background="new 0 0 305 258" xml:space="preserve">
<g>
	<g>
		<g>
			<defs>
				<rect id="SVGID_1_" width="305" height="258"/>
			</defs>
			<clipPath id="SVGID_2_">
				<use xlink:href="#SVGID_1_"  overflow="visible"/>
			</clipPath>
			<g clip-path="url(#SVGID_2_)">
				<line fill="none" stroke="#CCCED0" stroke-width="4" stroke-miterlimit="10" x1="0" y1="257" x2="307.333" y2="257"/>
				<path fill="#FF825C" fill-opacity="0.79" d="M33.701,244.05c0,8.124-4.815,10.96-10.755,10.96c-0.138,0-0.275-0.001-0.412-0.004
					c-0.275-0.006-0.548-0.019-0.817-0.038c-5.361-0.38-9.526-3.363-9.526-10.918c0-7.82,9.963-17.686,10.711-18.417l0.001-0.001
					c0.029-0.028,0.043-0.042,0.043-0.042S33.701,235.925,33.701,244.05z"/>
				<path opacity="0.7" fill="#454554" d="M22.555,253.811l3.934-5.513l-3.944,6.118l-0.01,0.633
					c-0.275-0.006-0.548-0.019-0.817-0.038l0.424-8.128l-0.003-0.063l0.007-0.012l0.04-0.767l-3.954-6.134l3.966,5.558l0.009,0.163
					l0.32-6.141l-3.385-6.338l3.426,5.26l0.334-12.733l0.001-0.043v0.042l-0.056,10.04l3.369-3.98l-3.383,4.845l-0.089,5.499
					l3.146-5.277l-3.159,6.086l-0.05,3.057l4.567-7.345l-4.584,8.411L22.555,253.811z"/>
				<path fill="#F2F2F2" d="M264.288,142.604c0,63.703-28.838,113.957-64.351,115.345c-46.312,1.809-106.84-44.506-64.352-115.345
					c32.741-54.588,28.812-115.345,64.352-115.345S264.288,78.9,264.288,142.604z"/>
				<path fill="#CCCED0" d="M226.928,176.47h-91.755V258h91.755L226.928,176.47L226.928,176.47z"/>
				<path display="none" fill="none" stroke="#CCCED0" stroke-width="2" stroke-miterlimit="10" stroke-opacity="0.35" d="
					M0,256.389h305"/>
				<path display="none" fill="#80A6DC" fill-opacity="0.35" d="M201.424,0c-2.017,0-3.973,0.697-5.538,1.972
					c-1.566,1.276-2.646,3.053-3.06,5.033c-0.413,1.98-0.135,4.043,0.789,5.841c0.923,1.799,2.436,3.224,4.284,4.035
					c-0.037-0.678,0.014-1.357,0.152-2.022c0.169-0.716,1.13-4.803,1.13-4.803c-0.192-0.439-0.288-0.913-0.283-1.392
					c0-1.306,0.753-2.281,1.695-2.281c0.8,0,1.184,0.602,1.184,1.322c0,0.806-0.514,2.01-0.777,3.127
					c-0.052,0.207-0.055,0.423-0.009,0.632c0.047,0.208,0.141,0.403,0.276,0.568s0.307,0.296,0.502,0.382
					c0.195,0.086,0.407,0.125,0.62,0.114c1.662,0,2.784-2.144,2.784-4.684c0-1.931-1.298-3.375-3.655-3.375
					c-0.564-0.022-1.127,0.071-1.654,0.274c-0.527,0.203-1.007,0.511-1.412,0.906c-0.404,0.395-0.725,0.868-0.941,1.391
					c-0.217,0.523-0.325,1.084-0.318,1.65c-0.027,0.628,0.18,1.243,0.58,1.727c0.07,0.058,0.12,0.137,0.143,0.225
					c0.022,0.088,0.016,0.182-0.017,0.266c-0.044,0.161-0.138,0.551-0.181,0.708c-0.007,0.048-0.026,0.093-0.054,0.132
					c-0.029,0.039-0.066,0.07-0.109,0.092s-0.09,0.033-0.138,0.032c-0.048,0-0.096-0.013-0.138-0.035
					c-1.228-0.503-1.8-1.849-1.8-3.367c0-2.502,2.106-5.503,6.278-5.503c3.353,0,5.561,2.435,5.561,5.046
					c0,3.457-1.917,6.038-4.741,6.038c-0.949,0-1.839-0.515-2.145-1.097c0,0-0.51,2.03-0.62,2.423
					c-0.203,0.668-0.5,1.304-0.882,1.888c1.208,0.358,2.479,0.451,3.726,0.273s2.442-0.623,3.503-1.305
					c1.06-0.682,1.962-1.584,2.645-2.646c0.682-1.062,1.129-2.259,1.31-3.509c0.18-1.251,0.091-2.525-0.263-3.738
					s-0.963-2.335-1.788-3.291c-0.824-0.956-1.843-1.722-2.989-2.248C203.929,0.273,202.684,0.001,201.424,0L201.424,0z"/>
				<path display="none" fill="#80A6DC" fill-opacity="0.35" d="M288.148,63.719c-0.693,0.308-1.427,0.51-2.18,0.602
					c0.794-0.476,1.387-1.225,1.671-2.108c-0.745,0.445-1.561,0.758-2.412,0.924c-0.52-0.558-1.196-0.947-1.94-1.115
					c-0.743-0.168-1.52-0.107-2.228,0.174c-0.709,0.281-1.317,0.769-1.745,1.401s-0.657,1.379-0.656,2.143
					c-0.001,0.293,0.032,0.584,0.098,0.869c-1.51-0.075-2.988-0.469-4.337-1.155c-1.349-0.687-2.538-1.651-3.49-2.829
					c-0.486,0.84-0.634,1.834-0.415,2.779c0.219,0.946,0.79,1.772,1.595,2.31c-0.605-0.015-1.197-0.178-1.725-0.476v0.047
					c0,0.88,0.303,1.733,0.858,2.414c0.556,0.681,1.329,1.148,2.189,1.323c-0.326,0.089-0.662,0.134-1,0.134
					c-0.24,0.001-0.479-0.023-0.714-0.071c0.243,0.757,0.715,1.42,1.351,1.894c0.637,0.475,1.405,0.738,2.198,0.753
					c-1.345,1.06-3.007,1.635-4.718,1.632c-0.302-0.001-0.605-0.019-0.905-0.055c1.729,1.129,3.748,1.727,5.811,1.723
					c6.993,0,10.812-5.809,10.812-10.848c0-0.165-0.004-0.33-0.012-0.492C286.998,65.154,287.639,64.485,288.148,63.719z"/>
				<path display="none" fill="#CCCED0" d="M168.257,11.609h-17.153c-0.283,0-0.553,0.113-0.753,0.313
					c-0.2,0.2-0.312,0.472-0.312,0.755v17.204c0,0.283,0.113,0.555,0.312,0.755c0.2,0.2,0.47,0.313,0.753,0.313h8.576v-7.655h-2.305
					v-2.82h2.305v-2.085c0-2.498,1.727-3.858,3.951-3.858c1.064,0,2.209,0.081,2.475,0.116v2.609h-1.772
					c-1.21,0-1.442,0.574-1.442,1.42v1.798h2.882l-0.376,2.82h-2.506v7.655h5.364c0.282,0,0.553-0.113,0.752-0.313
					c0.2-0.2,0.312-0.472,0.312-0.755V12.677c0-0.283-0.113-0.555-0.312-0.755C168.811,11.722,168.539,11.61,168.257,11.609z"/>
				<path display="none" fill="#80A6DC" fill-opacity="0.35" d="M253.289,3.801h-12.564c-0.162-0.008-0.323,0.016-0.475,0.071
					c-0.153,0.055-0.292,0.139-0.412,0.249c-0.119,0.109-0.216,0.241-0.285,0.388c-0.068,0.147-0.107,0.306-0.115,0.468v12.63
					c0.009,0.34,0.147,0.663,0.387,0.904c0.239,0.241,0.561,0.38,0.9,0.39h12.561c0.33-0.013,0.642-0.156,0.868-0.398
					s0.348-0.564,0.339-0.896V4.977c0.003-0.158-0.027-0.315-0.087-0.461c-0.06-0.146-0.149-0.278-0.261-0.388
					c-0.113-0.11-0.247-0.196-0.394-0.252C253.604,3.82,253.447,3.794,253.289,3.801z M244.105,16.388h-2.157V9.662h2.157V16.388z
					 M243.101,8.639h-0.015c-0.311-0.002-0.608-0.127-0.826-0.349c-0.218-0.221-0.34-0.52-0.339-0.831
					c0.001-0.311,0.125-0.609,0.345-0.829c0.219-0.22,0.517-0.343,0.827-0.343c0.311,0,0.608,0.123,0.828,0.343
					s0.344,0.518,0.345,0.829s-0.121,0.61-0.339,0.831C243.708,8.512,243.412,8.637,243.101,8.639z M251.987,16.388h-2.156V12.71
					c0-0.881-0.314-1.483-1.094-1.483c-0.244,0.002-0.482,0.08-0.68,0.223s-0.347,0.344-0.426,0.576
					c-0.058,0.171-0.083,0.351-0.075,0.531v3.831h-2.157V9.662h2.157v0.936c0.196-0.341,0.481-0.622,0.823-0.815
					c0.342-0.192,0.73-0.289,1.122-0.279c1.416,0,2.486,0.936,2.486,2.954V16.388z"/>
				<path fill="#2F2E41" d="M193.756,96.947c0,0,15.266,0.416,17.787,1.336c2.522,0.92,3.649,7.499,3.649,7.499l-11.853,3.736
					l-8.866-0.503l-6.672,0.473l3.725-9.787L193.756,96.947z"/>
				<path fill="#9F616A" d="M194.414,91.923c0,0,1.004,3.891-1.225,6.646c-2.229,2.755,9.583,12.572,9.583,12.572l6.232-1.074
					c0,0-1.374-11.956,0.471-14.983C211.32,92.056,194.414,91.923,194.414,91.923z"/>
				<path fill="#F2C3B1" d="M194.414,91.923c0,0,1.004,3.891-1.225,6.646c-2.229,2.755,9.583,12.572,9.583,12.572l6.232-1.074
					c0,0-1.374-11.956,0.471-14.983C211.32,92.056,194.414,91.923,194.414,91.923z"/>
				<path fill="#FECEB8" d="M235.858,205.684l-13.75,18.287l9.383,5.495l12.915-21.192L235.858,205.684z"/>
				<path fill="#454554" d="M226.213,224.28c0,0-5.063-5.901-4.837-4.585c0.225,1.316-3.603,12.475-0.041,13.554
					c3.561,1.08,34.104,3.942,34.524,0.483c0.421-3.459-9.111-5.88-9.111-5.88s-5.663-5.458-6.919-4.903
					C238.574,223.504,226.213,224.28,226.213,224.28z"/>
				<path fill="#FECEB8" d="M232.772,223.149l10.983,18.766l8.291-4.816l-11.074-15.364L232.772,223.149z"/>
				<path fill="#454554" d="M250.109,178.504l-3.26,4.625c0,0-15.538,21.645-13.887,23.392c1.65,1.748,8.522,8.352,12.017,7.073
					c3.495-1.28,15.912-23.402,15.912-23.402l-3.239-12.989L250.109,178.504z"/>
				<path fill="#454554" d="M183.176,174.125c0,0,3.479,6.512,12.299,8.717c8.819,2.205,18.033,6.712,18.361,6.656
					c0.328-0.057,1.256-0.555,1.481,0.761c0.226,1.315,2.645,3.608,2.645,3.608s9.742,33.203,13.462,33.239
					c3.721,0.036,11.367-2.636,11.526-3.68c0.159-1.043-11.392-34.951-11.505-35.609l-1.353-7.895c0,0,15.276,2.447,16.701,2.879
					c1.425,0.431,14.098,7.391,14.098,7.391s12.919-9.34,0.835-18.771c-12.084-9.432-32.854-16.35-32.854-16.35l-7.451-2.102
					l-6.494-0.389l-0.956-3.678l-15.381,0.89l-16.05,6.831L183.176,174.125z"/>
				<path fill="#FECEB8" d="M203.474,99.668c6.617,0,11.981-5.38,11.981-12.016s-5.364-12.016-11.981-12.016
					c-6.616,0-11.98,5.38-11.98,12.016S196.858,99.668,203.474,99.668z"/>
				<path fill="#D0CDE1" d="M192.636,97.309l1.441-0.248c0,0,2.603,10.05,10.654,11.711c0,0,3.972-4.773,3.803-5.579
					c-0.17-0.805,3.146-5.102,4.909-2.696c1.762,2.405-0.431,44.778,1.05,45.539s4.659,1.568,2.101,4.379
					c-2.557,2.812-12.714,6.595-14.964,5.289c-2.249-1.305-6.846-12.366-8.835-16.088c-1.988-3.721-5.17-16.38-5.17-16.38
					s-4.064-13.863-1.564-17.003C188.562,103.091,192.636,97.309,192.636,97.309z"/>
				<path fill="#454554" d="M204.102,149.475c-0.268,2.951-0.726,5.883-1.372,8.775c-0.588,2.353-1.272,3.774-2.053,3.713
					c-1.992-0.149-2.897,2.781-3.364,6.16c-0.499,3.584-0.499,7.673-0.773,9.118c-0.362,1.909-2.68,3.366-7.312,2.938
					c-2.758-0.315-5.466-0.981-8.057-1.982c-6.253-2.28-6.068-20.775-5.022-34.498c0.64-8.412,1.602-15.035,1.602-15.035
					s-1.9-5.683-2.507-9.578c-0.121-0.711-0.182-1.431-0.181-2.152c0.092-3.402,6.286-12.597,10.028-18.325
					c3.747-5.728,8.858-1.526,8.858-1.526l-1.779,5.384c0,0,2.757,4.266,2.777,8.327c0.02,4.06,6.6,6.991,8.962,8.957
					C205.394,120.987,205.358,137.475,204.102,149.475z"/>
				<path fill="#454554" d="M209.304,99.008c0,0,0.431,0.512,2.408,0.262c2.371-0.299,5.631,0.523,6.388,2.793
					c1.389,4.164,5.304,21.1,5.304,21.1s1.63,19.362,2.363,23.638s0.369,8.064,1.091,10.311c0.723,2.246-7.133-4.189-10.029-3.352
					c-2.895,0.838-4.755-10.017-4.391-13.805c0.363-3.788,0.671-7.905-0.334-11.796c-1.004-3.891,0.777-14.189,0.71-16.548
					C212.748,109.252,206.43,103.306,209.304,99.008z"/>
				<path fill="#FECEB8" d="M217.781,159.185c0,0,12.684,6.94,13.898,16.82c1.214,9.879-16.966-9.566-16.966-9.566L217.781,159.185z
					"/>
				<path fill="#FECEB8" d="M225.021,152.179c0,0,3.887,19.65,9.942,18.606c6.055-1.044-3.382-19.737-3.382-19.737L225.021,152.179z
					"/>
				<path fill="#454554" d="M245.759,237.844c0,0-3.101,3.582-3.87,3.037c-0.768-0.544-2.536,6.872-0.942,8.291
					c1.593,1.419,7.733,3.747,7.799,6.106c0.067,2.359,16.532,1.892,17.122-0.581c0.589-2.472-2.065-8.11-3.931-9.143
					c-1.865-1.034-8.763-10.542-8.763-10.542S247.773,235.803,245.759,237.844z"/>
				<path opacity="0.1" enable-background="new    " d="M215.76,171.203c-2.942-2.083-11.155-2.6-18.447-3.08
					c-3.2-0.206-6.222-0.408-8.544-0.735c-2.238-0.31-4.25-2.361-6.037-5.416c-2.708-4.63-4.897-11.572-6.583-18.273
					c0.64-8.411,1.601-15.035,1.601-15.035s-1.899-5.683-2.507-9.578c0.429-0.598,0.98-1.096,1.618-1.461
					c7.735-3.33,15.119,29.441,16.057,34.583c0.016,0.085,0.028,0.165,0.04,0.234c0.455,2.648,5.369,4.912,9.771,5.808
					c2.713,0.553,5.236,0.589,6.399-0.129c3.055-1.881,12.447,5.647,13.16,5.861C223,164.2,219.986,174.202,215.76,171.203z"/>
				<path fill="#454554" d="M176.862,115.607c0,0-5.622,2.663-3.152,15.107c2.47,12.443,7.447,33.599,15.057,34.658
					s22.763,0.817,26.991,3.813c4.228,2.997,7.241-7.005,6.529-7.221c-0.712-0.216-10.106-7.741-13.16-5.86
					c-3.054,1.882-15.436-1.403-16.168-5.679C192.226,146.149,184.723,112.22,176.862,115.607z"/>
				<path fill="#454554" d="M217.373,109.64l6.178,14.379c0,0,0.623-0.312,1.345,1.935c0.723,2.246,1.061,4.219,2.327,5.695
					c1.265,1.475,6.898,22.517,7.067,23.504s-7.779,4.389-9.555,1.647C222.959,154.059,217.373,109.64,217.373,109.64z"/>
				<path fill="#393944" d="M196.658,87.484c0.46-0.123,0.527-0.734,0.542-1.211c0.083-2.551,1.614-5.169,4.049-5.911
					c0.934-0.257,1.913-0.311,2.869-0.158c1.366,0.182,2.685,0.624,3.886,1.3c0.634,0.358,1.256,0.788,1.975,0.897
					c0.476,0.072,2.532,0.672,3.005,0.756c1.04,0.186,2.007,1.119,3.005,0.771c0.955-0.332,1.166-1.572,1.189-2.585
					c0.053-2.309-1.695-5.504-3.234-7.221c-1.168-1.303-2.926-1.905-4.645-2.218c-2.008-0.324-4.043-0.448-6.076-0.371
					c-2.751,0.049-5.578,0.262-8.059,1.456s-4.565,3.57-4.684,6.327c-0.024,0.574,0.035,1.151-0.013,1.724
					c-0.118,1.397-0.858,2.66-1.205,4.018c-0.248,0.997-0.285,2.035-0.109,3.047c0.177,1.012,0.563,1.976,1.133,2.829
					c0.921,1.359,2.368,2.588,2.314,4.23l1.997-2.074c0.298-0.228,0.509-0.552,0.598-0.918c0.088-0.366,0.05-0.751-0.111-1.091
					l-0.706-2.764c-0.182-0.493-0.203-1.032-0.061-1.538C195.074,84.902,195.893,87.689,196.658,87.484z"/>
				<path fill="#F2F2F2" d="M105.479,169.558c0,38.31-22.707,51.686-50.717,51.686S4.045,207.868,4.045,169.558
					c0-38.309,50.717-87.044,50.717-87.044S105.479,131.249,105.479,169.558z"/>
				<path fill="#CCCED0" d="M52.915,215.383l0.52-32.061l21.617-39.664l-21.535,34.635l0.233-14.417l14.899-28.696l-14.837,24.882
					l0.42-25.928l15.953-22.847l-15.887,18.769l0.262-47.542l-1.649,62.937l0.135-2.596l-16.22-24.901l15.96,29.885l-1.511,28.958
					l-0.045-0.769l-18.699-26.205l18.642,28.92l-0.189,3.622l-0.034,0.054l0.015,0.297l-3.834,73.467h5.123l0.615-37.947
					l18.596-28.849L52.915,215.383z"/>
			</g>
		</g>
	</g>
	<g>
		<g>
			<defs>
				<rect id="SVGID_3_" x="0.971" width="305" height="258"/>
			</defs>
			<clipPath id="SVGID_4_">
				<use xlink:href="#SVGID_3_"  overflow="visible"/>
			</clipPath>
			<g clip-path="url(#SVGID_4_)">
				<path fill="#CCCED0" d="M170.33,30.992c6.627,0,12-5.373,12-12s-5.373-12-12-12s-12,5.373-12,12S163.703,30.992,170.33,30.992z"
					/>
				<path fill="#FFFFFF" d="M168.232,14.534c0,0.368,0,2.012,0,2.012h-1.474v2.461h1.474v7.313h3.029v-7.313h2.032
					c0,0,0.19-1.18,0.283-2.47c-0.265,0-2.303,0-2.303,0s0-1.432,0-1.683c0-0.251,0.33-0.59,0.657-0.59c0.326,0,1.014,0,1.65,0
					c0-0.335,0-1.493,0-2.562c-0.85,0-1.817,0-2.244,0C168.157,11.702,168.232,14.166,168.232,14.534z"/>
			</g>
		</g>
	</g>
</g>
<path display="none" fill="#CCCED0" d="M226.434,6.631c1.151,0.003,2.254,0.463,3.069,1.28c0.813,0.816,1.273,1.923,1.275,3.077
	v8.715c-0.003,1.154-0.463,2.261-1.275,3.077c-0.814,0.816-1.918,1.277-3.069,1.28h-8.689c-1.151-0.003-2.254-0.463-3.067-1.28
	c-0.814-0.816-1.274-1.923-1.277-3.077v-8.715c0.003-1.155,0.463-2.261,1.277-3.077c0.813-0.816,1.917-1.277,3.067-1.28
	C217.745,6.631,226.434,6.631,226.434,6.631z M226.434,4.888h-8.689c-1.612,0.005-3.156,0.649-4.296,1.792s-1.781,2.692-1.786,4.308
	v8.715c0.006,1.616,0.647,3.165,1.786,4.308c1.14,1.143,2.684,1.787,4.296,1.792h8.689c1.612-0.005,3.156-0.649,4.296-1.792
	s1.782-2.692,1.786-4.308v-8.715c-0.004-1.616-0.647-3.165-1.786-4.308C229.59,5.537,228.046,4.893,226.434,4.888z"/>
<path display="none" fill="#CCCED0" d="M227.737,10.987c-0.258,0-0.51-0.077-0.724-0.22c-0.215-0.144-0.381-0.348-0.481-0.587
	c-0.098-0.239-0.123-0.502-0.073-0.755c0.05-0.254,0.174-0.486,0.356-0.669c0.183-0.183,0.415-0.307,0.667-0.358
	c0.253-0.05,0.515-0.025,0.753,0.074s0.442,0.267,0.586,0.481c0.143,0.215,0.219,0.468,0.219,0.726c0,0.172-0.033,0.342-0.098,0.501
	s-0.161,0.303-0.283,0.425c-0.12,0.121-0.264,0.218-0.424,0.283C228.078,10.954,227.909,10.988,227.737,10.987z M222.09,11.859
	c0.687,0,1.358,0.205,1.93,0.588c0.572,0.383,1.016,0.927,1.28,1.564c0.263,0.637,0.332,1.338,0.198,2.014s-0.465,1.297-0.951,1.785
	c-0.486,0.487-1.105,0.82-1.779,0.954c-0.674,0.135-1.372,0.066-2.008-0.198s-1.178-0.711-1.559-1.284
	c-0.382-0.573-0.586-1.247-0.586-1.937c0-0.924,0.367-1.81,1.019-2.464C220.284,12.227,221.168,11.86,222.09,11.859z M222.09,10.116
	c-1.032,0-2.04,0.307-2.897,0.881c-0.857,0.575-1.526,1.391-1.921,2.347s-0.497,2.007-0.296,3.021
	c0.201,1.014,0.698,1.946,1.426,2.677c0.73,0.731,1.659,1.229,2.67,1.431s2.059,0.098,3.012-0.298
	c0.953-0.396,1.767-1.066,2.34-1.926c0.572-0.86,0.878-1.871,0.878-2.905c0-1.387-0.55-2.716-1.527-3.697
	C224.797,10.667,223.472,10.116,222.09,10.116z"/>
<g>
	<circle fill="#CCCED0" cx="259.013" cy="37.179" r="12"/>
	<path fill="#FFFFFF" d="M264.077,31.116c0.454-0.177,0.923,0.22,0.823,0.697l-2.035,9.729c-0.095,0.456-0.631,0.662-1.007,0.386
		l-3.073-2.255l-1.566,1.599c-0.275,0.281-0.75,0.166-0.868-0.208l-1.13-3.587l-3.029-0.895c-0.398-0.117-0.421-0.671-0.035-0.822
		L264.077,31.116z M262.583,33.275c0.133-0.117-0.021-0.324-0.172-0.231l-6.538,4.055c-0.115,0.071-0.168,0.212-0.127,0.341
		l0.892,3.915c0.018,0.06,0.103,0.051,0.111-0.011l0.199-2.984c0.008-0.074,0.043-0.141,0.098-0.19L262.583,33.275z"/>
</g>
<path display="none" fill="#80A6DC" fill-opacity="0.35" d="M78.749,32.243c0.196-0.122,0.397,0.148,0.224,0.301l-7.216,6.38
	c-0.072,0.064-0.118,0.152-0.128,0.248l-0.26,3.889c-0.01,0.081-0.122,0.092-0.145,0.014l-1.162-5.103
	c-0.053-0.169,0.016-0.352,0.166-0.445L78.749,32.243z"/>
<path display="none" fill="#FFFFFF" d="M76.641,36.479c-0.129-0.046-0.238-0.149-0.284-0.297l-1.009-3.205l-2.706-0.799
	c-0.355-0.105-0.376-0.599-0.032-0.734l10.648-4.149c0.262-0.102,0.529,0.01,0.662,0.216c-0.025-0.038-0.054-0.073-0.087-0.103
	l-7.224,5.897v0.258l-0.04-0.029l0.04,1.626v1.304c0.01,0.005,0.021,0.009,0.032,0.012L76.641,36.479L76.641,36.479z"/>
<g display="none">
	<path display="inline" fill="none" d="M84.006,27.773c0.002,0.047-0.001,0.096-0.012,0.146l-1.818,8.692
		c-0.085,0.407-0.564,0.591-0.899,0.344l-2.745-2.015l-1.922-1.375v-0.258l7.224-5.897c0.033,0.031,0.062,0.066,0.087,0.103
		c0.005,0.008,0.01,0.016,0.014,0.023c0.004,0.008,0.009,0.016,0.013,0.024s0.008,0.016,0.012,0.025
		c0.004,0.009,0.008,0.017,0.011,0.026c0.003,0.008,0.006,0.016,0.009,0.025c0.009,0.027,0.016,0.054,0.021,0.083
		C84.002,27.736,84.004,27.753,84.006,27.773z"/>
	<path display="inline" fill="none" d="M78.532,34.94l-1.399,1.429c-0.012,0.012-0.024,0.023-0.036,0.034
		c-0.012,0.01-0.025,0.019-0.038,0.028c-0.001,0.001-0.001,0.001-0.001,0.001c-0.026,0.017-0.053,0.032-0.081,0.043
		c-0.014,0.005-0.028,0.011-0.042,0.014c-0.06,0.018-0.121,0.023-0.181,0.016c-0.016-0.001-0.032-0.004-0.047-0.007
		c-0.002,0-0.004-0.001-0.006-0.001c-0.015-0.004-0.03-0.008-0.045-0.013c-0.005-0.001-0.01-0.003-0.014-0.005l-0.032-1.316v-1.597
		L78.532,34.94z"/>
</g>
<g display="none">
	<path display="inline" fill="#DADDE0" d="M77.096,36.402c-0.012,0.01-0.025,0.02-0.038,0.029V36.43
		C77.072,36.421,77.084,36.412,77.096,36.402z"/>
	<path display="inline" fill="#DADDE0" d="M77.058,36.43L77.058,36.43C77.058,36.431,77.058,36.43,77.058,36.43
		C77.058,36.431,77.058,36.431,77.058,36.43z"/>
	<path display="inline" fill="#DADDE0" d="M76.977,36.474c0.028-0.012,0.055-0.026,0.081-0.043
		C77.032,36.448,77.004,36.462,76.977,36.474z"/>
	<path display="inline" fill="#DADDE0" d="M76.754,36.505c0.06,0.006,0.121,0.001,0.181-0.016c-0.043,0.014-0.088,0.02-0.132,0.02
		c-0.014,0-0.027-0.001-0.04-0.002C76.759,36.506,76.756,36.506,76.754,36.505z"/>
</g>
<g display="none">
	<path display="inline" fill="#FFFFFF" d="M76.802,36.508c-0.014,0-0.027-0.001-0.04-0.002
		C76.775,36.507,76.789,36.508,76.802,36.508z"/>
	<path display="inline" fill="#FFFFFF" d="M76.754,36.505c0.003,0.001,0.005,0.001,0.008,0.001
		c-0.014-0.001-0.027-0.003-0.041-0.005C76.732,36.503,76.743,36.504,76.754,36.505z"/>
</g>
<g display="none">
	<path display="inline" fill="#DADDE0" d="M76.754,36.505c-0.011-0.001-0.022-0.002-0.033-0.004
		c-0.005-0.001-0.01-0.001-0.014-0.003C76.722,36.501,76.738,36.503,76.754,36.505z"/>
	<path display="inline" fill="#DADDE0" d="M76.656,36.483c0.015,0.005,0.03,0.009,0.045,0.013c-0.006-0.001-0.012-0.003-0.018-0.004
		c-0.003-0.001-0.005-0.001-0.008-0.003C76.669,36.488,76.662,36.486,76.656,36.483z"/>
</g>
<g display="none">
	<path display="inline" fill="#FFFFFF" d="M76.682,36.492c0.006,0.001,0.012,0.003,0.018,0.004
		C76.695,36.496,76.689,36.494,76.682,36.492z"/>
	<path display="inline" fill="#FFFFFF" d="M76.656,36.483c0.006,0.003,0.013,0.005,0.019,0.006c-0.01-0.002-0.021-0.005-0.031-0.01
		C76.648,36.481,76.652,36.483,76.656,36.483z"/>
</g>
<path display="none" fill="#DADDE0" d="M76.656,36.483c-0.004-0.001-0.008-0.002-0.012-0.003c-0.001,0.001-0.002,0-0.003-0.001
	v-0.001C76.646,36.481,76.651,36.482,76.656,36.483z"/>
<path display="none" fill="#D1D1D1" d="M76.609,35.162l0.032,1.316c-0.011-0.003-0.022-0.008-0.032-0.012V35.162z"/>
<polygon display="none" fill="#DADDE0" points="76.609,33.565 76.609,35.162 76.569,33.536 "/>
<path display="none" fill="#80A6DC" fill-opacity="0.35" d="M81.924,29.224l-4.946,4.374c-0.049,0.044-0.081,0.104-0.088,0.17
	l-0.178,2.666c-0.007,0.055-0.084,0.063-0.1,0.01l-0.796-3.498c-0.036-0.116,0.011-0.241,0.114-0.305l5.841-3.622
	C81.905,28.935,82.042,29.12,81.924,29.224z"/>
<g>
	<circle fill="#CCCED0" cx="277.192" cy="72.307" r="12"/>
	<g>
		<path fill="#FAFAFA" d="M283.54,68.741l-0.004-0.016c-0.321-1.296-1.766-2.687-3.094-2.976l-0.015-0.003
			c-2.147-0.41-4.324-0.41-6.471,0l-0.015,0.003c-1.327,0.289-2.773,1.68-3.094,2.976l-0.004,0.016c-0.396,1.81-0.396,3.646,0,5.456
			l0.004,0.016c0.307,1.241,1.645,2.568,2.923,2.933v1.447c0,0.524,0.638,0.781,1.001,0.403l1.466-1.524
			c0.318,0.018,0.636,0.028,0.954,0.028c1.081,0,2.162-0.102,3.235-0.307l0.015-0.003c1.328-0.289,2.773-1.68,3.094-2.976
			l0.004-0.016C283.936,72.387,283.936,70.551,283.54,68.741z M282.379,73.935c-0.214,0.846-1.312,1.897-2.184,2.091
			c-1.142,0.217-2.292,0.31-3.442,0.278c-0.023-0.001-0.045,0.008-0.061,0.025c-0.163,0.167-1.07,1.099-1.07,1.099l-1.138,1.169
			c-0.083,0.087-0.23,0.028-0.23-0.092v-2.397c0-0.04-0.028-0.073-0.067-0.081c0,0,0,0-0.001,0
			c-0.872-0.194-1.969-1.246-2.184-2.091c-0.357-1.636-0.357-3.295,0-4.931c0.214-0.846,1.312-1.897,2.184-2.091
			c1.994-0.379,4.016-0.379,6.009,0c0.872,0.194,1.97,1.246,2.184,2.091C282.737,70.64,282.737,72.298,282.379,73.935z"/>
		<path fill="#FAFAFA" d="M279.089,75.041c-0.134-0.041-0.262-0.068-0.381-0.117c-1.23-0.51-2.361-1.168-3.257-2.177
			c-0.51-0.574-0.909-1.221-1.246-1.907c-0.16-0.325-0.295-0.663-0.432-0.998c-0.125-0.306,0.059-0.622,0.253-0.853
			c0.182-0.216,0.417-0.382,0.671-0.504c0.198-0.095,0.394-0.04,0.539,0.128c0.313,0.363,0.601,0.745,0.833,1.167
			c0.143,0.259,0.104,0.576-0.156,0.752c-0.063,0.043-0.121,0.093-0.179,0.142c-0.052,0.042-0.1,0.085-0.135,0.143
			c-0.065,0.105-0.068,0.229-0.026,0.343c0.32,0.879,0.859,1.563,1.745,1.932c0.142,0.059,0.284,0.128,0.447,0.109
			c0.273-0.032,0.362-0.332,0.553-0.488c0.187-0.153,0.426-0.155,0.628-0.027s0.397,0.265,0.592,0.403
			c0.191,0.136,0.381,0.269,0.557,0.424c0.169,0.149,0.228,0.344,0.132,0.547c-0.174,0.37-0.428,0.678-0.794,0.875
			C279.329,74.987,279.205,75.005,279.089,75.041C278.955,75,279.205,75.005,279.089,75.041z"/>
		<path fill="#FAFAFA" d="M277.195,68.061c1.608,0.045,2.929,1.112,3.212,2.702c0.048,0.271,0.065,0.548,0.087,0.823
			c0.009,0.116-0.056,0.226-0.181,0.227c-0.129,0.002-0.187-0.106-0.195-0.222c-0.017-0.229-0.028-0.459-0.06-0.686
			c-0.166-1.198-1.122-2.189-2.314-2.402c-0.179-0.032-0.363-0.04-0.545-0.059c-0.115-0.012-0.265-0.019-0.291-0.162
			c-0.021-0.12,0.08-0.215,0.194-0.221C277.133,68.06,277.164,68.061,277.195,68.061C278.803,68.106,277.164,68.061,277.195,68.061z
			"/>
		<path fill="#FAFAFA" d="M279.639,71.23c-0.003,0.02-0.004,0.067-0.016,0.112c-0.043,0.161-0.288,0.182-0.344,0.019
			c-0.017-0.048-0.019-0.103-0.019-0.155c-0.001-0.341-0.075-0.681-0.246-0.977c-0.177-0.305-0.446-0.561-0.763-0.716
			c-0.191-0.094-0.398-0.152-0.608-0.187c-0.092-0.015-0.184-0.024-0.276-0.037c-0.112-0.016-0.171-0.087-0.166-0.197
			c0.005-0.103,0.08-0.177,0.193-0.171c0.369,0.021,0.726,0.101,1.054,0.274c0.667,0.353,1.048,0.911,1.16,1.656
			c0.005,0.034,0.013,0.067,0.016,0.101C279.629,71.036,279.633,71.119,279.639,71.23C279.636,71.25,279.633,71.119,279.639,71.23z"
			/>
		<path fill="#FAFAFA" d="M278.639,71.191c-0.135,0.002-0.207-0.072-0.22-0.195c-0.01-0.086-0.017-0.173-0.038-0.257
			c-0.04-0.165-0.128-0.318-0.267-0.419c-0.065-0.048-0.14-0.082-0.217-0.105c-0.099-0.029-0.201-0.021-0.3-0.045
			c-0.107-0.026-0.166-0.113-0.149-0.213c0.015-0.091,0.104-0.163,0.204-0.155c0.624,0.045,1.069,0.367,1.133,1.101
			c0.005,0.052,0.01,0.106-0.002,0.156C278.763,71.144,278.7,71.187,278.639,71.191C278.504,71.193,278.7,71.187,278.639,71.191z"/>
	</g>
</g>
<path display="none" fill="#D1D1D1" d="M-29.391,28.292l-0.01-0.038c-0.436-1.762-1.729-3.596-3.348-4.991l-2.189,1.94
	c1.302,1.037,2.417,2.474,2.734,3.726c0.866,3.968,0.866,7.99,0,11.958c-0.519,2.051-3.181,4.6-5.295,5.071
	c-2.768,0.527-5.559,0.751-8.346,0.674c-0.055-0.002-0.109,0.02-0.147,0.06c-0.396,0.406-2.596,2.665-2.596,2.665l-2.761,2.833
	c-0.202,0.211-0.557,0.067-0.557-0.223v-5.812c0-0.096-0.069-0.178-0.163-0.196c-0.001,0-0.001,0-0.002,0
	c-1.202-0.268-2.579-1.207-3.64-2.344l-2.163,1.917c1.351,1.47,3.093,2.658,4.793,3.143v3.509c0,1.27,1.548,1.894,2.428,0.977
	l3.555-3.695c0.771,0.043,1.542,0.067,2.314,0.067c2.621,0,5.243-0.248,7.846-0.744l0.036-0.007
	c3.219-0.702,6.724-4.074,7.502-7.218l0.01-0.038C-28.43,37.133-28.43,32.681-29.391,28.292z"/>
<path display="none" fill="#FFFFFF" d="M-40.184,43.569C-39.902,43.482-40.509,43.47-40.184,43.569L-40.184,43.569z"/>
<path display="none" fill="#D1D1D1" d="M-37.746,39.856c-0.427-0.376-0.887-0.698-1.35-1.028c-0.471-0.336-0.945-0.668-1.434-0.978
	c-0.489-0.309-1.069-0.305-1.523,0.067c-0.464,0.38-0.679,1.107-1.342,1.184c-0.396,0.046-0.741-0.12-1.084-0.263
	c-1.321-0.549-2.323-1.39-3.08-2.451l-1.61,1.427c0.055,0.063,0.107,0.128,0.162,0.191c2.174,2.446,4.918,4.042,7.899,5.279
	c0.288,0.119,0.598,0.186,0.923,0.284c-0.325-0.099,0.283-0.087,0,0c0.283-0.087,0.582-0.131,0.833-0.265
	c0.888-0.477,1.503-1.224,1.926-2.122C-37.194,40.691-37.336,40.217-37.746,39.856z"/>
<g display="none">
	<path display="inline" fill="#FFFFFF" d="M-44.766,26.644c-0.003,0-0.006,0-0.01,0C-44.779,26.644-44.775,26.644-44.766,26.644z"/>
	<path display="inline" fill="#FFFFFF" d="M-44.776,26.644c0.003,0,0.006,0,0.01,0C-44.55,26.652-41.03,26.749-44.776,26.644z"/>
</g>
<g display="none">
	<path display="inline" fill="#D1D1D1" d="M-39.182,28.964l-0.686,0.608c1.078,1.049,1.822,2.44,2.035,3.97
		c0.076,0.55,0.104,1.108,0.145,1.663c0.02,0.28,0.161,0.542,0.474,0.538c0.303-0.004,0.461-0.27,0.44-0.551
		c-0.052-0.667-0.094-1.339-0.211-1.995C-37.287,31.509-38.07,30.064-39.182,28.964z"/>
	<path display="inline" fill="#D1D1D1" d="M-38.928,33.408c-0.197-1.316-0.742-2.39-1.649-3.208l-0.684,0.606
		c0.354,0.314,0.66,0.683,0.896,1.09c0.417,0.719,0.596,1.544,0.597,2.37c0,0.126,0.006,0.26,0.047,0.377
		c0.137,0.395,0.73,0.346,0.834-0.045c0.029-0.108,0.032-0.222,0.038-0.271c-0.006,0.049-0.016-0.267,0,0
		c-0.016-0.267-0.025-0.47-0.041-0.673C-38.896,33.571-38.916,33.49-38.928,33.408z"/>
</g>
<g display="none">
	<path display="inline" fill="#FFFFFF" d="M-38.849,34.327C-38.865,34.059-38.856,34.375-38.849,34.327L-38.849,34.327z"/>
	<path display="inline" fill="#FFFFFF" d="M-41.275,34.232c0.005,0,0.01-0.003,0.015-0.004c-0.014,0-0.035,0-0.057,0.001
		C-41.303,34.23-41.29,34.232-41.275,34.232z"/>
	<path display="inline" fill="#FFFFFF" d="M-41.275,34.232c-0.015,0-0.028-0.002-0.042-0.002
		C-41.387,34.232-41.46,34.236-41.275,34.232z"/>
	<path display="inline" fill="#FFFFFF" d="M-41.26,34.229c-0.005,0.001-0.01,0.003-0.015,0.004
		C-41.237,34.23-41.24,34.229-41.26,34.229z"/>
</g>
<path display="none" fill="#D1D1D1" d="M-41.964,31.429l-0.697,0.617c0.038,0.023,0.076,0.048,0.113,0.074
	c0.336,0.245,0.549,0.615,0.647,1.015c0.05,0.203,0.068,0.414,0.092,0.623c0.032,0.286,0.194,0.461,0.493,0.471
	c0.022-0.001,0.043-0.001,0.057-0.001c0.144-0.016,0.288-0.117,0.334-0.315c0.028-0.12,0.015-0.253,0.004-0.379
	C-41.009,32.54-41.385,31.857-41.964,31.429z"/>
<g>
	<circle fill="#CCCED0" cx="143.471" cy="59.194" r="12"/>
	<g>
		<g>
			<path fill="#FAFAFA" d="M143.136,52.277c-3.658,0.174-6.544,3.22-6.533,6.882c0.003,1.115,0.273,2.168,0.748,3.098l-0.729,3.54
				c-0.039,0.192,0.133,0.359,0.323,0.314l3.469-0.822c0.891,0.444,1.892,0.7,2.951,0.716c3.738,0.057,6.856-2.911,6.972-6.648
				C150.462,55.352,147.155,52.086,143.136,52.277L143.136,52.277z M147.274,62.941c-1.016,1.016-2.366,1.575-3.803,1.575
				c-0.841,0-1.647-0.189-2.394-0.561l-0.483-0.241l-2.127,0.504l0.448-2.173l-0.238-0.466c-0.388-0.76-0.585-1.581-0.585-2.441
				c0-1.437,0.559-2.787,1.575-3.803c1.007-1.007,2.379-1.575,3.803-1.575c1.436,0,2.787,0.559,3.803,1.575
				c1.016,1.016,1.575,2.366,1.575,3.803C148.85,60.562,148.281,61.934,147.274,62.941L147.274,62.941z"/>
			<path fill="#FAFAFA" d="M146.805,60.628l-1.33-0.382c-0.175-0.05-0.363,0-0.491,0.129l-0.325,0.331
				c-0.137,0.14-0.345,0.185-0.527,0.111c-0.629-0.255-1.953-1.432-2.291-2.021c-0.098-0.17-0.082-0.382,0.038-0.537l0.284-0.367
				c0.111-0.144,0.135-0.337,0.061-0.504l-0.56-1.266c-0.134-0.303-0.522-0.392-0.775-0.177c-0.371,0.314-0.812,0.791-0.865,1.32
				c-0.094,0.932,0.305,2.107,1.817,3.518c1.746,1.63,3.145,1.845,4.056,1.625c0.517-0.125,0.929-0.626,1.19-1.037
				C147.264,61.091,147.123,60.719,146.805,60.628L146.805,60.628z"/>
		</g>
	</g>
</g>
<g>
	<g>
		<g>
			<g>
				<defs>
					<circle id="SVGID_5_" cx="220.303" cy="13.473" r="12"/>
				</defs>
				<clipPath id="SVGID_6_">
					<use xlink:href="#SVGID_5_"  overflow="visible"/>
				</clipPath>
				
					<radialGradient id="SVGID_7_" cx="-1372.2913" cy="-7.3439" r="0.0383" gradientTransform="matrix(796.1657 0 0 796.1657 1092781.125 5871.959)" gradientUnits="userSpaceOnUse">
					<stop  offset="0.09" style="stop-color:#FA8F21"/>
					<stop  offset="0.78" style="stop-color:#D82D7E"/>
				</radialGradient>
				<path clip-path="url(#SVGID_6_)" fill="url(#SVGID_7_)" d="M214.412,25.364c-1.418-0.109-2.182-0.327-2.727-0.545
					c-0.655-0.218-1.2-0.545-1.636-1.091c-0.545-0.545-0.873-0.982-1.091-1.636c-0.218-0.545-0.436-1.309-0.545-2.727
					c-0.109-1.527-0.109-1.964-0.109-5.891s0-4.364,0.109-5.891c0.109-1.418,0.327-2.182,0.545-2.727
					c0.218-0.655,0.545-1.2,1.091-1.636c0.545-0.545,0.982-0.873,1.636-1.091c0.545-0.218,1.309-0.436,2.727-0.545
					c1.527-0.109,1.964-0.109,5.891-0.109s4.364,0,5.891,0.109c1.418,0.109,2.182,0.327,2.727,0.545
					c0.655,0.218,1.2,0.545,1.636,1.091c0.436,0.545,0.873,0.982,1.091,1.636c0.218,0.545,0.436,1.309,0.545,2.727
					c0.109,1.527,0.109,1.964,0.109,5.891s0,4.364-0.109,5.891c-0.109,1.418-0.327,2.182-0.545,2.727
					c-0.218,0.655-0.545,1.2-1.091,1.636c-0.545,0.545-0.982,0.873-1.636,1.091c-0.545,0.218-1.309,0.436-2.727,0.545
					c-1.527,0.109-1.964,0.109-5.891,0.109C216.375,25.473,215.939,25.473,214.412,25.364z"/>
			</g>
		</g>
	</g>
	<g>
		<g>
			<g>
				<defs>
					<circle id="SVGID_8_" cx="220.303" cy="13.473" r="12"/>
				</defs>
				<clipPath id="SVGID_9_">
					<use xlink:href="#SVGID_8_"  overflow="visible"/>
				</clipPath>
				<path clip-path="url(#SVGID_9_)" fill="#CCCED0" d="M214.412,25.364c-1.418-0.109-2.182-0.327-2.727-0.545
					c-0.655-0.218-1.2-0.545-1.636-1.091c-0.545-0.545-0.873-0.982-1.091-1.636c-0.218-0.545-0.436-1.309-0.545-2.727
					c-0.109-1.527-0.109-1.964-0.109-5.891s0-4.364,0.109-5.891c0.109-1.418,0.327-2.182,0.545-2.727
					c0.218-0.655,0.545-1.2,1.091-1.636c0.545-0.545,0.982-0.873,1.636-1.091c0.545-0.218,1.309-0.436,2.727-0.545
					c1.527-0.109,1.964-0.109,5.891-0.109s4.364,0,5.891,0.109c1.418,0.109,2.182,0.327,2.727,0.545
					c0.655,0.218,1.2,0.545,1.636,1.091c0.436,0.545,0.873,0.982,1.091,1.636c0.218,0.545,0.436,1.309,0.545,2.727
					c0.109,1.527,0.109,1.964,0.109,5.891s0,4.364-0.109,5.891c-0.109,1.418-0.327,2.182-0.545,2.727
					c-0.218,0.655-0.545,1.2-1.091,1.636c-0.545,0.545-0.982,0.873-1.636,1.091c-0.545,0.218-1.309,0.436-2.727,0.545
					c-1.527,0.109-1.964,0.109-5.891,0.109C216.375,25.473,215.939,25.473,214.412,25.364z"/>
			</g>
		</g>
	</g>
	<g>
		<g>
			<g>
				<defs>
					<circle id="SVGID_10_" cx="220.303" cy="13.473" r="12"/>
				</defs>
				<clipPath id="SVGID_11_">
					<use xlink:href="#SVGID_10_"  overflow="visible"/>
				</clipPath>
				<path clip-path="url(#SVGID_11_)" fill="#FFFFFF" d="M217.51,13.476c0-1.551,1.241-2.793,2.793-2.793s2.793,1.241,2.793,2.793
					s-1.241,2.793-2.793,2.793C218.751,16.372,217.51,15.131,217.51,13.476z M215.959,13.476c0,2.379,1.965,4.344,4.344,4.344
					s4.344-1.965,4.344-4.344s-1.965-4.344-4.344-4.344C217.924,9.235,215.959,11.097,215.959,13.476L215.959,13.476z
					 M223.819,9.028c0,0.207,0.103,0.414,0.207,0.517c0.103,0.207,0.31,0.31,0.414,0.414c0.207,0.103,0.414,0.103,0.621,0.103
					s0.414-0.103,0.517-0.31c0.103-0.103,0.207-0.31,0.31-0.517c0-0.207,0-0.414-0.103-0.621c-0.103-0.207-0.207-0.31-0.414-0.414
					c-0.207-0.103-0.414-0.207-0.517-0.207l0,0c-0.31,0-0.517,0.103-0.724,0.31S223.819,8.718,223.819,9.028z M216.89,20.406
					c-0.827,0-1.241-0.207-1.551-0.31c-0.414-0.103-0.724-0.31-0.931-0.621c-0.31-0.31-0.517-0.621-0.621-0.931
					c-0.103-0.31-0.207-0.724-0.31-1.551c0-0.931,0-1.138,0-3.413s0-2.482,0-3.413c0-0.827,0.207-1.241,0.31-1.551
					c0.103-0.517,0.31-0.724,0.621-1.034c0.207-0.31,0.517-0.517,0.931-0.621c0.31-0.103,0.724-0.207,1.551-0.31
					c0.931,0,1.138,0,3.413,0s2.482,0,3.413,0c0.827,0,1.241,0.207,1.551,0.31c0.414,0.103,0.724,0.31,0.931,0.621
					c0.31,0.31,0.517,0.621,0.621,0.931c0.103,0.31,0.207,0.724,0.31,1.551c0,0.931,0,1.138,0,3.413s0,2.482,0,3.413
					c0,0.827-0.207,1.241-0.31,1.551c-0.103,0.414-0.31,0.724-0.621,0.931c-0.31,0.31-0.621,0.517-0.931,0.621
					s-0.724,0.207-1.551,0.31c-0.931,0-1.138,0-3.413,0C218.027,20.406,217.82,20.406,216.89,20.406L216.89,20.406z M216.89,5.098
					c-0.931,0-1.551,0.207-2.069,0.414c-0.517,0.207-1.034,0.517-1.448,0.931c-0.517,0.517-0.827,1.034-1.034,1.551
					s-0.31,1.138-0.414,2.069c0,0.931,0,1.241,0,3.517s0,2.586,0,3.517s0.207,1.551,0.414,2.069
					c0.207,0.517,0.517,1.034,0.931,1.448c0.517,0.517,0.931,0.724,1.448,0.931c0.517,0.207,1.138,0.31,2.069,0.414
					c0.931,0,1.241,0,3.517,0s2.586,0,3.517,0s1.551-0.207,2.069-0.414c0.517-0.207,1.034-0.517,1.448-0.931
					c0.517-0.517,0.724-0.931,0.931-1.448s0.31-1.138,0.414-2.069c0-0.931,0-1.241,0-3.517s0-2.586,0-3.517
					s-0.207-1.551-0.414-2.069s-0.517-1.034-0.931-1.448c-0.517-0.517-0.931-0.724-1.448-0.931s-1.138-0.31-2.069-0.414
					c-0.931,0-1.241,0-3.517,0C218.027,5.098,217.717,5.098,216.89,5.098"/>
			</g>
		</g>
	</g>
</g>
</svg>
