<?xml version="1.0" encoding="utf-8"?>
<!-- Generator: Adobe Illustrator 17.0.0, SVG Export Plug-In . SVG Version: 6.00 Build 0)  -->
<!DOCTYPE svg PUBLIC "-//W3C//DTD SVG 1.1//EN" "http://www.w3.org/Graphics/SVG/1.1/DTD/svg11.dtd">
<svg version="1.1" id="b4850822-491f-41e2-90b8-9be7376dfe8f"
	 xmlns="http://www.w3.org/2000/svg" xmlns:xlink="http://www.w3.org/1999/xlink" x="0px" y="0px" width="966px" height="689.223px"
	 viewBox="0 0 966 689.223" enable-background="new 0 0 966 689.223" xml:space="preserve">
<title>dev_productivity</title>
<circle fill="#FFB8B8" cx="480.922" cy="118.405" r="73.536"/>
<path fill="#FFB8B8" d="M426.036,155.173c0,0,13.855,104.443-7.46,116.166s126.823,12.789,126.823,12.789
	s-33.038-90.588-18.118-118.297L426.036,155.173z"/>
<path fill="#D0CDE1" d="M653.57,284.656l-12.32,56.1l-26.05,118.69l-0.78,6.5l-8.99,75.25l-5.98,49.99l-4.01,33.58
	c-24.38,12.53-42.05,21.18-42.05,21.18s-1.52-7.62-3.97-17.37c-17.11,5.13-48.77,13.64-75.6,15.34
	c9.77,10.89,14.26,21.12,8.17,28.67c-18.38,22.76-94.26-24.92-120.8-42.7c-0.618,4.257-0.852,8.561-0.7,12.86l-20.31-15.62
	l2.01-35.94l3.39-60.81l4.26-76.26c-1.343-3.265-2.469-6.616-3.37-10.03c-6.22-22.12-13.77-66.29-19.56-103.33
	c-4.66-29.81-8.16-55-8.9-60.36c-0.1-0.7-0.15-1.06-0.15-1.06l112.43-49.68c7.99,18.53,45.3,24.1,45.3,24.1
	c30.91-2.13,55.14-18.43,55.14-18.43L653.57,284.656z"/>
<path fill="#A0616A" d="M561.92,624.636c0,0-4.76,1.63-12.5,3.94c-17.11,5.13-48.77,13.64-75.6,15.34
	c-23.1,1.48-42.62-2.08-46.19-17.15c-1.53-6.48,0.64-11.81,5.37-16.19c14.12-13.09,51-17.78,80.25-19.39
	c8.26-0.45,15.9-0.66,22.26-0.74c10.8-0.14,17.88,0.08,17.88,0.08l0.17,0.66L561.92,624.636z"/>
<path fill="#2F2E41" d="M419.746,48.847l-13.749-5.504c0,0,28.749-31.651,68.747-28.898L463.494,2.06
	c0,0,27.499-11.009,52.498,17.89c13.141,15.191,28.346,33.048,37.825,53.163h14.725l-6.146,13.532l21.509,13.532l-22.077-2.431
	c1.316,7.41,1.518,14.975,0.599,22.445c-0.947,7.472-4.76,14.284-10.634,18.998l0,0c0,0-17.052-35.296-17.052-40.8v13.761
	c0,0-13.749-12.385-13.749-20.642l-7.5,9.633l-3.75-15.137l-46.248,15.137l7.5-12.385l-28.749,4.128l11.25-15.137
	c0,0-32.499,17.89-33.749,33.027s-10.762,29.481-10.762,29.481S383.498,69.489,419.746,48.847z"/>
<path fill="#D0CDE1" d="M733.5,542.566c-7.49,8.12-26.05,20.35-48.55,33.59c-8.37,4.92-17.28,9.99-26.37,15.03
	c-21.69,12.03-44.4,23.95-63.14,33.58c-24.38,12.53-42.05,21.18-42.05,21.18s-1.52-7.62-3.97-17.37
	c-3.28-13.05-8.22-29.92-13.37-37.39c-0.18-0.26-0.36-0.5-0.54-0.74c-1.5-1.97-3.01-3.12-4.5-3.12l74.42-46.13l32.16-19.94
	l-23.17-55.31l-29.06-69.38l17.54-55.81l17.63-56.1h33.04c0,0,10.94,23.88,24.93,57.18c2.09,4.98,4.25,10.17,6.45,15.53
	C713.73,427.366,749.61,525.116,733.5,542.566z"/>
<path fill="#A0616A" d="M481.99,672.586c-18.38,22.76-94.26-24.92-120.8-42.7c-5.78-3.87-9.22-6.32-9.22-6.32l24.28-32.38
	l7.69-10.25c0,0,6.88,3.65,17.05,9.59c0.37,0.22,0.74,0.44,1.12,0.66c8.77,5.15,19.78,11.88,30.89,19.39
	c15.33,10.37,30.83,22.2,40.82,33.34C483.59,654.806,488.08,665.036,481.99,672.586z"/>
<path fill="#D0CDE1" d="M400.99,590.526c-2.714-0.01-5.424,0.21-8.1,0.66c-22.99,3.95-29.77,24.76-31.7,38.7
	c-0.618,4.257-0.852,8.561-0.7,12.86l-20.31-15.62l-7.4-5.69c-17.81-6.21-33.68-17.24-47.44-30.25
	c-11.937-11.486-22.645-24.185-31.95-37.89c-9.268-13.508-17.53-27.68-24.72-42.4c-4.061-8.316-4.219-18.006-0.43-26.45l25.15-56.05
	l36.76-81.92c0.27-1.95,0.567-3.857,0.89-5.72c7.29-41.8,26.82-60.36,26.82-60.36h14.92l9.98,60.36l12.4,74.99l-8.69,28.34
	l-20.08,65.45l19.19,20.84L400.99,590.526z"/>
<path fill="#2F2E41" d="M417.877,415.806l12.755,14.881c4.739-0.904,9.687-1.965,14.784-3.158l-3.663-11.723l8.958,10.45
	c53.997-13.281,120.927-39.101,120.927-39.101s-72.257,5.298-126.208-6.489c-23.871-5.215-48.431,6.618-58.226,29.002
	c-5.694,13.011-4.799,24.283,15.394,24.283c6.823-0.117,13.627-0.757,20.353-1.914L417.877,415.806z"/>
<path fill="#3F3D56" d="M708.65,660.386v6.07c0.003,1.666-0.305,3.318-0.91,4.87c-0.269,0.692-0.593,1.361-0.97,2
	c-2.425,4.07-6.813,6.562-11.55,6.56H248.67c-4.737,0.002-9.125-2.49-11.55-6.56c-0.377-0.639-0.701-1.308-0.97-2
	c-0.605-1.552-0.913-3.204-0.91-4.87v-6.07c-0.002-7.415,6.008-13.428,13.423-13.43c0.002,0,0.005,0,0.007,0h25.74v-2.83
	c-0.001-0.309,0.249-0.56,0.558-0.56c0.001,0,0.001,0,0.002,0h13.43c0.309,0,0.559,0.249,0.56,0.558c0,0.001,0,0.001,0,0.002v2.83
	h8.39v-2.83c-0.001-0.309,0.249-0.56,0.558-0.56c0.001,0,0.001,0,0.002,0h13.43c0.309,0,0.559,0.249,0.56,0.558
	c0,0.001,0,0.001,0,0.002v2.83h8.4v-2.83c0-0.309,0.249-0.56,0.558-0.56c0.001,0,0.001,0,0.002,0h13.43
	c0.309,0,0.56,0.249,0.56,0.558c0,0.001,0,0.001,0,0.002v2.83h8.39v-2.83c0-0.309,0.249-0.56,0.558-0.56c0.001,0,0.001,0,0.002,0
	h13.43c0.309,0,0.56,0.249,0.56,0.558c0,0.001,0,0.001,0,0.002v2.83h8.39v-2.83c0-0.309,0.249-0.56,0.558-0.56
	c0.001,0,0.001,0,0.002,0h13.43c0.309,0,0.56,0.249,0.56,0.558c0,0.001,0,0.001,0,0.002v2.83h8.4v-2.83
	c0-0.309,0.249-0.56,0.558-0.56c0.001,0,0.001,0,0.002,0h13.43c0.309,0,0.56,0.249,0.56,0.558c0,0.001,0,0.001,0,0.002v2.83h8.39
	v-2.83c0-0.309,0.249-0.56,0.558-0.56c0.001,0,0.001,0,0.002,0h105.2c0.309,0,0.56,0.249,0.56,0.558c0,0.001,0,0.001,0,0.002v2.83
	h8.4v-2.83c0-0.309,0.249-0.56,0.558-0.56c0.001,0,0.001,0,0.002,0h13.43c0.308,0.003,0.557,0.252,0.56,0.56v2.83h8.39v-2.83
	c0-0.309,0.249-0.56,0.558-0.56c0.001,0,0.001,0,0.002,0h13.43c0.309-0.001,0.56,0.249,0.56,0.558c0,0.001,0,0.001,0,0.002v2.83
	h8.39v-2.83c0-0.309,0.249-0.56,0.558-0.56c0.001,0,0.001,0,0.002,0h13.43c0.309,0,0.56,0.249,0.56,0.558c0,0.001,0,0.001,0,0.002
	v2.83h8.4v-2.83c0-0.309,0.249-0.56,0.558-0.56c0.001,0,0.001,0,0.002,0h13.43c0.306,0.004,0.552,0.254,0.55,0.56v2.83h8.4v-2.83
	c0-0.309,0.249-0.56,0.558-0.56c0.001,0,0.001,0,0.002,0h13.43c0.309,0,0.56,0.249,0.56,0.558c0,0.001,0,0.001,0,0.002v2.83h8.39
	v-2.83c0-0.309,0.249-0.56,0.558-0.56c0.001,0,0.001,0,0.002,0h13.43c0.309,0,0.56,0.249,0.56,0.558c0,0.001,0,0.001,0,0.002v2.83
	h39.17c7.415-0.002,13.428,6.008,13.43,13.423C708.65,660.381,708.65,660.384,708.65,660.386z"/>
<rect x="105.5" y="671.326" fill="#3F3D56" width="733" height="2"/>
<path fill="#3F3D56" d="M672.695,404.757H506.252v-3.431H430.78v3.431H263.651c-6.218,0-11.259,5.041-11.259,11.259l0,0v227.911
	c0,6.218,5.041,11.259,11.259,11.259h409.044c6.218,0,11.259-5.041,11.259-11.259V416.015
	C683.953,409.797,678.912,404.757,672.695,404.757z"/>
<circle fill="none" stroke="#D0CDE1" stroke-width="2" stroke-miterlimit="10" cx="468.5" cy="484.326" r="25"/>
<circle fill="#D0CDE1" cx="460.5" cy="493.326" r="25"/>
<path fill="#3F3D56" d="M784.45,639.223v34h34v-34H784.45z M816.97,671.743h-31.05v-31.04h31.05V671.743z"/>
<circle fill="#D0CDE1" cx="135.965" cy="624.118" r="53.208"/>
<path fill="#3F3D56" d="M154.508,560.888c-4.818-0.613-9.693-0.613-14.511,0c-21.918,2.878-40.152,18.256-46.686,39.374
	c-1.455,4.713-2.279,9.598-2.451,14.527c-0.024,0.685-0.04,1.379-0.04,2.072c0.031,31.154,25.279,56.402,56.433,56.433
	c1.201,0,2.402-0.04,3.587-0.113c2.782-0.174,5.547-0.557,8.272-1.145c30.474-6.553,49.866-36.57,43.313-67.044
	C197.399,581.63,178.206,563.963,154.508,560.888L154.508,560.888z M164.915,668.765h-0.008c-4.545,1.551-9.276,2.491-14.068,2.797
	c-1.185,0.08-2.386,0.121-3.587,0.121c-30.261-0.037-54.784-24.559-54.821-54.821c0-0.693,0.016-1.387,0.04-2.072
	c1.151-29.432,25.326-52.71,54.781-52.749c30.279,0.001,54.822,24.549,54.821,54.827
	C202.072,640.337,187.133,661.202,164.915,668.765L164.915,668.765z"/>
<rect x="146.446" y="565.266" fill="#3F3D56" width="1.612" height="11.287"/>
<rect x="113.948" y="578.722" transform="matrix(-0.7071 0.7071 -0.7071 -0.7071 609.1062 916.4306)" fill="#3F3D56" width="1.612" height="11.287"/>
<rect x="95.656" y="616.056" fill="#3F3D56" width="11.287" height="1.612"/>
<rect x="113.949" y="643.716" transform="matrix(0.7071 0.7071 -0.7071 0.7071 492.7776 109.0491)" fill="#3F3D56" width="1.612" height="11.287"/>
<rect x="178.936" y="578.729" transform="matrix(0.7071 0.7071 -0.7071 0.7071 465.8594 44.0618)" fill="#3F3D56" width="1.612" height="11.287"/>
<rect x="187.561" y="616.056" fill="#3F3D56" width="11.287" height="1.612"/>
<rect x="178.935" y="643.709" transform="matrix(-0.7071 0.7071 -0.7071 -0.7071 765.9986 981.4173)" fill="#3F3D56" width="1.612" height="11.287"/>
<rect x="146.446" y="657.171" fill="#3F3D56" width="1.612" height="11.287"/>
<path fill="#3F3D56" d="M149.67,613.637c-1.433-1.075-3.404-1.075-4.837,0c-0.477,0.363-0.871,0.825-1.153,1.355
	c-1.033,1.972-0.272,4.409,1.701,5.442c1.972,1.033,4.409,0.272,5.442-1.701C151.74,616.982,151.252,614.823,149.67,613.637
	L149.67,613.637z M147.252,619.281c-1.334-0.004-2.415-1.084-2.418-2.418c0.003-0.489,0.152-0.966,0.427-1.371
	c0.758-1.098,2.263-1.373,3.361-0.616c1.098,0.758,1.373,2.263,0.616,3.361C148.786,618.89,148.045,619.28,147.252,619.281
	L147.252,619.281z"/>
<rect x="139.996" y="546.724" fill="#3F3D56" width="14.511" height="14.511"/>
<ellipse fill="#3F3D56" cx="147.252" cy="542.29" rx="19.348" ry="6.853"/>
<rect x="144.833" y="586.227" fill="#3F3D56" width="4.837" height="27.41"/>
<rect x="72.536" y="670.839" fill="#3F3D56" width="151.564" height="1.612"/>
<path fill="#D0CDE1" d="M843.594,599.754c0.933,31.95-17.735,43.659-41.163,44.343c-0.544,0.016-1.086,0.026-1.625,0.029
	c-1.086,0.008-2.162-0.01-3.228-0.054c-21.188-0.88-37.96-12.127-38.828-41.84c-0.898-30.75,37.269-70.703,40.133-73.658
	l0.005-0.003c0.109-0.113,0.164-0.169,0.164-0.169S842.661,567.807,843.594,599.754z"/>
<path fill="#3F3D56" d="M800.744,639.255l14.882-22.131l-14.852,24.512l0.031,2.49c-1.086,0.008-2.162-0.01-3.228-0.054
	l0.738-32.012l-0.02-0.247l0.027-0.048l0.071-3.025l-16.298-23.663l16.279,21.399l0.058,0.639l0.557-24.186l-14.077-24.533
	l14.117,20.284l-0.147-50.108v-0.167l0.005,0.164l0.934,39.491l12.83-16.041l-12.787,19.444l0.28,21.634l11.806-21.114
	l-11.762,24.294l0.156,12.03l17.169-29.411l-17.117,33.608L800.744,639.255z"/>
</svg>
