<?xml version="1.0" encoding="utf-8"?>
<!-- Generator: Adobe Illustrator 17.0.0, SVG Export Plug-In . SVG Version: 6.00 Build 0)  -->
<!DOCTYPE svg PUBLIC "-//W3C//DTD SVG 1.1//EN" "http://www.w3.org/Graphics/SVG/1.1/DTD/svg11.dtd">
<svg version="1.1" id="Layer_1" xmlns="http://www.w3.org/2000/svg" xmlns:xlink="http://www.w3.org/1999/xlink" x="0px" y="0px"
	 width="567px" height="473px" viewBox="0 0 567 473" enable-background="new 0 0 567 473" xml:space="preserve">
<path opacity="0.1" fill="#CCCED0" enable-background="new    " d="M402.975,472.994c31.991,0,57.925-2.559,57.925-5.715
	s-25.934-5.715-57.925-5.715s-57.924,2.559-57.924,5.715S370.984,472.994,402.975,472.994z"/>
<path opacity="0.1" fill="#D8D8D8" enable-background="new    " d="M248.24,6.919c25.511-9.491,56.569-1.328,83.091,10.576
	c83.301,37.398,143.987,108.389,192.203,180.714c17.457,26.189,34.039,53.53,40.602,82.766
	c13.363,59.505-21.49,121.107-80.764,142.695c-20.158,7.348-42.303,10.361-64.482,12.04c-39.439,2.99-80.273,1.803-119.396-9.271
	c-27.9-7.913-54.293-20.643-79.606-34.707c-70.695-39.297-135.255-90.329-181.743-152.666
	c-20.389-27.341-37.637-58.165-38.134-89.712c-0.497-31.548,20.044-63.248,53.841-68.612c13.973-2.216,28.753,0.09,43.172,2.465
	c21.23,3.499,42.749,7.179,63.736,5.653c21.682-1.588,49.882-10.067,53.836-30.784C218.781,35.832,222.762,16.398,248.24,6.919z"/>
<path fill="#FFFFFF" d="M137.819,434.579c0,0,27.257-1.644,24.043,17.473c0,0,0.639,3.391-2.423,4.912c0,0-0.045-1.419-2.795-0.939
	c-0.977,0.168-1.971,0.218-2.96,0.147c-1.337-0.092-2.608-0.618-3.62-1.498c0,0-7.664-3.165-10.641-15.703
	c0,0-2.208-2.73-2.118-3.436l4.598,1.967c0,0-1.57,3.324-0.333,6.082c0,0,0.146-5.958,1.033-5.822
	c0.175,0.028,2.389,1.13,2.389,1.13s-2.705,5.783-0.666,9.989c0,0-0.774-7.128,1.508-9.57l3.242,1.893c0,0-3.163,5.975-1.017,10.848
	c0,0-0.565-7.479,1.694-10.39l2.937,2.261c0,0-2.971,5.89-1.158,9.937c0,0,0.232-8.71,1.791-9.366c0,0,2.57,2.261,2.959,3.199
	c0,0-2.033,4.274-0.774,6.529c0,0,0.774-5.799,1.412-5.828c0,0,2.553,3.844,2.824,6.478c0,0-0.113-3.917-2.208-6.845
	c0,0,2.474,0.424,3.92,2.029c0,0-0.401-2.719-4.547-2.956c0,0-2.112-2.911-2.683-3.092c0,0,4.129-0.345,6.631,0.769
	c0,0-2.203-2.567-7.387-1.402l-2.898-2.363c0,0,5.439-0.746,7.738,0.079c0,0-2.649-2.261-8.517-0.616l-3.152-1.888
	c0,0,4.632-1,7.393-0.639c0,0-2.914-1.571-8.319,0.13l-2.259-1.011c0,0,3.389-0.667,4.388-0.775c1-0.107,1.045-0.379,1.045-0.379
	c-2.15-0.36-4.357-0.115-6.376,0.707C142.513,436.62,137.735,434.907,137.819,434.579z"/>
<path opacity="0.1" fill="#CCCED0" enable-background="new    " d="M156.592,461.892c10.655,0,19.293-1.46,19.293-3.261
	c0-1.802-8.638-3.262-19.293-3.262s-19.293,1.46-19.293,3.262C137.299,460.432,145.937,461.892,156.592,461.892z"/>
<path fill="#CCCED0" d="M101.306,421.719c0,0,15.368-0.927,13.555,9.853c0.096,0.546,0.016,1.109-0.229,1.607
	c-0.245,0.498-0.641,0.905-1.132,1.162c0,0-0.028-0.797-1.576-0.525c-0.55,0.094-1.109,0.121-1.666,0.079
	c-0.756-0.047-1.475-0.343-2.044-0.842c0,0-4.315-1.792-6.01-8.858c0,0-1.242-1.543-1.197-1.939l2.598,1.131
	c0,0-0.887,1.876-0.192,3.431c0,0,0.085-3.363,0.565-3.284c0.102,0,1.35,0.65,1.35,0.65s-1.525,3.261-0.373,5.652
	c0,0-0.441-4.019,0.847-5.398l1.824,1.068c0,0-1.779,3.392-0.564,6.117c0,0-0.311-4.217,0.954-5.857l1.655,1.289
	c0,0-1.694,3.318-0.65,5.602c0,0,0.13-4.912,1.011-5.28c0,0,1.446,1.278,1.666,1.804c0,0-1.129,2.408-0.434,3.679
	c0,0,0.434-3.267,0.796-3.284c0,0,1.44,2.165,1.587,3.652c-0.072-1.373-0.5-2.704-1.243-3.861c0.831,0.152,1.599,0.545,2.209,1.131
	c0,0-0.221-1.532-2.564-1.668c0,0-1.192-1.645-1.508-1.741c0,0,2.327-0.198,3.739,0.43c0,0-1.243-1.447-4.169-0.792l-1.632-1.334
	c0,0,3.067-0.418,4.366,0.046c0,0-1.497-1.278-4.806-0.345l-1.774-1.069c1.366-0.298,2.766-0.418,4.163-0.356
	c0,0-1.638-0.887-4.688,0.074l-1.271-0.565c0,0,1.915-0.379,2.474-0.436c0.559-0.056,0.593-0.214,0.593-0.214
	c-1.213-0.202-2.459-0.063-3.598,0.401C103.938,422.929,101.261,421.906,101.306,421.719z"/>
<path opacity="0.1" fill="#CCCED0" enable-background="new    " d="M111.889,437.117c6.008,0,10.878-0.825,10.878-1.843
	c0-1.017-4.87-1.842-10.878-1.842c-6.007,0-10.877,0.825-10.877,1.842C101.012,436.292,105.882,437.117,111.889,437.117z"/>
<path fill="#CCCED0" d="M479.38,432.08c0,0,18.553-1.13,16.379,11.871c0.111,0.66,0.011,1.339-0.285,1.94
	c-0.296,0.601-0.773,1.093-1.365,1.406c0,0-0.033-0.966-1.903-0.638c-0.666,0.113-1.343,0.145-2.016,0.096
	c-0.91-0.06-1.776-0.417-2.463-1.018c0,0-5.218-2.153-7.246-10.689c0,0-1.502-1.86-1.44-2.334l3.129,1.334
	c0,0-1.068,2.261-0.226,4.143c0,0,0.102-4.059,0.7-3.957c0.125,0,1.627,0.78,1.627,0.78s-1.841,3.957-0.452,6.783
	c0,0-0.525-4.85,1.028-6.512l2.203,1.284c0,0-2.152,4.07-0.689,7.388c0,0-0.379-5.088,1.129-7.072l1.999,1.56
	c0,0-2.021,4.008-0.79,6.783c0,0,0.164-5.923,1.225-6.376c0,0,1.746,1.543,2.011,2.177c0,0-1.384,2.911-0.525,4.448
	c0,0,0.525-3.957,0.96-3.957c0,0,1.739,2.618,1.92,4.409c-0.084-1.656-0.6-3.262-1.496-4.657c1.003,0.19,1.93,0.669,2.665,1.379
	c0,0-0.271-1.849-3.1-2.012c0,0-1.435-1.985-1.819-2.103c0,0,2.824-0.238,4.518,0.52c0,0-1.502-1.741-5.032-0.95l-1.971-1.611
	c0,0,3.699-0.509,5.269,0.051c0,0-1.807-1.543-5.8-0.418l-2.146-1.283c0,0,3.151-0.679,5.032-0.436c0,0-1.982-1.068-5.648,0.091
	l-1.536-0.69c0,0,2.31-0.458,2.988-0.526c0.677-0.067,0.711-0.26,0.711-0.26c-1.462-0.244-2.964-0.077-4.337,0.481
	C482.588,433.505,479.323,432.295,479.38,432.08z"/>
<path opacity="0.1" fill="#CCCED0" enable-background="new    " d="M492.155,450.677c7.252,0,13.131-0.994,13.131-2.221
	c0-1.227-5.879-2.222-13.131-2.222c-7.252,0-13.132,0.995-13.132,2.222C479.023,449.683,484.903,450.677,492.155,450.677z"/>
<linearGradient id="SVGID_1_" gradientUnits="userSpaceOnUse" x1="385.3519" y1="-21.2386" x2="385.3519" y2="243.6191" gradientTransform="matrix(1 0 0 -1 8.4 449.04)">
	<stop  offset="0" style="stop-color:#808080;stop-opacity:0.25"/>
	<stop  offset="0.54" style="stop-color:#808080;stop-opacity:0.12"/>
	<stop  offset="1" style="stop-color:#808080;stop-opacity:0.1"/>
</linearGradient>
<path fill="url(#SVGID_1_)" d="M460.893,294.852c-0.356-1.99-0.562-4.004-0.616-6.026c0-2.425-3.292-4.573-3.292-4.573
	s-2.033-4.708-3.389-5.403c-1.355-0.696-5.541-6.857-5.541-6.857c-0.048-1.215-0.49-2.382-1.259-3.324
	c-1.254-1.65-2.399-3.379-3.428-5.178c-0.565-0.689-0.283-1.175-1.13-5.194c-0.045-0.21-0.096-0.413-0.158-0.605
	c0-0.091-0.056-0.17-0.09-0.26c0.899-0.903,1.525-2.041,1.808-3.283c0.283-1.243,0.21-2.54-0.21-3.743
	c-0.152-0.479-0.429-0.908-0.802-1.244c-0.954-0.78-2.479-0.458-3.462-1.198l1.045-4.624c0.248-1.131,0.378-2.561-0.61-3.171
	c-0.371-0.176-0.762-0.307-1.164-0.39c-1.694-0.566-2.677-2.358-3.117-4.082c-0.424-1.66-0.539-3.385-0.339-5.087
	c0.192-1.639,0.672-3.233,0.847-4.878c0.319-3.043-0.413-6.103-2.073-8.671c-0.645-1.109-1.596-2.008-2.739-2.589
	c-1.045-0.469-2.259-0.565-3.236-1.131c-2.101-1.339-1.994-4.522-3.671-6.348c-1.678-1.825-4.649-1.82-7.094-1.192
	c-2.446,0.627-4.88,1.696-7.387,1.43c-1.616-0.181-3.129-0.916-4.75-1.085c-0.464-0.045-0.932-0.024-1.39,0.062v-0.051
	c-1.197,0.215-2.298,0.882-2.581,2.018c-0.063,0.27-0.09,0.548-0.079,0.825c0,0.661,0.158,1.351,0.17,1.984
	c0.021,0.252-0.009,0.505-0.088,0.745c-0.078,0.239-0.204,0.461-0.37,0.651c-0.322,0.345-0.796,0.526-1.129,0.882
	c-0.136,0.136-0.243,0.299-0.314,0.478c-0.071,0.178-0.104,0.37-0.099,0.562c0,1.006,1.254,1.894,2.096,2.301h0.034
	c-0.226,0.226-0.452,0.463-0.661,0.706c-2.413,2.727-3.743,6.245-3.739,9.887c0.02,2.942,0.899,5.813,2.529,8.262
	c1.63,2.448,3.939,4.367,6.643,5.519l-0.119,0.367c-0.237,0.727-0.515,1.44-0.83,2.137c-0.584-0.197-1.204-0.263-1.817-0.195
	c-0.613,0.069-1.203,0.27-1.73,0.591c-1.615,1.13-4.772,1.04-5.614,0.831c-0.841-0.209-9.601-1.317-10.307-1.04
	c-0.706,0.277-2.101-0.967-3.01,0.695c-0.91,1.662-1.333,2.561-2.259,2.979c-0.927,0.418-2.525,1.73-2.31,2.007
	c0.214,0.276-2.316,1.938-2.316,1.938s-2.175,2.261-3.434,2.561c-1.259,0.3-3.925,2.012-3.925,2.012l-3.09,2.42
	c0,0-2.31,0.35-1.609-1.244c0.7-1.594-1.265-3.601-1.265-3.601s-3.926-7.964-3.926-9.609c0-1.645-3.225-8.66-3.225-8.66
	l-0.395-0.039l-0.181-0.515c-0.593-1.667-1.361-3.714-1.948-4.912c-1.13-2.289-1.824-2.527-1.824-2.527s-13.6-10.22-22.434-7.105
	c-8.833,3.115,16.125,12.396,18.367,13.368c0.785,0.34,1.35,1.436,1.745,2.719c-1.989,0.961-3.664,2.468-4.829,4.347
	c0,0,5.4,11.978,5.541,14.957c0.141,2.979,3.716,11.305,3.716,11.305s1.333,6.167,8.551,5.817c0,0,9.957,1.831,12.132,0
	c2.174-1.832,4.134-3.267,5.19-3.477c0.777-0.255,1.459-0.737,1.96-1.384c0,0-3.293,20.773-4.908,22.576
	c-1.615,1.803-15.888,25.126-10.765,29.298c4.057,3.144,8.345,5.978,12.826,8.479c0.435,0.214,1.74-1.962,3.604-3.505
	c0,0.39,0,0.786,0,1.204c0.034,8.298,1.129,20.915,2.643,23.741c2.259,4.155,1.333,12.187,1.333,12.187
	c1.188,0.559,2.477,0.869,3.789,0.91c0.068,0.271,0.147,0.565,0.221,0.848c1.237,4.675,3.242,11.904,4.264,13.826
	c1.542,2.911,2.66,12.125,2.66,12.125s0.915,9.044,0.565,10.316c-0.136,0.481,0.457,4.245,1.389,9.044
	c-0.565,6.495-1.638,19.016-1.818,23.544c0,0.084,0,0.169,0,0.248v0.079c0.002,0.051,0.002,0.102,0,0.153c0,0.102,0,0.192,0,0.277
	c-0.018,0.285-0.007,0.571,0.033,0.854c0.07,0.431,0.038,0.872-0.096,1.288c-0.399,1.252-0.908,2.466-1.519,3.629
	c-0.257,0.572-0.484,1.157-0.678,1.753c-0.564,0.248-1.253,0.853-1.637,2.329c-0.701,2.701-1.751,10.174-1.751,10.174
	s-0.424,4.573-1.26,5.613c-0.836,1.04-1.694,7.547,4.276,8.377c5.969,0.831,8.551-3.165,8.551-3.165l-0.209-18.134v-0.034
	c0.12-0.152,0.224-0.317,0.31-0.491v-0.046c0.04-0.084,0.085-0.175,0.124-0.277l0.051-0.135l0.091-0.221
	c-0.004-0.026-0.004-0.052,0-0.079c0.579-1.737,0.753-3.583,0.508-5.398v-0.09v-0.142c0-0.045,0-0.096,0-0.141v-0.283
	c0-0.034,0-0.073,0-0.107c0-0.121,0.011-0.245,0.034-0.373c0,0,0-0.045,0-0.068l0.034-0.22v-0.097c0-0.073,0-0.147,0.045-0.226
	c-0.002-0.018-0.002-0.037,0-0.056c0.056-0.26,0.124-0.565,0.198-0.814v-0.062l0.084-0.272c0.085-0.288,0.181-0.565,0.283-0.87
	v-0.057c0-0.09,0.062-0.181,0.096-0.265v-0.034c0.101-0.277,0.209-0.566,0.31-0.803l0.029-0.073l0.09-0.227l0.028-0.067l0.215-0.503
	l1.655,5.115c0,0,0.915,3.81,0.423,4.709c-0.491,0.899,0.565,4.641,1.26,4.708l-0.65,4.709c-0.351,2.596-0.56,5.21-0.627,7.829
	c-0.045,0.299-0.09,0.565-0.124,0.746c-0.452,2.414,0.633,6.156,0.633,6.156c5.535,6.551,12.131,0.509,12.131,0.509
	s0.768-3.466,0-4.155c-0.768-0.69-0.423-3.188-0.423-3.188s0.35-6.167,0.418-10.667c0.067-4.499-3.677-8.479-3.677-8.479
	l-0.209,0.187c-0.684-1.764-1.463-3.821-1.299-4.743c0.282-1.594-0.774-18.422-0.774-18.422c0.39-4.511,0.473-9.043,0.249-13.566
	c0.09-0.763,0.175-1.515,0.259-2.261c0.424-3.618,0.768-6.71,0.904-8.332v-0.192c0.034-0.435,0.051-0.746,0.045-0.893
	c0-0.565,0-1.21,0.057-1.916c0.13-1.945,0.435-4.11,0.435-4.11l1.468-8.937c0,0,1.13-4.363,2.739-6.783l0.192-0.305
	c0.062-0.107,0.125-0.226,0.192-0.35l0.029-0.051c0.062-0.119,0.129-0.243,0.192-0.373l0.028-0.051
	c0.226-0.447,0.469-0.961,0.723-1.527c0-0.045,0.039-0.084,0.056-0.13l0.192-0.429c0-0.057,0.045-0.113,0.074-0.17
	c0.028-0.056,0.118-0.288,0.18-0.429c0.028-0.057,0.053-0.116,0.074-0.176c0.073-0.169,0.152-0.344,0.226-0.525l0.107-0.26
	c0.051-0.13,0.107-0.26,0.164-0.39l0.135-0.345c0.04-0.085,0.074-0.17,0.108-0.254l0.152-0.391c0-0.056,0.051-0.118,0.074-0.175
	c0.401-1,0.785-1.989,1.129-2.888c0.107-0.283,0.215-0.565,0.311-0.814c3.592,0.22,6.032,0.418,6.032,0.418s1.129-8.1,0.768-13.431
	c-0.237-3.64,0.44-8.218,0.887-10.74c0.05-0.277,0.096-0.525,0.141-0.751l0.096,0.079c1.756,1.385,3.016-3.188,3.016-3.188
	s-0.475-4.268-1.13-9.44l-0.068-0.515c1.013,0.217,2.037,0.373,3.067,0.47c0,0,0.565-0.051,1.339-0.147
	c2.14,1.24,4.399,2.262,6.743,3.052l3.733-6.896c0.702-1.43,1.524-2.797,2.457-4.087c1.13-1.385,5.117-5.816,5.049-6.647
	c-0.067-0.831,1.333-5.613,2.734-7.761S460.961,295.197,460.893,294.852z M445.328,300.115c-1.475,0.621-2.875,4.087-2.943,5.127
	c-0.068,1.04-1.615,5.607-3.225,6.161c-1.485,0.509-4.321,3.12-4.772,3.539c-0.463,0.039-0.989,0.101-1.537,0.192
	c-0.615-4.37-1.225-7.987-1.615-8.717c-1.129-2.08,1.237-8.727,1.237-8.727s0.232-6.716,1.694-8.31
	c1.463-1.594,1.13-5.613,1.13-5.613s0.35-1.662,0.491-2.419c0.142-0.757,2.084,0,2.101,0c0,0,3.784,2.075,4.349,5.189
	c0.565,3.115,4.699,8.519,4.699,8.519s-0.632,1.871,0,2.826C447.57,298.837,446.802,299.493,445.328,300.115z"/>
<path fill="#4C4981" d="M343.932,240.926c1.151-1.9,2.837-3.419,4.846-4.366c2.009-0.947,4.252-1.28,6.449-0.958v8.089h-4.908
	l-3.84-0.973L343.932,240.926z"/>
<path opacity="0.1" enable-background="new    " d="M343.932,240.926c1.151-1.9,2.837-3.419,4.846-4.366
	c2.009-0.947,4.252-1.28,6.449-0.958v8.089h-4.908l-3.84-0.973L343.932,240.926z"/>
<path fill="#FECEB8" d="M355.594,237.744l-6.015,4.217c0,0-0.051-0.843-0.203-1.996c-0.3-2.182-0.972-5.455-2.423-6.088
	c-2.209-0.972-26.794-10.231-18.073-13.345c8.72-3.115,22.1,7.094,22.1,7.094s0.689,0.237,1.79,2.515
	c0.565,1.198,1.339,3.239,1.92,4.906C355.227,236.551,355.594,237.744,355.594,237.744z"/>
<path fill="#4C4981" d="M403.647,244.238l0.684-0.322l1.92,2.193l-1.57,3.352l-2.677-1.074l0.621-2.679L403.647,244.238z"/>
<path fill="#393944" d="M394.549,440.56c0,0-1.728-0.203-2.417,2.493c-0.689,2.696-1.728,10.175-1.728,10.175
	s-0.413,4.561-1.243,5.601c-0.83,1.04-1.655,7.535,4.213,8.361c5.868,0.825,8.427-3.16,8.427-3.16l-0.209-18.128L394.549,440.56z"/>
<path fill="#393944" d="M415.028,441.373c0,0,3.694,3.957,3.626,8.445s-0.418,10.644-0.418,10.644s-0.339,2.493,0.418,3.182
	c0.757,0.69,0,4.149,0,4.149s-6.495,6.032-11.951-0.508c0,0-1.062-3.737-0.621-6.145c0.44-2.408,1.671-13.233,1.671-13.233
	L415.028,441.373z"/>
<path fill="#FECEB8" d="M424.177,358.715c0,0-3.728,10.435-5.32,12.854c-1.593,2.42-2.689,6.784-2.689,6.784l-1.451,8.914
	c-0.284,1.993-0.446,4.001-0.486,6.014c0.068,2.007-3.592,31.242-3.592,31.242l-5.8,7.399c0,0-2.553,5.184-2.141,7.349
	s-0.277,5.602-1.129,6.636c0,0-0.136,6.783-0.345,8.292c-0.209,1.51,0.763,5.811,0,6.569c-0.762,0.757-10.912,0.418-11.188-0.831
	c-0.277-1.249,1.242-7.258,1.242-7.258l0.898-5.805c0,0,1.796-3.177,1.384-4.217c-0.412-1.04,0.757-3.454,0.824-3.663
	c0.068-0.209,1.938-3.595,1.593-4.907c-0.344-1.311,2.175-29.201,2.175-29.201l7.11-49.975L424.177,358.715z"/>
<path opacity="0.1" enable-background="new    " d="M425.034,358.717c0,0-0.565,1.571-1.339,3.634
	c-1.231,3.256-3.004,7.739-3.981,9.22c-1.587,2.419-2.694,6.783-2.694,6.783l-1.452,8.92c-0.28,1.993-0.441,4.002-0.48,6.014
	c0,0.792-0.531,5.839-1.209,11.656c-1.044,8.892-2.383,19.586-2.383,19.586l-5.8,7.4c0,0-0.294,0.565-0.661,1.458
	c-0.729,1.696-1.757,4.449-1.48,5.867c0.412,2.143-0.277,5.596-1.129,6.637c0,0-0.142,6.783-0.345,8.292s0.763,5.805,0,6.568
	c-0.762,0.763-10.912,0.419-11.188-0.825c-0.277-1.244,1.242-7.258,1.242-7.258l0.898-5.811c0,0,1.796-3.177,1.378-4.217
	c-0.418-1.04,0.763-3.453,0.83-3.663c0.068-0.209,1.938-3.595,1.593-4.906c-0.265-1.001,1.13-17.376,1.779-25.143
	c0.221-2.442,0.362-4.03,0.362-4.03l6.116-42.994l0.497-3.465l0.497-3.516L425.034,358.717z"/>
<path fill="#FECEB8" d="M417.965,462.672c0.062,0.763-9.743,1.871-11.143,1.04c-1.401-0.831,0-11.13,0-11.13l0.638-4.697
	c-0.684-0.074-1.723-3.804-1.243-4.703c0.48-0.899-0.412-4.697-0.412-4.697l-1.627-5.088l-0.994-3.114
	c-1.615-3.567-3.953-13.742-5.405-21.339c-0.915-4.771-1.496-8.53-1.366-9.01c0.344-1.244-0.565-10.299-0.565-10.299
	s-1.13-9.197-2.621-12.097c-1.011-1.922-2.982-9.14-4.202-13.798c-0.621-2.391-1.05-4.109-1.05-4.109s10.437-0.877,16.768-1.182
	c2.909-0.141,4.953-0.158,4.716,0.079c-0.237,0.238-0.299,1.504-0.288,3.335c0.028,4.743,0.689,13.086,1.389,15.33
	c0.966,3.109,1.932,12.436,1.52,13.34c-0.413,0.905-0.277,6.914-0.277,6.914c0.712,2.441,1.121,4.96,1.22,7.501
	c0.221,4.501,0.142,9.013-0.237,13.504c0,0,1.033,16.799,0.757,18.388c-0.277,1.588,2.208,6.568,2.208,7.535
	c0,0.966,0.689,7.535,0.689,7.535S417.92,461.915,417.965,462.672z"/>
<path fill="#FECEB8" d="M423.415,260.762l-1.186,1.283l-0.774,0.836l-4.518,4.862l-11.674,1.317l-6.213-1.662l-1.536-0.413
	c0,0,0-3.12,0.276-6.862c0.396-4.799,1.339-10.627,3.592-12.216c1.129-0.884,2.029-2.025,2.627-3.329
	c0.45-0.899,0.828-1.833,1.129-2.792c0.045-0.125,0.079-0.243,0.119-0.368c0.508-1.675,0.875-3.39,1.096-5.127
	c0,0,1.491-0.825,3.563-1.786c5.405-2.527,14.741-6.014,11.494,1.786c-0.478,1.143-0.885,2.313-1.22,3.505
	c-0.051,0.175-0.096,0.35-0.136,0.52c-1.084,4.341-0.367,6.975,0.441,8.428c0.136,0.252,0.293,0.492,0.469,0.718
	c0.22,0.303,0.485,0.572,0.785,0.797l1.344,8.541l0.113,0.707L423.415,260.762z"/>
<path opacity="0.1" enable-background="new    " d="M421.416,236.709C420.8,238.19,421.715,235.5,421.416,236.709
	c-2.462,1.753-8.263,6.744-11.522,6.744c-2.202,0-2.863-0.401-4.749-1.255c0.57-1.789,0.977-3.626,1.214-5.489
	C406.359,236.709,425.906,225.924,421.416,236.709z"/>
<path fill="#FECEB8" d="M426.39,227.626c-0.003,3.722-1.382,7.312-3.871,10.079c-2.489,2.766-5.912,4.514-9.611,4.906
	c-0.519,0.051-1.045,0.084-1.575,0.084c-2.978,0-5.89-0.883-8.366-2.539c-2.476-1.656-4.406-4.01-5.545-6.763
	c-1.14-2.754-1.438-5.784-0.857-8.707c0.581-2.924,2.015-5.609,4.121-7.716c2.105-2.108,4.788-3.543,7.709-4.125
	c2.921-0.581,5.948-0.283,8.7,0.858c2.751,1.14,5.103,3.072,6.757,5.55C425.507,221.731,426.39,224.645,426.39,227.626z"/>
<path opacity="0.1" enable-background="new    " d="M428.532,294.428l-2.146,5.601c0,0-1.745,0.074-4.468,0.159
	c-9.189,0.294-29.436,0.667-30.34-1.696c-0.202-0.599-0.309-1.227-0.316-1.86c-0.119-3.601,1.559-9.129,1.559-9.129
	s0.965-11.062,0.965-11.542c0-0.481-0.83-8.231-0.83-8.231l1.661-6.218l4.625-3.25c0,0,2.073,3.183,3.316,3.454
	c1.242,0.271,2.903,1.803,2.903,1.803s4.072,2.487,5.388,1.102c1.316-1.384,11.533-7.467,11.533-7.467l5.388,5.947L428.532,294.428z
	"/>
<path fill="#FFFFFF" d="M428.531,295.287l-2.146,5.596c0,0-1.746,0.079-4.468,0.164h-0.265c-1.175,0.04-2.519,0.079-3.954,0.108
	c-7.302,0.169-17.361,0.214-22.62-0.566c-1.976-0.282-3.27-0.689-3.484-1.243c-0.119-0.333-0.203-0.678-0.249-1.029
	c-0.034-0.26-0.056-0.565-0.068-0.831c-0.118-3.601,1.559-9.129,1.559-9.129s0.966-11.062,0.966-11.543c0-0.48-0.83-8.23-0.83-8.23
	l1.66-6.218l3.18-2.227l1.446-1.017c0.486,0.728,1.016,1.427,1.587,2.091c0.446,0.599,1.042,1.069,1.728,1.362
	c1.248,0.277,2.903,1.804,2.903,1.804s4.072,2.487,5.388,1.102c1-1.057,7.213-4.861,10.082-6.597c0.881-0.537,1.451-0.87,1.451-0.87
	l0.723,0.802l4.665,5.144L428.531,295.287z"/>
<path opacity="0.1" enable-background="new    " d="M355.595,237.743l-6.015,4.217c0,0-0.051-0.842-0.203-1.995
	c2.971-1.255,4.778-4.031,5.298-4.918C355.228,236.55,355.595,237.743,355.595,237.743z"/>
<path fill="#454554" d="M376.729,252.056l-1.31-0.35c0,0-2.146,2.261-3.389,2.561c-1.242,0.299-3.863,2.001-3.863,2.001
	l-3.044,2.419c0,0-2.259,0.35-1.587-1.244s-1.242-3.595-1.242-3.595s-3.869-7.947-3.869-9.609s-3.197-8.637-3.197-8.637
	s-4.01,7.811-11.33,5.324c0,0,5.321,11.956,5.456,14.929c0.136,2.973,3.66,11.266,3.66,11.266s1.316,6.155,8.427,5.81
	c0,0,9.81,1.826,11.951,0c2.14-1.825,4.072-3.261,5.083-3.47c1.011-0.209,1.931-1.379,1.931-1.379v-8.219L376.729,252.056z"/>
<path opacity="0.1" enable-background="new    " d="M364.434,259.862c0,0,1.728,6.433,0.621,7.123L364.434,259.862z"/>
<path opacity="0.1" enable-background="new    " d="M421.918,301.019c-9.189,0.294-29.436,0.662-30.34-1.695
	c-0.203-0.6-0.309-1.227-0.316-1.86l30.018,1.583L421.918,301.019z"/>
<path opacity="0.1" enable-background="new    " d="M424.176,358.715c0,0-0.565,1.572-1.339,3.635
	c-3.812-0.232-8.861-0.475-13.656-0.509c-1.695,0-3.355,0-4.925,0.057c-3.332,0.102-6.213,0.373-8.048,0.893
	c-2.321,0.715-4.747,1.029-7.173,0.927c-0.621-2.391-1.051-4.11-1.051-4.11s10.438-0.876,16.769-1.181l0.497-3.516L424.176,358.715z
	"/>
<path fill="#393944" d="M432.259,333.414l-1.175,2.487c0,0-0.164,0.74-0.373,1.916c-0.441,2.532-1.13,7.1-0.87,10.74
	c0.345,5.325-0.762,13.408-0.762,13.408s-25.416-2.142-32.871,0c-7.455,2.142-11.126,0-11.126,0s0.904-8.015-1.31-12.164
	c-1.508-2.827-2.57-15.443-2.604-23.741c0-3.827,0.192-6.727,0.672-7.315c1.519-1.865,8.009-20.53,8.009-20.53l1.479,0.079
	l3.954,0.209l22.478,1.187l3.53,0.187l0.373,1.13L432.259,333.414z"/>
<path fill="#4C4981" d="M443.447,325.116l0.209,2.216c0,0-11.132-3.629-10.567-8.089c0.565-4.46,0-3.956,0-3.956l8.946,0.757
	L443.447,325.116z"/>
<path opacity="0.1" enable-background="new    " d="M443.447,325.116l0.209,2.216c0,0-11.132-3.629-10.567-8.089
	c0.565-4.46,0-3.956,0-3.956l8.946,0.757L443.447,325.116z"/>
<path opacity="0.1" enable-background="new    " d="M371.861,261.648c1.136,0.967,2.476,1.664,3.919,2.041
	c-0.418-0.091-0.806-0.285-1.129-0.566c-0.797-0.565-1.554-1.181-2.322-1.78c-0.621-0.486-1.395-1.295-2.157-1.492
	C370.671,260.507,371.237,261.109,371.861,261.648z"/>
<path opacity="0.1" enable-background="new    " d="M372.03,264.56c0.358,0.404,0.648,0.864,0.858,1.362
	c0.357,1.407,0.335,2.883-0.062,4.279l-1.785-4.307c-0.31-0.735-0.621-1.47-0.994-2.171c-0.163-0.299-1.191-1.549-1.073-1.809
	C369.291,261.179,371.697,264.147,372.03,264.56z"/>
<path opacity="0.1" enable-background="new    " d="M421.828,288.414c1.217-0.147,2.355-0.68,3.247-1.52
	c-1.835,0.231-3.575,0.955-5.382,1.334c-1.678,0.39-3.437,0.227-5.015-0.464C416.756,288.782,419.614,288.815,421.828,288.414z"/>
<path opacity="0.1" enable-background="new    " d="M416.637,275.757c-0.329,0.049-0.664-0.034-0.931-0.232
	c-1.379-0.791-2.738-1.616-4.078-2.476c-1.305-0.842-2.881-1.695-3.993-2.758C410.374,272.767,412.927,274.858,416.637,275.757z"/>
<path opacity="0.1" enable-background="new    " d="M420.467,290.42c0.723,0.033,1.448-0.026,2.157-0.175
	c0.717-0.149,1.351-0.565,1.774-1.164c-0.257-0.059-0.526-0.017-0.751,0.118c-2.189,0.922-4.592,1.21-6.936,0.831
	C417.835,290.511,419.275,290.415,420.467,290.42z"/>
<path opacity="0.1" enable-background="new    " d="M407.386,322.516c-1.438,0.434-2.916,0.724-4.411,0.865
	c-1.164,0.054-2.33,0.031-3.49-0.068l-5.648-0.356l-2.824-0.181c-0.333,0-1.695,0-1.022-0.672c0.338-0.328,2.225-0.119,2.711-0.136
	c0.937-0.03,1.878-0.047,2.823-0.051c1.87,0,3.745,0,5.614,0.113C403.235,322.132,405.296,322.29,407.386,322.516z"/>
<path opacity="0.1" enable-background="new    " d="M400.84,325.314c-0.96-0.04-2.197,0.531-3.186,0.655
	c-1.105,0.131-2.22,0.175-3.332,0.13c-2.201-0.052-4.376-0.496-6.422-1.311C392.21,325.009,396.53,325.139,400.84,325.314z"/>
<path opacity="0.1" enable-background="new    " d="M388.742,328.276c0.418,0.084,0.829,0.197,1.231,0.339
	c2.384,0.678,4.92,0.079,7.342-0.52c-0.604,0.91-1.694,1.3-2.784,1.549c-1.773,0.449-3.621,0.517-5.422,0.197
	c-0.565-0.113-1.982-0.316-2.259-0.904C386.387,328.072,388.211,328.191,388.742,328.276z"/>
<path opacity="0.1" enable-background="new    " d="M402.105,332.736c0.715,0.146,1.42,0.335,2.113,0.565
	c2.682,0.667,5.467-0.249,8.161-0.865c3.238-0.736,6.559-1.044,9.878-0.916c-0.593,0-1.536,0.521-2.118,0.696
	c-0.763,0.232-1.536,0.446-2.31,0.639c-1.519,0.373-3.061,0.678-4.614,0.898c-3.136,0.454-6.309,0.592-9.472,0.413
	c-1.446-0.079-3.953,0.068-5.19-0.661C399.622,332.869,400.869,332.599,402.105,332.736z"/>
<path opacity="0.1" enable-background="new    " d="M403.116,247.483c0,0,0.135,6.365-0.898,9.27
	c-0.328,0.905-0.836,2.572-1.39,4.443c-0.604,2.075-1.265,4.398-1.773,6.218c-0.509,1.82-0.847,3.041-0.847,3.041
	s-2.333,19.016-2.937,28.077c0,0.158,0,0.322-0.034,0.475c-0.034,0.508-0.091,1.04-0.175,1.588
	c-1.344,8.999-9.099,22.876-11.703,23.984c-0.812,0.373-1.553,0.884-2.191,1.509c0-3.827,0.192-6.726,0.672-7.314
	c1.519-1.866,8.009-20.531,8.009-20.531l1.479,0.08c-0.033-0.26-0.056-0.566-0.067-0.831c-0.119-3.601,1.558-9.129,1.558-9.129
	s0.966-11.062,0.966-11.543c0-0.48-0.83-8.23-0.83-8.23l1.661-6.218l3.179-2.227c0.396-4.799,1.339-10.627,3.592-12.215
	c1.129-0.885,2.029-2.026,2.627-3.33c0.446,0.062-0.368-0.333-0.368-0.333L403.116,247.483z"/>
<path fill="#454554" d="M404.331,243.917c-0.576-0.197-1.188-0.264-1.792-0.196c-0.605,0.069-1.187,0.271-1.704,0.591
	c-1.593,1.131-4.699,1.035-5.529,0.831c-0.831-0.203-9.46-1.317-10.166-1.04c-0.706,0.277-2.073-0.966-2.971,0.695
	c-0.898,1.662-1.311,2.555-2.209,2.968c-0.898,0.413-2.49,1.73-2.259,2.007c0.232,0.277-2.259,1.933-2.259,1.933l5.038,16.393
	c0,0-3.247,20.733-4.835,22.531c-1.587,1.797-15.678,25.092-10.634,29.241c3.992,3.142,8.218,5.977,12.639,8.479
	c0.565,0.277,2.553-3.454,5.315-4.63c2.762-1.175,11.33-16.731,11.861-25.578c0.53-8.846,2.97-28.545,2.97-28.545
	s2.971-10.786,4.005-13.691c1.033-2.906,0.898-9.27,0.898-9.27L404.331,243.917z"/>
<path opacity="0.1" enable-background="new    " d="M432.26,333.414l-1.175,2.487c0,0-0.163,0.741-0.372,1.916
	c-0.21-0.026-0.407-0.115-0.565-0.254c-1.728-1.385-11.861-11.82-12.363-21.084c-0.356-6.834-0.187-12.724-0.074-15.347
	c0.034-0.825,0.068-1.323,0.068-1.43c0,0,7.873-9.542,6.975-12.922s-2.971-21.48-2.971-21.48l-0.305-2.374l-0.525-4.014
	l-1.254-9.711l1.299,0.305c0.221,0.304,0.485,0.572,0.785,0.797l1.344,8.542l4.666,5.143l0.762,31.316l-2.146,5.596
	c0,0-1.745,0.079-4.468,0.164h-0.265L432.26,333.414z"/>
<path fill="#454554" d="M436.607,281.721c0,0-1.932-0.763-2.067,0c-0.136,0.763-0.486,2.414-0.486,2.414s0.344,4.013-1.13,5.602
	c-1.474,1.588-1.694,8.292-1.694,8.292s-2.327,6.636-1.226,8.711c0.401,0.752,1.023,4.522,1.644,9.044
	c0.395,2.826,0.785,5.93,1.13,8.767c0.626,5.155,1.095,9.423,1.095,9.423s-1.248,4.562-2.976,3.177s-11.861-11.82-12.358-21.084
	c-0.339-6.507-0.203-12.159-0.09-14.946c0.045-1.181,0.09-1.848,0.09-1.848s7.873-9.542,6.975-12.928
	c-0.898-3.386-2.97-21.48-2.97-21.48l-0.362-2.798l-0.39-3.007l-0.09-0.661l-1.248-9.61c0.22,0.051,7.969,1.803,8.991,2.826
	c1.023,1.023,7.343,2.488,7.343,2.488c0.953,0.258,1.819,0.768,2.508,1.476c0.69,0.708,1.177,1.588,1.411,2.548
	c0.062,0.192,0.107,0.396,0.153,0.605c0.83,4.013,0.564,4.494,1.129,5.189C442.554,264.616,436.607,281.721,436.607,281.721z"/>
<path opacity="0.1" enable-background="new    " d="M432.825,324.546c-2.824-0.566-7.015-1.871-6.919-4.754
	c0.085-2.697,3.327-3.669,5.783-4.014C432.085,318.593,432.474,321.708,432.825,324.546z"/>
<path fill="#FECEB8" d="M441.584,323.11c-0.113,0.243-0.565,0.452-1.209,0.638c-1.51,0.36-3.045,0.611-4.591,0.752
	c0,0-9.602-0.763-9.466-5.121c0.101-3.126,4.439-3.957,6.873-4.143c0.539-0.051,1.08-0.073,1.621-0.068
	C434.812,315.168,441.996,322.217,441.584,323.11z"/>
<path opacity="0.1" enable-background="new    " d="M441.584,323.11c-0.113,0.243-0.565,0.452-1.208,0.638
	c-2.502-3.352-5.993-7.653-7.704-8.032l0.519-0.48c0.539-0.051,1.08-0.073,1.621-0.068
	C434.812,315.168,441.997,322.217,441.584,323.11z"/>
<path fill="#454554" d="M439.167,263.457l2.824,0.418c1.019,1.798,2.151,3.529,3.389,5.184c0.758,0.944,1.194,2.107,1.242,3.318
	c0,0,4.146,6.15,5.456,6.84c1.31,0.689,3.315,5.392,3.315,5.392s3.248,2.142,3.248,4.562c0.057,2.017,0.265,4.028,0.621,6.014
	c0.073,0.345-0.48,4.635-1.864,6.783c-1.383,2.148-2.767,6.885-2.694,7.733c0.074,0.848-3.869,5.257-4.97,6.636
	c-0.919,1.29-1.728,2.655-2.417,4.081l-3.66,6.914c0,0-7.738-11.407-10.567-12.029c0,0,3.174-3.041,4.761-3.595
	c1.587-0.554,3.112-5.088,3.18-6.15c0.068-1.063,1.451-4.494,2.897-5.088c1.446-0.593,2.214-1.243,1.593-2.215
	c-0.621-0.973,0-2.827,0-2.827s-4.078-5.392-4.631-8.479c-0.554-3.086-4.282-5.183-4.282-5.183l-2.14-5.257L439.167,263.457z"/>
<path opacity="0.1" enable-background="new    " d="M449.44,289.262c1.563-1.321,3.53-2.067,5.574-2.115
	c-1.31,0.227-2.688,0.515-3.648,1.431c-0.377,0.396-0.716,0.828-1.011,1.288c-0.328,0.47-2.993,3.861-3.389,3.324
	C446.305,292.404,448.903,289.719,449.44,289.262z"/>
<path opacity="0.1" enable-background="new    " d="M443.182,285.988c0.422-0.036,0.828-0.185,1.174-0.43
	c0.347-0.246,0.622-0.579,0.797-0.966c0.336-0.779,0.544-1.607,0.615-2.453c0.202-1.416,0.487-2.818,0.853-4.2
	c0.11-0.273,0.156-0.568,0.136-0.862c-0.021-0.293-0.108-0.579-0.254-0.834c-0.152-0.441-0.357-0.863-0.61-1.255
	c-0.509,0.566-0.656,1.883-0.865,2.64c-0.259,0.938-0.497,1.882-0.722,2.826C444.187,280.907,443.249,285.988,443.182,285.988z"/>
<path opacity="0.1" enable-background="new    " d="M440.736,258.082c-0.278,0.364-0.598,0.694-0.954,0.983
	c-1.13,0.899-2.626,1.656-2.768,3.075c0.04,0.461-0.018,0.925-0.169,1.362c-0.361,0.622-1.248,0.566-1.954,0.447
	c-0.596-0.054-1.167-0.264-1.655-0.61c-0.74-0.634-0.808-1.764-1.372-2.561c-0.344-0.411-0.777-0.738-1.267-0.955
	c-0.489-0.216-1.022-0.317-1.557-0.294c-1.056-0.034-2.107,0.203-3.163,0.248c-0.679,0.035-1.359-0.011-2.028-0.135
	c-0.22-0.034-0.439-0.079-0.655-0.136c-0.472-0.116-0.933-0.273-1.378-0.469c-0.23-0.092-0.455-0.197-0.672-0.317
	c-0.707-0.363-1.362-0.819-1.949-1.356c-1.033-0.95-1.892-2.261-1.807-3.669c0.051-0.865,0.441-1.662,0.565-2.515
	c0.424-2.442-1.197-4.748-2.954-6.495c-0.7-0.695-1.446-1.368-2.146-2.075c-1.091-1.006-1.952-2.236-2.525-3.606
	c-0.471-1.458-0.625-3-0.452-4.522c0.159-1.543,0.203-3.097,0.13-4.647c-0.519-5.494-5.207-9.705-9.895-11.994l-0.209-0.108
	c1.391-1.597,3.103-2.883,5.024-3.773s4.008-1.365,6.124-1.393c2.117-0.028,4.216,0.391,6.16,1.229
	c1.944,0.839,3.689,2.079,5.121,3.639c1.433,1.56,2.521,3.404,3.193,5.414c0.671,2.009,0.912,4.137,0.706,6.246
	c-0.205,2.108-0.853,4.15-1.901,5.991s-2.472,3.44-4.179,4.692c-0.051,0.176-0.096,0.351-0.136,0.52
	c-1.084,4.342-0.367,6.976,0.441,8.429c0.22,0.05,7.969,1.803,8.991,2.826c1.023,1.023,7.343,2.487,7.343,2.487
	c0.96,0.256,1.834,0.766,2.529,1.478C440.012,256.229,440.503,257.115,440.736,258.082z"/>
<path fill="#393944" d="M398.909,213.748c0.31-0.356,0.779-0.537,1.095-0.882c0.977-1.062,0-2.798,0.356-4.2
	c0.384-1.554,2.293-2.232,3.886-2.068c1.592,0.163,3.084,0.898,4.676,1.079c2.474,0.277,4.869-0.797,7.28-1.424
	c2.412-0.628,5.326-0.662,6.987,1.187c1.66,1.848,1.547,4.997,3.614,6.336c0.955,0.617,2.158,0.684,3.191,1.131
	c1.131,0.581,2.069,1.478,2.7,2.583c1.636,2.572,2.357,5.621,2.045,8.654c-0.175,1.64-0.65,3.234-0.842,4.873
	c-0.195,1.702-0.08,3.426,0.339,5.087c0.435,1.696,1.378,3.527,3.067,4.07c0.39,0.086,0.769,0.217,1.129,0.39
	c0.977,0.611,0.847,2.046,0.599,3.166l-1.005,4.64c0.965,0.735,2.468,0.419,3.388,1.193c0.369,0.337,0.642,0.767,0.791,1.244
	c0.454,1.298,0.503,2.703,0.141,4.029c-0.362,1.327-1.118,2.512-2.169,3.398c-1.129,0.899-2.626,1.657-2.767,3.07
	c0.043,0.461-0.015,0.926-0.169,1.362c-0.356,0.622-1.249,0.565-1.955,0.446c-0.593-0.054-1.162-0.265-1.649-0.61
	c-0.745-0.633-0.807-1.764-1.372-2.561c-0.344-0.41-0.777-0.737-1.267-0.953c-0.489-0.217-1.022-0.318-1.557-0.296
	c-1.062-0.034-2.107,0.204-3.169,0.255c-2.448,0.1-4.839-0.765-6.658-2.408c-1.04-0.956-1.892-2.262-1.813-3.675
	c0.05-0.859,0.44-1.662,0.564-2.515c0.418-2.436-1.197-4.748-2.953-6.495c-1.757-1.747-3.818-3.358-4.677-5.681
	c-1.073-2.877-0.034-6.088-0.322-9.14c-0.519-5.5-5.201-9.706-9.895-12.001C399.473,216.495,397.694,215.133,398.909,213.748z"/>
<path opacity="0.1" enable-background="new    " d="M435.845,261.219c-0.745-0.639-0.807-1.763-1.372-2.56
	c-0.344-0.412-0.777-0.738-1.267-0.956c-0.489-0.217-1.022-0.32-1.557-0.299c-1.062-0.034-2.112,0.203-3.169,0.254
	c-2.458,0.108-4.859-0.759-6.681-2.414c-1.039-0.949-1.886-2.261-1.807-3.668c0.05-0.865,0.44-1.668,0.564-2.516
	c0.424-2.442-1.197-4.753-2.953-6.5c-1.757-1.747-3.813-3.358-4.677-5.681c-1.067-2.872,0-6.082-0.316-9.14
	c-0.525-5.5-5.207-9.706-9.895-12.001c-1.096-0.537-2.875-1.899-1.661-3.284c0.305-0.356,0.774-0.537,1.09-0.882
	c0.977-1.057,0-2.798,0.362-4.194c0.069-0.278,0.19-0.541,0.356-0.774c-1.181,0.22-2.259,0.887-2.548,2.018
	c-0.344,1.401,0.622,3.137-0.355,4.199c-0.317,0.345-0.785,0.526-1.096,0.877c-1.214,1.384,0.565,2.752,1.66,3.284
	c4.694,2.295,9.376,6.506,9.895,12c0.289,3.058-0.751,6.269,0.322,9.146c0.859,2.318,2.92,3.957,4.677,5.681
	c1.756,1.724,3.389,4.053,2.954,6.495c-0.238,0.826-0.427,1.666-0.565,2.515c-0.079,1.408,0.774,2.719,1.813,3.669
	c1.82,1.655,4.219,2.523,6.676,2.414c1.061-0.051,2.106-0.283,3.168-0.255c0.535-0.02,1.068,0.083,1.557,0.3
	c0.49,0.218,0.923,0.544,1.267,0.955c0.565,0.797,0.627,1.928,1.372,2.561c0.487,0.343,1.056,0.552,1.65,0.605
	c0.706,0.13,1.598,0.175,1.954-0.441c0.127-0.252,0.181-0.534,0.158-0.814C436.853,261.757,436.309,261.552,435.845,261.219z"/>
<path fill="#FFFFFF" fill-opacity="0.7" d="M292.359,229.625h-39.067v-38.528h39.095L292.359,229.625z M291.794,171.533h-37.937
	c0-59.872,56.863-56.373,56.863-94.251c0-20.864-17.062-37.579-37.909-37.579c-20.846,0-37.902,18.021-37.902,38.172H197
	c-0.017-9.969,1.932-19.843,5.736-29.056c3.804-9.213,9.387-17.585,16.431-24.634c7.043-7.049,15.407-12.637,24.612-16.444
	c9.206-3.807,19.072-5.758,29.032-5.741c41.874,0,75.812,33.435,75.812,75.282c0,47.363-56.857,52.756-56.857,94.251H291.794z"/>
<path opacity="0.1" fill="#FFFFFF" enable-background="new    " d="M158.783,216.15h-10.075v-9.96h10.075V216.15z M158.631,201.171
	h-9.771c0-15.432,14.656-14.533,14.656-24.306c-0.005-1.279-0.262-2.544-0.756-3.724c-0.494-1.179-1.215-2.249-2.122-3.15
	c-0.908-0.9-1.983-1.613-3.166-2.097c-1.182-0.484-2.449-0.73-3.726-0.724c-2.581,0.06-5.038,1.118-6.855,2.952
	c-1.818,1.834-2.855,4.301-2.894,6.884h-9.77c0.064-5.132,2.142-10.033,5.784-13.647c3.642-3.613,8.557-5.649,13.685-5.669
	s10.059,1.977,13.729,5.562c3.67,3.585,5.786,8.47,5.89,13.601c-0.028,12.21-14.684,13.6-14.684,24.295V201.171z"/>
<path fill="#D4D5D6" d="M235.075,285.344h-10.076v-9.931h10.076V285.344z M234.928,270.371h-9.771
	c0-15.438,14.656-14.533,14.656-24.307c-0.005-1.278-0.262-2.543-0.756-3.722c-0.494-1.179-1.215-2.249-2.123-3.149
	c-0.907-0.9-1.983-1.612-3.165-2.095c-1.183-0.484-2.449-0.729-3.727-0.722c-2.591,0.046-5.062,1.1-6.891,2.938
	s-2.871,4.315-2.908,6.909h-9.77c0.064-5.133,2.142-10.034,5.784-13.647c3.642-3.613,8.557-5.65,13.685-5.67
	c5.128-0.02,10.059,1.978,13.729,5.563c3.67,3.585,5.786,8.47,5.89,13.601C249.578,258.28,234.928,259.676,234.928,270.371z"/>
<path fill="#D4D5D6" d="M281.466,162.852h-7.303v-7.185h7.303V162.852z M281.359,151.993h-7.083
	c0-11.181,10.624-10.531,10.624-17.608c-0.005-0.926-0.191-1.843-0.55-2.697c-0.358-0.854-0.881-1.629-1.539-2.281
	c-0.657-0.652-1.437-1.168-2.294-1.519c-0.857-0.35-1.774-0.528-2.7-0.524c-1.874,0.038-3.66,0.804-4.982,2.134
	c-1.321,1.331-2.074,3.124-2.1,5h-7.083c-0.015-3.76,1.463-7.372,4.109-10.041c2.646-2.669,6.243-4.177,10-4.192
	c3.757-0.015,7.365,1.464,10.032,4.112s4.174,6.248,4.189,10.008C291.971,143.231,281.359,144.243,281.359,151.993z"/>
<path opacity="0.1" fill="#FFFFFF" enable-background="new    " d="M406.194,172.992h-4.128v-4.069h4.128V172.992z M406.132,166.859
	h-4.027c0-6.319,6.004-5.952,6.004-9.954c0-0.523-0.104-1.042-0.305-1.525c-0.202-0.483-0.497-0.921-0.869-1.289
	s-0.813-0.658-1.298-0.855c-0.485-0.196-1.004-0.294-1.527-0.288c-1.059,0.022-2.068,0.454-2.815,1.206
	c-0.747,0.752-1.173,1.764-1.189,2.825h-4.004c0.046-2.089,0.906-4.077,2.396-5.541c1.49-1.464,3.492-2.287,5.579-2.295
	c2.088-0.008,4.096,0.8,5.597,2.252c1.501,1.452,2.376,3.433,2.439,5.521C412.136,161.885,406.132,162.479,406.132,166.859z"/>
<path opacity="0.1" fill="#FFFFFF" enable-background="new    " d="M469.314,358.099h-4.128v-4.07h4.128V358.099z M469.252,351.966
	h-4.004c0-6.326,6.009-5.953,6.009-9.955c-0.007-1.055-0.433-2.065-1.184-2.807s-1.765-1.155-2.82-1.149
	c-1.06,0.02-2.07,0.452-2.817,1.204c-0.747,0.752-1.173,1.765-1.188,2.826h-4.004c0.047-2.089,0.907-4.077,2.396-5.541
	c1.49-1.463,3.492-2.287,5.58-2.295c2.087-0.008,4.096,0.8,5.597,2.252c1.501,1.452,2.376,3.433,2.439,5.522
	c0.022,4.991-5.981,5.562-5.981,9.943H469.252z"/>
</svg>
