<?xml version="1.0" encoding="utf-8"?>
<!-- Generator: Adobe Illustrator 17.0.0, SVG Export Plug-In . SVG Version: 6.00 Build 0)  -->
<!DOCTYPE svg PUBLIC "-//W3C//DTD SVG 1.1//EN" "http://www.w3.org/Graphics/SVG/1.1/DTD/svg11.dtd">
<svg version="1.1" id="Слой_1" xmlns="http://www.w3.org/2000/svg" xmlns:xlink="http://www.w3.org/1999/xlink" x="0px" y="0px"
	 width="612px" height="434.618px" viewBox="0 0 612 434.618" enable-background="new 0 0 612 434.618" xml:space="preserve">
<path opacity="0.1" fill="#C7C7C7" enable-background="new    " d="M286.692,425.055c0-5.673-30.545-10.255-68.182-10.255
	s-68.182,4.582-68.182,10.255c0,5.673,30.546,10.255,68.182,10.255S286.692,430.727,286.692,425.055z"/>
<path fill="#D0D2D5" d="M243.819,405.201l0.655-4.255l8.509-55.636h115.309l6.327,55.636l0.436,3.382l-131.236,1.636V405.201z"/>
<path opacity="0.1" enable-background="new    " d="M366.873,405.745h-65.455l-65.673-0.873l0.436-3.382h130.145L366.873,405.745z"
	/>
<path fill="#D0D2D5" d="M222.765,405.964h174.218v-4.255H222.765V405.964z"/>
<path fill="#454554" d="M554.182,11.164c0-1.418-0.218-2.836-0.764-4.255c-0.545-1.418-1.309-2.509-2.4-3.6
	c-0.982-0.982-2.182-1.855-3.491-2.4s-2.727-0.873-4.145-0.873H56.836c-2.945,0-5.673,1.2-7.745,3.273
	c-2.073,2.073-3.164,4.909-3.164,7.745v295.309h508.255V11.164z"/>
<path fill="#D0D2D5" d="M45.927,303.527v34.582c0,2.945,1.2,5.673,3.164,7.745c2.073,2.073,4.8,3.164,7.745,3.164h486.436
	c1.418,0,2.836-0.327,4.145-0.873c1.309-0.546,2.509-1.309,3.491-2.4c0.982-0.982,1.855-2.182,2.4-3.491
	c0.545-1.309,0.873-2.727,0.873-4.145v-34.582H45.927L45.927,303.527z"/>
<path fill="#FFFFFF" d="M535.636,19.346H66.982v265.418h468.655V19.346H535.636z"/>
<path fill="#C7C7C7" d="M302.618,335.928c1.745,0,3.382-0.436,5.018-1.091c1.527-0.764,2.945-1.855,3.927-3.164
	c0.327-0.436,0.655-0.873,0.873-1.309l-6.218-0.982h6.764c0.655-1.418,0.982-2.945,0.982-4.473c0-1.527-0.218-3.055-0.873-4.582
	l-9.055,4.691l8.291-6.109c-0.764-1.309-1.855-2.509-3.055-3.382c-1.2-0.873-2.727-1.527-4.145-1.855
	c-1.527-0.327-3.055-0.327-4.582-0.109c-1.527,0.327-2.945,0.873-4.255,1.745c-1.309,0.873-2.4,1.964-3.164,3.273
	c-0.873,1.309-1.418,2.727-1.636,4.255c-0.218,1.527-0.218,3.055,0.218,4.582c0.327,1.527,1.091,2.945,1.964,4.145
	c1.091,1.309,2.4,2.4,3.927,3.164C299.236,335.491,300.873,335.928,302.618,335.928z"/>
<path opacity="0.1" enable-background="new    " d="M252.546,349.017l-8.073,52.691l21.364-52.691H252.546z"/>
<path opacity="0.1" fill="#444053" enable-background="new    " d="M535.745,18.691H66.655v15.6h469.2v-15.6H535.745z"/>
<path fill="#C7C7C7" d="M82.255,21.418H69.927c-0.327,0-0.545,0.218-0.545,0.545v8.291c0,0.327,0.218,0.545,0.545,0.545h12.327
	c0.327,0,0.545-0.218,0.545-0.545v-8.291C82.8,21.637,82.582,21.418,82.255,21.418z"/>
<path opacity="0.3" fill="#C7C7C7" enable-background="new    " d="M370.473,21.418H229.964c-0.218,0-0.436,0.218-0.436,0.436v8.619
	c0,0.218,0.218,0.436,0.436,0.436h140.509c0.218,0,0.436-0.218,0.436-0.436v-8.618C370.909,21.637,370.691,21.418,370.473,21.418z"
	/>
<path fill="#444053" d="M366.655,27.091h-0.327l-0.109-0.109c0.436-0.545,0.655-1.2,0.655-1.855c0-0.545-0.218-1.091-0.436-1.527
	c-0.327-0.436-0.764-0.764-1.309-0.982c-0.545-0.218-1.091-0.218-1.636-0.109c-0.545,0.109-1.091,0.327-1.418,0.764
	c-0.327,0.436-0.655,0.873-0.764,1.418s0,1.091,0.218,1.636s0.545,0.982,0.982,1.2c0.436,0.327,0.982,0.436,1.527,0.436
	c0.655,0,1.309-0.218,1.855-0.655l0.109,0.109v0.327l2.182,2.182l0.655-0.655L366.655,27.091z M364.145,27.091
	c-0.436,0-0.764-0.109-1.091-0.327s-0.545-0.545-0.764-0.873s-0.218-0.764-0.109-1.091s0.218-0.764,0.545-0.982
	c0.218-0.218,0.655-0.436,0.982-0.545s0.764,0,1.091,0.109s0.655,0.436,0.873,0.764c0.218,0.327,0.327,0.655,0.327,1.091
	c0,0.218,0,0.545-0.109,0.764s-0.218,0.436-0.436,0.655c-0.218,0.218-0.436,0.327-0.655,0.436
	C364.582,27.091,364.364,27.091,364.145,27.091z"/>
<path fill="#C7C7C7" d="M529.091,30.909c2.618,0,4.691-2.073,4.691-4.691s-2.073-4.691-4.691-4.691S524.4,23.6,524.4,26.218
	C524.4,28.728,526.473,30.909,529.091,30.909z"/>
<path opacity="0.1" enable-background="new    " d="M188.728,103.64v121.166c0,7.028,6,12.83,13.418,12.83h214.8
	c7.527,0,13.527-5.689,13.527-12.83V103.639c0-7.028-6.109-12.83-13.527-12.83h-214.8C194.728,90.809,188.619,96.5,188.728,103.64z"
	/>
<path display="none" opacity="0.3" fill="#C7C7C7" enable-background="new    " d="M286.801,146.983v5.018
	c0,1.964,5.127,3.491,11.345,3.491h92.182c6.327,0,11.345-1.527,11.345-3.491v-5.018c0-1.964-5.127-3.491-11.345-3.491h-92.182
	C291.928,143.492,286.801,145.019,286.801,146.983z"/>
<path display="none" opacity="0.3" fill="#C7C7C7" enable-background="new    " d="M286.801,161.383v5.018
	c0,1.964,5.127,3.491,11.345,3.491h92.182c6.327,0,11.345-1.527,11.345-3.491v-5.018c0-1.964-5.127-3.491-11.345-3.491h-92.182
	C291.928,157.892,286.801,159.419,286.801,161.383z"/>
<path display="none" opacity="0.3" fill="#C7C7C7" enable-background="new    " d="M286.801,175.674v5.018
	c0,1.964,5.127,3.491,11.345,3.491h92.182c6.327,0,11.345-1.527,11.345-3.491v-5.018c0-1.964-5.127-3.491-11.345-3.491h-92.182
	C291.928,172.183,286.801,173.819,286.801,175.674z"/>
<path fill="#D0D2D5" d="M292.581,119.746v6c0,1.636,2.268,2.945,5.083,2.945h104.707c2.815,0,5.083-1.309,5.083-2.945v-6
	c0-1.636-2.268-2.945-5.083-2.945H297.664C294.849,116.801,292.581,118.11,292.581,119.746z"/>
<path fill="#FF855F" fill-opacity="0.35" d="M292.801,199.128v6c0,1.636,0.982,2.945,2.073,2.945h42.545
	c1.2,0,2.073-1.309,2.073-2.945v-6c0-1.636-0.982-2.945-2.073-2.945h-42.545C293.783,196.183,292.801,197.492,292.801,199.128z"/>
<linearGradient id="SVGID_1_" gradientUnits="userSpaceOnUse" x1="346.7444" y1="-593.6257" x2="346.7444" y2="-325.243" gradientTransform="matrix(-1.0909 0 0 -1.0909 625.1829 -212.4905)">
	<stop  offset="0" style="stop-color:#808080;stop-opacity:0.25"/>
	<stop  offset="0.54" style="stop-color:#808080;stop-opacity:0.12"/>
	<stop  offset="1" style="stop-color:#808080;stop-opacity:0.1"/>
</linearGradient>
<path fill="url(#SVGID_1_)" d="M188.188,296.003c1.2,2.618,3.491,4.8,6.218,5.891c0.873,0.328,2.073,0.437,2.4-0.436
	c0.109-0.436,0.109-0.764,0-1.2c-0.436-1.2-1.091-2.4-1.527-3.6c-0.654-1.746-0.763-3.818-0.327-5.673
	c0.109-0.654,0.545-1.527,1.2-1.636c-0.436,1.745-0.109,3.491,0.764,4.909c0.109,0.218,0.218,0.436,0.436,0.545
	c0.109,0.109,0.327,0.218,0.545,0.327c0.328,0,0.655,0,0.873-0.218c0.327-0.11,0.436-0.328,0.545-0.655
	c0.218-0.655,0.218-1.2,0.109-1.855c-0.218-3.055-0.654-6.11-1.309-9.055c-0.764-3.273-2.073-6.436-1.964-9.818
	c0-2.291,0.655-4.582,0.873-6.873c0.109,0,0.109,0,0.218,0c0.436,0,0.764,0.109,1.2,0.218l0,0c0.219,0.109,0.546,0.109,0.764,0
	c0.328-0.109,0.655-0.437,0.873-0.764l0.109-0.109c1.2-1.854,1.964-3.927,2.182-6.109c0-0.545,0.109-0.982,0.109-1.527
	c0-0.545,0-0.982,0.109-1.527c0.109-0.655,0.218-1.2,0.436-1.855c0.219-0.655,0.437-1.31,0.655-1.855
	c0.764-2.072,1.418-4.254,2.073-6.327c1.2-3.491,2.181-7.091,2.945-10.691c0.109-0.328,0.109-0.546,0.218-0.873
	c0.328-2.073,1.091-4.145,2.073-6l0.873,7.309c0.218,1.091,0.327,2.073,0.327,3.164c0,2.072-0.218,4.254-0.545,6.327
	c-0.218,0.872-0.327,1.854-0.545,2.836c-0.327,1.528-0.873,2.946-1.309,4.473c-1.2,4.691,0.872,10.582-1.964,14.4
	c-1.309,1.745-0.873,4.145-1.309,6.218c-0.327,0.982-0.546,1.854-0.982,2.727c-0.218,0.436-0.436,0.982-0.545,1.418
	c-0.109,0.545-0.327,0.982-0.436,1.527l-0.109,0.327c-0.109,0.545-0.218,0.982-0.218,1.527c0,0.328,0,0.655,0.109,0.873
	c0.109,0.328,0.218,0.546,0.436,0.764c0.109,0,0.109,0.109,0.218,0.109c0.109,0.109,0.327,0.218,0.545,0.327
	c0.218,0,0.327,0.109,0.436,0.109c-0.328,0.655-0.655,1.418-0.873,2.182c-6.436,17.782-6.982,37.309-7.2,56.291
	c0,3.055-0.218,6.218-0.545,9.273c-0.327,1.964-0.654,3.927-0.436,5.891c0.219,1.636,0.982,3.382,0.655,5.018
	c-0.219,0.655-0.546,1.418-0.655,2.182c-0.109,0.873,0,1.745,0.109,2.509l0.873,6.764c0.436,3.818,1.636,7.527,1.527,11.345
	c0,2.619,0,5.237-0.327,7.855c-0.328,2.619-0.873,5.346-0.873,7.964c0,1.964,0.218,4.036,0.436,6
	c0.218,2.836,0.218,5.673,0.109,8.509c-0.109,0.764-0.109,1.527-0.218,2.291c-1.964,0-4.146,0.11-5.455,0.655
	c-0.436,0.109-0.873,0.218-1.2,0.436c-1.309,0.764-1.418,2.946-0.545,4.255c0.873,1.418,5.455,5.563,6.873,6.218l2.945,1.527
	c1.527,0.873,3.272,1.637,5.127,1.964c1.527,0.109,3.055,0.109,4.582-0.109c1.2-0.109,2.509-0.327,3.273-1.309
	c0.873-1.091,0.654-2.837,0.109-4.582h0.436c-0.109-0.436-0.218-0.873-0.327-1.309c-0.109-0.436,0-0.873,0.109-1.309
	c0-0.109,0-0.218,0.109-0.327c0.109-0.218,0.327-0.327,0.436-0.545c0.109-0.109,0.218-0.109,0.218-0.218
	c0.109-0.219,0.327-0.546,0.436-0.764c0.763-1.309,1.2-2.618,1.527-4.036c0.109-0.545,0.218-0.982,0.327-1.527
	c0-0.219,0.109-0.546,0.109-0.764c0.109-0.436,0.109-0.982,0.109-1.527c0-0.328-0.109-0.545-0.109-0.764s0-0.437-0.109-0.655
	c-0.109-0.328-0.218-0.546-0.327-0.873c-0.327-0.764-0.545-1.527-0.436-2.291c0.109-1.636,0.327-3.164,0.436-4.8
	c0.218-1.636,0.436-3.273,0.545-4.8s0.327-3.055,0.436-4.582c0.109-0.873,0.109-1.745,0.218-2.618
	c0.109-1.636,0.218-3.164,0.327-4.8s0.109-3.164,0.109-4.8c0.109-3.927-0.218-7.855-0.982-11.782
	c-0.109-0.981-0.436-1.963-0.545-2.945c0-0.327-0.109-0.655-0.109-0.982c-0.109-0.981-0.109-1.964-0.109-2.945s0-2.072,0-2.945
	c0-0.982,0-1.854,0-2.727c0.109-0.655,0.109-1.418,0.109-2.182c0-2.181,0.218-4.363,0.545-6.545
	c0.436-1.964,1.091-4.036,0.218-6.109c-0.109-0.219-0.218-0.437-0.218-0.655c-0.109-0.109-0.109-0.327-0.109-0.436
	c0-0.219,0-0.546,0-0.764c0-0.109,0.109-0.218,0.109-0.327c0.109-0.328,0.218-0.546,0.327-0.764
	c0.655-1.309,1.309-2.618,1.964-4.036c0.219-0.545,0.437-0.982,0.655-1.418c0.327-0.981,0.764-1.854,1.091-2.836
	c0.328-0.872,0.655-1.854,0.873-2.836c0.218-1.091,0.546-2.182,0.982-3.164c0.109-0.219,0.327-0.546,0.436-0.764
	c0.436-0.764,0.982-1.527,1.527-2.291c0.328-0.436,0.546-0.764,0.764-1.2c0.109-0.109,0.109-0.327,0.218-0.436
	c0.109-0.219,0.327-0.546,0.436-0.764c0-0.218,0.109-0.327,0.218-0.545l0.327-0.764c0-0.219,0.109-0.437,0.218-0.655
	c0.109-0.219,0.218-0.437,0.327-0.655c0.109-0.219,0.218-0.437,0.327-0.655c0-0.219,0.109-0.437,0.218-0.655l0.327-0.764
	c0.109-0.109,0.109-0.218,0.218-0.545c0.109-0.328,0.218-0.546,0.327-0.873c0.109-0.109,0.109-0.327,0.218-0.436
	c0.218-0.545,0.327-1.091,0.545-1.636c-0.109-0.328,0-0.764,0.327-0.764c0.109,0,0.327,0.109,0.436,0.218
	c0.109,0.109,0.218,0.327,0.327,0.436c1.746,2.4,1.855,5.672,1.964,8.727c0.109,2.836,0.109,5.673-0.109,8.509
	c-0.218,1.528-0.436,2.946-0.545,4.473c-0.218,2.727-0.109,5.564,0.109,8.291l0.871,13.522c0.109,1.2,0,2.291-0.218,3.382
	c-0.546,1.964-0.764,3.927-0.764,5.891c0.327,8.182-0.437,16.363-1.964,24.327c-0.436,2.182-0.982,4.473-1.309,6.655
	c-0.764,5.345-1.091,10.582-1.091,15.927c-0.109,3.273-0.109,6.545,1.091,9.6c0.546,0.872,0.873,1.963,1.091,2.945
	c0,0.436,0.109,0.982,0.218,1.527c0.219,0.328,0.437,0.655,0.655,0.873c-0.763,1.964-1.309,4.255-0.218,5.564
	c0.764,0.982,2.073,1.2,3.273,1.309c1.527,0.218,3.055,0.327,4.582,0.109c1.745-0.437,3.491-1.091,5.127-1.964l2.945-1.527
	c1.309-0.654,6-4.8,6.873-6.109c0.873-1.31,0.764-3.491-0.545-4.255c-0.436-0.109-0.764-0.327-1.2-0.436
	c-1.527-0.655-3.818-0.655-6-0.655c-0.11-0.764-0.328-1.418-0.655-2.182c-0.764-2.072-1.746-4.363-1.091-6.436
	c0.873-2.509,3.6-3.818,4.364-6.327c-2.182-10.037,3.054-20.4,2.618-30.655c-0.109-2.4-0.545-4.8-0.545-7.2
	c-0.109-6.109,2.509-12.218,2.073-18.327c-0.982-15.709,4.036-31.309,6.218-46.8c0.436-2.291,0.545-4.582,0.436-6.982
	c-0.218-3.6-1.745-6.872-3.6-9.927h0.109l2.291,1.745c0.218,0.218,0.655,0.436,0.982,0.436c0.109,0,0.218,0,0.327-0.109
	s0.218-0.109,0.218-0.218c0.109-0.109,0.109-0.218,0.109-0.436v-0.109l-0.109-5.236c0-1.091-0.109-2.073,0-3.164
	c0-0.328,0.109-0.546,0.109-0.873v-0.109c0-0.219,0.109-0.546,0.109-0.764v-0.109c0-0.219,0-0.437,0.109-0.655
	c0-0.109,0-0.109,0-0.218c0-0.328,0.109-0.546,0.218-0.873c0.109-0.436,0.327-0.873,0.545-1.309
	c0.218-0.436,0.436-0.873,0.545-1.309c0.109-0.219,0.218-0.437,0.218-0.655v-0.218c0.109-0.109,0.109-0.436,0.109-0.436
	s0-0.109,0-0.218c0-0.218,0-0.327,0-0.436s0-0.218,0-0.327s0-0.218,0-0.327s0-0.218,0-0.327s0-0.218,0-0.327s0-0.218,0-0.327
	c-0.109-0.109-0.109-0.218-0.109-0.327c0-0.218-0.109-0.546-0.218-0.873c-0.109-0.219-0.218-0.437-0.327-0.655
	c-0.545-1.2-1.2-1.964-1.2-3.164l0.109-8.618v-2.945c0-0.872,0-1.745,0.109-2.727c0-0.109,0-0.109,0-0.109
	c0.109-1.091,0.218-2.073,0.436-3.164c0.109-0.545,0.218-1.2,0.327-1.745c0.327-1.964,0.873-3.818,1.309-5.673
	c0.109-0.764,0.327-1.527,0.545-2.291c0.327-1.419,0.655-2.837,0.982-4.255c0.109-0.655,0.327-1.418,0.436-2.073
	c0.218-0.764,0.327-1.418,0.436-2.182c0.109-0.545,0.328-0.873,0.764-1.2c0.219-0.109,0.436-0.218,0.655-0.327
	s0.546-0.109,0.764-0.109c0.328,0,0.546,0.109,0.764,0.109c0.764,0.109,1.418,0.437,2.073,0.764c4.691,2.4,9.273,5.128,14.182,6.873
	c0.873,0.328,1.636,0.546,2.509,0.655c0.328,0,0.546,0,0.873,0c0.219,0,0.546,0,0.764-0.109c0.545-0.109,0.982-0.327,1.527-0.545
	c0.327-0.219,0.655-0.437,0.982-0.655c0.436-0.327,0.873-0.764,1.309-1.2c0.873-0.872,1.527-1.854,2.182-2.945
	c0.218-0.218,0.327-0.546,0.545-0.873l0.436-0.764l2.618-4.582c0.218-0.327,0.327-0.655,0.545-0.982
	c0.109-0.219,0.218-0.437,0.327-0.655c0.109-0.327,0.109-0.764,0-1.091c-0.437-0.109-0.764-0.437-0.982-0.764
	c1.745-1.964,3.382-3.927,5.018-6c1.2-1.637,2.618-3.491,2.727-5.673c-0.109-0.981,0-1.963,0.218-2.836
	c0.436-0.873,0.981-1.637,1.745-2.182c0.437-0.218,0.655-0.655,0.873-1.091c0.109-0.436,0.218-0.982,0.218-1.418
	c-1.419-0.436-2.946,0.327-4.255,1.091c-1.31,0.764-2.946,1.419-4.255,0.655c-0.873-0.436-1.418-1.418-2.4-1.418
	s-1.637,0.982-1.964,1.964c-0.763,2.618,0.218,5.564-0.327,8.291c-0.218,0.981-0.655,1.963-1.2,2.836
	c-0.109,0.109-0.218,0.218-0.327,0.327l-0.436-0.545c-1.418,1.091-2.618,2.618-4.145,3.709c-1.527,1.2-3.382,1.854-5.127,1.309
	c-0.655-0.327-1.31-0.655-1.855-1.091c-1.745-1.418-3.491-2.946-5.018-4.691c-0.436-2.945-0.981-6.218-2.945-8.4
	c-0.545-0.545-1.2-1.09-1.745-1.745c-0.545-0.764-1.091-1.636-1.527-2.509c-0.872-1.637-2.4-2.837-4.145-3.382
	c-0.981-0.218-1.854-0.218-2.836-0.436c-0.873-0.218-1.636-0.546-2.4-0.982c-1.309-0.655-2.509-1.418-3.6-2.291
	c-2.509-1.964-4.472-4.691-6.436-7.2c0-0.109-0.109-0.327-0.109-0.436c-0.436-2.945-0.436-5.891,0-8.836
	c1.746-0.873,3.273-2.182,4.364-3.818c1.2-1.527,1.855-3.381,2.182-5.345c0.218-0.436,0.327-0.764,0.327-1.2
	c0.109-0.981,0.109-1.963,0.218-2.945c0-0.545,0.109-0.982,0.327-1.418c0.437-1.091,1.091-2.073,1.855-3.055l0.436-0.545
	c0.218-0.327,0.546-0.655,0.873-1.091c0.982-1.091,1.637-2.4,2.073-3.818c-1.091,0.219-2.291,0-3.273-0.436
	c-0.109-0.545-0.109-1.2,0-1.745c0-0.218,0.109-0.546,0.218-0.873c0-0.218,0-0.327,0.109-0.436c0-0.109,0-0.109,0-0.109
	c0.109-0.218,0.109-0.327,0.218-0.436c-3.491-1.528-6.218-4.364-9.709-5.673c-4.363-1.636-9.163-0.654-13.636,0.873
	c-2.182,0.764-4.473,1.745-5.782,3.709c-0.982,1.636-1.527,3.49-1.418,5.345v0.109c0,0.328,0,0.546,0,0.873v0.218
	c0,0.327,0,0.764,0,1.091c0.109,1.855,0.109,3.709,0.327,5.564c0.109,1.527,0.437,3.055,0.873,4.582
	c0.218,0.764,0.546,1.527,0.873,2.182c0.218,0.545,0.546,1.2,0.982,1.745c0.327,0.545,0.764,1.091,1.309,1.636l0.218,0.218
	c-0.109,0.764-0.109,1.636-0.109,2.509s-0.109,1.636-0.218,2.4c-0.11,0.764-0.328,1.527-0.655,2.291l-0.109,0.218
	c-2.181,0.872-4.036,2.29-5.345,4.145c-3.819,0-7.746-0.109-11.455,0.655c-3.6,0.764-6.763,2.618-9.927,4.8
	c-1.091,0.764-2.072,1.855-2.836,3.055c-0.654,1.2-1.2,2.4-1.636,3.709c-2.182,6.218-1.964,12.764-3.709,19.091
	c-1.636,6.109-3.164,12.218-4.691,18.327c-0.109,0.655-0.327,1.418-0.545,2.182c-0.327,0.872-0.764,1.854-1.091,2.727
	c-2.072,5.237,0,12.764-4.145,16.473c-1.2,1.091-1.091,2.946-1.527,4.582c-0.327,1.528-1.2,3.164-0.436,4.473
	c0.11,0.328,0.437,0.546,0.655,0.764c0.328,0.218,0.546,0.436,0.873,0.545c0.436,0.219,0.873,0.437,1.309,0.655v0.109
	c-0.327,0.873-0.764,1.527-1.091,2.4c-0.328,0.763-0.655,1.745-0.764,2.618c-0.873,4.691-1.528,9.491-2.073,14.182
	c-0.109,1.309-0.327,2.509-0.327,3.818C185.346,290.983,185.892,293.927,188.188,296.003z"/>
<path fill="#30303D" d="M229.965,425.71c1.09-2.727,5.345-3.6,7.745-4.691c1.091-0.655,2.291-0.982,3.491-0.873
	c2.4,0.328,7.091-0.109,9.382,0.764c0.436,0.109,0.764,0.218,1.2,0.436c1.309,0.764,1.418,2.946,0.545,4.255
	c-0.873,1.309-5.782,5.454-7.2,6.109l-3.164,1.527c-1.636,0.982-3.49,1.637-5.345,1.964c-1.636,0.109-3.273,0.109-4.8-0.109
	c-1.2-0.218-2.618-0.327-3.382-1.309C226.692,431.709,228.874,427.672,229.965,425.71z"/>
<path fill="#30303D" d="M209.564,423.636c-1.09-2.727-5.345-3.6-7.745-4.691c-1.091-0.655-2.291-0.982-3.491-0.873
	c-2.4,0.328-7.091-0.109-9.382,0.764c-0.436,0.109-0.764,0.218-1.2,0.436c-1.309,0.764-1.418,2.946-0.545,4.255
	c0.873,1.309,5.782,5.454,7.2,6.109l3.164,1.527c3.054,1.855,6.654,2.51,10.145,1.855c1.2-0.218,2.618-0.327,3.382-1.309
	C212.728,429.636,210.546,425.601,209.564,423.636z"/>
<path fill="#353542" d="M212.619,280.182c3.819-0.655,7.637-1.091,11.564-0.982c5.672-0.109,11.454-0.218,17.127-0.218
	c2.291,0,4.691,0,6.764,0.873c2.618,1.091,4.473,3.382,6,5.673c2.182,3.273,3.928,6.873,4.255,10.691
	c0.109,2.291,0,4.691-0.436,6.982c-2.291,15.491-7.527,30.982-6.436,46.582c0.436,6.109-2.182,12.109-2.182,18.218
	c0,2.4,0.436,4.691,0.545,7.091c0.546,10.254-4.909,20.509-2.727,30.545c-0.764,2.4-3.709,3.709-4.473,6.218
	c-0.654,2.072,0.327,4.254,1.091,6.327c0.764,2.072,1.309,4.582,0,6.327c-1.091,1.31-3.055,1.746-4.255,3.055
	c-0.545,0.545-0.872,1.418-1.636,1.745c-0.436,0.218-0.873,0.327-1.309,0.327c-1.964,0.109-3.927,0-5.782-0.436
	c-0.982-0.218-2.182-0.654-2.509-1.636c-0.109-0.436-0.218-0.982-0.218-1.527c-0.218-0.981-0.546-2.072-1.091-2.945
	c-1.309-2.945-1.309-6.327-1.2-9.6c0-5.345,0.327-10.582,1.091-15.818c0.327-2.181,0.873-4.363,1.309-6.545
	c1.637-7.963,2.291-16.145,2.073-24.218c0-1.964,0.328-3.927,0.873-5.782c0.327-1.091,0.327-2.291,0.218-3.382l-0.873-13.418
	c-0.218-2.727-0.327-5.455-0.109-8.182c0.109-1.528,0.436-2.946,0.545-4.473c0.218-2.836,0.218-5.564,0.109-8.4
	c-0.109-3.054-0.328-6.327-2.073-8.727c-0.109-0.218-0.218-0.327-0.327-0.436c-0.218-0.109-0.327-0.218-0.545-0.218
	c-0.327,0-0.436,0.437-0.327,0.764c-1.309,3.709-2.727,7.418-4.909,10.691c-0.764,0.982-1.419,1.964-1.964,3.055
	c-0.437,1.091-0.764,2.073-0.982,3.164c-1.2,3.818-2.836,7.527-4.8,11.018c-0.218,0.436-0.436,0.873-0.436,1.418
	c-0.109,0.545,0,1.091,0.218,1.527c0.982,2.073,0.218,4.036-0.218,6.109c-0.545,2.836-0.436,5.782-0.545,8.618v2.727
	c-0.109,1.964,0,3.818,0.109,5.782c0.219,1.309,0.546,2.618,0.764,3.927c2.509,12.328-0.218,25.31-1.2,37.855
	c0,0.764,0.109,1.527,0.545,2.182c1.091,1.964,0.545,4.145,0,6.109c-0.328,1.746-0.982,3.273-1.964,4.691
	c-0.328,0.327-0.546,0.655-0.764,1.091c-0.437,0.873,0,1.745,0.218,2.618c-4.582,0.655-9.382,1.31-13.527-0.545
	c-2.073-0.982-3.273-2.618-4.582-4.473c1.2-1.745,1.418-4.036,1.527-6.218c0.109-2.836,0-5.564-0.218-8.4
	c-0.218-2.073-0.436-4.036-0.436-6c0.109-2.728,0.437-5.346,0.873-7.964c0.218-2.619,0.327-5.237,0.327-7.855
	c0.109-3.927-1.091-7.527-1.636-11.345l-0.873-6.655c-0.218-0.873-0.218-1.745-0.109-2.509c0.11-0.655,0.546-1.418,0.655-2.182
	c0.218-1.745-0.546-3.382-0.764-5.018c-0.328-1.855,0.109-3.818,0.436-5.782c0.436-3.055,0.545-6.109,0.545-9.164
	c0.327-18.982,0.872-38.4,7.527-56.073c0.546-1.528,1.2-3.055,1.964-4.473C206.619,282.146,209.456,280.619,212.619,280.182z"/>
<g opacity="0.1">
	<path opacity="0.1" enable-background="new    " d="M227.674,314.982c-1.2,3.6-2.509,7.2-4.691,10.255
		c-0.764,0.982-1.419,1.964-1.964,3.055c-0.437,1.091-0.764,2.073-0.982,3.164c-1.2,3.818-2.836,7.527-4.8,11.018
		c-0.218,0.436-0.436,0.873-0.436,1.418c-0.109,0.545,0,1.091,0.218,1.527c0.982,2.073,0.218,4.036-0.218,6.109
		c-0.545,2.836-0.436,5.782-0.545,8.618c-0.109,0.982-0.109,1.854-0.109,2.727c0,1.964,0,3.818,0.109,5.782
		c0.219,1.309,0.546,2.618,0.764,3.927c2.509,12.328-0.218,25.31-1.2,37.855c0,0.764,0.109,1.527,0.545,2.182
		c1.091,1.964,0.545,4.145,0,6.109c-0.328,1.746-0.982,3.273-1.964,4.691c-0.328,0.327-0.546,0.655-0.764,1.091
		c-0.437,0.873,0,1.745,0.218,2.618c-2.619,0.437-5.237,0.655-7.855,0.655c1.964-0.11,4.036-0.328,6-0.655
		c-0.327-0.873-0.654-1.854-0.327-2.618c0.219-0.436,0.437-0.764,0.764-1.091c0.982-1.418,1.637-3.055,1.964-4.691
		c0.545-2.073,1.091-4.145,0-6.109c-0.327-0.655-0.545-1.418-0.436-2.182c0.982-12.546,3.709-25.528,1.2-37.855
		c-0.328-1.309-0.655-2.618-0.764-3.927c-0.218-1.964-0.218-3.818-0.109-5.782c0-0.982,0-1.854,0-2.727
		c0.109-2.836,0-5.782,0.545-8.618c0.436-1.964,1.2-4.036,0.218-6.109c-0.218-0.545-0.327-1.091-0.327-1.527
		c0-0.436,0.218-0.982,0.436-1.418c2.073-3.491,3.6-7.2,4.8-11.018c0.218-1.091,0.546-2.182,0.982-3.164
		c0.546-1.091,1.2-2.073,1.964-3.055c2.291-3.164,3.6-6.982,4.909-10.691c-0.109-0.328,0-0.764,0.327-0.764
		c0.328,0.11,0.655,0.328,0.873,0.655C227.128,314.655,227.237,314.872,227.674,314.982z"/>
</g>
<path fill="#EAC1B2" d="M292.581,199.128v6c0,1.636,0.926,2.945,2.076,2.945h42.76c1.15,0,2.076-1.309,2.076-2.945v-6
	c0-1.636-0.926-2.945-2.076-2.945h-42.76C293.507,196.183,292.581,197.492,292.581,199.128z"/>
<path fill="#E5A493" d="M294.328,214.398c-0.436,0.546-1.745,1.309-1.745,2.073c-0.109,0.873,3.6,5.455,3.6,5.455
	c2.509-2.509,4.8-5.018,6.982-7.745c1.309-1.637,2.727-3.491,2.836-5.673c0-0.872-0.109-1.854,0.218-2.727
	c0.437-0.873,1.091-1.637,1.855-2.182c0.764-0.654,1.418-1.527,1.2-2.509c-1.528-0.436-3.164,0.327-4.473,1.091
	c-1.418,0.764-3.055,1.419-4.473,0.655c-0.873-0.436-1.527-1.418-2.509-1.418s-1.637,0.982-1.964,1.964
	c-0.872,2.727,0.218,5.564-0.327,8.291C295.31,212.655,294.874,213.637,294.328,214.398z"/>
<path fill="#E5A493" d="M186.218,266.111c0.219-0.546,0.219-1.855,0.764-2.073c0.545-0.328,2.291,0.327,2.836,0.436
	c0.873,0.218,1.745,0.546,2.618,0.873c0.218,0.109,0.327,0.218,0.436,0.327s0.109,0.218,0.109,0.436
	c0.327,3.055-0.873,6-0.982,9.055c-0.109,3.382,1.2,6.545,1.964,9.818c0.763,2.945,1.2,5.89,1.418,8.945
	c0.109,0.545,0.109,1.2-0.109,1.745c-0.109,0.219-0.327,0.546-0.545,0.655c-0.218,0.218-0.546,0.218-0.873,0.218
	c-0.218-0.109-0.327-0.218-0.545-0.327c-0.218-0.218-0.327-0.327-0.436-0.545c-0.982-1.418-1.2-3.164-0.873-4.8
	c-0.764,0.109-1.091,0.872-1.309,1.636c-0.437,1.855-0.328,3.818,0.327,5.673c0.436,1.2,1.2,2.4,1.527,3.6
	c0.109,0.436,0.109,0.764,0,1.2c-0.436,0.763-1.636,0.763-2.509,0.436c-2.836-1.091-5.236-3.164-6.545-5.891
	s-1.963-5.672-1.745-8.727c0-1.309,0.218-2.618,0.327-3.818c0.655-4.691,1.2-9.382,2.182-14.073
	c0.219-0.873,0.437-1.745,0.764-2.618C185.346,267.419,185.892,266.763,186.218,266.111z"/>
<path fill="#E5A493" d="M256.91,166.292c0-6.763-5.563-12.327-12.327-12.327c-6.763,0-12.327,5.563-12.327,12.327
	c0,6.763,5.563,12.327,12.327,12.327C251.456,178.619,256.91,173.055,256.91,166.292z"/>
<path fill="#E5A493" d="M233.673,172.182c0-0.654-0.218-2.182,0.218-2.618c0.437-0.436,1.637-0.327,2.182-0.327
	c0.982-0.109,2.073-0.109,3.055-0.109c3.928-0.109,7.855,0.655,11.564,2.182c0.109,0.109,0.327,0.218,0.436,0.327
	c0.327,0.327,0.109,0.873,0,1.309c-1.636,4.254-1.964,8.836-1.2,13.309c0.218,1.091,0.546,2.073,0.982,3.055
	c0.873,1.527,2.073,2.836,3.491,3.818c-9.272-1.2-18.327-3.818-26.727-7.745c1.309-0.328,2.4-0.982,3.164-2.073
	c0.763-0.982,1.309-2.182,1.745-3.382c0.328-0.764,0.546-1.527,0.764-2.291c0.109-0.873,0.218-1.636,0.218-2.4L233.673,172.182z"/>
<path fill="#3F3F4F" d="M215.017,184.839c-3.819,0.764-7.091,2.618-10.364,4.8c-1.2,0.764-2.181,1.855-2.945,3.055
	c-0.654,1.2-1.2,2.4-1.636,3.709c-2.182,6.109-2.073,12.655-3.818,18.982c-1.636,6.109-3.273,12.218-4.8,18.327
	c-0.219,0.655-0.437,1.418-0.655,2.182c-0.327,0.872-0.764,1.854-1.2,2.727c-2.182,5.237,0,12.655-4.364,16.364
	c-1.2,1.091-1.091,3.055-1.527,4.582c-0.327,1.419-1.2,3.055-0.436,4.364c0.436,0.545,0.981,0.982,1.636,1.2
	c2.946,1.528,6.109,2.618,9.382,3.273c0.218,0.109,0.546,0.109,0.873,0c0.546-0.218,0.873-0.546,1.091-0.982
	c1.2-1.854,1.964-3.927,2.182-6.109c0.109-0.982,0.218-2.073,0.327-3.055c0.218-1.309,0.655-2.509,1.091-3.709
	c0.764-2.182,1.527-4.254,2.182-6.327c1.2-3.382,2.182-6.982,3.055-10.582c0.436-2.4,1.2-4.691,2.4-6.873l0.873,7.309
	c0.109,1.091,0.327,2.073,0.327,3.164c0,2.182-0.109,4.254-0.545,6.327c-0.109,0.981-0.327,1.854-0.545,2.836
	c-0.327,1.528-0.873,2.946-1.309,4.473c-1.2,4.691,0.872,10.473-2.073,14.291c-1.309,1.745-0.873,4.145-1.309,6.218
	c-0.218,0.982-0.546,1.854-0.982,2.727c-0.436,0.872-0.764,1.854-1.091,2.836c-0.328,1.091-0.546,2.509,0.327,3.273
	c0.545,0.437,1.09,0.655,1.745,0.764c1.637,0.327,2.946,1.2,4.473,1.745c2.946,0.981,6.109,0.763,9.273,0.545
	c9.272-0.655,18.654-0.982,28.036-0.873c3.273,0.219,6.545,0,9.818-0.436l2.4,1.636c0.436,0.327,1.2,0.654,1.527,0.109
	c0.109-0.219,0.109-0.437,0.109-0.655l-0.109-5.236c0-2.291,0-4.582,0.764-6.764c0.327-0.873,0.764-1.745,1.091-2.618
	c0.655-1.746,0.546-3.71-0.327-5.455c-0.545-1.2-1.2-1.964-1.2-3.164l0.109-11.455c0-0.981,0-1.854,0.109-2.836
	c0.109-1.636,0.437-3.273,0.873-4.909c0.655-2.619,1.309-5.237,2.073-7.855c0.764-2.727,1.31-5.564,1.855-8.4
	c0.109-0.436,0.437-0.873,0.873-1.2s0.873-0.436,1.418-0.436c0.981,0.109,1.963,0.328,2.836,0.873c4.909,2.4,9.6,5.128,14.727,6.873
	c1.091,0.437,2.291,0.655,3.491,0.655c1.854-0.109,3.6-0.982,4.909-2.291c1.309-1.418,2.4-2.946,3.273-4.582l2.727-4.582
	c0.437-0.763,1.2-1.745,0.873-2.727c-0.437-0.109-0.764-0.437-0.982-0.764c-1.528-1.855-2.946-3.927-4.364-5.891
	c-1.419,1.091-2.728,2.618-4.255,3.709c-1.527,1.2-3.49,1.854-5.345,1.309c-0.764-0.327-1.419-0.655-1.964-1.091
	c-1.854-1.309-3.6-2.837-5.236-4.582c-0.437-3.055-0.982-6.218-3.055-8.4c-0.545-0.545-1.2-1.09-1.745-1.745
	c-0.654-0.873-1.2-1.636-1.636-2.509c-0.982-1.637-2.509-2.837-4.364-3.382c-0.981-0.218-1.963-0.218-2.945-0.436
	c-0.873-0.218-1.745-0.546-2.509-0.982c-1.309-0.655-2.509-1.418-3.709-2.291c-5.237-3.927-8.073-10.691-13.964-13.527
	c-2.727-1.2-5.782-1.528-8.618-0.764s-5.345,2.4-7.2,4.691C223.201,184.183,218.946,184.183,215.017,184.839z"/>
<path fill="#393944" d="M251.565,169.892c-1.309,0.546-1.527,2.073-2.182,3.273c-0.982,1.963-1.636,3.382-3.927,3.927
	c-5.454,1.309-12.109-3.164-14.509-7.855c-1.855-3.709-2.073-8.073-2.182-12.218c-0.109-2.618-0.109-5.454,1.418-7.636
	c1.418-1.964,3.818-2.945,6.109-3.709c4.582-1.528,9.6-2.509,14.182-0.873c3.6,1.309,6.436,4.037,10.036,5.564
	c-0.655,1.091-0.873,2.4-0.655,3.6c0.982,0.436,2.182,0.545,3.382,0.436c-0.982,3.709-5.346,6-5.891,9.818
	c-0.327,1.745,0.109,4.254-1.527,5.127C254.51,170.001,252.983,169.019,251.565,169.892z"/>
<g opacity="0.1">
	<path opacity="0.1" enable-background="new    " d="M258.655,287.493c0,0.219,0,0.437-0.109,0.655
		c-0.327,0.546-1.091,0.218-1.527-0.109l-2.4-1.745c-3.273,0.436-6.545,0.545-9.818,0.436c-9.381-0.109-18.654,0.218-28.036,0.873
		c-3.055,0.219-6.328,0.546-9.273-0.545c-1.528-0.546-2.946-1.419-4.473-1.855c-0.654-0.109-1.2-0.437-1.745-0.764
		c-0.872-0.764-0.654-2.182-0.327-3.273c0.218-0.545,0.327-1.091,0.545-1.527c0.436,0.218,0.982,0.436,1.527,0.545
		c1.637,0.327,2.946,1.2,4.473,1.745c2.946,0.981,6.109,0.763,9.273,0.545c9.272-0.655,18.654-0.982,28.036-0.873
		c3.273,0.219,6.545,0,9.818-0.436l2.4,1.636c0.436,0.436,1.2,0.654,1.527,0.109l0,0
		C258.546,284.328,258.546,285.746,258.655,287.493z"/>
	<path opacity="0.1" enable-background="new    " d="M202.146,248.436c-0.655,2.182-1.418,4.254-2.182,6.327
		c-0.436,1.2-0.873,2.4-1.091,3.709c-0.218,0.982-0.218,2.073-0.327,3.055c-0.218,2.182-0.982,4.254-2.182,6.109
		c-0.327,0.437-0.655,0.764-1.091,0.982c-0.218,0.109-0.546,0.109-0.873,0c-3.273-0.655-6.437-1.746-9.382-3.273
		c-0.654-0.218-1.2-0.655-1.636-1.2c-0.873-1.309,0-2.837,0.436-4.364c0.327,0.219,0.655,0.437,1.091,0.655
		c2.946,1.528,6.109,2.618,9.382,3.273c0.218,0,0.546,0,0.873,0c0.546-0.218,0.873-0.546,1.091-0.982
		c1.2-1.854,1.964-3.927,2.182-6.109c0.109-0.982,0.218-2.073,0.327-3.055c0.218-1.309,0.655-2.509,1.091-3.709
		c0.764-2.072,1.527-4.254,2.182-6.327c1.2-3.382,2.182-6.982,3.055-10.582c0.436-2.4,1.2-4.691,2.4-6.873l0.873,7.309
		c0.109,1.091,0.327,2.073,0.327,3.164s0,2.073-0.109,3.164c-0.109-0.545-0.109-0.982-0.218-1.418l-0.873-7.309
		c-1.2,2.182-1.964,4.473-2.4,6.873C204.219,241.346,203.237,244.946,202.146,248.436z"/>
	<path opacity="0.1" enable-background="new    " d="M205.856,258.909c0-0.327,0-0.655,0-0.982
		C205.856,258.255,205.856,258.583,205.856,258.909z"/>
	<path opacity="0.1" enable-background="new    " d="M260.183,267.855c0.654,1.527,0.654,3.273,0.109,4.8
		c-0.327,0.873-0.764,1.745-1.091,2.618c-0.437,1.2-0.655,2.4-0.764,3.6c0-0.545,0-1.2,0-1.745c0-2.291,0-4.582,0.764-6.764
		C259.528,269.492,259.965,268.728,260.183,267.855z"/>
	<path opacity="0.1" enable-background="new    " d="M298.91,221.056c0.327,0.872-0.328,1.854-0.873,2.727
		c-0.982,1.527-1.854,3.055-2.727,4.582c-0.873,1.637-1.964,3.164-3.273,4.582s-3.054,2.291-4.909,2.4c-1.2,0-2.4-0.219-3.491-0.655
		c-5.127-1.746-9.818-4.473-14.727-6.873c-0.872-0.546-1.854-0.764-2.836-0.873c-0.545,0-0.982,0.109-1.418,0.436
		c-0.437,0.327-0.764,0.764-0.873,1.2c-0.546,2.836-1.091,5.673-1.855,8.4c-0.764,2.619-1.418,5.237-2.073,7.855
		c-0.437,1.636-0.655,3.273-0.873,4.909c-0.109,0.981-0.109,1.854-0.109,2.836l-0.109,6.982c0-0.218,0-0.327,0-0.545l0.109-11.455
		c0-0.981,0-1.854,0.109-2.836c0.109-1.636,0.437-3.273,0.873-4.909c0.655-2.619,1.309-5.237,2.073-7.855
		c0.764-2.727,1.31-5.564,1.855-8.4c0.109-0.436,0.437-0.873,0.873-1.2s0.873-0.436,1.418-0.436
		c0.981,0.109,1.963,0.328,2.836,0.873c4.909,2.4,9.6,5.128,14.727,6.873c1.091,0.437,2.291,0.655,3.491,0.655
		c1.854-0.109,3.6-0.982,4.909-2.4s2.4-2.946,3.273-4.582l2.182-3.709l0.436,0.545C298.146,220.51,298.474,220.728,298.91,221.056z"
		/>
</g>
<g opacity="0.1">
	<path opacity="0.1" enable-background="new    " d="M259.856,149.928c0.219,0,0.437,0.109,0.655,0.218
		c-0.328,0.655-0.546,1.2-0.655,1.855C259.746,151.237,259.746,150.583,259.856,149.928z"/>
	<path opacity="0.1" enable-background="new    " d="M262.473,154.4c0.219,0,0.546,0,0.764,0c-0.982,3.709-5.346,6-5.891,9.818
		c-0.327,1.854,0.109,4.254-1.527,5.127c-1.31,0.763-2.837-0.328-4.255,0.327c-1.309,0.546-1.527,2.073-2.182,3.273
		c-0.982,1.963-1.636,3.382-3.927,3.927c-5.454,1.309-12.109-3.164-14.509-7.855c-1.855-3.709-2.073-8.073-2.182-12.218
		c0-0.764,0-1.636,0-2.4c0,0.219,0,0.437,0,0.655c0.109,4.145,0.327,8.509,2.182,12.218c2.291,4.691,8.945,9.164,14.509,7.855
		c2.291-0.545,2.945-1.963,3.927-3.927c0.655-1.309,0.873-2.727,2.182-3.382c1.31-0.654,2.946,0.437,4.255-0.327
		c1.636-0.872,1.2-3.272,1.527-5.127C257.783,159.201,260.837,157.019,262.473,154.4z"/>
</g>
<path fill="#D0D2D5" d="M291.468,172.424v12.493c0,3.406,2.268,6.132,5.083,6.132h104.707c2.815,0,5.083-2.725,5.083-6.132v-12.493
	c0-3.406-2.268-6.132-5.083-6.132H296.551C293.736,166.292,291.468,169.017,291.468,172.424z"/>
<path fill="#D0D2D5" d="M301.581,153.511v3.241c0,0.884,0.132,1.591,0.297,1.591h6.111c0.164,0,0.297-0.707,0.297-1.591v-3.241
	c0-0.884-0.132-1.591-0.297-1.591h-6.111C301.713,151.92,301.581,152.627,301.581,153.511z"/>
<path fill="#D0D2D5" d="M322.844,153.511v3.241c0,0.884,0.132,1.591,0.297,1.591h6.111c0.164,0,0.297-0.707,0.297-1.591v-3.241
	c0-0.884-0.132-1.591-0.297-1.591h-6.111C322.976,151.92,322.844,152.627,322.844,153.511z"/>
<path fill="#D0D2D5" d="M346.055,153.511v3.241c0,0.884,0.132,1.591,0.297,1.591h6.111c0.164,0,0.297-0.707,0.297-1.591v-3.241
	c0-0.884-0.132-1.591-0.297-1.591h-6.111C346.187,151.92,346.055,152.627,346.055,153.511z"/>
<path fill="#D0D2D5" d="M292.581,136.317v6c0,1.636,2.268,2.945,5.083,2.945h104.707c2.815,0,5.083-1.309,5.083-2.945v-6
	c0-1.636-2.268-2.945-5.083-2.945H297.664C294.849,133.372,292.581,134.681,292.581,136.317z"/>
</svg>
