<?xml version="1.0" encoding="utf-8"?>
<!-- Generator: Adobe Illustrator 17.0.0, SVG Export Plug-In . SVG Version: 6.00 Build 0)  -->
<!DOCTYPE svg PUBLIC "-//W3C//DTD SVG 1.1//EN" "http://www.w3.org/Graphics/SVG/1.1/DTD/svg11.dtd">
<svg version="1.1" id="Слой_1" xmlns="http://www.w3.org/2000/svg" xmlns:xlink="http://www.w3.org/1999/xlink" x="0px" y="0px"
	 width="527px" height="375.85px" viewBox="0 0 527 375.85" enable-background="new 0 0 527 375.85" xml:space="preserve">
<path fill="#3F3D56" d="M434.02,118.966c1.999-4.156,1.428-8.95-1.346-10.708c-2.734-1.758-6.569,0.16-8.568,4.315
	c-1.999,4.156-1.428,8.95,1.306,10.708S431.98,123.122,434.02,118.966z"/>
<path fill="#3F3D56" d="M438.427,109.776c1.999-4.156,1.428-8.95-1.306-10.708s-6.569,0.16-8.609,4.315
	c-1.999,4.156-1.428,8.95,1.346,10.708C432.592,115.85,436.427,113.932,438.427,109.776z"/>
<path fill="#3F3D56" d="M442.874,100.586c1.999-4.156,1.428-8.95-1.346-10.708c-2.734-1.758-6.569,0.16-8.609,4.315
	c-1.999,4.156-1.428,8.95,1.346,10.708C437.039,106.66,440.875,104.742,442.874,100.586z"/>
<path fill="#3F3D56" d="M447.321,91.396c1.999-4.156,1.428-8.95-1.346-10.708c-2.734-1.758-6.569,0.16-8.609,4.315
	c-1.999,4.156-1.428,8.95,1.346,10.708C441.446,97.469,445.322,95.552,447.321,91.396z"/>
<path fill="#3F3D56" d="M451.727,82.206c1.999-4.156,1.428-8.95-1.346-10.708c-2.734-1.758-6.569,0.16-8.609,4.315
	c-1.999,4.156-1.428,8.95,1.306,10.708C445.893,88.319,449.728,86.361,451.727,82.206z"/>
<path fill="#3F3D56" d="M456.175,73.016c1.999-4.156,1.428-8.95-1.306-10.708s-6.569,0.16-8.609,4.315
	c-1.999,4.156-1.428,8.95,1.346,10.708C450.34,79.129,454.175,77.171,456.175,73.016z"/>
<path fill="#D0D2D5" d="M313.742,375.809l-103.265-1.518l0.286-3.077l4.978-50.546h90.698l6.691,50.546l0.49,3.836L313.742,375.809z
	"/>
<path opacity="0.1" enable-background="new    " d="M313.66,375.05h-51.53l-51.653-0.759l0.286-3.077H313.13L313.66,375.05z"/>
<path fill="#D0D2D5" d="M330.307,372.014H193.259v3.836h137.047v-3.836H330.307z"/>
<path fill="#454554" d="M461.03,16.996c0-2.637-0.898-5.194-2.489-7.072s-3.794-2.957-6.079-2.957H69.758
	c-1.142,0-2.244,0.28-3.305,0.759c-1.061,0.519-1.999,1.239-2.774,2.198c-0.816,0.919-1.428,2.038-1.836,3.237
	s-0.653,2.517-0.653,3.836v268.431h399.84V16.996L461.03,16.996z"/>
<path fill="#D0D2D5" d="M61.19,282.75v31.446c0,1.319,0.204,2.597,0.653,3.796c0.449,1.199,1.061,2.318,1.877,3.237
	s1.754,1.678,2.774,2.158c1.02,0.479,2.162,0.759,3.305,0.759h382.704c2.285,0,4.447-1.039,6.079-2.917
	c1.591-1.878,2.53-4.395,2.53-7.032v-31.486H61.19V282.75z"/>
<path opacity="0.1" fill="#C7C7C7" enable-background="new    " d="M446.464,23.829H77.754v241.3h368.75v-241.3L446.464,23.829
	L446.464,23.829z"/>
<path fill="#C7C7C7" d="M263.109,312.198c1.346,0,2.693-0.36,3.917-1.039s2.285-1.678,3.142-2.917
	c0.245-0.36,0.49-0.759,0.694-1.199l-4.896-0.919l5.304,0.04c0.53-1.279,0.775-2.677,0.816-4.076
	c0.041-1.398-0.204-2.797-0.653-4.116l-7.099,4.275l6.569-5.594c-0.612-1.239-1.428-2.357-2.407-3.197
	c-0.979-0.879-2.122-1.478-3.305-1.798c-1.183-0.32-2.448-0.36-3.672-0.12s-2.366,0.799-3.386,1.598
	c-1.02,0.799-1.877,1.838-2.57,3.037c-0.653,1.199-1.102,2.557-1.265,3.996c-0.204,1.398-0.122,2.877,0.204,4.235
	c0.326,1.398,0.898,2.677,1.673,3.796c0.816,1.239,1.918,2.238,3.101,2.917C260.416,311.838,261.763,312.198,263.109,312.198z"/>
<path opacity="0.1" enable-background="new    " d="M272.044,324.105l41.208,47.868l-6.324-47.868H272.044z"/>
<g>
	<path fill="#FFFFFF" d="M249.505,43.353H94.527v97.621h155V43.353H249.505z"/>
	<path opacity="0.1" fill="#C7C7C7" enable-background="new    " d="M146.401,68.795h-43.232v2.654h43.232V68.795z"/>
	<path opacity="0.1" fill="#C7C7C7" enable-background="new    " d="M111.167,54.747h-4.155v14.048h4.155V54.747z"/>
	<path opacity="0.1" fill="#C7C7C7" enable-background="new    " d="M117.254,54.747H113.1v14.048h4.155L117.254,54.747
		L117.254,54.747z"/>
	<path opacity="0.1" fill="#C7C7C7" enable-background="new    " d="M123.341,54.747h-4.155v14.048h4.155V54.747z"/>
	<path opacity="0.1" fill="#C7C7C7" enable-background="new    " d="M129.428,54.747h-4.155v14.048h4.155V54.747z"/>
	<path opacity="0.1" fill="#C7C7C7" enable-background="new    " d="M135.515,54.747h-4.155v14.048h4.155V54.747z"/>
	<path opacity="0.1" fill="#C7C7C7" enable-background="new    " d="M141.602,54.747h-4.155v14.048h4.155V54.747z"/>
	<path opacity="0.1" fill="#C7C7C7" enable-background="new    " d="M111.167,57.401h-4.155v1.516h4.155V57.401z"/>
	<path opacity="0.1" fill="#C7C7C7" enable-background="new    " d="M117.254,57.401H113.1v1.516h4.155L117.254,57.401
		L117.254,57.401z"/>
	<path opacity="0.1" fill="#C7C7C7" enable-background="new    " d="M123.341,57.401h-4.155v1.516h4.155V57.401z"/>
	<path opacity="0.1" fill="#C7C7C7" enable-background="new    " d="M129.428,57.401h-4.155v1.516h4.155V57.401z"/>
	<path opacity="0.1" fill="#C7C7C7" enable-background="new    " d="M135.515,57.401h-4.155v1.516h4.155V57.401z"/>
	<path opacity="0.1" fill="#C7C7C7" enable-background="new    " d="M141.602,57.401h-4.155v1.516h4.155V57.401z"/>
	<path opacity="0.1" fill="#C7C7C7" enable-background="new    " d="M111.167,64.246h-4.155v1.516h4.155V64.246z"/>
	<path opacity="0.1" fill="#C7C7C7" enable-background="new    " d="M117.254,64.246H113.1v1.516h4.155L117.254,64.246
		L117.254,64.246z"/>
	<path opacity="0.1" fill="#C7C7C7" enable-background="new    " d="M123.341,64.246h-4.155v1.516h4.155V64.246z"/>
	<path opacity="0.1" fill="#C7C7C7" enable-background="new    " d="M129.428,64.246h-4.155v1.516h4.155V64.246z"/>
	<path opacity="0.1" fill="#C7C7C7" enable-background="new    " d="M135.515,64.246h-4.155v1.516h4.155V64.246z"/>
	<path opacity="0.1" fill="#C7C7C7" enable-background="new    " d="M141.602,64.246h-4.155v1.516h4.155V64.246z"/>
	<path opacity="0.1" fill="#C7C7C7" enable-background="new    " d="M241.196,75.641h-43.232v2.654h43.232V75.641z"/>
	<path opacity="0.1" fill="#C7C7C7" enable-background="new    " d="M205.962,61.593h-4.155v14.048h4.155V61.593z"/>
	<path opacity="0.1" fill="#C7C7C7" enable-background="new    " d="M212.049,61.593h-4.155v14.048h4.155V61.593z"/>
	<path opacity="0.1" fill="#C7C7C7" enable-background="new    " d="M218.136,61.593h-4.176v14.048h4.155V61.593H218.136z"/>
	<path opacity="0.1" fill="#C7C7C7" enable-background="new    " d="M224.223,61.593h-4.155v14.048h4.155V61.593z"/>
	<path opacity="0.1" fill="#C7C7C7" enable-background="new    " d="M230.31,61.593h-4.155v14.048h4.155V61.593z"/>
	<path opacity="0.1" fill="#C7C7C7" enable-background="new    " d="M236.375,61.593h-4.155v14.048h4.155V61.593z"/>
	<path opacity="0.1" fill="#C7C7C7" enable-background="new    " d="M205.962,64.246h-4.155v1.516h4.155V64.246z"/>
	<path opacity="0.1" fill="#C7C7C7" enable-background="new    " d="M212.049,64.246h-4.155v1.516h4.155V64.246z"/>
	<path opacity="0.1" fill="#C7C7C7" enable-background="new    " d="M218.136,64.246h-4.176v1.516h4.155v-1.516H218.136z"/>
	<path opacity="0.1" fill="#C7C7C7" enable-background="new    " d="M224.223,64.246h-4.155v1.516h4.155V64.246z"/>
	<path opacity="0.1" fill="#C7C7C7" enable-background="new    " d="M230.31,64.246h-4.155v1.516h4.155V64.246z"/>
	<path opacity="0.1" fill="#C7C7C7" enable-background="new    " d="M236.375,64.246h-4.155v1.516h4.155V64.246z"/>
	<path opacity="0.1" fill="#C7C7C7" enable-background="new    " d="M205.962,71.07h-4.155v1.516h4.155V71.07z"/>
	<path opacity="0.1" fill="#C7C7C7" enable-background="new    " d="M212.049,71.07h-4.155v1.516h4.155V71.07z"/>
	<path opacity="0.1" fill="#C7C7C7" enable-background="new    " d="M218.136,71.07h-4.176v1.516h4.155V71.07H218.136z"/>
	<path opacity="0.1" fill="#C7C7C7" enable-background="new    " d="M224.223,71.07h-4.155v1.516h4.155V71.07z"/>
	<path opacity="0.1" fill="#C7C7C7" enable-background="new    " d="M230.31,71.07h-4.155v1.516h4.155V71.07z"/>
	<path opacity="0.1" fill="#C7C7C7" enable-background="new    " d="M236.375,71.07h-4.155v1.516h4.155V71.07z"/>
	<path opacity="0.1" fill="#C7C7C7" enable-background="new    " d="M241.196,95.018h-43.232v2.654h43.232V95.018z"/>
	<path opacity="0.1" fill="#C7C7C7" enable-background="new    " d="M205.962,80.948h-4.155v14.048h4.155V80.948z"/>
	<path opacity="0.1" fill="#C7C7C7" enable-background="new    " d="M212.049,80.948h-4.155v14.048h4.155V80.948z"/>
	<path opacity="0.1" fill="#C7C7C7" enable-background="new    " d="M218.136,80.948h-4.176v14.048h4.155V80.948H218.136z"/>
	<path opacity="0.1" fill="#C7C7C7" enable-background="new    " d="M224.223,80.948h-4.155v14.048h4.155V80.948z"/>
	<path opacity="0.1" fill="#C7C7C7" enable-background="new    " d="M230.31,80.948h-4.155v14.048h4.155V80.948z"/>
	<path opacity="0.1" fill="#C7C7C7" enable-background="new    " d="M236.375,80.948h-4.155v14.048h4.155V80.948z"/>
	<path opacity="0.1" fill="#C7C7C7" enable-background="new    " d="M205.962,83.601h-4.155v1.516h4.155V83.601z"/>
	<path opacity="0.1" fill="#C7C7C7" enable-background="new    " d="M212.049,83.601h-4.155v1.516h4.155V83.601z"/>
	<path opacity="0.1" fill="#C7C7C7" enable-background="new    " d="M218.136,83.601h-4.176v1.516h4.155v-1.516H218.136z"/>
	<path opacity="0.1" fill="#C7C7C7" enable-background="new    " d="M224.223,83.601h-4.155v1.516h4.155V83.601z"/>
	<path opacity="0.1" fill="#C7C7C7" enable-background="new    " d="M230.31,83.601h-4.155v1.516h4.155V83.601z"/>
	<path opacity="0.1" fill="#C7C7C7" enable-background="new    " d="M236.375,83.601h-4.155v1.516h4.155V83.601z"/>
	<path opacity="0.1" fill="#C7C7C7" enable-background="new    " d="M205.962,90.446h-4.155v1.516h4.155V90.446z"/>
	<path opacity="0.1" fill="#C7C7C7" enable-background="new    " d="M212.049,90.446h-4.155v1.516h4.155V90.446z"/>
	<path opacity="0.1" fill="#C7C7C7" enable-background="new    " d="M218.136,90.446h-4.176v1.516h4.155v-1.516H218.136z"/>
	<path opacity="0.1" fill="#C7C7C7" enable-background="new    " d="M224.223,90.446h-4.155v1.516h4.155V90.446z"/>
	<path opacity="0.1" fill="#C7C7C7" enable-background="new    " d="M230.31,90.446h-4.155v1.516h4.155V90.446z"/>
	<path opacity="0.1" fill="#C7C7C7" enable-background="new    " d="M236.375,90.446h-4.155v1.516h4.155V90.446z"/>
	<path opacity="0.1" fill="#C7C7C7" enable-background="new    " d="M129.673,98.853c-0.333-0.491-0.622-1.003-0.889-1.539
		l6.22-1.204l-6.753,0.067c-0.644-1.672-1-3.478-1.044-5.307c-0.045-1.828,0.244-3.657,0.822-5.352l9.042,5.552l-8.331-7.269
		c0.778-1.606,1.822-2.988,3.088-4.103c1.244-1.093,2.688-1.873,4.199-2.297c1.51-0.424,3.088-0.446,4.621-0.112
		s2.999,1.048,4.287,2.096s2.399,2.386,3.221,3.947c0.844,1.561,1.399,3.323,1.622,5.151c0.244,1.828,0.156,3.702-0.244,5.485
		c-0.4,1.784-1.088,3.456-2.066,4.906c0.511,0.758,0.933,1.583,1.311,2.453l-8.064,4.972l8.62-3.411
		c0.6,2.118,0.755,4.393,0.444,6.6s-1.088,4.281-2.266,6.043c1.311,1.984,2.133,4.371,2.355,6.89
		c0.222,2.52-0.133,5.039-1.066,7.314s-2.377,4.192-4.176,5.53c-1.8,1.338-3.888,2.051-6.021,2.051s-4.221-0.714-6.021-2.051
		c-1.8-1.338-3.266-3.256-4.176-5.53c-0.933-2.275-1.311-4.817-1.066-7.314c0.222-2.52,1.044-4.906,2.355-6.89
		c-1.577-2.363-2.421-5.307-2.421-8.317C127.251,104.16,128.118,101.217,129.673,98.853L129.673,98.853z"/>
	<path opacity="0.1" fill="#C7C7C7" enable-background="new    " d="M149.933,107.17c0,3.01-0.844,5.953-2.421,8.317
		c1.311,1.984,2.133,4.371,2.355,6.89c0.222,2.52-0.133,5.039-1.066,7.314s-2.377,4.192-4.176,5.53
		c-1.8,1.338-3.888,2.051-6.021,2.051s-4.221-0.714-6.021-2.051c-1.8-1.338-3.266-3.256-4.176-5.53
		c-0.933-2.275-1.311-4.817-1.066-7.314c0.222-2.52,1.044-4.906,2.355-6.89C128.162,113.213,149.933,105.654,149.933,107.17z"/>
	<path opacity="0.1" fill="#C7C7C7" enable-background="new    " d="M140.425,140.862c0.022,0.045,0.045,0.067,0.045,0.112h-3.843
		c0.022-0.045,0.045-0.067,0.045-0.112c-0.333-0.691-0.511-1.472-0.489-2.252c0-0.535,0.089-1.07,0.244-1.583
		c0.222,0.045,0.489,0.089,0.778,0.134c0.889,0.112,1.8,0.112,2.688,0c0.244-0.022,0.533-0.067,0.8-0.134v0.022
		c0.156,0.491,0.222,1.026,0.222,1.561C140.914,139.391,140.736,140.171,140.425,140.862z"/>
	<path opacity="0.1" fill="#C7C7C7" enable-background="new    " d="M126.562,140.974h-21.416c-0.045-0.156-0.089-0.312-0.133-0.446
		c-0.755-2.876-0.666-5.976,0.244-8.785c-2.088-1.717-3.643-4.214-4.399-7.091c-0.755-2.876-0.666-5.976,0.244-8.808
		c-0.422-0.357-0.844-0.736-1.222-1.16l5.643-3.345l-6.42,2.408c-1.022-1.36-1.822-2.965-2.31-4.705
		c-0.489-1.739-0.689-3.59-0.555-5.419l10.019,2.141l-9.775-4.014c0.356-1.806,1-3.501,1.933-4.995s2.088-2.743,3.443-3.657
		c1.355-0.936,2.843-1.516,4.399-1.739c1.555-0.223,3.11-0.045,4.621,0.491c1.489,0.535,2.866,1.427,4.065,2.631
		c1.177,1.204,2.155,2.676,2.843,4.348c0.689,1.672,1.066,3.478,1.133,5.329c0.066,1.85-0.2,3.702-0.755,5.419
		c0.666,0.557,1.288,1.182,1.844,1.895l-6.487,7.581l7.376-6.288c1.111,1.806,1.822,3.924,2.066,6.154s0.022,4.482-0.666,6.578
		c2.044,1.672,3.577,4.103,4.332,6.89C127.406,135.176,127.384,138.187,126.562,140.974z"/>
	<path opacity="0.1" fill="#C7C7C7" enable-background="new    " d="M126.562,140.974h-21.416c-0.045-0.156-0.089-0.29-0.133-0.446
		c-0.755-2.876-0.666-5.976,0.244-8.785c-2.022-1.65,16.906-16.478,17.306-15.051c0.755,2.876,0.666,5.976-0.244,8.808
		c2.044,1.672,3.555,4.103,4.332,6.89C127.406,135.176,127.384,138.187,126.562,140.974z"/>
	<path opacity="0.1" fill="#C7C7C7" enable-background="new    " d="M223.601,122.734c-1.311,2.587-3.31,4.593-5.687,5.664
		c0.111,0.959,0.111,1.94,0.045,2.899l-9.086-0.647l8.886,2.297c-0.578,3.211-2.155,6.065-4.377,8.027h-12.374v0.379h-12.597
		c0.022-0.134,0.045-0.246,0.089-0.379c0.467-2.074,1.333-3.969,2.533-5.552c1.2-1.583,2.711-2.81,4.377-3.59
		c-0.311-2.988,0.222-6.02,1.51-8.629c1.311-2.587,3.31-4.593,5.687-5.664c-0.066-0.624-0.089-1.227-0.089-1.851l5.865,2.743
		l-5.798-4.036c0.156-1.828,0.644-3.59,1.399-5.173c0.755-1.606,1.777-2.988,3.021-4.103l5.354,10.257l-3.999-11.283
		c2.177-1.449,4.71-1.984,7.176-1.561c2.466,0.424,4.754,1.828,6.487,3.947c1.733,2.118,2.843,4.884,3.133,7.827
		C225.401,117.227,224.868,120.214,223.601,122.734L223.601,122.734z"/>
	<path opacity="0.1" fill="#C7C7C7" enable-background="new    " d="M216.381,137.027c-0.778,1.539-1.8,2.899-3.021,3.947h-12.374
		v0.379h-12.574c0.022-0.134,0.045-0.268,0.089-0.379c0.467-2.074,1.333-3.969,2.533-5.552c1.2-1.583,2.711-2.81,4.377-3.59
		c-0.111-0.981,2.333-0.847,5.599-0.201C207.361,132.902,216.825,136.157,216.381,137.027z"/>
	<path fill="#F4C4B5" d="M162.774,101.105c0,0,1.533,9.967-1.911,13.222c-3.466,3.256,2.933,22.766,13.529,20.492
		c10.597-2.275,14.907-18.663,14.907-18.663s-10.597-2.609-6.665-15.831L162.774,101.105z"/>
	<path fill="#FECEB8" d="M172.149,107.883c9.686,0,17.551-9.321,17.551-20.826s-7.864-20.826-17.551-20.826
		c-9.686,0-17.55,9.321-17.55,20.826S162.463,107.883,172.149,107.883z"/>
	<path fill="#5F5F72" d="M202.403,126L206,141.653h-67l1.915-14.961c0-1.768,0.952-3.05,1.752-4.52
		c0.8-1.469,3.513-2.005,4.846-2.694l1.666-0.872c4.199-2.18,9.308-4.913,10.975-6.038c0.178-0.115,0.356-0.253,0.511-0.413
		c0.911-1.125,0.733,0.344,0.733,0.344s-0.022,0.275-0.045,0.758c-0.089,3.283,0.289,16.161,12.663,15.105
		c12.063-1.056,12.597-10.996,12.486-13.934c0-0.275-0.022-0.551-0.066-0.803c0-0.069,1.044,0.344,2.444,0.964
		c2.533,1.148,6.243,2.961,7.242,3.834c0.311,0.253,0.689,0.551,1.088,0.826c1.133,0.78,3.125,1.545,3.791,2.924
		c0.689,1.376,0.829,0.849,0.807,2.434L202.403,126z"/>
	<path opacity="0.1" enable-background="new    " d="M188.9,115.064c-1.022,5.619-4.221,16.144-15.796,16.411
		c-12.307,0.29-13.019-14.248-12.952-18.373c0.178-0.112,0.356-0.246,0.511-0.401c0.911-1.093,0.733,0.334,0.733,0.334
		s-1.555,16.59,12.618,15.385c14.173-1.204,12.441-14.315,12.441-14.315C186.456,114.06,187.5,114.462,188.9,115.064z"/>
	<path fill="#454554" d="M151.377,88.082c1.155-0.446,2.532,0.312,3.177,1.36c0.644,1.07,0.733,2.341,0.8,3.568
		c0.755,0.201,1.2-0.825,1.267-1.606c0.289-3.144,0.311-6.355,1.2-9.388c0.889-3.032,2.843-5.976,5.821-7.158
		c1.022-0.424,2.111-0.535,3.177-0.357c0.622,0.134,1.222,0.379,1.866,0.513c2.177,0.424,4.554-0.802,6.62,0.045
		c1.288,0.535,2.111,1.784,2.688,3.032c0.267,0.669,0.622,1.271,1.044,1.806c0.866,0.914,2.244,1.16,3.488,1.449
		c1.244,0.29,2.621,0.78,3.155,1.94c0.489,1.026,0.133,2.23-0.045,3.345c-0.244,1.762,0,3.59,0.711,5.173
		c0.222,0.513,0.689,1.115,1.244,0.936c0.244-0.089,0.467-0.312,0.6-0.58c1.444-2.386,1.399-5.507,3.199-7.648
		c0.6-0.714,1.378-1.271,1.955-2.007c0.444-0.535,0.778-1.182,0.955-1.895c0.178-0.714,0.2-1.472,0.066-2.208
		c-0.333-1.65-1.444-3.01-2.333-4.437c-1.155-1.828-2.022-3.924-2.488-6.132c-0.089-0.267-0.089-0.535,0-0.802
		c0.177-0.267,0.378-0.468,0.644-0.624c0.489-0.379,0.844-0.959,1-1.65c0.156-0.669,0.089-1.382-0.178-2.007
		c-0.511-1.249-1.622-2.163-2.866-2.721c-1.244-0.557-2.599-0.78-3.932-1.026c-0.889,0.156-1.911-0.446-2.199-1.294
		c-0.111-0.379-0.111-0.78-0.244-1.16c-0.244-0.714-0.933-1.227-1.666-1.405c-0.755-0.156-1.533-0.089-2.244,0.179
		c-0.822,0.267-1.8,0.691-2.51,0.223c-0.378-0.267-0.6-0.714-1-0.936c-0.822-0.424-1.711,0.424-2.31,1.137
		c-0.578,0.736-1.288,1.294-2.088,1.65c-0.844,0.334-1.866,0.334-2.577-0.201c-0.578-0.424-0.866-1.137-1.333-1.695
		c-0.755-0.914-1.933-1.405-3.133-1.516c-1.2-0.067-2.377,0.089-3.532,0.468c-2.199,0.624-4.287,1.672-6.22,3.077
		c-0.955,0.714-1.888,1.539-2.377,2.631c-0.356,0.847-0.533,1.762-0.533,2.698c-0.089,2.943,0.733,6.043,2.888,8.116
		c-1.311,0.647-1.755,2.23-2.066,3.657c-0.489,2.252-0.977,4.549-0.8,6.846c0.089,1.182,0.356,2.363,0.222,3.545
		c-0.066,0.58-0.244,1.137-0.2,1.717c0.045,0.312,0.178,0.624,0.378,0.847C150.844,87.882,151.111,88.038,151.377,88.082z"/>
	<g opacity="0.1">
		<path opacity="0.1" enable-background="new    " d="M194.099,78.093c-0.2,0.491-0.444,0.936-0.755,1.315
			c-0.578,0.736-1.355,1.294-1.955,2.007c-1.8,2.141-1.755,5.24-3.199,7.648c-0.133,0.267-0.356,0.468-0.6,0.58
			c-0.555,0.179-1.022-0.424-1.244-0.936c-0.289-0.624-0.489-1.315-0.622-2.007c-0.022,0.179-0.066,0.357-0.089,0.513
			c-0.244,1.762,0,3.59,0.711,5.173c0.222,0.513,0.689,1.115,1.244,0.936c0.244-0.112,0.467-0.312,0.6-0.58
			c1.444-2.386,1.399-5.507,3.199-7.626c0.6-0.714,1.378-1.271,1.955-2.007c0.444-0.535,0.778-1.182,0.955-1.895
			s0.2-1.472,0.066-2.208C194.298,78.695,194.21,78.406,194.099,78.093z"/>
		<path opacity="0.1" enable-background="new    " d="M190.189,63.332c-0.244,0.134-0.467,0.357-0.644,0.624
			c-0.089,0.267-0.089,0.535,0,0.802c0.156,0.78,0.378,1.539,0.644,2.275c0.489-0.379,0.844-0.981,1-1.65
			c0.156-0.691,0.089-1.405-0.178-2.029c-0.089-0.201-0.178-0.401-0.289-0.58C190.566,62.976,190.388,63.176,190.189,63.332z"/>
		<path opacity="0.1" enable-background="new    " d="M153.11,67.948c-1.489-1.449-2.466-3.523-2.755-5.775
			c-0.066,0.446-0.111,0.914-0.133,1.36c-0.089,2.163,0.4,4.326,1.378,6.154C151.911,68.907,152.444,68.282,153.11,67.948z"/>
		<path opacity="0.1" enable-background="new    " d="M185.634,83.534c0.156-1.115,0.511-2.319,0.045-3.345
			c-0.533-1.137-1.888-1.65-3.155-1.94c-1.244-0.29-2.621-0.535-3.488-1.449c-0.422-0.535-0.778-1.137-1.044-1.806
			c-0.578-1.249-1.422-2.497-2.711-3.032c-2.044-0.847-4.421,0.379-6.62-0.045c-0.622-0.134-1.222-0.379-1.866-0.513
			c-1.066-0.179-2.155-0.067-3.177,0.334c-2.999,1.16-4.932,4.103-5.821,7.158c-0.889,3.055-0.911,6.243-1.2,9.388
			c-0.066,0.78-0.489,1.806-1.267,1.606c-0.089-1.227-0.178-2.52-0.8-3.568c-0.644-1.07-1.999-1.806-3.177-1.36
			c-0.356-0.089-0.666-0.334-0.889-0.691c0.045,0.446,0.045,0.914-0.022,1.36c-0.066,0.58-0.244,1.137-0.2,1.717
			c0.045,0.312,0.178,0.624,0.378,0.847c0.2,0.223,0.444,0.379,0.711,0.446c1.155-0.446,2.533,0.312,3.177,1.36
			c0.644,1.07,0.733,2.341,0.8,3.568c0.755,0.201,1.2-0.825,1.267-1.606c0.289-3.144,0.311-6.355,1.2-9.388
			c0.889-3.032,2.843-5.976,5.821-7.158c1.022-0.424,2.111-0.535,3.177-0.357c0.622,0.134,1.222,0.379,1.866,0.513
			c2.177,0.424,4.554-0.802,6.62,0.045c1.288,0.535,2.111,1.784,2.711,3.032c0.267,0.669,0.622,1.271,1.044,1.806
			c0.866,0.914,2.244,1.16,3.488,1.449c1.244,0.29,2.51,0.758,3.088,1.806C185.612,83.691,185.634,83.624,185.634,83.534z"/>
		<path opacity="0.1" enable-background="new    " d="M150.489,81.973c0.066-0.936,0.022-1.873-0.133-2.787
			c-0.133,0.959-0.156,1.94-0.089,2.921c0.022,0.246,0.045,0.491,0.066,0.736C150.378,82.576,150.422,82.285,150.489,81.973z"/>
	</g>
</g>
<g>
	<path fill="#FFFFFF" d="M249.84,153.729h-155v97.694h155V153.729z"/>
	<path opacity="0.1" fill="#C7C7C7" enable-background="new    " d="M235.906,227.458c-2.257,3.366-5.575,6.015-9.686,7.343
		c0.133,1.223,0.267,2.55,0.133,3.772l-15.528-0.817l15.128,2.958c-1.06,4.18-3.714,7.853-7.432,10.403h-20.966v0.51h-21.366
		c0-0.204,0-0.306,0.133-0.51c0.53-1.631,1.194-3.162,2.124-4.487c2.257-3.366,5.575-6.015,9.686-7.343
		c-0.53-3.874,0.397-7.853,2.521-11.217c2.257-3.366,5.575-5.916,9.686-7.343c-0.133-0.817-0.133-1.631-0.133-2.448l9.953,3.568
		l-9.82-5.303c0.267-2.345,1.06-4.691,2.387-6.73s3.051-3.874,5.175-5.303l9.023,13.358l-6.902-14.685
		c3.714-1.835,7.962-2.55,12.21-1.937c4.248,0.612,8.096,2.345,11.013,5.099c2.918,2.754,4.778,6.322,5.308,10.096
		C238.957,220.32,238.03,224.194,235.906,227.458L235.906,227.458z"/>
	<path opacity="0.1" fill="#C7C7C7" enable-background="new    " d="M223.695,246.12c-1.327,2.039-3.051,3.772-5.175,5.099h-20.966
		v0.51h-21.366c0-0.204,0-0.306,0.133-0.51c0.53-1.631,1.194-3.162,2.124-4.487c2.257-3.366,5.575-6.015,9.686-7.343
		c-0.133-1.222,3.981-1.123,9.556-0.204C208.301,240.714,224.492,244.997,223.695,246.12z"/>
	<path opacity="0.1" fill="#C7C7C7" enable-background="new    " d="M100.678,227.458c2.257,3.366,5.575,6.015,9.686,7.343
		c-0.133,1.223-0.267,2.55-0.133,3.772l15.528-0.817l-15.128,2.958c1.06,4.18,3.714,7.853,7.432,10.403h20.966v0.51h21.366
		c0-0.204-0.133-0.306-0.133-0.51c-0.53-1.631-1.194-3.06-2.124-4.487c-2.257-3.366-5.575-5.916-9.686-7.343
		c0.53-3.874-0.397-7.853-2.521-11.217c-2.257-3.366-5.575-5.916-9.686-7.343c0.133-0.817,0.133-1.631,0.133-2.448l-9.953,3.568
		l9.82-5.303c-0.267-2.345-1.06-4.691-2.387-6.73s-3.051-3.874-5.175-5.303l-9.023,13.358l6.769-14.685
		c-3.714-1.835-7.962-2.55-12.21-1.937c-4.115,0.613-7.962,2.345-11.013,5.099s-4.778,6.322-5.308,10.096s0.397,7.649,2.521,10.91
		h0.267v0.105L100.678,227.458L100.678,227.458z"/>
	<path opacity="0.1" fill="#C7C7C7" enable-background="new    " d="M112.885,246.12c1.327,2.039,3.051,3.772,5.175,5.099h20.966
		v0.51h21.366c0-0.204-0.133-0.306-0.133-0.51c-0.53-1.631-1.194-3.06-2.124-4.487c-2.257-3.366-5.575-5.916-9.686-7.343
		c0.133-1.222-3.981-1.123-9.556-0.204C128.28,240.714,112.088,244.997,112.885,246.12z"/>
	<path fill="#464353" d="M187.601,175.247h-34.637v35.079h34.637L187.601,175.247L187.601,175.247z"/>
	<path fill="#464353" d="M187.601,175.247h-34.637v35.079h34.637L187.601,175.247L187.601,175.247z"/>
	<path fill="#FECEB8" d="M138.233,242.345l-0.664,9.075h9.953l0.664-12.033L138.233,242.345z"/>
	<path fill="#FECEB8" d="M190.255,242.345l-1.46,9.075h9.023l0.53-12.033L190.255,242.345z"/>
	<path fill="#A1616A" d="M161.59,192.785c0,0-0.397,4.589-1.594,5.712c-1.194,1.222,10.75,11.727,20.173,1.325
		c0,0-4.115-3.162-3.051-6.628C178.045,189.727,161.59,192.785,161.59,192.785z"/>
	<path fill="#FECEB8" d="M161.59,192.785c0,0-0.397,4.589-1.594,5.712c-1.194,1.222,10.75,11.727,20.173,1.325
		c0,0-4.115-3.162-3.051-6.628C178.045,189.727,161.59,192.785,161.59,192.785z"/>
	<path fill="#FECEB8" d="M170.216,196.866c9.556,0,17.385-7.036,17.385-15.703c0-8.667-7.696-15.703-17.385-15.703
		c-9.556,0-17.385,7.036-17.385,15.703C152.964,189.83,160.66,196.866,170.216,196.866z"/>
	<path fill="#C7C7C7" d="M169.286,202.575c0,0-7.299-0.102-8.359-6.118c-1.46,1.123-2.921,2.141-4.511,3.162
		c-0.664,0.204-7.696,3.772-8.893,3.976c-1.327,0.204-2.521,0.817-3.451,1.529c-1.724,1.222-3.051,2.754-4.115,4.487
		c-1.06,1.733-1.594,3.67-1.594,5.712c-0.267,7.036-1.194,20.803-1.194,20.803l0.397,4.997v3.264c0,0,6.369,1.529,10.35-1.529
		c0,0,0-1.222,0.797-1.529c0.664-0.408,0.797-1.937,0.664-2.652c0-1.021,0-1.937,0-2.958c0.133,0.51,0.53,1.021,0.93,1.325
		c0.267,0.919,0.397,1.835,0.267,2.754c-0.397,0.613-0.797,2.141-0.397,2.448c0.133,0.306,0.267,0.613,0.267,0.919
		s-0.133,0.613-0.397,0.919c-0.664,0.817-1.194,1.733-1.594,2.754c0,0-0.397,1.937-0.797,2.141c-0.397,0.817-0.664,1.631-0.797,2.55
		h42.996c-0.797-1.937-1.327-3.976-1.724-6.118c0.133-1.021-1.06-4.997-0.267-6.118c1.194-1.427,1.857-3.162,1.857-4.997l0.53,4.18
		l-1.327,9.382c0,0,7.962,2.243,8.893,0.817c0.93-2.448,1.594-4.997,1.991-7.547c0,0,1.857-7.853,2.387-8.871
		c0.53-1.123,1.594-22.74-4.911-25.902c-6.502-3.162-18.579-8.565-18.976-8.259c-0.664,1.529-1.991,2.856-3.584,3.67
		C173.134,202.575,171.143,202.881,169.286,202.575z"/>
	<path opacity="0.1" fill="none" stroke="#000000" stroke-miterlimit="10" enable-background="new    " d="M148.583,223.786
		c-1.194,1.631-1.724,3.568-1.46,5.508c0.267,1.937,0.93,3.772,1.991,5.405"/>
	<path opacity="0.1" fill="none" stroke="#000000" stroke-miterlimit="10" enable-background="new    " d="M190.385,225.215
		c0.267,0.817,0.53,1.631,0.664,2.448c0.267,1.021,0.397,2.141,0.133,3.162c-0.133,1.021-0.664,2.039-1.327,2.958"/>
	<path fill="#464353" d="M163.517,170.352c1.327-0.306,2.787-0.204,4.115,0.408c1.194,0.613,2.521,1.021,3.848,1.427
		c0.93,0.204,1.724,0.204,2.787,0.306c1.724,0.306,3.184,1.021,4.378,2.039c1.194,1.123,1.991,2.448,2.387,3.976
		c0.797,3.874,0.083,8.096-1.724,11.523c-1.13,2.144-3.506,4.589-1.916,6.322c1.327,1.123,6.957,2.141,7.887,3.568
		c0.53,1.021,0.664,2.141,1.06,3.162c1.06,1.733,2.787,3.162,4.911,3.772c2.124,0.613,4.115,1.427,5.972,2.448
		c3.451,2.039,5.442,6.118,9.423,6.934c0.133,0.102,0.397,0.102,0.664,0.102s0.397,0,0.664-0.102
		c0.133-0.102,0.267-0.306,0.397-0.51c0.133-0.204,0.133-0.408,0.133-0.613c0.133-0.817,0-1.529-0.267-2.243
		c-0.267-0.715-0.797-1.427-1.327-1.937c-0.93-0.919-2.387-1.529-2.787-2.754c-0.267-1.222,0.53-2.243,0.93-3.366
		c1.46-3.568-0.93-7.445-3.714-10.3c-2.654-2.856-5.972-5.712-6.635-9.382c-0.133-1.222-0.267-2.448-0.133-3.772
		c0-2.55-0.53-5.099-1.46-7.547c-0.397-1.325-1.194-2.55-2.124-3.568c-0.93-0.919-1.991-1.631-2.921-2.55
		c-1.194-1.529-2.257-3.06-3.184-4.691c-1.327-1.937-3.184-3.568-5.442-4.691s-4.645-1.733-7.166-1.835
		c-4.778,0-9.423,1.937-13.537,4.283c-1.46,0.715-2.787,1.835-3.848,3.06c-1.724,2.448-1.194,5.814-2.257,8.565
		c-0.93,2.856-3.318,4.895-4.248,7.649c-0.267,0.817-0.267,1.631-0.133,2.448c0.267,0.919,0.664,1.733,1.194,2.55
		c0.93,2.039,1.46,4.18,1.46,6.322c0.267,2.652,0.397,5.508-1.194,7.649c-1.194,1.325-2.654,2.448-4.248,3.366
		c1.724,1.222,3.848,1.835,5.972,1.631c3.318,0.102,7.032,0,9.023-2.345c1.194-1.733,1.724-3.67,1.327-5.712
		c-0.133-2.141-0.664-4.282-1.46-6.424c-1.06-2.856-2.787-5.61-3.318-8.667c-0.133-1.123-0.133-2.243,0.133-3.264
		c0.267-1.123,0.797-2.039,1.594-2.958c0.664-0.715,1.724-1.021,2.257-1.835C162.19,171.88,161.926,170.862,163.517,170.352z"/>
	<g opacity="0.1">
		<path opacity="0.1" enable-background="new    " d="M148.716,184.832c0.93,2.039,1.46,4.18,1.46,6.322
			c0,0.715,0.133,1.427,0.133,2.141c0.133-1.529,0.133-3.06,0-4.589c-0.133-2.141-0.664-4.282-1.594-6.22
			c-0.53-0.817-0.93-1.631-1.194-2.448c-0.267,0.817-0.267,1.631-0.133,2.448C147.789,183.301,148.186,184.118,148.716,184.832z"/>
		<path opacity="0.1" enable-background="new    " d="M160.13,199.313c-1.991,2.345-5.838,2.448-9.156,2.345
			c-1.327,0-2.787-0.204-4.115-0.613c-0.664,0.51-1.327,0.919-1.991,1.325c1.724,1.222,3.848,1.835,5.972,1.631
			c3.318,0.102,7.032,0,9.156-2.345c1.194-1.529,1.724-3.468,1.46-5.303C161.19,197.476,160.793,198.497,160.13,199.313z"/>
		<path opacity="0.1" enable-background="new    " d="M203.126,205.533c0,0.204,0.133,0.306,0.267,0.51
			c0.133-0.408,0.397-0.919,0.664-1.325c0.397-1.021,0.53-2.141,0.397-3.264c0,0.204-0.133,0.51-0.267,0.715
			C203.656,203.29,202.862,204.412,203.126,205.533z"/>
		<path opacity="0.1" enable-background="new    " d="M180.036,179.223c0.133-1.123,0.133-2.141,0-3.264
			c-0.397-1.529-1.194-2.856-2.387-3.976c-1.194-1.123-2.787-1.835-4.378-2.039c-0.93-0.102-1.857-0.102-2.654-0.306
			c-1.327-0.306-2.654-0.817-3.848-1.427c-1.194-0.613-2.654-0.715-4.115-0.408c-1.594,0.51-1.327,1.529-1.991,2.55
			c-0.53,0.715-1.594,1.123-2.257,1.835c-1.327,1.631-1.991,3.67-1.724,5.814c0.267-1.223,0.797-2.345,1.594-3.264
			c0.664-0.715,1.724-1.021,2.257-1.835c0.664-1.021,0.53-2.141,1.991-2.55c1.327-0.306,2.787-0.204,4.115,0.408
			c1.194,0.613,2.521,1.021,3.848,1.427c0.93,0.204,1.724,0.204,2.787,0.306c1.724,0.306,3.184,1.021,4.378,2.039
			c1.194,1.123,1.991,2.448,2.387,3.976C179.902,178.712,180.036,178.917,180.036,179.223z"/>
		<path opacity="0.1" enable-background="new    " d="M206.844,213.59c-0.397,0.102-0.797,0.102-1.194,0
			c-3.981-0.817-6.105-4.895-9.423-6.934c-1.857-1.021-3.981-1.835-5.972-2.448c-2.124-0.613-3.848-2.039-4.911-3.772
			c-0.53-1.021-0.53-2.141-1.06-3.162c-0.93-1.427-2.124-2.652-3.451-3.772c-1.46-1.529-2.257-3.468-2.521-5.508
			c-0.133,0.613-0.133,1.222-0.133,1.835c0,2.243,0.93,4.487,2.521,6.22c1.327,1.123,2.521,2.345,3.451,3.772
			c0.53,1.021,0.664,2.141,1.06,3.162c1.06,1.733,2.787,3.162,4.911,3.772c2.124,0.613,4.115,1.427,5.972,2.448
			c3.451,2.039,5.442,6.118,9.423,6.934c0.133,0.102,0.397,0.102,0.664,0.102s0.397,0,0.664-0.102
			c0.133-0.102,0.267-0.306,0.397-0.51c0.133-0.204,0.133-0.408,0.133-0.613c0.133-0.613,0-1.222-0.133-1.733
			C207.107,213.488,206.974,213.59,206.844,213.59z"/>
	</g>
	<path opacity="0.1" fill="#C7C7C7" enable-background="new    " d="M132.658,160.97h-22.163v28.758h22.163V160.97z"/>
	<path opacity="0.1" fill="#C7C7C7" enable-background="new    " d="M129.474,165.048h-15.791v20.496h15.791V165.048z"/>
	<path opacity="0.1" fill="#C7C7C7" enable-background="new    " d="M241.878,165.252h-36.361v17.235h36.361L241.878,165.252
		L241.878,165.252z"/>
	<path opacity="0.1" fill="#C7C7C7" enable-background="new    " d="M237.099,167.496h-26.938v12.748h26.938V167.496z"/>
</g>
<g>
	<path fill="#FFFFFF" d="M421.625,153.729H266.647v97.621h155v-97.621H421.625z"/>
	<path opacity="0.1" fill="#C7C7C7" enable-background="new    " d="M318.521,179.171h-43.232v2.654h43.232V179.171z"/>
	<path opacity="0.1" fill="#C7C7C7" enable-background="new    " d="M283.287,165.124h-4.155v14.048h4.155V165.124z"/>
	<path opacity="0.1" fill="#C7C7C7" enable-background="new    " d="M289.374,165.124h-4.155v14.048h4.155V165.124z"/>
	<path opacity="0.1" fill="#C7C7C7" enable-background="new    " d="M295.461,165.124h-4.155v14.048h4.155V165.124z"/>
	<path opacity="0.1" fill="#C7C7C7" enable-background="new    " d="M301.548,165.124h-4.155v14.048h4.155V165.124z"/>
	<path opacity="0.1" fill="#C7C7C7" enable-background="new    " d="M307.635,165.124h-4.155v14.048h4.155V165.124z"/>
	<path opacity="0.1" fill="#C7C7C7" enable-background="new    " d="M313.722,165.124h-4.155v14.048h4.155V165.124z"/>
	<path opacity="0.1" fill="#C7C7C7" enable-background="new    " d="M283.287,167.777h-4.155v1.516h4.155V167.777z"/>
	<path opacity="0.1" fill="#C7C7C7" enable-background="new    " d="M289.374,167.777h-4.155v1.516h4.155V167.777z"/>
	<path opacity="0.1" fill="#C7C7C7" enable-background="new    " d="M295.461,167.777h-4.155v1.516h4.155V167.777z"/>
	<path opacity="0.1" fill="#C7C7C7" enable-background="new    " d="M301.548,167.777h-4.155v1.516h4.155V167.777z"/>
	<path opacity="0.1" fill="#C7C7C7" enable-background="new    " d="M307.635,167.777h-4.155v1.516h4.155V167.777z"/>
	<path opacity="0.1" fill="#C7C7C7" enable-background="new    " d="M313.722,167.777h-4.155v1.516h4.155V167.777z"/>
	<path opacity="0.1" fill="#C7C7C7" enable-background="new    " d="M283.287,174.623h-4.155v1.516h4.155V174.623z"/>
	<path opacity="0.1" fill="#C7C7C7" enable-background="new    " d="M289.374,174.623h-4.155v1.516h4.155V174.623z"/>
	<path opacity="0.1" fill="#C7C7C7" enable-background="new    " d="M295.461,174.623h-4.155v1.516h4.155V174.623z"/>
	<path opacity="0.1" fill="#C7C7C7" enable-background="new    " d="M301.548,174.623h-4.155v1.516h4.155V174.623z"/>
	<path opacity="0.1" fill="#C7C7C7" enable-background="new    " d="M307.635,174.623h-4.155v1.516h4.155V174.623z"/>
	<path opacity="0.1" fill="#C7C7C7" enable-background="new    " d="M313.722,174.623h-4.155v1.516h4.155V174.623z"/>
	<path opacity="0.1" fill="#C7C7C7" enable-background="new    " d="M413.316,186.017h-43.232v2.654h43.232V186.017z"/>
	<path opacity="0.1" fill="#C7C7C7" enable-background="new    " d="M378.082,171.969h-4.155v14.048h4.155V171.969z"/>
	<path opacity="0.1" fill="#C7C7C7" enable-background="new    " d="M384.169,171.969h-4.155v14.048h4.155V171.969z"/>
	<path opacity="0.1" fill="#C7C7C7" enable-background="new    " d="M390.256,171.969h-4.176v14.048h4.155v-14.048H390.256z"/>
	<path opacity="0.1" fill="#C7C7C7" enable-background="new    " d="M396.343,171.969h-4.155v14.048h4.155V171.969z"/>
	<path opacity="0.1" fill="#C7C7C7" enable-background="new    " d="M402.43,171.969h-4.155v14.048h4.155V171.969z"/>
	<path opacity="0.1" fill="#C7C7C7" enable-background="new    " d="M408.495,171.969h-4.155v14.048h4.155V171.969z"/>
	<path opacity="0.1" fill="#C7C7C7" enable-background="new    " d="M378.082,174.623h-4.155v1.516h4.155V174.623z"/>
	<path opacity="0.1" fill="#C7C7C7" enable-background="new    " d="M384.169,174.623h-4.155v1.516h4.155V174.623z"/>
	<path opacity="0.1" fill="#C7C7C7" enable-background="new    " d="M390.256,174.623h-4.176v1.516h4.155v-1.516H390.256z"/>
	<path opacity="0.1" fill="#C7C7C7" enable-background="new    " d="M396.343,174.623h-4.155v1.516h4.155V174.623z"/>
	<path opacity="0.1" fill="#C7C7C7" enable-background="new    " d="M402.43,174.623h-4.155v1.516h4.155V174.623z"/>
	<path opacity="0.1" fill="#C7C7C7" enable-background="new    " d="M408.495,174.623h-4.155v1.516h4.155V174.623z"/>
	<path opacity="0.1" fill="#C7C7C7" enable-background="new    " d="M378.082,181.446h-4.155v1.516h4.155V181.446z"/>
	<path opacity="0.1" fill="#C7C7C7" enable-background="new    " d="M384.169,181.446h-4.155v1.516h4.155V181.446z"/>
	<path opacity="0.1" fill="#C7C7C7" enable-background="new    " d="M390.256,181.446h-4.176v1.516h4.155v-1.516H390.256z"/>
	<path opacity="0.1" fill="#C7C7C7" enable-background="new    " d="M396.343,181.446h-4.155v1.516h4.155V181.446z"/>
	<path opacity="0.1" fill="#C7C7C7" enable-background="new    " d="M402.43,181.446h-4.155v1.516h4.155V181.446z"/>
	<path opacity="0.1" fill="#C7C7C7" enable-background="new    " d="M408.495,181.446h-4.155v1.516h4.155V181.446z"/>
	<path opacity="0.1" fill="#C7C7C7" enable-background="new    " d="M413.316,205.394h-43.232v2.654h43.232V205.394z"/>
	<path opacity="0.1" fill="#C7C7C7" enable-background="new    " d="M378.082,191.324h-4.155v14.048h4.155V191.324z"/>
	<path opacity="0.1" fill="#C7C7C7" enable-background="new    " d="M384.169,191.324h-4.155v14.048h4.155V191.324z"/>
	<path opacity="0.1" fill="#C7C7C7" enable-background="new    " d="M390.256,191.324h-4.176v14.048h4.155v-14.048H390.256z"/>
	<path opacity="0.1" fill="#C7C7C7" enable-background="new    " d="M396.343,191.324h-4.155v14.048h4.155V191.324z"/>
	<path opacity="0.1" fill="#C7C7C7" enable-background="new    " d="M402.43,191.324h-4.155v14.048h4.155V191.324z"/>
	<path opacity="0.1" fill="#C7C7C7" enable-background="new    " d="M408.495,191.324h-4.155v14.048h4.155V191.324z"/>
	<path opacity="0.1" fill="#C7C7C7" enable-background="new    " d="M378.082,193.978h-4.155v1.516h4.155V193.978z"/>
	<path opacity="0.1" fill="#C7C7C7" enable-background="new    " d="M384.169,193.978h-4.155v1.516h4.155V193.978z"/>
	<path opacity="0.1" fill="#C7C7C7" enable-background="new    " d="M390.256,193.978h-4.176v1.516h4.155v-1.516H390.256z"/>
	<path opacity="0.1" fill="#C7C7C7" enable-background="new    " d="M396.343,193.978h-4.155v1.516h4.155V193.978z"/>
	<path opacity="0.1" fill="#C7C7C7" enable-background="new    " d="M402.43,193.978h-4.155v1.516h4.155V193.978z"/>
	<path opacity="0.1" fill="#C7C7C7" enable-background="new    " d="M408.495,193.978h-4.155v1.516h4.155V193.978z"/>
	<path opacity="0.1" fill="#C7C7C7" enable-background="new    " d="M378.082,200.823h-4.155v1.516h4.155V200.823z"/>
	<path opacity="0.1" fill="#C7C7C7" enable-background="new    " d="M384.169,200.823h-4.155v1.516h4.155V200.823z"/>
	<path opacity="0.1" fill="#C7C7C7" enable-background="new    " d="M390.256,200.823h-4.176v1.516h4.155v-1.516H390.256z"/>
	<path opacity="0.1" fill="#C7C7C7" enable-background="new    " d="M396.343,200.823h-4.155v1.516h4.155V200.823z"/>
	<path opacity="0.1" fill="#C7C7C7" enable-background="new    " d="M402.43,200.823h-4.155v1.516h4.155V200.823z"/>
	<path opacity="0.1" fill="#C7C7C7" enable-background="new    " d="M408.495,200.823h-4.155v1.516h4.155V200.823z"/>
	<path opacity="0.1" fill="#C7C7C7" enable-background="new    " d="M301.793,209.229c-0.333-0.491-0.622-1.003-0.889-1.539
		l6.22-1.204l-6.754,0.067c-0.644-1.672-1-3.478-1.044-5.307c-0.045-1.828,0.245-3.657,0.822-5.352l9.042,5.552l-8.331-7.269
		c0.778-1.606,1.822-2.988,3.088-4.103c1.244-1.093,2.688-1.873,4.199-2.297c1.51-0.424,3.088-0.446,4.621-0.112
		s2.999,1.048,4.287,2.096s2.399,2.386,3.221,3.947c0.844,1.561,1.399,3.323,1.622,5.151c0.244,1.828,0.156,3.702-0.245,5.485
		c-0.4,1.784-1.088,3.456-2.066,4.906c0.511,0.758,0.933,1.583,1.311,2.453l-8.064,4.972l8.62-3.411
		c0.6,2.118,0.755,4.393,0.444,6.6s-1.088,4.281-2.266,6.043c1.311,1.984,2.133,4.371,2.355,6.89
		c0.222,2.52-0.133,5.039-1.066,7.314s-2.377,4.192-4.176,5.53c-1.8,1.338-3.888,2.051-6.021,2.051s-4.221-0.714-6.021-2.051
		s-3.266-3.256-4.176-5.53c-0.933-2.275-1.311-4.817-1.066-7.314c0.222-2.52,1.044-4.906,2.355-6.89
		c-1.577-2.363-2.421-5.307-2.421-8.317C299.371,214.536,300.238,211.593,301.793,209.229L301.793,209.229z"/>
	<path opacity="0.1" fill="#C7C7C7" enable-background="new    " d="M322.053,217.546c0,3.01-0.844,5.953-2.421,8.317
		c1.311,1.984,2.133,4.371,2.355,6.89c0.222,2.52-0.133,5.039-1.066,7.314s-2.377,4.192-4.176,5.53
		c-1.8,1.338-3.888,2.051-6.021,2.051s-4.221-0.714-6.021-2.051s-3.266-3.256-4.176-5.53c-0.933-2.275-1.311-4.817-1.066-7.314
		c0.222-2.52,1.044-4.906,2.355-6.89C300.282,223.59,322.053,216.03,322.053,217.546z"/>
	<path opacity="0.2" fill="#3F3D56" enable-background="new    " d="M312.545,251.239c0.022,0.045,0.045,0.067,0.045,0.112h-3.843
		c0.022-0.045,0.045-0.067,0.045-0.112c-0.333-0.691-0.511-1.472-0.489-2.252c0-0.535,0.089-1.07,0.244-1.583
		c0.222,0.045,0.489,0.089,0.778,0.134c0.889,0.112,1.8,0.112,2.688,0c0.244-0.022,0.533-0.067,0.8-0.134v0.022
		c0.156,0.491,0.222,1.026,0.222,1.561C313.034,249.767,312.856,250.547,312.545,251.239z"/>
	<path opacity="0.1" fill="#C7C7C7" enable-background="new    " d="M298.683,251.35h-21.416c-0.045-0.156-0.089-0.312-0.133-0.446
		c-0.755-2.876-0.666-5.976,0.244-8.785c-2.088-1.717-3.643-4.214-4.398-7.091c-0.755-2.876-0.666-5.976,0.244-8.808
		c-0.422-0.357-0.844-0.736-1.222-1.16l5.643-3.345l-6.42,2.408c-1.022-1.36-1.822-2.965-2.31-4.705
		c-0.489-1.739-0.689-3.59-0.555-5.419l10.019,2.141l-9.775-4.014c0.356-1.806,1-3.501,1.933-4.995
		c0.933-1.494,2.088-2.743,3.443-3.657c1.355-0.936,2.843-1.516,4.398-1.739c1.555-0.223,3.11-0.045,4.621,0.491
		c1.489,0.535,2.866,1.427,4.065,2.631c1.177,1.204,2.155,2.676,2.843,4.348c0.689,1.672,1.066,3.478,1.133,5.329
		c0.066,1.85-0.2,3.702-0.755,5.419c0.666,0.557,1.288,1.182,1.844,1.895l-6.487,7.581l7.376-6.288
		c1.111,1.806,1.822,3.924,2.066,6.154c0.244,2.23,0.022,4.482-0.666,6.578c2.044,1.672,3.577,4.103,4.332,6.89
		C299.527,245.553,299.504,248.563,298.683,251.35z"/>
	<path opacity="0.1" fill="#C7C7C7" enable-background="new    " d="M298.683,251.35h-21.416c-0.045-0.156-0.089-0.29-0.133-0.446
		c-0.755-2.876-0.666-5.976,0.244-8.785c-2.022-1.65,16.906-16.478,17.306-15.051c0.755,2.876,0.666,5.976-0.245,8.808
		c2.044,1.672,3.555,4.103,4.332,6.89C299.527,245.553,299.504,248.563,298.683,251.35z"/>
	<path opacity="0.1" fill="#C7C7C7" enable-background="new    " d="M395.721,233.111c-1.311,2.587-3.31,4.593-5.687,5.664
		c0.111,0.959,0.111,1.94,0.045,2.899l-9.086-0.647l8.886,2.297c-0.578,3.211-2.155,6.065-4.377,8.027h-12.374v0.379h-12.597
		c0.022-0.134,0.045-0.246,0.089-0.379c0.467-2.074,1.333-3.969,2.533-5.552c1.2-1.583,2.711-2.81,4.377-3.59
		c-0.311-2.988,0.222-6.02,1.51-8.629c1.311-2.587,3.31-4.593,5.687-5.664c-0.066-0.624-0.089-1.227-0.089-1.85l5.865,2.743
		l-5.798-4.036c0.156-1.828,0.644-3.59,1.399-5.173c0.755-1.606,1.777-2.988,3.021-4.103l5.354,10.257l-3.999-11.283
		c2.177-1.449,4.71-1.984,7.176-1.561c2.466,0.424,4.754,1.828,6.487,3.947c1.733,2.118,2.843,4.884,3.133,7.827
		C397.521,227.603,396.988,230.591,395.721,233.111L395.721,233.111z"/>
	<path opacity="0.1" fill="#C7C7C7" enable-background="new    " d="M388.501,247.404c-0.778,1.539-1.8,2.899-3.021,3.947h-12.374
		v0.379h-12.574c0.022-0.134,0.045-0.268,0.089-0.379c0.467-2.074,1.333-3.969,2.533-5.552c1.2-1.583,2.711-2.81,4.377-3.59
		c-0.111-0.981,2.333-0.847,5.599-0.201C379.481,243.278,388.945,246.534,388.501,247.404z"/>
	<path fill="#F4C4B5" d="M335.417,211.633c0,0,1.01,9.816-2.433,13.071c-3.466,3.256,2.933,22.766,13.529,20.492
		c10.597-2.275,14.907-18.663,14.907-18.663s-10.604-2.599-6.672-15.822L335.417,211.633z"/>
	<path fill="#FECEB8" d="M344.269,218.26c9.686,0,17.55-9.321,17.55-20.826s-7.864-20.826-17.55-20.826s-17.551,9.321-17.551,20.826
		S334.583,218.26,344.269,218.26z"/>
	<path fill="#C7C7C7" d="M373.106,237.012v14.159h-57.961v-13.513c0-1.717,0.422-3.389,1.222-4.817
		c0.8-1.427,1.933-2.542,3.266-3.211l1.666-0.847c4.199-2.118,9.308-4.772,10.975-5.865c0.178-0.112,0.356-0.246,0.511-0.401
		c0.911-1.093,0.733,0.334,0.733,0.334s-0.022,0.267-0.045,0.736c-0.089,3.189,0.289,15.698,12.663,14.672
		c12.063-1.026,12.597-10.681,12.486-13.535c0-0.267-0.022-0.535-0.066-0.78c0-0.067,1.044,0.334,2.444,0.936
		c2.533,1.115,6.243,2.876,7.242,3.724c0.311,0.246,0.689,0.535,1.088,0.802c1.133,0.758,2.088,1.85,2.755,3.189
		C372.772,233.935,373.128,235.473,373.106,237.012L373.106,237.012z"/>
	<path opacity="0.1" enable-background="new    " d="M361.02,225.44c-1.022,5.619-4.221,16.144-15.796,16.411
		c-12.307,0.29-13.019-14.248-12.952-18.373c0.178-0.112,0.356-0.246,0.511-0.401c0.911-1.093,0.733,0.334,0.733,0.334
		s-1.555,16.59,12.618,15.385c14.173-1.204,12.441-14.315,12.441-14.315C358.577,224.437,359.62,224.838,361.02,225.44z"/>
	<g opacity="0.1">
		<path opacity="0.1" enable-background="new    " d="M366.219,188.47c-0.2,0.491-0.444,0.936-0.755,1.315
			c-0.578,0.736-1.355,1.294-1.955,2.007c-1.8,2.141-1.755,5.24-3.199,7.648c-0.133,0.267-0.356,0.468-0.6,0.58
			c-0.555,0.179-1.022-0.424-1.244-0.936c-0.289-0.624-0.489-1.315-0.622-2.007c-0.022,0.179-0.066,0.357-0.089,0.513
			c-0.244,1.762,0,3.59,0.711,5.173c0.222,0.513,0.689,1.115,1.244,0.936c0.244-0.112,0.467-0.312,0.6-0.58
			c1.444-2.386,1.399-5.507,3.199-7.626c0.6-0.714,1.378-1.271,1.955-2.007c0.444-0.535,0.778-1.182,0.955-1.895
			c0.178-0.713,0.2-1.472,0.066-2.208C366.419,189.072,366.33,188.782,366.219,188.47z"/>
		<path opacity="0.1" enable-background="new    " d="M362.309,173.709c-0.244,0.134-0.467,0.357-0.644,0.624
			c-0.089,0.267-0.089,0.535,0,0.802c0.156,0.78,0.378,1.539,0.644,2.275c0.489-0.379,0.844-0.981,1-1.65
			c0.156-0.691,0.089-1.405-0.178-2.029c-0.089-0.201-0.177-0.401-0.289-0.58C362.686,173.352,362.508,173.552,362.309,173.709z"/>
		<path opacity="0.1" enable-background="new    " d="M325.23,178.324c-1.489-1.449-2.466-3.523-2.755-5.775
			c-0.066,0.446-0.111,0.914-0.133,1.36c-0.089,2.163,0.4,4.326,1.378,6.154C324.031,179.283,324.564,178.659,325.23,178.324z"/>
		<path opacity="0.1" enable-background="new    " d="M357.754,193.911c0.156-1.115,0.511-2.319,0.045-3.345
			c-0.533-1.137-1.888-1.65-3.155-1.94c-1.244-0.29-2.621-0.535-3.488-1.449c-0.422-0.535-0.778-1.137-1.044-1.806
			c-0.578-1.249-1.422-2.497-2.711-3.032c-2.044-0.847-4.421,0.379-6.62-0.045c-0.622-0.134-1.222-0.379-1.866-0.513
			c-1.066-0.179-2.155-0.067-3.177,0.334c-2.999,1.16-4.932,4.103-5.821,7.158c-0.889,3.055-0.911,6.243-1.2,9.388
			c-0.066,0.78-0.489,1.806-1.267,1.606c-0.089-1.227-0.177-2.52-0.8-3.568c-0.644-1.07-1.999-1.806-3.177-1.36
			c-0.356-0.089-0.666-0.334-0.889-0.691c0.045,0.446,0.045,0.914-0.022,1.36c-0.066,0.58-0.244,1.137-0.2,1.717
			c0.045,0.312,0.178,0.624,0.378,0.847c0.2,0.223,0.444,0.379,0.711,0.446c1.155-0.446,2.533,0.312,3.177,1.36
			c0.644,1.07,0.733,2.341,0.8,3.568c0.755,0.201,1.2-0.825,1.267-1.606c0.289-3.144,0.311-6.355,1.2-9.388
			c0.889-3.032,2.843-5.976,5.821-7.158c1.022-0.424,2.111-0.535,3.177-0.357c0.622,0.134,1.222,0.379,1.866,0.513
			c2.177,0.424,4.554-0.802,6.62,0.045c1.288,0.535,2.111,1.784,2.711,3.032c0.267,0.669,0.622,1.271,1.044,1.806
			c0.866,0.914,2.244,1.16,3.488,1.449s2.51,0.758,3.088,1.806C357.732,194.067,357.754,194,357.754,193.911z"/>
		<path opacity="0.1" enable-background="new    " d="M322.609,192.35c0.066-0.936,0.022-1.873-0.133-2.787
			c-0.133,0.959-0.156,1.94-0.089,2.921c0.022,0.246,0.045,0.491,0.066,0.736C322.498,192.952,322.542,192.662,322.609,192.35z"/>
	</g>
</g>
<path fill="#FFFFFF" d="M343.454,235.46l-1.368-0.821l-7.113-7.25c0,0-0.684-0.273-0.821,2.189l-0.137,2.462l-4.651,3.557
	L335,251.092l15.501-0.212l11.968-13.779l-7.25-5.335l-1.368-3.146l-8.071,6.429L343.454,235.46z"/>
<path fill="#404054" d="M373.48,228.889c5.722,1.11,9.297,14.869,8.52,23.089c-8.389,0.085-78,0.251-78,0.251
	c-0.431-9.874,3.072-20.24,8.817-21.608c1.915-0.684,14.774-5.198,14.774-5.198s3.83-2.736,5.062-5.062
	c0.684-1.505,1.641-2.736,2.736-3.967l0,0l0,0c0,0,0,0,0.137-0.137l0,0l0.137-0.137l0,0l-0.273,10.533l8.878,24.965
	c0,0,4.254-9.37,7.127-16.62c1.641-4.104,2.462-9.165,3.01-12.859c0.056-2.701-0.652-4.701-0.652-4.701l1.062-0.087l0,0l0,0l0,0l0,0
	l0,0c0,0,0.137,0.137,0.273,0.273l0,0c0.821,1.231,3.557,4.788,5.472,4.924C363.268,224.939,368.797,226.83,373.48,228.889z"/>
<path fill="#454554" d="M331.841,173.655l-3.199-1.44c0,0,6.879-6.879,15.998-5.759l-2.4-3.039c0,0,6.399-2.24,11.838,4.799
	c2.88,3.68,6.079,7.999,8.159,12.798l3.36,0.16l-1.6,3.039l4.799,3.36l-5.119-0.96c0.32,2.72,0,5.439-0.8,7.999l-1.28,3.52
	c0,0-4.159-10.399-3.999-11.678l-0.16,3.2c0,0-3.039-3.039-2.88-4.959l-1.76,2.08l-0.8-3.52l-10.718,2.88l1.76-2.72l-6.559,0.64
	l2.72-3.36c0,0-7.519,3.68-7.999,7.199c-0.48,3.52-4.319,7.679-4.319,7.679l-1.6-3.199
	C325.282,192.372,323.363,177.974,331.841,173.655z"/>
<g>
	<path fill="#FFFFFF" d="M421.625,43.266h-155v97.694h155V43.266z"/>
	<path opacity="0.1" fill="#C7C7C7" enable-background="new    " d="M407.691,116.995c-2.257,3.366-5.575,6.015-9.686,7.343
		c0.133,1.222,0.267,2.55,0.133,3.772l-15.528-0.817l15.128,2.958c-1.06,4.18-3.714,7.853-7.432,10.403H369.34v0.51h-21.366
		c0-0.204,0-0.306,0.133-0.51c0.53-1.631,1.194-3.162,2.124-4.487c2.257-3.366,5.575-6.015,9.686-7.343
		c-0.53-3.874,0.397-7.853,2.521-11.217c2.257-3.366,5.575-5.916,9.686-7.343c-0.133-0.817-0.133-1.631-0.133-2.448l9.953,3.568
		l-9.82-5.303c0.267-2.345,1.06-4.691,2.387-6.73s3.051-3.874,5.175-5.303l9.023,13.358l-6.902-14.685
		c3.714-1.835,7.962-2.55,12.21-1.937c4.248,0.612,8.096,2.345,11.013,5.099c2.918,2.754,4.778,6.322,5.308,10.096
		C410.742,109.857,409.815,113.731,407.691,116.995L407.691,116.995z"/>
	<path opacity="0.1" fill="#C7C7C7" enable-background="new    " d="M395.481,135.657c-1.327,2.039-3.051,3.772-5.175,5.099H369.34
		v0.51h-21.366c0-0.204,0-0.306,0.133-0.51c0.53-1.631,1.194-3.162,2.124-4.487c2.257-3.366,5.575-6.015,9.686-7.343
		c-0.133-1.222,3.981-1.123,9.556-0.204C380.086,130.251,396.278,134.534,395.481,135.657z"/>
	<path opacity="0.1" fill="#C7C7C7" enable-background="new    " d="M272.464,116.995c2.257,3.366,5.575,6.015,9.686,7.343
		c-0.133,1.222-0.267,2.55-0.133,3.772l15.528-0.817l-15.128,2.958c1.06,4.18,3.714,7.853,7.432,10.403h20.966v0.51h21.366
		c0-0.204-0.133-0.306-0.133-0.51c-0.53-1.631-1.194-3.06-2.124-4.487c-2.257-3.366-5.575-5.916-9.686-7.343
		c0.53-3.874-0.397-7.853-2.521-11.217c-2.257-3.366-5.575-5.916-9.686-7.343c0.133-0.817,0.133-1.631,0.133-2.448l-9.953,3.568
		l9.82-5.303c-0.267-2.345-1.06-4.691-2.387-6.73s-3.051-3.874-5.175-5.303l-9.023,13.358l6.769-14.685
		c-3.714-1.835-7.962-2.55-12.21-1.937c-4.115,0.613-7.962,2.345-11.013,5.099s-4.778,6.322-5.308,10.096
		c-0.53,3.775,0.397,7.649,2.521,10.91h0.267v0.105L272.464,116.995L272.464,116.995z"/>
	<path opacity="0.1" fill="#C7C7C7" enable-background="new    " d="M284.671,135.657c1.327,2.039,3.051,3.772,5.175,5.099h20.966
		v0.51h21.366c0-0.204-0.133-0.306-0.133-0.51c-0.53-1.631-1.194-3.06-2.124-4.487c-2.257-3.366-5.575-5.916-9.686-7.343
		c0.133-1.222-3.981-1.123-9.556-0.204C300.065,130.251,283.874,134.534,284.671,135.657z"/>
	<path fill="#464353" d="M359.386,64.784h-34.637v35.079h34.637V64.784z"/>
	<path opacity="0.1" enable-background="new    " d="M359.386,64.784h-34.637v35.079h34.637V64.784z"/>
	<path fill="#FECEB8" d="M310.018,131.882l-0.664,9.075h9.953l0.664-12.033L310.018,131.882z"/>
	<path fill="#FECEB8" d="M362.041,131.882l-1.46,9.075h9.023l0.53-12.033L362.041,131.882z"/>
	<path fill="#A1616A" d="M333.375,82.322c0,0-0.397,4.589-1.594,5.712c-1.194,1.222,10.75,11.727,20.173,1.325
		c0,0-4.115-3.162-3.051-6.628C349.83,79.264,333.375,82.322,333.375,82.322z"/>
	<path fill="#FECEB8" d="M333.375,82.322c0,0-0.397,4.589-1.594,5.712c-1.194,1.222,10.75,11.727,20.173,1.325
		c0,0-4.115-3.162-3.051-6.628C349.83,79.264,333.375,82.322,333.375,82.322z"/>
	<path fill="#FECEB8" d="M342.484,86.403c9.822,0,17.868-7.238,17.868-16.154s-7.91-16.154-17.868-16.154
		c-9.822,0-17.868,7.238-17.868,16.154C324.753,79.165,332.663,86.403,342.484,86.403z"/>
	<path fill="#AAAAAA" d="M341.071,92.112c0,0-7.299-0.102-8.359-6.118c-1.46,1.123-2.921,2.141-4.511,3.162
		c-0.664,0.204-7.696,3.772-8.893,3.976c-1.327,0.204-2.521,0.817-3.451,1.529c-1.724,1.222-3.051,2.754-4.115,4.487
		c-1.06,1.733-1.594,3.67-1.594,5.712c-0.267,7.036-1.194,20.803-1.194,20.803l0.397,4.997v3.264c0,0,6.369,1.529,10.35-1.529
		c0,0,0-1.222,0.797-1.529c0.664-0.408,0.797-1.937,0.664-2.652c0-1.021,0-1.937,0-2.958c0.133,0.51,0.53,1.021,0.93,1.325
		c0.267,0.919,0.397,1.835,0.267,2.754c-0.397,0.613-0.797,2.141-0.397,2.448c0.133,0.306,0.267,0.613,0.267,0.919
		s-0.133,0.613-0.397,0.919c-0.664,0.817-1.194,1.733-1.594,2.754c0,0-0.397,1.937-0.797,2.141c-0.397,0.817-0.664,1.631-0.797,2.55
		h42.996c-0.797-1.937-1.327-3.976-1.724-6.118c0.133-1.021-1.06-4.997-0.267-6.118c1.194-1.427,1.857-3.162,1.857-4.997l0.53,4.18
		l-1.327,9.382c0,0,7.962,2.243,8.893,0.817c0.93-2.448,1.594-4.997,1.991-7.547c0,0,1.857-7.853,2.387-8.871
		c0.53-1.123,1.594-22.74-4.911-25.902c-6.502-3.162-18.579-8.565-18.976-8.259c-0.664,1.529-1.991,2.856-3.584,3.67
		C344.919,92.112,342.928,92.418,341.071,92.112z"/>
	<path opacity="0.1" fill="none" stroke="#000000" stroke-miterlimit="10" enable-background="new    " d="M320.368,113.323
		c-1.194,1.631-1.724,3.568-1.46,5.508c0.267,1.937,0.93,3.772,1.991,5.405"/>
	<path opacity="0.1" fill="none" stroke="#000000" stroke-miterlimit="10" enable-background="new    " d="M362.171,114.752
		c0.267,0.817,0.53,1.631,0.664,2.448c0.267,1.021,0.397,2.141,0.133,3.162c-0.133,1.021-0.664,2.039-1.327,2.958"/>
	<path fill="#464353" d="M352.173,57.402c-1.35-0.312-2.837-0.208-4.187,0.416c-1.215,0.624-2.565,1.039-3.916,1.453
		c-0.947,0.208-1.754,0.208-2.837,0.312c-1.754,0.312-3.241,1.039-4.455,2.076c-1.215,1.143-2.026,2.492-2.43,4.048
		c-0.811,3.944,1.754,7.787,1.754,11.732c0,2.284-0.947,4.464-2.565,6.228c-1.35,1.143-2.565,2.388-3.512,3.84
		c-0.54,1.039-0.675,2.18-1.079,3.219c-1.079,1.764-2.837,3.219-4.998,3.84c-2.162,0.624-4.187,1.453-6.077,2.492
		c-3.512,2.076-7.56-3.427-7.968-4.571c-1.486-3.633,0.947-7.58,3.78-10.487c2.701-2.908,6.077-5.815,6.753-9.552
		c0.136-1.245,0.271-2.492,0.136-3.84c0-2.596,0.54-5.192,1.486-7.683c0.404-1.349,1.215-2.596,2.162-3.633
		c0.947-0.935,2.026-1.66,2.973-2.596c1.215-1.556,2.297-3.115,3.241-4.776c1.35-1.972,3.241-3.633,5.538-4.776
		s4.727-1.764,7.292-1.868c4.862,0,9.589,1.972,13.777,4.36c1.486,0.728,2.837,1.868,3.916,3.116
		c1.754,2.492,1.215,5.919,2.297,8.72c0.947,2.908,3.376,4.984,4.323,7.787c0.271,0.832,0.271,1.66,0.136,2.492
		c-0.271,0.935-0.675,1.764-1.215,2.596c-0.947,2.076-1.486,4.256-1.486,6.436c-0.271,2.7-0.404,5.607,1.215,7.787
		c1.859,3.162-0.951,6.719-3.113,6.512c-3.376,0.104-5.798-1.424-7.824-3.812c-1.215-1.764-6.608-2.518-6.204-4.597
		c0.136-2.18,5.833-3.25,7.25-7.143c1.66-2.741,1.927-6.327,2.466-9.44c0.136-1.143,0.136-2.284-0.136-3.323
		c-0.271-1.143-0.811-2.076-1.622-3.012c-0.675-0.728-1.754-1.039-2.297-1.868C353.524,58.959,353.792,57.922,352.173,57.402z"/>
	<g opacity="0.1">
		<path opacity="0.1" enable-background="new    " d="M320.501,74.369c0.93,2.039,1.46,4.18,1.46,6.322
			c0,0.715,0.133,1.427,0.133,2.141c0.133-1.529,0.133-3.06,0-4.589c-0.133-2.141-0.664-4.282-1.594-6.22
			c-0.53-0.817-0.93-1.631-1.194-2.448c-0.267,0.817-0.267,1.631-0.133,2.448C319.574,72.838,319.971,73.655,320.501,74.369z"/>
		<path opacity="0.1" enable-background="new    " d="M331.915,88.85c-1.991,2.345-5.838,2.448-9.156,2.345
			c-1.327,0-2.787-0.204-4.115-0.613c-0.664,0.51-1.327,0.919-1.991,1.325c1.724,1.222,3.848,1.835,5.972,1.631
			c3.318,0.102,7.032,0,9.156-2.345c1.194-1.529,1.724-3.468,1.46-5.303C332.975,87.013,332.578,88.034,331.915,88.85z"/>
		<path opacity="0.1" enable-background="new    " d="M374.911,95.07c0,0.204,0.133,0.306,0.267,0.51
			c0.133-0.408,0.397-0.919,0.664-1.325c0.397-1.021,0.53-2.141,0.397-3.264c0,0.204-0.133,0.51-0.267,0.715
			C375.441,92.827,374.648,93.95,374.911,95.07z"/>
		<path opacity="0.1" enable-background="new    " d="M351.821,68.76c0.133-1.123,0.133-2.141,0-3.264
			c-0.397-1.529-1.194-2.856-2.387-3.976c-1.194-1.123-2.787-1.835-4.378-2.039c-0.93-0.102-1.857-0.102-2.654-0.306
			c-1.327-0.306-2.654-0.817-3.848-1.427c-1.194-0.613-2.654-0.715-4.115-0.408c-1.594,0.51-1.327,1.529-1.991,2.55
			c-0.53,0.715-1.594,1.123-2.257,1.835c-1.327,1.631-1.991,3.67-1.724,5.814c0.267-1.222,0.797-2.345,1.594-3.264
			c0.664-0.715,1.724-1.021,2.257-1.835c0.664-1.021,0.53-2.141,1.991-2.55c1.327-0.306,2.787-0.204,4.115,0.408
			c1.194,0.613,2.521,1.021,3.848,1.427c0.93,0.204,1.724,0.204,2.787,0.306c1.724,0.306,3.184,1.021,4.378,2.039
			c1.194,1.123,1.991,2.448,2.387,3.976C351.687,68.249,351.821,68.454,351.821,68.76z"/>
		<path opacity="0.1" enable-background="new    " d="M378.629,103.127c-0.397,0.102-0.797,0.102-1.194,0
			c-3.981-0.817-6.105-4.895-9.423-6.934c-1.857-1.021-3.981-1.835-5.972-2.448c-2.124-0.613-3.848-2.039-4.911-3.772
			c-0.53-1.021-0.53-2.141-1.06-3.162c-0.93-1.427-2.124-2.652-3.451-3.772c-1.46-1.529-2.257-3.468-2.521-5.508
			c-0.133,0.613-0.133,1.222-0.133,1.835c0,2.243,0.93,4.487,2.521,6.22c1.327,1.123,2.521,2.345,3.451,3.772
			c0.53,1.021,0.664,2.141,1.06,3.162c1.06,1.733,2.787,3.162,4.911,3.772c2.124,0.613,4.115,1.427,5.972,2.448
			c3.451,2.039,5.442,6.118,9.423,6.934c0.133,0.102,0.397,0.102,0.664,0.102s0.397,0,0.664-0.102
			c0.133-0.102,0.267-0.306,0.397-0.51c0.133-0.204,0.133-0.408,0.133-0.613c0.133-0.613,0-1.222-0.133-1.733
			C378.892,103.025,378.759,103.127,378.629,103.127z"/>
	</g>
	<path opacity="0.1" fill="#C7C7C7" enable-background="new    " d="M304.443,50.507H282.28v28.758h22.163V50.507z"/>
	<path opacity="0.1" fill="#C7C7C7" enable-background="new    " d="M301.259,54.585h-15.791v20.496h15.791L301.259,54.585
		L301.259,54.585z"/>
	<path opacity="0.1" fill="#C7C7C7" enable-background="new    " d="M413.663,54.789h-36.361v17.235h36.361V54.789L413.663,54.789z"
		/>
	<path opacity="0.1" fill="#C7C7C7" enable-background="new    " d="M408.885,57.033h-26.938v12.748h26.938V57.033z"/>
</g>
<path fill="#3F3D56" d="M380.014,251.478c-9.389,0-73.201,0.251-73.201,0.251"/>
<path fill="#3F3D56" d="M380.014,251.478c-9.514,0.197-73.201,0.251-73.201,0.251"/>
</svg>
