<?xml version="1.0" encoding="utf-8"?>
<!-- Generator: Adobe Illustrator 17.0.0, SVG Export Plug-In . SVG Version: 6.00 Build 0)  -->
<!DOCTYPE svg PUBLIC "-//W3C//DTD SVG 1.1//EN" "http://www.w3.org/Graphics/SVG/1.1/DTD/svg11.dtd">
<svg version="1.1" id="b4850822-491f-41e2-90b8-9be7376dfe8f"
	 xmlns="http://www.w3.org/2000/svg" xmlns:xlink="http://www.w3.org/1999/xlink" x="0px" y="0px" width="966px" height="689.223px"
	 viewBox="0 0 966 689.223" enable-background="new 0 0 966 689.223" xml:space="preserve">
<title>dev_productivity</title>
<circle fill="#FECEB8" cx="453.242" cy="118.405" r="73.536"/>
<path fill="#FECEB8" d="M406.882,165.831c14.92,27.709-18.118,118.297-18.118,118.297s148.138-1.066,126.823-12.789
	c-21.315-11.723-7.46-116.166-7.46-116.166L406.882,165.831z"/>
<path fill="#AFADBC" d="M403.433,235.326c0,0,24.23,16.3,55.14,18.43c0,0,37.31-5.57,45.3-24.1l112.43,49.68
	c0,0-0.05,0.36-0.15,1.06c-0.74,5.36-4.24,30.55-8.9,60.36c-5.79,37.04-13.34,81.21-19.56,103.33
	c-0.901,3.414-2.027,6.765-3.37,10.03l4.26,76.26l3.39,60.81l2.01,35.94l-20.31,15.62c0.152-4.299-0.082-8.603-0.7-12.86
	c-26.54,17.78-102.42,65.46-120.8,42.7c-6.09-7.55-1.6-17.78,8.17-28.67c-26.83-1.7-58.49-10.21-75.6-15.34
	c-2.45,9.75-3.97,17.37-3.97,17.37s-17.67-8.65-42.05-21.18l-4.01-33.58l-5.98-49.99l-8.99-75.25l-0.78-6.5l-26.05-118.69
	l-12.32-56.1L403.433,235.326z"/>
<path fill="#A0616A" d="M380.604,591.186l0.17-0.66c0,0,7.08-0.22,17.88-0.08c6.36,0.08,14,0.29,22.26,0.74
	c29.25,1.61,66.13,6.3,80.25,19.39c4.73,4.38,6.9,9.71,5.37,16.19c-3.57,15.07-23.09,18.63-46.19,17.15
	c-26.83-1.7-58.49-10.21-75.6-15.34c-7.74-2.31-12.5-3.94-12.5-3.94L380.604,591.186z"/>
<path fill="#393944" d="M398.667,97.612c-2.92,6.545-14.083,7.667-15.833,9.167s-2.667,5-2.667,5c-5.874-4.714-4-9.5-4-9.5
	l-1.831-6.532c0,0-0.671-8.335-0.502-6.238c0.169,2.097-0.164-0.901,0.333-4.73c0.315-1.455,0.333-3.333,0.333-3.333l3.846-12.332
	c-6.013-14.168,3.346-17.144,16.487-32.335c-7.333-3.667,7.667-13.833,16.833-17.333c9.167-3.5,24.131-6.648,45.5-6.333
	c39.667-1.833,55,30,55,30l3.398,1.757c40.602,35.046,10.615,90.386,10.615,90.386s-14.512-15.344-15.762-30.481
	s3.131-13.266-11.751-31.662C454.167,57.278,395,81.445,398.667,97.612z"/>
<path fill="#393944" d="M413.172,91.508"/>
<path fill="#AFADBC" d="M249.214,357.366c2.2-5.36,4.36-10.55,6.45-15.53c13.99-33.3,24.93-57.18,24.93-57.18h33.04l17.63,56.1
	l17.54,55.81l-29.06,69.38l-23.17,55.31l32.16,19.94l74.42,46.13c-1.49,0-3,1.15-4.5,3.12c-0.18,0.24-0.36,0.48-0.54,0.74
	c-5.15,7.47-10.09,24.34-13.37,37.39c-2.45,9.75-3.97,17.37-3.97,17.37s-17.67-8.65-42.05-21.18
	c-18.74-9.63-41.45-21.55-63.14-33.58c-9.09-5.04-18-10.11-26.37-15.03c-22.5-13.24-41.06-25.47-48.55-33.59
	C184.554,525.116,220.434,427.366,249.214,357.366z"/>
<path fill="#A0616A" d="M460.344,643.916c9.99-11.14,25.49-22.97,40.82-33.34c11.11-7.51,22.12-14.24,30.89-19.39
	c0.38-0.22,0.75-0.44,1.12-0.66c10.17-5.94,17.05-9.59,17.05-9.59l7.69,10.25l24.28,32.38c0,0-3.44,2.45-9.22,6.32
	c-26.54,17.78-102.42,65.46-120.8,42.7C446.084,665.036,450.574,654.806,460.344,643.916z"/>
<path fill="#AFADBC" d="M588.583,530.376l19.19-20.84l-20.08-65.45l-8.69-28.34l12.4-74.99l9.98-60.36h14.92
	c0,0,19.53,18.56,26.82,60.36c0.323,1.863,0.62,3.77,0.89,5.72l36.76,81.92l25.15,56.05c3.789,8.444,3.631,18.134-0.43,26.45
	c-7.19,14.72-15.452,28.892-24.72,42.4c-9.305,13.705-20.013,26.404-31.95,37.89c-13.76,13.01-29.63,24.04-47.44,30.25l-7.4,5.69
	l-20.31,15.62c0.152-4.299-0.082-8.603-0.7-12.86c-1.93-13.94-8.71-34.75-31.7-38.7c-2.676-0.45-5.386-0.67-8.1-0.66
	L588.583,530.376z"/>
<path display="none" fill="#2F2E41" d="M417.877,415.806l12.755,14.881c4.739-0.904,9.687-1.965,14.784-3.158l-3.663-11.723
	l8.958,10.45c53.997-13.281,120.927-39.101,120.927-39.101s-72.257,5.298-126.208-6.489c-23.871-5.215-48.431,6.618-58.226,29.002
	c-5.694,13.011-4.799,24.283,15.394,24.283c6.823-0.117,13.627-0.757,20.353-1.914L417.877,415.806z"/>
<path fill="#454554" d="M225.513,660.379c0.002-7.415,6.015-13.425,13.43-13.423h39.17v-2.83c0-0.001,0-0.001,0-0.002
	c0-0.309,0.251-0.558,0.56-0.558h13.43c0.001,0,0.001,0,0.002,0c0.309,0,0.558,0.251,0.558,0.56v2.83h8.39v-2.83
	c0-0.001,0-0.001,0-0.002c0-0.309,0.251-0.558,0.56-0.558h13.43c0.001,0,0.001,0,0.002,0c0.309,0,0.558,0.251,0.558,0.56v2.83h8.4
	v-2.83c-0.002-0.306,0.244-0.556,0.55-0.56h13.43c0.001,0,0.001,0,0.002,0c0.309,0,0.558,0.251,0.558,0.56v2.83h8.4v-2.83
	c0-0.001,0-0.001,0-0.002c0-0.309,0.251-0.558,0.56-0.558h13.43c0.001,0,0.001,0,0.002,0c0.309,0,0.558,0.251,0.558,0.56v2.83h8.39
	v-2.83c0-0.001,0-0.001,0-0.002c0-0.309,0.251-0.559,0.56-0.558h13.43c0.001,0,0.001,0,0.002,0c0.309,0,0.558,0.251,0.558,0.56v2.83
	h8.39v-2.83c0.003-0.308,0.252-0.557,0.56-0.56h13.43c0.001,0,0.001,0,0.002,0c0.309,0,0.558,0.251,0.558,0.56v2.83h8.4v-2.83
	c0-0.001,0-0.001,0-0.002c0-0.309,0.251-0.558,0.56-0.558h105.2c0.001,0,0.001,0,0.002,0c0.309,0,0.558,0.251,0.558,0.56v2.83h8.39
	v-2.83c0-0.001,0-0.001,0-0.002c0-0.309,0.251-0.558,0.56-0.558h13.43c0.001,0,0.001,0,0.002,0c0.309,0,0.558,0.251,0.558,0.56v2.83
	h8.4v-2.83c0-0.001,0-0.001,0-0.002c0-0.309,0.251-0.558,0.56-0.558h13.43c0.001,0,0.001,0,0.002,0c0.309,0,0.558,0.251,0.558,0.56
	v2.83h8.39v-2.83c0-0.001,0-0.001,0-0.002c0-0.309,0.251-0.558,0.56-0.558h13.43c0.001,0,0.001,0,0.002,0
	c0.309,0,0.558,0.251,0.558,0.56v2.83h8.39v-2.83c0-0.001,0-0.001,0-0.002c0-0.309,0.251-0.558,0.56-0.558h13.43
	c0.001,0,0.001,0,0.002,0c0.309,0,0.558,0.251,0.558,0.56v2.83h8.4v-2.83c0-0.001,0-0.001,0-0.002
	c0.001-0.309,0.251-0.558,0.56-0.558h13.43c0.001,0,0.001,0,0.002,0c0.309,0,0.559,0.251,0.558,0.56v2.83h8.39v-2.83
	c0-0.001,0-0.001,0-0.002c0.001-0.309,0.251-0.558,0.56-0.558h13.43c0.001,0,0.001,0,0.002,0c0.309,0,0.559,0.251,0.558,0.56v2.83
	h25.74c0.002,0,0.005,0,0.007,0c7.415,0.002,13.425,6.015,13.423,13.43v6.07c0.003,1.666-0.305,3.318-0.91,4.87
	c-0.269,0.692-0.593,1.361-0.97,2c-2.425,4.07-6.813,6.562-11.55,6.56h-446.55c-4.737,0.002-9.125-2.49-11.55-6.56
	c-0.377-0.639-0.701-1.308-0.97-2c-0.605-1.552-0.913-3.204-0.91-4.87v-6.07C225.513,660.384,225.513,660.381,225.513,660.379z"/>
<rect x="95.664" y="671.326" fill="#3F3D56" width="733" height="2"/>
<path fill="#454554" d="M250.21,416.015v227.912c0,6.218,5.041,11.259,11.259,11.259h409.044c6.218,0,11.259-5.041,11.259-11.259
	V416.016l0,0c0-6.218-5.041-11.259-11.259-11.259H503.384v-3.431h-75.472v3.431H261.469
	C255.252,404.757,250.211,409.797,250.21,416.015z"/>
<circle fill="none" stroke="#AFADBC" stroke-width="2" stroke-miterlimit="10" cx="465.664" cy="484.326" r="25"/>
<circle fill="#AFADBC" cx="473.664" cy="493.326" r="25"/>
<path fill="#393944" d="M115.713,639.223v34h34v-34H115.713z M117.194,640.703h31.05v31.04h-31.05V640.703z"/>
<circle fill="#AFADBC" cx="798.198" cy="624.118" r="53.208"/>
<path fill="#393944" d="M779.656,560.888c-23.698,3.075-42.891,20.742-47.917,44.104c-6.553,30.474,12.839,60.491,43.313,67.044
	c2.725,0.588,5.49,0.971,8.272,1.145c1.185,0.073,2.386,0.113,3.587,0.113c31.154-0.031,56.402-25.279,56.433-56.433
	c0-0.693-0.016-1.387-0.04-2.072c-0.172-4.929-0.996-9.814-2.451-14.527c-6.534-21.118-24.768-36.496-46.686-39.374
	C789.349,560.275,784.474,560.275,779.656,560.888L779.656,560.888z M769.249,668.765c-22.218-7.563-37.157-28.428-37.158-51.897
	c-0.001-30.278,24.542-54.826,54.821-54.827c29.455,0.039,53.63,23.317,54.781,52.749c0.024,0.685,0.04,1.379,0.04,2.072
	c-0.037,30.262-24.56,54.784-54.821,54.821c-1.201,0-2.402-0.041-3.587-0.121c-4.792-0.306-9.523-1.246-14.068-2.797H769.249
	L769.249,668.765z"/>
<rect x="786.105" y="565.266" fill="#393944" width="1.612" height="11.287"/>
<rect x="818.599" y="578.725" transform="matrix(-0.7071 -0.7071 0.7071 -0.7071 985.6005 1576.9857)" fill="#393944" width="1.612" height="11.287"/>
<rect x="827.221" y="616.056" fill="#393944" width="11.287" height="1.612"/>
<rect x="818.599" y="643.711" transform="matrix(0.7071 -0.7071 0.7071 0.7071 -219.1648 769.5981)" fill="#393944" width="1.612" height="11.287"/>
<rect x="753.612" y="578.724" transform="matrix(0.7071 -0.7071 0.7071 0.7071 -192.246 704.6115)" fill="#393944" width="1.612" height="11.287"/>
<rect x="735.315" y="616.056" fill="#393944" width="11.287" height="1.612"/>
<rect x="753.611" y="643.712" transform="matrix(-0.7071 -0.7071 0.7071 -0.7071 828.7068 1641.9717)" fill="#393944" width="1.612" height="11.287"/>
<rect x="786.105" y="657.171" fill="#393944" width="1.612" height="11.287"/>
<path fill="#393944" d="M784.494,613.637c-1.582,1.186-2.07,3.345-1.153,5.096c1.033,1.973,3.47,2.734,5.442,1.701
	c1.973-1.033,2.734-3.47,1.701-5.442c-0.282-0.53-0.676-0.992-1.153-1.355C787.898,612.562,785.927,612.562,784.494,613.637
	L784.494,613.637z M786.911,619.281c-0.793-0.001-1.534-0.391-1.986-1.044c-0.757-1.098-0.482-2.603,0.616-3.361
	c1.098-0.757,2.603-0.482,3.361,0.616c0.275,0.405,0.424,0.882,0.427,1.371C789.326,618.197,788.245,619.277,786.911,619.281
	L786.911,619.281z"/>
<rect x="779.656" y="546.724" fill="#393944" width="14.511" height="14.511"/>
<ellipse fill="#393944" cx="786.911" cy="542.29" rx="19.348" ry="6.853"/>
<rect x="784.493" y="586.227" fill="#393944" width="4.837" height="27.41"/>
<rect x="710.064" y="670.839" fill="#393944" width="151.564" height="1.612"/>
<path fill="#FF825C" d="M135.112,528.402c0,0,0.055,0.056,0.164,0.169l0.005,0.003c2.864,2.955,41.031,42.908,40.133,73.658
	c-0.868,29.713-17.64,40.96-38.828,41.84c-1.066,0.044-2.142,0.062-3.228,0.054c-0.539-0.003-1.081-0.013-1.625-0.029
	c-23.428-0.684-42.096-12.393-41.163-44.343C91.502,567.807,135.112,528.402,135.112,528.402z"/>
<path fill="#393944" d="M133.767,612.504l-17.117-33.608l17.169,29.411l0.156-12.03l-11.762-24.294l11.806,21.114l0.28-21.634
	l-12.787-19.444l12.83,16.041l0.934-39.491l0.005-0.164v0.167l-0.147,50.108l14.117-20.284l-14.077,24.533l0.557,24.186l0.058-0.639
	l16.279-21.399l-16.298,23.663l0.071,3.025l0.027,0.048l-0.02,0.247l0.738,32.012c-1.066,0.044-2.142,0.062-3.228,0.054l0.031-2.49
	l-14.852-24.512l14.882,22.131L133.767,612.504z"/>
</svg>
