<?xml version="1.0" encoding="utf-8"?>
<!-- Generator: Adobe Illustrator 17.0.0, SVG Export Plug-In . SVG Version: 6.00 Build 0)  -->
<!DOCTYPE svg PUBLIC "-//W3C//DTD SVG 1.1//EN" "http://www.w3.org/Graphics/SVG/1.1/DTD/svg11.dtd">
<svg version="1.1" id="Capa_1" xmlns="http://www.w3.org/2000/svg" xmlns:xlink="http://www.w3.org/1999/xlink" x="0px" y="0px"
	 width="612px" height="792px" viewBox="0 0 612 792" enable-background="new 0 0 612 792" xml:space="preserve">
<g>
	<g>
		<path fill="#4B4B4B" d="M306.081,90C137.348,90,0,227.348,0,396.081s137.348,306.081,306.081,306.081
			s306.081-137.348,306.081-306.081C612,227.348,474.814,90,306.081,90z M306.081,651.526
			c-140.907,0-255.607-114.699-255.607-255.607s114.699-255.607,255.607-255.607s255.607,114.699,255.607,255.607
			C561.526,536.988,446.988,651.526,306.081,651.526z"/>
		<path fill="#4B4B4B" d="M331.156,386.051V212.626c0-13.913-11.324-25.237-25.237-25.237c-13.913,0-25.237,11.324-25.237,25.237
			v183.293c0,7.765,3.721,14.722,9.221,19.413c0.162,0.324,0.324,0.647,0.647,0.809l94.477,107.419
			c5.015,5.662,11.971,8.574,18.928,8.574c5.986,0,11.81-2.103,16.663-6.309c10.515-9.221,11.486-25.075,2.265-35.591
			L331.156,386.051z"/>
	</g>
</g>
</svg>
