<?xml version="1.0" encoding="utf-8"?>
<!-- Generator: Adobe Illustrator 17.0.0, SVG Export Plug-In . SVG Version: 6.00 Build 0)  -->
<!DOCTYPE svg PUBLIC "-//W3C//DTD SVG 1.1//EN" "http://www.w3.org/Graphics/SVG/1.1/DTD/svg11.dtd">
<svg version="1.1" id="b3347a10-18dd-4c71-91c3-38a98340ba03"
	 xmlns="http://www.w3.org/2000/svg" xmlns:xlink="http://www.w3.org/1999/xlink" x="0px" y="0px" width="1086px"
	 height="774.364px" viewBox="0 0 1086 774.364" enable-background="new 0 0 1086 774.364" xml:space="preserve">
<title>project_completed</title>
<rect y="720.646" fill="#454554" width="1086" height="2.241"/>
<path fill="#FECEB8" d="M709.53,335.81c0,0-43.217,33.956-21.609,41.674s35.5-27.783,35.5-27.783L709.53,335.81z"/>
<path fill="#AFADBC" d="M712.068,323.463l-9.261,15.435c0,0,15.435,0,18.522,23.152l12.348-15.435L712.068,323.463z"/>
<polygon fill="#FECEB8" points="917.35,675.375 918.894,721.679 900.372,732.483 892.655,727.853 894.198,675.375 "/>
<path fill="#FECEB8" d="M807.763,663.027l3.087,49.391l-43.217,18.522l3.087-26.239c0,0,12.348-20.065,9.261-41.674L807.763,663.027
	z"/>
<path fill="#393944" d="M874.133,291.05c0,0,24.696,64.826,29.326,104.956s12.348,146.63,12.348,146.63l15.435,137.369
	l-43.217,6.174l-18.522-138.913l-41.674-137.369l-9.261,137.369l-7.717,125.021l-40.13,1.543l-3.087-129.652l-16.978-165.152
	l9.261-78.717L874.133,291.05z"/>
<path fill="#393944" d="M897.285,724.766c0,0,2.532-25.923,21.331-11.418l3.365-2.473l15.435,33.956
	c0,0,18.522,26.239-13.891,29.326s-29.326-29.326-29.326-29.326l-3.087-13.891l1.543-9.097L897.285,724.766z"/>
<path fill="#393944" d="M807.763,693.896c7.737,4.424,12.465,12.697,12.348,21.609c0,15.435-1.543,16.978-1.543,16.978
	l-23.152,6.174c0,0-15.435-1.543-24.696,7.717s-55.565,15.435-55.565,3.087s38.587-32.413,38.587-32.413
	s11.459-19.352,19.621-17.393s11.249,5.046,11.249,6.589s-4.63,12.348-4.63,12.348S806.22,712.418,807.763,693.896z"/>
<circle fill="#FECEB8" cx="804.677" cy="62.616" r="38.587"/>
<path fill="#FECEB8" d="M833.231,72.648l16.978,38.587l-46.304,66.369c0,0-3.087-72.543-12.348-84.891
	S833.231,72.648,833.231,72.648z"/>
<polygon fill="#AFADBC" points="811.622,152.909 819.34,132.844 825.513,134.387 833.231,128.213 844.035,94.257 859.47,105.061 
	879.535,307.256 754.514,310.343 771.492,169.887 786.927,129.757 798.068,115.028 805.448,137.474 "/>
<path fill="#454554" d="M847.122,239.343l4.723-139.62c0,0,9.168,0.707,12.255,5.337s54.022,13.891,54.022,13.891l-9.261,143.543
	c0,0,38.587,114.217,24.696,120.391s-38.587,4.63-38.587,4.63L847.122,239.343z"/>
<path fill="#454554" d="M772.264,221.593l16.374-94.098l-36.439,24.642l9.261,67.913l-7.717,46.304
	c0,0-29.326,128.108-20.065,132.739s20.065,0,20.065,0l18.522-129.652L772.264,221.593L772.264,221.593z"/>
<path fill="#454554" d="M763.003,149.05l-10.804,3.087l-4.63,61.739l-7.717,54.022l-37.043,66.369c0,0,18.522-12.348,26.239,23.152
	l40.796-71.026L763.003,149.05z"/>
<path fill="#FECEB8" d="M883.394,323.463c0,0-43.217,33.956-21.609,41.674s35.5-27.783,35.5-27.783L883.394,323.463z"/>
<polygon fill="#AFADBC" points="909.633,340.441 895.742,357.419 877.22,325.006 884.937,311.115 "/>
<path fill="#454554" d="M906.546,124.355l12.348-6.174c0,0,9.261,12.348,10.804,23.152s9.261,24.696,9.261,32.413
	s21.609,80.261,21.609,80.261l-49.391,100.326c0,0-10.804-37.043-33.956-40.13l38.587-54.022l-21.609-38.587L906.546,124.355z"/>
<path fill="#393944" d="M766.09,65.765c0,0,3.259-7.437,5.835-10.552c2.575-3.115,7.659-3.782,12.242-7.532
	c4.583-3.75,9-7,25.333-5.667c16.333,1.333,11.734,10.499,22.496,9.025s4.32-0.428,4.981,7.583s5.696,15.602,5.696,15.602
	s14.677-40.952-4.506-51.876L812.5,8.682c0,0-25.437-7.626-38.667,7.667c-6.955,8.039-5.983,6.687-11,17.333c0,0-1.491,2.5-1.662,6
	c-0.171,3.5,0.579,6,0.496,9.694c-1.027,4.782-1.825,7.722-0.496,10.056"/>
<ellipse fill="#FFB8B8" cx="836.318" cy="55.442" rx="4.322" ry="5.402"/>
<polygon fill="#393944" points="240.606,318.118 107.366,318.118 107.366,280.782 176.915,280.782 "/>
<path fill="#454554" d="M107,312.994v109.081h432.665V312.994H107z M275.747,403.773H135.186v-15.374h140.561V403.773z
	 M511.48,375.221H135.186v-15.374H511.48V375.221z M511.48,346.67H135.186v-15.374H511.48V346.67z"/>
<polygon fill="#393944" points="240.606,141.685 107.366,141.685 107.366,104.348 176.915,104.348 "/>
<path fill="#454554" d="M107,138.756v109.081h432.665V138.756H107z M275.747,229.535H135.186v-15.374h140.561V229.535z
	 M357.009,200.984H135.186V185.61h221.823V200.984z M511.48,172.432H135.186v-15.374H511.48V172.432z"/>
<polygon fill="#393944" points="240.606,490.891 107.366,490.891 107.366,453.555 176.915,453.555 "/>
<path fill="#454554" d="M107,483.57v109.081h432.665V483.57H107z M357.009,574.35H135.186v-15.374h221.823V574.35z M357.009,545.798
	H135.186v-15.374h221.823V545.798z M511.48,517.247H135.186v-15.374H511.48V517.247z"/>
<polygon fill="#393944" stroke="#454554" stroke-width="3" stroke-miterlimit="10" points="636.93,236.496 557.398,236.496 
	557.398,156.964 611.366,156.964 611.366,158.857 559.292,158.857 559.292,234.603 635.036,234.603 635.036,196.73 636.93,196.73 
	"/>
<path fill="#FF825C" stroke="#FF825C" stroke-width="10" stroke-miterlimit="10" d="M596.754,215.752
	c-1.838-5.427-24.885-23.874-10.763-26.974l11.581,15.443l53.247-53.246l5.355,5.355L596.754,215.752z"/>
<polygon fill="#393944" stroke="#454554" stroke-width="3" stroke-miterlimit="10" points="636.93,407.432 557.398,407.432 
	557.398,327.9 611.366,327.9 611.366,329.795 559.292,329.795 559.292,405.538 635.036,405.538 635.036,367.666 636.93,367.666 "/>
<path fill="#FF825C" stroke="#FF825C" stroke-width="10" stroke-miterlimit="10" d="M596.754,386.688
	c-1.838-5.427-24.885-23.874-10.763-26.974l11.581,15.443l53.247-53.246l5.355,5.355L596.754,386.688z"/>
<polygon fill="#393944" stroke="#454554" stroke-width="3" stroke-miterlimit="10" points="636.93,580.421 557.398,580.421 
	557.398,500.89 611.366,500.89 611.366,502.784 559.292,502.784 559.292,578.528 635.036,578.528 635.036,540.655 636.93,540.655 
	"/>
<path fill="#FF825C" stroke="#FF825C" stroke-width="10" stroke-miterlimit="10" d="M596.754,559.677
	c-1.838-5.427-24.885-23.874-10.763-26.974l11.581,15.443l53.247-53.246l5.355,5.355L596.754,559.677z"/>
</svg>
