<?xml version="1.0" encoding="utf-8"?>
<!-- Generator: Adobe Illustrator 17.0.0, SVG Export Plug-In . SVG Version: 6.00 Build 0)  -->
<!DOCTYPE svg PUBLIC "-//W3C//DTD SVG 1.1//EN" "http://www.w3.org/Graphics/SVG/1.1/DTD/svg11.dtd">
<svg version="1.1" id="Layer_1" xmlns="http://www.w3.org/2000/svg" xmlns:xlink="http://www.w3.org/1999/xlink" x="0px" y="0px"
	 width="160px" height="114.646px" viewBox="-10 7.828 160 114.646" enable-background="new -10 7.828 160 114.646"
	 xml:space="preserve">
<g opacity="0.5">
	<path opacity="0.5" fill="#3F3F3F" enable-background="new    " d="M100.484,10.07l-64.43,0.137
		c-0.348,0.001-0.692,0.061-1.013,0.178c-0.321,0.117-0.612,0.288-0.858,0.504c-0.245,0.215-0.44,0.471-0.572,0.752
		c-0.132,0.281-0.2,0.582-0.199,0.886l0.293,105.331c0.001,0.303,0.07,0.605,0.204,0.885c0.134,0.28,0.33,0.536,0.576,0.75
		c0.247,0.215,0.539,0.385,0.861,0.5c0.322,0.115,0.666,0.175,1.014,0.174l64.43-0.137c0.348-0.001,0.692-0.061,1.013-0.179
		s0.613-0.288,0.858-0.504c0.245-0.216,0.44-0.471,0.572-0.752c0.132-0.282,0.199-0.584,0.198-0.887l-0.293-105.331
		c0-0.304-0.07-0.604-0.204-0.885c-0.133-0.28-0.329-0.535-0.576-0.749c-0.246-0.214-0.539-0.384-0.86-0.499
		C101.176,10.128,100.832,10.069,100.484,10.07z"/>
</g>
<path fill="#FFFFFF" d="M99.55,11.508l-62.556,0.134c-1.46,0.003-2.64,1.04-2.637,2.316l0.286,102.413
	c0.004,1.276,1.19,2.308,2.65,2.305l62.556-0.134c1.46-0.003,2.64-1.039,2.637-2.316L102.2,13.813
	C102.196,12.537,101.01,11.505,99.55,11.508z"/>
<path opacity="0.4" fill="#C7C7C7" enable-background="new    " d="M85.323,14.221c-0.193,1.135-0.844,2.173-1.836,2.925
	c-0.992,0.752-2.259,1.169-3.572,1.176l-23.433,0.049c-1.312-0.002-2.58-0.414-3.575-1.162c-0.995-0.748-1.651-1.782-1.851-2.915
	l-12.411,0.027c-0.338,0.001-0.673,0.06-0.986,0.173c-0.312,0.114-0.596,0.28-0.835,0.49c-0.239,0.21-0.428,0.458-0.557,0.732
	c-0.129,0.274-0.195,0.567-0.194,0.862l0.269,97.163c0.001,0.297,0.068,0.589,0.199,0.863c0.13,0.273,0.321,0.521,0.561,0.729
	c0.24,0.209,0.525,0.374,0.838,0.487c0.313,0.112,0.649,0.17,0.987,0.169l59.295-0.125c0.338-0.001,0.673-0.06,0.986-0.174
	c0.312-0.114,0.596-0.28,0.835-0.49c0.239-0.209,0.428-0.458,0.557-0.731c0.129-0.274,0.195-0.567,0.194-0.863l-0.269-97.163
	c-0.001-0.296-0.068-0.589-0.198-0.862c-0.13-0.273-0.321-0.521-0.561-0.73c-0.24-0.209-0.524-0.374-0.837-0.487
	c-0.313-0.113-0.648-0.17-0.987-0.17L85.323,14.221z"/>
<path fill="#DBDBDB" d="M74.835,15.453l-14.342,0.188c-0.214,0.003-0.385,0.157-0.382,0.344l0.003,0.149
	c0.003,0.187,0.179,0.336,0.393,0.334l14.342-0.188c0.214-0.003,0.385-0.157,0.382-0.344l-0.003-0.149
	C75.225,15.599,75.049,15.45,74.835,15.453z"/>
<path fill="#DBDBDB" d="M78.446,16.231c0.313-0.004,0.564-0.23,0.559-0.504c-0.005-0.274-0.263-0.493-0.576-0.489
	c-0.314,0.004-0.564,0.23-0.559,0.504C77.875,16.016,78.133,16.235,78.446,16.231z"/>
<g opacity="0.5">
	
		<linearGradient id="SVGID_1_" gradientUnits="userSpaceOnUse" x1="48.8449" y1="-23091.5078" x2="48.8449" y2="-16431.8477" gradientTransform="matrix(1 0 0 -1 8.34 105.04)">
		<stop  offset="0" style="stop-color:#808080;stop-opacity:0.25"/>
		<stop  offset="0.54" style="stop-color:#808080;stop-opacity:0.12"/>
		<stop  offset="1" style="stop-color:#808080;stop-opacity:0.1"/>
	</linearGradient>
	<path opacity="0.5" fill="url(#SVGID_1_)" enable-background="new    " d="M76.34,88.089c0.001-2.891-0.854-5.732-2.482-8.249
		c-1.628-2.516-3.974-4.621-6.809-6.109c-2.835-1.489-6.063-2.31-9.369-2.385c-3.306-0.075-6.578,0.6-9.497,1.959
		c-2.919,1.359-5.386,3.355-7.161,5.794c-1.775,2.439-2.796,5.239-2.966,8.126c-0.17,2.887,0.519,5.763,1.998,8.348
		s3.7,4.792,6.444,6.404l0.012,0.075c0.626,0.524,1.364,0.935,2.172,1.207l0.025-0.074c0.897,0.678,4.674,1.75,9.013,1.739h0.095
		c2.748,0,5.732-0.423,8.356-1.665c0,0,0.023-0.044,0.058-0.127c0.665-0.273,1.275-0.638,1.806-1.081
		c0.01-0.064,0.021-0.128,0.031-0.19c2.553-1.538,4.64-3.595,6.081-5.994C75.588,93.469,76.34,90.799,76.34,88.089z"/>
</g>
<path fill="#F5F5F5" d="M57.183,104.332c10.262,0,18.581-7.271,18.581-16.241c0-8.97-8.319-16.241-18.581-16.241
	s-18.581,7.271-18.581,16.241C38.601,97.061,46.92,104.332,57.183,104.332z"/>
<path fill="#C7C7C7" d="M50.085,94.77c0,0-4.428,0.317-3.255,7.366c0.606,0.51,1.322,0.91,2.106,1.176l2.49-7.366L50.085,94.77z"/>
<path fill="#C7C7C7" d="M64.451,94.77c0,0,4.428,0.317,3.255,7.366c-0.606,0.51-1.322,0.91-2.106,1.176l-2.49-7.369L64.451,94.77z"
	/>
<path opacity="0.1" enable-background="new    " d="M64.366,94.77H50.002l-1.341,5.024c0,0-0.787,2.326,0.194,3.349
	c0.98,1.023,10.131,3.348,16.858,0.169c0.587-1.339,0.655-2.809,0.194-4.185c-0.775-2.345-0.194-0.17-0.194-0.17L64.366,94.77z"/>
<path opacity="0.1" enable-background="new    " d="M64.558,94.77H50.191l-1.341,5.024c0,0-0.787,2.326,0.194,3.349
	s10.131,3.348,16.858,0.169c0.587-1.339,0.655-2.809,0.194-4.185c-0.775-2.345-0.194-0.17-0.194-0.17L64.558,94.77z"/>
<path fill="#C7C7C7" d="M64.452,94.77H50.085l-1.341,5.024c0,0-0.787,2.326,0.194,3.349c0.981,1.023,10.131,3.348,16.859,0.169
	c0.587-1.339,0.655-2.809,0.194-4.185c-0.775-2.345-0.194-0.17-0.194-0.17L64.452,94.77z"/>
<path opacity="0.1" enable-background="new    " d="M54.491,90.601h5.751v4.861c0,0.219-0.049,0.436-0.145,0.638
	c-0.096,0.202-0.237,0.386-0.414,0.541c-0.177,0.155-0.388,0.278-0.619,0.362c-0.232,0.084-0.48,0.127-0.73,0.127h-1.938
	c-0.506,0-0.992-0.176-1.35-0.489c-0.358-0.313-0.559-0.737-0.559-1.18v-4.861H54.491z"/>
<path fill="#FCBEBE" d="M54.491,90.416h5.751v4.861c0,0.219-0.049,0.436-0.145,0.638s-0.237,0.386-0.414,0.541
	c-0.177,0.155-0.388,0.278-0.619,0.362c-0.232,0.084-0.48,0.127-0.73,0.127h-1.938c-0.506,0-0.992-0.176-1.35-0.489
	c-0.358-0.313-0.559-0.737-0.559-1.18v-4.861H54.491z"/>
<path opacity="0.1" enable-background="new    " d="M54.503,91.14c1.852,0.605,3.891,0.61,5.747,0.014v-0.617h-5.747V91.14z"/>
<path fill="#FCBEBE" d="M57.384,91.477c4.549,0,8.237-3.223,8.237-7.2c0-3.976-3.688-7.2-8.237-7.2c-4.549,0-8.237,3.224-8.237,7.2
	C49.147,88.253,52.835,91.477,57.384,91.477z"/>
<path fill="#FDA57D" d="M49.319,85.226c0.423,0,0.765-0.562,0.765-1.255c0-0.693-0.343-1.255-0.765-1.255
	c-0.423,0-0.766,0.562-0.766,1.255C48.554,84.664,48.897,85.226,49.319,85.226z"/>
<path fill="#FDA57D" d="M65.408,85.226c0.423,0,0.765-0.562,0.765-1.255c0-0.693-0.343-1.255-0.765-1.255
	c-0.423,0-0.765,0.562-0.765,1.255C64.643,84.664,64.986,85.226,65.408,85.226z"/>
<g opacity="0.5">
	
		<linearGradient id="SVGID_2_" gradientUnits="userSpaceOnUse" x1="71.627" y1="-14295.1084" x2="71.627" y2="-7632.7603" gradientTransform="matrix(1 0 0 -1 8.34 105.04)">
		<stop  offset="0" style="stop-color:#808080;stop-opacity:0.25"/>
		<stop  offset="0.54" style="stop-color:#808080;stop-opacity:0.12"/>
		<stop  offset="1" style="stop-color:#808080;stop-opacity:0.1"/>
	</linearGradient>
	<path opacity="0.5" fill="url(#SVGID_2_)" enable-background="new    " d="M60.812,43.921c-0.001-2.891,0.854-5.732,2.482-8.249
		c1.628-2.516,3.974-4.621,6.809-6.109c2.835-1.489,6.063-2.31,9.369-2.385c3.306-0.075,6.578,0.6,9.497,1.959
		c2.919,1.359,5.386,3.355,7.161,5.794c1.775,2.439,2.797,5.239,2.966,8.126c0.169,2.887-0.519,5.763-1.998,8.348
		c-1.48,2.585-3.7,4.792-6.444,6.405l-0.012,0.074c-0.624,0.529-1.363,0.944-2.172,1.221l-0.025-0.075
		c-0.897,0.678-4.674,1.75-9.012,1.739h-0.095c-2.748,0-5.732-0.423-8.356-1.665c0,0-0.023-0.044-0.058-0.127
		c-0.665-0.273-1.274-0.638-1.806-1.081c-0.01-0.064-0.021-0.128-0.031-0.19c-2.555-1.539-4.643-3.599-6.085-6
		C61.561,49.305,60.809,46.633,60.812,43.921z"/>
</g>
<path fill="#F5F5F5" d="M79.967,60.163c10.262,0,18.581-7.271,18.581-16.241c0-8.97-8.319-16.241-18.581-16.241
	s-18.581,7.271-18.581,16.241C61.386,52.892,69.705,60.163,79.967,60.163z"/>
<path fill="#FDA57D" d="M72.683,50.108c0,0-4.428,0.317-3.255,7.366c0.607,0.508,1.323,0.907,2.106,1.172l2.49-7.366L72.683,50.108z
	"/>
<path fill="#FDA57D" d="M87.047,50.108c0,0,4.428,0.317,3.255,7.366c-0.607,0.508-1.323,0.907-2.106,1.172l-2.49-7.366
	L87.047,50.108z"/>
<path fill="#333333" d="M72.873,38.555c0,0-0.341,0.867-0.824,1.863c-1.054,2.202,0.149,10.621,2.67,11.517
	c2.829,1.016,6.55,1.653,10.415,0.422c3.358-1.07,4.395-10.67,2.019-12.999c-0.279-0.274-0.57-0.547-0.874-0.811L72.873,38.555z"/>
<path fill="#333333" d="M79.98,45.254c4.549,0,8.237-3.223,8.237-7.2c0-3.976-3.688-7.2-8.237-7.2c-4.549,0-8.237,3.223-8.237,7.2
	C71.743,42.031,75.431,45.254,79.98,45.254z"/>
<path opacity="0.1" enable-background="new    " d="M86.964,50.108H72.598l-1.341,5.024c0,0-0.787,2.326,0.194,3.348
	c0.98,1.023,10.131,3.349,16.858,0.169c0.587-1.339,0.655-2.809,0.194-4.185c-0.775-2.344-0.194-0.169-0.194-0.169L86.964,50.108z"
	/>
<path opacity="0.1" enable-background="new    " d="M87.154,50.108H72.788l-1.341,5.024c0,0-0.787,2.326,0.194,3.348
	c0.981,1.023,10.131,3.349,16.859,0.169c0.587-1.339,0.655-2.809,0.194-4.185c-0.775-2.344-0.194-0.169-0.194-0.169L87.154,50.108z"
	/>
<path fill="#F46856" d="M87.048,50.108H72.683l-1.341,5.024c0,0-0.787,2.326,0.194,3.348c0.981,1.023,10.131,3.349,16.858,0.169
	c0.587-1.339,0.655-2.809,0.194-4.185c-0.775-2.344-0.194-0.169-0.194-0.169L87.048,50.108z"/>
<path opacity="0.1" enable-background="new    " d="M77.088,45.941h5.747v4.861c0,0.442-0.201,0.867-0.559,1.18
	c-0.358,0.313-0.843,0.489-1.35,0.489h-1.938c-0.506,0-0.992-0.176-1.35-0.489s-0.559-0.737-0.559-1.18v-4.861H77.088z"/>
<path fill="#FDA57D" d="M77.088,45.755h5.747v4.861c0,0.442-0.201,0.867-0.559,1.18c-0.358,0.313-0.843,0.489-1.35,0.489h-1.938
	c-0.506,0-0.992-0.176-1.35-0.489s-0.559-0.737-0.559-1.18v-4.861H77.088z"/>
<path opacity="0.1" enable-background="new    " d="M77.101,46.478c1.852,0.605,3.891,0.61,5.747,0.014v-0.616h-5.747V46.478z"/>
<path fill="#FDA57D" d="M79.98,46.816c4.549,0,8.237-3.224,8.237-7.2s-3.688-7.2-8.237-7.2c-4.549,0-8.237,3.224-8.237,7.2
	S75.431,46.816,79.98,46.816z"/>
<path fill="#333333" d="M72.108,36.882h15.707c0,0-1.341-5.544-7.278-5.189C74.6,32.046,72.108,36.882,72.108,36.882z"/>
<path fill="#FDA57D" d="M71.916,40.564c0.423,0,0.765-0.562,0.765-1.255c0-0.693-0.343-1.255-0.765-1.255
	c-0.423,0-0.765,0.562-0.765,1.255C71.15,40.002,71.493,40.564,71.916,40.564z"/>
<path fill="#FDA57D" d="M88.005,40.564c0.423,0,0.765-0.562,0.765-1.255c0-0.693-0.343-1.255-0.765-1.255s-0.765,0.562-0.765,1.255
	C87.239,40.002,87.582,40.564,88.005,40.564z"/>
<path opacity="0.1" enable-background="new    " d="M72.108,37.069h15.707c0,0-1.341-5.544-7.278-5.19
	C74.6,32.233,72.108,37.069,72.108,37.069z"/>
<g opacity="0.5">
	<path opacity="0.5" fill="#D3D3D3" enable-background="new    " d="M-5.447,29.399v24.173h43.572c0,0,3.217,5.533,8.747,7.142
		c0,0-1.765-3.919,0.078-7.142h12.13V29.399H-5.447z"/>
</g>
<path fill="#FFFFFF" d="M-3.703,30.227v22.865h43.599c0,0,0,4.573,5.232,6.097c0,0-1.744-3.049,0-6.097h12.208V30.227H-3.703z"/>
<path fill="#C7C7C7" d="M36.408,34.8H1.529v3.049h34.88V34.8z"/>
<path fill="#C7C7C7" d="M48.616,39.373H1.529v3.049h47.087V39.373z"/>
<path fill="#C7C7C7" d="M43.384,43.946H1.529v3.049h41.855V43.946z"/>
<g opacity="0.5" enable-background="new    ">
	<path opacity="0.5" fill="#D3D3D3" enable-background="new    " d="M142.79,75.976v24.173H99.22c0,0-3.217,5.533-8.749,7.142
		c0,0,1.765-3.919-0.077-7.142h-12.13V75.976H142.79z"/>
</g>
<path fill="#FFFFFF" d="M141.047,76.804v22.865h-43.6c0,0,0,4.573-5.232,6.097c0,0,1.744-3.048,0-6.097H80.008V76.804H141.047z"/>
<path fill="#C7C7C7" d="M122.057,81.377H87.177v3.049h34.879V81.377z"/>
<path fill="#C7C7C7" d="M134.265,85.95H87.177v3.049h47.087V85.95z"/>
<path fill="#C7C7C7" d="M129.033,90.523H87.177v3.049h41.855V90.523z"/>
<path fill="#454B69" d="M48.934,85.718c0.497-0.168,1.09,0.117,1.367,0.512c0.277,0.403,0.315,0.881,0.344,1.342
	c0.325,0.076,0.516-0.31,0.545-0.604c0.124-1.183,0.134-2.391,0.516-3.532s1.223-2.248,2.504-2.693
	c0.44-0.159,0.908-0.201,1.367-0.134c0.268,0.05,0.526,0.143,0.803,0.193c0.937,0.159,1.959-0.302,2.848,0.017
	c0.554,0.201,0.908,0.671,1.157,1.141c0.115,0.252,0.268,0.478,0.449,0.68c0.373,0.344,0.965,0.436,1.501,0.545
	s1.128,0.294,1.357,0.73c0.21,0.386,0.057,0.839-0.019,1.258c-0.105,0.663,0,1.351,0.306,1.946c0.096,0.193,0.296,0.419,0.535,0.352
	c0.105-0.034,0.201-0.117,0.258-0.218c0.621-0.898,0.602-2.072,1.376-2.878c0.258-0.268,0.593-0.478,0.841-0.755
	c0.191-0.201,0.335-0.445,0.411-0.713s0.086-0.554,0.029-0.831c-0.143-0.621-0.621-1.133-1.004-1.67
	c-0.497-0.688-0.87-1.477-1.071-2.307c-0.038-0.101-0.038-0.201,0-0.302c0.076-0.101,0.162-0.176,0.277-0.235
	c0.21-0.143,0.363-0.361,0.43-0.621c0.067-0.252,0.038-0.52-0.076-0.755c-0.22-0.47-0.698-0.814-1.233-1.024
	c-0.535-0.21-1.118-0.294-1.692-0.386c-0.382,0.059-0.822-0.168-0.946-0.487c-0.048-0.143-0.048-0.294-0.105-0.436
	c-0.105-0.268-0.401-0.461-0.717-0.529c-0.325-0.059-0.66-0.034-0.965,0.067c-0.354,0.101-0.774,0.26-1.08,0.084
	c-0.162-0.101-0.258-0.268-0.43-0.352c-0.354-0.159-0.736,0.159-0.994,0.428c-0.249,0.277-0.554,0.487-0.898,0.621
	c-0.363,0.126-0.803,0.126-1.109-0.076c-0.249-0.159-0.373-0.428-0.573-0.638c-0.325-0.344-0.832-0.529-1.348-0.571
	c-0.516-0.025-1.023,0.034-1.52,0.176c-0.946,0.235-1.845,0.629-2.676,1.158c-0.411,0.268-0.812,0.579-1.023,0.99
	c-0.153,0.319-0.229,0.663-0.229,1.015c-0.038,1.107,0.315,2.274,1.243,3.054c-0.564,0.243-0.755,0.839-0.889,1.376
	c-0.21,0.847-0.421,1.712-0.344,2.576c0.038,0.445,0.153,0.889,0.096,1.334c-0.029,0.218-0.105,0.428-0.086,0.646
	c0.019,0.117,0.076,0.235,0.162,0.319C48.705,85.642,48.819,85.701,48.934,85.718z"/>
<g opacity="0.1">
	<path opacity="0.1" enable-background="new    " d="M67.315,81.749c-0.086,0.185-0.191,0.352-0.325,0.495
		c-0.249,0.277-0.583,0.487-0.841,0.755c-0.774,0.805-0.755,1.972-1.376,2.878c-0.057,0.101-0.153,0.176-0.258,0.218
		c-0.239,0.067-0.44-0.159-0.535-0.352c-0.124-0.235-0.21-0.495-0.268-0.755c-0.01,0.067-0.029,0.134-0.038,0.193
		c-0.105,0.663,0,1.351,0.306,1.946c0.096,0.193,0.296,0.419,0.535,0.352c0.105-0.042,0.201-0.117,0.258-0.218
		c0.621-0.898,0.602-2.072,1.376-2.869c0.258-0.268,0.593-0.478,0.841-0.755c0.191-0.201,0.335-0.445,0.411-0.713
		s0.086-0.554,0.029-0.831C67.401,81.976,67.362,81.867,67.315,81.749z"/>
	<path opacity="0.1" enable-background="new    " d="M65.632,76.195c-0.105,0.05-0.201,0.134-0.277,0.235
		c-0.038,0.101-0.038,0.201,0,0.302c0.067,0.294,0.162,0.579,0.277,0.856c0.21-0.143,0.363-0.369,0.43-0.621
		c0.067-0.26,0.038-0.529-0.076-0.763c-0.038-0.076-0.076-0.151-0.124-0.218C65.795,76.061,65.718,76.136,65.632,76.195z"/>
	<path opacity="0.1" enable-background="new    " d="M49.679,77.932c-0.64-0.545-1.061-1.326-1.185-2.173
		c-0.029,0.168-0.048,0.344-0.057,0.512c-0.038,0.814,0.172,1.628,0.593,2.316C49.163,78.293,49.393,78.058,49.679,77.932z"/>
	<path opacity="0.1" enable-background="new    " d="M63.673,83.796c0.067-0.419,0.22-0.873,0.019-1.258
		c-0.229-0.428-0.812-0.621-1.357-0.73c-0.535-0.109-1.128-0.201-1.501-0.545c-0.182-0.201-0.335-0.428-0.449-0.68
		c-0.249-0.47-0.612-0.94-1.166-1.141c-0.879-0.319-1.902,0.143-2.848-0.017c-0.268-0.05-0.526-0.143-0.803-0.193
		c-0.459-0.067-0.927-0.025-1.367,0.126c-1.29,0.436-2.122,1.544-2.504,2.693c-0.382,1.149-0.392,2.349-0.516,3.532
		c-0.029,0.294-0.21,0.68-0.545,0.604c-0.038-0.461-0.076-0.948-0.344-1.342c-0.277-0.403-0.86-0.68-1.367-0.512
		c-0.153-0.034-0.287-0.126-0.382-0.26c0.019,0.168,0.019,0.344-0.01,0.512c-0.029,0.218-0.105,0.428-0.086,0.646
		c0.019,0.117,0.076,0.235,0.162,0.319c0.086,0.084,0.191,0.143,0.306,0.168c0.497-0.168,1.09,0.117,1.367,0.512
		c0.277,0.403,0.315,0.881,0.344,1.342c0.325,0.076,0.516-0.31,0.545-0.604c0.124-1.183,0.134-2.391,0.516-3.532
		c0.382-1.141,1.223-2.248,2.504-2.693c0.44-0.159,0.908-0.201,1.367-0.134c0.268,0.05,0.526,0.143,0.803,0.193
		c0.937,0.159,1.959-0.302,2.848,0.017c0.554,0.201,0.908,0.671,1.166,1.141c0.115,0.252,0.268,0.478,0.449,0.68
		c0.373,0.344,0.965,0.436,1.501,0.545s1.08,0.285,1.329,0.68C63.663,83.855,63.673,83.83,63.673,83.796z"/>
	<path opacity="0.1" enable-background="new    " d="M48.552,83.209c0.029-0.352,0.01-0.705-0.057-1.049
		c-0.057,0.361-0.067,0.73-0.038,1.099c0.01,0.092,0.019,0.185,0.029,0.277C48.504,83.436,48.523,83.326,48.552,83.209z"/>
</g>
</svg>
