<?xml version="1.0" encoding="utf-8"?>
<!-- Generator: Adobe Illustrator 17.0.0, SVG Export Plug-In . SVG Version: 6.00 Build 0)  -->
<!DOCTYPE svg PUBLIC "-//W3C//DTD SVG 1.1//EN" "http://www.w3.org/Graphics/SVG/1.1/DTD/svg11.dtd">
<svg version="1.1" id="Layer_1" xmlns="http://www.w3.org/2000/svg" xmlns:xlink="http://www.w3.org/1999/xlink" x="0px" y="0px"
	 width="174px" height="124px" viewBox="-19.5 0 174 124" enable-background="new -19.5 0 174 124" xml:space="preserve">
<g>
	<defs>
		<rect id="SVGID_1_" width="135" height="124"/>
	</defs>
	<clipPath id="SVGID_2_">
		<use xlink:href="#SVGID_1_"  overflow="visible"/>
	</clipPath>
	<g clip-path="url(#SVGID_2_)">
		<path opacity="0.24" fill="#7D7D7D" enable-background="new    " d="M124.619,105.744c-1.577,1.153-3.299,2.095-5.122,2.801
			c-3.156,1.219-6.517,1.765-9.755,2.705c-1.438,0.413-2.849,0.913-4.233,1.459c-8.382,3.288-16.075,8.503-24.892,10.407
			c-16.339,3.554-32.131-4.526-47.749-7.953c-13.381-2.928-24.256,4.074-29.659-17.113c-2.258-8.82-5.053-18.159-1.635-26.623
			c3.417-8.463,8.23-16.28,11.49-24.786c4.655-12.148,6.378-26.143,15.538-35.413c6.343-6.419,15.409-9.518,24.39-10.617
			c8.981-1.1,18.073-0.394,27.115-0.357c10.891,0.035,22.493-0.727,31.911,4.736c3.322,1.957,6.185,4.599,8.397,7.75
			c2.212,3.151,3.722,6.736,4.429,10.516c1.87,10.433-2.571,21.25-0.575,31.665c1.852,9.696,9.085,17.81,10.499,27.586
			C136.05,91.31,131.791,100.542,124.619,105.744z"/>
		<path fill="#7B7B7B" d="M106.877,18.277v85.756c0.001,1.079-0.212,2.148-0.626,3.145c-0.413,0.997-1.02,1.903-1.785,2.666
			c-0.765,0.764-1.674,1.37-2.674,1.783c-1,0.414-2.073,0.627-3.155,0.628H44.278c-1.083-0.001-2.155-0.214-3.156-0.627
			c-1-0.414-1.909-1.019-2.674-1.783c-0.765-0.763-1.372-1.669-1.786-2.667c-0.414-0.997-0.626-2.066-0.625-3.145V18.277
			c0-2.177,0.868-4.266,2.414-5.806c1.545-1.54,3.641-2.405,5.827-2.405h54.359c2.185,0.001,4.28,0.867,5.825,2.406
			C106.007,14.012,106.876,16.1,106.877,18.277z"/>
		
			<linearGradient id="SVGID_3_" gradientUnits="userSpaceOnUse" x1="27.7025" y1="27.8107" x2="41.0651" y2="27.8107" gradientTransform="matrix(1 0 0 -1 8.34 100.04)">
			<stop  offset="0" style="stop-color:#010101;stop-opacity:0"/>
			<stop  offset="0.95" style="stop-color:#010101"/>
		</linearGradient>
		<path fill="url(#SVGID_3_)" d="M49.405,67.581c-1.635,3.993-5.186,6.696-8.259,9.552c-1.582,1.47-2.803,3.11-4.214,4.702
			c-0.256,0.275-0.557,0.506-0.89,0.681V66.202c0.437-1.384,0.718-2.813,0.836-4.26c0.534,1.754,0.294,3.895,1.651,5.141
			c0.874,0.815,2.159,0.958,3.353,1.012C44.402,68.197,46.924,68.025,49.405,67.581z"/>
		
			<linearGradient id="SVGID_4_" gradientUnits="userSpaceOnUse" x1="40.6206" y1="-36.8473" x2="86.3653" y2="123.5915" gradientTransform="matrix(1 0 0 -1 8.34 100.04)">
			<stop  offset="0" style="stop-color:#010101;stop-opacity:0"/>
			<stop  offset="0.47" style="stop-color:#010101;stop-opacity:0.47"/>
			<stop  offset="0.95" style="stop-color:#010101"/>
		</linearGradient>
		<path fill="url(#SVGID_4_)" d="M99.553,17.379H42.028v85.89h57.525V17.379z"/>
		<path fill="#FFFFFF" d="M100.389,16.7v85.642H50.07c0,0-6.974-1.461-7.343-13.173C42.359,77.458,43.097,16.7,43.097,16.7H100.389z
			"/>
		<path fill="#F5C7C8" d="M97.229,63.037c0.339,1.174,0.374,2.479,1.069,3.482c0.948,1.353,2.814,1.712,4.471,1.624
			c0.218-0.002,0.434-0.043,0.638-0.12c0.228-0.119,0.423-0.293,0.567-0.506c1.018-1.363,0.999-3.264,0.497-4.888
			c-0.697-2.224-2.171-4.126-4.155-5.359c-1.085-0.671-5.783-2.636-6.288-0.799C93.603,58.053,96.766,61.439,97.229,63.037z"/>
		
			<linearGradient id="SVGID_5_" gradientUnits="userSpaceOnUse" x1="1463.5248" y1="974.2429" x2="3037.7747" y2="2047.6931" gradientTransform="matrix(1 0 0 -1 8.34 100.04)">
			<stop  offset="0" style="stop-color:#010101;stop-opacity:0"/>
			<stop  offset="0.47" style="stop-color:#010101;stop-opacity:0.47"/>
			<stop  offset="0.95" style="stop-color:#010101"/>
		</linearGradient>
		<path fill="url(#SVGID_5_)" d="M97.229,63.037c0.339,1.174,0.374,2.479,1.069,3.482c0.948,1.353,2.814,1.712,4.471,1.624
			c0.218-0.002,0.434-0.043,0.638-0.12c0.228-0.119,0.423-0.293,0.567-0.506c1.018-1.363,0.999-3.264,0.497-4.888
			c-0.697-2.224-2.171-4.126-4.155-5.359c-1.085-0.671-5.783-2.636-6.288-0.799C93.603,58.053,96.766,61.439,97.229,63.037z"/>
		
			<linearGradient id="SVGID_6_" gradientUnits="userSpaceOnUse" x1="3216.4031" y1="519.1884" x2="8629.793" y2="1384.989" gradientTransform="matrix(1 0 0 -1 8.34 100.04)">
			<stop  offset="0" style="stop-color:#010101;stop-opacity:0"/>
			<stop  offset="0.47" style="stop-color:#010101;stop-opacity:0.47"/>
			<stop  offset="0.95" style="stop-color:#010101"/>
		</linearGradient>
		<path fill="url(#SVGID_6_)" d="M99.134,111.57c-0.182-8.386-0.393-16.953-3.276-24.836c-1.638-4.481-4.11-8.647-5.446-13.226
			c-1.053-3.607-0.802-7.438-0.77-11.197c0.016-1.991,0.029-4.025-0.59-5.918c-0.534-1.653-1.558-3.168-1.78-4.893
			c2.335,1.696,4.81,3.581,5.657,6.333c0.411,1.331,0.395,2.764,0.617,4.142c0.716,4.462,3.837,8.096,6.06,12.033
			c4.884,8.658,5.494,19.014,5.445,28.944c0,2.152-0.064,4.385-1.012,6.321C103.091,111.208,101.261,111.959,99.134,111.57z"/>
		<path fill="#FFC5C5" d="M48.174,69.299c-4.088,4.55-10.421,6.778-14.081,11.677c-3.271,4.361-3.883,10.082-5.536,15.276
			c-1.833,5.758-4.997,10.987-8.142,16.154c-0.414,0.679-0.874,1.395-1.619,1.691c-0.647,0.266-1.373,0.136-2.049,0
			c-5.096-1.065-10.675-3.743-11.818-8.81c-0.729-3.242,0.607-6.589,2.186-9.517c5.48-10.199,14.119-18.652,18.314-29.442
			c2.741-7.047,4.152-15.036,10.886-19.504c-0.005,0.045-0.005,0.091,0,0.136c-0.331,2.793,0.267,8.82-0.179,13.109
			c-0.013,0.156-0.004,0.313,0.027,0.466c0.19,0.86,0.935,1.943,1.277,2.596c1.042,1.943,3.917,1.515,6.012,0.799
			c2.095-0.716,4.951-1.193,6.031,0.743C50.295,66.165,49.317,68.019,48.174,69.299z"/>
		<path fill="#FFFFFF" d="M54.34,102.26c-0.034,0.026-0.067,0.054-0.099,0.083h-4.171c0,0-6.974-1.462-7.343-13.173
			c0,0,2.509,7.88,11.107,6.195C53.835,95.365,49.28,102.763,54.34,102.26z"/>
		
			<linearGradient id="SVGID_7_" gradientUnits="userSpaceOnUse" x1="-1057.0769" y1="-1190.577" x2="-2353.3772" y2="-2602.217" gradientTransform="matrix(1 0 0 -1 8.34 100.04)">
			<stop  offset="0" style="stop-color:#010101;stop-opacity:0"/>
			<stop  offset="0.95" style="stop-color:#010101"/>
		</linearGradient>
		<path fill="url(#SVGID_7_)" d="M54.34,102.26c-0.034,0.026-0.067,0.054-0.099,0.083h-4.171c0,0-6.974-1.462-7.343-13.173
			c0,0,2.509,7.88,11.107,6.195C53.835,95.365,49.28,102.763,54.34,102.26z"/>
		<path fill="#7B7B7B" d="M84.176,13.245v2.471c0.001,0.715-0.14,1.423-0.414,2.084c-0.274,0.661-0.677,1.261-1.184,1.767
			c-0.507,0.506-1.11,0.907-1.773,1.18c-0.663,0.273-1.374,0.414-2.092,0.413H64.09c-0.718,0.001-1.429-0.14-2.093-0.413
			c-0.664-0.273-1.267-0.674-1.775-1.18c-0.508-0.506-0.911-1.106-1.187-1.767s-0.417-1.369-0.417-2.085v-2.471
			c0.001-1.445,0.579-2.83,1.605-3.851C61.249,8.373,62.64,7.8,64.09,7.801h14.621c0.718,0,1.428,0.14,2.091,0.414
			c0.663,0.273,1.266,0.674,1.773,1.18c0.507,0.506,0.91,1.106,1.184,1.767C84.035,11.822,84.176,12.53,84.176,13.245z"/>
		
			<linearGradient id="SVGID_8_" gradientUnits="userSpaceOnUse" x1="1518.3112" y1="20.9968" x2="2178.0012" y2="-8.1602" gradientTransform="matrix(1 0 0 -1 8.34 100.04)">
			<stop  offset="0" style="stop-color:#010101;stop-opacity:0"/>
			<stop  offset="0.47" style="stop-color:#010101;stop-opacity:0.47"/>
			<stop  offset="0.95" style="stop-color:#010101"/>
		</linearGradient>
		<path fill="url(#SVGID_8_)" d="M58.658,13.181v2.473c-0.002,0.716,0.138,1.426,0.411,2.088c0.274,0.662,0.676,1.264,1.184,1.771
			c0.508,0.507,1.111,0.909,1.775,1.184c0.664,0.274,1.376,0.415,2.095,0.415h1.098c-0.719,0-1.431-0.141-2.094-0.415
			c-0.664-0.274-1.267-0.677-1.775-1.184c-0.508-0.507-0.91-1.109-1.183-1.771c-0.274-0.662-0.414-1.372-0.411-2.088v-2.473
			c0-0.715,0.141-1.423,0.415-2.084c0.274-0.661,0.677-1.261,1.184-1.767c0.507-0.506,1.11-0.907,1.773-1.18
			c0.663-0.273,1.374-0.414,2.091-0.414h-1.098c-0.718,0-1.428,0.14-2.091,0.414c-0.663,0.273-1.266,0.674-1.773,1.18
			c-0.507,0.506-0.91,1.106-1.184,1.767C58.799,11.757,58.658,12.466,58.658,13.181z"/>
		
			<linearGradient id="SVGID_9_" gradientUnits="userSpaceOnUse" x1="64.4686" y1="99.4091" x2="62.9672" y2="75.3229" gradientTransform="matrix(1 0 0 -1 8.34 100.04)">
			<stop  offset="0" style="stop-color:#FFFFFF;stop-opacity:0"/>
			<stop  offset="0.95" style="stop-color:#FFFFFF"/>
		</linearGradient>
		<path fill="url(#SVGID_9_)" d="M84.176,13.245v2.471c0.001,0.715-0.14,1.423-0.415,2.084c-0.274,0.661-0.677,1.261-1.184,1.767
			c-0.507,0.506-1.11,0.907-1.773,1.18c-0.663,0.273-1.374,0.414-2.092,0.413H65.186c-0.718,0.001-1.429-0.14-2.093-0.413
			c-0.664-0.273-1.267-0.674-1.775-1.18c-0.508-0.506-0.911-1.106-1.187-1.767c-0.275-0.661-0.417-1.369-0.417-2.085v-2.471
			c0.001-1.445,0.579-2.83,1.605-3.851c1.026-1.021,2.417-1.594,3.867-1.593h13.526c0.718,0,1.428,0.14,2.091,0.414
			c0.663,0.273,1.266,0.674,1.773,1.18c0.507,0.506,0.91,1.106,1.185,1.767C84.035,11.822,84.176,12.53,84.176,13.245z"/>
		
			<linearGradient id="SVGID_10_" gradientUnits="userSpaceOnUse" x1="639.2137" y1="-9.9759" x2="1419.2845" y2="-81.776" gradientTransform="matrix(1 0 0 -1 8.34 100.04)">
			<stop  offset="0" style="stop-color:#010101;stop-opacity:0"/>
			<stop  offset="0.95" style="stop-color:#010101"/>
		</linearGradient>
		<path fill="url(#SVGID_10_)" d="M36.123,60.069c-0.013,0.156-0.004,0.313,0.027,0.466c-0.513-0.341-1.096-1.451-1.603-2.785
			c-0.313-0.817-1.103-4.765-1.103-5.641c0-2.015,1.392-3.701,2.856-5.149C35.971,49.753,36.564,55.78,36.123,60.069z"/>
		<path fill="#FFC5C5" d="M124.619,105.744c-1.577,1.153-3.299,2.095-5.122,2.801c-3.156,1.219-6.517,1.765-9.756,2.705
			c-1.437,0.413-2.848,0.913-4.232,1.459c-1.662-12.616-4.925-25.161-11.145-36.207c-1.617-2.883-2.848-5.285-3.909-8.418
			c-1.061-3.133-0.534-11.597,0.502-11.757c1.764-0.287,2.905,1.763,3.474,3.448c0.954,2.747,1.817,5.263,4.403,6.922
			c1.106,0.716,2.635,1.156,3.685,0.357c0.52-0.447,0.867-1.061,0.981-1.736c0.467-2.159-0.487-4.459-2.077-6.001
			c-1.589-1.542-3.722-2.396-5.878-2.873c-1.24-0.266-2.581-0.447-3.524-1.291c-0.754-0.679-1.13-1.888-0.575-2.729
			c0.494-0.754,3.434,0.958,4.315,0.831c1.948-0.266,2.047-0.652,4.008-0.634c1.962,0.019,3.981,0.197,5.806,0.948
			c1.87,0.799,3.46,2.148,4.943,3.554c2.301,2.186,4.366,2.849,6.362,5.325c1.258,1.568,2.472,3.213,3.145,5.114
			c1.205,3.402,0.513,7.146,0.163,10.745c-0.875,9.159,0.561,18.39,4.179,26.854C124.437,105.35,124.539,105.547,124.619,105.744z"
			/>
		
			<linearGradient id="SVGID_11_" gradientUnits="userSpaceOnUse" x1="4260.5947" y1="578.6534" x2="2919.4248" y2="400.8632" gradientTransform="matrix(1 0 0 -1 8.34 100.04)">
			<stop  offset="0" style="stop-color:#010101;stop-opacity:0"/>
			<stop  offset="0.47" style="stop-color:#010101;stop-opacity:0.47"/>
			<stop  offset="0.95" style="stop-color:#010101"/>
		</linearGradient>
		<path fill="url(#SVGID_11_)" d="M103.999,72.148c1.604,2.681,3.613,5.088,5.612,7.481c0.561,0.671,1.472,1.406,2.204,0.924
			c0.558-0.37,0.534-1.187,0.395-1.84c-0.596-2.779-2.137-5.287-4.037-7.414c-1.9-2.127-4.139-3.908-6.37-5.681
			c0.077,0.061-0.788,1.259-0.425,1.901C101.993,68.578,103.355,71.067,103.999,72.148z"/>
		<path fill="#7B7B7B" d="M87.596,52.548c0,0,15.752,16.831,18.972,20.172c3.219,3.341,5.878,5.798,5.878,5.798
			s3.164,0.314,3.289-0.756c0.126-1.07-23.976-24.394-26.381-25.528L86.95,51.1L87.596,52.548z"/>
		
			<linearGradient id="SVGID_12_" gradientUnits="userSpaceOnUse" x1="1732.4093" y1="1989.1974" x2="1233.6094" y2="1394.7776" gradientTransform="matrix(1 0 0 -1 8.34 100.04)">
			<stop  offset="0" style="stop-color:#FFFFFF;stop-opacity:0"/>
			<stop  offset="0.95" style="stop-color:#FFFFFF"/>
		</linearGradient>
		<path fill="url(#SVGID_12_)" d="M115.748,77.762c-0.061,0.532-0.879,0.724-1.68,0.777c-0.535,0.031-1.07,0.022-1.603-0.027
			c0,0-2.659-2.452-5.879-5.793c-3.22-3.341-18.971-20.175-18.971-20.175l-0.631-1.451l2.405,1.139
			C91.773,53.37,115.887,76.686,115.748,77.762z"/>
		<path fill="#7B7B7B" d="M114.356,78.387l-0.288,0.152c-0.535,0.031-1.07,0.022-1.603-0.027c0,0-2.659-2.452-5.879-5.793
			c-3.22-3.341-18.971-20.175-18.971-20.175l-0.631-1.451L114.356,78.387z"/>
		<path fill="#FFFFFF" d="M110.599,75.736c-0.184,0.354-0.457,0.823-0.839,0.705c-0.1-0.036-0.191-0.093-0.267-0.168l-5.961-5.111
			c-0.115,0.918,0.718,1.643,1.44,2.226c1.327,1.064,2.554,2.244,3.669,3.527c0.312,0.359,0.641,0.745,1.098,0.895
			c0.457,0.149,1.069-0.069,1.141-0.533c0.002-0.098,0.023-0.195,0.061-0.285c0.054-0.072,0.127-0.128,0.211-0.16l0.967-0.471
			c0.377-0.158,0.722-0.38,1.021-0.658c0.148-0.14,0.256-0.316,0.315-0.511c0.059-0.195,0.067-0.401,0.022-0.599
			C113.012,73.058,110.922,75.108,110.599,75.736z"/>
		<path fill="#FFFFFF" d="M114.065,78.883c0.443,0.415,0.967,0.815,1.576,0.841c0.109,0.012,0.22-0.001,0.323-0.039
			c0.104-0.037,0.197-0.098,0.273-0.177c0.06-0.089,0.096-0.192,0.105-0.299c0.008-0.107-0.011-0.214-0.057-0.311
			c-0.093-0.194-0.221-0.37-0.377-0.519l-0.617-0.671c-0.2-0.269-0.481-0.468-0.801-0.57c-0.361-0.064-1.192,0.21-1.267,0.631
			C113.148,78.191,113.824,78.641,114.065,78.883z"/>
		
			<linearGradient id="SVGID_13_" gradientUnits="userSpaceOnUse" x1="8232.54" y1="64.5095" x2="14996.1602" y2="64.5095" gradientTransform="matrix(1 0 0 -1 8.34 100.04)">
			<stop  offset="0" style="stop-color:#393434"/>
			<stop  offset="0.95" style="stop-color:#E0D0D0;stop-opacity:0.22"/>
		</linearGradient>
		<path fill="url(#SVGID_13_)" d="M93.226,34.774H52.232c-0.419,0-0.759,0.339-0.759,0.756c0,0.418,0.34,0.756,0.759,0.756h40.994
			c0.419,0,0.759-0.338,0.759-0.756C93.985,35.113,93.645,34.774,93.226,34.774z"/>
		
			<linearGradient id="SVGID_14_" gradientUnits="userSpaceOnUse" x1="8232.54" y1="59.9705" x2="14996.1602" y2="59.9705" gradientTransform="matrix(1 0 0 -1 8.34 100.04)">
			<stop  offset="0" style="stop-color:#393434"/>
			<stop  offset="0.95" style="stop-color:#E0D0D0;stop-opacity:0.22"/>
		</linearGradient>
		<path fill="url(#SVGID_14_)" d="M93.226,39.313H52.232c-0.419,0-0.759,0.339-0.759,0.756c0,0.417,0.34,0.756,0.759,0.756h40.994
			c0.419,0,0.759-0.339,0.759-0.756C93.985,39.652,93.645,39.313,93.226,39.313z"/>
		
			<linearGradient id="SVGID_15_" gradientUnits="userSpaceOnUse" x1="8232.54" y1="55.4334" x2="14996.1602" y2="55.4334" gradientTransform="matrix(1 0 0 -1 8.34 100.04)">
			<stop  offset="0" style="stop-color:#393434"/>
			<stop  offset="0.95" style="stop-color:#E0D0D0;stop-opacity:0.22"/>
		</linearGradient>
		<path fill="url(#SVGID_15_)" d="M93.226,43.851H52.232c-0.419,0-0.759,0.338-0.759,0.756c0,0.417,0.34,0.756,0.759,0.756h40.994
			c0.419,0,0.759-0.339,0.759-0.756C93.985,44.189,93.645,43.851,93.226,43.851z"/>
		
			<linearGradient id="SVGID_16_" gradientUnits="userSpaceOnUse" x1="8232.54" y1="50.8943" x2="14996.1602" y2="50.8943" gradientTransform="matrix(1 0 0 -1 8.34 100.04)">
			<stop  offset="0" style="stop-color:#393434"/>
			<stop  offset="0.95" style="stop-color:#E0D0D0;stop-opacity:0.22"/>
		</linearGradient>
		<path fill="url(#SVGID_16_)" d="M93.226,48.39H52.232c-0.419,0-0.759,0.339-0.759,0.756c0,0.418,0.34,0.756,0.759,0.756h40.994
			c0.419,0,0.759-0.338,0.759-0.756C93.985,48.728,93.645,48.39,93.226,48.39z"/>
		
			<linearGradient id="SVGID_17_" gradientUnits="userSpaceOnUse" x1="8232.54" y1="46.3552" x2="14996.1602" y2="46.3552" gradientTransform="matrix(1 0 0 -1 8.34 100.04)">
			<stop  offset="0" style="stop-color:#393434"/>
			<stop  offset="0.95" style="stop-color:#E0D0D0;stop-opacity:0.22"/>
		</linearGradient>
		<path fill="url(#SVGID_17_)" d="M93.226,52.929H52.232c-0.419,0-0.759,0.339-0.759,0.756c0,0.418,0.34,0.756,0.759,0.756h40.994
			c0.419,0,0.759-0.338,0.759-0.756C93.985,53.267,93.645,52.929,93.226,52.929z"/>
	</g>
</g>
</svg>
