<?xml version="1.0" encoding="utf-8"?>
<!-- Generator: Adobe Illustrator 17.0.0, SVG Export Plug-In . SVG Version: 6.00 Build 0)  -->
<!DOCTYPE svg PUBLIC "-//W3C//DTD SVG 1.1//EN" "http://www.w3.org/Graphics/SVG/1.1/DTD/svg11.dtd">
<svg version="1.1" id="Слой_1" xmlns="http://www.w3.org/2000/svg" xmlns:xlink="http://www.w3.org/1999/xlink" x="0px" y="0px"
	 width="527px" height="375.85px" viewBox="42.5 236.717 527 375.85" enable-background="new 42.5 236.717 527 375.85"
	 xml:space="preserve">
<g>
	<g>
		<g>
			<path fill="#3F3D56" d="M480.379,355.683c1.999-4.156,1.428-8.95-1.346-10.708c-2.734-1.758-6.569,0.16-8.568,4.315
				c-1.999,4.156-1.428,8.95,1.306,10.708S478.339,359.839,480.379,355.683z"/>
			<path fill="#3F3D56" d="M484.786,346.493c1.999-4.156,1.428-8.95-1.306-10.708c-2.734-1.758-6.569,0.16-8.609,4.315
				c-1.999,4.156-1.428,8.95,1.346,10.708C478.951,352.567,482.786,350.649,484.786,346.493z"/>
			<path fill="#3F3D56" d="M489.233,337.303c1.999-4.156,1.428-8.95-1.346-10.708c-2.734-1.758-6.569,0.16-8.609,4.315
				c-1.999,4.156-1.428,8.95,1.346,10.708C483.398,343.377,487.234,341.459,489.233,337.303z"/>
			<path fill="#3F3D56" d="M493.68,328.113c1.999-4.156,1.428-8.95-1.346-10.708c-2.734-1.758-6.569,0.16-8.609,4.315
				c-1.999,4.156-1.428,8.95,1.346,10.708C487.805,334.186,491.681,332.269,493.68,328.113z"/>
			<path fill="#3F3D56" d="M498.086,318.923c1.999-4.156,1.428-8.95-1.346-10.708c-2.734-1.758-6.569,0.16-8.609,4.315
				c-1.999,4.156-1.428,8.95,1.306,10.708C492.252,325.036,496.087,323.078,498.086,318.923z"/>
			<path fill="#3F3D56" d="M502.534,309.733c1.999-4.156,1.428-8.95-1.306-10.708c-2.734-1.758-6.569,0.16-8.609,4.315
				c-1.999,4.156-1.428,8.95,1.346,10.708C496.699,315.846,500.534,313.888,502.534,309.733z"/>
			<path fill="#3F3D56" d="M506.981,300.583c1.999-4.156,1.428-8.95-1.346-10.708c-2.734-1.758-6.569,0.16-8.609,4.315
				c-1.999,4.156-1.428,8.95,1.346,10.708C501.146,306.656,504.982,304.738,506.981,300.583z"/>
			<path fill="#D0D2D5" d="M360.101,612.526l-103.265-1.518l0.286-3.077l4.978-50.546h90.698l6.691,50.546l0.49,3.836
				L360.101,612.526z"/>
			<path opacity="0.1" enable-background="new    " d="M360.019,611.767h-51.53l-51.653-0.759l0.286-3.077h102.367L360.019,611.767z
				"/>
			<path fill="#D0D2D5" d="M376.666,608.731H239.618v3.836h137.047V608.731z"/>
			<path fill="#444053" d="M507.389,253.713c0-2.637-0.898-5.194-2.489-7.072s-3.794-2.957-6.079-2.957H116.117
				c-1.142,0-2.244,0.28-3.305,0.759c-1.061,0.519-1.999,1.239-2.774,2.198c-0.816,0.919-1.428,2.038-1.836,3.237
				s-0.653,2.517-0.653,3.836v268.431h399.84V253.713z"/>
			<path fill="#D0D2D5" d="M107.549,519.467v31.446c0,1.319,0.204,2.597,0.653,3.796c0.449,1.199,1.061,2.318,1.877,3.237
				s1.754,1.678,2.774,2.158c1.02,0.479,2.162,0.759,3.305,0.759h382.704c2.285,0,4.447-1.039,6.079-2.917
				c1.591-1.878,2.53-4.395,2.53-7.032v-31.486H107.549V519.467z"/>
			<path opacity="0.1" fill="#C7C7C7" enable-background="new    " d="M492.823,260.546h-368.71v241.3h368.75v-241.3H492.823z"/>
			<path fill="#C7C7C7" d="M309.468,548.915c1.346,0,2.693-0.36,3.917-1.039c1.224-0.679,2.285-1.678,3.142-2.917
				c0.245-0.36,0.49-0.759,0.694-1.199l-4.896-0.919l5.304,0.04c0.53-1.279,0.775-2.677,0.816-4.076
				c0.041-1.398-0.204-2.797-0.653-4.116l-7.099,4.275l6.569-5.594c-0.612-1.239-1.428-2.357-2.407-3.197
				c-0.979-0.879-2.122-1.478-3.305-1.798c-1.183-0.32-2.448-0.36-3.672-0.12c-1.224,0.24-2.366,0.799-3.386,1.598
				s-1.877,1.838-2.57,3.037c-0.653,1.199-1.102,2.557-1.265,3.996c-0.204,1.398-0.122,2.877,0.204,4.235
				c0.326,1.398,0.898,2.677,1.673,3.796c0.816,1.239,1.918,2.238,3.101,2.917C306.775,548.555,308.122,548.915,309.468,548.915z"/>
			<path opacity="0.1" enable-background="new    " d="M318.403,560.822l41.208,47.868l-6.324-47.868H318.403z"/>
			<path fill="#FFFFFF" d="M419.016,293.39H134.395v174.931h284.662V293.39H419.016z"/>
			<path opacity="0.1" fill="#C7C7C7" enable-background="new    " d="M229.663,338.981h-79.397v4.755h79.397V338.981z"/>
			<path opacity="0.1" fill="#C7C7C7" enable-background="new    " d="M164.954,313.808h-7.63v25.173h7.63V313.808z"/>
			<path opacity="0.1" fill="#C7C7C7" enable-background="new    " d="M176.134,313.808h-7.63v25.173h7.63V313.808z"/>
			<path opacity="0.1" fill="#C7C7C7" enable-background="new    " d="M187.313,313.808h-7.63v25.173h7.63V313.808z"/>
			<path opacity="0.1" fill="#C7C7C7" enable-background="new    " d="M198.492,313.808h-7.63v25.173h7.63V313.808z"/>
			<path opacity="0.1" fill="#C7C7C7" enable-background="new    " d="M209.671,313.808h-7.63v25.173h7.63V313.808z"/>
			<path opacity="0.1" fill="#C7C7C7" enable-background="new    " d="M220.85,313.808h-7.63v25.173h7.63V313.808z"/>
			<path opacity="0.1" fill="#C7C7C7" enable-background="new    " d="M164.954,318.563h-7.63v2.717h7.63V318.563z"/>
			<path opacity="0.1" fill="#C7C7C7" enable-background="new    " d="M176.134,318.563h-7.63v2.717h7.63V318.563z"/>
			<path opacity="0.1" fill="#C7C7C7" enable-background="new    " d="M187.313,318.563h-7.63v2.717h7.63V318.563z"/>
			<path opacity="0.1" fill="#C7C7C7" enable-background="new    " d="M198.492,318.563h-7.63v2.717h7.63V318.563z"/>
			<path opacity="0.1" fill="#C7C7C7" enable-background="new    " d="M209.671,318.563h-7.63v2.717h7.63V318.563z"/>
			<path opacity="0.1" fill="#C7C7C7" enable-background="new    " d="M220.85,318.563h-7.63v2.717h7.63V318.563z"/>
			<path opacity="0.1" fill="#C7C7C7" enable-background="new    " d="M164.954,330.83h-7.63v2.717h7.63V330.83z"/>
			<path opacity="0.1" fill="#C7C7C7" enable-background="new    " d="M176.134,330.83h-7.63v2.717h7.63V330.83z"/>
			<path opacity="0.1" fill="#C7C7C7" enable-background="new    " d="M187.313,330.83h-7.63v2.717h7.63V330.83z"/>
			<path opacity="0.1" fill="#C7C7C7" enable-background="new    " d="M198.492,330.83h-7.63v2.717h7.63V330.83z"/>
			<path opacity="0.1" fill="#C7C7C7" enable-background="new    " d="M209.671,330.83h-7.63v2.717h7.63V330.83z"/>
			<path opacity="0.1" fill="#C7C7C7" enable-background="new    " d="M220.85,330.83h-7.63v2.717h7.63V330.83z"/>
			<path opacity="0.1" fill="#C7C7C7" enable-background="new    " d="M403.757,351.248H324.36v4.755h79.397V351.248z"/>
			<path opacity="0.1" fill="#C7C7C7" enable-background="new    " d="M339.048,326.075h-7.63v25.173h7.63V326.075z"/>
			<path opacity="0.1" fill="#C7C7C7" enable-background="new    " d="M350.227,326.075h-7.63v25.173h7.63V326.075z"/>
			<path opacity="0.1" fill="#C7C7C7" enable-background="new    " d="M361.406,326.075h-7.67v25.173h7.63v-25.173H361.406z"/>
			<path opacity="0.1" fill="#C7C7C7" enable-background="new    " d="M372.586,326.075h-7.63v25.173h7.63V326.075z"/>
			<path opacity="0.1" fill="#C7C7C7" enable-background="new    " d="M383.765,326.075h-7.63v25.173h7.63V326.075z"/>
			<path opacity="0.1" fill="#C7C7C7" enable-background="new    " d="M394.903,326.075h-7.63v25.173h7.63V326.075z"/>
			<path opacity="0.1" fill="#C7C7C7" enable-background="new    " d="M339.048,330.83h-7.63v2.717h7.63V330.83z"/>
			<path opacity="0.1" fill="#C7C7C7" enable-background="new    " d="M350.227,330.83h-7.63v2.717h7.63V330.83z"/>
			<path opacity="0.1" fill="#C7C7C7" enable-background="new    " d="M361.406,330.83h-7.67v2.717h7.63v-2.717H361.406z"/>
			<path opacity="0.1" fill="#C7C7C7" enable-background="new    " d="M372.586,330.83h-7.63v2.717h7.63V330.83z"/>
			<path opacity="0.1" fill="#C7C7C7" enable-background="new    " d="M383.765,330.83h-7.63v2.717h7.63V330.83z"/>
			<path opacity="0.1" fill="#C7C7C7" enable-background="new    " d="M394.903,330.83h-7.63v2.717h7.63V330.83z"/>
			<path opacity="0.1" fill="#C7C7C7" enable-background="new    " d="M339.048,343.057h-7.63v2.717h7.63V343.057z"/>
			<path opacity="0.1" fill="#C7C7C7" enable-background="new    " d="M350.227,343.057h-7.63v2.717h7.63V343.057z"/>
			<path opacity="0.1" fill="#C7C7C7" enable-background="new    " d="M361.406,343.057h-7.67v2.717h7.63v-2.717H361.406z"/>
			<path opacity="0.1" fill="#C7C7C7" enable-background="new    " d="M372.586,343.057h-7.63v2.717h7.63V343.057z"/>
			<path opacity="0.1" fill="#C7C7C7" enable-background="new    " d="M383.765,343.057h-7.63v2.717h7.63V343.057z"/>
			<path opacity="0.1" fill="#C7C7C7" enable-background="new    " d="M394.903,343.057h-7.63v2.717h7.63V343.057z"/>
			<path opacity="0.1" fill="#C7C7C7" enable-background="new    " d="M403.757,385.971H324.36v4.755h79.397V385.971z"/>
			<path opacity="0.1" fill="#C7C7C7" enable-background="new    " d="M339.048,360.758h-7.63v25.173h7.63V360.758z"/>
			<path opacity="0.1" fill="#C7C7C7" enable-background="new    " d="M350.227,360.758h-7.63v25.173h7.63V360.758z"/>
			<path opacity="0.1" fill="#C7C7C7" enable-background="new    " d="M361.406,360.758h-7.67v25.173h7.63v-25.173H361.406z"/>
			<path opacity="0.1" fill="#C7C7C7" enable-background="new    " d="M372.586,360.758h-7.63v25.173h7.63V360.758z"/>
			<path opacity="0.1" fill="#C7C7C7" enable-background="new    " d="M383.765,360.758h-7.63v25.173h7.63V360.758z"/>
			<path opacity="0.1" fill="#C7C7C7" enable-background="new    " d="M394.903,360.758h-7.63v25.173h7.63V360.758z"/>
			<path opacity="0.1" fill="#C7C7C7" enable-background="new    " d="M339.048,365.513h-7.63v2.717h7.63V365.513z"/>
			<path opacity="0.1" fill="#C7C7C7" enable-background="new    " d="M350.227,365.513h-7.63v2.717h7.63V365.513z"/>
			<path opacity="0.1" fill="#C7C7C7" enable-background="new    " d="M361.406,365.513h-7.67v2.717h7.63v-2.717H361.406z"/>
			<path opacity="0.1" fill="#C7C7C7" enable-background="new    " d="M372.586,365.513h-7.63v2.717h7.63V365.513z"/>
			<path opacity="0.1" fill="#C7C7C7" enable-background="new    " d="M383.765,365.513h-7.63v2.717h7.63V365.513z"/>
			<path opacity="0.1" fill="#C7C7C7" enable-background="new    " d="M394.903,365.513h-7.63v2.717h7.63V365.513z"/>
			<path opacity="0.1" fill="#C7C7C7" enable-background="new    " d="M339.048,377.779h-7.63v2.717h7.63V377.779z"/>
			<path opacity="0.1" fill="#C7C7C7" enable-background="new    " d="M350.227,377.779h-7.63v2.717h7.63V377.779z"/>
			<path opacity="0.1" fill="#C7C7C7" enable-background="new    " d="M361.406,377.779h-7.67v2.717h7.63v-2.717H361.406z"/>
			<path opacity="0.1" fill="#C7C7C7" enable-background="new    " d="M372.586,377.779h-7.63v2.717h7.63V377.779z"/>
			<path opacity="0.1" fill="#C7C7C7" enable-background="new    " d="M383.765,377.779h-7.63v2.717h7.63V377.779z"/>
			<path opacity="0.1" fill="#C7C7C7" enable-background="new    " d="M394.903,377.779h-7.63v2.717h7.63V377.779z"/>
			<path opacity="0.1" fill="#C7C7C7" enable-background="new    " d="M198.941,392.843c-0.612-0.879-1.142-1.798-1.632-2.757
				l11.424-2.158l-12.403,0.12c-1.183-2.997-1.836-6.233-1.918-9.51c-0.082-3.276,0.449-6.553,1.51-9.59l16.606,9.949l-15.3-13.026
				c1.428-2.877,3.346-5.354,5.671-7.352c2.285-1.958,4.937-3.356,7.711-4.116c2.774-0.759,5.671-0.799,8.486-0.2
				c2.815,0.599,5.508,1.878,7.874,3.756c2.366,1.878,4.406,4.275,5.916,7.072c1.55,2.797,2.57,5.954,2.978,9.23
				c0.449,3.276,0.286,6.633-0.449,9.829s-1.999,6.193-3.794,8.791c0.938,1.359,1.714,2.837,2.407,4.395l-14.81,8.91l15.83-6.113
				c1.102,3.796,1.387,7.872,0.816,11.827s-1.999,7.672-4.162,10.828c2.407,3.556,3.917,7.832,4.325,12.347
				s-0.245,9.03-1.958,13.106s-4.366,7.512-7.67,9.909c-3.305,2.397-7.14,3.676-11.057,3.676s-7.752-1.279-11.057-3.676
				c-3.305-2.397-5.998-5.834-7.67-9.909c-1.714-4.076-2.407-8.631-1.958-13.106c0.408-4.515,1.918-8.791,4.325-12.347
				c-2.897-4.235-4.447-9.51-4.447-14.904C194.494,402.353,196.085,397.079,198.941,392.843L198.941,392.843z"/>
			<path opacity="0.1" fill="#C7C7C7" enable-background="new    " d="M236.15,407.747c0,5.394-1.55,10.668-4.447,14.904
				c2.407,3.556,3.917,7.832,4.325,12.347s-0.245,9.03-1.958,13.106c-1.714,4.076-4.366,7.512-7.67,9.909
				c-3.305,2.397-7.14,3.676-11.057,3.676s-7.752-1.279-11.057-3.676c-3.305-2.397-5.998-5.834-7.67-9.909
				c-1.714-4.076-2.407-8.631-1.958-13.106c0.408-4.515,1.918-8.791,4.325-12.347C196.166,418.576,236.15,405.03,236.15,407.747z"/>
			<path opacity="0.2" fill="#3F3D56" enable-background="new    " d="M218.688,468.122c0.041,0.08,0.082,0.12,0.082,0.2h-7.058
				c0.041-0.08,0.082-0.12,0.082-0.2c-0.612-1.239-0.938-2.637-0.898-4.036c0-0.959,0.163-1.918,0.449-2.837
				c0.408,0.08,0.898,0.16,1.428,0.24c1.632,0.2,3.305,0.2,4.937,0c0.449-0.04,0.979-0.12,1.469-0.24v0.04
				c0.286,0.879,0.408,1.838,0.408,2.797C219.586,465.485,219.259,466.883,218.688,468.122z"/>
			<path opacity="0.1" fill="#C7C7C7" enable-background="new    " d="M193.229,468.322h-39.331
				c-0.082-0.28-0.163-0.559-0.245-0.799c-1.387-5.154-1.224-10.708,0.449-15.743c-3.835-3.077-6.691-7.552-8.078-12.706
				c-1.387-5.154-1.224-10.708,0.449-15.783c-0.775-0.639-1.55-1.319-2.244-2.078l10.363-5.994l-11.791,4.315
				c-1.877-2.437-3.346-5.314-4.243-8.431c-0.898-3.117-1.265-6.433-1.02-9.71l18.401,3.836l-17.952-7.192
				c0.653-3.237,1.836-6.273,3.55-8.95c1.714-2.677,3.835-4.915,6.324-6.553c2.489-1.678,5.222-2.717,8.078-3.117
				s5.712-0.08,8.486,0.879c2.734,0.959,5.263,2.557,7.466,4.715c2.162,2.158,3.958,4.795,5.222,7.792
				c1.265,2.997,1.958,6.233,2.081,9.55c0.122,3.316-0.367,6.633-1.387,9.71c1.224,0.999,2.366,2.118,3.386,3.396l-11.914,13.585
				l13.546-11.268c2.04,3.237,3.346,7.032,3.794,11.028s0.041,8.031-1.224,11.787c3.754,2.997,6.569,7.352,7.956,12.347
				C194.779,457.933,194.738,463.327,193.229,468.322z"/>
			<path opacity="0.1" fill="#C7C7C7" enable-background="new    " d="M193.229,468.322h-39.331
				c-0.082-0.28-0.163-0.519-0.245-0.799c-1.387-5.154-1.224-10.708,0.449-15.743c-3.713-2.957,31.049-29.528,31.783-26.971
				c1.387,5.154,1.224,10.708-0.449,15.783c3.754,2.997,6.528,7.352,7.956,12.347C194.779,457.933,194.738,463.327,193.229,468.322z
				"/>
			<path opacity="0.1" fill="#C7C7C7" enable-background="new    " d="M371.443,435.637c-2.407,4.635-6.079,8.231-10.445,10.149
				c0.204,1.718,0.204,3.476,0.082,5.194l-16.687-1.159l16.32,4.116c-1.061,5.754-3.958,10.868-8.038,14.384H329.95v0.679h-23.134
				c0.041-0.24,0.082-0.44,0.163-0.679c0.857-3.716,2.448-7.112,4.651-9.949c2.203-2.837,4.978-5.035,8.038-6.433
				c-0.571-5.354,0.408-10.788,2.774-15.463c2.407-4.635,6.079-8.231,10.445-10.149c-0.122-1.119-0.163-2.198-0.163-3.316
				l10.771,4.915l-10.649-7.232c0.286-3.276,1.183-6.433,2.57-9.27c1.387-2.877,3.264-5.354,5.549-7.352l9.833,18.38l-7.344-20.218
				c3.998-2.597,8.65-3.556,13.178-2.797c4.529,0.759,8.731,3.276,11.914,7.072c3.182,3.796,5.222,8.751,5.753,14.025
				C374.748,425.768,373.769,431.122,371.443,435.637L371.443,435.637z"/>
			<path opacity="0.1" fill="#C7C7C7" enable-background="new    " d="M358.183,461.25c-1.428,2.757-3.305,5.194-5.549,7.072
				h-22.726v0.679h-23.093c0.041-0.24,0.082-0.48,0.163-0.679c0.857-3.716,2.448-7.112,4.651-9.949
				c2.203-2.837,4.978-5.035,8.038-6.433c-0.204-1.758,4.284-1.518,10.282-0.36C341.618,453.857,358.999,459.691,358.183,461.25z"/>
			<path fill="#EFB7B9" d="M259.733,396.879c0,0,2.815,17.861-3.509,23.694c-6.365,5.834,5.386,40.796,24.847,36.72
				c19.462-4.076,27.377-33.444,27.377-33.444s-19.462-4.675-12.24-28.369L259.733,396.879z"/>
			<path opacity="0.1" fill="#FFC5C5" enable-background="new    " d="M259.733,396.879c0,0,2.815,17.861-3.509,23.694
				c-6.365,5.834,5.386,40.796,24.847,36.72c19.462-4.076,27.377-33.444,27.377-33.444s-19.462-4.675-12.24-28.369L259.733,396.879z
				"/>
			<path fill="#FFC5C5" d="M276.95,410.025c17.789,0,32.232-16.702,32.232-37.32c0-20.618-14.443-37.32-32.232-37.32
				c-17.789,0-32.232,16.702-32.232,37.32C244.718,393.323,259.162,410.025,276.95,410.025z"/>
			<path fill="#C7C7C7" d="M329.909,443.629v25.373H223.462v-24.214c0-3.077,0.775-6.073,2.244-8.631
				c1.469-2.557,3.55-4.555,5.998-5.754l3.06-1.518c7.711-3.796,17.095-8.551,20.155-10.509c0.326-0.2,0.653-0.44,0.938-0.719
				c1.673-1.958,1.346,0.599,1.346,0.599s-0.041,0.479-0.082,1.319c-0.163,5.714,0.53,28.13,23.256,26.292
				c22.154-1.838,23.134-19.139,22.93-24.254c0-0.479-0.041-0.959-0.122-1.398c0-0.12,1.918,0.599,4.488,1.678
				c4.651,1.998,11.465,5.154,13.301,6.673c0.571,0.44,1.265,0.959,1.999,1.438c2.081,1.359,3.835,3.316,5.059,5.714
				C329.297,438.114,329.95,440.871,329.909,443.629L329.909,443.629z"/>
			<path opacity="0.1" enable-background="new    " d="M307.714,421.892c-1.877,10.069-7.752,28.929-29.009,29.408
				c-22.603,0.519-23.909-25.532-23.786-32.924c0.326-0.2,0.653-0.44,0.938-0.719c1.673-1.958,1.346,0.599,1.346,0.599
				s-2.856,29.728,23.174,27.57s22.848-25.652,22.848-25.652C303.226,420.094,305.143,420.813,307.714,421.892z"/>
			<path fill="#454B69" d="M238.802,374.543c2.122-0.799,4.651,0.559,5.834,2.437c1.183,1.918,1.346,4.195,1.469,6.393
				c1.387,0.36,2.203-1.478,2.326-2.877c0.53-5.634,0.571-11.388,2.203-16.822s5.222-10.708,10.69-12.826
				c1.877-0.759,3.876-0.959,5.834-0.639c1.142,0.24,2.244,0.679,3.427,0.919c3.998,0.759,8.364-1.438,12.158,0.08
				c2.366,0.959,3.876,3.197,4.937,5.434c0.49,1.199,1.142,2.278,1.918,3.237c1.591,1.638,4.121,2.078,6.406,2.597
				s4.814,1.398,5.794,3.476c0.898,1.838,0.245,3.996-0.082,5.994c-0.449,3.157,0,6.433,1.306,9.27
				c0.408,0.919,1.265,1.998,2.285,1.678c0.449-0.16,0.857-0.559,1.102-1.039c2.652-4.275,2.57-9.869,5.875-13.705
				c1.102-1.279,2.53-2.278,3.59-3.596c0.816-0.959,1.428-2.118,1.754-3.396c0.326-1.279,0.367-2.637,0.122-3.956
				c-0.612-2.957-2.652-5.394-4.284-7.951c-2.122-3.276-3.713-7.032-4.57-10.988c-0.163-0.479-0.163-0.959,0-1.438
				c0.326-0.479,0.694-0.839,1.183-1.119c0.898-0.679,1.55-1.718,1.836-2.957c0.286-1.199,0.163-2.477-0.326-3.596
				c-0.938-2.238-2.978-3.876-5.263-4.875c-2.285-0.999-4.774-1.398-7.222-1.838c-1.632,0.28-3.509-0.799-4.039-2.318
				c-0.204-0.679-0.204-1.398-0.449-2.078c-0.449-1.279-1.714-2.198-3.06-2.517c-1.387-0.28-2.815-0.16-4.121,0.32
				c-1.51,0.479-3.305,1.239-4.61,0.4c-0.694-0.479-1.102-1.279-1.836-1.678c-1.51-0.759-3.142,0.759-4.243,2.038
				c-1.061,1.319-2.366,2.318-3.835,2.957c-1.55,0.599-3.427,0.599-4.733-0.36c-1.061-0.759-1.591-2.038-2.448-3.037
				c-1.387-1.638-3.55-2.517-5.753-2.717c-2.203-0.12-4.366,0.16-6.487,0.839c-4.039,1.119-7.874,2.997-11.424,5.514
				c-1.754,1.279-3.468,2.757-4.366,4.715c-0.653,1.518-0.979,3.157-0.979,4.835c-0.163,5.274,1.346,10.828,5.304,14.544
				c-2.407,1.159-3.223,3.996-3.794,6.553c-0.898,4.036-1.795,8.151-1.469,12.267c0.163,2.118,0.653,4.235,0.408,6.353
				c-0.122,1.039-0.449,2.038-0.367,3.077c0.082,0.559,0.326,1.119,0.694,1.518C237.823,374.183,238.313,374.463,238.802,374.543z"
				/>
			<g opacity="0.1">
				<path opacity="0.1" enable-background="new    " d="M317.261,355.643c-0.367,0.879-0.816,1.678-1.387,2.357
					c-1.061,1.319-2.489,2.318-3.59,3.596c-3.305,3.836-3.223,9.39-5.875,13.705c-0.245,0.479-0.653,0.839-1.102,1.039
					c-1.02,0.32-1.877-0.759-2.285-1.678c-0.53-1.119-0.898-2.357-1.142-3.596c-0.041,0.32-0.122,0.639-0.163,0.919
					c-0.449,3.157,0,6.433,1.306,9.27c0.408,0.919,1.265,1.998,2.285,1.678c0.449-0.2,0.857-0.559,1.102-1.039
					c2.652-4.275,2.57-9.869,5.875-13.665c1.102-1.279,2.53-2.278,3.59-3.596c0.816-0.959,1.428-2.118,1.754-3.396
					s0.367-2.637,0.122-3.956C317.628,356.722,317.465,356.203,317.261,355.643z"/>
				<path opacity="0.1" enable-background="new    " d="M310.08,329.192c-0.449,0.24-0.857,0.639-1.183,1.119
					c-0.163,0.479-0.163,0.959,0,1.438c0.286,1.398,0.694,2.757,1.183,4.076c0.898-0.679,1.55-1.758,1.836-2.957
					c0.286-1.239,0.163-2.517-0.326-3.636c-0.163-0.36-0.326-0.719-0.53-1.039C310.774,328.553,310.447,328.912,310.08,329.192z"/>
				<path opacity="0.1" enable-background="new    " d="M241.985,337.463c-2.734-2.597-4.529-6.313-5.059-10.349
					c-0.122,0.799-0.204,1.638-0.245,2.437c-0.163,3.876,0.734,7.752,2.53,11.028C239.782,339.181,240.761,338.062,241.985,337.463z
					"/>
				<path opacity="0.1" enable-background="new    " d="M301.716,365.393c0.286-1.998,0.938-4.156,0.082-5.994
					c-0.979-2.038-3.468-2.957-5.794-3.476c-2.285-0.519-4.814-0.959-6.406-2.597c-0.775-0.959-1.428-2.038-1.918-3.237
					c-1.061-2.238-2.611-4.475-4.978-5.434c-3.754-1.518-8.119,0.679-12.158-0.08c-1.142-0.24-2.244-0.679-3.427-0.919
					c-1.958-0.32-3.958-0.12-5.834,0.599c-5.508,2.078-9.058,7.352-10.69,12.826c-1.632,5.474-1.673,11.188-2.203,16.822
					c-0.122,1.398-0.898,3.237-2.326,2.877c-0.163-2.198-0.326-4.515-1.469-6.393c-1.183-1.918-3.672-3.237-5.834-2.437
					c-0.653-0.16-1.224-0.599-1.632-1.239c0.082,0.799,0.082,1.638-0.041,2.437c-0.122,1.039-0.449,2.038-0.367,3.077
					c0.082,0.559,0.326,1.119,0.694,1.518c0.367,0.4,0.816,0.679,1.306,0.799c2.122-0.799,4.651,0.559,5.834,2.437
					c1.183,1.918,1.346,4.195,1.469,6.393c1.387,0.36,2.203-1.478,2.326-2.877c0.53-5.634,0.571-11.388,2.203-16.822
					s5.222-10.708,10.69-12.826c1.877-0.759,3.876-0.959,5.834-0.639c1.142,0.24,2.244,0.679,3.427,0.919
					c3.998,0.759,8.364-1.438,12.158,0.08c2.366,0.959,3.876,3.197,4.978,5.434c0.49,1.199,1.142,2.278,1.918,3.237
					c1.591,1.638,4.121,2.078,6.406,2.597s4.61,1.359,5.671,3.237C301.675,365.673,301.716,365.553,301.716,365.393z"/>
				<path opacity="0.1" enable-background="new    " d="M237.17,362.596c0.122-1.678,0.041-3.356-0.245-4.995
					c-0.245,1.718-0.286,3.476-0.163,5.234c0.041,0.44,0.082,0.879,0.122,1.319C236.966,363.675,237.048,363.155,237.17,362.596z"/>
			</g>
			<path fill="#FFFFFF" d="M481.277,430.243h-47.654v38.279h47.654V430.243z"/>
			<path opacity="0.1" fill="#C7C7C7" enable-background="new    " d="M476.993,459.132c-0.694,1.319-1.714,2.357-2.978,2.877
				c0.041,0.479,0.082,0.999,0.041,1.478l-4.774-0.32l4.651,1.159c-0.326,1.638-1.142,3.077-2.285,4.076h-6.446v0.2h-6.569
				c0-0.08,0-0.12,0.041-0.2c0.163-0.639,0.367-1.239,0.653-1.758c0.694-1.319,1.714-2.357,2.978-2.877
				c-0.163-1.518,0.122-3.077,0.775-4.395c0.694-1.319,1.714-2.318,2.978-2.877c-0.041-0.32-0.041-0.639-0.041-0.959l3.06,1.398
				l-3.019-2.078c0.082-0.919,0.326-1.838,0.734-2.637c0.408-0.799,0.938-1.518,1.591-2.078l2.774,5.234l-2.122-5.754
				c1.142-0.719,2.448-0.999,3.754-0.759c1.306,0.24,2.489,0.919,3.386,1.998s1.469,2.477,1.632,3.956
				C477.931,456.335,477.646,457.853,476.993,459.132L476.993,459.132z"/>
			<path opacity="0.1" fill="#C7C7C7" enable-background="new    " d="M473.239,466.444c-0.408,0.799-0.938,1.478-1.591,1.998
				h-6.446v0.2h-6.569c0-0.08,0-0.12,0.041-0.2c0.163-0.639,0.367-1.239,0.653-1.758c0.694-1.319,1.714-2.357,2.978-2.877
				c-0.041-0.479,1.224-0.44,2.938-0.08C468.506,464.326,473.484,466.004,473.239,466.444z"/>
			<path opacity="0.1" fill="#C7C7C7" enable-background="new    " d="M435.418,459.132c0.694,1.319,1.714,2.357,2.978,2.877
				c-0.041,0.479-0.082,0.999-0.041,1.478l4.774-0.32l-4.651,1.159c0.326,1.638,1.142,3.077,2.285,4.076h6.446v0.2h6.569
				c0-0.08-0.041-0.12-0.041-0.2c-0.163-0.639-0.367-1.199-0.653-1.758c-0.694-1.319-1.714-2.318-2.978-2.877
				c0.163-1.518-0.122-3.077-0.775-4.395c-0.694-1.319-1.714-2.318-2.978-2.877c0.041-0.32,0.041-0.639,0.041-0.959l-3.06,1.398
				l3.019-2.078c-0.082-0.919-0.326-1.838-0.734-2.637c-0.408-0.799-0.938-1.518-1.591-2.078l-2.774,5.234l2.081-5.754
				c-1.142-0.719-2.448-0.999-3.754-0.759c-1.265,0.24-2.448,0.919-3.386,1.998s-1.469,2.477-1.632,3.956s0.122,2.997,0.775,4.275
				h0.082V459.132z"/>
			<path opacity="0.1" fill="#C7C7C7" enable-background="new    " d="M439.171,466.444c0.408,0.799,0.938,1.478,1.591,1.998h6.446
				v0.2h6.569c0-0.08-0.041-0.12-0.041-0.2c-0.163-0.639-0.367-1.199-0.653-1.758c-0.694-1.319-1.714-2.318-2.978-2.877
				c0.041-0.479-1.224-0.44-2.938-0.08C443.904,464.326,438.926,466.004,439.171,466.444z"/>
			<path fill="#464353" d="M462.142,438.674h-10.649v13.745h10.649V438.674z"/>
			<path opacity="0.1" enable-background="new    " d="M462.142,438.674h-10.649v13.745h10.649V438.674z"/>
			<path fill="#FFBBBB" d="M446.964,464.965l-0.204,3.556h3.06l0.204-4.715L446.964,464.965z"/>
			<path fill="#FFBBBB" d="M462.958,464.965l-0.449,3.556h2.774l0.163-4.715L462.958,464.965z"/>
			<path fill="#A1616A" d="M454.145,445.546c0,0-0.122,1.798-0.49,2.238c-0.367,0.479,3.305,4.595,6.202,0.519
				c0,0-1.265-1.239-0.938-2.597C459.204,444.348,454.145,445.546,454.145,445.546z"/>
			<path fill="#FFBBBB" d="M454.145,445.546c0,0-0.122,1.798-0.49,2.238c-0.367,0.479,3.305,4.595,6.202,0.519
				c0,0-1.265-1.239-0.938-2.597C459.204,444.348,454.145,445.546,454.145,445.546z"/>
			<path fill="#FFBBBB" d="M456.797,447.145c2.938,0,5.345-2.757,5.345-6.153s-2.366-6.153-5.345-6.153
				c-2.938,0-5.345,2.757-5.345,6.153C451.493,444.388,453.859,447.145,456.797,447.145z"/>
			<path fill="#C7C7C7" d="M456.511,449.382c0,0-2.244-0.04-2.57-2.397c-0.449,0.44-0.898,0.839-1.387,1.239
				c-0.204,0.08-2.366,1.478-2.734,1.558c-0.408,0.08-0.775,0.32-1.061,0.599c-0.53,0.479-0.938,1.079-1.265,1.758
				c-0.326,0.679-0.49,1.438-0.49,2.238c-0.082,2.757-0.367,8.151-0.367,8.151l0.122,1.958v1.279c0,0,1.958,0.599,3.182-0.599
				c0,0,0-0.479,0.245-0.599c0.204-0.16,0.245-0.759,0.204-1.039c0-0.4,0-0.759,0-1.159c0.041,0.2,0.163,0.4,0.286,0.519
				c0.082,0.36,0.122,0.719,0.082,1.079c-0.122,0.24-0.245,0.839-0.122,0.959c0.041,0.12,0.082,0.24,0.082,0.36
				s-0.041,0.24-0.122,0.36c-0.204,0.32-0.367,0.679-0.49,1.079c0,0-0.122,0.759-0.245,0.839c-0.122,0.32-0.204,0.639-0.245,0.999
				h13.219c-0.245-0.759-0.408-1.558-0.53-2.397c0.041-0.4-0.326-1.958-0.082-2.397c0.367-0.559,0.571-1.239,0.571-1.958
				l0.163,1.638l-0.408,3.676c0,0,2.448,0.879,2.734,0.32c0.286-0.959,0.49-1.958,0.612-2.957c0,0,0.571-3.077,0.734-3.476
				c0.163-0.44,0.49-8.91-1.51-10.149c-1.999-1.239-5.712-3.356-5.834-3.236c-0.204,0.599-0.612,1.119-1.102,1.438
				C457.694,449.382,457.082,449.502,456.511,449.382z"/>
			<path opacity="0.1" fill="none" stroke="#000000" stroke-miterlimit="10" enable-background="new    " d="M450.146,457.693
				c-0.367,0.639-0.53,1.398-0.449,2.158c0.082,0.759,0.286,1.478,0.612,2.118"/>
			<path opacity="0.1" fill="none" stroke="#000000" stroke-miterlimit="10" enable-background="new    " d="M462.998,458.253
				c0.082,0.32,0.163,0.639,0.204,0.959c0.082,0.4,0.122,0.839,0.041,1.239c-0.041,0.4-0.204,0.799-0.408,1.159"/>
			<path fill="#464353" d="M454.43,436.756c0.408-0.12,0.857-0.08,1.265,0.16c0.367,0.24,0.775,0.4,1.183,0.559
				c0.286,0.08,0.53,0.08,0.857,0.12c0.53,0.12,0.979,0.4,1.346,0.799c0.367,0.44,0.612,0.959,0.734,1.558
				c0.245,1.518-0.53,2.997-0.53,4.515c0,0.879,0.286,1.718,0.775,2.397c0.408,0.44,0.775,0.919,1.061,1.478
				c0.163,0.4,0.204,0.839,0.326,1.239c0.326,0.679,0.857,1.239,1.51,1.478c0.653,0.24,1.265,0.559,1.836,0.959
				c1.061,0.799,1.673,2.397,2.897,2.717c0.041,0.04,0.122,0.04,0.204,0.04s0.122,0,0.204-0.04c0.041-0.04,0.082-0.12,0.122-0.2
				c0.041-0.08,0.041-0.16,0.041-0.24c0.041-0.32,0-0.599-0.082-0.879s-0.245-0.559-0.408-0.759
				c-0.286-0.36-0.734-0.599-0.857-1.079c-0.082-0.479,0.163-0.879,0.286-1.319c0.449-1.398-0.286-2.917-1.142-4.036
				c-0.816-1.119-1.836-2.238-2.04-3.676c-0.041-0.479-0.082-0.959-0.041-1.478c0-0.999-0.163-1.998-0.449-2.957
				c-0.122-0.519-0.367-0.999-0.653-1.398c-0.286-0.36-0.612-0.639-0.898-0.999c-0.367-0.599-0.694-1.199-0.979-1.838
				c-0.408-0.759-0.979-1.398-1.673-1.838c-0.694-0.44-1.428-0.679-2.203-0.719c-1.469,0-2.897,0.759-4.162,1.678
				c-0.449,0.28-0.857,0.719-1.183,1.199c-0.53,0.959-0.367,2.278-0.694,3.356c-0.286,1.119-1.02,1.918-1.306,2.997
				c-0.082,0.32-0.082,0.639-0.041,0.959c0.082,0.36,0.204,0.679,0.367,0.999c0.286,0.799,0.449,1.638,0.449,2.477
				c0.082,1.039,0.122,2.158-0.367,2.997c-0.367,0.519-0.816,0.959-1.306,1.319c0.53,0.479,1.183,0.719,1.836,0.639
				c1.02,0.04,2.162,0,2.774-0.919c0.367-0.679,0.53-1.438,0.408-2.238c-0.041-0.839-0.204-1.678-0.449-2.517
				c-0.326-1.119-0.857-2.198-1.02-3.396c-0.041-0.44-0.041-0.879,0.041-1.279c0.082-0.44,0.245-0.799,0.49-1.159
				c0.204-0.28,0.53-0.4,0.694-0.719C454.022,437.355,453.941,436.956,454.43,436.756z"/>
			<g opacity="0.1">
				<path opacity="0.1" enable-background="new    " d="M450.187,442.43c0.286,0.799,0.449,1.638,0.449,2.477
					c0,0.28,0.041,0.559,0.041,0.839c0.041-0.599,0.041-1.199,0-1.798c-0.041-0.839-0.204-1.678-0.49-2.437
					c-0.163-0.32-0.286-0.639-0.367-0.959c-0.082,0.32-0.082,0.639-0.041,0.959C449.902,441.83,450.024,442.15,450.187,442.43z"/>
				<path opacity="0.1" enable-background="new    " d="M453.696,448.104c-0.612,0.919-1.795,0.959-2.815,0.919
					c-0.408,0-0.857-0.08-1.265-0.24c-0.204,0.2-0.408,0.36-0.612,0.519c0.53,0.479,1.183,0.719,1.836,0.639
					c1.02,0.04,2.162,0,2.815-0.919c0.367-0.599,0.53-1.359,0.449-2.078C454.022,447.384,453.9,447.784,453.696,448.104z"/>
				<path opacity="0.1" enable-background="new    " d="M466.915,450.541c0,0.08,0.041,0.12,0.082,0.2
					c0.041-0.16,0.122-0.36,0.204-0.519c0.122-0.4,0.163-0.839,0.122-1.279c0,0.08-0.041,0.2-0.082,0.28
					C467.078,449.662,466.834,450.102,466.915,450.541z"/>
				<path opacity="0.1" enable-background="new    " d="M459.816,440.232c0.041-0.44,0.041-0.839,0-1.279
					c-0.122-0.599-0.367-1.119-0.734-1.558c-0.367-0.44-0.857-0.719-1.346-0.799c-0.286-0.04-0.571-0.04-0.816-0.12
					c-0.408-0.12-0.816-0.32-1.183-0.559c-0.367-0.24-0.816-0.28-1.265-0.16c-0.49,0.2-0.408,0.599-0.612,0.999
					c-0.163,0.28-0.49,0.44-0.694,0.719c-0.408,0.639-0.612,1.438-0.53,2.278c0.082-0.479,0.245-0.919,0.49-1.279
					c0.204-0.28,0.53-0.4,0.694-0.719c0.204-0.4,0.163-0.839,0.612-0.999c0.408-0.12,0.857-0.08,1.265,0.16
					c0.367,0.24,0.775,0.4,1.183,0.559c0.286,0.08,0.53,0.08,0.857,0.12c0.53,0.12,0.979,0.4,1.346,0.799
					c0.367,0.44,0.612,0.959,0.734,1.558C459.775,440.032,459.816,440.112,459.816,440.232z"/>
				<path opacity="0.1" enable-background="new    " d="M468.058,453.698c-0.122,0.04-0.245,0.04-0.367,0
					c-1.224-0.32-1.877-1.918-2.897-2.717c-0.571-0.4-1.224-0.719-1.836-0.959c-0.653-0.24-1.183-0.799-1.51-1.478
					c-0.163-0.4-0.163-0.839-0.326-1.239c-0.286-0.559-0.653-1.039-1.061-1.478c-0.449-0.599-0.694-1.359-0.775-2.158
					c-0.041,0.24-0.041,0.479-0.041,0.719c0,0.879,0.286,1.758,0.775,2.437c0.408,0.44,0.775,0.919,1.061,1.478
					c0.163,0.4,0.204,0.839,0.326,1.239c0.326,0.679,0.857,1.239,1.51,1.478c0.653,0.24,1.265,0.559,1.836,0.959
					c1.061,0.799,1.673,2.397,2.897,2.717c0.041,0.04,0.122,0.04,0.204,0.04c0.082,0,0.122,0,0.204-0.04
					c0.041-0.04,0.082-0.12,0.122-0.2c0.041-0.08,0.041-0.16,0.041-0.24c0.041-0.24,0-0.479-0.041-0.679
					C468.139,453.658,468.098,453.698,468.058,453.698z"/>
			</g>
			<path opacity="0.1" fill="#C7C7C7" enable-background="new    " d="M445.25,433.08h-6.814v11.268h6.814V433.08z"/>
			<path opacity="0.1" fill="#C7C7C7" enable-background="new    " d="M444.271,434.678h-4.855v8.031h4.855V434.678z"/>
			<path opacity="0.1" fill="#C7C7C7" enable-background="new    " d="M478.829,434.758H467.65v6.753h11.179V434.758z"/>
			<path opacity="0.1" fill="#C7C7C7" enable-background="new    " d="M477.36,435.637h-8.282v4.995h8.282V435.637z"/>
		</g>
	</g>
</g>
</svg>
