<?xml version="1.0" encoding="utf-8"?>
<!-- Generator: Adobe Illustrator 17.0.0, SVG Export Plug-In . SVG Version: 6.00 Build 0)  -->
<!DOCTYPE svg PUBLIC "-//W3C//DTD SVG 1.1//EN" "http://www.w3.org/Graphics/SVG/1.1/DTD/svg11.dtd">
<svg version="1.1" id="Layer_1" xmlns="http://www.w3.org/2000/svg" xmlns:xlink="http://www.w3.org/1999/xlink" x="0px" y="0px"
	 width="160px" height="114.646px" viewBox="0 0 160 114.646" enable-background="new 0 0 160 114.646" xml:space="preserve">
<g>
	<path opacity="0.5" fill="#393944" enable-background="new    " d="M111.931,2.549l-64.43,0.137
		c-0.348,0.001-0.692,0.061-1.013,0.178c-0.321,0.117-0.612,0.288-0.858,0.504c-0.245,0.215-0.44,0.471-0.572,0.752
		s-0.2,0.582-0.199,0.886l0.293,105.331c0.001,0.303,0.07,0.605,0.204,0.885s0.33,0.536,0.576,0.75
		c0.247,0.215,0.539,0.385,0.861,0.5s0.666,0.175,1.014,0.174l64.43-0.137c0.348-0.001,0.692-0.061,1.013-0.179
		s0.613-0.288,0.858-0.504c0.245-0.216,0.44-0.471,0.572-0.752c0.132-0.282,0.199-0.584,0.198-0.887L114.585,4.856
		c0-0.304-0.07-0.604-0.204-0.885c-0.133-0.28-0.329-0.535-0.576-0.749c-0.246-0.214-0.539-0.384-0.86-0.499
		C112.623,2.607,112.279,2.548,111.931,2.549z"/>
</g>
<path fill="#FFFFFF" d="M110.997,3.987L48.441,4.121c-1.46,0.003-2.64,1.04-2.637,2.316L46.09,108.85
	c0.004,1.276,1.19,2.308,2.65,2.305l62.556-0.134c1.46-0.003,2.64-1.039,2.637-2.316L113.647,6.292
	C113.643,5.016,112.457,3.984,110.997,3.987z"/>
<path opacity="0.4" fill="#C7C7C7" enable-background="new    " d="M96.77,6.7c-0.193,1.135-0.844,2.173-1.836,2.925
	s-2.259,1.169-3.572,1.176L67.929,10.85c-1.312-0.002-2.58-0.414-3.575-1.162c-0.995-0.748-1.651-1.782-1.851-2.915L50.092,6.8
	c-0.338,0.001-0.673,0.06-0.986,0.173c-0.312,0.114-0.596,0.28-0.835,0.49s-0.428,0.458-0.557,0.732
	c-0.129,0.274-0.195,0.567-0.194,0.862l0.269,97.163c0.001,0.297,0.068,0.589,0.199,0.863c0.13,0.273,0.321,0.521,0.561,0.729
	c0.24,0.209,0.525,0.374,0.838,0.487c0.313,0.112,0.649,0.17,0.987,0.169l59.295-0.125c0.338-0.001,0.673-0.06,0.986-0.174
	c0.312-0.114,0.596-0.28,0.835-0.49c0.239-0.209,0.428-0.458,0.557-0.731c0.129-0.274,0.195-0.567,0.194-0.863l-0.269-97.163
	c-0.001-0.296-0.068-0.589-0.198-0.862s-0.321-0.521-0.561-0.73s-0.524-0.374-0.837-0.487c-0.313-0.113-0.648-0.17-0.987-0.17
	L96.77,6.7z"/>
<path fill="#DBDBDB" d="M86.282,7.932L71.94,8.12c-0.214,0.003-0.385,0.157-0.382,0.344l0.003,0.149
	c0.003,0.187,0.179,0.336,0.393,0.334l14.342-0.188c0.214-0.003,0.385-0.157,0.382-0.344l-0.003-0.149
	C86.672,8.078,86.496,7.929,86.282,7.932z"/>
<path fill="#DBDBDB" d="M89.893,8.71c0.313-0.004,0.564-0.23,0.559-0.504c-0.005-0.274-0.263-0.493-0.576-0.489
	c-0.314,0.004-0.564,0.23-0.559,0.504C89.322,8.495,89.58,8.714,89.893,8.71z"/>
<g opacity="0.5">
	
		<linearGradient id="SVGID_1_" gradientUnits="userSpaceOnUse" x1="26.6924" y1="-24536.5352" x2="26.6924" y2="-17876.875" gradientTransform="matrix(1 0 0 -1 41.94 -1347.5078)">
		<stop  offset="0" style="stop-color:#808080;stop-opacity:0.25"/>
		<stop  offset="0.54" style="stop-color:#808080;stop-opacity:0.12"/>
		<stop  offset="1" style="stop-color:#808080;stop-opacity:0.1"/>
	</linearGradient>
	<path opacity="0.5" fill="url(#SVGID_1_)" enable-background="new    " d="M87.787,80.568c0.001-2.891-0.854-5.732-2.482-8.249
		c-1.628-2.516-3.974-4.621-6.809-6.109c-2.835-1.489-6.063-2.31-9.369-2.385c-3.306-0.075-6.578,0.6-9.497,1.959
		s-5.386,3.355-7.161,5.794c-1.775,2.439-2.796,5.239-2.966,8.126s0.519,5.763,1.998,8.348s3.7,4.792,6.444,6.404l0.012,0.075
		c0.626,0.524,1.364,0.935,2.172,1.207l0.025-0.074c0.897,0.678,4.674,1.75,9.013,1.739h0.095c2.748,0,5.732-0.423,8.356-1.665
		c0,0,0.023-0.044,0.058-0.127c0.665-0.273,1.275-0.638,1.806-1.081c0.01-0.064,0.021-0.128,0.031-0.19
		c2.553-1.538,4.64-3.595,6.081-5.994C87.035,85.948,87.787,83.278,87.787,80.568z"/>
</g>
<path fill="#F5F5F5" d="M68.63,96.811c10.262,0,18.581-7.271,18.581-16.241S78.892,64.329,68.63,64.329S50.049,71.6,50.049,80.57
	C50.048,89.54,58.367,96.811,68.63,96.811z"/>
<path fill="#C7C7C7" d="M61.532,87.249c0,0-4.428,0.317-3.255,7.366c0.606,0.51,1.322,0.91,2.106,1.176l2.49-7.366L61.532,87.249z"
	/>
<path fill="#C7C7C7" d="M75.898,87.249c0,0,4.428,0.317,3.255,7.366c-0.606,0.51-1.322,0.91-2.106,1.176l-2.49-7.369L75.898,87.249z
	"/>
<path opacity="0.1" enable-background="new    " d="M75.813,87.249H61.449l-1.341,5.024c0,0-0.787,2.326,0.194,3.349
	c0.98,1.023,10.131,3.348,16.858,0.169c0.587-1.339,0.655-2.809,0.194-4.185c-0.775-2.345-0.194-0.17-0.194-0.17L75.813,87.249z"/>
<path opacity="0.1" enable-background="new    " d="M76.005,87.249H61.638l-1.341,5.024c0,0-0.787,2.326,0.194,3.349
	s10.131,3.348,16.858,0.169c0.587-1.339,0.655-2.809,0.194-4.185c-0.775-2.345-0.194-0.17-0.194-0.17L76.005,87.249z"/>
<path fill="#C7C7C7" d="M75.899,87.249H61.532l-1.341,5.024c0,0-0.787,2.326,0.194,3.349s10.131,3.348,16.859,0.169
	c0.587-1.339,0.655-2.809,0.194-4.185c-0.775-2.345-0.194-0.17-0.194-0.17L75.899,87.249z"/>
<path opacity="0.1" enable-background="new    " d="M65.938,83.08h5.751v4.861c0,0.219-0.049,0.436-0.145,0.638
	s-0.237,0.386-0.414,0.541s-0.388,0.278-0.619,0.362c-0.232,0.084-0.48,0.127-0.73,0.127h-1.938c-0.506,0-0.992-0.176-1.35-0.489
	c-0.358-0.313-0.559-0.737-0.559-1.18v-4.861L65.938,83.08L65.938,83.08z"/>
<path fill="#F4C4B5" d="M65.938,82.895h5.751v4.861c0,0.219-0.049,0.436-0.145,0.638s-0.237,0.386-0.414,0.541
	s-0.388,0.278-0.619,0.362c-0.232,0.084-0.48,0.127-0.73,0.127h-1.938c-0.506,0-0.992-0.176-1.35-0.489
	c-0.358-0.313-0.559-0.737-0.559-1.18v-4.861L65.938,82.895L65.938,82.895z"/>
<path opacity="0.1" enable-background="new    " d="M65.95,83.619c1.852,0.605,3.891,0.61,5.747,0.014v-0.617H65.95V83.619z"/>
<path fill="#FECEB8" d="M68.831,83.956c4.549,0,8.237-3.223,8.237-7.2c0-3.976-3.688-7.2-8.237-7.2c-4.549,0-8.237,3.224-8.237,7.2
	S64.282,83.956,68.831,83.956z"/>
<path fill="#FDA57D" d="M60.766,77.705c0.423,0,0.765-0.562,0.765-1.255s-0.343-1.255-0.765-1.255c-0.423,0-0.766,0.562-0.766,1.255
	C60.001,77.143,60.344,77.705,60.766,77.705z"/>
<path fill="#FDA57D" d="M76.855,77.705c0.423,0,0.765-0.562,0.765-1.255s-0.343-1.255-0.765-1.255c-0.423,0-0.765,0.562-0.765,1.255
	S76.433,77.705,76.855,77.705z"/>
<g opacity="0.5">
	
		<linearGradient id="SVGID_2_" gradientUnits="userSpaceOnUse" x1="49.4735" y1="-15740.1348" x2="49.4735" y2="-9077.7871" gradientTransform="matrix(1 0 0 -1 41.94 -1347.5078)">
		<stop  offset="0" style="stop-color:#808080;stop-opacity:0.25"/>
		<stop  offset="0.54" style="stop-color:#808080;stop-opacity:0.12"/>
		<stop  offset="1" style="stop-color:#808080;stop-opacity:0.1"/>
	</linearGradient>
	<path opacity="0.5" fill="url(#SVGID_2_)" enable-background="new    " d="M72.259,36.4c-0.001-2.891,0.854-5.732,2.482-8.249
		c1.628-2.516,3.974-4.621,6.809-6.109c2.835-1.489,6.063-2.31,9.369-2.385s6.578,0.6,9.497,1.959s5.386,3.355,7.161,5.794
		s2.797,5.239,2.966,8.126c0.169,2.887-0.519,5.763-1.998,8.348c-1.48,2.585-3.7,4.792-6.444,6.405l-0.012,0.074
		c-0.624,0.529-1.363,0.944-2.172,1.221l-0.025-0.075c-0.897,0.678-4.674,1.75-9.012,1.739h-0.095c-2.748,0-5.732-0.423-8.356-1.665
		c0,0-0.023-0.044-0.058-0.127c-0.665-0.273-1.274-0.638-1.806-1.081c-0.01-0.064-0.021-0.128-0.031-0.19
		c-2.555-1.539-4.643-3.599-6.085-6C73.008,41.784,72.256,39.112,72.259,36.4z"/>
</g>
<path fill="#F5F5F5" d="M91.414,52.642c10.262,0,18.581-7.271,18.581-16.241S101.676,20.16,91.414,20.16
	s-18.581,7.271-18.581,16.241S81.152,52.642,91.414,52.642z"/>
<path fill="#FECEB8" d="M84.13,42.587c0,0-4.428,0.317-3.255,7.366c0.607,0.508,1.323,0.907,2.106,1.172l2.49-7.366L84.13,42.587z"
	/>
<path fill="#FECEB8" d="M98.494,42.587c0,0,4.428,0.317,3.255,7.366c-0.607,0.508-1.323,0.907-2.106,1.172l-2.49-7.366
	L98.494,42.587z"/>
<path fill="#454554" d="M84.32,31.034c0,0-0.341,0.867-0.824,1.863c-1.054,2.202,0.149,10.621,2.67,11.517
	c2.829,1.016,6.55,1.653,10.415,0.422c3.358-1.07,4.395-10.67,2.019-12.999c-0.279-0.274-0.57-0.547-0.874-0.811L84.32,31.034z"/>
<path fill="#454554" d="M91.427,37.733c4.549,0,8.237-3.223,8.237-7.2c0-3.976-3.688-7.2-8.237-7.2s-8.237,3.223-8.237,7.2
	S86.878,37.733,91.427,37.733z"/>
<path opacity="0.1" enable-background="new    " d="M98.411,42.587H84.045l-1.341,5.024c0,0-0.787,2.326,0.194,3.348
	c0.98,1.023,10.131,3.349,16.858,0.169c0.587-1.339,0.655-2.809,0.194-4.185c-0.775-2.344-0.194-0.169-0.194-0.169L98.411,42.587z"
	/>
<path opacity="0.1" enable-background="new    " d="M98.601,42.587H84.235l-1.341,5.024c0,0-0.787,2.326,0.194,3.348
	c0.981,1.023,10.131,3.349,16.859,0.169c0.587-1.339,0.655-2.809,0.194-4.185c-0.775-2.344-0.194-0.169-0.194-0.169L98.601,42.587z"
	/>
<path fill="#C7C7C7" d="M98.495,42.587H84.13l-1.341,5.024c0,0-0.787,2.326,0.194,3.348c0.981,1.023,10.131,3.349,16.858,0.169
	c0.587-1.339,0.655-2.809,0.194-4.185c-0.775-2.344-0.194-0.169-0.194-0.169L98.495,42.587z"/>
<path opacity="0.1" enable-background="new    " d="M88.535,38.42h5.747v4.861c0,0.442-0.201,0.867-0.559,1.18
	s-0.843,0.489-1.35,0.489h-1.938c-0.506,0-0.992-0.176-1.35-0.489s-0.559-0.737-0.559-1.18V38.42H88.535z"/>
<path fill="#F4C4B5" d="M88.535,38.234h5.747v4.861c0,0.442-0.201,0.867-0.559,1.18s-0.843,0.489-1.35,0.489h-1.938
	c-0.506,0-0.992-0.176-1.35-0.489s-0.559-0.737-0.559-1.18v-4.861H88.535z"/>
<path opacity="0.1" enable-background="new    " d="M88.548,38.957c1.852,0.605,3.891,0.61,5.747,0.014v-0.616h-5.747V38.957z"/>
<path fill="#FECEB8" d="M91.427,39.295c4.549,0,8.237-3.224,8.237-7.2s-3.688-7.2-8.237-7.2s-8.237,3.224-8.237,7.2
	S86.878,39.295,91.427,39.295z"/>
<path fill="#393944" d="M83.555,29.361h15.707c0,0-1.341-5.544-7.278-5.189C86.047,24.525,83.555,29.361,83.555,29.361z"/>
<path fill="#FECEB8" d="M83.363,33.043c0.423,0,0.765-0.562,0.765-1.255s-0.343-1.255-0.765-1.255c-0.423,0-0.765,0.562-0.765,1.255
	C82.597,32.481,82.94,33.043,83.363,33.043z"/>
<path fill="#FECEB8" d="M99.452,33.043c0.423,0,0.765-0.562,0.765-1.255s-0.343-1.255-0.765-1.255s-0.765,0.562-0.765,1.255
	C98.686,32.481,99.029,33.043,99.452,33.043z"/>
<path fill="#454554" d="M83.555,29.548h15.707c0,0-1.341-5.544-7.278-5.19C86.047,24.712,83.555,29.548,83.555,29.548z"/>
<g opacity="0.5">
	<path opacity="0.5" fill="#D3D3D3" enable-background="new    " d="M6,21.878v24.173h43.572c0,0,3.217,5.533,8.747,7.142
		c0,0-1.765-3.919,0.078-7.142h12.13V21.878H6z"/>
</g>
<path fill="#FFFFFF" d="M7.744,22.706v22.865h43.599c0,0,0,4.573,5.232,6.097c0,0-1.744-3.049,0-6.097h12.208V22.706H7.744z"/>
<path fill="#C7C7C7" d="M47.855,27.279H12.976v3.049h34.88L47.855,27.279L47.855,27.279z"/>
<path fill="#C7C7C7" d="M60.063,31.852H12.976v3.049h47.087C60.063,34.901,60.063,31.852,60.063,31.852z"/>
<path fill="#C7C7C7" d="M54.831,36.425H12.976v3.049h41.855V36.425z"/>
<g opacity="0.5" enable-background="new    ">
	<path opacity="0.5" fill="#D3D3D3" enable-background="new    " d="M154.237,68.455v24.173h-43.57c0,0-3.217,5.533-8.749,7.142
		c0,0,1.765-3.919-0.077-7.142h-12.13V68.455H154.237z"/>
</g>
<path fill="#FFFFFF" d="M152.494,69.283v22.865h-43.6c0,0,0,4.573-5.232,6.097c0,0,1.744-3.048,0-6.097H91.455V69.283H152.494z"/>
<path fill="#C7C7C7" d="M133.504,73.856h-34.88v3.049h34.879L133.504,73.856L133.504,73.856z"/>
<path fill="#C7C7C7" d="M145.712,78.429H98.624v3.049h47.087L145.712,78.429L145.712,78.429z"/>
<path fill="#C7C7C7" d="M140.48,83.002H98.624v3.049h41.855L140.48,83.002L140.48,83.002z"/>
<path fill="#454554" d="M60.381,78.197c0.497-0.168,1.09,0.117,1.367,0.512c0.277,0.403,0.315,0.881,0.344,1.342
	c0.325,0.076,0.516-0.31,0.545-0.604c0.124-1.183,0.134-2.391,0.516-3.532s1.223-2.248,2.504-2.693
	c0.44-0.159,0.908-0.201,1.367-0.134c0.268,0.05,0.526,0.143,0.803,0.193c0.937,0.159,1.959-0.302,2.848,0.017
	c0.554,0.201,0.908,0.671,1.157,1.141c0.115,0.252,0.268,0.478,0.449,0.68c0.373,0.344,0.965,0.436,1.501,0.545
	s1.128,0.294,1.357,0.73c0.21,0.386,0.057,0.839-0.019,1.258c-0.105,0.663,0,1.351,0.306,1.946c0.096,0.193,0.296,0.419,0.535,0.352
	c0.105-0.034,0.201-0.117,0.258-0.218c0.621-0.898,0.602-2.072,1.376-2.878c0.258-0.268,0.593-0.478,0.841-0.755
	c0.191-0.201,0.335-0.445,0.411-0.713s0.086-0.554,0.029-0.831c-0.143-0.621-0.621-1.133-1.004-1.67
	c-0.497-0.688-0.87-1.477-1.071-2.307c-0.038-0.101-0.038-0.201,0-0.302c0.076-0.101,0.162-0.176,0.277-0.235
	c0.21-0.143,0.363-0.361,0.43-0.621c0.067-0.252,0.038-0.52-0.076-0.755c-0.22-0.47-0.698-0.814-1.233-1.024
	s-1.118-0.294-1.692-0.386c-0.382,0.059-0.822-0.168-0.946-0.487c-0.048-0.143-0.048-0.294-0.105-0.436
	c-0.105-0.268-0.401-0.461-0.717-0.529c-0.325-0.059-0.66-0.034-0.965,0.067c-0.354,0.101-0.774,0.26-1.08,0.084
	c-0.162-0.101-0.258-0.268-0.43-0.352c-0.354-0.159-0.736,0.159-0.994,0.428c-0.249,0.277-0.554,0.487-0.898,0.621
	c-0.363,0.126-0.803,0.126-1.109-0.076c-0.249-0.159-0.373-0.428-0.573-0.638c-0.325-0.344-0.832-0.529-1.348-0.571
	c-0.516-0.025-1.023,0.034-1.52,0.176c-0.946,0.235-1.845,0.629-2.676,1.158c-0.411,0.268-0.812,0.579-1.023,0.99
	c-0.153,0.319-0.229,0.663-0.229,1.015c-0.038,1.107,0.315,2.274,1.243,3.054c-0.564,0.243-0.755,0.839-0.889,1.376
	c-0.21,0.847-0.421,1.712-0.344,2.576c0.038,0.445,0.153,0.889,0.096,1.334c-0.029,0.218-0.105,0.428-0.086,0.646
	c0.019,0.117,0.076,0.235,0.162,0.319C60.152,78.121,60.266,78.18,60.381,78.197z"/>
<g opacity="0.1">
	<path opacity="0.1" enable-background="new    " d="M78.762,74.228c-0.086,0.185-0.191,0.352-0.325,0.495
		c-0.249,0.277-0.583,0.487-0.841,0.755c-0.774,0.805-0.755,1.972-1.376,2.878c-0.057,0.101-0.153,0.176-0.258,0.218
		c-0.239,0.067-0.44-0.159-0.535-0.352c-0.124-0.235-0.21-0.495-0.268-0.755c-0.01,0.067-0.029,0.134-0.038,0.193
		c-0.105,0.663,0,1.351,0.306,1.946c0.096,0.193,0.296,0.419,0.535,0.352c0.105-0.042,0.201-0.117,0.258-0.218
		c0.621-0.898,0.602-2.072,1.376-2.869c0.258-0.268,0.593-0.478,0.841-0.755c0.191-0.201,0.335-0.445,0.411-0.713
		s0.086-0.554,0.029-0.831C78.848,74.455,78.809,74.346,78.762,74.228z"/>
	<path opacity="0.1" enable-background="new    " d="M77.079,68.674c-0.105,0.05-0.201,0.134-0.277,0.235
		c-0.038,0.101-0.038,0.201,0,0.302c0.067,0.294,0.162,0.579,0.277,0.856c0.21-0.143,0.363-0.369,0.43-0.621
		c0.067-0.26,0.038-0.529-0.076-0.763c-0.038-0.076-0.076-0.151-0.124-0.218C77.242,68.54,77.165,68.615,77.079,68.674z"/>
	<path opacity="0.1" enable-background="new    " d="M61.126,70.411c-0.64-0.545-1.061-1.326-1.185-2.173
		c-0.029,0.168-0.048,0.344-0.057,0.512c-0.038,0.814,0.172,1.628,0.593,2.316C60.61,70.772,60.84,70.537,61.126,70.411z"/>
	<path opacity="0.1" enable-background="new    " d="M75.12,76.275c0.067-0.419,0.22-0.873,0.019-1.258
		c-0.229-0.428-0.812-0.621-1.357-0.73c-0.535-0.109-1.128-0.201-1.501-0.545c-0.182-0.201-0.335-0.428-0.449-0.68
		c-0.249-0.47-0.612-0.94-1.166-1.141c-0.879-0.319-1.902,0.143-2.848-0.017c-0.268-0.05-0.526-0.143-0.803-0.193
		c-0.459-0.067-0.927-0.025-1.367,0.126c-1.29,0.436-2.122,1.544-2.504,2.693s-0.392,2.349-0.516,3.532
		c-0.029,0.294-0.21,0.68-0.545,0.604c-0.038-0.461-0.076-0.948-0.344-1.342c-0.277-0.403-0.86-0.68-1.367-0.512
		c-0.153-0.034-0.287-0.126-0.382-0.26c0.019,0.168,0.019,0.344-0.01,0.512c-0.029,0.218-0.105,0.428-0.086,0.646
		c0.019,0.117,0.076,0.235,0.162,0.319s0.191,0.143,0.306,0.168c0.497-0.168,1.09,0.117,1.367,0.512
		c0.277,0.403,0.315,0.881,0.344,1.342c0.325,0.076,0.516-0.31,0.545-0.604c0.124-1.183,0.134-2.391,0.516-3.532
		s1.223-2.248,2.504-2.693c0.44-0.159,0.908-0.201,1.367-0.134c0.268,0.05,0.526,0.143,0.803,0.193
		c0.937,0.159,1.959-0.302,2.848,0.017c0.554,0.201,0.908,0.671,1.166,1.141c0.115,0.252,0.268,0.478,0.449,0.68
		c0.373,0.344,0.965,0.436,1.501,0.545s1.08,0.285,1.329,0.68C75.11,76.334,75.12,76.309,75.12,76.275z"/>
	<path opacity="0.1" enable-background="new    " d="M59.999,75.688c0.029-0.352,0.01-0.705-0.057-1.049
		c-0.057,0.361-0.067,0.73-0.038,1.099c0.01,0.092,0.019,0.185,0.029,0.277C59.951,75.915,59.97,75.805,59.999,75.688z"/>
</g>
</svg>
