<?xml version="1.0" encoding="utf-8"?>
<!-- Generator: Adobe Illustrator 17.0.0, SVG Export Plug-In . SVG Version: 6.00 Build 0)  -->
<!DOCTYPE svg PUBLIC "-//W3C//DTD SVG 1.1//EN" "http://www.w3.org/Graphics/SVG/1.1/DTD/svg11.dtd">
<svg version="1.1" id="Layer_1" xmlns="http://www.w3.org/2000/svg" xmlns:xlink="http://www.w3.org/1999/xlink" x="0px" y="0px"
	 width="360px" height="301px" viewBox="0 0 360 301" enable-background="new 0 0 360 301" xml:space="preserve">
<g>
	<g>
		<defs>
			<rect id="SVGID_1_" x="-39" width="428" height="301"/>
		</defs>
		<clipPath id="SVGID_2_">
			<use xlink:href="#SVGID_1_"  overflow="visible"/>
		</clipPath>
		<g clip-path="url(#SVGID_2_)">
			<path fill="#F2F2F2" enable-background="new    " d="M209.162,45.134c-23.078-0.909-45.06-9.379-66.048-18.638
				S101.332,6.975,78.808,2.067C64.318-1.089,47.749-1.527,36.076,7.29C24.84,15.782,21.211,30.456,19.261,44.048
				c-1.469,10.236-2.332,20.994,1.688,30.59c2.794,6.649,1.619,12.944,5.05,19.315c5.942,24.392,3,42.77-3.5,65.335
				c-6.053,10.157-12.905,24.966-17.585,35.778s-6.846,23.195-2.753,34.221c4.062,10.931,13.734,19.141,24.212,24.914
				c21.285,11.728,46.367,15.087,70.824,16.987c54.143,4.192,108.573,2.382,162.856,0.572c20.09-0.677,40.266-1.361,60.031-4.89
				c10.972-1.958,22.301-5.068,30.266-12.579c10.114-9.534,12.622-25.678,5.842-37.644c-11.367-20.05-27.739-23.713-35.685-45.232
				c-2.603-20.915-2.603-33.727,7.019-53.07c13.635-23.568,20.883-28.511,22.088-55.449c0.828-18.5-10.16-37.03-27.146-45.782
				c-17.809-9.176-42.499-8.021-55.637,7.167C253.311,39.922,229.539,45.938,209.162,45.134z"/>
			<path fill="#D0D2D5" d="M212.565,273.611l-73.858-0.905l0.216-1.81l3.572-29.863h64.863l4.772,29.863l0.364,2.262
				L212.565,273.611z"/>
			<path opacity="0.1" enable-background="new    " d="M212.493,273.157h-36.857l-36.929-0.453l0.216-1.809h73.207L212.493,273.157z
				"/>
			<path fill="#D0D2D5" d="M224.402,271.348h-98.005v2.262h98.005V271.348z"/>
			<path fill="#454554" d="M317.906,61.668c0.004-0.773-0.151-1.54-0.457-2.256s-0.757-1.367-1.326-1.917
				c-0.57-0.55-1.247-0.987-1.993-1.286s-1.547-0.456-2.356-0.459H38.077c-0.81,0.003-1.611,0.159-2.357,0.458
				c-0.747,0.299-1.424,0.736-1.994,1.286s-1.021,1.201-1.327,1.917s-0.462,1.483-0.458,2.257v158.543h285.965V61.668z"/>
			<path fill="#D0D2D5" d="M31.942,218.637v18.569c0,1.555,0.646,3.047,1.797,4.146c1.151,1.1,2.711,1.718,4.339,1.718h273.697
				c1.626-0.001,3.186-0.619,4.336-1.719c1.15-1.1,1.796-2.591,1.796-4.145v-18.569H31.942z"/>
			<path opacity="0.1" fill="#C7C7C7" enable-background="new    " d="M307.491,65.705H43.778v142.526h263.713L307.491,65.705
				L307.491,65.705z"/>
			<path fill="#B7B7B7" d="M176.345,236.023c0.968,0.001,1.924-0.209,2.795-0.613c0.872-0.403,1.636-0.991,2.235-1.718
				c0.182-0.222,0.347-0.455,0.496-0.699l-3.507-0.55l3.787,0.029c0.366-0.756,0.565-1.576,0.586-2.409
				c0.02-0.833-0.137-1.662-0.465-2.434l-5.086,2.534l4.693-3.294c-0.441-0.723-1.033-1.351-1.739-1.847
				c-0.705-0.495-1.51-0.846-2.364-1.032c-0.853-0.186-1.738-0.202-2.598-0.047s-1.678,0.476-2.403,0.946
				c-0.725,0.469-1.341,1.076-1.811,1.782c-0.469,0.706-0.781,1.497-0.917,2.324c-0.137,0.826-0.094,1.67,0.126,2.48
				c0.219,0.81,0.611,1.568,1.15,2.228c0.599,0.724,1.362,1.31,2.232,1.711C174.425,235.816,175.379,236.024,176.345,236.023z"/>
			<path opacity="0.1" enable-background="new    " d="M182.738,243.07l29.464,28.277l-4.519-28.277H182.738z"/>
			<path fill="#FFFFFF" d="M223.632,91.42H52.508c-0.544,0-0.985,0.421-0.985,0.941v97.298c0,0.519,0.441,0.941,0.985,0.941h171.124
				c0.544,0,0.985-0.422,0.985-0.941V92.361C224.617,91.841,224.176,91.42,223.632,91.42z"/>
			<path fill="#FFFFFF" d="M307.566,65.719H43.948v8.325h263.618V65.719z"/>
			<path fill="#B7B7B7" d="M52.365,67.168H45.38c-0.163,0-0.295,0.126-0.295,0.282v4.503c0,0.156,0.132,0.282,0.295,0.282h6.984
				c0.163,0,0.295-0.126,0.295-0.282V67.45C52.66,67.294,52.528,67.168,52.365,67.168z"/>
			<path opacity="0.3" fill="#B7B7B7" enable-background="new    " d="M214.551,67.168H135.45c-0.121,0-0.22,0.094-0.22,0.21v4.648
				c0,0.116,0.099,0.21,0.22,0.21h79.101c0.121,0,0.219-0.094,0.219-0.21v-4.648C214.77,67.262,214.672,67.168,214.551,67.168z"/>
			<path fill="#444053" d="M212.41,70.222h-0.193l-0.072-0.058c0.243-0.276,0.377-0.624,0.379-0.985
				c-0.002-0.296-0.096-0.585-0.27-0.83c-0.174-0.245-0.42-0.435-0.707-0.547s-0.602-0.14-0.905-0.08
				c-0.304,0.059-0.582,0.203-0.8,0.414c-0.218,0.21-0.366,0.478-0.425,0.768c-0.06,0.291-0.027,0.591,0.092,0.865
				c0.12,0.273,0.321,0.506,0.58,0.67c0.258,0.164,0.561,0.251,0.871,0.25c0.377-0.002,0.741-0.13,1.03-0.362l0.072,0.058v0.188
				l1.212,1.158l0.379-0.362L212.41,70.222z M210.956,70.222c-0.217,0.001-0.429-0.06-0.61-0.175
				c-0.18-0.115-0.321-0.278-0.405-0.469c-0.083-0.191-0.105-0.402-0.063-0.605c0.042-0.203,0.147-0.39,0.3-0.536
				s0.349-0.246,0.561-0.286c0.213-0.04,0.433-0.019,0.634,0.06c0.2,0.08,0.371,0.214,0.491,0.387
				c0.12,0.172,0.183,0.375,0.183,0.582c0.001,0.137-0.027,0.273-0.081,0.4c-0.055,0.127-0.135,0.242-0.237,0.339
				c-0.101,0.097-0.222,0.174-0.355,0.226C211.242,70.196,211.099,70.223,210.956,70.222z"/>
			<path fill="#B7B7B7" d="M303.779,72.235c1.465,0,2.652-1.134,2.652-2.534c0-1.399-1.187-2.534-2.652-2.534
				c-1.464,0-2.651,1.134-2.651,2.534S302.315,72.235,303.779,72.235z"/>
			<path fill="#FFFFFF" d="M260.816,83.094h-22.778c-0.509,0-0.921,0.394-0.921,0.879v14.168c0,0.486,0.412,0.88,0.921,0.88h22.778
				c0.509,0,0.921-0.394,0.921-0.88V83.973C261.737,83.488,261.325,83.094,260.816,83.094z"/>
			<path fill="#FFFFFF" d="M299.76,83.094h-31.354c-0.128,0-0.231,0.099-0.231,0.221v2.092c0,0.122,0.103,0.221,0.231,0.221h31.354
				c0.127,0,0.231-0.099,0.231-0.221v-2.092C299.991,83.193,299.887,83.094,299.76,83.094z"/>
			<path fill="#FFFFFF" d="M299.76,88.523h-31.354c-0.128,0-0.231,0.099-0.231,0.221v2.092c0,0.122,0.103,0.221,0.231,0.221h31.354
				c0.127,0,0.231-0.099,0.231-0.221v-2.092C299.991,88.622,299.887,88.523,299.76,88.523z"/>
			<path fill="#FFFFFF" d="M299.76,93.953h-31.354c-0.128,0-0.231,0.099-0.231,0.221v2.092c0,0.122,0.103,0.221,0.231,0.221h31.354
				c0.127,0,0.231-0.099,0.231-0.221v-2.092C299.991,94.052,299.887,93.953,299.76,93.953z"/>
			<path fill="#FFFFFF" d="M260.816,108.07h-22.778c-0.509,0-0.921,0.394-0.921,0.88v14.167c0,0.486,0.412,0.88,0.921,0.88h22.778
				c0.509,0,0.921-0.394,0.921-0.88V108.95C261.737,108.464,261.325,108.07,260.816,108.07z"/>
			<path fill="#FFFFFF" d="M299.76,108.07h-31.354c-0.128,0-0.231,0.099-0.231,0.221v2.092c0,0.122,0.103,0.221,0.231,0.221h31.354
				c0.127,0,0.231-0.099,0.231-0.221v-2.092C299.991,108.169,299.887,108.07,299.76,108.07z"/>
			<path fill="#FFFFFF" d="M299.76,113.5h-31.354c-0.128,0-0.231,0.099-0.231,0.221v2.092c0,0.122,0.103,0.221,0.231,0.221h31.354
				c0.127,0,0.231-0.099,0.231-0.221v-2.092C299.991,113.599,299.887,113.5,299.76,113.5z"/>
			<path fill="#FFFFFF" d="M299.741,118.93h-31.316c-0.138,0-0.25,0.107-0.25,0.239v2.056c0,0.132,0.112,0.238,0.25,0.238h31.316
				c0.138,0,0.25-0.106,0.25-0.238v-2.056C299.991,119.037,299.879,118.93,299.741,118.93z"/>
			<path fill="#FFFFFF" d="M260.816,133.047h-22.778c-0.509,0-0.921,0.394-0.921,0.879v14.168c0,0.486,0.412,0.88,0.921,0.88h22.778
				c0.509,0,0.921-0.394,0.921-0.88v-14.168C261.737,133.441,261.325,133.047,260.816,133.047z"/>
			<path fill="#FFFFFF" d="M299.741,133.047h-31.316c-0.138,0-0.25,0.107-0.25,0.239v2.056c0,0.132,0.112,0.239,0.25,0.239h31.316
				c0.138,0,0.25-0.107,0.25-0.239v-2.056C299.991,133.154,299.879,133.047,299.741,133.047z"/>
			<path fill="#FFFFFF" d="M299.741,138.475h-31.316c-0.138,0-0.25,0.107-0.25,0.239v2.055c0,0.132,0.112,0.239,0.25,0.239h31.316
				c0.138,0,0.25-0.107,0.25-0.239v-2.055C299.991,138.582,299.879,138.475,299.741,138.475z"/>
			<path fill="#FFFFFF" d="M299.741,143.904h-31.316c-0.138,0-0.25,0.107-0.25,0.239v2.056c0,0.132,0.112,0.239,0.25,0.239h31.316
				c0.138,0,0.25-0.107,0.25-0.239v-2.056C299.991,144.011,299.879,143.904,299.741,143.904z"/>
			<path fill="#FFFFFF" d="M260.816,158.021h-22.778c-0.509,0-0.921,0.394-0.921,0.88v14.168c0,0.485,0.412,0.879,0.921,0.879
				h22.778c0.509,0,0.921-0.394,0.921-0.879v-14.168C261.737,158.415,261.325,158.021,260.816,158.021z"/>
			<path fill="#FFFFFF" d="M299.741,158.021h-31.316c-0.138,0-0.25,0.107-0.25,0.239v2.056c0,0.132,0.112,0.239,0.25,0.239h31.316
				c0.138,0,0.25-0.107,0.25-0.239v-2.056C299.991,158.128,299.879,158.021,299.741,158.021z"/>
			<path fill="#FFFFFF" d="M299.741,163.451h-31.316c-0.138,0-0.25,0.107-0.25,0.239v2.056c0,0.132,0.112,0.239,0.25,0.239h31.316
				c0.138,0,0.25-0.107,0.25-0.239v-2.056C299.991,163.558,299.879,163.451,299.741,163.451z"/>
			<path fill="#FFFFFF" d="M299.741,168.881h-31.316c-0.138,0-0.25,0.107-0.25,0.239v2.056c0,0.132,0.112,0.239,0.25,0.239h31.316
				c0.138,0,0.25-0.107,0.25-0.239v-2.056C299.991,168.988,299.879,168.881,299.741,168.881z"/>
			<path fill="#FFFFFF" d="M260.816,182.998h-22.778c-0.509,0-0.921,0.394-0.921,0.88v14.167c0,0.486,0.412,0.88,0.921,0.88h22.778
				c0.509,0,0.921-0.394,0.921-0.88v-14.167C261.737,183.392,261.325,182.998,260.816,182.998z"/>
			<path fill="#FFFFFF" d="M299.741,182.998h-31.316c-0.138,0-0.25,0.107-0.25,0.239v2.056c0,0.132,0.112,0.239,0.25,0.239h31.316
				c0.138,0,0.25-0.107,0.25-0.239v-2.056C299.991,183.105,299.879,182.998,299.741,182.998z"/>
			<path fill="#FFFFFF" d="M299.741,188.428h-31.316c-0.138,0-0.25,0.107-0.25,0.239v2.056c0,0.132,0.112,0.239,0.25,0.239h31.316
				c0.138,0,0.25-0.107,0.25-0.239v-2.056C299.991,188.535,299.879,188.428,299.741,188.428z"/>
			<path fill="#FFFFFF" d="M299.741,193.857h-31.316c-0.138,0-0.25,0.107-0.25,0.239v2.056c0,0.132,0.112,0.239,0.25,0.239h31.316
				c0.138,0,0.25-0.107,0.25-0.239v-2.056C299.991,193.964,299.879,193.857,299.741,193.857z"/>
			<path opacity="0.1" fill="#B7B7B7" enable-background="new    " d="M115.44,117.701H76.492v1.929h38.948V117.701z"/>
			<path opacity="0.1" fill="#B7B7B7" enable-background="new    " d="M83.704,107.502h-3.75v10.2h3.75V107.502z"/>
			<path opacity="0.1" fill="#B7B7B7" enable-background="new    " d="M89.184,107.502h-3.75v10.2h3.75V107.502z"/>
			<path opacity="0.1" fill="#B7B7B7" enable-background="new    " d="M94.665,107.502h-3.75v10.2h3.75V107.502z"/>
			<path opacity="0.1" fill="#B7B7B7" enable-background="new    " d="M100.145,107.502h-3.749v10.2h3.749V107.502z"/>
			<path opacity="0.1" fill="#B7B7B7" enable-background="new    " d="M105.626,107.502h-3.75v10.2h3.75V107.502z"/>
			<path opacity="0.1" fill="#B7B7B7" enable-background="new    " d="M111.111,107.502h-3.75v10.2h3.75V107.502z"/>
			<path opacity="0.1" fill="#B7B7B7" enable-background="new    " d="M83.704,109.43h-3.75v1.104h3.75V109.43z"/>
			<path opacity="0.1" fill="#B7B7B7" enable-background="new    " d="M89.184,109.43h-3.75v1.104h3.75V109.43z"/>
			<path opacity="0.1" fill="#B7B7B7" enable-background="new    " d="M94.665,109.43h-3.75v1.104h3.75V109.43z"/>
			<path opacity="0.1" fill="#B7B7B7" enable-background="new    " d="M100.145,109.43h-3.749v1.104h3.749V109.43z"/>
			<path opacity="0.1" fill="#B7B7B7" enable-background="new    " d="M105.626,109.43h-3.75v1.104h3.75V109.43z"/>
			<path opacity="0.1" fill="#B7B7B7" enable-background="new    " d="M111.111,109.43h-3.75v1.104h3.75V109.43z"/>
			<path opacity="0.1" fill="#B7B7B7" enable-background="new    " d="M83.704,114.393h-3.75v1.104h3.75V114.393z"/>
			<path opacity="0.1" fill="#B7B7B7" enable-background="new    " d="M89.184,114.393h-3.75v1.104h3.75V114.393z"/>
			<path opacity="0.1" fill="#B7B7B7" enable-background="new    " d="M94.665,114.393h-3.75v1.104h3.75V114.393z"/>
			<path opacity="0.1" fill="#B7B7B7" enable-background="new    " d="M100.145,114.393h-3.749v1.104h3.749V114.393z"/>
			<path opacity="0.1" fill="#B7B7B7" enable-background="new    " d="M105.626,114.393h-3.75v1.104h3.75V114.393z"/>
			<path opacity="0.1" fill="#B7B7B7" enable-background="new    " d="M111.111,114.393h-3.75v1.104h3.75V114.393z"/>
			<path opacity="0.1" fill="#B7B7B7" enable-background="new    " d="M200.832,122.664h-38.948v1.929h38.948V122.664z"/>
			<path opacity="0.1" fill="#B7B7B7" enable-background="new    " d="M169.095,112.465h-3.749v10.2h3.749V112.465z"/>
			<path opacity="0.1" fill="#B7B7B7" enable-background="new    " d="M174.576,112.465h-3.75v10.2h3.75V112.465z"/>
			<path opacity="0.1" fill="#B7B7B7" enable-background="new    " d="M180.056,112.465h-3.749v10.2h3.749V112.465z"/>
			<path opacity="0.1" fill="#B7B7B7" enable-background="new    " d="M185.541,112.465h-3.75v10.2h3.75V112.465z"/>
			<path opacity="0.1" fill="#B7B7B7" enable-background="new    " d="M191.021,112.465h-3.75v10.2h3.75V112.465z"/>
			<path opacity="0.1" fill="#B7B7B7" enable-background="new    " d="M196.503,112.465h-3.75v10.2h3.75V112.465z"/>
			<path opacity="0.1" fill="#B7B7B7" enable-background="new    " d="M169.095,114.393h-3.749v1.104h3.749V114.393z"/>
			<path opacity="0.1" fill="#B7B7B7" enable-background="new    " d="M174.576,114.393h-3.75v1.104h3.75V114.393z"/>
			<path opacity="0.1" fill="#B7B7B7" enable-background="new    " d="M180.056,114.393h-3.749v1.104h3.749V114.393z"/>
			<path opacity="0.1" fill="#B7B7B7" enable-background="new    " d="M185.541,114.393h-3.75v1.104h3.75V114.393z"/>
			<path opacity="0.1" fill="#B7B7B7" enable-background="new    " d="M191.021,114.393h-3.75v1.104h3.75V114.393z"/>
			<path opacity="0.1" fill="#B7B7B7" enable-background="new    " d="M196.503,114.393h-3.75v1.104h3.75V114.393z"/>
			<path opacity="0.1" fill="#B7B7B7" enable-background="new    " d="M169.095,119.355h-3.749v1.104h3.749V119.355z"/>
			<path opacity="0.1" fill="#B7B7B7" enable-background="new    " d="M174.576,119.355h-3.75v1.104h3.75V119.355z"/>
			<path opacity="0.1" fill="#B7B7B7" enable-background="new    " d="M180.056,119.355h-3.749v1.104h3.749V119.355z"/>
			<path opacity="0.1" fill="#B7B7B7" enable-background="new    " d="M185.541,119.355h-3.75v1.104h3.75V119.355z"/>
			<path opacity="0.1" fill="#B7B7B7" enable-background="new    " d="M191.021,119.355h-3.75v1.104h3.75V119.355z"/>
			<path opacity="0.1" fill="#B7B7B7" enable-background="new    " d="M196.503,119.355h-3.75v1.104h3.75V119.355z"/>
			<path opacity="0.1" fill="#B7B7B7" enable-background="new    " d="M200.832,136.723h-38.948v1.929h38.948V136.723z"/>
			<path opacity="0.1" fill="#B7B7B7" enable-background="new    " d="M169.095,126.523h-3.749v10.201h3.749V126.523z"/>
			<path opacity="0.1" fill="#B7B7B7" enable-background="new    " d="M174.576,126.523h-3.75v10.201h3.75V126.523z"/>
			<path opacity="0.1" fill="#B7B7B7" enable-background="new    " d="M180.056,126.523h-3.749v10.201h3.749V126.523z"/>
			<path opacity="0.1" fill="#B7B7B7" enable-background="new    " d="M185.541,126.523h-3.75v10.201h3.75V126.523z"/>
			<path opacity="0.1" fill="#B7B7B7" enable-background="new    " d="M191.021,126.523h-3.75v10.201h3.75V126.523z"/>
			<path opacity="0.1" fill="#B7B7B7" enable-background="new    " d="M196.503,126.523h-3.75v10.201h3.75V126.523z"/>
			<path opacity="0.1" fill="#B7B7B7" enable-background="new    " d="M169.095,128.453h-3.749v1.104h3.749V128.453z"/>
			<path opacity="0.1" fill="#B7B7B7" enable-background="new    " d="M174.576,128.453h-3.75v1.104h3.75V128.453z"/>
			<path opacity="0.1" fill="#B7B7B7" enable-background="new    " d="M180.056,128.453h-3.749v1.104h3.749V128.453z"/>
			<path opacity="0.1" fill="#B7B7B7" enable-background="new    " d="M185.541,128.453h-3.75v1.104h3.75V128.453z"/>
			<path opacity="0.1" fill="#B7B7B7" enable-background="new    " d="M191.021,128.453h-3.75v1.104h3.75V128.453z"/>
			<path opacity="0.1" fill="#B7B7B7" enable-background="new    " d="M196.503,128.453h-3.75v1.104h3.75V128.453z"/>
			<path opacity="0.1" fill="#B7B7B7" enable-background="new    " d="M169.095,133.414h-3.749v1.104h3.749V133.414z"/>
			<path opacity="0.1" fill="#B7B7B7" enable-background="new    " d="M174.576,133.414h-3.75v1.104h3.75V133.414z"/>
			<path opacity="0.1" fill="#B7B7B7" enable-background="new    " d="M180.056,133.414h-3.749v1.104h3.749V133.414z"/>
			<path opacity="0.1" fill="#B7B7B7" enable-background="new    " d="M185.541,133.414h-3.75v1.104h3.75V133.414z"/>
			<path opacity="0.1" fill="#B7B7B7" enable-background="new    " d="M191.021,133.414h-3.75v1.104h3.75V133.414z"/>
			<path opacity="0.1" fill="#B7B7B7" enable-background="new    " d="M196.503,133.414h-3.75v1.104h3.75V133.414z"/>
			<path opacity="0.1" fill="#B7B7B7" enable-background="new    " d="M100.384,139.517c-0.29-0.356-0.556-0.729-0.795-1.118
				l5.609-0.88l-6.06,0.043c-0.581-1.209-0.899-2.519-0.932-3.85c-0.034-1.33,0.216-2.653,0.735-3.889l8.125,4.026l-7.504-5.271
				c0.698-1.17,1.642-2.19,2.772-2.995c1.13-0.806,2.423-1.379,3.796-1.684s2.797-0.336,4.183-0.09
				c1.386,0.245,2.704,0.762,3.871,1.518s2.158,1.734,2.91,2.873c0.753,1.139,1.251,2.415,1.463,3.746
				c0.212,1.332,0.134,2.692-0.229,3.993c-0.364,1.302-1.005,2.517-1.884,3.571c0.456,0.55,0.848,1.148,1.166,1.781l-7.279,3.619
				l7.76-2.486c0.543,1.537,0.677,3.18,0.389,4.78c-0.287,1.599-0.987,3.105-2.036,4.381c1.189,1.441,1.93,3.173,2.137,4.997
				c0.207,1.825-0.127,3.668-0.965,5.319c-0.838,1.652-2.145,3.044-3.773,4.019c-1.627,0.974-3.509,1.491-5.429,1.491
				s-3.802-0.517-5.429-1.491c-1.627-0.975-2.935-2.367-3.773-4.019c-0.838-1.651-1.172-3.494-0.965-5.319
				c0.207-1.824,0.948-3.556,2.137-4.997c-1.416-1.722-2.186-3.849-2.186-6.039c0-2.191,0.77-4.318,2.186-6.04L100.384,139.517
				L100.384,139.517z"/>
			<path opacity="0.1" fill="#B7B7B7" enable-background="new    " d="M118.633,145.556c0,2.188-0.771,4.313-2.189,6.031
				c1.189,1.441,1.93,3.172,2.137,4.997c0.207,1.824-0.127,3.668-0.965,5.319s-2.145,3.044-3.773,4.018
				c-1.627,0.974-3.509,1.491-5.429,1.491s-3.802-0.517-5.429-1.491s-2.935-2.367-3.773-4.018c-0.838-1.651-1.172-3.495-0.965-5.319
				c0.207-1.825,0.948-3.556,2.137-4.997C99.009,149.932,118.633,144.459,118.633,145.556z"/>
			<path opacity="0.2" fill="#3F3D56" enable-background="new    " d="M110.051,170.002c0.017,0.026,0.034,0.053,0.049,0.08h-3.47
				c0.019-0.025,0.031-0.054,0.05-0.08c-0.299-0.496-0.453-1.06-0.447-1.632c-0.002-0.393,0.068-0.782,0.208-1.151
				c0.193,0.029,0.432,0.061,0.708,0.09c0.805,0.077,1.616,0.077,2.42,0c0.233-0.021,0.471-0.05,0.716-0.087
				c-0.001,0.006-0.001,0.013,0,0.018c0.138,0.364,0.208,0.747,0.205,1.133C110.498,168.944,110.346,169.506,110.051,170.002z"/>
			<path opacity="0.1" fill="#B7B7B7" enable-background="new    " d="M97.581,170.082H78.265c-0.042-0.104-0.08-0.217-0.114-0.325
				c-0.681-2.092-0.602-4.342,0.223-6.385c-1.886-1.246-3.279-3.062-3.955-5.155c-0.677-2.094-0.597-4.343,0.225-6.389
				c-0.388-0.255-0.757-0.537-1.102-0.843l5.083-2.422l-5.78,1.752c-0.929-0.991-1.637-2.153-2.08-3.414
				c-0.443-1.262-0.611-2.597-0.495-3.923l9.018,1.557l-8.795-2.921c0.303-1.318,0.889-2.56,1.719-3.651
				c0.83-1.09,1.888-2.005,3.106-2.685c1.218-0.681,2.571-1.113,3.972-1.27c1.402-0.157,2.822-0.035,4.172,0.358
				c1.35,0.394,2.6,1.05,3.672,1.927c1.072,0.878,1.942,1.958,2.555,3.172c0.614,1.215,0.957,2.538,1.01,3.885
				c0.053,1.348-0.187,2.692-0.705,3.946c0.61,0.406,1.173,0.873,1.678,1.394l-5.84,5.506l6.647-4.568
				c0.996,1.317,1.633,2.851,1.852,4.462c0.22,1.612,0.015,3.251-0.595,4.768c1.834,1.214,3.203,2.968,3.897,4.994
				C98.328,165.879,98.31,168.067,97.581,170.082z"/>
			<path opacity="0.1" fill="#B7B7B7" enable-background="new    " d="M97.581,170.082H78.265c-0.042-0.105-0.08-0.217-0.114-0.325
				c-0.681-2.092-0.602-4.342,0.223-6.386c-1.818-1.201,15.238-11.97,15.575-10.92c0.68,2.093,0.602,4.344-0.224,6.389
				c1.84,1.213,3.214,2.97,3.91,5C98.332,165.871,98.313,168.063,97.581,170.082z"/>
			<path opacity="0.1" fill="#B7B7B7" enable-background="new    " d="M184.98,156.856c-1.173,1.882-2.976,3.33-5.117,4.112
				c0.092,0.696,0.106,1.4,0.042,2.099l-8.185-0.47l7.995,1.658c-0.235,1.041-0.647,2.039-1.219,2.953
				c-0.697,1.12-1.625,2.093-2.727,2.86h-11.143v0.279h-11.363c0.022-0.094,0.045-0.185,0.072-0.279
				c0.414-1.498,1.195-2.88,2.279-4.032c1.083-1.152,2.437-2.042,3.951-2.596c-0.29-2.173,0.191-4.376,1.368-6.256
				c1.176-1.88,2.98-3.327,5.12-4.111c-0.059-0.447-0.087-0.898-0.083-1.35l5.284,1.995l-5.227-2.936
				c0.154-1.323,0.589-2.602,1.279-3.758c0.69-1.157,1.619-2.166,2.732-2.967l4.814,7.449l-3.609-8.202
				c1.966-1.04,4.236-1.432,6.458-1.115c2.223,0.316,4.274,1.324,5.838,2.866c1.563,1.543,2.552,3.534,2.812,5.667
				C186.612,152.855,186.13,155.011,184.98,156.856z"/>
			<path opacity="0.1" fill="#B7B7B7" enable-background="new    " d="M178.496,167.224c-0.697,1.12-1.625,2.093-2.727,2.86h-11.143
				v0.278h-11.363c0.022-0.094,0.045-0.184,0.072-0.278c0.414-1.498,1.195-2.88,2.279-4.032c1.083-1.153,2.437-2.042,3.951-2.596
				c-0.094-0.724,2.106-0.615,5.042-0.145C170.36,164.234,178.886,166.602,178.496,167.224z"/>
			<path fill="#F4C4B5" d="M130.197,141.158c0,0,1.401,7.239-1.727,9.603c-3.129,2.363,2.651,16.531,12.188,14.877
				c9.537-1.655,13.423-13.538,13.423-13.538s-9.552-1.89-6.011-11.493L130.197,141.158z"/>
			<path fill="#FECEB8" d="M138.638,146.471c8.734,0,15.814-6.766,15.814-15.113c0-8.346-7.08-15.112-15.814-15.112
				c-8.733,0-15.813,6.766-15.813,15.112C122.825,139.705,129.905,146.471,138.638,146.471z"/>
			<path fill="#B7B7B7" d="M164.626,160.088v10.273H112.41v-9.806c0-1.243,0.383-2.459,1.102-3.496
				c0.719-1.036,1.741-1.847,2.94-2.332l1.496-0.608c3.787-1.542,8.389-3.456,9.893-4.253c0.165-0.078,0.32-0.174,0.462-0.286
				c0.822-0.785,0.659,0.236,0.659,0.236s-0.023,0.195-0.038,0.532c-0.091,2.313,0.258,11.402,11.405,10.645
				c10.874-0.724,11.362-7.753,11.253-9.82c-0.007-0.191-0.023-0.382-0.05-0.572c0.752,0.171,1.489,0.401,2.201,0.688
				c2.273,0.803,5.628,2.092,6.526,2.7c0.28,0.188,0.621,0.384,0.992,0.583c0.422,0.224,0.815,0.492,1.175,0.8
				c0.692,0.594,1.246,1.322,1.625,2.134C164.43,158.319,164.626,159.199,164.626,160.088z"/>
			<path opacity="0.1" enable-background="new    " d="M153.733,151.289c-0.921,4.076-3.811,11.709-14.227,11.909
				c-11.097,0.21-11.741-10.338-11.669-13.332c0.167-0.076,0.323-0.172,0.465-0.286c0.826-0.785,0.66,0.236,0.66,0.236
				s-1.398,12.042,11.362,11.177c12.761-0.865,11.193-10.388,11.193-10.388C151.517,150.547,152.467,150.862,153.733,151.289z"/>
			<path fill="#454554" d="M119.92,132.115c0.526-0.125,1.078-0.097,1.586,0.08c0.509,0.177,0.95,0.496,1.267,0.916
				c0.575,0.771,0.662,1.701,0.734,2.591c0.686,0.138,1.072-0.604,1.137-1.165c0.253-2.284,0.272-4.612,1.075-6.82
				s2.557-4.343,5.25-5.187c0.92-0.304,1.903-0.394,2.867-0.26c0.572,0.09,1.11,0.282,1.678,0.362c1.97,0.311,4.11-0.58,5.954,0.039
				c1.159,0.391,1.894,1.293,2.436,2.194c0.235,0.486,0.555,0.93,0.947,1.314c0.784,0.673,2.011,0.847,3.136,1.057
				s2.352,0.575,2.833,1.404c0.432,0.75,0.113,1.615-0.03,2.425c-0.223,1.285,0.002,2.604,0.64,3.754
				c0.208,0.362,0.632,0.8,1.136,0.681c0.225-0.073,0.416-0.221,0.538-0.417c1.291-1.73,1.257-3.981,2.878-5.541
				c0.542-0.522,1.243-0.927,1.769-1.448c0.399-0.387,0.691-0.861,0.851-1.381c0.16-0.521,0.182-1.071,0.066-1.602
				c-0.292-1.194-1.292-2.172-2.099-3.221c-1.047-1.33-1.811-2.844-2.246-4.456c-0.076-0.188-0.076-0.396,0-0.583
				c0.153-0.19,0.35-0.344,0.576-0.449c0.439-0.281,0.756-0.706,0.891-1.194c0.135-0.488,0.08-1.007-0.156-1.459
				c-0.458-0.894-1.466-1.575-2.602-1.98c-1.153-0.362-2.343-0.605-3.549-0.724c-0.796,0.109-1.727-0.322-1.974-0.93
				c-0.109-0.272-0.109-0.565-0.219-0.836c-0.149-0.273-0.365-0.508-0.628-0.684c-0.264-0.176-0.568-0.29-0.887-0.33
				c-0.678-0.105-1.371-0.058-2.027,0.138c-0.757,0.202-1.617,0.506-2.272,0.152c-0.345-0.185-0.534-0.522-0.905-0.674
				c-0.758-0.304-1.538,0.312-2.08,0.818c-0.522,0.532-1.163,0.944-1.875,1.206c-0.376,0.137-0.778,0.194-1.179,0.169
				c-0.402-0.026-0.793-0.134-1.146-0.318c-0.519-0.315-0.781-0.821-1.193-1.223c-0.78-0.665-1.778-1.049-2.822-1.086
				c-1.074-0.055-2.15,0.058-3.186,0.333c-1.977,0.46-3.865,1.218-5.594,2.244c-0.869,0.457-1.607,1.112-2.147,1.908
				c-0.32,0.61-0.485,1.283-0.481,1.965c-0.084,2.139,0.659,4.391,2.594,5.889c-1.182,0.471-1.579,1.626-1.856,2.65
				c-0.443,1.636-0.886,3.298-0.72,4.963c0.084,0.861,0.33,1.723,0.197,2.581c-0.106,0.403-0.164,0.818-0.174,1.234
				c0.056,0.229,0.182,0.437,0.362,0.598C119.451,131.973,119.677,132.078,119.92,132.115z"/>
			<g opacity="0.1">
				<path opacity="0.1" enable-background="new    " d="M158.421,124.438c-0.17,0.354-0.4,0.68-0.681,0.962
					c-0.527,0.529-1.228,0.938-1.769,1.448c-1.621,1.549-1.587,3.815-2.879,5.546c-0.12,0.195-0.312,0.342-0.538,0.412
					c-0.492,0.123-0.916-0.304-1.136-0.68c-0.25-0.459-0.44-0.945-0.564-1.448c-0.027,0.127-0.053,0.253-0.076,0.362
					c-0.223,1.284,0.002,2.603,0.64,3.753c0.208,0.362,0.633,0.8,1.136,0.681c0.226-0.073,0.417-0.221,0.538-0.416
					c1.292-1.731,1.258-3.982,2.879-5.542c0.541-0.521,1.242-0.927,1.769-1.448c0.398-0.386,0.69-0.861,0.85-1.381
					c0.16-0.521,0.183-1.071,0.066-1.602C158.598,124.863,158.519,124.646,158.421,124.438z"/>
				<path opacity="0.1" enable-background="new    " d="M154.891,113.722c-0.226,0.104-0.423,0.258-0.575,0.449
					c-0.076,0.187-0.076,0.393,0,0.579c0.149,0.563,0.34,1.114,0.571,1.651c0.44-0.281,0.756-0.706,0.892-1.194
					c0.135-0.489,0.079-1.007-0.157-1.459c-0.073-0.149-0.162-0.291-0.265-0.424C155.223,113.478,155.066,113.612,154.891,113.722z"
					/>
				<path opacity="0.1" enable-background="new    " d="M121.485,117.078c-1.342-1.057-2.226-2.551-2.481-4.195
					c-0.068,0.324-0.106,0.654-0.113,0.984c-0.087,1.581,0.349,3.148,1.246,4.478C120.408,117.779,120.888,117.328,121.485,117.078z
					"/>
				<path opacity="0.1" enable-background="new    " d="M150.789,128.398c0.144-0.815,0.462-1.68,0.03-2.425
					c-0.481-0.833-1.708-1.195-2.833-1.405s-2.352-0.387-3.136-1.057c-0.391-0.383-0.712-0.828-0.947-1.314
					c-0.534-0.901-1.277-1.81-2.436-2.193c-1.844-0.619-3.984,0.268-5.954-0.04c-0.568-0.091-1.106-0.279-1.678-0.362
					c-0.963-0.135-1.947-0.045-2.867,0.26c-2.693,0.847-4.447,2.983-5.249,5.188c-0.803,2.204-0.822,4.531-1.076,6.819
					c-0.065,0.557-0.451,1.303-1.136,1.166c-0.072-0.894-0.16-1.81-0.735-2.596c-0.318-0.418-0.759-0.737-1.267-0.913
					c-0.509-0.177-1.061-0.204-1.585-0.079c-0.319-0.068-0.602-0.241-0.799-0.488c0.041,0.332,0.041,0.667,0,0.999
					c-0.107,0.404-0.165,0.818-0.175,1.234c0.049,0.232,0.169,0.444,0.345,0.61c0.177,0.166,0.401,0.277,0.644,0.32
					c0.525-0.125,1.077-0.097,1.586,0.08c0.508,0.178,0.949,0.497,1.266,0.916c0.576,0.771,0.663,1.701,0.735,2.592
					c0.685,0.137,1.072-0.605,1.136-1.166c0.254-2.284,0.273-4.611,1.076-6.82c0.803-2.208,2.556-4.343,5.249-5.187
					c0.92-0.304,1.904-0.394,2.868-0.26c0.571,0.09,1.109,0.282,1.677,0.362c1.97,0.311,4.11-0.579,5.955,0.04
					c1.159,0.391,1.893,1.292,2.435,2.193c0.236,0.486,0.556,0.93,0.947,1.314c0.784,0.673,2.011,0.847,3.136,1.057
					s2.273,0.55,2.776,1.318C150.758,128.506,150.777,128.452,150.789,128.398z"/>
				<path opacity="0.1" enable-background="new    " d="M119.107,127.272c0.062-0.674,0.02-1.354-0.125-2.016
					c-0.112,0.699-0.136,1.409-0.073,2.114c0,0.181,0.042,0.362,0.069,0.539C119.019,127.696,119.076,127.486,119.107,127.272z"/>
			</g>
			<path fill="#454554" d="M100.569,184.966v-6.533c0-0.049,0.021-0.096,0.057-0.131s0.085-0.054,0.137-0.054h0.776
				c0.051,0,0.1,0.019,0.137,0.054c0.036,0.035,0.056,0.082,0.056,0.131v2.718l3.151-2.791c0.075-0.059,0.164-0.097,0.26-0.109
				c0.096-0.013,0.193,0,0.281,0.038s0.163,0.099,0.217,0.175c0.054,0.077,0.084,0.166,0.087,0.258v5.918
				c-0.003,0.093-0.033,0.182-0.087,0.259c-0.054,0.076-0.129,0.137-0.217,0.174c-0.088,0.038-0.185,0.051-0.281,0.039
				c-0.096-0.013-0.185-0.051-0.26-0.11l-3.151-2.772v2.704c0,0.049-0.02,0.096-0.056,0.13c-0.037,0.035-0.086,0.054-0.137,0.054
				h-0.776c-0.046,0.001-0.091-0.014-0.126-0.042C100.601,185.048,100.577,185.009,100.569,184.966z"/>
			<path fill="#454554" d="M176.712,178.433v6.533c0,0.025-0.005,0.049-0.015,0.072c-0.01,0.022-0.025,0.043-0.043,0.06
				s-0.04,0.031-0.064,0.04s-0.049,0.013-0.075,0.013h-0.758c-0.051,0-0.1-0.02-0.136-0.054c-0.036-0.035-0.057-0.082-0.057-0.131
				v-2.718l-3.151,2.787c-0.075,0.059-0.165,0.096-0.26,0.109c-0.096,0.012-0.193-0.001-0.282-0.039
				c-0.088-0.038-0.163-0.098-0.217-0.174c-0.055-0.077-0.086-0.166-0.09-0.258v-5.94c0.004-0.092,0.035-0.181,0.09-0.258
				c0.054-0.076,0.129-0.136,0.217-0.174c0.089-0.038,0.186-0.051,0.282-0.039c0.095,0.013,0.185,0.05,0.26,0.109l3.151,2.773
				v-2.701c0-0.049,0.021-0.096,0.057-0.13c0.036-0.035,0.085-0.054,0.136-0.054h0.758c0.05-0.001,0.098,0.016,0.135,0.049
				C176.687,178.34,176.709,178.385,176.712,178.433z"/>
			<path fill="#454554" d="M137.355,185.248h-1.542c-0.201,0-0.393-0.076-0.535-0.212c-0.143-0.136-0.222-0.32-0.222-0.512v-5.407
				c0-0.192,0.079-0.377,0.222-0.512c0.142-0.136,0.334-0.212,0.535-0.212h1.542c0.201,0,0.393,0.076,0.535,0.212
				c0.142,0.135,0.222,0.32,0.222,0.512v5.407c0,0.192-0.08,0.376-0.222,0.512S137.556,185.248,137.355,185.248z M142.241,184.524
				v-5.407c0-0.192-0.08-0.377-0.222-0.512c-0.142-0.136-0.335-0.212-0.536-0.212h-1.556c-0.201,0-0.394,0.076-0.536,0.212
				c-0.142,0.135-0.222,0.32-0.222,0.512v5.407c0,0.192,0.08,0.376,0.222,0.512c0.142,0.136,0.335,0.212,0.536,0.212h1.541
				c0.101,0.002,0.201-0.015,0.295-0.051c0.093-0.035,0.179-0.088,0.251-0.156c0.072-0.067,0.129-0.147,0.168-0.236
				C142.221,184.716,142.241,184.621,142.241,184.524z"/>
			<path fill="#454554" d="M184.09,169.627H93.188v0.966h90.902V169.627z"/>
			<path fill="#454554" d="M121.258,172.399c1.324,0,2.397-1.026,2.397-2.291c0-1.266-1.073-2.292-2.397-2.292
				c-1.324,0-2.398,1.026-2.398,2.292C118.86,171.373,119.934,172.399,121.258,172.399z"/>
			<path fill="#454554" d="M121.257,169.627h-28.07v0.966h28.07V169.627z"/>
			<path fill="#B7B7B7" d="M323.504,278.71c12.441,0,22.525-1.854,22.525-4.141s-10.084-4.141-22.525-4.141
				c-12.44,0-22.525,1.854-22.525,4.141S311.064,278.71,323.504,278.71z"/>
			<path fill="#454554" d="M323.13,276.09c1.447,0,2.621-1.468,2.621-3.279s-1.174-3.28-2.621-3.28c-1.448,0-2.621,1.469-2.621,3.28
				S321.682,276.09,323.13,276.09z"/>
			<path fill="#454554" d="M323.13,272.078c1.447,0,2.621-1.468,2.621-3.279s-1.174-3.279-2.621-3.279
				c-1.448,0-2.621,1.468-2.621,3.279C320.509,270.61,321.682,272.078,323.13,272.078z"/>
			<path fill="#454554" d="M323.13,268.071c1.447,0,2.621-1.469,2.621-3.28s-1.174-3.279-2.621-3.279
				c-1.448,0-2.621,1.468-2.621,3.279C320.509,266.602,321.682,268.071,323.13,268.071z"/>
			<path fill="#454554" d="M323.13,264.061c1.447,0,2.621-1.468,2.621-3.28c0-1.811-1.174-3.279-2.621-3.279
				c-1.448,0-2.621,1.468-2.621,3.279C320.509,262.593,321.682,264.061,323.13,264.061z"/>
			<path fill="#454554" d="M323.13,260.051c1.447,0,2.621-1.468,2.621-3.279c0-1.812-1.174-3.28-2.621-3.28
				c-1.448,0-2.621,1.468-2.621,3.28C320.509,258.583,321.682,260.051,323.13,260.051z"/>
			<path fill="#3F3D56" d="M323.13,256.039c1.447,0,2.621-1.468,2.621-3.279s-1.174-3.28-2.621-3.28
				c-1.448,0-2.621,1.469-2.621,3.28S321.682,256.039,323.13,256.039z"/>
			<path fill="#3F3D56" d="M323.13,252.03c1.447,0,2.621-1.469,2.621-3.28s-1.174-3.279-2.621-3.279
				c-1.448,0-2.621,1.468-2.621,3.279S321.682,252.03,323.13,252.03z"/>
			<path fill="#FF825C" d="M332.943,221.312c0.357-0.437,0.684-0.896,0.977-1.375l-6.893-1.086l7.454,0.054
				c0.713-1.487,1.103-3.097,1.144-4.733c0.041-1.635-0.267-3.261-0.906-4.779l-9.991,4.959l9.219-6.476
				c-0.864-1.427-2.026-2.669-3.414-3.648s-2.972-1.675-4.653-2.043c-1.682-0.369-3.425-0.403-5.12-0.099
				c-1.696,0.303-3.308,0.937-4.736,1.862c-1.428,0.925-2.642,2.121-3.565,3.513c-0.924,1.393-1.537,2.952-1.802,4.582
				c-0.265,1.629-0.176,3.292,0.261,4.887c0.437,1.595,1.213,3.087,2.28,4.382c-0.555,0.674-1.035,1.402-1.432,2.172l8.947,4.442
				l-9.537-3.059c-0.67,1.891-0.836,3.912-0.483,5.881c0.354,1.968,1.214,3.82,2.505,5.391c-1.456,1.77-2.362,3.897-2.613,6.136
				c-0.252,2.24,0.161,4.501,1.191,6.527s2.635,3.734,4.633,4.929s4.307,1.828,6.663,1.828c2.357,0,4.666-0.633,6.664-1.828
				c1.998-1.195,3.603-2.903,4.633-4.929s1.443-4.287,1.191-6.527c-0.251-2.239-1.157-4.366-2.613-6.136
				c1.74-2.116,2.685-4.73,2.685-7.421c0-2.691-0.945-5.304-2.685-7.42L332.943,221.312z"/>
			<path opacity="0.1" enable-background="new    " d="M310.513,228.733c-0.006,2.692,0.941,5.307,2.685,7.421
				c-1.456,1.77-2.362,3.897-2.614,6.136c-0.251,2.24,0.162,4.501,1.192,6.527s2.635,3.734,4.633,4.929s4.307,1.828,6.663,1.828
				c2.357,0,4.666-0.633,6.664-1.828c1.998-1.195,3.603-2.903,4.633-4.929s1.443-4.287,1.191-6.527
				c-0.251-2.239-1.157-4.366-2.613-6.136C334.628,234.116,310.513,227.387,310.513,228.733z"/>
			<path fill="#F2F2F2" enable-background="new    " d="M70.841,301c20.709,0,37.497-3.404,37.497-7.602s-16.788-7.601-37.497-7.601
				s-37.497,3.403-37.497,7.601S50.132,301,70.841,301z"/>
			
				<linearGradient id="SVGID_3_" gradientUnits="userSpaceOnUse" x1="52.7682" y1="837.7944" x2="52.7682" y2="689.3984" gradientTransform="matrix(1 0 0 1 16.8 -539.9199)">
				<stop  offset="0" style="stop-color:#808080;stop-opacity:0.25"/>
				<stop  offset="0.54" style="stop-color:#808080;stop-opacity:0.12"/>
				<stop  offset="1" style="stop-color:#808080;stop-opacity:0.1"/>
			</linearGradient>
			<path fill="url(#SVGID_3_)" d="M83.396,292.515c-0.757-0.264-1.568-0.221-2.36-0.304c-1.644-0.181-3.174-0.891-4.341-2.012
				c-0.75-0.725-1.34-1.587-1.735-2.534c0.25,0.087,0.5,0.177,0.758,0.275c-0.758-1.69,0.038-3.587,0.735-5.296
				c1.182-2.895,2.299-5.807,3.352-8.734c2.651-7.417,4.924-15.13,4.875-23.021c0-2.853-0.549-5.549-0.655-8.398
				c-0.08-2.114,0.261-4.224,0.246-6.342c0-0.297,0-0.59-0.023-0.887c0.677-0.566,1.21-1.274,1.556-2.069
				c0.346-0.794,0.497-1.654,0.44-2.513c-0.038-0.448-0.105-0.892-0.201-1.332c-0.134-0.764-0.311-1.52-0.53-2.266
				c-0.25-0.786-0.591-1.538-0.882-2.306c-0.564-1.488-0.947-3.037-1.428-4.55c0.178,0.018,0.352,0.063,0.515,0.134
				c-0.121-0.136-0.205-0.299-0.242-0.474c-0.283-0.963-0.436-1.957-0.454-2.957l0.322-0.138c0.145-0.976,0.092-1.971-0.155-2.928
				c0.182-1.553,0.466-3.117,0.64-4.662c0.064-0.58,0.038-1.307-0.519-1.448c-0.114-0.829-0.159-1.669-0.205-2.505
				c-0.159-2.918-0.317-5.834-0.473-8.749c-0.159-2.928-0.318-5.853-0.379-8.785c-0.042-1.86-0.064-3.786-0.527-5.567
				c0.08-0.853-0.011-1.713-0.269-2.534c-0.704-2.132-2.894-3.822-5.113-3.703c-0.662-0.905-1.48-1.696-2.42-2.338
				c0.443-0.948,0.974-1.926,1.409-2.693c3.553-1.104,6.151-4.452,6.151-8.434c0.005-1.458-0.352-2.895-1.042-4.195
				c0.065-0.16,0.121-0.323,0.167-0.489c0.19-0.782,0.131-1.6-0.171-2.349c-0.107-0.288-0.233-0.568-0.379-0.84
				c-0.099-0.181-0.205-0.362-0.314-0.536l-0.193-0.278c-0.117-0.171-0.239-0.333-0.379-0.493c-0.269-0.345-0.557-0.676-0.864-0.991
				c-0.377-0.391-0.793-0.745-1.242-1.057c-0.609-0.433-1.306-0.74-2.045-0.902c-0.428-0.08-0.863-0.118-1.299-0.112
				c-0.261,0-0.526,0-0.788,0.022c-0.53,0.029-1.057,0.065-1.583,0.061c-0.174,0-0.352,0-0.526-0.025
				c-0.927-0.118-1.843-0.301-2.742-0.547l-0.455-0.09c-0.155-0.029-0.307-0.054-0.462-0.072c-0.415-0.054-0.834-0.078-1.254-0.073
				h-0.421c-0.42,0.019-0.838,0.061-1.254,0.123l-0.417,0.062c-1.052,0.157-2.078,0.448-3.049,0.865
				c-0.125,0.054-0.254,0.116-0.379,0.181l-0.076,0.04c-0.102,0.05-0.205,0.105-0.303,0.163l-0.057,0.032l-0.322,0.196l-0.027,0.018
				c-3.007,1.933-4.784,5.596-5.234,9.23c-0.504,4.079,0.379,8.191,1.261,12.206l0.795,3.619c0.034,0.163,0.072,0.322,0.106,0.485
				c-1.118,0.877-1.979,2.018-2.496,3.309c-0.757,1.81-0.777,3.768-0.716,5.73c0,0.398,0.023,0.796,0.064,1.194
				c-0.095,0.753-0.178,1.51-0.231,2.27c-0.239,3.511,0.208,7.04,0.091,10.558c-0.091,2.712-0.519,5.43-0.311,8.123
				c0.182,2.389,0.852,4.706,1.515,7.011l0.955,3.287c0.031,0.17,0.114,0.328,0.239,0.453c0.157,0.1,0.349,0.138,0.534,0.105
				c-0.621,1.347-1.14,2.736-1.553,4.155c-0.285,0.869-0.473,1.764-0.561,2.671c-0.125,1.658,0.277,3.305,0.678,4.916
				c0.606,2.413,1.209,4.836,1.81,7.268c0.424,1.701,0.847,3.402,1.269,5.1c0.833,3.352,1.67,6.726,1.826,10.175
				c0.087,1.733-0.041,3.469-0.379,5.173c-1.093,5.103-1.252,10.348-0.47,15.503c0.632,4.349,1.657,8.638,3.064,12.817
				c0.307-0.155,0.617-0.3,0.936-0.434l-0.132,0.235c-0.437,0.724-0.841,1.466-1.212,2.226c-0.25,0.494-0.466,1.004-0.648,1.524
				c-0.485,1.448-0.561,2.99-0.629,4.514c-0.035,0.293-0.008,0.59,0.079,0.873c0.208,0.546,0.807,0.825,1.364,0.977
				c1.636,0.445,3.337,0.286,5.038,0.076c0.008,0.036,0.019,0.071,0.034,0.105c0.208,0.546,0.803,0.825,1.364,0.977
				c2.341,0.637,4.81,0.036,7.223-0.181s4.784-0.058,7.105-0.59c0.346-0.071,0.678-0.193,0.985-0.362
				c0.597-0.399,1.035-0.979,1.242-1.647c0.073-0.173,0.121-0.354,0.144-0.539C84.855,293.478,84.146,292.78,83.396,292.515z
				 M75.386,258.993c-0.131,0.848-0.386,1.674-0.758,2.454c-1.822,3.703-3.128,7.618-3.886,11.645
				c-0.497,2.66-0.785,5.352-0.86,8.054c-0.038,1.991,0.042,4.076-0.826,5.864l0.314-0.047c-0.098,0.173-0.193,0.362-0.284,0.499
				l-0.046,0.08c-0.525-0.854-0.875-1.795-1.034-2.773c0-0.032-0.17-0.058-0.432-0.072c-1.071-5.718-1.442-11.535-1.106-17.335
				c0.005-0.703,0.107-1.403,0.303-2.081c0.193-0.583,0.519-1.115,0.758-1.68c0.378-0.949,0.633-1.938,0.757-2.946
				c0.413-2.577,0.572-5.185,0.477-7.79c-0.091-2.458,0.504-4.901,1.011-7.348c0.242-1.162,0.466-2.327,0.587-3.493l0.023-0.235
				c2.254,3.553,3.828,7.46,4.651,11.539C75.495,255.183,75.613,257.1,75.386,258.993z M59.175,206.681l0.121,0.102
				c0.366,0.307,0.703,0.645,1.007,1.01c0.151,0.158,0.261,0.349,0.318,0.557c0.114,0.528-0.345,0.977-0.72,1.365
				c-0.163,0.167-0.316,0.344-0.458,0.528c-0.081-1.187-0.167-2.374-0.257-3.562L59.175,206.681L59.175,206.681z"/>
			<path fill="#FF825C" d="M53.933,183.994l-0.417,3.073c-0.14,1.043-0.28,2.082-0.356,3.128c-0.254,3.482,0.216,6.978,0.095,10.468
				c-0.099,2.686-0.545,5.368-0.33,8.05c0.193,2.367,0.898,4.669,1.602,6.95l1,3.258c0.034,0.17,0.121,0.326,0.25,0.448
				c0.193,0.109,0.422,0.144,0.64,0.098l4.439-0.384c-0.284-1.245-0.598-2.533-0.758-3.811c-0.121-0.999-0.193-2.005-0.269-3.012
				c-0.235-3.134-0.504-6.269-0.757-9.411l-0.473-5.502c-0.201-2.389-0.409-4.789-1.038-7.109
				C56.931,187.895,55.681,185.745,53.933,183.994z"/>
			<path opacity="0.1" enable-background="new    " d="M53.477,182.144l-0.417,3.073c-0.14,1.043-0.28,2.082-0.356,3.128
				c-0.254,3.482,0.216,6.978,0.095,10.468c-0.099,2.686-0.545,5.368-0.33,8.05c0.193,2.367,0.898,4.669,1.602,6.95l1,3.258
				c0.034,0.17,0.121,0.326,0.25,0.448c0.193,0.109,0.422,0.144,0.64,0.098l4.439-0.384c-0.284-1.245-0.598-2.533-0.758-3.811
				c-0.121-0.999-0.193-2.005-0.269-3.012c-0.235-3.134-0.504-6.269-0.757-9.411l-0.473-5.502c-0.201-2.389-0.409-4.789-1.038-7.109
				C56.475,186.045,55.225,183.895,53.477,182.144z"/>
			<path fill="#454554" d="M61.842,288.61c-0.261,0.49-0.488,0.996-0.682,1.513c-0.508,1.43-0.583,2.965-0.659,4.474
				c-0.033,0.291-0.005,0.585,0.083,0.865c0.22,0.543,0.848,0.818,1.435,0.967c2.458,0.633,5.049,0.04,7.575-0.178
				c2.526-0.217,5.022-0.057,7.462-0.582c0.36-0.067,0.708-0.183,1.034-0.344c0.618-0.384,1.079-0.959,1.307-1.629
				c0.074-0.172,0.123-0.352,0.148-0.536c0.08-0.796-0.644-1.484-1.432-1.744c-0.788-0.261-1.648-0.221-2.477-0.301
				c-1.708-0.167-3.311-0.868-4.56-1.994c-1.249-1.126-2.075-2.615-2.348-4.235c-0.03-0.174-4.106-0.069-4.545,0.155
				c-0.5,0.265-0.803,0.92-1.087,1.365C62.648,287.123,62.231,287.857,61.842,288.61z"/>
			<path opacity="0.1" enable-background="new    " d="M-66.825,291.253c-0.261,0.49-0.488,0.996-0.682,1.513
				c-0.508,1.43-0.583,2.965-0.659,4.474c-0.033,0.291-0.005,0.585,0.083,0.865c0.22,0.543,0.848,0.818,1.435,0.967
				c2.458,0.633,5.049,0.04,7.575-0.178c2.526-0.217,5.022-0.057,7.462-0.582c0.36-0.067,0.708-0.183,1.034-0.344
				c0.618-0.384,1.079-0.959,1.307-1.629c0.074-0.172,0.123-0.352,0.148-0.536c0.08-0.796-0.644-1.484-1.432-1.744
				c-0.788-0.261-1.648-0.221-2.477-0.301c-1.708-0.167-3.311-0.868-4.56-1.994c-1.249-1.126-2.075-2.615-2.348-4.235
				c-0.03-0.174-4.106-0.069-4.545,0.155c-0.5,0.265-0.803,0.92-1.087,1.365C-66.019,289.766-66.436,290.5-66.825,291.253z"/>
			<path fill="#454554" d="M68.603,289.76c-0.262,0.488-0.49,0.993-0.682,1.51c-0.511,1.448-0.587,2.964-0.659,4.474
				c-0.035,0.29-0.007,0.585,0.083,0.865c0.216,0.543,0.845,0.818,1.432,0.97c2.458,0.63,5.053,0.036,7.575-0.181
				c2.523-0.217,5.026-0.058,7.462-0.583c0.362-0.07,0.711-0.192,1.034-0.362c0.618-0.383,1.08-0.958,1.307-1.629
				c0.073-0.171,0.123-0.351,0.148-0.535c0.079-0.793-0.644-1.484-1.432-1.745s-1.648-0.217-2.477-0.301
				c-1.708-0.167-3.31-0.868-4.559-1.993c-1.249-1.126-2.075-2.613-2.35-4.232c-0.03-0.174-4.106-0.073-4.545,0.152
				c-0.504,0.264-0.807,0.919-1.091,1.364C69.417,288.269,68.993,289.007,68.603,289.76z"/>
			<path fill="#454554" d="M86.226,251.309c0.053,7.822-2.326,15.467-5.117,22.804c-1.106,2.91-2.279,5.795-3.519,8.655
				c-0.735,1.694-1.564,3.576-0.777,5.248c-2.273-0.825-4.583-1.31-6.973-0.93c0.909-1.774,0.822-3.837,0.864-5.792
				c0.077-2.679,0.376-5.347,0.894-7.981c0.802-4.009,2.177-7.893,4.087-11.543c0.386-0.77,0.653-1.59,0.792-2.433
				c0.311-1.86,0.068-3.772-0.337-5.614c-0.872-4.069-2.529-7.948-4.886-11.438l-0.023,0.231c-0.141,1.165-0.346,2.321-0.614,3.465
				c-0.534,2.421-1.159,4.846-1.064,7.282c0.099,2.583-0.069,5.169-0.5,7.721c-0.139,1.002-0.413,1.983-0.814,2.918
				c-0.261,0.561-0.602,1.086-0.807,1.668c-0.205,0.671-0.312,1.365-0.318,2.064c-0.303,5.889,0,11.869,1.257,17.642
				c-2.11-0.159-4.219,0.424-6.106,1.328c-1.475-4.132-2.552-8.385-3.22-12.705c-0.822-5.108-0.655-10.318,0.492-15.369
				c0.358-1.684,0.491-3.405,0.398-5.122c-0.163-3.42-1.042-6.765-1.917-10.088l-1.333-5.068c-0.631-2.413-1.263-4.815-1.894-7.206
				c-0.42-1.597-0.845-3.229-0.712-4.873c0.092-0.901,0.291-1.79,0.591-2.649c0.946-2.923,2.36-5.687,4.193-8.195
				c7.299,0.391,14.685-0.261,21.968-0.796c0.353-0.067,0.72-0.008,1.03,0.166c0.248,0.241,0.396,0.56,0.417,0.898l2.739,14.841
				c0.443,2.062,0.703,4.157,0.776,6.262c0,2.099-0.341,4.191-0.258,6.287C85.65,245.81,86.211,248.482,86.226,251.309z"/>
			<path opacity="0.1" enable-background="new    " d="M71.239,242.516c-0.142,1.164-0.346,2.32-0.614,3.464
				c-1.587-2.625-3.299-5.184-4.761-7.873c-0.379-0.692-0.735-1.394-1.095-2.096l-1.079-2.099c-0.201-0.395-0.401-0.789-0.583-1.191
				c-0.296-0.577-0.523-1.185-0.678-1.81c0.53-0.094,1.841,1.274,2.235,1.632c0.804,0.761,1.562,1.563,2.273,2.404
				c0.863,0.934,1.655,1.926,2.371,2.968C70.224,239.331,70.877,240.887,71.239,242.516z"/>
			<path fill="#FECEB8" d="M77.318,170.517c0,0-4.053,6.171-3.303,7.463c0.75,1.293-12.764-1.147-12.764-1.147
				s7.359-6.172,6.606-8.756C67.103,165.492,77.318,170.517,77.318,170.517z"/>
			<path fill="#FECEB8" d="M73.716,172.385c5.06,0,9.162-3.92,9.162-8.756s-4.102-8.756-9.162-8.756c-5.06,0-9.162,3.92-9.162,8.756
				S68.656,172.385,73.716,172.385z"/>
			<path fill="#FF825C" d="M77.454,176.989c-0.981-1.301-2.312-2.324-3.852-2.961c-0.887-0.304-1.805-0.52-2.738-0.644l-3.655-0.616
				c-0.894-0.152-1.852-0.293-2.685,0.058c-0.421,0.207-0.805,0.477-1.136,0.8c-1.269,1.126-2.5,2.36-4.094,3.012
				c-0.436,0.177-0.89,0.308-1.326,0.485c-1.784,0.724-3.117,2.266-3.871,3.982c-0.795,1.788-0.818,3.731-0.758,5.675
				c-0.001,0.671,0.069,1.341,0.208,1.998c0.182,0.627,0.414,1.239,0.693,1.832c0.504,1.269,0.926,2.566,1.265,3.884
				c0.947,3.463,1.735,6.962,2.363,10.497c0.053,0.506,0.209,0.998,0.458,1.448c0.353,0.45,0.78,0.842,1.265,1.162
				c0.385,0.301,0.738,0.637,1.057,1.002c0.159,0.15,0.277,0.333,0.345,0.536c0.117,0.521-0.379,0.97-0.757,1.35
				c-0.815,0.795-1.404,1.776-1.712,2.849c-0.19,0.22-0.287,0.5-0.273,0.785c0.079,0.199,0.109,0.412,0.087,0.623
				c-0.075,0.192-0.192,0.366-0.345,0.51c-0.175,0.218-0.299,0.469-0.364,0.736s-0.07,0.545-0.014,0.814
				c2.839,1.179,5.878,1.858,8.969,2.005c0.757,0.036,1.515,0.036,2.273,0.123c0.538,0.065,1.068,0.17,1.606,0.232
				c0.781,0.07,1.565,0.089,2.348,0.058c4.079-0.08,8.276-0.178,12.022-1.723c0.352-1.836-0.409-3.707-0.886-5.517
				c-0.757-2.896-0.947-5.86-1.515-8.781c-0.379-1.995-0.947-3.96-1.269-5.969c-0.322-2.009-0.379-4.09,0.182-6.045
				c0.511-1.73,0.667-3.497,1.197-5.223c0.53-1.727,0.901-3.598,0.303-5.307C82.086,178.545,79.787,176.87,77.454,176.989z"/>
			<path fill="#454554" d="M81.953,158.984c0.447-1.553-0.432-3.171-1.477-4.435c-1.136-1.357-2.583-2.58-4.36-2.921
				c-1.443-0.278-2.939,0.058-4.409-0.054c-1.299-0.098-2.549-0.546-3.841-0.724c-1.172-0.121-2.356-0.078-3.515,0.127
				c-1.1,0.156-2.175,0.443-3.2,0.854c-3.901,1.654-6.185,5.73-6.715,9.773c-0.53,4.044,0.398,8.119,1.322,12.097l0.837,3.598
				c0.871,3.747,1.742,7.508,1.973,11.337c0.231,3.83-0.201,7.761-1.848,11.258c5.328-2.736,9.457-7.203,11.639-12.593
				c0.591-1.481,1.03-3.019,1.689-4.474c0.564-1.253,1.288-2.44,1.788-3.718c0.565-1.442,0.836-2.974,0.799-4.514
				c-0.03-1.158-0.231-2.309-0.197-3.467c0.034-1.159,0.345-2.364,1.182-3.204c0.757-0.742,1.799-1.086,2.757-1.567
				c1.508-0.741,2.827-1.791,3.859-3.077c0.602-0.753,0.636-1.086,0.788-1.94S81.718,159.805,81.953,158.984z"/>
			<path fill="#FECEB8" d="M81.965,224.757c0.095,0.901-0.076,1.81,0.129,2.704c0.155,0.666,0.515,1.267,0.727,1.918
				c0.21,0.753,0.318,1.528,0.322,2.306c0.03,0.652-0.023,1.448-0.629,1.752c-0.265,0.134-0.583,0.134-0.86,0.25
				s-0.511,0.431-0.352,0.677c0.159,0.246,0.432,0.206,0.682,0.253c0.25,0.047,0.519,0.293,0.379,0.492
				c-0.057,0.066-0.134,0.112-0.22,0.134c-0.253,0.075-0.493,0.185-0.712,0.326c-0.107,0.075-0.191,0.176-0.242,0.293
				c-0.051,0.116-0.068,0.244-0.049,0.37c0.015,0.06,0.045,0.115,0.086,0.163c0.041,0.048,0.093,0.086,0.152,0.111
				c0.059,0.026,0.123,0.039,0.187,0.038c0.065-0.001,0.128-0.017,0.185-0.045c-0.111,0.227-0.172,0.474-0.178,0.724
				c0.97,0.399,2.057-0.123,2.966-0.626c0.393-0.209,0.772-0.441,1.136-0.695c0.735-0.539,1.321-1.243,1.707-2.048
				c0.385-0.806,0.559-1.69,0.505-2.574c-0.043-0.444-0.115-0.886-0.216-1.321c-0.14-0.759-0.326-1.51-0.557-2.248
				c-0.261-0.778-0.617-1.52-0.924-2.284c-0.651-1.625-1.072-3.327-1.663-4.974c-0.039-0.17-0.14-0.323-0.284-0.43
				c-0.13-0.062-0.276-0.088-0.421-0.076c-0.663-0.034-1.328,0.025-1.973,0.173c-0.379,0.109-1.026,0.362-1.204,0.724
				s0.106,0.666,0.276,0.967C81.464,222.719,81.819,223.72,81.965,224.757z"/>
			<path opacity="0.1" enable-background="new    " d="M81.347,180.775c0.195,0.191,0.358,0.408,0.485,0.645
				c1.303,2.262,1.318,4.966,1.379,7.547c0.068,2.896,0.235,5.791,0.401,8.705l0.496,8.687c0.049,0.829,0.095,1.658,0.22,2.48
				c0.583,0.141,0.606,0.865,0.542,1.448c-0.421,3.54-1.462,7.185-0.379,10.591c0.042,0.175,0.129,0.337,0.254,0.471
				c-0.55-0.165-1.139-0.173-1.693-0.022c-0.542,0.108-1.064,0.3-1.61,0.42c-0.689,0.148-1.47,0.213-1.939,0.724
				c-0.532-1.53-0.956-3.093-1.269-4.677c-0.258-1.448-0.33-2.939-0.943-4.278c-0.246-0.54-0.579-1.039-0.882-1.557
				c-1.587-2.707-2.367-5.766-3.129-8.785c-0.342-1.431-0.424-2.908-0.242-4.365c0.11-0.665,0.173-1.336,0.189-2.009
				c-0.046-0.71-0.144-1.417-0.292-2.114c-0.322-2.047-0.17-4.136,0.443-6.121c0.568-1.842,1.068-3.783,2.273-5.332
				C76.855,181.684,79.336,180.801,81.347,180.775z"/>
			<path fill="#FF825C" d="M81.798,180.486c0.195,0.192,0.358,0.41,0.485,0.648c1.303,2.259,1.318,4.966,1.379,7.547
				c0.068,2.896,0.235,5.792,0.401,8.688l0.496,8.687c0.049,0.829,0.095,1.658,0.22,2.479c0.583,0.142,0.606,0.866,0.538,1.448
				c-0.417,3.54-1.458,7.182-0.379,10.592c0.042,0.174,0.129,0.336,0.254,0.47c-0.55-0.165-1.138-0.172-1.693-0.022
				c-0.542,0.109-1.064,0.301-1.61,0.417c-0.689,0.152-1.47,0.213-1.939,0.724c-0.531-1.537-0.951-3.107-1.257-4.699
				c-0.258-1.448-0.329-2.935-0.943-4.275c-0.267-0.532-0.561-1.052-0.882-1.556c-1.591-2.708-2.367-5.77-3.129-8.789
				c-0.342-1.431-0.424-2.907-0.242-4.365c0.285-1.365,0.25-2.773-0.102-4.123c-0.322-2.046-0.17-4.134,0.443-6.117
				c0.568-1.843,1.068-3.783,2.273-5.332C77.313,181.359,79.787,180.515,81.798,180.486z"/>
			<g opacity="0.1">
				<path opacity="0.1" enable-background="new    " d="M80.477,154.549c-1.136-1.357-2.583-2.58-4.36-2.921
					c-1.443-0.278-2.939,0.058-4.409-0.054c-1.299-0.098-2.549-0.546-3.841-0.724c-1.172-0.121-2.356-0.078-3.515,0.127
					c-1.1,0.156-2.175,0.443-3.201,0.854c-0.554,0.237-1.083,0.524-1.579,0.858c0.913-0.339,1.861-0.582,2.829-0.724
					c1.158-0.205,2.341-0.248,3.511-0.127c1.295,0.16,2.542,0.605,3.844,0.703c1.466,0.112,2.962-0.221,4.409,0.054
					c1.776,0.34,3.231,1.567,4.356,2.925c1.049,1.259,1.924,2.877,1.481,4.434c-0.235,0.818-0.78,1.534-0.928,2.378
					c-0.148,0.843-0.186,1.187-0.792,1.94c-0.777,0.966-1.716,1.801-2.78,2.472c0.292-0.13,0.591-0.26,0.875-0.402
					c1.508-0.74,2.827-1.791,3.86-3.076c0.602-0.753,0.636-1.086,0.788-1.94c0.152-0.855,0.693-1.557,0.928-2.379
					C82.401,157.431,81.522,155.813,80.477,154.549z"/>
				<path opacity="0.1" enable-background="new    " d="M73.621,167.947c0.157-0.156,0.328-0.297,0.511-0.424
					c-0.875,0.406-1.795,0.761-2.466,1.448c-0.837,0.836-1.136,2.045-1.182,3.204c-0.046,1.158,0.17,2.309,0.197,3.464
					c0.037,1.541-0.234,3.074-0.799,4.517c-0.5,1.278-1.223,2.462-1.788,3.718c-0.655,1.447-1.095,2.989-1.686,4.47
					c-1.894,4.674-5.256,8.672-9.624,11.445c-0.023,0.047-0.042,0.098-0.064,0.145c5.328-2.735,9.457-7.202,11.639-12.593
					c0.591-1.48,1.03-3.019,1.689-4.474c0.564-1.252,1.288-2.439,1.788-3.717c0.565-1.442,0.836-2.974,0.799-4.514
					c-0.03-1.158-0.231-2.309-0.197-3.468C72.473,170.01,72.784,168.787,73.621,167.947z"/>
			</g>
		</g>
	</g>
</g>
</svg>
