<?xml version="1.0" encoding="utf-8"?>
<!-- Generator: Adobe Illustrator 24.3.0, SVG Export Plug-In . SVG Version: 6.00 Build 0)  -->
<svg version="1.1" id="Слой_1" xmlns="http://www.w3.org/2000/svg" xmlns:xlink="http://www.w3.org/1999/xlink" x="0px" y="0px"
	 viewBox="0 0 561 400" style="enable-background:new 0 0 561 400;" xml:space="preserve">
<style type="text/css">
	.st0{opacity:0.1;fill:#C7C7C7;enable-background:new    ;}
	.st1{fill:#D0D2D5;}
	.st2{opacity:0.1;enable-background:new    ;}
	.st3{fill:#494450;}
	.st4{fill:#FFFFFF;}
	.st5{fill:#C7C7C7;}
	.st6{opacity:0.1;fill:#444053;enable-background:new    ;}
	.st7{opacity:0.3;fill:#C7C7C7;enable-background:new    ;}
	.st8{fill:#444053;}
	.st9{fill:#FF6D33;fill-opacity:0.35;}
	.st10{fill:url(#SVGID_1_);}
	.st11{fill:#2F2E41;}
	.st12{opacity:0.1;}
	.st13{fill:#A1616A;}
	.st14{fill:#3F3D56;}
</style>
<path class="st0" d="M359.6,400c34.5,0,62.5-4.2,62.5-9.4c0-5.2-28-9.4-62.5-9.4c-34.5,0-62.5,4.2-62.5,9.4
	C297.1,395.8,325.1,400,359.6,400z"/>
<path class="st1" d="M336.4,373.7l-120.3-1.5l0.4-3.1l5.8-51h105.7l7.8,51l0.6,3.9L336.4,373.7z"/>
<path class="st2" d="M336.3,372.9h-60l-60.2-0.8l0.4-3.1h119.3L336.3,372.9z"/>
<path class="st1" d="M355.7,369.8H196v3.9h159.7V369.8z"/>
<path class="st3" d="M508,11.8c0-1.3-0.2-2.6-0.7-3.9s-1.2-2.3-2.2-3.3c-0.9-0.9-2-1.7-3.2-2.2c-1.2-0.5-2.5-0.8-3.8-0.8H52.1
	c-2.7,0-5.2,1.1-7.1,3c-1.9,1.9-2.9,4.5-2.9,7.1v270.7H508V11.8z"/>
<path class="st1" d="M42.1,279.8v31.7c0,2.7,1.1,5.2,2.9,7.1c1.9,1.9,4.4,2.9,7.1,2.9H498c1.3,0,2.6-0.3,3.8-0.8
	c1.2-0.5,2.3-1.2,3.2-2.2c0.9-0.9,1.7-2,2.2-3.2c0.5-1.2,0.8-2.5,0.8-3.8v-31.7H42.1z"/>
<path class="st4" d="M491,18.7H61.4v243.3H491V18.7z"/>
<path class="st5" d="M277.4,309.5c1.6,0,3.1-0.4,4.6-1c1.4-0.7,2.7-1.7,3.6-2.9c0.3-0.4,0.6-0.8,0.8-1.2l-5.7-0.9l6.2,0
	c0.6-1.3,0.9-2.7,0.9-4.1c0-1.4-0.2-2.8-0.8-4.2l-8.3,4.3l7.6-5.6c-0.7-1.2-1.7-2.3-2.8-3.1c-1.1-0.8-2.5-1.4-3.8-1.7
	c-1.4-0.3-2.8-0.3-4.2-0.1c-1.4,0.3-2.7,0.8-3.9,1.6c-1.2,0.8-2.2,1.8-2.9,3c-0.8,1.2-1.3,2.5-1.5,3.9c-0.2,1.4-0.2,2.8,0.2,4.2
	c0.3,1.4,1,2.7,1.8,3.8c1,1.2,2.2,2.2,3.6,2.9C274.3,309.1,275.8,309.5,277.4,309.5z"/>
<path class="st2" d="M287.8,321.5l48,48.3l-7.4-48.3H287.8z"/>
<path class="st6" d="M491.1,18.7H61.1V33h430.1V18.7z"/>
<path class="st5" d="M75.4,21.2H64.1c-0.3,0-0.5,0.2-0.5,0.5v7.6c0,0.3,0.2,0.5,0.5,0.5h11.3c0.3,0,0.5-0.2,0.5-0.5v-7.6
	C75.9,21.4,75.7,21.2,75.4,21.2z"/>
<path class="st7" d="M339.6,21.2H210.8c-0.2,0-0.4,0.2-0.4,0.4v7.9c0,0.2,0.2,0.4,0.4,0.4h128.8c0.2,0,0.4-0.2,0.4-0.4v-7.9
	C340,21.4,339.8,21.2,339.6,21.2z"/>
<path class="st8" d="M336.1,26.4h-0.3l-0.1-0.1c0.4-0.5,0.6-1.1,0.6-1.7c0-0.5-0.2-1-0.4-1.4c-0.3-0.4-0.7-0.7-1.2-0.9
	c-0.5-0.2-1-0.2-1.5-0.1c-0.5,0.1-1,0.3-1.3,0.7s-0.6,0.8-0.7,1.3c-0.1,0.5,0,1,0.2,1.5c0.2,0.5,0.5,0.9,0.9,1.1
	c0.4,0.3,0.9,0.4,1.4,0.4c0.6,0,1.2-0.2,1.7-0.6l0.1,0.1V27l2,2l0.6-0.6L336.1,26.4z M333.8,26.4c-0.4,0-0.7-0.1-1-0.3
	c-0.3-0.2-0.5-0.5-0.7-0.8s-0.2-0.7-0.1-1c0.1-0.3,0.2-0.7,0.5-0.9c0.2-0.2,0.6-0.4,0.9-0.5c0.3-0.1,0.7,0,1,0.1
	c0.3,0.1,0.6,0.4,0.8,0.7c0.2,0.3,0.3,0.6,0.3,1c0,0.2,0,0.5-0.1,0.7c-0.1,0.2-0.2,0.4-0.4,0.6c-0.2,0.2-0.4,0.3-0.6,0.4
	C334.2,26.4,334,26.4,333.8,26.4z"/>
<path class="st5" d="M485,29.9c2.4,0,4.3-1.9,4.3-4.3c0-2.4-1.9-4.3-4.3-4.3s-4.3,1.9-4.3,4.3C480.7,27.9,482.6,29.9,485,29.9z"/>
<path class="st2" d="M374.6,87.2H177.7c-6.8,0-12.4,5.2-12.4,11.5v108.6c0,6.4,5.5,11.5,12.4,11.5h196.9c6.8,0,12.3-5.2,12.3-11.5
	V98.7C387,92.3,381.4,87.2,374.6,87.2z"/>
<path class="st7" d="M286.6,132.5h-84.5c-5.7,0-10.4,1.4-10.4,3.2v4.6c0,1.8,4.6,3.2,10.4,3.2h84.5c5.7,0,10.4-1.4,10.4-3.2v-4.6
	C297,133.9,292.3,132.5,286.6,132.5z"/>
<path class="st7" d="M286.6,145.7h-84.5c-5.7,0-10.4,1.4-10.4,3.2v4.6c0,1.8,4.6,3.2,10.4,3.2h84.5c5.7,0,10.4-1.4,10.4-3.2v-4.6
	C297,147.1,292.3,145.7,286.6,145.7z"/>
<path class="st7" d="M286.6,158.8h-84.5c-5.7,0-10.4,1.4-10.4,3.2v4.6c0,1.8,4.6,3.2,10.4,3.2h84.5c5.7,0,10.4-1.4,10.4-3.2V162
	C297,160.3,292.3,158.8,286.6,158.8z"/>
<path class="st5" d="M332.1,111.7H198.2c-3.6,0-6.5,1.2-6.5,2.7v5.5c0,1.5,2.9,2.7,6.5,2.7h133.9c3.6,0,6.5-1.2,6.5-2.7v-5.5
	C338.6,112.9,335.7,111.7,332.1,111.7z"/>
<path class="st9" d="M289.6,180.8h-39c-1,0-1.9,1.2-1.9,2.7v5.5c0,1.5,0.8,2.7,1.9,2.7h39c1,0,1.9-1.2,1.9-2.7v-5.5
	C291.5,182,290.6,180.8,289.6,180.8z"/>
<linearGradient id="SVGID_1_" gradientUnits="userSpaceOnUse" x1="333.8187" y1="2.1297" x2="333.8187" y2="270.6451" gradientTransform="matrix(1 0 0 -1 0 402)">
	<stop  offset="0" style="stop-color:#808080;stop-opacity:0.25"/>
	<stop  offset="0.54" style="stop-color:#808080;stop-opacity:0.12"/>
	<stop  offset="1" style="stop-color:#808080;stop-opacity:0.1"/>
</linearGradient>
<path class="st10" d="M389.9,265c0-1.2-0.2-2.3-0.3-3.5c-0.5-4.3-1.1-8.7-1.9-13c-0.1-0.8-0.4-1.7-0.7-2.4c-0.3-0.8-0.7-1.4-1-2.2
	c0,0,0-0.1,0-0.1c0.4-0.2,0.8-0.4,1.2-0.6c0.3-0.1,0.5-0.3,0.8-0.5c0.2-0.2,0.5-0.4,0.6-0.7c0.7-1.2-0.1-2.7-0.4-4.1
	c-0.4-1.5-0.3-3.2-1.4-4.2c-3.8-3.4-1.9-10.3-3.8-15.1c-0.3-0.8-0.7-1.7-1-2.5c-0.2-0.7-0.4-1.4-0.5-2c-1.4-5.6-2.8-11.2-4.3-16.8
	c-1.6-5.8-1.4-11.8-3.4-17.5c-0.4-1.2-0.9-2.3-1.5-3.4c-0.7-1.1-1.6-2.1-2.6-2.8c-2.9-2-5.8-3.7-9.1-4.4c-3.4-0.7-7-0.6-10.5-0.6
	c-1.2-1.7-2.9-3-4.9-3.8l-0.1-0.2c-0.3-0.7-0.5-1.4-0.6-2.1c-0.1-0.7-0.2-1.4-0.2-2.2c0-0.8,0-1.6-0.1-2.3l0.2-0.2
	c0.5-0.5,0.9-1,1.2-1.5c0.4-0.5,0.7-1.1,0.9-1.6c0.3-0.6,0.6-1.3,0.8-2c0.4-1.4,0.7-2.8,0.8-4.2c0.2-1.7,0.2-3.4,0.3-5.1
	c0-0.3,0-0.7,0-1v-0.2c0-0.3,0-0.5,0-0.8v-0.1c0.1-1.7-0.4-3.4-1.3-4.9c-1.2-1.8-3.3-2.7-5.3-3.4c-4.1-1.4-8.5-2.3-12.5-0.8
	c-3.2,1.2-5.7,3.8-8.9,5.2c0.1,0.1,0.1,0.2,0.2,0.4c0,0,0,0,0,0.1c0.1,0.1,0.1,0.2,0.1,0.4c0.1,0.3,0.2,0.6,0.2,0.8
	c0.1,0.5,0.1,1.1,0,1.6c-0.9,0.4-2,0.6-3,0.4c0.4,1.3,1,2.5,1.9,3.5c0.3,0.4,0.6,0.7,0.8,1l0.4,0.5c0.7,0.9,1.3,1.8,1.7,2.8
	c0.2,0.4,0.3,0.8,0.3,1.3c0.1,0.9,0.1,1.8,0.2,2.7c0,0.4,0.1,0.7,0.3,1.1c0.3,1.8,0.9,3.5,2,4.9c1,1.5,2.4,2.7,4,3.5
	c0.4,2.7,0.4,5.4,0,8.1c0,0.1-0.1,0.3-0.1,0.4c-1.8,2.3-3.6,4.8-5.9,6.6c-1,0.8-2.1,1.5-3.3,2.1c-0.7,0.4-1.4,0.7-2.2,0.9
	c-0.9,0.2-1.7,0.2-2.6,0.4c-1.6,0.5-3,1.6-3.8,3.1c-0.4,0.8-0.9,1.6-1.4,2.3c-0.5,0.6-1.1,1.1-1.6,1.6c-1.8,2-2.3,5-2.7,7.7
	c-1.4,1.6-3,3-4.6,4.3c-0.5,0.4-1.1,0.7-1.7,1c-1.6,0.5-3.3-0.1-4.7-1.2c-1.4-1-2.5-2.4-3.8-3.4l-0.4,0.5c-0.1-0.1-0.2-0.2-0.3-0.3
	c-0.5-0.8-0.9-1.7-1.1-2.6c-0.5-2.5,0.4-5.2-0.3-7.6c-0.3-0.9-0.9-1.8-1.8-1.8c-0.9,0-1.4,0.9-2.2,1.3c-1.2,0.7-2.7,0.1-3.9-0.6
	c-1.2-0.7-2.6-1.4-3.9-1c0,0.4,0.1,0.9,0.2,1.3c0.2,0.4,0.4,0.8,0.8,1c0.7,0.5,1.2,1.2,1.6,2c0.2,0.8,0.3,1.7,0.2,2.6
	c0.1,2,1.4,3.7,2.5,5.2c1.5,1.9,3,3.7,4.6,5.5c-0.2,0.3-0.5,0.6-0.9,0.7c-0.1,0.3-0.1,0.7,0,1c0.1,0.2,0.2,0.4,0.3,0.6
	c0.2,0.3,0.3,0.6,0.5,0.9l2.4,4.2l0.4,0.7c0.2,0.3,0.3,0.6,0.5,0.8c0.6,1,1.2,1.9,2,2.7c0.4,0.4,0.8,0.8,1.2,1.1
	c0.3,0.2,0.6,0.4,0.9,0.6c0.5,0.2,0.9,0.4,1.4,0.5c0.2,0.1,0.5,0.1,0.7,0.1c0.3,0,0.5,0,0.8,0c0.8-0.1,1.5-0.3,2.3-0.6
	c4.5-1.6,8.7-4.1,13-6.3c0.6-0.3,1.2-0.6,1.9-0.7c0.2,0,0.4-0.1,0.7-0.1c0.2,0,0.5,0,0.7,0.1c0.2,0.1,0.4,0.2,0.6,0.3
	c0.4,0.3,0.6,0.6,0.7,1.1c0.1,0.7,0.2,1.3,0.4,2c0.1,0.6,0.3,1.3,0.4,1.9c0.3,1.3,0.6,2.6,0.9,3.9c0.2,0.7,0.4,1.4,0.5,2.1
	c0.4,1.7,0.9,3.4,1.2,5.2c0.1,0.5,0.2,1.1,0.3,1.6c0.2,1,0.3,1.9,0.4,2.9c0,0,0,0,0,0.1c0.1,0.9,0.1,1.7,0.1,2.5v2.7l0.1,7.9
	c0,1.1-0.6,1.8-1.1,2.9c-0.1,0.2-0.2,0.4-0.3,0.6c-0.1,0.3-0.2,0.6-0.2,0.8c0,0.1,0,0.2-0.1,0.3c0,0.1,0,0.2,0,0.3
	c0,0.1,0,0.2,0,0.3c0,0.1,0,0.2,0,0.3c0,0.1,0,0.2,0,0.3c0,0.1,0,0.2,0,0.3c0,0.1,0,0.2,0,0.4c0,0.1,0,0.2,0,0.2s0,0.3,0.1,0.4
	l0,0.2c0,0.2,0.1,0.4,0.2,0.6c0.1,0.4,0.3,0.8,0.5,1.2c0.2,0.4,0.4,0.8,0.5,1.2c0.1,0.3,0.2,0.5,0.2,0.8c0,0.1,0,0.1,0,0.2
	c0.1,0.2,0.1,0.4,0.1,0.6v0.1c0,0.2,0.1,0.5,0.1,0.7c0,0,0,0.1,0,0.1c0,0.3,0.1,0.5,0.1,0.8c0.1,1,0,1.9,0,2.9l-0.1,4.8v0.1
	c0,0.2,0,0.3,0.1,0.4c0,0.1,0.1,0.1,0.2,0.2s0.2,0.1,0.3,0.1c0.3,0,0.7-0.2,0.9-0.4l2.1-1.6h0.1c-1.7,2.8-3.1,5.8-3.3,9.1
	c-0.1,2.2,0,4.3,0.4,6.4c2,14.2,6.6,28.5,5.7,42.9c-0.4,5.6,2,11.2,1.9,16.8c0,2.2-0.4,4.4-0.5,6.6c-0.4,9.4,4.4,18.9,2.4,28.1
	c0.7,2.3,3.2,3.5,4,5.8c0.6,1.9-0.3,4-1,5.9c-0.3,0.7-0.5,1.3-0.6,2c-2,0-4.1,0-5.5,0.6c-0.4,0.1-0.7,0.3-1.1,0.4
	c-1.2,0.7-1.3,2.7-0.5,3.9c0.8,1.2,5.1,5,6.3,5.6l2.7,1.4c1.5,0.8,3.1,1.4,4.7,1.8c1.4,0.2,2.8,0.1,4.2-0.1c1.1-0.1,2.3-0.3,3-1.2
	c1-1.2,0.5-3.3-0.2-5.1c0.2-0.2,0.4-0.5,0.6-0.8c0.1-0.5,0.2-1,0.2-1.4c0.2-0.9,0.5-1.9,1-2.7c1.1-2.8,1.1-5.8,1-8.8
	c0-4.9-0.3-9.7-1-14.6c-0.3-2-0.8-4.1-1.2-6.1c-1.4-7.3-2.1-14.8-1.8-22.3c0-1.8-0.2-3.6-0.7-5.4c-0.2-1-0.3-2-0.2-3.1l0.8-12.4
	c0.2-2.5,0.3-5.1,0.1-7.6c-0.1-1.4-0.3-2.7-0.5-4.1c-0.2-2.6-0.2-5.2-0.1-7.8c0.1-2.8,0.2-5.8,1.8-8c0.1-0.1,0.2-0.3,0.3-0.4
	c0.1-0.1,0.3-0.2,0.4-0.2c0.3,0,0.4,0.4,0.3,0.7c0.2,0.5,0.3,1,0.5,1.5c0.1,0.1,0.1,0.3,0.2,0.4c0.1,0.3,0.2,0.5,0.3,0.8
	c0.1,0.3,0.1,0.4,0.2,0.5l0.3,0.7c0.1,0.2,0.2,0.4,0.2,0.6c0.1,0.2,0.2,0.4,0.3,0.6c0.1,0.2,0.2,0.4,0.3,0.6
	c0.1,0.2,0.2,0.4,0.2,0.6l0.3,0.7c0.1,0.2,0.2,0.3,0.2,0.5c0.1,0.2,0.3,0.5,0.4,0.7c0.1,0.1,0.1,0.3,0.2,0.4
	c0.2,0.4,0.4,0.7,0.7,1.1c0.5,0.7,1,1.4,1.4,2.1c0.1,0.2,0.3,0.5,0.4,0.7c0.4,0.9,0.7,1.9,0.9,2.9c0.2,0.9,0.5,1.8,0.8,2.6
	c0.3,0.9,0.7,1.7,1,2.6c0.2,0.4,0.4,0.8,0.6,1.3c0.6,1.3,1.2,2.5,1.8,3.7c0.1,0.2,0.2,0.4,0.3,0.7c0,0.1,0.1,0.2,0.1,0.3
	c0,0.2,0,0.5,0,0.7c0,0.1,0,0.3-0.1,0.4c0,0.2-0.1,0.4-0.2,0.6c-0.8,1.9-0.2,3.8,0.2,5.6c0.3,2,0.5,4,0.5,6c0,0.7,0,1.4,0.1,2
	c0,0.8,0,1.6,0,2.5c0,0.8,0,1.8,0,2.7c0,0.9,0,1.8-0.1,2.7c0,0.3-0.1,0.6-0.1,0.9c-0.1,0.9-0.4,1.8-0.5,2.7c-0.7,3.6-1,7.2-0.9,10.8
	c0,1.5,0,2.9,0.1,4.4c0.1,1.5,0.2,2.9,0.3,4.4c0.1,0.8,0.1,1.6,0.2,2.4c0.1,1.4,0.3,2.8,0.4,4.2c0.1,1.4,0.3,2.9,0.5,4.4
	c0.1,1.5,0.3,2.9,0.4,4.4c0.1,0.7-0.1,1.4-0.4,2.1c-0.1,0.3-0.2,0.5-0.3,0.8c-0.1,0.2-0.1,0.4-0.1,0.6c0,0.2-0.1,0.4-0.1,0.7
	c0,0.5,0,1,0.1,1.4c0,0.2,0.1,0.5,0.1,0.7c0.1,0.5,0.2,0.9,0.3,1.4c0.3,1.3,0.7,2.5,1.4,3.7c0.1,0.2,0.3,0.5,0.4,0.7
	c0,0.1,0.1,0.1,0.2,0.2c0.1,0.2,0.3,0.3,0.4,0.5c0.1,0.1,0.1,0.2,0.1,0.3c0.1,0.4,0.2,0.8,0.1,1.2c-0.1,0.4-0.2,0.8-0.3,1.2l0.4,0
	c-0.5,1.6-0.7,3.2,0.1,4.2c0.7,0.9,1.9,1.1,3,1.2c1.4,0.2,2.8,0.2,4.2,0.1c1.7-0.3,3.3-1,4.7-1.8l2.7-1.4c1.3-0.6,5.5-4.4,6.3-5.7
	c0.8-1.2,0.7-3.2-0.5-3.9c-0.3-0.2-0.7-0.3-1.1-0.4c-1.2-0.5-3.2-0.6-5-0.6c-0.1-0.7-0.1-1.4-0.2-2.1c-0.1-2.6-0.1-5.2,0.1-7.8
	c0.2-1.8,0.4-3.7,0.4-5.5c0-2.4-0.5-4.9-0.8-7.3c-0.3-2.4-0.3-4.8-0.3-7.2c-0.1-3.5,1-6.9,1.4-10.4l0.8-6.2c0.1-0.7,0.2-1.5,0.1-2.3
	c-0.1-0.7-0.4-1.4-0.6-2c-0.3-1.5,0.4-3.1,0.6-4.6c0.2-1.8-0.1-3.6-0.4-5.4c-0.3-2.8-0.5-5.7-0.5-8.5c-0.2-17.4-0.7-35.3-6.6-51.6
	c-0.2-0.7-0.5-1.4-0.8-2c0.1,0,0.2-0.1,0.4-0.1c0.2-0.1,0.4-0.2,0.5-0.3c0.1,0,0.1-0.1,0.2-0.1c0.2-0.2,0.3-0.4,0.4-0.7
	c0.1-0.2,0.1-0.5,0.1-0.8c0-0.5-0.1-0.9-0.2-1.4l-0.1-0.3c-0.1-0.5-0.3-0.9-0.4-1.4c-0.1-0.4-0.3-0.9-0.5-1.3
	c-0.4-0.8-0.6-1.6-0.9-2.5c-0.4-1.9,0-4.1-1.2-5.7c-2.6-3.5-0.7-8.9-1.8-13.2c-0.4-1.4-0.9-2.7-1.2-4.1c-0.2-0.9-0.3-1.8-0.5-2.6
	c-0.3-1.9-0.5-3.9-0.5-5.8c0-1,0.1-1.9,0.3-2.9l0.8-6.7c0.9,1.7,1.6,3.6,1.9,5.5c0.1,0.3,0.1,0.5,0.2,0.8c0.7,3.3,1.6,6.6,2.7,9.8
	c0.6,1.9,1.2,3.9,1.9,5.8c0.2,0.5,0.4,1.1,0.6,1.7c0.2,0.6,0.3,1.1,0.4,1.7c0.1,0.5,0.1,0.9,0.1,1.4c0,0.5,0.1,0.9,0.1,1.4
	c0.2,2,0.9,3.9,2,5.6c0,0,0.1,0.1,0.1,0.1c0.2,0.3,0.5,0.6,0.8,0.7c0.2,0.1,0.5,0.1,0.7,0h0c0.4-0.1,0.7-0.2,1.1-0.2
	c0.1,0,0.1,0,0.2,0c0.2,2.1,0.8,4.2,0.8,6.3c0.1,3.1-1.1,6-1.8,9c-0.6,2.7-1,5.5-1.2,8.3c-0.1,0.6-0.1,1.1,0.1,1.7
	c0.1,0.3,0.2,0.5,0.5,0.6c0.2,0.2,0.5,0.2,0.8,0.2c0.2-0.1,0.4-0.2,0.5-0.3c0.2-0.1,0.3-0.3,0.4-0.5c0.8-1.3,1.1-2.9,0.7-4.5
	c0.6,0.1,1,0.9,1.1,1.5c0.4,1.7,0.3,3.6-0.3,5.2c-0.4,1.1-1,2.2-1.4,3.3c-0.1,0.4-0.1,0.7,0,1.1c0.3,0.8,1.4,0.7,2.2,0.4
	c2.5-1,4.6-3,5.7-5.4C389.5,270.4,390,267.7,389.9,265z"/>
<path class="st11" d="M350.5,398.6c-0.7,0.9-2,1-3.1,1.2c-1.4,0.2-2.9,0.2-4.4,0.1c-1.7-0.3-3.4-0.9-4.9-1.8l-2.9-1.4
	c-1.3-0.6-5.8-4.4-6.6-5.6c-0.8-1.2-0.7-3.2,0.5-3.9c0.4-0.2,0.7-0.3,1.1-0.4c2.1-0.8,6.4-0.4,8.6-0.7c1.1-0.1,2.2,0.2,3.2,0.8
	c2.2,1,6.1,1.8,7.1,4.3C350.1,393,352.1,396.7,350.5,398.6z"/>
<path class="st11" d="M366.4,396.7c0.7,0.9,2,1,3.1,1.2c3.2,0.6,6.5,0,9.3-1.7l2.9-1.4c1.3-0.6,5.8-4.4,6.6-5.6
	c0.8-1.2,0.7-3.2-0.5-3.9c-0.4-0.2-0.7-0.3-1.1-0.4c-2.1-0.8-6.4-0.4-8.6-0.7c-1.1-0.1-2.2,0.2-3.2,0.8c-2.2,1-6.1,1.8-7.1,4.3
	C366.9,391.1,364.9,394.8,366.4,396.7z"/>
<path class="st11" d="M373.4,260c0.7,1.3,1.3,2.7,1.8,4.1c6.1,16.2,6.6,34,6.9,51.4c0,2.8,0.1,5.6,0.5,8.4c0.3,1.8,0.7,3.6,0.4,5.3
	c-0.2,1.5-0.9,3-0.7,4.6c0.1,0.7,0.5,1.4,0.6,2c0.1,0.7,0.1,1.5-0.1,2.3l-0.8,6.1c-0.5,3.5-1.6,6.8-1.5,10.4c0,2.4,0.1,4.8,0.3,7.2
	c0.4,2.4,0.7,4.8,0.8,7.3c0,1.8-0.2,3.6-0.4,5.5c-0.2,2.6-0.3,5.1-0.2,7.7c0.1,2,0.3,4.1,1.4,5.7c-1.2,1.7-2.3,3.2-4.2,4.1
	c-3.8,1.7-8.2,1.1-12.4,0.5c0.2-0.8,0.6-1.6,0.2-2.4c-0.2-0.4-0.4-0.7-0.7-1c-0.9-1.3-1.5-2.7-1.8-4.3c-0.5-1.8-1-3.8,0-5.6
	c0.4-0.6,0.5-1.3,0.5-2c-0.9-11.5-3.4-23.4-1.1-34.7c0.2-1.2,0.5-2.4,0.7-3.6c0.1-1.8,0.2-3.5,0.1-5.3l0-2.5c-0.1-2.6,0-5.3-0.5-7.9
	c-0.4-1.9-1.1-3.7-0.2-5.6c0.2-0.4,0.3-0.9,0.2-1.4c0-0.5-0.2-0.9-0.4-1.3c-1.8-3.2-3.3-6.6-4.4-10.1c-0.2-1-0.5-1.9-0.9-2.9
	c-0.5-1-1.1-1.9-1.8-2.8c-2-3-3.3-6.4-4.5-9.8c0.1-0.3,0-0.7-0.3-0.7c-0.2,0-0.3,0.1-0.5,0.2c-0.1,0.1-0.2,0.2-0.3,0.4
	c-1.6,2.2-1.8,5.2-1.9,8c-0.1,2.6-0.1,5.1,0.1,7.7c0.1,1.4,0.4,2.7,0.5,4.1c0.2,2.5,0.1,5-0.1,7.5l-0.8,12.3c-0.1,1-0.1,2.1,0.2,3.1
	c0.5,1.7,0.8,3.5,0.8,5.3c-0.2,7.4,0.4,14.9,1.9,22.2c0.4,2,0.9,4,1.2,6c0.7,4.8,1,9.6,1,14.5c0.1,3,0.1,6.1-1.1,8.8
	c-0.5,0.8-0.8,1.8-1,2.7c0,0.5-0.1,1-0.2,1.4c-0.3,0.9-1.4,1.3-2.3,1.5c-1.7,0.4-3.5,0.5-5.3,0.4c-0.4,0-0.8-0.1-1.2-0.3
	c-0.7-0.3-1-1.1-1.5-1.6c-1.1-1.2-2.9-1.6-3.9-2.8c-1.2-1.6-0.7-3.9,0-5.8c0.7-1.9,1.6-3.9,1-5.8c-0.7-2.3-3.4-3.5-4.1-5.7
	c2-9.2-3-18.6-2.5-28c0.1-2.2,0.5-4.3,0.5-6.5c0-5.6-2.4-11.1-2-16.7c1-14.3-3.8-28.5-5.9-42.7c-0.4-2.1-0.5-4.3-0.4-6.4
	c0.3-3.5,1.9-6.8,3.9-9.8c1.4-2.1,3.1-4.2,5.5-5.2c1.9-0.8,4.1-0.8,6.2-0.8c5.2,0,10.5,0.1,15.7,0.2c3.6-0.1,7.1,0.3,10.6,0.9
	C367.9,258.2,370.5,259.6,373.4,260z"/>
<g class="st12">
	<path class="st2" d="M351.8,289.2c0.2-0.3,0.5-0.5,0.8-0.6c0.3,0,0.4,0.4,0.3,0.7c1.2,3.4,2.4,6.9,4.5,9.8c0.7,0.9,1.3,1.8,1.8,2.8
		c0.4,0.9,0.7,1.9,0.9,2.9c1.1,3.5,2.5,6.9,4.4,10.1c0.2,0.4,0.4,0.9,0.4,1.3s-0.1,0.9-0.3,1.4c-0.9,1.9-0.2,3.8,0.2,5.6
		c0.5,2.6,0.4,5.3,0.5,7.9c0,0.8,0,1.6,0,2.5c0.1,1.8,0.1,3.5-0.1,5.3c-0.1,1.2-0.4,2.4-0.7,3.6c-2.3,11.3,0.2,23.2,1.1,34.7
		c0.1,0.7-0.1,1.4-0.4,2c-1,1.8-0.5,3.7,0,5.6c0.3,1.5,0.9,3,1.8,4.3c0.3,0.3,0.5,0.6,0.7,1c0.3,0.7,0,1.6-0.3,2.4
		c1.8,0.3,3.7,0.5,5.5,0.6c-2.4,0-4.8-0.2-7.2-0.6c0.2-0.8,0.6-1.6,0.2-2.4c-0.2-0.4-0.4-0.7-0.7-1c-0.9-1.3-1.5-2.7-1.8-4.3
		c-0.5-1.8-1-3.8,0-5.6c0.4-0.6,0.5-1.3,0.5-2c-0.9-11.5-3.4-23.4-1.1-34.7c0.2-1.2,0.5-2.4,0.7-3.6c0.1-1.8,0.1-3.5,0.1-5.3
		c0-0.8,0-1.6-0.1-2.5c-0.1-2.6,0-5.3-0.5-7.9c-0.4-1.9-1.1-3.7-0.2-5.6c0.2-0.4,0.3-0.9,0.2-1.4c0-0.5-0.2-0.9-0.4-1.3
		c-1.8-3.2-3.3-6.6-4.4-10.1c-0.2-1-0.5-1.9-0.9-2.9c-0.5-1-1.1-1.9-1.8-2.8c-2-2.8-3.2-6.1-4.3-9.4
		C351.6,289.6,351.7,289.4,351.8,289.2z"/>
</g>
<path class="st13" d="M289,195c-0.5-2.5,0.5-5.1-0.3-7.6c-0.3-0.9-0.9-1.8-1.8-1.8c-0.9,0-1.5,0.9-2.3,1.3c-1.3,0.7-2.8,0.1-4.1-0.6
	c-1.2-0.7-2.7-1.4-4.1-1c-0.2,0.9,0.4,1.7,1.1,2.3c0.7,0.5,1.3,1.2,1.7,2c0.3,0.8,0.2,1.7,0.2,2.5c0.1,2,1.4,3.7,2.6,5.2
	c2,2.5,4.1,4.8,6.4,7.1c0,0,3.4-4.2,3.3-5c0-0.7-1.2-1.4-1.6-1.9C289.6,196.8,289.2,195.9,289,195z"/>
<path class="st13" d="M390.3,246.9c0.3,0.8,0.5,1.6,0.7,2.4c0.9,4.3,1.4,8.6,2,12.9c0.1,1.1,0.3,2.3,0.3,3.5c0.2,2.8-0.4,5.5-1.6,8
	c-1.2,2.5-3.4,4.4-6,5.4c-0.8,0.3-1.9,0.3-2.3-0.4c-0.1-0.4-0.1-0.7,0-1.1c0.3-1.1,1-2.2,1.4-3.3c0.6-1.7,0.7-3.5,0.3-5.2
	c-0.2-0.7-0.5-1.4-1.2-1.5c0.3,1.5,0.1,3.1-0.8,4.4c-0.1,0.2-0.2,0.3-0.4,0.5c-0.2,0.1-0.3,0.2-0.5,0.3c-0.3,0-0.6,0-0.8-0.2
	c-0.2-0.1-0.4-0.4-0.5-0.6c-0.2-0.5-0.2-1.1-0.1-1.6c0.2-2.8,0.6-5.5,1.3-8.2c0.7-3,1.9-5.9,1.8-9c-0.1-2.8-1.2-5.5-0.9-8.3
	c0-0.2,0-0.3,0.1-0.4c0.1-0.1,0.2-0.2,0.4-0.3c0.8-0.3,1.6-0.6,2.4-0.8c0.5-0.1,2.1-0.7,2.6-0.4c0.5,0.2,0.5,1.4,0.7,1.9
	C389.5,245.5,390,246.1,390.3,246.9z"/>
<path class="st13" d="M335.7,164.7c6.2,0,11.3-5.1,11.3-11.3s-5.1-11.3-11.3-11.3c-6.2,0-11.3,5.1-11.3,11.3
	S329.4,164.7,335.7,164.7z"/>
<path class="st13" d="M345.8,161.6c0,0.7,0.1,1.4,0.2,2.2c0.2,0.7,0.4,1.4,0.7,2.1c0.4,1.1,0.9,2.2,1.6,3.1c0.7,1,1.7,1.6,2.9,1.9
	c-7.7,3.6-16,6-24.5,7.1c1.3-0.9,2.4-2.1,3.2-3.5c0.4-0.9,0.7-1.8,0.9-2.8c0.7-4.1,0.4-8.3-1.1-12.2c-0.1-0.4-0.3-0.9,0-1.2
	c0.1-0.1,0.3-0.2,0.4-0.3c3.4-1.4,7-2.1,10.6-2c0.9,0,1.9,0,2.8,0.1c0.5,0,1.6-0.1,2,0.3c0.4,0.4,0.2,1.8,0.2,2.4L345.8,161.6z"/>
<path class="st14" d="M351.8,169.9c-1.7-2.1-4-3.6-6.6-4.3c-2.6-0.7-5.4-0.4-7.9,0.7c-5.4,2.6-8,8.8-12.8,12.4
	c-1.1,0.8-2.2,1.5-3.4,2.1c-0.7,0.4-1.5,0.7-2.3,0.9c-0.9,0.2-1.8,0.2-2.7,0.4c-1.7,0.5-3.1,1.6-4,3.1c-0.4,0.8-0.9,1.5-1.5,2.3
	c-0.5,0.6-1.1,1.1-1.6,1.6c-1.9,2-2.4,4.9-2.8,7.7c-1.5,1.6-3.1,3-4.8,4.2c-0.5,0.4-1.1,0.7-1.8,1c-1.7,0.5-3.5-0.1-4.9-1.2
	c-1.4-1-2.6-2.4-3.9-3.4c-1.3,1.8-2.6,3.7-4,5.4c-0.2,0.3-0.5,0.6-0.9,0.7c-0.3,0.9,0.4,1.8,0.8,2.5l2.5,4.2c0.8,1.5,1.8,2.9,3,4.2
	c1.2,1.2,2.8,2,4.5,2.1c1.1,0,2.2-0.2,3.2-0.6c4.7-1.6,9-4.1,13.5-6.3c0.8-0.5,1.7-0.7,2.6-0.8c0.5,0,0.9,0.1,1.3,0.4
	c0.4,0.3,0.7,0.7,0.8,1.1c0.5,2.6,1,5.2,1.7,7.7c0.7,2.4,1.3,4.8,1.9,7.2c0.4,1.5,0.7,3,0.8,4.5c0.1,0.9,0.1,1.7,0.1,2.6l0.1,10.5
	c0,1.1-0.6,1.8-1.1,2.9c-0.8,1.6-0.9,3.4-0.3,5c0.3,0.8,0.7,1.6,1,2.4c0.7,2,0.7,4.1,0.7,6.2l-0.1,4.8c0,0.2,0,0.4,0.1,0.6
	c0.3,0.5,1,0.2,1.4-0.1l2.2-1.5c3,0.4,6,0.6,9,0.4c8.6-0.1,17.2,0.2,25.7,0.8c2.9,0.2,5.8,0.4,8.5-0.5c1.4-0.5,2.6-1.3,4.1-1.6
	c0.6-0.1,1.1-0.3,1.6-0.7c0.8-0.7,0.6-2,0.3-3c-0.3-0.9-0.6-1.8-1-2.6c-0.4-0.8-0.7-1.6-0.9-2.5c-0.4-1.9,0-4.1-1.2-5.7
	c-2.7-3.5-0.8-8.8-1.9-13.1c-0.4-1.4-0.9-2.7-1.2-4.1c-0.2-0.9-0.4-1.7-0.5-2.6c-0.4-1.9-0.5-3.8-0.5-5.8c0-1,0.2-1.9,0.3-2.9
	l0.8-6.7c1.1,2,1.8,4.1,2.2,6.3c0.8,3.3,1.7,6.6,2.8,9.7c0.6,1.9,1.3,3.8,2,5.8c0.4,1.1,0.8,2.2,1,3.4c0.1,0.9,0.2,1.9,0.3,2.8
	c0.2,2,0.9,3.9,2,5.6c0.2,0.4,0.5,0.7,1,0.9c0.3,0.1,0.6,0.1,0.8,0c3-0.6,5.9-1.6,8.6-3c0.6-0.2,1.1-0.6,1.5-1.1
	c0.7-1.2-0.1-2.7-0.4-4c-0.4-1.4-0.3-3.2-1.4-4.2c-4-3.4-2-10.2-4-15c-0.4-0.8-0.8-1.7-1.1-2.5c-0.2-0.7-0.4-1.4-0.6-2
	c-1.4-5.6-2.9-11.2-4.4-16.8c-1.6-5.8-1.5-11.8-3.5-17.4c-0.4-1.2-0.9-2.3-1.5-3.4c-0.7-1.1-1.6-2.1-2.7-2.8c-3-2-6-3.7-9.5-4.4
	C359.2,169.8,355.3,169.8,351.8,169.9z"/>
<path class="st14" d="M325.4,156.2c-1.5-0.8-1.1-3.1-1.4-4.7c-0.5-3.5-4.5-5.6-5.4-9c1.1,0.1,2.2,0,3.1-0.4c0.2-1.1,0-2.3-0.6-3.3
	c3.3-1.4,5.9-3.9,9.2-5.1c4.2-1.5,8.8-0.6,13,0.8c2.1,0.7,4.3,1.6,5.6,3.4c1.4,2,1.4,4.6,1.3,7c-0.1,3.8-0.3,7.8-2,11.2
	c-2.2,4.3-8.3,8.4-13.3,7.2c-2.1-0.5-2.7-1.8-3.6-3.6c-0.6-1.1-0.8-2.5-2-3C328,155.9,326.6,156.8,325.4,156.2z"/>
<g class="st12">
	<path class="st2" d="M322.9,260.3C322.9,260.3,322.9,260.3,322.9,260.3c0.3,0.5,1,0.3,1.4-0.1l2.2-1.5c3,0.4,6,0.6,9,0.4
		c8.6-0.1,17.2,0.2,25.7,0.8c2.9,0.2,5.8,0.4,8.5-0.5c1.4-0.5,2.6-1.3,4.1-1.6c0.5-0.1,1-0.3,1.4-0.5c0.2,0.4,0.3,0.9,0.5,1.4
		c0.3,1,0.5,2.3-0.3,3c-0.5,0.3-1,0.6-1.6,0.7c-1.4,0.4-2.7,1.2-4.1,1.7c-2.7,1-5.7,0.7-8.5,0.5c-8.6-0.6-17.1-0.9-25.7-0.8
		c-3,0.1-6,0-9-0.4l-2.2,1.6c-0.4,0.3-1.1,0.6-1.4,0.1c-0.1-0.2-0.1-0.4-0.1-0.6C322.9,262.9,322.9,261.6,322.9,260.3z"/>
	<path class="st2" d="M371.9,219c-0.4-2.2-1.1-4.3-2.2-6.3l-0.8,6.7c-0.1,0.4-0.1,0.8-0.2,1.3c-0.1-1-0.1-1.9-0.1-2.9
		c0-1,0.2-1.9,0.3-2.9l0.8-6.7c1.1,2,1.8,4.1,2.2,6.3c0.8,3.3,1.7,6.6,2.8,9.7c0.6,1.9,1.3,3.9,2,5.8c0.4,1.1,0.8,2.2,1,3.4
		c0.1,0.9,0.2,1.9,0.3,2.8c0.2,2,0.9,3.9,2,5.6c0.2,0.4,0.5,0.7,1,0.9c0.3,0,0.6,0,0.8,0c3-0.6,5.9-1.6,8.6-3c0.4-0.2,0.7-0.4,1-0.6
		c0.4,1.4,1.2,2.8,0.4,4c-0.4,0.5-0.9,0.9-1.5,1.1c-2.7,1.4-5.6,2.4-8.6,3c-0.3,0.1-0.6,0.1-0.8,0c-0.4-0.2-0.7-0.5-1-0.9
		c-1.1-1.7-1.8-3.6-2-5.6c-0.1-0.9-0.1-1.9-0.3-2.8c-0.2-1.2-0.6-2.3-1-3.4c-0.7-1.9-1.4-3.8-2-5.8
		C373.6,225.5,372.7,222.2,371.9,219z"/>
	<path class="st2" d="M371.2,237.4c0,0.3,0,0.6,0,0.9C371.2,238,371.2,237.7,371.2,237.4z"/>
	<path class="st2" d="M322.3,248.8c0.7,2,0.7,4.1,0.7,6.2c0,0.5,0,1.1,0,1.6c-0.1-1.1-0.3-2.2-0.7-3.3c-0.3-0.8-0.7-1.6-1-2.4
		c-0.5-1.4-0.5-3,0.1-4.4C321.6,247.3,322,248,322.3,248.8z"/>
	<path class="st2" d="M286.8,202.8l0.4-0.5l2,3.4c0.8,1.5,1.8,2.9,3,4.2c1.2,1.3,2.8,2.1,4.5,2.2c1.1,0,2.2-0.2,3.2-0.6
		c4.7-1.6,9-4.1,13.5-6.3c0.8-0.5,1.7-0.7,2.6-0.8c0.5,0,0.9,0.1,1.3,0.4c0.4,0.3,0.7,0.7,0.8,1.1c0.5,2.6,1,5.2,1.7,7.7
		c0.7,2.4,1.3,4.8,1.9,7.2c0.4,1.5,0.7,3,0.8,4.5c0.1,0.9,0.1,1.7,0.1,2.6l0.1,10.5c0,0.2,0,0.3,0,0.5l-0.1-6.4c0-0.9,0-1.7-0.1-2.6
		c-0.2-1.5-0.4-3-0.8-4.5c-0.6-2.4-1.2-4.8-1.9-7.2c-0.7-2.5-1.2-5.1-1.7-7.7c-0.1-0.4-0.4-0.8-0.8-1.1c-0.4-0.3-0.8-0.4-1.3-0.4
		c-0.9,0.1-1.8,0.3-2.6,0.8c-4.5,2.2-8.8,4.7-13.5,6.3c-1,0.4-2.1,0.6-3.2,0.6c-1.7-0.1-3.3-0.9-4.5-2.2c-1.2-1.3-2.2-2.7-3-4.2
		c-0.8-1.4-1.6-2.8-2.5-4.2c-0.5-0.8-1.1-1.7-0.8-2.5C286.3,203.3,286.6,203.1,286.8,202.8z"/>
</g>
<g class="st12">
	<path class="st2" d="M321.7,140.3c-0.1-0.6-0.3-1.1-0.6-1.7c0.2-0.1,0.4-0.2,0.6-0.2C321.8,139,321.8,139.6,321.7,140.3z"/>
	<path class="st2" d="M324,149.8c0.3,1.7-0.1,3.9,1.4,4.7c1.2,0.7,2.7-0.3,3.9,0.3c1.2,0.6,1.4,1.9,2,3.1c0.9,1.8,1.5,3.1,3.6,3.6
		c5.1,1.2,11.2-2.9,13.3-7.2c1.7-3.4,1.9-7.4,2-11.2c0-0.2,0-0.4,0-0.6c0,0.7,0,1.5,0,2.2c-0.1,3.8-0.3,7.8-2,11.2
		c-2.2,4.3-8.3,8.4-13.3,7.2c-2.1-0.5-2.7-1.8-3.6-3.6c-0.6-1.1-0.8-2.5-2-3c-1.3-0.6-2.7,0.4-3.9-0.3c-1.5-0.8-1.1-3-1.4-4.7
		c-0.5-3.5-4.5-5.6-5.4-9c0.2,0,0.5,0,0.7,0C320.8,144.9,323.6,146.9,324,149.8z"/>
</g>
</svg>
