<?xml version="1.0" encoding="utf-8"?>
<!-- Generator: Adobe Illustrator 17.0.0, SVG Export Plug-In . SVG Version: 6.00 Build 0)  -->
<!DOCTYPE svg PUBLIC "-//W3C//DTD SVG 1.1//EN" "http://www.w3.org/Graphics/SVG/1.1/DTD/svg11.dtd">
<svg version="1.1" id="Слой_1" xmlns="http://www.w3.org/2000/svg" xmlns:xlink="http://www.w3.org/1999/xlink" x="0px" y="0px"
	 width="612px" height="437px" viewBox="0 0 612 437" enable-background="new 0 0 612 437" xml:space="preserve">
<g>
	<g>
		<g>
			<defs>
				<rect id="SVGID_1_" x="-7.789" y="0.071" width="620.16" height="437.673"/>
			</defs>
			<clipPath id="SVGID_2_">
				<use xlink:href="#SVGID_1_"  overflow="visible"/>
			</clipPath>
			<g clip-path="url(#SVGID_2_)">
				<path opacity="0.1" fill="#C7C7C7" enable-background="new    " d="M353.847,87.234c-36.349-1.484-71.215-13.724-104.225-27.447
					s-66.393-28.56-102-35.978c-22.996-4.822-48.96-5.193-67.505,7.789C62.313,44.209,56.75,65.722,53.412,85.751
					c-2.225,15.207-3.709,31.156,2.596,45.251c4.451,9.644,12.24,18.175,17.804,27.447c18.916,32.64,5.564,73.069-14.836,104.967
					c-9.644,14.836-20.771,29.302-28.189,45.251s-10.756,34.124-4.451,50.444S48.22,387.3,64.54,395.831
					c33.753,17.433,73.44,22.255,112.015,25.222c85.68,6.305,171.731,3.338,257.411,0.742c31.898-1.113,63.796-1.855,94.953-7.047
					c17.433-2.967,35.236-7.418,47.847-18.545c15.949-14.095,20.029-37.833,9.273-55.636
					c-17.804-29.673-67.505-37.091-80.116-68.618c-7.047-17.433,0-37.091,10.385-53.04c21.513-34.865,57.862-65.28,59.716-104.967
					c1.484-27.447-15.949-54.524-43.026-67.505c-28.189-13.724-67.135-11.869-87.905,10.756
					C423.578,79.816,385.745,88.347,353.847,87.234z"/>
				<path fill="#3F3D56" d="M288.567,327.583c0.371,4.822,2.225,9.644,5.564,12.611s9.644,2.596,12.24-1.113
					c1.113-1.484,1.484-2.967,1.855-4.822c2.225-7.789,4.08-16.32,1.484-24.48c-5.935-0.371-12.611-3.338-17.062,1.855
					C289.68,316.085,288.196,322.02,288.567,327.583z"/>
				<path fill="#FABDBD" d="M315.644,279.365c-0.742,7.047-2.225,13.724-1.855,20.771c0,2.596,0.371,5.564,0.371,8.16
					c0,7.047-1.855,14.095-5.193,20.029c-0.371,0.742-0.742,1.484-1.484,1.855c-1.484,1.113-3.338,1.113-4.822,0
					s-2.596-2.225-3.338-4.08c-4.08-7.789-4.451-17.062-5.935-25.593c-1.113-6.676-3.338-12.982-4.451-19.658
					c-0.371-4.451-0.371-8.531-1.113-12.982c-0.371-1.113-1.113-3.338-1.484-5.193c-0.371-1.855-0.742-3.338-0.371-4.451
					c0.742-2.225,3.709-1.484,5.564-1.113c6.676,0.371,13.353,0.371,20.029,0c0.742,0,1.484,0,1.855,0.371s0.371,0.371,0.371,0.742
					c0.371,1.484,1.113,3.338,1.113,4.822C316.385,268.609,316.385,274.172,315.644,279.365z"/>
				<g opacity="0.1">
					<path opacity="0.1" enable-background="new    " d="M313.047,257.482c-0.371,0-0.742,0-1.113,0
						c-3.338,0.371-6.305,0.371-9.644,0.371C306,257.852,309.338,257.852,313.047,257.482z"/>
					<path opacity="0.1" enable-background="new    " d="M303.775,330.551c-1.484-1.113-2.596-2.225-3.338-4.08
						c-4.08-7.789-4.451-17.062-5.935-25.593c-1.113-6.676-3.338-12.982-4.451-19.658c-0.371-4.451-0.371-8.531-1.113-12.982
						c-0.371-1.113-1.113-3.338-1.484-5.193c-0.371-1.855-0.742-3.338-0.371-4.451c0.371-0.371,0.371-0.742,0.742-1.113
						s0.742-0.371,1.484-0.371c-1.484,0-2.967,0-3.338,1.484c-0.371,1.113-0.371,2.967,0.371,4.451
						c0.371,1.855,1.113,3.709,1.484,5.193c0.742,4.08,0.742,8.531,1.113,12.982c0.742,6.676,2.967,12.982,4.451,19.658
						c1.484,8.531,1.855,17.804,5.935,25.593c0.742,1.484,1.855,2.967,3.338,4.08c0.742,0.371,1.855,0.742,2.967,0.742
						C305.258,331.292,304.516,330.922,303.775,330.551z"/>
				</g>
				<path fill="#FABDBD" d="M337.156,316.085c-3.338,7.047-2.967,17.433-2.967,17.433c0.742,23.738-8.531,74.182-8.531,74.182
					h-7.789c0,0-1.113-55.636,0-60.458s-0.742-21.513-2.225-44.88c-1.113-17.433,2.225-33.011,4.08-40.058
					c0.742-2.225,1.113-3.709,1.113-3.709s12.982-20.4,20.4-10.756c1.855,2.225,2.596,6.676,2.967,12.24
					C344.945,278.994,339.753,310.522,337.156,316.085z"/>
				<path opacity="0.1" enable-background="new    " d="M343.833,260.449c-0.371-5.564-1.113-10.015-2.967-12.24
					c-1.484-2.225-3.709-2.596-5.564-2.596c1.484,0.371,2.967,1.113,3.709,2.596c1.855,2.225,2.596,6.676,2.967,12.24
					c1.113,18.545-4.08,50.444-6.676,55.636c-3.338,7.047-2.967,17.433-2.967,17.433c0.742,23.738-8.531,74.182-8.531,74.182h1.855
					c0,0,8.902-50.073,8.531-74.182c0,0-0.742-10.015,2.967-17.433C339.753,310.522,344.945,278.994,343.833,260.449z"/>
				<path fill="#3F3D56" d="M313.789,405.474c-0.742,0.371-1.113,1.113-1.484,1.855c-1.113,1.855,0.371,4.451,1.855,5.935
					s3.338,3.338,3.338,5.564c0,1.855-1.484,3.338-2.967,4.451c-0.742,0.371-1.855,1.113-1.484,2.225c0,0.371,0,0.371,0.371,0.742
					c1.113,2.225,3.338,3.338,5.935,3.709c2.225,0.371,4.451,0.371,7.047,0c0.371,0,0.742,0,1.113-0.371
					c0-0.371,0.371-0.371,0.371-0.742c0-1.113,0-2.596,0.742-3.709c0.742-1.484,2.596-2.225,3.338-3.709
					c1.484-1.855,1.113-4.451,0.742-7.047c-1.113-5.193-3.709-10.756-7.418-14.465C320.095,396.202,316.756,402.507,313.789,405.474
					z"/>
				<path fill="#3F3D56" d="M330.851,103.925c2.967-4.822,2.225-11.869-0.742-17.062c-3.338-4.822-8.531-8.16-13.724-10.015
					c-7.047-2.596-15.207-3.709-22.625-1.484c-5.935,1.484-11.127,5.193-16.691,7.789c-9.644,4.451-20.4,7.047-31.156,6.676
					c-11.869-0.371-24.851-3.709-34.865,3.338c-18.175,12.611-10.015,47.105-27.447,60.829c-4.822,3.709-10.385,5.564-15.578,8.531
					c-5.193,2.967-10.015,8.16-10.015,14.095c0,2.967,1.113,5.935,2.967,8.531c6.305,10.756,18.545,17.804,30.785,17.433
					c12.24,0,24.109-7.047,31.156-17.433c1.855-2.596,3.338-5.564,5.935-7.418c5.193-3.709,11.869-1.113,17.804-0.371
					c13.353,1.113,27.076-9.644,29.673-23.738c1.113-5.935,1.113-13.353,5.564-17.062c3.709-2.967,8.902-2.225,13.353-2.967
					c8.531-1.113,15.207-6.676,20.029-14.095c2.225-3.338,2.225-7.418,5.193-10.015
					C323.062,106.522,327.884,108.747,330.851,103.925z"/>
				<g opacity="0.1">
					<path opacity="0.1" enable-background="new    " d="M234.785,90.943c4.822,0,10.015-0.371,14.836-1.113
						c-1.484,0-2.596,0-4.08,0c-9.273-0.371-19.287-2.225-28.189,0C222.916,89.831,228.851,90.572,234.785,90.943z"/>
					<path opacity="0.1" enable-background="new    " d="M216.982,178.849c-2.596,1.855-4.08,4.822-5.935,7.418
						c-5.564,8.16-13.353,13.724-22.255,16.32c0.742,0,1.484,0,1.855,0c12.24,0,24.109-7.047,31.156-17.433
						c1.855-2.596,3.338-5.564,5.935-7.418l0.371-0.371C224.029,176.623,220.32,176.623,216.982,178.849z"/>
					<path opacity="0.1" enable-background="new    " d="M329.367,87.234c-3.338-4.822-8.531-8.16-13.724-10.015
						c-7.047-2.596-15.207-3.709-22.625-1.484h-0.371c4.08,0.371,8.16,1.113,12.24,2.596c5.193,1.855,10.385,5.193,13.724,10.015
						c3.338,4.822,4.08,11.869,0.742,17.062c-2.967,4.822-7.789,2.596-11.127,5.564c-2.967,2.596-2.967,6.676-5.193,10.015
						c-4.08,6.305-9.644,11.498-16.32,13.353c2.225-0.371,4.822-0.371,7.418-0.371c8.531-1.113,15.207-6.676,20.029-14.095
						c2.225-3.338,2.225-7.418,5.193-10.015c3.338-2.967,8.16-0.742,11.127-5.564C333.447,99.103,332.705,92.056,329.367,87.234z"/>
					<path opacity="0.1" enable-background="new    " d="M283.375,134.711c-4.822,0.371-9.644,0-13.353,2.967
						c-4.451,3.709-4.451,11.127-5.564,17.062c-1.855,10.385-10.015,19.287-19.658,22.255h0.742
						c13.353,1.113,27.076-9.644,29.673-23.738c1.113-5.935,1.113-13.353,5.564-17.062c1.113-0.742,2.225-1.484,3.338-1.855
						C283.745,134.711,283.745,134.711,283.375,134.711z"/>
				</g>
				<path fill="#FABDBD" d="M419.498,82.783c0,0-13.353,28.56-18.175,39.316c-4.451,10.756-45.622,27.076-51.185,27.447
					c-1.484,0.371-2.967,1.113-4.08,2.225c-3.338,2.967-4.822,8.16-4.822,8.16s2.225,16.32-0.742,43.025c0,0.371,0,1.113,0,1.484
					c-2.596,25.593,2.596,31.527,2.596,31.527s-54.524,22.255-53.04-6.676c0.371-8.902,0.371-15.578,0-21.142
					c-0.742-5.564-1.484-11.127-3.338-16.691c-1.484-4.822-2.967-10.385-4.451-17.804c-0.742-3.709-1.855-7.418-2.967-10.756v-0.371
					c-2.967-7.418-5.564-9.644-7.418-10.756c-1.484-0.742-2.967-1.484-4.451-2.596c-5.193-4.08-16.32-12.982-26.335-23.367
					c-13.353-14.465-27.076-48.589-27.076-48.589s-4.08-19.658,5.193-35.978c8.902-16.32,5.193,31.527,5.193,31.527
					s16.32,23.367,20.4,34.124c1.855,5.564,5.193,8.531,7.789,10.015c4.451,2.225,8.531,5.193,12.611,8.16
					c2.596,2.225,5.564,4.08,8.531,5.935c6.305,3.709,13.724,7.789,20.029,8.531c1.113,0,1.855,0.371,2.967,0.371
					c0.371,0,1.113,0,1.484-0.371s0.742-0.371,1.113-0.742c1.855-2.225,1.484-6.676,1.113-10.385
					c-0.371-1.855-0.371-3.709-0.742-5.935c0,0,18.175-12.24,17.804,2.596c0,1.484,0,3.338,0.371,4.822
					c0.371,1.484,1.113,2.967,1.855,4.08c1.113,1.113,2.225,1.855,3.709,2.225c2.225,0.742,4.451,0.742,6.676,0.371
					c0.742,0,1.484-0.371,1.855-0.742c1.855-1.113,18.545-6.676,23.738-7.047c5.193-0.742,30.415-13.724,30.415-13.724l27.447-40.8
					c0,0-0.742-23.738,10.756-33.382C435.447,31.969,419.498,82.783,419.498,82.783z"/>
				<g opacity="0.1">
					<path opacity="0.1" enable-background="new    " d="M340.495,200.732c-0.371,4.822-0.742,9.644-0.742,14.465
						c0-3.338,0.371-6.676,0.742-10.756c0-0.371,0-1.113,0-1.484c1.113-9.273,1.484-18.545,1.484-27.818
						c0,8.16-0.742,15.949-1.484,24.109C340.495,199.991,340.495,200.362,340.495,200.732z"/>
					<path opacity="0.1" enable-background="new    " d="M299.695,122.842c-0.371,0.371-0.742,0.371-0.742,0.371
						c0.371,2.596,0.742,5.193,1.113,7.789C300.436,128.034,300.436,125.438,299.695,122.842z"/>
					<path opacity="0.1" enable-background="new    " d="M224.4,70.172c0.371-4.08,0.742-11.869,0.742-18.545
						C225.142,60.9,224.4,69.802,224.4,70.172L224.4,70.172z"/>
					<path opacity="0.1" enable-background="new    " d="M290.422,228.922c0,0.371,0,0.371,0,0.742
						c-1.855,28.56,53.04,6.676,53.04,6.676c-0.742-0.742-1.113-1.855-1.484-2.967C333.447,235.969,292.276,250.434,290.422,228.922
						z"/>
					<path opacity="0.1" enable-background="new    " d="M419.498,79.074c0,0-13.353,28.56-18.175,39.316
						c-4.451,10.756-45.622,27.076-51.185,27.447c-1.484,0.371-2.967,1.113-4.08,2.225c-3.338,2.967-4.822,8.16-4.822,8.16
						s0,1.113,0.371,2.967c0.742-1.484,2.225-5.193,4.822-7.418c1.113-1.113,2.596-1.855,4.08-2.225
						c5.564-0.742,46.735-16.691,51.185-27.447c4.451-10.756,18.175-39.316,18.175-39.316s9.644-30.785,8.531-40.058
						C427.287,54.594,419.498,79.074,419.498,79.074z"/>
					<path opacity="0.1" enable-background="new    " d="M290.051,204.812c-0.742-5.564-1.484-11.127-3.338-16.691
						c-1.484-4.822-2.967-10.385-4.451-17.804c-0.742-3.709-1.855-7.418-2.967-10.756v-0.371c-2.967-7.418-5.564-9.644-7.418-10.756
						c-1.484-0.742-2.967-1.484-4.451-2.596c-5.193-4.08-16.32-12.982-26.335-23.367c-13.353-14.465-27.076-48.589-27.076-48.589
						c-0.371-2.967-0.742-5.935-0.742-8.902c0,4.08,0,8.16,0.742,12.24c0,0,13.353,34.124,27.076,48.589
						c10.015,10.385,21.142,19.658,26.335,23.367c1.484,1.113,2.967,1.855,4.451,2.596c1.484,0.742,4.451,3.338,7.418,10.756v0.371
						c1.113,3.709,2.225,7.047,2.967,10.756c1.484,7.418,3.338,12.982,4.451,17.804c1.484,5.564,2.596,11.127,3.338,16.691
						c0.371,2.596,0.371,5.193,0.371,8.16C290.793,212.602,290.422,208.522,290.051,204.812z"/>
				</g>
				<path fill="#C7C7C7" d="M346.058,178.849c-0.742,1.484-1.484,2.967-2.225,4.822c-0.742,2.596-0.742,5.193-1.113,7.789
					c-0.371,3.709-0.742,7.418-1.484,11.127c0,0.742-0.371,1.484-0.742,1.855c0,0.371-0.371,0.742-0.742,1.113
					s-0.742,0.742-1.113,1.113c-0.742,0.371-1.113,0.742-1.855,1.113c-7.789,3.709-16.32,7.418-24.851,5.935
					c-3.709-0.742-7.047-1.855-10.385-3.709c-2.967-1.484-6.676-3.338-9.644-2.225c-0.371,0.371-1.113,0.371-1.484,0.371h-0.371
					c-1.113-0.371-1.113-4.08-1.484-5.193c-0.742-4.451-1.113-7.789-1.484-11.498c-0.371-2.225-0.742-4.08-1.484-5.935
					c-2.225-7.418-2.967-14.836-2.967-22.625c0-0.371-2.596,0-3.338,0c-0.371,0-0.371,0-0.371,0s0,0,0-0.371
					c0.371-0.371,0.742-0.371,1.113-0.371l0.742-0.371c3.338-1.113,7.418-1.484,10.015-4.08c2.596-2.596,3.338-7.047,3.338-10.756
					c0-1.113-0.742-4.451-0.371-7.047c1.113,0,1.855,0.371,2.967,0.371c0.371,0,1.113,0,1.484-0.371s0.742-0.371,1.113-0.742
					c1.113,1.855,1.855,4.08,2.596,5.935c1.113,2.596,1.855,5.193,2.967,7.418c2.225,3.709,6.305,5.935,10.385,5.564
					c4.08-0.371,8.16-3.709,8.902-8.16c0.742-3.709-0.742-9.273-0.742-13.353c2.225,0.742,4.451,0.742,6.676,0.371
					c0,0.371,0,0.371,0.371,0.742c1.113,4.451,2.967,10.015,7.047,11.498c2.596,1.113,5.935,0.371,8.531,1.855
					c0.371,0,0.371,0.371,0.742,0.371c0.742,0.371,1.113,1.113,1.484,1.855c1.113,1.855,1.484,3.709,1.855,5.935
					C350.138,166.238,349.025,172.914,346.058,178.849z"/>
				<path opacity="0.1" enable-background="new    " d="M317.498,130.631c-2.967,1.113-5.935,1.484-8.902,1.113
					s-5.935-1.484-8.531-2.967c-0.371-1.855-0.371-3.709-0.742-5.935c0,0,18.175-12.24,17.804,2.596
					C316.756,127.292,317.127,129.147,317.498,130.631z"/>
				<path fill="#FABDBD" d="M310.451,131.002c10.756,0,19.287-9.273,19.287-20.4c0-11.127-8.531-20.4-19.287-20.4
					c-10.756,0-19.287,9.273-19.287,20.4S300.065,131.002,310.451,131.002z"/>
				<path fill="#43D29D" d="M277.069,161.045c0,0,37.091-25.222,152.815,1.855s182.487,5.564,182.487,5.564v28.189
					c0,0-129.818,14.836-179.149,0c-49.702-14.836-120.175-23.738-145.025-0.371L277.069,161.045z"/>
				<path opacity="0.1" enable-background="new    " d="M277.069,161.045c0,0,37.091-25.222,152.815,1.855
					s182.487,5.564,182.487,5.564v28.189c0,0-129.818,14.836-179.149,0c-49.702-14.836-120.175-23.738-145.025-0.371
					L277.069,161.045z"/>
				<path fill="#37B079" d="M278.182,162.158c0,0,35.978-25.222,151.702,1.855c115.724,27.076,181.375,5.564,181.375,5.564
					L612,195.169c0,0-128.705,14.836-178.036,0c-49.702-14.836-119.804-25.222-144.284-2.225L278.182,162.158z"/>
				<path fill="#43D29D" d="M264.458,200.732c0,0-37.091,25.222-152.815-1.855C-4.08,171.802,1.855,193.685,1.855,193.685v-28.189
					c0,0,56.749-14.836,106.451,0s120.175,23.738,145.025,0.371L264.458,200.732z"/>
				<path opacity="0.1" enable-background="new    " d="M264.458,200.732c0,0-37.091,25.222-152.815-1.855
					C-4.08,171.802,1.855,193.685,1.855,193.685v-28.189c0,0,56.749-14.836,106.451,0s120.175,23.738,145.025,0.371L264.458,200.732
					z"/>
				<path fill="#37B079" d="M263.345,199.62c0,0-35.978,25.222-151.702-1.855C-3.709,171.06,2.967,192.572,2.967,192.572
					l-0.742-25.593c0,0,55.636-14.836,105.338,0s119.804,25.222,144.284,2.225L263.345,199.62z"/>
				<path fill="#3F3D56" d="M294.131,113.94c-0.742-3.709-1.484-8.531,1.484-10.385c1.113-0.742,2.225-1.113,3.338-1.113
					c5.935,0,11.869,4.451,17.804,2.967c1.855-0.371,3.709-1.484,5.193-2.967c1.484-1.484,2.225-3.338,2.596-5.193
					c0.371-1.855,0.371-4.08-0.371-5.935s-1.855-3.709-3.338-4.822c-2.225-1.855-5.193-2.596-8.16-2.967
					c-7.418-1.484-15.578-3.338-22.996-1.113s-14.465,9.273-13.724,17.433c0.371,4.08,2.225,7.418,4.08,10.756
					c1.484,2.596,7.418,14.465,10.015,14.465C294.131,125.067,294.502,116.165,294.131,113.94z"/>
				<path fill="#C7C7C7" d="M341.607,225.954c0,0-38.945,10.015-51.927,0c0,0-5.564,23.367-4.08,35.236
					c0,0,27.447,1.855,30.415,3.709c0,0,0.742-4.822,3.338-2.225c0,0,9.644-11.869,27.076-1.113
					C346.429,261.191,350.138,233.002,341.607,225.954z"/>
				<path opacity="0.1" enable-background="new    " d="M320.836,86.492c-0.371-0.371-0.742-0.742-1.113-0.742
					c1.113,1.484,1.855,2.967,2.225,4.822c0.371,1.855,0.371,3.709-0.371,5.564c-0.742,1.855-1.484,3.338-2.967,4.451
					s-2.967,2.225-4.822,2.596c-5.935,1.484-11.869-3.338-17.804-2.967c-1.113,0-2.596,0.371-3.338,1.113
					c-2.967,2.225-2.225,6.676-1.484,10.385c0.371,2.596,0.371,11.127-3.709,10.756l0,0c1.113,1.484,2.225,2.225,2.967,2.225
					c4.08,0.371,4.08-8.531,3.709-10.756c-0.742-3.709-1.484-8.531,1.484-10.385c1.113-0.742,2.225-1.113,3.338-1.113
					c5.935,0,11.869,4.451,17.804,2.967c1.855-0.371,3.709-1.484,5.193-2.967s2.225-3.338,2.596-5.193
					c0.371-1.855,0.371-4.08-0.371-5.935C323.433,89.46,322.32,87.605,320.836,86.492L320.836,86.492z"/>
				<g opacity="0.1">
					<path opacity="0.1" fill="#C7C7C7" enable-background="new    " d="M40.8,57.932c0,0-42.284-18.916-47.847,15.207
						c0,0-2.967,5.193,1.113,9.644c0,0,0.742-2.225,4.822,0c1.484,0.742,2.967,1.484,4.451,1.855
						c2.596,0.742,5.193,0.742,7.047-0.371c0,0,13.724-0.742,25.593-20.029c0,0,4.822-3.338,5.193-4.451l-8.531,0.742
						c0,0,0.742,6.305-2.967,10.385c0,0,2.967-10.015,1.484-10.385c-0.371,0-4.451,0.371-4.451,0.371s1.113,11.127-4.451,17.062
						c0,0,5.193-11.498,2.967-17.062l-6.305,1.113c0,0,1.855,11.869-4.451,18.916c0,0,5.193-12.24,2.967-18.545l-5.935,2.225
						c0,0,1.484,11.498-3.709,17.433c0,0,4.451-14.836,2.225-16.691c0,0-5.193,2.225-6.305,3.709c0,0,0.742,8.531-2.225,11.498
						c0,0,1.855-10.015,1.113-10.756c0,0-6.305,4.822-8.16,9.273c0,0,2.225-6.676,7.418-10.015c0,0-4.08-0.742-7.418,1.113
						c0,0,2.225-4.451,8.902-2.225c0,0,4.822-3.709,5.935-3.709c0,0-6.305-2.967-10.756-2.596c0,0,4.822-2.967,12.611,1.855
						l5.935-2.225c0,0-8.16-4.451-12.24-4.451c0,0,5.564-2.225,13.724,4.08l6.305-1.484c0,0-6.676-4.451-11.498-5.564
						c0,0,5.564-0.742,12.982,5.193l4.08-0.371c0,0-4.822-2.967-6.676-3.709c-1.484-0.742-1.484-1.113-1.484-1.113
						c3.709,0.742,7.047,2.225,9.644,4.822C32.269,58.674,40.8,58.674,40.8,57.932z"/>
				</g>
				<g opacity="0.1">
					<path opacity="0.1" fill="#C7C7C7" enable-background="new    " d="M39.316,24.18c0,0-14.836-36.72-36.349-19.658
						c0,0-4.451,1.484-4.451,6.305c0,0,1.855-0.742,2.967,2.967c0.371,1.484,1.113,2.596,1.855,4.08
						c1.113,1.855,2.225,2.967,4.08,3.709c0,0,8.531,7.789,25.964,3.338c0,0,4.822,1.113,5.564,0.371l-5.564-4.451
						c0,0-2.967,4.08-7.418,4.451c0,0,7.047-4.08,6.676-5.193c-0.371,0-2.967-2.225-2.967-2.225s-5.564,7.418-11.869,7.418
						c0,0,9.273-3.709,10.756-8.16l-4.451-2.967c0,0-5.193,8.16-12.611,8.531c0,0,9.644-4.08,11.869-8.902l-4.822-2.596
						c0,0-5.564,7.789-11.498,8.16c0,0,10.385-5.935,10.385-8.531c0,0-4.451-1.855-5.935-1.855c0,0-4.08,5.564-7.418,5.193
						c0,0,6.676-4.822,6.305-5.564c0,0-6.305-0.742-9.644,0.742c0,0,4.822-2.596,9.644-1.484c0,0-2.225-2.967-4.822-3.709
						c0,0,3.709-1.113,6.305,4.08c0,0,4.822,0.742,5.564,1.484c0,0-2.225-5.564-5.193-8.16c0,0,4.451,1.113,6.305,8.531l4.822,2.225
						c0,0-2.596-7.418-4.822-10.015c0,0,4.451,1.855,5.935,10.756l4.451,2.967c0,0-1.484-6.676-3.709-10.015
						c0,0,3.709,2.596,5.193,10.756l2.225,1.855c0,0-1.113-4.822-1.855-6.305c-0.371-1.484,0-1.484,0-1.484
						c1.855,2.596,2.967,5.564,2.967,8.902C33.753,19.729,38.945,24.551,39.316,24.18z"/>
				</g>
			</g>
		</g>
	</g>
</g>
</svg>
