<?xml version="1.0" encoding="utf-8"?>
<!-- Generator: Adobe Illustrator 17.0.0, SVG Export Plug-In . SVG Version: 6.00 Build 0)  -->
<!DOCTYPE svg PUBLIC "-//W3C//DTD SVG 1.1//EN" "http://www.w3.org/Graphics/SVG/1.1/DTD/svg11.dtd">
<svg version="1.1" id="Слой_1" xmlns="http://www.w3.org/2000/svg" xmlns:xlink="http://www.w3.org/1999/xlink" x="0px" y="0px"
	 width="612px" height="436.465px" viewBox="0 177.768 612 436.465" enable-background="new 0 177.768 612 436.465"
	 xml:space="preserve">
<g>
	<g>
		<g>
			<path opacity="0.2" fill="#C7C7C7" enable-background="new    " d="M184.549,206.944c-7.591,0.949-15.656,2.609-20.637,9.251
				c-5.93,7.828-4.981,19.926-2.372,29.888c2.609,9.963,6.879,19.688,6.879,30.126c0,16.605-11.386,30.837-23.958,38.191
				c-12.809,7.353-27.042,9.726-40.8,14.233c-12.809,4.033-25.144,9.726-36.53,17.079c-9.726,6.167-19.451,13.995-23.247,26.093
				c-6.405,19.688,5.456,40.563,16.842,56.693c35.344,49.577,80.651,97.256,135.684,102c41.274,3.558,82.549-17.553,123.349-9.726
				c18.74,3.558,36.293,13.047,53.846,21.349s36.056,15.656,55.033,14.707s38.665-11.86,46.73-31.786
				c4.744-11.86,5.456-25.381,9.726-37.479c13.758-36.767,56.693-42.698,81.363-70.451c13.047-14.47,20.4-34.633,26.805-54.321
				c9.963-32.26,17.554-66.181,15.893-100.34c-0.712-14.944-3.558-30.363-11.623-41.986c-5.93-8.302-14.233-13.995-22.298-19.214
				c-18.502-12.335-38.191-24.907-59.302-23.484c-12.098,0.949-23.721,6.405-35.344,10.674c-22.06,8.302-45.307,12.335-68.316,16.13
				c-37.953,6.642-76.619,13.284-115.047,9.963c-17.079-1.423-32.972-7.353-49.814-9.726
				C226.772,201.963,204.949,204.335,184.549,206.944z"/>
			<path opacity="0.5" fill="#C7C7C7" enable-background="new    " d="M491.498,308.707c13.047,0,23.721-10.674,23.721-23.958
				s-10.674-23.958-23.721-23.958s-23.721,10.674-23.721,23.958S478.451,308.707,491.498,308.707z"/>
			<path fill="#C7C7C7" d="M417.014,369.433h-215.86l12.335-38.665h6.642l1.423,9.963h171.028l0.949-9.963h7.828L417.014,369.433z"
				/>
			<path opacity="0.2" enable-background="new    " d="M417.014,369.433h-215.86l12.335-38.665h6.642l1.423,9.963h171.028
				l0.949-9.963h7.828L417.014,369.433z"/>
			<path fill="#C7C7C7" d="M432.195,377.972H181.702l-6.167-15.893h261.879L432.195,377.972z"/>
			<path fill="#C7C7C7" d="M424.13,387.935H187.87l-6.167-9.963h250.493L424.13,387.935z"/>
			<path fill="#C7C7C7" d="M424.13,385.088H187.87v11.386h236.26L424.13,385.088L424.13,385.088z"/>
			<path fill="#C7C7C7" d="M442.633,414.977H173.637v42.698h268.995V414.977z"/>
			<path opacity="0.2" enable-background="new    " d="M442.633,414.977H173.637v42.698h268.995V414.977z"/>
			<path fill="#C7C7C7" d="M612,558.963l-612-4.27l17.553-101.288h581.163L612,558.963z"/>
			<g opacity="0.2">
				<path opacity="0.2" enable-background="new    " d="M173.4,527.651h7.828c2.372,0,4.744,0.949,6.642,2.846
					c1.66,1.66,2.847,4.27,2.847,6.642v18.977h-26.805V537.14c0-2.609,0.949-4.981,2.846-6.642
					C168.419,528.6,170.791,527.651,173.4,527.651z"/>
				<path opacity="0.2" enable-background="new    " d="M230.567,527.651h7.828c2.372,0,4.744,0.949,6.642,2.846
					c1.66,1.66,2.846,4.27,2.846,6.642v18.977h-26.567V537.14c0-2.609,0.949-4.981,2.846-6.642
					C225.823,528.6,228.195,527.651,230.567,527.651z"/>
				<path opacity="0.2" enable-background="new    " d="M302.205,527.651h7.828c2.372,0,4.744,0.949,6.642,2.846
					c1.66,1.66,2.846,4.27,2.846,6.642v18.977h-26.567V537.14c0-2.609,0.949-4.981,2.846-6.642
					C297.223,528.6,299.595,527.651,302.205,527.651z"/>
				<path opacity="0.2" enable-background="new    " d="M376.214,527.651h7.828c2.372,0,4.744,0.949,6.642,2.846
					c1.66,1.66,2.846,4.27,2.846,6.642v18.977h-26.567V537.14c0-2.609,0.949-4.981,2.847-6.642
					C371.233,528.6,373.605,527.651,376.214,527.651z"/>
				<path opacity="0.2" enable-background="new    " d="M435.279,527.651h7.828c2.372,0,4.744,0.949,6.642,2.846
					c1.66,1.66,2.846,4.27,2.846,6.642v18.977h-26.567V537.14c0-2.609,0.949-4.981,2.846-6.642
					C430.298,528.6,432.67,527.651,435.279,527.651z"/>
			</g>
			<path opacity="0.2" enable-background="new    " d="M319.995,457.674h-28.228v57.167h28.228V457.674z"/>
			<path fill="#C7C7C7" d="M178.144,414.977h-4.507v42.698h4.507V414.977z"/>
			<path fill="#C7C7C7" d="M203.763,414.977h-4.507v42.698h4.507V414.977z"/>
			<path fill="#C7C7C7" d="M231.991,414.977h-4.507v42.698h4.507V414.977z"/>
			<path fill="#C7C7C7" d="M259.27,414.977h-4.507v42.698h4.507V414.977z"/>
			<path fill="#C7C7C7" d="M289.158,414.977h-4.507v42.698h4.507V414.977z"/>
			<path fill="#C7C7C7" d="M329.721,414.977h-4.507v42.698h4.507V414.977z"/>
			<path fill="#C7C7C7" d="M357.237,414.977h-4.507v42.698h4.507V414.977z"/>
			<path fill="#C7C7C7" d="M388.074,414.977h-4.507v42.698h4.507V414.977z"/>
			<path fill="#C7C7C7" d="M414.405,414.977h-4.507v42.698h4.507V414.977z"/>
			<path fill="#C7C7C7" d="M442.633,414.977h-4.507v42.698h4.507V414.977z"/>
			<path fill="#C7C7C7" d="M442.633,417.823H173.637l-15.893-14.233h299.833L442.633,417.823z"/>
			<path fill="#C7C7C7" d="M184.312,417.823h-10.674v5.693h10.674V417.823z"/>
			<path fill="#C7C7C7" d="M207.321,417.823h-10.674v5.693h10.674V417.823z"/>
			<path fill="#C7C7C7" d="M234.6,417.823h-10.674v5.693H234.6V417.823z"/>
			<path fill="#C7C7C7" d="M262.828,417.823h-10.674v5.693h10.674V417.823z"/>
			<path fill="#C7C7C7" d="M292.716,417.823h-10.437v5.693h10.674v-5.693H292.716z"/>
			<path fill="#C7C7C7" d="M332.567,417.823h-10.674v5.693h10.674V417.823z"/>
			<path fill="#C7C7C7" d="M360.558,417.823h-10.674v5.693h10.674V417.823z"/>
			<path fill="#C7C7C7" d="M391.633,417.823h-10.674v5.693h10.674V417.823z"/>
			<path fill="#C7C7C7" d="M417.963,417.823h-10.674v5.693h10.674V417.823z"/>
			<path fill="#C7C7C7" d="M442.633,417.823h-10.674v5.693h10.674V417.823z"/>
			<path fill="#C7C7C7" d="M459.474,403.591H157.033l-3.558-9.963h308.609L459.474,403.591z"/>
			<path opacity="0.2" enable-background="new    " d="M459.474,403.591H157.033l-3.558-9.963h308.609L459.474,403.591z"/>
			<path fill="#C7C7C7" d="M306,400.744c3.795,0,7.116-5.219,7.116-11.386s-3.084-11.386-7.116-11.386
				c-4.033,0-7.116,5.219-7.116,11.386S302.205,400.744,306,400.744z"/>
			<path opacity="0.2" enable-background="new    " d="M306,400.744c3.795,0,7.116-5.219,7.116-11.386s-3.084-11.386-7.116-11.386
				c-4.033,0-7.116,5.219-7.116,11.386S302.205,400.744,306,400.744z"/>
			<path fill="#C7C7C7" d="M306,396.474c2.372,0,4.507-3.084,4.507-7.116c0-4.033-1.898-7.116-4.507-7.116
				c-2.372,0-4.507,3.084-4.507,7.116C301.493,393.154,303.628,396.474,306,396.474z"/>
			
				<linearGradient id="SVGID_1_" gradientUnits="userSpaceOnUse" x1="125.8626" y1="800.7487" x2="125.8626" y2="685.8003" gradientTransform="matrix(2.3721 0 0 2.3721 7.6539 -1285.3669)">
				<stop  offset="0" style="stop-color:#808080;stop-opacity:0.25"/>
				<stop  offset="0.54" style="stop-color:#808080;stop-opacity:0.12"/>
				<stop  offset="1" style="stop-color:#808080;stop-opacity:0.1"/>
			</linearGradient>
			<path fill="url(#SVGID_1_)" d="M409.186,553.981l-30.363-23.484c0,0-2.372-9.726-3.321-16.605
				c-0.949-6.879-2.372-36.293-2.372-36.293c0.712-2.609,1.186-5.219,1.423-7.828c0.237,0,0.712-0.237,0.949-0.237
				c2.372-0.474,4.27-1.66,6.167-3.321c1.66-1.66,3.084-3.558,4.033-5.693c3.084-7.828-0.949-17.079-5.93-23.247
				s-11.386-11.149-14.707-18.977c-4.033-9.488-2.609-20.874-4.744-31.312c-0.237-1.423-0.712-2.846-1.66-4.033
				c-1.423-1.66-3.321-1.898-5.219-2.609c-5.693-2.135-10.2-7.828-13.521-13.758c-5.456-9.488-11.149-24.195-22.298-25.144
				c-4.27-0.237-8.54,1.186-12.809,1.186c-6.642,0-13.047,0-19.451,0.949c-2.372,0.237-4.744,0.712-6.642,2.372
				c-6.642,5.219-3.558,19.451-9.963,25.144c-1.898,1.66-4.27,2.372-6.405,3.558c-8.065,4.507-11.623,16.13-11.149,26.805
				c0.237,4.981,1.186,10.2,4.033,13.758c2.372,2.846,5.456,4.507,7.591,7.591c3.558,4.981,3.084,11.386,2.609,18.028
				c-4.507,1.898-8.302,4.27-9.488,6.642c-3.795,8.065-3.321,35.819-3.321,35.819s1.423,45.307-9.726,51l-41.986,29.414
				c0,0-29.651-26.33-37.005-10.674c-4.981,10.674,13.284,16.605,25.381,19.214c-7.591,5.456-11.86,15.656-8.302,22.298
				c5.693,10.674,21.112,18.028,21.112,18.028s59.54,2.846,87.056-3.321h0.474c11.623,2.135,28.465,4.507,41.986,3.084
				c0.237,0.712,0.474,0.949,0.474,0.949s86.344,7.354,102-22.535c8.065-15.419-0.237-22.535-10.437-25.619
				c11.149-0.949,23.958-4.033,25.619-13.758C451.409,533.819,409.186,553.981,409.186,553.981z M400.646,563.233
				c-15.893,5.93-28.702,6.167-35.344,5.693c-3.321-7.353-17.316-39.614-17.791-60.963c0-4.744,0.949-9.014,2.846-12.098
				c4.033-6.879,5.219-12.098,5.219-16.13c0-0.237,0-0.474,0-0.949c0-1.186,0-2.372-0.237-3.795c0.712,1.66,0.949,3.558,0.474,5.219
				c-1.423,7.591,2.372,56.93,2.372,56.93s3.084,11.149,9.726,14.233L400.646,563.233z M245.749,559.674l15.181-9.726
				c0,0,7.116-3.321,7.828-11.86l4.981-39.851c0.237,1.66,0.712,3.321,1.423,4.981c0.949,2.609,1.186,6.405,1.423,10.912
				c-0.237,22.298-7.591,59.065-7.591,59.065l0,0v0.237h-0.474c-12.335-0.474-40.8-1.423-56.93-3.795L245.749,559.674z
				 M219.419,582.921L219.419,582.921h-3.795H219.419z"/>
			<path fill="#895674" d="M338.735,370.619c3.321,5.693,7.353,11.386,13.047,13.284c1.66,0.712,3.795,0.949,4.981,2.609
				c0.712,1.186,1.423,2.609,1.423,4.033c2.135,10.2,0.712,21.349,4.744,30.6c3.321,7.591,9.488,12.335,14.233,18.502
				c4.981,5.93,8.777,15.181,5.693,22.772c-0.949,2.135-2.135,4.033-3.795,5.456c-1.66,1.423-3.795,2.609-5.93,3.084
				c-4.033,1.186-8.302,0.712-12.572,0c-5.456-0.949-11.149-2.609-15.656-6.405c-7.828-6.642-11.386-18.265-15.419-28.702
				c-1.898-4.981-4.507-9.963-8.777-11.86c-4.981-1.898-10.437,1.423-13.521,6.167c-3.084,4.981-4.507,11.149-6.167,17.079
				c-1.66,6.642-4.033,13.758-8.54,18.028c-1.898,1.898-4.507,3.321-7.116,3.795c-2.609,0.474-5.456,0.237-8.065-0.712
				c-4.981-2.135-9.014-7.591-10.2-13.995c-1.898-9.726,2.609-21.349-2.846-29.177c-2.135-3.084-5.219-4.507-7.353-7.353
				c-2.846-3.558-3.795-8.54-4.033-13.284c-0.474-10.2,3.084-21.823,10.912-26.093c2.135-1.186,4.507-1.66,6.405-3.321
				c6.167-5.693,3.321-19.451,9.726-24.67c1.898-1.423,4.27-1.898,6.405-2.372c6.405-0.949,12.572-0.949,18.977-0.949
				c4.033,0,8.302-1.423,12.335-1.186C327.823,346.898,333.279,361.13,338.735,370.619z"/>
			<path fill="#575988" d="M222.028,579.126l2.372,28.465l166.521-0.949l-3.084-31.312l-56.219-6.642l-98.679,5.93L222.028,579.126z
				"/>
			<path fill="#1A2E53" d="M222.028,579.126l2.372,28.465l166.521-0.949l-3.084-31.312l-56.219-6.642l-98.679,5.93L222.028,579.126z
				"/>
			<path fill="#F7C4A7" d="M331.619,599.051l-55.507,5.219c0,0,37.953,9.726,60.014,4.981L331.619,599.051z"/>
			<path opacity="0.1" enable-background="new    " d="M331.619,599.051l-55.507,5.219c0,0,37.953,9.726,60.014,4.981
				L331.619,599.051z"/>
			<path fill="#F7C4A7" d="M289.395,397.898c0,0,10.912,28.94-5.219,41.749c-16.13,12.809-2.847,49.102-2.847,49.102l61.674-2.846
				c0,0,6.167-40.563,2.846-49.34c0,0-14.707,4.27-18.028-4.744c-3.321-9.014-5.693-33.921-5.693-33.921H289.395z"/>
			<path fill="#114471" d="M275.163,572.721c0,0-52.186-1.186-67.367-4.981c-15.419-3.795-28.465,14.47-23.009,25.144
				c5.456,10.437,20.4,17.791,20.4,17.791s77.567,3.795,94.409-6.879c0,0,6.405-18.502,0-22.06H218.47l59.54-1.186L275.163,572.721z
				"/>
			<path fill="#114471" d="M357.949,567.265c0,0,17.553,3.795,41.512-5.693c0,0,45.07-1.423,29.888,27.753
				c-15.181,29.177-98.442,22.06-98.442,22.06s-4.981-10.674,0-13.521c4.981-2.846,48.153-21.349,61.437-20.4l-37.242,7.354
				L357.949,567.265z"/>
			<path opacity="0.1" enable-background="new    " d="M324.502,411.656c-0.949-6.879-1.423-12.335-1.423-12.335h-32.972
				c1.423,4.27,2.609,9.014,3.084,13.521c4.744,3.321,10.2,4.981,15.893,4.744C314.54,417.349,319.995,415.451,324.502,411.656z"/>
			<path fill="#F7C4A7" d="M307.423,416.163c14.233,0,25.856-11.86,25.856-26.33s-11.623-26.33-25.856-26.33
				c-14.233,0-25.856,11.86-25.856,26.33C281.33,404.302,292.953,416.163,307.423,416.163z"/>
			<path fill="#F7C4A7" d="M292.242,435.614c0,0-31.074,5.93-34.87,13.758c-3.795,7.828-3.321,34.87-3.321,34.87
				s1.423,44.121-9.488,49.814L204,562.758c0,0-28.702-25.619-35.819-10.437c-7.116,14.944,33.921,20.637,33.921,20.637
				l45.781-13.758l14.707-9.488c0,0,6.879-3.321,7.591-11.386l6.167-49.34l24.433-7.116h39.614l5.219-15.419
				c0,0,9.726,8.065,8.302,15.419c-1.423,7.354,2.372,55.507,2.372,55.507s3.084,10.674,9.488,13.758l36.767,13.521
				c0,0,38.902,3.795,41.512-13.284c2.609-17.316-38.191,2.372-38.191,2.372l-29.177-23.009c0,0-2.372-9.488-3.321-16.367
				c-0.949-6.642-2.372-35.344-2.372-35.344s9.014-30.126-17.079-35.344l-33.447-10.437L292.242,435.614z"/>
			<path opacity="0.1" enable-background="new    " d="M271.367,441.544l4.744,32.498c0,0-4.981,14.944,0,29.888
				c4.981,14.707-6.167,69.977-6.167,69.977s58.354,18.977,93.935-2.846c0,0-26.093-55.981-15.181-74.484
				c11.149-18.74,0.237-25.856,0.237-25.856l1.66-34.158l-8.065-2.372l-4.744,33.921c0,0-32.498,23.009-56.693,2.847l-5.219-36.767
				L271.367,441.544z"/>
			<path opacity="0.07" fill="#FFFFFF" enable-background="new    " d="M304.814,480.209c-2.609-4.033-6.405-7.116-10.912-8.302
				c-4.507-1.186-9.488-0.949-13.758,1.423C287.972,479.023,296.749,480.684,304.814,480.209z"/>
			<path opacity="0.07" fill="#FFFFFF" enable-background="new    " d="M318.335,476.651c2.609-4.033,6.405-7.116,10.912-8.302
				c4.507-1.423,9.488-0.949,13.758,1.423C335.177,475.465,326.4,477.126,318.335,476.651z"/>
			<path opacity="0.1" enable-background="new    " d="M271.367,441.544l4.744,30.6c0,0-4.981,14.944,0,29.888
				c4.981,14.707-6.167,69.977-6.167,69.977s58.354,18.977,93.935-2.846c0,0-26.093-55.981-15.181-74.484
				c11.149-18.74,0.237-25.856,0.237-25.856l1.66-34.395l-8.065-2.372l-4.744,33.921c0,0-32.498,23.009-56.693,2.847l-5.219-36.767
				L271.367,441.544z"/>
			<path fill="#FF7F50" fill-opacity="0.97" d="M271.13,441.307l4.981,31.549c0,0-4.981,14.944,0,29.888
				c4.981,14.707-6.167,69.977-6.167,69.977s58.354,18.977,93.935-2.847c0,0-26.093-55.981-15.181-74.484
				c11.149-18.74,0.237-25.856,0.237-25.856l1.66-34.395l-8.065-2.372l-4.744,33.921c0,0-32.498,23.009-56.693,2.846l-5.219-36.767
				L271.13,441.307z"/>
			<path fill="#F7C4A7" d="M294.851,584.581l12.335-1.66c0,0,14.233-18.502,24.195-4.27c0,0,4.27,9.014,9.488,10.674
				c3.558,1.186,7.116,1.898,10.912,2.372l-20.874,5.93c0,0-9.251,5.456-18.977,4.033c-5.693-0.949-11.623-0.474-17.079,1.423
				V584.581z"/>
			<path opacity="0.1" enable-background="new    " d="M281.33,506.54c0,0,22.06,3.321,25.856-2.609L281.33,506.54z"/>
			<path opacity="0.1" enable-background="new    " d="M323.316,502.507c0,0,4.27,4.27,21.112,1.186L323.316,502.507z"/>
			<path opacity="0.1" enable-background="new    " d="M280.144,435.851c0,0,16.367,2.372,19.451,0.949L280.144,435.851z"/>
			<path opacity="0.1" enable-background="new    " d="M315.963,435.851c0,0,16.367,2.372,19.451,0.949L315.963,435.851z"/>
			<path opacity="0.1" enable-background="new    " d="M296.749,582.684c0,0,4.507,21.349,0,22.06
				c-4.507,0.712-10.912-3.558-10.912-4.033c0-0.474,2.847-13.995,2.847-13.995L296.749,582.684z"/>
			<path fill="#1A2E53" d="M296.274,582.684c0,0,4.507,21.349,0,22.06c-4.507,0.712-10.912-3.558-10.912-4.033
				c0-0.474,2.846-13.995,2.846-13.995L296.274,582.684z"/>
			<path opacity="0.1" enable-background="new    " d="M274.451,432.767c-1.898,4.744-2.609,10.2-0.474,14.707
				c1.66,3.558,4.744,6.405,5.219,10.2c0.712,4.744-2.847,9.726-1.423,14.233c0.474,1.898,1.66,3.321,2.846,4.744
				c3.558,4.27,8.302,8.54,13.995,8.065c0.949-8.777-6.642-17.079-4.033-25.381c0.949-3.084,2.846-5.456,4.033-8.302
				c2.135-4.744,1.66-10.2,0.949-15.181c-1.186-7.353-3.795-16.605-11.149-19.926c-3.321-1.66-8.065-1.66-9.251,2.609
				c-0.712,2.372,0.949,4.507,1.186,6.879C276.586,428.023,275.4,430.158,274.451,432.767z"/>
			<path fill="#895674" d="M274.451,432.056c-1.898,4.744-2.609,10.2-0.474,14.707c1.66,3.558,4.744,6.405,5.219,10.2
				c0.712,4.744-2.847,9.726-1.423,14.233c0.474,1.898,1.66,3.321,2.846,4.744c3.558,4.27,8.302,8.54,13.995,8.065
				c0.949-8.777-6.642-17.079-4.033-25.381c0.949-3.084,2.846-5.456,4.033-8.302c2.135-4.744,1.66-10.2,0.949-15.181
				c-1.186-7.353-3.795-16.605-11.149-19.926c-3.321-1.66-8.065-1.66-9.251,2.609c-0.712,2.372,0.949,4.507,1.186,6.879
				C276.586,427.312,275.4,429.447,274.451,432.056z"/>
			<path opacity="0.1" enable-background="new    " d="M276.112,376.786c0,0,34.395-4.744,35.344,2.372
				c0.949,7.116,31.312,18.977,31.312,18.977l-7.591-18.977l-13.995-23.484c0,0-25.381-1.898-26.567,0
				c-1.186,1.898-14.707,8.065-14.707,8.065L276.112,376.786z"/>
			<path fill="#895674" d="M276.112,376.312c0,0,34.395-4.744,35.344,2.372c0.949,7.116,31.312,18.977,31.312,18.977l-7.591-18.977
				L321.181,355.2c0,0-25.381-1.898-26.567,0c-1.186,1.898-14.707,8.065-14.707,8.065L276.112,376.312z"/>
			<path opacity="0.1" enable-background="new    " d="M336.126,427.549c1.66,2.135,2.846,4.507,3.558,7.116
				c0.474,2.372,0.474,4.981,1.186,7.591c1.186,5.219,4.507,9.726,8.065,13.758c1.186,1.423,2.609,2.609,4.27,3.558
				c1.66,0.712,3.795,0.949,5.219,0c-1.423-1.186-2.135-3.084-2.846-4.744c-0.712-2.609-0.949-5.219-0.949-7.828
				c0.237-4.507,1.423-9.014-0.474-13.047c-0.949-2.372-3.084-4.033-4.981-5.693c-1.423-1.186-2.847-2.135-4.507-2.847
				c-2.846-1.423-6.405-2.135-9.488-2.372C331.144,421.856,334.702,425.888,336.126,427.549z"/>
			<path fill="#895674" d="M336.126,426.837c1.66,2.135,2.846,4.507,3.558,7.116c0.474,2.372,0.474,4.981,1.186,7.591
				c1.186,5.219,4.507,9.726,8.065,13.758c1.186,1.423,2.609,2.609,4.27,3.558c1.66,0.712,3.795,0.949,5.219,0
				c-1.423-1.186-2.135-3.084-2.846-4.744c-0.712-2.609-0.949-5.219-0.949-7.828c0.237-4.507,1.423-9.014-0.474-13.047
				c-0.949-2.372-3.084-4.033-4.981-5.693c-1.423-1.186-2.847-2.135-4.507-2.846c-2.846-1.423-6.405-2.135-9.488-2.372
				C331.144,421.144,334.702,425.177,336.126,426.837z"/>
			<path opacity="0.1" fill="#252223" enable-background="new    " d="M320.707,281.902h-4.27c0.474,0,0.712,0,1.186-0.237
				c0.474-0.237,0.712-0.474,0.949-0.712c0.237-0.237,0.474-0.712,0.712-0.949c0.237-0.474,0.237-0.712,0.237-1.186
				s0-0.712-0.237-1.186s-0.474-0.712-0.712-0.949s-0.712-0.474-0.949-0.712c-0.474-0.237-0.712-0.237-1.186-0.237h-34.633
				c-0.712,0-1.423,0.474-2.135,0.949c-0.474,0.474-0.712,1.423-0.712,2.135c0,0.712,0.237,1.423,0.712,2.135
				c0.474,0.474,1.186,0.949,2.135,0.949h4.27c-0.474,0-0.712,0-1.186,0.237c-0.474,0.237-0.712,0.474-0.949,0.712
				c-0.237,0.237-0.474,0.712-0.712,0.949c-0.237,0.474-0.237,0.712-0.237,1.186c0,0.474,0,0.712,0.237,1.186
				c0.237,0.474,0.474,0.712,0.712,0.949s0.712,0.474,0.949,0.712c0.474,0.237,0.712,0.237,1.186,0.237h-5.93
				c-0.474,0-0.712,0-1.186,0.237c-0.474,0.237-0.712,0.474-0.949,0.712c-0.237,0.237-0.474,0.712-0.712,0.949
				c-0.237,0.474-0.237,0.712-0.237,1.186s0,0.712,0.237,1.186c0.237,0.474,0.474,0.712,0.712,0.949s0.712,0.474,0.949,0.712
				c0.474,0.237,0.712,0.237,1.186,0.237h34.633c0.474,0,0.712,0,1.186-0.237c0.474-0.237,0.712-0.474,0.949-0.712
				s0.474-0.712,0.712-0.949c0.237-0.474,0.237-0.712,0.237-1.186s0-0.712-0.237-1.186c-0.237-0.474-0.474-0.712-0.712-0.949
				c-0.237-0.237-0.712-0.474-0.949-0.712c-0.474-0.237-0.712-0.237-1.186-0.237h5.93c0.474,0,0.712,0,1.186-0.237
				c0.474-0.237,0.712-0.474,0.949-0.712c0.237-0.237,0.474-0.712,0.712-0.949c0.237-0.474,0.237-0.712,0.237-1.186
				c0-0.474,0-0.712-0.237-1.186s-0.474-0.712-0.712-0.949c-0.237-0.237-0.712-0.474-0.949-0.712
				C321.419,281.902,321.181,281.902,320.707,281.902z"/>
			<path opacity="0.1" fill="#252223" enable-background="new    " d="M488.414,281.902h-4.27c0.474,0,0.712,0,1.186-0.237
				c0.474-0.237,0.712-0.474,0.949-0.712c0.237-0.237,0.474-0.712,0.712-0.949c0.237-0.474,0.237-0.712,0.237-1.186
				s0-0.712-0.237-1.186c-0.237-0.474-0.474-0.712-0.712-0.949s-0.712-0.474-0.949-0.712c-0.474-0.237-0.712-0.237-1.186-0.237
				h-34.633c-0.712,0-1.423,0.474-2.135,0.949c-0.474,0.474-0.712,1.423-0.712,2.135c0,0.712,0.237,1.423,0.712,2.135
				c0.474,0.474,1.186,0.949,2.135,0.949h4.27c-0.474,0-0.712,0-1.186,0.237c-0.474,0.237-0.712,0.474-0.949,0.712
				c-0.237,0.237-0.474,0.712-0.712,0.949c-0.237,0.474-0.237,0.712-0.237,1.186c0,0.474,0,0.712,0.237,1.186
				c0.237,0.474,0.474,0.712,0.712,0.949s0.712,0.474,0.949,0.712c0.474,0.237,0.712,0.237,1.186,0.237h-5.93
				c-0.474,0-0.712,0-1.186,0.237c-0.474,0.237-0.712,0.474-0.949,0.712s-0.474,0.712-0.712,0.949
				c-0.237,0.474-0.237,0.712-0.237,1.186s0,0.712,0.237,1.186c0.237,0.474,0.474,0.712,0.712,0.949
				c0.237,0.237,0.712,0.474,0.949,0.712c0.237,0.237,0.712,0.237,1.186,0.237h34.633c0.474,0,0.712,0,1.186-0.237
				c0.474-0.237,0.712-0.474,0.949-0.712s0.474-0.712,0.712-0.949c0.237-0.474,0.237-0.712,0.237-1.186s0-0.712-0.237-1.186
				c-0.237-0.474-0.474-0.712-0.712-0.949s-0.712-0.474-0.949-0.712c-0.474-0.237-0.712-0.237-1.186-0.237h5.93
				c0.474,0,0.712,0,1.186-0.237c0.474-0.237,0.712-0.474,0.949-0.712c0.237-0.237,0.474-0.712,0.712-0.949
				c0.237-0.474,0.237-0.712,0.237-1.186c0-0.474,0-0.712-0.237-1.186c-0.237-0.474-0.474-0.712-0.712-0.949
				c-0.237-0.237-0.712-0.474-0.949-0.712C489.363,281.902,488.888,281.902,488.414,281.902z"/>
			<path opacity="0.1" fill="#252223" enable-background="new    " d="M131.177,359.47h-4.27c0.474,0,0.712,0,1.186-0.237
				c0.474-0.237,0.712-0.474,0.949-0.712c0.237-0.237,0.474-0.712,0.712-0.949c0.237-0.474,0.237-0.712,0.237-1.186
				c0-0.474,0-0.712-0.237-1.186c-0.237-0.474-0.474-0.712-0.712-0.949c-0.237-0.237-0.712-0.474-0.949-0.712
				c-0.237-0.237-0.712-0.237-1.186-0.237H92.274c-0.712,0-1.423,0.474-2.135,0.949c-0.474,0.474-0.712,1.423-0.712,2.135
				s0.237,1.423,0.712,2.135c0.474,0.474,1.186,0.949,2.135,0.949h4.27c-0.712,0-1.423,0.474-2.135,0.949
				c-0.474,0.474-0.712,1.423-0.712,2.135s0.237,1.423,0.712,2.135c0.474,0.474,1.186,0.949,2.135,0.949h-5.93
				c-0.474,0-0.712,0-1.186,0.237c-0.474,0.237-0.712,0.474-0.949,0.712c-0.237,0.237-0.712,0.474-0.712,0.712
				c-0.237,0.474-0.237,0.712-0.237,1.186c0,0.474,0,0.712,0.237,1.186c0.237,0.474,0.474,0.712,0.712,0.949
				c0.237,0.237,0.712,0.474,0.949,0.712c0.474,0.237,0.712,0.237,1.186,0.237h34.633c0.474,0,0.712,0,1.186-0.237
				c0.474-0.237,0.712-0.474,0.949-0.712c0.237-0.237,0.474-0.712,0.712-0.949c0.237-0.474,0.237-0.712,0.237-1.186
				c0-0.474,0-0.712-0.237-1.186c-0.237-0.474-0.474-0.712-0.712-0.949c-0.237-0.237-0.712-0.474-0.949-0.712
				c-0.474-0.237-0.712-0.237-1.186-0.237h5.93c0.712,0,1.423-0.474,2.135-0.949c0.474-0.474,0.712-1.423,0.712-2.135
				s-0.237-1.423-0.712-2.135C132.6,359.707,131.888,359.47,131.177,359.47z"/>
			<path fill="none" stroke="#37B079" stroke-width="2" stroke-miterlimit="10" d="M490.074,603.084c0,0-15.419-52.66,2.846-91.563
				c7.591-16.367,10.2-34.633,6.642-52.186c-1.66-8.302-4.033-16.605-7.354-24.67"/>
			<path fill="#C7C7C7" d="M503.595,409.995c0,6.405-11.623,25.144-11.623,25.144s-11.623-18.74-11.623-25.144
				c0-1.66,0.237-3.084,0.712-4.507c0.474-1.423,1.423-2.846,2.372-3.795c1.186-1.186,2.372-1.898,3.795-2.609
				c1.423-0.712,2.846-0.949,4.507-0.949c1.423,0,3.084,0.237,4.507,0.949c1.423,0.712,2.609,1.423,3.795,2.609
				c1.186,1.186,1.898,2.372,2.372,3.795C503.358,406.912,503.595,408.572,503.595,409.995L503.595,409.995z"/>
			<path fill="#C7C7C7" d="M522.572,445.814c-3.558,5.456-23.247,14.707-23.247,14.707s0.474-22.06,3.795-27.516
				c1.66-2.609,4.27-4.27,7.353-4.981c2.846-0.712,5.93,0,8.54,1.66s4.27,4.27,4.981,7.116
				C524.707,440.121,524.233,443.205,522.572,445.814L522.572,445.814z"/>
			<path fill="#C7C7C7" d="M521.86,507.014c-5.693,2.846-27.516,0.949-27.516,0.949s11.386-18.977,17.079-21.823
				c1.423-0.712,2.846-1.186,4.27-1.423c1.423-0.237,3.084,0,4.507,0.474c1.423,0.474,2.846,1.186,4.033,2.135
				c1.186,0.949,2.135,2.135,2.847,3.558c0.712,1.423,1.186,2.847,1.186,4.507c0,1.66,0,3.084-0.474,4.507s-1.186,2.846-2.372,4.033
				C524.47,505.353,523.284,506.302,521.86,507.014L521.86,507.014z"/>
			<path fill="#C7C7C7" d="M510.949,553.27c-5.219,3.795-26.805,5.693-26.805,5.693s8.065-20.637,13.047-24.433
				c1.186-0.949,2.609-1.66,4.033-1.898c1.423-0.474,3.084-0.474,4.507-0.237c1.423,0.237,2.847,0.712,4.27,1.423
				c1.423,0.712,2.372,1.898,3.321,3.084c0.949,1.186,1.66,2.609,1.898,4.27c0.474,1.423,0.474,3.084,0.237,4.507
				c-0.237,1.423-0.712,3.084-1.66,4.27C513.321,551.135,512.135,552.321,510.949,553.27z"/>
			<path fill="#C7C7C7" d="M475.13,461.944c4.507,4.507,25.856,9.251,25.856,9.251s-5.219-21.349-9.726-25.856
				c-2.135-2.135-5.219-3.084-8.065-3.084c-3.084,0-5.93,1.423-8.065,3.558c-2.135,2.135-3.321,5.219-3.321,8.302
				C472.047,456.726,473.233,459.809,475.13,461.944L475.13,461.944z"/>
			<path fill="#C7C7C7" d="M463.033,516.028c5.693,2.846,27.516,0.949,27.516,0.949S479.163,498,473.47,495.154
				c-1.423-0.712-2.846-1.186-4.27-1.423c-1.423-0.237-3.084,0-4.507,0.474c-1.423,0.474-2.846,1.186-4.033,2.135
				c-1.186,0.949-2.135,2.135-2.847,3.558c-0.712,1.423-1.186,2.846-1.186,4.507s0,3.084,0.474,4.507
				c0.474,1.423,1.186,2.846,2.372,4.033C460.423,514.367,461.846,515.316,463.033,516.028L463.033,516.028z"/>
			<path fill="#C7C7C7" d="M458.526,570.349c5.219,3.795,26.805,5.693,26.805,5.693s-8.065-20.637-13.047-24.433
				c-1.186-0.949-2.609-1.66-4.033-1.898c-1.423-0.474-3.084-0.474-4.507-0.237c-1.423,0.237-2.846,0.712-4.27,1.423
				c-1.423,0.712-2.372,1.898-3.321,3.084c-0.949,1.186-1.66,2.609-1.898,4.27c-0.474,1.423-0.474,3.084-0.237,4.507
				c0.237,1.423,0.712,3.084,1.66,4.27C456.153,568.214,457.34,569.4,458.526,570.349L458.526,570.349z"/>
			<path fill="#FF7F50" d="M503.595,409.995c0,6.405-11.623,25.144-11.623,25.144s-11.623-18.74-11.623-25.144
				c0-1.66,0.237-3.084,0.712-4.507c0.474-1.423,1.423-2.846,2.372-3.795c1.186-1.186,2.372-1.898,3.795-2.609
				c1.423-0.712,2.846-0.949,4.507-0.949c1.423,0,3.084,0.237,4.507,0.949c1.423,0.712,2.609,1.423,3.795,2.609
				c1.186,1.186,1.898,2.372,2.372,3.795C503.358,406.912,503.595,408.572,503.595,409.995L503.595,409.995z"/>
			<path fill="#FF7F50" d="M522.572,445.814c-3.558,5.456-23.247,14.707-23.247,14.707s0.474-22.06,3.795-27.516
				c1.66-2.609,4.27-4.27,7.353-4.981c2.846-0.712,5.93,0,8.54,1.66s4.27,4.27,4.981,7.116
				C524.707,440.121,524.233,443.205,522.572,445.814L522.572,445.814z"/>
			<path fill="#FF7F50" d="M521.86,507.014c-5.693,2.846-27.516,0.949-27.516,0.949s11.386-18.977,17.079-21.823
				c1.423-0.712,2.846-1.186,4.27-1.423c1.423-0.237,3.084,0,4.507,0.474c1.423,0.474,2.846,1.186,4.033,2.135
				c1.186,0.949,2.135,2.135,2.847,3.558c0.712,1.423,1.186,2.847,1.186,4.507c0,1.66,0,3.084-0.474,4.507s-1.186,2.846-2.372,4.033
				C524.47,505.353,523.284,506.302,521.86,507.014L521.86,507.014z"/>
			<path fill="#FF7F50" d="M510.949,553.27c-5.219,3.795-26.805,5.693-26.805,5.693s8.065-20.637,13.047-24.433
				c1.186-0.949,2.609-1.66,4.033-1.898c1.423-0.474,3.084-0.474,4.507-0.237c1.423,0.237,2.847,0.712,4.27,1.423
				c1.423,0.712,2.372,1.898,3.321,3.084c0.949,1.186,1.66,2.609,1.898,4.27c0.474,1.423,0.474,3.084,0.237,4.507
				c-0.237,1.423-0.712,3.084-1.66,4.27C513.321,551.135,512.135,552.321,510.949,553.27z"/>
			<path fill="#FF7F50" d="M475.13,461.944c4.507,4.507,25.856,9.251,25.856,9.251s-5.219-21.349-9.726-25.856
				c-2.135-2.135-5.219-3.084-8.065-3.084c-3.084,0-5.93,1.423-8.065,3.558c-2.135,2.135-3.321,5.219-3.321,8.302
				C472.047,456.726,473.233,459.809,475.13,461.944L475.13,461.944z"/>
			<path fill="#FF7F50" d="M463.033,516.028c5.693,2.846,27.516,0.949,27.516,0.949S479.163,498,473.47,495.154
				c-1.423-0.712-2.846-1.186-4.27-1.423c-1.423-0.237-3.084,0-4.507,0.474c-1.423,0.474-2.846,1.186-4.033,2.135
				c-1.186,0.949-2.135,2.135-2.847,3.558c-0.712,1.423-1.186,2.846-1.186,4.507s0,3.084,0.474,4.507
				c0.474,1.423,1.186,2.846,2.372,4.033C460.423,514.367,461.846,515.316,463.033,516.028L463.033,516.028z"/>
			<path fill="#FF7F50" d="M458.526,570.349c5.219,3.795,26.805,5.693,26.805,5.693s-8.065-20.637-13.047-24.433
				c-1.186-0.949-2.609-1.66-4.033-1.898c-1.423-0.474-3.084-0.474-4.507-0.237c-1.423,0.237-2.846,0.712-4.27,1.423
				c-1.423,0.712-2.372,1.898-3.321,3.084c-0.949,1.186-1.66,2.609-1.898,4.27c-0.474,1.423-0.474,3.084-0.237,4.507
				c0.237,1.423,0.712,3.084,1.66,4.27C456.153,568.214,457.34,569.4,458.526,570.349L458.526,570.349z"/>
			<path fill="none" stroke="#37B079" stroke-width="2" stroke-miterlimit="10" d="M128.33,601.66c0,0-15.419-52.66,2.847-91.563
				c7.591-16.367,10.2-34.633,6.642-52.186c-1.66-8.302-4.033-16.605-7.353-24.67"/>
			<path fill="#C7C7C7" d="M142.088,408.809c0,6.405-11.623,25.144-11.623,25.144s-11.623-18.74-11.623-25.144
				c0-1.66,0.237-3.084,0.712-4.507c0.474-1.423,1.423-2.846,2.372-3.795c1.186-1.186,2.372-1.898,3.795-2.609
				c1.423-0.712,2.847-0.949,4.507-0.949c1.423,0,3.084,0.237,4.507,0.949c1.423,0.712,2.609,1.423,3.795,2.609
				c1.186,1.186,1.898,2.372,2.372,3.795C141.614,405.726,142.088,407.149,142.088,408.809L142.088,408.809z"/>
			<path fill="#C7C7C7" d="M161.065,444.628c-3.558,5.456-23.247,14.707-23.247,14.707s0.474-22.06,3.795-27.516
				c1.66-2.609,4.27-4.27,7.353-4.981c2.847-0.712,5.93,0,8.54,1.66s4.27,4.27,4.981,7.353
				C163.2,438.935,162.726,442.019,161.065,444.628L161.065,444.628z"/>
			<path fill="#C7C7C7" d="M160.353,505.828c-5.693,2.846-27.516,0.949-27.516,0.949s11.386-18.977,17.079-21.823
				c2.609-1.423,5.93-1.423,8.777-0.474c2.846,0.949,5.219,3.084,6.642,5.693c1.423,2.846,1.66,5.93,0.712,8.777
				C164.86,502.033,162.963,504.405,160.353,505.828L160.353,505.828z"/>
			<path fill="#C7C7C7" d="M149.442,552.084c-5.219,3.795-26.805,5.693-26.805,5.693s8.065-20.637,13.047-24.433
				c1.186-0.949,2.609-1.66,4.033-1.898c1.423-0.474,3.084-0.474,4.507-0.237c1.423,0.237,2.847,0.712,4.27,1.423
				c1.423,0.712,2.372,1.898,3.321,3.084s1.66,2.609,1.898,4.27c0.474,1.423,0.474,3.084,0.237,4.507
				c-0.237,1.423-0.712,3.084-1.66,4.27C151.577,549.949,150.628,551.135,149.442,552.084z"/>
			<path fill="#C7C7C7" d="M113.623,460.758c4.507,4.507,25.856,9.251,25.856,9.251s-5.219-21.349-9.726-25.856
				c-2.135-2.135-5.219-3.084-8.065-3.084c-3.084,0-5.93,1.423-8.065,3.558c-2.135,2.135-3.321,5.219-3.321,8.302
				C110.302,455.54,111.488,458.386,113.623,460.758L113.623,460.758z"/>
			<path fill="#C7C7C7" d="M101.526,514.842c5.693,2.846,27.516,0.949,27.516,0.949s-11.386-18.977-17.079-21.823
				c-2.609-1.423-5.93-1.423-8.777-0.474c-2.847,0.949-5.219,3.084-6.642,5.693c-1.423,2.846-1.66,5.93-0.712,8.777
				C96.781,511.047,98.916,513.419,101.526,514.842L101.526,514.842z"/>
			<path fill="#C7C7C7" d="M97.019,569.163c5.219,3.795,26.805,5.693,26.805,5.693s-8.065-20.637-13.047-24.433
				c-1.186-0.949-2.609-1.66-4.033-1.898c-1.423-0.474-3.084-0.474-4.507-0.237c-1.423,0.237-2.847,0.712-4.27,1.423
				c-1.423,0.712-2.372,1.898-3.321,3.084c-0.949,1.186-1.66,2.609-1.898,4.27c-0.474,1.423-0.474,3.084-0.237,4.507
				c0.237,1.423,0.712,3.084,1.66,4.27C94.647,567.028,95.595,568.214,97.019,569.163L97.019,569.163z"/>
			<path fill="#FF7F50" d="M142.088,408.809c0,6.405-11.623,25.144-11.623,25.144s-11.623-18.74-11.623-25.144
				c0-1.66,0.237-3.084,0.712-4.507c0.474-1.423,1.423-2.846,2.372-3.795c1.186-1.186,2.372-1.898,3.795-2.609
				c1.423-0.712,2.847-0.949,4.507-0.949c1.423,0,3.084,0.237,4.507,0.949c1.423,0.712,2.609,1.423,3.795,2.609
				c1.186,1.186,1.898,2.372,2.372,3.795C141.614,405.726,142.088,407.149,142.088,408.809L142.088,408.809z"/>
			<path fill="#FF7F50" d="M161.065,444.628c-3.558,5.456-23.247,14.707-23.247,14.707s0.474-22.06,3.795-27.516
				c1.66-2.609,4.27-4.27,7.353-4.981c2.847-0.712,5.93,0,8.54,1.66s4.27,4.27,4.981,7.353
				C163.2,438.935,162.726,442.019,161.065,444.628L161.065,444.628z"/>
			<path fill="#FF7F50" d="M160.353,505.828c-5.693,2.846-27.516,0.949-27.516,0.949s11.386-18.977,17.079-21.823
				c2.609-1.423,5.93-1.423,8.777-0.474c2.846,0.949,5.219,3.084,6.642,5.693c1.423,2.846,1.66,5.93,0.712,8.777
				C164.86,502.033,162.963,504.405,160.353,505.828L160.353,505.828z"/>
			<path fill="#FF7F50" d="M149.442,552.084c-5.219,3.795-26.805,5.693-26.805,5.693s8.065-20.637,13.047-24.433
				c1.186-0.949,2.609-1.66,4.033-1.898c1.423-0.474,3.084-0.474,4.507-0.237c1.423,0.237,2.847,0.712,4.27,1.423
				c1.423,0.712,2.372,1.898,3.321,3.084s1.66,2.609,1.898,4.27c0.474,1.423,0.474,3.084,0.237,4.507
				c-0.237,1.423-0.712,3.084-1.66,4.27C151.577,549.949,150.628,551.135,149.442,552.084z"/>
			<path fill="#FF7F50" d="M113.623,460.758c4.507,4.507,25.856,9.251,25.856,9.251s-5.219-21.349-9.726-25.856
				c-2.135-2.135-5.219-3.084-8.065-3.084c-3.084,0-5.93,1.423-8.065,3.558c-2.135,2.135-3.321,5.219-3.321,8.302
				C110.302,455.54,111.488,458.386,113.623,460.758L113.623,460.758z"/>
			<path fill="#FF7F50" d="M101.526,514.842c5.693,2.846,27.516,0.949,27.516,0.949s-11.386-18.977-17.079-21.823
				c-2.609-1.423-5.93-1.423-8.777-0.474c-2.847,0.949-5.219,3.084-6.642,5.693c-1.423,2.846-1.66,5.93-0.712,8.777
				C96.781,511.047,98.916,513.419,101.526,514.842L101.526,514.842z"/>
			<path fill="#FF7F50" d="M97.019,569.163c5.219,3.795,26.805,5.693,26.805,5.693s-8.065-20.637-13.047-24.433
				c-1.186-0.949-2.609-1.66-4.033-1.898c-1.423-0.474-3.084-0.474-4.507-0.237c-1.423,0.237-2.847,0.712-4.27,1.423
				c-1.423,0.712-2.372,1.898-3.321,3.084c-0.949,1.186-1.66,2.609-1.898,4.27c-0.474,1.423-0.474,3.084-0.237,4.507
				c0.237,1.423,0.712,3.084,1.66,4.27C94.647,567.028,95.595,568.214,97.019,569.163L97.019,569.163z"/>
		</g>
	</g>
</g>
</svg>
