<?xml version="1.0" encoding="utf-8"?>
<!-- Generator: Adobe Illustrator 17.0.0, SVG Export Plug-In . SVG Version: 6.00 Build 0)  -->
<!DOCTYPE svg PUBLIC "-//W3C//DTD SVG 1.1//EN" "http://www.w3.org/Graphics/SVG/1.1/DTD/svg11.dtd">
<svg version="1.1" id="Layer_1" xmlns="http://www.w3.org/2000/svg" xmlns:xlink="http://www.w3.org/1999/xlink" x="0px" y="0px"
	 width="2000px" height="1427px" viewBox="0 0 2000 1427" enable-background="new 0 0 2000 1427" xml:space="preserve">
<path fill="#F2F2F2" d="M865.226,215.115C708.8,159.6,507.447,269.184,493.614,452.103
	c-21.098,278.986-316.484,296.985-40.498,562.472c-38.998,128.994,76.496,23.999,76.496,23.999l476.198,222.093
	c0,0,236.612,113.891,388.682-88.599s231.566-734.963-107.417-874.456"/>
<g>
	<path fill="#FF825C" d="M723.202,1178.83c0,174.466-94.98,235.67-212.307,235.67c-2.795,0-5.334,0-8.125,0
		c-5.334,0-10.92-0.252-16.254-0.764c-105.9-8.125-188.18-72.376-188.432-234.655c0-168.116,196.813-380.171,211.544-395.913l0,0
		c0.508-0.508,0.764-0.764,0.764-0.764S723.202,1004.364,723.202,1178.83z"/>
	<path fill="#454554" d="M503.021,1388.086l77.71-118.595l-77.962,131.55l-0.256,13.459c-5.334,0-10.92-0.256-16.254-0.764
		l8.381-174.722v-1.271l0.256-0.256l0.764-16.506l-78.218-131.802l78.47,119.359l0.256,3.555l6.35-131.802l-67.042-136.372
		l67.806,113.009l6.35-273.764V782.4v0.764l-1.016,215.862l66.535-85.583l-66.791,104.12l-1.779,118.343l62.22-113.517
		l-62.472,130.786l-1.016,65.519l90.154-157.96l-90.41,180.815L503.021,1388.086z"/>
</g>
<polyline fill="#D0CDE1" points="921.5,605 845.5,652.333 824.377,686.45 797.5,709 777.5,728 754.5,756.333 737.5,782 720.5,815 
	708.5,846 695.5,879 688.5,909 680.5,933 669.833,960.667 656.5,996 637.833,1025.333 624.167,1046 606.4,1064.83 684.373,1102.574 
	804.5,1153 1090.5,774 "/>
<polyline fill="#FECEB8" points="690.5,1357 669.5,1374.5 659.5,1381.5 652,1385.5 641,1392.5 632.5,1397 617.058,1401.5 
	603.81,1405.5 596.5,1408 593,1411.5 593,1417.5 883,1422 879,1323 "/>
<polyline fill="#FECEB8" points="985.167,720.333 887.167,615.667 1075.167,548.333 1193.167,620.333 1119.167,756.333 "/>
<polyline fill="#FECEB8" points="1200.5,1037 1209.5,1063 1227.5,1078 1238.5,1093 1243.5,1105 1243.5,1114 1243.5,1126 
	1236.5,1133.5 1229.5,1133.5 1222,1140 1211.5,1140 1185.5,1133.5 1102.5,1037 1080.31,1013.5 976.5,976 932.5,898 929.61,886.1 
	896,836.5 892,809 899,788 913,772.5 934,764 955.5,764 994.5,774 1065.5,793 "/>
<path fill="#393944" d="M1056.777,468.45c-2.5,1.1-5.8,1.9-7.3,1.9c-1.5,0.1-4.7,1-6.9,2.1c-2.3,1.1-4.7,2-5.2,2
	c-1,0-20.5,9.7-32.3,16c-10.3,5.6-14.6,9.4-45.9,41.6c-17.6,17.9-35,34.9-38.8,37.7c-13.8,10.4-27,19.1-34.2,22.5
	c-2.3,1.1-4.5,2.5-4.8,3.1c-0.4,0.6-1.4,1.1-2.2,1.1c-0.8,0-4.2,1.8-7.4,4c-3.2,2.2-6.4,4-7,4c-2.4,0-24.8,23.2-27.7,28.6
	c-1.5,3-3.1,5.4-3.5,5.4c-0.5,0-0.8,0.7-0.8,1.5s-0.8,2.9-1.8,4.7s-2.2,4.4-2.6,5.8c-2.9,9.8-6.7,23.8-7.3,27.1
	c-0.4,2.4,2,8.9,3.3,8.9c2.4,0,9.5-5.5,17.4-13.5c9.8-10,28.8-26.4,37.5-32.5c2.8-1.9,5.2-3.8,5.3-4.2c0.2-0.4,0.8-0.8,1.4-0.8
	c0.5,0,3-1.4,5.5-3.1c2.6-1.8,6.2-3.3,8.6-3.6c2.3-0.3,5.6-1.1,7.2-1.8c5.1-2.2,9.7-3.4,17-4.5c3.9-0.5,8.8-1.6,11-2.5
	c3-1.1,9.2-1.4,25-1.5c22.1,0,27.1,0.8,33.5,5.3c1.3,0.9,3.1,1.7,3.9,1.7s2.2,0.7,3.2,1.6c3,2.7,12.8,4.3,27,4.4
	c18.2,0,21.3-1,30.1-9.7c3.7-3.7,6.8-7.3,6.8-7.9c0-0.6,0.8-2.2,1.9-3.5c1-1.3,2.2-3.5,2.6-4.9c1.3-4.3,7.2-12.4,10.3-14.3
	c4.9-2.8,7.1-2.2,12.8,3.7c5,5.2,5.2,5.5,5.9,12.7c1.3,14.4,3.7,17.7,13.3,18.6c4.5,0.4,7.8,0,13-1.6c14.1-4.3,33.2-2,33.2,4
	c0,4.5-7.8,16.5-26.5,40.6c-4.5,5.9-6.8,10-8,14c-0.8,3.2-2,6.8-2.5,8s-1.2,4.9-1.6,8.2c-0.4,3.4-1,6.4-1.4,6.6
	c-0.4,0.3-3.2-0.2-6.1-1.1c-7.2-2.2-12.4-1.4-18.3,2.7c-2.6,1.9-5.3,3.7-6,4c-2.6,1.4-5.7,3-7.6,3.9c-1.1,0.5-2.9,1.4-4,2
	c-1.1,0.5-2.9,1.4-4,2c-1.1,0.5-3,1.5-4.2,2.1c-3.5,1.8-15.6,2.8-23.5,1.9c-6.2-0.7-8-1.3-12.2-4.6c-11.1-8.4-16-19.6-16.1-36.4
	c0-8.1-0.5-11.5-1.9-14.7c-2.2-4.6-4-5.9-9.9-6.9c-9.5-1.5-16.1,3.7-31.9,25.1c-4.5,5.9-6.3,11.4-6.3,18.3c0,4,0.6,7.9,1.5,9.6
	c0.8,1.5,1.5,4.1,1.5,5.7s0.9,4.3,2,6.1s2,4.4,2,5.8c0,1.4,0.9,4.3,2,6.5s2,4.6,2,5.5c0,0.8,0.9,4,2.1,7c1.1,3,2.4,7,2.9,8.8
	c0.4,1.8,1.5,4.3,2.4,5.7c0.9,1.3,1.6,3.2,1.6,4.2s0.8,3.2,1.8,4.8c1.1,1.7,2.1,5.7,2.4,9c0.7,6.7,1.6,8.7,7.1,16.3
	c2.1,2.9,5.8,9.2,8.2,14.1c2.4,4.9,4.8,9.2,5.4,9.6c0.6,0.3,2.5,3.4,4.3,6.8c1.7,3.4,4.3,7.8,5.8,9.7s3.9,5.8,5.3,8.6
	c1.4,2.7,3.3,5.6,4.1,6.3c0.9,0.8,1.6,1.7,1.6,2.2s2.6,4.3,5.8,8.6c3.3,4.3,6.7,9.1,7.6,10.8c0.9,1.6,2.5,4.3,3.6,6
	c1.1,1.6,2.4,3.9,2.9,5c0.8,1.7,4.3,6.6,12.1,16.7c1.1,1.4,2,3,2,3.5s4,4.9,8.8,9.8c7.9,8,15.3,14.5,34.4,30.3
	c9.2,7.7,50.7,49.2,62.1,62.2c10.3,11.8,13.5,15.8,18.1,23.4c1.7,2.6,9.8,12.8,15.1,18.8c0.8,1,2.1,1.8,2.9,1.8
	c2.8,0,2.5-24.3-0.5-37.5c-0.6-2.8-1.5-12.9-1.9-22.5c-0.5-9.6-1.2-20.4-1.5-24.1l-0.7-6.5l11.8-12c6.6-6.5,12.9-13.5,14.2-15.4
	c1.2-1.9,4.1-6.4,6.5-10c4.2-6.3,5.4-8.8,13.2-25.5c3.7-8.1,5.1-11.3,6.5-15c0.5-1.1,2.2-5,3.9-8.6c3.4-7.4,5.1-18.3,5.1-32.9
	c0-10.2-1.6-24.5-3.1-28c-4.2-9.5-9.5-17.7-19.6-30.2c-3.5-4.2-6.3-7.9-6.3-8.2s-6-6.5-13.3-13.8c-17.1-17.1-25.8-26.7-27.7-30.4
	c-0.8-1.6-2.2-4-3.1-5.4c-5.3-8.2-4.7-27.8,1-33.1c1.2-1.1,2.1-2.4,2.1-2.9s0.6-1.5,1.3-2.2c0.7-0.7,2-2.3,2.8-3.6
	c0.9-1.2,5.3-6.1,9.8-10.8c9.6-10.1,12.7-14.5,18-25.1c8.3-16.9,7.6-12.4,7.6-46.4c0-20.1-0.4-31.1-1.1-32c-0.6-0.8-1.9-4.1-2.8-7.4
	c-2.9-10-5.7-14.7-13.7-22.5c-10.5-10.5-11.8-11.3-18.6-12.5c-2.4-0.4-4.5-1.1-4.9-1.6c-0.3-0.5-1.6-0.9-2.9-0.9s-2.7-0.5-3-1
	c-0.3-0.6-2.1-1-3.9-1s-4.5-0.9-5.9-2s-2.9-2-3.4-2c-2.2,0-12.1-11.5-15.3-17.7c-5-9.8-19.3-23.8-29.2-28.6c-4-1.9-8.4-3.7-9.8-4
	s-4.3-1.2-6.5-2.1c-3.2-1.2-8.6-1.5-27.5-1.5C1064.377,466.65,1060.677,466.85,1056.777,468.45z"/>
<polyline fill="#FECEB8" points="1296.094,1396.368 1311,1401.5 1317.5,1405.5 1320.5,1408.5 1320.5,1414.009 1158.5,1420.5 
	1134,1255.5 1243.5,1241.5 "/>
<g>
	<g>
		<defs>
			<polyline id="SVGID_1_" points="839.81,1400 839.81,1448 1407.81,1458 1347.81,1094 1193.81,1066 887.81,809 627.81,1096 
				603.81,1294 615.81,1386 			"/>
		</defs>
		<clipPath id="SVGID_2_">
			<use xlink:href="#SVGID_1_"  overflow="visible"/>
		</clipPath>
		<path clip-path="url(#SVGID_2_)" fill="#454554" d="M515.31,813.2c0,2.4-0.4,14.4-1,26.8c-0.5,12.4-1.7,62.1-2.6,110.5
			c-1.4,76.7-2,91.5-3.7,89.4c-0.4-0.4-8.3-13.7-11.7-19.4c-1-1.7-10.9-18.1-22-36.5s-21.2-35.1-22.2-37c-2.5-4.4-7.8-11.6-7.8-10.7
			c0,0.7,13.7,28.5,51.5,105.1l12.9,25.9l-1.3,26.1c-0.6,14.4-1.6,33.3-2.1,42.1s-1.5,26.7-2.1,39.8c-1.2,22.5-1.4,23.7-3,22
			c-0.9-1-11.1-16.2-22.6-33.8c-35.6-54.3-38.6-59-39.2-59.5c-0.3-0.3-1.2-1.7-2-3.3c-1.2-2.3-3.1-3.7-3.1-2.2c0,0.5,3.9,7.6,5,9
			c0.4,0.5,1.7,2.6,2.7,4.5c1.1,1.9,9.4,15.9,18.5,31s22.2,37.2,29.3,49l12.8,21.4l-1.7,31.6c-2,38-3.2,63.2-4.6,96.5
			c-0.6,13.7-1.5,32.5-2,41.6c-0.6,9.2-1,19.9-1,23.8v7.1h-91h-91v4.5v4.5h356.9c196.3,0,357.8,0.3,358.8,0.7
			c1.6,0.6,1.5,0.8-0.7,1.4c-1.4,0.4,4.8,0.7,13.8,0.8c13.8,0.1,16.2-0.1,16.2-1.4c0-1.4,41.2-1.5,378.5-1.3l378.5,0.3v-5.1v-5
			l-309.2,0.4c-339.2,0.4-312.9,0.9-319.1-5.4c-2.4-2.3-2.7-3.4-2.7-9.1c0-3.9,0.9-9.3,2.4-14.1c5-16,5.8-18.8,6.3-23.7
			c0.4-3.4,0-6.2-1.1-8.9c-0.9-2.1-1.6-4.9-1.6-6.2c0-1.3-1.9-5.8-4.1-10.1c-2.3-4.3-6.2-12.3-8.6-17.8c-2.5-5.5-6.3-14.1-8.5-19
			c-5.7-12.8-12.8-30.5-12.8-31.9c0-0.7,5.7-3.1,12.8-5.4c12.4-4.2,25.7-6.6,43.9-7.9c7.1-0.5,7.2-0.5,8.6,2.3
			c1.7,3.4,2.3,7.3,4.7,30.4c1,9.6,2.3,19.5,2.9,22c0.5,2.5,1,7.4,1.1,11c0,7.7,5.7,31.5,9,37.6c2.7,5,10,12.6,16.7,17.5
			c9.7,7.1,40.9,21.9,46.1,21.9c1.1,0,3-0.8,4.3-1.9c1.3-1,3.5-2.2,4.9-2.6c3.9-1.2,20.9-10.8,23.6-13.2c1.4-1.3,5.6-4.8,9.5-7.9
			c11.6-9.2,19.2-20.6,23.3-34.6c0.9-3.1,2.1-6,2.7-6.3c1.5-1,1-35.3-0.6-36.9c-0.7-0.7-2.7-5.5-4.5-10.7
			c-5.5-16.2-12.7-28.5-23-39.4c-3.2-3.3-7.7-8.2-10.1-10.8c-2.4-2.7-7.3-7.2-10.9-10c-3.6-2.9-7.4-6-8.5-7
			c-4.3-4-13.7-9.4-32.5-18.5c-25.8-12.5-34.3-15.9-47.5-19.3c-16.6-4.2-15.5-3.7-15.5-6.7c0-5.3-4.2-19.7-6.6-22.5
			c-1.3-1.5-2.8-4.7-3.4-7s-2-6.5-3.1-9.2c-1.2-2.8-3.1-9.1-4.3-14c-1.3-5-3.5-11.3-4.9-14.2c-1.5-2.9-2.7-5.9-2.7-6.7
			c0-3.6-5.6-12.9-11.3-18.7c-5-5.1-26.7-21.9-28.3-21.9c-0.2,0-3.5-2.4-7.3-5.3c-13.5-10.5-29.1-20.5-45.6-29.3
			c-2.7-1.5-6.4-3.7-8.1-5c-5.9-4.5-6.1-3.9-3.5,8.6c0.6,2.5,1,11.4,1.1,19.9c0,17.5,2.2,34.6,5.1,40.4c1.1,2.1,3.6,9.1,5.5,15.5
			c1.9,6.5,4.3,14.6,5.4,18.2s2,8.2,2,10.2s0.5,4,1,4.3c0.6,0.3,1,2.8,1,5.5c0,6.8-2.4,8.3-11.7,7.7c-3.7-0.3-8.6-0.9-10.8-1.5
			c-8.3-2.1-18.2-4.4-22.5-5.2c-5.3-1-14.4-2.6-21.7-3.9c-2.9-0.6-5.7-1.3-6.3-1.6c-1.7-1-1.1-10.2,0.8-13.7c1-1.8,2.4-5.3,3.2-7.8
			c0.8-2.5,3.8-9.7,6.7-16s5.3-12.3,5.3-13.3s1.4-4.4,3-7.7c1.7-3.3,3-7,3-8.2c0-1.3,1.4-4.3,3-6.8s3-5.3,3-6.3s1.4-4.4,3-7.7
			c1.7-3.3,3-6.8,3-7.9c0-2.8,7.6-18.8,10.5-22.3c1.4-1.6,2.5-3.6,2.5-4.3c0-0.8-2.9-2.8-6.5-4.4c-3.6-1.7-9-4.6-12-6.6
			c-3.1-1.9-5.9-3.5-6.4-3.5s-4.8-3.2-9.7-7.1c-4.9-3.9-11.8-9.1-15.4-11.4c-3.6-2.4-7.2-5.1-8-6c-0.7-0.9-2.7-2.3-4.4-3.2
			c-6.2-3.2-57.6-52.1-65-61.8c-3.5-4.5-22.4-23.5-23.3-23.4c-1.5,0.1-12.4,13.5-19.3,23.9c-3.9,5.8-9,13.2-11.5,16.5
			c-6.2,8.3-11.6,16.1-13.9,19.8c-1.1,1.8-3.9,5.7-6.1,8.7c-2.3,3-7.7,10.7-12,17c-4.3,6.3-8.5,12.4-9.5,13.5
			c-0.9,1.1-2,2.7-2.3,3.5c-0.4,0.8-2.9,4.6-5.7,8.5c-6.3,8.8-15,21.5-15,22s-4.9,7.5-9,13c-1.6,2.2-3.3,4.7-3.7,5.5
			c-0.3,0.8-2.4,4.1-4.5,7.2s-3.8,6.1-3.8,6.7c0,0.5-0.4,1.1-0.8,1.3c-1.2,0.4-19.9,28.5-26.4,39.5c-4.8,8.1-22.4,33.3-23.3,33.3
			c-1.9,0-17.7-3.7-27.5-6.4c-8.2-2.2-37.8-12.2-55-18.5c-3-1-6-1.6-6.7-1.2c-2.8,1.5-17.9,21.3-21,27.3
			c-9.7,19.3-18.3,39.7-18.3,43.5c0,1.3-0.4,2.3-1,2.3c-0.5,0-1,1.3-1,2.9c0,1.7-0.4,3.3-1,3.6c-0.5,0.3-1,1.7-1,3s-0.4,2.7-1,3
			c-0.5,0.3-1,3.3-1,6.6c0,3.5-0.4,5.9-1.1,5.9s-0.9,10.7-0.5,36.2c0.6,39.3,1.2,51.2,2.6,54.3c0.4,1.1,2,4.5,3.3,7.5
			c1.4,3,3,7.4,3.6,9.7c1.7,6.4,12.2,26.1,19.7,37c8.1,12,14.5,18.7,20.2,21.4c5.5,2.7,8.6,2.1,17-3.1c5.8-3.7,6.9-4,13.4-4
			c5.6,0,7.8,0.5,10.7,2.3c1.9,1.2,4.3,2.6,5.2,3.2c0.9,0.5,4.5,2.9,8,5.3c10.9,7.5,14.4,8.9,24.9,9.5c19.4,1.2,46.4-2.6,62.5-8.9
			c5.2-2.1,14-4.4,16.6-4.4c1,0,2.7-0.4,3.7-0.9c3.8-2,17.5-5.8,19.3-5.4c1.8,0.5,1.9,1.9,1.9,28.4v27.9h-175l-175-0.1v-6.5
			c0-7.1,0.2-7.6,8.9-22.2c3.2-5.3,13.1-22.1,22.1-37.2s19.5-32.9,23.5-39.5c8.9-14.8,14.5-24.5,14.5-25.1c0-0.2-0.4-0.4-1-0.4
			c-0.5,0-1,0.6-1,1.4s-0.3,1.6-0.8,1.8c-0.4,0.1-6.3,8.8-13.2,19.3c-36,55-50.9,77.3-52,78s-1.2-2.5-0.7-16.1
			c0.4-9.3,1-42.8,1.3-74.4l0.6-57.5l42.5-84.8c23.3-46.7,42.2-85.4,41.9-86c-0.2-0.7-0.5-0.4-0.5,0.5c-0.1,1-0.5,1.8-1,1.8
			s-1.1,0.8-1.5,1.7c-0.3,1-1.4,3.1-2.4,4.8c-1.1,1.6-2.8,4.6-3.9,6.5c-1.1,1.9-2.9,5.1-4.1,7c-1.1,1.9-8.5,15-16.5,29
			c-12.2,21.6-21.4,37.7-46.4,81.5c-1.9,3.3-3.7,6.8-4,7.7c-0.3,1-1.2,1.8-2,1.8c-1.3,0-1.4-4.3-0.8-32.3l0.7-32.2l4.6-9.5
			c2.5-5.2,6.9-14.5,9.7-20.5c6.2-13.1,12-25.3,20.5-43c3.4-7.2,8.7-18.2,11.6-24.5c3-6.3,5.9-12.3,6.4-13.2c0.6-1,1-2.5,1-3.3
			s0.5-1.5,1-1.5c0.6,0,1-1,1-2.3v-2.2l-1.3,2.2c-2.7,4.7-4.5,8.1-7.7,13.8c-1.8,3.3-5.6,10.3-8.5,15.5s-6.9,12.6-9,16.5
			c-2.1,3.8-5.9,10.8-8.5,15.5c-5,9.2-9.9,18-15.6,28.7c-2,3.8-4.1,7.2-4.7,7.8c-0.9,1-0.8-13,1-91.3l0.6-29.3l5.3-8.2
			c9.5-14.8,15.9-24.7,18.4-28.7c6.2-9.8,14-21.9,25.1-38.9c6.6-10.1,11.7-18.6,11.4-19c-0.4-0.3-1.7,0.8-3,2.4
			c-2.1,2.6-21.3,27.3-32.4,41.6c-2,2.5-7.5,9.6-12.3,15.7c-4.8,6.1-9.3,12-10,13.2c-0.7,1.1-1.7,2-2.2,2c-0.6,0-0.7-33.9-0.3-86.5
			c0.3-47.6,0.4-86.5,0.2-86.5C515.51,809,515.31,810.9,515.31,813.2z"/>
	</g>
</g>
<rect x="294.5" y="1414" fill="#454554" width="1435.288" height="13"/>
<g>
	<polyline fill="#F2F2F2" points="1394.492,1404.333 1394.492,1319.333 1438.45,1319.333 1438.45,1306.333 1411.281,1294.833 
		1403.871,1284.167 1398.437,1264.167 1401.895,1240.667 1410.293,1224.833 1431.37,1215.833 1530.333,1215.833 1684.825,1215.833 
		1684.825,1314.167 1710.642,1327.833 1719.534,1342.667 1722.992,1367.167 1718.052,1384.667 1709.16,1396.333 1685.283,1404.333 	
		"/>
	<path fill="#D0CDE1" d="M1688.742,1211.412v13.422c0,0-219.446-0.088-257.61-0.088s-38.016,74.592,0,74.592
		s256.605-0.837,256.605-0.837v14.122c0,0-200.299,0-256.605,0s-54.64-101.211,2.376-101.211"/>
	<g>
		<g>
			<defs>
				<rect id="SVGID_3_" x="1471.492" y="1089.833" width="136.333" height="121.578"/>
			</defs>
			<clipPath id="SVGID_4_">
				<use xlink:href="#SVGID_3_"  overflow="visible"/>
			</clipPath>
			<polyline clip-path="url(#SVGID_4_)" fill="#D0CDE1" points="1607.825,1211.412 1607.825,1104.5 1511.825,1104.5 
				1511.825,1211.412 			"/>
		</g>
		<g>
			<defs>
				<rect id="SVGID_5_" x="1471.492" y="1089.833" width="136.333" height="121.578"/>
			</defs>
			<clipPath id="SVGID_6_">
				<use xlink:href="#SVGID_5_"  overflow="visible"/>
			</clipPath>
			<path clip-path="url(#SVGID_6_)" fill="#D0CDE1" d="M1753.049,1129.167v8.176c0,0-205.859,3.176-238.042,0
				c-43.182,1.158-19.035,46.825,0,45.739c28.151,0,235.837,0,235.837,0l0.667,8.146c0,0-200.655,0-236.504,0
				s-57.409-62.394,2.204-62.061"/>
		</g>
	</g>
	<path fill="#D0CDE1" d="M1390.499,1412.833V1399.5c0,0,248.769,0,292.231,0c43.463,0,43.294-74.592,0-74.592
		c-43.293,0-292.231-0.408-292.231-0.408v-12.877c0,0,228.108,0,292.231,0c64.124,0,62.226,101.211-2.706,101.211"/>
	<rect x="1394.492" y="1360.167" fill="#D0CDE1" width="293.245" height="7"/>
	<rect x="1394.492" y="1339.167" fill="#D0CDE1" width="293.245" height="7"/>
	<rect x="1394.492" y="1381.167" fill="#D0CDE1" width="293.245" height="7"/>
	<rect x="1424.499" y="1257.167" fill="#D0CDE1" width="260.326" height="7"/>
	<rect x="1424.499" y="1277.167" fill="#D0CDE1" width="260.326" height="7"/>
	<rect x="1424.499" y="1237.167" fill="#D0CDE1" width="260.326" height="7"/>
</g>
<path fill="#3F3D56" d="M1204.277,1051.65l4.723-15.781l-3.239-27.393l-3.184-45.626c0,0-2.577-93.85-17.577-141.35
	c-4-51.5-74.5-129.5-162.5-43.5c-13.782,8.835-23.196,24.623-23.196,24.623l30.873,51.727l23.868,36.318l13.621,18.935L1085.5,925.5
	l36,36.5l33.5,32"/>
<path fill="#393944" d="M892,1339.167c77.5-7.167,136.5-54.167,261.31-71.567c-92.81-10.6-92.81-10.6-159.139-42.042
	C950.5,1301,922.5,1328,892,1339.167z"/>
<path fill="#454554" d="M1217.673,342.696c-30.19-8.636-57.839,17.304-57.839,17.304s-56.083,43.667-90.083-19
	c-12.667-23.333-51.625-4.386-60.917,3.333c-9.292,7.72-18.174,16.122-26.335,18.499C974.337,365.21,934.5,391,910.5,350
	c-6.667-13-29.667-13-52.667-6s-24.667,19.333-66.896,19.671c-69.264-1.975-98.077-45.194-98.077-45.194
	S662.833,291.355,673.833,205c11.394-89.445,141.539-93.004,141.539-93.004S812.403,6.95,910.5,1.5c31-0.5,36-0.5,36-0.5
	s63,0,103.092,43.096c6.279-3.335,132.689-79.383,185.385,79.609c72.696-7.008,113.522,12.434,147.226,65.009
	c36.297,56.62,6.963,123.953,6.963,123.953S1339.167,416,1217.673,342.696"/>
<path display="none" fill="#2F2E41" d="M904.781,10.315c-2.9,0.2-5.3,0.8-5.3,1.4c0,0.5-0.8,0.9-1.7,0.9c-1,0-4.5,1.3-7.8,2.8
	c-3.3,1.6-7.2,3.2-8.7,3.5c-7.3,1.9-39,32.3-53.1,51.1c-7,9.2-13.6,24.1-15.2,34.1c-1.2,7.7-1.5,8.5-4.3,9.8
	c-1.5,0.8-5.6,1.5-9.2,1.6c-9.4,0.3-21.6,2.7-36.5,7.3c-14.7,4.6-21.9,8-28.7,13.5c-2.6,2.1-6.8,5.4-9.3,7.3c-2.5,1.9-6,5.3-7.8,7.5
	c-1.7,2.2-4.4,5-5.9,6.3s-3.7,4-4.9,6c-1.2,2-3.1,4.7-4.1,5.8c-2.1,2.4-5.8,8.6-9,15.4c-2.4,4.9-2.5,5.2-3.6,12
	c-0.5,2.6-1.3,4.4-2,4.2c-0.7-0.1-1.2,0.2-1.2,0.8c0,0.5,0.3,1,0.8,1c0.4,0,0.6,14.8,0.4,33c-0.2,20.3,0,33,0.6,33
	c0.5,0,1.2,2,1.5,4.5c0.4,2.4,2,7.7,3.6,11.7s3.9,9.9,5.1,13c1.2,3.2,2.6,5.8,3.1,5.8s0.9,0.9,0.9,2s0.3,2,0.8,2c0.4,0,1.3,1.3,2,3
	c1.9,4.2,5.1,7.9,18.7,21.5c16.3,16.2,29.1,24.4,49,31c7,2.4,9.7,2.7,27.4,3.2c21.2,0.6,32.5-0.7,37.9-4.6c2.5-1.6,7.6-3.8,18.7-7.7
	c2.2-0.8,5.2-2.1,6.7-2.9c3.5-2,18.6-3,27.4-1.7c4.4,0.6,9.3,2.2,13,4.1c3.2,1.7,10.6,5.5,16.4,8.3l10.5,5.3l12.5,0.4
	c17.8,0.5,36.6-2.5,47.5-7.4c2.9-1.4,5.7-2.5,6-2.5c2.1,0,19.6-9.3,22.5-11.9c1.9-1.8,6.1-4.5,9.2-6.1c5.4-2.8,6.5-3,17-3
	c12.7,0,14.9,0.7,26.8,8.5c3.9,2.5,7.3,4.5,7.6,4.5c0.3,0,2,1.1,3.7,2.4c5,3.7,15.1,8.5,21.4,10c3.2,0.8,7.6,2,9.8,2.7
	c2.6,0.8,10.5,1.3,22,1.3l18,0.1l13-4.2c15.9-5.2,24.8-6.8,33.1-5.9c7.1,0.7,17.9,3.8,22.7,6.5c1.8,1,7.5,3.5,12.7,5.6l9.5,3.9h20
	c19.8,0,24.5-0.5,32-3.9c6.4-2.9,10.8-4.5,12.3-4.5c0.9,0,7.5-2.9,14.6-6.4c15.7-7.6,30.7-18.6,40.5-29.5
	c7.9-8.8,8.9-10.5,12.5-22.6c1.5-5,3.2-10.1,3.6-11.5c3-8.4,4.2-20.9,3.7-37.5c-0.3-9.4-1.1-18.6-1.7-20.5s-1.5-6.2-2-9.5
	c-0.8-5.8-2.8-12.6-5.5-19c-0.7-1.7-1.6-4.1-2-5.5c-1.8-6.3-8.7-15.4-21.4-28.3c-15-15.3-27.6-24.5-40.3-29.6
	c-10.1-4.1-29.2-7.1-44.8-7.1c-12.9,0-25.9-1.9-30.9-4.5c-8-4.1-10.6-7.9-14-20.8c-1.2-4.3-3.7-11.1-5.6-15c-1.9-4-3.5-7.7-3.5-8.4
	c0-0.6-0.3-1.3-0.7-1.5c-0.5-0.2-2.8-3-5.3-6.3c-4.7-6.4-14.1-15.9-23.4-23.8c-6.7-5.8-23.5-16.2-28.5-17.8c-2-0.6-5.5-1.9-7.8-3
	c-6.6-3-15.4-3.9-37.3-3.9c-26.9,0-42.7,2.8-56.8,10c-10.6,5.3-11.2,5.4-15.2,2.5c-1.9-1.4-3.7-2.5-4.1-2.5
	c-1.4,0-13.3-7.2-15.9-9.6c-2.7-2.4-15.7-9.4-17.7-9.4c-0.6,0-1.8-0.8-2.5-1.8c-0.7-0.9-2.2-1.8-3.3-2s-2.9-0.9-4-1.6
	s-4.9-2.6-8.5-4.1l-6.5-2.9l-33-0.1C924.881,10.015,907.581,10.115,904.781,10.315z M1079.881,115.115c1.8,1.8,0.8,5.3-3.5,12.5
	c-1.5,2.5-5.2,8.7-8.3,13.8c-3.1,5.2-5.6,9.9-5.6,10.6s-0.9,2.1-2,3.1s-2,2.2-2,2.7s-1.2,2.7-2.6,4.9c-1.8,2.9-2.4,5.1-2.2,7.7
	l0.3,3.7l14.5,0.6c8,0.3,14.6,0.7,14.8,0.7c0.1,0.1,0.2,1.1,0.2,2.3c0,2.3-4.5,8.6-9.6,13.4c-1.7,1.6-7.2,7.5-12,13
	c-15.2,17.1-23.6,26-55.5,58.7c-6.6,6.9-10,8.3-12.7,5.6c-2.4-2.4-1.1-6.9,6.1-21c9.9-19.3,16.2-34.8,15.3-38.2l-0.6-2.6h-13.4
	c-14.9,0-16.6-0.3-16.6-3.1c0-2.2-1.7-0.5,48.5-49.6c20.4-20,37.9-37.2,39-38.3C1074.381,113.215,1077.781,113.015,1079.881,115.115
	z"/>
<path fill="#F2F2F2" d="M984.481,203.515c-4.315-2.515,93.686-89.516,93.686-89.516s-27.004,57.864-24.186,60.116
	c2.819,2.252,29.3,1.3,29.3,1.3l-89.115,91.252c0,0,21.315-57.718,20.315-60.052C1013.481,204.282,988.796,206.03,984.481,203.515z"
	/>
</svg>
