<?xml version="1.0" encoding="utf-8"?>
<!-- Generator: Adobe Illustrator 17.0.0, SVG Export Plug-In . SVG Version: 6.00 Build 0)  -->
<!DOCTYPE svg PUBLIC "-//W3C//DTD SVG 1.1//EN" "http://www.w3.org/Graphics/SVG/1.1/DTD/svg11.dtd">
<svg version="1.1" id="Слой_1" xmlns="http://www.w3.org/2000/svg" xmlns:xlink="http://www.w3.org/1999/xlink" x="0px" y="0px"
	 width="612px" height="437px" viewBox="0 0 612 437" enable-background="new 0 0 612 437" xml:space="preserve">
<g>
	<g>
		<g>
			<defs>
				<rect id="SVGID_1_" x="119.439" y="0.703" width="329.69" height="436.297"/>
			</defs>
			<clipPath id="SVGID_2_">
				<use xlink:href="#SVGID_1_"  overflow="visible"/>
			</clipPath>
			<g clip-path="url(#SVGID_2_)">
				<path opacity="0.2" enable-background="new    " d="M447.55,168.114h-4.935h-19.15h-4.343H406.29h-3.159h-1.382l-66.728-0.197
					h-0.987h-0.987h-4.146h-11.45h-5.528h-11.45V25.38l141.155-10.858l4.935-0.395L447.55,168.114z"/>
				<path fill="#E6E6E6" d="M442.417,168.114L442.417,168.114H428.4h-5.133h-4.343h-6.12h-2.369h-4.343h-2.172h-0.987h-1.382l0,0
					h-10.463h-1.974h-27.046h-4.935H337.39h-2.566h-0.987l0,0h-0.987h-4.146h-11.45l0,0h-5.528h-3.751h-0.79H295.34V25.38
					l146.288-11.055v0.197L442.417,168.114z"/>
				<path opacity="0.2" enable-background="new    " d="M368.779,11.758c3.159,0,5.923-2.172,5.923-4.935s-2.566-4.935-5.923-4.935
					c-3.159,0-5.923,2.172-5.923,4.935S365.423,11.758,368.779,11.758z"/>
				<path fill="#393944" d="M365.423,11.758c3.159,0,5.923-2.172,5.923-4.935s-2.566-4.935-5.923-4.935
					c-3.159,0-5.923,2.172-5.923,4.935S362.067,11.758,365.423,11.758z"/>
				<path opacity="0.2" enable-background="new    " d="M414.186,0.703L322.781,7.02l0.592,5.725l91.208-6.317L414.186,0.703z"/>
				<path fill="#E6E6E6" d="M410.83,0.703L319.425,7.02l0.592,5.725l91.405-6.317L410.83,0.703z"/>
				<path opacity="0.56" fill="#B7B7B7" enable-background="new    " d="M419.319,136.33c-4.935-15.991-7.502-17.175-7.502-17.175
					l-27.639-12.043h-0.197l-15.596,9.871l-6.712-8.884l-0.395-0.197c0,0-0.197,0-0.395,0.197
					c-2.369,0.79-14.806,5.133-23.888,10.463h-0.197l-10.858,4.541l-1.974,6.12l-2.172,7.107l-7.699,30.797l0,0h5.528l0,0h11.45
					l1.777-7.502l2.172,7.699h0.987l0,0h0.987h2.566h19.742h4.935h27.046h1.974h10.463l0,0h1.382l0,0l0.79-6.712l0.395-1.974
					l1.974,8.686l0,0h4.343h2.369h6.12h4.343l0,0C424.452,160.612,421.095,142.252,419.319,136.33z"/>
				<path opacity="0.56" fill="#FFB8B8" enable-background="new    " d="M395.431,89.146L395.431,89.146L395.431,89.146
					c-0.197-0.395-1.579-4.146-5.528-2.172c-4.146,2.172-9.081-10.858-9.081-10.858s-12.635,2.961-20.137,2.566
					c-0.592,0-0.987-0.197-1.579-0.395c-1.777,3.159-2.369,6.712-1.777,10.068c0.592,3.356,2.566,6.515,5.33,9.081l-1.382,10.266
					l6.91,9.279l15.399-9.871c0,0,0.197,2.566,0.79-6.12c2.961-1.185,5.528-2.961,7.502-5.133c1.974-2.172,3.356-4.935,3.751-7.699
					C395.628,88.554,395.431,88.949,395.431,89.146z"/>
				<path opacity="0.56" fill="#2F2E41" enable-background="new    " d="M396.023,88.554c1.777-3.356,6.317-13.227-1.777-19.15
					c-6.712-4.935-30.205-9.279-37.51,3.751c-0.197,0.592-0.395,0.987-0.395,1.579s0,1.185,0.197,1.579
					c0.197,0.592,0.592,0.987,0.987,1.382s0.987,0.79,1.579,0.987c0.197-0.197,0.197-0.395,0.395-0.592
					c0.395,0.197,0.79,0.197,1.185,0.197c7.699,0.395,20.137-2.566,20.137-2.566s4.935,13.03,9.081,10.858
					c3.948-1.974,5.33,1.777,5.528,2.172c0-0.197,0.197-0.592,0.592-1.185c0.197-0.79,0.197-1.579,0.197-2.172
					c0,0.197,0,0.197,0,0.395C396.221,86.975,396.023,87.765,396.023,88.554z"/>
				<path fill="#E6E6E6" d="M247.761,436.999c70.874,0,128.323-7.699,128.323-17.175s-57.449-17.175-128.323-17.175
					s-128.323,7.699-128.323,17.175S176.888,436.999,247.761,436.999z"/>
				<path fill="#FF825C" d="M445.773,385.078l-27.836,27.836l-0.592,0.592l-163.661-21.519V231.683h191.694L445.773,385.078z"/>
				<path fill="#E6E6E6" d="M269.872,292.094l-0.197,1.382l33.364,2.172l0.197-1.382L269.872,292.094z"/>
				<path fill="#E6E6E6" d="M351.604,298.411l-0.197,1.382l34.943,2.172l0.197-1.382L351.604,298.411z"/>
				<path fill="#E6E6E6" d="M417.542,276.3l-164.253-8.686l-0.197,1.382l75.019,3.948l1.185,128.915h1.579l-1.185-128.915
					l87.457,4.541L417.542,276.3z"/>
				<path opacity="0.2" enable-background="new    " d="M445.773,385.078l-27.836,27.836V231.486h27.441L445.773,385.078z"/>
				<path fill="#E6E6E6" d="M264.937,234.645h-15.004v-8.686l40.076-6.515l2.566-4.343l156.751,3.554v12.24l-31.192,9.871
					l-20.334-0.592c0,0-30.797,22.111-67.517,20.137C293.563,258.335,264.937,234.645,264.937,234.645z"/>
				<path fill="#CCCCCC" d="M401.156,226.55l-8.686,5.33l-24.48-0.592l0,0l0,0h-1.777l0,0h-1.579l-4.935-0.197h-0.395h-4.343h-0.197
					l-5.33-0.197h-0.395h-3.948h-0.592l-4.738-0.197h-1.579l-8.489-0.197h-2.172l-22.308-0.395c0,0-15.991,0.592-16.583-3.356
					v-0.197c0-2.172,2.764-2.764,5.33-2.764c1.579,0,3.159,0.197,4.541,0.592l6.317,0.197h3.948l12.437,0.197l10.661,0.197h3.751
					l5.33,0.197h2.172l7.897,0.197h3.751l7.897,0.197L401.156,226.55z"/>
				<path fill="#3F3D56" d="M354.565,230.104c0.987,0,1.579-0.592,1.579-1.382s-0.79-1.382-1.579-1.382
					c-0.987,0-1.579,0.592-1.579,1.382C352.788,229.512,353.578,230.104,354.565,230.104z"/>
				<path fill="#CCCCCC" d="M355.355,225.168c8.686,0,15.794-0.592,15.794-1.382s-7.107-1.382-15.794-1.382
					c-8.686,0-15.794,0.592-15.794,1.382C339.561,224.379,346.668,225.168,355.355,225.168z"/>
				<path fill="#393944" d="M345.484,205.426l13.819,2.961l-1.579,5.528l-19.742-4.146l0.197-0.395
					c0.395-1.382,1.382-2.566,2.764-3.356C342.128,205.426,343.905,205.032,345.484,205.426z"/>
				<path fill="#393944" d="M340.154,209.967l7.502,0.987v0.197c-0.197,0.79-0.592,1.382-1.185,1.777
					c-0.592,0.395-1.579,0.592-2.369,0.395l-1.382-0.197c-0.79-0.197-1.579-0.395-1.974-0.987s-0.79-1.185-0.592-1.974
					L340.154,209.967L340.154,209.967z"/>
				<path fill="#393944" d="M357.724,212.534l-10.463-2.172c-0.395,0.592-0.79,0.987-1.382,1.185
					c-0.592,0.197-1.382,0.395-1.974,0.395l-0.79-0.197c-0.79-0.197-1.579-0.395-1.974-0.987c-0.592-0.592-0.79-1.185-0.79-1.974
					l-1.777-0.395c-0.197,0.395-0.395,0.79-0.592,1.382l2.369,0.395c0,0.79,0.197,1.382,0.79,1.974
					c0.592,0.592,1.185,0.987,1.974,0.987l0.79,0.197c0.79,0,1.382,0,1.974-0.395c0.592-0.197,1.185-0.79,1.382-1.185l10.463,2.172
					l1.579-5.528h-0.395L357.724,212.534z"/>
				<path fill="#393944" d="M355.947,224.379c-0.79,0-1.579-0.197-2.369-0.395c-0.79-0.197-1.382-0.592-1.974-1.185
					s-0.987-1.185-1.382-1.777c-0.197-0.592-0.395-1.382-0.395-2.172l0.987-14.806l11.253-0.395v15.596
					c0,0.592-0.197,1.382-0.395,1.974c-0.395,0.592-0.79,1.185-1.382,1.777c-0.592,0.395-1.185,0.79-1.974,1.185
					C357.526,224.181,356.737,224.379,355.947,224.379z"/>
				<path fill="#393944" d="M361.277,204.045h-10.068c1.777-2.369,0.592-4.541-1.777-7.107c-0.197-0.197-0.197-0.395-0.197-0.395
					c0-0.197,0-0.395,0-0.592s0.197-0.395,0.395-0.395c0.197,0,0.395-0.197,0.592-0.197h3.948c3.948,0,7.305,3.159,7.305,7.107
					v1.579L361.277,204.045L361.277,204.045z"/>
				<path opacity="0.2" fill="#393944" enable-background="new    " d="M352.591,196.937c-0.197-0.197-0.197-0.395-0.197-0.395
					c0-0.197,0-0.395,0-0.592s0.197-0.395,0.395-0.395c0.197-0.197,0.395-0.197,0.592-0.197h-3.356c-0.197,0-0.395,0-0.592,0.197
					c-0.197,0.197-0.395,0.197-0.395,0.395s-0.197,0.395,0,0.592c0,0.197,0.197,0.395,0.197,0.395
					c2.369,2.369,3.554,4.738,1.777,7.107h3.356C356.145,201.676,354.96,199.306,352.591,196.937z"/>
				<path fill="#FFB8B8" d="M304.421,212.336l12.832,3.948c0,0,30.403,2.172,26.454,8.686c-3.948,6.712-30.008,2.369-30.008,2.369
					l-12.437-7.305L304.421,212.336z"/>
				<path fill="#FFFFFF" d="M323.768,222.207c-0.79,0-1.579,0.197-2.369,0.79c-0.592,0.592-0.987,1.185-0.987,1.974
					c-0.197-0.197-0.395-0.197-0.592-0.395c0.592-0.395,1.185-0.987,1.382-1.579s0.197-1.382,0-1.974s-0.79-1.185-1.382-1.382
					c-0.592-0.395-1.382-0.395-2.172-0.395c-0.79,0.197-1.382,0.395-1.974,0.987c-0.592,0.395-0.79,1.185-0.79,1.777
					s0.197,1.382,0.592,1.777c0.395,0.592,0.987,0.987,1.777,1.185c-0.197,0.197-0.592,0.592-0.592,0.79
					c-0.197,0.395-0.197,0.592-0.197,0.987s0.197,0.592,0.395,0.987c0.197,0.197,0.592,0.592,0.79,0.592
					c0.395,0.197,0.79,0.197,1.185,0.197s0.79,0,1.185-0.197s0.592-0.395,0.987-0.592c0.197-0.197,0.395-0.592,0.395-0.987
					c0.395,0.395,0.79,0.592,1.382,0.79c0.592,0.197,1.185,0.197,1.579,0.197c0.592,0,0.987-0.197,1.579-0.592
					c0.395-0.197,0.79-0.592,0.987-1.185c0.197-0.395,0.395-0.987,0.395-1.382s-0.197-0.987-0.592-1.382
					c-0.395-0.395-0.79-0.79-1.185-0.987C325.15,222.01,324.163,222.207,323.768,222.207z"/>
				<path fill="#FFFFFF" d="M329.493,223.589c-0.79,0-1.579,0.197-2.369,0.79c-0.592,0.592-0.987,1.185-0.987,1.974
					c-0.197-0.197-0.395-0.197-0.592-0.395c0.592-0.395,1.185-0.987,1.382-1.579s0.197-1.382,0-1.974s-0.79-1.185-1.382-1.382
					c-0.592-0.395-1.382-0.395-2.172-0.395c-0.79,0.197-1.382,0.395-1.974,0.987c-0.592,0.395-0.79,1.185-0.79,1.777
					s0.197,1.382,0.592,1.777c0.395,0.592,0.987,0.987,1.777,1.185c-0.197,0.197-0.592,0.592-0.592,0.79
					c-0.197,0.395-0.197,0.592-0.197,0.987s0.197,0.592,0.395,0.987c0.197,0.197,0.592,0.592,0.79,0.592
					c0.395,0.197,0.79,0.197,1.185,0.197s0.79,0,1.185-0.197s0.592-0.395,0.987-0.592c0.197-0.197,0.395-0.592,0.395-0.987
					c0.395,0.395,0.79,0.592,1.382,0.79s1.185,0.197,1.579,0.197c0.592,0,0.987-0.197,1.579-0.592
					c0.592-0.395,0.79-0.592,0.987-1.185c0.197-0.395,0.395-0.987,0.395-1.382s-0.197-0.987-0.592-1.382s-0.79-0.79-1.185-0.987
					C330.677,223.786,330.085,223.589,329.493,223.589z"/>
				<path fill="#B7B7B7" d="M313.897,212.139l-11.648,16.386l-24.48-14.017l-28.034-16.188l-16.781-38.102l-17.175-27.046
					l21.519-5.528c0,0,7.502,0.197,16.978,15.399c9.476,15.202,18.163,41.261,18.163,41.261l11.45,7.699L313.897,212.139z"/>
				<path opacity="0.2" enable-background="new    " d="M313.897,212.139l-11.648,16.386l-24.48-14.017l-28.034-16.188
					l-16.781-38.102l-17.175-27.046l21.519-5.528c0,0,7.502,0.197,16.978,15.399c9.476,15.202,18.163,41.261,18.163,41.261
					l11.45,7.699L313.897,212.139z"/>
				<path fill="#FFB8B8" d="M367.792,231.288l-29.81-0.592l-2.369-2.369l-1.579-1.579l-1.777-1.777l-1.974-1.974l3.356-4.541
					l1.579-2.172l6.712,3.751l4.738,2.566c0,0,3.948,1.185,8.686,2.764C359.698,227.143,364.831,229.314,367.792,231.288z"/>
				<path fill="#FFB8B8" d="M252.894,100.202c11.253,0,20.334-7.897,20.334-17.57s-9.081-17.57-20.334-17.57
					s-20.334,7.897-20.334,17.57C232.363,92.305,241.641,100.202,252.894,100.202z"/>
				<path fill="#FFB8B8" d="M237.101,87.567l-1.974,25.467l25.467,2.566c0,0,0-20.926,1.974-23.69S237.101,87.567,237.101,87.567z"
					/>
				<path fill="#B7B7B7" d="M293.563,120.339l-32.969-12.043c0,0-15.794-10.463-25.072-2.764l-4.146,5.133
					c0,0-25.27,11.648-25.27,21.321l2.961,48.763c0,0-8.094,27.046,4.146,28.823l66.333,5.33c0,0,9.081-9.674,0.987-21.914
					l2.961-28.823L293.563,120.339z"/>
				<path fill="#B7B7B7" d="M271.254,121.128l22.506-0.79c0,0,1.579,1.579,6.712,18.163c5.133,16.583,11.648,44.025,11.648,44.025
					l32.574,35.535L328.9,231.683l-42.643-40.274l-5.923-40.471L271.254,121.128z"/>
				<path fill="#454554" d="M282.31,213.126l-73.243-5.528c0,0-7.305,39.681-6.317,55.475c0.987,15.794,1.974,40.274,1.974,40.274
					l-8.094,106.804l31.587-3.554l4.146-88.444l13.227-48.17l15.201,61.2l10.266,78.77l27.441-2.566l-9.081-95.354
					C289.614,312.033,297.708,226.156,282.31,213.126z"/>
				<path fill="#393944" d="M292.575,403.043l9.081,2.566c0,0,19.347-4.343,14.214,6.91c-5.133,11.45-19.347,9.674-19.347,9.674
					s-17.373,11.45-24.48,2.566l4.146-18.36L292.575,403.043z"/>
				<path fill="#393944" d="M218.148,403.043l9.081,2.566c0,0,19.347-4.343,14.214,6.91c-5.133,11.45-19.347,9.674-19.347,9.674
					s-17.373,11.45-24.48,2.566l4.146-18.36L218.148,403.043z"/>
				<path fill="#393944" d="M237.101,98.03c0,0-21.321-13.227-10.266-28.823c7.699-10.858,23.888-10.068,32.969-8.489
					c2.369,0.395,4.738,1.382,6.712,2.566c1.974,1.382,3.554,2.961,4.541,4.935c1.579,3.159,1.579,6.12-4.541,6.12
					c-12.24,0-6.12,7.897-6.12,7.897s-8.094,1.777-6.12,7.897C256.448,96.254,237.101,98.03,237.101,98.03z"/>
				<path fill="#FFFFFF" d="M367.003,231.486c1.382,0,2.566-0.987,2.566-2.172s-1.185-2.172-2.566-2.172s-2.566,0.987-2.566,2.172
					C364.436,230.499,365.621,231.486,367.003,231.486z"/>
				<path fill="#FFFFFF" d="M364.436,227.932c0-0.395-0.197-0.79-0.395-1.185c-0.197-0.395-0.592-0.79-0.987-0.987
					c-0.592-0.395-1.382-0.592-2.172-0.592c0,0,0,0-0.197,0c-0.197-0.592-0.592-1.185-0.987-1.382
					c-0.592-0.395-1.185-0.592-1.777-0.592s-1.382,0-1.974,0.395s-0.987,0.79-1.382,1.382c-0.592-0.197-1.185-0.395-1.777-0.197
					c-0.592,0.197-1.185,0.395-1.382,0.79c-2.369-0.197-4.935-0.79-7.107-1.579c-0.592,0-1.185,0.197-1.777,0.395
					c-0.592,0.197-0.987,0.79-1.185,1.185c-0.197,0.395-0.395,0.79-0.395,1.185c0,0.592,0.197,0.987,0.395,1.382
					c-0.592,0-1.185,0.395-1.579,0.79c-0.395,0.395-0.592,0.987-0.592,1.382c0,0.197,0,0.395,0.197,0.79l4.738,0.197
					c0-0.197,0.197-0.197,0.197-0.395c0.197,0.197,0.395,0.197,0.592,0.395h3.948l0.197-0.197c0,0,0,0.197,0.197,0.197l5.33,0.197
					c0,0,0,0,0-0.197c0,0,0,0,0,0.197h4.343c0.197-0.197,0.197-0.592,0.395-0.79l0,0c0,0.197,0,0.197,0,0.395s0,0.197,0,0.395
					l4.935,0.197c0-0.197,0-0.395,0-0.592c0-0.395-0.197-0.987-0.592-1.382C364.239,229.117,364.436,228.525,364.436,227.932z
					 M355.552,227.932c-0.197,0.197-0.395,0.197-0.395,0.395c0,0.197,0,0.197,0.197,0.395c0.197-0.197,0.395-0.395,0.79-0.395
					C355.75,228.13,355.75,227.932,355.552,227.932L355.552,227.932z"/>
				<path fill="#FFFFFF" d="M389.508,232.276c1.382,0,2.566-0.987,2.566-2.172s-1.185-2.172-2.566-2.172s-2.566,0.987-2.566,2.172
					S388.126,232.276,389.508,232.276z"/>
				<path fill="#FFFFFF" d="M386.942,228.722c0-0.395-0.197-0.79-0.395-1.185c-0.197-0.395-0.592-0.79-0.987-0.987
					c-0.592-0.395-1.382-0.592-2.172-0.592c0,0,0,0-0.197,0c-0.197-0.592-0.592-1.185-0.987-1.382
					c-0.592-0.395-1.185-0.592-1.777-0.592s-1.382,0-1.974,0.395s-0.987,0.79-1.382,1.382c-0.592-0.197-1.185-0.395-1.777-0.197
					c-0.592,0.197-1.185,0.395-1.382,0.79c-2.369-0.197-4.935-0.79-7.107-1.579c-0.592,0-1.185,0.197-1.777,0.395
					c-0.592,0.197-0.987,0.79-1.185,1.185c-0.197,0.395-0.395,0.79-0.395,1.185c0,0.592,0.197,0.987,0.395,1.382
					c-0.592,0-1.185,0.395-1.579,0.79s-0.592,0.987-0.592,1.382c0,0.197,0,0.395,0.197,0.79l4.738,0.197
					c0-0.197,0.197-0.197,0.197-0.395c0.197,0.197,0.395,0.197,0.592,0.395h3.948l0.197-0.197c0,0,0,0.197,0.197,0.197l5.33,0.197
					c0,0,0,0,0-0.197c0,0,0,0,0,0.197h4.343c0.197-0.197,0.197-0.592,0.395-0.79l0,0c0,0.197,0,0.197,0,0.395s0,0.197,0,0.395
					l4.935,0.197c0-0.197,0-0.395,0-0.592c0-0.395-0.197-0.987-0.592-1.382C386.745,229.709,386.942,229.117,386.942,228.722z
					 M378.058,228.525c-0.197,0.197-0.395,0.197-0.395,0.395s0,0.197,0.197,0.395c0.197-0.197,0.395-0.395,0.79-0.395
					C378.255,228.722,378.255,228.722,378.058,228.525L378.058,228.525z"/>
				<path fill="#FFFFFF" d="M353.381,230.894c0.987,0,1.777-0.79,1.777-1.579c0-0.987-0.79-1.579-1.777-1.579
					s-1.974,0.79-1.974,1.579C351.604,230.104,352.394,230.894,353.381,230.894z"/>
				<path fill="#FFFFFF" d="M351.604,228.13c0-0.395,0-0.592-0.197-0.987c-0.197-0.197-0.395-0.592-0.592-0.79
					c-0.395-0.395-0.987-0.395-1.579-0.395l0,0c-0.197-0.395-0.395-0.79-0.79-1.185c-0.395-0.197-0.79-0.395-1.382-0.592
					c-0.592,0-0.987,0-1.382,0.197s-0.79,0.592-0.987,0.987c-0.395-0.197-0.79-0.197-1.382-0.197c-0.395,0-0.79,0.395-0.987,0.592
					c-1.777-0.197-3.554-0.592-5.33-1.185c-0.395,0-0.987,0.197-1.382,0.395s-0.79,0.592-0.987,0.79
					c-0.197,0.197-0.197,0.592-0.197,0.987s0.197,0.79,0.395,1.185c-0.395,0-0.79,0.197-1.185,0.592
					c-0.395,0.197-0.395,0.592-0.395,0.987c0,0.197,0,0.395,0.197,0.592h3.554c0,0,0-0.197,0.197-0.395
					c0.197,0.197,0.197,0.197,0.395,0.395h2.961l0.197-0.197c0,0,0,0,0,0.197h3.948l0,0l0,0h3.159
					c0.197-0.197,0.197-0.395,0.197-0.592l0,0v0.197c0,0.197,0,0.197,0,0.395h3.751c0-0.197,0-0.197,0-0.395
					c0-0.395-0.197-0.79-0.395-0.987C351.406,228.919,351.604,228.525,351.604,228.13z M344.892,228.13
					c-0.197,0.197-0.197,0.197-0.395,0.395v0.197c0.197-0.197,0.395-0.197,0.592-0.395
					C345.089,228.13,344.892,228.13,344.892,228.13z"/>
				<path fill="#FFFFFF" d="M326.729,230.894c0.987,0,1.974-0.79,1.974-1.579c0-0.987-0.79-1.579-1.974-1.579
					s-1.777,0.79-1.777,1.579S325.742,230.894,326.729,230.894z"/>
				<path fill="#FFFFFF" d="M324.952,228.13c0-0.395,0-0.592-0.197-0.987c-0.197-0.197-0.395-0.592-0.592-0.79
					c-0.395-0.395-0.987-0.395-1.579-0.395l0,0c-0.197-0.395-0.395-0.79-0.79-1.185c-0.395-0.197-0.79-0.395-1.382-0.592
					c-0.592,0-0.987,0-1.382,0.197s-0.79,0.592-0.987,0.987c-0.395-0.197-0.79-0.197-1.382-0.197c-0.395,0-0.79,0.395-0.987,0.592
					c-1.777-0.197-3.554-0.592-5.33-1.185c-0.395,0-0.987,0.197-1.382,0.395s-0.79,0.592-0.987,0.79
					c-0.197,0.197-0.197,0.592-0.197,0.987s0.197,0.79,0.395,1.185c-0.395,0-0.79,0.197-1.185,0.592
					c-0.395,0.197-0.395,0.592-0.395,0.987c0,0.197,0,0.395,0.197,0.592h3.554c0,0,0-0.197,0.197-0.395
					c0.197,0.197,0.197,0.197,0.395,0.395h2.961l0.197-0.197c0,0,0,0,0,0.197h3.948l0,0l0,0h3.159
					c0.197-0.197,0.197-0.395,0.197-0.592l0,0v0.197c0,0.197,0,0.197,0,0.395h3.751c0-0.197,0-0.197,0-0.395
					c0-0.395-0.197-0.79-0.395-0.987C324.755,228.919,324.952,228.525,324.952,228.13z M318.24,228.13
					c-0.197,0.197-0.197,0.197-0.395,0.395v0.197c0.197-0.197,0.395-0.197,0.592-0.395C318.437,228.13,318.24,228.13,318.24,228.13z
					"/>
				<path fill="#393944" d="M414.383,207.401v-4.343h-4.146v0.79c-0.395,0-0.79,0.395-0.79,0.987s0.395,0.987,0.79,0.987v1.382
					h-3.356v14.412h10.858v-14.412h-3.356L414.383,207.401L414.383,207.401z"/>
			</g>
		</g>
	</g>
</g>
</svg>
