<?xml version="1.0" encoding="utf-8"?>
<!-- Generator: Adobe Illustrator 24.3.0, SVG Export Plug-In . SVG Version: 6.00 Build 0)  -->
<svg version="1.1" id="Слой_1" xmlns="http://www.w3.org/2000/svg" xmlns:xlink="http://www.w3.org/1999/xlink" x="0px" y="0px"
	 viewBox="0 0 267 190" style="enable-background:new 0 0 267 190;" xml:space="preserve">
<style type="text/css">
	.st0{clip-path:url(#SVGID_2_);}
	.st1{fill:#B7B7B7;}
	.st2{fill:url(#SVGID_3_);}
	.st3{opacity:0.1;}
	.st4{opacity:0.1;enable-background:new    ;}
	.st5{fill:#3F3D56;}
	.st6{opacity:0.2;fill:#B7B7B7;enable-background:new    ;}
	.st7{fill:none;stroke:#3F3D56;stroke-width:2;stroke-miterlimit:10;}
	.st8{fill:#FBBEBE;}
	.st9{opacity:0.2;fill:#FFFFFF;enable-background:new    ;}
	.st10{opacity:0.2;enable-background:new    ;}
	.st11{fill:#FFFFFF;}
</style>
<g>
	<defs>
		<rect id="SVGID_1_" y="2.7" width="267" height="184.6"/>
	</defs>
	<clipPath id="SVGID_2_">
		<use xlink:href="#SVGID_1_"  style="overflow:visible;"/>
	</clipPath>
	<g class="st0">
		<path class="st1" d="M248.3,123.6c-1.3,3.8-2,7.9-1.8,12.1c0.1,4.1,1,8.2,2.6,11.9c0.2,0.4,0.4,0.9,0.6,1.4c2.5,5.4,6,11,4.1,16.5
			c-1.5,4.3-5.7,6.6-9.5,8.3c-15,6.5-30.8,10.8-46.9,12.5c-11.9,1.3-23.8,1.2-35.7,1.2c-25.8-0.1-51.6-0.3-77.3-2.5
			c-11.8-1-23.5-2.5-34.9-6.2c-15.5-5.1-29.7-14.1-41.4-26.4c-0.4-0.4-0.8-0.9-1.2-1.3c-2.5-2.7-4.7-5.8-5.8-9.4
			c-2.3-7.3,0.4-15.2,3.9-21.9c3.5-6.6,7.8-13,9.3-20.5c2.1-11.1-2.6-22.1-6.1-32.7c-3.6-10.6-5.9-23.3,0-32.5
			c2.9-4.5,7.4-7.4,11.9-9.9C33,16.8,47.5,12.9,62.3,12.6c8.6-0.2,17.5,0.8,25.6-2.6c4.5-1.9,8.6-5.1,13.3-6.4
			c8-2.1,16.2,1.6,23.4,6.1c4.1,2.6,8.1,5.3,12.4,7.5c3.1,1.6,6.7,3.4,10,4.3c3.3,1,6.6-1,9.5-2.6c6.2-3.4,12-8.6,19.2-9.4
			c9-1,18,5.4,26.9,3.4c3.8-0.9,7.2-3.2,10.9-4.5c9.7-3.4,20.1,0.8,29.2,5.6c5.7,3,11.4,6.5,14.9,12.3c2.7,4.4,3.9,9.7,4.9,14.9
			c4.1,19.7,7.9,41.5-0.9,59.2C257.7,108.4,251.3,115,248.3,123.6z"/>
		
			<linearGradient id="SVGID_3_" gradientUnits="userSpaceOnUse" x1="133.496" y1="4.942" x2="133.496" y2="189.2805" gradientTransform="matrix(1 0 0 -1 0 192)">
			<stop  offset="0" style="stop-color:#000000;stop-opacity:0.2"/>
			<stop  offset="0.48" style="stop-color:#FFFFFF;stop-opacity:0"/>
			<stop  offset="1" style="stop-color:#FFFFFF;stop-opacity:0"/>
		</linearGradient>
		<path class="st2" d="M265.3,89.9c-0.8,3.5-2.1,6.9-3.6,10.2c-4,8.1-10.4,14.7-13.4,23.3c-0.4,1.3-0.8,2.6-1.1,3.9
			c-0.1,0.5-0.2,1.1-0.3,1.6c-1,6.2-0.3,12.6,2.2,18.4c0.2,0.4,0.4,0.9,0.6,1.4c2.5,5.4,6,11,4.1,16.5c-0.2,0.6-0.4,1.1-0.7,1.6
			c-1.8,3.3-5.5,5.2-8.8,6.7c-15,6.5-30.8,10.8-46.9,12.5c-3.1,0.3-6.2,0.6-9.3,0.8c-8.8,0.5-17.6,0.5-26.4,0.4
			c-25.8-0.1-51.6-0.3-77.3-2.5c-11.8-1-23.5-2.5-34.9-6.2c-15.5-5.1-29.7-14.1-41.4-26.4c-0.4-0.4-0.8-0.9-1.2-1.3
			c-2.5-2.7-4.7-5.8-5.8-9.4c-1.6-5-0.7-10.4,1-15.4c0.8-2.2,1.8-4.4,2.9-6.5c0.3-0.6,0.6-1.1,0.9-1.7c3.3-6,7-11.9,8.3-18.8
			c1.6-8.5-0.8-16.9-3.5-25.2c-0.2-0.7-0.5-1.5-0.7-2.2c-0.6-1.8-1.3-3.6-1.9-5.4c-3.6-10.6-5.9-23.3,0-32.5
			c0.2-0.3,0.3-0.5,0.5-0.8c2.8-3.9,6.7-6.6,10.8-8.8l0.5-0.3C33,16.6,47.5,12.7,62.3,12.3c8.6-0.2,17.5,0.8,25.6-2.6
			c4.5-1.9,8.6-5.1,13.3-6.4c8-2.1,16.2,1.6,23.4,6.1c4.1,2.5,8.1,5.3,12.4,7.5c3.1,1.6,6.7,3.4,10,4.3c3.3,1,6.6-1,9.5-2.6
			c6.2-3.4,12-8.6,19.2-9.4c9-1,18,5.4,26.9,3.4c3.8-0.9,7.2-3.2,10.9-4.5c9.7-3.4,20.1,0.8,29.2,5.6c5,2.7,10,5.7,13.6,10.3
			c0.5,0.6,0.9,1.3,1.4,2c0,0.1,0.1,0.2,0.1,0.2c2.6,4.3,3.7,9.6,4.8,14.6c2.1,9.9,4.1,20.4,4.4,30.6
			C267.2,77.8,266.7,84,265.3,89.9z"/>
		<g class="st3">
			<path class="st4" d="M253.7,165.1c-0.2,0.6-0.4,1.1-0.7,1.6c-12.8,7.2-26.4,12.3-40.5,15.2c-7.9,1.6-16.1,3.2-24.5,4.7
				c-8.8,0.5-17.6,0.5-26.4,0.4c-25.8-0.1-51.6-0.3-77.3-2.5c-11.8-1-23.5-2.5-34.9-6.2c-15.5-5.1-29.7-14.1-41.4-26.4
				c-0.4-0.4-0.8-0.9-1.2-1.3c-2.5-2.7-4.7-5.8-5.8-9.4c-1.6-5-0.7-10.4,1-15.4l245,3.1c-1,6.2-0.3,12.6,2.2,18.4
				c0.2,0.4,0.4,0.9,0.6,1.4C252.1,154,255.6,159.6,253.7,165.1z"/>
			<path class="st4" d="M256.2,24.1H19.1l0.5-0.3C33,16.6,47.5,12.7,62.3,12.3c8.6-0.2,17.5,0.8,25.6-2.6c4.5-1.9,8.6-5.1,13.3-6.4
				c8-2.1,16.2,1.6,23.4,6.1c4.1,2.5,8.1,5.3,12.4,7.5c3.1,1.6,6.7,3.4,10,4.3c3.3,1,6.6-1,9.5-2.6c6.2-3.4,12-8.6,19.2-9.4
				c9-1,18,5.4,26.9,3.4c3.8-0.9,7.2-3.2,10.9-4.5c9.7-3.4,20.1,0.8,29.2,5.6C247.6,16.4,252.7,19.5,256.2,24.1z"/>
			<path class="st4" d="M10.5,73.7c2.8,8.3,5.2,16.7,3.5,25.2c-1.3,6.9-5.1,12.7-8.3,18.8l241.5,9.6c0.3-1.3,0.7-2.6,1.1-3.9
				c3-8.6,9.4-15.2,13.4-23.3c1.6-3.2,2.8-6.6,3.6-10.2L10.5,73.7z M107.4,104h-6.1c0.4,0,0.8,0.1,1.2,0.2c0.4,0.2,0.7,0.4,1,0.7
				c0.3,0.3,0.5,0.7,0.7,1.1c0.2,0.4,0.2,0.9,0.2,1.3c0,0.4-0.1,0.9-0.2,1.3c-0.2,0.4-0.4,0.8-0.7,1.1c-0.3,0.3-0.6,0.6-1,0.7
				c-0.4,0.2-0.8,0.2-1.2,0.2H65.9c-0.4,0-0.8-0.1-1.2-0.2c-0.4-0.2-0.7-0.4-1-0.7s-0.5-0.7-0.7-1.1c-0.2-0.4-0.2-0.9-0.2-1.3
				c0-0.4,0.1-0.9,0.2-1.3c0.2-0.4,0.4-0.8,0.7-1.1s0.6-0.6,1-0.7c0.4-0.2,0.8-0.2,1.2-0.2H72c-0.4,0-0.8-0.1-1.2-0.2
				c-0.4-0.2-0.7-0.4-1-0.7c-0.3-0.3-0.5-0.7-0.7-1.1c-0.2-0.4-0.2-0.9-0.2-1.3c0-0.4,0.1-0.9,0.2-1.3c0.2-0.4,0.4-0.8,0.7-1.1
				c0.3-0.3,0.6-0.6,1-0.7c0.4-0.2,0.8-0.2,1.2-0.2h-4.4c-0.8,0-1.6-0.4-2.1-1c-0.6-0.6-0.9-1.5-0.9-2.4c0-0.9,0.3-1.7,0.9-2.4
				c0.6-0.6,1.3-1,2.1-1h35.4c0.8,0,1.6,0.4,2.1,1c0.6,0.6,0.9,1.5,0.9,2.4c0,0.9-0.3,1.7-0.9,2.4c-0.6,0.6-1.3,1-2.1,1h4.4
				c0.4,0,0.8,0.1,1.2,0.2c0.4,0.2,0.7,0.4,1,0.7c0.3,0.3,0.5,0.7,0.7,1.1c0.2,0.4,0.2,0.9,0.2,1.3c0,0.4-0.1,0.9-0.2,1.3
				c-0.2,0.4-0.4,0.8-0.7,1.1c-0.3,0.3-0.6,0.6-1,0.7C108.2,103.9,107.8,104,107.4,104L107.4,104z"/>
			<path class="st4" d="M262.5,40.9c-1.1-5.1-2.2-10.3-4.8-14.6L8.4,32.9c-0.2,0.3-0.3,0.5-0.5,0.8c-5.9,9.2-3.6,21.9,0,32.5
				c0.6,1.8,1.2,3.6,1.9,5.3h257.2C266.6,61.3,264.6,50.8,262.5,40.9z M53.4,53.8h-6.1c0.4,0,0.8,0.1,1.2,0.2c0.4,0.2,0.7,0.4,1,0.7
				c0.3,0.3,0.5,0.7,0.7,1.1c0.2,0.4,0.2,0.9,0.2,1.3c0,0.4-0.1,0.9-0.2,1.3c-0.2,0.4-0.4,0.8-0.7,1.1c-0.3,0.3-0.6,0.6-1,0.7
				c-0.4,0.2-0.8,0.2-1.2,0.2H11.9c-0.4,0-0.8-0.1-1.2-0.2c-0.4-0.2-0.7-0.4-1-0.7c-0.3-0.3-0.5-0.7-0.7-1.1
				c-0.2-0.4-0.2-0.9-0.2-1.3c0-0.4,0.1-0.9,0.2-1.3c0.2-0.4,0.4-0.8,0.7-1.1c0.3-0.3,0.6-0.6,1-0.7c0.4-0.2,0.8-0.2,1.2-0.2H18
				c-0.4,0-0.8-0.1-1.2-0.2c-0.4-0.2-0.7-0.4-1-0.7c-0.3-0.3-0.5-0.7-0.7-1.1c-0.2-0.4-0.2-0.9-0.2-1.3c0-0.4,0.1-0.9,0.2-1.3
				c0.2-0.4,0.4-0.8,0.7-1.1c0.3-0.3,0.6-0.6,1-0.7c0.4-0.2,0.8-0.2,1.2-0.2h-4.4c-0.8,0-1.6-0.4-2.1-1c-0.6-0.6-0.9-1.5-0.9-2.4
				c0-0.9,0.3-1.7,0.9-2.4c0.6-0.6,1.3-1,2.1-1H49c0.8,0,1.6,0.4,2.1,1c0.6,0.6,0.9,1.5,0.9,2.4c0,0.9-0.3,1.7-0.9,2.4
				c-0.6,0.6-1.3,1-2.1,1h4.4c0.4,0,0.8,0.1,1.2,0.2c0.4,0.2,0.7,0.4,1,0.7c0.3,0.3,0.5,0.7,0.7,1.1c0.2,0.4,0.2,0.9,0.2,1.3
				c0,0.4-0.1,0.9-0.2,1.3c-0.2,0.4-0.4,0.8-0.7,1.1c-0.3,0.3-0.6,0.6-1,0.7C54.2,53.7,53.8,53.8,53.4,53.8L53.4,53.8z"/>
		</g>
		<path class="st5" d="M253.7,165.3c-1.5,4.3-5.7,6.6-9.5,8.3c-15,6.5-30.8,10.8-46.9,12.5c-11.9,1.3-23.8,1.2-35.7,1.2
			c-25.8-0.1-51.6-0.3-77.3-2.5c-11.8-1-23.5-2.5-34.9-6.2c-15.5-5.1-29.7-14.1-41.4-26.4c-0.4-0.4-0.8-0.9-1.2-1.3
			c3.5-0.5,7.1-0.6,10.6-0.3c9.9,0.7,19.6,3.8,29.5,5.1c38.3,5.1,77.5-15.7,114.9-5.3c11.5,3.2,22.5,9.3,34.3,10.6
			c17.5,1.8,34.2-7.2,51.4-11.5c0.7-0.2,1.5-0.4,2.2-0.5C252.1,154.2,255.6,159.8,253.7,165.3z"/>
		<path class="st5" d="M207.6,76.2h-1.2v71.6h1.2V76.2z"/>
		<path class="st5" d="M208.7,161.2c-0.5,0.5-1.2,0.7-1.9,0.7c-0.7,0-1.3-0.2-1.9-0.7c-0.5-3.8,0.8-11.4,1.1-13.1
			c0-0.2,0.1-0.3,0.1-0.3h1.5c0.1,0.1,0.2,0.2,0.2,0.4C209,150.7,208.7,161.2,208.7,161.2z"/>
		<path class="st4" d="M207.4,146.3v1.5h-0.6v-1.6c0.1,0,0.2,0,0.3,0C207.1,146.3,207.3,146.3,207.4,146.3z"/>
		<path class="st4" d="M207.9,148.2c-0.3,0.2-0.6,0.2-0.9,0.2c-0.3,0-0.7-0.1-0.9-0.3c0-0.2,0.1-0.3,0.1-0.3h1.5
			C207.8,148,207.9,148.1,207.9,148.2z"/>
		<path class="st5" d="M207,148.2c0.7,0,1.3-0.4,1.3-0.8s-0.6-0.8-1.3-0.8s-1.3,0.4-1.3,0.8S206.3,148.2,207,148.2z"/>
		<path class="st5" d="M201.4,64.7l4.4-2.1l6.7,1.4l-5.1-4.3L201.4,64.7z"/>
		<path class="st1" d="M202.8,65.4l-1.3-0.8l4.5-2.4l6.6,1.7l-1.2,0.6l-5.5-1.3L202.8,65.4z"/>
		<path class="st5" d="M202.8,65.4l-1.3-0.8l4.6-2.6l6.5,2l-1.2,0.6l-5.5-1.3L202.8,65.4z"/>
		<path class="st5" d="M202.6,64.9l3.6,11.1h1.8l3.3-11.8l-5.4-1.4L202.6,64.9z"/>
		<path class="st5" d="M208.9,72.9l-0.7,2.5L208,76h-1.8l-0.1-0.4l-0.8-2.6l1.4-0.9L208.9,72.9z"/>
		<path class="st6" d="M205.9,63.3l0.9,12.7h-0.6l-3.4-10.6L205.9,63.3z"/>
		<path class="st4" d="M207.4,59.8l-1.5,2.5l-4.5,2.4L207.4,59.8z"/>
		<path class="st4" d="M208.1,75.4L208,76h-1.8l-0.1-0.4c0.2-0.2,0.3-0.3,0.5-0.4c0.2-0.1,0.4-0.1,0.6-0.1
			C207.5,75.1,207.9,75.2,208.1,75.4z"/>
		<path class="st4" d="M207.4,76.2v1.1c-0.1,0-0.1,0-0.2,0c-0.2,0-0.3,0-0.5-0.1v-1L207.4,76.2z"/>
		<path class="st5" d="M207.2,77c0.7,0,1.3-0.4,1.3-0.8c0-0.5-0.6-0.8-1.3-0.8c-0.7,0-1.3,0.4-1.3,0.8C205.9,76.7,206.5,77,207.2,77
			z"/>
		<path class="st5" d="M150,149c0,0-15.3-0.7-16.9-33.7c-1.6-33,14.4-38.6,14.4-38.6s5.1-3.1,7.3-3.2c2.2-0.1,9.7,0.7,9.7,0.7
			l-8.3-1.8c0,0,11.6-4.9,15.1-5.3l-12.6,2.9c0,0-0.2-7.7,2.8-10.2c0,0-2.6-0.2-3.9,5.3c-0.4,1.6-1.1,3.1-2.1,4.3
			c-1,1.2-2.2,2.2-3.6,2.8c-4.7,2-11.1,5.2-12.6,7.9c0,0-2.7,3.1-2.3-5c0.4-8.1,2.4-15.1,3.1-15.3c0,0,5.6-6.5,13.3-6.9
			c0,0-4.5-2-12.2,4.3c0,0-0.6-3.2,2.2-7c2.9-3.8,7.4-11.7,12.3-12.5c0,0-6.8-0.5-12.3,9.3c0,0-2,1.4-2.2-2.2
			c-0.2-3.6-1.4-8.2-1.4-8.2s-1.7,8.4,1.8,12.1c0,0-6.7,9.5-6.4,20.3c0,0-2.1,4.9-2.8-0.8c0,0-0.4-7.9-1.3-14.5
			c-0.4-2.7-0.2-5.4,0.4-8.1c0.6-2.6,1.8-5.1,3.3-7.2c1.5-2,2.5-4,1.9-5l-7.7,10.1c0,0-6.5-16.6-11.2-20.1c-4.7-3.6-5.3-4.4-5.3-4.4
			l7.6,9.8l-9.6-3.7l9.6,4.9c0,0,4.4,4,7,14.8c2.5,10.8,2.8,17.6,2.8,17.6s-13.6-11.9-16.2-11.5l8.8,7.3c2.4,2,4.4,4.5,5.8,7.5
			c1.4,2.9,2.3,6.1,2.5,9.4c0,0-17.1-4.8-21.2-5.7l-7.8-8.8l5.9,8.3l-12.2-0.2l-7-5.5c0,0,5.5,5.1,5,5.4C93.1,69,85,69.4,85,69.4
			s20.4-0.1,22.7,1.5c2.2,1.6,7.3,2.2,7.3,2.2l-14.5,2.4l17.2-1.4c0,0,13,2.6,13.8,7.1c0,0-2.7,7.6-4.4,10.7
			c-1.5,2.5-4.4,10.7-5,17.8c-0.6,7.1-1.4,18.1,0.8,24.8c2.2,6.7,3.1,10.5,1.9,12.5c-1.1,2-2.2,4.6,1.5,5.1
			c3.7,0.5,19.7-0.3,19.7-0.3S150.9,152.9,150,149z"/>
		<path class="st4" d="M141.4,145.4c-1.6-0.9-3.4-1.2-5.2-0.7c-3,0.7-7.6,0.3-8,0.3"/>
		<path class="st4" d="M131.8,106.5c0,0-0.7,12.7,0.6,15.2L131.8,106.5z"/>
		<path class="st4" d="M129.1,121.7c0,0,0.9,11.9,1.6,14.2C131.3,138.3,129.1,121.7,129.1,121.7z"/>
		<path class="st4" d="M128.2,92.5c-0.7,0.3-3.5,6.6-2.9,8.5C125.8,102.8,128.2,92.5,128.2,92.5z"/>
		<path class="st4" d="M135.4,85.9c-0.3,0.2-1.6,3.8-1.4,4.9C134.3,91.9,135.4,85.9,135.4,85.9z"/>
		<path class="st4" d="M123.1,107.2c0.3,3.7,0.5,6.1,0.3,9.1c-0.2,2.3-0.1,4.6,0.1,6.9"/>
		<path class="st4" d="M158.7,64.3c-0.4,0.5-0.6,1.2-0.6,1.9c0,0.7,0.1,1.3,0,2c0,0.7-0.3,1.5-1,1.6"/>
		<path class="st4" d="M147.8,42.3c-0.8,0.9-1.5,1.9-2.1,2.9c-0.2,0.3-0.4,0.7-0.6,0.9c-0.4,0.4-0.8,0.7-1.2,1.1
			c-0.9,0.8-1.6,2-1.9,3.2"/>
		<path class="st4" d="M116.9,23.3c0.2,0.4,0.4,0.8,0.8,1.1c0.3,0.3,0.6,0.5,0.8,0.8c0.2,0.3,0.4,0.6,0.5,0.8c0.6,1.1,1.4,2.1,2.2,3
			"/>
		<path class="st4" d="M131.2,42.1c-0.5,0.3-0.6,1.1-0.6,1.8c0,0.7,0.1,1.3-0.1,2c-0.1,0.3-0.3,0.5-0.4,0.8c-0.2,0.5-0.2,1-0.2,1.5
			c0,0.6,0,1.2,0.1,1.8c0,0.7,0.1,1.5,0.5,2"/>
		<path class="st4" d="M130.8,77.7c-0.3-0.3-0.7-0.6-1.1-0.8c-0.3-0.2-0.7-0.4-1.1-0.5c-0.6-0.2-1.2-0.1-1.8-0.2
			c-0.6-0.1-1.2-0.3-1.7-0.7"/>
		<path class="st4" d="M106.8,69.5c0.7,0,1.5,0.1,2.1,0.4c0.3,0.2,0.6,0.4,0.9,0.6c0.4,0.3,0.9,0.4,1.4,0.4"/>
		<path class="st4" d="M116.7,72.8c-0.1-0.1-0.2-0.1-0.3,0c-0.1,0-0.2,0.1-0.2,0.2c-0.1,0.2-0.2,0.4-0.3,0.5
			c-0.3,0.3-0.7,0.3-1.1,0.4"/>
		<path class="st4" d="M120.9,56l0.7,0.4c0.7,0.4,1.4,0.8,2,1.4"/>
		<path class="st4" d="M128.7,63.4c0.5-0.1,0.8,0.4,0.9,0.9c0.1,0.5,0,1,0.1,1.5c0.1,0.4,0.4,0.8,0.7,1.1"/>
		<path class="st4" d="M136.4,64.3c0.4,1.4-0.5,2.8-0.2,4.2c0.1,0.4,0.3,0.8,0.3,1.2c0.2,1.1-0.2,2.3-0.8,3.2"/>
		<path class="st5" d="M67.5,160.4l0.4,0.8V155h-0.4V160.4z"/>
		<path class="st5" d="M44.6,160.4l-0.4,0.8V155h0.4V160.4z"/>
		<path class="st5" d="M47.1,143.7h-1v7.6h1V143.7z"/>
		<path class="st5" d="M66.8,143.7h-1v7.6h1V143.7z"/>
		<g class="st3">
			<path class="st4" d="M47.1,143.7h-1v7.6h1V143.7z"/>
			<path class="st4" d="M66.8,143.7h-1v7.6h1V143.7z"/>
		</g>
		<path class="st4" d="M47.1,143.7h-1v0.9h1V143.7z"/>
		<path class="st4" d="M66.8,143.7h-1v0.9h1V143.7z"/>
		<path class="st5" d="M68.2,143.4H44.6v1.1h23.6V143.4z"/>
		<path class="st4" d="M47.1,145h-1v1.1h1V145z"/>
		<path class="st4" d="M66.8,145h-1v1.1h1V145z"/>
		<path class="st5" d="M68.2,144.9H44.6v1.1h23.6V144.9z"/>
		<path class="st4" d="M47.1,146.6h-1v1.1h1V146.6z"/>
		<path class="st4" d="M66.8,146.6h-1v1.1h1V146.6z"/>
		<path class="st5" d="M68.2,146.5H44.6v1.1h23.6V146.5z"/>
		<path class="st4" d="M47.1,148.1h-1v1.1h1V148.1z"/>
		<path class="st4" d="M66.8,148.1h-1v1.1h1V148.1z"/>
		<path class="st5" d="M68.2,148H44.6v1.1h23.6V148z"/>
		<path class="st4" d="M47.1,149.6h-1v1.1h1V149.6z"/>
		<path class="st4" d="M66.8,149.6h-1v1.1h1V149.6z"/>
		<path class="st5" d="M68.2,149.6H44.6v1.1h23.6V149.6z"/>
		<g class="st3">
			<path class="st4" d="M46.6,144.2c0.1,0,0.1-0.1,0.1-0.2c0-0.1-0.1-0.2-0.1-0.2c-0.1,0-0.1,0.1-0.1,0.2
				C46.4,144.1,46.5,144.2,46.6,144.2z"/>
			<path class="st4" d="M46.6,145.7c0.1,0,0.1-0.1,0.1-0.2c0-0.1-0.1-0.2-0.1-0.2c-0.1,0-0.1,0.1-0.1,0.2
				C46.4,145.7,46.5,145.7,46.6,145.7z"/>
			<path class="st4" d="M46.6,147.3c0.1,0,0.1-0.1,0.1-0.2s-0.1-0.2-0.1-0.2c-0.1,0-0.1,0.1-0.1,0.2S46.5,147.3,46.6,147.3z"/>
			<path class="st4" d="M46.6,148.8c0.1,0,0.1-0.1,0.1-0.2c0-0.1-0.1-0.2-0.1-0.2c-0.1,0-0.1,0.1-0.1,0.2
				C46.4,148.7,46.5,148.8,46.6,148.8z"/>
			<path class="st4" d="M46.6,150.3c0.1,0,0.1-0.1,0.1-0.2c0-0.1-0.1-0.2-0.1-0.2c-0.1,0-0.1,0.1-0.1,0.2
				C46.4,150.3,46.5,150.3,46.6,150.3z"/>
			<path class="st4" d="M66.3,144.2c0.1,0,0.1-0.1,0.1-0.2c0-0.1-0.1-0.2-0.1-0.2c-0.1,0-0.1,0.1-0.1,0.2
				C66.1,144.1,66.2,144.2,66.3,144.2z"/>
			<path class="st4" d="M66.3,145.7c0.1,0,0.1-0.1,0.1-0.2c0-0.1-0.1-0.2-0.1-0.2c-0.1,0-0.1,0.1-0.1,0.2
				C66.1,145.7,66.2,145.7,66.3,145.7z"/>
			<path class="st4" d="M66.3,147.3c0.1,0,0.1-0.1,0.1-0.2s-0.1-0.2-0.1-0.2c-0.1,0-0.1,0.1-0.1,0.2S66.2,147.3,66.3,147.3z"/>
			<path class="st4" d="M66.3,148.8c0.1,0,0.1-0.1,0.1-0.2c0-0.1-0.1-0.2-0.1-0.2c-0.1,0-0.1,0.1-0.1,0.2
				C66.1,148.7,66.2,148.8,66.3,148.8z"/>
			<path class="st4" d="M66.3,150.3c0.1,0,0.1-0.1,0.1-0.2c0-0.1-0.1-0.2-0.1-0.2c-0.1,0-0.1,0.1-0.1,0.2
				C66.1,150.3,66.2,150.3,66.3,150.3z"/>
		</g>
		<path class="st5" d="M46.6,144.1c0.1,0,0.1-0.1,0.1-0.2c0-0.1-0.1-0.2-0.1-0.2c-0.1,0-0.1,0.1-0.1,0.2
			C46.4,144.1,46.5,144.1,46.6,144.1z"/>
		<path class="st5" d="M46.6,145.7c0.1,0,0.1-0.1,0.1-0.2c0-0.1-0.1-0.2-0.1-0.2c-0.1,0-0.1,0.1-0.1,0.2
			C46.4,145.6,46.5,145.7,46.6,145.7z"/>
		<path class="st5" d="M46.6,147.2c0.1,0,0.1-0.1,0.1-0.2c0-0.1-0.1-0.2-0.1-0.2c-0.1,0-0.1,0.1-0.1,0.2
			C46.4,147.1,46.5,147.2,46.6,147.2z"/>
		<path class="st5" d="M46.6,148.7c0.1,0,0.1-0.1,0.1-0.2s-0.1-0.2-0.1-0.2c-0.1,0-0.1,0.1-0.1,0.2S46.5,148.7,46.6,148.7z"/>
		<path class="st5" d="M46.6,150.3c0.1,0,0.1-0.1,0.1-0.2c0-0.1-0.1-0.2-0.1-0.2c-0.1,0-0.1,0.1-0.1,0.2
			C46.4,150.2,46.5,150.3,46.6,150.3z"/>
		<path class="st5" d="M46.6,144.1c0.1,0,0.1-0.1,0.1-0.2c0-0.1-0.1-0.2-0.1-0.2c-0.1,0-0.1,0.1-0.1,0.2
			C46.4,144.1,46.5,144.1,46.6,144.1z"/>
		<path class="st5" d="M46.6,145.7c0.1,0,0.1-0.1,0.1-0.2c0-0.1-0.1-0.2-0.1-0.2c-0.1,0-0.1,0.1-0.1,0.2
			C46.4,145.6,46.5,145.7,46.6,145.7z"/>
		<path class="st5" d="M46.6,147.2c0.1,0,0.1-0.1,0.1-0.2c0-0.1-0.1-0.2-0.1-0.2c-0.1,0-0.1,0.1-0.1,0.2
			C46.4,147.1,46.5,147.2,46.6,147.2z"/>
		<path class="st5" d="M46.6,148.7c0.1,0,0.1-0.1,0.1-0.2s-0.1-0.2-0.1-0.2c-0.1,0-0.1,0.1-0.1,0.2S46.5,148.7,46.6,148.7z"/>
		<path class="st5" d="M46.6,150.3c0.1,0,0.1-0.1,0.1-0.2c0-0.1-0.1-0.2-0.1-0.2c-0.1,0-0.1,0.1-0.1,0.2
			C46.4,150.2,46.5,150.3,46.6,150.3z"/>
		<path class="st5" d="M66.3,144.1c0.1,0,0.1-0.1,0.1-0.2c0-0.1-0.1-0.2-0.1-0.2c-0.1,0-0.1,0.1-0.1,0.2
			C66.1,144.1,66.2,144.1,66.3,144.1z"/>
		<path class="st5" d="M66.3,145.7c0.1,0,0.1-0.1,0.1-0.2c0-0.1-0.1-0.2-0.1-0.2c-0.1,0-0.1,0.1-0.1,0.2
			C66.1,145.6,66.2,145.7,66.3,145.7z"/>
		<path class="st5" d="M66.3,147.2c0.1,0,0.1-0.1,0.1-0.2c0-0.1-0.1-0.2-0.1-0.2c-0.1,0-0.1,0.1-0.1,0.2
			C66.1,147.1,66.2,147.2,66.3,147.2z"/>
		<path class="st5" d="M66.3,148.7c0.1,0,0.1-0.1,0.1-0.2s-0.1-0.2-0.1-0.2c-0.1,0-0.1,0.1-0.1,0.2S66.2,148.7,66.3,148.7z"/>
		<path class="st5" d="M66.3,150.3c0.1,0,0.1-0.1,0.1-0.2c0-0.1-0.1-0.2-0.1-0.2c-0.1,0-0.1,0.1-0.1,0.2
			C66.1,150.2,66.2,150.3,66.3,150.3z"/>
		<g class="st3">
			<path class="st4" d="M46.6,144.1c0.1,0,0.1-0.1,0.1-0.2c0-0.1-0.1-0.2-0.1-0.2c-0.1,0-0.1,0.1-0.1,0.2
				C46.4,144.1,46.5,144.1,46.6,144.1z"/>
			<path class="st4" d="M46.6,145.7c0.1,0,0.1-0.1,0.1-0.2c0-0.1-0.1-0.2-0.1-0.2c-0.1,0-0.1,0.1-0.1,0.2
				C46.4,145.6,46.5,145.7,46.6,145.7z"/>
			<path class="st4" d="M46.6,147.2c0.1,0,0.1-0.1,0.1-0.2c0-0.1-0.1-0.2-0.1-0.2c-0.1,0-0.1,0.1-0.1,0.2
				C46.4,147.1,46.5,147.2,46.6,147.2z"/>
			<path class="st4" d="M46.6,148.7c0.1,0,0.1-0.1,0.1-0.2s-0.1-0.2-0.1-0.2c-0.1,0-0.1,0.1-0.1,0.2S46.5,148.7,46.6,148.7z"/>
			<path class="st4" d="M46.6,150.3c0.1,0,0.1-0.1,0.1-0.2c0-0.1-0.1-0.2-0.1-0.2c-0.1,0-0.1,0.1-0.1,0.2
				C46.4,150.2,46.5,150.3,46.6,150.3z"/>
			<path class="st4" d="M46.6,144.1c0.1,0,0.1-0.1,0.1-0.2c0-0.1-0.1-0.2-0.1-0.2c-0.1,0-0.1,0.1-0.1,0.2
				C46.4,144.1,46.5,144.1,46.6,144.1z"/>
			<path class="st4" d="M46.6,145.7c0.1,0,0.1-0.1,0.1-0.2c0-0.1-0.1-0.2-0.1-0.2c-0.1,0-0.1,0.1-0.1,0.2
				C46.4,145.6,46.5,145.7,46.6,145.7z"/>
			<path class="st4" d="M46.6,147.2c0.1,0,0.1-0.1,0.1-0.2c0-0.1-0.1-0.2-0.1-0.2c-0.1,0-0.1,0.1-0.1,0.2
				C46.4,147.1,46.5,147.2,46.6,147.2z"/>
			<path class="st4" d="M46.6,148.7c0.1,0,0.1-0.1,0.1-0.2s-0.1-0.2-0.1-0.2c-0.1,0-0.1,0.1-0.1,0.2S46.5,148.7,46.6,148.7z"/>
			<path class="st4" d="M46.6,150.3c0.1,0,0.1-0.1,0.1-0.2c0-0.1-0.1-0.2-0.1-0.2c-0.1,0-0.1,0.1-0.1,0.2
				C46.4,150.2,46.5,150.3,46.6,150.3z"/>
			<path class="st4" d="M66.3,144.1c0.1,0,0.1-0.1,0.1-0.2c0-0.1-0.1-0.2-0.1-0.2c-0.1,0-0.1,0.1-0.1,0.2
				C66.1,144.1,66.2,144.1,66.3,144.1z"/>
			<path class="st4" d="M66.3,145.7c0.1,0,0.1-0.1,0.1-0.2c0-0.1-0.1-0.2-0.1-0.2c-0.1,0-0.1,0.1-0.1,0.2
				C66.1,145.6,66.2,145.7,66.3,145.7z"/>
			<path class="st4" d="M66.3,147.2c0.1,0,0.1-0.1,0.1-0.2c0-0.1-0.1-0.2-0.1-0.2c-0.1,0-0.1,0.1-0.1,0.2
				C66.1,147.1,66.2,147.2,66.3,147.2z"/>
			<path class="st4" d="M66.3,148.7c0.1,0,0.1-0.1,0.1-0.2s-0.1-0.2-0.1-0.2c-0.1,0-0.1,0.1-0.1,0.2S66.2,148.7,66.3,148.7z"/>
			<path class="st4" d="M66.3,150.3c0.1,0,0.1-0.1,0.1-0.2c0-0.1-0.1-0.2-0.1-0.2c-0.1,0-0.1,0.1-0.1,0.2
				C66.1,150.2,66.2,150.3,66.3,150.3z"/>
		</g>
		<path class="st5" d="M68.7,151.7H44l0.6-0.8h23.6L68.7,151.7z"/>
		<path class="st5" d="M69.6,152.9l-26.5-0.1l0.9-1h24.8L69.6,152.9z"/>
		<path class="st5" d="M70.4,154H42.1L43,153l26.6,0L70.4,154z"/>
		<path class="st5" d="M46.4,155v2.2l-0.3,0.7l-0.1-2.7l0-0.3H46.4z"/>
		<path class="st5" d="M66.3,155l0,0.3l-0.1,2.7l-0.3-0.7V155H66.3z"/>
		<path class="st5" d="M46.1,154.9h-0.9v3.1h0.9V154.9z"/>
		<path class="st5" d="M67,154.9h-0.9v3.1H67V154.9z"/>
		<path class="st4" d="M46.1,155.1h0.3v0.3h-1.2v-0.5h0.9V155.1z"/>
		<path class="st4" d="M46.1,154.9h-0.9v3.1h0.9V154.9z"/>
		<path class="st4" d="M67,154.9h-0.9v3.1H67V154.9z"/>
		<path class="st4" d="M67,154.9v0.5h-1.2v-0.3h0.3v-0.2H67z"/>
		<path class="st5" d="M68.1,154.5H44v0.8h24.1V154.5z"/>
		<path class="st4" d="M68.1,154.5H44v0.8h24.1V154.5z"/>
		<path class="st5" d="M44.3,154.4h-1v6.8h1V154.4z"/>
		<path class="st5" d="M67.8,161.2h1v-6.8h-1V161.2z"/>
		<path class="st4" d="M44.3,154.4h-1v6.8h1V154.4z"/>
		<path class="st4" d="M67.8,161.2h1v-6.8h-1V161.2z"/>
		<path class="st4" d="M68.1,154.5H44v0.1L68.1,154.5L68.1,154.5z"/>
		<path class="st4" d="M43.7,155.1c0.1,0,0.1-0.1,0.1-0.2c0-0.1-0.1-0.2-0.1-0.2c-0.1,0-0.1,0.1-0.1,0.2
			C43.6,155,43.6,155.1,43.7,155.1z"/>
		<path class="st4" d="M68.4,155.1c0.1,0,0.1-0.1,0.1-0.2c0-0.1-0.1-0.2-0.1-0.2c-0.1,0-0.1,0.1-0.1,0.2
			C68.3,155,68.3,155.1,68.4,155.1z"/>
		<path class="st5" d="M42.4,153.8l-0.2,0.3v0.2h28.3V154l-0.2-0.3H42.4z"/>
		<path class="st5" d="M70.4,154H42.1v0.5h28.3V154z"/>
		<path class="st5" d="M113.6,141.6c-0.1,0.2-0.2,0.4-0.3,0.6c0,0.1,0,0.1-0.1,0.2c0,0-0.1,0-0.1,0c-0.2,0-0.3-0.1-0.5,0
			c0-0.1,0-0.1,0-0.2c0-0.8-0.1-1.9-0.7-1.4c-0.7,0.5-0.2,1.2,0.2,1.7l0.1,0.1c-0.4,0.3-0.5,1-0.5,1.7c-0.1,0.7-0.6,1.5-1,2
			l-0.1,0.1c-0.2-0.1-0.3-0.2-0.5-0.3c-0.2-0.1-0.4-0.1-0.6,0c0-0.1,0-0.1-0.1-0.2c-0.3-1.2-0.9-3.3-1.7-3.8c0,0,0.1-0.1,0.1-0.1
			c0.3-0.5,0.7-1.2,0.2-1.4c-0.6-0.2-0.6,0.6-0.6,1.3c0,0.1,0,0.2,0,0.2c-0.1,0-0.2,0-0.3,0.1c-0.1,0.1-0.2,0.1-0.3,0.2l-0.1-0.1
			c-0.5-0.6-1.3-1.6-1.6-0.8c-0.2,0.7,0.5,1.5,1,2l0,0c-0.4,1.6,1.2,2.9,2,3.4l0.1,0.1c-1.2,1.5-1.8,4.3-1.8,4.3l3.2,0.6
			c0,0,2.1-2,1.8-3.9h0c2.1-0.5,2.6-3,2.3-4.4l0,0c0.4-0.2,0.7-0.5,1-0.8C115.4,141.8,114.2,140.8,113.6,141.6z"/>
		<path class="st4" d="M113.6,141.6c-0.1,0.2-0.2,0.4-0.3,0.6c0,0.1,0,0.1-0.1,0.2c0,0-0.1,0-0.1,0c-0.2,0-0.3-0.1-0.5,0
			c0-0.1,0-0.1,0-0.2c0-0.8-0.1-1.9-0.7-1.4c-0.7,0.5-0.2,1.2,0.2,1.7l0.1,0.1c-0.4,0.3-0.5,1-0.5,1.7c-0.1,0.7-0.6,1.5-1,2
			l-0.1,0.1c-0.2-0.1-0.3-0.2-0.5-0.3c-0.2-0.1-0.4-0.1-0.6,0c0-0.1,0-0.1-0.1-0.2c-0.3-1.2-0.9-3.3-1.7-3.8c0,0,0.1-0.1,0.1-0.1
			c0.3-0.5,0.7-1.2,0.2-1.4c-0.6-0.2-0.6,0.6-0.6,1.3c0,0.1,0,0.2,0,0.2c-0.1,0-0.2,0-0.3,0.1c-0.1,0.1-0.2,0.1-0.3,0.2l-0.1-0.1
			c-0.5-0.6-1.3-1.6-1.6-0.8c-0.2,0.7,0.5,1.5,1,2l0,0c-0.4,1.6,1.2,2.9,2,3.4l0.1,0.1c-1.2,1.5-1.8,4.3-1.8,4.3l3.2,0.6
			c0,0,2.1-2,1.8-3.9h0c2.1-0.5,2.6-3,2.3-4.4l0,0c0.4-0.2,0.7-0.5,1-0.8C115.4,141.8,114.2,140.8,113.6,141.6z"/>
		<path class="st5" d="M107.2,142.7l-0.4,1.2c0,0-0.2-0.2-0.5-0.4c-0.5-0.5-1.3-1.4-1-2c0.3-0.7,1.1,0.2,1.6,0.8
			C107.1,142.5,107.2,142.7,107.2,142.7z"/>
		<path class="st5" d="M108,142c-0.1,0.2-0.2,0.3-0.4,0.5c0,0,0-0.3-0.1-0.6c0-0.6,0-1.4,0.6-1.3C108.7,140.7,108.3,141.5,108,142z"
			/>
		<path class="st5" d="M112.8,142.2c0,0.4,0,0.7,0,0.7c-0.2-0.1-0.3-0.3-0.5-0.5c-0.4-0.5-0.9-1.2-0.2-1.7
			C112.7,140.3,112.8,141.4,112.8,142.2z"/>
		<path class="st5" d="M115,142.7c-0.3,0.4-0.6,0.6-1,0.8c-0.1,0.1-0.2,0.1-0.3,0.1l-0.4-0.7c0-0.2,0.1-0.4,0.2-0.7
			c0.1-0.2,0.2-0.4,0.3-0.6C114.4,140.8,115.6,141.8,115,142.7z"/>
		<path class="st4" d="M106.9,142.2c0.2,0.3,0.3,0.4,0.3,0.4l-0.4,1.2c0,0-0.2-0.2-0.5-0.4c0.1-0.4,0.2-0.7,0.4-1.1
			C106.8,142.3,106.8,142.3,106.9,142.2z"/>
		<path class="st4" d="M108,142c-0.1,0.2-0.2,0.3-0.4,0.5c0,0,0-0.3-0.1-0.6C107.7,141.8,107.8,141.9,108,142z"/>
		<path class="st5" d="M109.8,146.8l-0.9,0.5c0,0-0.2-0.1-0.5-0.3c-1-0.7-2.9-2.3-1.6-4.3c1.3-2,2.4,1.6,2.9,3.3
			C109.7,146.4,109.8,146.8,109.8,146.8z"/>
		<path class="st4" d="M112.3,142.4c0.1-0.2,0.3-0.2,0.5-0.3c0,0.4,0,0.7,0,0.7C112.6,142.7,112.4,142.6,112.3,142.4z"/>
		<path class="st4" d="M114,143.5c-0.1,0.1-0.2,0.1-0.3,0.1l-0.4-0.7c0-0.2,0.1-0.4,0.2-0.7C113.7,142.5,113.9,142.9,114,143.5z"/>
		<path class="st5" d="M111.7,147.9c-0.1,0-0.1,0-0.2,0c-3.1,0.5-1-1.3-1-1.3s0.1-0.1,0.3-0.4c0.4-0.5,0.9-1.3,1-2
			c0.1-1.1,0.2-2.2,1.4-1.8C114.5,142.7,114.7,147.3,111.7,147.9z"/>
		<path class="st4" d="M109.6,145.9c0.1,0.5,0.2,0.9,0.2,0.9l-0.9,0.5c0,0-0.2-0.1-0.5-0.3C108.8,146.4,109.2,146,109.6,145.9z"/>
		<path class="st4" d="M111.7,147.9c-0.1,0-0.1,0-0.2,0c-3.1,0.5-1-1.3-1-1.3s0.1-0.1,0.3-0.4c0.2,0.2,0.4,0.4,0.6,0.7
			C111.6,147.3,111.7,147.6,111.7,147.9z"/>
		<path class="st5" d="M106.7,151.2c0,0,1.7-6.9,4.2-4.8c2.4,2.1-1,5.4-1,5.4L106.7,151.2z"/>
		<path class="st4" d="M107.5,143.9c0.1,0,0.2-0.1,0.2-0.2c0-0.1-0.1-0.2-0.2-0.2c-0.1,0-0.2,0.1-0.2,0.2
			C107.3,143.8,107.4,143.9,107.5,143.9z"/>
		<path class="st4" d="M107.5,144.9c0.1,0,0.2-0.1,0.2-0.2c0-0.1-0.1-0.2-0.2-0.2c-0.1,0-0.2,0.1-0.2,0.2
			C107.3,144.8,107.4,144.9,107.5,144.9z"/>
		<path class="st4" d="M113.2,144.1c0.1,0,0.2-0.1,0.2-0.2c0-0.1-0.1-0.2-0.2-0.2c-0.1,0-0.2,0.1-0.2,0.2
			C113,144,113.1,144.1,113.2,144.1z"/>
		<path class="st4" d="M108.6,149.3c0.1,0,0.2-0.1,0.2-0.2c0-0.1-0.1-0.2-0.2-0.2c-0.1,0-0.2,0.1-0.2,0.2
			C108.4,149.2,108.5,149.3,108.6,149.3z"/>
		<path class="st4" d="M112.8,145.8c0.1,0,0.2-0.1,0.2-0.2c0-0.1-0.1-0.2-0.2-0.2c-0.1,0-0.2,0.1-0.2,0.2
			C112.6,145.7,112.7,145.8,112.8,145.8z"/>
		<path class="st4" d="M110.8,148c0.1,0,0.2-0.1,0.2-0.2c0-0.1-0.1-0.2-0.2-0.2c-0.1,0-0.2,0.1-0.2,0.2
			C110.6,147.9,110.7,148,110.8,148z"/>
		<path class="st4" d="M108.2,144.3c0.1,0,0.2-0.1,0.2-0.2c0-0.1-0.1-0.2-0.2-0.2c-0.1,0-0.2,0.1-0.2,0.2
			C108,144.2,108.1,144.3,108.2,144.3z"/>
		<path class="st4" d="M112.7,144.7c0.1,0,0.2-0.1,0.2-0.2c0-0.1-0.1-0.2-0.2-0.2c-0.1,0-0.2,0.1-0.2,0.2
			C112.5,144.6,112.6,144.7,112.7,144.7z"/>
		<path class="st4" d="M112,146.4c0.1,0,0.2-0.1,0.2-0.2c0-0.1-0.1-0.2-0.2-0.2c-0.1,0-0.2,0.1-0.2,0.2
			C111.8,146.3,111.9,146.4,112,146.4z"/>
		<path class="st4" d="M109.9,149.1c0.1,0,0.2-0.1,0.2-0.2c0-0.1-0.1-0.2-0.2-0.2c-0.1,0-0.2,0.1-0.2,0.2
			C109.7,149,109.8,149.1,109.9,149.1z"/>
		<path class="st4" d="M109.5,148c0.1,0,0.2-0.1,0.2-0.2c0-0.1-0.1-0.2-0.2-0.2c-0.1,0-0.2,0.1-0.2,0.2
			C109.3,147.9,109.4,148,109.5,148z"/>
		<path class="st4" d="M108.5,145.6c0.1,0,0.2-0.1,0.2-0.2c0-0.1-0.1-0.2-0.2-0.2c-0.1,0-0.2,0.1-0.2,0.2
			C108.3,145.5,108.4,145.6,108.5,145.6z"/>
		<path class="st4" d="M110.2,150.1c0.1,0,0.2-0.1,0.2-0.2c0-0.1-0.1-0.2-0.2-0.2c-0.1,0-0.2,0.1-0.2,0.2
			C110,150,110.1,150.1,110.2,150.1z"/>
		<path class="st4" d="M109,150.3c0.1,0,0.2-0.1,0.2-0.2c0-0.1-0.1-0.2-0.2-0.2c-0.1,0-0.2,0.1-0.2,0.2
			C108.8,150.2,108.9,150.3,109,150.3z"/>
		<path class="st5" d="M79.7,155.8c0,0,3.6-8,5.3-8.4L79.7,155.8z"/>
		<path class="st5" d="M80.6,157.5c0,0,3.6-8,5.3-8.4L80.6,157.5z"/>
		<path class="st5" d="M81.4,159.2c0,0,3.6-8,5.3-8.4L81.4,159.2z"/>
		<path class="st5" d="M95.3,154.2c0,0,3.6-8,5.3-8.4L95.3,154.2z"/>
		<path class="st5" d="M96.2,155.9c0,0,3.6-8,5.3-8.4L96.2,155.9z"/>
		<path class="st5" d="M97,157.7c0,0,3.6-8,5.3-8.4L97,157.7z"/>
		<path class="st5" d="M142.6,146.1c0,0,3.6-8,5.3-8.4L142.6,146.1z"/>
		<path class="st5" d="M143.5,147.8c0,0,3.6-8,5.3-8.4L143.5,147.8z"/>
		<path class="st5" d="M144.3,149.6c0,0,3.6-8,5.3-8.4L144.3,149.6z"/>
		<path class="st5" d="M84.1,157.3c0,0-2.5-8.5-1.6-10L84.1,157.3z"/>
		<path class="st5" d="M98.3,156.4c0,0-2.5-8.5-1.6-10L98.3,156.4z"/>
		<path class="st5" d="M144.3,150.8c0,0-2.5-8.5-1.6-10L144.3,150.8z"/>
		<path class="st7" d="M205.2,163c0,0-3.2-6.2-8-8c-2-0.7-3.8-2.2-5-4.1c-0.6-0.9-1.1-1.9-1.5-2.9"/>
		<path class="st5" d="M187.9,147.1c0.5,0.6,3.1,1.2,3.1,1.2s-0.6-2.8-1.2-3.4c-0.1-0.2-0.3-0.3-0.5-0.4c-0.2-0.1-0.4-0.1-0.5-0.1
			c-0.2,0-0.4,0-0.5,0.1c-0.2,0.1-0.3,0.2-0.5,0.3c-0.1,0.1-0.2,0.3-0.3,0.5c-0.1,0.2-0.1,0.4-0.1,0.6c0,0.2,0.1,0.4,0.1,0.6
			C187.7,146.8,187.8,146.9,187.9,147.1z"/>
		<path class="st5" d="M189.2,151.9c0.7,0.2,3.2-0.9,3.2-0.9s-1.9-2-2.6-2.1c-0.3-0.1-0.7,0-1,0.3c-0.3,0.2-0.5,0.6-0.6,0.9
			c-0.1,0.4,0,0.8,0.2,1.1C188.6,151.6,188.9,151.8,189.2,151.9z"/>
		<path class="st5" d="M194.4,157.3c0.7-0.3,2.4-2.5,2.4-2.5s-2.5-0.6-3.3-0.4c-0.3,0.1-0.6,0.4-0.7,0.8c-0.1,0.4-0.2,0.8-0.1,1.1
			c0.1,0.4,0.4,0.7,0.7,0.9C193.7,157.4,194.1,157.5,194.4,157.3z"/>
		<path class="st5" d="M199.2,160.5c0.8-0.1,2.7-2,2.7-2s-2.4-1.1-3.2-1c-0.2,0-0.4,0.1-0.5,0.2c-0.2,0.1-0.3,0.2-0.4,0.4
			c-0.1,0.2-0.2,0.4-0.2,0.6c0,0.2-0.1,0.4,0,0.6c0,0.2,0.1,0.4,0.2,0.6c0.1,0.2,0.2,0.3,0.4,0.4c0.2,0.1,0.3,0.2,0.5,0.2
			C198.9,160.5,199.1,160.5,199.2,160.5L199.2,160.5z"/>
		<path class="st5" d="M194.5,148.9c0,0.8-1.4,3.3-1.4,3.3s-1.4-2.4-1.4-3.3c0-0.4,0.1-0.8,0.4-1.1c0.3-0.3,0.6-0.4,1-0.4
			c0.4,0,0.7,0.2,1,0.4C194.3,148.1,194.5,148.5,194.5,148.9L194.5,148.9z"/>
		<path class="st5" d="M200.1,152.6c-0.2,0.8-2.2,2.7-2.2,2.7s-0.7-2.8-0.4-3.6c0.1-0.4,0.4-0.7,0.7-0.8c0.3-0.2,0.7-0.2,1-0.1
			c0.3,0.1,0.6,0.4,0.8,0.7C200.1,151.8,200.2,152.2,200.1,152.6z"/>
		<path class="st5" d="M205,157.1c-0.1,0.8-1.8,3-1.8,3s-1.1-2.6-1-3.4c0.1-0.4,0.3-0.7,0.5-1c0.3-0.2,0.6-0.3,1-0.3
			c0.4,0.1,0.7,0.3,0.9,0.6C205,156.3,205.1,156.7,205,157.1L205,157.1z"/>
		<path class="st7" d="M205,162.9c0,0-0.6-7.1-4.3-10.9c-1.6-1.6-2.6-3.7-3-6c-0.2-1.1-0.3-2.2-0.3-3.3"/>
		<path class="st5" d="M195,140.8c0.3,0.8,2.4,2.5,2.4,2.5s0.5-2.8,0.2-3.6c-0.1-0.4-0.4-0.6-0.7-0.8c-0.3-0.1-0.7-0.1-1,0
			c-0.3,0.1-0.6,0.4-0.7,0.8C194.9,140,194.9,140.4,195,140.8z"/>
		<path class="st5" d="M194.5,145.6c0.6,0.5,3.2,0.6,3.2,0.6s-1-2.6-1.6-3.1c-0.3-0.2-0.7-0.3-1-0.2c-0.3,0.1-0.7,0.3-0.9,0.6
			c-0.2,0.3-0.3,0.7-0.2,1.1S194.2,145.4,194.5,145.6z"/>
		<path class="st5" d="M197.3,152.9c0.8,0.1,3.1-1.2,3.1-1.2s-2.1-1.7-2.8-1.8c-0.2,0-0.4,0-0.6,0c-0.2,0.1-0.3,0.1-0.5,0.3
			c-0.1,0.1-0.3,0.3-0.4,0.5c-0.1,0.2-0.1,0.4-0.2,0.6c0,0.2,0,0.4,0.1,0.6c0.1,0.2,0.2,0.4,0.3,0.5c0.1,0.2,0.3,0.3,0.4,0.4
			C196.9,152.9,197.1,152.9,197.3,152.9L197.3,152.9z"/>
		<path class="st5" d="M200.5,157.9c0.7,0.2,3.2-0.6,3.2-0.6s-1.8-2.1-2.5-2.3c-0.2-0.1-0.4-0.1-0.6-0.1c-0.2,0-0.4,0.1-0.5,0.2
			c-0.2,0.1-0.3,0.2-0.4,0.4c-0.1,0.2-0.2,0.4-0.2,0.6c0,0.2-0.1,0.4,0,0.6c0,0.2,0.1,0.4,0.2,0.6c0.1,0.2,0.2,0.3,0.4,0.4
			C200.1,157.8,200.3,157.9,200.5,157.9L200.5,157.9z"/>
		<path class="st5" d="M200.4,145.2c-0.3,0.8-2.5,2.4-2.5,2.4s-0.4-2.8-0.1-3.6c0.1-0.2,0.2-0.4,0.3-0.5c0.1-0.1,0.3-0.3,0.5-0.3
			c0.2-0.1,0.4-0.1,0.5-0.1c0.2,0,0.4,0,0.5,0.1c0.2,0.1,0.3,0.2,0.5,0.4c0.1,0.2,0.2,0.3,0.3,0.5c0.1,0.2,0.1,0.4,0.1,0.6
			C200.6,144.8,200.5,145,200.4,145.2z"/>
		<path class="st5" d="M204.2,151.1c-0.5,0.6-3,1.5-3,1.5s0.4-2.8,0.9-3.5c0.2-0.3,0.6-0.4,0.9-0.5c0.4,0,0.7,0.1,1,0.4
			c0.3,0.3,0.4,0.6,0.5,1C204.5,150.4,204.4,150.8,204.2,151.1z"/>
		<path class="st5" d="M207,157.4c-0.4,0.7-2.7,2-2.7,2s0-2.9,0.4-3.6c0.1-0.2,0.2-0.3,0.4-0.5c0.1-0.1,0.3-0.2,0.5-0.3
			c0.2-0.1,0.4-0.1,0.6,0c0.2,0,0.4,0.1,0.5,0.2c0.2,0.1,0.3,0.2,0.4,0.4c0.1,0.2,0.2,0.4,0.2,0.6c0,0.2,0,0.4,0,0.6
			C207.2,157,207.2,157.2,207,157.4z"/>
		<path class="st5" d="M63.9,104.8c0,0,4.3-0.3,3.8,3c0,0.2,0,0.3-0.1,0.5c-0.1,0.2-0.2,0.3-0.3,0.4c0,0,0-0.3-0.4-0.2
			c-0.2,0-0.3,0-0.5,0c-0.2,0-0.4-0.1-0.6-0.3c0,0-1.2-0.5-1.7-2.7c0,0-0.3-0.5-0.3-0.6l0.7,0.3c-0.1,0.3-0.2,0.7-0.1,1.1
			c0,0,0-1,0.2-1c0,0,0.4,0.2,0.4,0.2s-0.4,1-0.1,1.7c0,0-0.1-1.2,0.2-1.7l0.5,0.3c0,0-0.5,1-0.2,1.9c0,0-0.1-1.3,0.3-1.8l0.5,0.4
			c0,0-0.5,1-0.2,1.7c0,0,0-1.5,0.3-1.6c0.2,0.2,0.3,0.4,0.5,0.6c0,0-0.3,0.7-0.1,1.1c0,0,0.1-1,0.2-1c0.2,0.3,0.4,0.7,0.4,1.1
			c0-0.4-0.1-0.8-0.3-1.2c0.2,0,0.4,0.2,0.6,0.4c0,0-0.1-0.5-0.7-0.5c-0.1-0.2-0.3-0.4-0.4-0.5c0.4,0,0.7,0,1,0.1
			c0,0-0.3-0.4-1.2-0.3l-0.5-0.4c0,0,0.9-0.1,1.2,0c0,0-0.4-0.4-1.3-0.1l-0.5-0.3c0.4-0.1,0.8-0.1,1.2-0.1c0,0-0.5-0.3-1.3,0
			l-0.4-0.2c0,0,0.5-0.1,0.7-0.1c0.2,0,0.2-0.1,0.2-0.1c-0.3-0.1-0.7,0-1,0.1C64.6,105.2,63.9,104.9,63.9,104.8z"/>
		<path class="st5" d="M84.7,94.9c0,0,4.3-0.3,3.8,3c0,0.2,0,0.3-0.1,0.5c-0.1,0.2-0.2,0.3-0.3,0.4c0,0,0-0.3-0.4-0.2
			c-0.2,0-0.3,0-0.5,0c-0.2,0-0.4-0.1-0.6-0.3c0,0-1.2-0.6-1.7-2.7c0,0-0.3-0.5-0.3-0.6l0.7,0.3c-0.1,0.3-0.2,0.7-0.1,1.1
			c0,0,0-1,0.2-1c0,0,0.4,0.2,0.4,0.2s-0.4,1-0.1,1.7c0,0-0.1-1.2,0.2-1.7l0.5,0.3c0,0-0.5,1-0.2,1.9c0,0-0.1-1.3,0.3-1.8l0.5,0.4
			c0,0-0.5,1-0.2,1.7c0,0,0-1.5,0.3-1.6c0.2,0.2,0.3,0.4,0.5,0.6c0,0-0.3,0.7-0.1,1.1c0,0,0.1-1,0.2-1c0.2,0.3,0.4,0.7,0.4,1.1
			c0-0.4-0.1-0.8-0.3-1.2c0.2,0,0.4,0.2,0.6,0.4c0,0-0.1-0.5-0.7-0.5c-0.1-0.2-0.3-0.4-0.4-0.5c0.4,0,0.7,0,1,0.1
			c0,0-0.3-0.4-1.2-0.3L86.7,96c0,0,0.9-0.1,1.2,0c0,0-0.4-0.4-1.3-0.1l-0.5-0.3c0.4-0.1,0.8-0.1,1.2-0.1c0,0-0.5-0.3-1.3,0
			l-0.4-0.2c0,0,0.5-0.1,0.7-0.1c0.2,0,0.2-0.1,0.2-0.1c-0.3-0.1-0.7,0-1,0.1C85.2,95.2,85,95,84.7,94.9z"/>
		<path class="st5" d="M98.7,58.3c0,0,4.3-0.3,3.8,3c0,0.2,0,0.3-0.1,0.5c-0.1,0.2-0.2,0.3-0.3,0.4c0,0,0-0.3-0.4-0.2
			c-0.2,0-0.3,0-0.5,0c-0.2,0-0.4-0.1-0.6-0.3c0,0-1.2-0.6-1.7-2.7c0,0-0.3-0.5-0.3-0.6l0.7,0.3c-0.1,0.3-0.2,0.7-0.1,1.1
			c0,0,0-1,0.2-1c0,0,0.4,0.2,0.4,0.2s-0.4,1-0.1,1.7c0,0-0.1-1.2,0.2-1.7l0.5,0.3c0,0-0.5,1-0.2,1.9c0,0-0.1-1.3,0.3-1.8l0.5,0.4
			c0,0-0.5,1-0.2,1.7c0,0,0-1.5,0.3-1.6c0.2,0.2,0.3,0.3,0.5,0.6c0,0-0.3,0.7-0.1,1.1c0,0,0.1-1,0.2-1c0.2,0.3,0.4,0.7,0.4,1.1
			c0-0.4-0.1-0.8-0.3-1.2c0.2,0,0.4,0.2,0.6,0.4c0,0-0.1-0.5-0.7-0.5c-0.1-0.2-0.3-0.4-0.4-0.5c0.4,0,0.7,0,1,0.1
			c0,0-0.3-0.4-1.2-0.3l-0.5-0.4c0,0,0.9-0.1,1.2,0c0,0-0.4-0.4-1.3-0.1l-0.5-0.3c0.4-0.1,0.8-0.1,1.2-0.1c0,0-0.5-0.3-1.3,0
			l-0.4-0.2c0,0,0.5-0.1,0.7-0.1c0.2,0,0.2-0.1,0.2-0.1c-0.3-0.1-0.7,0-1,0.1C99.2,58.6,98.9,58.5,98.7,58.3z"/>
		<path class="st5" d="M111.2,47.6c0,0,4.3-0.3,3.8,3c0,0.2,0,0.3-0.1,0.5c-0.1,0.2-0.2,0.3-0.3,0.4c0,0,0-0.3-0.4-0.2
			c-0.2,0-0.3,0-0.5,0c-0.2,0-0.4-0.1-0.6-0.3c0,0-1.2-0.5-1.7-2.7c0,0-0.3-0.5-0.3-0.6l0.7,0.3c-0.1,0.3-0.2,0.7-0.1,1.1
			c0,0,0-1,0.2-1c0,0,0.4,0.2,0.4,0.2s-0.4,1-0.1,1.7c0,0-0.1-1.2,0.2-1.7l0.5,0.3c0,0-0.5,1-0.2,1.9c0,0-0.1-1.3,0.3-1.8l0.5,0.4
			c0,0-0.5,1-0.2,1.7c0,0,0-1.5,0.3-1.6c0.2,0.2,0.3,0.3,0.5,0.6c0,0-0.3,0.7-0.1,1.1c0,0,0.1-1,0.2-1c0.2,0.3,0.4,0.7,0.4,1.1
			c0-0.4-0.1-0.8-0.3-1.2c0.2,0,0.4,0.2,0.6,0.4c0,0-0.1-0.5-0.7-0.5c-0.1-0.2-0.3-0.4-0.4-0.5c0.4,0,0.7,0,1,0.1
			c0,0-0.3-0.4-1.2-0.3l-0.4-0.4c0,0,0.9-0.1,1.2,0c0,0-0.4-0.4-1.3-0.1l-0.5-0.3c0.4-0.1,0.8-0.1,1.2-0.1c0,0-0.5-0.3-1.3,0
			l-0.4-0.2c0,0,0.5-0.1,0.7-0.1c0.2,0,0.2-0.1,0.2-0.1c-0.3-0.1-0.7,0-1,0.1C112,47.9,111.2,47.6,111.2,47.6z"/>
		<path class="st5" d="M138.3,29.2c0,0,1.5,4.4-1.5,4.9c-0.1,0.1-0.3,0.1-0.4,0.1c-0.2,0-0.3-0.1-0.4-0.2c0,0,0.2-0.1,0-0.5
			c-0.1-0.2-0.1-0.3-0.2-0.5c0-0.2,0-0.5,0.1-0.7c0,0,0.1-1.4,1.9-2.6c0,0,0.3-0.5,0.4-0.5L138,30c-0.3,0-0.7,0-0.9,0.3
			c0,0,0.9-0.3,0.9-0.1c0,0-0.1,0.5-0.1,0.5s-1-0.1-1.5,0.4c0,0,1-0.5,1.5-0.3l-0.1,0.6c0,0-1-0.2-1.7,0.4c0,0,1.1-0.5,1.6-0.3
			l-0.2,0.6c0,0-1-0.2-1.6,0.3c0,0,1.3-0.4,1.5-0.2c-0.1,0.2-0.2,0.5-0.3,0.7c0,0-0.7-0.1-1,0.2c0,0,0.9-0.2,0.9-0.1
			c-0.2,0.3-0.5,0.6-0.8,0.8c0.4-0.1,0.7-0.4,0.9-0.7c0,0.3,0,0.5-0.1,0.8c0,0,0.4-0.2,0.2-0.9c0.1-0.2,0.2-0.4,0.3-0.6
			c0.1,0.4,0.2,0.7,0.2,1.1c0,0,0.3-0.5-0.1-1.3l0.2-0.6c0,0,0.4,0.9,0.4,1.3c0,0,0.2-0.6-0.3-1.4l0.1-0.6c0.2,0.4,0.3,0.8,0.4,1.2
			c0,0,0.1-0.6-0.4-1.4l0-0.4c0,0,0.3,0.5,0.3,0.7c0.1,0.2,0.1,0.2,0.1,0.2c0-0.4-0.2-0.7-0.4-1C138.2,29.8,138.2,29.5,138.3,29.2z"
			/>
		<path class="st5" d="M216.6,107.2c0,0,4.3-0.3,3.8,3c0,0.2,0,0.3-0.1,0.5c-0.1,0.2-0.2,0.3-0.3,0.4c0,0,0-0.3-0.4-0.2
			c-0.2,0-0.3,0-0.5,0c-0.2,0-0.4-0.1-0.6-0.3c0,0-1.2-0.5-1.7-2.7c0,0-0.3-0.5-0.3-0.6l0.7,0.3c-0.1,0.3-0.2,0.7-0.1,1.1
			c0,0,0-1,0.2-1c0,0,0.4,0.2,0.4,0.2s-0.4,1-0.1,1.7c0,0-0.1-1.2,0.2-1.7l0.5,0.3c0,0-0.5,1-0.2,1.9c0,0-0.1-1.3,0.3-1.8l0.5,0.4
			c0,0-0.5,1-0.2,1.7c0,0,0-1.5,0.3-1.6c0.2,0.2,0.3,0.4,0.5,0.6c0,0-0.3,0.7-0.1,1.1c0,0,0.1-1,0.2-1c0.2,0.3,0.4,0.7,0.4,1.1
			c0-0.4-0.1-0.8-0.3-1.2c0.2,0.1,0.4,0.2,0.6,0.4c0,0-0.1-0.5-0.7-0.5c-0.1-0.2-0.3-0.4-0.4-0.5c0.4,0,0.7,0,1,0.1
			c0,0-0.3-0.4-1.2-0.3l-0.5-0.4c0,0,0.9-0.1,1.2,0c0,0-0.4-0.4-1.3-0.1l-0.5-0.3c0.4-0.1,0.8-0.1,1.2-0.1c0,0-0.5-0.3-1.3,0
			l-0.4-0.2c0,0,0.5-0.1,0.7-0.1c0.2,0,0.2-0.1,0.2-0.1c-0.3-0.1-0.7,0-1,0.1C217.3,107.6,216.6,107.3,216.6,107.2z"/>
		<path class="st5" d="M82.5,118.5c0,0,2.7,3.7-0.1,5.2c-0.1,0.1-0.3,0.2-0.4,0.2c-0.2,0-0.3,0-0.4-0.1c0,0,0.2-0.1-0.1-0.5
			c-0.1-0.1-0.2-0.3-0.3-0.4c-0.1-0.2-0.2-0.4-0.1-0.7c0,0-0.3-1.4,1.1-3.1c0,0,0.2-0.6,0.3-0.6l0.2,0.9c-0.3,0.1-0.6,0.3-0.8,0.6
			c0,0,0.8-0.6,0.8-0.4c0,0,0.1,0.5,0.1,0.5s-1,0.2-1.4,0.9c0,0,0.9-0.8,1.4-0.7l0,0.6c0,0-1.1,0.1-1.5,0.9c0,0,0.9-0.8,1.5-0.8
			l0,0.6c0,0-1,0.2-1.4,0.8c0,0,1.1-0.8,1.4-0.7c0,0.3-0.1,0.5-0.1,0.7c0,0-0.7,0.1-0.9,0.5c0,0,0.8-0.5,0.9-0.4
			c-0.1,0.4-0.3,0.7-0.6,1c0.3-0.3,0.5-0.6,0.7-1c0.1,0.2,0.1,0.5,0.1,0.8c0,0,0.3-0.3,0-0.9c0.1-0.2,0.1-0.5,0.2-0.7
			c0.2,0.3,0.4,0.6,0.5,1c0,0,0.1-0.6-0.5-1.2l0-0.6c0,0,0.6,0.7,0.7,1.1c0,0,0.1-0.6-0.7-1.3l0-0.6c0.3,0.3,0.5,0.6,0.7,1
			c0,0-0.1-0.6-0.8-1.2l-0.1-0.4c0,0,0.4,0.4,0.5,0.6c0.1,0.1,0.1,0.1,0.1,0.1c-0.1-0.3-0.4-0.6-0.7-0.8
			C82.6,119.4,82.4,118.5,82.5,118.5z"/>
		<path class="st5" d="M220,90.9c0,0,2.7,3.7-0.1,5.2c-0.1,0.1-0.3,0.2-0.4,0.2c-0.2,0-0.3,0-0.4-0.1c0,0,0.2-0.1-0.1-0.5
			c-0.1-0.1-0.2-0.3-0.3-0.4c-0.1-0.2-0.2-0.4-0.1-0.7c0,0-0.3-1.4,1.1-3.1c0,0,0.2-0.6,0.3-0.6l0.2,0.9c-0.3,0.1-0.6,0.3-0.8,0.6
			c0,0,0.8-0.6,0.8-0.4c0,0,0.1,0.5,0.1,0.5s-1,0.2-1.4,0.9c0,0,0.9-0.8,1.4-0.7l0,0.7c0,0-1.1,0.1-1.5,0.9c0,0,0.9-0.8,1.5-0.8
			l0,0.6c0,0-1,0.2-1.4,0.8c0,0,1.2-0.8,1.4-0.7c0,0.3-0.1,0.5-0.1,0.7c0,0-0.7,0.1-0.9,0.5c0,0,0.8-0.5,0.9-0.4
			c-0.1,0.4-0.3,0.7-0.6,1c0.3-0.3,0.5-0.6,0.7-1c0.1,0.2,0.1,0.5,0.1,0.8c0,0,0.3-0.3,0-0.9c0.1-0.2,0.1-0.5,0.2-0.7
			c0.2,0.3,0.4,0.6,0.5,1c0,0,0.1-0.6-0.5-1.2l0-0.6c0,0,0.6,0.7,0.7,1.1c0,0,0.1-0.6-0.7-1.3l0-0.6c0.3,0.3,0.5,0.6,0.7,1
			c0,0-0.1-0.6-0.8-1.2l-0.1-0.4c0,0,0.4,0.4,0.5,0.6c0.1,0.1,0.1,0.1,0.1,0.1c-0.1-0.3-0.4-0.6-0.7-0.8
			C220.1,91.8,219.9,90.9,220,90.9z"/>
		<path class="st5" d="M231.2,116.9c0,0,0.5,4.7-2.5,4.3c-0.2,0-0.3,0-0.5,0c-0.1-0.1-0.3-0.2-0.3-0.3c0,0,0.2,0,0.1-0.5
			c0-0.2-0.1-0.3-0.1-0.5c0-0.2,0.1-0.5,0.2-0.6c0,0,0.4-1.4,2.4-2c0,0,0.4-0.4,0.5-0.4l-0.3,0.8c-0.3-0.1-0.7-0.1-1,0
			c0,0,0.9,0,0.9,0.1c0,0-0.2,0.4-0.2,0.4s-0.9-0.4-1.6,0c0,0,1.1-0.2,1.5,0.2l-0.3,0.6c0,0-1-0.5-1.7-0.1c0,0,1.2-0.2,1.7,0.2
			l-0.3,0.5c0,0-1-0.5-1.6-0.1c0,0,1.4,0,1.5,0.2c-0.1,0.2-0.3,0.4-0.5,0.5c0,0-0.7-0.3-1-0.1c0,0,0.9,0.1,0.9,0.2
			c-0.3,0.3-0.6,0.4-1,0.6c0.4,0,0.7-0.2,1.1-0.5c0,0.3-0.1,0.5-0.3,0.7c0,0,0.4-0.1,0.4-0.8c0,0,0.4-0.4,0.5-0.5
			c0.1,0.4,0,0.8-0.1,1.2c0,0,0.4-0.4,0.2-1.3l0.3-0.5c0,0,0.2,0.9,0.1,1.3c0,0,0.3-0.5,0-1.5l0.3-0.6c0.1,0.4,0.2,0.8,0.2,1.3
			c0,0,0.2-0.5-0.1-1.4l0.1-0.4c0,0,0.1,0.6,0.2,0.8c0,0.2,0.1,0.2,0.1,0.2c0-0.4,0-0.8-0.2-1.1
			C230.9,117.7,231.2,116.9,231.2,116.9z"/>
		<path class="st5" d="M241,151.2c0.4-0.4,0.7-0.8,0.8-1.4c0.1-0.5-0.1-1.2-0.6-1.4c-0.5-0.2-1.1,0.2-1.5,0.6
			c-0.4,0.4-0.9,0.9-1.5,0.8c0.3-0.3,0.5-0.7,0.6-1.1c0.1-0.4,0.1-0.8,0.1-1.3c0-0.2-0.1-0.3-0.2-0.5c-0.3-0.3-0.8-0.2-1.2,0.1
			c-1.1,0.9-1.4,2.6-1.4,4.1c-0.1-0.5,0-1.1,0-1.7c0-0.6-0.1-1.2-0.6-1.5c-0.3-0.2-0.6-0.2-0.9-0.2c-0.5,0-1.1,0-1.4,0.4
			c-0.4,0.5-0.3,1.4,0.1,1.9c0.4,0.6,0.9,0.9,1.5,1.3c0.4,0.3,0.8,0.6,1,1.1c0,0.1,0.1,0.1,0.1,0.2h3.2
			C239.8,152.3,240.4,151.8,241,151.2z"/>
		<path class="st5" d="M179.1,154c0.4-0.4,0.7-0.8,0.8-1.4c0.1-0.5-0.1-1.2-0.6-1.4c-0.5-0.2-1.1,0.2-1.5,0.6
			c-0.4,0.4-0.9,0.9-1.5,0.8c0.3-0.3,0.5-0.7,0.6-1.1c0.1-0.4,0.1-0.8,0.1-1.3c0-0.2-0.1-0.3-0.2-0.5c-0.3-0.3-0.8-0.2-1.2,0.1
			c-1.1,0.9-1.4,2.6-1.4,4.1c-0.1-0.5,0-1.1,0-1.7c0-0.6-0.1-1.2-0.6-1.5c-0.3-0.2-0.6-0.2-0.9-0.2c-0.5,0-1.1,0-1.4,0.4
			c-0.4,0.5-0.3,1.4,0.1,1.9c0.4,0.6,0.9,0.9,1.5,1.3c0.4,0.3,0.8,0.6,1,1.1c0,0.1,0.1,0.1,0.1,0.2h3.2
			C177.8,155.1,178.5,154.6,179.1,154z"/>
		<path class="st5" d="M43.3,136.7c0,0,1-0.1,1.3,0.2c0,0-1.1,0.3-1.2,0.6c0,0,0,0,0.1,0c0.1,0,0.7-0.2,0.8,0l0,0.1l0,0l0.1,0
			c0,0,0.1,0.1,0.1,0.1c0,0.1,0.1,0,0.1,0s0.1,0.2,0.1,0.2c0,0,0.1,0.2,0.1,0.2v0.5l0,0c0,0.3,0.1,0.6,0.2,0.9c0,0,0.4,1.2,0.6,1.3
			h0.1c0,0,0.7,1,1.3,1.2c0.6,0.2,0.7,0.4,0.7,0.4l-0.8,1c-0.2,0-0.3,0-0.4,0.1c0.3,0,0.6,0,0.8,0l0.6-0.9c0.1,0,0.1,0.1,0.2,0.1
			c0,0,0.1,0,0.1,0.1c0.1,0,0.1,0,0.1,0c0,0-0.3,0.7-0.3,0.7h-0.4l0.3,0.1c0.1,0,0.4-0.1,0.4-0.1l0.3-0.6l0.1,0.1V143
			c0,0,0.1,0.1,0.2,0.1c0.1,0-0.1-0.1-0.1-0.1c0.1,0,0.1,0,0.2,0c0,0,0-0.2,0-0.2v-0.1c0,0-0.2,0-0.2,0c0,0,0.1-0.1,0.2,0
			c0.1,0.1,1,0.5,1.3,0.3c0.2,0.2,0.4,0.3,0.7,0.5c0.2,0,0.3,0.3,0.3,0.3s0.7,0.8,1.1,0.6c-0.1-0.1-0.1-0.3-0.2-0.4
			c0-0.1-0.5-0.6-0.5-0.6s1,0.3,1,0.2c0,0,0.5,0.3,0.5,0.3c0,0,0-0.2-0.3-0.4l0.4,0.1c0-0.1,0-0.2-0.1-0.3c-0.1-0.1-0.1-0.1-0.2-0.2
			c-0.1-0.1-0.2-0.3-0.4-0.4l-1.6-1c0,0,0.2-0.1,0-0.3c0,0,0.1,0,0.2,0c0.1,0-0.7-0.8-0.7-0.8c-0.1-0.1-0.2-0.2-0.3-0.3
			c0-0.1-0.8-0.6-0.8-0.6s-0.6,0-1.1-1c-0.4-1-1.5-1.1-1.5-1.1s-0.4-2-2.1-1.3C44.7,136.3,43.4,136.4,43.3,136.7z"/>
		<path class="st5" d="M157.4,124.6c-0.1,0.2-0.5,0.1-0.6,0.3c0,0.1,0,0.2,0,0.4c0,0.1,0,0.2-0.1,0.4c0,0.1-0.1,0.2-0.2,0.3
			c-0.1,0.1-0.2,0.1-0.3,0.2c-0.1,0-0.2,0-0.3,0c0,0.3-0.1,0.6-0.4,0.9c-0.1,0.1-0.3,0.1-0.5,0.1c-0.2,0-0.3-0.1-0.4-0.2
			c-0.2-0.2-0.4-0.5-0.5-0.9c-0.1-0.4-0.2-0.8-0.5-1.1c-0.1-0.1-0.2-0.2-0.4-0.3c-0.2-0.2-0.4-0.5-0.5-0.9c-0.1-0.4-0.2-0.8-0.4-1.2
			c-0.2-0.4-0.4-0.7-0.8-0.9c-0.3-0.2-0.7-0.2-1.1-0.3c-0.3-0.1-0.5-0.3-0.7-0.4c-0.3-0.2-0.6-0.4-0.9-0.6c-0.2-0.1-0.4-0.2-0.5-0.3
			c-0.1-0.1-0.2-0.2-0.3-0.3c-0.1-0.1-0.1-0.3-0.1-0.4c-0.1-0.3-0.2-0.6-0.3-0.8c-0.2-0.3-0.3-0.6-0.2-1c0.1-0.3,0.4-0.5,0.5-0.8
			c0-0.2,0.1-0.4,0-0.7c0-0.1,0-0.2,0-0.3s0.1-0.2,0.2-0.3c0.3-0.2,0.6,0.1,0.9,0.1c0.1,0,0.2,0,0.4,0c0.1,0,0.2-0.1,0.3-0.1
			c0.5-0.2,1.1,0.2,1.4,0.7c0.3,0.5,0.4,1.1,0.6,1.6c0.1,0.2,0.2,0.4,0.4,0.5c0.1,0.1,0.2,0.1,0.3,0.1s0.2,0,0.3-0.1l0.3,0.7
			c0.1,0.3,0.3,0.7,0.4,1c0.2,0.4,0.4,0.9,0.8,1.1c0.2,0.1,0.4,0.1,0.6,0.2c0.2,0.1,0.4,0.2,0.5,0.4c0.1,0.2,0.2,0.4,0.3,0.6
			c0,0.2,0,0.3,0.1,0.5c0.2,0.5,0.7,0.6,1.1,0.8c0.2,0.1,0.4,0.3,0.6,0.6c0,0.1,0.1,0.1,0.1,0.2
			C157.5,124.5,157.5,124.5,157.4,124.6z"/>
		<path class="st4" d="M157.4,124.6c-0.1,0.2-0.5,0.1-0.6,0.3c0,0.1,0,0.2,0,0.4c0,0.1,0,0.2-0.1,0.4c0,0.1-0.1,0.2-0.2,0.3
			c-0.1,0.1-0.2,0.1-0.3,0.2c-0.1,0-0.2,0-0.3,0c0,0.3-0.1,0.6-0.4,0.9c-0.1,0.1-0.3,0.1-0.5,0.1c-0.2,0-0.3-0.1-0.4-0.2
			c-0.2-0.2-0.4-0.5-0.5-0.9c-0.1-0.4-0.2-0.8-0.5-1.1c-0.1-0.1-0.2-0.2-0.4-0.3c-0.2-0.2-0.4-0.5-0.5-0.9c-0.1-0.4-0.2-0.8-0.4-1.2
			c-0.2-0.4-0.4-0.7-0.8-0.9c-0.3-0.2-0.7-0.2-1.1-0.3c-0.3-0.1-0.5-0.3-0.7-0.4c-0.3-0.2-0.6-0.4-0.9-0.6c-0.2-0.1-0.4-0.2-0.5-0.3
			c-0.1-0.1-0.2-0.2-0.3-0.3c-0.1-0.1-0.1-0.3-0.1-0.4c-0.1-0.3-0.2-0.6-0.3-0.8c-0.2-0.3-0.3-0.6-0.2-1c0.1-0.3,0.4-0.5,0.5-0.8
			c0-0.2,0.1-0.4,0-0.7c0-0.1,0-0.2,0-0.3s0.1-0.2,0.2-0.3c0.3-0.2,0.6,0.1,0.9,0.1c0.1,0,0.2,0,0.4,0c0.1,0,0.2-0.1,0.3-0.1
			c0.5-0.2,1.1,0.2,1.4,0.7c0.3,0.5,0.4,1.1,0.6,1.6c0.1,0.2,0.2,0.4,0.4,0.5c0.1,0.1,0.2,0.1,0.3,0.1s0.2,0,0.3-0.1l0.3,0.7
			c0.1,0.3,0.3,0.7,0.4,1c0.2,0.4,0.4,0.9,0.8,1.1c0.2,0.1,0.4,0.1,0.6,0.2c0.2,0.1,0.4,0.2,0.5,0.4c0.1,0.2,0.2,0.4,0.3,0.6
			c0,0.2,0,0.3,0.1,0.5c0.2,0.5,0.7,0.6,1.1,0.8c0.2,0.1,0.4,0.3,0.6,0.6c0,0.1,0.1,0.1,0.1,0.2
			C157.5,124.5,157.5,124.5,157.4,124.6z"/>
		<path class="st8" d="M148.8,119.6c0,0,0.2,0.5-0.4,0.5c-0.6,0,0.4,2.9,0.4,2.9l1,1.4l1.2-0.7l0.1-2.1l0.1-1.2c0,0-1.2-0.4-1-1
			C150.5,118.8,148.8,119.6,148.8,119.6z"/>
		<path class="st5" d="M152.4,131.6c0,0,0.7,0.8,1.6-0.3l-0.7-0.8h-0.8L152.4,131.6z"/>
		<path class="st5" d="M153.7,130.7c0.1,0.4,0.3,0.8,0.5,1.1c0.2,0.3,0.6,2,0.1,1.8c-0.5-0.2-1.3-1.7-1.4-2c0-0.3-0.1-0.7-0.1-1
			H153.7z"/>
		<path class="st5" d="M147.3,135.1l4,0.2l-0.5-1.8l-2,0L147.3,135.1z"/>
		<path class="st5" d="M148.6,138.1c-0.1,0.2-0.1,0.9,0,1.4c0,0.3,0.1,0.6,0.1,0.6s-1.5,0.5-1.7,0.1c-0.1-0.2-0.1-0.4-0.1-0.5
			c0-0.6,0-1.1,0.1-1.7c0,0-0.1-1.5-0.1-1.6c0-0.1,0-0.3-0.1-0.4c0-0.3-0.1-0.6-0.1-0.6l2-1.2c0,0,0,0.2,0,0.6
			C148.8,135.6,148.7,137.9,148.6,138.1z"/>
		<path class="st5" d="M148.7,148.5L148.7,148.5c-0.2,0-1.2,0-1.2,0l0-0.1c-0.1-0.1-0.1-0.3-0.2-0.4c0-0.2,0-0.3,0-0.5
			c0.1-0.5,0.2-1,0.2-1.6c0-0.1,0-0.3,0-0.4c0-0.1,0-0.2,0-0.4c0-0.1,0-0.2-0.1-0.3c0-0.1,0-0.3,0-0.4c0-0.2,0-0.5-0.1-0.7
			c-0.1-0.3-0.8-3.8-0.6-4.2c0,0,1.4-0.3,2-0.1l-0.1,2.7c0,0-0.3,0.8,0,1c0.2,0.2,0,0.9,0,0.9s0,0.1,0.2,0.5c0.2,0.4,0,0.6,0,0.6
			v0.8c-0.1,0.3-0.1,0.7,0,1C149,147.6,148.8,148.5,148.7,148.5z"/>
		<path class="st5" d="M151.5,138.1c-0.1,0.2-0.1,0.9,0,1.4c0,0.3,0.1,0.6,0.1,0.6s-1.5,0.5-1.7,0.1c-0.1-0.2-0.1-0.4-0.1-0.5
			c0-0.6,0-1.1,0.1-1.7c0,0-0.1-1.5-0.1-1.6c0-0.1,0-0.8-0.1-1.5c0-0.6,0-1.1,0-1.1l2,0.3c0,0,0,1,0,2
			C151.6,137,151.6,138,151.5,138.1z"/>
		<path class="st5" d="M151.6,148.5L151.6,148.5c-0.2,0-1.2,0-1.2,0l0-0.1c-0.1-0.1-0.1-0.3-0.2-0.4c0-0.2,0-0.3,0-0.5
			c0.1-0.5,0.2-1,0.2-1.6c0-0.1,0-0.3,0-0.4c0-0.1,0-0.2,0-0.4c0-0.1,0-0.2-0.1-0.3c0-0.1,0-0.3,0-0.4c0-0.2,0-0.5-0.1-0.7
			c-0.1-0.3-0.8-3.8-0.6-4.2c0,0,1.4-0.3,2-0.1l-0.1,2.7c0,0-0.3,0.8,0,1c0.2,0.2,0,0.9,0,0.9s0,0.1,0.2,0.5c0.2,0.4,0,0.6,0,0.6
			v0.8c-0.1,0.3-0.1,0.7,0,1C151.9,147.6,151.7,148.5,151.6,148.5z"/>
		<path class="st4" d="M149.6,120.1c0.8,0,1.4-0.7,1.4-1.6s-0.6-1.6-1.4-1.6c-0.8,0-1.4,0.7-1.4,1.6S148.8,120.1,149.6,120.1z"/>
		<path class="st8" d="M149.6,120c0.8,0,1.4-0.7,1.4-1.6s-0.6-1.6-1.4-1.6c-0.8,0-1.4,0.7-1.4,1.6S148.8,120,149.6,120z"/>
		<path class="st5" d="M151.3,125.4c-0.1,0.4-0.1,0.9,0,1.3c0.9,0.8,0.8,2.6,0.8,2.6s0.7,3.6,0.6,3.9c-0.2,0.3,0.3,2.3,0.3,2.3
			c-0.4,0.1-0.9,0.1-1.3,0.2c-0.2,0-0.3,0-0.5,0c-0.1,0-0.2,0-0.3-0.1c-0.1,0-0.2-0.1-0.3-0.2c-0.3-0.6-1.5-1.4-1.5-1.4
			s-0.8,0.5-1.5,1c-0.2,0.2-0.5,0.3-0.7,0.4c-0.2,0.1-0.3,0.1-0.5,0.2c-0.9,0.1-2-0.5-1.8-0.7c0.2-0.3,1.3-4.8,1.3-4.8
			s0.6-2.8,1.1-3.2c0.1-0.1,0.2-0.2,0.2-0.3c0.2-0.5-0.1-1.3-0.1-1.3s-1.6-2.2-1.5-2.3c0.1-0.3,0.1-0.5,0.1-0.8c0,0,0.2-1.1,0.3-1.6
			c0.1-0.5,0.9-0.6,1.2-0.6c0.2,0,0.8,0,1-0.2c0.2-0.2,0.6,0.1,0.6,0.1l0.9,0.5l0.8-0.5c0,0,0.8,0,0.9,0.2c0.1,0.1,1.2,0.4,1.2,0.4
			c0.6,0.4,0.5,2.4,0.5,2.4s-1.4,1.3-1.6,2C151.4,125,151.3,125.2,151.3,125.4z"/>
		<path class="st5" d="M152.8,122.6l0.3,0.3l0.3,3.1l0.3,3.2c0,0,0.1,0.3,0.2,0.3c0.1,0,0.1,1.9,0.1,1.9s-1.2-0.8-1.6,0.3l-0.3-2.5
			c0,0-0.4-2.6-0.4-2.8c0-0.2-0.2-2.4-0.2-2.4L152.8,122.6z"/>
		<path class="st5" d="M145.8,122.7l-0.2,0.3c0,0,0,1.3-0.2,1.6c-0.2,0.3,0.5,2.2,0.7,2.1c0.2-0.1,0.8-3,0.8-3
			C146.9,123.6,145.8,122.7,145.8,122.7z"/>
		<path class="st5" d="M145.7,124.6c0,0-0.7,0.8-0.7,1.2c0.1,0.4,0.7,1.6,1.7,0.9C146.8,126.7,147.7,124.8,145.7,124.6z"/>
		<path class="st4" d="M148.7,148.6c-0.2,0-1.2,0-1.2,0l0-0.1C147.7,148.4,148.3,148.3,148.7,148.6z"/>
		<path class="st4" d="M151.6,148.6c-0.2,0-1.2,0-1.2,0l0-0.1C150.6,148.4,151.2,148.3,151.6,148.6z"/>
		<path class="st5" d="M148.5,117.4c0,0,0.1,0,0.1,0c0.1,0,0.1,0.1,0.2,0.1c0.1,0.1,0.2,0.1,0.3,0.1c0.1,0,0.2,0,0.3,0
			c0.1,0,0.2-0.1,0.2-0.1c0.1,0,0.1,0,0.2,0.1c0,0,0.1,0.1,0.1,0.1c0.1,0.1,0.1,0.2,0.1,0.4c0,0.1,0.1,0.1,0.1,0.2
			c0,0,0.1,0.1,0.2,0.1c0.1,0,0.1,0,0.2,0c0,0,0.1,0.1,0.1,0.1c0.1,0.2,0.2,0.5,0.4,0.6c0.1,0,0.2,0.1,0.2,0.1c0.1,0,0.2,0,0.2-0.1
			c0.1,0,0.1-0.1,0.2-0.2c0.1-0.2,0.2-0.5,0.1-0.8c0-0.3-0.1-0.7-0.3-1c-0.2-0.3-0.4-0.5-0.7-0.7c-0.3-0.1-0.6-0.2-0.9-0.2
			c-0.1,0-0.2,0-0.3,0.1c-0.4,0.1-0.8,0.3-1,0.7c-0.1,0.1-0.1,0.2-0.2,0.3C148.3,117.5,148.4,117.4,148.5,117.4z"/>
		<path class="st4" d="M148.5,117.4c0,0,0.1,0,0.1,0c0.1,0,0.1,0.1,0.2,0.1c0.1,0.1,0.2,0.1,0.3,0.1c0.1,0,0.2,0,0.3,0
			c0.1,0,0.2-0.1,0.2-0.1c0.1,0,0.1,0,0.2,0.1c0,0,0.1,0.1,0.1,0.1c0.1,0.1,0.1,0.2,0.1,0.4c0,0.1,0.1,0.1,0.1,0.2
			c0,0,0.1,0.1,0.2,0.1c0.1,0,0.1,0,0.2,0c0,0,0.1,0.1,0.1,0.1c0.1,0.2,0.2,0.5,0.4,0.6c0.1,0,0.2,0.1,0.2,0.1c0.1,0,0.2,0,0.2-0.1
			c0.1,0,0.1-0.1,0.2-0.2c0.1-0.2,0.2-0.5,0.1-0.8c0-0.3-0.1-0.7-0.3-1c-0.2-0.3-0.4-0.5-0.7-0.7c-0.3-0.1-0.6-0.2-0.9-0.2
			c-0.1,0-0.2,0-0.3,0.1c-0.4,0.1-0.8,0.3-1,0.7c-0.1,0.1-0.1,0.2-0.2,0.3C148.3,117.5,148.4,117.4,148.5,117.4z"/>
		<path class="st4" d="M147,121.2c0,0,0.1,0.6-0.2,0.8C146.5,122.2,147,121.2,147,121.2z"/>
		<path class="st4" d="M148.2,120.5c0,0-0.9,0.1-0.9,0.2C147.4,120.8,148.2,120.5,148.2,120.5z"/>
		<path class="st9" d="M153.1,119l-3.2,1.9l-3,1.8l-0.9-0.8l1.8-3.5l1.5-2.9c0.1,0,0.2,0,0.4,0c0.1,0,0.2-0.1,0.3-0.1
			c0.5-0.2,1.1,0.2,1.4,0.7c0.3,0.5,0.4,1.1,0.6,1.6c0.1,0.2,0.2,0.4,0.4,0.5c0.1,0.1,0.2,0.1,0.3,0.1c0.1,0,0.2,0,0.3,0L153.1,119z
			"/>
		<path class="st5" d="M146.6,121.9H146c-0.1,0-0.2,0.1-0.2,0.3v1.9c0,0.1,0.1,0.3,0.2,0.3h0.6c0.1,0,0.2-0.1,0.2-0.3v-1.9
			C146.9,122,146.8,121.9,146.6,121.9z"/>
		<path class="st10" d="M146.6,121.9H146c-0.1,0-0.2,0.1-0.2,0.3v1.9c0,0.1,0.1,0.3,0.2,0.3h0.6c0.1,0,0.2-0.1,0.2-0.3v-1.9
			C146.9,122,146.8,121.9,146.6,121.9z"/>
		<path class="st5" d="M146.3,122.8c0.1,0,0.2-0.1,0.2-0.2c0-0.1-0.1-0.2-0.2-0.2c-0.1,0-0.2,0.1-0.2,0.2
			C146.1,122.7,146.2,122.8,146.3,122.8z"/>
		<path class="st5" d="M145.8,125.6c0,0,0.2-0.9-0.1-1.2c-0.2-0.3-0.2-1.8,0.2-1.8c0.4,0,0.9,1.3,0.8,1.5c-0.1,0.3-0.4,1.6-0.4,1.6
			L145.8,125.6z"/>
		<path class="st11" d="M23.6,35.4c0.1,0,0.3-0.1,0.3-0.3c0-0.2-0.1-0.3-0.3-0.3c-0.1,0-0.3,0.1-0.3,0.3
			C23.4,35.2,23.5,35.4,23.6,35.4z"/>
		<path class="st11" d="M51.1,29.1c0.1,0,0.3-0.1,0.3-0.3c0-0.2-0.1-0.3-0.3-0.3c-0.1,0-0.3,0.1-0.3,0.3
			C50.9,28.9,51,29.1,51.1,29.1z"/>
		<path class="st11" d="M175.5,29.4c0.1,0,0.3-0.1,0.3-0.3c0-0.2-0.1-0.3-0.3-0.3c-0.1,0-0.3,0.1-0.3,0.3
			C175.2,29.3,175.4,29.4,175.5,29.4z"/>
		<path class="st11" d="M23.6,47.9c0.1,0,0.3-0.1,0.3-0.3c0-0.2-0.1-0.3-0.3-0.3c-0.1,0-0.3,0.1-0.3,0.3
			C23.4,47.7,23.5,47.9,23.6,47.9z"/>
		<path class="st11" d="M183.7,39.3c0.1,0,0.3-0.1,0.3-0.3c0-0.2-0.1-0.3-0.3-0.3c-0.1,0-0.3,0.1-0.3,0.3
			C183.5,39.1,183.6,39.3,183.7,39.3z"/>
		<path class="st11" d="M185.9,56.2c0.1,0,0.3-0.1,0.3-0.3c0-0.2-0.1-0.3-0.3-0.3c-0.1,0-0.3,0.1-0.3,0.3
			C185.6,56.1,185.7,56.2,185.9,56.2z"/>
		<path class="st11" d="M237.2,36.5c0.1,0,0.3-0.1,0.3-0.3c0-0.2-0.1-0.3-0.3-0.3c-0.1,0-0.3,0.1-0.3,0.3
			C236.9,36.4,237,36.5,237.2,36.5z"/>
		<path class="st11" d="M82.3,23.6c0.1,0,0.3-0.1,0.3-0.3c0-0.2-0.1-0.3-0.3-0.3c-0.1,0-0.3,0.1-0.3,0.3
			C82,23.5,82.2,23.6,82.3,23.6z"/>
		<path class="st11" d="M204.5,26.5c0.1,0,0.3-0.1,0.3-0.3c0-0.2-0.1-0.3-0.3-0.3c-0.1,0-0.3,0.1-0.3,0.3
			C204.2,26.4,204.4,26.5,204.5,26.5z"/>
		<path class="st11" d="M180,74c0.1,0,0.3-0.1,0.3-0.3c0-0.2-0.1-0.3-0.3-0.3c-0.1,0-0.3,0.1-0.3,0.3C179.7,73.8,179.8,74,180,74z"
			/>
		<path class="st11" d="M50.9,85.5c0.1,0,0.3-0.1,0.3-0.3c0-0.2-0.1-0.3-0.3-0.3c-0.1,0-0.3,0.1-0.3,0.3
			C50.6,85.4,50.7,85.5,50.9,85.5z"/>
		<path class="st11" d="M183.5,76.8c0.1,0,0.3-0.1,0.3-0.3c0-0.2-0.1-0.3-0.3-0.3s-0.3,0.1-0.3,0.3
			C183.2,76.7,183.3,76.8,183.5,76.8z"/>
		<path class="st11" d="M245.8,55.9c0.1,0,0.3-0.1,0.3-0.3c0-0.2-0.1-0.3-0.3-0.3c-0.1,0-0.3,0.1-0.3,0.3
			C245.6,55.8,245.7,55.9,245.8,55.9z"/>
		<path class="st11" d="M73,45.1c0.1,0,0.3-0.1,0.3-0.3c0-0.2-0.1-0.3-0.3-0.3c-0.1,0-0.3,0.1-0.3,0.3C72.7,45,72.8,45.1,73,45.1z"
			/>
	</g>
</g>
</svg>
