<?xml version="1.0" encoding="utf-8"?>
<!-- Generator: Adobe Illustrator 17.0.0, SVG Export Plug-In . SVG Version: 6.00 Build 0)  -->
<!DOCTYPE svg PUBLIC "-//W3C//DTD SVG 1.1//EN" "http://www.w3.org/Graphics/SVG/1.1/DTD/svg11.dtd">
<svg version="1.1" id="_x39_56f524d-cf77-4eed-97ec-c6a3c87f2838"
	 xmlns="http://www.w3.org/2000/svg" xmlns:xlink="http://www.w3.org/1999/xlink" x="0px" y="0px" width="612px" height="437px"
	 viewBox="0 177.5 612 437" enable-background="new 0 177.5 612 437" xml:space="preserve">
<path opacity="0.1" fill="#536DFE" enable-background="new    " d="M575.826,293.872c-5.573-12.896-13.06-24.862-22.294-35.463
	l-308.951-3.06l254.362-35.736c-16.447-6.557-33.933-10-51.638-10.218c-49.944-39.944-120.214-42.294-172.781-5.847
	c-20.436-10.491-43.113-15.956-66.118-15.956c-68.631,0-125.842,47.539-138.684,110.597L575.826,293.872z"/>
<path opacity="0.1" fill="#536DFE" enable-background="new    " d="M586.7,346.767c0-17.103-3.279-34.043-9.617-49.889
	L41.638,353.051c-5.519,10-9.726,20.655-12.568,31.693l165.786,24.699L25.245,427.474c5.082,71.364,66.282,127.755,141.033,127.755
	c37.649,0,71.801-14.262,97.155-37.594c25.409,23.715,59.943,38.305,97.975,38.305c56.446,0,105.133-32.13,127.81-78.576
	c45.517-14.426,80.817-50.709,92.947-96.062L372.5,348.734h214.2C586.7,348.133,586.7,347.422,586.7,346.767z"/>
<ellipse fill="#ACACAC" cx="181.961" cy="593.916" rx="124.039" ry="20.327"/>
<linearGradient id="SVGID_1_" gradientUnits="userSpaceOnUse" x1="485.0705" y1="869.9219" x2="485.0705" y2="185.0677" gradientTransform="matrix(0.5464 0 0 0.5464 -38.6009 129.7727)">
	<stop  offset="0" style="stop-color:#808080;stop-opacity:0.25"/>
	<stop  offset="0.54" style="stop-color:#808080;stop-opacity:0.12"/>
	<stop  offset="1" style="stop-color:#808080;stop-opacity:0.1"/>
</linearGradient>
<path fill="url(#SVGID_1_)" d="M310.262,462.938c-5.574,1.421-11.311-1.311-11.311-1.311s-4.863-5.628-9.016-6.448
	c-4.153-0.82-5.737,5.901-8.142,7.65c-1.694,1.202-13.934,0.328-21.311-0.273l-1.257-0.109c-0.109-0.109-0.273-0.164-0.383-0.273
	c0,0-7.104-2.186-8.579-4.098c-1.475-1.912-11.366-5.519-14.426-5.3c-3.06,0.219-12.131,0.71-12.131,0.71s-3.552-4.044-5.191-3.606
	c-1.639,0.437-7.213-0.055-7.213-0.055s-1.53-3.934-3.06-9.617c-0.71-2.623-3.115-4.481-5.41-5.737
	c2.076-7.104-1.639-27.376-13.224-31.31c-2.514-0.874-3.825-3.716-5.956-5.3c-1.912-1.421-5.082-4.699-3.552-10.71
	c2.186-8.36,7.595-21.584,7.595-21.584l4.044-8.087c-0.383,0.546-0.82,1.093-1.257,1.585c0.546-0.71,1.093-1.366,1.585-1.967
	c4.044,2.022,8.415,3.224,12.95,3.552c4.535,1.858,9.125,3.443,10.874,3.388c4.044-0.164,14.371,5.027,14.371,5.027
	s24.863,7.104,29.999,7.65c5.191,0.546,7.65-6.12,7.65-6.12s2.677-13.224-2.076-16.721c-4.754-3.497-7.541,12.568-7.541,12.568
	l-32.622-11.639l-2.022-1.038c1.53-1.639,2.787-3.552,3.661-5.683c0.492-1.257,0.984-2.677,2.186-3.279
	c0.328-0.164,0.656-0.273,1.038-0.273c0.273,0,0.601,0,0.874,0c5.628,0.328,10.491,4.809,16.12,4.809c0.219,0,0.437,0,0.601,0
	c1.093,0,2.131-0.328,3.005-0.929c1.038-0.82,1.639-2.022,1.749-3.333c-0.109,0.164-0.164,0.328-0.273,0.492
	c0.164-0.82,0.164-1.639,0-2.459c-0.328-1.913-1.366-3.661-2.24-5.355c-0.273-0.383-0.383-0.874-0.437-1.366
	c0.055-0.492,0.328-0.984,0.71-1.257c0,0.055,0,0.109,0.055,0.164c0.437-0.383,0.874-0.765,1.421-1.038
	c2.787-1.858,4.699-4.754,5.246-8.033c-0.164,0.383-0.273,0.82-0.492,1.202c0.82-2.787,0.656-5.738-0.601-8.415
	c-0.328-0.765-0.82-1.421-1.475-1.913c-2.022-1.421-4.754,0.109-7.268,0.273c-2.186,0.164-4.317-0.82-6.284-1.803
	c-3.388-1.694-6.721-3.497-9.508-6.011c-3.169-2.841-5.574-6.503-8.415-9.672s-6.557-6.011-10.819-6.284
	c-7.759-0.601-15.081,7.104-22.513,4.59c-3.606-1.202-5.956-4.535-8.47-7.431c-2.514-2.896-5.956-5.628-9.726-4.973
	c-2.623,0.437-4.863,2.459-7.541,2.404c-1.366-0.055-2.678-0.656-3.989-1.093c-3.169-1.038-7.541-0.546-8.634,2.623
	c-0.437,1.311-0.273,2.732,0.437,3.934c-0.164,0.219-0.328,0.492-0.437,0.765c-0.273,0.492-0.383,1.093-0.273,1.639
	c-6.94,6.229-7.541,16.885-1.311,23.824c2.131,2.35,4.863,4.098,7.978,4.973c0.109,0.383,0.219,0.82,0.328,1.202
	c1.038,4.481,1.639,9.508,0.055,12.896c-0.109,0.219-0.219,0.437-0.328,0.601l-0.164,0.055l0.055,0.055l0,0l-0.055-0.055l0,0
	l-0.219-0.219l0,0l-1.202-1.257c-0.055-1.311-0.82-4.809-5.901-11.256c-6.721-8.524-7.978-22.622-7.978-22.622s-1.694-7.268,0-9.344
	c1.694-2.076,4.481-25.136,4.481-25.136l4.645-12.95c0,0,22.458-22.895,13.114-25.682c-6.339-1.913-13.934,7.869-18.141,14.316
	c-2.076,3.169-3.388,6.776-3.934,10.491l-12.732,34.753c0,0-1.257,4.207,0,11.475c1.257,7.267,4.044,20.109,4.044,20.109
	l7.104,18.032c0,0,2.623,7.759,2.404,11.147c-0.328,0.219-1.421,2.35-2.35,4.317l-0.71,1.093l-0.055,0.437
	c-0.492,0.984-0.765,1.694-0.765,1.694s-3.934,11.694-0.656,18.852c3.279,7.158,3.442,10.491,3.442,10.491l2.459,10.601l1.038,9.289
	l8.852,21.912L163,441.791c0,0-0.765,8.579-2.459,9.781c-1.694,1.202-0.929,7.322-0.929,7.322l-1.038,16.12
	c0,0-3.279,4.809-3.497,12.622c-0.219,7.814-1.421,10.054-1.421,10.054s-0.546,6.557,0.984,9.563c1.53,3.005-2.459,6.12-2.459,6.12
	l3.388,11.694l-1.311,14.808c0,0,0.601,0.164,1.639,0.437l-0.219,1.038l-5.574,28.032c0,0-3.005,7.705-3.115,9.508l-9.508,17.376
	c0,0-8.087,8.033-4.262,8.797c3.825,0.765,15.027-6.12,15.027-6.12s9.235-9.89,12.841-10.819s7.65-3.497,6.503-7.268
	s-3.825-9.508-1.257-15.573c1.639-3.825,5.136-14.207,7.541-21.475c0.109-0.383,0.273-0.765,0.382-1.147
	c0.656-0.055,1.257-0.164,1.858-0.383c5.847-1.803,8.961-0.546,8.961-0.546l10.491-42.348l2.295-21.256l14.644,12.24
	c2.896,2.404,6.503,3.825,10.273,4.044c5.792,0.328,14.808,1.202,21.311,3.169l2.732-11.366c0,0,7.814,0.273,9.508-2.35
	c0.71-1.093,1.366-2.022,1.913-2.732l1.257-0.219l34.589-5.355c6.448,0,15.191-4.317,15.191-4.317l5.355-1.038
	c0,0,8.033-1.585,8.743-2.951C324.087,465.888,315.836,461.571,310.262,462.938z"/>
<path fill="#895674" d="M153.328,292.342c1.093-3.06,5.355-3.606,8.47-2.568c1.257,0.437,2.514,1.038,3.88,1.093
	c2.568,0.055,4.809-1.912,7.377-2.35c3.661-0.601,7.049,2.076,9.508,4.863c2.459,2.787,4.809,6.065,8.306,7.267
	c7.213,2.459,14.426-5.082,22.021-4.481c4.153,0.328,7.759,3.06,10.601,6.175c2.841,3.115,5.136,6.666,8.251,9.453
	c2.732,2.459,6.011,4.262,9.289,5.901c1.912,0.984,3.989,1.913,6.12,1.803c2.459-0.164,5.136-1.639,7.104-0.273
	c0.601,0.492,1.093,1.148,1.421,1.858c2.459,5.082,0.492,11.858-4.317,14.863c-0.82,0.546-1.858,1.093-1.912,2.076
	c0,0.492,0.164,0.929,0.383,1.311c0.874,1.694,1.858,3.388,2.186,5.246c0.328,1.858-0.109,4.044-1.639,5.191
	c-0.984,0.656-2.186,0.984-3.388,0.929c-5.519,0-10.273-4.371-15.792-4.699c-0.71-0.055-1.421,0.055-2.076,0.328
	c-1.148,0.601-1.639,2.022-2.131,3.224c-2.568,6.393-8.907,10.819-15.682,12.021c-6.776,1.202-13.879-0.492-19.945-3.77
	c-0.437-0.219-0.874-0.492-1.202-0.82c-0.492-0.601-0.874-1.311-1.038-2.131c-1.858-5.901-4.371-12.021-9.508-15.409
	c-3.333-2.186-7.869-3.443-9.399-7.104c-0.929-2.35-0.328-4.973-0.601-7.486c-0.492-4.371-3.442-8.142-7.595-9.617
	c-0.874-0.273-1.858-0.492-2.514-1.202c-0.546-0.656-0.874-1.475-0.984-2.35c-0.82-3.716-1.366-7.595-2.514-11.202
	C155.24,297.752,152.18,295.566,153.328,292.342z"/>
<g opacity="0.1">
	<path d="M251.084,348.078c-0.984,0.656-2.186,0.984-3.388,0.874c-5.519,0-10.273-4.371-15.792-4.699
		c-0.71-0.109-1.421,0-2.076,0.328c-1.147,0.601-1.639,2.022-2.131,3.224c-2.568,6.393-8.907,10.819-15.683,12.076
		c-6.776,1.257-13.879-0.492-19.89-3.77c-0.437-0.219-0.874-0.492-1.202-0.82c-0.492-0.601-0.874-1.366-1.038-2.131
		c-1.858-5.901-4.371-12.021-9.508-15.409c-3.333-2.186-7.869-3.388-9.399-7.104c-0.984-2.35-0.383-4.973-0.601-7.486
		c-0.492-4.426-3.442-8.142-7.595-9.617c-0.874-0.273-1.858-0.546-2.514-1.202c-0.546-0.656-0.874-1.475-0.984-2.35
		c-0.82-3.716-1.366-7.595-2.514-11.202c-0.765-2.404-3.169-4.371-3.06-6.94c-0.055,0.109-0.109,0.273-0.164,0.437
		c-1.148,3.224,1.912,5.41,2.787,8.196c1.147,3.606,1.694,7.541,2.514,11.202c0.109,0.874,0.437,1.639,0.984,2.35
		c0.656,0.656,1.639,0.874,2.514,1.202c4.153,1.475,7.158,5.191,7.595,9.617c0.219,2.514-0.383,5.136,0.601,7.486
		c1.53,3.716,6.011,4.918,9.399,7.104c5.136,3.388,7.65,9.563,9.508,15.409c0.164,0.765,0.546,1.475,1.038,2.131
		c0.383,0.328,0.765,0.601,1.202,0.82c6.065,3.279,13.114,4.973,19.89,3.77s13.114-5.683,15.683-12.076
		c0.492-1.202,0.929-2.623,2.131-3.224c0.656-0.273,1.366-0.383,2.076-0.328c5.519,0.328,10.273,4.699,15.792,4.699
		c1.202,0.055,2.35-0.273,3.388-0.929c0.984-0.82,1.639-2.022,1.694-3.279C252.067,347.095,251.63,347.696,251.084,348.078z"/>
	<path d="M252.013,334.254c-0.82,0.546-1.858,1.093-1.913,2.076c0,0.219,0,0.383,0.109,0.601c0.437-0.383,0.874-0.71,1.366-1.038
		c2.732-1.803,4.59-4.645,5.136-7.869C255.947,330.592,254.253,332.778,252.013,334.254z"/>
</g>
<path fill="#EAB8A0" d="M167.644,562.114c-2.514,5.956,0.055,11.53,1.257,15.245c1.202,3.716-2.787,6.229-6.339,7.104
	s-12.568,10.601-12.568,10.601s-10.929,6.776-14.699,6.011s4.153-8.634,4.153-8.634l9.508-17.158c0.164-1.749,3.06-9.289,3.06-9.289
	l5.41-27.431l0.71-3.661l19.234-1.148c0,0-1.038,3.115-2.404,7.377C172.617,548.235,169.229,558.399,167.644,562.114z"/>
<path fill="#EAB8A0" d="M321.3,466.216c-0.71,1.311-8.524,2.896-8.524,2.896l-5.246,1.038c0,0-8.634,4.262-14.918,4.262
	l-33.824,5.246l-4.535,0.71v-19.18c0,0,2.295,0.219,5.519,0.546c7.213,0.656,19.18,1.475,20.874,0.273
	c2.404-1.694,3.989-8.251,7.978-7.486c3.989,0.765,8.797,6.284,8.797,6.284s5.628,2.678,11.092,1.311
	C313.978,460.752,322.01,464.905,321.3,466.216z"/>
<path opacity="0.1" enable-background="new    " d="M259.991,478.128c0,0-0.492,0.546-1.202,1.475l-4.535,0.71v-19.18
	c0,0,2.295,0.219,5.519,0.546C265.182,465.943,259.991,478.128,259.991,478.128z"/>
<path fill="#565987" d="M194.583,473.702l18.196,15.191c2.841,2.35,6.339,3.77,10.054,3.989c5.628,0.328,14.48,1.147,20.874,3.115
	l2.677-11.147c0,0,7.65,0.273,9.289-2.35c0.984-1.53,2.022-3.005,3.224-4.371c0,0,5.519-12.896-0.765-16.885
	c0,0-6.994-2.131-8.415-4.044s-11.147-5.41-14.152-5.191s-11.912,0.71-11.912,0.71s-3.497-3.989-5.082-3.552s-7.049,0-7.049,0
	s-1.53-3.88-3.005-9.399c-1.475-5.519-10.437-7.541-10.437-7.541L194.583,473.702z"/>
<path fill="#13466A" d="M194.583,473.702l18.196,15.191c2.841,2.35,6.339,3.77,10.054,3.989c5.628,0.328,14.48,1.147,20.874,3.115
	l2.677-11.147c0,0,7.65,0.273,9.289-2.35c0.984-1.53,2.022-3.005,3.224-4.371c0,0,5.519-12.896-0.765-16.885
	c0,0-6.994-2.131-8.415-4.044s-11.147-5.41-14.152-5.191s-11.912,0.71-11.912,0.71s-3.497-3.989-5.082-3.552s-7.049,0-7.049,0
	s-1.53-3.88-3.005-9.399c-1.475-5.519-10.437-7.541-10.437-7.541L194.583,473.702z"/>
<path fill="#EAB8A0" d="M186.496,337.696l-2.022,0.383h-0.109l-0.273,0.055l-3.443,0.656l-1.038,1.257l-0.055,0.055l-3.388,4.044
	l-2.896,2.787v0.055l-2.404,2.35l-4.098,4.098l-0.71,1.694l-1.475,3.77l-0.383,0.984l-4.098,4.371l-2.623,5.628l-6.12,3.552
	l-6.557-3.443l-3.005-4.371l0.71-6.284l0.164-1.257l2.022-3.224l1.803-2.951l3.552-5.082l6.83-4.645l1.202-0.328l1.366-0.383
	c0.109-0.164,0.219-0.328,0.273-0.492c0.109-0.219,0.219-0.383,0.328-0.601c1.53-3.333,0.984-8.251-0.055-12.622
	c-0.82-3.279-1.858-6.448-3.169-9.563l18.032-2.623c0,0-0.164,3.497-0.164,8.961l0,0c0,1.366,0,2.841,0.055,4.426
	c0.109,4.918,4.645,7.049,8.087,7.978c0.874,0.219,1.803,0.437,2.678,0.546C186.059,337.641,186.496,337.696,186.496,337.696z"/>
<path fill="#EAB8A0" d="M158.082,340.264c0,0,0.82-3.279-5.738-11.639c-6.557-8.36-7.814-22.13-7.814-22.13s-1.639-7.104,0-9.18
	c1.639-2.076,4.371-24.589,4.371-24.589l4.535-12.732c0,0,22.021-22.404,12.841-25.136c-6.229-1.858-13.661,7.705-17.759,14.043
	c-2.022,3.115-3.333,6.612-3.825,10.273l0,0l-12.459,34.097c0,0-1.257,4.098,0,11.202c1.257,7.104,3.989,19.671,3.989,19.671
	l6.994,17.65c0,0,3.661,10.983,1.749,12.295l4.262-6.284L158.082,340.264z"/>
<path fill="#EAB8A0" d="M266.93,371.684c0,0-2.459,6.557-7.541,6.011c-5.082-0.546-29.343-7.486-29.343-7.486
	s-10.109-5.082-14.098-4.918c-3.989,0.164-22.076-8.36-22.076-8.36s-1.257,1.694-2.732,3.442c-1.53,1.913-3.279,3.989-3.716,4.044
	c-0.82,0.164-13.551,1.913-13.551,1.913l-8.634-3.989l-0.82-3.552l-0.383-1.639l1.913-2.131l2.514-2.787l4.699-5.355v-0.055
	l6.284-6.83l0.055-0.055l4.044-1.639l0.765-0.328h0.109c0.492-0.055,2.35-0.273,4.809,1.148c1.749,0.984,3.661,1.585,5.628,1.749
	c3.934,0.273,7.65,1.858,10.546,4.535l20.218,10.655l31.857,11.475c0,0,2.732-15.737,7.377-12.295S266.93,371.684,266.93,371.684z"
	/>
<path opacity="0.1" enable-background="new    " d="M191.141,360.373c-1.53,1.913-3.279,3.989-3.716,4.044
	c-0.82,0.164-13.551,1.913-13.551,1.913l-8.634-3.989l-0.82-3.552l-0.383,0.984l-4.098,4.371l-2.623,5.628l-6.12,3.552l-6.557-3.442
	l-3.005-4.371l0.71-6.284c0.328-0.765,1.311-2.787,2.131-4.481c0.383-0.929,0.929-1.803,1.53-2.678
	c0.546-0.382,1.093-4.262,1.093-4.262c2.459-7.158,10.819-8.251,10.819-8.251l1.311,1.257l0.601,0.601
	c-0.219-0.055,0.055-0.546-0.273-0.492c-0.492,0.164-0.71,0.874-1.311,1.257c-3.333,2.186-8.634,7.267-10.71,9.726
	c-0.492,0.601-1.038,1.147-1.53,1.694c-3.005,3.169-2.459,7.377-2.459,7.377c-0.765,3.279,5.901,5.737,5.901,5.737
	c1.858-3.06,14.371-11.53,14.371-11.53l8.415-9.453c2.568-4.481,7.65-7.431,10.491-8.852c1.257-0.601,2.076-0.929,2.076-0.929
	l3.169,1.366c-0.82-0.219-1.694-0.164-2.514,0.109c-0.492,0.164-0.929,0.328-1.366,0.546c-0.164,0.055-0.328,0.164-0.492,0.273
	c-0.874,0.492-1.694,1.093-2.404,1.749l-7.049,7.705c-5.41,5.901-1.311,15.409,6.666,15.573h0.055
	C185.676,364.526,189.174,362.285,191.141,360.373z"/>
<path opacity="0.1" enable-background="new    " d="M177.371,533.755c0,0-1.038,3.115-2.404,7.377
	c-5.355,0.383-14.152-1.639-17.595-2.568l0.71-3.661L177.371,533.755z"/>
<path fill="#13466A" d="M159.83,341.521l-1.749-1.803c0,0-6.284,0.874-10.218,7.595c0,0-1.858,5.082-2.404,5.41
	s-3.825,7.431-3.825,7.431s-3.88,11.42-0.656,18.469c3.224,7.049,3.388,10.273,3.388,10.273l2.404,10.382l0.984,9.125l8.688,21.475
	l7.978,11.366c0,0-0.765,8.415-2.404,9.563c-1.639,1.147-0.874,7.158-0.874,7.158l-1.038,15.792c0,0-3.224,4.699-3.442,12.349
	s-1.366,9.836-1.366,9.836s-0.546,6.448,0.984,9.344c1.53,2.896-2.404,6.011-2.404,6.011l3.333,11.42l-1.311,14.48
	c0,0,15.464,4.317,21.201,2.514c5.737-1.803,8.743-0.546,8.743-0.546l10.273-41.474l3.552-32.567c0,0,0.219-23.114,3.279-30.108
	c2.623-6.011-0.82-27.431-12.677-31.474c-2.459-0.82-3.716-3.661-5.847-5.191c-1.912-1.366-4.973-4.59-3.442-10.491
	c2.131-8.196,7.431-21.092,7.431-21.092l3.934-7.869c0,0-4.317,6.94-12.131,5.191h-0.055c-7.978-0.164-12.076-9.672-6.666-15.573
	l7.049-7.705c0,0,3.88-3.606,6.776-2.678l-3.169-1.366c0,0-8.852,3.279-12.568,9.781l-8.415,9.453c0,0-12.513,8.415-14.316,11.53
	c0,0-6.612-2.459-5.901-5.737c0,0-0.546-4.208,2.459-7.377c0.546-0.546,1.038-1.147,1.53-1.694
	C149.721,349.39,157.153,341.084,159.83,341.521z"/>
<path opacity="0.1" enable-background="new    " d="M160.869,397.803c0,0-1.967,14.426-0.492,17.376L160.869,397.803z"/>
<path opacity="0.1" enable-background="new    " d="M162.18,403.377l2.131,8.251C164.256,411.682,165.021,406.601,162.18,403.377z"
	/>
<path opacity="0.1" enable-background="new    " d="M149.612,401.464c0,0,4.262,21.038,8.907,27.376"/>
<path opacity="0.1" enable-background="new    " d="M179.447,426.819c0,0-7.268,6.83-10.054,6.339c0,0,11.147,0.492,14.644-5.41
	C184.037,427.802,181.742,426.163,179.447,426.819z"/>
<path opacity="0.1" enable-background="new    " d="M189.501,426.272c0,0-9.289,6.776-11.147,7.377
	C178.354,433.649,188.409,430.807,189.501,426.272z"/>
<path opacity="0.1" enable-background="new    " d="M158.082,376.055c0,0-4.645,5.956-6.994,5.246
	C151.087,381.356,156.77,381.52,158.082,376.055z"/>
<path opacity="0.1" enable-background="new    " d="M163.327,383.705c0,0,10.109-13.715,14.917-13.169
	C178.19,370.536,166.715,380.536,163.327,383.705z"/>
<path opacity="0.1" enable-background="new    " d="M177.316,378.733c0,0-6.448,3.224-5.738,4.153
	C172.289,383.815,177.316,378.733,177.316,378.733z"/>
<path opacity="0.1" enable-background="new    " d="M181.961,484.139c0,0-21.475,12.513-23.442,13.114c0,0,3.716,2.787,7.158,1.421
	C169.12,497.308,181.961,484.139,181.961,484.139z"/>
<path opacity="0.1" enable-background="new    " d="M163.983,510.149c0,0-8.634-0.874-8.251,1.913
	C156.115,514.848,163.983,510.149,163.983,510.149z"/>
<path opacity="0.1" enable-background="new    " d="M174.748,315.675c0,0-0.164,3.497-0.164,8.961l0,0
	c-4.098,3.388-9.563,4.535-14.699,3.224c-0.82-3.279-1.858-6.448-3.169-9.563L174.748,315.675z"/>
<circle fill="#EAB8A0" cx="164.092" cy="310.757" r="16.502"/>
<path opacity="0.1" enable-background="new    " d="M168.409,320.866c0.492,6.776,1.913,14.48,7.759,17.868
	c4.262,2.459,9.563,1.803,14.262,0.437c4.699-1.366,9.289-3.497,14.152-3.716c3.77-0.164,7.486,0.765,11.202,0.984
	s7.869-0.328,10.491-3.005c3.825-3.77,3.115-10.546-0.492-14.48c-3.606-3.934-9.289-5.355-14.644-5.246
	c-6.557,0.164-13.879,2.186-19.07-1.803c-3.497-2.677-4.809-7.322-7.705-10.601c-4.918-5.464-26.502-13.333-31.092-4.426
	c-2.131,4.153,7.595,7.158,9.89,10.164C166.715,311.795,167.972,314.637,168.409,320.866z"/>
<path fill="#895674" d="M168.901,320.265c0.492,6.776,1.912,14.48,7.759,17.868c4.262,2.459,9.563,1.803,14.262,0.437
	c4.699-1.366,9.289-3.497,14.207-3.716c3.77-0.164,7.431,0.765,11.202,0.984s7.814-0.328,10.491-3.005
	c3.825-3.77,3.115-10.546-0.492-14.48c-3.606-3.934-9.289-5.355-14.644-5.246c-6.557,0.164-13.879,2.186-19.07-1.803
	c-3.497-2.677-4.809-7.322-7.705-10.601c-4.918-5.464-26.502-13.333-31.092-4.426c-2.131,4.153,7.595,7.158,9.89,10.164
	C167.262,311.194,168.464,314.036,168.901,320.265z"/>
<path opacity="0.1" enable-background="new    " d="M149.011,366.821c0.492-4.371,2.896-8.306,6.502-10.765"/>
<path opacity="0.1" enable-background="new    " d="M211.031,452.446c-0.055,0.546-0.164,1.038-0.383,1.53
	c-0.71,2.131-1.585,4.262-2.568,6.284c1.475-0.109,2.678-1.257,3.279-2.623c0.546-1.366,0.82-2.787,0.874-4.262
	c0.055-0.437,0.055-0.929,0.055-1.366c-0.055-0.437-0.328-2.076-1.038-1.749C210.648,450.479,211.031,452.009,211.031,452.446z"/>
<path opacity="0.1" enable-background="new    " d="M227.806,331.139c-2.677,2.623-6.776,3.224-10.491,3.005
	c-3.716-0.219-7.486-1.148-11.202-0.984c-4.918,0.219-9.453,2.35-14.152,3.716c-4.699,1.366-10.054,2.022-14.262-0.437
	c-5.847-3.388-7.268-11.147-7.759-17.868c-0.437-6.229-1.694-9.071-5.246-13.825c-2.186-2.896-11.147-5.738-10.109-9.563
	c-0.273,0.328-0.546,0.71-0.765,1.147c-2.131,4.153,7.595,7.158,9.89,10.164c3.552,4.754,4.809,7.595,5.246,13.825
	c0.492,6.776,1.912,14.48,7.759,17.868c4.262,2.459,9.563,1.803,14.262,0.437c4.699-1.366,9.289-3.497,14.207-3.716
	c3.77-0.164,7.431,0.765,11.202,0.984s7.814-0.328,10.491-3.005c0.765-0.765,1.366-1.639,1.803-2.623
	C228.352,330.538,228.134,330.866,227.806,331.139z"/>
<polygon fill="#114471" points="147.864,380.809 145.842,385.181 152.235,383.924 "/>
<polygon fill="#114471" points="147.864,380.809 146.17,385.181 145.842,385.181 "/>
<ellipse opacity="0.1" fill="#536DFE" enable-background="new    " cx="305.617" cy="576.157" rx="22.404" ry="3.06"/>
<ellipse opacity="0.1" fill="#536DFE" enable-background="new    " cx="391.461" cy="584.846" rx="22.404" ry="3.06"/>
<ellipse opacity="0.1" fill="#536DFE" enable-background="new    " cx="492.551" cy="573.097" rx="22.404" ry="3.06"/>
<ellipse opacity="0.1" fill="#536DFE" enable-background="new    " cx="357.091" cy="609.654" rx="15.901" ry="2.186"/>
<ellipse opacity="0.1" fill="#536DFE" enable-background="new    " cx="446.159" cy="607.468" rx="15.901" ry="2.186"/>
<path fill="#37B079" d="M391.953,584.19c0,0-31.42-103.002,4.918-144.257c27.158-30.873,58.031-27.158,71.855-23.333
	c7.213,1.913,13.278,6.94,16.502,13.715c4.809,10.437,3.989,27.321-30.163,47.102c-57.102,33.059-60.654,78.412-60.654,78.412
	L391.953,584.19z"/>
<path fill="none" stroke="#565987" stroke-miterlimit="10" d="M463.809,431.19c0,0-92.62,28.961-71.855,153"/>
<path fill="none" stroke="#565987" stroke-miterlimit="10" d="M409.712,441.572c0,0,12.732,8.579,8.688,21.529"/>
<path fill="none" stroke="#565987" stroke-miterlimit="10" d="M454.519,449.222c0,0-7.814-7.923-17.267-3.552"/>
<path fill="none" stroke="#565987" stroke-miterlimit="10" d="M417.909,489.111c0,0-13.715-6.94-17.213,1.749"/>
<path fill="none" stroke="#565987" stroke-miterlimit="10" d="M384.03,503.592c0,0,10.273-0.82,10.491,4.098"/>
<path fill="#37B079" d="M390.696,585.01c0,0,36.775-74.861,46.884-73.221c4.809,0.765,6.994,5.519,8.033,10.273
	c1.257,6.12,0.546,12.513-2.022,18.251C438.345,552.224,424.356,574.955,390.696,585.01z"/>
<path fill="none" stroke="#565987" stroke-miterlimit="10" d="M437.307,525.995c0,0-38.633,56.009-46.064,58.468"/>
<line fill="none" stroke="#565987" stroke-miterlimit="10" x1="440.859" y1="534.738" x2="431.842" y2="534.738"/>
<line fill="none" stroke="#565987" stroke-miterlimit="10" x1="430.039" y1="555.229" x2="415.941" y2="555.83"/>
<line fill="none" stroke="#565987" stroke-miterlimit="10" x1="421.46" y1="538.836" x2="422.99" y2="546.213"/>
<line fill="none" stroke="#565987" stroke-miterlimit="10" x1="406.434" y1="561.24" x2="406.707" y2="567.906"/>
<path fill="#37B079" d="M391.789,585.01c0,0-36.775-74.861-46.884-73.221c-4.809,0.765-6.994,5.519-8.033,10.273
	c-1.257,6.12-0.546,12.513,1.967,18.251C344.086,552.224,358.075,574.955,391.789,585.01z"/>
<path fill="none" stroke="#565987" stroke-miterlimit="10" d="M345.124,525.995c0,0,38.633,56.009,46.064,58.468"/>
<line fill="none" stroke="#565987" stroke-miterlimit="10" x1="341.572" y1="534.738" x2="350.589" y2="534.738"/>
<line fill="none" stroke="#565987" stroke-miterlimit="10" x1="352.392" y1="555.229" x2="366.49" y2="555.83"/>
<line fill="none" stroke="#565987" stroke-miterlimit="10" x1="360.971" y1="538.836" x2="359.441" y2="546.213"/>
<line fill="none" stroke="#565987" stroke-miterlimit="10" x1="375.997" y1="561.24" x2="375.724" y2="567.906"/>
<path fill="#197664" d="M454.956,602.495c0.984-0.82,1.749-1.912,2.076-3.169c0.273-1.257-0.273-2.732-1.475-3.224
	c-1.366-0.492-2.787,0.437-3.88,1.366c-1.093,0.929-2.35,2.022-3.77,1.803c1.475-1.366,2.186-3.388,1.749-5.355
	c-0.055-0.383-0.219-0.765-0.492-1.093c-0.765-0.82-2.076-0.437-3.005,0.164c-2.841,2.022-3.661,5.847-3.661,9.344
	c-0.273-1.257-0.055-2.568-0.055-3.825s-0.383-2.732-1.421-3.388c-0.656-0.383-1.421-0.546-2.186-0.546
	c-1.257-0.055-2.678,0.109-3.552,1.038c-1.093,1.147-0.82,3.115,0.164,4.371c0.984,1.257,2.35,2.076,3.716,2.951
	c1.038,0.601,1.967,1.475,2.623,2.514c0.055,0.164,0.164,0.273,0.219,0.437h8.033C451.787,604.954,453.481,603.807,454.956,602.495z
	"/>
<path fill="#197664" d="M314.743,572.333c0.984-0.82,1.749-1.913,2.076-3.169c0.273-1.257-0.273-2.732-1.475-3.224
	c-1.366-0.492-2.787,0.437-3.88,1.366c-1.093,0.929-2.35,2.022-3.77,1.803c1.475-1.366,2.131-3.388,1.749-5.355
	c-0.055-0.383-0.219-0.765-0.492-1.093c-0.765-0.82-2.076-0.437-3.005,0.164c-2.841,2.022-3.661,5.847-3.661,9.344
	c-0.273-1.257-0.055-2.568-0.055-3.825s-0.383-2.732-1.475-3.388c-0.656-0.383-1.421-0.546-2.186-0.492
	c-1.257-0.055-2.678,0.055-3.552,0.984c-1.093,1.147-0.82,3.115,0.164,4.371c0.984,1.257,2.35,2.076,3.716,2.951
	c1.038,0.656,1.967,1.475,2.623,2.514c0.055,0.164,0.164,0.273,0.219,0.437h8.033C311.574,574.846,313.267,573.699,314.743,572.333z
	"/>
<path fill="#197664" d="M361.462,602.495c0.984-0.82,1.749-1.912,2.076-3.169c0.273-1.257-0.273-2.732-1.475-3.224
	c-1.366-0.492-2.787,0.437-3.88,1.366c-1.093,0.929-2.35,2.022-3.77,1.803c1.475-1.366,2.186-3.388,1.749-5.355
	c-0.055-0.383-0.219-0.765-0.492-1.093c-0.765-0.82-2.076-0.437-3.005,0.164c-2.841,2.022-3.661,5.847-3.661,9.344
	c-0.273-1.257-0.055-2.568-0.055-3.825s-0.383-2.732-1.421-3.388c-0.656-0.383-1.421-0.546-2.186-0.546
	c-1.257-0.055-2.678,0.109-3.552,1.038c-1.093,1.147-0.82,3.115,0.164,4.371s2.35,2.076,3.716,2.951
	c1.038,0.601,1.967,1.475,2.623,2.514c0.055,0.164,0.164,0.273,0.219,0.437h8.033C358.293,604.954,359.987,603.807,361.462,602.495z
	"/>
<path fill="#197664" d="M493.971,541.514c0,0,3.005,3.934-1.366,9.836s-8.033,10.929-6.557,14.644c0,0,6.612-10.983,12.021-11.147
	C503.479,554.683,499.927,548.18,493.971,541.514z"/>
<path opacity="0.1" enable-background="new    " d="M493.971,541.514c0.273,0.383,0.492,0.765,0.601,1.257
	c5.246,6.175,8.087,11.912,3.005,12.076c-4.699,0.109-10.327,8.579-11.694,10.655c0.055,0.164,0.109,0.328,0.164,0.492
	c0,0,6.612-10.983,12.021-11.147C503.479,554.683,499.927,548.18,493.971,541.514z"/>
<path fill="#FFD037" d="M499.6,546.541c0,1.366-0.164,2.514-0.328,2.514c-0.164,0-0.328-1.148-0.328-2.514
	c0-1.366,0.164-0.71,0.383-0.71S499.6,545.175,499.6,546.541z"/>
<path fill="#FFD037" d="M501.512,548.18c-1.202,0.656-2.295,1.038-2.35,0.874c-0.055-0.164,0.82-0.82,2.022-1.53
	c1.202-0.71,0.71-0.164,0.82,0C502.113,547.689,502.714,547.525,501.512,548.18z"/>
<path fill="#197664" d="M478.125,541.514c0,0-3.005,3.934,1.366,9.836s8.033,10.929,6.557,14.644c0,0-6.612-10.983-12.021-11.147
	C468.617,554.683,472.224,548.18,478.125,541.514z"/>
<path opacity="0.1" enable-background="new    " d="M478.125,541.514c-0.273,0.383-0.492,0.765-0.601,1.257
	c-5.246,6.175-8.033,11.912-3.005,12.076c4.699,0.109,10.382,8.579,11.694,10.655c-0.055,0.164-0.109,0.328-0.164,0.492
	c0,0-6.612-10.983-12.021-11.147C468.617,554.683,472.224,548.18,478.125,541.514z"/>
<path fill="#FFD037" d="M472.551,546.541c0,1.366,0.164,2.514,0.328,2.514c0.164,0,0.328-1.093,0.328-2.514s-0.164-0.71-0.383-0.71
	C472.606,545.831,472.551,545.175,472.551,546.541z"/>
<path fill="#FFD037" d="M470.639,548.18c1.202,0.656,2.295,1.038,2.35,0.874s-0.82-0.82-2.022-1.53c-1.202-0.71-0.71-0.164-0.82,0
	C470.038,547.689,469.437,547.525,470.639,548.18z"/>
<path fill="#A8A8A8" d="M473.535,565.502c0,0,8.415-0.273,10.929-2.076c2.514-1.803,12.896-3.934,13.551-1.038
	c0.656,2.896,12.622,14.371,3.115,14.426c-9.508,0.055-22.021-1.475-24.535-3.005C474.081,572.278,473.535,565.502,473.535,565.502z
	"/>
<path opacity="0.2" enable-background="new    " d="M501.294,575.83c-9.453,0.055-22.021-1.475-24.535-3.005
	c-1.913-1.148-2.677-5.355-2.951-7.322h-0.273c0,0,0.546,6.776,3.06,8.306c2.514,1.53,15.081,3.115,24.535,3.005
	c2.732,0,3.661-0.984,3.606-2.459C504.354,575.229,503.315,575.775,501.294,575.83z"/>
</svg>
