<?xml version="1.0" encoding="utf-8"?>
<!-- Generator: Adobe Illustrator 17.0.0, SVG Export Plug-In . SVG Version: 6.00 Build 0)  -->
<!DOCTYPE svg PUBLIC "-//W3C//DTD SVG 1.1//EN" "http://www.w3.org/Graphics/SVG/1.1/DTD/svg11.dtd">
<svg version="1.1" id="Слой_1" xmlns="http://www.w3.org/2000/svg" xmlns:xlink="http://www.w3.org/1999/xlink" x="0px" y="0px"
	 width="612px" height="436.11px" viewBox="0 179.08 612 436.11" enable-background="new 0 179.08 612 436.11" xml:space="preserve"
	>
<g>
	<g>
		<g>
			<g>
				<g>
					<path opacity="0.24" fill="#C7C7C7" enable-background="new    " d="M581.4,421.211
						c-8.468,47.921-50.615,86.219-96.611,119.513c-10.008,7.313-20.4,14.434-30.408,21.362
						c-30.985,21.17-63.702,42.917-103.54,49.845c-40.608,7.121-82.947-2.309-120.86-15.204
						c-46.189-15.589-88.913-36.566-127.211-62.355c-5.966-3.849-11.932-7.891-17.513-12.317
						c-31.755-23.287-60.815-52.924-60.238-86.989c0.577-27.136,20.208-51.577,30.023-77.559
						c13.472-35.796,9.045-75.249,27.906-109.506c26.174-47.728,96.804-71.208,160.121-67.551
						c26.943,1.732,53.117,8.468,80.445,10.008c39.645,2.309,81.985-3.464,119.321,10.2c35.026,13.087,56.581,40.992,76.404,67.166
						C554.457,315.17,590.83,367.132,581.4,421.211z"/>
					<path fill="none" stroke="#FFFFFF" stroke-width="1.91" stroke-linecap="round" stroke-miterlimit="10" d="M128.366,227.604
						l-2.117,5.774"/>
					
						<path fill="none" stroke="#FFFFFF" stroke-width="1.91" stroke-linecap="round" stroke-miterlimit="10" stroke-dasharray="15.75,15.75" d="
						M121.63,245.694L22.325,509.74"/>
					<path fill="none" stroke="#FFFFFF" stroke-width="1.91" stroke-linecap="round" stroke-miterlimit="10" d="M154.347,230.106
						l-2.309,5.966"/>
					
						<path fill="none" stroke="#FFFFFF" stroke-width="1.91" stroke-linecap="round" stroke-miterlimit="10" stroke-dasharray="15.75,15.75" d="
						M147.419,248.389L48.113,512.242"/>
					<path fill="none" stroke="#FFFFFF" stroke-width="1.91" stroke-linecap="round" stroke-miterlimit="10" d="M45.611,518.4
						l-2.309,5.966"/>
					<path fill="none" stroke="#FFFFFF" stroke-width="1.91" stroke-linecap="round" stroke-miterlimit="10" d="M161.66,240.113
						l-2.309,5.966"/>
					
						<path fill="none" stroke="#FFFFFF" stroke-width="1.91" stroke-linecap="round" stroke-miterlimit="10" stroke-dasharray="15.75,15.75" d="
						M154.54,258.589L55.234,522.634"/>
					<path fill="none" stroke="#FFFFFF" stroke-width="1.91" stroke-linecap="round" stroke-miterlimit="10" d="M52.925,528.792
						l-2.309,5.966"/>
					<path fill="none" stroke="#FFFFFF" stroke-width="1.91" stroke-linecap="round" stroke-miterlimit="10" d="M178.019,231.26
						l-2.309,5.966"/>
					
						<path fill="none" stroke="#FFFFFF" stroke-width="1.91" stroke-linecap="round" stroke-miterlimit="10" stroke-dasharray="15.75,15.75" d="
						M171.283,249.351L71.785,513.396"/>
					<path fill="none" stroke="#FFFFFF" stroke-width="1.91" stroke-linecap="round" stroke-miterlimit="10" d="M69.283,519.555
						l-2.309,5.966"/>
					<path fill="none" stroke="#FFFFFF" stroke-width="1.91" stroke-linecap="round" stroke-miterlimit="10" d="M201.691,232.415
						l-2.309,5.966"/>
					
						<path fill="none" stroke="#FFFFFF" stroke-width="1.91" stroke-linecap="round" stroke-miterlimit="10" stroke-dasharray="15.75,15.75" d="
						M194.762,250.698L95.264,514.551"/>
					<path fill="none" stroke="#FFFFFF" stroke-width="1.91" stroke-linecap="round" stroke-miterlimit="10" d="M92.955,520.709
						l-2.309,5.966"/>
					<path fill="none" stroke="#FFFFFF" stroke-width="1.91" stroke-linecap="round" stroke-miterlimit="10" d="M193.223,229.336
						l-2.117,5.966"/>
					
						<path fill="none" stroke="#FFFFFF" stroke-width="1.91" stroke-linecap="round" stroke-miterlimit="10" stroke-dasharray="15.75,15.75" d="
						M186.487,247.619L87.181,511.472"/>
					<path fill="none" stroke="#FFFFFF" stroke-width="1.91" stroke-linecap="round" stroke-miterlimit="10" d="M84.679,517.63
						l-2.309,5.966"/>
					<path fill="none" stroke="#FFFFFF" stroke-width="1.91" stroke-linecap="round" stroke-miterlimit="10" d="M225.17,233.57
						l-2.309,5.966"/>
					
						<path fill="none" stroke="#FFFFFF" stroke-width="1.91" stroke-linecap="round" stroke-miterlimit="10" stroke-dasharray="15.75,15.75" d="
						M218.434,251.853l-99.498,264.045"/>
					<path fill="none" stroke="#FFFFFF" stroke-width="1.91" stroke-linecap="round" stroke-miterlimit="10" d="M116.626,521.864
						l-2.309,5.966"/>
					<path fill="none" stroke="#FFFFFF" stroke-width="1.91" stroke-linecap="round" stroke-miterlimit="10" d="M217.087,226.449
						l-2.309,5.966"/>
					
						<path fill="none" stroke="#FFFFFF" stroke-width="1.91" stroke-linecap="round" stroke-miterlimit="10" stroke-dasharray="15.75,15.75" d="
						M210.158,244.732L110.66,508.585"/>
					<path fill="none" stroke="#FFFFFF" stroke-width="1.91" stroke-linecap="round" stroke-miterlimit="10" d="M108.351,514.936
						l-2.309,5.966"/>
					<path fill="none" stroke="#FFFFFF" stroke-width="1.91" stroke-linecap="round" stroke-miterlimit="10" d="M249.034,234.725
						l-2.309,5.966"/>
					
						<path fill="none" stroke="#FFFFFF" stroke-width="1.91" stroke-linecap="round" stroke-miterlimit="10" stroke-dasharray="15.75,15.75" d="
						M242.298,252.815L142.8,516.86"/>
					<path fill="none" stroke="#FFFFFF" stroke-width="1.91" stroke-linecap="round" stroke-miterlimit="10" d="M140.298,523.019
						l-2.309,5.966"/>
					<path fill="none" stroke="#FFFFFF" stroke-width="1.91" stroke-linecap="round" stroke-miterlimit="10" d="M241.721,221.253
						l-2.309,5.966"/>
					
						<path fill="none" stroke="#FFFFFF" stroke-width="1.91" stroke-linecap="round" stroke-miterlimit="10" stroke-dasharray="15.75,15.75" d="
						M234.792,239.343l-99.306,264.045"/>
					<path fill="none" stroke="#FFFFFF" stroke-width="1.91" stroke-linecap="round" stroke-miterlimit="10" d="M133.177,509.547
						l-2.309,5.966"/>
					<path fill="none" stroke="#FFFFFF" stroke-width="1.91" stroke-linecap="round" stroke-miterlimit="10" d="M272.706,235.879
						l-2.309,5.966"/>
					
						<path fill="none" stroke="#FFFFFF" stroke-width="1.91" stroke-linecap="round" stroke-miterlimit="10" stroke-dasharray="15.75,15.75" d="
						M265.777,254.162l-99.498,263.853"/>
					<path fill="none" stroke="#FFFFFF" stroke-width="1.91" stroke-linecap="round" stroke-miterlimit="10" d="M163.97,524.174
						l-2.309,5.966"/>
					<path fill="none" stroke="#FFFFFF" stroke-width="1.91" stroke-linecap="round" stroke-miterlimit="10" d="M264.238,231.068
						l-2.309,5.966"/>
					
						<path fill="none" stroke="#FFFFFF" stroke-width="1.91" stroke-linecap="round" stroke-miterlimit="10" stroke-dasharray="15.75,15.75" d="
						M257.309,249.351l-99.498,264.045"/>
					<path fill="none" stroke="#FFFFFF" stroke-width="1.91" stroke-linecap="round" stroke-miterlimit="10" d="M155.694,519.555
						l-2.309,5.966"/>
					<path fill="none" stroke="#FFFFFF" stroke-width="1.91" stroke-linecap="round" stroke-miterlimit="10" d="M296.185,237.226
						l-2.309,5.966"/>
					
						<path fill="none" stroke="#FFFFFF" stroke-width="1.91" stroke-linecap="round" stroke-miterlimit="10" stroke-dasharray="15.75,15.75" d="
						M289.449,255.317l-99.498,264.045"/>
					<path fill="none" stroke="#FFFFFF" stroke-width="1.91" stroke-linecap="round" stroke-miterlimit="10" d="M187.642,525.521
						l-2.309,5.966"/>
					<path fill="none" stroke="#FFFFFF" stroke-width="1.91" stroke-linecap="round" stroke-miterlimit="10" d="M289.064,234.147
						l-2.309,5.966"/>
					
						<path fill="none" stroke="#FFFFFF" stroke-width="1.91" stroke-linecap="round" stroke-miterlimit="10" stroke-dasharray="15.75,15.75" d="
						M282.328,252.238l-99.691,264.045"/>
					<path fill="none" stroke="#FFFFFF" stroke-width="1.91" stroke-linecap="round" stroke-miterlimit="10" d="M180.328,522.441
						l-2.309,5.966"/>
					<path fill="none" stroke="#FFFFFF" stroke-width="1.91" stroke-linecap="round" stroke-miterlimit="10" d="M320.049,238.189
						l-2.309,5.966"/>
					
						<path fill="none" stroke="#FFFFFF" stroke-width="1.91" stroke-linecap="round" stroke-miterlimit="10" stroke-dasharray="15.75,15.75" d="
						M312.928,256.279l-99.306,264.045"/>
					<path fill="none" stroke="#FFFFFF" stroke-width="1.91" stroke-linecap="round" stroke-miterlimit="10" d="M211.313,526.675
						l-2.309,5.966"/>
					<path fill="none" stroke="#FFFFFF" stroke-width="1.91" stroke-linecap="round" stroke-miterlimit="10" d="M401.072,243.962
						l-2.309,5.966"/>
					
						<path fill="none" stroke="#FFFFFF" stroke-width="1.91" stroke-linecap="round" stroke-miterlimit="10" stroke-dasharray="15.75,15.75" d="
						M393.951,262.053l-99.498,263.853"/>
					<path fill="none" stroke="#FFFFFF" stroke-width="1.91" stroke-linecap="round" stroke-miterlimit="10" d="M292.336,532.257
						l-2.309,5.966"/>
					<path fill="none" stroke="#FFFFFF" stroke-width="1.91" stroke-linecap="round" stroke-miterlimit="10" d="M343.721,239.343
						l-2.309,5.966"/>
					
						<path fill="none" stroke="#FFFFFF" stroke-width="1.91" stroke-linecap="round" stroke-miterlimit="10" stroke-dasharray="15.75,15.75" d="
						M336.792,257.626l-99.498,263.853"/>
					<path fill="none" stroke="#FFFFFF" stroke-width="1.91" stroke-linecap="round" stroke-miterlimit="10" d="M234.985,527.638
						l-2.117,5.966"/>
					<path fill="none" stroke="#FFFFFF" stroke-width="1.91" stroke-linecap="round" stroke-miterlimit="10" d="M367.2,240.691
						l-2.309,5.966"/>
					
						<path fill="none" stroke="#FFFFFF" stroke-width="1.91" stroke-linecap="round" stroke-miterlimit="10" stroke-dasharray="15.75,15.75" d="
						M360.464,258.781l-99.498,263.853"/>
					<path fill="none" stroke="#FFFFFF" stroke-width="1.91" stroke-linecap="round" stroke-miterlimit="10" d="M258.657,528.985
						l-2.309,5.966"/>
					<path fill="none" stroke="#FFFFFF" stroke-width="1.91" stroke-linecap="round" stroke-miterlimit="10" d="M390.872,241.845
						l-2.309,5.966"/>
					
						<path fill="none" stroke="#FFFFFF" stroke-width="1.91" stroke-linecap="round" stroke-miterlimit="10" stroke-dasharray="15.75,15.75" d="
						M383.943,260.128l-99.306,263.853"/>
					<path fill="none" stroke="#FFFFFF" stroke-width="1.91" stroke-linecap="round" stroke-miterlimit="10" d="M282.328,530.14
						l-2.309,5.966"/>
					<path fill="none" stroke="#FFFFFF" stroke-width="1.91" stroke-linecap="round" stroke-miterlimit="10" d="M414.543,242.808
						l-2.309,5.966"/>
					
						<path fill="none" stroke="#FFFFFF" stroke-width="1.91" stroke-linecap="round" stroke-miterlimit="10" stroke-dasharray="15.75,15.75" d="
						M407.808,261.091l-99.498,263.853"/>
					<path fill="none" stroke="#FFFFFF" stroke-width="1.91" stroke-linecap="round" stroke-miterlimit="10" d="M306,531.102
						l-2.309,5.966"/>
					<path fill="none" stroke="#FFFFFF" stroke-width="1.91" stroke-linecap="round" stroke-miterlimit="10" d="M425.128,248.196
						l-2.309,5.966"/>
					
						<path fill="none" stroke="#FFFFFF" stroke-width="1.91" stroke-linecap="round" stroke-miterlimit="10" stroke-dasharray="15.75,15.75" d="
						M418.2,266.479l-99.498,263.853"/>
					<path fill="none" stroke="#FFFFFF" stroke-width="1.91" stroke-linecap="round" stroke-miterlimit="10" d="M316.392,536.491
						l-2.309,5.966"/>
					<path fill="none" stroke="#FFFFFF" stroke-width="1.91" stroke-linecap="round" stroke-miterlimit="10" d="M438.215,244.155
						l-2.309,5.966"/>
					
						<path fill="none" stroke="#FFFFFF" stroke-width="1.91" stroke-linecap="round" stroke-miterlimit="10" stroke-dasharray="15.75,15.75" d="
						M431.287,262.245l-99.498,263.853"/>
					<path fill="none" stroke="#FFFFFF" stroke-width="1.91" stroke-linecap="round" stroke-miterlimit="10" d="M329.479,532.449
						l-2.309,5.966"/>
					<path fill="none" stroke="#FFFFFF" stroke-width="1.91" stroke-linecap="round" stroke-miterlimit="10" d="M447.645,248.774
						l-2.309,5.966"/>
					
						<path fill="none" stroke="#FFFFFF" stroke-width="1.91" stroke-linecap="round" stroke-miterlimit="10" stroke-dasharray="15.75,15.75" d="
						M440.909,267.249l-99.498,263.853"/>
					<path fill="none" stroke="#FFFFFF" stroke-width="1.91" stroke-linecap="round" stroke-miterlimit="10" d="M338.909,537.26
						l-2.117,5.966"/>
					<path fill="none" stroke="#FFFFFF" stroke-width="1.91" stroke-linecap="round" stroke-miterlimit="10" d="M461.887,245.309
						l-2.309,5.966"/>
					
						<path fill="none" stroke="#FFFFFF" stroke-width="1.91" stroke-linecap="round" stroke-miterlimit="10" stroke-dasharray="15.75,15.75" d="
						M454.958,263.592L355.46,527.445"/>
					<path fill="none" stroke="#FFFFFF" stroke-width="1.91" stroke-linecap="round" stroke-miterlimit="10" d="M353.343,533.604
						l-2.309,5.966"/>
					<path fill="none" stroke="#FFFFFF" stroke-width="1.91" stroke-linecap="round" stroke-miterlimit="10" d="M485.559,246.272
						l-2.309,5.966"/>
					
						<path fill="none" stroke="#FFFFFF" stroke-width="1.91" stroke-linecap="round" stroke-miterlimit="10" stroke-dasharray="15.75,15.75" d="
						M478.823,264.555l-99.498,263.853"/>
					<path fill="none" stroke="#FFFFFF" stroke-width="1.91" stroke-linecap="round" stroke-miterlimit="10" d="M376.823,534.758
						l-2.309,5.966"/>
					<path fill="none" stroke="#FFFFFF" stroke-width="1.91" stroke-linecap="round" stroke-miterlimit="10" d="M509.23,247.619
						l-2.309,5.966"/>
					
						<path fill="none" stroke="#FFFFFF" stroke-width="1.91" stroke-linecap="round" stroke-miterlimit="10" stroke-dasharray="15.75,15.75" d="
						M502.302,265.709l-99.498,264.045"/>
					<path fill="none" stroke="#FFFFFF" stroke-width="1.91" stroke-linecap="round" stroke-miterlimit="10" d="M400.494,535.913
						l-2.309,5.966"/>
					<path fill="none" stroke="#FFFFFF" stroke-width="1.91" stroke-linecap="round" stroke-miterlimit="10" d="M532.902,248.774
						l-2.31,5.966"/>
					
						<path fill="none" stroke="#FFFFFF" stroke-width="1.91" stroke-linecap="round" stroke-miterlimit="10" stroke-dasharray="15.75,15.75" d="
						M525.974,267.057l-99.498,263.853"/>
					<path fill="none" stroke="#FFFFFF" stroke-width="1.91" stroke-linecap="round" stroke-miterlimit="10" d="M424.358,537.068
						l-2.309,5.966"/>
					<path fill="none" stroke="#FFFFFF" stroke-width="1.91" stroke-linecap="round" stroke-miterlimit="10" d="M556.574,249.736
						l-2.309,5.966"/>
					
						<path fill="none" stroke="#FFFFFF" stroke-width="1.91" stroke-linecap="round" stroke-miterlimit="10" stroke-dasharray="15.75,15.75" d="
						M549.645,268.211L450.34,532.257"/>
					<path fill="none" stroke="#FFFFFF" stroke-width="1.91" stroke-linecap="round" stroke-miterlimit="10" d="M447.838,538.223
						l-2.309,5.966"/>
					<path fill="none" stroke="#FFFFFF" stroke-width="1.91" stroke-linecap="round" stroke-miterlimit="10" d="M580.245,251.083
						l-2.309,5.966"/>
					
						<path fill="none" stroke="#FFFFFF" stroke-width="1.91" stroke-linecap="round" stroke-miterlimit="10" stroke-dasharray="15.75,15.75" d="
						M573.317,269.174l-99.498,263.853"/>
					<path fill="none" stroke="#FFFFFF" stroke-width="1.91" stroke-linecap="round" stroke-miterlimit="10" d="M471.509,539.377
						l-2.309,5.966"/>
					<path fill="none" stroke="#FFFFFF" stroke-width="1.91" stroke-linecap="round" stroke-miterlimit="10" d="M150.883,208.166
						l-2.309,5.966"/>
					
						<path fill="none" stroke="#FFFFFF" stroke-width="1.91" stroke-linecap="round" stroke-miterlimit="10" stroke-dasharray="15.75,15.75" d="
						M144.147,226.257L44.842,490.302"/>
					<path fill="none" stroke="#FFFFFF" stroke-width="1.91" stroke-linecap="round" stroke-miterlimit="10" d="M42.34,496.46
						l-2.309,5.966"/>
					<path opacity="0.24" fill="#B1CADB" enable-background="new    " d="M486.136,536.298c-0.385,1.347-0.77,2.887-1.155,4.234
						c-10.008,7.313-20.4,14.434-30.408,21.362c-30.985,21.17-63.702,42.917-103.54,49.845
						c-40.608,7.121-82.947-2.309-120.86-15.204c-46.189-15.589-88.913-36.566-127.211-62.355c1.732-0.962,3.272-1.924,5.196-2.502
						c20.208-7.313,53.694-5.004,75.826-8.468c55.234-8.853,111.238-22.132,168.204-15.204
						C397.415,514.358,439.947,533.219,486.136,536.298z"/>
					<path opacity="0.24" fill="#ACACAC" enable-background="new    " d="M198.419,530.717c-1.347,0-2.694,0.192-3.849,0.77
						c-2.887,1.925,0,5.389,2.887,6.928c23.864,13.664,58.891,8.853,82.947,22.325c2.309,1.155,4.619,2.887,7.506,2.887
						c3.272-0.192,5.774-2.309,8.853-3.464c4.234-1.925,9.623-1.155,14.241-0.385c10.777,1.925,21.362,5.004,30.985,9.045
						c5.966,2.502,12.317,5.581,18.668,3.849c3.849-0.77,6.736-3.272,10.008-5.389c7.891-5.004,18.091-7.121,27.328-10.392
						c10.392-3.657,20.015-8.468,28.483-14.242c3.464-2.502,6.928-5.966,5.389-9.43c-1.155-2.694-5.389-3.849-8.853-4.234
						c-21.555-3.079-42.725,5.966-64.664,6.351c-11.547,0.193-22.709-2.117-33.872-3.657c-3.657-0.577-7.506-1.155-11.162-0.385
						c-3.657,0.577-7.121,2.887-7.506,5.966c-0.192,1.155,0.192,2.502-0.77,3.272c-0.962,0.77-2.502,0.77-3.849,0.77
						c-15.589-0.385-30.215-5.966-45.611-7.698C236.332,531.294,217.279,530.332,198.419,530.717z"/>
					<path fill="#ACACAC" d="M291.374,347.887c-0.577,9.238-3.079,18.283-2.502,27.328c0.192,4.426,1.155,8.853,1.155,13.279
						c-0.192,4.426-2.117,9.045-6.543,11.932c-6.736,4.426-16.936,3.079-25.596,1.347c-2.309-0.385-4.426-0.77-5.966-2.309
						c-1.155-1.155-1.925-2.887-1.925-4.426c-0.962-7.506-1.347-15.396-0.962-22.902c0.192-3.464,0.385-6.928,0.577-10.392
						c0-1.924,0.192-3.464,0.385-5.196c0.962-10.777,3.657-20.4,12.317-29.638c1.155-1.155,2.502-2.694,3.657-4.042c0,0,0,0,0-0.192
						c0.385-0.385,0.962-0.962,1.347-1.347c1.347-1.155,3.079-2.117,5.004-2.694c0.77-0.192,1.925-0.385,2.887-0.385
						c6.543,0.192,10.777,6.543,12.894,10.585C291.374,335.185,291.759,341.728,291.374,347.887z"/>
					<path fill="#45435A" d="M243.068,319.211c-2.502,1.347-5.581,2.502-7.313,4.234c-2.309,2.502-1.732,6.158,0.192,8.853
						c0.962,1.732,2.309,3.272,1.925,5.196c-0.385,1.925-2.694,3.079-4.042,4.426c-1.155,1.155-2.309,2.694-2.694,4.234
						c-0.385,1.732-0.385,3.272,0.192,4.619c0.577,1.347,1.732,2.887,2.887,4.042c1.155,1.155,3.079,2.117,5.196,2.502
						c4.426,1.155,9.623,0.192,13.664-1.732c4.042-1.925,7.313-4.619,10.392-7.506c1.155-0.962,2.309-2.117,2.887-3.272
						c2.694-5.004-2.694-10.392-1.732-15.781c0.577-2.694,2.694-5.004,3.272-7.506c0.577-3.272-1.155-6.543-3.657-9.045
						c-2.887-2.887-9.623-6.736-14.049-3.464C246.532,312.091,247.302,316.517,243.068,319.211z"/>
					
						<linearGradient id="SVGID_1_" gradientUnits="userSpaceOnUse" x1="126.781" y1="1509.4221" x2="138.6875" y2="1528.0862" gradientTransform="matrix(1.9245 0 0 1.9245 7.8777 -2572.9883)">
						<stop  offset="0" style="stop-color:#010101;stop-opacity:0"/>
						<stop  offset="0.95" style="stop-color:#010101"/>
					</linearGradient>
					<path fill="url(#SVGID_1_)" d="M267.702,321.713L267.702,321.713c-0.192,0.577-0.192,0.962-0.385,1.347l-0.192,0.192
						c-0.77,2.117-2.309,3.849-2.694,5.966c-0.962,5.389,4.426,10.777,1.732,15.781c-0.77,1.155-1.732,2.309-2.887,3.272
						c-3.272,2.887-6.351,5.581-10.392,7.506c-0.77,0.385-1.925,0.77-2.694,0.962c-1.347,0.385-2.694,0.77-4.234,0.962
						c0.962-6.928,1.732-13.664,1.347-20.592c0-2.694-0.192-5.389,0.77-7.698c0.962-2.309,3.079-5.004,6.351-5.774
						c1.347-0.192,2.887-0.385,4.234-0.385c2.309,0,5.196-0.577,7.506,0c0,0,0,0,0-0.192
						C266.74,322.675,267.125,322.291,267.702,321.713z"/>
					
						<linearGradient id="SVGID_2_" gradientUnits="userSpaceOnUse" x1="157.7145" y1="1537.2688" x2="164.1155" y2="1537.2688" gradientTransform="matrix(1.9245 0 0 1.9245 7.8777 -2572.9883)">
						<stop  offset="0" style="stop-color:#E4C5D5"/>
						<stop  offset="0.42" style="stop-color:#E9D3CF"/>
						<stop  offset="1" style="stop-color:#EFE8CA"/>
					</linearGradient>
					<path fill="url(#SVGID_2_)" d="M320.242,407.162c2.694-3.464,3.272-7.506,2.887-11.547c-0.192-3.849-1.155-7.891-1.347-11.932
						c0-5.196,1.732-10.2,1.925-15.396c0.192-2.887,0.192-3.849-3.657-4.234c-2.117-0.192-4.234-0.385-6.158,0.577
						c-3.657,2.117-2.309,7.891-2.117,10.97c0.192,5.196,0.962,10.2,2.502,15.204c0.77,2.887,1.732,5.581,2.694,8.468
						C317.355,400.234,320.819,406.392,320.242,407.162z"/>
					<path fill="#EAB8A0" d="M320.242,407.162c2.694-3.464,3.272-7.506,2.887-11.547c-0.192-3.849-1.155-7.891-1.347-11.932
						c0-5.196,1.732-10.2,1.925-15.396c0.192-2.887,0.192-3.849-3.657-4.234c-2.117-0.192-4.234-0.385-6.158,0.577
						c-3.657,2.117-2.309,7.891-2.117,10.97c0.192,5.196,0.962,10.2,2.502,15.204c0.77,2.887,1.732,5.581,2.694,8.468
						C317.355,400.234,320.819,406.392,320.242,407.162z"/>
					<path fill="#BA816C" d="M283.098,294.77c-0.192,0.962,0,2.117,0.385,2.887s1.155,1.732,2.309,2.502
						c0.77,0.385,1.347,0.77,1.925,1.347c0.385,0.77,0,1.732-0.192,2.694c-0.385,1.925,0.385,3.657-0.385,5.581
						s-2.887,2.887-5.004,3.657c-0.577,0.192-1.155,0.577-1.732,0.77c-0.385,0.385-0.577,0.77-0.77,1.347
						c-0.385,1.155-0.577,2.694-0.577,3.849c0.192,0.77,0.192,1.925,0,2.694c0,0.385-0.192,0.77-0.577,1.155
						c-0.385,0.385-0.77,0.577-1.155,0.962c-0.385,0.192-0.77,0.192-1.347,0.192c-0.385,0-0.77-0.192-1.347-0.192
						c-0.77-0.385-1.732-0.77-2.309-1.347c-3.464-3.272-5.774-7.121-6.351-11.547c-0.385-2.887-0.385-5.966-0.192-8.853
						c0-1.925,0.192-3.464,0.77-5.389c0.385-1.347,1.155-2.694,2.502-3.657c1.155-0.962,2.502-2.117,4.042-2.694
						c1.54-0.577,3.464-0.577,5.196-0.385c1.732,0.192,3.272,0.962,4.426,2.117"/>
					<path fill="#45435A" d="M272.706,319.019c0,0.577-0.192,1.155-0.385,1.925c-0.385,0.77-0.962,1.347-2.117,1.925
						c-0.962,0.385-1.925,0.577-2.887,0.577c-0.385,0-0.77,0-1.155-0.192c0.385-0.385,0.962-0.962,1.347-1.347
						C269.049,320.558,270.589,319.596,272.706,319.019z"/>
					
						<linearGradient id="SVGID_3_" gradientUnits="userSpaceOnUse" x1="397.0291" y1="2135.6221" x2="387.6519" y2="2112.9329" gradientTransform="matrix(1.9245 0 0 1.9245 7.8777 -2572.9883)">
						<stop  offset="0" style="stop-color:#010101;stop-opacity:0"/>
						<stop  offset="0.95" style="stop-color:#010101"/>
					</linearGradient>
					<path fill="url(#SVGID_3_)" d="M272.706,319.019c0,0.577-0.192,1.155-0.385,1.925c-0.385,0.77-0.962,1.347-2.117,1.925
						c-0.962,0.385-1.925,0.577-2.887,0.577c-0.385,0-0.77,0-1.155-0.192c0.385-0.385,0.962-0.962,1.347-1.347
						C269.049,320.558,270.589,319.596,272.706,319.019z"/>
					<path fill="#ACACAC" d="M273.091,371.366c-1.732,0.962-3.464,1.732-5.389,1.925c-5.004,0.577-9.815,0.77-15.011,0.192
						c-1.155-0.192-2.694-0.385-3.657-0.77c-0.577-0.192-0.962-0.385-1.732-0.77c-3.464-2.309-3.079-6.351-2.502-9.815
						c0.192-1.155,0.385-2.694,0.577-3.849c0.962-6.928,1.732-13.664,1.347-20.592c0-2.694-0.192-5.389,0.77-7.698
						c0.962-2.309,3.079-5.004,6.351-5.774c1.347-0.192,2.887-0.385,4.234-0.385c2.309,0,11.932-0.77,12.125-0.577
						c2.309,1.732-0.77,6.351-1.155,8.468c-0.577,7.313-1.925,14.434-3.079,21.94c1.925,0.577,3.657,0.77,5.581,0.577
						c0.192,0,0.577,0,0.77,0c0.192,0,0.577,0.192,0.77,0.192c0.192,0.192,0.385,0.577,0.385,0.77
						c0.192,3.272,0.577,6.543,0.77,9.815C275.208,366.94,275.208,369.634,273.091,371.366z"/>
					<path fill="#ACACAC" d="M296.762,328.257c1.732,2.694,2.117,5.966,2.309,9.045c0.962,10.2,1.732,20.592,2.309,30.985
						c0.385,6.736,0.77,13.664-0.77,20.208c-0.77,3.849-2.694,7.698-5.389,11.162c-4.619-3.657-6.736-8.853-7.313-13.857
						c-0.577-5.196,0-10.2,0.385-15.396c0.385-8.468-0.192-16.743-1.347-25.019c-1.155-7.506-5.004-16.358-4.426-23.864
						C288.102,320.558,294.453,324.023,296.762,328.257z"/>
					<path fill="#494450" d="M253.845,398.309c0.385,18.091,2.117,35.796,4.619,53.887c3.272,21.17,5.966,42.532,10.777,63.702
						c1.155,0.77,2.887-0.962,3.079-2.309c3.657-22.517,7.121-45.226,5.581-68.128c-0.385-5.004-0.77-9.815,0.385-14.434
						c2.694,2.117,3.272,5.389,3.657,8.275c3.272,31.755-1.155,63.509,0.385,95.072c0,0.193,0,0.577,0.192,0.77
						c0.192,0.192,0.192,0.385,0.577,0.577c0.385,0.193,0.77,0.385,1.347,0.193c1.155-0.193,2.309-0.385,3.079-0.962
						c0.77-0.577,1.732-1.155,2.117-2.117c0.77-1.732,1.155-3.464,1.347-5.196c4.234-35.604,8.66-71.4,9.815-107.196
						c0.192-8.853,0-18.475-6.928-25.404c-1.155-1.347-3.079-2.502-5.196-2.887c-1.347-0.192-2.887,0-4.234,0.385
						C275.015,394.075,263.275,396.77,253.845,398.309z"/>
					<path fill="#45435A" d="M257.887,360.781c1.732,0,3.079,0.192,4.426,0.577c1.155,0.385,2.309,0.962,3.079,1.925
						c4.234,3.464,5.966,8.66,6.736,13.472c1.155,5.196,1.732,10.2,2.502,15.396c0.385,1.732,0.192,3.272-0.385,4.619
						c-0.385,0.77-1.155,1.732-2.117,2.309c-0.77,0.577-1.925,0.962-3.079,1.155c-2.309,0.577-4.426,0.77-6.736,0.577
						c-7.313,0.192-14.819-0.192-22.325-0.577c-3.849,0-7.698-0.577-11.547-1.347c-1.925-0.385-3.464-1.155-4.619-2.502
						c-0.385-0.577-0.77-1.347-0.962-2.309c-2.117-9.045,2.694-18.091,5.389-26.943c1.155-3.657,3.079-9.238,9.045-9.045
						C244.223,358.472,250.958,360.396,257.887,360.781z"/>
					
						<linearGradient id="SVGID_4_" gradientUnits="userSpaceOnUse" x1="3803.0493" y1="7639.3506" x2="4981.2793" y2="9594.1338" gradientTransform="matrix(1.9245 0 0 1.9245 7.8777 -2572.9883)">
						<stop  offset="0" style="stop-color:#010101;stop-opacity:0"/>
						<stop  offset="0.95" style="stop-color:#010101"/>
					</linearGradient>
					<path fill="url(#SVGID_4_)" d="M257.887,360.781c1.732,0,3.079,0.192,4.426,0.577c1.155,0.385,2.309,0.962,3.079,1.925
						c4.234,3.464,5.966,8.66,6.736,13.472c1.155,5.196,1.732,10.2,2.502,15.396c0.385,1.732,0.192,3.272-0.385,4.619
						c-0.385,0.77-1.155,1.732-2.117,2.309c-0.77,0.577-1.925,0.962-3.079,1.155c-2.309,0.577-4.426,0.77-6.736,0.577
						c-7.313,0.192-14.819-0.192-22.325-0.577c-3.849,0-7.698-0.577-11.547-1.347c-1.925-0.385-3.464-1.155-4.619-2.502
						c-0.385-0.577-0.77-1.347-0.962-2.309c-2.117-9.045,2.694-18.091,5.389-26.943c1.155-3.657,3.079-9.238,9.045-9.045
						C244.223,358.472,250.958,360.396,257.887,360.781z"/>
					<path fill="#ACACAC" d="M280.789,540.532c-0.577,1.155-0.577,2.502-0.577,3.657c0,3.849,0.192,7.698,0.77,11.74
						c0.192,1.732,0.77,3.079,1.732,4.426c0.385,0.577,1.155,1.155,1.925,1.732c0.77,0.385,1.732,0.577,2.694,0.77
						c0.962,0,2.117-0.192,2.887-0.577c0.77-0.385,1.732-0.77,2.309-1.732c0.962-1.155,1.925-2.887,2.117-4.234
						c0.577-4.234,0.385-8.66-0.962-12.894c-0.385-1.732-1.155-3.272-2.694-4.426C288.294,537.068,282.328,538.223,280.789,540.532z
						"/>
					<path fill="#ACACAC" d="M264.238,531.679c-0.385,0.962-0.77,2.309-0.77,3.272c-0.577,5.004-1.155,10.2,2.309,14.434
						c0.192,0.192,0.385,0.385,0.577,0.577c0.385,0.192,0.77,0.192,1.155,0.192l3.657-0.192c0.577,0,0.962-0.193,1.347-0.193
						c0.385-0.192,0.577-0.385,0.77-0.77c3.464-4.619,4.234-12.317,3.079-17.513C275.208,526.291,266.355,527.638,264.238,531.679z"
						/>
					<path fill="#BA816C" d="M267.702,506.66c-0.385,9.045-0.577,18.091-0.577,26.943c2.117,0,4.234,0,5.389-1.347
						c0.192-0.385,0.385-0.962,0.385-1.347c1.155-8.275,1.155-16.551,0.192-24.826c-2.117,1.347-3.849,3.079-5.581,4.619"/>
					<path fill="#BA816C" d="M290.219,525.136h0.192h0.192c0,0,0.192,0.192,0,0.192c0.192,5.389,0,10.392-0.77,15.781
						c0,1.155-0.577,2.309-1.347,3.079s-2.309,1.155-3.464,1.347c-0.192,0-0.577,0-0.77,0c-0.192-0.193-0.385-0.193-0.577-0.577
						c-0.962-1.732-1.347-3.272-1.347-5.196c-0.385-3.849-0.577-7.698-0.577-11.74c0-1.347-0.577-3.079,1.732-3.272
						C285.6,525.136,288.102,525.136,290.219,525.136z"/>
					<path fill="#ACACAC" d="M287.717,383.875c-0.577,0.962-0.962,2.117-0.962,3.272c0.192,1.155,0.962,2.502,2.117,3.464
						c2.887,2.694,6.159,5.004,9.623,7.121c0.192,0.192,0.577,0.385,1.155,0.385c0.77,0,1.347-0.385,1.925-0.962
						c5.004-5.581,5.004-12.702,4.426-19.438c-0.385-8.468-0.77-16.551-1.155-25.019c-0.385-8.468-1.155-17.513-8.468-23.479
						c-5.004-4.042-5.389,2.309-5.389,4.619c0,3.464,0.577,6.736,0.962,10.008c0.962,8.66,1.347,17.321,0,25.981
						C291.181,374.83,289.642,379.449,287.717,383.875z"/>
					<path fill="#ACACAC" d="M287.717,383.875c-0.577,0.962-0.962,2.117-0.962,3.272c0.192,1.155,0.962,2.502,2.117,3.464
						c2.887,2.694,6.159,5.004,9.623,7.121c0.192,0.192,0.577,0.385,1.155,0.385c0.77,0,1.347-0.385,1.925-0.962
						c5.004-5.581,5.004-12.702,4.426-19.438c-0.385-8.468-0.77-16.551-1.155-25.019c-0.385-8.468-1.155-17.513-8.468-23.479
						c-5.004-4.042-5.389,2.309-5.389,4.619c0,3.464,0.577,6.736,0.962,10.008c0.962,8.66,1.347,17.321,0,25.981
						C291.181,374.83,289.642,379.449,287.717,383.875z"/>
					
						<linearGradient id="SVGID_5_" gradientUnits="userSpaceOnUse" x1="2867.2297" y1="1965.1472" x2="2356.1516" y2="1882.5912" gradientTransform="matrix(1.9245 0 0 1.9245 7.8777 -2572.9883)">
						<stop  offset="0" style="stop-color:#010101;stop-opacity:0"/>
						<stop  offset="0.95" style="stop-color:#010101"/>
					</linearGradient>
					<path fill="url(#SVGID_5_)" d="M291.566,390.611c0,0,4.234-6.351,3.657-12.894c-0.577-6.736-0.385-17.706-0.385-17.706
						l0.385-24.442c0,0,7.506,33.102,7.506,39.068c0,5.966-5.196,18.283-5.196,18.283L291.566,390.611z"/>
					<path fill="#ACACAC" d="M298.109,364.053c-1.155,0.577-2.694,0.577-3.849,0.962c-0.77,0.192-1.732,0.77-2.309,1.347
						c-0.577,0.577-0.77,1.155-0.77,2.117c0,0.577,0.192,0.962,0.385,1.732c0.385,0.385,0.77,0.577,1.155,0.77
						s0.962,0.192,1.732,0.192c0.962,0,1.925-0.192,2.887-0.385c0.77-0.385,1.732-0.77,2.502-1.155
						c1.155-1.155,2.309-2.502,2.887-3.849c0.962-2.309,1.732-4.619,1.732-7.121c0-2.502-3.272-3.849-4.426-1.155
						C298.687,359.049,300.804,362.128,298.109,364.053z"/>
					
						<linearGradient id="SVGID_6_" gradientUnits="userSpaceOnUse" x1="673.3475" y1="1193.8402" x2="975.3417" y2="1001.6927" gradientTransform="matrix(1.9245 0 0 1.9245 7.8777 -2572.9883)">
						<stop  offset="0" style="stop-color:#010101;stop-opacity:0"/>
						<stop  offset="0.95" style="stop-color:#010101"/>
					</linearGradient>
					<path fill="url(#SVGID_6_)" d="M298.109,364.053c-1.155,0.577-2.694,0.577-3.849,0.962c-0.77,0.192-1.732,0.77-2.309,1.347
						c-0.577,0.577-0.77,1.155-0.77,2.117c0,0.577,0.192,0.962,0.385,1.732c0.385,0.385,0.77,0.577,1.155,0.77
						s0.962,0.192,1.732,0.192c0.962,0,1.925-0.192,2.887-0.385c0.77-0.385,1.732-0.77,2.502-1.155
						c1.155-1.155,2.309-2.502,2.887-3.849c0.962-2.309,1.732-4.619,1.732-7.121c0-2.502-3.272-3.849-4.426-1.155
						C298.687,359.049,300.804,362.128,298.109,364.053z"/>
					<path fill="#BA816C" d="M289.257,397.54c0.962,2.117,2.502,4.234,3.849,6.158c0.192,0.192,0.192,0.385,0.577,0.385
						c0.577,0.192,1.155-0.192,1.347-0.577c2.502-3.079,2.694-6.928,2.502-10.585c0-0.385-0.192-0.77-0.192-1.155
						c-0.962-1.925-4.426-3.464-5.774-1.155C290.411,392.728,288.294,395.038,289.257,397.54z"/>
					<path fill="#EAB8A0" d="M330.057,287.457c0.192,2.309,0,4.234-0.77,6.351c-0.192,0.192-0.192,0.577-0.192,0.77
						c0.192,0.385,0.77,0.77,1.155,0.962c1.732,0.577,2.887,1.732,3.657,2.887c0.77,1.155,1.155,2.694,2.694,3.464
						c1.925,1.155,5.004,0.77,6.928-0.192c0.385,0.577,0.385,1.347,0.192,2.117c-0.192,0.577-0.577,1.347-1.155,1.925
						c-1.155,0.962-2.887,1.925-4.234,2.502c-0.385,0.192-0.962,0.577-0.962,0.962c0,0.385,0.192,0.577,0.385,0.77
						c1.925,2.309,4.426,3.849,7.506,5.004c4.426,0.962,9.238-0.577,13.472-2.117c1.347-0.385,2.694-1.155,3.657-2.117
						c0.962-1.155,0.77-2.694,0.577-4.042c0-0.385-0.192-0.577-0.385-0.77c-0.192-0.192-0.577-0.192-0.962-0.385
						c-1.925-0.385-2.887-1.925-3.657-3.272c-1.155-1.925-1.925-4.042-1.347-6.351c0.192-4.234,0.385-8.853-2.117-12.509
						c-0.577-1.155-1.732-2.117-3.079-2.694c-0.962-0.385-2.309-0.385-3.272-0.385l-6.736-0.192c-2.694,0-5.581,0-7.506,1.155
						c-1.155,0.962-2.309,2.309-2.887,3.657c-0.192,0.385-0.385,0.577-0.577,0.962C330.057,286.687,330.057,286.879,330.057,287.457
						z"/>
					<path fill="#45435A" d="M337.177,270.521c-3.464,0.192-5.774,2.694-8.66,4.234c-1.155,0.577-2.694,1.155-3.849,1.925
						c-1.155,0.577-2.309,1.732-2.694,2.887c-0.192,1.347,0.77,2.887,1.925,4.042c1.732,1.925,3.657,3.464,6.543,3.464
						c3.079,0,5.389-2.502,8.275-3.272c0.77-0.192,1.732-0.385,2.502-0.192c0.577,0.192,0.962,0.385,1.347,0.577
						c1.732,0.77,3.464,1.155,5.581,0.962l2.502,6.351l1.155-2.502c0.192-0.192,0.385-0.577,0.77-0.577
						c0.192,0,0.385,0.192,0.385,0.192c0.385,0.385,0.577,0.577,0.77,0.962c0.192,0.385,0.192,0.77,0.192,1.155
						c0,0.385-0.192,0.77-0.577,1.155c-0.192,0.385-0.577,0.577-0.962,0.77c0.577,0.192,1.155,0.385,1.925,0.577
						c0.577,0.385,0.77,0.77,1.155,1.155c0.577,0.962,0.77,1.925,0.962,2.887c1.347-0.577,1.732-2.309,2.117-3.657
						c0.385-1.155,1.155-2.502,2.309-3.464c0.192-0.192,0.577-0.385,0.77-0.577c0.192-0.385,0.385-0.77,0.192-1.155
						c-0.192-1.732-1.155-3.079-1.732-4.619c-0.385-1.925-0.577-3.657-0.385-5.389c0-0.962,0-2.309-0.577-3.272
						c-0.77-1.347-1.925-2.502-3.272-3.464c-0.77-0.77-2.117-1.347-3.272-1.925c-0.962,0-2.309-0.192-3.272,0
						c-1.925-0.192-3.464-0.577-5.389-1.155c-1.925-0.385-3.849-0.385-5.196,0.385"/>
					<path fill="#FF7F50" d="M386.638,354.43c-0.577,1.347-1.347,2.887-2.117,4.426c-0.385,0.962-0.77,2.117-1.155,3.272
						c-0.77,2.887-0.962,5.774-0.77,8.853c0,5.966,0,12.125,0,18.091c0,1.732-0.192,3.464-0.577,5.196
						c-0.385,1.155-1.155,2.502-2.502,3.272c-2.117,1.347-5.004,1.732-7.313,1.925c-15.396,1.347-30.6,1.732-45.996,1.155
						c-0.577,0-1.155,0-1.925-0.192c-1.155-0.577-1.732-2.117-1.732-3.079c0-2.887,0.577-5.774,1.925-8.468
						c0.962-2.309,2.502-4.619,2.117-6.928c-0.577-3.657-5.196-7.121-3.849-10.777c-3.464-0.192-6.928-0.577-10.392-1.347
						c-0.577-0.192-1.155-0.385-1.732-0.577c-0.192-0.385-0.385-0.77-0.577-1.155c-0.192-0.385,0-0.77,0.192-1.155
						c2.502-11.74,3.272-42.725,11.547-51.962c3.657-4.234,18.091-7.698,19.438-8.468h0.192c0.385-0.192,0.77-0.192,0.962-0.385
						c1.347-0.192-1.347,2.117-0.77,2.694c4.234,5.581,11.932,1.347,17.513,1.155c3.464-0.192,3.079-3.657,0.577-4.426
						c1.347,0.192,2.887,0.577,4.234,0.77c4.619,0.77,9.623,1.925,14.049,2.694c2.309,0.385,4.426,0.962,6.351,2.117
						c3.657,2.309,4.234,6.158,5.004,9.623C390.872,331.528,391.642,343.268,386.638,354.43z"/>
					
						<linearGradient id="SVGID_7_" gradientUnits="userSpaceOnUse" x1="2033.1637" y1="-552.6873" x2="4783.7544" y2="-3647.7349" gradientTransform="matrix(1.9245 0 0 1.9245 7.8777 -2572.9883)">
						<stop  offset="0" style="stop-color:#010101;stop-opacity:0"/>
						<stop  offset="0.95" style="stop-color:#010101"/>
					</linearGradient>
					<path fill="url(#SVGID_7_)" d="M383.366,361.936c-0.77,2.887-0.962,5.774-0.77,8.853c0,5.966,0,12.125,0,18.091
						c0,2.117-0.385,4.042-1.155,6.158c-2.309,1.347-4.426,1.155-7.121,0.962c-3.657-0.385-7.121-2.887-6.928-5.774
						c0.192-0.962,0.385-2.309,0.962-3.272c3.079-7.121,4.426-14.819,4.426-22.325c-6.736-0.577-13.472-1.155-20.208-1.925
						c-5.966-0.577-11.932-0.962-17.706-0.962c-7.121,0.192-9.045,0.962-6.736-5.004c18.86-2.117,38.106,5.004,56.581,2.117
						C384.136,359.819,383.751,360.974,383.366,361.936z"/>
					
						<linearGradient id="SVGID_8_" gradientUnits="userSpaceOnUse" x1="308.7667" y1="2636.9338" x2="333.0604" y2="2849.8389" gradientTransform="matrix(1.9245 0 0 1.9245 7.8777 -2572.9883)">
						<stop  offset="0" style="stop-color:#010101;stop-opacity:0"/>
						<stop  offset="0.95" style="stop-color:#010101"/>
					</linearGradient>
					<path fill="url(#SVGID_8_)" d="M363.351,309.396c-2.117,0.962-5.389,1.732-8.468,2.887c-3.079,1.347-10.97,1.732-12.702,0.192
						c-1.732-1.54-3.849-3.079-2.887-6.159l1.925-0.577h0.192c0.385-0.192,0.77-0.192,0.962-0.385
						c1.347-0.192-1.347,2.117-0.77,2.694c4.234,5.581,11.932,1.347,17.513,1.155c3.464-0.192,3.079-3.657,0.577-4.426l4.042,0.577
						v0.192C364.313,306.125,365.083,308.241,363.351,309.396z"/>
					<path fill="#FF7F50" d="M323.706,368.287c0,0,7.698-18.475,5.966-25.981c-1.925-7.313-0.385-27.136-0.385-27.136
						s-13.087,10.392-13.472,12.702c-0.385,2.502-5.004,40.8-5.004,40.8S322.166,374.638,323.706,368.287z"/>
					<path fill="#494450" d="M376.63,456.238c-1.155,5.004-2.309,9.815-3.849,14.434c-0.77,1.925-1.347,3.849-1.925,5.966
						c-0.577,3.464,0,6.928,0.385,10.392c0.77,7.698,0.385,15.781-0.192,23.479c-0.577,8.275-0.962,16.358-1.347,24.826
						c-0.192,3.464-0.577,7.121-3.079,9.815c-0.385,0.385-0.77,0.77-1.347,1.155c-2.887,1.924-7.121,2.502-9.815,0.577
						c-1.347-1.155-2.309-2.694-2.502-4.042c-0.77-3.657-1.155-7.313-1.155-10.97c-0.192-33.487,0.577-65.819,0.385-99.498
						c0-3.849-0.77-9.623,0.385-12.509c-0.385,0.577-0.77,0.962-1.155,1.732c-6.928,9.623-11.547,20.015-13.087,31.177
						c-0.577,5.389-0.962,10.777-0.962,16.166c-0.192,15.204-0.577,30.215-0.77,45.419c0,2.502,0,5.196-1.347,7.313
						c-0.577,0.77-1.155,1.732-2.309,2.309c-0.962,0.577-2.309,0.962-3.464,1.155c-0.577,0-1.155,0-1.925-0.192
						c-4.234-0.77-5.389-5.196-5.774-8.66c-2.887-35.219-5.774-70.63-2.309-105.849c0.577-6.736,2.309-17.513,9.815-14.434
						c9.815,4.042,26.559,0.962,37.721,0c0.192,0,0.385,0,0.577,0c2.117-0.385,4.234-0.77,6.351-1.347
						c1.732-0.577,3.464-0.77,5.389-0.77l0,0l0,0c0.77,0,1.347,0.192,2.309,0.385c0.192,0.192,0.577,0.192,0.77,0.192
						C386.638,397.347,380.672,440.649,376.63,456.238z"/>
					<path fill="#ACACAC" d="M354.113,561.125c0.192,5.389,2.309,10.777,7.698,13.857c0.192,0.192,0.385,0.192,0.77,0.192
						c0.385,0,0.77-0.192,1.155-0.385c3.464-2.117,3.849-6.159,4.042-9.623c0.192-2.887,0.192-5.774-1.155-8.468
						c-0.385-0.962-1.155-1.924-1.347-2.887s-0.385-2.309-0.385-3.272v-6.928c0,0.192-7.121,0.385-7.698,0.577
						c-2.117,0.385-2.117,1.155-2.117,2.887C354.691,551.887,353.921,556.313,354.113,561.125z"/>
					<path fill="#ACACAC" d="M323.706,528.985c-0.192,1.155-0.385,2.309-0.577,3.272c-0.192,2.309,0,4.619,0.77,6.928
						c0.385,1.347,0.962,2.887,1.925,4.042c0.962,1.155,2.502,2.309,4.234,2.694c0.577,0.192,1.347,0.192,2.117,0
						c0.77-0.193,1.347-0.577,1.925-1.155c1.347-1.732,1.347-3.657,1.347-5.774s-0.192-4.042-0.577-6.158
						c-0.192-0.962-0.577-2.117-0.77-3.272c-0.385-2.694,0.577-5.581-0.77-7.891c-1.732,0.385-3.464,0.577-5.389,0.577
						c-1.155,0-2.887-0.193-3.849,0.385C322.166,523.789,323.898,527.253,323.706,528.985z"/>
					<path fill="#EAB8A0" d="M321.396,348.657c-2.694,0.192-5.196,0-7.698-0.385c-1.732-0.577-3.464-1.155-5.196-1.732
						c-0.385-0.192-0.77,0-1.155,0c-0.385,0.192-0.577,0.577-0.77,0.77c-0.577,0.962-2.309,1.155-3.849,1.155
						c-1.347,0-3.079-0.192-4.042,0.385c-2.117,0.962-1.347,3.464-0.77,5.389l1.155,2.694c0.192,0.577,0.577,1.155,0.962,1.732
						c0.577,0.385,1.347,0.77,2.309,0.77c3.657,0.77,7.698,0.962,11.74,0.577c1.155,0,2.694-0.385,3.657-0.962
						c0.577-0.385,1.155-0.77,1.925-1.155c0.77-0.192,1.347-0.385,2.309-0.192h12.702c5.774,0,11.547,0.192,17.128,0.77
						c8.468,0.962,16.743,3.464,25.404,2.694c1.347,0,2.694-0.385,3.849-0.962c1.155-0.962,2.309-2.309,2.694-3.464
						c0.577-0.962,0.77-2.117,0.77-3.079c-0.192-2.694-3.272-5.196-6.351-6.158c-3.272-0.962-7.506-0.385-10.777-0.192
						l-29.253,0.962L321.396,348.657z"/>
					<path fill="#ACACAC" d="M302.728,242.423h-3.464v106.426h3.464V242.423z"/>
					
						<linearGradient id="SVGID_9_" gradientUnits="userSpaceOnUse" x1="583.8328" y1="1490.9656" x2="640.214" y2="1491.0186" gradientTransform="matrix(1.9245 0 0 1.9245 7.8777 -2572.9883)">
						<stop  offset="0" style="stop-color:#010101;stop-opacity:0"/>
						<stop  offset="0.95" style="stop-color:#010101"/>
					</linearGradient>
					<path fill="url(#SVGID_9_)" d="M302.728,242.423h-3.464v106.426h3.464V242.423z"/>
					<path fill="#C9AB8F" d="M324.668,209.513c56.966,5.581,75.441,43.494,75.441,43.494s-42.34-8.853-60.623,7.698
						c0,0-32.332-19.053-65.626,0.577c0,0-38.683-14.242-64.857-3.657C209.004,257.819,242.298,201.623,324.668,209.513z"/>
					<path fill="#37B079" d="M324.668,209.513c56.966,5.581,75.441,43.494,75.441,43.494s-42.34-8.853-60.623,7.698
						c0,0-32.332-19.053-65.626,0.577c0,0-38.683-14.242-64.857-3.657C209.004,257.819,242.298,201.623,324.668,209.513z"/>
					<path fill="#BA816C" d="M302.921,338.841c0.577,0,0.962,0,1.732,0.192c0.577,0.192,0.77,0.577,1.155,0.77
						c1.925,2.117,1.732,5.004,1.155,7.313c0,0.77-0.385,1.732-0.77,2.309c-0.962,0.962-2.502,1.732-4.042,1.925
						c-3.079,0.577-6.351,0.962-9.43,0.962c-0.385,0-0.77,0-1.155-0.192c-2.502-1.155-1.155-7.698,0.192-9.623
						C293.491,339.996,299.264,338.841,302.921,338.841z"/>
					<path fill="#45435A" d="M282.328,292.845c-0.385,1.347-1.347,2.694-2.694,3.657c-1.155,0.77-2.694,1.732-3.849,2.502
						c-0.577,0.192-0.962,0.577-1.155,0.962c-0.385,0.385-0.577,0.77-0.577,1.347c0.192,0.577,0.385,1.347,0.77,1.925
						c0.385,1.347-0.77,2.694-2.117,3.657c-0.77,0.577-1.347,1.347-2.117,2.309c-0.577,1.732,0.77,3.464,1.347,5.196
						c0.385,1.347,0.577,2.694,0.385,4.042c0,0.192,0,0.577,0,0.77c-1.925,0.577-3.464,1.347-5.004,2.694l-1.155,0.962
						c0,0-5.966,0.385-7.891,0.577c-1.347,0-2.887,0.192-4.234,0.385c-3.272,0.77-5.389,3.272-6.351,5.774s-0.77,5.389-0.77,7.698
						c0.192,6.928-0.385,13.857-1.347,20.592c-2.309,0.385-4.426,0.192-6.736-0.385c-1.925-0.577-3.657-1.347-5.196-2.502
						c-1.347-1.155-2.502-2.694-2.887-4.042c-0.385-1.347-0.577-3.079-0.192-4.619c0.385-1.732,1.155-3.079,2.694-4.234
						c1.347-1.347,3.657-2.694,4.042-4.426s-0.77-3.464-1.925-5.196c-1.732-2.887-2.502-6.351-0.192-8.853
						c1.925-2.117,5.004-2.887,7.313-4.426c3.657-2.309,3.657-5.966,5.966-8.66c-0.77-0.962-0.962-2.309-0.577-3.464
						s1.925-2.309,2.694-3.272c3.079-3.464,2.309-8.468,5.581-11.74c1.924-1.732,4.234-2.694,6.736-3.272
						c3.657-0.962,7.506-1.732,11.547-1.924c2.694-0.192,5.389-0.385,6.736,1.347C282.328,289.766,282.713,291.113,282.328,292.845z
						"/>
					
						<linearGradient id="SVGID_10_" gradientUnits="userSpaceOnUse" x1="6223.7578" y1="1504.48" x2="7469.9248" y2="1504.48" gradientTransform="matrix(1.9245 0 0 1.9245 7.8777 -2572.9883)">
						<stop  offset="0" style="stop-color:#010101;stop-opacity:0"/>
						<stop  offset="0.95" style="stop-color:#010101"/>
					</linearGradient>
					<path fill="url(#SVGID_10_)" d="M282.328,292.845c-0.385,1.347-1.347,2.694-2.694,3.657c-1.155,0.77-2.694,1.732-3.849,2.502
						c-0.577,0.192-0.962,0.577-1.155,0.962c-0.385,0.385-0.577,0.77-0.577,1.347c0.192,0.577,0.385,1.347,0.77,1.925
						c0.385,1.347-0.77,2.694-2.117,3.657c-0.77,0.577-1.347,1.347-2.117,2.309c-0.577,1.732,0.77,3.464,1.347,5.196
						c0.385,1.347,0.577,2.694,0.385,4.042c0,0.192,0,0.577,0,0.77c-1.925,0.577-3.464,1.347-5.004,2.694l-1.155,0.962
						c0,0-5.966,0.385-7.891,0.577c-1.347,0-2.887,0.192-4.234,0.385c-3.272,0.77-5.389,3.272-6.351,5.774s-0.77,5.389-0.77,7.698
						c0.192,6.928-0.385,13.857-1.347,20.592c-2.309,0.385-4.426,0.192-6.736-0.385c-1.925-0.577-3.657-1.347-5.196-2.502
						c-1.347-1.155-2.502-2.694-2.887-4.042c-0.385-1.347-0.577-3.079-0.192-4.619c0.385-1.732,1.155-3.079,2.694-4.234
						c1.347-1.347,3.657-2.694,4.042-4.426s-0.77-3.464-1.925-5.196c-1.732-2.887-2.502-6.351-0.192-8.853
						c1.925-2.117,5.004-2.887,7.313-4.426c3.657-2.309,3.657-5.966,5.966-8.66c-0.77-0.962-0.962-2.309-0.577-3.464
						s1.925-2.309,2.694-3.272c3.079-3.464,2.309-8.468,5.581-11.74c1.924-1.732,4.234-2.694,6.736-3.272
						c3.657-0.962,7.506-1.732,11.547-1.924c2.694-0.192,5.389-0.385,6.736,1.347C282.328,289.766,282.713,291.113,282.328,292.845z
						"/>
					<path fill="#45435A" d="M257.309,369.249c2.502,0,3.272-2.502,3.272-4.234c0.577-10.777,0.962-22.132-1.155-32.717
						c-0.577-3.079-1.155-6.928-4.042-9.238c-0.577-0.577-3.849,0.962-3.849,0.962c0.77,0.192,3.849,2.309,4.426,6.736
						c0.77,4.234,1.155,8.468,1.347,12.702C257.694,351.928,256.732,360.589,257.309,369.249z"/>
					
						<linearGradient id="SVGID_11_" gradientUnits="userSpaceOnUse" x1="1339.8602" y1="1509.9829" x2="1373.9243" y2="1509.7917" gradientTransform="matrix(1.9245 0 0 1.9245 7.8777 -2572.9883)">
						<stop  offset="0" style="stop-color:#010101;stop-opacity:0"/>
						<stop  offset="0.95" style="stop-color:#010101"/>
					</linearGradient>
					<path fill="url(#SVGID_11_)" d="M257.309,369.249c2.502,0,3.272-2.502,3.272-4.234c0.577-10.777,0.962-22.132-1.155-32.717
						c-0.577-3.079-1.155-6.928-4.042-9.238c-0.577-0.577-3.849,0.962-3.849,0.962c0.77,0.192,3.849,2.309,4.426,6.736
						c0.77,4.234,1.155,8.468,1.347,12.702C257.694,351.928,256.732,360.589,257.309,369.249z"/>
					
						<linearGradient id="SVGID_12_" gradientUnits="userSpaceOnUse" x1="3391.4092" y1="2043.5286" x2="3950.2771" y2="2136.5457" gradientTransform="matrix(1.9245 0 0 1.9245 7.8777 -2572.9883)">
						<stop  offset="0" style="stop-color:#010101;stop-opacity:0"/>
						<stop  offset="0.95" style="stop-color:#010101"/>
					</linearGradient>
					<path fill="url(#SVGID_12_)" d="M371.242,341.151l2.117-6.736c0.192-0.77,0.385-1.925,0.577-2.694
						c-0.192-0.962-0.192-1.925-0.577-2.887c-0.385-3.272,0.192-6.736,1.925-9.815c-2.309,2.309-4.234,5.004-5.774,7.698
						c-1.347,3.079-1.347,6.543-2.309,9.815c-1.155,4.234-3.849,8.275-7.698,11.162c0.192-0.192,3.849,0.192,4.426,0.192
						c1.155,0,3.464,0,4.426-0.577C370.279,345.962,370.857,342.691,371.242,341.151z"/>
					
						<linearGradient id="SVGID_13_" gradientUnits="userSpaceOnUse" x1="-667.6655" y1="1779.2828" x2="2969.9302" y2="924.3833" gradientTransform="matrix(1.9245 0 0 1.9245 7.8777 -2572.9883)">
						<stop  offset="0" style="stop-color:#010101;stop-opacity:0"/>
						<stop  offset="0.95" style="stop-color:#010101"/>
					</linearGradient>
					<path fill="url(#SVGID_13_)" d="M351.996,420.057c-0.385,0.577-0.577,0.962-0.962,1.732
						c-6.928,9.623-11.547,20.015-13.087,31.177c-0.577,5.389-0.962,10.777-0.962,16.166c-0.192,15.204-0.577,30.215-0.77,45.419
						c0,2.502,0,5.196-1.347,7.313c-0.577,0.77-1.155,1.732-2.309,2.309c-1.155,0.577-2.309,0.962-3.464,1.155
						c-0.77-0.577,2.309-2.502,1.925-3.079c-3.272-4.426-8.468-69.86,8.468-100.268C341.989,416.977,345.26,419.672,351.996,420.057
						z"/>
					
						<linearGradient id="SVGID_14_" gradientUnits="userSpaceOnUse" x1="3538.6807" y1="1581.2596" x2="3699.4856" y2="1581.2596" gradientTransform="matrix(1.9245 0 0 1.9245 7.8777 -2572.9883)">
						<stop  offset="0" style="stop-color:#010101;stop-opacity:0"/>
						<stop  offset="0.95" style="stop-color:#010101"/>
					</linearGradient>
					<path fill="url(#SVGID_14_)" d="M376.63,456.238c-1.155,5.004-2.309,9.815-3.849,14.434c-0.77,1.925-1.347,3.849-1.925,5.966
						c-0.577,3.464,0,6.928,0.385,10.392c0.77,7.698,0.385,15.781-0.192,23.479c-0.577,8.275-0.962,16.358-1.347,24.826
						c-0.192,3.464-0.577,7.121-3.079,9.815c-0.385,0.385-0.77,0.77-1.347,1.155c0.577-3.849,0.962-7.698,1.732-11.74
						c1.155-9.43,2.502-19.053,2.117-28.675c-0.577-13.279-4.234-26.366-3.657-39.645c0.577-12.125,5.004-23.672,7.891-35.604
						c2.117-8.66-4.042-27.906-5.966-34.449c2.117-0.385,4.234-0.77,6.351-1.347c1.732-0.577,3.464-0.77,5.389-0.77l0,0l0,0
						c0.77,0.192,1.347,0.192,2.309,0.385c0.192,0.192,0.577,0.192,0.77,0.192C386.638,397.347,380.672,440.649,376.63,456.238z"/>
					<path fill="#45435A" d="M239.989,362.898l7.313-26.943v10.392l-5.196,19.053C242.298,365.592,238.642,367.517,239.989,362.898z
						"/>
					
						<linearGradient id="SVGID_15_" gradientUnits="userSpaceOnUse" x1="115.5749" y1="1521.4972" x2="205.5418" y2="1494.11" gradientTransform="matrix(1.9245 0 0 1.9245 7.8777 -2572.9883)">
						<stop  offset="0" style="stop-color:#010101;stop-opacity:0"/>
						<stop  offset="0.95" style="stop-color:#010101"/>
					</linearGradient>
					<path fill="url(#SVGID_15_)" d="M239.989,362.898l7.313-26.943v10.392l-5.196,19.053
						C242.298,365.592,238.642,367.517,239.989,362.898z"/>
					
						<linearGradient id="SVGID_16_" gradientUnits="userSpaceOnUse" x1="2794.1472" y1="3342.4622" x2="3284.5786" y2="3675.5227" gradientTransform="matrix(1.9245 0 0 1.9245 7.8777 -2572.9883)">
						<stop  offset="0" style="stop-color:#010101;stop-opacity:0"/>
						<stop  offset="0.95" style="stop-color:#010101"/>
					</linearGradient>
					<path fill="url(#SVGID_16_)" d="M260.389,392.728c-0.385,0.962-0.192,2.117,0.385,3.079c0.577,0.577,1.347,1.155,2.502,1.347
						c2.694,0.77,5.966,1.155,7.891-0.385c1.732-1.347,1.347-3.464,1.155-5.389l-1.155-10.585c-0.385-3.272-0.77-6.736-1.732-10.008
						c-1.155-5.004-2.887-2.117-3.849,0.962C263.275,378.487,261.351,385.415,260.389,392.728z"/>
					
						<linearGradient id="SVGID_17_" gradientUnits="userSpaceOnUse" x1="6399.7114" y1="1336.9545" x2="3858.9285" y2="1416.1184" gradientTransform="matrix(1.9245 0 0 1.9245 7.8777 -2572.9883)">
						<stop  offset="0" style="stop-color:#010101;stop-opacity:0"/>
						<stop  offset="0.95" style="stop-color:#010101"/>
					</linearGradient>
					<path fill="url(#SVGID_17_)" d="M254.808,368.287c2.887,0.192,5.774,0.192,8.66,0.385c2.117,0,4.619-0.577,4.426-2.309
						c3.849,9.43,4.426,19.438,1.732,29.06c1.732,0.385,3.079,0.192,4.426-0.385c1.347-0.577,2.502-1.732,2.887-2.887
						c0.385-0.962,0.385-2.309,0.192-3.464c-0.577-6.736-0.77-13.664-0.577-20.4c0-0.577,0.192-1.155,0.385-1.925
						c0.385-0.385,0.77-0.77,1.732-0.962c3.272-1.347,6.928-2.117,10.008-3.464c3.079-1.347,5.774-4.426,4.234-7.121
						c-9.238,3.464-19.823,3.464-30.023,3.079c-3.849-0.192-12.894-0.77-14.819,2.694
						C246.34,364.438,250.381,368.094,254.808,368.287z"/>
					<path fill="#ACACAC" d="M284.06,360.974c1.732-0.577,3.464-1.347,4.042-2.887c0.385-0.962,4.619-4.426,4.234-5.581
						c-0.77-2.502,1.347-7.121,0-9.238c-0.192-0.385-0.77-0.77-1.347-1.155c-0.577-0.192-9.43,4.619-10.008,4.619l-19.823,2.309
						c-4.042,0.385-9.43,0.192-11.162,3.657c-1.155,2.309-5.581,5.774-3.657,7.506c3.079,3.079,13.279,3.657,17.513,3.657
						C270.974,364.438,277.709,363.091,284.06,360.974z"/>
				</g>
			</g>
		</g>
	</g>
</g>
</svg>
