<?xml version="1.0" encoding="utf-8"?>
<!-- Generator: Adobe Illustrator 17.0.0, SVG Export Plug-In . SVG Version: 6.00 Build 0)  -->
<!DOCTYPE svg PUBLIC "-//W3C//DTD SVG 1.1//EN" "http://www.w3.org/Graphics/SVG/1.1/DTD/svg11.dtd">
<svg version="1.1" id="bf56719a-dd30-4b09-833f-7c41eeee086b"
	 xmlns="http://www.w3.org/2000/svg" xmlns:xlink="http://www.w3.org/1999/xlink" x="0px" y="0px" width="612px" height="437px"
	 viewBox="0 177.5 612 437" enable-background="new 0 177.5 612 437" xml:space="preserve">
<path opacity="0.1" fill="#536DFE" enable-background="new    " d="M94.3,358.246h63.786c2.241,0,4.08,1.839,4.08,4.195v13.849
	c0,2.299-1.839,4.195-4.08,4.195H94.3c-2.241,0-4.08-1.839-4.08-4.195v-13.849C90.22,360.142,92.059,358.246,94.3,358.246z"/>
<path opacity="0.1" fill="#536DFE" enable-background="new    " d="M169.636,380.427h63.786c2.241,0,4.08,1.839,4.08,4.195v13.849
	c0,2.299-1.839,4.195-4.08,4.195h-63.786c-2.241,0-4.08-1.839-4.08-4.195v-13.849C165.499,382.266,167.337,380.427,169.636,380.427z
	"/>
<path opacity="0.1" fill="#536DFE" enable-background="new    " d="M244.915,402.608h63.786c2.241,0,4.08,1.839,4.08,4.195v13.849
	c0,2.299-1.839,4.195-4.08,4.195h-63.786c-2.241,0-4.08-1.839-4.08-4.195v-13.849C240.835,404.447,242.674,402.608,244.915,402.608z
	"/>
<path opacity="0.1" fill="#536DFE" enable-background="new    " d="M94.3,324.974h63.786c2.241,0,4.08,1.839,4.08,4.195v13.849
	c0,2.299-1.839,4.195-4.08,4.195H94.3c-2.241,0-4.08-1.839-4.08-4.195v-13.849C90.22,326.87,92.059,324.974,94.3,324.974z"/>
<path opacity="0.1" fill="#536DFE" enable-background="new    " d="M169.636,347.155h63.786c2.241,0,4.08,1.839,4.08,4.195v13.849
	c0,2.299-1.839,4.195-4.08,4.195h-63.786c-2.241,0-4.08-1.839-4.08-4.195V351.35C165.499,349.051,167.337,347.155,169.636,347.155z"
	/>
<path opacity="0.1" fill="#536DFE" enable-background="new    " d="M244.915,369.336h63.786c2.241,0,4.08,1.839,4.08,4.195v13.849
	c0,2.299-1.839,4.195-4.08,4.195h-63.786c-2.241,0-4.08-1.839-4.08-4.195v-13.849C240.835,371.233,242.674,369.336,244.915,369.336z
	"/>
<path opacity="0.1" fill="#536DFE" enable-background="new    " d="M328.584,358.246h63.786c2.241,0,4.08,1.839,4.08,4.195v13.849
	c0,2.299-1.839,4.195-4.08,4.195h-63.786c-2.241,0-4.08-1.839-4.08-4.195v-13.849C324.504,360.142,326.343,358.246,328.584,358.246z
	"/>
<path opacity="0.1" fill="#536DFE" enable-background="new    " d="M403.92,380.427h63.786c2.241,0,4.08,1.839,4.08,4.195v13.849
	c0,2.299-1.839,4.195-4.08,4.195H403.92c-2.241,0-4.08-1.839-4.08-4.195v-13.849C399.84,382.266,401.679,380.427,403.92,380.427z"/>
<path opacity="0.1" fill="#536DFE" enable-background="new    " d="M479.256,402.608h63.786c2.241,0,4.08,1.839,4.08,4.195v13.849
	c0,2.299-1.839,4.195-4.08,4.195h-63.786c-2.241,0-4.08-1.839-4.08-4.195v-13.849C475.176,404.447,476.958,402.608,479.256,402.608z
	"/>
<path opacity="0.1" fill="#536DFE" enable-background="new    " d="M328.584,324.974h63.786c2.241,0,4.08,1.839,4.08,4.195v13.849
	c0,2.299-1.839,4.195-4.08,4.195h-63.786c-2.241,0-4.08-1.839-4.08-4.195v-13.849C324.504,326.87,326.343,324.974,328.584,324.974z"
	/>
<path opacity="0.1" fill="#536DFE" enable-background="new    " d="M403.92,347.155h63.786c2.241,0,4.08,1.839,4.08,4.195v13.849
	c0,2.299-1.839,4.195-4.08,4.195H403.92c-2.241,0-4.08-1.839-4.08-4.195V351.35C399.84,349.051,401.679,347.155,403.92,347.155z"/>
<path opacity="0.1" fill="#536DFE" enable-background="new    " d="M479.256,369.336h63.786c2.241,0,4.08,1.839,4.08,4.195v13.849
	c0,2.299-1.839,4.195-4.08,4.195h-63.786c-2.241,0-4.08-1.839-4.08-4.195v-13.849C475.176,371.233,476.958,369.336,479.256,369.336z
	"/>
<path opacity="0.1" fill="#536DFE" enable-background="new    " d="M94.3,280.668h63.786c2.241,0,4.08,1.839,4.08,4.195v13.849
	c0,2.299-1.839,4.195-4.08,4.195H94.3c-2.241,0-4.08-1.839-4.08-4.195v-13.849C90.22,282.507,92.059,280.668,94.3,280.668z"/>
<path opacity="0.1" fill="#536DFE" enable-background="new    " d="M169.636,302.792h63.786c2.241,0,4.08,1.839,4.08,4.195v13.849
	c0,2.299-1.839,4.195-4.08,4.195h-63.786c-2.241,0-4.08-1.839-4.08-4.195v-13.849C165.499,304.688,167.337,302.792,169.636,302.792z
	"/>
<path opacity="0.1" fill="#536DFE" enable-background="new    " d="M244.915,324.974h63.786c2.241,0,4.08,1.839,4.08,4.195v13.849
	c0,2.299-1.839,4.195-4.08,4.195h-63.786c-2.241,0-4.08-1.839-4.08-4.195v-13.849C240.835,326.87,242.674,324.974,244.915,324.974z"
	/>
<path opacity="0.1" fill="#536DFE" enable-background="new    " d="M94.3,247.396h63.786c2.241,0,4.08,1.839,4.08,4.195v13.849
	c0,2.299-1.839,4.195-4.08,4.195H94.3c-2.241,0-4.08-1.839-4.08-4.195v-13.849C90.22,249.235,92.059,247.396,94.3,247.396z"/>
<path opacity="0.1" fill="#536DFE" enable-background="new    " d="M169.636,269.577h63.786c2.241,0,4.08,1.839,4.08,4.195v13.849
	c0,2.299-1.839,4.195-4.08,4.195h-63.786c-2.241,0-4.08-1.839-4.08-4.195v-13.849C165.499,271.416,167.337,269.577,169.636,269.577z
	"/>
<path opacity="0.1" fill="#536DFE" enable-background="new    " d="M244.915,291.701h63.786c2.241,0,4.08,1.839,4.08,4.195v13.849
	c0,2.299-1.839,4.195-4.08,4.195h-63.786c-2.241,0-4.08-1.839-4.08-4.195v-13.849C240.835,293.598,242.674,291.701,244.915,291.701z
	"/>
<path opacity="0.1" fill="#536DFE" enable-background="new    " d="M328.584,280.668h63.786c2.241,0,4.08,1.839,4.08,4.195v13.849
	c0,2.299-1.839,4.195-4.08,4.195h-63.786c-2.241,0-4.08-1.839-4.08-4.195v-13.849C324.504,282.507,326.343,280.668,328.584,280.668z
	"/>
<path opacity="0.1" fill="#536DFE" enable-background="new    " d="M403.92,302.792h63.786c2.241,0,4.08,1.839,4.08,4.195v13.849
	c0,2.299-1.839,4.195-4.08,4.195H403.92c-2.241,0-4.08-1.839-4.08-4.195v-13.849C399.84,304.688,401.679,302.792,403.92,302.792z"/>
<path opacity="0.1" fill="#536DFE" enable-background="new    " d="M479.256,324.974h63.786c2.241,0,4.08,1.839,4.08,4.195v13.849
	c0,2.299-1.839,4.195-4.08,4.195h-63.786c-2.241,0-4.08-1.839-4.08-4.195v-13.849C475.176,326.87,476.958,324.974,479.256,324.974z"
	/>
<path opacity="0.1" fill="#536DFE" enable-background="new    " d="M328.584,247.396h63.786c2.241,0,4.08,1.839,4.08,4.195v13.849
	c0,2.299-1.839,4.195-4.08,4.195h-63.786c-2.241,0-4.08-1.839-4.08-4.195v-13.849C324.504,249.235,326.343,247.396,328.584,247.396z
	"/>
<path opacity="0.1" fill="#536DFE" enable-background="new    " d="M403.92,269.577h63.786c2.241,0,4.08,1.839,4.08,4.195v13.849
	c0,2.299-1.839,4.195-4.08,4.195H403.92c-2.241,0-4.08-1.839-4.08-4.195v-13.849C399.84,271.416,401.679,269.577,403.92,269.577z"/>
<path opacity="0.1" fill="#536DFE" enable-background="new    " d="M479.256,291.701h63.786c2.241,0,4.08,1.839,4.08,4.195v13.849
	c0,2.299-1.839,4.195-4.08,4.195h-63.786c-2.241,0-4.08-1.839-4.08-4.195v-13.849C475.176,293.598,476.958,291.701,479.256,291.701z
	"/>
<ellipse opacity="0.1" fill="#536DFE" enable-background="new    " cx="306" cy="557.993" rx="301.116" ry="55.798"/>
<polygon fill="#233447" points="136.996,367.497 111.654,525.698 226.181,513.343 221.239,499.896 131.767,507.482 152.684,367.21 
	"/>
<polygon fill="#233447" points="107.287,187.977 261.407,187.403 306,531.33 151.305,552.649 "/>
<polygon fill="#F7F7F7" points="124.066,201.137 248.478,201.137 291.979,520.928 163.717,538.915 "/>
<path fill="#3F3D56" d="M241.41,506.562c0.805,1.552,1.379,3.161,2.356,4.54c2.988,4.023,8.62,4.712,12.872,7.355
	c0.23,0.115,0.402,0.287,0.517,0.517c0.172,0.46-0.23,0.977-0.632,1.264c-3.218,2.299-7.413,2.356-11.321,2.299
	c-1.322,0.057-2.643-0.057-3.908-0.402c-2.069-0.575-3.85-2.011-5.919-2.643c-1.034-0.287-2.126-0.402-3.218-0.46l-4.31-0.287
	c-1.149,0-2.299-0.23-3.333-0.632c-1.092-0.402-1.896-1.379-2.126-2.528c-0.115-0.919,0.287-1.839,0.517-2.758
	c0.575-2.126,0.402-4.77,2.011-6.206c0.69-0.517,1.437-0.919,2.299-1.149c2.988-1.034,6.034-1.839,9.137-2.471
	C238.824,502.425,240.26,504.321,241.41,506.562z"/>
<path fill="#3F3D56" d="M192.737,518.687c0.115,1.207,0.115,2.586-0.69,3.39c-0.517,0.46-1.149,0.747-1.839,0.862
	c-4.08,0.977-8.62,1.034-12.125-1.207c-0.345-0.23-0.69-0.517-0.977-0.862c-0.287-0.46-0.46-0.977-0.46-1.552
	c-0.115-1.609,0.345-3.161,0.805-4.712c1.034-3.62,1.839-7.355,2.356-11.091c0.057-0.287,10.401,1.667,11.091,2.701
	c0.862,1.264,0.862,4.367,1.092,5.919C192.277,514.377,192.565,516.504,192.737,518.687z"/>
<path fill="#233447" d="M231.238,372.669l2.758,26.089c0.575,5.344,1.149,10.688,0.747,16.033
	c-0.46,6.149-2.126,12.355-1.437,18.446c0.287,2.356,0.919,4.712,1.034,7.126c0,1.609-0.057,3.161-0.23,4.77
	c-1.264,15.803,2.701,31.548,4.885,47.236c0.345,1.954,0.46,3.908,0.23,5.861c-0.287,2.011-0.862,4.597,0.862,5.574l-16.32,6.034
	c-2.069-2.643-0.69-6.838-1.092-10.171c-0.345-3.046-2.011-5.746-2.873-8.677c-0.805-2.643-0.977-5.402-1.207-8.16
	c-1.437-14.883-5.804-29.422-6.838-44.363c-0.057-1.437-0.23-2.873-0.575-4.252c-0.575-1.839-1.666-3.505-2.471-5.229
	c-1.207-2.643-1.839-5.517-2.414-8.332l-3.505-16.665c-3.563,5.344-3.39,12.355-4.08,18.791c-0.977,8.965-3.161,17.814-4.942,26.664
	c-0.402,1.896-0.747,3.85-0.919,5.804c-0.46,5.229,0.46,10.459-0.057,15.63c-0.575,6.034-3.046,11.895-2.414,17.929
	c0.345,3.333,1.609,6.493,2.414,9.712c0.862,3.218,1.264,6.781,0,9.884c-4.54-1.667-9.367-2.241-14.136-1.609
	c-5.229-5.459-6.149-13.102-6.551-20.745c-0.345-7.643,0.517-15.343-0.402-22.928c-0.287-2.241-0.69-4.425-0.805-6.666
	c-0.23-7.183,3.161-13.906,4.827-20.86c1.494-6.264,1.666-12.815,0.402-19.136c-0.805-4.195-2.241-8.275-2.758-12.527
	c-0.69-5.976,0.46-11.953,1.666-17.814c0.805-3.965,1.552-7.93,2.471-11.895c0.977-4.252,2.069-8.562,4.655-12.01
	c4.08-5.574,11.378-7.988,18.159-7.47c6.781,0.517,13.159,3.678,18.734,7.643C223.538,365.256,227.618,368.762,231.238,372.669z"/>
<path fill="#FBBEBE" d="M213.022,272.795c-0.287,0.517-0.517,1.092-0.632,1.667c-0.115,1.149,0.575,2.184,1.092,3.218
	c0.69,1.264,1.264,2.643,1.609,4.08c0.287,0.862,0.345,1.839,0.23,2.758c-0.115,0.69-0.402,1.379-0.69,1.954
	c-1.034,2.069-2.643,4.023-4.77,4.885c-1.666,0.632-3.448,0.69-5.172,0.23c-1.666-0.46-3.275-1.264-4.712-2.299
	c-1.207-0.805-2.299-1.724-3.218-2.873c-0.862-1.207-1.666-2.528-2.241-3.908c-1.149-2.414-2.299-5.057-2.069-7.7
	c0-0.23,0.057-0.46,0.115-0.69c0.172-0.402,0.402-0.805,0.747-1.149c2.356-2.816,3.563-6.494,3.39-10.171l8.045,1.839
	c1.781,0.402,3.563,0.805,5.287,1.322c1.437,0.402,3.62,0.977,4.54,2.299C215.378,269.52,213.654,271.646,213.022,272.795z"/>
<ellipse fill="#FBBEBE" cx="208.712" cy="256.59" rx="14.596" ry="14.883"/>
<path fill="#F2F2F2" d="M206.356,286.53c0.632-1.379,1.954-2.241,3.161-3.103c1.207-0.862,2.471-1.954,2.701-3.448
	c0-0.345,0.115-0.69,0.23-0.977c0.46-0.69,1.552-0.345,2.241,0.172c1.609,1.264,2.701,3.103,3.793,4.885
	c1.379,2.184,2.586,4.425,3.563,6.838c1.552,4.137,1.724,8.677,1.896,13.159c0.172,4.023,0.287,8.16-0.632,12.068
	c-0.632,2.471-1.666,4.885-1.724,7.413c-0.172,9.252-3.333,18.159-3.563,27.411c0,2.701,0.115,5.344,0.402,8.045l0.517,5.976
	c-7.988-0.46-15.975-1.207-23.963-2.126c-0.23-2.758-1.034-5.459-1.724-8.16c-2.931-10.976-4.77-22.181-5.574-33.502
	c-0.402-6.034-0.862-12.01-1.494-17.986c-0.575-5.459-1.724-10.918-1.034-16.377c0.345-2.471,1.149-4.884,2.241-7.068
	c0.345-0.862,0.977-1.609,1.781-2.126c0.402-0.172,0.805-0.345,1.264-0.402c1.264-0.23,2.528-0.402,3.793-0.46
	c0.287,0,0.632,0,0.919,0.115c0.517,0.287,0.977,0.69,1.264,1.264C198.828,281.817,202.276,284.748,206.356,286.53z"/>
<path fill="#FF7F50" d="M199.575,285.38c1.034,1.494,3.218,1.839,4.137,3.39c0.345,0.632,0.575,1.322,0.747,2.011
	c0.575,1.896,1.724,3.505,2.471,5.344c1.034,2.643,1.034,5.574,1.034,8.39c0.115,2.241-0.057,4.54-0.517,6.723
	c-0.345,1.379-0.862,2.701-1.264,4.08c-0.69,2.356-0.919,4.77-0.747,7.183c0,0.517,0.115,1.034,0.402,1.494
	c0.345,0.46,0.862,0.805,1.437,0.977c1.609,0.747,3.276,1.437,5.057,1.322c0.345,0,0.69-0.115,1.034-0.345
	c0.23-0.172,0.345-0.402,0.517-0.69l1.092-1.896c0.977-1.724,2.011-3.678,1.666-5.632c-0.287-1.034-0.69-2.011-1.264-2.873
	c-0.69-1.437-1.322-2.988-1.781-4.54c-1.781-5.172-3.563-10.344-3.908-15.803c-0.23-2.069,0-4.137,0.632-6.149
	c0.517-1.207,1.149-2.356,1.954-3.39c-0.345-0.46-0.977-0.69-1.552-0.517s-1.092,0.402-1.609,0.69
	c-1.609,0.69-3.39,0.46-5.057-0.057c-0.632-0.172-1.666-0.862-2.299-0.805C201.472,284.231,199.633,285.438,199.575,285.38z"/>
<path fill="#F2F2F2" d="M212.505,285.265c-0.345-0.287-0.862-0.517-1.149-0.23c-0.115,0.115-0.172,0.287-0.23,0.46
	c-0.287,0.805-1.149,1.149-1.896,1.494c-0.747,0.345-1.609,0.46-2.069-0.115c-0.287-0.46-0.287-1.092,0.057-1.494
	c0.345-0.402,0.747-0.747,1.207-1.034c2.528-1.839,4.252-4.597,4.827-7.7c0.69,0.575,1.207,1.379,1.322,2.299
	c0.172,0.919,0.23,1.839,0.402,2.701c0.287,1.264,0.862,2.471,1.034,3.793c0.057,0.69,0,1.379,0,2.069s0.115,1.322,0.23,2.011
	C214.918,288.139,213.999,286.53,212.505,285.265z"/>
<path fill="#F2F2F2" d="M201.357,281.473c-0.575-0.517-1.092-1.034-1.666-1.609c-2.414-2.414-4.252-5.344-5.344-8.62
	c-0.69,0.575-1.494,1.322-1.494,2.241c0.057,0.69,0.287,1.322,0.747,1.839c2.069,3.333,3.448,7.068,4.023,10.976
	c0.632-0.977,1.666-1.552,2.758-1.494c0.862,0,4.77,2.356,5.057,1.781C205.896,285.668,201.989,282.105,201.357,281.473z"/>
<path fill="#13466A" d="M213.654,276.99c5.172,5.229,11.493,9.137,18.504,11.378c0.69,0.172,1.322,0.46,1.839,0.977
	c0.402,0.517,0.69,1.092,0.805,1.724c1.322,5.344,1.781,10.918,2.241,16.377c0.115,0.919,0.115,1.839-0.057,2.758
	c-0.345,1.494-1.322,2.643-2.356,3.793c-3.161,3.448-6.781,7.068-7.298,11.723c-0.057,0.919-0.172,1.781-0.287,2.701
	c-0.287,1.034-0.862,1.954-1.264,2.988c-1.839,4.999,2.299,11.033-0.23,15.688c1.379,2.701,2.299,5.574,2.758,8.562
	c0.057,1.149,0.345,2.241,0.747,3.275c0.747,1.609,2.299,2.643,3.505,3.908c3.735,3.908,4.195,9.827,4.425,15.286
	c0.115,3.046,0.115,6.608-2.184,8.562c-1.322,1.149-3.161,1.552-4.885,1.839c-2.299,0.402-4.827,0.69-6.838-0.46
	c-1.437-0.805-2.471-2.299-3.39-3.678c-1.781-2.701-3.62-5.344-5.344-8.103c-2.701-4.31-5.287-9.252-4.482-14.366
	c-0.23,5.172-1.322,10.401-3.793,14.941c-2.471,4.54-6.551,8.275-11.378,9.769c-4.885,1.494-10.574,0.46-14.251-3.218
	c-1.207-1.264-2.184-2.643-3.046-4.195c-2.069-3.62-3.563-7.528-4.482-11.608c-0.23-1.034-0.402-2.241,0.115-3.218
	c0.23-0.46,0.632-0.805,0.862-1.264c0.862-1.494,0.057-3.39-0.805-4.942c-1.264,0.115-2.184-1.437-2.069-2.701
	c0.115-1.322,0.862-2.471,1.437-3.62c1.609-3.505,1.264-7.643,0.46-11.435c-0.805-3.793-1.896-7.585-1.839-11.435
	c0.115-4.08-2.816-7.815-4.999-11.206c-1.207-1.954-2.643-3.735-3.735-5.746c-2.241-4.252-2.758-9.252-1.437-13.906
	c0.747-2.414,1.781-4.655,2.988-6.838l1.839-3.448c0.69-1.666,2.126-2.931,3.85-3.39l12.585-5.057
	c1.609-0.575,3.161-1.322,4.54-2.299c1.552-1.207,2.701-2.816,4.137-4.08c0.46-0.46,1.034-0.747,1.666-0.747
	c1.207,0.115,1.609,1.609,1.724,2.816c0.287,2.643,2.184,4.885,2.873,7.47c3.563,14.194,11.033,27.353,13.102,41.834
	c2.299-5.689,4.597-11.321,7.585-16.665c0.46-0.747,0.862-1.552,1.149-2.414c0.345-1.207,0.46-2.471,0.402-3.735
	c-0.172-3.678-1.092-7.241-2.069-10.746C216.01,286.185,214.918,281.76,213.654,276.99z"/>
<path fill="#13466A" d="M237.617,320.491c0.23,2.414,0.46,4.77,0.919,7.126c0.517,2.758,1.264,5.402,2.069,8.045
	c0.402,1.494,0.919,2.931,1.609,4.31c0.23,0.402,0.46,0.805,0.575,1.264c0.287,1.149-0.345,2.241-0.632,3.39
	c-0.805,3.39,1.609,7.126,0.115,10.229c-0.46,0.919-1.264,1.724-1.552,2.758c-0.345,1.149,0,2.414,0.172,3.62
	c0.46,3.39-0.632,6.781-1.781,9.999l-1.896,5.459c-1.724-3.276-3.448-6.608-5.861-9.424c-0.862-1.034-1.781-1.954-2.586-2.988
	c-1.149-1.666-2.126-3.505-2.758-5.459c-1.666-4.655-2.643-9.482-2.873-14.424c-0.115-1.379,0-2.816,0.46-4.137
	c0.345-0.747,0.747-1.494,1.207-2.241c1.494-2.701,1.781-5.919,1.724-9.022c-0.057-3.103-0.345-6.206,0-9.309
	c0.287-2.586,1.034-5.057,2.184-7.355c0.69-1.494,1.724-2.816,2.988-3.793c0.977-0.747,2.126-1.092,3.275-1.092
	c1.781,0.115,1.379,1.666,1.552,3.218L237.617,320.491z"/>
<path fill="#13466A" d="M156.649,312.848c-1.149,3.39-2.126,6.781-3.046,10.171c-0.862,3.39-1.666,6.723-2.356,10.171
	c-0.345,1.494-0.575,3.046-0.575,4.54c0.057,1.781,0.345,3.563,0.919,5.287c3.563,13.045,9.999,25.055,17.297,36.318
	c2.069-2.643,4.54-4.942,7.298-6.838c0.23-0.115,0.402-0.345,0.575-0.575c0.115-0.46,0.057-0.919-0.172-1.322
	c-2.011-4.195-5.172-7.873-6.206-12.47c-0.402-1.896-0.46-3.85-0.919-5.746c-0.632-2.414-1.954-4.655-2.299-7.183
	c-0.345-2.701,0.575-5.689-0.69-8.103c2.586-1.034,4.023-3.678,5.114-6.264c1.149-2.643,2.011-5.402,2.471-8.275
	c0.747-5.459-0.287-11.033-2.988-15.803c-1.322-2.414-2.988-4.54-4.999-6.379c-0.632-0.575-2.184-2.299-3.161-2.299
	c-1.264,0-1.666,2.126-2.069,3.046C159.35,305.091,157.913,308.941,156.649,312.848z"/>
<path fill="#FBBEBE" d="M179.405,375.657c0.172,0.115,0.345,0.287,0.287,0.517c-0.057,0.23-0.23,0.23-0.345,0.345
	c-0.747,0.517-1.322,1.322-1.609,2.184c-0.919,2.126-1.724,4.252-2.414,6.436c-1.207-1.896-2.701-3.62-4.31-5.114
	c-1.264-1.207-2.643-2.299-3.333-3.908c0-0.057,2.873-2.241,3.161-2.471c0.805-0.747,1.839-2.758,2.643-3.218
	c0.919-0.517,1.839,1.494,2.586,2.299C177.164,373.761,178.256,374.738,179.405,375.657z"/>
<path fill="#192534" d="M224.17,254.234c-0.057-0.747-0.115-1.552-0.69-2.011c-0.46-0.345-1.092-0.517-1.666-0.46
	c-3.218-0.115-6.551,0.46-9.539-0.632c-2.011-0.747-3.678-2.126-5.632-2.988c-1.954-0.862-4.425-1.092-5.976,0.345
	c-1.207,1.149-1.494,2.816-1.954,4.425c-0.919,3.505-2.528,6.781-4.77,9.597c-1.494-0.46-2.586-1.839-3.275-3.275
	c-2.356-4.885-1.207-10.688,0.46-15.803c0.575-1.724,1.149-3.448,1.781-5.172l1.322-3.793c1.781-0.172,3.39-1.034,4.597-2.356
	l0.575,1.437c1.494-0.057,2.931-0.575,4.137-1.494c0.46,0.862,1.666,1.149,2.643,0.862c0.977-0.287,1.781-0.862,2.758-1.149
	c2.586-0.862,5.287,0.46,7.988,0.575c1.149,0,2.299,0,3.39,0.115c3.161,0.517,5.402,3.563,6.379,6.666
	c0.632,2.069,1.207,4.655,3.161,5.344c0.057,0.805-1.322,0.919-1.437,1.666c0,0.23,0.057,0.517,0.172,0.69l1.839,4.023
	c-0.862,0.23-1.781,0.172-2.643-0.115C227.043,252.913,224.285,255.786,224.17,254.234z"/>
<path fill="#FBBEBE" d="M317.665,263.026c0.919,3.103,1.667,6.206,2.184,9.367c0.402,2.356,0.632,4.999-0.69,7.011
	c5.114-7.815,10.401-15.86,18.159-20.917c-3.218-3.505-4.77-8.275-4.31-13.045c0.057-0.46-6.379,2.011-6.838,2.299
	c-2.241,1.264-4.31,2.873-6.494,4.195c-1.149,0.69-5.861,2.356-5.919,3.39c0,0.632,1.896,2.643,2.241,3.275
	C316.631,260.038,317.206,261.532,317.665,263.026z"/>
<path fill="#ACACAC" d="M341.341,557.763c-2.586-1.839-5.919-2.126-8.735-0.69c-2.471,1.322-4.195,3.793-6.436,5.459
	c-3.908,2.873-9.022,3.103-13.619,4.655c-1.207,0.402-2.471,1.034-2.988,2.241c-0.345,1.034-0.287,2.184,0.23,3.103
	c0.747,1.724,2.126,3.161,3.793,3.965c2.069,0.977,4.425,1.034,6.666,1.092l19.71,0.23c6.034,0.057,12.125,0.172,18.159,0.919
	c1.379,0.172,2.931,0.402,4.137-0.345c2.011-1.149,2.241-3.965,2.069-6.321c-0.402-5.919-1.724-11.78-3.85-17.297
	c-0.23-0.632-0.575-1.322-1.207-1.437c-0.46,0-0.919,0.115-1.322,0.402c-5.574,3.39-12.585,5.287-18.504,2.586"/>
<path fill="#3F3D56" d="M351.167,429.674c-2.184,13.044-0.747,26.434,1.724,39.421c0.46,2.586,1.034,5.114,1.781,7.643
	c0.862,2.873,2.069,5.632,2.931,8.505c2.126,7.298,1.839,15.113,1.494,22.699l-1.437,34.651c-0.115,2.931-0.23,5.861,0.632,8.677
	c0.345,1.149,0.747,2.528-0.115,3.276c-0.345,0.23-0.747,0.402-1.149,0.46c-3.965,0.747-7.988,0.115-11.55-1.781l-0.402-34.996
	c-0.115-10.803-0.23-21.607-1.896-32.295c-1.322-8.447-3.563-16.837-3.678-25.399c-0.172-8.965,2.011-17.814,4.195-26.549
	c0.46-1.839,2.184-3.218,3.62-4.482c0.517-0.517,1.092-0.862,1.781-1.092C349.788,428.18,350.765,429.1,351.167,429.674z"/>
<path opacity="0.1" fill="#264572" enable-background="new    " d="M351.167,429.674c-2.184,13.044-0.747,26.434,1.724,39.421
	c0.46,2.586,1.034,5.114,1.781,7.643c0.862,2.873,2.069,5.632,2.931,8.505c2.126,7.298,1.839,15.113,1.494,22.699l-1.437,34.651
	c-0.115,2.931-0.23,5.861,0.632,8.677c0.345,1.149,0.747,2.528-0.115,3.276c-0.345,0.23-0.747,0.402-1.149,0.46
	c-3.965,0.747-7.988,0.115-11.55-1.781l-0.402-34.996c-0.115-10.803-0.23-21.607-1.896-32.295
	c-1.322-8.447-3.563-16.837-3.678-25.399c-0.172-8.965,2.011-17.814,4.195-26.549c0.46-1.839,2.184-3.218,3.62-4.482
	c0.517-0.517,1.092-0.862,1.781-1.092C349.788,428.18,350.765,429.1,351.167,429.674z"/>
<path fill="#13466A" d="M309.85,388.932c-0.805,3.39,0.919,6.953,0.747,10.459c-0.115,2.126-0.919,4.252-0.575,6.321
	c0.345,2.069,1.839,3.678,2.643,5.574c0.575,1.609,0.862,3.276,0.919,4.999c0.23,4.195,0.057,8.39-0.115,12.585
	c-0.287,7.011-0.46,14.079,0.46,21.032c0.805,6.034,2.414,11.895,4.77,17.469c0.747,1.494,1.322,3.103,1.781,4.712
	c0.287,1.494,0.517,3.046,0.632,4.54c0.517,4.999,1.839,9.884,3.908,14.424c1.379,3.103,3.85,5.632,4.655,8.907
	c0.747,3.161,0.23,6.551,0.805,9.712c0.402,2.356,1.322,4.655,1.896,7.011c0.69,3.046,0.69,6.206,1.034,9.309
	c0.977,8.964,4.999,17.929,2.586,26.664c-0.46,1.724-1.207,3.505-0.862,5.287c0.172,0.862,0.575,1.724,0.402,2.586
	c-0.172,0.747-0.69,1.322-0.977,2.011c-0.575,1.322,0.057,2.873,1.034,3.908c1.034,0.919,2.241,1.667,3.563,2.126
	c4.08,1.781,8.275,3.563,12.642,3.505c0.517,0.057,1.092-0.057,1.552-0.287c0.805-0.402,1.207-1.322,1.494-2.184l2.241-5.689
	c0.287-0.69,0.575-1.494,0.172-2.126c-0.287-0.345-0.575-0.632-0.919-0.919c-1.839-1.552-1.437-4.482-0.919-6.838
	c1.264-6.034,1.896-12.183,2.069-18.331c0.23-12.297-1.724-24.537-3.735-36.663c-0.69-4.195-1.379-8.447-2.758-12.47
	c-1.379-4.023-3.39-7.93-3.046-12.125c0.345-4.54-0.805-9.309,0-13.734c0.805-4.482,2.069-8.85,2.873-13.332
	c1.034-5.804,1.322-11.723,1.666-17.584c0.115-2.414,0.287-4.884,1.437-7.011c0.632-1.264,1.552-2.299,2.299-3.505
	c1.839-3.161,2.184-7.011,3.908-10.229c0.862-1.494,2.011-2.816,2.643-4.482c0.46-1.264,0.632-2.586,0.69-3.965
	c0.172-3.39,0-6.781-0.575-10.114c-9.367-4.884-19.768-7.298-30.284-7.183c-4.023,0.057-8.103,0.46-11.895,1.896
	C316.918,386.691,313.643,388.645,309.85,388.932z"/>
<path fill="#ACACAC" d="M332.434,566.67c-1.609,2.069-1.494,4.999-2.528,7.413c-1.264,2.931-4.08,4.827-6.723,6.551l-16.492,10.688
	c-0.919,0.575-1.896,1.264-2.184,2.299c-0.172,0.69-0.115,1.379,0.057,2.011c0.805,2.873,2.988,5.114,5.746,5.976
	c1.437,0.345,2.988,0.517,4.482,0.46l7.413,0.115c2.241,0.115,4.54,0,6.781-0.287c2.069-0.287,4.08-0.919,6.091-1.264
	c3.735-0.69,7.585-0.632,11.263-1.322c2.299-0.46,4.54-1.034,6.781-1.781c2.701-0.805,5.459-1.667,7.758-3.333
	c0.632-0.402,1.149-0.977,1.494-1.667c0.402-0.919,0.172-2.011-0.057-2.988l-3.563-15.86c-0.172-1.322-0.69-2.586-1.379-3.735
	c-0.805-1.092-2.184-1.781-3.448-1.322c-0.517,0.23-0.977,0.517-1.437,0.862c-1.839,1.207-4.137,1.437-6.264,1.034
	c-1.379-0.23-3.218-0.632-4.31-1.552c-0.862-0.69-1.092-1.839-1.839-2.643c-2.011-2.069-5.287-2.126-7.298-0.115
	C332.664,566.383,332.549,566.498,332.434,566.67z"/>
<ellipse fill="#FBBEBE" cx="321.688" cy="240.558" rx="19.883" ry="20.285"/>
<path fill="#192534" d="M306.402,241.764c1.896-1.092,1.896-4.252,3.85-5.287c1.954-1.034,4.137,0.747,5.402,2.586
	c1.839,2.701,3.103,5.689,3.735,8.907c0.172,0.919,0.345,1.896,1.034,2.528c0.69,0.632,1.552,0.69,2.414,0.805
	c2.528,0.23,5.057,0.46,7.528,0.69c2.816,0.23,5.746,0.402,8.332-0.805c1.034-0.46,1.896-1.207,2.471-2.126
	c0.517-0.862,0.862-1.839,1.092-2.873c1.322-5.114,2.643-10.286,2.758-15.516c0.057-2.184-0.115-4.425-1.149-6.321
	c-0.575-1.149-1.494-2.126-1.724-3.333c-0.23-1.207,0.575-2.816,1.781-2.643c-1.149,0.057-2.241-0.172-3.275-0.632
	c-0.977-0.575-1.724-1.781-1.379-2.873c-2.816,0.345-4.827-2.471-7.011-4.252c-0.345-0.345-0.805-0.575-1.322-0.575
	c-0.402,0.115-0.747,0.23-1.092,0.46c-1.092,0.402-2.241-0.345-3.39-0.69c-3.046-0.862-6.896,1.207-9.137-1.034
	c0.23,1.437-1.494,2.414-2.931,2.356c-1.437,0-2.873-0.575-4.252-0.057c0.747,1.379,0.23,3.046-1.092,3.793
	c-0.172,0.057-0.287,0.172-0.46,0.23l0.69,1.494c-1.379,0.287-2.528,1.379-2.873,2.758c-0.747,2.931-0.575,7.126-0.402,10.171
	C306,230.789,307.264,241.247,306.402,241.764z"/>
<path fill="#C58048" d="M323.354,266.704c-9.999,11.435-12.527,27.583-14.654,42.754l-3.161,22.411
	c-0.805,5.804-1.666,11.608-2.356,17.469c-0.517,3.965-0.977,8.045-0.402,12.01c0.402,3.161,1.437,6.149,2.299,9.194
	c2.241,7.93,3.333,16.148,3.275,24.423c0.69-2.011,2.988-2.816,4.999-3.275c17.01-3.735,34.709-1.839,50.569,5.517
	c2.758-7.93,2.241-16.607,3.046-24.997c1.092-11.953,4.884-23.561,6.034-35.513c0.402-4.425,0.46-8.907,0.517-13.389
	c0.057-3.276,0.057-6.608-0.632-9.827c-0.747-3.563-2.356-6.896-3.965-10.114c-4.54-8.965-9.539-17.642-15.056-26.032
	c-2.758-4.195-5.632-8.332-8.677-12.412c-1.552-2.069-3.103-4.08-4.655-6.091c-1.552-1.954-2.184-3.62-4.655-2.471
	C331.342,258.544,326.687,262.854,323.354,266.704z"/>
<path fill="#FBBEBE" d="M329.043,361.981c-2.414,0.115-4.884,0-7.298-0.23c-1.781-0.172-3.62-0.46-5.402,0
	c-0.747,0.172-1.494,0.575-2.069,1.034c-0.632,0.575-0.69,1.609-0.115,2.299c0.287,0.287,0.632,0.517,1.034,0.517l1.896,0.172
	c1.207,0.115,2.414,0.23,3.39,1.149c0.402,0.345,0.632,0.805,0.69,1.379c0.115,1.322-0.977,2.011-2.011,2.586
	c-1.437,0.69-2.701,1.552-3.908,2.643c-0.919,0.919-1.494,2.069-1.609,3.39c0,0.345,0.287,0.69,0.632,0.69
	c0.115,0,0.23,0,0.345-0.057c2.184-1.149,3.62-4.425,6.034-3.908c-2.184,0.69-4.08,2.184-5.344,4.195
	c-0.747,1.149-0.402,2.701,0.69,3.505c0.805,0.517,1.781,0.575,2.586,0.057c0.345-0.23,0.69-0.46,1.034-0.69
	c1.609-1.379,3.103-2.931,4.367-4.597c-1.781,3.793-3.563,8.217-1.494,12.01c0.23,0.402,0.632,0.69,1.092,0.69
	c0.632-0.057,0.805-0.69,0.919-1.207c0.345-1.724,0.402-3.563,1.264-5.114c1.954-3.563,6.723-3.908,10.344-5.689
	c4.367-2.069,7.355-6.493,8.562-11.263c0.402-1.379,0.517-2.873,0.23-4.252c-0.805-3.218-4.655-3.908-7.183-2.356
	C334.675,360.659,332.894,361.866,329.043,361.981z"/>
<path opacity="0.1" enable-background="new    " d="M325.193,299.229c3.85,6.091,10.516,9.482,16.263,13.734
	c1.379,0.919,2.643,2.126,3.62,3.505c1.437,2.299,1.666,5.172,1.379,7.873c-0.402,3.563-1.494,6.953-2.586,10.344l-2.414,7.298
	c-1.552,4.655-3.103,9.367-5.976,13.274c-0.747,0.977-1.609,2.069-1.552,3.276c0.057,0.747,0.287,1.437,0.69,2.011
	c1.896,3.103,4.885,5.344,8.39,6.149c1.034,0.287,2.126,0.287,3.161,0c1.494-0.46,2.586-1.666,3.62-2.873
	c4.942-5.574,9.884-11.206,13.504-17.757c3.505-6.379,5.574-13.447,7.528-20.457c0.805-2.586,1.322-5.229,1.667-7.93
	c0.402-5.057-0.919-10.114-2.988-14.654c-2.069-4.54-5.057-8.677-8.045-12.7c-2.816-3.965-5.976-7.643-9.424-11.033
	c-5.976-5.689-13.332-9.079-21.319-5.804c-5.632,2.299-7.758,7.068-8.275,13.159C321.86,291.012,322.895,295.437,325.193,299.229z"
	/>
<path fill="#C58048" d="M327.205,297.678c3.85,6.091,10.574,9.482,16.263,13.734c1.379,0.919,2.586,2.126,3.563,3.505
	c1.437,2.299,1.667,5.172,1.379,7.873c-0.402,3.563-1.494,6.953-2.586,10.344l-2.414,7.298c-1.552,4.655-3.103,9.367-5.976,13.274
	c-0.747,0.977-1.609,2.069-1.552,3.276c0.057,0.747,0.287,1.437,0.69,2.011c1.896,3.103,4.884,5.344,8.39,6.149
	c1.034,0.287,2.126,0.287,3.161,0c1.494-0.46,2.586-1.666,3.62-2.816c4.942-5.574,9.884-11.206,13.504-17.757
	c3.505-6.379,5.574-13.447,7.528-20.515c0.805-2.586,1.322-5.229,1.666-7.93c0.402-5.057-0.919-10.114-2.988-14.654
	c-2.126-4.54-5.057-8.677-8.045-12.7c-2.873-3.908-6.034-7.585-9.482-10.976c-5.976-5.689-13.332-9.079-21.319-5.804
	c-5.689,2.299-7.758,7.068-8.275,13.159C323.872,289.518,324.906,293.943,327.205,297.678z"/>
<path fill="#233447" d="M448.915,498.919c0,1.437-0.115,2.931-0.46,4.367c-0.057,0.287-0.115,0.575-0.172,0.805
	c-1.552,6.379-5.976,11.091-11.263,11.378c-0.172,0-0.345,0-0.575,0c-5.574,0-10.286-4.885-11.838-11.608
	c-0.057-0.172-0.057-0.345-0.115-0.575c-0.287-1.437-0.46-2.873-0.46-4.367c0-9.137,5.517-16.55,12.412-16.55
	C443.341,482.37,448.915,489.783,448.915,498.919z"/>
<path opacity="0.1" enable-background="new    " d="M448.915,498.919c0,1.437-0.115,2.931-0.46,4.367
	c-0.057,0.287-0.115,0.575-0.172,0.805c-0.172,0-0.345,0-0.575,0c-1.379-0.057-2.701-0.287-4.08-0.575
	c-1.207,0.345-2.414,0.632-3.62,0.862c-0.919,0.172-1.896,0.23-2.816,0.287h-0.977c-1.149,0-2.241-0.057-3.39-0.23
	c-1.839-0.23-3.62-0.69-5.344-1.322c-0.919,0.345-1.896,0.575-2.873,0.805c-0.057-0.172-0.057-0.345-0.115-0.575
	c-0.287-1.437-0.46-2.873-0.46-4.367c0-9.137,5.517-16.55,12.412-16.55C443.341,482.427,448.915,489.783,448.915,498.919z"/>
<path fill="#37B079" d="M475.349,468.118c0-4.023-0.919-7.988-2.701-11.55l-14.539,4.597l12.815-7.643
	c-4.367-6.379-11.321-10.459-18.906-10.976c-0.575-0.919-1.264-1.781-1.954-2.643l-20.917,6.608l17.182-10.286
	c-11.033-8.62-26.836-6.493-35.283,4.712c-2.011,2.643-3.505,5.689-4.31,8.965l17.929,21.032l-19.423-14.309
	c-11.321,8.217-14.021,24.193-5.976,35.801c6.436,9.194,17.986,13.045,28.503,9.482c5.172,1.954,10.861,2.126,16.09,0.46
	c13.619,3.046,27.066-5.689,30.054-19.538c0.402-1.781,0.575-3.62,0.575-5.517c0-0.575,0-1.149-0.057-1.667
	C475.004,473.175,475.349,470.647,475.349,468.118z"/>
<path fill="#37B079" d="M474.947,472.888c-7.7-1.494-15.573-1.609-23.331-0.287c-8.735,1.494-17.699,4.712-26.261,2.356
	c-4.999-1.379-9.367-4.597-14.251-6.379c-4.712-1.666-9.826-2.011-14.711-0.919c-5.344,13.102,0.69,28.1,13.504,33.617
	c5.632,2.414,11.895,2.643,17.699,0.69c5.172,1.954,10.861,2.126,16.09,0.46c13.619,3.046,27.066-5.689,30.054-19.538
	c0.402-1.781,0.575-3.62,0.575-5.517c0-0.575,0-1.149-0.057-1.667C474.544,474.727,474.774,473.807,474.947,472.888z"/>
</svg>
