<?xml version="1.0" encoding="utf-8"?>
<!-- Generator: Adobe Illustrator 17.0.0, SVG Export Plug-In . SVG Version: 6.00 Build 0)  -->
<!DOCTYPE svg PUBLIC "-//W3C//DTD SVG 1.1//EN" "http://www.w3.org/Graphics/SVG/1.1/DTD/svg11.dtd">
<svg version="1.1" id="Layer_1" xmlns="http://www.w3.org/2000/svg" xmlns:xlink="http://www.w3.org/1999/xlink" x="0px" y="0px"
	 width="36px" height="36px" viewBox="0 0 36 36" enable-background="new 0 0 36 36" xml:space="preserve">
<path fill="#FFFDFC" d="M16.115,27.05v-7.648H13.5v-3.039h2.615v-2.395c0-2.602,1.623-4.018,3.992-4.018
	c1.135,0,2.111,0.084,2.393,0.121v2.719h-1.643c-1.289,0-1.537,0.601-1.537,1.48v2.094h2.908l-0.399,3.039H19.32v7.647"/>
<path fill="none" stroke="#FFFDFC" stroke-width="1.6" stroke-miterlimit="10" d="M0.8,32.165c0,1.676,1.359,3.035,3.035,3.035
	h28.329c1.676,0,3.035-1.359,3.035-3.035V3.835c0-1.676-1.359-3.035-3.035-3.035H3.835C2.159,0.8,0.8,2.159,0.8,3.835V32.165z"/>
</svg>
