<svg width="40" height="40" viewBox="0 0 40 40" fill="none" xmlns="http://www.w3.org/2000/svg">
<path d="M19.9969 39.9695C31.0342 39.9695 39.9817 31.022 39.9817 19.9847C39.9817 8.94747 31.0342 0 19.9969 0C8.95968 0 0.012207 8.94747 0.012207 19.9847C0.012207 31.022 8.95968 39.9695 19.9969 39.9695Z" fill="#3A5A98"/>
<path d="M34.1343 5.88281C41.9388 13.6873 41.9391 26.3415 34.1339 34.1466C26.3291 41.9512 13.6746 41.9512 5.87012 34.1466L34.1343 5.88281Z" fill="#345387"/>
<path d="M39.8523 22.236L25.3959 7.7793L17.8902 15.285L18.3373 15.7322L14.064 20.0052L17.5617 23.503L17.1017 23.9628L20.8884 27.7495L16.5229 32.1151L23.9806 39.5728C32.3904 37.8709 38.8819 30.8888 39.8523 22.236Z" fill="#2E4D72"/>
<path d="M16.5033 12.5606C16.5033 13.1737 16.5033 15.9122 16.5033 15.9122H14.0479V20.0107H16.5033V32.189H21.5472V20.0107H24.932C24.932 20.0107 25.2491 18.0451 25.4025 15.8967C24.9619 15.8967 21.5665 15.8967 21.5665 15.8967C21.5665 15.8967 21.5665 13.5121 21.5665 13.0942C21.5665 12.6757 22.1162 12.1124 22.6599 12.1124C23.2027 12.1124 24.3479 12.1124 25.4081 12.1124C25.4081 11.5539 25.4081 9.62612 25.4081 7.8457C23.9925 7.8457 22.3819 7.8457 21.6716 7.8457C16.3784 7.84545 16.5033 11.9478 16.5033 12.5606Z" fill="white"/>
</svg>
