<?xml version="1.0" encoding="utf-8"?>
<!-- Generator: Adobe Illustrator 17.0.0, SVG Export Plug-In . SVG Version: 6.00 Build 0)  -->
<!DOCTYPE svg PUBLIC "-//W3C//DTD SVG 1.1//EN" "http://www.w3.org/Graphics/SVG/1.1/DTD/svg11.dtd">
<svg version="1.1" id="Layer_1" xmlns="http://www.w3.org/2000/svg" xmlns:xlink="http://www.w3.org/1999/xlink" x="0px" y="0px"
	 width="36px" height="36px" viewBox="0 0 36 36" enable-background="new 0 0 36 36" xml:space="preserve">
<path fill="#FFFDFC" d="M25.247,11.734l-2.503,11.965c-0.189,0.844-0.681,1.055-1.382,0.657l-3.814-2.849l-1.84,1.794
	c-0.203,0.206-0.374,0.379-0.767,0.379l0.274-3.938l7.069-6.475c0.307-0.278-0.067-0.432-0.478-0.154l-8.739,5.577l-3.762-1.193
	c-0.818-0.259-0.833-0.83,0.17-1.228l14.717-5.746C24.873,10.266,25.469,10.679,25.247,11.734z"/>
<path fill="none" stroke="#FFFDFC" stroke-width="1.6" stroke-miterlimit="10" d="M0.8,32.165c0,1.676,1.359,3.035,3.035,3.035
	h28.329c1.676,0,3.035-1.359,3.035-3.035V3.835c0-1.676-1.359-3.035-3.035-3.035H3.835C2.159,0.8,0.8,2.159,0.8,3.835V32.165z"/>
</svg>
