<?xml version="1.0" encoding="utf-8"?>
<!-- Generator: Adobe Illustrator 17.0.0, SVG Export Plug-In . SVG Version: 6.00 Build 0)  -->
<!DOCTYPE svg PUBLIC "-//W3C//DTD SVG 1.1//EN" "http://www.w3.org/Graphics/SVG/1.1/DTD/svg11.dtd">
<svg version="1.1" id="Layer_1" xmlns="http://www.w3.org/2000/svg" xmlns:xlink="http://www.w3.org/1999/xlink" x="0px" y="0px"
	 width="36px" height="36px" viewBox="0 0 36 36" enable-background="new 0 0 36 36" xml:space="preserve">
<path fill="#FFFDFC" d="M28.077,19.703c0.644-5.424-0.31-8.849-2.03-10.398l0.001-0.001c-2.777-2.645-12.157-3.037-15.48,0.119
	c-1.492,1.543-2.018,3.809-2.075,6.613c-0.058,2.805-0.126,8.06,4.771,9.486h0.005L13.263,27.7c0,0-0.033,0.882,0.53,1.059
	c0.644,0.209,0.936-0.201,2.94-2.595c3.352,0.291,5.926-0.375,6.218-0.472C23.629,25.465,27.458,24.959,28.077,19.703z
	 M17.064,24.633c0,0-2.121,2.645-2.781,3.332c-0.216,0.223-0.453,0.202-0.449-0.24c0-0.291,0.016-3.614,0.016-3.614
	c-4.152-1.19-3.907-5.665-3.862-8.006c0.045-2.342,0.473-4.26,1.737-5.551C14.64,7.82,22.864,8.431,24.959,10.4
	c2.561,2.271,1.65,8.686,1.655,8.905c-0.527,4.387-3.63,4.665-4.2,4.855C22.17,24.24,19.906,24.823,17.064,24.633L17.064,24.633z"/>
<path fill="#FFFDFC" d="M28.077,19.703c0.644-5.424-0.31-8.849-2.03-10.398l0.001-0.001c-2.777-2.645-12.157-3.037-15.48,0.119
	c-1.492,1.543-2.018,3.809-2.075,6.613c-0.058,2.805-0.126,8.06,4.771,9.486h0.005L13.263,27.7c0,0-0.033,0.882,0.53,1.059
	c0.644,0.209,0.936-0.201,2.94-2.595c3.352,0.291,5.926-0.375,6.218-0.472C23.629,25.465,27.458,24.959,28.077,19.703z
	 M17.064,24.633c0,0-2.121,2.645-2.781,3.332c-0.216,0.223-0.453,0.202-0.449-0.24c0-0.291,0.016-3.614,0.016-3.614
	c-4.152-1.19-3.907-5.665-3.862-8.006c0.045-2.342,0.473-4.26,1.737-5.551C14.64,7.82,22.864,8.431,24.959,10.4
	c2.561,2.271,1.65,8.686,1.655,8.905c-0.527,4.387-3.63,4.665-4.2,4.855C22.17,24.24,19.906,24.823,17.064,24.633L17.064,24.633z"/>
<path fill="#FFFDFC" d="M18.237,11.067c-0.347,0-0.347,0.54,0,0.545c2.688,0.021,4.902,1.894,4.927,5.332
	c0,0.363,0.531,0.358,0.526-0.004h-0.001C23.66,13.235,21.243,11.088,18.237,11.067L18.237,11.067z"/>
<path fill="#FFFDFC" d="M18.237,11.067c-0.347,0-0.347,0.54,0,0.545c2.688,0.021,4.902,1.894,4.927,5.332
	c0,0.363,0.531,0.358,0.526-0.004h-0.001C23.66,13.235,21.243,11.088,18.237,11.067L18.237,11.067z"/>
<path fill="#FFFDFC" d="M21.774,16.373c-0.008,0.358,0.522,0.375,0.526,0.013c0.044-2.042-1.215-3.724-3.581-3.901
	c-0.347-0.025-0.382,0.519-0.037,0.545C20.734,13.185,21.815,14.585,21.774,16.373L21.774,16.373z"/>
<path fill="#FFFDFC" d="M21.774,16.373c-0.008,0.358,0.522,0.375,0.526,0.013c0.044-2.042-1.215-3.724-3.581-3.901
	c-0.347-0.025-0.382,0.519-0.037,0.545C20.734,13.185,21.815,14.585,21.774,16.373L21.774,16.373z"/>
<path fill="#FFFDFC" d="M21.207,18.696c-0.445-0.257-0.897-0.097-1.084,0.156l-0.392,0.507c-0.199,0.257-0.571,0.223-0.571,0.223
	c-2.713-0.717-3.438-3.556-3.438-3.556s-0.033-0.384,0.215-0.59l0.49-0.405c0.245-0.194,0.4-0.662,0.15-1.122
	c-0.666-1.203-1.113-1.618-1.341-1.937c-0.239-0.3-0.599-0.367-0.974-0.165h-0.008c-0.779,0.455-1.631,1.308-1.358,2.185
	c0.465,0.925,1.32,3.875,4.045,6.103c1.281,1.054,3.307,2.134,4.168,2.383l0.008,0.013c0.848,0.283,1.672-0.603,2.112-1.405V21.08
	c0.195-0.388,0.131-0.755-0.155-0.995C22.569,19.591,21.806,19.046,21.207,18.696z"/>
<path fill="#FFFDFC" d="M21.207,18.696c-0.445-0.257-0.897-0.097-1.084,0.156l-0.392,0.507c-0.199,0.257-0.571,0.223-0.571,0.223
	c-2.713-0.717-3.438-3.556-3.438-3.556s-0.033-0.384,0.215-0.59l0.49-0.405c0.245-0.194,0.4-0.662,0.15-1.122
	c-0.666-1.203-1.113-1.618-1.341-1.937c-0.239-0.3-0.599-0.367-0.974-0.165h-0.008c-0.779,0.455-1.631,1.308-1.358,2.185
	c0.465,0.925,1.32,3.875,4.045,6.103c1.281,1.054,3.307,2.134,4.168,2.383l0.008,0.013c0.848,0.283,1.672-0.603,2.112-1.405V21.08
	c0.195-0.388,0.131-0.755-0.155-0.995C22.569,19.591,21.806,19.046,21.207,18.696z"/>
<path fill="#FFFDFC" d="M19.089,14.493c0.865,0.05,1.284,0.502,1.329,1.43c0.016,0.363,0.543,0.338,0.526-0.025
	c-0.058-1.211-0.689-1.886-1.827-1.949C18.771,13.928,18.739,14.473,19.089,14.493L19.089,14.493z"/>
<path fill="#FFFDFC" d="M19.089,14.493c0.865,0.05,1.284,0.502,1.329,1.43c0.016,0.363,0.543,0.338,0.526-0.025
	c-0.058-1.211-0.689-1.886-1.827-1.949C18.771,13.928,18.739,14.473,19.089,14.493L19.089,14.493z"/>
<path fill="none" stroke="#FFFDFC" stroke-width="1.6" stroke-miterlimit="10" d="M0.8,32.165c0,1.676,1.359,3.035,3.035,3.035
	h28.329c1.676,0,3.035-1.359,3.035-3.035V3.835c0-1.676-1.359-3.035-3.035-3.035H3.835C2.159,0.8,0.8,2.159,0.8,3.835V32.165z"/>
</svg>
