<?xml version="1.0" encoding="utf-8"?>
<!-- Generator: Adobe Illustrator 17.0.0, SVG Export Plug-In . SVG Version: 6.00 Build 0)  -->
<!DOCTYPE svg PUBLIC "-//W3C//DTD SVG 1.1//EN" "http://www.w3.org/Graphics/SVG/1.1/DTD/svg11.dtd">
<svg version="1.1" id="Layer_1" xmlns="http://www.w3.org/2000/svg" xmlns:xlink="http://www.w3.org/1999/xlink" x="0px" y="0px"
	 width="36px" height="36px" viewBox="0 0 36 36" enable-background="new 0 0 36 36" xml:space="preserve">
<path display="none" fill="#FCFCFC" d="M29.155,19.893c0.716-6.027-0.344-9.832-2.256-11.553L26.9,8.339
	C23.814,5.4,13.392,4.965,9.7,8.471c-1.658,1.715-2.242,4.232-2.306,7.348c-0.064,3.117-0.14,8.956,5.301,10.54H12.7l-0.005,2.419
	c0,0-0.037,0.98,0.589,1.177c0.716,0.232,1.04-0.223,3.267-2.883c3.724,0.323,6.584-0.417,6.909-0.525
	C24.212,26.295,28.467,25.732,29.155,19.893z M16.918,25.37c0,0-2.357,2.939-3.09,3.702c-0.24,0.248-0.503,0.225-0.499-0.267
	c0-0.323,0.018-4.016,0.018-4.016c-4.613-1.322-4.341-6.294-4.291-8.895c0.05-2.602,0.526-4.733,1.93-6.168
	c3.239-3.037,12.376-2.358,14.704-0.17c2.846,2.523,1.833,9.651,1.839,9.894c-0.585,4.874-4.033,5.183-4.667,5.394
	C22.591,24.934,20.076,25.581,16.918,25.37L16.918,25.37z"/>
<path display="none" fill="#FCFCFC" d="M29.155,19.893c0.716-6.027-0.344-9.832-2.256-11.553L26.9,8.339
	C23.814,5.4,13.392,4.965,9.7,8.471c-1.658,1.715-2.242,4.232-2.306,7.348c-0.064,3.117-0.14,8.956,5.301,10.54H12.7l-0.005,2.419
	c0,0-0.037,0.98,0.589,1.177c0.716,0.232,1.04-0.223,3.267-2.883c3.724,0.323,6.584-0.417,6.909-0.525
	C24.212,26.295,28.467,25.732,29.155,19.893z M16.918,25.37c0,0-2.357,2.939-3.09,3.702c-0.24,0.248-0.503,0.225-0.499-0.267
	c0-0.323,0.018-4.016,0.018-4.016c-4.613-1.322-4.341-6.294-4.291-8.895c0.05-2.602,0.526-4.733,1.93-6.168
	c3.239-3.037,12.376-2.358,14.704-0.17c2.846,2.523,1.833,9.651,1.839,9.894c-0.585,4.874-4.033,5.183-4.667,5.394
	C22.591,24.934,20.076,25.581,16.918,25.37L16.918,25.37z"/>
<path display="none" fill="#FCFCFC" d="M21.521,18.774c-0.494-0.286-0.997-0.108-1.205,0.173l-0.435,0.563
	c-0.221,0.286-0.634,0.248-0.634,0.248c-3.014-0.797-3.82-3.951-3.82-3.951s-0.037-0.427,0.239-0.656l0.544-0.45
	c0.272-0.216,0.444-0.736,0.167-1.247c-0.74-1.337-1.237-1.798-1.49-2.152c-0.266-0.333-0.666-0.408-1.082-0.183h-0.009
	c-0.865,0.506-1.812,1.453-1.509,2.428c0.517,1.028,1.467,4.305,4.495,6.781c1.423,1.171,3.675,2.371,4.631,2.648l0.009,0.014
	c0.942,0.314,1.858-0.67,2.347-1.561v-0.007c0.217-0.431,0.145-0.839-0.172-1.106C23.035,19.768,22.187,19.163,21.521,18.774z"/>
<path display="none" fill="#FCFCFC" d="M21.521,18.774c-0.494-0.286-0.997-0.108-1.205,0.173l-0.435,0.563
	c-0.221,0.286-0.634,0.248-0.634,0.248c-3.014-0.797-3.82-3.951-3.82-3.951s-0.037-0.427,0.239-0.656l0.544-0.45
	c0.272-0.216,0.444-0.736,0.167-1.247c-0.74-1.337-1.237-1.798-1.49-2.152c-0.266-0.333-0.666-0.408-1.082-0.183h-0.009
	c-0.865,0.506-1.812,1.453-1.509,2.428c0.517,1.028,1.467,4.305,4.495,6.781c1.423,1.171,3.675,2.371,4.631,2.648l0.009,0.014
	c0.942,0.314,1.858-0.67,2.347-1.561v-0.007c0.217-0.431,0.145-0.839-0.172-1.106C23.035,19.768,22.187,19.163,21.521,18.774z"/>
<g>
	<path fill="#FFFDFC" d="M18.06,7.779c-5.246,0.25-9.386,4.619-9.371,9.87c0.005,1.599,0.391,3.11,1.072,4.444L8.715,27.17
		c-0.057,0.275,0.191,0.516,0.464,0.45l4.975-1.179c1.278,0.637,2.714,1.005,4.233,1.028c5.362,0.082,9.833-4.175,10.001-9.536
		C28.567,12.189,23.826,7.505,18.06,7.779L18.06,7.779z M24.344,23.423c-1.55,1.55-3.611,2.403-5.802,2.403
		c-1.283,0-2.512-0.288-3.652-0.856l-0.737-0.367l-3.245,0.769l0.683-3.316l-0.363-0.711c-0.592-1.159-0.892-2.413-0.892-3.725
		c0-2.192,0.854-4.253,2.403-5.802c1.536-1.536,3.631-2.403,5.803-2.403c2.192,0,4.253,0.854,5.802,2.403
		c1.55,1.55,2.403,3.611,2.403,5.802C26.748,19.792,25.88,21.886,24.344,23.423L24.344,23.423z"/>
	<path fill="#FFFDFC" d="M23.323,19.756l-1.909-0.548c-0.251-0.072-0.521-0.001-0.704,0.186l-0.467,0.475
		c-0.197,0.2-0.495,0.265-0.756,0.16c-0.902-0.365-2.802-2.054-3.287-2.898c-0.14-0.243-0.117-0.548,0.055-0.77l0.407-0.527
		c0.16-0.206,0.193-0.484,0.087-0.723l-0.803-1.816c-0.192-0.435-0.748-0.562-1.111-0.255c-0.533,0.45-1.165,1.135-1.241,1.893
		c-0.135,1.337,0.438,3.022,2.606,5.046c2.505,2.338,4.511,2.647,5.817,2.331c0.741-0.179,1.333-0.898,1.707-1.488
		C23.982,20.421,23.78,19.887,23.323,19.756L23.323,19.756z"/>
</g>
<path fill="none" stroke="#FFFDFC" stroke-width="1.6" stroke-miterlimit="10" d="M0.8,32.165c0,1.676,1.359,3.035,3.035,3.035
	h28.329c1.676,0,3.035-1.359,3.035-3.035V3.835c0-1.676-1.359-3.035-3.035-3.035H3.835C2.159,0.8,0.8,2.159,0.8,3.835V32.165z"/>
</svg>
