<?xml version="1.0" encoding="utf-8"?>
<!-- Generator: Adobe Illustrator 24.3.0, SVG Export Plug-In . SVG Version: 6.00 Build 0)  -->
<svg version="1.1" id="Слой_1" xmlns="http://www.w3.org/2000/svg" xmlns:xlink="http://www.w3.org/1999/xlink" x="0px" y="0px"
	 viewBox="0 0 22 22" style="enable-background:new 0 0 22 22;" xml:space="preserve">
<style type="text/css">
	.st0{clip-path:url(#SVGID_2_);fill:url(#SVGID_3_);}
	.st1{clip-path:url(#SVGID_2_);fill:url(#SVGID_4_);}
	.st2{clip-path:url(#SVGID_2_);fill:#FFFFFF;}
</style>
<g>
	<defs>
		<circle id="SVGID_1_" cx="11" cy="11" r="11"/>
	</defs>
	<clipPath id="SVGID_2_">
		<use xlink:href="#SVGID_1_"  style="overflow:visible;"/>
	</clipPath>
	
		<radialGradient id="SVGID_3_" cx="-914.0602" cy="533.0968" r="1" gradientTransform="matrix(27.9318 0 0 -27.9318 25532.7715 14911.8721)" gradientUnits="userSpaceOnUse">
		<stop  offset="9.000000e-02" style="stop-color:#FA8F21"/>
		<stop  offset="0.78" style="stop-color:#D82D7E"/>
	</radialGradient>
	<path class="st0" d="M5.6,21.9c-1.3-0.1-2-0.3-2.5-0.5c-0.6-0.2-1.1-0.5-1.5-1c-0.5-0.5-0.8-0.9-1-1.5c-0.2-0.5-0.4-1.2-0.5-2.5
		C0,15,0,14.6,0,11s0-4,0.1-5.4c0.1-1.3,0.3-2,0.5-2.5c0.2-0.6,0.5-1.1,1-1.5c0.5-0.5,0.9-0.8,1.5-1c0.5-0.2,1.2-0.4,2.5-0.5
		C7,0,7.4,0,11,0c3.6,0,4,0,5.4,0.1c1.3,0.1,2,0.3,2.5,0.5c0.6,0.2,1.1,0.5,1.5,1s0.8,0.9,1,1.5c0.2,0.5,0.4,1.2,0.5,2.5
		C22,7,22,7.4,22,11c0,3.6,0,4-0.1,5.4c-0.1,1.3-0.3,2-0.5,2.5c-0.2,0.6-0.5,1.1-1,1.5c-0.5,0.5-0.9,0.8-1.5,1
		c-0.5,0.2-1.2,0.4-2.5,0.5C15,22,14.6,22,11,22C7.4,22,7,22,5.6,21.9z"/>
	
		<radialGradient id="SVGID_4_" cx="-909.4326" cy="530.5194" r="1" gradientTransform="matrix(24.5803 0 0 -24.5803 22369.3633 13061.1367)" gradientUnits="userSpaceOnUse">
		<stop  offset="0.64" style="stop-color:#8C3AAA;stop-opacity:0"/>
		<stop  offset="1" style="stop-color:#8C3AAA"/>
	</radialGradient>
	<path class="st1" d="M5.6,21.9c-1.3-0.1-2-0.3-2.5-0.5c-0.6-0.2-1.1-0.5-1.5-1c-0.5-0.5-0.8-0.9-1-1.5c-0.2-0.5-0.4-1.2-0.5-2.5
		C0,15,0,14.6,0,11s0-4,0.1-5.4c0.1-1.3,0.3-2,0.5-2.5c0.2-0.6,0.5-1.1,1-1.5c0.5-0.5,0.9-0.8,1.5-1c0.5-0.2,1.2-0.4,2.5-0.5
		C7,0,7.4,0,11,0c3.6,0,4,0,5.4,0.1c1.3,0.1,2,0.3,2.5,0.5c0.6,0.2,1.1,0.5,1.5,1s0.8,0.9,1,1.5c0.2,0.5,0.4,1.2,0.5,2.5
		C22,7,22,7.4,22,11c0,3.6,0,4-0.1,5.4c-0.1,1.3-0.3,2-0.5,2.5c-0.2,0.6-0.5,1.1-1,1.5c-0.5,0.5-0.9,0.8-1.5,1
		c-0.5,0.2-1.2,0.4-2.5,0.5C15,22,14.6,22,11,22C7.4,22,7,22,5.6,21.9z"/>
	<path class="st2" d="M8.3,11c0-1.5,1.2-2.7,2.7-2.7c1.5,0,2.7,1.2,2.7,2.7c0,1.5-1.2,2.7-2.7,2.7C9.5,13.8,8.3,12.6,8.3,11z
		 M6.8,11c0,2.3,1.9,4.2,4.2,4.2c2.3,0,4.2-1.9,4.2-4.2c0-2.3-1.9-4.2-4.2-4.2C8.7,6.9,6.8,8.7,6.8,11L6.8,11z M14.4,6.7
		c0,0.2,0.1,0.4,0.2,0.5c0.1,0.2,0.3,0.3,0.4,0.4c0.2,0.1,0.4,0.1,0.6,0.1c0.2,0,0.4-0.1,0.5-0.3c0.1-0.1,0.2-0.3,0.3-0.5
		c0-0.2,0-0.4-0.1-0.6c-0.1-0.2-0.2-0.3-0.4-0.4c-0.2-0.1-0.4-0.2-0.5-0.2h0c-0.3,0-0.5,0.1-0.7,0.3C14.5,6.2,14.4,6.4,14.4,6.7z
		 M7.7,17.7c-0.8,0-1.2-0.2-1.5-0.3c-0.4-0.1-0.7-0.3-0.9-0.6c-0.3-0.3-0.5-0.6-0.6-0.9c-0.1-0.3-0.2-0.7-0.3-1.5c0-0.9,0-1.1,0-3.3
		c0-2.2,0-2.4,0-3.3c0-0.8,0.2-1.2,0.3-1.5C4.8,5.8,5,5.6,5.3,5.3C5.5,5,5.8,4.8,6.2,4.7c0.3-0.1,0.7-0.2,1.5-0.3c0.9,0,1.1,0,3.3,0
		c2.2,0,2.4,0,3.3,0c0.8,0,1.2,0.2,1.5,0.3c0.4,0.1,0.7,0.3,0.9,0.6c0.3,0.3,0.5,0.6,0.6,0.9c0.1,0.3,0.2,0.7,0.3,1.5
		c0,0.9,0,1.1,0,3.3c0,2.2,0,2.4,0,3.3c0,0.8-0.2,1.2-0.3,1.5c-0.1,0.4-0.3,0.7-0.6,0.9c-0.3,0.3-0.6,0.5-0.9,0.6
		c-0.3,0.1-0.7,0.2-1.5,0.3c-0.9,0-1.1,0-3.3,0C8.8,17.7,8.6,17.7,7.7,17.7L7.7,17.7z M7.7,2.9c-0.9,0-1.5,0.2-2,0.4
		c-0.5,0.2-1,0.5-1.4,0.9C3.8,4.7,3.5,5.2,3.3,5.7c-0.2,0.5-0.3,1.1-0.4,2c0,0.9,0,1.2,0,3.4c0,2.2,0,2.5,0,3.4c0,0.9,0.2,1.5,0.4,2
		c0.2,0.5,0.5,1,0.9,1.4c0.5,0.5,0.9,0.7,1.4,0.9c0.5,0.2,1.1,0.3,2,0.4c0.9,0,1.2,0,3.4,0c2.2,0,2.5,0,3.4,0c0.9,0,1.5-0.2,2-0.4
		c0.5-0.2,1-0.5,1.4-0.9c0.5-0.5,0.7-0.9,0.9-1.4c0.2-0.5,0.3-1.1,0.4-2c0-0.9,0-1.2,0-3.4c0-2.2,0-2.5,0-3.4c0-0.9-0.2-1.5-0.4-2
		c-0.2-0.5-0.5-1-0.9-1.4c-0.5-0.5-0.9-0.7-1.4-0.9c-0.5-0.2-1.1-0.3-2-0.4c-0.9,0-1.2,0-3.4,0C8.8,2.9,8.5,2.9,7.7,2.9"/>
</g>
</svg>
