<?xml version="1.0" encoding="utf-8"?>
<!-- Generator: Adobe Illustrator 17.0.0, SVG Export Plug-In . SVG Version: 6.00 Build 0)  -->
<!DOCTYPE svg PUBLIC "-//W3C//DTD SVG 1.1//EN" "http://www.w3.org/Graphics/SVG/1.1/DTD/svg11.dtd">
<svg version="1.1" id="Layer_1" xmlns="http://www.w3.org/2000/svg" xmlns:xlink="http://www.w3.org/1999/xlink" x="0px" y="0px"
	 width="36px" height="36px" viewBox="0 0 36 36" enable-background="new 0 0 36 36" xml:space="preserve">
<path fill="none" stroke="#FFFDFC" stroke-width="1.6" stroke-miterlimit="10" d="M0.8,32.165c0,1.676,1.359,3.035,3.035,3.035
	h28.329c1.676,0,3.035-1.359,3.035-3.035V3.835c0-1.676-1.359-3.035-3.035-3.035H3.835C2.159,0.8,0.8,2.159,0.8,3.835V32.165z"/>
<polygon fill="#FFFDFC" stroke="#FFFDFC" stroke-miterlimit="10" points="13.374,13.107 13.374,22.893 22.67,18 "/>
<path fill="none" stroke="#FFFDFC" stroke-width="1.6" stroke-miterlimit="10" d="M42.06,37.366c0,0.764,0.884,1.384,1.974,1.384
	h18.43c1.09,0,1.974-0.62,1.974-1.384V24.447c0-0.764-0.884-1.384-1.974-1.384h-18.43c-1.09,0-1.974,0.62-1.974,1.384V37.366z"/>
<path fill="none" stroke="#FFFDFC" stroke-width="1.5" stroke-miterlimit="10" d="M65.663,7.625c0,4.332,0.017,4.844-3.951,4.844
	H47.576c-3.951,0-3.951-0.512-3.951-4.844v-3c0-0.692,0-3.363,0.016-4.003c0.085-3.362,0.615-3.841,3.935-3.841h14.136
	c3.336,0,3.855,0.483,3.936,3.848c0.015,0.637,0.015,3.306,0.015,3.995V7.625z"/>
</svg>
