<?xml version="1.0" encoding="utf-8"?>
<!-- Generator: Adobe Illustrator 17.0.0, SVG Export Plug-In . SVG Version: 6.00 Build 0)  -->
<!DOCTYPE svg PUBLIC "-//W3C//DTD SVG 1.1//EN" "http://www.w3.org/Graphics/SVG/1.1/DTD/svg11.dtd">
<svg version="1.1" id="Слой_1" xmlns="http://www.w3.org/2000/svg" xmlns:xlink="http://www.w3.org/1999/xlink" x="0px" y="0px"
	 width="612px" height="436.465px" viewBox="0 0 612 436.465" enable-background="new 0 0 612 436.465" xml:space="preserve">
<g>
	<g>
		<g>
			<path opacity="0.2" fill="#C7C7C7" enable-background="new    " d="M184.549,29.306c-7.591,0.949-15.656,2.609-20.637,9.251
				c-5.93,7.828-4.981,19.926-2.372,29.888c2.609,9.963,6.879,19.688,6.879,30.126c0,16.605-11.386,30.837-23.958,38.191
				c-12.809,7.353-27.042,9.726-40.8,14.233c-12.809,4.033-25.144,9.726-36.53,17.079c-9.726,6.167-19.451,13.995-23.247,26.093
				c-6.405,19.688,5.456,40.563,16.842,56.693c35.344,49.577,80.651,97.256,135.684,102c41.274,3.558,82.549-17.553,123.349-9.726
				c18.74,3.558,36.293,13.047,53.846,21.349s36.056,15.656,55.033,14.707c18.977-0.949,38.665-11.86,46.73-31.786
				c4.744-11.86,5.456-25.381,9.726-37.479c13.758-36.767,56.693-42.698,81.363-70.451c13.047-14.47,20.4-34.633,26.805-54.321
				c9.963-32.26,17.554-66.181,15.893-100.34c-0.712-14.944-3.558-30.363-11.623-41.986c-5.93-8.302-14.233-13.995-22.298-19.214
				c-18.502-12.335-38.191-24.907-59.302-23.484c-12.098,0.949-23.721,6.405-35.344,10.674c-22.06,8.302-45.307,12.335-68.316,16.13
				c-37.953,6.642-76.619,13.284-115.047,9.963c-17.079-1.423-32.972-7.353-49.814-9.726
				C226.772,24.325,204.949,26.697,184.549,29.306z"/>
			<path opacity="0.5" fill="#C7C7C7" enable-background="new    " d="M491.498,131.069c13.047,0,23.721-10.674,23.721-23.958
				s-10.674-23.958-23.721-23.958s-23.721,10.674-23.721,23.958S478.451,131.069,491.498,131.069z"/>
			<path fill="#C7C7C7" d="M417.014,191.795h-215.86l12.335-38.665h6.642l1.423,9.963h171.028l0.949-9.963h7.828L417.014,191.795z"
				/>
			<path opacity="0.2" enable-background="new    " d="M417.014,191.795h-215.86l12.335-38.665h6.642l1.423,9.963h171.028
				l0.949-9.963h7.828L417.014,191.795z"/>
			<path fill="#C7C7C7" d="M432.195,200.334H181.702l-6.167-15.893h261.879L432.195,200.334z"/>
			<path fill="#C7C7C7" d="M424.13,210.297H187.87l-6.167-9.963h250.493L424.13,210.297z"/>
			<path fill="#C7C7C7" d="M424.13,207.45H187.87v11.386h236.26V207.45L424.13,207.45z"/>
			<path fill="#C7C7C7" d="M442.633,237.339H173.637v42.698h268.995v-42.698L442.633,237.339L442.633,237.339z"/>
			<path opacity="0.2" enable-background="new    " d="M442.633,237.339H173.637v42.698h268.995v-42.698L442.633,237.339
				L442.633,237.339z"/>
			<path fill="#C7C7C7" d="M612,381.325l-612-4.27l17.553-101.288h581.163L612,381.325z"/>
			<g opacity="0.2">
				<path opacity="0.2" enable-background="new    " d="M173.4,350.013h7.828c2.372,0,4.744,0.949,6.642,2.846
					c1.66,1.66,2.847,4.27,2.847,6.642v18.977h-26.805v-18.976c0-2.609,0.949-4.981,2.846-6.642
					C168.419,350.962,170.791,350.013,173.4,350.013z"/>
				<path opacity="0.2" enable-background="new    " d="M230.567,350.013h7.828c2.372,0,4.744,0.949,6.642,2.846
					c1.66,1.66,2.846,4.27,2.846,6.642v18.977h-26.567v-18.976c0-2.609,0.949-4.981,2.846-6.642
					C225.823,350.962,228.195,350.013,230.567,350.013z"/>
				<path opacity="0.2" enable-background="new    " d="M302.205,350.013h7.828c2.372,0,4.744,0.949,6.642,2.846
					c1.66,1.66,2.846,4.27,2.846,6.642v18.977h-26.567v-18.976c0-2.609,0.949-4.981,2.846-6.642
					C297.223,350.962,299.595,350.013,302.205,350.013z"/>
				<path opacity="0.2" enable-background="new    " d="M376.214,350.013h7.828c2.372,0,4.744,0.949,6.642,2.846
					c1.66,1.66,2.846,4.27,2.846,6.642v18.977h-26.567v-18.976c0-2.609,0.949-4.981,2.847-6.642
					C371.233,350.962,373.605,350.013,376.214,350.013z"/>
				<path opacity="0.2" enable-background="new    " d="M435.279,350.013h7.828c2.372,0,4.744,0.949,6.642,2.846
					c1.66,1.66,2.846,4.27,2.846,6.642v18.977h-26.567v-18.976c0-2.609,0.949-4.981,2.846-6.642
					C430.298,350.962,432.67,350.013,435.279,350.013z"/>
			</g>
			<path opacity="0.2" enable-background="new    " d="M319.995,280.036h-28.228v57.167h28.228V280.036z"/>
			<path fill="#C7C7C7" d="M178.144,237.339h-4.507v42.698h4.507V237.339z"/>
			<path fill="#C7C7C7" d="M203.763,237.339h-4.507v42.698h4.507V237.339z"/>
			<path fill="#C7C7C7" d="M231.991,237.339h-4.507v42.698h4.507V237.339z"/>
			<path fill="#C7C7C7" d="M259.27,237.339h-4.507v42.698h4.507V237.339z"/>
			<path fill="#C7C7C7" d="M289.158,237.339h-4.507v42.698h4.507V237.339z"/>
			<path fill="#C7C7C7" d="M329.721,237.339h-4.507v42.698h4.507V237.339z"/>
			<path fill="#C7C7C7" d="M357.237,237.339h-4.507v42.698h4.507V237.339z"/>
			<path fill="#C7C7C7" d="M388.074,237.339h-4.507v42.698h4.507V237.339z"/>
			<path fill="#C7C7C7" d="M414.405,237.339h-4.507v42.698h4.507V237.339z"/>
			<path fill="#C7C7C7" d="M442.633,237.339h-4.507v42.698h4.507V237.339z"/>
			<path fill="#C7C7C7" d="M442.633,240.185H173.637l-15.893-14.233h299.833L442.633,240.185z"/>
			<path fill="#C7C7C7" d="M184.312,240.185h-10.674v5.693h10.674V240.185z"/>
			<path fill="#C7C7C7" d="M207.321,240.185h-10.674v5.693h10.674V240.185z"/>
			<path fill="#C7C7C7" d="M234.6,240.185h-10.674v5.693H234.6V240.185z"/>
			<path fill="#C7C7C7" d="M262.828,240.185h-10.674v5.693h10.674V240.185z"/>
			<path fill="#C7C7C7" d="M292.716,240.185h-10.437v5.693h10.674v-5.693H292.716z"/>
			<path fill="#C7C7C7" d="M332.567,240.185h-10.674v5.693h10.674V240.185z"/>
			<path fill="#C7C7C7" d="M360.558,240.185h-10.674v5.693h10.674V240.185z"/>
			<path fill="#C7C7C7" d="M391.633,240.185h-10.674v5.693h10.674V240.185z"/>
			<path fill="#C7C7C7" d="M417.963,240.185h-10.674v5.693h10.674V240.185z"/>
			<path fill="#C7C7C7" d="M442.633,240.185h-10.674v5.693h10.674V240.185z"/>
			<path fill="#C7C7C7" d="M459.474,225.953H157.033l-3.558-9.963h308.609L459.474,225.953z"/>
			<path opacity="0.2" enable-background="new    " d="M459.474,225.953H157.033l-3.558-9.963h308.609L459.474,225.953z"/>
			<path fill="#C7C7C7" d="M306,223.106c3.795,0,7.116-5.219,7.116-11.386s-3.084-11.386-7.116-11.386
				c-4.033,0-7.116,5.219-7.116,11.386S302.205,223.106,306,223.106z"/>
			<path opacity="0.2" enable-background="new    " d="M306,223.106c3.795,0,7.116-5.219,7.116-11.386s-3.084-11.386-7.116-11.386
				c-4.033,0-7.116,5.219-7.116,11.386S302.205,223.106,306,223.106z"/>
			<path fill="#C7C7C7" d="M306,218.836c2.372,0,4.507-3.084,4.507-7.116c0-4.033-1.898-7.116-4.507-7.116
				c-2.372,0-4.507,3.084-4.507,7.116C301.493,215.516,303.628,218.836,306,218.836z"/>
			
				<linearGradient id="SVGID_1_" gradientUnits="userSpaceOnUse" x1="119.3581" y1="896.3651" x2="119.3581" y2="781.4161" gradientTransform="matrix(2.3721 0 0 2.3721 23.0817 -1689.8219)">
				<stop  offset="0" style="stop-color:#808080;stop-opacity:0.25"/>
				<stop  offset="0.54" style="stop-color:#808080;stop-opacity:0.12"/>
				<stop  offset="1" style="stop-color:#808080;stop-opacity:0.1"/>
			</linearGradient>
			<path fill="url(#SVGID_1_)" d="M409.186,376.343l-30.363-23.484c0,0-2.372-9.726-3.321-16.605
				c-0.949-6.879-2.372-36.293-2.372-36.293c0.712-2.609,1.186-5.219,1.423-7.828c0.237,0,0.712-0.237,0.949-0.237
				c2.372-0.474,4.27-1.66,6.167-3.321c1.66-1.66,3.084-3.558,4.033-5.693c3.084-7.828-0.949-17.079-5.93-23.247
				c-4.981-6.168-11.386-11.149-14.707-18.977c-4.033-9.488-2.609-20.874-4.744-31.312c-0.237-1.423-0.712-2.846-1.66-4.033
				c-1.423-1.66-3.321-1.898-5.219-2.609c-5.693-2.135-10.2-7.828-13.521-13.758c-5.456-9.488-11.149-24.195-22.298-25.144
				c-4.27-0.237-8.54,1.186-12.809,1.186c-6.642,0-13.047,0-19.451,0.949c-2.372,0.237-4.744,0.712-6.642,2.372
				c-6.642,5.219-3.558,19.451-9.963,25.144c-1.898,1.66-4.27,2.372-6.405,3.558c-8.065,4.507-11.623,16.13-11.149,26.805
				c0.237,4.981,1.186,10.2,4.033,13.758c2.372,2.846,5.456,4.507,7.591,7.591c3.558,4.981,3.084,11.386,2.609,18.028
				c-4.507,1.898-8.302,4.27-9.488,6.642c-3.795,8.065-3.321,35.819-3.321,35.819s1.423,45.307-9.726,51l-41.986,29.414
				c0,0-29.651-26.33-37.005-10.674c-4.981,10.674,13.284,16.605,25.381,19.214c-7.591,5.456-11.86,15.656-8.302,22.298
				c5.693,10.674,21.112,18.028,21.112,18.028s59.54,2.846,87.056-3.321h0.474c11.623,2.135,28.465,4.507,41.986,3.084
				c0.237,0.712,0.474,0.949,0.474,0.949s86.344,7.354,102-22.535c8.065-15.419-0.237-22.535-10.437-25.619
				c11.149-0.949,23.958-4.033,25.619-13.758C451.409,356.181,409.186,376.343,409.186,376.343z M400.646,385.595
				c-15.893,5.93-28.702,6.167-35.344,5.693c-3.321-7.353-17.316-39.614-17.791-60.963c0-4.744,0.949-9.014,2.846-12.098
				c4.033-6.879,5.219-12.098,5.219-16.13c0-0.237,0-0.474,0-0.949c0-1.186,0-2.372-0.237-3.795c0.712,1.66,0.949,3.558,0.474,5.219
				c-1.423,7.591,2.372,56.93,2.372,56.93s3.084,11.149,9.726,14.233L400.646,385.595z M245.749,382.036l15.181-9.726
				c0,0,7.116-3.321,7.828-11.86l4.981-39.851c0.237,1.66,0.712,3.321,1.423,4.981c0.949,2.609,1.186,6.405,1.423,10.912
				c-0.237,22.298-7.591,59.065-7.591,59.065l0,0v0.237h-0.474c-12.335-0.474-40.8-1.423-56.93-3.795L245.749,382.036z
				 M219.419,405.283L219.419,405.283h-3.795H219.419z"/>
			<path fill="#393944" d="M338.735,192.981c3.321,5.693,7.353,11.386,13.047,13.284c1.66,0.712,3.795,0.949,4.981,2.609
				c0.712,1.186,1.423,2.609,1.423,4.033c2.135,10.2,0.712,21.349,4.744,30.6c3.321,7.591,9.488,12.335,14.233,18.502
				c4.981,5.93,8.777,15.181,5.693,22.772c-0.949,2.135-2.135,4.033-3.795,5.456c-1.66,1.423-3.795,2.609-5.93,3.084
				c-4.033,1.186-8.302,0.712-12.572,0c-5.456-0.949-11.149-2.609-15.656-6.405c-7.828-6.642-11.386-18.265-15.419-28.702
				c-1.898-4.981-4.507-9.963-8.777-11.86c-4.981-1.898-10.437,1.423-13.521,6.167c-3.084,4.981-4.507,11.149-6.167,17.079
				c-1.66,6.642-4.033,13.758-8.54,18.028c-1.898,1.898-4.507,3.321-7.116,3.795s-5.456,0.237-8.065-0.712
				c-4.981-2.135-9.014-7.591-10.2-13.995c-1.898-9.726,2.609-21.349-2.846-29.177c-2.135-3.084-5.219-4.507-7.353-7.353
				c-2.846-3.558-3.795-8.54-4.033-13.284c-0.474-10.2,3.084-21.823,10.912-26.093c2.135-1.186,4.507-1.66,6.405-3.321
				c6.167-5.693,3.321-19.451,9.726-24.67c1.898-1.423,4.27-1.898,6.405-2.372c6.405-0.949,12.572-0.949,18.977-0.949
				c4.033,0,8.302-1.423,12.335-1.186C327.823,169.26,333.279,183.492,338.735,192.981z"/>
			<path fill="#575988" d="M222.028,401.488l2.372,28.465l166.521-0.949l-3.084-31.312l-56.219-6.642l-98.679,5.93L222.028,401.488z
				"/>
			<path fill="#373742" d="M222.028,401.488l2.372,28.465l166.521-0.949l-3.084-31.312l-56.219-6.642l-98.679,5.93L222.028,401.488z
				"/>
			<path fill="#FECEB8" d="M331.619,421.413l-55.507,5.219c0,0,37.953,9.726,60.014,4.981L331.619,421.413z"/>
			<path opacity="0.1" enable-background="new    " d="M330.314,421.434l-55.507,5.219c0,0,37.953,9.726,60.014,4.981
				L330.314,421.434z"/>
			<path fill="#FECEB8" d="M289.395,220.26c0,0,10.912,28.94-5.219,41.749c-16.13,12.809-2.847,49.102-2.847,49.102l61.674-2.846
				c0,0,6.167-40.563,2.846-49.34c0,0-14.707,4.27-18.028-4.744c-3.321-9.014-5.693-33.921-5.693-33.921L289.395,220.26
				L289.395,220.26z"/>
			<path fill="#454554" d="M275.163,395.083c0,0-52.186-1.186-67.367-4.981c-15.419-3.795-28.465,14.47-23.009,25.144
				c5.456,10.437,20.4,17.791,20.4,17.791s77.567,3.795,94.409-6.879c0,0,6.405-18.502,0-22.06l-72.112-0.179l50.526-1.007
				L275.163,395.083z"/>
			<path fill="#454554" d="M357.949,389.627c0,0,17.553,3.795,41.512-5.693c0,0,45.07-1.423,29.888,27.753
				c-15.181,29.177-98.442,22.06-98.442,22.06s-4.981-10.674,0-13.521c4.981-2.846,48.153-21.349,61.437-20.4l-37.242,7.354
				L357.949,389.627z"/>
			<path opacity="0.1" enable-background="new    " d="M324.502,234.018c-0.949-6.879-1.423-12.335-1.423-12.335h-32.972
				c1.423,4.27,2.609,9.014,3.084,13.521c4.744,3.321,10.2,4.981,15.893,4.744C314.54,239.711,319.995,237.813,324.502,234.018z"/>
			<path fill="#FECEB8" d="M307.423,238.525c14.233,0,25.856-11.86,25.856-26.33s-11.623-26.33-25.856-26.33
				s-25.856,11.86-25.856,26.33C281.33,226.664,292.953,238.525,307.423,238.525z"/>
			<path fill="#FECEB8" d="M292.242,257.976c0,0-31.074,5.93-34.87,13.758c-3.795,7.828-3.321,34.87-3.321,34.87
				s1.423,44.121-9.488,49.814L204,385.12c0,0-28.702-25.619-35.819-10.437c-7.116,14.944,33.921,20.637,33.921,20.637
				l45.781-13.758l14.707-9.488c0,0,6.879-3.321,7.591-11.386l6.167-49.34l24.433-7.116h39.614l5.219-15.419
				c0,0,9.726,8.065,8.302,15.419c-1.423,7.354,2.372,55.507,2.372,55.507s3.084,10.674,9.488,13.758l36.767,13.521
				c0,0,38.902,3.795,41.512-13.284c2.609-17.316-38.191,2.372-38.191,2.372l-29.177-23.009c0,0-2.372-9.488-3.321-16.367
				c-0.949-6.642-2.372-35.344-2.372-35.344s9.014-30.126-17.079-35.344l-33.447-10.437L292.242,257.976z"/>
			<path opacity="0.1" enable-background="new    " d="M271.367,263.906l4.744,32.498c0,0-4.981,14.944,0,29.888
				c4.981,14.707-6.167,69.977-6.167,69.977s58.354,18.977,93.935-2.846c0,0-26.093-55.981-15.181-74.484
				c11.149-18.74,0.237-25.856,0.237-25.856l1.66-34.158l-8.065-2.372l-4.744,33.921c0,0-32.498,23.009-56.693,2.847l-5.219-36.767
				L271.367,263.906z"/>
			<path opacity="0.07" fill="#FFFFFF" enable-background="new    " d="M304.814,302.571c-2.609-4.033-6.405-7.116-10.912-8.302
				c-4.507-1.186-9.488-0.949-13.758,1.423C287.972,301.385,296.749,303.046,304.814,302.571z"/>
			<path opacity="0.07" fill="#FFFFFF" enable-background="new    " d="M318.335,299.013c2.609-4.033,6.405-7.116,10.912-8.302
				c4.507-1.423,9.488-0.949,13.758,1.423C335.177,297.827,326.4,299.488,318.335,299.013z"/>
			<path opacity="0.1" enable-background="new    " d="M271.367,263.906l4.744,30.6c0,0-4.981,14.944,0,29.888
				c4.981,14.707-6.167,69.977-6.167,69.977s58.354,18.977,93.935-2.846c0,0-26.093-55.981-15.181-74.484
				c11.149-18.74,0.237-25.856,0.237-25.856l1.66-34.395l-8.065-2.372l-4.744,33.921c0,0-32.498,23.009-56.693,2.847l-5.219-36.767
				L271.367,263.906z"/>
			<path fill="#FF825C" fill-opacity="0.97" d="M271.13,263.669l4.981,31.549c0,0-4.981,14.944,0,29.888
				c4.981,14.707-6.167,69.977-6.167,69.977s58.354,18.977,93.935-2.847c0,0-26.093-55.981-15.181-74.484
				c11.149-18.74,0.237-25.856,0.237-25.856l1.66-34.395l-8.065-2.372l-4.744,33.921c0,0-32.498,23.009-56.693,2.846l-5.219-36.767
				L271.13,263.669z"/>
			<path fill="#FECEB8" d="M294.851,406.943l12.335-1.66c0,0,14.233-18.502,24.195-4.27c0,0,4.27,9.014,9.488,10.674
				c3.558,1.186,7.116,1.898,10.912,2.372l-20.874,5.93c0,0-9.251,5.456-18.977,4.033c-5.693-0.949-11.623-0.474-17.079,1.423
				V406.943z"/>
			<path opacity="0.1" enable-background="new    " d="M281.33,328.902c0,0,22.06,3.321,25.856-2.609L281.33,328.902z"/>
			<path opacity="0.1" enable-background="new    " d="M323.316,324.869c0,0,4.27,4.27,21.112,1.186L323.316,324.869z"/>
			<path opacity="0.1" enable-background="new    " d="M280.144,258.213c0,0,16.367,2.372,19.451,0.949L280.144,258.213z"/>
			<path opacity="0.1" enable-background="new    " d="M315.963,258.213c0,0,16.367,2.372,19.451,0.949L315.963,258.213z"/>
			<path opacity="0.1" enable-background="new    " d="M296.749,405.046c0,0,4.507,21.349,0,22.06
				c-4.507,0.712-10.912-3.558-10.912-4.033c0-0.474,2.847-13.995,2.847-13.995L296.749,405.046z"/>
			<path fill="#393944" d="M296.274,405.046c0,0,4.507,21.349,0,22.06c-4.507,0.712-10.912-3.558-10.912-4.033
				c0-0.474,2.846-13.995,2.846-13.995L296.274,405.046z"/>
			<path opacity="0.1" enable-background="new    " d="M274.451,255.129c-1.898,4.744-2.609,10.2-0.474,14.707
				c1.66,3.558,4.744,6.405,5.219,10.2c0.712,4.744-2.847,9.726-1.423,14.233c0.474,1.898,1.66,3.321,2.846,4.744
				c3.558,4.27,8.302,8.54,13.995,8.065c0.949-8.777-6.642-17.079-4.033-25.381c0.949-3.084,2.846-5.456,4.033-8.302
				c2.135-4.744,1.66-10.2,0.949-15.181c-1.186-7.353-3.795-16.605-11.149-19.926c-3.321-1.66-8.065-1.66-9.251,2.609
				c-0.712,2.372,0.949,4.507,1.186,6.879C276.586,250.385,275.4,252.52,274.451,255.129z"/>
			<path fill="#393944" d="M274.451,254.418c-1.898,4.744-2.609,10.2-0.474,14.707c1.66,3.558,4.744,6.405,5.219,10.2
				c0.712,4.744-2.847,9.726-1.423,14.233c0.474,1.898,1.66,3.321,2.846,4.744c3.558,4.27,8.302,8.54,13.995,8.065
				c0.949-8.777-6.642-17.079-4.033-25.381c0.949-3.084,2.846-5.456,4.033-8.302c2.135-4.744,1.66-10.2,0.949-15.181
				c-1.186-7.353-3.795-16.605-11.149-19.926c-3.321-1.66-8.065-1.66-9.251,2.609c-0.712,2.372,0.949,4.507,1.186,6.879
				C276.586,249.674,275.4,251.809,274.451,254.418z"/>
			<path opacity="0.1" enable-background="new    " d="M276.112,199.148c0,0,34.395-4.744,35.344,2.372s31.312,18.977,31.312,18.977
				l-7.591-18.977l-13.995-23.484c0,0-25.381-1.898-26.567,0c-1.186,1.898-14.707,8.065-14.707,8.065L276.112,199.148z"/>
			<path fill="#393944" d="M276.112,198.674c0,0,34.395-4.744,35.344,2.372s31.312,18.977,31.312,18.977l-7.591-18.977
				l-13.996-23.484c0,0-25.381-1.898-26.567,0c-1.186,1.898-14.707,8.065-14.707,8.065L276.112,198.674z"/>
			<path opacity="0.1" enable-background="new    " d="M336.126,249.911c1.66,2.135,2.846,4.507,3.558,7.116
				c0.474,2.372,0.474,4.981,1.186,7.591c1.186,5.219,4.507,9.726,8.065,13.758c1.186,1.423,2.609,2.609,4.27,3.558
				c1.66,0.712,3.795,0.949,5.219,0c-1.423-1.186-2.135-3.084-2.846-4.744c-0.712-2.609-0.949-5.219-0.949-7.828
				c0.237-4.507,1.423-9.014-0.474-13.047c-0.949-2.372-3.084-4.033-4.981-5.693c-1.423-1.186-2.847-2.135-4.507-2.847
				c-2.846-1.423-6.405-2.135-9.488-2.372C331.144,244.218,334.702,248.25,336.126,249.911z"/>
			<path fill="#393944" d="M336.126,249.199c1.66,2.135,2.846,4.507,3.558,7.116c0.474,2.372,0.474,4.981,1.186,7.591
				c1.186,5.219,4.507,9.726,8.065,13.758c1.186,1.423,2.609,2.609,4.27,3.558c1.66,0.712,3.795,0.949,5.219,0
				c-1.423-1.186-2.135-3.084-2.846-4.744c-0.712-2.609-0.949-5.219-0.949-7.828c0.237-4.507,1.423-9.014-0.474-13.047
				c-0.949-2.372-3.084-4.033-4.981-5.693c-1.423-1.186-2.847-2.135-4.507-2.846c-2.846-1.423-6.405-2.135-9.488-2.372
				C331.144,243.506,334.702,247.539,336.126,249.199z"/>
			<path opacity="0.1" fill="#252223" enable-background="new    " d="M320.707,104.264h-4.27c0.474,0,0.712,0,1.186-0.237
				s0.712-0.474,0.949-0.712c0.237-0.237,0.474-0.712,0.712-0.949c0.237-0.474,0.237-0.712,0.237-1.186s0-0.712-0.237-1.186
				s-0.474-0.712-0.712-0.949s-0.712-0.474-0.949-0.712c-0.474-0.237-0.712-0.237-1.186-0.237h-34.633
				c-0.712,0-1.423,0.474-2.135,0.949c-0.474,0.474-0.712,1.423-0.712,2.135s0.237,1.423,0.712,2.135
				c0.474,0.474,1.186,0.949,2.135,0.949h4.27c-0.474,0-0.712,0-1.186,0.237s-0.712,0.474-0.949,0.712
				c-0.237,0.237-0.474,0.712-0.712,0.949c-0.237,0.474-0.237,0.712-0.237,1.186s0,0.712,0.237,1.186s0.474,0.712,0.712,0.949
				s0.712,0.474,0.949,0.712c0.474,0.237,0.712,0.237,1.186,0.237h-5.93c-0.474,0-0.712,0-1.186,0.237s-0.712,0.474-0.949,0.712
				c-0.237,0.237-0.474,0.712-0.712,0.949c-0.237,0.474-0.237,0.712-0.237,1.186s0,0.712,0.237,1.186s0.474,0.712,0.712,0.949
				s0.712,0.474,0.949,0.712c0.474,0.237,0.712,0.237,1.186,0.237h34.633c0.474,0,0.712,0,1.186-0.237s0.712-0.474,0.949-0.712
				s0.474-0.712,0.712-0.949c0.237-0.474,0.237-0.712,0.237-1.186s0-0.712-0.237-1.186s-0.474-0.712-0.712-0.949
				c-0.237-0.237-0.712-0.474-0.949-0.712c-0.474-0.237-0.712-0.237-1.186-0.237h5.93c0.474,0,0.712,0,1.186-0.237
				s0.712-0.474,0.949-0.712c0.237-0.237,0.474-0.712,0.712-0.949c0.237-0.474,0.237-0.712,0.237-1.186s0-0.712-0.237-1.186
				s-0.474-0.712-0.712-0.949c-0.237-0.237-0.712-0.474-0.949-0.712C321.419,104.264,321.181,104.264,320.707,104.264z"/>
			<path opacity="0.1" fill="#252223" enable-background="new    " d="M488.414,104.264h-4.27c0.474,0,0.712,0,1.186-0.237
				s0.712-0.474,0.949-0.712c0.237-0.237,0.474-0.712,0.712-0.949c0.237-0.474,0.237-0.712,0.237-1.186s0-0.712-0.237-1.186
				s-0.474-0.712-0.712-0.949s-0.712-0.474-0.949-0.712c-0.474-0.237-0.712-0.237-1.186-0.237h-34.633
				c-0.712,0-1.423,0.474-2.135,0.949c-0.474,0.474-0.712,1.423-0.712,2.135s0.237,1.423,0.712,2.135
				c0.474,0.474,1.186,0.949,2.135,0.949h4.27c-0.474,0-0.712,0-1.186,0.237s-0.712,0.474-0.949,0.712
				c-0.237,0.237-0.474,0.712-0.712,0.949c-0.237,0.474-0.237,0.712-0.237,1.186s0,0.712,0.237,1.186s0.474,0.712,0.712,0.949
				s0.712,0.474,0.949,0.712c0.474,0.237,0.712,0.237,1.186,0.237h-5.93c-0.474,0-0.712,0-1.186,0.237s-0.712,0.474-0.949,0.712
				s-0.474,0.712-0.712,0.949c-0.237,0.474-0.237,0.712-0.237,1.186s0,0.712,0.237,1.186s0.474,0.712,0.712,0.949
				c0.237,0.237,0.712,0.474,0.949,0.712c0.237,0.237,0.712,0.237,1.186,0.237h34.633c0.474,0,0.712,0,1.186-0.237
				s0.712-0.474,0.949-0.712s0.474-0.712,0.712-0.949c0.237-0.474,0.237-0.712,0.237-1.186s0-0.712-0.237-1.186
				s-0.474-0.712-0.712-0.949s-0.712-0.474-0.949-0.712c-0.474-0.237-0.712-0.237-1.186-0.237h5.93c0.474,0,0.712,0,1.186-0.237
				s0.712-0.474,0.949-0.712c0.237-0.237,0.474-0.712,0.712-0.949c0.237-0.474,0.237-0.712,0.237-1.186s0-0.712-0.237-1.186
				s-0.474-0.712-0.712-0.949c-0.237-0.237-0.712-0.474-0.949-0.712C489.363,104.264,488.888,104.264,488.414,104.264z"/>
			<path opacity="0.1" fill="#252223" enable-background="new    " d="M131.177,181.832h-4.27c0.474,0,0.712,0,1.186-0.237
				s0.712-0.474,0.949-0.712c0.237-0.237,0.474-0.712,0.712-0.949c0.237-0.474,0.237-0.712,0.237-1.186s0-0.712-0.237-1.186
				s-0.474-0.712-0.712-0.949c-0.237-0.237-0.712-0.474-0.949-0.712c-0.237-0.237-0.712-0.237-1.186-0.237H92.274
				c-0.712,0-1.423,0.474-2.135,0.949c-0.474,0.474-0.712,1.423-0.712,2.135s0.237,1.423,0.712,2.135
				c0.474,0.474,1.186,0.949,2.135,0.949h4.27c-0.712,0-1.423,0.474-2.135,0.949c-0.474,0.474-0.712,1.423-0.712,2.135
				s0.237,1.423,0.712,2.135c0.474,0.474,1.186,0.949,2.135,0.949h-5.93c-0.474,0-0.712,0-1.186,0.237s-0.712,0.474-0.949,0.712
				c-0.237,0.237-0.712,0.474-0.712,0.712c-0.237,0.474-0.237,0.712-0.237,1.186s0,0.712,0.237,1.186s0.474,0.712,0.712,0.949
				c0.237,0.237,0.712,0.474,0.949,0.712c0.474,0.237,0.712,0.237,1.186,0.237h34.633c0.474,0,0.712,0,1.186-0.237
				s0.712-0.474,0.949-0.712c0.237-0.237,0.474-0.712,0.712-0.949c0.237-0.474,0.237-0.712,0.237-1.186s0-0.712-0.237-1.186
				s-0.474-0.712-0.712-0.949c-0.237-0.237-0.712-0.474-0.949-0.712c-0.474-0.237-0.712-0.237-1.186-0.237h5.93
				c0.712,0,1.423-0.474,2.135-0.949c0.474-0.474,0.712-1.423,0.712-2.135s-0.237-1.423-0.712-2.135
				C132.6,182.069,131.888,181.832,131.177,181.832z"/>
			<path fill="none" stroke="#454554" stroke-width="2" stroke-miterlimit="10" d="M490.074,425.446c0,0-15.419-52.66,2.846-91.563
				c7.591-16.367,10.2-34.633,6.642-52.186c-1.66-8.302-4.033-16.605-7.354-24.67"/>
			<path fill="#C7C7C7" d="M503.595,232.357c0,6.405-11.623,25.144-11.623,25.144s-11.623-18.74-11.623-25.144
				c0-1.66,0.237-3.084,0.712-4.507c0.474-1.423,1.423-2.846,2.372-3.795c1.186-1.186,2.372-1.898,3.795-2.609
				c1.423-0.712,2.846-0.949,4.507-0.949c1.423,0,3.084,0.237,4.507,0.949c1.423,0.712,2.609,1.423,3.795,2.609
				s1.898,2.372,2.372,3.795C503.358,229.274,503.595,230.934,503.595,232.357L503.595,232.357z"/>
			<path fill="#C7C7C7" d="M522.572,268.176c-3.558,5.456-23.247,14.707-23.247,14.707s0.474-22.06,3.795-27.516
				c1.66-2.609,4.27-4.27,7.353-4.981c2.846-0.712,5.93,0,8.54,1.66s4.27,4.27,4.981,7.116
				C524.707,262.483,524.233,265.567,522.572,268.176L522.572,268.176z"/>
			<path fill="#C7C7C7" d="M521.86,329.376c-5.693,2.846-27.516,0.949-27.516,0.949s11.386-18.977,17.079-21.823
				c1.423-0.712,2.846-1.186,4.27-1.423c1.423-0.237,3.084,0,4.507,0.474c1.423,0.474,2.846,1.186,4.033,2.135
				c1.186,0.949,2.135,2.135,2.847,3.558c0.712,1.423,1.186,2.847,1.186,4.507c0,1.66,0,3.084-0.474,4.507s-1.186,2.846-2.372,4.033
				C524.47,327.715,523.284,328.664,521.86,329.376L521.86,329.376z"/>
			<path fill="#C7C7C7" d="M510.949,375.632c-5.219,3.795-26.805,5.693-26.805,5.693s8.065-20.637,13.047-24.433
				c1.186-0.949,2.609-1.66,4.033-1.898c1.423-0.474,3.084-0.474,4.507-0.237c1.423,0.237,2.847,0.712,4.27,1.423
				c1.423,0.712,2.372,1.898,3.321,3.084c0.949,1.186,1.66,2.609,1.898,4.27c0.474,1.423,0.474,3.084,0.237,4.507
				s-0.712,3.084-1.66,4.27C513.321,373.497,512.135,374.683,510.949,375.632z"/>
			<path fill="#C7C7C7" d="M475.13,284.306c4.507,4.507,25.856,9.251,25.856,9.251s-5.219-21.349-9.726-25.856
				c-2.135-2.135-5.219-3.084-8.065-3.084c-3.084,0-5.93,1.423-8.065,3.558s-3.321,5.219-3.321,8.302
				C472.047,279.088,473.233,282.171,475.13,284.306L475.13,284.306z"/>
			<path fill="#C7C7C7" d="M463.033,338.39c5.693,2.846,27.516,0.949,27.516,0.949s-11.386-18.977-17.079-21.823
				c-1.423-0.712-2.846-1.186-4.27-1.423c-1.423-0.237-3.084,0-4.507,0.474c-1.423,0.474-2.846,1.186-4.033,2.135
				c-1.186,0.949-2.135,2.135-2.847,3.558c-0.712,1.423-1.186,2.846-1.186,4.507s0,3.084,0.474,4.507
				c0.474,1.423,1.186,2.846,2.372,4.033C460.423,336.729,461.846,337.678,463.033,338.39L463.033,338.39z"/>
			<path fill="#C7C7C7" d="M458.526,392.711c5.219,3.795,26.805,5.693,26.805,5.693s-8.065-20.637-13.047-24.433
				c-1.186-0.949-2.609-1.66-4.033-1.898c-1.423-0.474-3.084-0.474-4.507-0.237c-1.423,0.237-2.846,0.712-4.27,1.423
				c-1.423,0.712-2.372,1.898-3.321,3.084c-0.949,1.186-1.66,2.609-1.898,4.27c-0.474,1.423-0.474,3.084-0.237,4.507
				c0.237,1.423,0.712,3.084,1.66,4.27C456.153,390.576,457.34,391.762,458.526,392.711L458.526,392.711z"/>
			<path fill="#FF825C" d="M503.595,232.357c0,6.405-11.623,25.144-11.623,25.144s-11.623-18.74-11.623-25.144
				c0-1.66,0.237-3.084,0.712-4.507c0.474-1.423,1.423-2.846,2.372-3.795c1.186-1.186,2.372-1.898,3.795-2.609
				c1.423-0.712,2.846-0.949,4.507-0.949c1.423,0,3.084,0.237,4.507,0.949c1.423,0.712,2.609,1.423,3.795,2.609
				s1.898,2.372,2.372,3.795C503.358,229.274,503.595,230.934,503.595,232.357L503.595,232.357z"/>
			<path fill="#FF825C" d="M522.572,268.176c-3.558,5.456-23.247,14.707-23.247,14.707s0.474-22.06,3.795-27.516
				c1.66-2.609,4.27-4.27,7.353-4.981c2.846-0.712,5.93,0,8.54,1.66s4.27,4.27,4.981,7.116
				C524.707,262.483,524.233,265.567,522.572,268.176L522.572,268.176z"/>
			<path fill="#FF825C" d="M521.86,329.376c-5.693,2.846-27.516,0.949-27.516,0.949s11.386-18.977,17.079-21.823
				c1.423-0.712,2.846-1.186,4.27-1.423c1.423-0.237,3.084,0,4.507,0.474c1.423,0.474,2.846,1.186,4.033,2.135
				c1.186,0.949,2.135,2.135,2.847,3.558c0.712,1.423,1.186,2.847,1.186,4.507c0,1.66,0,3.084-0.474,4.507s-1.186,2.846-2.372,4.033
				C524.47,327.715,523.284,328.664,521.86,329.376L521.86,329.376z"/>
			<path fill="#FF825C" d="M510.949,375.632c-5.219,3.795-26.805,5.693-26.805,5.693s8.065-20.637,13.047-24.433
				c1.186-0.949,2.609-1.66,4.033-1.898c1.423-0.474,3.084-0.474,4.507-0.237c1.423,0.237,2.847,0.712,4.27,1.423
				c1.423,0.712,2.372,1.898,3.321,3.084c0.949,1.186,1.66,2.609,1.898,4.27c0.474,1.423,0.474,3.084,0.237,4.507
				s-0.712,3.084-1.66,4.27C513.321,373.497,512.135,374.683,510.949,375.632z"/>
			<path fill="#FF825C" d="M475.13,284.306c4.507,4.507,25.856,9.251,25.856,9.251s-5.219-21.349-9.726-25.856
				c-2.135-2.135-5.219-3.084-8.065-3.084c-3.084,0-5.93,1.423-8.065,3.558s-3.321,5.219-3.321,8.302
				C472.047,279.088,473.233,282.171,475.13,284.306L475.13,284.306z"/>
			<path fill="#FF825C" d="M463.033,338.39c5.693,2.846,27.516,0.949,27.516,0.949s-11.386-18.977-17.079-21.823
				c-1.423-0.712-2.846-1.186-4.27-1.423c-1.423-0.237-3.084,0-4.507,0.474c-1.423,0.474-2.846,1.186-4.033,2.135
				c-1.186,0.949-2.135,2.135-2.847,3.558c-0.712,1.423-1.186,2.846-1.186,4.507s0,3.084,0.474,4.507
				c0.474,1.423,1.186,2.846,2.372,4.033C460.423,336.729,461.846,337.678,463.033,338.39L463.033,338.39z"/>
			<path fill="#FF825C" d="M458.526,392.711c5.219,3.795,26.805,5.693,26.805,5.693s-8.065-20.637-13.047-24.433
				c-1.186-0.949-2.609-1.66-4.033-1.898c-1.423-0.474-3.084-0.474-4.507-0.237c-1.423,0.237-2.846,0.712-4.27,1.423
				c-1.423,0.712-2.372,1.898-3.321,3.084c-0.949,1.186-1.66,2.609-1.898,4.27c-0.474,1.423-0.474,3.084-0.237,4.507
				c0.237,1.423,0.712,3.084,1.66,4.27C456.153,390.576,457.34,391.762,458.526,392.711L458.526,392.711z"/>
			<path fill="none" stroke="#454554" stroke-width="2" stroke-miterlimit="10" d="M128.33,424.022c0,0-15.419-52.66,2.847-91.563
				c7.591-16.367,10.2-34.633,6.642-52.186c-1.66-8.302-4.033-16.605-7.353-24.67"/>
			<path fill="#C7C7C7" d="M142.088,231.171c0,6.405-11.623,25.144-11.623,25.144s-11.623-18.74-11.623-25.144
				c0-1.66,0.237-3.084,0.712-4.507c0.474-1.423,1.423-2.846,2.372-3.795c1.186-1.186,2.372-1.898,3.795-2.609
				c1.423-0.712,2.847-0.949,4.507-0.949c1.423,0,3.084,0.237,4.507,0.949s2.609,1.423,3.795,2.609s1.898,2.372,2.372,3.795
				C141.614,228.088,142.088,229.511,142.088,231.171L142.088,231.171z"/>
			<path fill="#C7C7C7" d="M161.065,266.99c-3.558,5.456-23.247,14.707-23.247,14.707s0.474-22.06,3.795-27.516
				c1.66-2.609,4.27-4.27,7.353-4.981c2.847-0.712,5.93,0,8.54,1.66s4.27,4.27,4.981,7.353
				C163.2,261.297,162.726,264.381,161.065,266.99L161.065,266.99z"/>
			<path fill="#C7C7C7" d="M160.353,328.19c-5.693,2.846-27.516,0.949-27.516,0.949s11.386-18.977,17.079-21.823
				c2.609-1.423,5.93-1.423,8.777-0.474c2.846,0.949,5.219,3.084,6.642,5.693c1.423,2.846,1.66,5.93,0.712,8.777
				C164.86,324.395,162.963,326.767,160.353,328.19L160.353,328.19z"/>
			<path fill="#C7C7C7" d="M149.442,374.446c-5.219,3.795-26.805,5.693-26.805,5.693s8.065-20.637,13.047-24.433
				c1.186-0.949,2.609-1.66,4.033-1.898c1.423-0.474,3.084-0.474,4.507-0.237s2.847,0.712,4.27,1.423
				c1.423,0.712,2.372,1.898,3.321,3.084c0.949,1.186,1.66,2.609,1.898,4.27c0.474,1.423,0.474,3.084,0.237,4.507
				s-0.712,3.084-1.66,4.27C151.577,372.311,150.628,373.497,149.442,374.446z"/>
			<path fill="#C7C7C7" d="M113.623,283.12c4.507,4.507,25.856,9.251,25.856,9.251s-5.219-21.349-9.726-25.856
				c-2.135-2.135-5.219-3.084-8.065-3.084c-3.084,0-5.93,1.423-8.065,3.558s-3.321,5.219-3.321,8.302
				C110.302,277.902,111.488,280.748,113.623,283.12L113.623,283.12z"/>
			<path fill="#C7C7C7" d="M101.526,337.204c5.693,2.846,27.516,0.949,27.516,0.949s-11.386-18.977-17.079-21.823
				c-2.609-1.423-5.93-1.423-8.777-0.474c-2.847,0.949-5.219,3.084-6.642,5.693c-1.423,2.846-1.66,5.93-0.712,8.777
				C96.781,333.409,98.916,335.781,101.526,337.204L101.526,337.204z"/>
			<path fill="#C7C7C7" d="M97.019,391.525c5.219,3.795,26.805,5.693,26.805,5.693s-8.065-20.637-13.047-24.433
				c-1.186-0.949-2.609-1.66-4.033-1.898c-1.423-0.474-3.084-0.474-4.507-0.237c-1.423,0.237-2.847,0.712-4.27,1.423
				c-1.423,0.712-2.372,1.898-3.321,3.084c-0.949,1.186-1.66,2.609-1.898,4.27c-0.474,1.423-0.474,3.084-0.237,4.507
				s0.712,3.084,1.66,4.27C94.647,389.39,95.595,390.576,97.019,391.525L97.019,391.525z"/>
			<path fill="#FF825C" d="M142.088,231.171c0,6.405-11.623,25.144-11.623,25.144s-11.623-18.74-11.623-25.144
				c0-1.66,0.237-3.084,0.712-4.507c0.474-1.423,1.423-2.846,2.372-3.795c1.186-1.186,2.372-1.898,3.795-2.609
				c1.423-0.712,2.847-0.949,4.507-0.949c1.423,0,3.084,0.237,4.507,0.949s2.609,1.423,3.795,2.609s1.898,2.372,2.372,3.795
				C141.614,228.088,142.088,229.511,142.088,231.171L142.088,231.171z"/>
			<path fill="#FF825C" d="M161.065,266.99c-3.558,5.456-23.247,14.707-23.247,14.707s0.474-22.06,3.795-27.516
				c1.66-2.609,4.27-4.27,7.353-4.981c2.847-0.712,5.93,0,8.54,1.66s4.27,4.27,4.981,7.353
				C163.2,261.297,162.726,264.381,161.065,266.99L161.065,266.99z"/>
			<path fill="#FF825C" d="M160.353,328.19c-5.693,2.846-27.516,0.949-27.516,0.949s11.386-18.977,17.079-21.823
				c2.609-1.423,5.93-1.423,8.777-0.474c2.846,0.949,5.219,3.084,6.642,5.693c1.423,2.846,1.66,5.93,0.712,8.777
				C164.86,324.395,162.963,326.767,160.353,328.19L160.353,328.19z"/>
			<path fill="#FF825C" d="M149.442,374.446c-5.219,3.795-26.805,5.693-26.805,5.693s8.065-20.637,13.047-24.433
				c1.186-0.949,2.609-1.66,4.033-1.898c1.423-0.474,3.084-0.474,4.507-0.237s2.847,0.712,4.27,1.423
				c1.423,0.712,2.372,1.898,3.321,3.084c0.949,1.186,1.66,2.609,1.898,4.27c0.474,1.423,0.474,3.084,0.237,4.507
				s-0.712,3.084-1.66,4.27C151.577,372.311,150.628,373.497,149.442,374.446z"/>
			<path fill="#FF825C" d="M113.623,283.12c4.507,4.507,25.856,9.251,25.856,9.251s-5.219-21.349-9.726-25.856
				c-2.135-2.135-5.219-3.084-8.065-3.084c-3.084,0-5.93,1.423-8.065,3.558s-3.321,5.219-3.321,8.302
				C110.302,277.902,111.488,280.748,113.623,283.12L113.623,283.12z"/>
			<path fill="#FF825C" d="M101.526,337.204c5.693,2.846,27.516,0.949,27.516,0.949s-11.386-18.977-17.079-21.823
				c-2.609-1.423-5.93-1.423-8.777-0.474c-2.847,0.949-5.219,3.084-6.642,5.693c-1.423,2.846-1.66,5.93-0.712,8.777
				C96.781,333.409,98.916,335.781,101.526,337.204L101.526,337.204z"/>
			<path fill="#FF825C" d="M97.019,391.525c5.219,3.795,26.805,5.693,26.805,5.693s-8.065-20.637-13.047-24.433
				c-1.186-0.949-2.609-1.66-4.033-1.898c-1.423-0.474-3.084-0.474-4.507-0.237c-1.423,0.237-2.847,0.712-4.27,1.423
				c-1.423,0.712-2.372,1.898-3.321,3.084c-0.949,1.186-1.66,2.609-1.898,4.27c-0.474,1.423-0.474,3.084-0.237,4.507
				s0.712,3.084,1.66,4.27C94.647,389.39,95.595,390.576,97.019,391.525L97.019,391.525z"/>
		</g>
	</g>
</g>
</svg>
