<?xml version="1.0" encoding="utf-8"?>
<!-- Generator: Adobe Illustrator 17.0.0, SVG Export Plug-In . SVG Version: 6.00 Build 0)  -->
<!DOCTYPE svg PUBLIC "-//W3C//DTD SVG 1.1//EN" "http://www.w3.org/Graphics/SVG/1.1/DTD/svg11.dtd">
<svg version="1.1" id="Слой_1" xmlns="http://www.w3.org/2000/svg" xmlns:xlink="http://www.w3.org/1999/xlink" x="0px" y="0px"
	 width="612px" height="437px" viewBox="0 0 612 437" enable-background="new 0 0 612 437" xml:space="preserve">
<g>
	<g>
		<g>
			<g>
				<defs>
					<rect id="SVGID_1_" x="24.072" y="0.44" width="558.348" height="436.56"/>
				</defs>
				<clipPath id="SVGID_2_">
					<use xlink:href="#SVGID_1_"  overflow="visible"/>
				</clipPath>
				<g clip-path="url(#SVGID_2_)">
					<path fill="#F2F2F2" d="M579.36,315.824c-2.04,11.22-4.896,22.236-8.772,33.048c-1.632,4.692-3.672,9.588-5.916,14.688
						c-12.852,28.764-35.496,60.588-74.868,70.788c-51.408,13.464-195.636-32.436-277.848-9.384
						c-77.52,21.828-125.256,5.916-153.204-20.4c-4.692-4.284-8.772-9.18-12.648-14.076C25.296,362.336,21.42,328.472,25.5,313.172
						c6.528-23.46,14.484-46.92,14.688-71.4c0.204-25.704-9.18-50.796-10.2-76.704C27.336,99.788,75.48,35.732,140.964,16.964
						c27.948-7.956,51-16.32,80.376-16.524c59.568-0.408,200.532,0,270.096,96.492c12.444,17.34,30.396,30.192,44.268,46.308
						c18.564,21.828,30.804,47.94,38.148,75.072C582.624,250.136,584.868,283.592,579.36,315.824z"/>
					
						<linearGradient id="SVGID_3_" gradientUnits="userSpaceOnUse" x1="180.512" y1="636.968" x2="90.0217" y2="1174.2742" gradientTransform="matrix(2.04 0 0 2.04 23.58 -1426.7198)">
						<stop  offset="0.01" style="stop-color:#000000"/>
						<stop  offset="0.08" style="stop-color:#000000;stop-opacity:0.69"/>
						<stop  offset="0.21" style="stop-color:#000000;stop-opacity:0.32"/>
						<stop  offset="1" style="stop-color:#000000;stop-opacity:0"/>
					</linearGradient>
					<path fill="url(#SVGID_3_)" d="M570.384,348.872c-1.632,4.692-3.672,9.588-5.916,14.688c-8.16,0.204-16.116,0.408-24.276,0.612
						c-5.304,0.204-11.016,0.408-15.3,3.264c-8.16,5.508-1.02,9.18-2.04,14.688c-1.02,6.324-7.752,7.752-14.28,7.752
						c-22.44,0-44.064,6.936-66.096,11.016s-46.104,5.304-65.688-5.1c-1.428-0.612-2.652-1.632-3.264-3.06
						c-1.02-2.448,1.428-4.896,3.672-6.324c5.1-3.264,10.608-5.712,16.728-6.936c3.468-0.816,7.14-1.224,10.404-3.06
						c3.06-1.836,5.304-5.712,3.672-8.772c-51,3.06-102,7.344-153,12.852c-65.484,7.14-130.152,19.38-195.84,23.868h-0.612
						c-4.692-4.284-8.772-9.18-12.648-14.076c0.204-0.408,0.612-0.816,0.816-1.02c3.264-3.264,7.956-4.896,12.444-6.12
						c25.296-7.548,51.612-11.22,77.724-15.096c129.948-18.768,261.528-32.028,393.108-23.256
						C543.864,345.812,557.124,347.24,570.384,348.872z"/>
					<path fill="#FF825C" d="M261.732,54.296H221.34v292.536h40.392V54.296z"/>
					<path fill="#FF825C" d="M351.084,145.076h-40.392v198.492h40.392V145.076z"/>
					<path fill="#FF825C" d="M425.34,211.172h-40.392v132.396h40.392V211.172z"/>
					<path fill="#FFFFFF" d="M128.52,274.208l117.912,16.728v92.208h13.464v5.508h-31.008v-3.468h13.872V308.48l-111.384-20.4v74.46
						h15.504v2.448h-31.212v-2.856h12.852L128.52,274.208L128.52,274.208z"/>
					<path fill="#393944" d="M126.684,274.208l117.912,16.728v92.208h13.464v5.508h-31.008v-3.468h13.872V308.48l-111.384-20.4
						v74.46h15.504v2.448h-31.212v-2.856h13.056v-87.924H126.684L126.684,274.208z"/>
					<path fill="#ACACAC" d="M455.532,276.248l2.04,92.412h13.056l3.876-73.44l8.364,73.44l15.096,2.448l3.468-97.92
						L455.532,276.248z"/>
					<path fill="#454554" d="M455.532,276.248l2.04,92.412h13.056l3.876-73.44l8.364,73.44l15.096,2.448l3.468-97.92
						L455.532,276.248z"/>
					
						<linearGradient id="SVGID_4_" gradientUnits="userSpaceOnUse" x1="-899.6237" y1="735.5948" x2="139.8284" y2="846.7178" gradientTransform="matrix(2.04 0 0 2.04 23.58 -1426.7198)">
						<stop  offset="0.01" style="stop-color:#000000"/>
						<stop  offset="0.08" style="stop-color:#000000;stop-opacity:0.69"/>
						<stop  offset="0.21" style="stop-color:#000000;stop-opacity:0.32"/>
						<stop  offset="1" style="stop-color:#000000;stop-opacity:0"/>
					</linearGradient>
					<path fill="url(#SVGID_4_)" d="M488.784,367.232v-85.68l12.444-8.364l-4.284,95.472L488.784,367.232z"/>
					<path fill="#ACACAC" d="M439.824,199.748c0,0,0,0.204,0,0.408c0.408,7.14,0.816,14.076,1.632,21.216
						c0.408,3.06,0.408,7.344,2.04,9.996c2.448,3.876,13.26-0.612,16.728-2.04c5.1-2.244,9.792-5.304,14.484-8.364
						c0.408-0.204,0.612-0.408,1.02-0.816c0.204-0.408,0.204-0.612,0.204-1.02c0.408-7.344-2.244-14.688-7.344-20.196
						c-4.08,5.1-8.772,9.792-13.668,14.076l-0.612-3.264l-2.04-9.792c-0.612-2.856-0.204-4.896-3.468-3.672
						C445.74,197.096,442.68,198.524,439.824,199.748z"/>
					
						<linearGradient id="SVGID_5_" gradientUnits="userSpaceOnUse" x1="-16899.4707" y1="9349.3545" x2="-14461.0518" y2="8131.54" gradientTransform="matrix(2.04 0 0 2.04 23.58 -1426.7198)">
						<stop  offset="0.01" style="stop-color:#000000"/>
						<stop  offset="0.08" style="stop-color:#000000;stop-opacity:0.69"/>
						<stop  offset="0.21" style="stop-color:#000000;stop-opacity:0.32"/>
						<stop  offset="1" style="stop-color:#000000;stop-opacity:0"/>
					</linearGradient>
					<path fill="url(#SVGID_5_)" d="M439.824,200.156c0.204,5.712,0.612,11.628,1.224,17.34c0.408,4.692-0.204,16.524,7.14,15.708
						c5.916-0.612,10.812-4.284,16.32-5.916c2.04-0.612,4.08-1.02,5.916-2.04c2.448-1.632,4.284-4.08,5.1-6.936
						s1.02-5.712,1.02-8.568c-5.1,1.836-9.18,5.508-13.26,8.568c-2.652,2.244-5.916,4.08-9.18,5.304
						c-3.876,1.428-5.1,1.224-5.1-2.856c0.204-6.732-0.612-13.464-2.856-19.788c0-0.204-0.204-0.612-0.408-0.816
						c-0.408-0.204-0.612-0.204-1.02-0.204C443.088,199.952,441.456,199.952,439.824,200.156z"/>
					<path fill="#ACACAC" d="M491.436,194.444c3.468,1.632,6.936,3.468,10.2,5.508c6.936,4.284,5.712,6.324,4.488,13.668
						c-2.652,15.912-4.08,31.824-4.08,47.94c0,3.876,0.204,7.956-0.816,11.628c-0.816,2.448-2.448,4.488-2.652,6.936
						c-10.812,1.428-35.7,6.732-43.044-3.876c-7.14-10.2,5.712-46.308,3.264-62.424s19.38-17.748,19.38-17.748L491.436,194.444z"/>
					<path fill="#FFBBAB" d="M466.752,178.736c-0.204,3.264,0.816,6.732,2.856,9.384c0.408,0.612,0.816,1.224,1.428,1.632
						c1.224,0.816,2.652,0.612,4.08,0.408c0.408,0,0.612,0,1.02,0c0.816,0.204,0.816,1.224,0.816,2.04l-0.204,3.672
						c0,0.408,0,1.02,0.204,1.428s0.612,0.612,1.02,0.612c1.428,0.408,2.856,0.612,4.488,0.204c1.428-0.408,2.856-1.02,3.876-2.04
						c0.612-0.408,1.02-1.02,1.224-1.632s0.408-1.224,0.408-1.836c0.408-3.468,0-7.14,0.408-10.608
						c0.204-2.856,0.816-5.916,0.204-8.772c-0.204-1.632-1.02-3.06-2.04-4.284c-1.02-1.224-2.448-2.244-3.876-2.856
						c-3.06-1.224-6.528-0.612-9.792,0.204c-1.632,0.408-3.06,0.816-4.488,1.428c-0.816,0.204-1.428,0.612-1.836,1.224
						c-0.612,1.224,0,2.856,0,3.876C466.956,174.86,466.752,176.9,466.752,178.736z"/>
					<path fill="#393944" d="M466.752,164.252c-0.408,0.612-0.816,1.428-1.224,2.04s-0.612,1.428-0.408,2.244
						c0.204,0.612,0.612,1.224,1.224,1.428c2.448,2.04,6.12,2.448,9.384,2.244c1.02,0,1.836,0,2.856,0s1.836,0.408,2.448,1.224
						c1.02,1.02,0.816,2.652,1.224,4.08c0,0,0,0.204,0.204,0.204h0.204c1.02,0.204,2.04-1.02,3.06-0.612
						c0.204,0.204,0.408,0.408,0.612,0.612s0.204,0.408,0.204,0.816c0,0.612,0,1.224-0.204,1.836
						c-0.204,0.204-0.204,0.408-0.204,0.612s0,0.408,0.204,0.408l0.612,1.836c0.204,0.612,0.612,1.224,1.224,1.632
						c0.816,0.408,1.632,0,2.448-0.408c0.612-0.204,1.02-0.612,1.428-1.02c0.204-0.408,0.408-0.816,0.408-1.224
						c1.02-4.284,1.02-8.772,1.02-13.26c0-1.02,0-2.04-0.408-3.06c-0.816-2.04-3.264-2.856-5.508-3.264
						c-4.08-0.612-8.16-1.02-12.24-0.816c-1.224,0-2.652,0-3.876,0.204s-2.448,0.816-3.264,1.836"/>
					<path fill="#FFFFFF" d="M488.172,192.608c0,0,3.06,2.04,2.856,4.284c0,2.244-16.32,46.104-16.32,46.104s-0.408-42.024,0-43.86
						c0.612-1.836,1.224-3.672,2.244-5.508C476.952,193.628,483.276,197.912,488.172,192.608z"/>
					<path fill="#393944" d="M482.664,196.688l1.02,3.468l-1.836,1.428l-0.816,23.868l-6.528,17.544l-0.204-17.952l5.508-23.664
						l-2.04-3.264l2.652-1.428H482.664L482.664,196.688z"/>
					<path fill="#ACACAC" d="M470.628,258.5c1.836,2.244,4.08,4.488,6.528,6.324c0.408,0.408,1.02,0.816,1.428,1.02
						c0.612,0.408,1.224,0.816,1.836,0.816c0.408,0,1.02-0.204,1.428-0.408c9.384-3.468,18.768-7.548,27.744-11.832
						c3.876-1.836,7.956-4.284,8.772-8.364c0.204-1.428,0.204-2.856,0-4.284c-1.428-10.2-4.284-19.992-8.16-29.376
						c-1.224-2.652-2.448-7.752-5.508-9.588l-0.408-0.204l-0.408-0.204c-4.08-1.428-7.548,2.448-8.568,5.712
						c-1.632,4.692-0.816,9.588,0.408,14.28s3.06,9.384,3.468,14.076c0.204,0.612,0,1.428-0.204,2.04
						c-0.408,0.612-1.02,1.224-1.632,1.428L470.628,258.5z"/>
					<path fill="#393944" d="M470.628,368.66l-0.612,6.732l-4.488,0.816l-2.04-1.632l-3.468,2.652h-13.464
						c0,0-3.468-5.712,4.08-7.548l7.548-1.836L470.628,368.66z"/>
					<path fill="#393944" d="M497.148,368.66l-0.612,6.732l-4.488,0.816l-2.04-1.632l-3.468,2.652h-13.464
						c0,0-3.468-5.712,4.08-7.548l7.548-1.836L497.148,368.66z"/>
					<path fill="#393944" d="M474.504,295.22l-6.12-4.692L464.1,367.64l6.528,1.02L474.504,295.22z"/>
					<path fill="#FFBBAB" d="M463.896,260.948c-0.816,0.204-1.428,0.612-2.244,1.02c-0.408,0.204-0.612,0.612-0.612,1.02
						c-0.204,0.408-0.204,0.816,0,1.224s0.612,0.816,0.816,1.224c0.408,0.612,0.408,1.428,0.816,2.244
						c0.612,1.02,1.836,1.836,3.06,2.04c3.672,1.224,7.956,1.428,10.812-1.02c2.04-1.632,6.324-8.772,1.632-9.996
						c-1.632-0.408-4.08,0.408-5.916,0.612C469.608,259.52,466.752,260.132,463.896,260.948z"/>
					<path fill="#ACACAC" d="M460.428,177.104c0,0-20.196-3.264-24.276-8.772v20.196c0,0,4.692-4.284,24.276-4.488
						C460.428,184.244,464.304,181.184,460.428,177.104z"/>
					<path fill="#ACACAC" d="M435.336,189.14c2.244,0,3.876-4.692,3.876-10.608s-1.836-10.608-3.876-10.608
						c-2.244,0-3.876,4.692-3.876,10.608S433.092,189.14,435.336,189.14z"/>
					
						<linearGradient id="SVGID_6_" gradientUnits="userSpaceOnUse" x1="1809.3523" y1="826.8406" x2="2051.1865" y2="832.8661" gradientTransform="matrix(2.04 0 0 2.04 23.58 -1426.7198)">
						<stop  offset="0.01" style="stop-color:#000000"/>
						<stop  offset="0.08" style="stop-color:#000000;stop-opacity:0.69"/>
						<stop  offset="0.21" style="stop-color:#000000;stop-opacity:0.32"/>
						<stop  offset="1" style="stop-color:#000000;stop-opacity:0"/>
					</linearGradient>
					<path fill="url(#SVGID_6_)" d="M435.336,187.712c1.836,0,3.468-4.08,3.468-9.384c0-5.1-1.428-9.384-3.468-9.384
						c-1.836,0-3.468,4.08-3.468,9.384S433.5,187.712,435.336,187.712z"/>
					<path fill="#ACACAC" d="M456.348,184.04c0,0,0.612,10.404-2.652,11.628c-3.06,1.428-4.488-0.408-4.08-1.02
						c0.204-0.612,3.264-7.956,2.04-10.2C450.228,182.612,456.348,184.04,456.348,184.04z"/>
					<path fill="#FFBBAB" d="M443.088,193.628c0-1.836-0.204-3.672,0.612-5.304c0.204-0.612,0.612-1.02,1.224-1.428
						c0.408-0.204,1.02-0.408,1.632-0.612c2.448-0.612,5.1-0.612,7.752-0.204c0.204,0,0.408,0,0.612,0.204s0.408,0.408,0.408,0.612
						c0.612,1.836,0.612,3.876-0.204,5.712s-1.836,3.468-3.06,5.1c-0.612,0.816-1.224,1.632-2.04,2.244
						c-1.632,1.02-5.712,1.428-7.344,0c-0.204-0.204-0.408-0.612-0.612-1.02c0-0.408,0-0.816,0.204-1.224
						C442.884,196.076,443.088,194.852,443.088,193.628z"/>
					<path fill="#ACACAC" d="M434.724,177.716c-0.204,0-0.408,0.204-0.612,0.408c-0.204,0.204-0.204,0.408-0.204,0.816
						c0,0.408,0,0.612,0.204,1.02c0.204,0.204,0.408,0.612,0.612,0.816c0.612,0.408,1.224,0.612,1.836,0.816h0.204
						c0,0,0.204,0,0.204-0.204c0.408-0.408,0.612-1.02,0.612-1.836c0-0.408,0-0.816,0-1.224
						C437.172,176.696,435.744,177.308,434.724,177.716z"/>
					<path fill="#454554" d="M196.248,249.32c0,0,20.808,28.56,23.46,28.764s47.328,1.428,47.328,1.428l-0.204-8.976
						c0,0-20.4-9.18-29.376-6.528c-5.916,1.836-6.936,1.428-6.936,1.428s-7.548-21.624-10.404-25.908
						C217.26,235.244,196.248,249.32,196.248,249.32z"/>
					<path fill="#454554" d="M217.056,234.428c0,0,1.224,15.708-3.06,21.216s-42.636,20.4-42.636,20.4s-4.08,15.3-8.16,18.564
						c-4.08,3.468-20.196,17.748-20.196,17.748l-7.14-6.528l22.236-35.292c0,0,1.428-4.692,3.468-6.324
						c2.244-1.632,29.58-30.192,29.58-30.192L217.056,234.428z"/>
					<path fill="#FFBBAB" d="M202.164,172.616l6.732,1.428c2.244,0.408,4.896,1.02,6.12,2.856c1.224,1.632,1.02,4.08,0.816,6.12
						c-0.408,2.856-0.816,5.508-1.428,8.364c-0.816,3.672-1.632,7.344-2.04,11.016c-1.02,9.18,1.632,18.36,4.08,27.132
						c0.816,2.856-3.06,4.896-5.916,6.12c-5.508,2.04-11.424,2.856-17.34,2.244c-0.612,0-1.02-0.204-1.428-0.408
						c-0.612-0.612-1.02-1.224-1.02-2.04c-1.224-4.692-2.04-9.588-3.672-14.28c-0.816-2.448-1.632-4.692-2.856-6.936
						c-1.224-2.04-1.632-4.488-2.448-6.732c-0.816-1.836-1.836-3.468-2.448-5.304c-0.816-1.836-1.02-3.672-0.612-5.712
						s1.224-4.08,2.04-6.12c0.612-2.244,1.224-4.488,1.632-6.732c0.204-1.632,0.612-3.06,1.224-4.488
						c1.428-3.06,4.896-4.896,8.364-5.508C195.024,172.616,198.9,172.004,202.164,172.616z"/>
					<path fill="#FFBBAB" d="M159.936,156.5c-2.04-2.04-4.284-3.876-5.508-6.324c-1.836-3.06-3.06-6.324-4.08-9.588
						c-0.408-1.224-0.612-2.448-0.408-3.672c0.204-1.632,1.428-3.264,1.632-4.896c0-0.204,0-0.408-0.204-0.612l-0.204-0.204
						c-0.204,0-0.204,0-0.408,0l-2.04-0.204c0-1.428-0.612-3.06-1.632-4.08c-0.816-0.816-1.836-1.428-3.06-1.02
						c-1.02,0.408-1.632,1.836-2.448,2.652c-0.816,0.816-2.04,1.224-2.856,2.04c-0.816,1.02-0.816,2.448-0.816,3.876
						c0.204,3.672,2.04,5.916,3.264,9.18c1.428,3.468,2.856,6.732,4.692,9.996c3.672,6.528,8.16,12.444,13.26,17.748
						c2.856,2.856,5.916,5.508,8.976,8.16c3.468,2.652,16.728,13.668,20.808,9.588c5.304-5.508-0.204-12.24-5.1-14.892
						C175.44,169.148,167.28,163.232,159.936,156.5z"/>
					<path fill="#FFFFFF" d="M189.924,172.616c-1.428,3.468-2.856,6.936-4.284,10.404c-0.408,1.224-0.816,2.448-0.204,3.468
						c0.408,0.612,1.224,1.224,2.04,1.428c3.468,1.02,7.344-0.408,9.996-2.652c2.652-2.244,4.488-5.304,6.324-8.364
						c0.816-1.632,2.04-3.264,3.468-4.488c0.816-0.612,1.632-1.02,2.652-1.224c1.02-0.204,2.04-0.204,2.856,0.204
						c1.836,0.816,2.856,3.06,1.632,4.692c-0.204-1.428-2.244-2.04-3.672-1.428s-2.04,2.04-2.856,3.264
						c-0.816,1.836-1.632,3.468-2.244,5.304c-0.612,1.224-0.816,2.652-0.816,4.08c0,3.468,2.652,6.324,5.304,8.568
						c1.02,0.816,2.04,1.836,2.652,2.856c1.02,1.836,0.816,3.876,0.612,5.712c-0.408,8.16,1.224,16.116,3.264,24.072
						c0.408,1.428,0.816,3.264-0.204,4.488c-0.816,0.816-1.836,1.428-3.06,1.428c-5.304,1.224-10.812,0.816-16.32,1.836
						c-3.264,0.612-6.528,1.836-9.792,2.244c-0.408,0-1.02,0-1.224-0.204s-0.408-0.408-0.408-0.612s-0.204-0.408-0.204-0.816
						c-0.816-8.976-1.02-18.156-4.488-26.724c-1.632-3.876-3.876-7.752-4.488-12.036c-0.204-0.816-0.204-1.836,0-2.652
						s0.612-1.632,1.224-2.448c2.652-4.692,4.284-9.792,4.692-15.096"/>
					<path opacity="0.1" fill="#020202" enable-background="new    " d="M211.344,211.376c0.204,1.428,0.204,3.264-1.02,4.284
						c-0.408,0.204-0.612,0.612-1.02,0.816c-0.612,0.816-0.204,1.836-0.204,2.652c0,1.836-1.02,3.264-1.836,5.1
						c-0.612,1.632-0.816,3.876,0.816,4.896c1.02,0.612,2.448,0.612,3.264,1.428c1.428,1.224,0.612,3.876,2.448,4.692
						c0.408,0.204,1.02,0,1.428-0.204c0.408-0.204,0.816-0.612,1.02-1.02c0.408-1.02,0.408-1.836,0.204-2.856
						c-0.816-10.2-1.836-20.4-2.856-30.6c0-0.612-0.204-1.02-0.408-1.632c-0.204-0.408-0.612-0.816-1.02-1.224
						c-0.816-0.816-2.04-2.448-3.264-2.652c-0.816,1.836,0.816,5.304,1.02,7.14C210.528,204.848,210.936,208.112,211.344,211.376z"
						/>
					<path fill="#FFBBAB" d="M174.624,157.52c-0.408,0.816-0.816,1.836-0.612,2.856c0.204,0.612,0.612,1.224,1.02,1.836
						c1.02,1.224,1.632,2.652,2.04,4.08c0.408,1.224,0.612,2.448,1.632,3.06c1.224,1.02,2.856,0.816,4.284,0.612
						c1.224-0.204,2.244-0.408,3.468-0.612c0.408-0.204,0.816-0.204,1.224,0s0.816,0.408,1.02,0.612
						c1.836,2.04,2.244,4.896,3.468,7.14c0.204,0.408,0.408,0.816,0.816,1.02c0.408,0.204,0.816,0.408,1.224,0.408
						c2.652,0.408,5.304,0,7.548-1.224c0.612-0.204,1.02-0.816,1.224-1.428s0.204-1.428-0.204-2.04
						c-0.612-1.836-1.428-3.468-2.244-5.1c-1.224-2.244-2.652-4.488-2.856-6.936c-0.204-2.244,0.408-4.488,0.408-6.528
						c-0.204-4.692-4.08-8.772-8.772-9.792c-4.08-0.816-7.956,0.408-11.22,2.856c-1.224,0.816-2.04,1.428-2.448,2.652
						C175.032,153.236,175.44,155.48,174.624,157.52z"/>
					<path fill="#393944" d="M175.236,143.036c0.204-1.02,0.612-2.04,1.224-3.06c0.612-0.816,1.428-1.632,2.448-2.244
						c6.12-3.672,16.32-3.264,21.624,1.632c1.632,1.632,2.856,3.876,4.896,5.304c2.448,1.836,5.916,2.04,9.18,2.244
						c-0.612,1.02-1.632,1.836-2.652,2.448c0.612,1.02,1.632,1.836,2.856,2.244l-2.244,1.428l2.448,2.04
						c-1.02,0.612-2.04,1.02-3.264,1.428c0.408,2.244,0.816,4.692,1.632,6.732c-1.02-0.816-2.244-1.224-3.672-1.428
						c-0.612,1.428-0.816,3.06-0.612,4.692l-3.06-1.428c0,1.428-0.612,2.856-1.428,4.08c1.02-1.632-3.876-3.672-4.692-3.876
						c-1.224-0.204-2.04,0.408-2.856-0.204c-1.224-0.612-2.04-2.652-3.264-3.468c0.612-1.02,1.632-1.836,2.244-2.856
						c0.408-0.408,0.612-1.02,0.612-1.632s-0.204-1.224-0.408-1.632c-0.816-1.02-2.652-0.816-2.856,0.408
						c0-3.06-2.244-5.712-4.896-7.548c-0.408-0.408-0.816-0.612-1.428-0.816s-1.02-0.204-1.632,0
						c-1.428,0.204-2.856,0.612-4.284,0.816c-1.02,0.204-2.856,1.224-3.876,0.816C175.44,148.748,175.032,144.668,175.236,143.036z"
						/>
					<path fill="#FFBBAB" d="M277.236,267.068c0.816-0.204,1.632-0.204,2.244-0.204c0.612,0.204,1.224,0.816,1.632,1.224
						c4.488,4.896,8.772,9.792,12.852,14.892c0.816,0.816,1.224,1.632,1.632,2.652c0.612,2.244-1.02,4.284-2.448,5.916
						c-0.816,1.02-2.448,2.04-3.468,1.02c-0.612-0.612-0.204-1.632-0.408-2.448c-0.204-1.02-1.224-1.632-2.244-2.04l-19.992-9.996
						c-2.856-1.428-3.876-5.916-0.816-7.752c1.224-0.816,3.468-0.816,4.896-1.428C273.36,268.7,275.196,267.68,277.236,267.068z"/>
					<path fill="#E0A194" d="M191.556,168.944c0.408,0,0.816,0,1.224,0.204s0.612,0.612,0.612,1.02
						c0.612,1.836,0.816,3.876,1.02,5.916c0,0.612,0,1.02-0.204,1.632c0,0.204-0.204,0.408-0.408,0.612
						c-0.204,0.204-0.408,0.408-0.816,0.408c-0.612,0.204-1.224-0.204-1.836-0.408c-0.408,0-0.612,0-1.02,0.204
						s-0.612,0.408-0.816,0.612c-0.408,0.612-0.816,1.02-1.224,1.632c-0.816,1.428-1.632,2.652-2.652,4.08
						c0.204-2.856,1.02-5.712,2.244-8.16c0.204-0.816,0.816-1.428,1.428-1.836c0.612-0.204,1.224-0.408,1.428-0.816
						c0.612-0.816-0.204-1.632-1.02-2.244c-0.612-0.612-1.836-1.632-1.224-2.244C188.7,168.74,190.944,168.944,191.556,168.944z"/>
					<path fill="#FFBBAB" d="M234.396,150.584c1.428-2.04,2.856-4.08,4.08-6.12c3.264-5.916,4.896-13.464,3.264-19.992
						c-0.204-0.816-0.408-1.428-0.204-2.244c0-0.408,0.204-0.816,0.408-1.02c0.204-0.204,0.612-0.612,1.02-0.612s0.612,0,1.02-0.204
						s0.612-0.816,1.02-1.224c0.204-0.204,0.612-0.612,1.02-0.612s0.816,0,1.224,0c0.816,0.204,1.428,0.816,2.04,1.224
						c1.02,0.816,1.836,1.632,2.652,2.652c0.816,0.612,1.224,1.428,1.632,2.448c0.408,1.632-0.612,3.06-1.428,4.284
						c-1.428,0.204-1.836,4.08-2.04,5.1c-0.408,2.04-0.816,4.284-1.428,6.324c-1.02,4.284-2.448,8.364-4.284,12.24
						c-3.468,7.956-8.16,15.3-13.872,21.828c-2.856,3.264-13.872,16.32-18.564,13.056c-6.324-4.488-2.244-12.036,2.04-15.504
						C221.544,165.884,228.48,158.54,234.396,150.584z"/>
					<path fill="#FFFFFF" d="M178.296,161.6c0.816-0.204,1.632-0.408,2.448-0.408c0.204,0,0.204,0,0.408,0l0.204,0.204
						c0.612,1.224,0.816,2.448,0.612,3.876c0,0.612-0.204,1.02-0.612,1.428c-0.204,0.204-0.408,0.408-0.612,0.408s-0.612,0-0.816,0
						c-0.408-0.204-0.816-0.612-1.02-1.02c-0.816-1.224-1.428-2.448-1.632-3.876v-0.204l0.204-0.204
						c0.408-0.204,1.02-0.408,1.632-0.408"/>
					<path fill="#ACACAC" d="M173.4,165.476h-0.408C173.196,165.272,173.4,165.272,173.4,165.476z"/>
					<path fill="#D0CDE1" d="M248.88,140.996c0.204,2.448,0,4.896-0.816,7.14c-4.896,15.912-14.688,31.008-29.376,39.984
						c-0.816,0.408-1.632,1.02-2.04,1.836c-0.408,0.612-0.612,1.428-0.612,2.244c-1.02,13.668,2.448,27.336,2.448,41.208
						c0.204,1.224-0.204,2.448-0.816,3.468c-0.816,1.224-2.448,1.428-4.08,1.632c-1.02,0.204-2.04,0.204-3.06,0.408
						c-7.344,0.816-14.484,1.428-21.828,1.632c-1.224,0-2.652,0-3.468-0.816c-0.816-0.816-1.02-2.244-1.224-3.468
						c-0.816-9.384-4.08-18.156-6.528-27.132c-1.224-4.488-2.04-8.976-2.448-13.464c-0.204-2.448,0-4.692-1.428-6.732
						c-0.408-0.612-0.816-1.224-1.428-1.632c-2.244-1.836-5.1-2.652-7.344-4.08c-3.876-2.448-6.324-6.528-8.568-10.608
						c-3.264-5.712-6.732-11.424-9.996-17.136c-2.448-4.284-0.408-6.732,2.856-8.976c1.224-0.816,2.448-1.632,3.672-2.448
						c2.244,4.488,4.692,8.976,7.956,13.056c3.264,3.876,7.344,6.936,12.24,8.16c0,0-0.204,0-0.204,0.204v0.204
						c0,0.408,0.408,0.612,0.612,0.816c3.672,2.244,7.344,4.284,11.016,6.528c0.612,0.408,1.428,0.816,2.448,1.02
						c1.02,0,3.876-1.428,4.08,0.204c0,0,0,0.204,0,0.408c-0.204,0.612-0.204,1.02-0.408,1.632c0,0.408,0.204,0.612,0.408,1.02
						c0.204,0.204,0.612,0.408,1.02,0.612c0.816,0.204,1.428,0.204,2.244,0c0.816-0.204,1.632-0.408,2.244-0.816
						c1.224-0.612,2.04-1.632,3.06-2.448c1.632-1.224,3.672-1.02,5.712-1.428c2.04-0.204,4.284-0.612,6.12-1.428
						c5.712-2.244,10.608-6.12,14.484-10.812c5.712-6.732,9.384-14.484,13.872-21.828c0.408-0.816,1.02-1.632,1.836-2.244
						c0.612-0.408,1.428-0.612,2.244-0.408c0.816,0,1.632,0.408,2.244,0.816c0.612,0.408,1.224,1.02,1.836,1.836
						C248.472,139.364,248.676,140.18,248.88,140.996z"/>
					<path fill="#ACACAC" d="M272.544,270.74c0.408,1.224,1.428,2.244,2.448,3.06c2.448,1.836,4.692,4.08,5.916,6.732
						c0.612,1.428,0.816,2.856,1.632,4.08c0.816,1.224,2.244,2.448,3.264,3.672c1.428,2.04,1.224,4.896,3.264,6.732
						c2.244,2.04,6.12,0.816,7.956-1.632c1.632-2.448,1.632-5.508,0.816-8.364c-1.632-5.712-5.508-10.812-9.588-15.3
						c-2.448-2.652-5.916-5.712-9.996-5.304C275.4,264.824,271.932,267.884,272.544,270.74z"/>
					<path opacity="0.7" fill="#B8B6C6" enable-background="new    " d="M173.808,188.936c-0.408-0.612-0.816-1.02-1.428-1.428
						c-2.244-1.836-5.1-2.652-7.344-4.08c-3.876-2.448-6.324-6.528-8.568-10.608c-3.264-5.712-6.732-11.424-9.996-17.136
						c-2.448-4.284-0.408-6.732,2.856-8.976c0.816,0.612,1.632,1.224,2.04,2.04c1.224,1.632,1.836,3.672,2.652,5.508
						c2.04,4.284,4.896,8.364,8.364,11.628c3.468,3.672,6.936,7.548,10.608,11.22c0.204,0.204,0.408,0.408,0.408,0.612
						c0.204,0.408,0.204,0.816,0,1.224c-0.204,1.836-0.204,3.468,0,5.304C173.4,185.468,174.42,188.324,173.808,188.936z"/>
					
						<linearGradient id="SVGID_7_" gradientUnits="userSpaceOnUse" x1="16662.7285" y1="7011.7549" x2="10439.502" y2="4674.8589" gradientTransform="matrix(2.04 0 0 2.04 23.58 -1426.7198)">
						<stop  offset="0.01" style="stop-color:#000000"/>
						<stop  offset="0.08" style="stop-color:#000000;stop-opacity:0.69"/>
						<stop  offset="0.21" style="stop-color:#000000;stop-opacity:0.32"/>
						<stop  offset="1" style="stop-color:#000000;stop-opacity:0"/>
					</linearGradient>
					<path fill="url(#SVGID_7_)" d="M248.88,140.996c0.204,2.448,0,4.896-0.816,7.14c-4.896,15.912-14.688,31.008-29.376,39.984
						c-0.816,0.408-1.632,1.02-2.04,1.836c-0.408,0.612-0.612,1.428-0.612,2.244c-1.02,13.668,2.448,27.336,2.448,41.208
						c0.204,1.224-0.204,2.448-0.816,3.468c-0.816,1.224-2.448,1.428-4.08,1.632c-1.02,0.204-2.04,0.204-3.06,0.408h-0.204
						c-0.816,0-1.836,0-2.448-0.408c-0.816-0.612-1.428-1.224-1.632-2.04c-2.04-4.692-2.448-9.996-3.672-15.096
						s-4.08-10.2-8.976-12.036c-1.224-0.204-2.244-0.816-3.264-1.428c-0.816-0.816-1.428-2.244-0.612-3.06
						c0.408-0.408,0.816-0.612,1.428-0.612c2.856-0.816,5.916-1.428,8.772-2.652s5.508-3.264,6.528-5.916
						c1.02-2.448,0.816-5.304,2.04-7.752c1.428-2.856,4.488-4.488,7.344-6.12c10.2-5.916,18.564-14.28,24.48-24.276
						c2.652-4.488,3.876-11.832,7.344-15.504C248.064,141.608,248.472,141.404,248.88,140.996z"/>
					<path fill="#FFBBAB" d="M126.276,310.928c-4.488,0.612-9.18,0.408-13.872,0.612c-0.816,0-1.632,0.204-2.244,0.612
						c-1.02,0.816-0.816,2.448,0,3.468c1.02,1.02,2.244,1.632,3.468,1.836l6.732,2.244c3.672,1.224,7.548,2.448,11.424,2.448
						c2.04,0,4.488-0.816,5.304-2.652c0.204-0.612,0.408-1.224,0.612-2.04c0.612-1.836,2.652-3.06,3.672-4.896
						c1.224-2.652-0.816-6.936-4.08-6.12c-1.632,0.408-3.264,2.04-5.1,2.652C130.356,310.316,128.316,310.724,126.276,310.928z"/>
					<path fill="#ACACAC" d="M116.892,311.336c1.02,0,2.244,0.204,3.06,1.02c1.02,1.02,0.612,2.856,1.428,4.08
						c0.408,0.408,1.02,0.816,1.632,1.224c4.284,2.04,9.18,2.448,13.668,1.428c0.816-0.204,1.836-0.204,2.04,0.612
						c0,0.204,0,0.408-0.204,0.612c-0.612,1.02-1.224,1.836-2.244,2.448s-2.04,1.02-3.06,1.02c-2.244,0.204-4.488,0-6.732-0.612
						c-5.916-1.428-11.628-3.264-17.136-5.508c-1.02-0.204-2.04-0.816-2.856-1.632c-0.204-0.408-0.408-0.816-0.612-1.224
						c0-0.408,0-0.816,0.204-1.224s0.408-0.816,0.816-1.02c0.408-0.204,0.816-0.408,1.224-0.612
						C110.976,311.132,114.036,310.928,116.892,311.336z"/>
					
						<linearGradient id="SVGID_8_" gradientUnits="userSpaceOnUse" x1="-6556.582" y1="-1432.4933" x2="-3308.4758" y2="-357.0851" gradientTransform="matrix(2.04 0 0 2.04 23.58 -1426.7198)">
						<stop  offset="0.01" style="stop-color:#000000"/>
						<stop  offset="0.08" style="stop-color:#000000;stop-opacity:0.69"/>
						<stop  offset="0.21" style="stop-color:#000000;stop-opacity:0.32"/>
						<stop  offset="1" style="stop-color:#000000;stop-opacity:0"/>
					</linearGradient>
					<path fill="url(#SVGID_8_)" d="M477.156,264.824c0.408,0.408,1.02,0.816,1.428,1.02c0.612,0.408,1.224,0.816,1.836,0.816
						c0.408,0,1.02-0.204,1.428-0.408c9.384-3.468,18.768-7.548,27.744-11.832c3.876-1.836,7.956-4.284,8.772-8.364
						c0.204-1.428,0.204-2.856,0-4.284c-1.428-10.2-4.284-19.992-8.16-29.376c-1.224-2.652-2.652-7.752-5.508-9.588l-0.408-0.204
						l-0.408-0.204c-1.836,0-3.672,0.408-5.304,1.428c-1.632,1.02-2.652,2.448-3.468,4.08c0,0,14.28,27.948,13.668,32.232
						s-30.804,17.952-30.804,17.952L477.156,264.824z"/>
				</g>
			</g>
		</g>
	</g>
</g>
</svg>
