<?xml version="1.0" encoding="utf-8"?>
<!-- Generator: Adobe Illustrator 17.0.0, SVG Export Plug-In . SVG Version: 6.00 Build 0)  -->
<!DOCTYPE svg PUBLIC "-//W3C//DTD SVG 1.1//EN" "http://www.w3.org/Graphics/SVG/1.1/DTD/svg11.dtd">
<svg version="1.1" id="a568df60-cc88-4b90-b934-345dd9d3752a"
	 xmlns="http://www.w3.org/2000/svg" xmlns:xlink="http://www.w3.org/1999/xlink" x="0px" y="0px" width="612px" height="436.339px"
	 viewBox="0 177.83 612 436.339" enable-background="new 0 177.83 612 436.339" xml:space="preserve">
<path fill="#3F3D56" d="M612,614.17H0V177.83h612V614.17z M1.25,612.794h609.5V179.206H1.25V612.794z"/>
<rect x="12.503" y="188.77" fill="#FFC67C" width="295.06" height="414.522"/>
<rect x="305.687" y="188.77" fill="#BBBBBF" width="295.06" height="414.522"/>
<path fill="#3F3D56" d="M389.392,574.411c-0.75-1.438-1.375-2.938-1.938-4.501c-2.438-6.689,2.313-12.065,2.501-12.253l0.188-0.188
	v-0.25c-0.063-3.751-1.375-91.331-5.314-108.522c-3.563-15.566-14.565-19.754-17.191-20.567v-0.063l-12.69-1.75
	c4.751-34.069,9.502-112.898-44.259-129.151c-1.875-0.563-3.751-0.875-5.689-1l-0.125,1.375c1.813,0.125,3.688,0.5,5.439,0.938
	c52.823,15.941,48.01,93.957,43.321,127.714l-19.191-2.688c-5.001-3.063-10.627-8.502-11.315-23.317
	c6.876-6.314,11.315-15.253,12.378-25.005c0.063,0,0.188,0,0.25,0c2.751,0,5.064-3.563,5.064-7.939c0-4.376-2.25-7.939-5.064-7.939
	c-0.563,0-1.125,0.188-1.5,0.625c-3.938-14.253-15.066-24.755-28.568-26.943l-0.188,1.375c18.504,2.938,31.319,21.692,28.631,41.884
	c-2.125,16.128-13.815,28.818-28.631,31.256l0.188,1.375c5.939-0.938,11.502-3.563,16.253-7.502
	c0.875,13.753,6.251,19.629,10.877,22.755c-5.251,7.814-13.815,12.628-25.38,14.128c-0.625,0.063-1.25,0.125-1.875,0.188
	l0.125,1.375c0.625-0.063,1.25-0.125,1.875-0.188c11.94-1.563,20.817-6.564,26.318-14.753h0.188c0.063,0,0.063,0.063,0.125,0.063
	v-0.188l32.007,4.501l-9.252,116.461v0.063v0.063c0,0,0,1.063,0,2.938v0.125l0,0c0.063,10.315-0.438,20.504-1.375,30.756
	c-1.063,10.19-2.626,17.879-4.688,23.067h-16.191c0.063-1.625,0.375-3.188,0.875-4.688l1.438-4.501l-2.563,3.876
	c-1.438,2.063-3.126,3.813-5.001,5.314h-23.755v1.375h24.38l0.188-0.125c1.313-1,2.501-2.188,3.626-3.438
	c-0.188,0.938-0.25,1.938-0.25,2.876v0.688h44.447l0.125-0.063c2.688-1.688,2.688-4.813,2.688-10.502
	c0-3.563,2.188-6.001,4.501-8.502c1.25-1.25,2.313-2.688,3.313-4.063C390.705,577.412,390.642,577.037,389.392,574.411z
	 M334.756,361.305c0.5-0.563,0.625-0.688,1.125-0.688c2.063,0,3.813,3.001,3.813,6.564s-1.688,6.501-3.751,6.564
	c-0.063-0.125-0.125-0.188-0.188-0.313c0.062-0.875,0.062-1.688,0.062-2.563C335.819,367.557,335.443,364.369,334.756,361.305
	L334.756,361.305z M361.011,557.283l-3.751,19.004c0.813-9.752,1.063-19.254,1.063-24.818L361.011,557.283z M387.704,579.975
	c-0.938,1.438-2,2.751-3.188,3.876c-2.375,2.688-4.876,5.314-4.876,9.502c0,5.564-0.063,8.002-1.875,9.252h-25.318
	c2-5.251,3.501-12.878,4.563-22.755l1.313-2.125l4.063-20.567l-4.001-8.689c0-1.563,0-2.563,0-2.813l9.189-116.274
	c2.688,0.875,12.753,5.064,16.066,19.566c3.813,16.628,5.189,102.458,5.251,108.022c-0.938,1.188-5.064,6.751-2.626,13.503
	c0.563,1.563,1.25,3.126,2,4.626C389.329,577.225,389.329,577.225,387.704,579.975z"/>
<path fill="#2F2E41" d="M305.937,296.917v152.281l-27.318,3.501l-24.317,3.063l-8.502,1.063l0,0l-0.375,0.063
	c0,0-1.438-4.688-2.501-14.065c-1.938-16.253-2.938-46.384,5.814-90.268C260.303,293.979,295.373,295.229,305.937,296.917z"/>
<polygon fill="#2F2E41" points="304.062,575.162 305.937,575.287 305.937,603.167 219.357,603.167 221.233,595.603 223.546,586.039 
	234.36,574.286 236.798,571.536 "/>
<path fill="#FFB9B9" d="M305.937,333.8v73.703c-18.629,4.063-36.82-9.064-40.633-29.381c-3.813-20.317,8.314-40.133,26.943-44.322
	c2.25-0.5,4.563-0.75,6.814-0.75c2.188,0,4.313,0.188,6.501,0.688C305.687,333.8,305.812,333.8,305.937,333.8z"/>
<path fill="#FFB9B9" d="M305.937,395.75v79.829l-27.318-22.817l-16.003-13.378l12.753-6.314c0.563-0.25,1.188-0.625,1.813-0.875
	c9.502-4.688,11.127-17.441,11.127-25.693c0-2.501-0.188-5.064-0.5-7.502L305.937,395.75z"/>
<path fill="#114471" d="M304.062,438.821c0.625-0.063,1.25-0.125,1.875-0.188V603.23h-10.002
	c-6.376-2.125-11.377-4.188-11.377-4.188s-30.506-4.376-39.758-2.876c-0.5,0.063-1.125,0.188-1.813,0.25
	c-5.626,0.875-16.191,2.313-21.692-0.813c-5.501-3.126-5.876-10.752,8.752-27.943c1.313-1.5,2.688-3.063,4.188-4.751
	c2.25-2.438,19.879-14.44,17.254-18.816c-2.626-4.376-6.626-23.13-6.626-23.13l0.063-3.751l1-60.387l0,0l0.25-16.816l29.318-7.064
	l5.126,4.188C288.246,438.946,296.185,439.509,304.062,438.821z"/>
<path fill="#FFB9B9" d="M250.364,603.167h-15.816l6.251-2.751c0,0,2.438,0.5,5.876,1.5
	C247.801,602.355,249.051,602.73,250.364,603.167z"/>
<path fill="#114471" d="M251.364,510.898c-2.063,0.813-4.313,3.188-6.564,6.439c-9.564,13.503-19.942,42.759-19.942,42.759
	s3.501,3.813,5.064,7.627c0.813,2,1.125,3.876,0.25,5.376c-2.626,4.376,0,0,2.626,0c1,0,1.438,0.438,1.5,1.25
	c0.063,1.25-0.688,3.313-1.5,6.001c-1.313,4.376,0,5.814,6.626,7.251c6.626,1.438,2.626,1.438,2.626,5.814
	c0.063,1.063,0.313,2.188,0.813,3.188c1.188,2.125,2.688,3.938,4.501,5.501c-0.25,0-0.5,0.063-0.75,0.063
	c-1.75,0.125-3.501,0.563-5.189,1.25h-33.882c0.625-0.813,1.125-1.688,1.438-2.751c1.313-4.376-9.252-11.565-10.627-13.003
	c-1.375-1.438-1.313-7.251,0-13.003c1.313-5.751-1.313-5.814-4.001-8.689c-2.688-2.876,0-7.251,2.626-11.565
	c2.626-4.376,2.626-2.876-1.313-11.565c-3.938-8.752,4.001-10.065,4.001-10.065s17.254-39.008,26.505-62.2
	c6.126-15.253,12.878-23.63,16.691-27.568c1-1,2.063-2,3.188-2.813l6.626,2.876c0,0,0.75,5.251,1.625,12.878
	C256.427,474.579,258.928,507.835,251.364,510.898z"/>
<path fill="#2F2E41" d="M305.937,321.485v11.627c-0.125,0.188-0.25,0.438-0.375,0.625c-6.939,12.315-19.254,29.381-38.195,38.633
	l-1.688-10.94l-3.563-22.692L305.937,321.485z"/>
<path fill="#37B079" d="M160.158,545.218c0,42.946-23.38,58.012-52.261,58.012c-0.688,0-1.313,0-2,0
	c-1.313,0-2.688-0.062-4.001-0.188c-26.068-2-46.322-17.816-46.384-57.762c0-41.383,48.447-93.582,52.073-97.457l0,0
	c0.125-0.125,0.188-0.188,0.188-0.188S160.158,502.272,160.158,545.218z"/>
<path fill="#3F3D56" d="M105.959,596.728l19.129-29.193l-19.191,32.382l-0.063,3.313c-1.313,0-2.688-0.063-4.001-0.188l2.063-43.009
	v-0.313l0.063-0.063l0.188-4.063l-19.254-32.444l19.316,29.381l0.063,0.875l1.563-32.444l-16.503-33.569l16.691,27.818l1.563-67.389
	v-0.188v0.188l-0.25,53.136l16.378-21.067l-16.441,25.63l-0.438,29.131l15.316-27.943l-15.378,32.194l-0.25,16.128l22.192-38.883
	l-22.255,44.509L105.959,596.728z"/>
<path fill="#3F3D56" d="M516.418,479.267c-8.002-11.565-16.753-22.567-26.255-32.819l-0.438-0.5l-0.625,0.688
	c-5.376,5.689-52.261,56.699-52.261,97.895c0,44.884,25.068,56.512,46.322,58.387l0,0l0.625,0.063
	c1.313,0.063,2.688,0.125,4.001,0.188l0,0h0.625l0,0c0.438,0,0.875,0,1.313,0h0.063c15.816,0,28.443-4.438,37.383-13.065
	c10.315-9.94,15.503-25.318,15.503-45.634C542.736,522.213,528.42,496.708,516.418,479.267z M499.727,536.091l-11.877,23.817
	l-0.563,38.32l4.876-7.502l-4.939,8.314l-0.063,2.876c-0.125,0-0.313,0-0.438,0c-0.625,0-1.25-0.063-1.875-0.063
	c-0.125,0-0.25,0-0.375,0l2-42.321v-0.063v-0.125l0.25-4.501l-4.939-8.377l3.751,5.751l0.063,0.688h1.25l1.563-32.444v-0.188
	l-9.752-19.879l9.815,16.378l-0.313,19.879l5.626-10.252l-5.626,11.815l-0.25,18.816L499.727,536.091z M438.089,544.655
	c0-17.128,8.252-38.133,24.568-62.388c8.002-11.815,16.753-23.005,26.255-33.382l-1.5,63.45l-15.566-26.005l-1.063,0.688
	l16.378,33.319l-1.438,29.569l-18.316-27.943l-1.063,0.75l19.129,32.257l-0.188,3.688l-0.063,0.063v0.5l-2,42.259
	C462.532,599.854,438.089,588.477,438.089,544.655z M497.414,490.894l-8.627,13.44l0.063-2.438L497.414,490.894z M489.788,601.917
	c-0.438,0-0.938,0-1.375,0l0.063-2.438l19.066-32.194l-1.063-0.75l-17.941,27.381l0.5-33.632l22.192-44.384l-1.063-0.688
	l-21.004,36.758l0.188-13.565l15.316-32.069l-1.063-0.688l-14.128,25.755l0.375-26.318l16.316-25.505l-1-0.813l-15.253,19.629
	l0.25-50.073c6.689,7.251,51.323,57.012,51.323,96.207C541.486,591.915,513.417,601.917,489.788,601.917z"/>
</svg>
