<?xml version="1.0" encoding="utf-8"?>
<!-- Generator: Adobe Illustrator 24.3.0, SVG Export Plug-In . SVG Version: 6.00 Build 0)  -->
<svg version="1.1" id="Слой_1" xmlns="http://www.w3.org/2000/svg" xmlns:xlink="http://www.w3.org/1999/xlink" x="0px" y="0px"
	 viewBox="0 0 310 221" style="enable-background:new 0 0 310 221;" xml:space="preserve">
<style type="text/css">
	.st0{clip-path:url(#SVGID_2_);}
	.st1{opacity:0.2;enable-background:new    ;}
	.st2{fill:#E6E6E6;}
	.st3{fill:#3F3D56;}
	.st4{opacity:0.56;fill:#B7B7B7;enable-background:new    ;}
	.st5{opacity:0.56;fill:#FFB8B8;enable-background:new    ;}
	.st6{opacity:0.56;fill:#2F2E41;enable-background:new    ;}
	.st7{fill:#FF7F50;}
	.st8{fill:#CCCCCC;}
	.st9{fill:#FFB8B8;}
	.st10{fill:#FFFFFF;}
	.st11{fill:#B7B7B7;}
	.st12{fill:#494450;}
	.st13{fill:#2F2E41;}
</style>
<g>
	<defs>
		<rect id="SVGID_1_" x="60.5" width="167" height="221"/>
	</defs>
	<clipPath id="SVGID_2_">
		<use xlink:href="#SVGID_1_"  style="overflow:visible;"/>
	</clipPath>
	<g class="st0">
		<path class="st1" d="M226.7,84.8l-2.5,0l-9.7,0l-2.2,0l-6.5,0l-1.6,0h-0.7l-33.8-0.1l-0.5,0h-0.5l-2.1,0l-5.8,0l-2.8,0l-5.8,0
			V12.5L223.7,7l2.5-0.2L226.7,84.8z"/>
		<path class="st2" d="M224.1,84.8L224.1,84.8l-7.1,0l-2.6,0l-2.2,0l-3.1,0l-1.2,0l-2.2,0l-1.1,0h-0.5l-0.7,0h0l-5.3,0l-1,0l-13.7,0
			l-2.5,0l-10,0l-1.3,0h-0.5c0,0,0,0,0,0h-0.5l-2.1,0l-5.8,0v0l-2.8,0l-1.9,0h-0.4l-6,0V12.5l74.1-5.6V7L224.1,84.8z"/>
		<path class="st1" d="M186.8,5.6c1.6,0,3-1.1,3-2.5s-1.3-2.5-3-2.5c-1.6,0-3,1.1-3,2.5S185.1,5.6,186.8,5.6z"/>
		<path class="st3" d="M185.1,5.6c1.6,0,3-1.1,3-2.5s-1.3-2.5-3-2.5c-1.6,0-3,1.1-3,2.5S183.4,5.6,185.1,5.6z"/>
		<path class="st1" d="M209.8,0l-46.3,3.2l0.3,2.9L210,2.9L209.8,0z"/>
		<path class="st2" d="M208.1,0l-46.3,3.2l0.3,2.9l46.3-3.2L208.1,0z"/>
		<path class="st4" d="M212.4,68.7c-2.5-8.1-3.8-8.7-3.8-8.7l-14-6.1l-0.1,0l-7.9,5l-3.4-4.5l-0.2-0.1c0,0-0.1,0-0.2,0.1
			c-1.2,0.4-7.5,2.6-12.1,5.3l-0.1,0l-5.5,2.3l-1,3.1l-1.1,3.6l-3.9,15.6v0l2.8,0v0l5.8,0l0.9-3.8l1.1,3.9h0.5c0,0,0,0,0,0h0.5
			l1.3,0l10,0l2.5,0l13.7,0l1,0l5.3,0h0l0.7,0v0l0.4-3.4l0.2-1l1,4.4l0,0l2.2,0l1.2,0l3.1,0l2.2,0v0C215,81,213.3,71.7,212.4,68.7z"
			/>
		<path class="st5" d="M200.3,44.8L200.3,44.8C200.3,44.8,200.3,44.8,200.3,44.8c-0.1-0.2-0.8-2.1-2.8-1.1c-2.1,1.1-4.6-5.5-4.6-5.5
			s-6.4,1.5-10.2,1.3c-0.3,0-0.5-0.1-0.8-0.2c-0.9,1.6-1.2,3.4-0.9,5.1c0.3,1.7,1.3,3.3,2.7,4.6l-0.7,5.2l3.5,4.7l7.8-5
			c0,0,0.1,1.3,0.4-3.1c1.5-0.6,2.8-1.5,3.8-2.6c1-1.1,1.7-2.5,1.9-3.9C200.4,44.5,200.3,44.7,200.3,44.8z"/>
		<path class="st6" d="M200.6,44.5c0.9-1.7,3.2-6.7-0.9-9.7c-3.4-2.5-15.3-4.7-19,1.9c-0.1,0.3-0.2,0.5-0.2,0.8c0,0.3,0,0.6,0.1,0.8
			c0.1,0.3,0.3,0.5,0.5,0.7c0.2,0.2,0.5,0.4,0.8,0.5c0.1-0.1,0.1-0.2,0.2-0.3c0.2,0.1,0.4,0.1,0.6,0.1c3.9,0.2,10.2-1.3,10.2-1.3
			s2.5,6.6,4.6,5.5c2-1,2.7,0.9,2.8,1.1c0-0.1,0.1-0.3,0.3-0.6c0.1-0.4,0.1-0.8,0.1-1.1c0,0.1,0,0.1,0,0.2
			C200.7,43.7,200.6,44.1,200.6,44.5z"/>
		<path class="st2" d="M125.5,221c35.9,0,65-3.9,65-8.7c0-4.8-29.1-8.7-65-8.7c-35.9,0-65,3.9-65,8.7C60.5,217.1,89.6,221,125.5,221
			z"/>
		<path class="st7" d="M225.8,194.7l-14.1,14.1l-0.3,0.3l-82.9-10.9v-81.2h97.1L225.8,194.7z"/>
		<path class="st2" d="M136.7,147.6l-0.1,0.7l16.9,1.1l0.1-0.7L136.7,147.6z"/>
		<path class="st2" d="M178.1,150.8l-0.1,0.7l17.7,1.1l0.1-0.7L178.1,150.8z"/>
		<path class="st2" d="M211.5,139.6l-83.2-4.4l-0.1,0.7l38,2l0.6,65.3l0.8,0l-0.6-65.3l44.3,2.3L211.5,139.6z"/>
		<path class="st1" d="M225.8,194.7l-14.1,14.1v-91.9h13.9L225.8,194.7z"/>
		<path class="st2" d="M134.2,118.5h-7.6v-4.4l20.3-3.3l1.3-2.2l79.4,1.8v6.2l-15.8,5l-10.3-0.3c0,0-15.6,11.2-34.2,10.2
			S134.2,118.5,134.2,118.5z"/>
		<path class="st8" d="M203.2,114.4l-4.4,2.7l-12.4-0.3c0,0,0,0,0,0h0l-0.9,0h0l-0.8,0l-2.5-0.1l-0.2,0l-2.2,0l-0.1,0l-2.7-0.1
			l-0.2,0l-2,0l-0.3,0l-2.4-0.1l-0.8,0l-4.3-0.1l-1.1,0l-11.3-0.2c0,0-8.1,0.3-8.4-1.7c0,0,0-0.1,0-0.1c0-1.1,1.4-1.4,2.7-1.4
			c0.8,0,1.6,0.1,2.3,0.3l3.2,0.1l2,0l6.3,0.1l5.4,0.1l1.9,0l2.7,0.1l1.1,0l4,0.1l1.9,0l4,0.1L203.2,114.4z"/>
		<path class="st3" d="M179.6,116.2c0.5,0,0.8-0.3,0.8-0.7c0-0.4-0.4-0.7-0.8-0.7c-0.5,0-0.8,0.3-0.8,0.7
			C178.7,115.9,179.1,116.2,179.6,116.2z"/>
		<path class="st8" d="M180,113.7c4.4,0,8-0.3,8-0.7c0-0.4-3.6-0.7-8-0.7c-4.4,0-8,0.3-8,0.7C172,113.3,175.6,113.7,180,113.7z"/>
		<path class="st3" d="M175,103.7l7,1.5l-0.8,2.8l-10-2.1l0.1-0.2c0.2-0.7,0.7-1.3,1.4-1.7C173.3,103.7,174.2,103.5,175,103.7z"/>
		<path class="st3" d="M172.3,106l3.8,0.5l0,0.1c-0.1,0.4-0.3,0.7-0.6,0.9c-0.3,0.2-0.8,0.3-1.2,0.2l-0.7-0.1
			c-0.4-0.1-0.8-0.2-1-0.5c-0.2-0.3-0.4-0.6-0.3-1L172.3,106L172.3,106z"/>
		<path class="st1" d="M181.2,107.3l-5.3-1.1c-0.2,0.3-0.4,0.5-0.7,0.6c-0.3,0.1-0.7,0.2-1,0.2l-0.4-0.1c-0.4-0.1-0.8-0.2-1-0.5
			c-0.3-0.3-0.4-0.6-0.4-1l-0.9-0.2c-0.1,0.2-0.2,0.4-0.3,0.7l1.2,0.2c0,0.4,0.1,0.7,0.4,1c0.3,0.3,0.6,0.5,1,0.5l0.4,0.1
			c0.4,0,0.7,0,1-0.2c0.3-0.1,0.6-0.4,0.7-0.6l5.3,1.1l0.8-2.8l-0.2,0L181.2,107.3z"/>
		<path class="st3" d="M180.3,113.3c-0.4,0-0.8-0.1-1.2-0.2c-0.4-0.1-0.7-0.3-1-0.6c-0.3-0.3-0.5-0.6-0.7-0.9
			c-0.1-0.3-0.2-0.7-0.2-1.1l0.5-7.5l5.7-0.2v7.9c0,0.3-0.1,0.7-0.2,1c-0.2,0.3-0.4,0.6-0.7,0.9c-0.3,0.2-0.6,0.4-1,0.6
			C181.1,113.2,180.7,113.3,180.3,113.3z"/>
		<path class="st3" d="M183,103h-5.1c0.9-1.2,0.3-2.3-0.9-3.6c-0.1-0.1-0.1-0.2-0.1-0.2c0-0.1,0-0.2,0-0.3c0-0.1,0.1-0.2,0.2-0.2
			s0.2-0.1,0.3-0.1h2c2,0,3.7,1.6,3.7,3.6V103z"/>
		<path class="st1" d="M178.6,99.4c-0.1-0.1-0.1-0.2-0.1-0.2c0-0.1,0-0.2,0-0.3c0-0.1,0.1-0.2,0.2-0.2c0.1-0.1,0.2-0.1,0.3-0.1h-1.7
			c-0.1,0-0.2,0-0.3,0.1s-0.2,0.1-0.2,0.2c0,0.1-0.1,0.2,0,0.3c0,0.1,0.1,0.2,0.1,0.2c1.2,1.2,1.8,2.4,0.9,3.6h1.7
			C180.4,101.8,179.8,100.6,178.6,99.4z"/>
		<path class="st9" d="M154.2,107.2l6.5,2c0,0,15.4,1.1,13.4,4.4c-2,3.4-15.2,1.2-15.2,1.2l-6.3-3.7L154.2,107.2z"/>
		<path class="st10" d="M164,112.2c-0.4,0-0.8,0.1-1.2,0.4c-0.3,0.3-0.5,0.6-0.5,1c-0.1-0.1-0.2-0.1-0.3-0.2
			c0.3-0.2,0.6-0.5,0.7-0.8c0.1-0.3,0.1-0.7,0-1s-0.4-0.6-0.7-0.7c-0.3-0.2-0.7-0.2-1.1-0.2c-0.4,0.1-0.7,0.2-1,0.5
			c-0.3,0.2-0.4,0.6-0.4,0.9c0,0.3,0.1,0.7,0.3,0.9c0.2,0.3,0.5,0.5,0.9,0.6c-0.1,0.1-0.3,0.3-0.3,0.4c-0.1,0.2-0.1,0.3-0.1,0.5
			c0,0.2,0.1,0.3,0.2,0.5c0.1,0.1,0.3,0.3,0.4,0.3c0.2,0.1,0.4,0.1,0.6,0.1c0.2,0,0.4,0,0.6-0.1c0.2-0.1,0.3-0.2,0.5-0.3
			c0.1-0.1,0.2-0.3,0.2-0.5c0.2,0.2,0.4,0.3,0.7,0.4c0.3,0.1,0.6,0.1,0.8,0.1c0.3,0,0.5-0.1,0.8-0.3c0.2-0.1,0.4-0.3,0.5-0.6
			c0.1-0.2,0.2-0.5,0.2-0.7c0-0.2-0.1-0.5-0.3-0.7c-0.2-0.2-0.4-0.4-0.6-0.5S164.2,112.2,164,112.2z"/>
		<path class="st10" d="M166.9,112.9c-0.4,0-0.8,0.1-1.2,0.4c-0.3,0.3-0.5,0.6-0.5,1c-0.1-0.1-0.2-0.1-0.3-0.2
			c0.3-0.2,0.6-0.5,0.7-0.8c0.1-0.3,0.1-0.7,0-1c-0.1-0.3-0.4-0.6-0.7-0.7c-0.3-0.2-0.7-0.2-1.1-0.2c-0.4,0.1-0.7,0.2-1,0.5
			c-0.3,0.2-0.4,0.6-0.4,0.9c0,0.3,0.1,0.7,0.3,0.9c0.2,0.3,0.5,0.5,0.9,0.6c-0.1,0.1-0.3,0.3-0.3,0.4c-0.1,0.2-0.1,0.3-0.1,0.5
			c0,0.2,0.1,0.3,0.2,0.5c0.1,0.1,0.3,0.3,0.4,0.3c0.2,0.1,0.4,0.1,0.6,0.1c0.2,0,0.4,0,0.6-0.1c0.2-0.1,0.3-0.2,0.5-0.3
			c0.1-0.1,0.2-0.3,0.2-0.5c0.2,0.2,0.4,0.3,0.7,0.4c0.3,0.1,0.6,0.1,0.8,0.1c0.3,0,0.5-0.1,0.8-0.3s0.4-0.3,0.5-0.6
			c0.1-0.2,0.2-0.5,0.2-0.7c0-0.2-0.1-0.5-0.3-0.7c-0.2-0.2-0.4-0.4-0.6-0.5C167.5,113,167.2,112.9,166.9,112.9z"/>
		<path class="st11" d="M159,107.1l-5.9,8.3l-12.4-7.1l-14.2-8.2L118,80.8l-8.7-13.7l10.9-2.8c0,0,3.8,0.1,8.6,7.8
			c4.8,7.7,9.2,20.9,9.2,20.9l5.8,3.9L159,107.1z"/>
		<path class="st1" d="M159,107.1l-5.9,8.3l-12.4-7.1l-14.2-8.2L118,80.8l-8.7-13.7l10.9-2.8c0,0,3.8,0.1,8.6,7.8
			c4.8,7.7,9.2,20.9,9.2,20.9l5.8,3.9L159,107.1z"/>
		<path class="st9" d="M186.3,116.8l-15.1-0.3l-1.2-1.2l-0.8-0.8l-0.9-0.9l-1-1l1.7-2.3l0.8-1.1l3.4,1.9l2.4,1.3c0,0,2,0.6,4.4,1.4
			C182.2,114.7,184.8,115.8,186.3,116.8z"/>
		<path class="st9" d="M128.1,50.4c5.7,0,10.3-4,10.3-8.9c0-4.9-4.6-8.9-10.3-8.9s-10.3,4-10.3,8.9
			C117.7,46.4,122.4,50.4,128.1,50.4z"/>
		<path class="st9" d="M120.1,44l-1,12.9l12.9,1.3c0,0,0-10.6,1-12S120.1,44,120.1,44z"/>
		<path class="st11" d="M148.7,60.6L132,54.5c0,0-8-5.3-12.7-1.4l-2.1,2.6c0,0-12.8,5.9-12.8,10.8l1.5,24.7c0,0-4.1,13.7,2.1,14.6
			l33.6,2.7c0,0,4.6-4.9,0.5-11.1l1.5-14.6L148.7,60.6z"/>
		<path class="st11" d="M137.4,61l11.4-0.4c0,0,0.8,0.8,3.4,9.2c2.6,8.4,5.9,22.3,5.9,22.3l16.5,18l-8,6.9L145,96.6L142,76.1
			L137.4,61z"/>
		<path class="st12" d="M143,107.6l-37.1-2.8c0,0-3.7,20.1-3.2,28.1c0.5,8,1,20.4,1,20.4l-4.1,54.1l16-1.8l2.1-44.8l6.7-24.4l7.7,31
			l5.2,39.9l13.9-1.3l-4.6-48.3C146.7,157.7,150.8,114.2,143,107.6z"/>
		<path class="st12" d="M148.2,203.8l4.6,1.3c0,0,9.8-2.2,7.2,3.5c-2.6,5.8-9.8,4.9-9.8,4.9s-8.8,5.8-12.4,1.3l2.1-9.3L148.2,203.8z
			"/>
		<path class="st12" d="M110.5,203.8l4.6,1.3c0,0,9.8-2.2,7.2,3.5c-2.6,5.8-9.8,4.9-9.8,4.9s-8.8,5.8-12.4,1.3l2.1-9.3L110.5,203.8z
			"/>
		<path class="st13" d="M120.1,49.3c0,0-10.8-6.7-5.2-14.6c3.9-5.5,12.1-5.1,16.7-4.3c1.2,0.2,2.4,0.7,3.4,1.3
			c1,0.7,1.8,1.5,2.3,2.5c0.8,1.6,0.8,3.1-2.3,3.1c-6.2,0-3.1,4-3.1,4s-4.1,0.9-3.1,4C129.9,48.4,120.1,49.3,120.1,49.3z"/>
		<path class="st10" d="M185.9,116.9c0.7,0,1.3-0.5,1.3-1.1c0-0.6-0.6-1.1-1.3-1.1c-0.7,0-1.3,0.5-1.3,1.1
			C184.6,116.4,185.2,116.9,185.9,116.9z"/>
		<path class="st10" d="M184.6,115.1c0-0.2-0.1-0.4-0.2-0.6c-0.1-0.2-0.3-0.4-0.5-0.5c-0.3-0.2-0.7-0.3-1.1-0.3c0,0,0,0-0.1,0
			c-0.1-0.3-0.3-0.6-0.5-0.7c-0.3-0.2-0.6-0.3-0.9-0.3c-0.3,0-0.7,0-1,0.2c-0.3,0.2-0.5,0.4-0.7,0.7c-0.3-0.1-0.6-0.2-0.9-0.1
			c-0.3,0.1-0.6,0.2-0.7,0.4c-1.2-0.1-2.5-0.4-3.6-0.8c-0.3,0-0.6,0.1-0.9,0.2c-0.3,0.1-0.5,0.4-0.6,0.6c-0.1,0.2-0.2,0.4-0.2,0.6
			c0,0.3,0.1,0.5,0.2,0.7c-0.3,0-0.6,0.2-0.8,0.4c-0.2,0.2-0.3,0.5-0.3,0.7c0,0.1,0,0.2,0.1,0.4l2.4,0.1c0-0.1,0.1-0.1,0.1-0.2
			c0.1,0.1,0.2,0.1,0.3,0.2l2,0l0.1-0.1c0,0,0,0.1,0.1,0.1l2.7,0.1c0,0,0,0,0-0.1c0,0,0,0,0,0.1l2.2,0c0.1-0.1,0.1-0.3,0.2-0.4
			c0,0,0,0,0,0c0,0.1,0,0.1,0,0.2c0,0.1,0,0.1,0,0.2l2.5,0.1c0-0.1,0-0.2,0-0.3c0-0.2-0.1-0.5-0.3-0.7
			C184.5,115.7,184.6,115.4,184.6,115.1z M180.1,115.1c-0.1,0.1-0.2,0.1-0.2,0.2c0,0.1,0,0.1,0.1,0.2c0.1-0.1,0.2-0.2,0.4-0.2
			C180.2,115.2,180.2,115.1,180.1,115.1L180.1,115.1z"/>
		<path class="st10" d="M197.3,117.3c0.7,0,1.3-0.5,1.3-1.1c0-0.6-0.6-1.1-1.3-1.1c-0.7,0-1.3,0.5-1.3,1.1
			C196,116.8,196.6,117.3,197.3,117.3z"/>
		<path class="st10" d="M196,115.5c0-0.2-0.1-0.4-0.2-0.6c-0.1-0.2-0.3-0.4-0.5-0.5c-0.3-0.2-0.7-0.3-1.1-0.3c0,0,0,0-0.1,0
			c-0.1-0.3-0.3-0.6-0.5-0.7c-0.3-0.2-0.6-0.3-0.9-0.3c-0.3,0-0.7,0-1,0.2c-0.3,0.2-0.5,0.4-0.7,0.7c-0.3-0.1-0.6-0.2-0.9-0.1
			c-0.3,0.1-0.6,0.2-0.7,0.4c-1.2-0.1-2.5-0.4-3.6-0.8c-0.3,0-0.6,0.1-0.9,0.2c-0.3,0.1-0.5,0.4-0.6,0.6c-0.1,0.2-0.2,0.4-0.2,0.6
			c0,0.3,0.1,0.5,0.2,0.7c-0.3,0-0.6,0.2-0.8,0.4c-0.2,0.2-0.3,0.5-0.3,0.7c0,0.1,0,0.2,0.1,0.4l2.4,0.1c0-0.1,0.1-0.1,0.1-0.2
			c0.1,0.1,0.2,0.1,0.3,0.2l2,0l0.1-0.1c0,0,0,0.1,0.1,0.1l2.7,0.1c0,0,0,0,0-0.1c0,0,0,0,0,0.1l2.2,0c0.1-0.1,0.1-0.3,0.2-0.4
			c0,0,0,0,0,0c0,0.1,0,0.1,0,0.2c0,0.1,0,0.1,0,0.2l2.5,0.1c0-0.1,0-0.2,0-0.3c0-0.2-0.1-0.5-0.3-0.7
			C195.9,116,196,115.7,196,115.5z M191.5,115.4c-0.1,0.1-0.2,0.1-0.2,0.2c0,0.1,0,0.1,0.1,0.2c0.1-0.1,0.2-0.2,0.4-0.2
			C191.6,115.5,191.6,115.5,191.5,115.4L191.5,115.4z"/>
		<path class="st10" d="M179,116.6c0.5,0,0.9-0.4,0.9-0.8c0-0.5-0.4-0.8-0.9-0.8c-0.5,0-1,0.4-1,0.8
			C178.1,116.2,178.5,116.6,179,116.6z"/>
		<path class="st10" d="M178.1,115.2c0-0.2,0-0.3-0.1-0.5c-0.1-0.1-0.2-0.3-0.3-0.4c-0.2-0.2-0.5-0.2-0.8-0.2c0,0,0,0,0,0
			c-0.1-0.2-0.2-0.4-0.4-0.6c-0.2-0.1-0.4-0.2-0.7-0.3c-0.3,0-0.5,0-0.7,0.1c-0.2,0.1-0.4,0.3-0.5,0.5c-0.2-0.1-0.4-0.1-0.7-0.1
			c-0.2,0-0.4,0.2-0.5,0.3c-0.9-0.1-1.8-0.3-2.7-0.6c-0.2,0-0.5,0.1-0.7,0.2c-0.2,0.1-0.4,0.3-0.5,0.4c-0.1,0.1-0.1,0.3-0.1,0.5
			c0,0.2,0.1,0.4,0.2,0.6c-0.2,0-0.4,0.1-0.6,0.3c-0.2,0.1-0.2,0.3-0.2,0.5c0,0.1,0,0.2,0.1,0.3l1.8,0c0,0,0-0.1,0.1-0.2
			c0.1,0.1,0.1,0.1,0.2,0.2l1.5,0l0.1-0.1c0,0,0,0,0,0.1l2,0c0,0,0,0,0,0c0,0,0,0,0,0l1.6,0c0.1-0.1,0.1-0.2,0.1-0.3c0,0,0,0,0,0
			c0,0,0,0.1,0,0.1c0,0.1,0,0.1,0,0.2l1.9,0c0-0.1,0-0.1,0-0.2c0-0.2-0.1-0.4-0.2-0.5C178,115.6,178.1,115.4,178.1,115.2z
			 M174.7,115.2c-0.1,0.1-0.1,0.1-0.2,0.2c0,0,0,0.1,0,0.1c0.1-0.1,0.2-0.1,0.3-0.2C174.8,115.2,174.7,115.2,174.7,115.2z"/>
		<path class="st10" d="M165.5,116.6c0.5,0,1-0.4,1-0.8c0-0.5-0.4-0.8-1-0.8s-0.9,0.4-0.9,0.8C164.6,116.2,165,116.6,165.5,116.6z"
			/>
		<path class="st10" d="M164.6,115.2c0-0.2,0-0.3-0.1-0.5c-0.1-0.1-0.2-0.3-0.3-0.4c-0.2-0.2-0.5-0.2-0.8-0.2c0,0,0,0,0,0
			c-0.1-0.2-0.2-0.4-0.4-0.6c-0.2-0.1-0.4-0.2-0.7-0.3c-0.3,0-0.5,0-0.7,0.1c-0.2,0.1-0.4,0.3-0.5,0.5c-0.2-0.1-0.4-0.1-0.7-0.1
			c-0.2,0-0.4,0.2-0.5,0.3c-0.9-0.1-1.8-0.3-2.7-0.6c-0.2,0-0.5,0.1-0.7,0.2c-0.2,0.1-0.4,0.3-0.5,0.4c-0.1,0.1-0.1,0.3-0.1,0.5
			c0,0.2,0.1,0.4,0.2,0.6c-0.2,0-0.4,0.1-0.6,0.3c-0.2,0.1-0.2,0.3-0.2,0.5c0,0.1,0,0.2,0.1,0.3l1.8,0c0,0,0-0.1,0.1-0.2
			c0.1,0.1,0.1,0.1,0.2,0.2l1.5,0l0.1-0.1c0,0,0,0,0,0.1l2,0c0,0,0,0,0,0c0,0,0,0,0,0l1.6,0c0.1-0.1,0.1-0.2,0.1-0.3c0,0,0,0,0,0
			c0,0,0,0.1,0,0.1c0,0.1,0,0.1,0,0.2l1.9,0c0-0.1,0-0.1,0-0.2c0-0.2-0.1-0.4-0.2-0.5C164.5,115.6,164.6,115.4,164.6,115.2z
			 M161.2,115.2c-0.1,0.1-0.1,0.1-0.2,0.2c0,0,0,0.1,0,0.1c0.1-0.1,0.2-0.1,0.3-0.2C161.3,115.2,161.2,115.2,161.2,115.2z"/>
		<path class="st3" d="M209.9,104.7v-2.2h-2.1v0.4c-0.2,0-0.4,0.2-0.4,0.5c0,0.3,0.2,0.5,0.4,0.5v0.7h-1.7v7.3h5.5v-7.3H209.9z"/>
	</g>
</g>
</svg>
