<?xml version="1.0" encoding="utf-8"?>
<!-- Generator: Adobe Illustrator 17.0.0, SVG Export Plug-In . SVG Version: 6.00 Build 0)  -->
<!DOCTYPE svg PUBLIC "-//W3C//DTD SVG 1.1//EN" "http://www.w3.org/Graphics/SVG/1.1/DTD/svg11.dtd">
<svg version="1.1" id="Слой_1" xmlns="http://www.w3.org/2000/svg" xmlns:xlink="http://www.w3.org/1999/xlink" x="0px" y="0px"
	 width="612px" height="437px" viewBox="0 0 612 437" enable-background="new 0 0 612 437" xml:space="preserve">
<g>
	<g>
		<g>
			<defs>
				<rect id="SVGID_1_" y="6.436" width="612" height="423.128"/>
			</defs>
			<clipPath id="SVGID_2_">
				<use xlink:href="#SVGID_1_"  overflow="visible"/>
			</clipPath>
			<g clip-path="url(#SVGID_2_)">
				<path fill="#B7B7B7" d="M569.137,283.555c-2.98,8.71-4.584,18.108-4.126,27.735c0.229,9.398,2.292,18.795,5.96,27.276
					c0.458,0.917,0.917,2.063,1.375,3.209c5.73,12.378,13.753,25.214,9.398,37.82c-3.438,9.856-13.065,15.128-21.775,19.025
					c-34.382,14.899-70.598,24.755-107.501,28.652c-27.276,2.98-54.553,2.751-81.829,2.751
					c-59.137-0.229-118.274-0.688-177.182-5.73c-27.047-2.292-53.865-5.73-79.995-14.211c-35.528-11.69-68.076-32.319-94.894-60.512
					c-0.917-0.917-1.834-2.063-2.751-2.98c-5.73-6.189-10.773-13.294-13.294-21.546c-5.272-16.733,0.917-34.84,8.939-50.198
					c8.022-15.128,17.879-29.798,21.317-46.989c4.813-25.443-5.96-50.656-13.982-74.953c-8.252-24.297-13.524-53.407,0-74.494
					c6.647-10.315,16.962-16.962,27.276-22.692c29.568-16.962,62.804-25.901,96.728-26.589c19.712-0.458,40.112,1.834,58.679-5.96
					c10.315-4.355,19.712-11.69,30.485-14.67c18.337-4.813,37.133,3.667,53.636,13.982c9.398,5.96,18.566,12.148,28.422,17.191
					c7.106,3.667,15.357,7.793,22.921,9.856c7.564,2.292,15.128-2.292,21.775-5.96c14.211-7.793,27.506-19.712,44.009-21.546
					c20.629-2.292,41.258,12.378,61.658,7.793c8.71-2.063,16.503-7.335,24.984-10.315c22.234-7.793,46.072,1.834,66.93,12.836
					c13.065,6.876,26.13,14.899,34.153,28.193c6.189,10.085,8.939,22.234,11.231,34.153c9.398,45.155,18.108,95.124-2.063,135.694
					C590.683,248.715,576.013,263.843,569.137,283.555z"/>
				
					<linearGradient id="SVGID_3_" gradientUnits="userSpaceOnUse" x1="126.8893" y1="-193.6825" x2="126.8893" y2="-9.344" gradientTransform="matrix(2.2921 0 0 -2.2921 15.5078 -14.9581)">
					<stop  offset="0" style="stop-color:#000000;stop-opacity:0.2"/>
					<stop  offset="0.48" style="stop-color:#FFFFFF;stop-opacity:0"/>
					<stop  offset="1" style="stop-color:#FFFFFF;stop-opacity:0"/>
				</linearGradient>
				<path fill="url(#SVGID_3_)" d="M608.103,206.31c-1.834,8.022-4.813,15.816-8.252,23.38
					c-9.169,18.566-23.838,33.694-30.715,53.407c-0.917,2.98-1.834,5.96-2.521,8.939c-0.229,1.146-0.458,2.521-0.688,3.667
					c-2.292,14.211-0.688,28.881,5.043,42.175c0.458,0.917,0.917,2.063,1.375,3.209c5.73,12.378,13.753,25.214,9.398,37.82
					c-0.458,1.375-0.917,2.521-1.604,3.667c-4.126,7.564-12.607,11.919-20.171,15.357c-34.382,14.899-70.598,24.755-107.501,28.652
					c-7.106,0.688-14.211,1.375-21.317,1.834c-20.171,1.146-40.342,1.146-60.512,0.917c-59.137-0.229-118.274-0.688-177.182-5.73
					c-27.047-2.292-53.865-5.73-79.996-14.211c-35.528-11.69-68.076-32.319-94.894-60.512c-0.917-0.917-1.834-2.063-2.751-2.98
					c-5.73-6.189-10.773-13.294-13.294-21.546c-3.667-11.461-1.604-23.838,2.292-35.299c1.834-5.043,4.126-10.085,6.647-14.899
					c0.688-1.375,1.375-2.521,2.063-3.897c7.564-13.753,16.045-27.276,19.025-43.092c3.667-19.483-1.834-38.737-8.022-57.762
					c-0.458-1.604-1.146-3.438-1.604-5.043c-1.375-4.126-2.98-8.252-4.355-12.378c-8.252-24.297-13.524-53.407,0-74.494
					c0.458-0.688,0.688-1.146,1.146-1.834c6.418-8.939,15.357-15.128,24.755-20.171l1.146-0.688
					c30.027-16.503,63.263-25.443,97.187-26.36c19.712-0.458,40.112,1.834,58.679-5.96c10.315-4.355,19.712-11.69,30.485-14.67
					c18.337-4.813,37.133,3.667,53.636,13.982c9.398,5.73,18.566,12.148,28.422,17.191c7.106,3.667,15.357,7.793,22.921,9.856
					c7.564,2.292,15.128-2.292,21.775-5.96c14.211-7.793,27.506-19.712,44.009-21.546c20.629-2.292,41.258,12.378,61.658,7.793
					c8.71-2.063,16.503-7.335,24.984-10.315c22.234-7.793,46.072,1.834,66.93,12.836c11.461,6.189,22.921,13.065,31.173,23.609
					c1.146,1.375,2.063,2.98,3.209,4.584c0,0.229,0.229,0.458,0.229,0.458c5.96,9.856,8.481,22.005,11.002,33.465
					c4.813,22.692,9.398,46.76,10.085,70.139C612.458,178.575,611.312,192.786,608.103,206.31z"/>
				<g opacity="0.1">
					<path opacity="0.1" enable-background="new    " d="M581.515,378.679c-0.458,1.375-0.917,2.521-1.604,3.667
						c-29.339,16.503-60.512,28.193-92.831,34.84c-18.108,3.667-36.903,7.335-56.157,10.773
						c-20.171,1.146-40.342,1.146-60.512,0.917c-59.137-0.229-118.274-0.688-177.182-5.73c-27.047-2.292-53.865-5.73-79.996-14.211
						c-35.528-11.69-68.076-32.319-94.894-60.512c-0.917-0.917-1.834-2.063-2.751-2.98c-5.73-6.189-10.773-13.294-13.294-21.546
						c-3.667-11.461-1.604-23.838,2.292-35.299l561.573,7.106c-2.292,14.211-0.688,28.881,5.043,42.175
						c0.458,0.917,0.917,2.063,1.375,3.209C577.847,353.236,585.87,366.072,581.515,378.679z"/>
					<path opacity="0.1" enable-background="new    " d="M587.245,55.488H43.78l1.146-0.688
						c30.715-16.503,63.951-25.443,97.874-26.36c19.712-0.458,40.112,1.834,58.679-5.96c10.315-4.355,19.712-11.69,30.485-14.67
						c18.337-4.813,37.133,3.667,53.636,13.982c9.398,5.73,18.566,12.148,28.422,17.191c7.106,3.667,15.357,7.793,22.921,9.856
						c7.564,2.292,15.128-2.292,21.775-5.96c14.211-7.793,27.506-19.712,44.009-21.546c20.629-2.292,41.258,12.378,61.658,7.793
						c8.71-2.063,16.503-7.335,24.984-10.315c22.234-7.793,46.072,1.834,66.93,12.836C567.533,37.838,579.222,44.944,587.245,55.488
						z"/>
					<path opacity="0.1" enable-background="new    " d="M24.067,169.178c6.418,19.025,11.919,38.279,8.022,57.762
						c-2.98,15.816-11.69,29.11-19.025,43.092l553.551,22.005c0.688-2.98,1.604-5.96,2.521-8.939
						c6.876-19.712,21.546-34.84,30.715-53.407c3.667-7.335,6.418-15.128,8.252-23.38L24.067,169.178z M246.175,238.629h-13.982
						c0.917,0,1.834,0.229,2.751,0.458c0.917,0.458,1.604,0.917,2.292,1.604c0.688,0.688,1.146,1.604,1.604,2.521
						c0.458,0.917,0.458,2.063,0.458,2.98c0,0.917-0.229,2.063-0.458,2.98c-0.458,0.917-0.917,1.834-1.604,2.521
						c-0.688,0.688-1.375,1.375-2.292,1.604c-0.917,0.458-1.834,0.458-2.751,0.458h-81.142c-0.917,0-1.834-0.229-2.751-0.458
						c-0.917-0.458-1.604-0.917-2.292-1.604c-0.688-0.688-1.146-1.604-1.604-2.521c-0.458-0.917-0.458-2.063-0.458-2.98
						c0-0.917,0.229-2.063,0.458-2.98c0.458-0.917,0.917-1.834,1.604-2.521s1.375-1.375,2.292-1.604
						c0.917-0.458,1.834-0.458,2.751-0.458h13.982c-0.917,0-1.834-0.229-2.751-0.458c-0.917-0.458-1.604-0.917-2.292-1.604
						c-0.688-0.688-1.146-1.604-1.604-2.521c-0.458-0.917-0.458-2.063-0.458-2.98c0-0.917,0.229-2.063,0.458-2.98
						c0.458-0.917,0.917-1.834,1.604-2.521c0.688-0.688,1.375-1.375,2.292-1.604c0.917-0.458,1.834-0.458,2.751-0.458h-10.085
						c-1.834,0-3.667-0.917-4.813-2.292c-1.375-1.375-2.063-3.438-2.063-5.501s0.688-3.897,2.063-5.501
						c1.375-1.375,2.98-2.292,4.813-2.292h81.142c1.834,0,3.667,0.917,4.813,2.292c1.375,1.375,2.063,3.438,2.063,5.501
						s-0.688,3.897-2.063,5.501c-1.375,1.375-2.98,2.292-4.813,2.292h10.085c0.917,0,1.834,0.229,2.751,0.458
						c0.917,0.458,1.604,0.917,2.292,1.604c0.688,0.688,1.146,1.604,1.604,2.521c0.458,0.917,0.458,2.063,0.458,2.98
						c0,0.917-0.229,2.063-0.458,2.98c-0.458,0.917-0.917,1.834-1.604,2.521c-0.688,0.688-1.375,1.375-2.292,1.604
						S247.092,238.629,246.175,238.629L246.175,238.629z"/>
					<path opacity="0.1" enable-background="new    " d="M601.685,93.996c-2.521-11.69-5.043-23.609-11.002-33.465L19.254,75.658
						c-0.458,0.688-0.688,1.146-1.146,1.834c-13.524,21.088-8.252,50.198,0,74.494c1.375,4.126,2.751,8.252,4.355,12.148H612
						C611.083,140.755,606.499,116.688,601.685,93.996z M122.4,123.564h-13.982c0.917,0,1.834,0.229,2.751,0.458
						c0.917,0.458,1.604,0.917,2.292,1.604c0.688,0.688,1.146,1.605,1.604,2.521s0.458,2.063,0.458,2.98
						c0,0.917-0.229,2.063-0.458,2.98c-0.458,0.917-0.917,1.834-1.604,2.521c-0.688,0.688-1.375,1.375-2.292,1.604
						c-0.917,0.458-1.834,0.458-2.751,0.458H27.276c-0.917,0-1.834-0.229-2.751-0.458c-0.917-0.458-1.604-0.917-2.292-1.604
						c-0.688-0.688-1.146-1.604-1.604-2.521s-0.458-2.063-0.458-2.98c0-0.917,0.229-2.063,0.458-2.98
						c0.458-0.917,0.917-1.834,1.604-2.521c0.688-0.688,1.375-1.375,2.292-1.604c0.917-0.458,1.834-0.458,2.751-0.458h13.982
						c-0.917,0-1.834-0.229-2.751-0.458c-0.917-0.458-1.604-0.917-2.292-1.604c-0.688-0.688-1.146-1.605-1.604-2.521
						s-0.458-2.063-0.458-2.98c0-0.917,0.229-2.063,0.458-2.98c0.458-0.917,0.917-1.834,1.604-2.521
						c0.688-0.688,1.375-1.375,2.292-1.604c0.917-0.458,1.834-0.458,2.751-0.458H31.173c-1.834,0-3.667-0.917-4.813-2.292
						c-1.375-1.375-2.063-3.438-2.063-5.501s0.688-3.897,2.063-5.501c1.375-1.375,2.98-2.292,4.813-2.292h81.142
						c1.834,0,3.667,0.917,4.813,2.292c1.375,1.375,2.063,3.438,2.063,5.501s-0.688,3.897-2.063,5.501
						c-1.375,1.375-2.98,2.292-4.813,2.292H122.4c0.917,0,1.834,0.229,2.751,0.458c0.917,0.458,1.604,0.917,2.292,1.604
						c0.688,0.688,1.146,1.604,1.604,2.521s0.458,2.063,0.458,2.98c0,0.917-0.229,2.063-0.458,2.98
						c-0.458,0.917-0.917,1.834-1.604,2.521c-0.688,0.688-1.375,1.375-2.292,1.604S123.317,123.564,122.4,123.564L122.4,123.564z"/>
				</g>
				<path fill="#454554" d="M581.515,379.137c-3.438,9.856-13.065,15.128-21.775,19.025
					c-34.382,14.899-70.598,24.755-107.501,28.652c-27.276,2.98-54.553,2.751-81.829,2.751
					c-59.137-0.229-118.274-0.688-177.182-5.73c-27.047-2.292-53.865-5.73-79.996-14.211c-35.528-11.69-68.076-32.319-94.894-60.512
					c-0.917-0.917-1.834-2.063-2.751-2.98c8.022-1.146,16.274-1.375,24.297-0.688c22.692,1.604,44.926,8.71,67.618,11.69
					c87.789,11.69,177.64-35.987,263.366-12.148c26.36,7.335,51.573,21.317,78.62,24.297c40.112,4.126,78.391-16.503,117.816-26.36
					c1.604-0.458,3.438-0.917,5.043-1.146C577.847,353.694,585.87,366.53,581.515,379.137z"/>
				<path fill="#3F3D56" d="M475.847,174.908h-2.751v164.117h2.751V174.908z"/>
				<path fill="#474747" d="M478.369,369.739c-1.146,1.146-2.751,1.604-4.355,1.604s-2.98-0.458-4.355-1.604
					c-1.146-8.71,1.834-26.13,2.521-30.027c0-0.458,0.229-0.688,0.229-0.688h3.438c0.229,0.229,0.458,0.458,0.458,0.917
					C479.056,345.672,478.369,369.739,478.369,369.739z"/>
				<path opacity="0.1" enable-background="new    " d="M475.389,335.586v3.438h-1.375v-3.667c0.229,0,0.458,0,0.688,0
					C474.701,335.586,475.16,335.586,475.389,335.586z"/>
				<path opacity="0.1" enable-background="new    " d="M476.535,339.942c-0.688,0.458-1.375,0.458-2.063,0.458
					s-1.604-0.229-2.063-0.688c0-0.458,0.229-0.688,0.229-0.688h3.438C476.306,339.483,476.535,339.712,476.535,339.942z"/>
				<path fill="#474747" d="M474.472,339.942c1.604,0,2.98-0.917,2.98-1.834s-1.375-1.834-2.98-1.834s-2.98,0.917-2.98,1.834
					S472.867,339.942,474.472,339.942z"/>
				<path fill="#474747" d="M461.636,148.548l10.085-4.813l15.357,3.209l-11.69-9.856L461.636,148.548z"/>
				<path fill="#474747" d="M464.845,150.153l-2.98-1.834l10.315-5.501l15.128,3.897l-2.751,1.375l-12.607-2.98L464.845,150.153z"/>
				<path fill="#474747" d="M464.845,150.153l-2.98-1.834l10.544-5.96l14.899,4.584l-2.751,1.375l-12.607-2.98L464.845,150.153z"/>
				<path fill="#474747" d="M464.387,149.007l8.252,25.443h4.126l7.564-27.047l-12.378-3.209L464.387,149.007z"/>
				<path fill="#474747" d="M478.827,167.344l-1.604,5.73l-0.458,1.375h-4.126l-0.229-0.917l-1.834-5.96l3.209-2.063
					L478.827,167.344z"/>
				<path opacity="0.2" fill="#B7B7B7" enable-background="new    " d="M471.951,145.339l2.063,29.11h-1.375l-7.793-24.297
					L471.951,145.339z"/>
				<path opacity="0.1" enable-background="new    " d="M475.389,137.317l-3.438,5.73l-10.315,5.501L475.389,137.317z"/>
				<path opacity="0.1" enable-background="new    " d="M476.993,173.074l-0.229,1.375h-4.126l-0.229-0.917
					c0.458-0.458,0.688-0.688,1.146-0.917s0.917-0.229,1.375-0.229C475.618,172.387,476.535,172.616,476.993,173.074z"/>
				<path opacity="0.1" enable-background="new    " d="M475.389,174.908v2.521c-0.229,0-0.229,0-0.458,0
					c-0.458,0-0.688,0-1.146-0.229v-2.292H475.389z"/>
				<path fill="#474747" d="M474.93,176.742c1.604,0,2.98-0.917,2.98-1.834c0-1.146-1.375-1.834-2.98-1.834
					c-1.604,0-2.98,0.917-2.98,1.834C471.951,176.054,473.326,176.742,474.93,176.742z"/>
				<path fill="#474747" d="M343.82,341.775c0,0-35.07-1.604-38.737-77.245c-3.667-75.64,33.007-88.476,33.007-88.476
					s11.69-7.106,16.733-7.335s22.234,1.604,22.234,1.604l-19.025-4.126c0,0,26.589-11.231,34.611-12.148l-28.881,6.647
					c0,0-0.458-17.649,6.418-23.38c0,0-5.96-0.458-8.939,12.148c-0.917,3.667-2.521,7.106-4.814,9.856
					c-2.292,2.751-5.043,5.043-8.252,6.418c-10.773,4.584-25.443,11.919-28.881,18.108c0,0-6.189,7.106-5.272-11.461
					s5.501-34.611,7.106-35.07c0,0,12.836-14.899,30.485-15.816c0,0-10.315-4.584-27.964,9.856c0,0-1.375-7.335,5.043-16.045
					c6.647-8.71,16.962-26.818,28.193-28.652c0,0-15.587-1.146-28.193,21.317c0,0-4.584,3.209-5.043-5.043
					c-0.458-8.252-3.209-18.796-3.209-18.796s-3.897,19.254,4.126,27.735c0,0-15.357,21.775-14.67,46.53
					c0,0-4.813,11.231-6.418-1.834c0,0-0.917-18.108-2.98-33.236c-0.917-6.189-0.458-12.378,0.917-18.566
					c1.375-5.96,4.126-11.69,7.564-16.503c3.438-4.584,5.73-9.169,4.355-11.461l-17.649,23.151c0,0-14.899-38.049-25.672-46.072
					c-10.773-8.252-12.148-10.085-12.148-10.085l17.42,22.463l-22.004-8.481l22.004,11.231c0,0,10.085,9.169,16.045,33.924
					c5.73,24.755,6.418,40.342,6.418,40.342s-31.173-27.276-37.133-26.36l20.171,16.733c5.501,4.584,10.085,10.315,13.294,17.191
					c3.209,6.647,5.272,13.982,5.73,21.546c0,0-39.196-11.002-48.593-13.065l-17.879-20.171l13.524,19.025l-27.964-0.458
					l-16.045-12.607c0,0,12.607,11.69,11.461,12.378c-0.917,0.917-19.483,1.834-19.483,1.834s46.76-0.229,52.031,3.438
					c5.043,3.667,16.733,5.043,16.733,5.043l-33.236,5.501l39.425-3.209c0,0,29.798,5.96,31.631,16.274
					c0,0-6.189,17.42-10.085,24.526c-3.438,5.73-10.085,24.526-11.461,40.8s-3.209,41.488,1.834,56.845
					c5.043,15.357,7.106,24.067,4.355,28.652c-2.521,4.584-5.043,10.544,3.438,11.69s45.155-0.688,45.155-0.688
					S345.883,350.715,343.82,341.775z"/>
				<path opacity="0.1" enable-background="new    " d="M324.108,333.524c-3.667-2.063-7.793-2.751-11.919-1.604
					c-6.876,1.604-17.42,0.688-18.337,0.688"/>
				<path opacity="0.1" enable-background="new    " d="M302.103,244.36c0,0-1.604,29.11,1.375,34.84L302.103,244.36z"/>
				<path opacity="0.1" enable-background="new    " d="M295.915,279.2c0,0,2.063,27.276,3.667,32.548
					C300.957,317.249,295.915,279.2,295.915,279.2z"/>
				<path opacity="0.1" enable-background="new    " d="M293.852,212.27c-1.604,0.688-8.022,15.128-6.647,19.483
					C288.351,235.879,293.852,212.27,293.852,212.27z"/>
				<path opacity="0.1" enable-background="new    " d="M310.355,197.142c-0.688,0.458-3.667,8.71-3.209,11.231
					C307.834,210.894,310.355,197.142,310.355,197.142z"/>
				<path opacity="0.1" enable-background="new    " d="M282.162,245.964c0.688,8.481,1.146,13.982,0.688,20.858
					c-0.458,5.272-0.229,10.544,0.229,15.816"/>
				<path opacity="0.1" enable-background="new    " d="M363.762,147.631c-0.917,1.146-1.375,2.751-1.375,4.355s0.229,2.98,0,4.584
					c0,1.604-0.688,3.438-2.292,3.667"/>
				<path opacity="0.1" enable-background="new    " d="M338.778,97.204c-1.834,2.063-3.438,4.355-4.814,6.647
					c-0.458,0.688-0.917,1.604-1.375,2.063c-0.917,0.917-1.834,1.604-2.751,2.521c-2.063,1.834-3.667,4.584-4.355,7.335"/>
				<path opacity="0.1" enable-background="new    " d="M267.951,53.654c0.458,0.917,0.917,1.834,1.834,2.521
					c0.688,0.688,1.375,1.146,1.834,1.834s0.917,1.375,1.146,1.834c1.375,2.521,3.209,4.813,5.043,6.876"/>
				<path opacity="0.1" enable-background="new    " d="M300.728,96.746c-1.146,0.688-1.375,2.521-1.375,4.126
					c0,1.604,0.229,2.98-0.229,4.584c-0.229,0.688-0.688,1.146-0.917,1.834c-0.458,1.146-0.458,2.292-0.458,3.438
					c0,1.375,0,2.751,0.229,4.126c0,1.604,0.229,3.438,1.146,4.584"/>
				<path opacity="0.1" enable-background="new    " d="M299.811,178.346c-0.688-0.688-1.604-1.375-2.521-1.834
					c-0.688-0.458-1.604-0.917-2.521-1.146c-1.375-0.458-2.751-0.229-4.126-0.458s-2.751-0.688-3.897-1.604"/>
				<path opacity="0.1" enable-background="new    " d="M244.8,159.551c1.604,0,3.438,0.229,4.813,0.917
					c0.688,0.458,1.375,0.917,2.063,1.375c0.917,0.688,2.063,0.917,3.209,0.917"/>
				<path opacity="0.1" enable-background="new    " d="M267.492,167.115c-0.229-0.229-0.458-0.229-0.688,0
					c-0.229,0-0.458,0.229-0.458,0.458c-0.229,0.458-0.458,0.917-0.688,1.146c-0.688,0.688-1.604,0.688-2.521,0.917"/>
				<path opacity="0.1" enable-background="new    " d="M277.119,128.607l1.604,0.917c1.604,0.917,3.209,1.834,4.584,3.209"/>
				<path opacity="0.1" enable-background="new    " d="M294.998,145.569c1.146-0.229,1.834,0.917,2.063,2.063
					c0.229,1.146,0,2.292,0.229,3.438c0.229,0.917,0.917,1.834,1.604,2.521"/>
				<path opacity="0.1" enable-background="new    " d="M312.647,147.631c0.917,3.209-1.146,6.418-0.458,9.627
					c0.229,0.917,0.688,1.834,0.688,2.751c0.458,2.521-0.458,5.272-1.834,7.335"/>
				<path fill="#3F3D56" d="M154.719,367.906l0.917,1.834v-14.211h-0.917V367.906z"/>
				<path fill="#474747" d="M102.229,367.906l-0.917,1.834v-14.211h0.917V367.906z"/>
				<path fill="#474747" d="M107.96,329.627h-2.292v17.42h2.292V329.627z"/>
				<path fill="#474747" d="M153.115,329.627h-2.292v17.42h2.292V329.627z"/>
				<g opacity="0.1">
					<path opacity="0.1" enable-background="new    " d="M107.96,329.627h-2.292v17.42h2.292V329.627z"/>
					<path opacity="0.1" enable-background="new    " d="M153.115,329.627h-2.292v17.42h2.292V329.627z"/>
				</g>
				<path opacity="0.1" enable-background="new    " d="M107.96,329.627h-2.292v2.063h2.292V329.627z"/>
				<path opacity="0.1" enable-background="new    " d="M153.115,329.627h-2.292v2.063h2.292V329.627z"/>
				<path fill="#3F3D56" d="M156.324,328.939H102.23v2.521h54.094V328.939z"/>
				<path opacity="0.1" enable-background="new    " d="M107.96,332.607h-2.292v2.521h2.292V332.607z"/>
				<path opacity="0.1" enable-background="new    " d="M153.115,332.607h-2.292v2.521h2.292V332.607z"/>
				<path fill="#474747" d="M156.324,332.378H102.23v2.521h54.094V332.378z"/>
				<path opacity="0.1" enable-background="new    " d="M107.96,336.274h-2.292v2.521h2.292V336.274z"/>
				<path opacity="0.1" enable-background="new    " d="M153.115,336.274h-2.292v2.521h2.292V336.274z"/>
				<path fill="#474747" d="M156.324,336.045H102.23v2.521h54.094V336.045z"/>
				<path opacity="0.1" enable-background="new    " d="M107.96,339.712h-2.292v2.521h2.292V339.712z"/>
				<path opacity="0.1" enable-background="new    " d="M153.115,339.712h-2.292v2.521h2.292V339.712z"/>
				<path fill="#474747" d="M156.324,339.483H102.23v2.521h54.094V339.483z"/>
				<path opacity="0.1" enable-background="new    " d="M107.96,343.151h-2.292v2.521h2.292V343.151z"/>
				<path opacity="0.1" enable-background="new    " d="M153.115,343.151h-2.292v2.521h2.292V343.151z"/>
				<path fill="#474747" d="M156.324,343.151H102.23v2.521h54.094V343.151z"/>
				<g opacity="0.1">
					<path opacity="0.1" enable-background="new    " d="M106.813,330.773c0.229,0,0.229-0.229,0.229-0.458
						s-0.229-0.458-0.229-0.458c-0.229,0-0.229,0.229-0.229,0.458C106.355,330.544,106.584,330.773,106.813,330.773z"/>
					<path opacity="0.1" enable-background="new    " d="M106.813,334.211c0.229,0,0.229-0.229,0.229-0.458
						s-0.229-0.458-0.229-0.458c-0.229,0-0.229,0.229-0.229,0.458C106.355,334.211,106.584,334.211,106.813,334.211z"/>
					<path opacity="0.1" enable-background="new    " d="M106.813,337.879c0.229,0,0.229-0.229,0.229-0.458
						s-0.229-0.458-0.229-0.458c-0.229,0-0.229,0.229-0.229,0.458S106.584,337.879,106.813,337.879z"/>
					<path opacity="0.1" enable-background="new    " d="M106.813,341.317c0.229,0,0.229-0.229,0.229-0.458
						s-0.229-0.458-0.229-0.458c-0.229,0-0.229,0.229-0.229,0.458C106.355,341.088,106.584,341.317,106.813,341.317z"/>
					<path opacity="0.1" enable-background="new    " d="M106.813,344.755c0.229,0,0.229-0.229,0.229-0.458
						s-0.229-0.458-0.229-0.458c-0.229,0-0.229,0.229-0.229,0.458C106.355,344.755,106.584,344.755,106.813,344.755z"/>
					<path opacity="0.1" enable-background="new    " d="M151.969,330.773c0.229,0,0.229-0.229,0.229-0.458
						s-0.229-0.458-0.229-0.458c-0.229,0-0.229,0.229-0.229,0.458C151.51,330.544,151.739,330.773,151.969,330.773z"/>
					<path opacity="0.1" enable-background="new    " d="M151.969,334.211c0.229,0,0.229-0.229,0.229-0.458
						s-0.229-0.458-0.229-0.458c-0.229,0-0.229,0.229-0.229,0.458C151.51,334.211,151.739,334.211,151.969,334.211z"/>
					<path opacity="0.1" enable-background="new    " d="M151.969,337.879c0.229,0,0.229-0.229,0.229-0.458
						s-0.229-0.458-0.229-0.458c-0.229,0-0.229,0.229-0.229,0.458S151.739,337.879,151.969,337.879z"/>
					<path opacity="0.1" enable-background="new    " d="M151.969,341.317c0.229,0,0.229-0.229,0.229-0.458
						s-0.229-0.458-0.229-0.458c-0.229,0-0.229,0.229-0.229,0.458C151.51,341.088,151.739,341.317,151.969,341.317z"/>
					<path opacity="0.1" enable-background="new    " d="M151.969,344.755c0.229,0,0.229-0.229,0.229-0.458
						s-0.229-0.458-0.229-0.458c-0.229,0-0.229,0.229-0.229,0.458C151.51,344.755,151.739,344.755,151.969,344.755z"/>
				</g>
				<path fill="#474747" d="M106.813,330.544c0.229,0,0.229-0.229,0.229-0.458s-0.229-0.458-0.229-0.458
					c-0.229,0-0.229,0.229-0.229,0.458C106.355,330.544,106.584,330.544,106.813,330.544z"/>
				<path fill="#474747" d="M106.813,334.211c0.229,0,0.229-0.229,0.229-0.458s-0.229-0.458-0.229-0.458
					c-0.229,0-0.229,0.229-0.229,0.458C106.355,333.982,106.584,334.211,106.813,334.211z"/>
				<path fill="#474747" d="M106.813,337.649c0.229,0,0.229-0.229,0.229-0.458s-0.229-0.458-0.229-0.458
					c-0.229,0-0.229,0.229-0.229,0.458C106.355,337.42,106.584,337.649,106.813,337.649z"/>
				<path fill="#474747" d="M106.813,341.088c0.229,0,0.229-0.229,0.229-0.458s-0.229-0.458-0.229-0.458
					c-0.229,0-0.229,0.229-0.229,0.458S106.584,341.088,106.813,341.088z"/>
				<path fill="#474747" d="M106.813,344.755c0.229,0,0.229-0.229,0.229-0.458s-0.229-0.458-0.229-0.458
					c-0.229,0-0.229,0.229-0.229,0.458C106.355,344.526,106.584,344.755,106.813,344.755z"/>
				<path fill="#474747" d="M106.813,330.544c0.229,0,0.229-0.229,0.229-0.458s-0.229-0.458-0.229-0.458
					c-0.229,0-0.229,0.229-0.229,0.458C106.355,330.544,106.584,330.544,106.813,330.544z"/>
				<path fill="#474747" d="M106.813,334.211c0.229,0,0.229-0.229,0.229-0.458s-0.229-0.458-0.229-0.458
					c-0.229,0-0.229,0.229-0.229,0.458C106.355,333.982,106.584,334.211,106.813,334.211z"/>
				<path fill="#474747" d="M106.813,337.649c0.229,0,0.229-0.229,0.229-0.458s-0.229-0.458-0.229-0.458
					c-0.229,0-0.229,0.229-0.229,0.458C106.355,337.42,106.584,337.649,106.813,337.649z"/>
				<path fill="#474747" d="M106.813,341.088c0.229,0,0.229-0.229,0.229-0.458s-0.229-0.458-0.229-0.458
					c-0.229,0-0.229,0.229-0.229,0.458S106.584,341.088,106.813,341.088z"/>
				<path fill="#474747" d="M106.813,344.755c0.229,0,0.229-0.229,0.229-0.458s-0.229-0.458-0.229-0.458
					c-0.229,0-0.229,0.229-0.229,0.458C106.355,344.526,106.584,344.755,106.813,344.755z"/>
				<path fill="#474747" d="M151.969,330.544c0.229,0,0.229-0.229,0.229-0.458s-0.229-0.458-0.229-0.458
					c-0.229,0-0.229,0.229-0.229,0.458C151.51,330.544,151.739,330.544,151.969,330.544z"/>
				<path fill="#474747" d="M151.969,334.211c0.229,0,0.229-0.229,0.229-0.458s-0.229-0.458-0.229-0.458
					c-0.229,0-0.229,0.229-0.229,0.458C151.51,333.982,151.739,334.211,151.969,334.211z"/>
				<path fill="#474747" d="M151.969,337.649c0.229,0,0.229-0.229,0.229-0.458s-0.229-0.458-0.229-0.458
					c-0.229,0-0.229,0.229-0.229,0.458C151.51,337.42,151.739,337.649,151.969,337.649z"/>
				<path fill="#474747" d="M151.969,341.088c0.229,0,0.229-0.229,0.229-0.458s-0.229-0.458-0.229-0.458
					c-0.229,0-0.229,0.229-0.229,0.458S151.739,341.088,151.969,341.088z"/>
				<path fill="#474747" d="M151.969,344.755c0.229,0,0.229-0.229,0.229-0.458s-0.229-0.458-0.229-0.458
					c-0.229,0-0.229,0.229-0.229,0.458C151.51,344.526,151.739,344.755,151.969,344.755z"/>
				<g opacity="0.1">
					<path opacity="0.1" enable-background="new    " d="M106.813,330.544c0.229,0,0.229-0.229,0.229-0.458
						s-0.229-0.458-0.229-0.458c-0.229,0-0.229,0.229-0.229,0.458C106.355,330.544,106.584,330.544,106.813,330.544z"/>
					<path opacity="0.1" enable-background="new    " d="M106.813,334.211c0.229,0,0.229-0.229,0.229-0.458
						s-0.229-0.458-0.229-0.458c-0.229,0-0.229,0.229-0.229,0.458C106.355,333.982,106.584,334.211,106.813,334.211z"/>
					<path opacity="0.1" enable-background="new    " d="M106.813,337.649c0.229,0,0.229-0.229,0.229-0.458
						s-0.229-0.458-0.229-0.458c-0.229,0-0.229,0.229-0.229,0.458C106.355,337.42,106.584,337.649,106.813,337.649z"/>
					<path opacity="0.1" enable-background="new    " d="M106.813,341.088c0.229,0,0.229-0.229,0.229-0.458
						s-0.229-0.458-0.229-0.458c-0.229,0-0.229,0.229-0.229,0.458S106.584,341.088,106.813,341.088z"/>
					<path opacity="0.1" enable-background="new    " d="M106.813,344.755c0.229,0,0.229-0.229,0.229-0.458
						s-0.229-0.458-0.229-0.458c-0.229,0-0.229,0.229-0.229,0.458C106.355,344.526,106.584,344.755,106.813,344.755z"/>
					<path opacity="0.1" enable-background="new    " d="M106.813,330.544c0.229,0,0.229-0.229,0.229-0.458
						s-0.229-0.458-0.229-0.458c-0.229,0-0.229,0.229-0.229,0.458C106.355,330.544,106.584,330.544,106.813,330.544z"/>
					<path opacity="0.1" enable-background="new    " d="M106.813,334.211c0.229,0,0.229-0.229,0.229-0.458
						s-0.229-0.458-0.229-0.458c-0.229,0-0.229,0.229-0.229,0.458C106.355,333.982,106.584,334.211,106.813,334.211z"/>
					<path opacity="0.1" enable-background="new    " d="M106.813,337.649c0.229,0,0.229-0.229,0.229-0.458
						s-0.229-0.458-0.229-0.458c-0.229,0-0.229,0.229-0.229,0.458C106.355,337.42,106.584,337.649,106.813,337.649z"/>
					<path opacity="0.1" enable-background="new    " d="M106.813,341.088c0.229,0,0.229-0.229,0.229-0.458
						s-0.229-0.458-0.229-0.458c-0.229,0-0.229,0.229-0.229,0.458S106.584,341.088,106.813,341.088z"/>
					<path opacity="0.1" enable-background="new    " d="M106.813,344.755c0.229,0,0.229-0.229,0.229-0.458
						s-0.229-0.458-0.229-0.458c-0.229,0-0.229,0.229-0.229,0.458C106.355,344.526,106.584,344.755,106.813,344.755z"/>
					<path opacity="0.1" enable-background="new    " d="M151.969,330.544c0.229,0,0.229-0.229,0.229-0.458
						s-0.229-0.458-0.229-0.458c-0.229,0-0.229,0.229-0.229,0.458C151.51,330.544,151.739,330.544,151.969,330.544z"/>
					<path opacity="0.1" enable-background="new    " d="M151.969,334.211c0.229,0,0.229-0.229,0.229-0.458
						s-0.229-0.458-0.229-0.458c-0.229,0-0.229,0.229-0.229,0.458C151.51,333.982,151.739,334.211,151.969,334.211z"/>
					<path opacity="0.1" enable-background="new    " d="M151.969,337.649c0.229,0,0.229-0.229,0.229-0.458
						s-0.229-0.458-0.229-0.458c-0.229,0-0.229,0.229-0.229,0.458C151.51,337.42,151.739,337.649,151.969,337.649z"/>
					<path opacity="0.1" enable-background="new    " d="M151.969,341.088c0.229,0,0.229-0.229,0.229-0.458
						s-0.229-0.458-0.229-0.458c-0.229,0-0.229,0.229-0.229,0.458S151.739,341.088,151.969,341.088z"/>
					<path opacity="0.1" enable-background="new    " d="M151.969,344.755c0.229,0,0.229-0.229,0.229-0.458
						s-0.229-0.458-0.229-0.458c-0.229,0-0.229,0.229-0.229,0.458C151.51,344.526,151.739,344.755,151.969,344.755z"/>
				</g>
				<path fill="#474747" d="M157.47,347.964h-56.616l1.375-1.834h54.094L157.47,347.964z"/>
				<path fill="#474747" d="M159.533,350.715l-60.742-0.229l2.063-2.292h56.845L159.533,350.715z"/>
				<path fill="#474747" d="M161.366,353.236H96.499l2.063-2.292h60.971L161.366,353.236z"/>
				<path fill="#474747" d="M106.355,355.528v5.043l-0.688,1.604l-0.229-6.189v-0.688h0.917V355.528z"/>
				<path fill="#474747" d="M151.969,355.528v0.688l-0.229,6.189l-0.688-1.604v-5.272h0.917V355.528z"/>
				<path fill="#474747" d="M105.667,355.299h-2.063v7.106h2.063V355.299z"/>
				<path fill="#474747" d="M153.573,355.299h-2.063v7.106h2.063V355.299z"/>
				<path opacity="0.1" enable-background="new    " d="M105.667,355.757h0.688v0.688h-2.751v-1.146h2.063
					C105.667,355.299,105.667,355.757,105.667,355.757z"/>
				<path opacity="0.1" enable-background="new    " d="M105.667,355.299h-2.063v7.106h2.063V355.299z"/>
				<path opacity="0.1" enable-background="new    " d="M153.573,355.299h-2.063v7.106h2.063V355.299z"/>
				<path opacity="0.1" enable-background="new    " d="M153.573,355.299v1.146h-2.751v-0.688h0.688v-0.458H153.573z"/>
				<path fill="#474747" d="M156.094,354.382h-55.24v1.834h55.24V354.382z"/>
				<path opacity="0.1" enable-background="new    " d="M156.094,354.382h-55.24v1.834h55.24V354.382z"/>
				<path fill="#474747" d="M101.542,354.153H99.25v15.587h2.292V354.153z"/>
				<path fill="#474747" d="M155.407,369.739h2.292v-15.587h-2.292V369.739z"/>
				<path opacity="0.1" enable-background="new    " d="M101.542,354.153H99.25v15.587h2.292V354.153z"/>
				<path opacity="0.1" enable-background="new    " d="M155.407,369.739h2.292v-15.587h-2.292V369.739z"/>
				<path opacity="0.1" enable-background="new    " d="M156.094,354.382h-55.24v0.229L156.094,354.382L156.094,354.382z"/>
				<path opacity="0.1" enable-background="new    " d="M100.166,355.757c0.229,0,0.229-0.229,0.229-0.458s-0.229-0.458-0.229-0.458
					c-0.229,0-0.229,0.229-0.229,0.458C99.937,355.528,99.937,355.757,100.166,355.757z"/>
				<path opacity="0.1" enable-background="new    " d="M156.782,355.757c0.229,0,0.229-0.229,0.229-0.458s-0.229-0.458-0.229-0.458
					c-0.229,0-0.229,0.229-0.229,0.458S156.553,355.757,156.782,355.757z"/>
				<path fill="#474747" d="M97.187,352.778l-0.458,0.688v0.458h64.867v-0.688l-0.458-0.688H97.187V352.778z"/>
				<path fill="#474747" d="M161.366,353.236H96.499v1.146h64.867V353.236L161.366,353.236z"/>
				<path fill="#474747" d="M260.387,324.813c-0.229,0.458-0.458,0.917-0.688,1.375c0,0.229,0,0.229-0.229,0.458h-0.229
					c-0.458,0-0.688-0.229-1.146,0c0-0.229,0-0.229,0-0.458c0-1.834-0.229-4.355-1.604-3.209c-1.604,1.146-0.458,2.751,0.458,3.897
					l0.229,0.229c-0.917,0.688-1.146,2.292-1.146,3.897c-0.229,1.604-1.375,3.438-2.292,4.584l-0.229,0.229
					c-0.458-0.229-0.688-0.458-1.146-0.688c-0.458-0.229-0.917-0.229-1.375,0c0-0.229,0-0.229-0.229-0.458
					c-0.688-2.751-2.063-7.564-3.897-8.71l0.229-0.229c0.688-1.146,1.604-2.751,0.458-3.209c-1.375-0.458-1.375,1.375-1.375,2.98
					c0,0.229,0,0.458,0,0.458c-0.229,0-0.458,0-0.688,0.229c-0.229,0.229-0.458,0.229-0.688,0.458l-0.229-0.229
					c-1.146-1.375-2.98-3.667-3.667-1.834c-0.458,1.604,1.146,3.438,2.292,4.584l0,0c-0.917,3.667,2.751,6.647,4.584,7.793
					l0.229,0.229c-2.751,3.438-4.126,9.856-4.126,9.856l7.335,1.375c0,0,4.813-4.584,4.126-8.939l0,0
					c4.813-1.146,5.96-6.876,5.272-10.085l0,0c0.917-0.458,1.604-1.146,2.292-1.834C264.512,325.272,261.762,322.98,260.387,324.813
					z"/>
				<path opacity="0.1" enable-background="new    " d="M260.387,324.813c-0.229,0.458-0.458,0.917-0.688,1.375
					c0,0.229,0,0.229-0.229,0.458h-0.229c-0.458,0-0.688-0.229-1.146,0c0-0.229,0-0.229,0-0.458c0-1.834-0.229-4.355-1.604-3.209
					c-1.604,1.146-0.458,2.751,0.458,3.897l0.229,0.229c-0.917,0.688-1.146,2.292-1.146,3.897c-0.229,1.604-1.375,3.438-2.292,4.584
					l-0.229,0.229c-0.458-0.229-0.688-0.458-1.146-0.688c-0.458-0.229-0.917-0.229-1.375,0c0-0.229,0-0.229-0.229-0.458
					c-0.688-2.751-2.063-7.564-3.897-8.71l0.229-0.229c0.688-1.146,1.604-2.751,0.458-3.209c-1.375-0.458-1.375,1.375-1.375,2.98
					c0,0.229,0,0.458,0,0.458c-0.229,0-0.458,0-0.688,0.229c-0.229,0.229-0.458,0.229-0.688,0.458l-0.229-0.229
					c-1.146-1.375-2.98-3.667-3.667-1.834c-0.458,1.604,1.146,3.438,2.292,4.584l0,0c-0.917,3.667,2.751,6.647,4.584,7.793
					l0.229,0.229c-2.751,3.438-4.126,9.856-4.126,9.856l7.335,1.375c0,0,4.813-4.584,4.126-8.939l0,0
					c4.813-1.146,5.96-6.876,5.272-10.085l0,0c0.917-0.458,1.604-1.146,2.292-1.834C264.512,325.272,261.762,322.98,260.387,324.813
					z"/>
				<path fill="#474747" d="M245.717,327.335l-0.917,2.751c0,0-0.458-0.458-1.146-0.917c-1.146-1.146-2.98-3.209-2.292-4.584
					c0.688-1.604,2.521,0.458,3.667,1.834C245.488,326.876,245.717,327.335,245.717,327.335z"/>
				<path fill="#474747" d="M247.551,325.73c-0.229,0.458-0.458,0.688-0.917,1.146c0,0,0-0.688-0.229-1.375
					c0-1.375,0-3.209,1.375-2.98C249.155,322.751,248.238,324.584,247.551,325.73z"/>
				<path fill="#474747" d="M258.553,326.189c0,0.917,0,1.604,0,1.604c-0.458-0.229-0.688-0.688-1.146-1.146
					c-0.917-1.146-2.063-2.751-0.458-3.897C258.324,321.834,258.553,324.355,258.553,326.189z"/>
				<path fill="#474747" d="M263.595,327.335c-0.688,0.917-1.375,1.375-2.292,1.834c-0.229,0.229-0.458,0.229-0.688,0.229
					l-0.917-1.604c0-0.458,0.229-0.917,0.458-1.604c0.229-0.458,0.458-0.917,0.688-1.375
					C262.22,322.98,264.971,325.272,263.595,327.335z"/>
				<path opacity="0.1" enable-background="new    " d="M245.029,326.189c0.458,0.688,0.688,0.917,0.688,0.917l-0.917,2.751
					c0,0-0.458-0.458-1.146-0.917c0.229-0.917,0.458-1.604,0.917-2.521C244.8,326.418,244.8,326.418,245.029,326.189z"/>
				<path opacity="0.1" enable-background="new    " d="M247.551,325.73c-0.229,0.458-0.458,0.688-0.917,1.146
					c0,0,0-0.688-0.229-1.375C246.863,325.272,247.092,325.501,247.551,325.73z"/>
				<path fill="#474747" d="M251.676,336.733l-2.063,1.146c0,0-0.458-0.229-1.146-0.688c-2.292-1.604-6.647-5.272-3.667-9.856
					c2.98-4.584,5.501,3.667,6.647,7.564C251.447,335.816,251.676,336.733,251.676,336.733z"/>
				<path opacity="0.1" enable-background="new    " d="M257.407,326.647c0.229-0.458,0.688-0.458,1.146-0.688
					c0,0.917,0,1.604,0,1.604C258.094,327.335,257.636,327.106,257.407,326.647z"/>
				<path opacity="0.1" enable-background="new    " d="M261.303,329.169c-0.229,0.229-0.458,0.229-0.688,0.229l-0.917-1.604
					c0-0.458,0.229-0.917,0.458-1.604C260.616,326.876,261.074,327.793,261.303,329.169z"/>
				<path fill="#474747" d="M256.031,339.254c-0.229,0-0.229,0-0.458,0c-7.106,1.146-2.292-2.98-2.292-2.98s0.229-0.229,0.688-0.917
					c0.917-1.146,2.063-2.98,2.292-4.584c0.229-2.521,0.458-5.043,3.209-4.126C262.449,327.335,262.908,337.879,256.031,339.254z"/>
				<path opacity="0.1" enable-background="new    " d="M251.218,334.67c0.229,1.146,0.458,2.063,0.458,2.063l-2.063,1.146
					c0,0-0.458-0.229-1.146-0.688C249.384,335.816,250.301,334.899,251.218,334.67z"/>
				<path opacity="0.1" enable-background="new    " d="M256.031,339.254c-0.229,0-0.229,0-0.458,0
					c-7.106,1.146-2.292-2.98-2.292-2.98s0.229-0.229,0.688-0.917c0.458,0.458,0.917,0.917,1.375,1.604
					C255.802,337.879,256.031,338.566,256.031,339.254z"/>
				<path fill="#474747" d="M244.571,346.818c0,0,3.897-15.816,9.627-11.002c5.501,4.813-2.292,12.378-2.292,12.378L244.571,346.818
					z"/>
				<path opacity="0.1" enable-background="new    " d="M246.404,330.085c0.229,0,0.458-0.229,0.458-0.458s-0.229-0.458-0.458-0.458
					c-0.229,0-0.458,0.229-0.458,0.458C245.946,329.856,246.175,330.085,246.404,330.085z"/>
				<path opacity="0.1" enable-background="new    " d="M246.404,332.378c0.229,0,0.458-0.229,0.458-0.458s-0.229-0.458-0.458-0.458
					c-0.229,0-0.458,0.229-0.458,0.458S246.175,332.378,246.404,332.378z"/>
				<path opacity="0.1" enable-background="new    " d="M259.47,330.544c0.229,0,0.458-0.229,0.458-0.458s-0.229-0.458-0.458-0.458
					s-0.458,0.229-0.458,0.458C259.011,330.315,259.24,330.544,259.47,330.544z"/>
				<path opacity="0.1" enable-background="new    " d="M248.926,342.463c0.229,0,0.458-0.229,0.458-0.458s-0.229-0.458-0.458-0.458
					c-0.229,0-0.458,0.229-0.458,0.458S248.697,342.463,248.926,342.463z"/>
				<path opacity="0.1" enable-background="new    " d="M258.553,334.44c0.229,0,0.458-0.229,0.458-0.458s-0.229-0.458-0.458-0.458
					s-0.458,0.229-0.458,0.458C258.094,334.211,258.324,334.44,258.553,334.44z"/>
				<path opacity="0.1" enable-background="new    " d="M253.969,339.483c0.229,0,0.458-0.229,0.458-0.458s-0.229-0.458-0.458-0.458
					c-0.229,0-0.458,0.229-0.458,0.458C253.51,339.254,253.739,339.483,253.969,339.483z"/>
				<path opacity="0.1" enable-background="new    " d="M248.009,331.002c0.229,0,0.458-0.229,0.458-0.458s-0.229-0.458-0.458-0.458
					c-0.229,0-0.458,0.229-0.458,0.458S247.78,331.002,248.009,331.002z"/>
				<path opacity="0.1" enable-background="new    " d="M258.324,331.919c0.229,0,0.458-0.229,0.458-0.458s-0.229-0.458-0.458-0.458
					s-0.458,0.229-0.458,0.458C257.865,331.69,258.094,331.919,258.324,331.919z"/>
				<path opacity="0.1" enable-background="new    " d="M256.719,335.816c0.229,0,0.458-0.229,0.458-0.458s-0.229-0.458-0.458-0.458
					s-0.458,0.229-0.458,0.458S256.49,335.816,256.719,335.816z"/>
				<path opacity="0.1" enable-background="new    " d="M251.906,342.005c0.229,0,0.458-0.229,0.458-0.458s-0.229-0.458-0.458-0.458
					c-0.229,0-0.458,0.229-0.458,0.458C251.447,341.775,251.676,342.005,251.906,342.005z"/>
				<path opacity="0.1" enable-background="new    " d="M250.989,339.483c0.229,0,0.458-0.229,0.458-0.458s-0.229-0.458-0.458-0.458
					c-0.229,0-0.458,0.229-0.458,0.458S250.76,339.483,250.989,339.483z"/>
				<path opacity="0.1" enable-background="new    " d="M248.697,333.982c0.229,0,0.458-0.229,0.458-0.458s-0.229-0.458-0.458-0.458
					c-0.229,0-0.458,0.229-0.458,0.458C248.238,333.753,248.467,333.982,248.697,333.982z"/>
				<path opacity="0.1" enable-background="new    " d="M252.593,344.297c0.229,0,0.458-0.229,0.458-0.458s-0.229-0.458-0.458-0.458
					c-0.229,0-0.458,0.229-0.458,0.458S252.364,344.297,252.593,344.297z"/>
				<path opacity="0.1" enable-background="new    " d="M249.843,344.755c0.229,0,0.458-0.229,0.458-0.458s-0.229-0.458-0.458-0.458
					c-0.229,0-0.458,0.229-0.458,0.458S249.613,344.755,249.843,344.755z"/>
				<path fill="#474747" d="M182.683,357.362c0,0,8.252-18.337,12.148-19.254L182.683,357.362z"/>
				<path fill="#474747" d="M184.746,361.258c0,0,8.252-18.337,12.148-19.254L184.746,361.258z"/>
				<path fill="#474747" d="M186.58,365.155c0,0,8.252-18.337,12.148-19.254L186.58,365.155z"/>
				<path fill="#474747" d="M218.44,353.694c0,0,8.252-18.337,12.148-19.254L218.44,353.694z"/>
				<path fill="#474747" d="M220.503,357.591c0,0,8.252-18.337,12.148-19.254L220.503,357.591z"/>
				<path fill="#474747" d="M222.337,361.717c0,0,8.252-18.337,12.148-19.254L222.337,361.717z"/>
				<path fill="#474747" d="M326.858,335.128c0,0,8.252-18.337,12.148-19.254L326.858,335.128z"/>
				<path fill="#474747" d="M328.921,339.025c0,0,8.252-18.337,12.148-19.254L328.921,339.025z"/>
				<path fill="#474747" d="M330.755,343.151c0,0,8.252-18.337,12.148-19.254L330.755,343.151z"/>
				<path fill="#474747" d="M192.769,360.8c0,0-5.73-19.483-3.667-22.921L192.769,360.8z"/>
				<path fill="#474747" d="M225.317,358.737c0,0-5.73-19.483-3.667-22.921L225.317,358.737z"/>
				<path fill="#474747" d="M330.755,345.901c0,0-5.73-19.483-3.667-22.921L330.755,345.901z"/>
				<path fill="#474747" stroke="#3F3D56" stroke-width="2" stroke-miterlimit="10" d="M470.346,373.865
					c0,0-7.335-14.211-18.337-18.337c-4.584-1.604-8.71-5.043-11.461-9.398c-1.375-2.063-2.521-4.355-3.438-6.647"/>
				<path fill="#474747" d="M430.692,337.42c1.146,1.375,7.106,2.751,7.106,2.751s-1.375-6.418-2.751-7.793
					c-0.229-0.458-0.688-0.688-1.146-0.917s-0.917-0.229-1.146-0.229c-0.458,0-0.917,0-1.146,0.229
					c-0.458,0.229-0.688,0.458-1.146,0.688c-0.229,0.229-0.458,0.688-0.688,1.146c-0.229,0.458-0.229,0.917-0.229,1.375
					c0,0.458,0.229,0.917,0.229,1.375C430.234,336.733,430.463,336.962,430.692,337.42z"/>
				<path fill="#474747" d="M433.672,348.422c1.604,0.458,7.335-2.063,7.335-2.063s-4.355-4.584-5.96-4.814
					c-0.688-0.229-1.604,0-2.292,0.688c-0.688,0.458-1.146,1.375-1.375,2.063c-0.229,0.917,0,1.834,0.458,2.521
					C432.297,347.735,432.984,348.193,433.672,348.422z"/>
				<path fill="#474747" d="M445.591,360.8c1.604-0.688,5.501-5.73,5.501-5.73s-5.73-1.375-7.564-0.917
					c-0.688,0.229-1.375,0.917-1.604,1.834s-0.458,1.834-0.229,2.521c0.229,0.917,0.917,1.604,1.604,2.063
					C443.987,361.029,444.903,361.258,445.591,360.8z"/>
				<path fill="#474747" d="M456.593,368.135c1.834-0.229,6.189-4.584,6.189-4.584s-5.501-2.521-7.335-2.292
					c-0.458,0-0.917,0.229-1.146,0.458c-0.458,0.229-0.688,0.458-0.917,0.917c-0.229,0.458-0.458,0.917-0.458,1.375
					s-0.229,0.917,0,1.375c0,0.458,0.229,0.917,0.458,1.375s0.458,0.688,0.917,0.917c0.458,0.229,0.688,0.458,1.146,0.458
					C455.906,368.135,456.364,368.135,456.593,368.135L456.593,368.135z"/>
				<path fill="#474747" d="M445.82,341.546c0,1.834-3.209,7.564-3.209,7.564s-3.209-5.501-3.209-7.564
					c0-0.917,0.229-1.834,0.917-2.521c0.688-0.688,1.375-0.917,2.292-0.917s1.604,0.458,2.292,0.917
					C445.362,339.712,445.82,340.629,445.82,341.546L445.82,341.546z"/>
				<path fill="#474747" d="M458.656,350.027c-0.458,1.834-5.043,6.189-5.043,6.189s-1.604-6.418-0.917-8.252
					c0.229-0.917,0.917-1.604,1.604-1.834c0.688-0.458,1.604-0.458,2.292-0.229s1.375,0.917,1.834,1.604
					C458.656,348.193,458.885,349.11,458.656,350.027z"/>
				<path fill="#474747" d="M469.888,360.342c-0.229,1.834-4.126,6.876-4.126,6.876s-2.521-5.96-2.292-7.793
					c0.229-0.917,0.688-1.604,1.146-2.292c0.688-0.458,1.375-0.688,2.292-0.688c0.917,0.229,1.604,0.688,2.063,1.375
					C469.888,358.508,470.117,359.425,469.888,360.342L469.888,360.342z"/>
				<path fill="#474747" stroke="#3F3D56" stroke-width="2" stroke-miterlimit="10" d="M469.888,373.636
					c0,0-1.375-16.274-9.856-24.984c-3.667-3.667-5.96-8.481-6.876-13.753c-0.458-2.521-0.688-5.043-0.688-7.564"/>
				<path fill="#474747" d="M446.966,322.98c0.688,1.834,5.501,5.73,5.501,5.73s1.146-6.418,0.458-8.252
					c-0.229-0.917-0.917-1.375-1.604-1.834c-0.688-0.229-1.604-0.229-2.292,0s-1.375,0.917-1.604,1.834
					C446.737,321.146,446.737,322.063,446.966,322.98z"/>
				<path fill="#474747" d="M445.82,333.982c1.375,1.146,7.335,1.375,7.335,1.375s-2.292-5.96-3.667-7.106
					c-0.688-0.458-1.604-0.688-2.292-0.458s-1.604,0.688-2.063,1.375c-0.458,0.688-0.688,1.604-0.458,2.521
					C444.903,332.607,445.133,333.524,445.82,333.982z"/>
				<path fill="#474747" d="M452.238,350.715c1.834,0.229,7.106-2.751,7.106-2.751s-4.814-3.897-6.418-4.126
					c-0.458,0-0.917,0-1.375,0c-0.458,0.229-0.688,0.229-1.146,0.688c-0.229,0.229-0.688,0.688-0.917,1.146
					s-0.229,0.917-0.458,1.375c0,0.458,0,0.917,0.229,1.375s0.458,0.917,0.688,1.146c0.229,0.458,0.688,0.688,0.917,0.917
					C451.321,350.715,451.78,350.715,452.238,350.715L452.238,350.715z"/>
				<path fill="#474747" d="M459.573,362.175c1.604,0.458,7.335-1.375,7.335-1.375s-4.126-4.814-5.73-5.272
					c-0.458-0.229-0.917-0.229-1.375-0.229s-0.917,0.229-1.146,0.458c-0.458,0.229-0.688,0.458-0.917,0.917
					c-0.229,0.458-0.458,0.917-0.458,1.375s-0.229,0.917,0,1.375c0,0.458,0.229,0.917,0.458,1.375s0.458,0.688,0.917,0.917
					C458.656,361.946,459.115,362.175,459.573,362.175L459.573,362.175z"/>
				<path fill="#474747" d="M459.344,333.065c-0.688,1.834-5.73,5.501-5.73,5.501s-0.917-6.418-0.229-8.252
					c0.229-0.458,0.458-0.917,0.688-1.146c0.229-0.229,0.688-0.688,1.146-0.688c0.458-0.229,0.917-0.229,1.146-0.229
					c0.458,0,0.917,0,1.146,0.229c0.458,0.229,0.688,0.458,1.146,0.917c0.229,0.458,0.458,0.688,0.688,1.146
					c0.229,0.458,0.229,0.917,0.229,1.375C459.802,332.148,459.573,332.607,459.344,333.065z"/>
				<path fill="#474747" d="M468.054,346.589c-1.146,1.375-6.876,3.438-6.876,3.438s0.917-6.418,2.063-8.022
					c0.458-0.688,1.375-0.917,2.063-1.146c0.917,0,1.604,0.229,2.292,0.917s0.917,1.375,1.146,2.292
					C468.742,344.984,468.512,345.901,468.054,346.589z"/>
				<path fill="#474747" d="M474.472,361.029c-0.917,1.604-6.189,4.584-6.189,4.584s0-6.647,0.917-8.252
					c0.229-0.458,0.458-0.688,0.917-1.146c0.229-0.229,0.688-0.458,1.146-0.688c0.458-0.229,0.917-0.229,1.375,0
					c0.458,0,0.917,0.229,1.146,0.458c0.458,0.229,0.688,0.458,0.917,0.917c0.229,0.458,0.458,0.917,0.458,1.375s0,0.917,0,1.375
					C474.93,360.112,474.93,360.571,474.472,361.029z"/>
				<path fill="#474747" d="M146.467,240.463c0,0,9.856-0.688,8.71,6.876c0,0.458,0,0.688-0.229,1.146s-0.458,0.688-0.688,0.917
					c0,0,0-0.688-0.917-0.458c-0.458,0-0.688,0-1.146,0s-0.917-0.229-1.375-0.688c0,0-2.751-1.146-3.897-6.189
					c0,0-0.688-1.146-0.688-1.375l1.604,0.688c-0.229,0.688-0.458,1.604-0.229,2.521c0,0,0-2.292,0.458-2.292l0.917,0.458
					c0,0-0.917,2.292-0.229,3.897c0,0-0.229-2.751,0.458-3.897l1.146,0.688c0,0-1.146,2.292-0.458,4.355c0,0-0.229-2.98,0.688-4.126
					l1.146,0.917c0,0-1.146,2.292-0.458,3.897c0,0,0-3.438,0.688-3.667c0.458,0.458,0.688,0.917,1.146,1.375
					c0,0-0.688,1.604-0.229,2.521c0,0,0.229-2.292,0.458-2.292c0.458,0.688,0.917,1.604,0.917,2.521
					c0-0.917-0.229-1.834-0.688-2.751c0.458,0,0.917,0.458,1.375,0.917c0,0-0.229-1.146-1.604-1.146
					c-0.229-0.458-0.688-0.917-0.917-1.146c0.917,0,1.604,0,2.292,0.229c0,0-0.688-0.917-2.751-0.688l-1.146-0.917
					c0,0,2.063-0.229,2.751,0c0,0-0.917-0.917-2.98-0.229l-1.146-0.688c0.917-0.229,1.834-0.229,2.751-0.229c0,0-1.146-0.688-2.98,0
					l-0.917-0.458c0,0,1.146-0.229,1.604-0.229s0.458-0.229,0.458-0.229c-0.688-0.229-1.604,0-2.292,0.229
					C148.072,241.38,146.467,240.692,146.467,240.463z"/>
				<path fill="#474747" d="M194.144,217.771c0,0,9.856-0.688,8.71,6.876c0,0.458,0,0.688-0.229,1.146s-0.458,0.688-0.688,0.917
					c0,0,0-0.688-0.917-0.458c-0.458,0-0.688,0-1.146,0s-0.917-0.229-1.375-0.688c0,0-2.751-1.375-3.897-6.189
					c0,0-0.688-1.146-0.688-1.375l1.604,0.688c-0.229,0.688-0.458,1.604-0.229,2.521c0,0,0-2.292,0.458-2.292l0.917,0.458
					c0,0-0.917,2.292-0.229,3.897c0,0-0.229-2.751,0.458-3.897l1.146,0.688c0,0-1.146,2.292-0.458,4.355c0,0-0.229-2.98,0.688-4.126
					l1.146,0.917c0,0-1.146,2.292-0.458,3.897c0,0,0-3.438,0.688-3.667c0.458,0.458,0.688,0.917,1.146,1.375
					c0,0-0.688,1.604-0.229,2.521c0,0,0.229-2.292,0.458-2.292c0.458,0.688,0.917,1.604,0.917,2.521
					c0-0.917-0.229-1.834-0.688-2.751c0.458,0,0.917,0.458,1.375,0.917c0,0-0.229-1.146-1.604-1.146
					c-0.229-0.458-0.688-0.917-0.917-1.146c0.917,0,1.604,0,2.292,0.229c0,0-0.688-0.917-2.751-0.688l-0.917-0.688
					c0,0,2.063-0.229,2.751,0c0,0-0.917-0.917-2.98-0.229l-1.146-0.688c0.917-0.229,1.834-0.229,2.751-0.229c0,0-1.146-0.688-2.98,0
					l-0.917-0.458c0,0,1.146-0.229,1.604-0.229s0.458-0.229,0.458-0.229c-0.688-0.229-1.604,0-2.292,0.229
					C195.29,218.458,194.831,218,194.144,217.771z"/>
				<path fill="#474747" d="M226.234,133.879c0,0,9.856-0.688,8.71,6.876c0,0.458,0,0.688-0.229,1.146s-0.458,0.688-0.688,0.917
					c0,0,0-0.688-0.917-0.458c-0.458,0-0.688,0-1.146,0s-0.917-0.229-1.375-0.688c0,0-2.751-1.375-3.897-6.189
					c0,0-0.688-1.146-0.688-1.375l1.604,0.688c-0.229,0.688-0.458,1.604-0.229,2.521c0,0,0-2.292,0.458-2.292l0.917,0.458
					c0,0-0.917,2.292-0.229,3.897c0,0-0.229-2.751,0.458-3.897l1.146,0.688c0,0-1.146,2.292-0.458,4.355c0,0-0.229-2.98,0.688-4.126
					l1.146,0.917c0,0-1.146,2.292-0.458,3.897c0,0,0-3.438,0.688-3.667c0.458,0.458,0.688,0.688,1.146,1.375
					c0,0-0.688,1.604-0.229,2.521c0,0,0.229-2.292,0.458-2.292c0.458,0.688,0.917,1.604,0.917,2.521
					c0-0.917-0.229-1.834-0.688-2.751c0.458,0,0.917,0.458,1.375,0.917c0,0-0.229-1.146-1.604-1.146
					c-0.229-0.458-0.688-0.917-0.917-1.146c0.917,0,1.604,0,2.292,0.229c0,0-0.688-0.917-2.751-0.688l-1.146-0.917
					c0,0,2.063-0.229,2.751,0c0,0-0.917-0.917-2.98-0.229l-1.146-0.688c0.917-0.229,1.834-0.229,2.751-0.229c0,0-1.146-0.688-2.98,0
					l-0.917-0.458c0,0,1.146-0.229,1.604-0.229s0.458-0.229,0.458-0.229c-0.688-0.229-1.604,0-2.292,0.229
					C227.38,134.566,226.692,134.337,226.234,133.879z"/>
				<path fill="#474747" d="M254.885,109.353c0,0,9.856-0.688,8.71,6.876c0,0.458,0,0.688-0.229,1.146s-0.458,0.688-0.688,0.917
					c0,0,0-0.688-0.917-0.458c-0.458,0-0.688,0-1.146,0s-0.917-0.229-1.375-0.688c0,0-2.751-1.146-3.897-6.189
					c0,0-0.688-1.146-0.688-1.375l1.604,0.688c-0.229,0.688-0.458,1.604-0.229,2.521c0,0,0-2.292,0.458-2.292l0.917,0.458
					c0,0-0.917,2.292-0.229,3.897c0,0-0.229-2.751,0.458-3.897l1.146,0.688c0,0-1.146,2.292-0.458,4.355c0,0-0.229-2.98,0.688-4.126
					l1.146,0.917c0,0-1.146,2.292-0.458,3.897c0,0,0-3.438,0.688-3.667c0.458,0.458,0.688,0.688,1.146,1.375
					c0,0-0.688,1.604-0.229,2.521c0,0,0.229-2.292,0.458-2.292c0.458,0.688,0.917,1.604,0.917,2.521
					c0-0.917-0.229-1.834-0.688-2.751c0.458,0,0.917,0.458,1.375,0.917c0,0-0.229-1.146-1.604-1.146
					c-0.229-0.458-0.688-0.917-0.917-1.146c0.917,0,1.604,0,2.292,0.229c0,0-0.688-0.917-2.751-0.688l-0.917-0.917
					c0,0,2.063-0.229,2.751,0c0,0-0.917-0.917-2.98-0.229l-1.146-0.688c0.917-0.229,1.834-0.229,2.751-0.229c0,0-1.146-0.688-2.98,0
					l-0.917-0.458c0,0,1.146-0.229,1.604-0.229s0.458-0.229,0.458-0.229c-0.688-0.229-1.604,0-2.292,0.229
					C256.719,110.04,254.885,109.353,254.885,109.353z"/>
				<path fill="#474747" d="M317.002,67.178c0,0,3.438,10.085-3.438,11.231c-0.229,0.229-0.688,0.229-0.917,0.229
					c-0.458,0-0.688-0.229-0.917-0.458c0,0,0.458-0.229,0-1.146c-0.229-0.458-0.229-0.688-0.458-1.146c0-0.458,0-1.146,0.229-1.604
					c0,0,0.229-3.209,4.355-5.96c0,0,0.688-1.146,0.917-1.146l-0.458,1.834c-0.688,0-1.604,0-2.063,0.688
					c0,0,2.063-0.688,2.063-0.229l-0.229,1.146c0,0-2.292-0.229-3.438,0.917c0,0,2.292-1.146,3.438-0.688l-0.229,1.375
					c0,0-2.292-0.458-3.897,0.917c0,0,2.521-1.146,3.667-0.688l-0.458,1.375c0,0-2.292-0.458-3.667,0.688
					c0,0,2.98-0.917,3.438-0.458c-0.229,0.458-0.458,1.146-0.688,1.604c0,0-1.604-0.229-2.292,0.458c0,0,2.063-0.458,2.063-0.229
					c-0.458,0.688-1.146,1.375-1.834,1.834c0.917-0.229,1.604-0.917,2.063-1.604c0,0.688,0,1.146-0.229,1.834
					c0,0,0.917-0.458,0.458-2.063c0.229-0.458,0.458-0.917,0.688-1.375c0.229,0.917,0.458,1.604,0.458,2.521
					c0,0,0.688-1.146-0.229-2.98l0.458-1.375c0,0,0.917,2.063,0.917,2.98c0,0,0.458-1.375-0.688-3.209l0.229-1.375
					c0.458,0.917,0.688,1.834,0.917,2.751c0,0,0.229-1.375-0.917-3.209v-0.917c0,0,0.688,1.146,0.688,1.605
					c0.229,0.458,0.229,0.458,0.229,0.458c0-0.917-0.458-1.604-0.917-2.292C316.773,68.553,316.773,67.865,317.002,67.178z"/>
				<path fill="#474747" d="M496.476,245.964c0,0,9.856-0.688,8.71,6.876c0,0.458,0,0.688-0.229,1.146s-0.458,0.688-0.688,0.917
					c0,0,0-0.688-0.917-0.458c-0.458,0-0.688,0-1.146,0s-0.917-0.229-1.375-0.688c0,0-2.751-1.146-3.897-6.189
					c0,0-0.688-1.146-0.688-1.375l1.604,0.688c-0.229,0.688-0.458,1.604-0.229,2.521c0,0,0-2.292,0.458-2.292l0.917,0.458
					c0,0-0.917,2.292-0.229,3.897c0,0-0.229-2.751,0.458-3.897l1.146,0.688c0,0-1.146,2.292-0.458,4.355c0,0-0.229-2.98,0.688-4.126
					l1.146,0.917c0,0-1.146,2.292-0.458,3.897c0,0,0-3.438,0.688-3.667c0.458,0.458,0.688,0.917,1.146,1.375
					c0,0-0.688,1.604-0.229,2.521c0,0,0.229-2.292,0.458-2.292c0.458,0.688,0.917,1.604,0.917,2.521
					c0-0.917-0.229-1.834-0.688-2.751c0.458,0.229,0.917,0.458,1.375,0.917c0,0-0.229-1.146-1.604-1.146
					c-0.229-0.458-0.688-0.917-0.917-1.146c0.917,0,1.604,0,2.292,0.229c0,0-0.688-0.917-2.751-0.688l-1.146-0.917
					c0,0,2.063-0.229,2.751,0c0,0-0.917-0.917-2.98-0.229l-1.146-0.688c0.917-0.229,1.834-0.229,2.751-0.229c0,0-1.146-0.688-2.98,0
					l-0.917-0.458c0,0,1.146-0.229,1.604-0.229s0.458-0.229,0.458-0.229c-0.688-0.229-1.604,0-2.292,0.229
					C498.081,246.881,496.476,246.193,496.476,245.964z"/>
				<path fill="#474747" d="M189.101,271.865c0,0,6.189,8.481-0.229,11.919c-0.229,0.229-0.688,0.458-0.917,0.458
					c-0.458,0-0.688,0-0.917-0.229c0,0,0.458-0.229-0.229-1.146c-0.229-0.229-0.458-0.688-0.688-0.917
					c-0.229-0.458-0.458-0.917-0.229-1.604c0,0-0.688-3.209,2.521-7.106C188.413,273.24,188.872,271.865,189.101,271.865
					l0.458,2.063c-0.688,0.229-1.375,0.688-1.834,1.375c0,0,1.834-1.375,1.834-0.917l0.229,1.146c0,0-2.292,0.458-3.209,2.063
					c0,0,2.063-1.834,3.209-1.604v1.375c0,0-2.521,0.229-3.438,2.063c0,0,2.063-1.834,3.438-1.834v1.375
					c0,0-2.292,0.458-3.209,1.834c0,0,2.521-1.834,3.209-1.604c0,0.688-0.229,1.146-0.229,1.604c0,0-1.604,0.229-2.063,1.146
					c0,0,1.834-1.146,2.063-0.917c-0.229,0.917-0.688,1.604-1.375,2.292c0.688-0.688,1.146-1.375,1.604-2.292
					c0.229,0.458,0.229,1.146,0.229,1.834c0,0,0.688-0.688,0-2.063c0.229-0.458,0.229-1.146,0.458-1.604
					c0.458,0.688,0.917,1.375,1.146,2.292c0,0,0.229-1.375-1.146-2.751v-1.375c0,0,1.375,1.604,1.604,2.521
					c0,0,0.229-1.375-1.604-2.98v-1.375c0.688,0.688,1.146,1.375,1.604,2.292c0,0-0.229-1.375-1.834-2.751l-0.229-0.917
					c0,0,0.917,0.917,1.146,1.375c0.229,0.229,0.229,0.229,0.229,0.229c-0.229-0.688-0.917-1.375-1.604-1.834
					C189.33,273.928,188.872,271.865,189.101,271.865z"/>
				<path fill="#474747" d="M504.27,208.602c0,0,6.189,8.481-0.229,11.919c-0.229,0.229-0.688,0.458-0.917,0.458
					c-0.458,0-0.688,0-0.917-0.229c0,0,0.458-0.229-0.229-1.146c-0.229-0.229-0.458-0.688-0.688-0.917
					c-0.229-0.458-0.458-0.917-0.229-1.604c0,0-0.688-3.209,2.521-7.106C503.582,209.978,504.04,208.602,504.27,208.602l0.458,2.063
					c-0.688,0.229-1.375,0.688-1.834,1.375c0,0,1.834-1.375,1.834-0.917l0.229,1.146c0,0-2.292,0.458-3.209,2.063
					c0,0,2.063-1.834,3.209-1.604v1.604c0,0-2.521,0.229-3.438,2.063c0,0,2.063-1.834,3.438-1.834v1.375
					c0,0-2.292,0.458-3.209,1.834c0,0,2.751-1.834,3.209-1.604c0,0.688-0.229,1.146-0.229,1.604c0,0-1.604,0.229-2.063,1.146
					c0,0,1.834-1.146,2.063-0.917c-0.229,0.917-0.688,1.604-1.375,2.292c0.688-0.688,1.146-1.375,1.604-2.292
					c0.229,0.458,0.229,1.146,0.229,1.834c0,0,0.688-0.688,0-2.063c0.229-0.458,0.229-1.146,0.458-1.604
					c0.458,0.688,0.917,1.375,1.146,2.292c0,0,0.229-1.375-1.146-2.751v-1.375c0,0,1.375,1.604,1.604,2.521
					c0,0,0.229-1.375-1.604-2.98v-1.375c0.688,0.688,1.146,1.375,1.604,2.292c0,0-0.229-1.375-1.834-2.751l-0.229-0.917
					c0,0,0.917,0.917,1.146,1.375c0.229,0.229,0.229,0.229,0.229,0.229c-0.229-0.688-0.917-1.375-1.604-1.834
					C504.499,210.665,504.04,208.602,504.27,208.602z"/>
				<path fill="#474747" d="M529.942,268.198c0,0,1.146,10.773-5.73,9.856c-0.458,0-0.688,0-1.146,0
					c-0.229-0.229-0.688-0.458-0.688-0.688c0,0,0.458,0,0.229-1.146c0-0.458-0.229-0.688-0.229-1.146s0.229-1.146,0.458-1.375
					c0,0,0.917-3.209,5.501-4.584c0,0,0.917-0.917,1.146-0.917l-0.688,1.834c-0.688-0.229-1.604-0.229-2.292,0
					c0,0,2.063,0,2.063,0.229l-0.458,0.917c0,0-2.063-0.917-3.667,0c0,0,2.521-0.458,3.438,0.458l-0.688,1.375
					c0,0-2.292-1.146-3.897-0.229c0,0,2.751-0.458,3.897,0.458l-0.688,1.146c0,0-2.292-1.146-3.667-0.229c0,0,3.209,0,3.438,0.458
					c-0.229,0.458-0.688,0.917-1.146,1.146c0,0-1.604-0.688-2.292-0.229c0,0,2.063,0.229,2.063,0.458
					c-0.688,0.688-1.375,0.917-2.292,1.375c0.917,0,1.604-0.458,2.521-1.146c0,0.688-0.229,1.146-0.688,1.604
					c0,0,0.917-0.229,0.917-1.834c0,0,0.917-0.917,1.146-1.146c0.229,0.917,0,1.834-0.229,2.751c0,0,0.917-0.917,0.458-2.98
					l0.688-1.146c0,0,0.458,2.063,0.229,2.98c0,0,0.688-1.146,0-3.438l0.688-1.375c0.229,0.917,0.458,1.834,0.458,2.98
					c0,0,0.458-1.146-0.229-3.209l0.229-0.917c0,0,0.229,1.375,0.458,1.834c0,0.458,0.229,0.458,0.229,0.458
					c0-0.917,0-1.834-0.458-2.521C529.254,270.031,529.942,268.198,529.942,268.198z"/>
				<path fill="#474747" d="M552.404,346.818c0.917-0.917,1.604-1.834,1.834-3.209c0.229-1.146-0.229-2.751-1.375-3.209
					s-2.521,0.458-3.438,1.375s-2.063,2.063-3.438,1.834c0.688-0.688,1.146-1.604,1.375-2.521s0.229-1.834,0.229-2.98
					c0-0.458-0.229-0.688-0.458-1.146c-0.688-0.688-1.834-0.458-2.751,0.229c-2.521,2.063-3.209,5.96-3.209,9.398
					c-0.229-1.146,0-2.521,0-3.897c0-1.375-0.229-2.751-1.375-3.438c-0.688-0.458-1.375-0.458-2.063-0.458
					c-1.146,0-2.521,0-3.209,0.917c-0.917,1.146-0.688,3.209,0.229,4.355c0.917,1.375,2.063,2.063,3.438,2.98
					c0.917,0.688,1.834,1.375,2.292,2.521c0,0.229,0.229,0.229,0.229,0.458h7.335C549.654,349.339,551.029,348.193,552.404,346.818z
					"/>
				<path fill="#474747" d="M410.521,353.236c0.917-0.917,1.604-1.834,1.834-3.209c0.229-1.146-0.229-2.751-1.375-3.209
					s-2.521,0.458-3.438,1.375s-2.063,2.063-3.438,1.834c0.688-0.688,1.146-1.604,1.375-2.521s0.229-1.834,0.229-2.98
					c0-0.458-0.229-0.688-0.458-1.146c-0.688-0.688-1.834-0.458-2.751,0.229c-2.521,2.063-3.209,5.96-3.209,9.398
					c-0.229-1.146,0-2.521,0-3.897c0-1.375-0.229-2.751-1.375-3.438c-0.688-0.458-1.375-0.458-2.063-0.458
					c-1.146,0-2.521,0-3.209,0.917c-0.917,1.146-0.688,3.209,0.229,4.355c0.917,1.375,2.063,2.063,3.438,2.98
					c0.917,0.688,1.834,1.375,2.292,2.521c0,0.229,0.229,0.229,0.229,0.458h7.335C407.542,355.757,409.146,354.611,410.521,353.236z
					"/>
				<path fill="#474747" d="M99.249,313.582c0,0,2.292-0.229,2.98,0.458c0,0-2.521,0.688-2.751,1.375c0,0,0,0,0.229,0
					s1.604-0.458,1.834,0v0.229l0,0h0.229l0.229,0.229c0,0.229,0.229,0,0.229,0l0.229,0.458l0.229,0.458v1.146l0,0
					c0,0.688,0.229,1.375,0.458,2.063c0,0,0.917,2.751,1.375,2.98h0.229c0,0,1.604,2.292,2.98,2.751
					c1.375,0.458,1.604,0.917,1.604,0.917l-1.834,2.292c-0.458,0-0.688,0-0.917,0.229c0.688,0,1.375,0,1.834,0l1.375-2.063
					c0.229,0,0.229,0.229,0.458,0.229c0,0,0.229,0,0.229,0.229c0.229,0,0.229,0,0.229,0l-0.688,1.604h-0.917l0.688,0.229
					c0.229,0,0.917-0.229,0.917-0.229l0.688-1.375l0.229,0.229l0,0c0,0,0.229,0.229,0.458,0.229c0.229,0-0.229-0.229-0.229-0.229
					c0.229,0,0.229,0,0.458,0v-0.458v-0.229h-0.458c0,0,0.229-0.229,0.458,0c0.229,0.229,2.292,1.146,2.98,0.688
					c0.458,0.458,0.917,0.688,1.604,1.146c0.458,0,0.688,0.688,0.688,0.688s1.604,1.834,2.521,1.375
					c-0.229-0.229-0.229-0.688-0.458-0.917c0-0.229-1.146-1.375-1.146-1.375s2.292,0.688,2.292,0.458l1.146,0.688
					c0,0,0-0.458-0.688-0.917l0.917,0.229c0-0.229,0-0.458-0.229-0.688s-0.229-0.229-0.458-0.458
					c-0.229-0.229-0.458-0.688-0.917-0.917l-3.667-2.292c0,0,0.458-0.229,0-0.688c0,0,0.229,0,0.458,0s-1.604-1.834-1.604-1.834
					c-0.229-0.229-0.458-0.458-0.688-0.688c0-0.229-1.834-1.375-1.834-1.375s-1.375,0-2.521-2.292
					c-0.917-2.292-3.438-2.521-3.438-2.521s-0.917-4.584-4.813-2.98C102.458,312.665,99.479,312.894,99.249,313.582z"/>
				<path fill="#3F3D56" d="M360.782,285.847c-0.229,0.458-1.146,0.229-1.375,0.688c0,0.229,0,0.458,0,0.917
					c0,0.229,0,0.458-0.229,0.917c0,0.229-0.229,0.458-0.458,0.688c-0.229,0.229-0.458,0.229-0.688,0.458c-0.229,0-0.458,0-0.688,0
					c0,0.688-0.229,1.375-0.917,2.063c-0.229,0.229-0.688,0.229-1.146,0.229s-0.688-0.229-0.917-0.458
					c-0.458-0.458-0.917-1.146-1.146-2.063s-0.458-1.834-1.146-2.521c-0.229-0.229-0.458-0.458-0.917-0.688
					c-0.458-0.458-0.917-1.146-1.146-2.063s-0.458-1.834-0.917-2.751c-0.458-0.917-0.917-1.604-1.834-2.063
					c-0.688-0.458-1.604-0.458-2.521-0.688c-0.688-0.229-1.146-0.688-1.604-0.917c-0.688-0.458-1.375-0.917-2.063-1.375
					c-0.458-0.229-0.917-0.458-1.146-0.688c-0.229-0.229-0.458-0.458-0.688-0.688c-0.229-0.229-0.229-0.688-0.229-0.917
					c-0.229-0.688-0.458-1.375-0.688-1.834c-0.458-0.688-0.688-1.375-0.458-2.292c0.229-0.688,0.917-1.146,1.146-1.834
					c0-0.458,0.229-0.917,0-1.604c0-0.229,0-0.458,0-0.688c0-0.229,0.229-0.458,0.458-0.688c0.688-0.458,1.375,0.229,2.063,0.229
					c0.229,0,0.458,0,0.917,0c0.229,0,0.458-0.229,0.688-0.229c1.146-0.458,2.521,0.458,3.209,1.604
					c0.688,1.146,0.917,2.521,1.375,3.667c0.229,0.458,0.458,0.917,0.917,1.146c0.229,0.229,0.458,0.229,0.688,0.229
					s0.458,0,0.688-0.229l0.688,1.604c0.229,0.688,0.688,1.604,0.917,2.292c0.458,0.917,0.917,2.063,1.834,2.521
					c0.458,0.229,0.917,0.229,1.375,0.458s0.917,0.458,1.146,0.917c0.229,0.458,0.458,0.917,0.688,1.375
					c0,0.458,0,0.688,0.229,1.146c0.458,1.146,1.604,1.375,2.521,1.834c0.458,0.229,0.917,0.688,1.375,1.375
					c0,0.229,0.229,0.229,0.229,0.458C361.011,285.618,361.011,285.618,360.782,285.847z"/>
				<path opacity="0.1" enable-background="new    " d="M360.782,285.847c-0.229,0.458-1.146,0.229-1.375,0.688
					c0,0.229,0,0.458,0,0.917c0,0.229,0,0.458-0.229,0.917c0,0.229-0.229,0.458-0.458,0.688c-0.229,0.229-0.458,0.229-0.688,0.458
					c-0.229,0-0.458,0-0.688,0c0,0.688-0.229,1.375-0.917,2.063c-0.229,0.229-0.688,0.229-1.146,0.229s-0.688-0.229-0.917-0.458
					c-0.458-0.458-0.917-1.146-1.146-2.063s-0.458-1.834-1.146-2.521c-0.229-0.229-0.458-0.458-0.917-0.688
					c-0.458-0.458-0.917-1.146-1.146-2.063s-0.458-1.834-0.917-2.751c-0.458-0.917-0.917-1.604-1.834-2.063
					c-0.688-0.458-1.604-0.458-2.521-0.688c-0.688-0.229-1.146-0.688-1.604-0.917c-0.688-0.458-1.375-0.917-2.063-1.375
					c-0.458-0.229-0.917-0.458-1.146-0.688c-0.229-0.229-0.458-0.458-0.688-0.688c-0.229-0.229-0.229-0.688-0.229-0.917
					c-0.229-0.688-0.458-1.375-0.688-1.834c-0.458-0.688-0.688-1.375-0.458-2.292c0.229-0.688,0.917-1.146,1.146-1.834
					c0-0.458,0.229-0.917,0-1.604c0-0.229,0-0.458,0-0.688c0-0.229,0.229-0.458,0.458-0.688c0.688-0.458,1.375,0.229,2.063,0.229
					c0.229,0,0.458,0,0.917,0c0.229,0,0.458-0.229,0.688-0.229c1.146-0.458,2.521,0.458,3.209,1.604
					c0.688,1.146,0.917,2.521,1.375,3.667c0.229,0.458,0.458,0.917,0.917,1.146c0.229,0.229,0.458,0.229,0.688,0.229
					s0.458,0,0.688-0.229l0.688,1.604c0.229,0.688,0.688,1.604,0.917,2.292c0.458,0.917,0.917,2.063,1.834,2.521
					c0.458,0.229,0.917,0.229,1.375,0.458s0.917,0.458,1.146,0.917c0.229,0.458,0.458,0.917,0.688,1.375
					c0,0.458,0,0.688,0.229,1.146c0.458,1.146,1.604,1.375,2.521,1.834c0.458,0.229,0.917,0.688,1.375,1.375
					c0,0.229,0.229,0.229,0.229,0.458C361.011,285.618,361.011,285.618,360.782,285.847z"/>
				<path fill="#FBBEBE" d="M341.07,274.387c0,0,0.458,1.146-0.917,1.146s0.917,6.647,0.917,6.647l2.292,3.209l2.751-1.604
					l0.229-4.813l0.229-2.751c0,0-2.751-0.917-2.292-2.292C344.966,272.553,341.07,274.387,341.07,274.387z"/>
				<path fill="#3F3D56" d="M349.321,301.892c0,0,1.604,1.834,3.667-0.688l-1.604-1.834h-1.834L349.321,301.892z"/>
				<path fill="#3F3D56" d="M352.301,299.829c0.229,0.917,0.688,1.834,1.146,2.521c0.458,0.688,1.375,4.584,0.229,4.126
					s-2.98-3.897-3.209-4.584c0-0.688-0.229-1.604-0.229-2.292h2.063L352.301,299.829L352.301,299.829z"/>
				<path fill="#3F3D56" d="M337.631,309.915l9.169,0.458l-1.146-4.126h-4.584L337.631,309.915z"/>
				<path fill="#3F3D56" d="M340.611,316.791c-0.229,0.458-0.229,2.063,0,3.209c0,0.688,0.229,1.375,0.229,1.375
					s-3.438,1.146-3.897,0.229c-0.229-0.458-0.229-0.917-0.229-1.146c0-1.375,0-2.521,0.229-3.897c0,0-0.229-3.438-0.229-3.667
					s0-0.688-0.229-0.917c0-0.688-0.229-1.375-0.229-1.375l4.584-2.751c0,0,0,0.458,0,1.375
					C341.07,311.061,340.84,316.333,340.611,316.791z"/>
				<path fill="#3F3D56" d="M340.84,340.629L340.84,340.629c-0.458,0-2.751,0-2.751,0V340.4c-0.229-0.229-0.229-0.688-0.458-0.917
					c0-0.458,0-0.688,0-1.146c0.229-1.146,0.458-2.292,0.458-3.667c0-0.229,0-0.688,0-0.917s0-0.458,0-0.917
					c0-0.229,0-0.458-0.229-0.688c0-0.229,0-0.688,0-0.917c0-0.458,0-1.146-0.229-1.604c-0.229-0.688-1.834-8.71-1.375-9.627
					c0,0,3.209-0.688,4.584-0.229l-0.229,6.189c0,0-0.688,1.834,0,2.292c0.458,0.458,0,2.063,0,2.063s0,0.229,0.458,1.146
					s0,1.375,0,1.375v1.834c-0.229,0.688-0.229,1.604,0,2.292C341.528,338.566,341.07,340.629,340.84,340.629z"/>
				<path fill="#3F3D56" d="M347.258,316.791c-0.229,0.458-0.229,2.063,0,3.209c0,0.688,0.229,1.375,0.229,1.375
					s-3.438,1.146-3.897,0.229c-0.229-0.458-0.229-0.917-0.229-1.146c0-1.375,0-2.521,0.229-3.897c0,0-0.229-3.438-0.229-3.667
					s0-1.834-0.229-3.438c0-1.375,0-2.521,0-2.521l4.584,0.688c0,0,0,2.292,0,4.584C347.488,314.27,347.488,316.562,347.258,316.791
					z"/>
				<path fill="#3F3D56" d="M347.488,340.629L347.488,340.629c-0.458,0-2.751,0-2.751,0V340.4c-0.229-0.229-0.229-0.688-0.458-0.917
					c0-0.458,0-0.688,0-1.146c0.229-1.146,0.458-2.292,0.458-3.667c0-0.229,0-0.688,0-0.917s0-0.458,0-0.917
					c0-0.229,0-0.458-0.229-0.688c0-0.229,0-0.688,0-0.917c0-0.458,0-1.146-0.229-1.604c-0.229-0.688-1.834-8.71-1.375-9.627
					c0,0,3.209-0.688,4.584-0.229l-0.229,6.189c0,0-0.688,1.834,0,2.292c0.458,0.458,0,2.063,0,2.063s0,0.229,0.458,1.146
					s0,1.375,0,1.375v1.834c-0.229,0.688-0.229,1.604,0,2.292C348.175,338.566,347.717,340.629,347.488,340.629z"/>
				<path opacity="0.1" enable-background="new    " d="M342.903,275.533c1.834,0,3.209-1.604,3.209-3.667s-1.375-3.667-3.209-3.667
					s-3.209,1.604-3.209,3.667S341.07,275.533,342.903,275.533z"/>
				<path fill="#FBBEBE" d="M342.903,275.303c1.834,0,3.209-1.604,3.209-3.667s-1.375-3.667-3.209-3.667s-3.209,1.604-3.209,3.667
					S341.07,275.303,342.903,275.303z"/>
				<path fill="#3F3D56" d="M346.8,287.681c-0.229,0.917-0.229,2.063,0,2.98c2.063,1.834,1.834,5.96,1.834,5.96
					s1.604,8.252,1.375,8.939c-0.458,0.688,0.688,5.272,0.688,5.272c-0.917,0.229-2.063,0.229-2.98,0.458c-0.458,0-0.688,0-1.146,0
					c-0.229,0-0.458,0-0.688-0.229c-0.229,0-0.458-0.229-0.688-0.458c-0.688-1.375-3.438-3.209-3.438-3.209
					s-1.834,1.146-3.438,2.292c-0.458,0.458-1.146,0.688-1.604,0.917s-0.688,0.229-1.146,0.458
					c-2.063,0.229-4.584-1.146-4.126-1.604c0.458-0.688,2.98-11.002,2.98-11.002s1.375-6.418,2.521-7.335
					c0.229-0.229,0.458-0.458,0.458-0.688c0.458-1.146-0.229-2.98-0.229-2.98s-3.667-5.043-3.438-5.272
					c0.229-0.688,0.229-1.146,0.229-1.834c0,0,0.458-2.521,0.688-3.667c0.229-1.146,2.063-1.375,2.751-1.375
					c0.458,0,1.834,0,2.292-0.458c0.458-0.458,1.375,0.229,1.375,0.229l2.063,1.146l1.834-1.146c0,0,1.834,0,2.063,0.458
					c0.229,0.229,2.751,0.917,2.751,0.917c1.375,0.917,1.146,5.501,1.146,5.501s-3.209,2.98-3.667,4.584
					C347.029,286.764,346.8,287.222,346.8,287.681z"/>
				<path fill="#3F3D56" d="M350.238,281.263l0.688,0.688l0.688,7.106l0.688,7.335c0,0,0.229,0.688,0.458,0.688
					s0.229,4.355,0.229,4.355s-2.751-1.834-3.667,0.688l-0.688-5.73c0,0-0.917-5.96-0.917-6.418s-0.458-5.501-0.458-5.501
					L350.238,281.263z"/>
				<path fill="#3F3D56" d="M334.193,281.492l-0.458,0.688c0,0,0,2.98-0.458,3.667c-0.458,0.688,1.146,5.043,1.604,4.813
					c0.458-0.229,1.834-6.876,1.834-6.876C336.715,283.555,334.193,281.492,334.193,281.492z"/>
				<path fill="#3F3D56" d="M333.964,285.847c0,0-1.604,1.834-1.604,2.751c0.229,0.917,1.604,3.667,3.897,2.063
					C336.485,290.661,338.548,286.306,333.964,285.847z"/>
				<path opacity="0.1" enable-background="new    " d="M340.84,340.858c-0.458,0-2.751,0-2.751,0v-0.229
					C338.548,340.4,339.924,340.171,340.84,340.858z"/>
				<path opacity="0.1" enable-background="new    " d="M347.488,340.858c-0.458,0-2.751,0-2.751,0v-0.229
					C345.195,340.4,346.571,340.171,347.488,340.858z"/>
				<path fill="#3F3D56" d="M340.382,269.344h0.229c0.229,0,0.229,0.229,0.458,0.229c0.229,0.229,0.458,0.229,0.688,0.229
					c0.229,0,0.458,0,0.688,0c0.229,0,0.458-0.229,0.458-0.229c0.229,0,0.229,0,0.458,0.229l0.229,0.229
					c0.229,0.229,0.229,0.458,0.229,0.917c0,0.229,0.229,0.229,0.229,0.458c0,0,0.229,0.229,0.458,0.229s0.229,0,0.458,0
					l0.229,0.229c0.229,0.458,0.458,1.146,0.917,1.375c0.229,0,0.458,0.229,0.458,0.229c0.229,0,0.458,0,0.458-0.229
					c0.229,0,0.229-0.229,0.458-0.458c0.229-0.458,0.458-1.146,0.229-1.834c0-0.688-0.229-1.604-0.688-2.292
					c-0.458-0.688-0.917-1.146-1.604-1.604c-0.688-0.229-1.375-0.458-2.063-0.458c-0.229,0-0.458,0-0.688,0.229
					c-0.917,0.229-1.834,0.688-2.292,1.604c-0.229,0.229-0.229,0.458-0.458,0.688C339.924,269.573,340.153,269.344,340.382,269.344z
					"/>
				<path opacity="0.1" enable-background="new    " d="M340.382,269.344h0.229c0.229,0,0.229,0.229,0.458,0.229
					c0.229,0.229,0.458,0.229,0.688,0.229c0.229,0,0.458,0,0.688,0c0.229,0,0.458-0.229,0.458-0.229c0.229,0,0.229,0,0.458,0.229
					l0.229,0.229c0.229,0.229,0.229,0.458,0.229,0.917c0,0.229,0.229,0.229,0.229,0.458c0,0,0.229,0.229,0.458,0.229
					s0.229,0,0.458,0l0.229,0.229c0.229,0.458,0.458,1.146,0.917,1.375c0.229,0,0.458,0.229,0.458,0.229
					c0.229,0,0.458,0,0.458-0.229c0.229,0,0.229-0.229,0.458-0.458c0.229-0.458,0.458-1.146,0.229-1.834
					c0-0.688-0.229-1.604-0.688-2.292c-0.458-0.688-0.917-1.146-1.604-1.604c-0.688-0.229-1.375-0.458-2.063-0.458
					c-0.229,0-0.458,0-0.688,0.229c-0.917,0.229-1.834,0.688-2.292,1.604c-0.229,0.229-0.229,0.458-0.458,0.688
					C339.924,269.573,340.153,269.344,340.382,269.344z"/>
				<path opacity="0.1" enable-background="new    " d="M336.944,278.054c0,0,0.229,1.375-0.458,1.834
					C335.798,280.346,336.944,278.054,336.944,278.054z"/>
				<path opacity="0.1" enable-background="new    " d="M339.694,276.449c0,0-2.063,0.229-2.063,0.458
					C337.861,277.137,339.694,276.449,339.694,276.449z"/>
				<path opacity="0.2" fill="#FFFFFF" enable-background="new    " d="M350.926,273.011l-7.335,4.355l-6.876,4.126l-2.063-1.834
					l4.126-8.022l3.438-6.647c0.229,0,0.458,0,0.917,0c0.229,0,0.458-0.229,0.688-0.229c1.146-0.458,2.521,0.458,3.209,1.604
					c0.688,1.146,0.917,2.521,1.375,3.667c0.229,0.458,0.458,0.917,0.917,1.146c0.229,0.229,0.458,0.229,0.688,0.229
					s0.458,0,0.688,0L350.926,273.011z"/>
				<path fill="#3F3D56" d="M336.027,279.658h-1.375c-0.229,0-0.458,0.229-0.458,0.688v4.355c0,0.229,0.229,0.688,0.458,0.688h1.375
					c0.229,0,0.458-0.229,0.458-0.688v-4.355C336.715,279.888,336.485,279.658,336.027,279.658z"/>
				<path opacity="0.2" enable-background="new    " d="M336.027,279.658h-1.375c-0.229,0-0.458,0.229-0.458,0.688v4.355
					c0,0.229,0.229,0.688,0.458,0.688h1.375c0.229,0,0.458-0.229,0.458-0.688v-4.355
					C336.715,279.888,336.485,279.658,336.027,279.658z"/>
				<path fill="#3F3D56" d="M335.339,281.721c0.229,0,0.458-0.229,0.458-0.458s-0.229-0.458-0.458-0.458s-0.458,0.229-0.458,0.458
					C334.881,281.492,335.11,281.721,335.339,281.721z"/>
				<path fill="#3F3D56" d="M334.193,288.139c0,0,0.458-2.063-0.229-2.751c-0.458-0.688-0.458-4.126,0.458-4.126
					s2.063,2.98,1.834,3.438c-0.229,0.688-0.917,3.667-0.917,3.667L334.193,288.139z"/>
				<path fill="#FFFFFF" d="M54.094,81.389c0.229,0,0.688-0.229,0.688-0.688c0-0.458-0.229-0.688-0.688-0.688
					c-0.229,0-0.688,0.229-0.688,0.688C53.636,80.93,53.865,81.389,54.094,81.389z"/>
				<path fill="#FFFFFF" d="M117.128,66.948c0.229,0,0.688-0.229,0.688-0.688c0-0.458-0.229-0.688-0.688-0.688
					c-0.229,0-0.688,0.229-0.688,0.688C116.67,66.49,116.899,66.948,117.128,66.948z"/>
				<path fill="#FFFFFF" d="M402.27,67.636c0.229,0,0.688-0.229,0.688-0.688c0-0.458-0.229-0.688-0.688-0.688
					c-0.229,0-0.688,0.229-0.688,0.688S402.04,67.636,402.27,67.636z"/>
				<path fill="#FFFFFF" d="M54.094,110.04c0.229,0,0.688-0.229,0.688-0.688s-0.229-0.688-0.688-0.688
					c-0.229,0-0.688,0.229-0.688,0.688C53.636,109.582,53.865,110.04,54.094,110.04z"/>
				<path fill="#FFFFFF" d="M421.065,90.328c0.229,0,0.688-0.229,0.688-0.688s-0.229-0.688-0.688-0.688
					c-0.229,0-0.688,0.229-0.688,0.688C420.607,89.87,420.836,90.328,421.065,90.328z"/>
				<path fill="#FFFFFF" d="M426.108,129.065c0.229,0,0.688-0.229,0.688-0.688s-0.229-0.688-0.688-0.688
					c-0.229,0-0.688,0.229-0.688,0.688S425.649,129.065,426.108,129.065z"/>
				<path fill="#FFFFFF" d="M543.694,83.91c0.229,0,0.688-0.229,0.688-0.688s-0.229-0.688-0.688-0.688
					c-0.229,0-0.688,0.229-0.688,0.688S543.236,83.91,543.694,83.91z"/>
				<path fill="#FFFFFF" d="M188.643,54.342c0.229,0,0.688-0.229,0.688-0.688c0-0.458-0.229-0.688-0.688-0.688
					c-0.229,0-0.688,0.229-0.688,0.688C187.955,54.112,188.413,54.342,188.643,54.342z"/>
				<path fill="#FFFFFF" d="M468.742,60.989c0.229,0,0.688-0.229,0.688-0.688c0-0.458-0.229-0.688-0.688-0.688
					c-0.229,0-0.688,0.229-0.688,0.688C468.054,60.76,468.512,60.989,468.742,60.989z"/>
				<path fill="#FFFFFF" d="M412.584,169.865c0.229,0,0.688-0.229,0.688-0.688s-0.229-0.688-0.688-0.688
					c-0.229,0-0.688,0.229-0.688,0.688C411.897,169.407,412.126,169.865,412.584,169.865z"/>
				<path fill="#FFFFFF" d="M116.67,196.225c0.229,0,0.688-0.229,0.688-0.688s-0.229-0.688-0.688-0.688
					c-0.229,0-0.688,0.229-0.688,0.688C115.982,195.996,116.211,196.225,116.67,196.225z"/>
				<path fill="#FFFFFF" d="M420.607,176.283c0.229,0,0.688-0.229,0.688-0.688c0-0.458-0.229-0.688-0.688-0.688
					c-0.458,0-0.688,0.229-0.688,0.688S420.148,176.283,420.607,176.283z"/>
				<path fill="#FFFFFF" d="M563.407,128.378c0.229,0,0.688-0.229,0.688-0.688c0-0.458-0.229-0.688-0.688-0.688
					c-0.229,0-0.688,0.229-0.688,0.688C562.948,128.148,563.177,128.378,563.407,128.378z"/>
				<path fill="#FFFFFF" d="M167.326,103.622c0.229,0,0.688-0.229,0.688-0.688c0-0.458-0.229-0.688-0.688-0.688
					c-0.229,0-0.688,0.229-0.688,0.688S166.867,103.622,167.326,103.622z"/>
			</g>
		</g>
	</g>
</g>
</svg>
