<?xml version="1.0" encoding="utf-8"?>
<!-- Generator: Adobe Illustrator 17.0.0, SVG Export Plug-In . SVG Version: 6.00 Build 0)  -->
<!DOCTYPE svg PUBLIC "-//W3C//DTD SVG 1.1//EN" "http://www.w3.org/Graphics/SVG/1.1/DTD/svg11.dtd">
<svg version="1.1" id="bf56719a-dd30-4b09-833f-7c41eeee086b"
	 xmlns="http://www.w3.org/2000/svg" xmlns:xlink="http://www.w3.org/1999/xlink" x="0px" y="0px" width="612px" height="437px"
	 viewBox="0 0 612 437" enable-background="new 0 0 612 437" xml:space="preserve">
<path fill="#F2F2F2" d="M521.78,184.65v13.849c0,2.356-1.839,4.195-4.08,4.195h-63.786c-2.241,0-4.08-1.896-4.08-4.195V184.65
	c0-2.356,1.839-4.195,4.08-4.195H517.7C519.941,180.455,521.78,182.351,521.78,184.65z"/>
<path opacity="0.1" fill="#536DFE" enable-background="new    " d="M446.444,206.831v13.849c0,2.356-1.839,4.195-4.08,4.195h-63.786
	c-2.241,0-4.08-1.896-4.08-4.195v-13.849c0-2.356,1.839-4.195,4.08-4.195h63.786C444.663,202.636,446.501,204.475,446.444,206.831z"
	/>
<path fill="#F2F2F2" d="M371.165,229.012v13.849c0,2.356-1.839,4.195-4.08,4.195h-63.786c-2.241,0-4.08-1.896-4.08-4.195v-13.849
	c0-2.356,1.839-4.195,4.08-4.195h63.786C369.326,224.817,371.165,226.656,371.165,229.012z"/>
<path fill="#F2F2F2" d="M521.78,151.378v13.849c0,2.356-1.839,4.195-4.08,4.195h-63.786c-2.241,0-4.08-1.896-4.08-4.195v-13.849
	c0-2.356,1.839-4.195,4.08-4.195H517.7C519.941,147.183,521.78,149.079,521.78,151.378z"/>
<path opacity="0.1" fill="#536DFE" enable-background="new    " d="M446.444,173.559v13.849c0,2.356-1.839,4.195-4.08,4.195h-63.786
	c-2.241,0-4.08-1.896-4.08-4.195v-13.849c0-2.356,1.839-4.195,4.08-4.195h63.786C444.663,169.364,446.501,171.26,446.444,173.559z"
	/>
<path fill="#F2F2F2" d="M371.165,195.74v13.849c0,2.356-1.839,4.195-4.08,4.195h-63.786c-2.241,0-4.08-1.896-4.08-4.195V195.74
	c0-2.356,1.839-4.195,4.08-4.195h63.786C369.326,191.545,371.165,193.442,371.165,195.74z"/>
<path fill="#F2F2F2" d="M287.496,184.65v13.849c0,2.356-1.839,4.195-4.08,4.195H219.63c-2.241,0-4.08-1.896-4.08-4.195V184.65
	c0-2.356,1.839-4.195,4.08-4.195h63.786C285.657,180.455,287.496,182.351,287.496,184.65z"/>
<path fill="#F2F2F2" d="M212.16,206.831v13.849c0,2.356-1.839,4.195-4.08,4.195h-63.786c-2.241,0-4.08-1.896-4.08-4.195v-13.849
	c0-2.356,1.839-4.195,4.08-4.195h63.786C210.321,202.636,212.16,204.475,212.16,206.831z"/>
<path fill="#F2F2F2" d="M136.824,229.012v13.849c0,2.356-1.839,4.195-4.08,4.195H68.958c-2.241,0-4.08-1.896-4.08-4.195v-13.849
	c0-2.356,1.839-4.195,4.08-4.195h63.786C135.042,224.817,136.824,226.656,136.824,229.012z"/>
<path fill="#F2F2F2" d="M287.496,151.378v13.849c0,2.356-1.839,4.195-4.08,4.195H219.63c-2.241,0-4.08-1.896-4.08-4.195v-13.849
	c0-2.356,1.839-4.195,4.08-4.195h63.786C285.657,147.183,287.496,149.079,287.496,151.378z"/>
<path fill="#F2F2F2" d="M212.16,173.559v13.849c0,2.356-1.839,4.195-4.08,4.195h-63.786c-2.241,0-4.08-1.896-4.08-4.195v-13.849
	c0-2.356,1.839-4.195,4.08-4.195h63.786C210.321,169.364,212.16,171.26,212.16,173.559z"/>
<path fill="#F2F2F2" d="M136.824,195.74v13.849c0,2.356-1.839,4.195-4.08,4.195H68.958c-2.241,0-4.08-1.896-4.08-4.195V195.74
	c0-2.356,1.839-4.195,4.08-4.195h63.786C135.042,191.545,136.824,193.442,136.824,195.74z"/>
<path fill="#F2F2F2" d="M521.78,107.072v13.849c0,2.356-1.839,4.195-4.08,4.195h-63.786c-2.241,0-4.08-1.896-4.08-4.195v-13.849
	c0-2.356,1.839-4.195,4.08-4.195H517.7C519.941,102.877,521.78,104.716,521.78,107.072z"/>
<path opacity="0.1" fill="#536DFE" enable-background="new    " d="M446.444,129.196v13.849c0,2.356-1.839,4.195-4.08,4.195h-63.786
	c-2.241,0-4.08-1.896-4.08-4.195v-13.849c0-2.356,1.839-4.195,4.08-4.195h63.786C444.663,125.001,446.501,126.897,446.444,129.196z"
	/>
<path fill="#F2F2F2" d="M371.165,151.378v13.849c0,2.356-1.839,4.195-4.08,4.195h-63.786c-2.241,0-4.08-1.896-4.08-4.195v-13.849
	c0-2.356,1.839-4.195,4.08-4.195h63.786C369.326,147.183,371.165,149.079,371.165,151.378z"/>
<path fill="#F2F2F2" d="M521.78,73.8v13.849c0,2.356-1.839,4.195-4.08,4.195h-63.786c-2.241,0-4.08-1.896-4.08-4.195V73.8
	c0-2.356,1.839-4.195,4.08-4.195H517.7C519.941,69.605,521.78,71.444,521.78,73.8z"/>
<path opacity="0.1" fill="#536DFE" enable-background="new    " d="M446.444,95.981v13.849c0,2.356-1.839,4.195-4.08,4.195h-63.786
	c-2.241,0-4.08-1.896-4.08-4.195V95.981c0-2.356,1.839-4.195,4.08-4.195h63.786C444.663,91.786,446.501,93.625,446.444,95.981z"/>
<path fill="#F2F2F2" d="M371.165,118.105v13.849c0,2.356-1.839,4.195-4.08,4.195h-63.786c-2.241,0-4.08-1.896-4.08-4.195v-13.849
	c0-2.356,1.839-4.195,4.08-4.195h63.786C369.326,113.91,371.165,115.807,371.165,118.105z"/>
<path fill="#F2F2F2" d="M287.496,107.072v13.849c0,2.356-1.839,4.195-4.08,4.195H219.63c-2.241,0-4.08-1.896-4.08-4.195v-13.849
	c0-2.356,1.839-4.195,4.08-4.195h63.786C285.657,102.877,287.496,104.716,287.496,107.072z"/>
<path fill="#F2F2F2" d="M212.16,129.196v13.849c0,2.356-1.839,4.195-4.08,4.195h-63.786c-2.241,0-4.08-1.896-4.08-4.195v-13.849
	c0-2.356,1.839-4.195,4.08-4.195h63.786C210.321,125.001,212.16,126.897,212.16,129.196z"/>
<path fill="#F2F2F2" d="M136.824,151.378v13.849c0,2.356-1.839,4.195-4.08,4.195H68.958c-2.241,0-4.08-1.896-4.08-4.195v-13.849
	c0-2.356,1.839-4.195,4.08-4.195h63.786C135.042,147.183,136.824,149.079,136.824,151.378z"/>
<path fill="#F2F2F2" d="M287.496,73.8v13.849c0,2.356-1.839,4.195-4.08,4.195H219.63c-2.241,0-4.08-1.896-4.08-4.195V73.8
	c0-2.356,1.839-4.195,4.08-4.195h63.786C285.657,69.605,287.496,71.444,287.496,73.8z"/>
<path fill="#F2F2F2" d="M212.16,95.981v13.849c0,2.356-1.839,4.195-4.08,4.195h-63.786c-2.241,0-4.08-1.896-4.08-4.195V95.981
	c0-2.356,1.839-4.195,4.08-4.195h63.786C210.321,91.786,212.16,93.625,212.16,95.981z"/>
<path fill="#F2F2F2" d="M136.824,118.105v13.849c0,2.356-1.839,4.195-4.08,4.195H68.958c-2.241,0-4.08-1.896-4.08-4.195v-13.849
	c0-2.356,1.839-4.195,4.08-4.195h63.786C135.042,113.91,136.824,115.807,136.824,118.105z"/>
<ellipse fill="#F2F2F2" cx="306" cy="380.202" rx="301.116" ry="55.798"/>
<polygon fill="#393944" points="459.316,189.419 480.233,329.691 390.761,322.105 385.819,335.552 500.346,347.907 475.004,189.706 
	"/>
<polygon fill="#393944" points="460.695,374.858 306,353.539 350.593,9.612 504.713,10.186 "/>
<polygon fill="#F7F7F7" points="448.283,361.124 320.021,343.137 363.522,23.346 487.934,23.346 "/>
<path fill="#4C4C5B" d="M375.648,325.21c3.103,0.632,6.149,1.437,9.137,2.471c0.862,0.23,1.609,0.632,2.299,1.149
	c1.609,1.436,1.436,4.08,2.011,6.206c0.23,0.919,0.632,1.839,0.517,2.758c-0.23,1.149-1.034,2.126-2.126,2.528
	c-1.034,0.402-2.184,0.632-3.333,0.632l-4.31,0.287c-1.092,0.058-2.184,0.173-3.218,0.46c-2.069,0.632-3.85,2.068-5.919,2.643
	c-1.265,0.345-2.586,0.459-3.908,0.402c-3.908,0.057-8.103,0-11.321-2.299c-0.402-0.287-0.804-0.804-0.632-1.264
	c0.115-0.23,0.287-0.402,0.517-0.517c4.252-2.643,9.884-3.332,12.872-7.355c0.977-1.379,1.551-2.988,2.356-4.54
	C371.74,326.53,373.176,324.634,375.648,325.21z"/>
<path fill="#4C4C5B" d="M420.01,334.344c0.23-1.552,0.23-4.655,1.092-5.919c0.69-1.034,11.034-2.988,11.091-2.701
	c0.517,3.736,1.322,7.471,2.356,11.091c0.46,1.551,0.92,3.103,0.805,4.712c0,0.575-0.173,1.092-0.46,1.552
	c-0.287,0.345-0.632,0.632-0.977,0.862c-3.505,2.241-8.045,2.184-12.125,1.207c-0.69-0.115-1.322-0.402-1.839-0.862
	c-0.805-0.804-0.805-2.183-0.69-3.39C419.435,338.713,419.723,336.586,420.01,334.344z"/>
<path fill="#393944" d="M392.944,184.595c5.575-3.965,11.953-7.126,18.734-7.643c6.781-0.518,14.079,1.896,18.159,7.47
	c2.586,3.448,3.678,7.758,4.655,12.01c0.919,3.965,1.666,7.93,2.471,11.895c1.206,5.861,2.356,11.838,1.666,17.814
	c-0.517,4.252-1.953,8.332-2.758,12.527c-1.264,6.321-1.092,12.872,0.402,19.136c1.666,6.954,5.057,13.677,4.827,20.86
	c-0.115,2.241-0.518,4.425-0.805,6.666c-0.919,7.585-0.057,15.285-0.402,22.928c-0.402,7.643-1.322,15.286-6.551,20.745
	c-4.769-0.632-9.596-0.058-14.136,1.609c-1.264-3.103-0.862-6.666,0-9.884c0.805-3.219,2.069-6.379,2.414-9.712
	c0.632-6.034-1.839-11.895-2.414-17.929c-0.517-5.171,0.403-10.401-0.057-15.63c-0.172-1.954-0.517-3.908-0.919-5.804
	c-1.781-8.85-3.965-17.699-4.942-26.664c-0.69-6.436-0.517-13.447-4.08-18.791l-3.505,16.665c-0.575,2.815-1.207,5.689-2.414,8.332
	c-0.805,1.724-1.896,3.39-2.471,5.229c-0.345,1.379-0.518,2.815-0.575,4.252c-1.034,14.941-5.401,29.48-6.838,44.363
	c-0.23,2.758-0.402,5.517-1.207,8.16c-0.862,2.931-2.528,5.631-2.873,8.677c-0.402,3.333,0.977,7.528-1.092,10.171l-16.32-6.034
	c1.724-0.977,1.149-3.563,0.862-5.574c-0.23-1.953-0.115-3.907,0.23-5.861c2.184-15.688,6.149-31.433,4.885-47.236
	c-0.173-1.609-0.23-3.161-0.23-4.77c0.115-2.414,0.747-4.77,1.034-7.126c0.689-6.091-0.977-12.297-1.437-18.446
	c-0.402-5.345,0.172-10.689,0.747-16.033l2.758-26.089C384.382,190.971,388.462,187.465,392.944,184.595z"/>
<path fill="#FECEB8" d="M397.427,90.466c0.92-1.322,3.103-1.897,4.54-2.299c1.724-0.517,3.506-0.92,5.287-1.322l8.045-1.839
	c-0.173,3.677,1.034,7.355,3.39,10.171c0.345,0.344,0.575,0.747,0.747,1.149c0.058,0.23,0.115,0.46,0.115,0.69
	c0.23,2.643-0.92,5.286-2.069,7.7c-0.575,1.38-1.379,2.701-2.241,3.908c-0.919,1.149-2.011,2.068-3.218,2.873
	c-1.437,1.035-3.046,1.839-4.712,2.299c-1.724,0.46-3.506,0.402-5.172-0.23c-2.127-0.862-3.736-2.816-4.77-4.885
	c-0.288-0.575-0.575-1.264-0.69-1.954c-0.115-0.919-0.057-1.896,0.23-2.758c0.345-1.437,0.919-2.816,1.609-4.08
	c0.517-1.034,1.207-2.069,1.092-3.218c-0.115-0.575-0.345-1.15-0.632-1.667C398.346,93.855,396.622,91.729,397.427,90.466z"/>
<ellipse fill="#FECEB8" cx="403.288" cy="78.799" rx="14.596" ry="14.883"/>
<path fill="#F2F2F2" d="M415.586,100.35c0.287-0.574,0.747-0.977,1.264-1.264c0.287-0.115,0.632-0.115,0.919-0.115
	c1.265,0.058,2.529,0.23,3.793,0.46c0.459,0.057,0.862,0.23,1.264,0.402c0.804,0.517,1.436,1.264,1.781,2.126
	c1.092,2.184,1.896,4.597,2.241,7.068c0.69,5.459-0.459,10.918-1.034,16.377c-0.632,5.976-1.092,11.952-1.494,17.986
	c-0.804,11.321-2.643,22.526-5.574,33.502c-0.69,2.701-1.494,5.402-1.724,8.16c-7.988,0.919-15.975,1.666-23.963,2.126l0.517-5.976
	c0.287-2.701,0.402-5.344,0.402-8.045c-0.23-9.252-3.391-18.159-3.563-27.411c-0.058-2.528-1.092-4.942-1.724-7.413
	c-0.919-3.908-0.804-8.045-0.632-12.068c0.172-4.482,0.344-9.022,1.896-13.159c0.977-2.413,2.184-4.654,3.563-6.838
	c1.092-1.782,2.184-3.621,3.793-4.885c0.689-0.517,1.781-0.862,2.241-0.172c0.115,0.287,0.23,0.632,0.23,0.977
	c0.23,1.494,1.494,2.586,2.701,3.448s2.529,1.724,3.161,3.103C409.724,106.957,413.172,104.026,415.586,100.35z"/>
<path fill="#FF825C" d="M410.243,106.496c-0.633-0.057-1.667,0.633-2.299,0.805c-1.667,0.517-3.448,0.747-5.057,0.057
	c-0.517-0.288-1.034-0.517-1.609-0.69c-0.575-0.173-1.207,0.057-1.552,0.517c0.805,1.034,1.437,2.183,1.954,3.39
	c0.632,2.012,0.862,4.08,0.632,6.149c-0.345,5.459-2.127,10.631-3.908,15.803c-0.459,1.552-1.091,3.103-1.781,4.54
	c-0.574,0.862-0.977,1.839-1.264,2.873c-0.345,1.954,0.689,3.908,1.666,5.632l1.092,1.896c0.172,0.288,0.287,0.518,0.517,0.69
	c0.344,0.23,0.689,0.345,1.034,0.345c1.781,0.115,3.448-0.575,5.057-1.322c0.575-0.172,1.092-0.517,1.437-0.977
	c0.287-0.46,0.402-0.977,0.402-1.494c0.172-2.413-0.057-4.827-0.747-7.183c-0.402-1.379-0.919-2.701-1.264-4.08
	c-0.46-2.183-0.632-4.482-0.517-6.723c0-2.816,0-5.747,1.034-8.39c0.747-1.839,1.896-3.448,2.471-5.344
	c0.172-0.689,0.402-1.379,0.747-2.011c0.919-1.551,3.103-1.896,4.137-3.39C412.367,107.647,410.528,106.44,410.243,106.496z"/>
<path fill="#F2F2F2" d="M395.76,111.728c0.115-0.689,0.23-1.321,0.23-2.011s-0.057-1.379,0-2.069
	c0.172-1.322,0.747-2.529,1.034-3.793c0.172-0.862,0.23-1.782,0.402-2.701c0.115-0.92,0.632-1.724,1.322-2.299
	c0.575,3.103,2.299,5.861,4.827,7.7c0.46,0.287,0.862,0.632,1.207,1.034c0.344,0.402,0.344,1.034,0.057,1.494
	c-0.46,0.575-1.322,0.46-2.069,0.115s-1.609-0.689-1.896-1.494c-0.058-0.173-0.115-0.345-0.23-0.46
	c-0.287-0.287-0.804-0.057-1.149,0.23C398.001,108.739,397.082,110.348,395.76,111.728z"/>
<path fill="#F2F2F2" d="M406.562,108.796c0.287,0.575,4.195-1.781,5.057-1.781c1.092-0.058,2.126,0.517,2.758,1.494
	c0.575-3.908,1.954-7.643,4.023-10.976c0.46-0.517,0.69-1.149,0.747-1.839c0-0.919-0.804-1.666-1.494-2.241
	c-1.092,3.276-2.93,6.206-5.344,8.62c-0.574,0.575-1.091,1.092-1.666,1.609C410.011,104.314,406.104,107.877,406.562,108.796z"/>
<path fill="#4C4C5B" d="M394.726,113.048c-0.977,3.505-1.897,7.068-2.069,10.746c-0.058,1.264,0.057,2.528,0.402,3.735
	c0.287,0.862,0.689,1.667,1.149,2.414c2.988,5.344,5.286,10.976,7.585,16.665c2.069-14.481,9.539-27.64,13.102-41.834
	c0.689-2.585,2.586-4.827,2.873-7.47c0.115-1.207,0.517-2.701,1.724-2.816c0.632,0,1.206,0.287,1.666,0.747
	c1.436,1.264,2.585,2.873,4.137,4.08c1.379,0.977,2.931,1.724,4.54,2.299l12.585,5.057c1.724,0.459,3.16,1.724,3.85,3.39
	l1.839,3.448c1.207,2.183,2.241,4.424,2.988,6.838c1.321,4.654,0.804,9.654-1.437,13.906c-1.092,2.011-2.528,3.792-3.735,5.746
	c-2.183,3.391-5.114,7.126-4.999,11.206c0.057,3.85-1.034,7.642-1.839,11.435c-0.804,3.792-1.149,7.93,0.46,11.435
	c0.575,1.149,1.322,2.298,1.437,3.62c0.115,1.264-0.805,2.816-2.069,2.701c-0.862,1.552-1.667,3.448-0.805,4.942
	c0.23,0.459,0.632,0.804,0.862,1.264c0.517,0.977,0.345,2.184,0.115,3.218c-0.919,4.08-2.413,7.988-4.482,11.608
	c-0.862,1.552-1.839,2.931-3.046,4.195c-3.677,3.678-9.366,4.712-14.251,3.218c-4.827-1.494-8.907-5.229-11.378-9.769
	c-2.471-4.54-3.563-9.769-3.793-14.941c0.805,5.114-1.781,10.056-4.482,14.366c-1.724,2.759-3.563,5.402-5.344,8.103
	c-0.919,1.379-1.953,2.873-3.39,3.678c-2.011,1.15-4.539,0.862-6.838,0.46c-1.724-0.287-3.563-0.69-4.885-1.839
	c-2.299-1.954-2.299-5.516-2.184-8.562c0.23-5.459,0.69-11.378,4.425-15.286c1.206-1.265,2.758-2.299,3.505-3.908
	c0.402-1.034,0.69-2.126,0.747-3.275c0.459-2.988,1.379-5.861,2.758-8.562c-2.529-4.655,1.609-10.689-0.23-15.688
	c-0.402-1.034-0.977-1.954-1.264-2.988c-0.115-0.92-0.23-1.782-0.287-2.701c-0.517-4.655-4.137-8.275-7.298-11.723
	c-1.034-1.15-2.011-2.299-2.356-3.793c-0.172-0.919-0.172-1.839-0.057-2.758c0.46-5.459,0.919-11.033,2.241-16.377
	c0.115-0.632,0.403-1.207,0.805-1.724c0.517-0.517,1.149-0.805,1.839-0.977c7.011-2.241,13.332-6.149,18.504-11.378
	C397.082,103.969,395.99,108.394,394.726,113.048z"/>
<path fill="#4C4C5B" d="M375.473,132.874c0.173-1.552-0.229-3.103,1.552-3.218c1.149,0,2.298,0.345,3.275,1.092
	c1.264,0.977,2.298,2.299,2.988,3.793c1.15,2.298,1.897,4.769,2.184,7.355c0.345,3.103,0.057,6.206,0,9.309s0.23,6.321,1.724,9.022
	c0.46,0.747,0.862,1.494,1.207,2.241c0.46,1.321,0.575,2.758,0.46,4.137c-0.23,4.942-1.207,9.769-2.873,14.424
	c-0.632,1.954-1.609,3.793-2.758,5.459c-0.805,1.034-1.724,1.954-2.586,2.988c-2.413,2.816-4.137,6.148-5.861,9.424l-1.896-5.459
	c-1.149-3.218-2.241-6.609-1.781-9.999c0.172-1.206,0.517-2.471,0.172-3.62c-0.288-1.034-1.092-1.839-1.552-2.758
	c-1.494-3.103,0.92-6.839,0.115-10.229c-0.287-1.149-0.919-2.241-0.632-3.39c0.115-0.459,0.345-0.862,0.575-1.264
	c0.69-1.379,1.207-2.816,1.609-4.31c0.805-2.643,1.552-5.287,2.069-8.045c0.459-2.356,0.689-4.712,0.919-7.126L375.473,132.874z"/>
<path fill="#4C4C5B" d="M451.157,123.333c-0.403-0.92-0.805-3.046-2.069-3.046c-0.977,0-2.529,1.724-3.161,2.299
	c-2.011,1.839-3.677,3.965-4.999,6.379c-2.701,4.77-3.735,10.344-2.988,15.803c0.46,2.873,1.322,5.632,2.471,8.275
	c1.091,2.586,2.528,5.23,5.114,6.264c-1.265,2.414-0.345,5.402-0.69,8.103c-0.345,2.528-1.667,4.769-2.299,7.183
	c-0.459,1.896-0.517,3.85-0.919,5.746c-1.034,4.597-4.195,8.275-6.206,12.47c-0.229,0.403-0.287,0.862-0.172,1.322
	c0.173,0.23,0.345,0.46,0.575,0.575c2.758,1.896,5.229,4.195,7.298,6.838c7.298-11.263,13.734-23.273,17.297-36.318
	c0.574-1.724,0.862-3.506,0.919-5.287c0-1.494-0.23-3.046-0.575-4.54c-0.69-3.448-1.494-6.781-2.356-10.171
	c-0.92-3.39-1.897-6.781-3.046-10.171C454.087,131.15,452.65,127.3,451.157,123.333z"/>
<path fill="#FECEB8" d="M435.929,194.936c0.747-0.805,1.667-2.816,2.586-2.299c0.804,0.46,1.838,2.471,2.643,3.218
	c0.288,0.23,3.161,2.414,3.161,2.471c-0.69,1.609-2.069,2.701-3.333,3.908c-1.609,1.494-3.103,3.218-4.31,5.114
	c-0.69-2.184-1.495-4.31-2.414-6.436c-0.287-0.862-0.862-1.667-1.609-2.184c-0.115-0.115-0.288-0.115-0.345-0.345
	c-0.058-0.23,0.115-0.402,0.287-0.517C433.744,196.947,434.836,195.97,435.929,194.936z"/>
<path fill="#393944" d="M384.21,72.94c-0.862,0.287-1.781,0.345-2.643,0.115l1.839-4.023c0.115-0.173,0.172-0.46,0.172-0.69
	c-0.115-0.747-1.494-0.861-1.437-1.666c1.954-0.689,2.529-3.275,3.161-5.344c0.977-3.103,3.218-6.149,6.379-6.666
	c1.091-0.115,2.241-0.115,3.39-0.115c2.701-0.115,5.402-1.437,7.988-0.575c0.977,0.287,1.781,0.862,2.758,1.149s2.183,0,2.643-0.862
	c1.206,0.919,2.643,1.437,4.137,1.494l0.575-1.437c1.207,1.322,2.816,2.184,4.597,2.356l1.322,3.793
	c0.632,1.724,1.206,3.448,1.781,5.172c1.667,5.115,2.816,10.918,0.46,15.803c-0.689,1.436-1.781,2.815-3.275,3.275
	c-2.242-2.816-3.851-6.092-4.77-9.597c-0.46-1.609-0.747-3.276-1.954-4.425c-1.551-1.437-4.022-1.207-5.976-0.345
	s-3.621,2.241-5.632,2.988c-2.988,1.092-6.321,0.517-9.539,0.632c-0.574-0.057-1.206,0.115-1.666,0.46
	c-0.575,0.459-0.633,1.264-0.69,2.011C387.715,77.995,384.957,75.122,384.21,72.94z"/>
<path fill="#FECEB8" d="M296.002,80.81c0.345-0.632,2.241-2.643,2.241-3.275c-0.058-1.034-4.77-2.7-5.919-3.39
	c-2.184-1.322-4.253-2.931-6.494-4.195c-0.459-0.288-6.895-2.759-6.838-2.299c0.46,4.77-1.092,9.54-4.31,13.045
	c7.758,5.057,13.045,13.102,18.159,20.917c-1.322-2.012-1.092-4.655-0.69-7.011c0.517-3.161,1.265-6.264,2.184-9.367
	C294.794,83.741,295.369,82.247,296.002,80.81z"/>
<path fill="#AFADBC" d="M272.556,378.534c-5.919,2.701-12.93,0.804-18.504-2.586c-0.403-0.287-0.862-0.402-1.322-0.402
	c-0.632,0.115-0.977,0.805-1.207,1.437c-2.126,5.517-3.448,11.378-3.85,17.297c-0.172,2.356,0.058,5.172,2.069,6.321
	c1.206,0.747,2.758,0.517,4.137,0.345c6.034-0.747,12.125-0.862,18.159-0.919l19.71-0.23c2.241-0.058,4.597-0.115,6.666-1.092
	c1.667-0.804,3.046-2.241,3.793-3.965c0.517-0.919,0.575-2.069,0.23-3.103c-0.517-1.207-1.781-1.839-2.988-2.241
	c-4.597-1.552-9.711-1.782-13.619-4.655c-2.241-1.666-3.965-4.137-6.436-5.459c-2.816-1.436-6.149-1.149-8.735,0.69"/>
<path fill="#3F3D56" d="M262.902,250.621c0.689,0.23,1.264,0.575,1.781,1.092c1.436,1.264,3.16,2.643,3.62,4.482
	c2.184,8.735,4.367,17.584,4.195,26.549c-0.115,8.562-2.356,16.952-3.678,25.399c-1.666,10.688-1.781,21.492-1.896,32.295
	l-0.402,34.996c-3.562,1.896-7.585,2.528-11.55,1.781c-0.402-0.058-0.804-0.23-1.149-0.46c-0.862-0.748-0.46-2.127-0.115-3.276
	c0.862-2.816,0.747-5.746,0.632-8.677l-1.437-34.651c-0.345-7.586-0.632-15.401,1.494-22.699c0.862-2.873,2.069-5.632,2.931-8.505
	c0.747-2.529,1.321-5.057,1.781-7.643c2.471-12.987,3.908-26.377,1.724-39.421C261.235,251.309,262.212,250.389,262.902,250.621z"/>
<path fill="#393944" d="M262.902,250.621c0.689,0.23,1.264,0.575,1.781,1.092c1.436,1.264,3.16,2.643,3.62,4.482
	c2.184,8.735,4.367,17.584,4.195,26.549c-0.115,8.562-2.356,16.952-3.678,25.399c-1.666,10.688-1.781,21.492-1.896,32.295
	l-0.402,34.996c-3.562,1.896-7.585,2.528-11.55,1.781c-0.402-0.058-0.804-0.23-1.149-0.46c-0.862-0.748-0.46-2.127-0.115-3.276
	c0.862-2.816,0.747-5.746,0.632-8.677l-1.437-34.651c-0.345-7.586-0.632-15.401,1.494-22.699c0.862-2.873,2.069-5.632,2.931-8.505
	c0.747-2.529,1.321-5.057,1.781-7.643c2.471-12.987,3.908-26.377,1.724-39.421C261.235,251.309,262.212,250.389,262.902,250.621z"/>
<path fill="#454554" d="M291.289,207.407c-3.792-1.436-7.872-1.839-11.895-1.896c-10.516-0.115-20.917,2.299-30.284,7.183
	c-0.575,3.333-0.747,6.724-0.575,10.114c0.058,1.379,0.23,2.701,0.69,3.965c0.632,1.666,1.781,2.988,2.643,4.482
	c1.724,3.218,2.069,7.068,3.908,10.229c0.747,1.206,1.667,2.241,2.299,3.505c1.15,2.127,1.322,4.597,1.437,7.011
	c0.344,5.861,0.632,11.78,1.666,17.584c0.804,4.482,2.068,8.85,2.873,13.332c0.805,4.425-0.345,9.194,0,13.734
	c0.344,4.195-1.667,8.102-3.046,12.125s-2.068,8.275-2.758,12.47c-2.011,12.126-3.965,24.366-3.735,36.663
	c0.173,6.148,0.805,12.297,2.069,18.331c0.518,2.356,0.92,5.286-0.919,6.838c-0.344,0.287-0.632,0.574-0.919,0.919
	c-0.403,0.632-0.115,1.436,0.172,2.126l2.241,5.689c0.287,0.862,0.689,1.782,1.494,2.184c0.46,0.23,1.035,0.344,1.552,0.287
	c4.367,0.058,8.562-1.724,12.642-3.505c1.322-0.459,2.529-1.207,3.563-2.126c0.977-1.035,1.609-2.586,1.034-3.908
	c-0.287-0.689-0.805-1.264-0.977-2.011c-0.173-0.862,0.23-1.724,0.402-2.586c0.345-1.782-0.402-3.563-0.862-5.287
	c-2.413-8.735,1.609-17.7,2.586-26.664c0.344-3.103,0.344-6.263,1.034-9.309c0.574-2.356,1.494-4.655,1.896-7.011
	c0.575-3.161,0.058-6.551,0.805-9.712c0.805-3.275,3.276-5.804,4.655-8.907c2.069-4.54,3.391-9.425,3.908-14.424
	c0.115-1.494,0.345-3.046,0.632-4.54c0.459-1.609,1.034-3.218,1.781-4.712c2.356-5.574,3.965-11.435,4.77-17.469
	c0.92-6.953,0.747-14.021,0.46-21.032c-0.172-4.195-0.345-8.39-0.115-12.585c0.057-1.723,0.344-3.39,0.919-4.999
	c0.804-1.896,2.298-3.505,2.643-5.574c0.344-2.069-0.46-4.195-0.575-6.321c-0.172-3.506,1.552-7.069,0.747-10.459
	C298.357,210.854,295.082,208.9,291.289,207.407z"/>
<path fill="#AFADBC" d="M279.222,388.419c-2.011-2.011-5.287-1.954-7.298,0.115c-0.747,0.804-0.977,1.953-1.839,2.643
	c-1.092,0.92-2.931,1.322-4.31,1.552c-2.127,0.403-4.425,0.173-6.264-1.034c-0.46-0.345-0.92-0.632-1.437-0.862
	c-1.264-0.459-2.643,0.23-3.448,1.322c-0.689,1.149-1.207,2.413-1.379,3.735l-3.563,15.86c-0.229,0.977-0.459,2.069-0.057,2.988
	c0.345,0.69,0.862,1.265,1.494,1.667c2.299,1.666,5.057,2.528,7.758,3.333c2.241,0.747,4.482,1.321,6.781,1.781
	c3.678,0.69,7.528,0.632,11.263,1.322c2.011,0.345,4.022,0.977,6.091,1.264c2.241,0.287,4.54,0.402,6.781,0.287l7.413-0.115
	c1.494,0.057,3.045-0.115,4.482-0.46c2.758-0.862,4.941-3.103,5.746-5.976c0.172-0.632,0.229-1.321,0.057-2.011
	c-0.288-1.035-1.265-1.724-2.184-2.299l-16.492-10.688c-2.643-1.724-5.459-3.62-6.723-6.551c-1.034-2.414-0.919-5.344-2.528-7.413
	C279.451,388.707,279.336,388.592,279.222,388.419z"/>
<ellipse fill="#FECEB8" cx="290.312" cy="62.767" rx="19.883" ry="20.285"/>
<path fill="#393944" d="M306,51.734c0.173-3.045,0.345-7.24-0.402-10.171c-0.345-1.379-1.494-2.471-2.873-2.758l0.69-1.494
	c-0.173-0.058-0.288-0.173-0.46-0.23c-1.322-0.747-1.839-2.414-1.092-3.793c-1.379-0.518-2.815,0.057-4.252,0.057
	c-1.437,0.058-3.161-0.919-2.931-2.356c-2.241,2.241-6.091,0.172-9.137,1.034c-1.149,0.345-2.298,1.092-3.39,0.69
	c-0.345-0.23-0.69-0.345-1.092-0.46c-0.517,0-0.977,0.23-1.322,0.575c-2.184,1.781-4.195,4.597-7.011,4.252
	c0.345,1.092-0.402,2.298-1.379,2.873c-1.034,0.46-2.126,0.689-3.275,0.632c1.206-0.173,2.011,1.436,1.781,2.643
	c-0.23,1.207-1.149,2.184-1.724,3.333c-1.034,1.896-1.206,4.137-1.149,6.321c0.115,5.23,1.436,10.402,2.758,15.516
	c0.23,1.034,0.575,2.011,1.092,2.873c0.575,0.919,1.437,1.666,2.471,2.126c2.586,1.207,5.516,1.035,8.332,0.805
	c2.471-0.23,5-0.46,7.528-0.69c0.862-0.115,1.724-0.173,2.414-0.805c0.689-0.632,0.862-1.609,1.034-2.528
	c0.632-3.218,1.896-6.206,3.735-8.907c1.265-1.839,3.448-3.62,5.402-2.586c1.954,1.035,1.954,4.195,3.85,5.287
	C304.736,63.456,306,52.998,306,51.734z"/>
<path fill="#AFADBC" d="M276.12,78.57c-2.471-1.149-3.103,0.517-4.655,2.471c-1.552,2.011-3.103,4.022-4.655,6.091
	c-3.045,4.08-5.919,8.217-8.677,12.412c-5.517,8.39-10.516,17.067-15.056,26.032c-1.609,3.218-3.218,6.551-3.965,10.114
	c-0.689,3.219-0.689,6.551-0.632,9.827c0.057,4.482,0.115,8.964,0.517,13.389c1.15,11.952,4.942,23.56,6.034,35.513
	c0.805,8.39,0.288,17.067,3.046,24.997c15.86-7.356,33.559-9.252,50.569-5.517c2.011,0.459,4.309,1.264,4.999,3.275
	c-0.058-8.275,1.034-16.493,3.275-24.423c0.862-3.045,1.897-6.033,2.299-9.194c0.575-3.965,0.115-8.045-0.402-12.01
	c-0.69-5.861-1.551-11.665-2.356-17.469l-3.161-22.411c-2.127-15.171-4.655-31.319-14.654-42.754
	C285.313,85.063,280.658,80.753,276.12,78.57z"/>
<path opacity="0.1" enable-background="new    " d="M289.564,108.853c-0.517-6.091-2.643-10.86-8.275-13.159
	c-7.987-3.275-15.343,0.115-21.319,5.804c-3.448,3.39-6.608,7.068-9.424,11.033c-2.988,4.023-5.976,8.16-8.045,12.7
	s-3.39,9.597-2.988,14.654c0.345,2.701,0.862,5.344,1.667,7.93c1.954,7.01,4.023,14.078,7.528,20.457
	c3.62,6.551,8.562,12.183,13.504,17.757c1.034,1.207,2.126,2.413,3.62,2.873c1.035,0.287,2.127,0.287,3.161,0
	c3.505-0.805,6.494-3.046,8.39-6.149c0.403-0.574,0.633-1.264,0.69-2.011c0.057-1.207-0.805-2.299-1.552-3.276
	c-2.873-3.907-4.424-8.619-5.976-13.274l-2.414-7.298c-1.092-3.391-2.184-6.781-2.586-10.344c-0.287-2.701-0.058-5.574,1.379-7.873
	c0.977-1.379,2.241-2.586,3.62-3.505c5.747-4.252,12.413-7.643,16.263-13.734C289.105,117.646,290.14,113.221,289.564,108.853z"/>
<path fill="#FECEB8" d="M274.281,181.143c-2.528-1.552-6.378-0.862-7.183,2.356c-0.287,1.379-0.172,2.873,0.23,4.252
	c1.207,4.77,4.195,9.194,8.562,11.263c3.621,1.781,8.39,2.126,10.344,5.689c0.862,1.551,0.919,3.39,1.264,5.114
	c0.114,0.517,0.287,1.15,0.919,1.207c0.46,0,0.862-0.288,1.092-0.69c2.069-3.793,0.287-8.217-1.494-12.01
	c1.264,1.666,2.758,3.218,4.367,4.597c0.344,0.23,0.689,0.46,1.034,0.69c0.805,0.518,1.781,0.46,2.586-0.057
	c1.092-0.804,1.437-2.356,0.69-3.505c-1.264-2.011-3.16-3.505-5.344-4.195c2.414-0.517,3.85,2.759,6.034,3.908
	c0.115,0.057,0.23,0.057,0.345,0.057c0.345,0,0.632-0.345,0.632-0.69c-0.115-1.321-0.69-2.471-1.609-3.39
	c-1.207-1.091-2.471-1.953-3.908-2.643c-1.034-0.575-2.126-1.264-2.011-2.586c0.058-0.574,0.288-1.034,0.69-1.379
	c0.976-0.919,2.183-1.034,3.39-1.149l1.896-0.172c0.402,0,0.747-0.23,1.034-0.517c0.575-0.69,0.517-1.724-0.115-2.299
	c-0.575-0.459-1.322-0.862-2.069-1.034c-1.782-0.46-3.621-0.172-5.402,0c-2.414,0.23-4.884,0.345-7.298,0.23
	C279.106,184.075,277.325,182.868,274.281,181.143z"/>
<path fill="#AFADBC" d="M287.668,107.358c-0.517-6.091-2.586-10.86-8.275-13.159c-7.987-3.275-15.343,0.115-21.319,5.804
	c-3.448,3.391-6.609,7.068-9.482,10.976c-2.988,4.023-5.919,8.16-8.045,12.7c-2.069,4.54-3.39,9.597-2.988,14.654
	c0.344,2.701,0.861,5.344,1.666,7.93c1.954,7.068,4.023,14.136,7.528,20.515c3.62,6.551,8.562,12.183,13.504,17.757
	c1.034,1.15,2.126,2.356,3.62,2.816c1.035,0.287,2.127,0.287,3.161,0c3.506-0.805,6.494-3.046,8.39-6.149
	c0.403-0.574,0.633-1.264,0.69-2.011c0.057-1.207-0.805-2.299-1.552-3.276c-2.873-3.907-4.424-8.619-5.976-13.274l-2.414-7.298
	c-1.092-3.391-2.184-6.781-2.586-10.344c-0.288-2.701-0.058-5.574,1.379-7.873c0.977-1.379,2.184-2.586,3.563-3.505
	c5.689-4.252,12.413-7.643,16.263-13.734C287.094,116.152,288.128,111.727,287.668,107.358z"/>
<path fill="#393944" d="M175.556,304.578c6.895,0,12.412,7.413,12.412,16.55c0,1.494-0.173,2.93-0.46,4.367
	c-0.058,0.23-0.058,0.403-0.115,0.575c-1.552,6.723-6.264,11.608-11.838,11.608c-0.23,0-0.403,0-0.575,0
	c-5.287-0.287-9.711-4.999-11.263-11.378c-0.057-0.23-0.115-0.518-0.172-0.805c-0.345-1.436-0.46-2.93-0.46-4.367
	C163.085,311.992,168.659,304.579,175.556,304.578z"/>
<path opacity="0.1" enable-background="new    " d="M175.555,304.635c6.895,0,12.412,7.413,12.412,16.55
	c0,1.494-0.173,2.93-0.46,4.367c-0.058,0.23-0.058,0.403-0.115,0.575c-0.977-0.23-1.954-0.46-2.873-0.805
	c-1.724,0.632-3.505,1.092-5.344,1.322c-1.149,0.173-2.241,0.23-3.39,0.23h-0.977c-0.92-0.057-1.897-0.115-2.816-0.287
	c-1.206-0.23-2.413-0.517-3.62-0.862c-1.379,0.288-2.701,0.518-4.08,0.575c-0.23,0-0.403,0-0.575,0
	c-0.057-0.23-0.115-0.518-0.172-0.805c-0.345-1.436-0.46-2.93-0.46-4.367C163.085,311.992,168.659,304.636,175.555,304.635z"/>
<path fill="#FF825C" d="M137.569,297.855c-0.057,0.518-0.057,1.092-0.057,1.667c0,1.897,0.173,3.736,0.575,5.517
	c2.988,13.849,16.435,22.584,30.054,19.538c5.229,1.666,10.918,1.494,16.09-0.46c10.517,3.563,22.067-0.288,28.503-9.482
	c8.045-11.608,5.345-27.584-5.976-35.801l-19.423,14.309l17.929-21.032c-0.805-3.276-2.299-6.322-4.31-8.965
	c-8.447-11.205-24.25-13.332-35.283-4.712l17.182,10.286l-20.917-6.608c-0.69,0.862-1.379,1.724-1.954,2.643
	c-7.585,0.517-14.539,4.597-18.906,10.976l12.815,7.643l-14.539-4.597c-1.782,3.562-2.701,7.527-2.701,11.55
	C136.651,292.856,136.996,295.384,137.569,297.855z"/>
<path fill="#FF825C" d="M137.742,297.913c-0.057,0.518-0.057,1.092-0.057,1.667c0,1.897,0.173,3.736,0.575,5.517
	c2.988,13.849,16.435,22.584,30.054,19.538c5.229,1.666,10.918,1.494,16.09-0.46c5.804,1.953,12.067,1.724,17.699-0.69
	c12.814-5.517,18.848-20.515,13.504-33.617c-4.885-1.092-9.999-0.747-14.711,0.919c-4.884,1.782-9.252,5-14.251,6.379
	c-8.562,2.356-17.526-0.862-26.261-2.356c-7.758-1.322-15.631-1.207-23.331,0.287C137.226,296.016,137.456,296.936,137.742,297.913z
	"/>
</svg>
